<svg xmlns="http://www.w3.org/2000/svg" width="568" height="568" fill="none" viewBox="0 0 568 568">
  <path fill="#ED7136" d="M489.788 402.609c-1.397-9.586 2.176-46.116 10.308-60.013 8.133-13.898 21.637-28.497 33.302-26.316 10.863 2.031 11.722 15.769.48 26.596-11.243 10.826-28.466 24.88-31.718 41.235l-8.86 27.843-3.512-9.345Z"/>
  <path fill="#000" d="M489.788 402.609c-1.397-9.586 2.176-46.116 10.308-60.013 8.133-13.898 21.637-28.497 33.302-26.316 10.863 2.031 11.722 15.769.48 26.596-11.243 10.826-28.466 24.88-31.718 41.235l-8.86 27.843-3.512-9.345Z" opacity=".1"/>
  <path fill="#fff" d="M492.39 399.602a.708.708 0 0 0 .526-.673c.502-33.698 22.047-64.907 36.748-73.6a.707.707 0 0 0 .249-.969.7.7 0 0 0-.97-.248c-14.981 8.857-36.934 40.588-37.443 74.796a.707.707 0 0 0 .89.694Z"/>
  <path fill="#ED7136" d="M497.661 417.189c.754-5.613 4.68-15.3 13.565-24.887 10.88-11.741 28.951-18.197 31.465-25.022 3.019-8.199-3.872-13.796-15.611-10.065-15.786 5.018-33.393 24.724-33.168 50.07l3.749 9.904Z"/>
  <path fill="#fff" d="M494.494 411.875a.71.71 0 0 0 .536-.551c5.946-29.498 29.76-45.386 39.479-48.117a.71.71 0 0 0 .491-.873.698.698 0 0 0-.872-.49c-10.748 3.019-34.415 19.091-40.485 49.201a.71.71 0 0 0 .851.83Z"/>
  <path fill="#E6E6E6" d="m166.213 84.546-8.653 4.996c.043-.386.072-.77.072-1.145V85.89c0-4.46-3.132-6.27-6.995-4.038-1.565.903-3.004 2.334-4.169 4.009-.633-5.61-5.034-7.699-10.38-4.614-5.78 3.338-10.465 11.452-10.465 18.126v3.75c0 1.729.321 3.185.886 4.346l-7.187 4.149c-2.143 1.237-3.881 4.247-3.881 6.721s1.737 3.477 3.881 2.24l46.89-27.072c2.143-1.237 3.88-4.246 3.88-6.72.001-2.476-1.736-3.479-3.879-2.24ZM56.956 95.708l4.774-3.676V81.517c0-8.336 6.649-18.011 13.868-22.18 7.22-4.167 13.07-.788 13.07 7.547v1.527c1.639-2.544 3.754-4.734 6.067-6.07 5.195-2.999 9.406-.568 9.406 5.43v.695l6.655-3.842c3.422-1.976 6.195-.374 6.195 3.576s-2.773 8.754-6.195 10.728l-53.84 31.085c-3.42 1.974-6.194.373-6.194-3.577 0-3.949 2.773-8.754 6.194-10.728Z"/>
  <path fill="#EDEDED" d="M70.684 399.293c0 3.141 2.351 7.044 5.25 8.717l147.103 84.93c2.899 1.674 7.601 1.674 10.5 0l218.011-125.856c2.899-1.675 5.251-5.578 5.251-8.718 0-3.141-2.351-7.044-5.25-8.718l-147.103-84.929c-2.899-1.675-7.601-1.675-10.5 0L75.933 390.575c-2.899 1.673-5.25 5.578-5.25 8.718Z"/>
  <path fill="#EDEDED" d="M228.291 482.832v11.361c-1.904 0-3.807-.412-5.249-1.248L75.933 408.012c-2.898-1.674-5.25-5.578-5.25-8.718 0-2.947 2.074-6.559 4.717-8.378-2.352 1.686-2.17 4.159.534 5.723l147.109 84.933c1.44.836 3.344 1.26 5.248 1.26ZM65.758 390.763c-2.72-1.57-4.925-5.557-4.925-8.905l-.001-175.546c0-3.348 2.35-7.419 5.25-9.094L284.094 71.362c2.899-1.675 7.455-1.759 10.175-.188 2.72 1.57 4.925 5.558 4.925 8.907v175.546c0 3.347-2.35 7.419-5.249 9.093L75.933 390.575c-2.9 1.674-7.455 1.759-10.175.188Z"/>
  <path fill="#EDEDED" d="M75.312 390.893c-2.898 1.358-7.02 1.334-9.554-.134-2.716-1.564-4.922-5.553-4.922-8.899V206.308c0-1.673.582-3.528 1.54-5.165l9.845 5.674v.011c-.945 1.65-1.54 3.492-1.54 5.166v175.553c0 3.103 2.025 4.497 4.631 3.346Z"/>
  <path fill="#EDEDED" d="M70.684 211.998v175.546c0 3.348 2.35 4.705 5.249 3.031l218.012-125.856c2.899-1.675 5.25-5.746 5.25-9.094V80.08c0-3.348-2.351-4.705-5.25-3.03L75.935 202.903c-2.9 1.675-5.251 5.746-5.251 9.094Z"/>
  <path fill="#EDEDED" d="m75.932 396.638 147.104 84.929c2.899 1.675 7.601 1.675 10.5 0l218.012-125.856c2.899-1.674 2.899-4.388 0-6.063l-147.103-84.929c-2.899-1.675-7.601-1.675-10.5 0L75.932 390.575c-2.899 1.673-2.899 4.388 0 6.063Z"/>
  <path fill="#ED7136" d="M78.756 209.645 289.547 87.987c1.741-1.004 3.15-.19 3.15 1.818v161.966c0 2.008-1.409 4.452-3.15 5.456L78.756 378.884c-1.74 1.005-3.15.19-3.15-1.818V215.102c0-2.009 1.41-4.452 3.15-5.457Z"/>
  <path fill="#263238" stroke="url(#a)" stroke-miterlimit="10" stroke-width=".5" d="M78.756 209.645 289.547 87.987c1.741-1.004 3.15-.19 3.15 1.818v161.966c0 2.008-1.409 4.452-3.15 5.456L78.756 378.884c-1.74 1.005-3.15.19-3.15-1.818V215.102c0-2.009 1.41-4.452 3.15-5.457Z"/>
  <path fill="#263238" stroke="url(#b)" stroke-miterlimit="10" stroke-width=".5" d="m93.01 392.093 203.563-117.514c1.449-.837 3.8-.837 5.25 0l9.556 5.517c1.45.837 1.45 2.193 0 3.03L107.788 400.623c-1.45.837-3.801.836-5.251 0l-9.528-5.5c-1.45-.837-1.45-2.193 0-3.03Z"/>
  <path fill="#263238" stroke="url(#c)" stroke-miterlimit="10" stroke-width=".5" d="m117.637 406.309 203.56-117.515c1.45-.837 3.8-.837 5.25 0l58.777 33.936c1.449.837 1.449 2.193 0 3.031L181.876 443.126c-1.449.838-3.802.841-5.255.008l-58.98-33.802c-1.452-.833-1.454-2.186-.004-3.023Z"/>
  <path fill="url(#d)" d="m296.52 338.761 6.409-3.7c.273-.158.278-.41.011-.565l-6.764-3.906c-.267-.154-.704-.151-.976.006l-6.409 3.7c-.273.157-.276.409-.009.564l6.763 3.905c.266.155.702.152.975-.004Zm-10.984-13.743-6.409 3.7c-.272.158-.276.41-.009.564l6.763 3.905c.267.155.705.151.976-.005l6.41-3.701c.272-.157.277-.411.01-.564l-6.765-3.905c-.267-.154-.704-.15-.976.006Zm-20.706 11.954-10.846 6.262c-.273.157-.276.41-.01.564l6.763 3.905c.267.155.705.151.976-.006l10.845-6.261c.273-.157.278-.41.011-.564l-6.764-3.905c-.266-.154-.703-.151-.975.005Zm11.339-6.546-6.41 3.701c-.271.157-.276.41-.009.563l6.764 3.906c.267.154.704.151.976-.006l6.409-3.7c.273-.158.277-.41.01-.563l-6.764-3.905c-.266-.156-.704-.153-.976.004Zm-25.143 14.517-6.41 3.7c-.272.158-.277.41-.01.563l6.765 3.906c.267.154.703.151.976-.006l6.409-3.701c.272-.157.276-.409.009-.564l-6.764-3.905c-.267-.153-.703-.15-.975.007Zm-9.368 5.408-6.409 3.7c-.273.157-.276.41-.01.564l6.763 3.904c.267.155.705.152.976-.006l6.409-3.7c.273-.158.278-.41.01-.563l-6.764-3.905c-.265-.154-.702-.152-.975.006Zm26.563 15.905 6.41-3.701c.271-.157.276-.41.009-.563l-6.764-3.906c-.267-.154-.704-.151-.976.006l-6.409 3.7c-.273.158-.277.41-.01.563l6.764 3.906c.267.155.705.152.976-.005Zm-9.366 5.408 6.409-3.7c.273-.158.276-.409.009-.564l-6.763-3.904c-.267-.155-.705-.152-.976.006l-6.41 3.699c-.272.157-.276.411-.01.564l6.764 3.905c.268.154.704.152.977-.006Zm-9.368 5.408 6.41-3.701c.272-.157.276-.409.009-.563l-6.764-3.906c-.267-.154-.704-.151-.977.006l-6.409 3.7c-.273.158-.276.41-.009.563l6.763 3.906c.269.155.705.152.977-.005Zm-9.367 5.409 6.409-3.7c.273-.157.276-.41.009-.564l-6.763-3.904c-.267-.154-.705-.152-.976.005l-6.409 3.7c-.273.157-.278.411-.011.564l6.764 3.904c.268.154.705.151.977-.005Zm47.034-38.313 6.408-3.7c.273-.157.276-.41.01-.563l-6.764-3.906c-.267-.155-.703-.151-.975.006l-6.41 3.7c-.272.157-.277.41-.01.564l6.764 3.906c.267.153.703.151.977-.007Zm-9.565 16.68 14.296-8.254c.273-.158.276-.41.009-.564l-16.426-9.484c-.267-.155-.705-.151-.976.005l-7.395 4.269c-.273.158-.278.411-.011.564l8.698 5.021c.267.153.262.407-.011.564l-5.915 3.415c-.272.157-.277.411-.01.564l6.764 3.905c.267.155.705.152.977-.005Zm-45.297-5.089-6.409 3.701c-.272.156-.277.41-.01.563l6.764 3.906c.267.154.704.151.976-.006l6.409-3.7c.273-.158.276-.41.009-.563l-6.763-3.906c-.267-.154-.704-.152-.976.005Zm-9.368 5.408-6.409 3.7c-.273.158-.277.41-.009.563l6.764 3.906c.267.155.704.151.976-.006l6.409-3.7c.272-.156.276-.41.01-.563l-6.765-3.906c-.267-.154-.703-.151-.976.006Zm-49.35 59.177c.267.153.703.151.976-.006l6.409-3.7c.272-.157.276-.41.009-.564l-6.763-3.904c-.267-.153-.705-.151-.976.006l-6.409 3.7c-.273.158-.278.41-.011.563l6.765 3.905Zm-25.586-15.912-6.409 3.7c-.273.156-.277.41-.009.563l6.763 3.904c.267.155.705.153.976-.005l6.41-3.7c.272-.157.276-.41.009-.564l-6.764-3.904c-.267-.153-.703-.152-.976.006Zm13.458 11.755c.267.154.705.151.976-.006l6.409-3.701c.273-.157.276-.41.01-.563l-6.764-3.906c-.267-.154-.705-.151-.976.006l-6.409 3.7c-.273.158-.278.409-.011.563l6.765 3.907Zm27.697 6.883 6.409-3.7c.273-.158.278-.41.011-.563l-6.764-3.906c-.267-.153-.704-.151-.977.006l-6.409 3.7c-.272.156-.276.409-.009.563l6.763 3.904c.267.155.705.153.976-.004Zm-10.342 5.413c.267.154.704.151.976-.006l6.409-3.701c.273-.157.276-.409.01-.563l-6.763-3.906c-.267-.154-.704-.151-.976.006l-6.41 3.701c-.271.157-.277.409-.01.563l6.764 3.906Zm-21.447-29.46-6.409 3.7c-.273.158-.276.409-.009.563l6.764 3.906c.267.153.704.151.976-.006l6.409-3.701c.273-.156.277-.409.01-.563l-6.764-3.906c-.267-.152-.704-.15-.977.007Zm46.835-27.04-6.409 3.7c-.271.158-.276.41-.009.563l6.764 3.906c.267.154.703.151.976-.006l6.409-3.701c.273-.157.276-.409.01-.563l-6.764-3.906c-.267-.153-.704-.15-.977.007Zm-37.467 21.633-6.409 3.7c-.273.156-.276.41-.011.563l6.764 3.906c.267.154.704.152.976-.006l6.409-3.7c.273-.158.276-.41.009-.563l-6.763-3.906c-.266-.154-.702-.152-.975.006Zm46.835-27.042-6.409 3.701c-.273.157-.276.411-.009.564l6.763 3.905c.267.155.703.153.976-.005l6.409-3.7c.273-.158.278-.41.011-.564l-6.764-3.905c-.267-.155-.704-.152-.977.004Zm-18.734 10.817-6.409 3.7c-.273.157-.277.41-.01.564l6.764 3.904c.267.155.705.152.977-.005l6.409-3.7c.272-.157.277-.41.01-.564l-6.765-3.904c-.266-.155-.703-.153-.976.005Zm-9.367 5.408-6.41 3.7c-.272.156-.277.41-.01.563l6.764 3.906c.267.154.704.151.976-.006l6.409-3.7c.272-.158.276-.41.009-.565l-6.764-3.905c-.264-.152-.702-.15-.974.007Zm-9.367 5.408-6.409 3.7c-.273.158-.277.41-.01.564l6.764 3.905c.267.155.704.151.975-.005l6.41-3.702c.271-.156.276-.41.009-.563l-6.764-3.904c-.266-.155-.702-.152-.975.005Zm45.297 5.09 6.41-3.7c.272-.157.277-.411.01-.564l-6.764-3.905c-.267-.155-.704-.152-.976.005l-6.409 3.7c-.273.158-.276.41-.009.564l6.764 3.905c.265.155.702.152.974-.005Zm84.856-80.234-6.409 3.7c-.273.157-.276.409-.011.564l6.765 3.905c.267.155.705.151.976-.006l6.409-3.7c.273-.157.277-.408.011-.563l-6.764-3.906c-.267-.154-.704-.151-.977.006Zm-11.34 6.547-6.409 3.701c-.273.157-.276.409-.01.563l6.764 3.906c.267.155.704.151.975-.006l6.41-3.7c.272-.158.276-.41.01-.563l-6.764-3.906c-.266-.155-.703-.152-.976.005Zm20.706-11.954-6.408 3.7c-.272.156-.277.41-.01.564l6.765 3.905c.266.154.704.152.976-.006l6.409-3.7c.273-.158.277-.41.01-.563l-6.764-3.906c-.268-.154-.704-.152-.978.006Zm-50.147 49.036 6.409-3.7c.273-.158.276-.41.009-.563l-6.764-3.906c-.267-.154-.704-.151-.975.006l-6.41 3.701c-.272.157-.276.409-.01.564l6.764 3.905c.268.154.704.15.977-.007Zm60.492-54.45c-.266-.154-.705-.152-.976.005l-6.408 3.7c-.273.158-.277.409-.01.564l6.763 3.905c.266.155.703.151.976-.005l6.409-3.702c.273-.156.278-.408.011-.563l-6.765-3.904Zm-95.199 85.647 6.409-3.7c.273-.158.276-.41.009-.563l-6.764-3.906c-.267-.154-.704-.151-.975.006l-6.41 3.701c-.272.157-.276.41-.009.563l6.764 3.906c.266.152.703.15.976-.007Zm114.87-66.321 6.409-3.7c.273-.156.276-.41.01-.563l-6.765-3.905c-.267-.154-.703-.152-.975.006l-6.41 3.7c-.271.157-.277.41-.01.564l6.764 3.904c.267.153.704.151.977-.006Zm-19.031-.17 6.41-3.701c.271-.157.276-.409.009-.564l-6.764-3.905c-.266-.155-.704-.151-.976.006l-6.409 3.699c-.273.158-.277.411-.01.564l6.763 3.905c.267.156.705.153.977-.004Zm9.023-13.578c-.266-.154-.705-.151-.976.006l-6.41 3.701c-.271.157-.276.41-.009.564l6.764 3.905c.267.155.704.151.976-.005l6.409-3.7c.273-.158.277-.41.01-.564l-6.764-3.907Zm1.972-1.138 16.426 9.485c.267.153.703.151.976-.006l6.409-3.7c.273-.158.278-.41.011-.563l-16.428-9.485c-.267-.153-.704-.151-.977.006l-6.409 3.7c-.271.155-.275.409-.008.563Zm-21.683 11.96-6.41 3.7c-.272.157-.277.41-.01.563l6.765 3.905c.267.154.704.152.976-.006l6.409-3.7c.272-.158.277-.41.011-.563l-6.764-3.906c-.267-.152-.705-.15-.977.007Zm-70.499 40.703-6.41 3.701c-.272.157-.277.41-.01.563l6.764 3.906c.267.155.704.151.976-.006l6.409-3.7c.273-.158.276-.41.009-.563l-6.764-3.906c-.265-.155-.703-.152-.974.005Zm89.874-32.364c.266.155.705.151.976-.005l6.41-3.7c.271-.158.276-.41.009-.564l-6.764-3.905c-.266-.155-.704-.151-.976.005l-6.409 3.701c-.273.157-.277.409-.01.564l6.764 3.904Zm-80.508 26.957-6.409 3.699c-.273.158-.276.411-.009.564l6.763 3.905c.267.155.704.152.976-.005l6.41-3.701c.272-.157.277-.41.01-.564l-6.764-3.905c-.267-.154-.704-.151-.977.007Zm-71.83 60.997c.267.155.704.151.976-.006l6.409-3.7c.271-.157.276-.41.009-.563l-6.764-3.906c-.267-.154-.703-.151-.976.006l-6.409 3.701c-.273.157-.276.41-.01.564l6.765 3.904Zm-12.474-12.326-6.409 3.702c-.273.156-.276.41-.009.563l6.764 3.906c.267.154.704.151.976-.006l6.409-3.7c.273-.158.277-.41.009-.564l-6.764-3.905c-.266-.155-.703-.152-.976.004Zm22.817 6.912 6.409-3.7c.273-.157.277-.41.011-.564l-6.765-3.904c-.267-.154-.705-.152-.976.006l-6.409 3.7c-.272.156-.277.41-.01.563l6.765 3.905c.265.153.702.152.975-.006Zm9.366-5.407 6.41-3.7c.272-.158.277-.411.01-.564l-6.765-3.905c-.266-.155-.703-.152-.976.005l-6.409 3.7c-.272.158-.277.41-.009.564l6.765 3.905c.265.154.703.151.974-.005Zm9.368-5.409 6.409-3.7c.273-.158.276-.41.01-.565l-6.763-3.905c-.267-.153-.704-.151-.976.007l-6.41 3.7c-.272.156-.277.41-.01.563l6.764 3.906c.267.153.703.151.976-.006Zm-32.183-1.503-6.409 3.7c-.273.157-.276.41-.011.563l6.765 3.905c.267.154.703.152.976-.006l6.409-3.7c.273-.156.276-.41.011-.563l-6.764-3.905c-.268-.154-.704-.152-.977.006Zm9.367-5.408-6.409 3.7c-.273.157-.277.41-.01.563l6.764 3.906c.266.154.704.151.975-.006l6.41-3.701c.271-.157.276-.409.009-.564l-6.764-3.905c-.266-.152-.703-.15-.975.007Zm37.468-21.632-6.409 3.7c-.273.158-.276.41-.01.563l6.764 3.905c.267.154.705.152.976-.006l6.409-3.7c.273-.157.278-.41.011-.563l-6.765-3.905c-.266-.154-.703-.152-.976.006Zm-9.366 5.407-6.41 3.7c-.271.157-.277.41-.009.564l6.764 3.905c.267.155.704.151.976-.005l6.409-3.7c.273-.158.277-.411.01-.565l-6.763-3.906c-.269-.153-.706-.15-.977.007Zm18.733-10.816-6.409 3.7c-.273.158-.276.41-.01.564l6.764 3.905c.267.155.704.151.975-.005l6.41-3.701c.272-.157.276-.409.009-.564l-6.764-3.905c-.266-.154-.702-.15-.975.006Zm-37.467 21.632-6.41 3.701c-.272.157-.277.41-.01.564l6.764 3.905c.267.155.703.152.976-.005l6.409-3.7c.273-.158.277-.409.01-.564l-6.765-3.904c-.265-.156-.703-.154-.974.003Zm9.366-5.407-6.409 3.7c-.273.158-.277.41-.009.563l6.763 3.906c.266.154.704.151.976-.006l6.41-3.701c.272-.157.277-.409.01-.564l-6.765-3.905c-.266-.153-.704-.15-.976.007Zm-9.426 36.683 6.409-3.701c.273-.156.276-.409.01-.563l-6.765-3.906c-.267-.154-.704-.152-.976.006l-6.409 3.7c-.273.158-.277.41-.01.563l6.764 3.906c.268.155.704.152.977-.005Zm-52.15-3.922-6.765-3.906c-.266-.154-.703-.151-.975.006l-6.41 3.7c-.272.157-.277.409-.01.563l6.764 3.906c.267.153.704.151.977-.006l6.409-3.7c.272-.156.276-.409.01-.563Zm13.113 3.587-6.764-3.904c-.266-.155-.703-.152-.975.006l-9.861 5.692c-.272.157-.276.41-.009.564l6.764 3.904c.267.154.703.152.976-.006l9.86-5.692c.272-.158.276-.41.009-.564Zm-23.362-11.212-6.763-3.904c-.267-.155-.704-.153-.976.005l-7.889 4.554c-.271.157-.277.411-.01.564l6.764 3.905c.267.155.704.152.976-.005l7.888-4.554c.273-.158.277-.41.01-.565Zm6.048-3.491c.266.155.704.151.976-.006l6.41-3.701c.272-.156.277-.409.01-.563l-6.764-3.906c-.267-.154-.704-.151-.977.006l-6.408 3.7c-.273.158-.277.41-.01.563l6.763 3.907Zm29.442 18.858-6.764-3.906c-.267-.153-.704-.151-.975.007l-12.326 7.116c-.273.158-.276.41-.009.563l6.764 3.906c.267.154.703.151.975-.006l12.326-7.116c.272-.158.276-.41.009-.564Zm5.227 8.14-6.765-3.904c-.266-.155-.703-.152-.976.005l-7.888 4.555c-.273.156-.277.41-.01.563l6.763 3.906c.267.154.705.151.976-.006l7.889-4.554c.273-.158.277-.41.011-.565Zm34.976-67.208c.266.155.703.151.976-.005l6.409-3.702c.273-.156.278-.408.011-.563l-6.764-3.906c-.267-.154-.705-.151-.977.006l-6.408 3.7c-.273.158-.278.41-.011.564l6.764 3.906ZM193.07 373.23c.267.155.705.151.976-.005l6.409-3.702c.273-.156.276-.408.01-.563l-6.764-3.906c-.267-.154-.703-.151-.976.006l-6.409 3.7c-.273.158-.276.41-.011.565l6.765 3.905Zm-41.543 23.985c.267.154.704.152.976-.006l6.409-3.7c.273-.157.277-.41.01-.564l-6.764-3.905c-.267-.153-.703-.151-.975.006l-6.41 3.7c-.271.156-.277.41-.009.563l6.763 3.906Zm50.911-29.393c.267.154.704.152.976-.006l6.409-3.7c.273-.157.276-.41.009-.563l-6.764-3.906c-.267-.153-.703-.152-.976.006l-6.409 3.7c-.273.156-.277.41-.01.563l6.765 3.906Zm-18.734 10.816c.267.153.704.151.976-.006l6.409-3.7c.273-.157.277-.41.01-.564l-6.763-3.904c-.267-.153-.705-.152-.976.006l-6.41 3.7c-.272.158-.276.41-.009.563l6.763 3.905Zm-2.005 51.519c-.267-.154-.704-.152-.976.006l-9.86 5.693c-.273.156-.276.409-.011.563l6.764 3.905c.267.154.703.152.976-.006l9.86-5.693c.273-.156.276-.41.01-.563l-6.763-3.905Zm-11.438-43.758c.267.154.704.151.975-.006l6.41-3.7c.272-.158.276-.41.01-.563l-6.764-3.906c-.267-.154-.704-.151-.977.006l-6.409 3.7c-.273.156-.276.409-.01.563l6.765 3.906Zm-9.368 5.408c.267.154.704.151.976-.005l6.409-3.702c.273-.156.277-.41.01-.563l-6.763-3.906c-.267-.154-.705-.151-.976.006l-6.409 3.7c-.273.158-.276.409-.01.564l6.763 3.906Zm194.344-61.841c-.267-.155-.704-.153-.976.005l-15.776 9.109c-.273.157-.277.41-.01.563l6.765 3.905c.266.154.703.152.976-.006l15.775-9.108c.273-.157.277-.409.01-.564l-6.764-3.904Zm-20.706 11.954c-.267-.155-.704-.152-.976.005l-6.409 3.7c-.273.158-.277.411-.011.564l6.764 3.905c.267.154.704.152.977-.006l6.409-3.7c.273-.157.276-.41.011-.564l-6.765-3.904Zm-126.653 70.333 6.409-3.7c.272-.158.276-.41.009-.563l-6.763-3.906c-.267-.154-.705-.151-.976.006l-6.409 3.701c-.273.157-.278.409-.011.563l6.764 3.906c.267.153.704.151.977-.007Zm107.919-59.517c-.267-.155-.704-.151-.976.005l-6.409 3.7c-.273.158-.276.41-.009.564l6.763 3.905c.267.155.705.151.976-.005l6.41-3.701c.272-.157.277-.411.01-.564l-6.765-3.904Zm48.807-28.179c-.267-.154-.704-.151-.976.006l-6.409 3.701c-.272.157-.276.41-.009.563l6.764 3.906c.266.154.704.151.975-.006l6.41-3.7c.272-.158.276-.41.01-.563l-6.765-3.907Zm16.131-1.503-16.428-9.484c-.266-.155-.703-.151-.975.005l-6.41 3.702c-.272.156-.277.41-.009.563l16.427 9.484c.267.155.704.152.976-.005l6.409-3.701c.273-.157.277-.41.01-.564Zm-99.942 49.891c-.267-.154-.704-.151-.975.006l-7.889 4.554c-.273.157-.277.41-.01.565l6.764 3.904c.267.155.704.152.975-.006l7.889-4.554c.272-.157.277-.41.01-.563l-6.764-3.906Zm23.664-13.663c-.267-.154-.704-.151-.975.006l-9.861 5.694c-.273.156-.276.409-.01.563l6.764 3.906c.267.154.703.151.975-.006l9.861-5.692c.272-.157.277-.409.01-.564l-6.764-3.907Zm-45.356 26.187c-.267-.154-.704-.151-.975.006l-52.752 30.456c-.272.157-.277.41-.01.564l6.764 3.905c.267.155.703.153.976-.005l52.751-30.457c.273-.157.277-.41.01-.564l-6.764-3.905Zm-55.709 32.164c-.267-.154-.704-.151-.976.006l-7.888 4.554c-.273.157-.276.41-.009.563l6.763 3.906c.267.153.705.151.976-.007l7.889-4.554c.271-.157.276-.409.009-.564l-6.764-3.904Zm66.555-38.426c-.267-.155-.703-.151-.976.005l-7.887 4.555c-.273.158-.277.41-.01.563l6.763 3.904c.267.155.705.153.976-.004l7.887-4.554c.273-.157.276-.409.009-.564l-6.762-3.905Zm-77.402 44.688c-.267-.155-.704-.151-.975.005l-7.889 4.555c-.272.157-.276.41-.009.563l6.764 3.906c.267.154.703.151.976-.006l7.888-4.554c.273-.158.277-.41.01-.564l-6.765-3.905Zm99.095-57.212c-.267-.154-.703-.152-.976.006l-7.888 4.554c-.272.157-.276.41-.009.564l6.763 3.905c.266.155.705.153.976-.005l7.889-4.555c.272-.156.276-.41.009-.563l-6.764-3.906Zm33.523-19.356c-.267-.154-.704-.151-.977.006l-6.409 3.7c-.273.157-.276.409-.009.563l6.764 3.906c.267.153.704.151.975-.006l6.41-3.7c.272-.158.276-.41.01-.563l-6.764-3.906Zm20.756-14.772 6.409-3.7c.273-.158.278-.41.011-.564l-6.764-3.904c-.267-.155-.704-.152-.976.005l-6.409 3.7c-.272.157-.276.41-.011.564l6.765 3.904c.265.155.704.153.975-.005Zm-40.031.797 6.409-3.7c.273-.157.276-.41.01-.563l-6.765-3.905c-.267-.154-.703-.152-.976.006l-6.409 3.7c-.273.158-.277.41-.01.563l6.764 3.905c.267.154.704.152.977-.006Zm-23.074 35.636 18.734-10.815c.273-.157.276-.411.009-.564l-6.764-3.905c-.267-.154-.703-.152-.975.005l-18.734 10.816c-.273.157-.277.41-.01.563l6.763 3.905c.268.156.705.153.977-.005Zm52.762-31.019c.267.154.704.151.976-.006l6.409-3.7c.273-.158.277-.41.01-.563l-6.764-3.906c-.265-.153-.703-.151-.975.006l-6.41 3.701c-.271.157-.276.41-.01.563l6.764 3.905Zm-8.687-5.584 6.409-3.701c.272-.157.276-.41.009-.563l-6.764-3.906c-.266-.154-.704-.151-.975.006l-6.41 3.7c-.272.158-.277.41-.01.563l6.764 3.906c.268.154.705.152.977-.005Zm-53.441 42.012 6.409-3.701c.273-.157.277-.409.01-.564l-6.763-3.905c-.267-.155-.705-.151-.977.005l-6.41 3.702c-.272.156-.276.409-.009.563l6.764 3.906c.266.153.703.151.976-.006Zm41.422-24.473c.267.155.704.151.976-.006l6.409-3.701c.273-.157.276-.41.01-.563l-6.765-3.906c-.267-.154-.703-.151-.975.006l-6.41 3.7c-.272.158-.277.41-.009.563l6.764 3.907Zm-88.258 51.513 6.409-3.701c.272-.157.276-.409.01-.563l-6.763-3.906c-.267-.154-.704-.152-.976.006l-6.41 3.701c-.272.157-.276.409-.01.563l6.764 3.906c.267.154.704.151.976-.006Zm9.367-5.408 6.41-3.7c.271-.158.276-.41.009-.564l-6.764-3.905c-.267-.154-.703-.151-.976.006l-6.409 3.7c-.273.157-.276.41-.01.564l6.764 3.904c.267.155.704.153.976-.005Zm-18.734 10.817 6.41-3.7c.272-.157.277-.41.009-.564l-6.764-3.904c-.267-.155-.704-.152-.976.005l-6.409 3.7c-.273.157-.276.41-.01.564l6.764 3.905c.266.153.704.15.976-.006Zm37.468-21.633 6.409-3.7c.273-.158.278-.41.011-.564l-6.764-3.905c-.267-.155-.704-.151-.977.005l-6.409 3.7c-.272.157-.276.409-.01.564l6.764 3.905c.267.155.705.151.976-.005Zm-9.367 5.408 6.409-3.7c.273-.156.277-.409.01-.563L245 382.452c-.266-.154-.704-.152-.976.006l-6.409 3.7c-.271.158-.276.41-.009.563l6.764 3.906c.267.153.704.151.976-.006Zm18.735-10.817 6.409-3.7c.272-.156.276-.41.01-.563l-6.764-3.905c-.267-.154-.704-.152-.976.006l-6.409 3.7c-.272.157-.276.41-.009.563l6.764 3.906c.264.153.702.151.975-.007Zm47.031-77.591c.267.154.704.151.976-.006l6.409-3.701c.273-.156.276-.409.01-.563l-1.8-1.039c-.267-.155-.704-.152-.977.005l-6.409 3.701c-.272.157-.276.409-.01.564l1.801 1.039Zm-46.325 29.611c.266.155.703.152.976-.006l6.409-3.699c.272-.157.277-.409.01-.564l-6.763-3.904c-.267-.155-.705-.153-.976.004l-6.409 3.701c-.273.157-.278.41-.011.564l6.764 3.904Zm18.734-10.816c.267.155.704.151.976-.005l6.409-3.7c.273-.158.276-.409.01-.564l-6.765-3.905c-.267-.155-.704-.151-.975.005l-6.41 3.7c-.271.157-.277.41-.009.564l6.764 3.905Zm-30.172 17.42c.267.154.703.152.976-.006l6.409-3.7c.272-.157.276-.41.009-.563l-6.764-3.906c-.267-.153-.704-.151-.976.007l-6.409 3.7c-.273.157-.277.41-.01.563l6.765 3.905Zm20.804-12.011c.266.154.705.151.976-.006l6.41-3.701c.271-.157.276-.41.009-.563l-6.764-3.906c-.266-.154-.703-.152-.976.006l-6.409 3.7c-.273.158-.277.41-.01.563l6.764 3.907Zm-39.539 22.828c.267.153.704.151.976-.007l6.409-3.7c.273-.157.277-.41.01-.565l-6.764-3.904c-.267-.155-.704-.152-.977.006l-6.409 3.7c-.273.157-.276.41-.009.563l6.764 3.907Zm9.367-5.409c.267.154.705.151.976-.005l6.409-3.702c.273-.156.276-.408.009-.563l-6.763-3.906c-.267-.154-.703-.151-.976.006l-6.409 3.7c-.273.158-.276.41-.011.564l6.765 3.906Zm48.397-30.807c.267.155.705.151.976-.006l6.409-3.701c.273-.157.276-.409.011-.563l-1.801-1.04c-.267-.154-.704-.151-.976.006l-6.409 3.701c-.273.157-.277.409-.01.564l1.8 1.039Zm28.101-16.224c.267.154.705.152.976-.006l6.41-3.7c.272-.158.276-.41.009-.563l-1.801-1.04c-.267-.153-.703-.151-.976.007l-6.409 3.7c-.273.157-.277.41-.01.563l1.801 1.039Zm14.21 8.203c.267.154.704.151.975-.006l6.41-3.7c.272-.158.276-.41.01-.563l-6.765-3.906c-.266-.154-.704-.151-.976.006l-6.409 3.701c-.273.157-.277.41-.009.563l6.764 3.905Zm20.598 22.139 6.409-3.701c.272-.157.277-.409.01-.563l-6.764-3.906c-.266-.154-.704-.151-.976.006l-6.409 3.7c-.271.158-.276.41-.009.563l6.764 3.906c.265.155.702.152.975-.005Zm-53.541-19.526c.267.154.703.152.976-.006l6.409-3.7c.272-.157.277-.41.01-.564l-1.8-1.039c-.267-.154-.705-.152-.976.006l-6.41 3.7c-.271.158-.276.41-.009.563l1.8 1.04Zm-76.499 47.031c.267.155.705.151.976-.006l6.41-3.7c.272-.157.277-.41.01-.563l-6.764-3.906c-.267-.154-.704-.151-.976.006l-6.409 3.701c-.272.157-.276.409-.009.564l6.762 3.904Z"/>
  <path fill="#263238" stroke="url(#e)" stroke-miterlimit="10" stroke-width=".5" d="m259.555 409.72 57.726-33.328c1.739-1.004 4.56-1.004 6.3 0l33.101 19.111c1.739 1.004 1.739 2.633 0 3.637l-57.726 33.328c-1.739 1.004-4.56 1.004-6.3 0l-33.101-19.111c-1.74-1.005-1.74-2.633 0-3.637Z"/>
  <path fill="#ED7136" d="M249.785 157.044c-18.046 16.205-33.631 15.356-43.374 7.853-9.734 18.757-25.318 37.593-43.365 42.224l-10.303 27.83s5.522 6.363 5.522 21.588c0 6.862-1.051 12.894-2.552 18.886-1.88 7.512-4.301 15.284-4.301 28.259 0 8.803 1.16 17.356 5.612 25.138 2.571 4.502 6.282 8.314 11.284 11.305-3.331-1.921-13.134-7.583-15.665-9.043-5.302-3.051-9.203-6.973-11.875-11.644-4.452-7.793-5.612-16.336-5.612-25.138 0-12.975 2.421-20.747 4.301-28.27 1.501-5.982 2.561-12.014 2.561-18.876 0-15.224-5.522-21.587-5.522-21.587l10.293-27.83c18.046-4.631 33.631-23.467 43.364-42.224 9.744 7.502 25.329 8.353 43.375-7.853l16.257 9.382Z"/>
  <path fill="#fff" d="m195.869 158.811-5.713-3.297a24.885 24.885 0 0 0 5.713 3.297Z" opacity=".8"/>
  <path fill="url(#f)" d="M233.532 147.66c-14.849 13.335-28.029 15.116-37.661 11.151l10.542 6.086c9.744 7.502 25.328 8.353 43.375-7.853l-16.256-9.384Z"/>
  <path fill="url(#g)" d="M190.158 155.514c-9.734 18.756-25.319 37.592-43.365 42.224l16.255 9.383c18.046-4.631 33.631-23.467 43.365-42.224l-16.255-9.383Z"/>
  <path fill="url(#h)" d="m146.791 197.738-10.295 27.829 16.246 9.383 10.304-27.828-16.255-9.384Z"/>
  <path fill="#fff" d="M157.023 328.821c-4.452-7.783-5.612-16.336-5.612-25.139 0-12.974 2.421-20.746 4.301-28.259 1.501-5.992 2.552-12.023 2.552-18.886 0-15.224-5.522-21.587-5.522-21.587l-16.246-9.384s5.522 6.363 5.522 21.588c0 6.862-1.061 12.895-2.561 18.876-1.88 7.522-4.301 15.295-4.301 28.269 0 8.803 1.16 17.346 5.612 25.139 2.671 4.671 6.572 8.592 11.875 11.643 2.531 1.461 12.333 7.123 15.665 9.043-5.003-2.991-8.714-6.802-11.285-11.303Z" opacity=".4"/>
  <path fill="url(#i)" d="M157.023 328.821c-4.452-7.783-5.612-16.336-5.612-25.139 0-12.974 2.421-20.746 4.301-28.259 1.501-5.992 2.552-12.023 2.552-18.886 0-15.224-5.522-21.587-5.522-21.587l-16.246-9.384s5.522 6.363 5.522 21.588c0 6.862-1.061 12.895-2.561 18.876-1.88 7.522-4.301 15.295-4.301 28.269 0 8.803 1.16 17.346 5.612 25.139 2.671 4.671 6.572 8.592 11.875 11.643 2.531 1.461 12.333 7.123 15.665 9.043-5.003-2.991-8.714-6.802-11.285-11.303Z"/>
  <path fill="#ED7136" d="M206.413 347.882c-26.953.299-42.393-6.809-49.392-19.063-4.447-7.785-5.607-16.336-5.607-25.139 0-12.973 2.414-20.742 4.298-28.261 1.499-5.984 2.557-12.02 2.557-18.878 0-15.225-5.522-21.587-5.522-21.587l10.297-27.835c18.046-4.631 33.631-23.471 43.369-42.227 9.739 7.51 25.324 8.354 43.37-7.851l10.297 15.944s-5.522 12.738-5.522 27.962c0 6.857 1.058 11.673 2.557 15.926 1.884 5.344 4.298 10.327 4.298 23.299 0 8.802-1.16 18.692-5.607 31.613-6.999 20.335-22.44 45.273-49.393 76.097Z"/>
  <path fill="url(#j)" d="M206.413 347.882c-26.953.299-42.393-6.809-49.392-19.063-4.447-7.785-5.607-16.336-5.607-25.139 0-12.973 2.414-20.742 4.298-28.261 1.499-5.984 2.557-12.02 2.557-18.878 0-15.225-5.522-21.587-5.522-21.587l10.297-27.835c18.046-4.631 33.631-23.471 43.369-42.227 9.739 7.51 25.324 8.354 43.37-7.851l10.297 15.944s-5.522 12.738-5.522 27.962c0 6.857 1.058 11.673 2.557 15.926 1.884 5.344 4.298 10.327 4.298 23.299 0 8.802-1.16 18.692-5.607 31.613-6.999 20.335-22.44 45.273-49.393 76.097Z"/>
  <path fill="#ED7136" d="M203.223 340.879c-20.879-.247-34.373-5.469-40.121-15.532-3.24-5.673-4.684-12.355-4.684-21.666 0-10.654 1.747-17.444 3.436-24.012.221-.857.44-1.705.651-2.549 1.914-7.638 2.768-13.985 2.768-20.58 0-11.091-2.659-18.355-4.768-22.373l7.902-21.359c19.315-6.715 33.274-25.785 40.671-38.295 3.933 1.679 8.189 2.548 12.602 2.548 8.727 0 17.598-3.247 26.451-9.67l4.154 6.428c-1.802 5.212-4.727 15.47-4.727 27.129 0 6.824.911 12.453 2.953 18.252.218.618.442 1.228.667 1.845 1.663 4.538 3.233 8.827 3.233 19.128 0 9.787-1.612 18.834-5.225 29.333-6.888 20.017-22.348 44.02-45.963 71.373Z" opacity=".75"/>
  <path fill="#fff" d="M203.223 340.879c-20.879-.247-34.373-5.469-40.121-15.532-3.24-5.673-4.684-12.355-4.684-21.666 0-10.654 1.747-17.444 3.436-24.012.221-.857.44-1.705.651-2.549 1.914-7.638 2.768-13.985 2.768-20.58 0-11.091-2.659-18.355-4.768-22.373l7.902-21.359c19.315-6.715 33.274-25.785 40.671-38.295 3.933 1.679 8.189 2.548 12.602 2.548 8.727 0 17.598-3.247 26.451-9.67l4.154 6.428c-1.802 5.212-4.727 15.47-4.727 27.129 0 6.824.911 12.453 2.953 18.252.218.618.442 1.228.667 1.845 1.663 4.538 3.233 8.827 3.233 19.128 0 9.787-1.612 18.834-5.225 29.333-6.888 20.017-22.348 44.02-45.963 71.373Z" opacity=".4"/>
  <path fill="url(#k)" d="M203.223 340.879c-20.879-.247-34.373-5.469-40.121-15.532-3.24-5.673-4.684-12.355-4.684-21.666 0-10.654 1.747-17.444 3.436-24.012.221-.857.44-1.705.651-2.549 1.914-7.638 2.768-13.985 2.768-20.58 0-11.091-2.659-18.355-4.768-22.373l7.902-21.359c19.315-6.715 33.274-25.785 40.671-38.295 3.933 1.679 8.189 2.548 12.602 2.548 8.727 0 17.598-3.247 26.451-9.67l4.154 6.428c-1.802 5.212-4.727 15.47-4.727 27.129 0 6.824.911 12.453 2.953 18.252.218.618.442 1.228.667 1.845 1.663 4.538 3.233 8.827 3.233 19.128 0 9.787-1.612 18.834-5.225 29.333-6.888 20.017-22.348 44.02-45.963 71.373Z"/>
  <path fill="url(#l)" d="M167.883 331.135c7.111 6.27 18.935 9.55 35.339 9.744l-10.469-5.962c-9.365-.057-17.699-1.268-24.87-3.782Z"/>
  <path fill="#000" d="m246.832 170.675 5.452 3.145-4.153-6.429-2.365 1.632 1.066 1.652Z" opacity=".15"/>
  <path fill="#FFDAB8" d="M245.058 216.056c-2.042-5.799-2.953-11.429-2.953-18.252 0-11.659 2.926-21.918 4.727-27.129l-1.067-1.652c-8.066 5.335-16.136 8.04-24.085 8.04-4.413 0-8.669-.868-12.602-2.548-7.397 12.509-21.356 31.58-40.671 38.294l-7.902 21.36c2.109 4.018 4.768 11.282 4.768 22.373 0 6.594-.855 12.941-2.768 20.58-.211.844-.429 1.691-.651 2.549-1.689 6.567-3.436 13.357-3.436 24.012 0 9.31 1.445 15.992 4.684 21.665 1.634 2.862 3.918 5.318 6.796 7.394 6.978 3.18 16.283 4.856 27.873 4.993 23.615-27.353 39.075-51.357 45.963-71.372 3.613-10.5 5.225-19.546 5.225-29.333 0-10.301-1.57-14.588-3.233-19.128-.226-.619-.449-1.229-.668-1.846Z"/>
  <path fill="#FFDAB8" d="m168.407 212.808-7.902 21.359c2.109 4.018 4.768 11.283 4.768 22.374 0 6.594-.855 12.941-2.768 20.58-.211.844-.429 1.691-.651 2.549-1.689 6.567-3.436 13.357-3.436 24.011 0 9.311 1.445 15.993 4.684 21.666 1.634 2.862 3.918 5.318 6.796 7.393 6.978 3.181 16.283 4.857 27.873 4.994v-78.703l11.307-3.419v-81.098c-3.16 5.392-6.88 10.786-11.307 16.179-7.559 9.114-17.44 17.97-29.364 22.115Z"/>
  <path fill="#ED7136" d="M229.333 233.028c0-.972-.641-1.945-1.926-2.686l-3.789-2.188c-2.569-1.484-6.736-1.484-9.306 0l-34.342 19.827c-1.286.743-1.928 1.717-1.927 2.691v45.357c-.003.974.638 1.949 1.927 2.693l3.787 2.187c2.57 1.483 6.735 1.483 9.306 0l34.344-19.828c1.285-.742 1.926-1.714 1.926-2.687v-45.366Z"/>
  <path fill="#fff" d="m183.758 255.542-3.788-2.187c-2.569-1.484-2.569-3.89 0-5.374l34.341-19.827c2.57-1.484 6.737-1.484 9.307 0l3.788 2.188c2.57 1.483 2.57 3.888 0 5.372l-34.343 19.828c-2.57 1.483-6.737 1.483-9.305 0Z" opacity=".4"/>
  <path fill="#000" d="M188.416 256.652v45.368c-1.687 0-3.373-.366-4.653-1.107l-3.793-2.191c-1.289-.742-1.934-1.72-1.923-2.697v-45.357c0 .978.634 1.945 1.923 2.687l3.793 2.192c1.278.74 2.966 1.105 4.653 1.105Z" opacity=".1"/>
  <path fill="#455A64" d="m213.407 279.092-8.2 4.735 1.27-14.834c-.98-.518-1.606-1.794-1.606-3.627 0-3.266 1.986-7.06 4.436-8.474 2.449-1.415 4.435.087 4.435 3.353 0 1.832-.625 3.829-1.606 5.481l1.271 13.366Z"/>
  <path fill="#37474F" d="m213.407 279.093-7.427-4.288-.773 9.022 8.2-4.734Zm-4.098-22.202c-1.603.926-3.002 2.871-3.782 5.02l6.612 3.817v-.002c.98-1.651 1.606-3.649 1.606-5.481-.001-3.266-1.988-4.767-4.436-3.354Z"/>
  <path fill="#E0E0E0" d="m220.055 234.04.001-.006-.001-18.138c0-5.617-2.123-10.064-5.824-12.202-3.533-2.041-7.902-1.764-12.304.778-8.085 4.668-14.418 16.058-14.418 25.93v18.237c0 .548.365 1.097 1.088 1.515 1.449.836 3.797.836 5.245 0 .724-.418 1.09-.966 1.09-1.515v-18.237c0-7.22 4.903-16.152 10.706-19.503 1.979-1.143 3.758-1.425 4.883-.778 1.323.765 2.114 2.923 2.114 5.774v18.15h.001c.006.544.369 1.086 1.087 1.501 1.449.836 3.797.836 5.245 0 .719-.415 1.083-.958 1.088-1.501h.002v-.005h-.003Z"/>
  <path fill="#ED7136" d="m264.199 313.769 4.999-2.885 1.981-2.4-4.999 2.886-1.981 2.399Z"/>
  <path fill="#000" d="m264.199 313.769 4.999-2.885 1.981-2.4-4.999 2.886-1.981 2.399Z" opacity=".4"/>
  <path fill="#ED7136" d="m277.801 321.623 4.998-2.886 4.177-3.698-4.998 2.887-4.177 3.697Z"/>
  <path fill="#000" d="m277.801 321.623 4.998-2.886 4.177-3.698-4.998 2.887-4.177 3.697Z" opacity=".4"/>
  <path fill="#ED7136" d="M320.302 331.596c1.096 1.394 1.894 3.442 2.066 5.44-1.096-1.395-1.895-3.443-2.066-5.44Zm11.62.151c-1.682-11.452-7.834-22.78-15.168-27.014-3.519-2.035-6.776-2.109-9.385-.583-.763.443-3.593 2.075-4.708 2.715-.09.049-.181.099-.263.156a8.425 8.425 0 0 0-1.69 1.279c-.049.041-.099.099-.156.147a8.686 8.686 0 0 0-.435.476 11.738 11.738 0 0 0-1.42 2.026c-.14.246-.279.509-.41.779l-41.107-23.732-4.996 2.88v3.183l.426.246.394.23v.672l-.82.476v1.854l6.037 12.781 5.972 3.454 1.985-2.404 5.266 3.15 3.028 5.185 3.331 1.92 4.176-3.7 5.126 2.961 1.724 7.105 8.589 4.955a47.53 47.53 0 0 0 1.624 5.341c.058.18.123.361.197.557 2.855 7.507 7.4 13.93 12.519 16.89.656.378 1.296.69 1.928.927.361.148.722.263 1.074.362.32.089.64.163.96.213a8.226 8.226 0 0 0 3.043-.008l.418-.099c.197-.041.394-.098.583-.172l.443-.173a3.35 3.35 0 0 0 .459-.214 4.01 4.01 0 0 0 .427-.221c.074-.041.148-.082.214-.123.033-.008.066-.033.099-.058 1.14-.656 3.954-2.281 4.716-2.715 3.798-2.198 6.26-7.769 6.26-15.644 0-2-.156-4.035-.46-6.06Z"/>
  <path fill="#ED7136" d="M318.835 341.255c-1.972-1.138-3.57-4.522-3.57-7.559 0-3.036 1.598-4.574 3.57-3.436 1.972 1.138 3.57 4.522 3.57 7.559.002 3.037-1.598 4.576-3.57 3.436Zm8.091-6.63c-1.682-11.444-7.834-22.772-15.168-27.005-3.397-1.96-6.538-2.108-9.097-.754-.09.049-.181.099-.263.156a8.425 8.425 0 0 0-1.69 1.279c-.049.041-.099.099-.156.148a8.01 8.01 0 0 0-.435.476 11.738 11.738 0 0 0-1.42 2.025c-.14.247-.279.509-.41.779-.68 1.395-1.222 3.019-1.584 4.857l-44.519-25.709v3.183l.426.247.394.229v.673l-.82.476v1.853l6.037 12.782 5.972 3.453 1.985-2.404 5.266 3.15 3.028 5.185 3.331 1.92 4.176-3.7 5.126 2.962 1.724 7.104 8.589 4.955a47.53 47.53 0 0 0 1.624 5.341c.058.18.123.361.197.557 2.855 7.507 7.4 13.93 12.519 16.89.656.378 1.296.69 1.928.927.361.148.722.263 1.074.362.32.089.64.163.96.213a8.226 8.226 0 0 0 3.043-.008l.418-.099c.197-.04.394-.098.583-.172l.443-.173c.156-.058.312-.132.459-.213.148-.066.288-.14.427-.222.074-.041.148-.082.214-.123a.301.301 0 0 0 .099-.058c3.642-2.297 5.98-7.785 5.98-15.471 0-2.001-.165-4.036-.46-6.071Z"/>
  <path fill="#000" d="M322.406 337.818c0 3.035-1.599 4.577-3.568 3.437-1.977-1.14-3.576-4.52-3.576-7.555 0-3.036 1.599-4.577 3.576-3.438.525.303 1.026.764 1.46 1.337.172 1.994.975 4.044 2.067 5.439.032.262.041.525.041.78Z" opacity=".4"/>
  <path fill="#fff" d="M332.38 337.808c0 7.875-2.46 13.446-6.259 15.644-.764.435-3.577 2.06-4.717 2.715 3.642-2.297 5.98-7.785 5.98-15.471a42.56 42.56 0 0 0-.459-6.071c-1.681-11.444-7.834-22.772-15.168-27.005-3.396-1.961-6.537-2.108-9.097-.754 1.116-.64 3.945-2.272 4.709-2.715 2.608-1.526 5.865-1.452 9.384.583 7.334 4.232 13.487 15.562 15.168 27.014.304 2.024.459 4.059.459 6.06Z" opacity=".4"/>
  <path fill="#ED7136" d="M327.386 340.696c0 7.686-2.338 13.174-5.98 15.471 1.141-.656 3.955-2.281 4.717-2.715 3.798-2.198 6.259-7.769 6.259-15.644 0-.29-.01-.582-.017-.874l-4.996 2.884c.006.293.017.586.017.878Z"/>
  <path fill="#000" d="M327.386 340.696c0 7.686-2.338 13.174-5.98 15.471 1.141-.656 3.955-2.281 4.717-2.715 3.798-2.198 6.259-7.769 6.259-15.644 0-.29-.01-.582-.017-.874l-4.996 2.884c.006.293.017.586.017.878Z" opacity=".1"/>
  <path fill="#000" d="M296.887 319.867v1.624l-44.699-25.807.82-.476v-.673l43.879 25.332Z" opacity=".15"/>
  <path fill="#000" d="M296.887 320.54v.951l-44.699-25.808.82-.476v-.008l43.879 25.341Z" opacity=".15"/>
  <path stroke="#000" stroke-miterlimit="10" stroke-width=".732" d="M298.746 324.16c0 11.064 5.825 23.398 13.012 27.546 7.186 4.149 13.012-1.456 13.012-12.521 0-11.064-5.826-23.397-13.012-27.546-7.187-4.148-13.012 1.457-13.012 12.521Z" opacity=".15"/>
  <path fill="#fff" d="M298.287 311.73c-.68 1.395-1.222 3.019-1.584 4.857l-44.519-25.709 4.996-2.88 41.107 23.732Z" opacity=".5"/>
  <path fill="#263238" d="M467.98 437.405c.173 1.554.386 5.917 8.292 7.004 7.907 1.087 12.888-1.529 14.996-5.334 2.108-3.804 1.625-6.904 1.962-10.427.338-3.523 3.249-5.398 4.085-7.213 1.233-2.671-.569-6.831-.569-6.831l-28.766 22.801Zm-57.693-12.388c-.287.227-.368 2.719.514 3.825.608.761 6.102 4.444 12.671 3.389 6.568-1.055 9.725-2.893 13.413-5.257 3.773-2.419 6.424-2.848 10.351-2.982 3.802-.13 6.585-.975 6.873-1.974.505-1.753.505-2.863-.327-2.807l-43.495 5.806Z"/>
  <path fill="#F5D1B7" d="M494.907 408.486c-.99 7.207-14.97 6.626-13.831.869l-2.494-17.503 15.825.49.5 16.144Z"/>
  <path fill="#263238" d="M468.553 433.81c.7-1.298 2.739-3.169 3.636-4.339 4.69-6.117 7.643-13.234 8.223-20.974.032-.425.085-1.247.506-1.502.447-.268.854.102 1.307.3.009-.007.015-.014.024-.02l.004.034a8.324 8.324 0 0 0 2.448.64c2.802.313 5.899-.359 6.599-.262.543.075.711 1.759.667 3.581.996-.631 1.322-1.879 2.218-2.609.482-.393.696-.405.686-1.054-.007-.422-.034-.802-.039-1.224.718-.212 1.322 2.545 1.913 4.649.684 2.436 1.537 5.185.577 7.659-.535 1.377-1.419 2.585-2.23 3.819-1.397 2.128-2.626 4.461-2.87 6.996-.107 1.111-.022 2.237-.18 3.341-.551 3.848-3.19 6.873-6.899 8.031-4.821 1.507-12.061 1.27-16.309-2.101-1.487-1.183-.981-3.666-.281-4.965Z"/>
  <path fill="#F5D1B7" d="M450.555 407.277c-3.83 2.976-8.452 4.731-13.164 2.582l-1.102-29.461 15.869 2.852-1.603 24.027Z"/>
  <path fill="#263238" d="M413.48 419.933a46.882 46.882 0 0 0 3.119-1.119c2.869-1.141 5.635-2.541 8.282-4.132a58.797 58.797 0 0 0 3.432-2.225c1.175-.82 2.261-1.731 3.374-2.633.589-.477 1.132-1.139 1.611-1.726a17.52 17.52 0 0 0 2.376-3.844c.139-.306.291-.642.594-.786.361-.17.79-.001 1.116.227.287.201.544.451.87.592.307.133.624.255.934.384.993.413 2.045.669 3.115.765 4.013.359 4.143-.448 4.318.847.042.316.058.835.032 1.452 2.118-.351 3.789-1.036 3.881-1.839l.257-2.569c2.112-.191 2.253 3.589 2.947 7.834.561 3.435 1.385 5.924.441 8.451-3.195 2.79-8.827 2.113-12.037 2.643-4.54.75-6.663 4.109-12.975 6.294-10.174 3.52-16.599-.54-18.506-2.311-1.262-2.255-1.515-4.923 2.819-6.305Z"/>
  <path fill="#00344F" d="M490.443 233.081c.804 12.48 2.27 30.803 2.78 45.238.959 27.133.585 58.058.585 58.058s2.636 9.701 2.923 17.388c.648 17.332.525 56.254.525 56.254s-7.181 7.237-17.937 1.552c0 0-9.525-54.568-12.19-71.661-2.541-16.296-7.505-48.89-7.505-48.89l-2.246 46.262s2.63 9.421 1.691 22.204c-.582 7.939-5.115 47.153-5.115 47.153-4.131 3.876-16.178 1.769-18.809-1.313 0 0-4.219-57.947-4.687-66.317-1.012-18.106-3.704-85.589-2.358-96.07 1.345-10.481 62.343-9.858 62.343-9.858Z"/>
  <path fill="#000" d="m459.623 291.02-3.153-20.878s-8.677-1.642-15.005-6.341c0 0 2.465 5.578 12.049 9.557l3.116 19.443.748 44.481 2.245-46.262Z"/>
  <path fill="#263238" d="M477.33 149.299c.579 2.353 4.58 1.993 6.319 1.552 2.15-.545 3.744-2.459 3.479-4.681.905-.275 1.74-.734 2.324-1.423.977-1.15.82-2.629.163-3.876 1.421-1.072 2.299-2.827 1.978-4.596a5.315 5.315 0 0 0-1.953-3.195c-.831-.635-2.375-1.398-3.484-1.241-.41.058-.817.825-.225.886.779.08 1.932.632 2.536 1.099.664.512 1.439 1.281 1.722 2.18.47 1.492-.074 2.973-1.223 3.903a5.415 5.415 0 0 0-.697-.713c-.816-.674-1.807-1.108-2.879-1.017-.741.062-1.656.388-1.9 1.174-.276.89.645 1.642 1.326 2.029 1.012.577 2.189.657 3.288.297.088-.029.171-.076.257-.11.06.121.119.243.164.361.613 1.633-.372 2.642-1.71 3.093-.799-1.663-2.982-2.88-4.733-2.008-1.004.5-1.119 1.586-.403 2.404.652.745 1.737 1.012 2.687 1.069a8.3 8.3 0 0 0 1.375-.036c.095.723-.059 1.479-.481 2.088-.736 1.059-2.095 1.309-3.299 1.399-1.562.116-2.663-.322-3.902-1.239-.343-.254-.814.253-.729.601Zm10.374-8.725a2.6 2.6 0 0 1-2.196-.357c-.477-.319-1-.785-.155-.847.886-.065 1.732.487 2.351 1.204Zm-2.372 4.714a5.056 5.056 0 0 1-1.437-.129c-.336-.085-1.823-.839-1.065-1.176.585-.26 1.6.318 2.013.691.197.179.354.39.489.614Zm-5.237-39.926s.287.04.737.153c-.311-1.585.384-3.177 1.815-3.832 1.721-.787 3.834.079 4.718 1.935l-5.142 2.352c1.368.547 3.044 1.549 3.914 3.339 1.409 2.898-.449 9.073-2.328 16.697-1.879 7.625-2.9 10.92-4.147 14.127-.863 2.219-2.416 2.289-2.416 2.289v-7.607l.328-6.305s-4.048-5.527-4.492-10.056c-.573-5.829.655-8.214.655-8.214l6.358-4.878Zm-27.974-6.538c7.084.023 12.809 5.785 12.786 12.87-.023 7.085-5.785 12.81-12.87 12.786-7.085-.023-12.81-5.785-12.787-12.87.025-7.085 5.787-12.81 12.871-12.786Z"/>
  <path fill="#F5D1B7" d="M477.336 127.504c1.522 1.319 2.759-2.094 4.038-3.425 1.279-1.33 5.449-3.14 7.511 1.243 2.102 4.466-1.91 10.534-5.026 11.979-4.565 2.117-6.611-2.486-6.611-2.486v19.032c-4.809 8.662-15.208 6.636-20.123 7.849-.894-3.511-.541-4.84-.029-6.786l.037-6.2s-3.787.73-6.282.336c-4.152-.656-6.378-4.076-7.624-8.577-2.001-7.228-2.414-19.365.366-33.401 4.651-3.596 20.386-3.013 30.145 3.173-.715 12.446 2.079 15.944 3.598 17.263Z"/>
  <path fill="#F5D1B7" d="M457.133 148.707s9.279-1.838 12.526-3.55c2.173-1.146 3.966-3.14 4.496-4.419 0 0-.617 2.749-2.563 5.221-2.381 3.023-14.467 5.216-14.467 5.216l.008-2.468Z"/>
  <path fill="#263238" d="M440.436 97.145c.017-.157.037-.313.059-.468.042-.289.102-.594.304-.805.626-.65 1.875.982 2.321 1.364.429.364.867.719 1.33 1.04.148.101 1.238.634 1.249.743-.166-1.544-.394-3.132-.008-4.677.183-1.023.474-3.393 1.74-3.647.755-.151 1.412.479 1.974 1.005 5.076 4.752 11.705 2.553 17.822 2.748 5.115.164 11.288 2.245 13.597 7.219 1.057 2.276 1.238 4.674-.851 6.247-1.348 1.016-2.667.968-3.421 2.592-.186.399-1.355 5.241-.665 5.192-2.608.184-5.099-1.351-5.7-3.895-.125-.53-.411-1.493-.528-2.037-.171-.803-.837-1.019-1.46-.885-1.551.334-2.563.969-4.033 1.371-3.975 1.089-8.838 1.578-12.878.76-3.032-.615-5.962-2.073-8.092-4.343-2.325-2.483-3.125-6.187-2.76-9.524Zm39.345 33.833a2.763 2.763 0 1 0 5.525-.001 2.763 2.763 0 0 0-5.525.001Z"/>
  <path fill="#263238" d="M479.48 125.924c.263-.764.647-1.648 1.226-2.231.497-.503 1.461-.872 2.193-.749.039.006.076.096.035.12-.302.183-.524.277-.824.492-.293.209-.61.45-.85.718a3.3 3.3 0 0 0-.532.863c-.148.338-.297.806-.319 1.175-.044.741 0 1.211.266 1.821.137.315.287.611.521.866.201.218.482.405.612.677.168.351-.314.948-.697.744-.738-.396-1.201-1.159-1.502-1.912-.339-.85-.431-1.708-.129-2.584Z"/>
  <path fill="url(#m)" d="M440.112 163.668c-3.843 2.512-9.142 5.788-10.437 9.34-1.295 3.552-5.033 24.177-5.448 30.82 0 0 5.59 2.722 10.796 3.044l5.089-43.204Z"/>
  <path fill="url(#n)" d="M485.472 153.842c9.727 5.33 19.362 13.31 21.379 16.379 0 0-5.693 18.94-10.689 27.923-4.996 8.982-7.686 35.557-7.686 35.557s-34.264 11.372-45.003 12.257c-10.738.885-12.101-3.672-12.101-3.672s-.223-29.701 2.242-49.531c2.465-19.828 1.955-25.719 6.498-29.087 2.937-2.178 15.615-7.672 15.615-7.672v5.7c6.97.111 29.745-7.854 29.745-7.854Z"/>
  <path fill="#ED7136" d="M453.093 164.736s-.929-1.6-.729-4.141l2.862-2.081.049 3.61-2.182 2.612Z"/>
  <path fill="#000" d="M453.093 164.736s-.929-1.6-.729-4.141l2.862-2.081.049 3.61-2.182 2.612Z" opacity=".25"/>
  <path fill="#ED7136" d="m458.656 162.532 7.415-4.229 5.557 4.411-11.243 4.667-1.729-4.849Z"/>
  <path fill="#000" d="m458.656 162.532 7.415-4.229 5.557 4.411-11.243 4.667-1.729-4.849Z" opacity=".25"/>
  <path fill="url(#o)" d="M477.252 145.795v1.494c-.284 1.423-3.08 4.713-10.133 7.879-7.18 3.222-9.99 6.528-9.99 6.528s2.672-.012 5.592 1.034c3.211 1.15 8.548 5.223 10.071 5.184 1.483-.038 3.622-4.248 7.618-8.438 3.358-3.522 5.063-5.635 5.063-5.635s-5.481-8.015-8.221-8.046Z"/>
  <path fill="url(#p)" d="M457.128 161.696c-2.552.288-4.948 2.059-5.573 1.122-.624-.937 1.543-9.474 5.555-12.07l.018 10.948Z"/>
  <path fill="#F5D1B7" d="M432.365 206.521s-.313 5.309-.395 7.122c-.082 1.813 2.962 32.97 2.962 32.97l-10.709 4.526s-1.29-11.995-1.712-18.682c-.421-6.686.081-14.916.923-20.599.842-5.685 1.154-7.86 1.154-7.86 2.875 1.329 5.515 1.98 7.777 2.523Zm-7.281 59.82s-.013.482.009 2.295 1.114 7.165 1.785 8.842c.671 1.677 2.3 5.367 3.116 5.799.954.505 1.596.56 2.614.466 1.697-.158 3.468.715 5.068-.053.626-.3 1.216-.701 1.891-.862.998-.238 2.133.058 3.017-.463.565-.333.918-.947 1.478-1.287.819-.499 1.896-.317 2.768-.717.701-.322 1.197-.998 1.441-1.729.502-1.501.012-3.186-.294-4.686 0 0 .719-.815.766-2.54.048-1.726-.287-4.65-.671-5.752-.383-1.102-8.149-5.559-8.149-5.559l-1.533-1.007s-5.033-1.342-9.538 1.534c-4.505 2.877-3.768 5.719-3.768 5.719Z"/>
  <path fill="#F5D1B7" d="M427.185 266.13c-2.052 3.422-.846 9.549-.838 9.622-.647-2.333-1.237-5.724-1.254-7.115-.022-1.813-.009-2.294-.009-2.294s-.737-2.843 3.768-5.719c4.505-2.876 9.538-1.534 9.538-1.534s-9.14 3.599-11.205 7.04Zm20.793 7.818c-.623-2.108-2.445-5.295-3.307-6.098-.863-.803-1.582-1.809-.719-1.474.862.335 2.06.538 2.54-.066.479-.605.575.45.047 1.264-.527.815-.095 1.438.527 2.78.624 1.342.773 2.837.912 3.594Z"/>
  <path fill="#F5D1B7" d="M503.879 170.596c3.239 1.114 3.672 9.993 2.97 17.939-.702 7.947-6.903 26.757-9.732 33.303-3.174 7.343-5.098 11.588-7.207 13.895-2.111 2.307-6.53 4.195-12.184 7.126-5.121 2.655-8.619 3.992-17.335 6.698-9.837 3.053-13.612 3.241-15.722 4.702-2.111 1.461-2.686 4.65-4.742 5.838l-1.534-1.007c-2.673.539-7.141 2.321-9.784 4.083-2.505 1.67-3.523 3.169-3.523 3.169l.009 2.295s-2.492 1.054-4.603-3.423c-2.11-4.477-3.084-11.131-.649-14.054 2.434-2.922 10.127-6.874 16.345-8.876 6.219-2.002 9.351-3.999 16.645-8.407 7.77-4.697 13.161-7.818 17-9.929 1.474-.847 2.461-1.887 3.118-4.595.519-2.144 2.082-8.461 3.037-13.205 1.588-7.88 5.007-31.893 27.891-35.552Z"/>
  <path fill="url(#q)" d="M506.848 170.219s1.508.265 1.718 6.55c.21 6.287-.04 12.994-.859 17.822-.819 4.829-5.645 19.095-5.645 19.095s-13.94 4.572-28.207-.883c0 0 3.357-20.56 4.616-26.014 1.259-5.455 18.896-22.274 28.377-16.57Z"/>
  <path fill="#fff" d="M457.527 170.628c-.794 5.107-1.895 17.255-1.895 34.396 0 4.203-6.132 12.731-7.575 12.55-1.443-.181-4.088-8.202-4.463-12.856.581-11.268 7.394-28.753 10.37-34.724l3.563.634Z"/>
  <path fill="#000" d="M453.738 170.481c.076-.169.153-.337.226-.485l3.563.634-.214 1.497c-1.463-.082-3.103-1.094-3.575-1.646Z" opacity=".15"/>
  <path fill="#fff" d="M458.653 162.531c-1.529-.41-3.381-.41-3.381-.41s-1.337.967-2.181 2.613c0 0-.188 3.166.87 5.261 0 0 1.316 1.108 3.563.634 0 0 2.131-1.287 2.857-3.249.232-1.718-.967-4.292-1.728-4.849Z"/>
  <defs>
    <linearGradient id="a" x1="184.151" x2="184.151" y1="87.557" y2="379.315" gradientUnits="userSpaceOnUse">
      <stop stop-color="#EEA07B"/>
      <stop offset="1" stop-color="#9C5A76"/>
    </linearGradient>
    <linearGradient id="b" x1="202.194" x2="202.194" y1="273.951" y2="401.25" gradientUnits="userSpaceOnUse">
      <stop stop-color="#EEA07B"/>
      <stop offset="1" stop-color="#9C5A76"/>
    </linearGradient>
    <linearGradient id="c" x1="251.431" x2="251.431" y1="288.166" y2="443.757" gradientUnits="userSpaceOnUse">
      <stop stop-color="#EEA07B"/>
      <stop offset="1" stop-color="#9C5A76"/>
    </linearGradient>
    <linearGradient id="d" x1="124.81" x2="381.62" y1="355.559" y2="364.268" gradientUnits="userSpaceOnUse">
      <stop stop-color="#FB8D48"/>
      <stop offset=".2" stop-color="#ED7136"/>
      <stop offset=".4" stop-color="#C54E47"/>
      <stop offset=".4" stop-color="#C14F49"/>
      <stop offset=".6" stop-color="#9D3863"/>
      <stop offset=".8" stop-color="#5E1F72"/>
    </linearGradient>
    <linearGradient id="e" x1="308.118" x2="308.118" y1="375.639" y2="433.221" gradientUnits="userSpaceOnUse">
      <stop stop-color="#EEA07B"/>
      <stop offset="1" stop-color="#9C5A76"/>
    </linearGradient>
    <linearGradient id="f" x1="196.809" x2="249.876" y1="157.304" y2="159.781" gradientUnits="userSpaceOnUse">
      <stop stop-color="#FB8D48"/>
      <stop offset=".2" stop-color="#ED7136"/>
      <stop offset=".4" stop-color="#C54E47"/>
      <stop offset=".4" stop-color="#C14F49"/>
      <stop offset=".6" stop-color="#9D3863"/>
      <stop offset=".8" stop-color="#5E1F72"/>
    </linearGradient>
    <linearGradient id="g" x1="147.83" x2="206.608" y1="177.733" y2="179.05" gradientUnits="userSpaceOnUse">
      <stop stop-color="#FB8D48"/>
      <stop offset=".2" stop-color="#ED7136"/>
      <stop offset=".4" stop-color="#C54E47"/>
      <stop offset=".4" stop-color="#C14F49"/>
      <stop offset=".6" stop-color="#9D3863"/>
      <stop offset=".8" stop-color="#5E1F72"/>
    </linearGradient>
    <linearGradient id="h" x1="136.958" x2="163.141" y1="213.76" y2="214.122" gradientUnits="userSpaceOnUse">
      <stop stop-color="#FB8D48"/>
      <stop offset=".2" stop-color="#ED7136"/>
      <stop offset=".4" stop-color="#C54E47"/>
      <stop offset=".4" stop-color="#C14F49"/>
      <stop offset=".6" stop-color="#9D3863"/>
      <stop offset=".8" stop-color="#5E1F72"/>
    </linearGradient>
    <linearGradient id="i" x1="135.733" x2="168.432" y1="274.89" y2="275.073" gradientUnits="userSpaceOnUse">
      <stop stop-color="#FB8D48"/>
      <stop offset=".2" stop-color="#ED7136"/>
      <stop offset=".4" stop-color="#C54E47"/>
      <stop offset=".4" stop-color="#C14F49"/>
      <stop offset=".6" stop-color="#9D3863"/>
      <stop offset=".8" stop-color="#5E1F72"/>
    </linearGradient>
    <linearGradient id="j" x1="153.327" x2="261.814" y1="239.213" y2="240.425" gradientUnits="userSpaceOnUse">
      <stop stop-color="#FB8D48"/>
      <stop offset=".2" stop-color="#ED7136"/>
      <stop offset=".4" stop-color="#C54E47"/>
      <stop offset=".4" stop-color="#C14F49"/>
      <stop offset=".6" stop-color="#9D3863"/>
      <stop offset=".8" stop-color="#5E1F72"/>
    </linearGradient>
    <linearGradient id="k" x1="160.087" x2="254.762" y1="242.087" y2="243.103" gradientUnits="userSpaceOnUse">
      <stop stop-color="#FB8D48"/>
      <stop offset=".2" stop-color="#ED7136"/>
      <stop offset=".4" stop-color="#C54E47"/>
      <stop offset=".4" stop-color="#C14F49"/>
      <stop offset=".6" stop-color="#9D3863"/>
      <stop offset=".8" stop-color="#5E1F72"/>
    </linearGradient>
    <linearGradient id="l" x1="168.497" x2="203.183" y1="335.33" y2="337.77" gradientUnits="userSpaceOnUse">
      <stop stop-color="#FB8D48"/>
      <stop offset=".2" stop-color="#ED7136"/>
      <stop offset=".4" stop-color="#C54E47"/>
      <stop offset=".4" stop-color="#C14F49"/>
      <stop offset=".6" stop-color="#9D3863"/>
      <stop offset=".8" stop-color="#5E1F72"/>
    </linearGradient>
    <linearGradient id="m" x1="424.503" x2="440.171" y1="182.27" y2="182.382" gradientUnits="userSpaceOnUse">
      <stop stop-color="#FB8D48"/>
      <stop offset=".2" stop-color="#ED7136"/>
      <stop offset=".4" stop-color="#C54E47"/>
      <stop offset=".4" stop-color="#C14F49"/>
      <stop offset=".6" stop-color="#9D3863"/>
      <stop offset=".8" stop-color="#5E1F72"/>
    </linearGradient>
    <linearGradient id="n" x1="432.68" x2="507.116" y1="193.552" y2="194.733" gradientUnits="userSpaceOnUse">
      <stop stop-color="#FB8D48"/>
      <stop offset=".2" stop-color="#ED7136"/>
      <stop offset=".4" stop-color="#C54E47"/>
      <stop offset=".4" stop-color="#C14F49"/>
      <stop offset=".6" stop-color="#9D3863"/>
      <stop offset=".8" stop-color="#5E1F72"/>
    </linearGradient>
    <linearGradient id="o" x1="457.622" x2="485.563" y1="155.319" y2="156.013" gradientUnits="userSpaceOnUse">
      <stop stop-color="#FB8D48"/>
      <stop offset=".2" stop-color="#ED7136"/>
      <stop offset=".4" stop-color="#C54E47"/>
      <stop offset=".4" stop-color="#C14F49"/>
      <stop offset=".6" stop-color="#9D3863"/>
      <stop offset=".8" stop-color="#5E1F72"/>
    </linearGradient>
    <linearGradient id="p" x1="451.548" x2="457.148" y1="156.062" y2="156.112" gradientUnits="userSpaceOnUse">
      <stop stop-color="#FB8D48"/>
      <stop offset=".2" stop-color="#ED7136"/>
      <stop offset=".4" stop-color="#C54E47"/>
      <stop offset=".4" stop-color="#C14F49"/>
      <stop offset=".6" stop-color="#9D3863"/>
      <stop offset=".8" stop-color="#5E1F72"/>
    </linearGradient>
    <linearGradient id="q" x1="474.46" x2="508.761" y1="189.043" y2="189.542" gradientUnits="userSpaceOnUse">
      <stop stop-color="#FB8D48"/>
      <stop offset=".2" stop-color="#ED7136"/>
      <stop offset=".4" stop-color="#C54E47"/>
      <stop offset=".4" stop-color="#C14F49"/>
      <stop offset=".6" stop-color="#9D3863"/>
      <stop offset=".8" stop-color="#5E1F72"/>
    </linearGradient>
  </defs>
</svg>
