<svg xmlns="http://www.w3.org/2000/svg" width="487" height="233" fill="none" viewBox="0 0 487 233">
  <path fill="#E86B31" d="M51.875 78.129H15.283c-4.848 0-8.79-3.944-8.79-8.79V9.65c0-4.848 3.943-8.79 8.79-8.79h36.592c4.848 0 8.79 3.943 8.79 8.79v59.688c0 4.848-3.944 8.79-8.79 8.79ZM15.283 3.789a5.867 5.867 0 0 0-5.86 5.861v59.688a5.867 5.867 0 0 0 5.86 5.86h36.592a5.867 5.867 0 0 0 5.86-5.86V9.65a5.867 5.867 0 0 0-5.86-5.86H15.283Z"/>
  <path fill="#E86B31" d="M54.093 66.783H13.07V12.207h41.023v54.576ZM14.535 65.32h38.092V13.673H14.535v51.646Zm26.001 5.204a2.015 2.015 0 0 1-2.015 2.015h-9.89a2.015 2.015 0 0 1 0-4.03h9.89c1.114 0 2.015.903 2.015 2.015Zm344.959 11.451h-71.81c-5.281 0-9.576-4.294-9.576-9.575V22.932c0-5.278 4.295-9.575 9.576-9.575h71.81c5.28 0 9.575 4.295 9.575 9.576v49.469c-.002 5.279-4.296 9.573-9.575 9.573Zm-71.81-65.427a6.39 6.39 0 0 0-6.383 6.383V72.4a6.39 6.39 0 0 0 6.383 6.382h71.81a6.39 6.39 0 0 0 6.383-6.383V22.932a6.39 6.39 0 0 0-6.383-6.382l-71.81-.002Z"/>
  <path fill="#E86B31" d="M387.087 67.345h-75.001V22.13h75.001v45.214Zm-73.406-1.597h71.81v-42.02h-71.81v42.02Zm56.386 25.271h-40.958V78.785h40.958V91.02ZM332.3 87.828h34.574v-5.85H332.3v5.85Zm42.291 5.848H324.59v3.192h50.001v-3.192ZM159.96 56.537h-20.165c-4.942 0-8.963-4.019-8.963-8.962V13.218c0-4.941 4.019-8.962 8.963-8.962h20.165c4.942 0 8.963 4.02 8.963 8.962v34.357c0 4.941-4.021 8.962-8.963 8.962ZM139.795 7.243a5.981 5.981 0 0 0-5.975 5.975v34.357a5.981 5.981 0 0 0 5.975 5.975h20.165a5.981 5.981 0 0 0 5.975-5.975V13.218a5.981 5.981 0 0 0-5.975-5.975h-20.165Z"/>
  <path fill="#E86B31" d="M163.325 46.828h-26.887V11.352h26.887v35.476Zm-25.394-1.493h23.9v-32.49h-23.9v32.49Zm17.735 4.852a1.12 1.12 0 0 1-1.12 1.12h-9.336a1.12 1.12 0 1 1 0-2.24h9.336c.618 0 1.12.5 1.12 1.12Zm308.376-28.82h-31.359a6.03 6.03 0 0 0-6.023 6.023v16.333a6.03 6.03 0 0 0 6.023 6.022h4.307l-.055 10.116 10.114-10.116h16.991c3.322 0 6.023-2.7 6.023-6.022V27.39a6.028 6.028 0 0 0-6.021-6.023Zm3.778 22.356a3.781 3.781 0 0 1-3.777 3.777h-17.807c-.185.172-7.025 6.91-7.025 6.91l-.014-6.91h-6.513a3.78 3.78 0 0 1-3.777-3.777V27.39a3.78 3.78 0 0 1 3.777-3.777h31.359a3.781 3.781 0 0 1 3.777 3.777v16.333Z"/>
  <path fill="#E86B31" d="M440.641 36.166a2.19 2.19 0 1 1-4.379.001 2.19 2.19 0 0 1 4.379 0Zm10.645 0a2.19 2.19 0 1 1-4.38 0 2.19 2.19 0 0 1 4.38 0Zm8.134 2.19a2.19 2.19 0 1 0 0-4.379 2.19 2.19 0 0 0 0 4.38ZM125.656 81.91H89.801v-26.8h35.855v26.8Zm-33.683-2.172h31.508V57.283H91.973v22.455Z"/>
  <path fill="#E86B31" d="M107.909 72.103 90.004 57.026l1.4-1.66 16.5 13.894 15.78-13.351 1.404 1.66-17.179 14.534Zm319.739 21.088c-7.1 0-12.878-5.776-12.878-12.877 0-7.102 5.776-12.878 12.878-12.878 7.101 0 12.877 5.776 12.877 12.878 0 7.1-5.776 12.877-12.877 12.877Zm0-23.264c-5.726 0-10.386 4.66-10.386 10.386 0 5.726 4.66 10.386 10.386 10.386 5.726 0 10.386-4.659 10.386-10.386-.001-5.726-4.66-10.386-10.386-10.386Zm25.749 40.217c-.002 0-.002 0 0 0a4.339 4.339 0 0 1-3.073-1.266l-13.27-13.167a3.464 3.464 0 0 1-.351-.415l-.648-.861.727-.81 5.092-5.13.868.648c.189.139.329.249.46.38l13.267 13.162a4.37 4.37 0 0 1 .025 6.17 4.343 4.343 0 0 1-3.097 1.289Zm-13.998-15.618 12.681 12.583c.352.349.82.542 1.315.542h.002c.501 0 .974-.197 1.326-.554a1.867 1.867 0 0 0-.011-2.643l-12.681-12.582-2.632 2.654Z"/>
  <path fill="#C14F49" d="M178.707 129.14h-4.53a.82.82 0 0 1 0-1.638h2.892v-.383a.82.82 0 0 1 1.638 0v2.021Zm-9.442 0h-4.914a.82.82 0 0 1 0-1.638h4.914a.82.82 0 0 1 0 1.638Zm8.623-6.116a.82.82 0 0 1-.819-.819v-4.914a.819.819 0 0 1 1.638 0v4.914a.818.818 0 0 1-.819.819Zm0-9.827a.82.82 0 0 1-.819-.819v-4.914a.82.82 0 0 1 1.638 0v4.914a.818.818 0 0 1-.819.819Zm0-9.828a.82.82 0 0 1-.819-.819v-4.913a.82.82 0 0 1 1.638 0v4.913a.818.818 0 0 1-.819.819Zm0-9.827a.82.82 0 0 1-.819-.819v-4.914a.82.82 0 0 1 1.638 0v4.914a.818.818 0 0 1-.819.819Zm0-9.827a.82.82 0 0 1-.819-.82v-4.913a.82.82 0 0 1 1.638 0v4.914a.818.818 0 0 1-.819.819Zm0-9.828a.817.817 0 0 1-.715-.419h-3.781a.82.82 0 0 1 0-1.638h5.314v1.238a.817.817 0 0 1-.818.82Zm-9.408-.419h-4.913a.82.82 0 0 1 0-1.638h4.913a.82.82 0 0 1 0 1.638Zm-9.827 0h-4.914a.82.82 0 0 1 0-1.638h4.914a.82.82 0 0 1 0 1.638Zm-9.827 0h-4.914a.82.82 0 0 1 0-1.638h4.914a.82.82 0 0 1 0 1.638Zm-9.828 0h-4.913a.82.82 0 0 1 0-1.638h4.913a.82.82 0 0 1 0 1.638ZM78.215 87.45a.82.82 0 0 1-.82-.82v-4.913a.82.82 0 0 1 1.639 0v4.914a.82.82 0 0 1-.82.819Zm0-9.828a.82.82 0 0 1-.82-.818V71.89a.82.82 0 0 1 1.639 0v4.914a.82.82 0 0 1-.82.819Zm0-9.827a.82.82 0 0 1-.82-.819v-4.913a.82.82 0 0 1 1.639 0v4.913a.82.82 0 0 1-.82.82Zm0-9.827a.82.82 0 0 1-.82-.82v-4.913a.82.82 0 0 1 1.639 0v4.914a.82.82 0 0 1-.82.819Zm0-9.828a.82.82 0 0 1-.82-.819v-4.913a.82.82 0 0 1 1.639 0v4.913a.82.82 0 0 1-.82.82Zm0-9.827a.82.82 0 0 1-.82-.785h-3.311a.82.82 0 0 1 0-1.637h4.948v1.603a.817.817 0 0 1-.817.82Zm-9.045-.785h-4.914a.82.82 0 0 1 0-1.637h4.914a.82.82 0 0 1 0 1.638Zm133.437 21.544h-4.914a.82.82 0 0 1 0-1.638h4.914a.82.82 0 0 1 0 1.638Zm-9.828 0h-4.913a.82.82 0 0 1 0-1.638h4.913a.82.82 0 0 1 0 1.638Zm-6.643-3.183a.82.82 0 0 1-.819-.819v-4.913a.82.82 0 0 1 1.638 0v4.913a.82.82 0 0 1-.819.82Zm0-9.827a.82.82 0 0 1-.819-.819v-4.914a.82.82 0 0 1 1.638 0v4.914a.82.82 0 0 1-.819.819Zm0-9.827a.82.82 0 0 1-.819-.82v-4.913a.82.82 0 0 1 1.638 0v4.914a.82.82 0 0 1-.819.819Zm0-9.828a.82.82 0 0 1-.819-.819v-1.79h-1.485a.819.819 0 1 1 0-1.638h3.123v3.428a.82.82 0 0 1-.819.82Zm-7.22-2.609h-4.913a.819.819 0 1 1 0-1.638h4.913a.82.82 0 0 1 0 1.638Zm169.293 96.988h-4.914a.82.82 0 0 1 0-1.638h4.914a.819.819 0 0 1 0 1.638Zm-9.828 0h-4.914a.819.819 0 0 1 0-1.638h4.914a.82.82 0 0 1 0 1.638Zm-9.827 0h-4.914a.82.82 0 0 1 0-1.638h4.914a.82.82 0 0 1 0 1.638Zm-9.828 0h-4.913a.82.82 0 0 1 0-1.638h4.913a.82.82 0 0 1 0 1.638Zm-9.827 0h-4.914a.82.82 0 0 1 0-1.638h4.914a.82.82 0 0 1 0 1.638Zm-9.827 0h-4.914a.82.82 0 0 1 0-1.638h4.914a.82.82 0 0 1 0 1.638Zm-9.828 0h-4.913a.82.82 0 0 1 0-1.638h4.913a.82.82 0 0 1 0 1.638Zm59.779-4.098a.82.82 0 0 1-.819-.819v-4.914a.82.82 0 0 1 1.638 0v4.914a.82.82 0 0 1-.819.819Zm0-9.828a.82.82 0 0 1-.819-.819v-4.913a.819.819 0 1 1 1.638 0v4.913a.82.82 0 0 1-.819.819Zm53.823 15.487a.82.82 0 0 1-.819-.819v-4.914a.82.82 0 0 1 1.638 0v4.914a.82.82 0 0 1-.819.819Zm0-9.827a.82.82 0 0 1-.819-.819v-4.914a.82.82 0 0 1 1.638 0v4.914a.82.82 0 0 1-.819.819Zm0-9.828a.82.82 0 0 1-.819-.819V96.96a.82.82 0 0 1 1.638 0v4.913a.82.82 0 0 1-.819.819Zm0-9.827a.82.82 0 0 1-.819-.82v-4.913a.82.82 0 0 1 1.638 0v4.914a.82.82 0 0 1-.819.819Zm0-9.828a.82.82 0 0 1-.819-.819v-4.913a.82.82 0 0 1 1.638 0v4.913a.82.82 0 0 1-.819.82Zm0-9.827a.82.82 0 0 1-.819-.819v-4.913a.82.82 0 0 1 1.638 0v4.913a.82.82 0 0 1-.819.82Zm0-9.827a.82.82 0 0 1-.819-.82V57.65a.82.82 0 0 1 1.638 0v4.914a.82.82 0 0 1-.819.819Zm0-9.828a.82.82 0 0 1-.819-.819v-4.913a.82.82 0 0 1 1.638 0v4.913a.82.82 0 0 1-.819.82Zm0-9.827a.82.82 0 0 1-.819-.819v-4.227h2.325a.818.818 0 0 1 0 1.637h-.687v2.59a.82.82 0 0 1-.819.819Zm18.228-3.409h-1.981a.82.82 0 0 1 0-1.637h1.981a.82.82 0 0 1 0 1.637Zm-6.895 0h-4.914a.82.82 0 0 1 0-1.637h4.914a.82.82 0 0 1 0 1.637Zm.05 82.024a.82.82 0 0 1-.819-.819v-4.914a.82.82 0 0 1 1.638 0v4.914a.818.818 0 0 1-.819.819Zm15.953-9.156h-5.452a.82.82 0 0 1 0-1.638h4.017a.82.82 0 0 1 1.435.539v1.099Zm-10.368 0h-4.913a.82.82 0 0 1 0-1.638h4.913a.82.82 0 0 1 0 1.638Zm9.549-5.194a.82.82 0 0 1-.819-.819v-4.914a.82.82 0 0 1 1.638 0v4.914a.82.82 0 0 1-.819.819Z"/>
  <path fill="#B2B2B2" d="M102.947 202.785H64.262v18.436h38.685v-18.436Z"/>
  <path fill="#CCC" d="M107.571 219.422H59.633v3.597h47.938v-3.597Z"/>
  <path fill="#5B5B5B" d="M161.18 98.062c0-2.843-2.416-5.148-5.395-5.148H11.435c-2.98 0-5.396 2.305-5.396 5.148v89.92H161.18v-89.92Z"/>
  <path fill="#CCC" d="M11.434 204.884h144.351c2.981 0 5.395-2.305 5.395-5.148v-11.754H6.04v11.754c0 2.843 2.415 5.148 5.394 5.148Z"/>
  <path fill="#fff" d="M11.953 100.426v80.04H155.25v-80.04H11.953Zm80.03 94.305c0 .94-.762 1.702-1.702 1.702h-9.747a1.702 1.702 0 1 1 0-3.404h9.747c.94 0 1.702.764 1.702 1.702Z"/>
  <path fill="#D3362D" d="M39.481 126.973c.35-.764.79-.326.498.289-.393.824-1.207 2.429-.557 4.282.377 1.071 4.01 3.426 4.01 3.426l-.064.896s-3.743-1.954-4.596-3.932c-.753-1.746.101-3.64.71-4.961Zm11.782 0c-.35-.764-.79-.326-.498.289.393.824 1.207 2.429.557 4.282-.377 1.071-4.01 3.426-4.01 3.426l.064.896s3.743-1.954 4.596-3.932c.754-1.746-.101-3.64-.709-4.961Zm-10.579 10.762s-1.492-1.507-1.931-1.865c-.44-.359-3.394-1.967-3.863-2.115-.468-.145-1.023-.029-.145.614.878.644 2.794 1.552 3.387 2.166.593.614 2.026 2.281 2.026 2.281l.526-1.081Zm-1.702 2.994s-2.031-.613-2.588-.719c-.557-.107-3.923-.112-4.403-.017-.481.095-.913.464.164.61 1.08.147 3.196.031 4.01.288.814.257 2.87 1.04 2.87 1.04l-.053-1.202Zm.278 3.308s-1.953.827-2.45 1.101c-.496.275-3.087 2.421-3.396 2.801-.31.38-.408.94.516.363.923-.576 2.476-2.018 3.267-2.34.791-.323 2.871-1.036 2.871-1.036l-.809-.889Zm12.027-3.308s2.03-.613 2.588-.719c.556-.107 3.922-.112 4.402-.017.482.095.914.464-.163.61-1.08.147-3.196.031-4.01.288-.814.257-2.87 1.04-2.87 1.04l.053-1.202Zm-.275 3.308s1.953.827 2.449 1.101c.496.275 3.087 2.421 3.397 2.801.31.38.408.94-.516.363-.924-.576-2.477-2.018-3.268-2.34-.79-.323-2.87-1.036-2.87-1.036l.808-.889Zm-1.212-6.302s1.493-1.507 1.932-1.865c.439-.359 3.394-1.967 3.862-2.115.468-.145 1.024-.029.146.614-.878.644-2.794 1.552-3.387 2.166-.593.614-2.026 2.281-2.026 2.281l-.526-1.081Z"/>
  <path fill="#F64747" d="M45.406 139.082a3.543 3.543 0 1 0-.001-7.087 3.543 3.543 0 0 0 .001 7.087Z"/>
  <path fill="#D3362D" d="M52.677 142.3a7.272 7.272 0 1 1-14.545 0 7.272 7.272 0 0 1 14.545 0Z"/>
  <path fill="#B7B7B7" d="m59.16 150.498-2.851 2.852 15.347 15.347 2.852-2.851-15.348-15.348Z"/>
  <path fill="#F0851D" d="m86.47 180.5-21.25-21.252-3.591 3.59 17.66 17.662h7.18Z"/>
  <path fill="#E8721B" d="M93.382 180.499a4.326 4.326 0 0 0-.72-.988l-23.853-23.853-3.59 3.59 21.25 21.252 6.913-.001Z"/>
  <path fill="#B7B7B7" d="M45.134 118.965c-11.2 0-20.279 9.079-20.279 20.279s9.08 20.278 20.28 20.278c11.2 0 20.278-9.078 20.278-20.278s-9.079-20.279-20.279-20.279Zm0 37.078c-7.521 0-13.886-4.944-16.028-11.758a16.804 16.804 0 0 1-.772-5.041c0-9.279 7.522-16.8 16.8-16.8 9.279 0 16.8 7.521 16.8 16.8 0 1.755-.272 3.449-.771 5.041-2.143 6.814-8.507 11.758-16.029 11.758Z"/>
  <path fill="#D3362D" d="M87.185 109.627c-.337.031-.45.209-.53.578l-2.023 8.758H82.43l-1.687-7.15h-.049l-1.64 7.15h-2.263l-2.218-9.271-.917-.049v-1.366h3.984v1.301l-.53.049c-.353.031-.561.177-.481.561l1.397 6.203h.064l1.67-7.262h2.073l1.736 7.293h.033l1.366-6.717-.868-.064v-1.366h3.614v1.301l-.529.051Zm3.005.049-1.012-.098v-1.301h3.679l3.28 9.271h.016l.915.049v1.364h-4.144v-1.3l.611-.049c.338-.031.498-.13.387-.482l-.34-.997h-3.758l-.482 1.413.963.049v1.365h-3.711v-1.301l.53-.049c.272-.031.369-.146.482-.45l2.585-7.484Zm.017 4.981h2.99l-1.449-4.58h-.047l-1.494 4.58Zm7.461 3.004.529-.05c.273-.031.467-.129.467-.45v-7.47l-.916-.05v-1.366h4.386c2.362 0 3.858.772 3.858 2.957 0 1.608-1.044 2.475-1.93 2.828.434.161.675.434.918.98l1.158 2.522.915.033v1.364h-3.97v-1.3l.467-.049c.37-.049.45-.194.304-.515l-.756-1.606c-.225-.498-.451-.739-1.013-.739h-1.461v2.794l1.044.049v1.365h-4v-1.297Zm4.355-4.436c1.366 0 1.977-.626 1.977-1.767 0-1.446-.837-1.622-2.201-1.622h-1.173v3.389h1.397Zm5.705 4.437.578-.049c.272-.016.418-.129.418-.45v-7.471l-.916-.049v-1.366h2.891l4.549 7.374h.031v-5.96l-1.06-.05v-1.366h3.92v1.301l-.579.049c-.24.016-.386.161-.386.498v8.838h-1.88l-4.644-7.488h-.031v6.073l1.043.049v1.364h-3.935v-1.297h.001Zm12.323-7.971-.914-.05v-1.366h3.888v1.301l-.531.049c-.272.031-.467.129-.467.513v7.408l.918.049v1.364h-3.89v-1.3l.53-.049c.307-.031.467-.13.467-.531l-.001-7.388Zm3.937 7.971.58-.049c.272-.016.418-.129.418-.45v-7.471l-.914-.049v-1.366h2.891l4.548 7.374h.031v-5.96l-1.059-.05v-1.366h3.919v1.301l-.578.049c-.241.016-.387.161-.387.498v8.838h-1.88l-4.643-7.488h-.032v6.073l1.044.049v1.364h-3.938v-1.297Zm19.882.464c-.885.611-2.202 1.028-3.697 1.028-2.909 0-4.724-1.782-4.724-5.509 0-4.162 2.812-5.561 5.127-5.561 1.078 0 2.186.21 3.15.66v2.73l-1.64.113v-1.253c0-.306-.049-.434-.337-.53-.305-.097-.723-.128-1.19-.128-2.152 0-3.1 1.445-3.1 3.839 0 2.523.834 4.049 2.794 4.049.627 0 1.381-.177 1.702-.386v-2.393h-.016l-1.237-.048v-1.368h4v1.288l-.37.031c-.338.031-.466.146-.466.531v2.907h.004Zm3.438-1.029c.708 0 1.124.45 1.124 1.044 0 .579-.401 1.091-1.078 1.091-.722 0-1.124-.481-1.124-1.076a1.057 1.057 0 0 1 1.078-1.059Zm-.852-8.549c0-.401.225-.753.883-.753.708 0 .918.352.918.788v1.88l-.321 5.607h-1.142l-.338-5.607v-1.915Zm-4.624 16.561H81.078v2.752h60.754v-2.752Zm0 6.039H81.078v2.752h60.754v-2.752Zm0 6.221H81.078v2.752h60.754v-2.752Zm-14.85 28.666c1.209 0 1.923.769 1.923 1.782 0 .988-.686 1.868-1.838 1.868-1.236 0-1.922-.823-1.922-1.838 0-.989.768-1.812 1.837-1.812Zm-1.454-14.6c0-.686.383-1.29 1.51-1.29 1.209 0 1.564.604 1.564 1.346v3.21l-.55 9.579h-1.948l-.576-9.579v-3.266Z"/>
  <path fill="#D3362D" d="M127.023 175.584c-8.561 0-15.527-6.964-15.527-15.525s6.966-15.526 15.527-15.526c8.562 0 15.526 6.965 15.526 15.526s-6.964 15.525-15.526 15.525Zm0-29.264c-7.577 0-13.74 6.164-13.74 13.739 0 7.575 6.163 13.738 13.74 13.738 7.576 0 13.739-6.163 13.739-13.738 0-7.575-6.163-13.739-13.739-13.739Z"/>
  <path fill="#4D4D4D" d="M462.899 206.684a5.056 5.056 0 0 1-5.056 5.056H351.517a5.056 5.056 0 0 1-5.056-5.056v-75.425a5.056 5.056 0 0 1 5.056-5.056h106.326a5.056 5.056 0 0 1 5.056 5.056v75.425Zm-128.395 7.361v4.236a4.432 4.432 0 0 0 4.419 4.419h131.513a4.432 4.432 0 0 0 4.419-4.419v-4.236H334.504Z"/>
  <path fill="#fff" d="M458.97 131.229H350.391v71.358H458.97v-71.358Z"/>
  <path fill="#CCC" d="M448.368 220.31a1.934 1.934 0 1 0 0-3.868 1.934 1.934 0 0 0 0 3.868Zm7.919-1.934a1.935 1.935 0 1 1-3.87-.002 1.935 1.935 0 0 1 3.87.002Zm-37.032-11.148a.786.786 0 0 1-.786.786h-28.632a.786.786 0 0 1 0-1.573h28.632a.785.785 0 0 1 .786.787Zm-36.243 8.149v1.345h16.256v1.934h10.938v-1.934h16.241v-1.345h-43.435Z"/>
  <path fill="#DDD" d="M445.385 153.367h-79.803v13.562h79.803v-13.562Zm0 27.967h-79.803v13.576h79.803v-13.576Z"/>
  <path fill="#000" d="M365.852 149.33v-.683l.278-.026c.144-.017.244-.068.244-.236v-3.925l-.482-.026v-.717h2.035v.684l-.279.025c-.144.016-.245.069-.245.27v3.764h1.4c.177 0 .195-.11.195-.27v-.591l.862.06v1.671h-4.008Zm6.549-4.369c.624 0 1.882.193 1.882 2.134 0 1.62-.903 2.362-2.016 2.362-1.13 0-1.872-.726-1.872-2.252-.002-1.756 1.136-2.244 2.006-2.244Zm.852 2.268c0-.943-.228-1.526-.903-1.526-.666 0-.937.575-.937 1.384 0 .784.11 1.628.921 1.628.657 0 .919-.606.919-1.486Zm1.825 3.628v-1.172l.801-.068v.405c0 .162.043.246.195.305.16.059.346.083.598.083.776 0 .979-.53.979-1.24v-.465c-.286.338-.709.474-1.122.474-1.231 0-1.654-1.013-1.654-1.974 0-1.527.92-2.244 2.195-2.244.404 0 1.063.1 1.561.311v3.13c0 .297.008.616-.017.921-.1 1.24-.683 1.814-1.949 1.814-.532 0-1.233-.101-1.587-.28Zm2.573-5.062a2.129 2.129 0 0 0-.675-.102c-.701 0-1.063.557-1.063 1.41 0 .574.094 1.334.878 1.334.472 0 .86-.313.86-.828v-1.814Zm3.325 2.836.481.024v.675h-2.008v-.642l.279-.026c.15-.017.244-.067.244-.271v-2.345c0-.185-.051-.244-.212-.244l-.296-.016v-.7h1.51v3.545h.002Zm-.59-5.35c.372 0 .642.279.642.632 0 .354-.27.616-.65.616-.388 0-.642-.262-.642-.616 0-.353.254-.632.65-.632Zm1.512 1.806h1.425v.549c.297-.421.811-.675 1.368-.675.844 0 1.342.472 1.342 1.467v2.203l.481.025v.675h-2.008v-.642l.278-.026c.161-.017.244-.068.244-.277v-1.738c0-.557-.117-.911-.691-.911a.832.832 0 0 0-.869.852v2.042l.481.025v.675h-2.008v-.642l.278-.026c.161-.017.245-.068.245-.277v-2.339c0-.185-.059-.252-.212-.262l-.354-.025v-.673Zm5.776.059c.404 0 .632.245.632.598 0 .338-.22.608-.6.608-.42 0-.632-.244-.632-.598 0-.347.228-.608.6-.608Zm0 3.104c.404 0 .632.244.632.6 0 .339-.22.607-.6.607-.42 0-.632-.245-.632-.599 0-.347.228-.608.6-.608Zm-17.165 12.87c0 .827.431 1.071 1.106 1.071s1.096-.337 1.096-1.028v-3.089l-.49-.027v-.717h2v.685l-.278.024c-.153.017-.246.085-.246.254v3.012c0 1.106-.835 1.748-2.118 1.748-1.384 0-2.093-.557-2.093-1.882v-3.097l-.49-.027v-.717h2.043v.685l-.279.024c-.16.017-.254.069-.254.279v2.802h.003Zm5.779-1.855c-.363 0-.632.169-.632.506 0 .388.405.508.801.616.658.185 1.384.398 1.384 1.317 0 .876-.726 1.35-1.628 1.35-.531 0-1.197-.084-1.553-.263v-1.172l.76-.061v.406c0 .161.043.228.195.287.161.059.354.084.557.084.422 0 .667-.161.667-.516 0-.405-.371-.48-.826-.598-.624-.161-1.307-.372-1.307-1.307 0-.878.742-1.342 1.628-1.342a3.24 3.24 0 0 1 1.4.338v1.012l-.76.059v-.354c0-.16-.042-.229-.193-.287a1.304 1.304 0 0 0-.493-.075Zm5.581.482c0 1.299-1.408 1.518-2.404 1.526.034.548.321.996 1.038.996.497 0 .86-.229 1.063-.371l.321.683c-.134.117-.692.473-1.485.473-1.435 0-1.992-.876-1.992-2.136 0-1.248.699-2.344 2.084-2.344.827 0 1.375.421 1.375 1.173Zm-1.434-.457c-.675 0-.98.649-1.004 1.273.625-.007 1.51-.151 1.51-.801 0-.311-.203-.472-.506-.472Zm2.552.37c0-.185-.051-.244-.211-.252l-.354-.025v-.685h1.425v.633a1.322 1.322 0 0 1 1.197-.759c.279 0 .532.051.809.185v1.258l-.784.059v-.388c0-.102-.017-.177-.084-.21a.495.495 0 0 0-.227-.042c-.456 0-.769.362-.769.853v1.957l.734.033v.667h-2.262v-.642l.279-.026c.16-.017.244-.068.244-.279v-2.337h.003Zm4.824-1.055-.988.508-.37-.65 1.535-.955h.827v4.674l.878.043v.717h-2.937v-.691l.811-.051c.16-.008.246-.067.246-.278v-3.317h-.002Zm-18.612 26.535.059-.371c.059-.371.364-.439.624-.253l.65.456-.27-1.199.354-.092c.372-.102.549.151.49.472l-.151.835.988-.624.211.305c.219.311.043.589-.279.615l-.784.068.911.674-.212.305c-.219.313-.522.236-.674-.051l-.405-.751-.573 1.036-.338-.16c-.345-.161-.311-.488-.05-.665l.581-.415-1.132-.185Zm3.817 0 .059-.371c.059-.371.362-.439.624-.253l.65.456-.27-1.199.353-.092c.372-.102.549.151.49.472l-.151.835.988-.624.211.305c.22.311.043.589-.278.615l-.785.068.911.674-.211.305c-.22.313-.523.236-.675-.051l-.405-.751-.573 1.036-.337-.16c-.346-.161-.311-.488-.051-.665l.581-.415-1.131-.185Zm3.816 0 .059-.371c.059-.371.362-.439.624-.253l.65.456-.27-1.199.354-.092c.372-.102.549.151.49.472l-.151.835.988-.624.211.305c.219.311.042.589-.279.615l-.784.068.91.674-.211.305c-.219.313-.522.236-.675-.051l-.404-.751-.573 1.036-.338-.16c-.345-.161-.311-.488-.051-.665l.582-.415-1.132-.185Zm3.82 0 .059-.371c.059-.371.362-.439.624-.253l.651.456-.271-1.199.354-.092c.372-.102.549.151.49.472l-.151.835.988-.624.211.305c.22.311.043.589-.278.615l-.785.068.911.674-.212.305c-.219.313-.522.236-.674-.051l-.405-.751-.573 1.036-.338-.16c-.345-.161-.311-.488-.05-.665l.581-.415-1.132-.185Zm3.813 0 .059-.371c.059-.371.362-.439.624-.253l.65.456-.27-1.199.354-.092c.371-.102.548.151.489.472l-.15.835.987-.624.212.305c.219.311.042.589-.279.615l-.784.068.91.674-.211.305c-.219.313-.522.236-.675-.051l-.404-.751-.574 1.036-.337-.16c-.346-.161-.311-.488-.051-.665l.582-.415-1.132-.185Zm-18.613-7.022.278-.027c.144-.016.244-.067.244-.237v-3.923l-.482-.026v-.717h2.413c1.24 0 2 .591 2 1.721 0 1.282-.911 1.924-2.185 1.924h-.717v1.224l.81.026v.718h-2.361v-.683Zm2.16-2.1c.734 0 1.232-.252 1.232-1.004 0-.868-.498-1.004-1.325-1.004h-.515v2.008h.608Zm6.616 1.849c0 .185.051.237.211.246l.27.016v.675h-1.341v-.49l-.026-.006a1.405 1.405 0 0 1-1.157.607c-1.19 0-1.687-.845-1.687-2.05 0-1.486.71-2.429 2.228-2.429.278 0 .894.067 1.502.294v3.137Zm-.98-2.59c-.126-.059-.388-.109-.648-.109-.801 0-1.071.751-1.071 1.662 0 .7.168 1.368.878 1.368.524 0 .843-.372.843-.734v-2.187h-.002Zm3.703-.153c-.362 0-.633.169-.633.506 0 .388.405.508.801.616.659.185 1.384.398 1.384 1.317 0 .876-.725 1.35-1.628 1.35-.53 0-1.197-.084-1.552-.262v-1.173l.76-.061v.406c0 .161.042.228.195.287.16.059.353.084.556.084.423 0 .667-.161.667-.516 0-.405-.37-.48-.827-.6-.624-.16-1.307-.372-1.307-1.307 0-.878.742-1.341 1.628-1.341.573 0 1.071.177 1.4.337v1.012l-.76.059v-.354c0-.16-.042-.229-.193-.286a1.359 1.359 0 0 0-.491-.074Zm3.808 0c-.362 0-.632.169-.632.506 0 .388.405.508.801.616.658.185 1.384.398 1.384 1.317 0 .876-.726 1.35-1.628 1.35-.531 0-1.197-.084-1.553-.262v-1.173l.76-.061v.406c0 .161.043.228.195.287.161.059.354.084.557.084.423 0 .667-.161.667-.516 0-.405-.37-.48-.827-.6-.625-.16-1.308-.372-1.308-1.307 0-.878.742-1.341 1.629-1.341.573 0 1.071.177 1.4.337v1.012l-.76.059v-.354c0-.16-.043-.229-.193-.286a1.36 1.36 0 0 0-.492-.074Zm5.7-.397.876 3.138h.017l.573-2.607-.431-.025v-.674h1.695v.65l-.278.016c-.11.008-.177.041-.228.203l-.801 3.374h-1.215l-.693-2.514h-.024l-.718 2.514h-1.24l-.851-3.367c-.051-.151-.094-.202-.245-.21l-.245-.016v-.65h1.932v.674l-.471.025.581 2.591h.017l.928-3.123.821.001Zm5.112-.295c.624 0 1.882.193 1.882 2.134 0 1.62-.902 2.362-2.016 2.362-1.13 0-1.872-.726-1.872-2.252-.002-1.755 1.138-2.244 2.006-2.244Zm.852 2.268c0-.943-.228-1.526-.903-1.526-.666 0-.936.575-.936 1.384 0 .784.109 1.628.92 1.628.659 0 .919-.606.919-1.486Zm2.121-1.181c0-.183-.051-.244-.211-.252l-.354-.025v-.684h1.425v.632a1.321 1.321 0 0 1 1.197-.758c.279 0 .532.05.809.185v1.258l-.784.059v-.389c0-.101-.017-.176-.084-.209a.483.483 0 0 0-.227-.043c-.456 0-.769.362-.769.854v1.957l.734.033v.666h-2.262v-.642l.279-.026c.16-.016.244-.067.244-.279v-2.337h.003Zm6.187-.986v-.852c0-.144-.076-.195-.22-.203l-.364-.026v-.667h1.57v5.13c.008.143.067.195.211.195l.295.016v.675h-1.366v-.496l-.027-.008c-.262.421-.683.616-1.146.616-1.317 0-1.705-1.013-1.705-2.067 0-1.443.743-2.413 2.059-2.413.296 0 .499.042.693.1Zm0 .77a1.6 1.6 0 0 0-.641-.136c-.802 0-1.073.76-1.073 1.587 0 .766.185 1.417.911 1.417.473 0 .801-.313.801-.683v-2.185h.002Zm2.648-.686c.405 0 .632.246.632.6 0 .337-.219.607-.599.607-.421 0-.632-.244-.632-.598 0-.347.227-.609.599-.609Zm0 3.106c.405 0 .632.244.632.599 0 .339-.219.608-.599.608-.421 0-.632-.246-.632-.6 0-.347.227-.607.599-.607Zm-9.841-38.207c0-.493-.446-.633-.993-.782-.773-.211-1.492-.522-1.492-1.523 0-.955.734-1.531 1.813-1.531.516 0 1.001.101 1.468.319v1.171l-.798.054v-.452c0-.149-.023-.209-.164-.257a1.844 1.844 0 0 0-.507-.062c-.461 0-.821.186-.821.671 0 .485.454.618 1.038.798.711.228 1.461.547 1.461 1.554 0 1.032-.812 1.594-1.89 1.594-.625 0-1.11-.102-1.579-.319v-1.235l.798-.054v.475c0 .149.023.211.164.258.149.046.352.071.563.071.518 0 .939-.164.939-.75Zm1.992-3.053-.445-.025v-.665h1.89v.633l-.257.024c-.133.017-.228.062-.228.251v3.602l.445.022v.665h-1.89v-.632l.257-.023c.15-.016.227-.062.227-.258l.001-3.594Zm6.073 4.099c-.43.297-1.071.5-1.797.5-1.413 0-2.296-.867-2.296-2.68 0-2.024 1.368-2.702 2.491-2.702.523 0 1.062.101 1.532.319v1.328l-.796.054v-.609c0-.149-.023-.209-.164-.257a2.043 2.043 0 0 0-.578-.062c-1.047 0-1.509.702-1.509 1.867 0 1.227.407 1.969 1.36 1.969.304 0 .671-.085.827-.187v-1.165h-.008l-.601-.022v-.665h1.945v.624l-.18.016c-.163.016-.226.072-.226.259v1.413Zm.846-.224.282-.023c.133-.008.203-.062.203-.219v-3.631l-.445-.025v-.665h1.405l2.211 3.585h.016v-2.897l-.515-.025v-.665h1.906v.633l-.282.024c-.118.007-.188.077-.188.241v4.296h-.914l-2.257-3.639h-.016v2.953l.507.023v.665h-1.914v-.631h.001Zm7.555-3.875-.445-.025v-.665h1.89v.633l-.259.024c-.132.017-.227.062-.227.251v3.602l.445.022v.665h-1.89v-.632l.257-.023c.149-.016.226-.062.226-.258v-3.594h.003Zm1.912 3.875.282-.023c.133-.008.203-.062.203-.219v-3.631l-.445-.025v-.665h1.405l2.211 3.585h.017v-2.897l-.516-.025v-.665h1.906v.633l-.282.024c-.118.007-.188.077-.188.241v4.296h-.914l-2.257-3.639h-.016v2.953l.507.023v.665h-1.913v-.631Zm6.128-3.244c.375 0 .587.227.587.555 0 .313-.203.563-.554.563-.39 0-.586-.227-.586-.555-.002-.321.209-.563.553-.563Zm0 2.876c.375 0 .587.228.587.554 0 .312-.203.563-.554.563-.39 0-.586-.228-.586-.554-.002-.321.209-.563.553-.563Z"/>
  <path fill="#FFB680" d="M229.105 109.203c-.141 3.395-.66 6.955-2.126 8.422-3.16 3.16-5.834 4.617-5.834 4.617s9.342 7.9 24.792 8.458v.028c.084-.001.161-.011.243-.013.083.004.16.012.242.013v-.028c15.45-.556 24.793-8.458 24.793-8.458s-2.673-1.457-5.834-4.617c-.759-.758-1.26-2.083-1.591-3.649-.496.233-1.018.477-1.569.732-14.467 6.738-28.447-2.036-33.116-5.505Z"/>
  <path fill="#ED8A40" d="m263.436 101.582-17.257 4.431-17.257-4.431s.344 3.7.182 7.62c4.669 3.469 18.649 12.243 33.118 5.504.55-.255 1.071-.499 1.569-.732-1.053-4.958-.355-12.392-.355-12.392Z"/>
  <path fill="#FFB680" d="M284.271 64.685c-.4-4.591-3.407-5.004-5.766-4.601.646-8.686 1.221-21.211 1.221-21.211l-33.381 4.861-33.38-4.861s.58 12.596 1.227 21.285c-2.403-.517-5.746-.33-6.168 4.527-.713 8.19 3.824 11.914 8.125 13.956 1.623 11.932 3.263 18.019 8.159 21.727 8.02 6.076 16.426 8.507 22.037 8.507 5.612 0 14.026-2.933 22.2-8.507 5.348-3.646 6.395-9.859 8.023-21.932 4.17-2.085 8.391-5.83 7.703-13.751Z"/>
  <path fill="#ED8A40" d="M277.745 59.978c-.054-.318-.427-.562-.717-.33-.424.337-2.945-6.125-3.132-6.806-.424-1.541-.514-3.078-.443-4.662a3.94 3.94 0 0 0-.014-.545c.71-.391 1.43-.758 2.108-1.202.924-.608.508-1.658-.273-2.05.149-.107.303-.202.449-.314.776-.593.14-1.806-.788-1.507-4.344 1.396-8.385 3.361-12.858 4.395-4.461 1.032-9.052 1.18-13.612 1.238-8.368.107-17.452-.092-25.379-3.223-.24-.093-.508-.008-.687.164-.471-.74-1.878-.634-1.944.481-.139 2.342-.49 4.668-.652 7.012-.15 2.159-.547 4.277-1.357 6.3.016-.04-1.134 2.956-1.627 2.448-.259-.265-.809-.007-.739.368.502 2.708 2.521 1.101 3.424-.447 2.255-3.867 2.967-7.937 3.221-12.462 18.351 7.778 40.227 3.318 48.248-.243-.035 1.956.336 4.504.901 5.99.914 2.406 2.008 5.616 4.556 6.692.323.136.642.136.911-.12.427-.412.501-.6.404-1.177Z"/>
  <path fill="#ED8A40" d="M265.384 58.27c-.873-1.808-3.682-1.221-5.297-.96-2.262.366-4.316 1.576-5.61 3.467-1.749 2.558-1.125 12.246 3.366 7.875.257-.03.486-.218.403-.54-.313-1.216.07-.864.211-2.097.203-1.782.904-3.419 1.518-4.206.96-1.23 2.434-1.76 3.951-2.033 1.581-.284 2.257-.13 3.241-.203.037-.002-.493-.434-.511-.469-.276-.524-.73-.77-1.272-.833Zm-39.237 0c.873-1.808 3.682-1.221 5.297-.96 2.262.366 4.316 1.576 5.61 3.467 1.749 2.558 1.125 12.246-3.364 7.875-.258-.03-.487-.218-.403-.54.312-1.216-.071-.864-.212-2.097-.203-1.782-.904-3.419-1.518-4.206-.96-1.23-2.434-1.76-3.951-2.033-1.58-.284-2.257-.13-3.241-.203-.036-.002.493-.434.511-.469.274-.524.729-.77 1.271-.833Z"/>
  <path fill="#fff" d="M254.686 68.93s.567-1.7 2.026-2.51c1.458-.81 6.401-2.026 8.588-.162 2.188 1.864 1.782 1.864 1.782 1.864s-1.692 3.503-6.229 3.503c-4.535 0-6.247-1.883-6.167-2.694Z"/>
  <path fill="#4385F5" d="M262.832 67.939a2.734 2.734 0 1 1-5.468.002 2.734 2.734 0 0 1 5.468-.002Z"/>
  <path fill="#6B2618" d="M261.31 67.99a1.398 1.398 0 1 1-2.795 0 1.398 1.398 0 0 1 2.795 0Z"/>
  <path fill="#6B2618" d="M267.667 67.618c-1.386-2.406-4.48-3.254-7.268-2.919-2.168.26-4.766 1.173-5.799 3.617-.398.94-.125 1.123.209.485 2.079-3.967 9.217-4.74 11.693-.66-.116.509-1.118 1.845-2.607 2.695-.354.202-.182.584.365.366.888-.354 2.288-1.438 3.038-2.523.274-.396.552-.743.369-1.061Z"/>
  <path fill="#fff" d="M261.735 67.03a.933.933 0 1 1-1.865-.002.933.933 0 0 1 1.865.002Zm-24.802 1.9s-.567-1.7-2.026-2.51c-1.458-.81-6.401-2.026-8.587-.162-2.189 1.864-1.782 1.864-1.782 1.864s1.692 3.503 6.228 3.503 6.247-1.883 6.167-2.694Z"/>
  <path fill="#4385F5" d="M231.523 70.672a2.734 2.734 0 1 0-.001-5.467 2.734 2.734 0 0 0 .001 5.467Z"/>
  <path fill="#6B2618" d="M231.702 69.388a1.397 1.397 0 1 0 0-2.795 1.397 1.397 0 0 0 0 2.795Z"/>
  <path fill="#6B2618" d="M223.953 67.618c1.386-2.406 4.478-3.254 7.266-2.919 2.169.26 4.768 1.173 5.8 3.617.398.94.124 1.123-.21.485-2.078-3.967-9.216-4.74-11.693-.66.117.509 1.119 1.845 2.608 2.695.354.202.182.584-.365.366-.89-.354-2.289-1.438-3.039-2.523-.27-.396-.55-.743-.367-1.061Z"/>
  <path fill="#fff" d="M231.328 67.03a.933.933 0 1 0 1.865-.002.933.933 0 0 0-1.865.002Z"/>
  <path fill="#6B2618" d="M268.669 59.206c-2.074-2.073-6.088-3.252-9.148-2.705-1.735.31-3.315 1.073-4.381 2.19-.392.312-.71.966-.95 1.552-.307-.586-.434-1.038-.886-1.36-.258.87-.323 2.094-.161 3.137.098.631.614 1.014 1.06.592 2.28-2.169 6.638-6.038 13.466-2.02 1.096.644 1.869-.516 1-1.386Zm-45.255 0c2.073-2.073 6.088-3.252 9.147-2.705 1.735.31 3.316 1.073 4.382 2.19.391.312.709.966.95 1.552.306-.586.436-1.038.886-1.36.257.87.323 2.094.16 3.137-.098.631-.614 1.014-1.058.592-2.28-2.169-6.638-6.038-13.466-2.02-1.098.644-1.871-.516-1.001-1.386Z"/>
  <path fill="#7E3422" d="M273.685 21.87c.486 3.525-1.365 5.598-2.699 6.242.891-3.646.35-8.32-1.836-10.022.198 3.764-.947 5.092-3.525 6.927.811-3.97-.891-6.442-5.51-8.021-7.009-2.398-17.622-1.944-24.793-.973-8.014 1.086-18.33 4.142-21.979 20.208-1.605 7.07-4.08 16.892-2.042 23.907 1.723.172 2.676.57 3.5 1.233 2.991-5.34 3.991-13.316 3.23-19.063-.053-.397-.023-1.474 2.222-.44 4.84 2.23 16.999 5.291 22.985 5.136 4.291-.112 8.966-.642 12.707-2.952 3.559-2.196 6.845-5.102 7.816-9.234 1.135 2.997.242 5.672-.447 6.964 2.877-.888 5.146-3.076 6.037-6.884 1.215.891 2.35 3.646-.242 8.59 1.539-.243 4.05-1.945 4.699-6.968 3.079.566 3.112 6.716 2.673 9.398-.729 4.455.992 7.305 2.078 11.239.285 1.032.431 2.118.465 3.146.559-.249 1.258-.391 2.157-.167 1.267-.971-.299-30.317-7.496-38.266Z"/>
  <path fill="#6B2618" d="M276.477 45.92c.439-2.68.404-8.831-2.673-9.398-.649 5.023-3.16 6.725-4.7 6.968 2.593-4.942 1.458-7.697.243-8.59-.891 3.809-3.16 5.997-6.037 6.885.691-1.293 1.582-3.967.447-6.965-.973 4.133-4.257 7.037-7.816 9.235-3.743 2.31-8.416 2.84-12.707 2.951-5.987.156-18.145-2.907-22.985-5.136-2.245-1.034-2.275.044-2.222.44.76 5.748-.239 13.723-3.23 19.064.339.273.658.586.996.953 2.796 3.038 5.711-10.127 5.59-16.325 3.449 1.247 7.567 2.328 10.938 2.835 28.194 4.254 35.686-1.36 39.984-3.038-.107 3.474 2.005 13.65 4.861 15.434.37.23.903-.503 1.854-.927a13.545 13.545 0 0 0-.465-3.146c-1.087-3.935-2.807-6.785-2.078-11.24Z"/>
  <path fill="#ED8A40" d="M252.231 82.621c-.283-.486-1.046-1.136-1.551-1.135-.873.004-.36 1.093.144 1.723.526.657.108.898-.059 1.086-.722.818-2.34 1.252-2.881 1.404-1.71.486-2.804.365-4.465 0-.547-.12-2.193-.56-3.007-1.286-.19-.168-.477-.414.069-1.204.459-.665 1.019-1.718.144-1.723-.504-.001-1.235.678-1.518 1.165-.459.784-.572 1.17-.426 1.833.213.963 1.461 1.711 2.593 2.147 3.362 1.297 5.752 1.174 8.759 0 1.129-.44 2.139-1.184 2.593-2.147.288-.614.062-1.076-.395-1.863Zm-36.068-9.294c-2.74-.729-4.363-5.36-1.337-4.496.426.121.626-.508.608-1.215-.034-1.39-.593-3.72-1.531-4.706-.647-.678-1.861-.971-2.677-.429-2.83 1.877-1.741 6.784-.046 8.902.729.912.937.192.366-.79-.852-1.457-.865-2.263-1.094-3.95-.141-1.022.08-2.724 1.035-3.192 1.405-.692 2.465.573 2.699 1.859.239.753.27 1.611.316 2.424-1.073-.058-1.888.629-1.905 2.086-.019 1.807 1.825 3.833 3.451 4.192.493.106.691-.533.115-.685Zm60.282 0c2.74-.729 4.364-5.36 1.337-4.496-.426.121-.626-.508-.608-1.215.034-1.39.593-3.72 1.532-4.706.646-.678 1.86-.971 2.676-.429 2.83 1.877 1.741 6.784.046 8.902-.729.912-.937.192-.366-.79.85-1.457.865-2.263 1.095-3.95.14-1.022-.081-2.724-1.036-3.192-1.405-.692-2.465.573-2.699 1.859-.239.753-.27 1.611-.316 2.424 1.073-.058 1.889.629 1.905 2.086.02 1.807-1.825 3.833-3.451 4.192-.493.106-.69-.533-.115-.685Z"/>
  <path fill="url(#a)" d="m248.68 221.732-1.042-48.367s-12.962-22.686-16.203-30.463c-3.242-7.778-5.186-18.148-13.611-19.445 0 0-11.343 4.213-19.77 6.805-8.427 2.593-16.528 6.157-20.418 15.88-2.936 7.343-3.516 53.449-3.624 75.59h74.668Z"/>
  <path fill="url(#b)" d="M321.017 221.732c-.454-22.141-1.74-68.247-4.676-75.59-3.889-9.723-11.992-13.288-20.418-15.88-8.427-2.592-19.77-6.805-19.77-6.805-8.427 1.297-10.371 11.667-13.611 19.445-3.241 7.778-16.203 30.463-16.203 30.463l-1.042 48.367h75.72Z"/>
  <path fill="#E6E6E6" d="m230.137 134.879 13.855-6.563 3.402.487 17.258 8.263-18.878 48.208-13.125-30.139-2.512-20.256Z"/>
  <path fill="#D73D33" d="m239.375 135.124 2.917 8.751h6.806l3.403-9.238-6.483-5.994-6.643 6.481Z"/>
  <path fill="#D73D33" d="m242.454 142.578-6.481 22.2 10.045 22.2 10.533-21.551-7.454-22.849h-6.643Z"/>
  <path fill="#fff" d="m226.328 118.922 19.365 9.722-13.937 20.094-5.428-29.816Zm40.106 0-20.418 9.722 14.99 20.094 5.428-29.816Z"/>
  <path fill="url(#c)" d="M202.707 221.734c-2.015-14.217-7.215-34.188-7.874-59.492-3.649 25.304-5.079 40.577-3.005 59.492h10.879Z"/>
  <path fill="url(#d)" d="M304.582 221.734c2.023-12.809 2.324-32.535-3.006-59.492.197 25.304-5.858 45.275-7.873 59.492h10.879Z"/>
  <path fill="url(#e)" d="M228.982 111.123s-.607 6.805-2.309 9.662c2.249 11.667 19.425 66.761 19.425 66.761l-29.249-32.976 5.834-13.611-12.315.649s-.099-9.417 2.512-14.93c2.898-6.116 7.69-13.498 16.102-15.555Z"/>
  <path fill="url(#f)" d="M263.214 111.123s.608 6.805 2.309 9.662c-2.248 11.667-19.585 66.761-19.585 66.761l29.41-32.976-5.835-13.611 12.316.649s.098-9.417-2.513-14.93c-2.897-6.116-7.69-13.498-16.102-15.555Z"/>
  <path fill="#3F3F3F" d="M272.629 64.557c-.41-1.586-2.058-2.352-4.369-2.41-6.024-.15-11.72-.237-16.565.302-1.392.156-2.59 1.437-3.987 2.31-1.607 1.004-3.112.904-4.417 0-1.353-.937-2.372-2.154-3.766-2.31-4.845-.539-10.541-.452-16.565-.301-2.31.057-3.959.823-4.369 2.409-1.171 4.54.675 11.998 4.97 12.953 5.421 1.205 8.676.966 13.553.3 1.84-.25 3.314-3.765 5.12-7.378.721-1.44 2.161-2.453 3.363-2.56 1.202.107 2.663 1.12 3.384 2.56 1.806 3.615 3.28 7.128 5.12 7.379 4.877.665 8.132.904 13.553-.302 4.3-.954 6.146-8.412 4.975-12.952Z"/>
  <path fill="#fff" d="M255.857 94.89c.551-1.059.839-1.15.839-1.773h-21.368c0 .727.372 1.042 1.109 2.31 3.3.35 13.354 1.203 19.42-.538Z"/>
  <path fill="#D73D33" d="M246.009 101.11c5.108 0 8.405-3.455 9.845-6.22-6.067 1.743-16.122.888-19.42.538 1.544 2.655 4.712 5.682 9.575 5.682Z"/>
  <path fill="#3F3F3F" d="M291.846 35.964c-6.22-2.717-14.156-3.575-14.156-3.575s-7.726 6.425-27.62 7.704h-7.506c-19.896-1.277-27.558-7.704-27.558-7.704s-7.937.858-14.156 3.575c-6.055 2.645-11.798 7.936 2.788 13.727 9.943 3.95 25.952 5.504 35.136 6.093 1.802.117 10.083.143 11.909.041 10.024-.557 28.186-2.09 38.377-6.135 14.583-5.79 8.842-11.08 2.786-13.726Z"/>
  <path fill="#4D4D4D" d="M270.205 12.965c-2.726-4.078-16.143-7.356-25.37-7.356-9.115 0-19.715 3.258-22.411 7.356-4.186 6.362-9.092 19.788-9.092 19.788 7.013 5.668 24.087 8.99 32.524 8.99 15.673 0 28.646-5.453 33.441-8.99 0 0-4.428-12.81-9.092-19.788Z"/>
  <path fill="#AFAFAF" d="M213.332 32.754s13.031 8.99 33.585 8.99c20.554 0 1.828-7.311 0-7.311-16.369 0-31.539-6.935-31.539-6.935l-2.046 5.256Z"/>
  <path fill="#AFAFAF" d="M279.46 32.754s-13.031 8.99-33.585 8.99c-20.554 0-1.828-7.311 0-7.311 16.369 0 31.54-6.935 31.54-6.935l2.045 5.256Z"/>
  <path fill="#B7B7B7" d="M299.33 137.293H195.68v83.94h103.65v-83.94Z"/>
  <path fill="gray" d="M299.33 214.723H195.68v7.013h103.65v-7.013Z"/>
  <path fill="#fff" d="M247.506 183.64c4.708 0 8.525-1.961 8.525-4.379 0-2.419-3.817-4.38-8.525-4.38-4.709 0-8.526 1.961-8.526 4.38 0 2.418 3.817 4.379 8.526 4.379Z"/>
  <path fill="url(#g)" d="M487 222.615H0v10.027h487v-10.027Z"/>
  <defs>
    <linearGradient id="a" x1="175.31" x2="248.946" y1="165.77" y2="166.855" gradientUnits="userSpaceOnUse">
      <stop stop-color="#FB8D48"/>
      <stop offset=".2" stop-color="#ED7136"/>
      <stop offset=".4" stop-color="#C54E47"/>
      <stop offset=".4" stop-color="#C14F49"/>
      <stop offset=".6" stop-color="#9D3863"/>
      <stop offset=".8" stop-color="#5E1F72"/>
    </linearGradient>
    <linearGradient id="b" x1="246.614" x2="321.286" y1="165.77" y2="166.886" gradientUnits="userSpaceOnUse">
      <stop stop-color="#FB8D48"/>
      <stop offset=".2" stop-color="#ED7136"/>
      <stop offset=".4" stop-color="#C54E47"/>
      <stop offset=".4" stop-color="#C14F49"/>
      <stop offset=".6" stop-color="#9D3863"/>
      <stop offset=".8" stop-color="#5E1F72"/>
    </linearGradient>
    <linearGradient id="c" x1="191.077" x2="202.751" y1="187.857" y2="187.902" gradientUnits="userSpaceOnUse">
      <stop stop-color="#FB8D48"/>
      <stop offset=".2" stop-color="#ED7136"/>
      <stop offset=".4" stop-color="#C54E47"/>
      <stop offset=".4" stop-color="#C14F49"/>
      <stop offset=".6" stop-color="#9D3863"/>
      <stop offset=".8" stop-color="#5E1F72"/>
    </linearGradient>
    <linearGradient id="d" x1="293.916" x2="305.979" y1="187.857" y2="187.905" gradientUnits="userSpaceOnUse">
      <stop stop-color="#FB8D48"/>
      <stop offset=".2" stop-color="#ED7136"/>
      <stop offset=".4" stop-color="#C54E47"/>
      <stop offset=".4" stop-color="#C14F49"/>
      <stop offset=".6" stop-color="#9D3863"/>
      <stop offset=".8" stop-color="#5E1F72"/>
    </linearGradient>
    <linearGradient id="e" x1="210.989" x2="246.23" y1="144.027" y2="144.347" gradientUnits="userSpaceOnUse">
      <stop stop-color="#FB8D48"/>
      <stop offset=".2" stop-color="#ED7136"/>
      <stop offset=".4" stop-color="#C54E47"/>
      <stop offset=".4" stop-color="#C14F49"/>
      <stop offset=".6" stop-color="#9D3863"/>
      <stop offset=".8" stop-color="#5E1F72"/>
    </linearGradient>
    <linearGradient id="f" x1="246.562" x2="281.962" y1="144.027" y2="144.35" gradientUnits="userSpaceOnUse">
      <stop stop-color="#FB8D48"/>
      <stop offset=".2" stop-color="#ED7136"/>
      <stop offset=".4" stop-color="#C54E47"/>
      <stop offset=".4" stop-color="#C14F49"/>
      <stop offset=".6" stop-color="#9D3863"/>
      <stop offset=".8" stop-color="#5E1F72"/>
    </linearGradient>
    <linearGradient id="g" x1="8.47" x2="263.029" y1="226.932" y2="466.685" gradientUnits="userSpaceOnUse">
      <stop stop-color="#FB8D48"/>
      <stop offset=".2" stop-color="#ED7136"/>
      <stop offset=".4" stop-color="#C54E47"/>
      <stop offset=".4" stop-color="#C14F49"/>
      <stop offset=".6" stop-color="#9D3863"/>
      <stop offset=".8" stop-color="#5E1F72"/>
    </linearGradient>
  </defs>
</svg>
