<svg xmlns="http://www.w3.org/2000/svg" width="524" height="230" fill="none" viewBox="0 0 524 230">
  <path fill="#fff" d="M29.46 34.7a.452.452 0 0 1-.452-.453V32.44c0-.25.202-.453.452-.453h1.809a.452.452 0 0 1 0 .905h-1.357v1.357c0 .25-.202.452-.452.452Zm0 13.442a.452.452 0 0 1-.452-.452v-3.361a.452.452 0 0 1 .904 0v3.359a.453.453 0 0 1-.452.454Zm0-6.722a.452.452 0 0 1-.452-.452v-3.36a.452.452 0 0 1 .904 0v3.36a.451.451 0 0 1-.452.452Zm0 127.696a.452.452 0 0 1-.452-.452v-3.359a.452.452 0 1 1 .904 0v3.359c0 .25-.202.452-.452.452Zm0-6.72a.452.452 0 0 1-.452-.452v-3.359a.453.453 0 1 1 .904 0v3.359c0 .25-.202.452-.452.452Zm0-6.72a.453.453 0 0 1-.452-.452v-3.36a.453.453 0 0 1 .904 0v3.36a.453.453 0 0 1-.452.452Zm0-6.722a.453.453 0 0 1-.452-.452v-3.36a.453.453 0 0 1 .904 0v3.361a.452.452 0 0 1-.452.451Zm0-6.72a.453.453 0 0 1-.452-.453v-3.359a.453.453 0 0 1 .904 0v3.359c0 .25-.202.453-.452.453Zm0-6.721a.452.452 0 0 1-.452-.452v-3.359a.452.452 0 1 1 .904 0v3.359c0 .25-.202.452-.452.452Zm0-6.722a.452.452 0 0 1-.452-.452v-3.359a.452.452 0 1 1 .904 0v3.359c0 .25-.202.452-.452.452Zm0-6.72a.453.453 0 0 1-.452-.452v-3.359a.453.453 0 1 1 .904 0v3.359a.453.453 0 0 1-.452.452Zm0-6.72a.453.453 0 0 1-.452-.452v-3.36a.453.453 0 0 1 .904 0v3.36a.453.453 0 0 1-.452.452Zm0-6.722a.453.453 0 0 1-.452-.452v-3.36a.453.453 0 0 1 .904 0v3.36a.451.451 0 0 1-.452.452Zm0-6.72a.453.453 0 0 1-.452-.453v-3.359a.452.452 0 0 1 .904 0v3.359c0 .25-.202.453-.452.453Zm0-6.72a.452.452 0 0 1-.452-.453v-3.36a.452.452 0 0 1 .904 0v3.36c0 .25-.202.452-.452.452Zm0-6.723a.452.452 0 0 1-.452-.452v-3.36a.452.452 0 0 1 .904 0v3.36c0 .25-.202.452-.452.452Zm0-6.72a.452.452 0 0 1-.452-.452v-3.36a.452.452 0 0 1 .904 0v3.36c0 .25-.202.452-.452.452Zm0-6.72a.452.452 0 0 1-.452-.452v-3.36a.452.452 0 0 1 .904 0v3.36c0 .25-.202.452-.452.452Zm0-6.722a.452.452 0 0 1-.452-.453v-3.359a.452.452 0 0 1 .904 0v3.36c0 .25-.202.452-.452.452Zm0-6.72a.452.452 0 0 1-.452-.453v-3.359a.452.452 0 0 1 .904 0v3.36a.452.452 0 0 1-.452.452Zm0-6.72a.452.452 0 0 1-.452-.453v-3.36a.452.452 0 0 1 .904 0v3.36c0 .25-.202.452-.452.452Zm1.809 119.422H29.46a.453.453 0 0 1-.452-.453v-1.808a.453.453 0 1 1 .904 0v1.356h1.357a.453.453 0 0 1 0 .905Zm15.02-.001h-3.756a.452.452 0 1 1 0-.904h3.756a.452.452 0 1 1 0 .904Zm-7.511 0h-3.755a.452.452 0 1 1 0-.904h3.755a.452.452 0 1 1 0 .904Zm232.83 0h-3.756a.452.452 0 0 1 0-.904h3.756a.452.452 0 0 1 0 .904Zm-7.511 0h-3.756a.452.452 0 0 1 0-.904h3.756a.452.452 0 0 1 0 .904Zm-7.511 0h-3.755a.452.452 0 1 1 0-.904h3.755a.452.452 0 1 1 0 .904Zm-7.511 0h-3.755a.452.452 0 1 1 0-.904h3.755a.452.452 0 1 1 0 .904Zm-7.51 0h-3.756a.452.452 0 0 1 0-.904h3.756a.452.452 0 0 1 0 .904Zm-7.509 0H230.3a.452.452 0 0 1 0-.904h3.756a.452.452 0 0 1 0 .904Zm-7.511 0h-3.755a.452.452 0 1 1 0-.904h3.755a.452.452 0 1 1 0 .904Zm-7.511 0h-3.755a.452.452 0 1 1 0-.904h3.755a.452.452 0 1 1 0 .904Zm-7.512 0h-3.756a.452.452 0 0 1 0-.904h3.756a.452.452 0 0 1 0 .904Zm-7.509 0h-3.756a.452.452 0 0 1 0-.904h3.756a.452.452 0 0 1 0 .904Zm-7.511 0h-3.755a.452.452 0 1 1 0-.904h3.755a.452.452 0 1 1 0 .904Zm-7.511 0h-3.755a.452.452 0 1 1 0-.904h3.755a.452.452 0 1 1 0 .904Zm-7.511 0h-3.755a.452.452 0 1 1 0-.904h3.755a.452.452 0 1 1 0 .904Zm-7.51 0h-3.756a.452.452 0 0 1 0-.904h3.756a.452.452 0 0 1 0 .904Zm-7.511 0h-3.755a.452.452 0 1 1 0-.904h3.755a.452.452 0 1 1 0 .904Zm-7.511 0h-3.755a.452.452 0 1 1 0-.904h3.755a.452.452 0 1 1 0 .904Zm-7.509 0h-3.755a.452.452 0 1 1 0-.904h3.755a.452.452 0 1 1 0 .904Zm-7.51 0h-3.756a.452.452 0 0 1 0-.904h3.756a.452.452 0 0 1 0 .904Zm-7.511 0h-3.756a.452.452 0 0 1 0-.904h3.756a.452.452 0 0 1 0 .904Zm-7.511 0h-3.755a.452.452 0 1 1 0-.904h3.755a.452.452 0 1 1 0 .904Zm-7.511 0h-3.755a.452.452 0 1 1 0-.904h3.755a.452.452 0 1 1 0 .904Zm-7.51 0h-3.756a.452.452 0 0 1 0-.904h3.756a.452.452 0 0 1 0 .904Zm-7.511 0h-3.756a.452.452 0 0 1 0-.904h3.756a.452.452 0 0 1 0 .904Zm-7.511 0h-3.755a.452.452 0 1 1 0-.904h3.755a.452.452 0 1 1 0 .904Zm-7.51 0h-3.756a.452.452 0 1 1 0-.904h3.755a.452.452 0 1 1 0 .904Zm-7.511 0h-3.756a.452.452 0 1 1 0-.904h3.755a.452.452 0 1 1 0 .904Zm-7.51 0h-3.755a.452.452 0 1 1 0-.904h3.756a.452.452 0 1 1 0 .904Zm-7.51 0h-3.755a.452.452 0 1 1 0-.904h3.755a.452.452 0 1 1 0 .904Zm-7.51 0h-3.756a.452.452 0 1 1 0-.904h3.755a.452.452 0 1 1 0 .904Zm-7.512 0h-3.755a.452.452 0 1 1 0-.904h3.755a.452.452 0 1 1 0 .904Zm223.374.001h-1.809a.453.453 0 0 1 0-.905h1.357v-1.356a.453.453 0 0 1 .904 0v1.808c0 .25-.202.453-.452.453Zm0-5.722a.452.452 0 0 1-.452-.452v-3.915a.452.452 0 1 1 .904 0v3.915a.452.452 0 0 1-.452.452Zm0-7.833a.452.452 0 0 1-.452-.452v-3.915a.452.452 0 0 1 .904 0v3.915a.45.45 0 0 1-.452.452Zm0-7.834a.452.452 0 0 1-.452-.452v-3.917a.452.452 0 0 1 .904 0v3.917a.45.45 0 0 1-.452.452Zm0-7.831a.452.452 0 0 1-.452-.452v-3.915a.452.452 0 0 1 .904 0v3.915a.45.45 0 0 1-.452.452Zm0-7.831a.452.452 0 0 1-.452-.452v-3.915a.452.452 0 0 1 .904 0v3.915c0 .25-.202.452-.452.452Zm0-7.831a.452.452 0 0 1-.452-.452v-3.915a.452.452 0 0 1 .904 0v3.915c0 .25-.202.452-.452.452Zm0-7.831a.452.452 0 0 1-.452-.452v-3.914a.452.452 0 1 1 .904 0v3.914c0 .25-.202.452-.452.452Zm0-7.831a.452.452 0 0 1-.452-.452v-3.916a.452.452 0 1 1 .904 0v3.916c0 .25-.202.452-.452.452Zm0-7.831a.452.452 0 0 1-.452-.452v-3.914a.452.452 0 1 1 .904 0v3.914c0 .25-.202.452-.452.452Zm0-7.83a.452.452 0 0 1-.452-.453v-3.916a.452.452 0 1 1 .904 0v3.914a.452.452 0 0 1-.452.455Zm0-7.831a.452.452 0 0 1-.452-.453v-3.916a.452.452 0 1 1 .904 0v3.916c0 .25-.202.453-.452.453Zm0-7.831a.452.452 0 0 1-.452-.453V78.05a.452.452 0 1 1 .904 0v3.916c0 .25-.202.453-.452.453Zm0-7.833a.452.452 0 0 1-.452-.452v-3.915a.452.452 0 1 1 .904 0v3.915a.45.45 0 0 1-.452.452Zm0-7.831a.452.452 0 0 1-.452-.452v-3.917a.452.452 0 1 1 .904 0v3.917c0 .25-.202.452-.452.452Zm0-7.83a.452.452 0 0 1-.452-.453v-3.916a.452.452 0 1 1 .904 0v3.916c0 .25-.202.452-.452.452Zm0-7.832a.452.452 0 0 1-.452-.452v-3.916a.452.452 0 1 1 .904 0v3.916c0 .25-.202.452-.452.452Zm0-7.83a.452.452 0 0 1-.452-.453v-3.916a.452.452 0 1 1 .904 0v3.916c0 .25-.202.452-.452.452Zm0-7.829a.453.453 0 0 1-.452-.452V33.62l-1.362-.02a.453.453 0 0 1 .005-.905h.006l1.809.026a.453.453 0 0 1 .447.452v1.809a.452.452 0 0 1-.453.452Zm-5.566-1.89h-.005l-3.756-.052a.453.453 0 0 1 .006-.905h.005l3.755.053a.452.452 0 0 1-.005.904Zm-7.509-.105h-.007l-3.756-.052a.452.452 0 0 1 .006-.905h.005l3.756.053a.453.453 0 0 1-.004.904Zm-7.514-.105h-.005l-3.756-.053a.453.453 0 0 1 .006-.904h.005l3.755.052a.452.452 0 0 1-.005.905Zm-7.509-.107h-.005l-3.756-.052a.453.453 0 0 1 .006-.905h.005l3.755.053a.45.45 0 0 1 .445.458.449.449 0 0 1-.45.446Zm-7.511-.105h-.005l-3.756-.052a.452.452 0 0 1-.446-.458c.001-.251.177-.454.457-.447l3.756.053a.453.453 0 0 1-.006.904Zm-7.509-.106h-.005l-3.755-.053a.452.452 0 0 1-.447-.458c.003-.25.215-.474.457-.446l3.756.052a.453.453 0 0 1-.006.904Zm-7.51-.105h-.006l-3.748-.02a.452.452 0 1 1 0-.905l3.761.02c.249.004.45.208.447.458a.457.457 0 0 1-.454.447Zm-7.511-.02h-3.756a.453.453 0 0 1 0-.905h3.756a.453.453 0 0 1 0 .905Zm-7.511 0h-3.755a.453.453 0 1 1 0-.905h3.755a.452.452 0 1 1 0 .905Zm-7.511 0h-3.755a.452.452 0 1 1 0-.905h3.755a.453.453 0 1 1 0 .905Zm-7.51 0h-3.756a.453.453 0 0 1 0-.905h3.756a.453.453 0 0 1 0 .905Zm-7.511 0h-3.756a.453.453 0 0 1 0-.905h3.756a.453.453 0 0 1 0 .905Zm-7.511 0h-3.755a.453.453 0 1 1 0-.905h3.755a.452.452 0 1 1 0 .905Zm-7.511 0h-3.755a.452.452 0 1 1 0-.905h3.755a.453.453 0 1 1 0 .905Zm-7.51 0h-3.756a.453.453 0 0 1 0-.905h3.756a.453.453 0 0 1 0 .905Zm-7.511 0h-3.755a.453.453 0 1 1 0-.905h3.755a.453.453 0 0 1 0 .905Zm-7.511 0h-3.755a.452.452 0 1 1 0-.905h3.755a.452.452 0 1 1 0 .905Zm-7.511 0h-3.755a.452.452 0 1 1 0-.905h3.755a.453.453 0 1 1 0 .905Zm-7.51 0h-3.756a.453.453 0 0 1 0-.905h3.756a.453.453 0 0 1 0 .905Zm-7.511 0h-3.755a.453.453 0 1 1 0-.905h3.755a.452.452 0 1 1 0 .905Zm-7.511 0h-3.755a.452.452 0 1 1 0-.905h3.755a.452.452 0 1 1 0 .905Zm-7.511 0h-3.755a.452.452 0 1 1 0-.905h3.755a.453.453 0 1 1 0 .905Zm-7.51 0h-3.756a.453.453 0 0 1 0-.905h3.756a.453.453 0 0 1 0 .905Zm-7.511 0h-3.755a.452.452 0 0 1 0-.905h3.755a.452.452 0 0 1 0 .905Zm-7.51 0h-3.756a.452.452 0 0 1 0-.905h3.755a.452.452 0 0 1 0 .905Zm-7.512 0h-3.755a.452.452 0 0 1 0-.905h3.755a.452.452 0 0 1 0 .905Zm-7.51 0h-3.756a.452.452 0 0 1 0-.905h3.756a.452.452 0 0 1 0 .905Zm-7.511 0h-3.755a.452.452 0 0 1 0-.905h3.755a.452.452 0 0 1 0 .905Zm-7.51 0h-3.756a.452.452 0 0 1 0-.905h3.755a.452.452 0 0 1 0 .905Zm-7.512 0h-3.755a.452.452 0 0 1 0-.905h3.755a.452.452 0 0 1 0 .905Zm-7.51 0h-3.756a.452.452 0 0 1 0-.905h3.756a.452.452 0 0 1 0 .905Zm-7.511 0h-3.755a.452.452 0 0 1 0-.905h3.755a.452.452 0 0 1 0 .905Zm177.61 66.195H92.094v1.809h124.294v-1.81Z"/>
  <path fill="#fff" d="M155.145 38.697h-1.809v124.295h1.809V38.697Z"/>
  <path fill="#fff" d="M154.242 164.303c-34.766 0-63.05-28.285-63.05-63.051 0-34.766 28.284-63.053 63.05-63.053 34.768 0 63.053 28.285 63.053 63.053s-28.285 63.051-63.053 63.051Zm0-124.295C120.473 40.008 93 67.482 93 101.252c0 33.769 27.475 61.242 61.242 61.242 33.77 0 61.244-27.475 61.244-61.242 0-33.768-27.473-61.244-61.244-61.244Z"/>
  <path fill="#fff" d="M154.235 164.582c-19.086 0-34.614-28.285-34.614-63.051 0-34.766 15.528-63.05 34.614-63.05s34.614 28.284 34.614 63.05-15.528 63.051-34.614 63.051Zm0-124.294c-18.089 0-32.805 27.474-32.805 61.241 0 33.77 14.716 61.242 32.805 61.242 18.09 0 32.806-27.474 32.806-61.242 0-33.769-14.716-61.241-32.806-61.241Z"/>
  <path fill="#fff" d="M155.106 54.814c-12.341 0-23.587-3.034-30.086-8.115l1.114-1.426c6.1 4.769 17.199 7.732 28.972 7.732 11.103 0 21.514-2.583 27.845-6.909l1.02 1.495c-6.622 4.522-17.413 7.223-28.865 7.223Zm-1.491 18.632c-19.07 0-36.363-4.508-46.584-12.2l1.089-1.445c10.295 7.748 28.084 12.156 47.642 11.816 18.148-.326 35.103-4.862 45.354-12.13l1.046 1.474c-10.535 7.472-27.869 12.132-46.367 12.465-.729.014-1.456.02-2.18.02Zm28.246 83.249c-6.1-4.769-17.2-7.732-28.972-7.732-11.104 0-21.514 2.583-27.845 6.909l-1.021-1.495c6.623-4.522 17.413-7.223 28.868-7.223 12.34 0 23.586 3.034 30.086 8.115l-1.116 1.426Zm-73.663-14.216-1.046-1.474c10.537-7.473 27.871-12.133 46.367-12.464 19.913-.36 38.153 4.195 48.762 12.18l-1.089 1.445c-10.296-7.749-28.084-12.159-47.642-11.816-18.147.324-35.101 4.859-45.352 12.129Zm340.827-1.438h-2.898a.453.453 0 0 1 0-.905h2.755l.472-.329a.454.454 0 0 1 .521.742l-.588.41a.467.467 0 0 1-.262.082Zm-6.516 0h-3.618a.453.453 0 0 1 0-.905h3.618a.453.453 0 0 1 0 .905Zm-7.236 0h-3.617a.453.453 0 0 1 0-.905h3.617a.453.453 0 0 1 0 .905Zm-7.235 0h-3.618a.452.452 0 0 1 0-.905h3.618a.453.453 0 0 1 0 .905Zm-7.236 0h-3.618a.452.452 0 0 1 0-.905h3.618a.452.452 0 0 1 0 .905Zm-7.236 0h-3.618a.453.453 0 0 1 0-.905h3.618a.452.452 0 0 1 0 .905Zm-7.236 0h-3.618a.453.453 0 0 1 0-.905h3.618a.453.453 0 0 1 0 .905Zm-7.235 0h-3.618a.453.453 0 0 1 0-.905h3.618a.453.453 0 0 1 0 .905Zm-7.236 0h-3.618a.452.452 0 0 1 0-.905h3.618a.453.453 0 0 1 0 .905Zm-7.236 0h-3.618a.452.452 0 0 1 0-.905h3.618a.452.452 0 0 1 0 .905Zm-7.236 0h-3.618a.453.453 0 0 1 0-.905h3.618a.452.452 0 0 1 0 .905Zm-7.237 0h-3.618a.453.453 0 0 1 0-.905h3.618a.453.453 0 0 1 0 .905Zm-7.236 0h-3.618a.452.452 0 0 1 0-.905h3.618a.453.453 0 0 1 0 .905Zm-7.236 0h-3.618a.452.452 0 0 1 0-.905h3.618a.452.452 0 0 1 0 .905Zm-7.236 0h-3.618a.453.453 0 0 1 0-.905h3.618a.452.452 0 0 1 0 .905Zm-7.236 0h-3.617a.453.453 0 0 1 0-.905h3.617a.453.453 0 0 1 0 .905Zm-7.235 0h-3.618a.452.452 0 0 1 0-.905h3.618a.453.453 0 0 1 0 .905Zm-7.236 0h-3.618a.452.452 0 0 1 0-.905h3.618a.453.453 0 0 1 0 .905Zm-7.236 0h-3.618a.453.453 0 0 1 0-.905h3.618a.452.452 0 0 1 0 .905Zm-7.236 0h-3.618a.453.453 0 0 1 0-.905h3.618a.453.453 0 0 1 0 .905Zm-7.236 0h-3.617a.453.453 0 0 1 0-.905h3.617a.453.453 0 0 1 0 .905Zm-7.235 0h-3.618a.452.452 0 0 1 0-.905h3.618a.453.453 0 0 1 0 .905Zm-7.236 0h-3.618a.452.452 0 0 1 0-.905h3.618a.452.452 0 0 1 0 .905Zm-7.236 0h-3.618a.453.453 0 0 1 0-.905h3.618a.452.452 0 0 1 0 .905Zm169.261-2.482a.453.453 0 0 1-.26-.823l2.967-2.072a.452.452 0 1 1 .519.742l-2.967 2.071a.44.44 0 0 1-.259.082Zm5.936-4.141a.45.45 0 0 1-.257-.823l.877-.613a.457.457 0 0 1 .259-.082h2.545a.452.452 0 0 1 0 .905h-2.404l-.764.532a.449.449 0 0 1-.256.081Zm54.074-.613h-3.617a.453.453 0 0 1 0-.905h3.617a.453.453 0 0 1 0 .905Zm-7.235 0h-3.618a.452.452 0 0 1 0-.905h3.618a.453.453 0 0 1 0 .905Zm-7.236 0h-3.618a.452.452 0 0 1 0-.905h3.618a.453.453 0 0 1 0 .905Zm-7.236 0h-3.618a.453.453 0 0 1 0-.905h3.618a.452.452 0 0 1 0 .905Zm-7.236 0h-3.618a.453.453 0 0 1 0-.905h3.618a.453.453 0 0 1 0 .905Zm-7.236 0h-3.617a.453.453 0 0 1 0-.905h3.617a.453.453 0 0 1 0 .905Zm-7.235 0h-3.618a.452.452 0 0 1 0-.905h3.618a.453.453 0 0 1 0 .905Zm50.468 3.935a4.358 4.358 0 0 1-4.352-4.353 4.358 4.358 0 0 1 4.352-4.352 4.358 4.358 0 0 1 4.353 4.352 4.357 4.357 0 0 1-4.353 4.353Zm0-7.35a3 3 0 0 0-2.995 2.996 2.999 2.999 0 0 0 2.995 2.995 3 3 0 0 0 2.996-2.995 2.998 2.998 0 0 0-2.996-2.996ZM326.372 76.274h-3.618a.453.453 0 1 1 0-.905h3.618a.453.453 0 0 1 0 .905Zm-7.236 0h-3.618a.452.452 0 1 1 0-.905h3.618a.453.453 0 0 1 0 .905Zm-7.236 0h-3.618a.452.452 0 1 1 0-.905h3.618a.452.452 0 1 1 0 .905Zm-7.236 0h-3.618a.453.453 0 0 1 0-.905h3.618a.452.452 0 1 1 0 .905Zm-7.236 0h-3.617a.453.453 0 1 1 0-.905h3.617a.453.453 0 1 1 0 .905Zm-7.235 0h-3.618a.452.452 0 1 1 0-.905h3.618a.453.453 0 0 1 0 .905Zm-7.236 0h-3.618a.452.452 0 1 1 0-.905h3.618a.453.453 0 0 1 0 .905Zm49.981 3.899a4.356 4.356 0 0 1-4.352-4.348 4.36 4.36 0 0 1 4.352-4.356 4.358 4.358 0 0 1 4.351 4.356 4.356 4.356 0 0 1-4.351 4.348Zm0-7.35a3.001 3.001 0 0 0-2.995 3 2.996 2.996 0 1 0 2.995-3Zm58.595 26.961h-2.361a.452.452 0 1 1 0-.905h2.361a.453.453 0 0 1 0 .905Zm-5.977 0h-3.618a.452.452 0 1 1 0-.905h3.618a.453.453 0 0 1 0 .905Zm-7.236 0h-3.618a.452.452 0 1 1 0-.905h3.618a.452.452 0 1 1 0 .905Zm-7.236 0h-3.618a.453.453 0 0 1 0-.905h3.618a.452.452 0 1 1 0 .905Zm-7.236 0h-1.649a.45.45 0 0 1-.366-.187l-1.161-1.588a.451.451 0 1 1 .729-.533l1.026 1.403h1.42a.453.453 0 0 1 .001.905Zm-4.947-4.51a.451.451 0 0 1-.365-.186l-2.135-2.922a.452.452 0 0 1 .729-.533l2.135 2.921a.453.453 0 0 1-.364.72Zm-5.559-3.301h-3.618a.453.453 0 0 1 0-.905h3.618a.452.452 0 1 1 0 .905Zm-7.236 0h-3.618a.453.453 0 0 1 0-.905h3.618a.453.453 0 1 1 0 .905Zm-7.236 0h-3.617a.453.453 0 1 1 0-.905h3.617a.453.453 0 1 1 0 .905Zm-7.235 0h-3.618a.452.452 0 1 1 0-.905h3.618a.453.453 0 0 1 0 .905Zm-7.236 0h-3.618a.452.452 0 1 1 0-.905h3.618a.452.452 0 1 1 0 .905Zm-7.236 0h-3.618a.453.453 0 0 1 0-.905h3.618a.452.452 0 1 1 0 .905Zm-7.236 0h-3.618a.453.453 0 0 1 0-.905h3.618a.453.453 0 1 1 0 .905Zm-7.235 0h-3.618a.453.453 0 1 1 0-.905h3.618a.453.453 0 0 1 0 .905Zm-7.236 0h-3.618a.452.452 0 1 1 0-.905h3.618a.453.453 0 0 1 0 .905Zm-7.236 0h-3.618a.452.452 0 1 1 0-.905h3.618a.452.452 0 1 1 0 .905Zm-7.236 0h-3.618a.453.453 0 0 1 0-.905h3.618a.452.452 0 1 1 0 .905Z"/>
  <path fill="#fff" d="M395.212 103.625a4.356 4.356 0 0 1-4.353-4.349c0-2.4 1.952-4.352 4.353-4.352 2.4 0 4.352 1.953 4.352 4.352a4.352 4.352 0 0 1-4.352 4.349Zm0-7.344a3 3 0 0 0-2.996 2.995 2.997 2.997 0 0 0 2.996 2.992 2.997 2.997 0 0 0 2.995-2.992 2.997 2.997 0 0 0-2.995-2.995Zm-41.965 16.211a4.355 4.355 0 0 1-4.352-4.349 4.36 4.36 0 0 1 4.352-4.356c2.4 0 4.352 1.954 4.352 4.356a4.355 4.355 0 0 1-4.352 4.349Zm0-7.348a3.001 3.001 0 0 0-2.996 2.999 2.997 2.997 0 0 0 2.996 2.992 2.997 2.997 0 0 0 2.995-2.992 3.001 3.001 0 0 0-2.995-2.999Zm-7.141 3.452h-3.618a.453.453 0 0 1 0-.905h3.618a.453.453 0 0 1 0 .905Zm-7.236 0h-3.617a.453.453 0 0 1 0-.905h3.617a.453.453 0 0 1 0 .905Zm-7.235 0h-3.618a.452.452 0 0 1 0-.905h3.618a.453.453 0 0 1 0 .905Zm-7.236 0h-3.618a.452.452 0 0 1 0-.905h3.618a.452.452 0 0 1 0 .905Zm-7.236 0h-3.618a.453.453 0 0 1 0-.905h3.618a.452.452 0 0 1 0 .905Zm-7.236 0h-3.618a.453.453 0 0 1 0-.905h3.618a.453.453 0 0 1 0 .905Zm-7.235 0h-3.618a.453.453 0 0 1 0-.905h3.618a.453.453 0 0 1 0 .905Zm-7.236 0h-3.618a.452.452 0 0 1 0-.905h3.618a.453.453 0 0 1 0 .905Zm-7.236 0h-3.618a.452.452 0 0 1 0-.905h3.618a.452.452 0 0 1 0 .905Zm-7.236 0h-3.618a.453.453 0 0 1 0-.905h3.618a.452.452 0 0 1 0 .905Zm79.153 16.249h-.837a.452.452 0 1 1 0-.904h.626l1.646-1.974a.453.453 0 0 1 .694.579l-1.78 2.136a.46.46 0 0 1-.349.163Zm-4.455 0h-3.618a.452.452 0 1 1 0-.904h3.618a.452.452 0 1 1 0 .904Zm-7.236 0h-3.618a.452.452 0 0 1 0-.904h3.618a.452.452 0 1 1 0 .904Zm-7.236 0h-3.618a.452.452 0 0 1 0-.904h3.618a.452.452 0 1 1 0 .904Zm-7.235 0h-3.618a.452.452 0 1 1 0-.904h3.618a.452.452 0 0 1 0 .904Zm-7.236 0h-3.618a.452.452 0 1 1 0-.904h3.618a.452.452 0 0 1 0 .904Zm-7.236 0h-3.618a.452.452 0 1 1 0-.904h3.618a.452.452 0 1 1 0 .904Zm-7.236 0h-3.618a.452.452 0 0 1 0-.904h3.618a.452.452 0 1 1 0 .904Zm-7.236 0h-3.618a.452.452 0 0 1 0-.904h3.618a.452.452 0 1 1 0 .904Zm-7.235 0h-3.618a.452.452 0 1 1 0-.904h3.618a.452.452 0 0 1 0 .904Zm-7.236 0h-3.618a.452.452 0 1 1 0-.904h3.618a.452.452 0 0 1 0 .904Zm-7.236 0h-3.618a.452.452 0 0 1 0-.904h3.618a.452.452 0 1 1 0 .904Zm80.911-4.915a.452.452 0 0 1-.348-.741l1.936-2.323a.45.45 0 0 1 .347-.163h.595a.453.453 0 0 1 0 .905h-.381l-1.802 2.159a.444.444 0 0 1-.347.163Zm7.299-2.321h-1.149a.452.452 0 1 1 0-.904h1.149a.453.453 0 0 1 0 .904Z"/>
  <path fill="#fff" d="M375.206 121.543a4.358 4.358 0 0 1-4.351-4.353c0-2.4 1.952-4.352 4.351-4.352a4.36 4.36 0 0 1 4.354 4.352 4.358 4.358 0 0 1-4.354 4.353Zm0-7.348a2.997 2.997 0 0 0-2.994 2.995 2.998 2.998 0 0 0 2.994 2.996 3 3 0 0 0 2.997-2.996 3 3 0 0 0-2.997-2.995Z"/>
  <path fill="#5B5B5B" d="M232.571 207.668h-18.786l3.312-10.736h12.263l3.211 10.736Z"/>
  <path fill="#909091" d="M262.111 195.401c0 1.828-1.402 3.31-3.137 3.31h-72.128c-1.731 0-3.135-1.482-3.135-3.31v-51.286c0-1.829 1.404-3.31 3.135-3.31h72.128c1.733 0 3.137 1.481 3.137 3.31v51.286Z"/>
  <path fill="#fff" d="M258.197 189.07c0 1.494-1.26 2.706-2.823 2.706h-64.925c-1.558 0-2.824-1.212-2.824-2.706v-41.975c0-1.496 1.264-2.706 2.824-2.706h64.925c1.563 0 2.823 1.212 2.823 2.706v41.975Z"/>
  <path fill="#5B5B5B" d="M225.309 195.725a2.08 2.08 0 1 1-4.161 0 2.08 2.08 0 1 1 4.161 0Z"/>
  <path fill="#909091" d="M242.995 210.656c.011-.121.033-.239.033-.366 0-2.373-1.574-4.296-3.515-4.296H206.95c-1.943 0-3.516 1.923-3.516 4.296 0 .125.021.245.03.366h39.531Z"/>
  <path fill="url(#a)" d="M232.919 160.062c-2.802.119-8.692-2.233-9.591-2.603v-.006c-.003 0-.011.004-.011.004-.003-.002-.005-.004-.009-.004v.006c-.904.37-6.792 2.722-9.592 2.603 0 6.834-.241 12.878.935 15.417 1.4 3.027 4.832 4.969 8.659 6.572v.011c.004-.002.006-.002.009-.005.004.003.006.003.011.005v-.011c2.867-1.203 5.516-2.596 7.252-4.493a8.107 8.107 0 0 0 1.406-2.079c1.172-2.539.931-8.583.931-15.417Z"/>
  <path fill="#fff" d="M223.359 169.023h8.086c.065-2.223.02-4.859.02-7.656-2.364.1-7.324-1.883-8.086-2.194v-.007c-.002 0-.005.004-.009.004-.002-.002-.002-.004-.009-.004v.007l-.011.006v9.846h-8.057c.071 2.35.264 4.235.771 5.334 1.181 2.549 4.072 4.19 7.295 5.541v-10.877Z"/>
  <path fill="#5B5B5B" d="M232.571 71.082h-18.786l3.312-10.736h12.263l3.211 10.736Z"/>
  <path fill="#909091" d="M262.111 58.815c0 1.828-1.402 3.31-3.137 3.31h-72.128c-1.731 0-3.135-1.482-3.135-3.31V7.529c0-1.829 1.404-3.31 3.135-3.31h72.128c1.733 0 3.137 1.481 3.137 3.31v51.286Z"/>
  <path fill="#fff" d="M258.197 52.484c0 1.494-1.26 2.706-2.823 2.706h-64.925c-1.558 0-2.824-1.21-2.824-2.706V10.509c0-1.496 1.264-2.708 2.824-2.708h64.925c1.563 0 2.823 1.212 2.823 2.708v41.975Z"/>
  <path fill="#5B5B5B" d="M225.309 59.139a2.08 2.08 0 1 1-4.161 0 2.08 2.08 0 1 1 4.161 0Z"/>
  <path fill="#909091" d="M242.995 74.07c.011-.121.033-.239.033-.365 0-2.374-1.574-4.297-3.515-4.297H206.95c-1.943 0-3.516 1.923-3.516 4.296 0 .125.021.245.03.366h39.531Z"/>
  <path fill="url(#b)" d="M232.919 23.476c-2.802.12-8.692-2.233-9.591-2.603v-.006c-.003 0-.011.004-.011.004-.003-.002-.005-.004-.009-.004v.006c-.904.37-6.792 2.722-9.592 2.603 0 6.834-.241 12.878.935 15.417 1.4 3.027 4.832 4.97 8.659 6.572v.011c.004-.002.006-.002.009-.005.004.003.006.003.011.005v-.01c2.867-1.204 5.516-2.597 7.252-4.494a8.106 8.106 0 0 0 1.406-2.079c1.172-2.54.931-8.583.931-15.417Z"/>
  <path fill="#fff" d="M223.359 32.44h8.086c.065-2.222.02-4.86.02-7.654-2.364.099-7.324-1.884-8.086-2.195v-.007l-.009.004c-.002 0-.002-.004-.009-.004v.007l-.011.006v9.846h-8.057c.071 2.35.264 4.235.771 5.334 1.181 2.55 4.072 4.19 7.295 5.541V32.441Z"/>
  <path fill="#5B5B5B" d="M94.79 207.668H76.004l3.312-10.736H91.58l3.21 10.736Z"/>
  <path fill="#909091" d="M124.329 195.401c0 1.828-1.402 3.31-3.136 3.31H49.065c-1.733 0-3.135-1.482-3.135-3.31v-51.286c0-1.829 1.403-3.31 3.135-3.31h72.128c1.733 0 3.136 1.481 3.136 3.31v51.286Z"/>
  <path fill="#fff" d="M120.416 189.07c0 1.494-1.261 2.706-2.824 2.706H52.668c-1.558 0-2.824-1.212-2.824-2.706v-41.975c0-1.496 1.264-2.706 2.823-2.706h64.925c1.563 0 2.824 1.212 2.824 2.706v41.975Z"/>
  <path fill="#5B5B5B" d="M87.528 195.725a2.08 2.08 0 1 1-4.16 0 2.08 2.08 0 0 1 2.081-2.08 2.077 2.077 0 0 1 2.079 2.08Z"/>
  <path fill="#909091" d="M105.216 210.656c.011-.121.032-.239.032-.366 0-2.373-1.573-4.296-3.514-4.296H69.169c-1.943 0-3.517 1.923-3.517 4.296 0 .125.022.245.031.366h39.533Z"/>
  <path fill="#5B5B5B" d="M94.319 71.082H75.531l3.312-10.736h12.265l3.211 10.736Z"/>
  <path fill="#909091" d="M123.857 58.815c0 1.828-1.402 3.31-3.137 3.31H48.592c-1.733 0-3.135-1.482-3.135-3.31V7.529c0-1.829 1.404-3.31 3.135-3.31h72.128c1.733 0 3.137 1.481 3.137 3.31v51.286Z"/>
  <path fill="#fff" d="M119.944 52.484c0 1.494-1.261 2.706-2.824 2.706H52.195c-1.558 0-2.824-1.21-2.824-2.706V10.509c0-1.496 1.264-2.708 2.824-2.708h64.925c1.563 0 2.824 1.212 2.824 2.708v41.975Z"/>
  <path fill="#5B5B5B" d="M87.055 59.139a2.08 2.08 0 1 1-4.16 0 2.08 2.08 0 1 1 4.16 0Z"/>
  <path fill="#909091" d="M104.743 74.07c.011-.121.033-.239.033-.365 0-2.374-1.574-4.297-3.515-4.297H68.696c-1.942 0-3.516 1.923-3.516 4.296 0 .125.021.245.03.366h39.533Z"/>
  <path fill="url(#c)" d="M94.665 23.476c-2.802.12-8.692-2.233-9.59-2.603v-.006a.032.032 0 0 0-.011.004c-.004-.002-.006-.004-.01-.004v.006c-.904.37-6.792 2.722-9.592 2.603 0 6.834-.24 12.878.935 15.417 1.4 3.027 4.832 4.97 8.66 6.572v.011l.008-.005c.002.003.006.003.011.005v-.01c2.87-1.204 5.516-2.597 7.252-4.494a8.159 8.159 0 0 0 1.406-2.079c1.17-2.54.931-8.583.931-15.417Z"/>
  <path fill="#fff" d="M85.105 32.44h8.086c.065-2.222.02-4.86.02-7.654-2.364.099-7.324-1.884-8.086-2.195v-.007l-.009.004s-.004-.004-.009-.004v.007l-.01.006v9.846h-8.058c.07 2.35.264 4.235.77 5.334 1.182 2.55 4.074 4.19 7.296 5.541V32.441Z"/>
  <path fill="url(#d)" d="M94.665 160.062c-2.802.119-8.692-2.233-9.59-2.603v-.006a.032.032 0 0 0-.011.004c-.004-.002-.006-.004-.01-.004v.006c-.904.37-6.792 2.722-9.592 2.603 0 6.834-.24 12.878.935 15.417 1.4 3.027 4.832 4.969 8.66 6.572v.011l.008-.005c.002.003.006.003.011.005v-.011c2.87-1.203 5.516-2.596 7.252-4.493a8.16 8.16 0 0 0 1.406-2.079c1.17-2.539.931-8.583.931-15.417Z"/>
  <path fill="#fff" d="M85.105 169.023h8.086c.065-2.223.02-4.859.02-7.656-2.364.1-7.324-1.883-8.086-2.194v-.007s-.005.004-.009.004c0 0-.004-.004-.009-.004v.007l-.01.006v9.846h-8.058c.07 2.35.264 4.235.77 5.334 1.182 2.549 4.074 4.19 7.296 5.541v-10.877Z"/>
  <path fill="url(#e)" d="M171.574 135.151a3.883 3.883 0 0 1-3.882 3.882h-26.107a3.883 3.883 0 0 1-3.882-3.882V74.296a3.883 3.883 0 0 1 3.882-3.882h26.107a3.883 3.883 0 0 1 3.882 3.882v60.855Z"/>
  <path fill="#fff" d="M167.926 76.861a2.478 2.478 0 0 1-2.479 2.478h-21.609a2.478 2.478 0 1 1 0-4.956h21.609a2.478 2.478 0 0 1 2.479 2.478Zm0 8.365a2.478 2.478 0 0 1-2.479 2.479h-21.609a2.478 2.478 0 1 1 0-4.957h21.609a2.478 2.478 0 0 1 2.479 2.478Zm0 8.368a2.478 2.478 0 0 1-2.479 2.478h-21.609a2.478 2.478 0 1 1 0-4.957h21.609a2.478 2.478 0 0 1 2.479 2.479Zm0 8.365a2.478 2.478 0 0 1-2.479 2.478h-21.609a2.478 2.478 0 1 1 0-4.956h21.609a2.477 2.477 0 0 1 2.479 2.478Z"/>
  <path fill="url(#f)" d="M326.52 228.076h-29.045a.678.678 0 0 1-.678-.678v-19.175c0-.374.304-.678.678-.678h29.045c.374 0 .678.304.678.678v19.175a.678.678 0 0 1-.678.678Zm-28.366-1.356h27.687v-17.818h-27.687v17.818Z"/>
  <path fill="url(#g)" d="M326.51 228.074a.668.668 0 0 1-.376-.116l-27.903-18.681a.677.677 0 1 1 .754-1.127l27.903 18.681a.679.679 0 0 1-.378 1.243Z"/>
  <path fill="url(#h)" d="M297.475 228.065a.675.675 0 0 1-.566-.303.682.682 0 0 1 .192-.941l29.044-19.164a.682.682 0 0 1 .941.192.68.68 0 0 1-.194.94l-29.044 19.164a.68.68 0 0 1-.373.112Z"/>
  <path fill="url(#i)" d="M317.432 44.69a.68.68 0 0 1-.376-.115c-4.371-1.84-9.604-4.519-11.663-8.961-1.382-2.99-1.351-9.034-1.309-16.686.007-1.28.014-2.6.014-3.938a.68.68 0 0 1 .21-.49.638.638 0 0 1 .497-.188c2.94.095 9.071-2.035 12.294-3.354a.687.687 0 0 1 .346-.089c.139.018.253.033.356.092.944.386 8.696 3.49 12.279 3.349a.63.63 0 0 1 .498.188.683.683 0 0 1 .209.49c0 1.348.008 2.672.015 3.96.041 7.64.074 13.675-1.308 16.662a11.516 11.516 0 0 1-1.97 2.914c-2.021 2.213-5.022 4.083-9.721 6.062a.702.702 0 0 1-.326.1c-.016.003-.031.003-.045.003Zm-11.979-29.027a856.92 856.92 0 0 1-.013 3.272c-.038 7.187-.07 13.394 1.185 16.109 1.842 3.978 6.706 6.481 10.821 8.223 4.412-1.872 7.22-3.621 9.078-5.654a10.176 10.176 0 0 0 1.74-2.57c1.254-2.712 1.221-8.908 1.183-16.084-.005-1.077-.011-2.176-.013-3.294-3.873-.176-10.45-2.759-11.986-3.383-1.545.622-8.145 3.202-11.995 3.38Z"/>
  <path fill="url(#j)" d="M317.505 41.84a.703.703 0 0 1-.263-.053c-3.715-1.558-8.207-3.835-9.976-7.649-.637-1.38-.968-3.63-1.078-7.299a.676.676 0 0 1 .678-.7h9.948V13.83a.676.676 0 0 1 .235-.511c.125-.116.276-.163.472-.183a.67.67 0 0 1 .365.1c1.102.446 7.339 2.892 10.284 2.805a.66.66 0 0 1 .498.188.682.682 0 0 1 .208.49l.01 3.251c.013 2.471.026 4.804-.036 6.868a.678.678 0 0 1-.678.659h-9.987v13.667a.68.68 0 0 1-.68.676Zm-9.937-14.344c.081 2.079.284 4.673.93 6.073 1.433 3.091 5.056 5.12 8.328 6.563V27.496h-9.258Zm10.602-1.358h9.34c.041-1.876.031-3.966.02-6.165l-.007-2.587c-2.833-.167-7.292-1.78-9.351-2.58l-.002 11.332Z"/>
  <path fill="#fff" d="M294.901 176.892c.015-.968.027-3.255-.097-4.441-.102-1.983-1.283-3.054-4.411-3.175a12.544 12.544 0 0 0-1.132.005c-2.764.23-3.904 1.363-3.994 3.229-.114 1.12-.094 3.244-.076 4.277-.744.21-1.283.785-1.281 1.467l.011 7.883c.002.858.848 1.552 1.889 1.55l8.174-.01c1.044-.002 1.885-.7 1.883-1.562l-.011-7.879c-.001-.577-.387-1.077-.955-1.344Zm-7.955-4.233.005-.053c.016-.403.132-1.608 2.885-1.608l.351-.02c2.864.183 2.918 1.187 2.934 1.576l.004.054c.148 1.38.054 2.439.071 3.573.001.24.009.392.023.501l-6.342.011c-.016-.928-.038-2.989.069-4.034Z"/>
  <path fill="#F89C1B" d="M289.888 186.652a.942.942 0 0 0 .93-1.136l-.298-1.476c.517-.338.75-1.076.253-1.775a.372.372 0 0 0-.085-.083c-.941-.669-1.958-.011-1.958.887 0 .407.212.765.529.973l-.302 1.476a.943.943 0 0 0 .931 1.134Z"/>
  <path fill="url(#k)" d="M19.884 161.812H2.91A2.915 2.915 0 0 1 0 158.901V141.92a2.914 2.914 0 0 1 2.91-2.91h16.974a2.914 2.914 0 0 1 2.91 2.91v16.981a2.915 2.915 0 0 1-2.91 2.911ZM2.91 140.366c-.858 0-1.554.699-1.554 1.554v16.981c0 .857.696 1.554 1.554 1.554h16.973c.857 0 1.554-.698 1.554-1.554V141.92c0-.857-.697-1.554-1.554-1.554H2.91Z"/>
  <path fill="url(#l)" d="M10.875 155.943h-.018a.905.905 0 0 1-.753-.433l-4.216-6.886a.906.906 0 0 1 1.543-.946l3.48 5.683 5.93-8.838a.904.904 0 1 1 1.501 1.006l-6.715 10.01a.903.903 0 0 1-.752.404Z"/>
  <path fill="#FFCE00" d="M166.891 131.912a1.81 1.81 0 1 1-3.62.002 1.81 1.81 0 0 1 3.62-.002Z"/>
  <defs>
    <linearGradient id="a" x1="214.03" x2="233.008" y1="168.049" y2="168.336" gradientUnits="userSpaceOnUse">
      <stop stop-color="#FB8D48"/>
      <stop offset=".2" stop-color="#ED7136"/>
      <stop offset=".4" stop-color="#C54E47"/>
      <stop offset=".4" stop-color="#C14F49"/>
      <stop offset=".6" stop-color="#9D3863"/>
      <stop offset=".8" stop-color="#5E1F72"/>
    </linearGradient>
    <linearGradient id="b" x1="214.03" x2="233.008" y1="31.463" y2="31.75" gradientUnits="userSpaceOnUse">
      <stop stop-color="#FB8D48"/>
      <stop offset=".2" stop-color="#ED7136"/>
      <stop offset=".4" stop-color="#C54E47"/>
      <stop offset=".4" stop-color="#C14F49"/>
      <stop offset=".6" stop-color="#9D3863"/>
      <stop offset=".8" stop-color="#5E1F72"/>
    </linearGradient>
    <linearGradient id="c" x1="75.776" x2="94.754" y1="31.463" y2="31.75" gradientUnits="userSpaceOnUse">
      <stop stop-color="#FB8D48"/>
      <stop offset=".2" stop-color="#ED7136"/>
      <stop offset=".4" stop-color="#C54E47"/>
      <stop offset=".4" stop-color="#C14F49"/>
      <stop offset=".6" stop-color="#9D3863"/>
      <stop offset=".8" stop-color="#5E1F72"/>
    </linearGradient>
    <linearGradient id="d" x1="75.776" x2="94.754" y1="168.049" y2="168.336" gradientUnits="userSpaceOnUse">
      <stop stop-color="#FB8D48"/>
      <stop offset=".2" stop-color="#ED7136"/>
      <stop offset=".4" stop-color="#C54E47"/>
      <stop offset=".4" stop-color="#C14F49"/>
      <stop offset=".6" stop-color="#9D3863"/>
      <stop offset=".8" stop-color="#5E1F72"/>
    </linearGradient>
    <linearGradient id="e" x1="138.292" x2="171.698" y1="99.958" y2="100.278" gradientUnits="userSpaceOnUse">
      <stop stop-color="#FB8D48"/>
      <stop offset=".2" stop-color="#ED7136"/>
      <stop offset=".4" stop-color="#C54E47"/>
      <stop offset=".4" stop-color="#C14F49"/>
      <stop offset=".6" stop-color="#9D3863"/>
      <stop offset=".8" stop-color="#5E1F72"/>
    </linearGradient>
    <linearGradient id="f" x1="297.326" x2="327.288" y1="216.385" y2="217.245" gradientUnits="userSpaceOnUse">
      <stop stop-color="#FB8D48"/>
      <stop offset=".2" stop-color="#ED7136"/>
      <stop offset=".4" stop-color="#C54E47"/>
      <stop offset=".4" stop-color="#C14F49"/>
      <stop offset=".6" stop-color="#9D3863"/>
      <stop offset=".8" stop-color="#5E1F72"/>
    </linearGradient>
    <linearGradient id="g" x1="298.439" x2="327.276" y1="216.663" y2="217.48" gradientUnits="userSpaceOnUse">
      <stop stop-color="#FB8D48"/>
      <stop offset=".2" stop-color="#ED7136"/>
      <stop offset=".4" stop-color="#C54E47"/>
      <stop offset=".4" stop-color="#C14F49"/>
      <stop offset=".6" stop-color="#9D3863"/>
      <stop offset=".8" stop-color="#5E1F72"/>
    </linearGradient>
    <linearGradient id="h" x1="297.326" x2="327.288" y1="216.38" y2="217.241" gradientUnits="userSpaceOnUse">
      <stop stop-color="#FB8D48"/>
      <stop offset=".2" stop-color="#ED7136"/>
      <stop offset=".4" stop-color="#C54E47"/>
      <stop offset=".4" stop-color="#C14F49"/>
      <stop offset=".6" stop-color="#9D3863"/>
      <stop offset=".8" stop-color="#5E1F72"/>
    </linearGradient>
    <linearGradient id="i" x1="304.535" x2="330.91" y1="25.431" y2="25.835" gradientUnits="userSpaceOnUse">
      <stop stop-color="#FB8D48"/>
      <stop offset=".2" stop-color="#ED7136"/>
      <stop offset=".4" stop-color="#C54E47"/>
      <stop offset=".4" stop-color="#C14F49"/>
      <stop offset=".6" stop-color="#9D3863"/>
      <stop offset=".8" stop-color="#5E1F72"/>
    </linearGradient>
    <linearGradient id="j" x1="306.582" x2="328.977" y1="25.494" y2="25.837" gradientUnits="userSpaceOnUse">
      <stop stop-color="#FB8D48"/>
      <stop offset=".2" stop-color="#ED7136"/>
      <stop offset=".4" stop-color="#C54E47"/>
      <stop offset=".4" stop-color="#C14F49"/>
      <stop offset=".6" stop-color="#9D3863"/>
      <stop offset=".8" stop-color="#5E1F72"/>
    </linearGradient>
    <linearGradient id="k" x1=".396" x2="22.872" y1="148.827" y2="149.263" gradientUnits="userSpaceOnUse">
      <stop stop-color="#FB8D48"/>
      <stop offset=".2" stop-color="#ED7136"/>
      <stop offset=".4" stop-color="#C54E47"/>
      <stop offset=".4" stop-color="#C14F49"/>
      <stop offset=".6" stop-color="#9D3863"/>
      <stop offset=".8" stop-color="#5E1F72"/>
    </linearGradient>
    <linearGradient id="l" x1="5.976" x2="18.538" y1="149.211" y2="149.474" gradientUnits="userSpaceOnUse">
      <stop stop-color="#FB8D48"/>
      <stop offset=".2" stop-color="#ED7136"/>
      <stop offset=".4" stop-color="#C54E47"/>
      <stop offset=".4" stop-color="#C14F49"/>
      <stop offset=".6" stop-color="#9D3863"/>
      <stop offset=".8" stop-color="#5E1F72"/>
    </linearGradient>
  </defs>
</svg>
