<svg xmlns="http://www.w3.org/2000/svg" width="558" height="273" fill="none" viewBox="0 0 558 273">
  <path fill="#E86B31" d="M449.453 50.38v-4.47h.58c3.772 0 4.934-2.583 5.797-6.255.977-4.16 1.412-15.131 1.412-19.45 0-14.33-8.182-19.571-18.274-19.571s-18.272 5.241-18.272 19.57c0 4.6.227 15.43 1.067 19.318.805 3.735 2.003 6.386 5.823 6.386v4.468c-14.369 0-26.566 11.474-26.566 25.497v16.179c0 14.023 11.473 25.496 25.496 25.496h25.534c14.023 0 25.496-11.473 25.496-25.496v-16.18c.002-14.02-15.107-25.493-28.093-25.493Z"/>
  <path fill="#fff" d="M443.219 37.257h-7.866a2.642 2.642 0 0 1-2.63-2.634 2.64 2.64 0 0 1 2.63-2.633h7.866a2.642 2.642 0 0 1 2.632 2.633 2.645 2.645 0 0 1-2.632 2.634Zm-4.696-14.181c0 2.227-4.628 3.268-6.852 3.268a4.026 4.026 0 0 1-4.026-4.029 4.026 4.026 0 0 1 4.026-4.026c2.224-.002 6.852 2.562 6.852 4.787Zm1.528-.002c0-2.224 4.627-4.789 6.85-4.789a4.027 4.027 0 0 1 0 8.055c-2.223.002-6.85-1.04-6.85-3.266Z"/>
  <path fill="#004B6C" d="M434.506 22.618a1.829 1.829 0 1 1-3.658 0 1.828 1.828 0 1 1 3.658 0Zm12.866.098a1.831 1.831 0 1 1-1.83-1.833c1.012 0 1.83.822 1.83 1.833Z"/>
  <path fill="#fff" d="M174.095 204.296h-2.247a.53.53 0 1 1 0-1.062h2.247a.532.532 0 1 1 0 1.062Zm12.748-.002a.53.53 0 1 1 0-1.062l4.25-.002a.53.53 0 1 1 0 1.062l-4.25.002Zm-4.249 0h-4.249a.531.531 0 0 1 0-1.062h4.249a.531.531 0 0 1 0 1.062Zm12.748-.002a.53.53 0 1 1 0-1.062l4.249-.002a.53.53 0 1 1 0 1.062l-4.249.002Zm8.499-.002a.53.53 0 1 1 0-1.062l4.249-.002a.53.53 0 1 1 0 1.062l-4.249.002Zm12.748-.002h-4.25a.531.531 0 0 1 0-1.062h4.25a.531.531 0 0 1 0 1.062Zm8.498-.002h-4.249a.531.531 0 0 1 0-1.062h4.249a.53.53 0 1 1 0 1.062Zm8.499-.002h-4.249a.531.531 0 0 1 0-1.063h4.249a.532.532 0 0 1 0 1.063Zm12.748-.002a.53.53 0 1 1 0-1.063l4.249-.002a.53.53 0 1 1 0 1.062l-4.249.003Zm-4.249 0h-4.25a.532.532 0 0 1 0-1.063h4.25a.531.531 0 0 1 0 1.063Zm12.748-.003a.53.53 0 0 1-.531-.531.53.53 0 0 1 .531-.531l4.249-.002a.53.53 0 1 1 0 1.062l-4.249.002Zm8.498-.002a.53.53 0 1 1 0-1.062l4.25-.002a.53.53 0 1 1 0 1.062l-4.25.002Zm12.748-.002h-4.249a.531.531 0 0 1 0-1.062h4.249a.532.532 0 1 1 0 1.062Zm8.499-.002h-4.249a.531.531 0 0 1 0-1.062h4.249a.531.531 0 0 1 0 1.062Zm12.748-.002a.53.53 0 1 1 0-1.062l4.25-.002a.53.53 0 1 1 0 1.062l-4.25.002Zm-4.249 0h-4.25a.531.531 0 0 1 0-1.062h4.25a.531.531 0 0 1 0 1.062Zm12.748-.002a.53.53 0 1 1 0-1.062l4.249-.003a.53.53 0 1 1 0 1.063l-4.249.002Zm8.499 0a.53.53 0 1 1 0-1.062l4.249-.003a.53.53 0 1 1 0 1.063l-4.249.002Zm12.748-.002h-4.25a.531.531 0 0 1 0-1.063h4.25a.532.532 0 0 1 0 1.063Zm8.498-.002h-4.249a.532.532 0 0 1 0-1.063h4.249a.531.531 0 0 1 0 1.063Zm8.499-.002h-4.249a.532.532 0 1 1 0-1.063h4.249a.531.531 0 0 1 0 1.063Zm12.748-.003a.53.53 0 1 1 0-1.062l4.249-.002a.53.53 0 1 1 0 1.062l-4.249.002Zm-4.249 0h-4.25a.531.531 0 0 1 0-1.062h4.25a.531.531 0 0 1 0 1.062Zm12.748-.002a.53.53 0 1 1 0-1.062l4.249-.002a.53.53 0 1 1 0 1.062l-4.249.002Zm12.748-.002h-4.25a.531.531 0 0 1 0-1.062h4.25a.531.531 0 0 1 0 1.062Zm8.498-.002h-4.249a.531.531 0 0 1 0-1.062h4.249a.531.531 0 0 1 0 1.062Zm8.499-.002h-4.249a.532.532 0 1 1 0-1.062h4.249a.531.531 0 0 1 0 1.062Zm12.748-.002a.53.53 0 1 1 0-1.063l4.249-.002a.53.53 0 0 1 .531.531.53.53 0 0 1-.531.532l-4.249.002Zm-4.249 0h-4.25a.531.531 0 0 1 0-1.063h4.25a.532.532 0 0 1 0 1.063Zm12.748-.002a.53.53 0 1 1 0-1.063l4.249-.002a.53.53 0 1 1 0 1.063l-4.249.002Zm8.498-.002a.53.53 0 1 1 0-1.063l4.25-.002a.53.53 0 1 1 0 1.062l-4.25.003Zm12.748-.003h-4.249a.531.531 0 0 1 0-1.062h4.249a.531.531 0 0 1 0 1.062Zm8.499-.002h-4.249a.532.532 0 1 1 0-1.062h4.249a.531.531 0 0 1 0 1.062Zm8.499-.002h-4.25a.531.531 0 0 1 0-1.062h4.25a.531.531 0 0 1 0 1.062Zm12.748-.002a.53.53 0 1 1 0-1.062l4.249-.002a.53.53 0 1 1 0 1.062l-4.249.002Zm-4.25 0h-4.249a.531.531 0 0 1 0-1.062h4.249a.531.531 0 0 1 0 1.062Zm12.748-.002a.53.53 0 1 1 0-1.062l4.25-.003a.53.53 0 1 1 0 1.063l-4.25.002Zm12.748-.002h-4.249a.531.531 0 0 1 0-1.063h4.249a.532.532 0 0 1 0 1.063Zm8.499-.002h-4.249a.532.532 0 1 1 0-1.063h4.249a.531.531 0 0 1 0 1.063Zm8.499-.002h-4.25a.532.532 0 0 1 0-1.063h4.25a.531.531 0 0 1 0 1.063Zm8.498-.003h-4.249a.531.531 0 0 1 0-1.062h4.249a.531.531 0 0 1 0 1.062Z"/>
  <path fill="#fff" d="m173.757 203.765 2.329 3.827-.13.087-6.242-2.477c-2.173-.478-4.349-.954-6.523-1.435 2.174-.48 4.35-.956 6.523-1.436l6.242-2.481.13.065-2.329 3.85Z"/>
  <path fill="#E86B31" d="M107.424 64.197v9.507c0 .5-.419.886-.901.886a.873.873 0 0 1-.884-.886v-7.929l-.644.372a.858.858 0 0 1-1.206-.323c-.275-.401-.13-.965.291-1.207l1.978-1.177c.017-.017.046-.017.063-.032.034 0 .049-.034.081-.049.032 0 .064-.014.096-.014.017-.017.046-.017.063-.017a.267.267 0 0 1 .113-.018h.179c.017.017.048.018.063.018.047 0 .064.017.096.031.017 0 .047 0 .064.017.049.034.063.05.097.05a.18.18 0 0 0 .064.048c.017.015.049.032.064.049.032.017.049.047.064.064a.227.227 0 0 1 .046.063l.064.064.017.034c0 .015.017.032.017.047.015.034.032.049.032.08.017.033.017.065.032.081 0 .032.017.064.017.081 0 .047 0 .079.034.113v.046Zm2.045 4.754c.015-1.48.386-2.819 1.094-3.851.673-1.03 1.721-1.79 2.989-1.79 1.239 0 2.301.757 2.975 1.79.69 1.03 1.077 2.369 1.077 3.852 0 1.466-.387 2.819-1.077 3.852-.674 1.015-1.736 1.789-2.975 1.789-1.27 0-2.316-.774-2.989-1.79-.708-1.032-1.079-2.385-1.094-3.852Zm6.353 0c0-1.16-.321-2.173-.772-2.868-.467-.675-.996-1-1.496-.983-.497-.017-1.043.308-1.527.983-.451.693-.771 1.709-.771 2.868 0 1.144.32 2.174.771 2.854.482.69 1.028.999 1.527.999.5 0 1.029-.308 1.496-.999.449-.68.772-1.71.772-2.854Zm8.344-4.754v9.507c0 .5-.419.886-.901.886a.873.873 0 0 1-.884-.886v-7.929l-.643.372a.856.856 0 0 1-1.207-.323c-.274-.401-.13-.965.291-1.207l1.978-1.177c.017-.017.047-.017.064-.032.034 0 .046-.034.08-.049.032 0 .064-.014.096-.014.017-.017.049-.017.064-.017a.262.262 0 0 1 .112-.018h.179c.017.017.046.018.063.018.047 0 .064.017.096.031.017 0 .049 0 .064.017.049.034.064.05.098.05a.167.167 0 0 0 .063.048c.017.015.049.032.064.049.032.017.047.047.064.064a.228.228 0 0 1 .047.063c.017.017.048.047.063.064l.017.034c0 .015.017.032.017.047.015.034.032.049.032.08.017.033.017.065.032.081 0 .032.017.064.017.081 0 .047 0 .079.034.113v.046Zm5.387 0v9.507c0 .5-.419.886-.901.886a.873.873 0 0 1-.884-.886v-7.929l-.644.372a.858.858 0 0 1-1.206-.323c-.275-.401-.13-.965.288-1.207l1.979-1.177c.017-.017.046-.017.063-.032.034 0 .049-.034.081-.049.032 0 .064-.014.096-.014.017-.017.046-.017.063-.017a.267.267 0 0 1 .113-.018h.178c.017.017.049.018.064.018.049 0 .064.017.096.031.017 0 .047 0 .064.017.048.034.063.05.097.05a.18.18 0 0 0 .064.048c.017.015.047.032.064.049.032.017.049.047.063.064a.277.277 0 0 1 .049.063l.064.064.017.034c0 .015.017.032.017.047.015.034.032.049.032.08.017.033.017.065.032.081 0 .032.017.064.017.081 0 .047 0 .079.034.113v.046Zm10.651 7.398a.888.888 0 0 1-.901.886h-.159v1.223c0 .5-.387.886-.886.886a.873.873 0 0 1-.884-.886v-1.223h-5.065a.796.796 0 0 1-.549-.194.865.865 0 0 1-.144-1.24l5.951-7.413c.017 0 .017-.015.034-.032.015-.017.032-.034.047-.064.047-.017.064-.034.081-.049.015-.015.046-.032.061-.049.034-.017.049-.032.098-.032.017-.034.032-.049.064-.049.017-.014.046-.014.095-.031.017 0 .049 0 .066-.018h.274a.14.14 0 0 0 .081.018c.017.017.064.017.096.031.017 0 .049.017.066.017.031.034.061.05.078.064.034.017.049.034.081.049 0 0 .017 0 .017.017.015 0 .049.017.049.034.034.032.046.049.063.064s.032.047.047.063c.017.017.034.032.064.081 0 .015.017.047.034.064.015.032.015.047.032.096 0 .017.017.048.017.063.017.034.017.05.017.098 0 .034.017.049.017.08v6.558h.159c.495 0 .899.404.899.889Zm-2.83-4.868-3.2 3.98h3.2v-3.98Zm4.919 2.224c.017-1.48.387-2.819 1.094-3.851.674-1.03 1.721-1.79 2.99-1.79 1.238 0 2.298.757 2.974 1.79.691 1.03 1.077 2.369 1.077 3.852 0 1.466-.386 2.819-1.077 3.852-.676 1.015-1.736 1.789-2.974 1.789-1.271 0-2.316-.774-2.99-1.79-.707-1.032-1.077-2.385-1.094-3.852Zm6.353 0c0-1.16-.321-2.173-.772-2.868-.467-.675-.998-1-1.495-.983-.497-.017-1.046.308-1.528.983-.45.693-.771 1.709-.771 2.868 0 1.144.321 2.174.771 2.854.482.69 1.028.999 1.528.999.497 0 1.028-.308 1.495-.999.449-.68.772-1.71.772-2.854Zm12.18 4.753c0 .5-.387.886-.886.886h-5.724a.863.863 0 0 1-.659-.29.89.89 0 0 1 .047-1.256l4.759-4.32c.468-.418.674-.967.674-1.547 0-.516-.176-1-.529-1.402a2.04 2.04 0 0 0-1.545-.675 2.11 2.11 0 0 0-1.4.53l-.497.453a.875.875 0 0 1-1.254-.064.893.893 0 0 1 .064-1.257l.497-.45a3.793 3.793 0 0 1 2.59-1.002c1.044 0 2.106.436 2.862 1.275.676.725.999 1.675.999 2.595 0 1.047-.434 2.11-1.273 2.868l-3.038 2.756h3.423a.886.886 0 0 1 .89.9Zm8.163-5.946a3.962 3.962 0 0 1 1.173 2.836c0 1.014-.4 2.046-1.173 2.82a3.925 3.925 0 0 1-2.815 1.177h-.032a3.886 3.886 0 0 1-2.798-1.177c-.37-.338-.37-.92 0-1.288.337-.355.932-.355 1.285 0a2.1 2.1 0 0 0 1.545.644c.548 0 1.111-.208 1.529-.644.417-.418.644-.984.644-1.532 0-.58-.21-1.126-.644-1.546-.418-.436-.966-.63-1.529-.63-.546 0-1.124.194-1.545.63a.913.913 0 0 1-1.285 0c-.064-.064-.113-.145-.177-.21 0-.035 0-.05-.017-.05a.12.12 0 0 0-.032-.078c0-.05-.017-.081-.017-.115 0-.017-.017-.017-.017-.032a.897.897 0 0 1 0-.274l.485-4.175a.977.977 0 0 1 .401-.644c.032-.017.047-.017.062-.034.017-.017.034-.017.049-.032a.898.898 0 0 1 .416-.097h4.745a.913.913 0 1 1 0 1.823h-3.956l-.194 1.593a4.177 4.177 0 0 1 1.077-.144 3.952 3.952 0 0 1 2.82 1.179Zm7.146-3.561v9.507c0 .5-.419.886-.901.886a.873.873 0 0 1-.884-.886v-7.929l-.644.372a.858.858 0 0 1-1.207-.323c-.274-.401-.129-.965.292-1.207l1.978-1.177c.017-.017.046-.017.063-.032.034 0 .049-.034.081-.049.032 0 .064-.014.096-.014.017-.017.046-.017.063-.017a.267.267 0 0 1 .113-.018h.178c.017.017.049.018.064.018.049 0 .064.017.096.031.017 0 .047 0 .064.017.051.034.063.05.097.05a.18.18 0 0 0 .064.048c.017.015.049.032.064.049.032.017.047.047.064.064a.276.276 0 0 1 .048.063l.064.064.017.034c0 .015.017.032.017.047.015.034.032.049.032.08.017.033.017.065.032.081 0 .032.017.064.017.081 0 .047 0 .079.034.113-.002.017-.002.03-.002.046Zm-72.053 24.079c.017-1.481.387-2.82 1.094-3.852.674-1.03 1.721-1.79 2.99-1.79 1.238 0 2.299.757 2.974 1.79.691 1.03 1.077 2.369 1.077 3.852 0 1.466-.386 2.82-1.077 3.852-.675 1.015-1.736 1.789-2.974 1.789-1.271 0-2.316-.774-2.99-1.79-.707-1.032-1.077-2.383-1.094-3.851Zm6.353 0c0-1.16-.321-2.174-.771-2.869-.468-.675-.999-1-1.496-.983-.497-.017-1.046.308-1.528.983-.45.693-.771 1.709-.771 2.869 0 1.143.321 2.173.771 2.853.482.69 1.028.999 1.528.999.497 0 1.028-.308 1.496-.999.448-.678.771-1.71.771-2.853Zm12.182 4.754c0 .5-.387.887-.886.887h-5.724a.87.87 0 0 1-.661-.291.89.89 0 0 1 .049-1.258l4.759-4.318c.468-.418.674-.966.674-1.546a2.09 2.09 0 0 0-.529-1.403 2.04 2.04 0 0 0-1.545-.675 2.11 2.11 0 0 0-1.4.53l-.497.453a.875.875 0 0 1-1.254-.063.893.893 0 0 1 .064-1.258l.497-.45a3.792 3.792 0 0 1 2.59-1.001c1.043 0 2.106.435 2.862 1.275.676.724.999 1.674.999 2.594 0 1.047-.434 2.11-1.273 2.868l-3.038 2.756h3.423c.503-.002.89.4.89.9Zm2.231-4.754c.015-1.481.386-2.82 1.094-3.852.673-1.03 1.719-1.79 2.989-1.79 1.239 0 2.301.757 2.975 1.79.69 1.03 1.077 2.369 1.077 3.852 0 1.466-.387 2.82-1.077 3.852-.674 1.015-1.736 1.789-2.975 1.789-1.27 0-2.316-.774-2.989-1.79-.71-1.032-1.079-2.383-1.094-3.851Zm6.35 0c0-1.16-.321-2.174-.771-2.869-.467-.675-.996-1-1.496-.983-.497-.017-1.043.308-1.527.983-.451.693-.772 1.709-.772 2.869 0 1.143.321 2.173.772 2.853.484.69 1.028.999 1.527.999.5 0 1.029-.308 1.496-.999.448-.678.771-1.71.771-2.853Zm8.339-4.756v9.508c0 .5-.418.886-.901.886a.873.873 0 0 1-.884-.886v-7.927l-.643.372a.858.858 0 0 1-1.207-.32.856.856 0 0 1 .291-1.21l1.978-1.177c.017-.017.047-.017.064-.032.034 0 .046-.034.08-.048.032 0 .064-.015.096-.015.017-.017.049-.017.064-.017.034-.017.08-.017.112-.017h.179c.017.017.047.017.064.017.046 0 .063.017.095.032.017 0 .047 0 .064.017.049.034.064.046.098.046a.185.185 0 0 0 .063.05c.017.014.047.031.064.046.032.017.047.049.064.064a.2.2 0 0 1 .047.063c.017.017.048.047.063.064l.017.034c0 .017.017.032.017.047.015.034.032.047.032.08.017.032.017.064.032.081 0 .032.017.064.017.081 0 .047 0 .079.034.113v.049Zm2.041 4.756c.017-1.481.387-2.82 1.094-3.852.674-1.03 1.721-1.79 2.99-1.79 1.238 0 2.299.757 2.974 1.79.691 1.03 1.077 2.369 1.077 3.852 0 1.466-.386 2.82-1.077 3.852-.675 1.015-1.736 1.789-2.974 1.789-1.271 0-2.316-.774-2.99-1.79-.707-1.032-1.077-2.383-1.094-3.851Zm6.353 0c0-1.16-.321-2.174-.771-2.869-.468-.675-.999-1-1.496-.983-.497-.017-1.045.308-1.528.983-.45.693-.771 1.709-.771 2.869 0 1.143.321 2.173.771 2.853.483.69 1.029.999 1.528.999.497 0 1.028-.308 1.496-.999.448-.678.771-1.71.771-2.853Zm8.347-4.756v9.508c0 .5-.418.886-.901.886a.873.873 0 0 1-.885-.886v-7.927l-.644.372a.86.86 0 0 1-1.205-.32.857.857 0 0 1 .291-1.21l1.978-1.177c.017-.017.047-.017.064-.032.032 0 .047-.034.081-.048.032 0 .063-.015.095-.015.017-.017.049-.017.064-.017.034-.017.081-.017.115-.017h.178c.015.017.047.017.064.017.049 0 .064.017.096.032.017 0 .048 0 .063.017.047.034.064.046.098.046.017.017.032.034.064.05.015.014.047.031.064.046.031.017.046.049.063.064.015.017.032.034.049.063l.064.064.017.034c0 .017.015.032.015.047.017.034.034.047.034.08.017.032.017.064.034.081 0 .032.015.064.015.081 0 .047 0 .079.034.113-.005.017-.005.032-.005.049Zm9.316 9.51c0 .5-.387.887-.886.887h-5.724a.87.87 0 0 1-.661-.291.891.891 0 0 1 .047-1.258l4.759-4.318c.468-.418.674-.966.674-1.546 0-.517-.177-1.001-.529-1.403a2.04 2.04 0 0 0-1.545-.675 2.11 2.11 0 0 0-1.4.53l-.497.453a.875.875 0 0 1-1.254-.063.892.892 0 0 1 .064-1.258l.497-.45a3.79 3.79 0 0 1 2.59-1.001 3.87 3.87 0 0 1 2.862 1.275c.676.724.998 1.674.998 2.594 0 1.047-.433 2.11-1.272 2.868l-3.039 2.756h3.423c.506-.002.893.4.893.9Zm2.242-6.495a3.902 3.902 0 0 1 3.909-3.898 3.887 3.887 0 0 1 3.876 3.497c0 .017 0 .017.015.034.017.306.034.612.034.918 0 1.081-.162 2.241-.563 3.304-.402 1.064-1.063 2.08-2.076 2.755a4.587 4.587 0 0 1-2.414.759.898.898 0 0 1-.933-.852c-.017-.482.37-.886.867-.935a2.959 2.959 0 0 0 1.513-.45 3.31 3.31 0 0 0 1.013-1.129c.081-.13.145-.274.211-.418a3.79 3.79 0 0 1-1.545.323 3.913 3.913 0 0 1-3.907-3.907Zm1.785 0c0 1.16.947 2.127 2.122 2.127 1.175 0 2.106-.966 2.106-2.127 0-1.177-.933-2.11-2.106-2.11a2.108 2.108 0 0 0-2.122 2.11Zm-56.933 23.708a.888.888 0 0 1-.901.886h-.161v1.224a.873.873 0 0 1-.884.886.873.873 0 0 1-.884-.886v-1.224h-5.065a.798.798 0 0 1-.549-.193.863.863 0 0 1-.142-1.241l5.949-7.413c.017 0 .017-.015.032-.032a.228.228 0 0 0 .049-.064c.047-.017.064-.034.079-.049.017-.015.048-.032.065-.046.032-.017.049-.032.096-.032.017-.034.034-.049.064-.049.017-.015.046-.015.097-.032.015 0 .049 0 .062-.017h.276a.143.143 0 0 0 .081.017c.017.017.064.017.098.032.015 0 .047.017.061.017.034.034.066.047.081.064.034.017.047.034.081.046 0 0 .017 0 .017.017.017 0 .047.017.047.034l.063.064c.017.017.034.049.047.064.017.017.034.032.064.08 0 .015.017.047.034.064.017.032.017.047.032.096 0 .017.017.049.017.064.017.034.017.048.017.097 0 .034.015.047.015.081v6.559h.161a.896.896 0 0 1 .901.886Zm-2.83-4.868-3.2 3.98h3.2v-3.98Zm4.915 2.223c.015-1.481.387-2.819 1.095-3.852.673-1.03 1.719-1.789 2.989-1.789 1.239 0 2.301.756 2.975 1.789.69 1.03 1.077 2.369 1.077 3.852 0 1.466-.387 2.819-1.077 3.852-.674 1.014-1.736 1.789-2.975 1.789-1.27 0-2.316-.773-2.989-1.789-.71-1.033-1.082-2.386-1.095-3.852Zm6.351 0c0-1.16-.321-2.174-.771-2.868-.468-.676-.997-1.001-1.496-.984-.497-.017-1.043.308-1.528.984-.45.692-.771 1.708-.771 2.868 0 1.143.321 2.174.771 2.853.483.691 1.029.999 1.528.999.499 0 1.028-.308 1.496-.999.448-.679.771-1.71.771-2.853Zm8.339-4.753v9.508a.897.897 0 0 1-.901.886.873.873 0 0 1-.884-.886v-7.927l-.644.371a.856.856 0 0 1-1.206-.323c-.275-.401-.13-.964.291-1.206l1.976-1.177c.017-.017.048-.017.063-.032.034 0 .047-.034.081-.049.032 0 .064-.015.096-.015.017-.017.049-.017.063-.017.034-.017.081-.017.113-.017h.178c.017.017.047.017.064.017.047 0 .064.017.096.032.017 0 .049 0 .064.017.048.034.063.047.097.047a.17.17 0 0 0 .064.048c.017.015.049.032.064.047.032.017.047.049.064.064a.225.225 0 0 1 .046.064l.064.063.017.034c0 .015.017.032.017.047.015.034.032.049.032.081.017.032.017.064.032.081 0 .031.017.063.017.08 0 .047 0 .079.034.113.002.017.002.032.002.049Zm2.041 4.753c.017-1.481.387-2.819 1.094-3.852.674-1.03 1.721-1.789 2.99-1.789 1.238 0 2.298.756 2.974 1.789.691 1.03 1.077 2.369 1.077 3.852 0 1.466-.386 2.819-1.077 3.852-.676 1.014-1.736 1.789-2.974 1.789-1.271 0-2.316-.773-2.99-1.789-.707-1.033-1.077-2.386-1.094-3.852Zm6.351 0c0-1.16-.321-2.174-.772-2.868-.467-.676-.998-1.001-1.495-.984-.498-.017-1.046.308-1.528.984-.451.692-.771 1.708-.771 2.868 0 1.143.32 2.174.771 2.853.482.691 1.028.999 1.528.999.497 0 1.028-.308 1.495-.999.451-.679.772-1.71.772-2.853Zm8.345-4.753v9.508a.897.897 0 0 1-.901.886.874.874 0 0 1-.886-.886v-7.927l-.643.371a.857.857 0 0 1-1.205-.323c-.272-.401-.13-.964.291-1.206l1.978-1.177c.017-.017.047-.017.064-.032.032 0 .047-.034.081-.049.031 0 .063-.015.095-.015.017-.017.049-.017.064-.017.034-.017.081-.017.115-.017h.178c.015.017.047.017.064.017.049 0 .064.017.095.032.017 0 .049 0 .064.017.047.034.064.047.098.047.017.017.032.034.064.048.015.015.046.032.063.047.032.017.047.049.064.064.015.017.032.034.047.064l.064.063.017.034c0 .015.014.032.014.047.017.034.034.049.034.081.017.032.017.064.034.081 0 .031.015.063.015.08 0 .047 0 .079.034.113-.002.017-.002.032-.002.049Zm2.046 4.753c.017-1.481.387-2.819 1.094-3.852.674-1.03 1.721-1.789 2.99-1.789 1.238 0 2.299.756 2.974 1.789.691 1.03 1.077 2.369 1.077 3.852 0 1.466-.386 2.819-1.077 3.852-.675 1.014-1.736 1.789-2.974 1.789-1.271 0-2.316-.773-2.99-1.789-.707-1.033-1.077-2.386-1.094-3.852Zm6.351 0c0-1.16-.321-2.174-.772-2.868-.467-.676-.998-1.001-1.495-.984-.497-.017-1.046.308-1.528.984-.45.692-.771 1.708-.771 2.868 0 1.143.321 2.174.771 2.853.482.691 1.028.999 1.528.999.497 0 1.028-.308 1.495-.999.451-.679.772-1.71.772-2.853Zm13.681 2.645a.887.887 0 0 1-.901.886h-.159v1.224a.874.874 0 0 1-.886.886.873.873 0 0 1-.884-.886v-1.224h-5.065a.795.795 0 0 1-.548-.193.864.864 0 0 1-.145-1.241l5.951-7.413c.017 0 .017-.015.034-.032.015-.017.032-.034.049-.064.047-.017.064-.034.081-.049.015-.015.047-.032.062-.046.034-.017.049-.032.097-.032.017-.034.032-.049.064-.049.017-.015.047-.015.096-.032.017 0 .049 0 .066-.017h.274a.137.137 0 0 0 .08.017c.017.017.064.017.096.032.017 0 .049.017.066.017.032.034.062.047.078.064.034.017.049.034.081.046 0 0 .017 0 .017.017.015 0 .049.017.049.034.034.032.047.047.064.064s.032.049.047.064c.014.015.034.032.063.08 0 .015.017.047.034.064.015.032.015.047.032.096 0 .017.017.049.017.064.017.034.017.048.017.097 0 .034.017.047.017.081v6.559h.16a.896.896 0 0 1 .896.886Zm-2.83-4.868-3.2 3.98h3.2v-3.98Zm7.936-2.53v9.508a.897.897 0 0 1-.901.886.874.874 0 0 1-.886-.886v-7.927l-.644.371a.803.803 0 0 1-.448.13.857.857 0 0 1-.756-.453c-.272-.401-.13-.964.291-1.206l1.978-1.177c.017-.017.046-.017.063-.032.032 0 .047-.034.081-.049.032 0 .064-.015.096-.015.017-.017.049-.017.063-.017.034-.017.081-.017.115-.017h.177c.014.017.046.017.063.017.049 0 .064.017.096.032.017 0 .049 0 .064.017.049.034.063.047.097.047.017.017.032.034.064.048.015.015.049.032.064.047.032.017.047.049.064.064.014.017.031.034.048.064l.064.063.017.034c0 .015.015.032.015.047.017.034.034.049.034.081.017.032.017.064.034.081 0 .031.015.063.015.08 0 .047 0 .079.034.113-.002.017-.002.032-.002.049Z"/>
  <path fill="#fff" d="M248.968 94.901c2.101-5.732 7.447-9.816 13.73-9.816V30.968l-9.891-10.56h-45.093a3.974 3.974 0 0 0-3.976 3.976v73.373a3.974 3.974 0 0 0 3.976 3.977h32.53c1.398-3.716 4.723-6.401 8.724-6.833Z"/>
  <path fill="#909091" d="m211.332 52.118 6.92-.002 18.527-.006 18.317-.005-43.764.013Z"/>
  <path fill="#808286" d="M211.332 53.18a1.062 1.062 0 0 1 0-2.124l43.764-.013a1.063 1.063 0 0 1 0 2.125l-43.764.012Z"/>
  <path fill="#909091" d="m211.332 60.374 8.892-.004 15.767-.007h4.075l-28.734.01Z"/>
  <path fill="#808286" d="M211.332 61.436a1.062 1.062 0 0 1 0-2.125l28.732-.01a1.063 1.063 0 0 1 0 2.124l-28.732.011Z"/>
  <path fill="#909091" d="m211.332 76.888 17.167-.007 26.597-.006-43.764.013Z"/>
  <path fill="#808286" d="M211.332 77.95a1.062 1.062 0 0 1 0-2.125l43.764-.013a1.063 1.063 0 0 1 0 2.125l-43.764.013Zm0 8.256a1.062 1.062 0 0 1 0-2.125l30.177-.013a1.063 1.063 0 0 1 0 2.125l-30.177.013Z"/>
  <path fill="url(#a)" d="M253.75 45.407h-40.609a3.975 3.975 0 0 1-3.973-3.975V36.67a3.976 3.976 0 0 1 3.973-3.978h40.609a3.976 3.976 0 0 1 3.973 3.978v4.763a3.975 3.975 0 0 1-3.973 3.975Z"/>
  <path fill="url(#b)" d="M279.539 103.246a1.064 1.064 0 0 1-.55-1.972l2.956-1.791c3.573-1.776 6.144-2.36 8.177-1.885a1.064 1.064 0 0 1-.484 2.07c-1.475-.349-3.722.216-6.669 1.676l-2.877 1.749a1.092 1.092 0 0 1-.553.153Z"/>
  <path fill="url(#c)" d="M289.882 112.803c-.355 0-.701-.179-.903-.502-.803-1.294-2.79-2.479-5.904-3.527l-3.268-.794a1.064 1.064 0 0 1 .506-2.066l3.352.821c3.784 1.266 6.019 2.67 7.122 4.444a1.064 1.064 0 0 1-.905 1.624Z"/>
  <path fill="url(#d)" d="M277.01 96.97a1.061 1.061 0 0 1-.826-1.727l2.163-2.694c2.757-2.892 4.976-4.322 7.043-4.562a1.05 1.05 0 0 1 1.181.93 1.065 1.065 0 0 1-.932 1.18c-1.509.176-3.425 1.472-5.699 3.852l-2.101 2.624a1.055 1.055 0 0 1-.829.397Z"/>
  <path fill="url(#e)" d="M253.072 116.472c-.168 0-.336-.041-.495-.124a1.059 1.059 0 0 1-.446-1.434c.971-1.844 3.1-3.403 6.703-4.906l3.374-1.085a1.06 1.06 0 0 1 1.336.686 1.06 1.06 0 0 1-.688 1.336l-3.289 1.054c-2.951 1.235-4.848 2.558-5.556 3.903-.189.364-.557.57-.939.57Z"/>
  <path fill="url(#f)" d="M262.962 125.07a1.06 1.06 0 0 1-1.013-.75c-.608-1.971-.189-4.655 1.279-8.207l1.621-3.153c.27-.523.909-.729 1.43-.457.523.27.729.909.459 1.43l-1.583 3.072c-1.217 2.953-1.625 5.231-1.177 6.688a1.064 1.064 0 0 1-1.016 1.377Z"/>
  <path fill="url(#g)" d="M248.699 106.879a1.06 1.06 0 0 1-.713-1.848c1.542-1.4 4.075-2.135 7.973-2.318l3.542.132a1.066 1.066 0 0 1 1.024 1.102c-.023.585-.497 1.067-1.102 1.02l-3.453-.129c-3.198.153-5.433.747-6.557 1.767a1.06 1.06 0 0 1-.714.274Z"/>
  <path fill="url(#h)" d="M279.526 99.407c3.66 8.054 2.352 16.525-2.92 18.918-5.269 2.394-12.51-2.195-16.164-10.25-3.661-8.054-2.348-16.525 2.921-18.918 5.269-2.392 12.506 2.197 16.163 10.25Z"/>
  <path fill="#004B6C" d="M260.647 108.485c.898-4.861 3.314-8.707 7.124-10.436 3.51-1.594 7.6-1.127 11.549.932-3.718-7.782-10.78-12.174-15.956-9.824-5.267 2.394-6.578 10.863-2.919 18.92.066.14.136.268.202.408Z"/>
  <path fill="#CB5729" d="M264.498 95.032a1.67 1.67 0 0 1-.831 2.214 1.672 1.672 0 1 1-1.385-3.043 1.676 1.676 0 0 1 2.216.829Zm2.508-1.144a1.675 1.675 0 0 0 2.216.83 1.674 1.674 0 0 0-1.389-3.045 1.675 1.675 0 0 0-.827 2.215Z"/>
  <path fill="#909091" d="M412.154 246.472h-47.002l8.287-26.863h30.682l8.033 26.863Z"/>
  <path fill="#fff" d="M486.065 215.778c0 4.573-3.507 8.278-7.846 8.278H297.758c-4.334 0-7.844-3.705-7.844-8.278V87.465c0-4.576 3.51-8.281 7.844-8.281h180.461c4.339 0 7.846 3.705 7.846 8.282v128.312Z"/>
  <path fill="url(#i)" d="M476.269 199.942c0 3.739-3.153 6.769-7.062 6.769H306.769c-3.896 0-7.062-3.032-7.062-6.769V94.926c0-3.744 3.166-6.774 7.062-6.774h162.438c3.909 0 7.062 3.032 7.062 6.774v105.016Z"/>
  <path fill="#909091" d="M393.995 216.596a5.206 5.206 0 1 1-10.413 0 5.208 5.208 0 0 1 5.21-5.207 5.205 5.205 0 0 1 5.203 5.207Z"/>
  <path fill="#fff" d="M438.244 253.946c.026-.304.081-.599.081-.914 0-5.938-3.937-10.753-8.796-10.753h-81.473c-4.859 0-8.802 4.815-8.802 10.753 0 .313.055.61.079.914h98.911Zm-131.047-69.735a1.105 1.105 0 0 1 1.551-.146c.933.762 2.547 1.655 4.054 1.636 1.062 0 2.016-.319 2.655-.786.636-.468.914-.999.914-1.53 0-.276-.064-.468-.191-.678-.13-.215-.319-.425-.64-.637-.614-.404-1.655-.765-2.908-.999h-.043c-1.001-.193-1.933-.446-2.739-.831-.809-.382-1.508-.913-1.975-1.655a3.257 3.257 0 0 1-.489-1.74c0-1.275.722-2.377 1.7-3.1.998-.722 2.292-1.126 3.673-1.126 2.038 0 3.546.999 4.628 1.7.488.34.639 1.018.299 1.508a1.07 1.07 0 0 1-1.506.317c-1.084-.722-2.125-1.36-3.419-1.36-.956 0-1.806.298-2.377.723-.576.424-.81.892-.81 1.338 0 .255.045.425.149.593.108.17.3.361.574.554.552.383 1.508.723 2.656.933h.042c1.084.213 2.08.487 2.93.893.871.422 1.636.975 2.125 1.761.318.51.51 1.147.51 1.806 0 1.36-.765 2.526-1.826 3.291-1.041.765-2.424 1.211-3.93 1.211-2.293-.021-4.224-1.169-5.437-2.125a1.13 1.13 0 0 1-.17-1.551Zm24.334-9.171-4.353 5.969v5.732c0 .659-.51 1.169-1.171 1.169-.614 0-1.166-.51-1.166-1.169v-5.732l-4.311-5.969a1.12 1.12 0 0 1 .231-1.614c.531-.383 1.254-.276 1.615.255l3.631 4.969 3.631-4.969c.406-.531 1.126-.638 1.636-.255.51.382.618 1.102.257 1.614Zm1.274 9.171a1.105 1.105 0 0 1 1.551-.146c.935.762 2.547 1.655 4.054 1.636 1.062 0 2.018-.319 2.656-.786.637-.468.913-.999.913-1.53a1.19 1.19 0 0 0-.191-.678c-.13-.215-.319-.425-.638-.637-.616-.404-1.657-.765-2.91-.999h-.043c-.998-.193-1.931-.446-2.738-.831-.808-.382-1.507-.913-1.976-1.655a3.256 3.256 0 0 1-.487-1.74c0-1.275.722-2.377 1.7-3.1.996-.722 2.292-1.126 3.671-1.126 2.038 0 3.548.999 4.63 1.7.486.34.637 1.018.297 1.508a1.07 1.07 0 0 1-1.506.317c-1.084-.722-2.125-1.36-3.419-1.36-.954 0-1.806.298-2.377.723-.574.424-.808.892-.808 1.338 0 .255.045.425.147.593.108.17.3.361.576.554.552.383 1.508.723 2.653.933h.043c1.084.213 2.082.487 2.932.893.869.422 1.636.975 2.123 1.761.318.51.51 1.147.51 1.806 0 1.36-.763 2.526-1.826 3.291-1.041.765-2.422 1.211-3.93 1.211-2.291-.021-4.224-1.169-5.437-2.125a1.135 1.135 0 0 1-.17-1.551Zm23.406-8.812h-3.378v11.34a1.15 1.15 0 0 1-1.166 1.168c-.64 0-1.171-.51-1.171-1.168v-11.34h-3.353c-.658 0-1.17-.552-1.17-1.187 0-.659.51-1.169 1.17-1.169h9.068c.636 0 1.167.51 1.167 1.169 0 .635-.531 1.187-1.167 1.187Zm4.676 11.336v-12.527c0-.659.51-1.169 1.17-1.169h6.944c.614 0 1.168.51 1.168 1.169 0 .656-.554 1.187-1.168 1.187h-5.756v3.886h4.948c.638 0 1.169.553 1.169 1.169 0 .659-.531 1.19-1.169 1.19h-4.948v3.907h5.756c.614 0 1.168.531 1.168 1.188 0 .637-.554 1.168-1.168 1.168h-6.88c-.042 0-.042-.021-.042-.021l-.022.021c-.66 0-1.17-.531-1.17-1.168Zm25.376-12.527v12.527c0 .637-.553 1.168-1.19 1.168a1.164 1.164 0 0 1-1.169-1.168v-8.941l-3.057 4.247a1.16 1.16 0 0 1-.956.489h-.043c-.382 0-.743-.17-.975-.489l-3.038-4.247v8.941a1.178 1.178 0 0 1-2.358 0v-12.527c0-.638.531-1.169 1.168-1.169h.064c.338 0 .722.17.933.487l4.223 5.862 4.226-5.862c.234-.317.576-.487.956-.487h.022c.641.021 1.194.531 1.194 1.169Zm11.514 12.527v-12.527c0-.659.51-1.169 1.169-1.169h6.943c.614 0 1.167.51 1.167 1.169 0 .656-.553 1.187-1.167 1.187h-5.755v3.886h4.946c.639 0 1.171.553 1.171 1.169 0 .659-.532 1.19-1.171 1.19h-4.946v3.907h5.755c.614 0 1.167.531 1.167 1.188 0 .637-.553 1.168-1.167 1.168h-6.879c-.043 0-.043-.021-.043-.021l-.021.021a1.165 1.165 0 0 1-1.169-1.168Zm22.848-.593a1.17 1.17 0 0 1-.744 1.485 1.849 1.849 0 0 1-.467.064h-.022a1.56 1.56 0 0 1-.828-.234c-.279-.17-.51-.446-.68-.744-.298-.616-.446-1.378-.446-2.547-.021-.406-.106-.68-.255-.914-.128-.233-.383-.446-.635-.616a4.126 4.126 0 0 0-1.19-.51h-2.507v4.609c0 .637-.532 1.168-1.188 1.168a1.167 1.167 0 0 1-1.171-1.168v-12.527c0-.659.51-1.169 1.171-1.169h3.801a4.541 4.541 0 0 1 4.545 4.564c0 1.402-.64 2.632-1.656 3.484.275.213.529.468.744.784a4.04 4.04 0 0 1 .701 2.295 5.446 5.446 0 0 0 .083 1.253c.342.107.618.362.744.723Zm-2.971-8.537a2.19 2.19 0 0 0-2.186-2.208h-2.613v4.375h2.613c1.209-.002 2.186-.979 2.186-2.167Zm16.242 8.537c.213.614-.129 1.275-.743 1.485-.087.021-.255.064-.47.064h-.021c-.213 0-.531-.045-.829-.234-.276-.17-.508-.446-.677-.744-.3-.616-.449-1.378-.449-2.547-.021-.406-.104-.68-.253-.914-.127-.233-.382-.446-.637-.616a4.07 4.07 0 0 0-1.19-.51h-2.507v4.609c0 .637-.531 1.168-1.19 1.168a1.165 1.165 0 0 1-1.168-1.168v-12.527c0-.659.51-1.169 1.168-1.169h3.801a4.54 4.54 0 0 1 4.545 4.564c0 1.402-.637 2.632-1.655 3.484.276.213.529.468.743.784.425.616.699 1.403.699 2.295-.021.637.043 1.039.088 1.253.344.107.618.362.745.723Zm-2.972-8.537a2.19 2.19 0 0 0-2.186-2.208h-2.612v4.375h2.612c1.209-.002 2.186-.979 2.186-2.167Zm17.775-2.718c1.317 1.402 2.146 3.269 2.146 5.373a7.755 7.755 0 0 1-2.146 5.371c-1.254 1.379-3.121 2.271-5.076 2.271-2.038 0-3.907-.892-5.201-2.271-1.318-1.379-2.102-3.27-2.102-5.371 0-2.104.784-3.971 2.102-5.373a7.084 7.084 0 0 1 5.201-2.272c1.957 0 3.822.871 5.076 2.272Zm-.277 5.375a5.503 5.503 0 0 0-1.442-3.716c-.893-.956-2.082-1.509-3.357-1.509-1.36 0-2.548.553-3.44 1.509-.892.933-1.445 2.271-1.445 3.716 0 1.445.553 2.781 1.445 3.693.892.956 2.082 1.529 3.44 1.529 1.275 0 2.464-.573 3.357-1.529.871-.914 1.442-2.25 1.442-3.693Zm16.439 5.88c.213.614-.129 1.275-.743 1.485-.087.021-.255.064-.47.064h-.021c-.213 0-.531-.045-.829-.234-.276-.17-.508-.446-.678-.744-.299-.616-.448-1.378-.448-2.547-.021-.406-.104-.68-.253-.914-.127-.233-.382-.446-.637-.616a4.07 4.07 0 0 0-1.19-.51h-2.507v4.609c0 .637-.531 1.168-1.19 1.168a1.165 1.165 0 0 1-1.168-1.168v-12.527c0-.659.51-1.169 1.168-1.169h3.801a4.541 4.541 0 0 1 4.545 4.564c0 1.402-.638 2.632-1.655 3.484.276.213.529.468.743.784.425.616.699 1.403.699 2.295a5.371 5.371 0 0 0 .087 1.253c.343.107.617.362.746.723Zm-2.974-8.537a2.19 2.19 0 0 0-2.187-2.208h-2.611v4.375h2.611c1.209-.002 2.187-.979 2.187-2.167Z"/>
  <path fill="#5E1F72" d="M449.036 111.767a8.64 8.64 0 0 1-8.643 8.643 8.64 8.64 0 0 1-8.643-8.643c0-4.783 3.865-8.652 8.643-8.652 4.776 0 8.643 3.869 8.643 8.652Z"/>
  <path fill="#E86B31" d="M438.891 117.51s-26.068-.057-39.423-.057c-8.892 0-16.443-2.887-21.838-8.354-5.42-5.492-8.343-13.326-8.228-22.067.182-13.855 3.386-30.007 26.753-31.925.096-.009.194-.013.289-.017 10.214-.36 22.951-.21 23.486-.206a6.17 6.17 0 0 1 6.092 6.24c-.038 3.404-2.883 6.187-6.242 6.091-.13-.006-12.861-.144-22.756.191-10.194.865-15.087 4.086-15.293 19.787-.068 5.418 1.589 10.122 4.674 13.244 3.068 3.11 7.469 4.687 13.063 4.687 13.362 0 39.449.055 39.449.055s5.211.176 5.211 5.715c.002 6.765-5.237 6.616-5.237 6.616Z"/>
  <path fill="#E86B31" d="M421.632 59.7a3.427 3.427 0 1 1-6.855 0 3.422 3.422 0 0 1 3.427-3.419 3.423 3.423 0 0 1 3.428 3.419Zm65.109 46.315a5.713 5.713 0 0 0-1.201.047v10.949c.138.023.261.063.406.072 11.556.826 14.424 4.183 14.62 17.076.049 3.24-.57 7.789-3.784 11.052-2.862 2.905-7.318 4.381-13.245 4.381-13.358 0-39.447.049-39.447.049s-4.719.304-4.719 5.684c.004 5.711 4.74 5.411 4.74 5.411s26.074-.049 39.426-.049c8.881 0 16.196-2.658 21.146-7.687 4.679-4.748 7.092-11.324 6.976-18.998-.206-13.626-3.37-26.44-24.918-27.987Z"/>
  <path fill="#fff" d="M447.379 140.17a4.25 4.25 0 0 1-4.249 4.249H334.128a4.248 4.248 0 0 1-4.249-4.249v-5.618a4.249 4.249 0 0 1 4.249-4.249H443.13a4.25 4.25 0 0 1 4.249 4.249v5.618Z"/>
  <path fill="url(#j)" d="M341.923 132.467h-9.786v9.786h9.786v-9.786Z"/>
  <path fill="url(#k)" d="M353.962 132.467h-9.786v9.786h9.786v-9.786Z"/>
  <path fill="url(#l)" d="M365.993 132.467h-9.786v9.786h9.786v-9.786Z"/>
  <path fill="url(#m)" d="M378.028 132.467h-9.786v9.786h9.786v-9.786Z"/>
  <path fill="#004B6C" d="M329.688 20.629 303.137 66.64c-1.364 2.356.339 5.305 3.061 5.305h53.106c2.722 0 4.422-2.95 3.062-5.305L335.81 20.629c-1.358-2.354-4.757-2.354-6.122 0Z"/>
  <path fill="#fff" d="m332.753 25.184 24.088 41.739h-48.173l24.085-41.74Z"/>
  <path fill="url(#n)" d="M334.92 43.565v-4.043h-4.262v4.043c-5.097.994-8.947 5.486-8.947 10.874 0 6.117 4.959 11.08 11.078 11.08 6.123 0 11.08-4.963 11.08-11.08 0-5.388-3.848-9.882-8.949-10.874Z"/>
  <path fill="#FFC200" d="m364.334 22.757-.478 4.14c-.06.523.291 1.006.805 1.105l4.094.803c.899.177 1.114 1.363.342 1.847l-3.539 2.21c-.446.28-.604.852-.361 1.319l1.922 3.703c.421.81-.367 1.72-1.228 1.413l-3.932-1.385a1.003 1.003 0 0 0-1.256.537l-1.696 3.81c-.371.84-1.57.786-1.869-.074l-1.366-3.944a1.016 1.016 0 0 0-1.203-.646l-4.039 1.056c-.884.228-1.593-.74-1.107-1.513l2.229-3.526a1.008 1.008 0 0 0-.245-1.345l-3.339-2.501c-.729-.548-.415-1.706.495-1.806l4.143-.457c.52-.057.913-.508.896-1.032l-.127-4.171c-.028-.912 1.075-1.388 1.719-.737l2.944 2.955c.37.374.963.397 1.367.057l3.176-2.7c.699-.597 1.757-.028 1.653.882Z"/>
  <path fill="url(#o)" d="M332.765 44.931a1.063 1.063 0 0 1-1.06-.998c-.206-3.449.542-6.017 2.28-7.853 3.157-3.334 8.703-3.306 14.057-3.276 4.644.019 9.072.048 10.258-2.344a1.064 1.064 0 0 1 1.906.943c-1.779 3.578-6.85 3.542-12.173 3.525-4.91-.023-9.981-.05-12.505 2.614-1.314 1.385-1.87 3.435-1.702 6.265a1.06 1.06 0 0 1-.999 1.124c-.021-.002-.042 0-.062 0Z"/>
  <path fill="#fff" d="M338.917 50.34a2.137 2.137 0 0 1-4.272 0c0-1.179.953-2.133 2.135-2.133 1.179 0 2.137.954 2.137 2.133Z"/>
  <path fill="#909091" d="M334.804 234.396h-20.046v21.791h20.046v-21.791Z"/>
  <path fill="#fff" d="m330.368 239.754-18.446-.006a1.063 1.063 0 0 1 0-2.125l18.446.006a1.063 1.063 0 0 1 0 2.125Zm-.003 4.469-18.455-.005a1.063 1.063 0 0 1 0-2.124l18.455.004a1.063 1.063 0 0 1 0 2.125Zm-.004 4.482-18.451-.002a1.063 1.063 0 0 1 0-2.125l18.451.002a1.063 1.063 0 0 1 0 2.125Zm-.006 4.471-18.453-.003a1.062 1.062 0 0 1 0-2.124l18.453.002a1.063 1.063 0 0 1 0 2.125Z"/>
  <path fill="url(#p)" d="M267.461 261.184c-1.808 0-3.27-1.558-3.27-3.487l.015-24.839c.002-1.925 1.466-3.483 3.277-3.487l46.627.013c1.811 0 3.272 1.561 3.272 3.486l-.017 24.842c0 1.925-1.468 3.487-3.276 3.484l-43.105-.012h-3.523Z"/>
  <path fill="#fff" d="m290.212 232.869-.004.004c-5.603.049-5.639 3.098-5.289 6.653.459 3.688 2.274 6.629 5.282 6.663v-.005a4.194 4.194 0 0 0 2.707-1.009c1.405-1.168 2.278-3.244 2.58-5.641.367-3.561.333-6.607-5.276-6.665Z"/>
  <path fill="#004B6C" d="M286.166 239.297c.369 1.437 1.155 1.252 2.052.935.918-.357 1.557-1.009 1.375-1.789l-.002-.004c-.202-.763-1.073-1.052-2.049-.933-.941.134-1.723.338-1.376 1.791Zm8.088.001c-.376 1.442-1.162 1.257-2.05.934-.922-.356-1.562-1.015-1.375-1.793.207-.767 1.082-1.049 2.055-.93.939.136 1.717.34 1.37 1.789Z"/>
  <path fill="#fff" d="m296.627 246.456-13.822 6.265.822 1.813 13.822-6.265-.822-1.813Z"/>
  <path fill="#fff" d="M284.063 252.152c.436.964-.019 2.171-.979 2.605a1.916 1.916 0 1 1-1.583-3.491c1.349-.629 1.731 1.158 2.562.886Z"/>
  <path fill="#fff" d="M284.877 253.946c-.436-.963-1.64-1.415-2.605-.978a1.915 1.915 0 1 0 1.577 3.489c1.37-.595.276-2.067 1.028-2.511Zm11.158-7.218c.436.963 1.64 1.415 2.603.978.96-.44 1.394-1.57.954-2.533a1.907 1.907 0 0 0-2.535-.956c-1.368.599-.274 2.067-1.022 2.511Z"/>
  <path fill="#fff" d="M296.851 248.523c-.438-.964.017-2.167.979-2.604a1.917 1.917 0 0 1 1.581 3.493c-1.345.628-1.734-1.161-2.56-.889Zm-12.626-2.096-.827 1.813 13.808 6.297.827-1.813-13.808-6.297Z"/>
  <path fill="#fff" d="M296.843 252.162c-.444.965.011 2.167.971 2.607a1.914 1.914 0 0 0 2.537-.947 1.918 1.918 0 0 0-.95-2.541c-1.341-.631-1.734 1.153-2.558.881Z"/>
  <path fill="#fff" d="M296.027 253.957c.442-.968 1.641-1.412 2.607-.977a1.922 1.922 0 0 1 .95 2.541 1.915 1.915 0 0 1-2.539.95c-1.358-.603-.274-2.067-1.018-2.514Zm-11.139-7.249c-.442.958-1.645 1.411-2.605.973a1.914 1.914 0 0 1-.95-2.541 1.92 1.92 0 0 1 2.537-.948c1.362.61.268 2.072 1.018 2.516Z"/>
  <path fill="#fff" d="M284.068 248.505c.437-.966-.015-2.169-.973-2.609a1.915 1.915 0 0 0-2.537.952 1.916 1.916 0 0 0 .943 2.539c1.349.631 1.74-1.156 2.567-.882Z"/>
  <path fill="url(#q)" d="M556.14 39.803c0 12.87-10.432 23.304-23.303 23.304-12.869 0-23.306-10.434-23.306-23.303 0-12.874 10.437-23.306 23.306-23.306 12.871 0 23.303 10.432 23.303 23.305Z"/>
  <path fill="#fff" d="M543.069 51.514c-.017 1.483-1.483 2.668-3.282 2.651l-14.108-.159c-1.798-.019-3.24-1.234-3.23-2.717l.153-13.602c.013-1.481 1.483-2.667 3.285-2.648l14.106.157c1.799.02 3.24 1.235 3.225 2.72l-.149 13.598Z"/>
  <path fill="#004B6C" d="M532.837 50.959h.002a1.662 1.662 0 0 0 1.659-1.98l-.497-2.605c.916-.58 1.338-1.874.476-3.11a.707.707 0 0 0-.147-.152c-1.64-1.192-3.44-.053-3.459 1.52a2.032 2.032 0 0 0 .914 1.718l-.559 2.595a1.658 1.658 0 0 0 1.611 2.014Z"/>
  <path fill="#fff" d="M541.581 34.46c.009-.163.189-3.945-.051-6.548-.13-3.427-2.932-5.31-8.318-5.59a1.408 1.408 0 0 0-.652.126c-4.774.337-7.292 2.137-7.49 5.356-.297 2.584-.212 4.449-.208 4.528l2.904-.139c0-.017-.076-1.742.2-4.094l.007-.091c.04-.693.138-2.537 5.624-2.703l-.003-.036c4.94.376 5.006 2.116 5.03 2.786l.006.093c.225 2.388.045 6.132.042 6.17a1.456 1.456 0 0 0 2.909.143ZM18.17 161.231a.532.532 0 0 1 0-1.063l4.25-.002a.532.532 0 0 1 0 1.063l-4.25.002Zm-4.249 0h-4.25a.531.531 0 0 1 0-1.063h4.25a.532.532 0 0 1 0 1.063Zm21.247-.002a.53.53 0 1 1 0-1.063l4.25-.002a.53.53 0 1 1 0 1.062l-4.25.003Zm-4.25 0H26.67a.532.532 0 0 1 0-1.063h4.25a.531.531 0 0 1 0 1.063Zm21.247-.003a.531.531 0 0 1 0-1.062l4.25-.002a.53.53 0 1 1 0 1.062l-4.25.002Zm-4.25 0h-4.248a.53.53 0 1 1 0-1.062h4.249a.531.531 0 0 1 0 1.062Zm25.497-.002h-4.25a.531.531 0 0 1 0-1.062h4.25a.531.531 0 0 1 0 1.062Zm-8.499 0h-4.25a.531.531 0 0 1 0-1.062h4.25a.531.531 0 0 1 0 1.062Zm25.496-.002h-4.25a.531.531 0 0 1 0-1.062h4.25a.531.531 0 0 1 0 1.062Zm-8.499 0h-4.249a.531.531 0 0 1 0-1.062h4.25a.531.531 0 0 1 0 1.062Zm25.496-.002h-4.249a.531.531 0 0 1 0-1.062h4.249a.532.532 0 1 1 0 1.062Zm-8.498 0h-4.25a.531.531 0 0 1 0-1.062h4.25a.531.531 0 0 1 0 1.062Zm29.743-.002a.53.53 0 1 1 0-1.062l4.249-.002a.53.53 0 1 1 0 1.062l-4.249.002Zm-4.247 0h-4.25a.531.531 0 0 1 0-1.062h4.25a.531.531 0 0 1 0 1.062Zm-8.499 0h-4.249a.531.531 0 0 1 0-1.062h4.249a.531.531 0 0 1 0 1.062Zm29.743-.002a.53.53 0 1 1 0-1.062l4.25-.003a.53.53 0 1 1 0 1.063l-4.25.002Zm-4.249 0h-4.249a.53.53 0 1 1 0-1.062h4.249a.53.53 0 1 1 0 1.062Zm21.247-.002a.53.53 0 0 1-.531-.531.53.53 0 0 1 .531-.532l4.249-.002a.53.53 0 1 1 0 1.063l-4.249.002Zm-4.25 0h-4.249a.531.531 0 0 1 0-1.063h4.249a.532.532 0 1 1 0 1.063Zm25.496-.002h-4.249a.532.532 0 0 1 0-1.063h4.249a.532.532 0 1 1 0 1.063Zm-8.498 0h-4.25a.532.532 0 0 1 0-1.063h4.25a.531.531 0 0 1 0 1.063Zm16.997-.003h-4.249a.53.53 0 1 1 0-1.062h4.249a.531.531 0 0 1 0 1.062Zm1.753-2.498a.531.531 0 0 1-.531-.531v-4.25a.531.531 0 0 1 1.062 0v4.25c0 .293-.24.531-.531.531Zm0-8.499a.531.531 0 0 1-.531-.531v-4.249a.53.53 0 1 1 1.062 0v4.249c0 .293-.24.531-.531.531Zm0-8.498a.532.532 0 0 1-.531-.532v-4.249a.531.531 0 0 1 1.062 0v4.249c0 .294-.24.532-.531.532Zm0-8.561c-.293 0-.531-.176-.531-.469 0-.141.055-.338.155-.438.1-.1.234-.217.376-.217h4.126a.531.531 0 0 1 0 1.063h-3.903a.446.446 0 0 1-.223.061Zm89.113-.046h-4.25a.532.532 0 0 1 0-1.063h4.25a.531.531 0 0 1 0 1.063Zm-8.499-.003-4.249-.002a.53.53 0 1 1 0-1.062l4.249.002a.531.531 0 0 1 0 1.062Zm-8.499-.002h-4.249a.531.531 0 0 1 0-1.062h4.249a.532.532 0 1 1 0 1.062Zm-8.498 0-4.25-.002a.531.531 0 0 1 0-1.062l4.25.002a.531.531 0 0 1 0 1.062Zm-8.499-.002-4.249-.002a.53.53 0 1 1 0-1.062l4.249.002a.531.531 0 0 1 0 1.062Zm-8.499 0h-4.249a.531.531 0 0 1 0-1.062h4.249a.532.532 0 1 1 0 1.062Zm-8.498-.002-4.25-.002a.531.531 0 0 1 0-1.062l4.25.002a.531.531 0 0 1 0 1.062Zm-8.499 0-4.249-.002a.53.53 0 1 1 0-1.062l4.249.002a.531.531 0 0 1 0 1.062Zm-8.499-.004h-4.249a.531.531 0 0 1 0-1.063h4.249a.532.532 0 1 1 0 1.063Zm-8.498 0-4.25-.002a.532.532 0 0 1 0-1.063l4.25.002a.532.532 0 0 1 0 1.063Z"/>
  <path fill="#fff" d="m11.199 160.699 2.328 3.826-.13.087-6.241-2.477-6.523-1.434c2.173-.478 4.349-.956 6.523-1.436l6.24-2.48.13.066-2.327 3.848Zm246.5 86.081-4.249-.004a.53.53 0 1 1 0-1.063l4.249.005a.531.531 0 0 1 0 1.062Zm-8.499-.006-4.249-.005a.53.53 0 1 1 0-1.062l4.249.004a.532.532 0 0 1 0 1.063Zm-8.498-.009-4.25-.002a.53.53 0 1 1 0-1.062l4.25.002a.53.53 0 1 1 0 1.062Zm-8.499-.004-4.249-.004a.53.53 0 1 1 0-1.063l4.249.004a.53.53 0 1 1 0 1.063Zm-8.499-.007-4.249-.004a.53.53 0 1 1 0-1.062l4.249.004a.53.53 0 0 1 .531.531c0 .293-.24.531-.531.531Zm-8.498-.008-4.25-.002a.532.532 0 0 1 0-1.063l4.25.003a.53.53 0 1 1 0 1.062Zm-8.499-.006-4.249-.005a.53.53 0 1 1 0-1.062l4.249.004a.53.53 0 0 1 .531.531c0 .294-.24.532-.531.532Zm-7.702-.804a.531.531 0 0 1-.531-.531v-4.249a.531.531 0 0 1 1.062 0v4.249c0 .293-.24.531-.531.531Zm0-8.498a.531.531 0 0 1-.531-.531v-4.25a.531.531 0 0 1 1.062 0v4.25c0 .293-.24.531-.531.531Zm0-8.499a.531.531 0 0 1-.531-.531v-4.249a.532.532 0 1 1 1.062 0v4.249c0 .293-.24.531-.531.531Zm0-8.499a.531.531 0 0 1-.531-.531v-4.249a.531.531 0 0 1 1.062 0v4.249c0 .293-.24.531-.531.531Zm0-8.498a.531.531 0 0 1-.531-.531v-4.25a.531.531 0 0 1 1.062 0v4.25c0 .293-.24.531-.531.531Zm0-8.499a.531.531 0 0 1-.531-.531v-4.249a.532.532 0 1 1 1.062 0v4.249c0 .293-.24.531-.531.531Zm0-8.499a.531.531 0 0 1-.531-.531v-4.249a.531.531 0 0 1 1.062 0v4.249c0 .293-.24.531-.531.531Zm0-8.498a.531.531 0 0 1-.531-.531v-4.25a.531.531 0 0 1 1.062 0v4.25c0 .293-.24.531-.531.531Zm-82.407-6.767a.53.53 0 1 1 0-1.063l4.249-.004a.53.53 0 0 1 .002 1.062l-4.251.005Zm8.498-.007a.53.53 0 1 1 0-1.062l4.25-.004a.53.53 0 1 1 0 1.062l-4.25.004Zm8.499-.006a.53.53 0 1 1 0-1.062l4.249-.005a.53.53 0 0 1 .531.531.53.53 0 0 1-.531.532l-4.249.004Zm8.499-.006a.53.53 0 1 1 0-1.063l4.249-.002a.53.53 0 1 1 0 1.062l-4.249.003Zm8.498-.007a.53.53 0 1 1 0-1.062l4.25-.002a.53.53 0 1 1 0 1.062l-4.25.002Zm8.499-.006a.53.53 0 1 1 0-1.063l4.249-.004a.53.53 0 0 1 .531.531.53.53 0 0 1-.531.532l-4.249.004Zm8.499-.007a.53.53 0 1 1 0-1.062l4.249-.004a.53.53 0 1 1 0 1.062l-4.249.004Zm8.498-.006a.53.53 0 1 1 0-1.062l4.25-.005a.53.53 0 1 1 0 1.063l-4.25.004Zm8.499-.008a.53.53 0 1 1 0-1.063l4.249-.002a.53.53 0 1 1 0 1.062l-4.249.003Zm8.499-.007a.53.53 0 1 1 0-1.062l4.249-.002a.53.53 0 1 1 0 1.062l-4.249.002Z"/>
  <path fill="#fff" d="m115.619 179.148 2.331 3.827-.132.087-6.242-2.475c-2.174-.476-4.35-.952-6.525-1.43l6.522-1.441 6.239-2.484.131.064-2.324 3.852Z"/>
  <path fill="url(#r)" d="M546.652 218.733c0 .997-.661 1.802-1.481 1.802h-22.645c-.82 0-1.483-.805-1.483-1.802 0-.994.663-1.797 1.483-1.797h22.645c.818.002 1.481.803 1.481 1.797Z"/>
  <path fill="url(#s)" d="M553.104 227.656v-1.292a4.647 4.647 0 0 0-4.64-4.653h-29.14a4.646 4.646 0 0 0-4.64 4.653v1.292h38.42Z"/>
  <path fill="url(#t)" d="M515.617 185.888c.949-1.275 8.046-5.202 9.735-6.479 1.693-1.272 1.801-2.12 2.224-2.97.425-.848 3.808-2.76 4.339-3.183.529-.422-2.182-3.452-1.165-4.674 1.428-1.702 4.339.533 5.503 1.912 1.585-.104 1.91-.476 4.868-.104 10.373 1.592 22.755 24.731 7.887 37.943-4.286.794-4.711 1.015-5.981 1.542-.317 3.291 1.802 4.67 2.01 5.839-3.387 0-23.282.104-23.282.104s-4.022-3.927-1.879-11.012c3.387-7.537 12.782-7.033 12.782-15.417-1.274 1.271-1.825 1.296-4.34 1.06-2.361-.219-4.165-1.111-5.662-.157-1.144.725-1.216.476-2.274 1.642-1.06 1.167-1.483 1.592-2.964.746-1.483-.85-2.753-1.591-3.282-2.654-.529-1.064 1.481-4.138 1.481-4.138Z"/>
  <defs>
    <linearGradient id="a" x1="210.012" x2="257.645" y1="38.166" y2="41.693" gradientUnits="userSpaceOnUse">
      <stop stop-color="#FB8D48"/>
      <stop offset=".2" stop-color="#ED7136"/>
      <stop offset=".4" stop-color="#C54E47"/>
      <stop offset=".4" stop-color="#C14F49"/>
      <stop offset=".6" stop-color="#9D3863"/>
      <stop offset=".8" stop-color="#5E1F72"/>
    </linearGradient>
    <linearGradient id="b" x1="278.693" x2="290.967" y1="99.939" y2="100.45" gradientUnits="userSpaceOnUse">
      <stop stop-color="#FB8D48"/>
      <stop offset=".2" stop-color="#ED7136"/>
      <stop offset=".4" stop-color="#C54E47"/>
      <stop offset=".4" stop-color="#C14F49"/>
      <stop offset=".6" stop-color="#9D3863"/>
      <stop offset=".8" stop-color="#5E1F72"/>
    </linearGradient>
    <linearGradient id="c" x1="279.204" x2="290.979" y1="108.863" y2="109.258" gradientUnits="userSpaceOnUse">
      <stop stop-color="#FB8D48"/>
      <stop offset=".2" stop-color="#ED7136"/>
      <stop offset=".4" stop-color="#C54E47"/>
      <stop offset=".4" stop-color="#C14F49"/>
      <stop offset=".6" stop-color="#9D3863"/>
      <stop offset=".8" stop-color="#5E1F72"/>
    </linearGradient>
    <linearGradient id="d" x1="276.134" x2="286.613" y1="91.85" y2="92.09" gradientUnits="userSpaceOnUse">
      <stop stop-color="#FB8D48"/>
      <stop offset=".2" stop-color="#ED7136"/>
      <stop offset=".4" stop-color="#C54E47"/>
      <stop offset=".4" stop-color="#C14F49"/>
      <stop offset=".6" stop-color="#9D3863"/>
      <stop offset=".8" stop-color="#5E1F72"/>
    </linearGradient>
    <linearGradient id="e" x1="252.209" x2="263.629" y1="112.144" y2="112.481" gradientUnits="userSpaceOnUse">
      <stop stop-color="#FB8D48"/>
      <stop offset=".2" stop-color="#ED7136"/>
      <stop offset=".4" stop-color="#C54E47"/>
      <stop offset=".4" stop-color="#C14F49"/>
      <stop offset=".6" stop-color="#9D3863"/>
      <stop offset=".8" stop-color="#5E1F72"/>
    </linearGradient>
    <linearGradient id="f" x1="261.77" x2="266.876" y1="117.845" y2="117.886" gradientUnits="userSpaceOnUse">
      <stop stop-color="#FB8D48"/>
      <stop offset=".2" stop-color="#ED7136"/>
      <stop offset=".4" stop-color="#C54E47"/>
      <stop offset=".4" stop-color="#C14F49"/>
      <stop offset=".6" stop-color="#9D3863"/>
      <stop offset=".8" stop-color="#5E1F72"/>
    </linearGradient>
    <linearGradient id="g" x1="247.861" x2="260.529" y1="104.507" y2="105.267" gradientUnits="userSpaceOnUse">
      <stop stop-color="#FB8D48"/>
      <stop offset=".2" stop-color="#ED7136"/>
      <stop offset=".4" stop-color="#C54E47"/>
      <stop offset=".4" stop-color="#C14F49"/>
      <stop offset=".6" stop-color="#9D3863"/>
      <stop offset=".8" stop-color="#5E1F72"/>
    </linearGradient>
    <linearGradient id="h" x1="258.771" x2="281.684" y1="101.628" y2="101.967" gradientUnits="userSpaceOnUse">
      <stop stop-color="#FB8D48"/>
      <stop offset=".2" stop-color="#ED7136"/>
      <stop offset=".4" stop-color="#C54E47"/>
      <stop offset=".4" stop-color="#C14F49"/>
      <stop offset=".6" stop-color="#9D3863"/>
      <stop offset=".8" stop-color="#5E1F72"/>
    </linearGradient>
    <linearGradient id="i" x1="302.778" x2="476.79" y1="139.198" y2="144.224" gradientUnits="userSpaceOnUse">
      <stop stop-color="#FB8D48"/>
      <stop offset=".2" stop-color="#ED7136"/>
      <stop offset=".4" stop-color="#C54E47"/>
      <stop offset=".4" stop-color="#C14F49"/>
      <stop offset=".6" stop-color="#9D3863"/>
      <stop offset=".8" stop-color="#5E1F72"/>
    </linearGradient>
    <linearGradient id="j" x1="332.307" x2="341.956" y1="136.68" y2="136.867" gradientUnits="userSpaceOnUse">
      <stop stop-color="#FB8D48"/>
      <stop offset=".2" stop-color="#ED7136"/>
      <stop offset=".4" stop-color="#C54E47"/>
      <stop offset=".4" stop-color="#C14F49"/>
      <stop offset=".6" stop-color="#9D3863"/>
      <stop offset=".8" stop-color="#5E1F72"/>
    </linearGradient>
    <linearGradient id="k" x1="344.346" x2="353.995" y1="136.68" y2="136.867" gradientUnits="userSpaceOnUse">
      <stop stop-color="#FB8D48"/>
      <stop offset=".2" stop-color="#ED7136"/>
      <stop offset=".4" stop-color="#C54E47"/>
      <stop offset=".4" stop-color="#C14F49"/>
      <stop offset=".6" stop-color="#9D3863"/>
      <stop offset=".8" stop-color="#5E1F72"/>
    </linearGradient>
    <linearGradient id="l" x1="356.377" x2="366.026" y1="136.68" y2="136.867" gradientUnits="userSpaceOnUse">
      <stop stop-color="#FB8D48"/>
      <stop offset=".2" stop-color="#ED7136"/>
      <stop offset=".4" stop-color="#C54E47"/>
      <stop offset=".4" stop-color="#C14F49"/>
      <stop offset=".6" stop-color="#9D3863"/>
      <stop offset=".8" stop-color="#5E1F72"/>
    </linearGradient>
    <linearGradient id="m" x1="368.412" x2="378.062" y1="136.68" y2="136.867" gradientUnits="userSpaceOnUse">
      <stop stop-color="#FB8D48"/>
      <stop offset=".2" stop-color="#ED7136"/>
      <stop offset=".4" stop-color="#C54E47"/>
      <stop offset=".4" stop-color="#C14F49"/>
      <stop offset=".6" stop-color="#9D3863"/>
      <stop offset=".8" stop-color="#5E1F72"/>
    </linearGradient>
    <linearGradient id="n" x1="322.096" x2="343.947" y1="50.715" y2="51.076" gradientUnits="userSpaceOnUse">
      <stop stop-color="#FB8D48"/>
      <stop offset=".2" stop-color="#ED7136"/>
      <stop offset=".4" stop-color="#C54E47"/>
      <stop offset=".4" stop-color="#C14F49"/>
      <stop offset=".6" stop-color="#9D3863"/>
      <stop offset=".8" stop-color="#5E1F72"/>
    </linearGradient>
    <linearGradient id="o" x1="332.17" x2="360.385" y1="36.354" y2="37.395" gradientUnits="userSpaceOnUse">
      <stop stop-color="#FB8D48"/>
      <stop offset=".2" stop-color="#ED7136"/>
      <stop offset=".4" stop-color="#C54E47"/>
      <stop offset=".4" stop-color="#C14F49"/>
      <stop offset=".6" stop-color="#9D3863"/>
      <stop offset=".8" stop-color="#5E1F72"/>
    </linearGradient>
    <linearGradient id="p" x1="265.116" x2="317.528" y1="243.074" y2="244.772" gradientUnits="userSpaceOnUse">
      <stop stop-color="#FB8D48"/>
      <stop offset=".2" stop-color="#ED7136"/>
      <stop offset=".4" stop-color="#C54E47"/>
      <stop offset=".4" stop-color="#C14F49"/>
      <stop offset=".6" stop-color="#9D3863"/>
      <stop offset=".8" stop-color="#5E1F72"/>
    </linearGradient>
    <linearGradient id="q" x1="510.342" x2="556.299" y1="36.566" y2="37.457" gradientUnits="userSpaceOnUse">
      <stop stop-color="#FB8D48"/>
      <stop offset=".2" stop-color="#ED7136"/>
      <stop offset=".4" stop-color="#C54E47"/>
      <stop offset=".4" stop-color="#C14F49"/>
      <stop offset=".6" stop-color="#9D3863"/>
      <stop offset=".8" stop-color="#5E1F72"/>
    </linearGradient>
    <linearGradient id="r" x1="521.488" x2="546.276" y1="218.485" y2="221.905" gradientUnits="userSpaceOnUse">
      <stop stop-color="#FB8D48"/>
      <stop offset=".2" stop-color="#ED7136"/>
      <stop offset=".4" stop-color="#C54E47"/>
      <stop offset=".4" stop-color="#C14F49"/>
      <stop offset=".6" stop-color="#9D3863"/>
      <stop offset=".8" stop-color="#5E1F72"/>
    </linearGradient>
    <linearGradient id="s" x1="515.352" x2="552.663" y1="224.27" y2="228.947" gradientUnits="userSpaceOnUse">
      <stop stop-color="#FB8D48"/>
      <stop offset=".2" stop-color="#ED7136"/>
      <stop offset=".4" stop-color="#C54E47"/>
      <stop offset=".4" stop-color="#C14F49"/>
      <stop offset=".6" stop-color="#9D3863"/>
      <stop offset=".8" stop-color="#5E1F72"/>
    </linearGradient>
    <linearGradient id="t" x1="514.774" x2="556.022" y1="188.57" y2="189.27" gradientUnits="userSpaceOnUse">
      <stop stop-color="#FB8D48"/>
      <stop offset=".2" stop-color="#ED7136"/>
      <stop offset=".4" stop-color="#C54E47"/>
      <stop offset=".4" stop-color="#C14F49"/>
      <stop offset=".6" stop-color="#9D3863"/>
      <stop offset=".8" stop-color="#5E1F72"/>
    </linearGradient>
  </defs>
</svg>
