<svg xmlns="http://www.w3.org/2000/svg" width="400" height="361" fill="none" viewBox="0 0 400 361">
  <path fill="#E86B31" d="M400 317.238H0v.243h400v-.243Zm-210.384-43.205H35.136c-2.517 0-4.566-2.481-4.566-5.53V5.53c0-3.049 2.05-5.53 4.567-5.53h154.479c2.517 0 4.566 2.481 4.566 5.53v262.973c0 3.049-2.049 5.53-4.566 5.53ZM35.136.243c-2.407 0-4.366 2.372-4.366 5.288v262.973c0 2.916 1.959 5.288 4.367 5.288h154.479c2.407 0 4.366-2.372 4.366-5.288V5.53c0-2.915-1.959-5.288-4.366-5.288L35.136.243Zm327.513 273.79H208.171c-2.518 0-4.566-2.481-4.566-5.53V5.53c0-3.049 2.049-5.53 4.566-5.53h154.478c2.519 0 4.567 2.481 4.567 5.53v262.973c.001 3.049-2.048 5.53-4.567 5.53ZM208.171.243c-2.407 0-4.366 2.372-4.366 5.288v262.973c0 2.916 1.959 5.288 4.366 5.288h154.478c2.408 0 4.367-2.372 4.367-5.288V5.53c0-2.915-1.959-5.288-4.367-5.288L208.171.243Zm151.744 326.228H334.66v.242h25.255v-.242Zm-91.646-2.631h-26.726v.242h26.726v-.242Zm98.943 11.629h-49.946v.242h49.946v-.242Z"/>
  <path fill="#EBEBEB" d="M57.353 333.84H41.965v.242h15.388v-.242Zm31.357 0H64.477v.242H88.71v-.242Z"/>
  <path fill="#E86B31" d="M195.309 329.746h-43.645v.242h43.645v-.242Z"/>
  <path fill="#E0E0E0" d="M119.463 175.467h228.738V21.249H119.463v154.218Z"/>
  <path fill="#F5F5F5" d="M106.9 175.467h240.145V21.249H106.9v154.218Z"/>
  <path fill="#F6D5A1" d="M343.123 170.721V26.006H110.826V170.72h232.297Z"/>
  <path fill="#F5F5F5" d="M249.063 170.721 205.205 26.006h72.381l43.857 144.715h-72.38Zm-69.672 0L135.533 26.006h54.601l43.858 144.715h-54.601Z"/>
  <path fill="#E6E6E6" d="M43.343 123.461h46.02V48.662h-46.02v74.799Z"/>
  <path fill="#FFBE55" d="M40.134 123.461h48.534V48.662H40.134v74.799Z"/>
  <path fill="#fff" d="M84.602 118.539V53.588H44.199v64.951h40.403Z"/>
  <path fill="#F0F0F0" d="m64.68 103.23 7.416-8.98c3.73-4.519 3.73-11.87 0-16.389l-7.416-8.98a.345.345 0 0 0-.552 0l-7.416 8.98c-3.73 4.517-3.73 11.869 0 16.387l7.416 8.981c.153.185.4.185.552.001Zm-.276-33.346 7.139 8.646c3.426 4.15 3.426 10.9 0 15.05l-7.14 8.646-7.139-8.646c-3.426-4.15-3.426-10.9 0-15.05l7.14-8.646Z"/>
  <path fill="#828282" d="M322.425 313.711h10.821v-108.07h-10.821v108.07Z"/>
  <path fill="#F0F0F0" d="M179.625 317.236H331.75v-3.527H179.625v3.527Z"/>
  <path fill="#FAFAFA" d="M322.427 205.641H178.125V313.71h144.302V205.641Z"/>
  <path fill="#6E2300" d="M303.616 268.791H196.934c-5.739 0-10.407-5.654-10.407-12.603 0-6.95 4.668-12.604 10.407-12.604h106.682c5.739 0 10.407 5.654 10.407 12.604 0 6.949-4.669 12.603-10.407 12.603Zm-106.682-24.36c-5.353 0-9.708 5.273-9.708 11.757 0 6.483 4.354 11.756 9.708 11.756h106.682c5.353 0 9.709-5.274 9.709-11.756 0-6.483-4.355-11.757-9.709-11.757H196.934Zm106.682 55.714H196.934c-5.739 0-10.407-5.654-10.407-12.604 0-6.949 4.668-12.603 10.407-12.603h106.682c5.739 0 10.407 5.654 10.407 12.603 0 6.95-4.669 12.604-10.407 12.604Zm-106.682-24.361c-5.353 0-9.708 5.274-9.708 11.757s4.354 11.757 9.708 11.757h106.682c5.353 0 9.709-5.273 9.709-11.757 0-6.482-4.355-11.757-9.709-11.757H196.934Z"/>
  <path fill="#E86B31" d="M217.343 253.47h65.867c1.195 0 2.171-1.183 2.171-2.629 0-1.447-.976-2.63-2.171-2.63h-65.867c-1.194 0-2.171 1.183-2.171 2.63 0 1.446.977 2.629 2.171 2.629Z"/>
  <path fill="#6E2300" d="M303.616 237.438H196.934c-5.739 0-10.407-5.654-10.407-12.604 0-6.949 4.668-12.604 10.407-12.604h106.682c5.739 0 10.407 5.655 10.407 12.604 0 6.95-4.669 12.604-10.407 12.604Zm-106.682-24.361c-5.353 0-9.708 5.274-9.708 11.757 0 6.484 4.354 11.757 9.708 11.757h106.682c5.353 0 9.709-5.274 9.709-11.757 0-6.482-4.355-11.757-9.709-11.757H196.934Z"/>
  <path fill="#E86B31" d="M217.343 222.121h65.867c1.195 0 2.171-1.183 2.171-2.63 0-1.447-.976-2.63-2.171-2.63h-65.867c-1.194 0-2.171 1.183-2.171 2.63 0 1.446.977 2.63 2.171 2.63Zm0 62.703h65.867c1.195 0 2.171-1.183 2.171-2.63 0-1.447-.976-2.63-2.171-2.63h-65.867c-1.194 0-2.171 1.183-2.171 2.63 0 1.447.977 2.63 2.171 2.63Z"/>
  <path fill="#828282" d="M176.151 205.645H322.43v-5.494H176.151v5.494Z"/>
  <path fill="#E6E6E6" d="M335.367 200.15h-12.941v5.494h12.941v-5.494ZM68.574 272.752h37.951l3.617-76.113c.09-1.886-1.1-3.414-2.657-3.414H75.173c-1.557 0-2.892 1.528-2.982 3.414l-3.617 76.113Z"/>
  <path fill="#F5F5F5" d="M64.742 272.752h37.951l3.617-76.113c.09-1.886-1.1-3.414-2.657-3.414H71.341c-1.556 0-2.892 1.528-2.981 3.414l-3.618 76.113Z"/>
  <path fill="#E6E6E6" d="M75.512 272.754h29.24v-6.08c0-1.885-1.263-3.414-2.819-3.414H75.512v9.494Z"/>
  <path fill="#F5F5F5" d="M44.883 272.754h39.27v-6.08c0-1.885-1.262-3.414-2.819-3.414H47.702c-1.557 0-2.82 1.529-2.82 3.414v6.08Z"/>
  <path fill="#E6E6E6" d="M103.929 317.234h2.602V272.75h-2.602v44.484Zm-19.102 0h2.603V272.75h-2.603v44.484Zm-20.246 0h2.603V272.75H64.58v44.484Zm-19.098 0h2.603V272.75h-2.602v44.484Zm71.669-44.482h37.951l3.617-76.113c.09-1.886-1.1-3.414-2.656-3.414h-32.312c-1.557 0-2.892 1.528-2.982 3.414l-3.618 76.113Z"/>
  <path fill="#F5F5F5" d="M113.316 272.752h37.951l3.617-76.113c.09-1.886-1.1-3.414-2.656-3.414h-32.312c-1.557 0-2.892 1.528-2.982 3.414l-3.618 76.113Z"/>
  <path fill="#E6E6E6" d="M124.09 272.754h29.24v-6.08c0-1.885-1.263-3.414-2.819-3.414H124.09v9.494Z"/>
  <path fill="#F5F5F5" d="M93.46 272.754h39.271v-6.08c0-1.885-1.262-3.414-2.819-3.414H96.28c-1.557 0-2.82 1.529-2.82 3.414v6.08Z"/>
  <path fill="#E6E6E6" d="M152.499 317.234h2.603V272.75h-2.603v44.484Zm-19.101 0H136V272.75h-2.602v44.484Zm-20.239 0h2.603V272.75h-2.603v44.484Zm-19.105 0h2.602V272.75h-2.602v44.484Z"/>
  <path fill="#F5F5F5" fill-opacity=".4" d="M199.998 360.999c85.665 0 155.111-4.912 155.111-10.97 0-6.059-69.446-10.97-155.111-10.97-85.666 0-155.111 4.911-155.111 10.97 0 6.058 69.445 10.97 155.111 10.97Z"/>
  <path fill="#E86B31" d="M233.036 85.054c-.199 0-.371-.179-.396-.424-.027-.265.128-.508.348-.54l13.538-2.047c.216-.034.419.155.447.42.027.266-.128.508-.348.541l-13.539 2.046c-.017.002-.033.004-.05.004Z"/>
  <path fill="#E86B31" d="M246.532 88.273a.392.392 0 0 1-.068-.006l-13.448-2.79c-.218-.044-.364-.295-.327-.559.038-.264.247-.44.462-.395l13.448 2.79c.218.044.364.295.327.558-.034.236-.204.403-.394.403Z"/>
  <path fill="#472E05" d="M215.762 61.724c-4.67-2.1-11.803 11.39-8.781 25.674 5.111-5.167 12.195-6.301 14.834-4.198 3.822 3.047.592 2.906 2.568 9.366 1.976 6.459 19.053 5.22 12.431-9.204 10-24.599-17.833-36.223-21.052-21.638Z"/>
  <path fill="#B55B52" d="m183.071 114.896 1.792 1.85c.674.697 1.028 1.744.951 2.813l-.359 4.994c-.143 1.997-1.077 3.785-2.503 4.799l-.883.628c-3.145-2.824-4.826-8.683-4.826-8.683l-.632-1.605c-.562-1.43-.122-3.054 1.011-3.731l2.611-1.558c.901-.536 2.031-.34 2.838.493Z"/>
  <path fill="#B55B52" d="M210.755 122.09a64.54 64.54 0 0 1-.645 1.915c-.21.595-.436 1.171-.658 1.748-.442 1.153-.934 2.268-1.422 3.383a75.974 75.974 0 0 1-3.283 6.452 84.218 84.218 0 0 1-1.847 3.089c-.662.997-1.312 1.999-2.022 2.963-1.363 1.964-2.926 3.775-4.525 5.528l-.219.24c-.19.209-.412.402-.624.555-.797.567-1.848 1.088-3.044 1.257a6.052 6.052 0 0 1-3.416-.5c-1.963-.951-2.96-2.285-3.744-3.39-.776-1.138-1.284-2.221-1.725-3.275a32.65 32.65 0 0 1-1.098-3.083 50.6 50.6 0 0 1-1.365-5.984c-.327-1.999-.568-3.915-.682-6.008-.102-1.876 1.07-3.496 2.618-3.621 1.136-.091 2.159.648 2.664 1.789l.077.177c.681 1.542 1.371 3.219 2.076 4.766.705 1.562 1.421 3.085 2.174 4.446.373.679.743 1.324 1.121 1.875.373.545.755 1.013 1.031 1.262.262.267.485.195-.003-.129-.236-.149-.702-.277-1.121-.224-.425.041-.74.201-.879.271l-.843.795c1.12-1.55 2.214-3.13 3.231-4.839a83.259 83.259 0 0 0 2.906-5.282c.908-1.826 1.8-3.678 2.618-5.579.415-.947.808-1.906 1.2-2.855l.565-1.422.502-1.298.13-.337c1.307-3.378 4.628-4.833 7.418-3.25 2.672 1.515 3.881 5.285 2.834 8.565Z"/>
  <path fill="#263238" d="M256.55 321.863c1.24-6.796.925-8.387 1.935-12.111.86-3.195.927-3.004 2.256-5.997.882-1.982-.794-3.562-2.464-3.816-1.301-.198-2.681-.27-4.279-.578l-3.459 7.807c1.826 2.807 3.284 9.658 2.638 14.906-.456 3.755 2.872 2.509 3.373-.211Z"/>
  <path fill="#455A64" d="M200.837 160.282s-.914 57.429-1.882 89.241c-2.542 18.83 50.914 58.031 50.914 58.031 1.144.657 4.169-6.52 4.126-8.193 0 0-22.99-41.012-36.689-50.916 15.16-50.809 11.041-88.164 11.041-88.164h-27.51v.001Z"/>
  <path fill="#000" d="M228.35 160.287H211s3.468 56.134 7.334 84.638c13.944-49.004 10.016-84.638 10.016-84.638Zm10.728 114.723c-6.584-9.95-14.2-20.307-20.32-25.422.872 9.843 1.768 21.721 2.456 33.88 5.752 5.513 11.72 10.638 16.712 14.736.792-7.77 1.264-15.724 1.152-23.194Z" opacity=".2"/>
  <path fill="#E86B31" d="M246.52 306.138a99.175 99.175 0 0 1 2.832 2.541c.296.28.713.216.951-.136 1.781-2.637 3.818-7.498 4.472-9.107a.954.954 0 0 0-.133-.948l-2.239-2.695c-.306-.367-.812-.305-1.051.129l-4.997 9.088c-.205.371-.134.868.165 1.128Z"/>
  <path fill="#fff" d="M246.52 306.138a99.175 99.175 0 0 1 2.832 2.541c.296.28.713.216.951-.136 1.781-2.637 3.818-7.498 4.472-9.107a.954.954 0 0 0-.133-.948l-2.239-2.695c-.306-.367-.812-.305-1.051.129l-4.997 9.088c-.205.371-.134.868.165 1.128Z" opacity=".3"/>
  <path fill="#263238" d="M220.746 354.705c5.847 0 5.434-.109 8.729-.243 2.822-.122 3.463.304 5.729.243 1.893-.048 1.986-2.239 1.593-4.758-.196-1.265-.532-2.811-.781-4.855h-8.882c-1.415 2.786-3.973 4.879-7.309 5.415-3.183.512-1.41 4.198.921 4.198Z"/>
  <path fill="#455A64" d="M209.09 160.281s9.187 61.235 12.551 88.988c3.534 29.147 7.888 76.456 5.493 95.82 1.297.963 6.107 1.022 8.881 0 0 0 14.036-66.471 2.311-94.532 6.672-68.208-3.195-71.76-5.923-90.276H209.09Z"/>
  <path fill="#E86B31" d="M226.768 341.058c-.099.976-.3 2.678-.607 3.977-.111.469.117.903.5.979 3.204.63 7.977-.283 9.495-.609.29-.062.528-.337.6-.685l.764-3.721c.105-.508-.191-.966-.616-.956l-9.406.219c-.365.009-.685.356-.73.796Z"/>
  <path fill="#fff" d="M226.768 341.058c-.099.976-.3 2.678-.607 3.977-.111.469.117.903.5.979 3.204.63 7.977-.283 9.495-.609.29-.062.528-.337.6-.685l.764-3.721c.105-.508-.191-.966-.616-.956l-9.406.219c-.365.009-.685.356-.73.796Z" opacity=".3"/>
  <path fill="#263238" d="M208.287 106.652c-5.825 1.33-7.057 4.213-11.346 14.924 1.295 7.048 8.257 13.243 8.257 13.243s12.693-19.057 3.089-28.167Z"/>
  <path fill="url(#a)" d="M199.056 119.999c-.096 3.759.209 8.302.906 17.249.47 7.577-1.088 21.982.882 23.037h31.563c.636-10.851.401-18.324 6.069-42.552 1.314-5.617-1.617-11.011-6.296-11.587a61.416 61.416 0 0 0-3.937-.361c-5.292-.31-9.631-.516-14.332.001-1.559.17-3.172.409-4.716.667-5.571.937-9.967 6.811-10.139 13.546Z"/>
  <path fill="#B55B52" d="M227.233 86.242c-1.248 5.585-2.779 15.817.218 19.544 0 0-4.368-.795-13.642 6.151-2.685-4.664-.69-6.151-.69-6.151 5.234-1.488 5.386-6.108 4.757-10.447l9.357-9.097Z"/>
  <path fill="#fff" d="M215.758 110.542c3.054.526 4.011 6.114 4.011 6.114s7.336-6.284 9.661-10.717c-1.089-.691-2.679-2.06-2.679-2.06s-9.21 4.528-10.993 6.663Zm-2.903-.6s-2.425.635-3.642 4.72c-.699-8.145 2.49-8.895 2.49-8.895s.958-.829 2.762-.484c-2.423 1.548-1.61 4.659-1.61 4.659Z"/>
  <path fill="#000" d="m223.417 89.953-5.538 5.382c.152 1.027.254 2.068.252 3.08 1.986-.343 4.845-2.955 5.206-5.447.181-1.242.212-2.436.08-3.015Z" opacity=".2"/>
  <path fill="#B55B52" d="M233.4 78.823c-2.72 8.563-3.72 12.248-8.543 15.574-7.255 5.003-15.379-.302-14.835-9.527.49-8.304 4.855-20.914 12.846-22.166 7.871-1.233 13.252 7.555 10.532 16.119Z"/>
  <path fill="#472E05" d="M215.758 62.906c.575 4.602 12.284 9.14 14.508 8.585-2.8 3.014-.889 16.335 5.066 12.245 1.556-15.556-5.949-29.388-19.574-20.83Z"/>
  <path fill="#000" d="M223.172 78.052s1.682-.617 2.895.38c-1.604.175-2.895-.38-2.895-.38Zm-.031.842s1.598-.165 2.47 1.126c-1.444-.247-2.47-1.126-2.47-1.126Z" opacity=".2"/>
  <path fill="#263238" d="M221.573 77.72c-.202.73-.684 1.222-1.075 1.1-.391-.125-.545-.817-.342-1.547s.684-1.223 1.075-1.1c.392.124.544.816.342 1.546Zm-7.398-2.195c-.203.73-.684 1.223-1.076 1.1-.391-.124-.544-.816-.341-1.547.202-.731.684-1.223 1.075-1.1.391.124.544.817.342 1.547Z"/>
  <path fill="#263238" d="m213.997 74.075-1.298-.96s.358 1.605 1.298.96Z"/>
  <path fill="#A02724" d="M215.892 77.37s-1.888 2.825-3.427 3.99c.541 1.15 1.999 1.162 1.999 1.162l1.428-5.153Z"/>
  <path fill="#263238" d="M217.163 86.31a4.994 4.994 0 0 1-1.033-.21c-.097-.031-.149-.151-.116-.27.033-.119.135-.19.236-.16 2.625.832 4.476-1.023 4.494-1.041.081-.084.198-.077.261.013s.05.231-.03.313c-.072.073-1.562 1.567-3.812 1.356Z"/>
  <path fill="#B55B52" d="M233.432 86.14c-1.014 1.665-2.408 2.527-3.595 2.653-1.786.189-2.186-2.338-1.277-4.586.818-2.023 2.733-4.559 4.327-3.693 1.571.854 1.704 3.725.545 5.627Z"/>
  <path fill="#263238" d="M224.081 73.989a.38.38 0 0 1-.202-.239c-.558-1.795-1.898-2.096-1.913-2.099-.198-.043-.325-.269-.276-.507.049-.238.252-.397.455-.354.07.016 1.752.39 2.444 2.618.068.222-.035.479-.23.574a.329.329 0 0 1-.278.007Zm-11.185-3.304a.351.351 0 0 1-.218-.186.497.497 0 0 1 .142-.605c1.808-1.325 3.359-.534 3.424-.499.185.098.257.356.162.577-.095.221-.322.32-.506.225-.06-.032-1.272-.624-2.709.43a.344.344 0 0 1-.295.058Zm8.499 5.582-1.297-.96s.357 1.604 1.297.96Z"/>
  <path fill="#B55B52" d="M241.509 115.988c.283.744.475 1.276.689 1.892.208.597.392 1.193.581 1.787.378 1.187.699 2.389 1.021 3.589a84.282 84.282 0 0 1 1.553 7.341 97.71 97.71 0 0 1 .551 3.754c.132 1.27.276 2.533.356 3.819.219 2.552.209 5.172.14 7.783l-.01.356a5.742 5.742 0 0 1-.104.93c-.216 1.088-.637 2.365-1.367 3.524-.715 1.162-1.725 2.104-2.671 2.629-1.928 1.049-3.413.992-4.614.906-1.214-.115-2.212-.424-3.144-.772a21.38 21.38 0 0 1-2.594-1.186 34.357 34.357 0 0 1-4.503-2.967c-1.415-1.105-2.719-2.225-4.042-3.579-1.185-1.213-1.333-3.36-.331-4.796.735-1.052 1.884-1.43 2.912-1.077l.159.056c1.39.479 2.864 1.042 4.274 1.502 1.417.471 2.819.906 4.15 1.195.663.147 1.303.274 1.893.327.582.052 1.126.045 1.466-.021.34-.043.452-.288-.078-.088-.253.102-.653.42-.912.822-.271.398-.395.784-.45.953l-.114 1.286c-.142-2.052-.322-4.103-.631-6.176a95.832 95.832 0 0 0-1.118-6.201c-.453-2.06-.934-4.123-1.495-6.157-.274-1.018-.571-2.027-.862-3.029l-.452-1.48-.422-1.339-.11-.348c-1.098-3.486.344-7.389 3.223-8.72 2.755-1.272 5.834.294 7.056 3.485Z"/>
  <path fill="#E86B31" d="M232.469 106.197c5.139.961 7.199 2.854 11.397 15.36-1.906 4.664-10.827 9.126-10.827 9.126s-6.995-15.38-.57-24.486Z"/>
  <path fill="#FFBE55" d="m176.04 232.157-1.367-7.054c-3.445-17.778.686-35.734 4.679-53.098 3.467-15.074 6.742-29.311 4.379-41.508l1.811-.515c2.472 12.759-.865 27.267-4.398 42.627-3.93 17.091-7.995 34.763-4.659 51.979l1.367 7.054-1.812.515Z"/>
  <path fill="url(#b)" d="M174.035 129.525c2.516-38.098-20.948-71.452-52.407-74.498-31.458-3.046-59 25.37-61.515 63.467-2.515 38.098 20.948 71.452 52.407 74.498 31.458 3.046 59-25.369 61.515-63.467Z"/>
  <path fill="#fff" d="M123.27 180.101c-12.143 0-23.168-10.093-26.06-25.015-3.37-17.403 5.577-34.881 19.946-38.965 14.367-4.084 28.803 6.751 32.175 24.154 3.372 17.402-5.576 34.882-19.945 38.965a22.333 22.333 0 0 1-6.116.861Zm.002-62.588c-1.879 0-3.785.26-5.691.801-13.371 3.8-21.697 20.066-18.56 36.258 3.138 16.192 16.571 26.275 29.94 22.477 13.371-3.8 21.697-20.065 18.559-36.258-2.69-13.885-12.949-23.278-24.248-23.278Z"/>
  <path fill="url(#c)" d="m118.78 64.318 19.696 101.656c1.375 7.097 7.24 11.5 13.1 9.835l57.151-16.241c4.683-1.331 8.074-6.222 8.393-12.035a113.165 113.165 0 0 0-1.895-27.721c-9.344-48.225-47.76-79.025-87.528-71.556-6.263 1.177-10.365 8.589-8.917 16.062Z"/>
  <path fill="url(#d)" d="m190.489 248.988-54.008 15.347c-1.348.383-2.729-.46-3.276-2.001l-4.791-13.484c-.703-1.977.24-4.242 1.971-4.735l58.137-16.52c1.73-.492 3.407 1.03 3.504 3.179l.662 14.657c.076 1.675-.851 3.174-2.199 3.557Z"/>
  <path fill="url(#e)" d="m186.572 259.661-42.666 12.125c-1.376.391-2.781-.496-3.305-2.085l-3.861-11.711c-.648-1.965.299-4.167 2-4.65l45.685-12.982c1.701-.483 3.358.979 3.499 3.088l.843 12.568c.114 1.706-.819 3.256-2.195 3.647Z"/>
  <path fill="url(#f)" d="m182.351 269.591-31.01 8.811c-1.408.401-2.841-.537-3.336-2.184l-3.058-10.172c-.586-1.947.366-4.077 2.031-4.551l33.07-9.396c1.666-.474 3.3.921 3.491 2.981l.998 10.757c.161 1.742-.777 3.354-2.186 3.754Z"/>
  <path fill="#FFBE55" d="M165.622 135.645c-3.137-16.192-16.568-26.274-29.939-22.477l-.425-2.192c14.377-4.083 28.804 6.754 32.175 24.154l-1.811.515Z"/>
  <path fill="#fff" d="m132.087 58.88-27.521 11.408-.406 2.752 2.354 1.957-.451 2.995 2.001 2.48-.02 2.676 27.194-11.271.803-2.707-2.411-2.437.244-3.202-2.094-1.73.307-2.92Z" opacity=".2"/>
  <path fill="#FFBE55" d="M159.427 169.82c-4.924.001-9.764-1.657-14.053-4.877-6.077-4.563-10.323-11.717-11.956-20.147-3.371-17.402 5.577-34.881 19.945-38.965 6.96-1.98 14.142-.554 20.219 4.007 6.077 4.562 10.322 11.717 11.956 20.147 1.633 8.43.458 17.125-3.309 24.485-3.767 7.359-9.675 12.501-16.636 14.479a22.471 22.471 0 0 1-6.166.871Zm.097-62.604c-1.909 0-3.832.267-5.737.809-13.371 3.799-21.696 20.064-18.559 36.257 1.519 7.845 5.471 14.503 11.125 18.748 5.655 4.245 12.334 5.57 18.814 3.729 6.478-1.841 11.976-6.626 15.48-13.474 3.505-6.848 4.599-14.94 3.079-22.783-1.519-7.845-5.471-14.503-11.125-18.748-3.991-2.997-8.495-4.538-13.077-4.538Z"/>
  <path fill="#E86B31" d="m150.558 148.95 17.522 71.871-67.335 24.076-19.882-81.546 42.527-15.206 27.168.805Z"/>
  <path fill="#fff" d="m150.558 148.95 17.522 71.871-67.335 24.076-19.882-81.546 42.527-15.206 27.168.805Z" opacity=".8"/>
  <path fill="#E86B31" d="m150.562 148.95-15.072 12.337-12.095-13.142 27.167.805Z"/>
  <path fill="#FFBE55" d="M102.442 165.361a20.864 20.864 0 0 0 1.394 4.012 20.42 20.42 0 0 0 2.171 3.523c1.674 2.21 3.716 4.205 5.708 6.346 2.004 2.128 3.971 4.391 5.783 6.826a67.152 67.152 0 0 1 2.613 3.761c.839 1.286 1.616 2.496 2.453 3.728 3.285 4.915 6.892 9.568 10.131 14.777 1.599 2.616 3.137 5.348 4.387 8.299a47.84 47.84 0 0 1 2.912 9.276c.166.807-.239 1.624-.904 1.825-.635.192-1.277-.244-1.48-.984l-.003-.012c-1.6-5.873-4.232-11.161-7.438-16.07-3.185-4.929-6.7-9.721-9.986-14.8-.824-1.248-1.636-2.586-2.43-3.809a63.076 63.076 0 0 0-2.469-3.578c-1.714-2.317-3.57-4.469-5.525-6.56-1.941-2.106-4.022-4.131-5.916-6.636a24.055 24.055 0 0 1-2.535-4.154 24.838 24.838 0 0 1-1.657-4.802c-.222-.933.223-1.908.994-2.176.77-.268 1.575.27 1.797 1.204v.004Z"/>
  <path fill="#E86B31" d="M166.825 289.398c-2.339 0-4.638-.787-6.675-2.317-2.887-2.167-4.904-5.566-5.68-9.57-.776-4.004-.217-8.135 1.572-11.63 1.789-3.496 4.596-5.938 7.902-6.878 6.823-1.941 13.681 3.208 15.283 11.473.776 4.004.218 8.135-1.572 11.63-1.788 3.496-4.595 5.938-7.901 6.878a10.67 10.67 0 0 1-2.929.414Zm.045-28.556c-.832 0-1.67.117-2.5.353-2.823.802-5.219 2.887-6.747 5.872-1.528 2.985-2.004 6.51-1.342 9.93 1.366 7.057 7.226 11.448 13.048 9.795 2.822-.802 5.218-2.887 6.746-5.872 1.528-2.985 2.004-6.51 1.342-9.929-.662-3.419-2.383-6.321-4.849-8.17-1.739-1.306-3.701-1.979-5.698-1.979Z"/>
  <path fill="#B55B52" d="m217.997 135.111 2.344-.275c.881-.104 1.749.316 2.331 1.125l2.717 3.781c1.086 1.512 1.5 3.568 1.111 5.516l-.241 1.206c-3.862.778-8.509-1.828-8.509-1.828l-1.393-.564c-1.24-.504-1.899-2.016-1.512-3.474l.888-3.356c.307-1.159 1.208-2.008 2.264-2.131Z"/>
  <path fill="#fff" d="M279.423 48.827c.768-5.731-2.446-11.131-7.178-12.061-4.733-.93-9.192 2.962-9.96 8.693-.768 5.73 2.446 11.131 7.178 12.061 4.733.93 9.192-2.962 9.96-8.693Z"/>
  <path fill="#E86B31" d="M270.849 58.783c-5.3 0-9.611-5.22-9.611-11.639 0-6.417 4.311-11.638 9.611-11.638 5.299 0 9.61 5.22 9.61 11.639 0 6.417-4.31 11.638-9.61 11.638Zm0-21.026c-4.274 0-7.751 4.212-7.751 9.388 0 5.175 3.478 9.386 7.751 9.386s7.751-4.21 7.751-9.386c0-5.176-3.478-9.388-7.751-9.388Z"/>
  <path fill="#fff" d="M250.226 64.997c2.692 0 4.874-2.644 4.874-5.904s-2.182-5.904-4.874-5.904c-2.692 0-4.874 2.644-4.874 5.904s2.182 5.904 4.874 5.904Z"/>
  <path fill="#E86B31" d="M250.222 66.121c-3.2 0-5.804-3.153-5.804-7.029s2.604-7.03 5.804-7.03 5.804 3.154 5.804 7.03c-.001 3.876-2.604 7.03-5.804 7.03Zm0-11.807c-2.175 0-3.945 2.144-3.945 4.778 0 2.635 1.77 4.778 3.945 4.778s3.945-2.143 3.945-4.778c-.001-2.634-1.771-4.778-3.945-4.778Z"/>
  <path fill="#fff" d="M343.507 57.303c-2.364-12.223-11.417-21.328-22.232-21.328-9.253 0-17.214 6.666-20.804 16.247a9.044 9.044 0 0 0-2.036-.24c-5.976 0-10.82 5.868-10.82 13.104 0 1.42.192 2.784.537 4.064-3.484 4.059-5.656 9.759-5.656 16.076 0 12.323 8.249 22.313 18.424 22.313 3.426 0 6.631-1.137 9.379-3.108 3.066 2.759 6.863 4.392 10.976 4.392 5.677 0 10.752-3.111 14.131-7.999a15.4 15.4 0 0 0 3.558.419c10.175 0 18.424-9.99 18.424-22.312 0-10.424-5.903-19.176-13.881-21.627Z"/>
  <path fill="#E86B31" d="M321.279 109.948c-3.983 0-7.785-1.444-11.035-4.182-2.847 1.898-6.056 2.897-9.32 2.897-10.672 0-19.354-10.514-19.354-23.438 0-6.197 1.961-11.994 5.535-16.402a17.008 17.008 0 0 1-.416-3.738c0-7.847 5.271-14.23 11.75-14.23.489 0 .989.04 1.493.12 3.98-9.826 12.282-16.127 21.348-16.127 10.908 0 20.287 8.822 23.003 21.54 8.295 2.858 14.04 12.03 14.04 22.542 0 12.924-8.682 23.438-19.353 23.438-1.066 0-2.14-.109-3.2-.323-3.682 5.031-8.931 7.903-14.491 7.903Zm-10.977-6.645c.195 0 .39.074.554.222 3.033 2.728 6.637 4.17 10.422 4.17 5.19 0 10.081-2.769 13.418-7.596.218-.315.555-.462.892-.383 1.116.265 2.252.399 3.379.399 9.647 0 17.495-9.504 17.495-21.186 0-9.708-5.42-18.152-13.181-20.536-.336-.103-.597-.425-.677-.834-2.33-12.046-11.1-20.46-21.326-20.46-8.576 0-16.411 6.118-19.958 15.587-.178.473-.594.741-1.021.64a8.326 8.326 0 0 0-1.861-.22c-5.454 0-9.891 5.373-9.891 11.978 0 1.254.166 2.504.491 3.715.111.41.018.86-.24 1.16-3.463 4.034-5.37 9.456-5.37 15.266 0 11.682 7.848 21.187 17.494 21.187 3.136 0 6.216-1.021 8.904-2.951a.813.813 0 0 1 .476-.158Z"/>
  <path fill="#fff" d="M334.254 66.308c0 4.112-1.182 7.883-3.151 10.85a23.5 23.5 0 0 0-2.752 5.684c-.562 1.715-1.912 2.858-3.436 2.858h-10.004c-1.52 0-2.872-1.137-3.432-2.848a25.176 25.176 0 0 0-2.79-5.843c-2.085-3.203-3.25-7.318-3.03-11.772.428-8.601 6.143-15.607 13.242-16.212 8.376-.72 15.353 7.297 15.353 17.283Z"/>
  <path fill="#E86B31" d="M324.918 86.826h-10.003c-1.902 0-3.588-1.396-4.297-3.557a23.936 23.936 0 0 0-2.657-5.563c-2.305-3.542-3.451-7.993-3.226-12.535.457-9.2 6.521-16.623 14.105-17.269 4.275-.369 8.367 1.373 11.494 4.901 3.085 3.48 4.854 8.402 4.854 13.505 0 4.192-1.192 8.295-3.357 11.555a22.2 22.2 0 0 0-2.612 5.395c-.711 2.167-2.399 3.568-4.301 3.568Zm-4.959-36.72c-.328 0-.658.015-.989.043-6.656.567-11.979 7.083-12.38 15.156-.198 3.99.809 7.898 2.832 11.008a26.312 26.312 0 0 1 2.923 6.124c.426 1.299 1.434 2.138 2.569 2.138h10.003c1.135 0 2.145-.843 2.573-2.148a24.677 24.677 0 0 1 2.891-5.976c1.927-2.902 2.947-6.409 2.947-10.143 0-4.48-1.554-8.802-4.262-11.858-2.505-2.824-5.707-4.344-9.107-4.344Zm4.313 41.898h-8.658c-.624 0-1.13-.613-1.13-1.368v-.75c0-.756.506-1.368 1.13-1.368h8.658c.624 0 1.13.612 1.13 1.368v.75c0 .755-.506 1.368-1.13 1.368Zm-1.592 4.691h-5.464c-.624 0-1.13-.612-1.13-1.368v-.75c0-.756.506-1.368 1.13-1.368h5.464c.624 0 1.13.612 1.13 1.368v.75c0 .756-.506 1.368-1.13 1.368Z"/>
  <defs>
    <linearGradient id="a" x1="199.73" x2="238.933" y1="129.071" y2="129.622" gradientUnits="userSpaceOnUse">
      <stop stop-color="#FB8D48"/>
      <stop offset=".2" stop-color="#ED7136"/>
      <stop offset=".4" stop-color="#C54E47"/>
      <stop offset=".4" stop-color="#C14F49"/>
      <stop offset=".6" stop-color="#9D3863"/>
      <stop offset=".8" stop-color="#5E1F72"/>
    </linearGradient>
    <linearGradient id="b" x1="160.101" x2="43.851" y1="64.079" y2="141.703" gradientUnits="userSpaceOnUse">
      <stop stop-color="#FFBE55"/>
      <stop offset="1" stop-color="#E86B31"/>
    </linearGradient>
    <linearGradient id="c" x1="213.5" x2="114.062" y1="155.619" y2="75.465" gradientUnits="userSpaceOnUse">
      <stop stop-color="#FFBE55"/>
      <stop offset="1" stop-color="#E86B31"/>
    </linearGradient>
    <linearGradient id="d" x1="129.302" x2="192.863" y1="243.4" y2="245.554" gradientUnits="userSpaceOnUse">
      <stop stop-color="#FB8D48"/>
      <stop offset=".2" stop-color="#ED7136"/>
      <stop offset=".4" stop-color="#C54E47"/>
      <stop offset=".4" stop-color="#C14F49"/>
      <stop offset=".6" stop-color="#9D3863"/>
      <stop offset=".8" stop-color="#5E1F72"/>
    </linearGradient>
    <linearGradient id="e" x1="137.444" x2="188.921" y1="253.876" y2="255.526" gradientUnits="userSpaceOnUse">
      <stop stop-color="#FB8D48"/>
      <stop offset=".2" stop-color="#ED7136"/>
      <stop offset=".4" stop-color="#C54E47"/>
      <stop offset=".4" stop-color="#C14F49"/>
      <stop offset=".6" stop-color="#9D3863"/>
      <stop offset=".8" stop-color="#5E1F72"/>
    </linearGradient>
    <linearGradient id="f" x1="145.465" x2="184.671" y1="263.411" y2="264.552" gradientUnits="userSpaceOnUse">
      <stop stop-color="#FB8D48"/>
      <stop offset=".2" stop-color="#ED7136"/>
      <stop offset=".4" stop-color="#C54E47"/>
      <stop offset=".4" stop-color="#C14F49"/>
      <stop offset=".6" stop-color="#9D3863"/>
      <stop offset=".8" stop-color="#5E1F72"/>
    </linearGradient>
  </defs>
</svg>
