<svg xmlns="http://www.w3.org/2000/svg" width="579" height="579" fill="none" viewBox="0 0 579 579">
  <g clip-path="url(#a)">
    <path fill="#CCE9FF" d="M119.527 464.175a94.184 94.184 0 0 0 3.413 7.534c18.532 36.368 56.137 59.295 96.234 63.414 32.079 3.252 63.29-7.208 90.112-24.281 26.767-17.019 48.225-40.976 77.973-53.442 41.94-17.507 88.702-31.328 121.593-68.401 37.389-42.114 51.802-105.962 34.192-159.837-17.123-52.575-73.964-69.594-118.126-92.738-79.382-41.68-189.325-69.376-271.959-20.433-98.997 58.591-81.008 191.599-49.634 283.902 7.153 21.03 8.02 43.686 16.202 64.282Z" opacity=".07"/>
    <path stroke="#000" stroke-linecap="round" stroke-linejoin="round" stroke-miterlimit="10" stroke-width=".818" d="M515.311 550.566h37.821m-522.28 0H503.73"/>
    <path fill="#FFBE55" stroke="#E86B31" stroke-linecap="round" stroke-linejoin="round" stroke-miterlimit="10" stroke-width=".818" d="m508.309 464.939-19.096 26.586 6.751 4.567a16.084 16.084 0 0 1 7.071 13.32h13.822a16.083 16.083 0 0 1 7.07-13.32l6.752-4.567-19.097-26.586h-3.273Z"/>
    <path stroke="#E86B31" stroke-linecap="round" stroke-linejoin="round" stroke-miterlimit="10" stroke-width=".818" d="M509.738 465.291v21.455"/>
    <path fill="#fff" stroke="#E86B31" stroke-linecap="round" stroke-linejoin="round" stroke-miterlimit="10" stroke-width=".818" d="M509.739 491.32a4.573 4.573 0 1 0 0-9.146 4.573 4.573 0 0 0 0 9.146Z"/>
    <path stroke="#E86B31" stroke-linecap="round" stroke-linejoin="round" stroke-miterlimit="10" stroke-width=".818" d="M541.992 486.746c0-17.814-14.44-32.254-32.254-32.254-17.813 0-32.254 14.44-32.254 32.254"/>
    <path fill="#fff" stroke="#E86B31" stroke-linejoin="round" stroke-miterlimit="10" stroke-width=".818" d="M544.404 484.336h-4.822v4.822h4.822v-4.822Zm-64.85 0h-4.822v4.822h4.822v-4.822Zm32.594-32.254h-4.822v4.822h4.822v-4.822Z"/>
    <path stroke="#E86B31" stroke-linecap="round" stroke-linejoin="round" stroke-miterlimit="10" stroke-width=".818" d="M512.091 403.51c17.16-4.102 27.746-21.338 23.644-38.499-4.102-17.16-21.339-27.746-38.499-23.644-17.161 4.102-27.746 21.339-23.644 38.499 4.102 17.161 21.339 27.747 38.499 23.644Z"/>
    <path stroke="#E86B31" stroke-linecap="round" stroke-linejoin="round" stroke-miterlimit="10" stroke-width=".818" d="M504.661 398.648c14.474 0 26.208-11.734 26.208-26.208 0-14.474-11.734-26.208-26.208-26.208-14.474 0-26.208 11.734-26.208 26.208 0 14.474 11.734 26.208 26.208 26.208Z"/>
    <path stroke="#E86B31" stroke-linecap="round" stroke-linejoin="round" stroke-miterlimit="10" stroke-width=".818" d="M504.66 382.869v-10.428h23.006"/>
    <path fill="#fff" stroke="#E86B31" stroke-linecap="round" stroke-linejoin="round" stroke-miterlimit="10" stroke-width=".818" d="M507.217 337.938h-5.112v5.112h5.112v-5.112Zm0 63.962h-5.112v5.113h5.112V401.9Zm32.275-31.578h-5.111v5.113h5.111v-5.113Zm-64.318 0h-5.112v5.113h5.112v-5.113Z"/>
    <path fill="#FFBE55" d="m526.953 394.33 3.412 27.982 6.266-10.752 12.442.243-22.12-17.473Zm17.339 27.022H539.5v4.79h4.792v-4.79Z"/>
    <path stroke="#E86B31" stroke-linecap="round" stroke-linejoin="round" stroke-miterlimit="10" stroke-width=".818" d="M540.236 279.846h-61.338a5.1 5.1 0 0 1-5.101-5.101v-42.617a5.1 5.1 0 0 1 5.101-5.101h61.338a5.101 5.101 0 0 1 5.101 5.101v42.617a5.101 5.101 0 0 1-5.101 5.101Zm-66.127-13.631h70.914"/>
    <path stroke="#E86B31" stroke-linecap="round" stroke-linejoin="round" stroke-miterlimit="10" stroke-width=".818" d="M518.804 279.838H500.33v14.127h18.474v-14.127Zm5.73 14.156h-30.188v2.696h30.188v-2.696Z"/>
    <path stroke="#000" stroke-linecap="round" stroke-linejoin="round" stroke-miterlimit="10" stroke-width=".818" d="m54.443 352.418 15.629 149.758m-3.081-29.285-6.524-6.86"/>
    <path fill="#E86B31" stroke="#000" stroke-linejoin="round" stroke-miterlimit="10" stroke-width=".818" d="M62.62 468.273s.203-3.311-2.819-6.01c-1.818-1.624-11.39-5.652-12.298-2.281-.989 3.668 8.808 10.868 15.118 8.291Z"/>
    <path stroke="#000" stroke-linecap="round" stroke-linejoin="round" stroke-miterlimit="10" stroke-width=".818" d="m62.62 468.273-9.112-5.677m15.103 25.765-6.369-5.297"/>
    <path fill="#E86B31" stroke="#000" stroke-linejoin="round" stroke-miterlimit="10" stroke-width=".818" d="M64.396 485.306s.203-3.311-2.82-6.01c-1.818-1.625-11.39-5.651-12.298-2.28-.987 3.667 8.81 10.868 15.118 8.29Z"/>
    <path stroke="#000" stroke-linecap="round" stroke-linejoin="round" stroke-miterlimit="10" stroke-width=".818" d="m64.396 485.307-9.11-5.678m7.277-49.369-6.434-5.789"/>
    <path fill="#E86B31" stroke="#000" stroke-linejoin="round" stroke-miterlimit="10" stroke-width=".818" d="M58.283 426.712s.203-3.311-2.82-6.01c-1.82-1.624-11.39-5.651-12.298-2.28-.989 3.667 8.808 10.868 15.118 8.29Z"/>
    <path stroke="#000" stroke-linecap="round" stroke-linejoin="round" stroke-miterlimit="10" stroke-width=".818" d="m58.282 426.713-9.112-5.678m15.186 27.335-6.45-6.868"/>
    <path fill="#E86B31" stroke="#000" stroke-linejoin="round" stroke-miterlimit="10" stroke-width=".818" d="M60.06 443.743s.203-3.31-2.82-6.01c-1.818-1.624-11.39-5.651-12.298-2.28-.987 3.667 8.808 10.868 15.118 8.29Z"/>
    <path stroke="#000" stroke-linecap="round" stroke-linejoin="round" stroke-miterlimit="10" stroke-width=".818" d="m60.06 443.744-9.113-5.678m8.749-34.683-6.454-6.578"/>
    <path fill="#E86B31" stroke="#000" stroke-linejoin="round" stroke-miterlimit="10" stroke-width=".818" d="M55.396 399.046s.203-3.311-2.82-6.01c-1.818-1.624-11.39-5.651-12.298-2.28-.989 3.667 8.808 10.868 15.118 8.29Z"/>
    <path stroke="#000" stroke-linecap="round" stroke-linejoin="round" stroke-miterlimit="10" stroke-width=".818" d="m55.398 399.047-9.113-5.678m10.305-19.572-6.248-4.779"/>
    <path fill="#E86B31" stroke="#000" stroke-linejoin="round" stroke-miterlimit="10" stroke-width=".818" d="M52.496 371.259s.202-3.311-2.82-6.01c-1.82-1.625-11.39-5.651-12.298-2.28-.988 3.666 8.809 10.867 15.118 8.29Z"/>
    <path stroke="#000" stroke-linecap="round" stroke-linejoin="round" stroke-miterlimit="10" stroke-width=".818" d="m52.496 371.259-9.111-5.679m22.978 97.86 5.387-8.786"/>
    <path fill="#E86B31" stroke="#000" stroke-linejoin="round" stroke-miterlimit="10" stroke-width=".818" d="M70.106 457.292s-.883-3.198 1.518-6.463c1.444-1.965 9.977-7.88 11.562-4.77 1.723 3.384-6.374 12.451-13.08 11.233Z"/>
    <path stroke="#000" stroke-linecap="round" stroke-linejoin="round" stroke-miterlimit="10" stroke-width=".818" d="m70.107 457.291 6.411-6.016m-14.833-32.657 5.388-8.786"/>
    <path fill="#E86B31" stroke="#000" stroke-linejoin="round" stroke-miterlimit="10" stroke-width=".818" d="M65.428 412.472s-.882-3.197 1.518-6.463c1.444-1.965 8.12-6.886 9.705-3.775 1.723 3.384-4.518 11.456-11.223 10.238Z"/>
    <path stroke="#000" stroke-linecap="round" stroke-linejoin="round" stroke-miterlimit="10" stroke-width=".818" d="m65.43 412.471 8.204-7.842m-14.005-5.708 5.388-8.786"/>
    <path fill="#E86B31" stroke="#000" stroke-linejoin="round" stroke-miterlimit="10" stroke-width=".818" d="M63.373 392.774s-.882-3.197 1.518-6.462c1.444-1.966 9.978-7.882 11.563-4.77 1.723 3.382-6.376 12.451-13.08 11.232Z"/>
    <path stroke="#000" stroke-linecap="round" stroke-linejoin="round" stroke-miterlimit="10" stroke-width=".818" d="m63.373 392.775 8.205-7.843m-14.963-14.885 5.387-8.785"/>
    <path fill="#E86B31" stroke="#000" stroke-linejoin="round" stroke-miterlimit="10" stroke-width=".818" d="M60.36 363.901s-.882-3.197 1.517-6.463c1.444-1.965 9.978-7.88 11.563-4.77 1.724 3.383-6.375 12.451-13.08 11.233Z"/>
    <path stroke="#000" stroke-linecap="round" stroke-linejoin="round" stroke-miterlimit="10" stroke-width=".818" d="m60.36 363.9 8.205-7.843"/>
    <path fill="#E86B31" stroke="#000" stroke-linejoin="round" stroke-miterlimit="10" stroke-width=".818" d="M54.31 351.585s-.88-3.197 1.518-6.463c1.444-1.965 9.978-7.881 11.563-4.77 1.724 3.384-6.375 12.452-13.08 11.233Z"/>
    <path stroke="#000" stroke-linecap="round" stroke-linejoin="round" stroke-miterlimit="10" stroke-width=".818" d="m54.31 351.586 8.206-7.842"/>
    <path fill="#E86B31" stroke="#000" stroke-linejoin="round" stroke-miterlimit="10" stroke-width=".818" d="M54.787 351.924s-3.271.542-6.268-2.188c-1.803-1.642-6.79-10.748-3.53-11.999 3.545-1.359 11.714 7.646 9.798 14.187Z"/>
    <path stroke="#000" stroke-linecap="round" stroke-linejoin="round" stroke-miterlimit="10" stroke-width=".818" d="m54.786 351.923-6.938-8.982m30.008-30.884v189.389m17.809-128.405-15.54 149.768m3.282-30.599-3.594-4.11"/>
    <path fill="#E86B31" stroke="#000" stroke-linejoin="round" stroke-miterlimit="10" stroke-width=".818" d="M79.814 488.101s.88-3.197-1.522-6.462c-1.445-1.964-9.982-7.874-11.565-4.763-1.723 3.384 6.382 12.448 13.087 11.225Z"/>
    <path stroke="#000" stroke-linecap="round" stroke-linejoin="round" stroke-miterlimit="10" stroke-width=".818" d="m79.813 488.101-7.749-7.433m15.735-31.216-5.336-4.458"/>
    <path fill="#E86B31" stroke="#000" stroke-linejoin="round" stroke-miterlimit="10" stroke-width=".818" d="M84.126 446.537s.88-3.197-1.522-6.462c-1.445-1.964-9.982-7.875-11.565-4.763-1.722 3.385 6.382 12.448 13.087 11.225Z"/>
    <path stroke="#000" stroke-linecap="round" stroke-linejoin="round" stroke-miterlimit="10" stroke-width=".818" d="m84.126 446.538-7.747-7.433m9.727 30.61-5.393-8.781"/>
    <path fill="#E86B31" stroke="#000" stroke-linejoin="round" stroke-miterlimit="10" stroke-width=".818" d="M82.359 463.57s.88-3.198-1.523-6.462c-1.445-1.964-9.982-7.874-11.565-4.763-1.72 3.384 6.383 12.447 13.088 11.225Z"/>
    <path stroke="#000" stroke-linecap="round" stroke-linejoin="round" stroke-miterlimit="10" stroke-width=".818" d="m82.36 463.569-7.749-7.432m15.891-33.975-5.148-5.932"/>
    <path fill="#E86B31" stroke="#000" stroke-linejoin="round" stroke-miterlimit="10" stroke-width=".818" d="M87 418.868s.88-3.197-1.522-6.461c-1.446-1.964-9.982-7.875-11.566-4.763-1.723 3.384 6.382 12.447 13.087 11.224Z"/>
    <path stroke="#000" stroke-linecap="round" stroke-linejoin="round" stroke-miterlimit="10" stroke-width=".818" d="m86.998 418.869-7.748-7.433m13.953-15.281-4.967-7.714"/>
    <path fill="#E86B31" stroke="#000" stroke-linejoin="round" stroke-miterlimit="10" stroke-width=".818" d="M89.883 391.078s.88-3.197-1.523-6.462c-1.445-1.964-9.982-7.875-11.565-4.763-1.722 3.384 6.383 12.448 13.088 11.225Z"/>
    <path stroke="#000" stroke-linecap="round" stroke-linejoin="round" stroke-miterlimit="10" stroke-width=".818" d="m89.883 391.079-7.748-7.433m2.335 100.492 7.08-7.488"/>
    <path fill="#E86B31" stroke="#000" stroke-linejoin="round" stroke-miterlimit="10" stroke-width=".818" d="M89.4 478.894s-.206-3.31 2.816-6.011c1.818-1.626 11.386-5.657 12.296-2.287.991 3.665-8.803 10.872-15.113 8.298Z"/>
    <path stroke="#000" stroke-linecap="round" stroke-linejoin="round" stroke-miterlimit="10" stroke-width=".818" d="m89.4 478.894 9.643-5.986m-9.92-33.592 7.081-7.488"/>
    <path fill="#E86B31" stroke="#000" stroke-linejoin="round" stroke-miterlimit="10" stroke-width=".818" d="M94.052 434.072s-.205-3.31 2.816-6.011c1.818-1.625 11.387-5.657 12.297-2.287.99 3.665-8.802 10.871-15.113 8.298Z"/>
    <path stroke="#000" stroke-linecap="round" stroke-linejoin="round" stroke-miterlimit="10" stroke-width=".818" d="m94.055 434.072 9.644-5.984m-12.533-8.471 7.081-7.488"/>
    <path fill="#E86B31" stroke="#000" stroke-linejoin="round" stroke-miterlimit="10" stroke-width=".818" d="M96.095 414.373s-.205-3.31 2.816-6.011c1.818-1.626 11.387-5.658 12.297-2.287.99 3.665-8.802 10.872-15.113 8.298Z"/>
    <path stroke="#000" stroke-linecap="round" stroke-linejoin="round" stroke-miterlimit="10" stroke-width=".818" d="m96.096 414.373 9.644-5.984m-11.658-19.124 7.161-6.011"/>
    <path fill="#E86B31" stroke="#000" stroke-linejoin="round" stroke-miterlimit="10" stroke-width=".818" d="M99.095 385.497s-.205-3.311 2.816-6.012c1.818-1.625 11.387-5.658 12.297-2.287.99 3.665-8.803 10.873-15.113 8.299Z"/>
    <path stroke="#000" stroke-linejoin="round" stroke-miterlimit="10" stroke-width=".818" d="m99.094 385.496 9.642-5.984"/>
    <path fill="#E86B31" stroke="#000" stroke-linejoin="round" stroke-miterlimit="10" stroke-width=".818" d="M95.71 372.201s-.205-3.311 2.816-6.011c1.818-1.626 11.387-5.657 12.297-2.287.99 3.665-8.802 10.871-15.113 8.298Z"/>
    <path stroke="#000" stroke-linecap="round" stroke-linejoin="round" stroke-miterlimit="10" stroke-width=".818" d="m95.709 372.201 9.644-5.984"/>
    <path fill="#E86B31" stroke="#000" stroke-linejoin="round" stroke-miterlimit="10" stroke-width=".818" d="M96.106 372.63s-3.313-.143-5.684-3.431c-1.425-1.978-4.431-11.917-.985-12.469 3.75-.6 9.89 9.894 6.669 15.9Z"/>
    <path stroke="#000" stroke-linecap="round" stroke-linejoin="round" stroke-miterlimit="10" stroke-width=".818" d="m96.105 372.629-4.94-10.219M77.597 472.62l-5.86-7.829"/>
    <path fill="#E86B31" stroke="#000" stroke-linejoin="round" stroke-miterlimit="10" stroke-width=".818" d="M73.645 467.244s.545-3.272-2.18-6.271c-1.64-1.804-10.742-6.802-11.997-3.543-1.363 3.544 7.633 11.722 14.177 9.814Z"/>
    <path stroke="#000" stroke-linecap="round" stroke-linejoin="round" stroke-miterlimit="10" stroke-width=".818" d="m73.646 467.244-8.474-6.594M77.8 434.849l-6.064-5.65"/>
    <path fill="#E86B31" stroke="#000" stroke-linejoin="round" stroke-miterlimit="10" stroke-width=".818" d="M73.645 431.654s.545-3.272-2.18-6.271c-1.64-1.804-10.742-6.802-11.997-3.543-1.363 3.543 7.633 11.722 14.177 9.814Z"/>
    <path stroke="#000" stroke-linecap="round" stroke-linejoin="round" stroke-miterlimit="10" stroke-width=".818" d="m73.646 431.654-8.474-6.593m12.834-29.468-6.27-8.179"/>
    <path fill="#E86B31" stroke="#000" stroke-linejoin="round" stroke-miterlimit="10" stroke-width=".818" d="M73.645 389.867s.545-3.272-2.18-6.271c-1.64-1.804-10.742-6.802-11.997-3.543-1.363 3.543 7.633 11.722 14.177 9.814Z"/>
    <path stroke="#000" stroke-linecap="round" stroke-linejoin="round" stroke-miterlimit="10" stroke-width=".818" d="m73.646 389.867-8.474-6.594m12.425-18.391-5.86-5.284"/>
    <path fill="#E86B31" stroke="#000" stroke-linejoin="round" stroke-miterlimit="10" stroke-width=".818" d="M73.645 362.05s.545-3.271-2.18-6.27c-1.64-1.804-10.742-6.802-11.997-3.544-1.363 3.545 7.633 11.723 14.177 9.814Z"/>
    <path stroke="#000" stroke-linecap="round" stroke-linejoin="round" stroke-miterlimit="10" stroke-width=".818" d="m73.646 362.051-8.474-6.592m12.763-18.41-6.08-4.457"/>
    <path fill="#E86B31" stroke="#000" stroke-linejoin="round" stroke-miterlimit="10" stroke-width=".818" d="M73.645 334.113s.545-3.272-2.18-6.271c-1.64-1.804-10.742-6.802-11.997-3.543-1.363 3.543 7.633 11.722 14.177 9.814Z"/>
    <path stroke="#000" stroke-linecap="round" stroke-linejoin="round" stroke-miterlimit="10" stroke-width=".818" d="m73.646 334.113-8.474-6.593m13.912 154.555 5.053-6.419"/>
    <path fill="#E86B31" stroke="#000" stroke-linejoin="round" stroke-miterlimit="10" stroke-width=".818" d="M82.228 478.111s-.545-3.271 2.18-6.27c1.641-1.804 10.742-6.802 11.995-3.545 1.364 3.545-7.632 11.724-14.175 9.815Z"/>
    <path stroke="#000" stroke-linecap="round" stroke-linejoin="round" stroke-miterlimit="10" stroke-width=".818" d="m82.228 478.112 8.976-6.948M77.867 427.23l6.27-8.179"/>
    <path fill="#E86B31" stroke="#000" stroke-linejoin="round" stroke-miterlimit="10" stroke-width=".818" d="M82.228 421.505s-.545-3.271 2.18-6.27c1.641-1.804 10.742-6.802 11.995-3.544 1.364 3.544-7.632 11.723-14.175 9.814Z"/>
    <path stroke="#000" stroke-linecap="round" stroke-linejoin="round" stroke-miterlimit="10" stroke-width=".818" d="m82.228 421.505 8.976-6.948m-13.337-15.266 6.27-8.178"/>
    <path fill="#E86B31" stroke="#000" stroke-linejoin="round" stroke-miterlimit="10" stroke-width=".818" d="M82.228 393.567s-.545-3.271 2.18-6.271c1.641-1.804 10.742-6.803 11.995-3.544 1.364 3.545-7.632 11.723-14.175 9.815Z"/>
    <path stroke="#000" stroke-linecap="round" stroke-linejoin="round" stroke-miterlimit="10" stroke-width=".818" d="m82.228 393.567 8.976-6.948m-13.337-24.253 6.27-8.178"/>
    <path fill="#E86B31" stroke="#000" stroke-linejoin="round" stroke-miterlimit="10" stroke-width=".818" d="M82.228 356.641s-.545-3.271 2.18-6.269c1.641-1.804 10.742-6.802 11.995-3.545 1.364 3.545-7.632 11.723-14.175 9.814Z"/>
    <path stroke="#000" stroke-linecap="round" stroke-linejoin="round" stroke-miterlimit="10" stroke-width=".818" d="m82.228 356.641 8.976-6.948m-13.067-19.195 6.146-4.797"/>
    <path fill="#E86B31" stroke="#000" stroke-linejoin="round" stroke-miterlimit="10" stroke-width=".818" d="M82.23 327.609s-.545-3.271 2.18-6.271c1.642-1.804 10.742-6.802 11.995-3.543 1.364 3.543-7.632 11.721-14.175 9.814Z"/>
    <path stroke="#000" stroke-linecap="round" stroke-linejoin="round" stroke-miterlimit="10" stroke-width=".818" d="m82.228 327.609 8.976-6.949"/>
    <path fill="#E86B31" stroke="#000" stroke-linejoin="round" stroke-miterlimit="10" stroke-width=".818" d="M77.492 314.732s-.546-3.271 2.18-6.271c1.64-1.804 10.742-6.802 11.995-3.543 1.364 3.545-7.631 11.722-14.175 9.814Z"/>
    <path stroke="#000" stroke-linecap="round" stroke-linejoin="round" stroke-miterlimit="10" stroke-width=".818" d="m77.49 314.731 8.975-6.948"/>
    <path fill="#E86B31" stroke="#000" stroke-linejoin="round" stroke-miterlimit="10" stroke-width=".818" d="M77.93 315.117s-3.31.2-6.007-2.826c-1.622-1.821-5.638-11.396-2.266-12.301 3.666-.983 10.856 8.821 8.273 15.127Z"/>
    <path stroke="#000" stroke-linecap="round" stroke-linejoin="round" stroke-miterlimit="10" stroke-width=".818" d="m77.93 315.118-5.97-9.653"/>
    <path fill="#000" stroke="#000" stroke-linecap="round" stroke-linejoin="round" stroke-miterlimit="10" stroke-width=".818" d="M85.649 550.565H65.59l-2.507-50.655h25.072l-2.507 50.655Z"/>
    <path fill="#0B4870" stroke="#fff" stroke-linejoin="round" stroke-miterlimit="10" stroke-width=".818" d="m321.333 332.135 8.852 22.13h-23.318v3.984h50.316l-13.003-26.296-22.847.182Z"/>
    <path fill="#0B4870" stroke="#fff" stroke-linejoin="round" stroke-miterlimit="10" stroke-width=".818" d="m319.192 332.135 8.853 22.13h-23.318v3.984h50.317l-13.004-26.296-22.848.182Z"/>
    <path fill="#0B4870" stroke="#fff" stroke-linejoin="round" stroke-miterlimit="10" stroke-width=".818" d="M393.569 332.353H268.175a4.224 4.224 0 0 1-4.22-4.406l4.088-94.664a4.931 4.931 0 0 1 4.926-4.719h125.432a4.436 4.436 0 0 1 4.432 4.628l-4.067 94.183a5.202 5.202 0 0 1-5.197 4.978Z"/>
    <path fill="#0B4870" stroke="#E3F7FF" stroke-linejoin="round" stroke-miterlimit="10" stroke-width=".818" d="M387.149 332.353H261.755a4.224 4.224 0 0 1-4.22-4.406l4.088-94.664a4.931 4.931 0 0 1 4.926-4.719h125.432a4.436 4.436 0 0 1 4.432 4.628l-4.067 94.183a5.201 5.201 0 0 1-5.197 4.978Z"/>
    <path fill="#fff" stroke="#000" stroke-linejoin="round" stroke-miterlimit="10" stroke-width=".818" d="M387.012 310.672H264.338l3.359-77.781h122.674l-3.359 77.781Z" opacity=".8"/>
    <path fill="#fff" stroke="#FFBE55" stroke-linecap="round" stroke-linejoin="round" stroke-miterlimit="10" stroke-width=".818" d="M312.749 266.41c.397-8.89-6.796-16.024-15.847-15.401-7.546.518-13.949 6.55-14.917 14.065-.551 4.275.658 8.223 3.019 11.214 2.153 2.726 3.242 6.165 3.083 9.714l-.095 2.116h16.691l.095-2.116c.159-3.546 1.549-6.985 3.944-9.706 2.357-2.677 3.858-6.124 4.027-9.886Zm-8.249 25.842h-16.691l.184-4.129h16.691l-.184 4.129Zm-4.315 4.14h-8.434a3.913 3.913 0 0 1-3.944-4.128h16.691c-.103 2.28-2.033 4.128-4.313 4.128Z"/>
    <path fill="#fff" stroke="#FFBE55" stroke-linecap="round" stroke-linejoin="round" stroke-miterlimit="10" stroke-width=".818" d="M297.895 300.514h-4.222a3.914 3.914 0 0 1-3.944-4.129h12.478c-.102 2.281-2.032 4.129-4.312 4.129Z"/>
    <path stroke="#FFBE55" stroke-linecap="round" stroke-linejoin="round" stroke-miterlimit="10" stroke-width=".818" d="M314.936 266.49h7.071m-50.068 0h7.164m18.674-17.942.318-7.093m12.272 12.214 5.101-4.882m-36.988 35.406 5.176-4.953m.937-25.712-4.531-4.741m33.825 35.405-4.51-4.721"/>
    <path fill="#E86B31" stroke="#fff" stroke-linecap="round" stroke-linejoin="round" stroke-miterlimit="10" stroke-width=".818" d="M370.61 266.41c.397-8.89-6.796-16.024-15.847-15.401-7.546.518-13.948 6.55-14.916 14.065-.551 4.275.657 8.223 3.019 11.214 2.152 2.726 3.241 6.165 3.082 9.714l-.095 2.116h16.692l.095-2.116c.158-3.546 1.548-6.985 3.944-9.706 2.357-2.677 3.858-6.124 4.026-9.886Zm-8.247 25.842H345.67l.185-4.129h16.692l-.184 4.129Zm-4.317 4.14h-8.434a3.913 3.913 0 0 1-3.944-4.128h16.692c-.102 2.28-2.033 4.128-4.314 4.128Z"/>
    <path fill="#E86B31" stroke="#fff" stroke-linecap="round" stroke-linejoin="round" stroke-miterlimit="10" stroke-width=".818" d="M355.756 300.514h-4.222a3.914 3.914 0 0 1-3.944-4.129h12.479c-.101 2.281-2.033 4.129-4.313 4.129Z"/>
    <path stroke="#E86B31" stroke-linecap="round" stroke-linejoin="round" stroke-miterlimit="10" stroke-width=".818" d="M372.797 266.49h7.072m-50.068 0h7.163m18.675-17.942.317-7.093m12.273 12.214 5.101-4.882m-36.988 35.406 5.175-4.953m.936-25.712-4.529-4.741m33.825 35.405-4.511-4.721"/>
    <path fill="#0B4870" stroke="#fff" stroke-linejoin="round" stroke-miterlimit="10" stroke-width=".818" d="M387.149 332.352H261.755a4.224 4.224 0 0 1-4.22-4.405l.526-12.176h134.787l-.502 11.604a5.201 5.201 0 0 1-5.197 4.977Z"/>
    <path fill="#000" stroke="#000" stroke-linejoin="round" stroke-miterlimit="10" stroke-width=".818" d="M426.287 361.236H361.77v189.346h64.517V361.236Z"/>
    <path fill="#7D7D7D" stroke="#000" stroke-linejoin="round" stroke-miterlimit="10" stroke-width=".818" d="M430.496 361.236h-64.517v189.346h64.517V361.236Z"/>
    <path fill="#000" stroke="#000" stroke-linejoin="round" stroke-miterlimit="10" stroke-width=".818" d="M430.496 361.236h-64.517v9.939h64.517v-9.939Z"/>
    <path fill="#000" stroke="#000" stroke-linejoin="round" stroke-miterlimit="10" stroke-width=".818" d="M240.448 361.236H175.93v189.346h64.518V361.236Z" opacity=".2"/>
    <path fill="#7D7D7D" stroke="#000" stroke-linejoin="round" stroke-miterlimit="10" stroke-width=".818" d="M244.657 361.236h-64.518v189.346h64.518V361.236Z"/>
    <path fill="#000" stroke="#000" stroke-linejoin="round" stroke-miterlimit="10" stroke-width=".818" d="M446.912 357.836h-280.1v6.419h280.1v-6.419Z" opacity=".2"/>
    <path fill="#fff" stroke="#000" stroke-linejoin="round" stroke-miterlimit="10" stroke-width=".818" d="M446.913 357.836h-84.294v6.419h84.294v-6.419Zm-104.184-.06-.131-.334a13.573 13.573 0 0 0-12.636-8.62h-5.356a13.57 13.57 0 0 0-11.604 6.534l-1.469 2.42h31.196Z"/>
    <path fill="#E4897B" stroke="#000" stroke-linejoin="round" stroke-miterlimit="10" stroke-width=".818" d="m229.313 214.998-.053 2.14c-.076 3.155-.215 8.825-.215 10.162 0 1.873-2.941 4.547-2.941 6.419 0 1.872 1.605 7.755 2.139 9.628.535 1.872-4.814 3.476-4.814 3.476s-2.406 8.825-5.884 10.965c-3.476 2.14-10.43 0-11.767-.267-1.338-.268-5.617-1.605-5.617-1.605l-.267 13.638-22.197-9.092 1.691-14.944.182-1.636s.802-12.569-.268-18.721c-1.872-10.751 2.408-24.604 18.988-28.08 16.58-3.476 26.743 7.221 28.615 9.628 1.873 2.405 2.408 8.289 2.408 8.289Z"/>
    <path stroke="#000" stroke-linejoin="round" stroke-miterlimit="10" stroke-width=".818" d="m202.57 228.637 29.417 2.942m-4.278-1.337 5.616.535s-.802 7.488-6.419 7.488m-6.686 10.16s-2.407.268-4.011-3.743m8.558-13.104-1.605 3.476m0-7.217s1.873-2.942 4.814.802"/>
    <path fill="#472E05" stroke="#472E05" stroke-linejoin="round" stroke-miterlimit="10" stroke-width=".818" d="m229.311 214.997-.053 2.14a12.43 12.43 0 0 1-.396-.374s-7.318-6.644-12.302-7.638c-4.985-.995-3.658 6.311-2.653 7.638.995 1.337 7.638 3.99 4.312 6.322a392.39 392.39 0 0 1-6.312 4.322l-2.107 5.627a2.754 2.754 0 0 1-3.295 1.691 2.753 2.753 0 0 1-1.776-1.509c-.899-1.979-2.717-5.915-3.455-7.146-.995-1.659-7.574.588-6.986 6.985.407 4.354 3.456 5.776 3.456 5.776s3.198 2.193-4.119 6.846c-7.306 4.653-9.97 5.316-13.629.674a17.797 17.797 0 0 1-.61-.835l.182-1.636s.802-12.569-.268-18.721c-1.872-10.75 2.408-24.604 18.988-28.08 16.58-3.476 26.743 7.221 28.616 9.628 1.872 2.406 2.407 8.29 2.407 8.29Z"/>
    <path fill="#A99495" stroke="#000" stroke-linejoin="round" stroke-miterlimit="10" stroke-width=".818" d="M291.749 525.346s11.054 3.922 17.472 3.565c6.419-.356 11.411-3.209 12.836-.713 1.427 2.497-1.426 6.419-2.14 7.844-.713 1.427-14.619 4.992-19.255 7.132-4.635 2.139-16.758 6.062-21.751 6.776-4.992.713-7.132-12.125-7.132-12.125l19.97-12.479Z"/>
    <path fill="#fff" stroke="#000" stroke-linejoin="round" stroke-miterlimit="10" stroke-width=".818" d="M294.959 541.39c-8.187 2.642-16.564 4.498-20.361 5.285 1.09 2.027 2.517 3.53 4.316 3.274 4.992-.713 17.115-4.635 21.75-6.775 4.636-2.14 18.542-5.706 19.255-7.132.714-1.427 3.566-5.349 2.14-7.845-5.348 10.341-16.046 9.628-27.1 13.193Z"/>
    <path fill="#455A64" stroke="#455A64" stroke-linejoin="round" stroke-miterlimit="10" stroke-width=".818" d="m245.395 427.644 26.386 110.183s5.349-.357 11.054-2.853c5.705-2.496 7.488-3.922 8.914-5.705 1.427-1.783-.356-7.844-.356-8.914 0-1.07-3.209-2.496-3.209-2.496L278.2 423.01l-32.805 4.634Z"/>
    <path fill="#A99495" stroke="#000" stroke-linejoin="round" stroke-miterlimit="10" stroke-width=".818" d="M267.778 528.342s4.279 6.776 8.201 8.915c3.922 2.14 7.488 3.565 9.628 3.565 2.14 0 3.922 4.279 4.278 5.706.357 1.426.357 3.565.357 3.565h-32.805s-19.968-2.495-21.752-7.132c-1.783-4.636 11.768-22.107 11.768-22.107l20.325 7.488Z"/>
    <path fill="#fff" stroke="#000" stroke-linejoin="round" stroke-miterlimit="10" stroke-width=".818" d="M290.021 547.22c-7.678-.078-24.891-.437-33.298-2.118-7.319-1.464-15.971-4.096-20.707-5.612-.477 1.443-.644 2.659-.33 3.473 1.783 4.636 21.75 7.132 21.75 7.132h32.805c0-.002-.002-1.539-.22-2.875Z"/>
    <path fill="#455A64" stroke="#455A64" stroke-linejoin="round" stroke-miterlimit="10" stroke-width=".818" d="m217.99 378.488 9.984 8.915s43.146 3.208 58.122 3.922c14.977.713 24.961 4.992 24.604 12.123-.356 7.132-41.977 119.069-41.977 119.069l-.052 6.526s-1.784 1.784-9.628 0c-7.844-1.783-12.836-5.348-12.836-5.348s-1.427-6.775 2.14-9.628c3.565-2.852 7.441-20.406 7.441-20.406l14.62-70.602H161.652s-6.419-17.829-2.14-39.581c0 .002 37.797 7.133 58.478-4.99Z"/>
    <path fill="url(#b)" d="M204.16 271.544s-7.708-5.78-17.103-11.081c-9.394-5.299-11.562-2.649-16.379.241-4.818 2.891-26.016 16.621-27.702 21.197-1.686 4.577 0 10.359 0 10.359s8.19 50.585 10.358 70.82c2.168 20.233 8.432 30.351 21.679 31.796 13.249 1.445 34.205-5.781 39.746-8.913 5.54-3.131 6.022-1.927 5.54-7.95-.482-6.021-5.781-27.461-6.503-32.278-.723-4.817-.241-15.657-.241-15.657s5.058-24.33 1.204-37.579c-3.854-13.247-10.599-20.955-10.599-20.955Z"/>
    <path fill="#E4897B" stroke="#000" stroke-linejoin="round" stroke-miterlimit="10" stroke-width=".818" d="m271.564 338.551 38.778 8.022s11.233-6.151 14.174-6.418c2.941-.268 9.36 4.546 10.698 5.081 1.337.535 2.674 2.674 3.208 4.546.535 1.873 2.674 1.338.803 2.942-1.873 1.605-4.279-1.605-4.279-1.605s-5.349.267-8.29 1.872c-2.941 1.605-6.686 4.011-10.698 4.546-4.011.535-9.092-.802-9.092-.802l-39.313-2.941s5.349-8.557 4.011-15.243Z"/>
    <path stroke="#000" stroke-linejoin="round" stroke-miterlimit="10" stroke-width=".818" d="M328.795 348.177s3.209-1.07 5.349-.267c2.14.802 4.279 1.872 4.279 1.872"/>
    <path fill="url(#c)" d="M200.427 270.891s7.22 1.605 11.767 6.151c4.547 4.546 35.568 50.009 36.638 50.812 1.07.802 17.383 9.36 17.383 9.36s1.338 7.755-1.07 10.43c-2.406 2.674-8.29 6.151-8.29 6.151s-14.441-1.605-18.988-2.674c-4.546-1.07-45.73-34.499-45.73-34.499"/>
    <path fill="#E86B31" d="M259.528 333.203s2.674 7.221.268 12.302c-2.407 5.081-6.687 8.29-6.687 8.29s12.302 2.14 14.709 2.14 6.687-10.43 6.419-15.779c-.267-5.349-14.709-6.953-14.709-6.953Z"/>
    <path stroke="#878787" stroke-linejoin="round" stroke-miterlimit="10" stroke-width=".818" d="M270.406 423.059s11.768-3.209 21.395-10.698m-14.619 8.914s10.341-1.427 16.046-5.349"/>
    <path fill="#fff" stroke="#000" stroke-linejoin="round" stroke-miterlimit="10" stroke-width=".818" d="M222.479 424.02s-29.565-48.167-37.299-115.364c-1.83-15.896-14.584-27.871-29.76-27.871-17.922 0-31.835 16.47-29.783 35.255 3.205 29.34 10.298 72.139 25.891 109.159l70.951-1.179Z"/>
    <path fill="#000" stroke="#000" stroke-linejoin="round" stroke-miterlimit="10" stroke-width=".818" d="M218.381 424.02s-29.565-48.167-37.299-115.364c-1.829-15.896-14.583-27.871-29.759-27.871-17.923 0-31.836 16.47-29.784 35.255 3.205 29.34 10.298 72.139 25.892 109.159l70.95-1.179Z" opacity=".2"/>
    <path fill="#000" stroke="#000" stroke-linejoin="round" stroke-miterlimit="10" stroke-width=".818" d="M219.543 433.143h-14.752v80.784h14.752v-80.784Z"/>
    <path fill="#000" stroke="#000" stroke-linejoin="round" stroke-miterlimit="10" stroke-width=".818" d="M224.107 499.525H199.17v17.913h24.937v-17.913Z"/>
    <path fill="#fff" stroke="#000" stroke-linejoin="round" stroke-miterlimit="10" stroke-width=".818" d="m199.52 508.658-46.713 28.802v5.269h4.566v-3.512l41.796-21.778.351-8.781Z"/>
    <path fill="#000" stroke="#000" stroke-linejoin="round" stroke-miterlimit="10" stroke-width=".818" d="M164.397 543.784a6.322 6.322 0 1 0-12.645-.001 6.322 6.322 0 0 0 12.645.001Z"/>
    <path fill="#fff" stroke="#000" stroke-linejoin="round" stroke-miterlimit="10" stroke-width=".818" d="m224.107 508.658 46.714 28.802v5.269h-4.566v-3.512l-41.797-21.778-.351-8.781Z"/>
    <path fill="#000" stroke="#000" stroke-linejoin="round" stroke-miterlimit="10" stroke-width=".818" d="M259.23 543.784a6.323 6.323 0 1 1 12.646 0 6.323 6.323 0 0 1-12.646 0Zm-53.386-.002a6.322 6.322 0 1 1 12.645-.001 6.322 6.322 0 0 1-12.645.001Z"/>
    <path fill="#fff" stroke="#000" stroke-linejoin="round" stroke-miterlimit="10" stroke-width=".818" d="M213.922 508.309h-3.863v29.152h3.863v-29.152Zm34.66-126.745-9.98 42.077 7.285 1.728 9.981-42.077-7.286-1.728Z"/>
    <path fill="#000" stroke="#000" stroke-linejoin="round" stroke-miterlimit="10" stroke-width=".818" d="M270.408 385.262h-42.79a5.348 5.348 0 0 1-5.348-5.349 5.348 5.348 0 0 1 5.348-5.349h42.79a5.348 5.348 0 0 1 5.348 5.349 5.348 5.348 0 0 1-5.348 5.349Z" opacity=".2"/>
    <path fill="#000" stroke="#000" stroke-linejoin="round" stroke-miterlimit="10" stroke-width=".818" d="M270.05 436.254H150.597a6.42 6.42 0 0 1 0-12.838H270.05a6.42 6.42 0 0 1 0 12.838Z"/>
    <path fill="#fff" stroke="#000" stroke-linejoin="round" stroke-miterlimit="10" stroke-width=".818" d="M270.05 436.254h-51.703a6.42 6.42 0 0 1 0-12.838h51.703a6.42 6.42 0 0 1 0 12.838Z"/>
    <path fill="#FFBE55" d="M472.054 99.387c0-20.048-16.944-36.14-37.292-34.735-16.966 1.17-30.796 14.774-32.223 31.721-.811 9.643 2.313 18.547 7.94 25.291a34.206 34.206 0 0 1 7.932 21.91v4.771h37.644v-4.771a34.134 34.134 0 0 1 7.916-21.889 34.67 34.67 0 0 0 8.083-22.298Z"/>
    <path fill="#fff" stroke="#FFBE55" stroke-linecap="round" stroke-linejoin="round" stroke-miterlimit="10" stroke-width="2.453" d="M456.052 148.354h-37.644v9.311h37.644v-9.311Zm-5.471 18.647H423.88a5.471 5.471 0 0 1-5.472-5.472v-3.84h37.644v3.84a5.47 5.47 0 0 1-5.471 5.472Z"/>
    <path fill="#fff" stroke="#FFBE55" stroke-linecap="round" stroke-linejoin="round" stroke-miterlimit="10" stroke-width="2.453" d="M443.883 176.302h-13.298a7.424 7.424 0 0 1-7.423-7.423v-1.889h28.144v1.889a7.423 7.423 0 0 1-7.423 7.423Z"/>
    <path stroke="#E86B31" stroke-linecap="round" stroke-linejoin="round" stroke-miterlimit="10" stroke-width="2.453" d="M476.996 99.568h15.95m-112.923 0h16.157m40.304-40.465V43.107m28.914 27.549 11.011-11.012m-79.847 79.851 11.172-11.173m-.479-57.984-10.693-10.693m-68.293 39.74c0-20.048-16.944-36.14-37.292-34.735-16.966 1.17-30.796 14.774-32.223 31.721-.812 9.643 2.313 18.547 7.939 25.291a34.201 34.201 0 0 1 7.933 21.91v4.771h37.644v-4.771c0-7.998 2.788-15.752 7.916-21.889a34.664 34.664 0 0 0 8.083-22.298Zm-15.998 48.967h-37.644v9.311h37.644v-9.311Zm-5.471 18.647h-26.702a5.471 5.471 0 0 1-5.471-5.472v-3.839h37.644v3.839a5.47 5.47 0 0 1-5.471 5.472Z"/>
    <path stroke="#E86B31" stroke-linecap="round" stroke-linejoin="round" stroke-miterlimit="10" stroke-width="2.453" d="M300.098 176.3H286.8a7.423 7.423 0 0 1-7.423-7.423v-1.889h28.144v1.889a7.423 7.423 0 0 1-7.423 7.423Z"/>
    <path stroke="#FFBE55" stroke-linejoin="round" stroke-miterlimit="10" stroke-width=".818" d="M253.023 99.568h80.818m-40.509 56.462V59.102m-28.754 69.218 57.667-57.666m.363 58.19L264.1 70.336m29.334 86.149c31.466 0 56.974-25.509 56.974-56.975S324.9 42.535 293.434 42.535c-31.467 0-56.975 25.509-56.975 56.975s25.508 56.975 56.975 56.975Z"/>
    <path stroke="#FFBE55" stroke-linejoin="round" stroke-miterlimit="10" stroke-width=".818" d="M293.434 139.918c22.317 0 40.408-18.091 40.408-40.408s-18.091-40.408-40.408-40.408-40.409 18.091-40.409 40.408 18.092 40.408 40.409 40.408Z"/>
    <path stroke="#E86B31" stroke-linecap="round" stroke-linejoin="round" stroke-miterlimit="10" stroke-width="2.453" d="M333.215 99.566h15.95m-112.925 0h16.155M292.701 59.1V43.106m28.914 27.548 11.012-11.011m-79.848 79.85 11.172-11.173m-.48-57.984-10.692-10.693m79.847 79.85-10.647-10.649"/>
    <path stroke="#FFBE55" stroke-linejoin="round" stroke-miterlimit="10" stroke-width=".818" d="M150.532 134.207c19.231 0 34.821-15.59 34.821-34.822 0-19.23-15.59-34.82-34.821-34.82-19.231 0-34.821 15.59-34.821 34.82 0 19.232 15.59 34.822 34.821 34.822Z"/>
    <path stroke="#E86B31" stroke-linejoin="round" stroke-miterlimit="10" stroke-width=".818" d="M169.355 105.051h-37.644v43.29h37.644v-43.29Zm0 43.303h-37.644v9.311h37.644v-9.311Zm0 9.334h-37.644v9.311h37.644v-9.311Z"/>
    <path stroke="#E86B31" stroke-linejoin="round" stroke-miterlimit="10" stroke-width=".818" d="M164.605 166.988h-28.144v9.312h28.144v-9.312Z"/>
    <path stroke="#FFBE55" stroke-linejoin="round" stroke-miterlimit="10" stroke-width=".818" d="M93.992 99.635h112.932m-56.612 56.962V43.113m-40.175 96.683 80.581-80.546m-.255 80.353-80.481-80.126m40.551 97.008c31.467 0 56.975-25.509 56.975-56.975S182 42.535 150.533 42.535c-31.466 0-56.974 25.509-56.974 56.975s25.508 56.975 56.974 56.975Z"/>
    <path stroke="#E86B31" stroke-linejoin="round" stroke-miterlimit="10" stroke-width=".818" d="M150.531 139.918c22.317 0 40.409-18.091 40.409-40.408s-18.092-40.408-40.409-40.408c-22.316 0-40.408 18.091-40.408 40.408s18.092 40.408 40.408 40.408Z"/>
    <path fill="#8B5A09" d="M537.548 584.396H75.644c-3.104 0-5.644-2.54-5.644-5.644v-22.108c0-3.104 2.54-5.644 5.644-5.644h461.904c3.105 0 5.645 2.54 5.645 5.644v22.108c0 3.104-2.54 5.644-5.645 5.644Z"/>
  </g>
  <defs>
    <linearGradient id="b" x1="214" x2="148.786" y1="438.5" y2="303.907" gradientUnits="userSpaceOnUse">
      <stop stop-color="#FB8D48"/>
      <stop offset=".2" stop-color="#ED7136"/>
      <stop offset=".4" stop-color="#C54E47"/>
      <stop offset=".4" stop-color="#C14F49"/>
      <stop offset=".6" stop-color="#9D3863"/>
      <stop offset=".8" stop-color="#5E1F72"/>
    </linearGradient>
    <linearGradient id="c" x1="282.5" x2="185.223" y1="374" y2="323.167" gradientUnits="userSpaceOnUse">
      <stop stop-color="#FB8D48"/>
      <stop offset=".2" stop-color="#ED7136"/>
      <stop offset=".4" stop-color="#C54E47"/>
      <stop offset=".4" stop-color="#C14F49"/>
      <stop offset=".6" stop-color="#9D3863"/>
      <stop offset=".8" stop-color="#5E1F72"/>
    </linearGradient>
    <clipPath id="a">
      <path fill="#fff" d="M0 0h579v579H0z"/>
    </clipPath>
  </defs>
</svg>
