<svg xmlns="http://www.w3.org/2000/svg" width="465" height="383" fill="none" viewBox="0 0 465 383">
  <path fill="#E86B31" d="M465 336.477H0v.256h465v-.256Zm-357.742 9.761H84.125v.257h23.133v-.257Z"/>
  <path fill="#EBEBEB" d="M167.243 343.455h-25.575v.256h25.575v-.256Zm-68.874 12.303h-54.04v.256h54.04v-.256Z"/>
  <path fill="#E86B31" d="M418.413 354.037h-20.085v.256h20.085v-.256Z"/>
  <path fill="#EBEBEB" d="M225.729 345.436h-25.975v.256h25.975v-.256Z"/>
  <path fill="#E86B31" d="M344.928 349.707h-65.307v.256h65.307v-.256Zm-124.502-58.955H40.844c-2.927 0-5.309-2.626-5.309-5.852V6.627c0-3.226 2.382-5.852 5.309-5.852h179.582c2.925 0 5.307 2.626 5.307 5.852V284.9c0 3.226-2.382 5.852-5.307 5.852ZM40.844 1.032c-2.8 0-5.076 2.51-5.076 5.596v278.273c0 3.086 2.276 5.595 5.076 5.595h179.582c2.798 0 5.075-2.509 5.075-5.595V6.627c0-3.085-2.277-5.595-5.075-5.595H40.844Zm380.736 289.72H241.999c-2.927 0-5.308-2.626-5.308-5.852V6.627c0-3.226 2.382-5.852 5.308-5.852H421.58c2.928 0 5.308 2.626 5.308 5.852V284.9c.001 3.226-2.38 5.852-5.308 5.852ZM241.999 1.032c-2.798 0-5.075 2.51-5.075 5.596v278.273c0 3.086 2.277 5.595 5.075 5.595H421.58c2.799 0 5.076-2.509 5.076-5.595V6.627c0-3.085-2.277-5.595-5.076-5.595H241.999Z"/>
  <path fill="#E6E6E6" d="M197.152 30.047H55.481v194.522h141.671V30.047Z"/>
  <path fill="#F5F5F5" d="M200.29 30.047H56.945v194.522H200.29V30.047Z"/>
  <path fill="#E6E6E6" d="M57.443 27.393h141.611c.682 0 1.24-.615 1.24-1.366 0-.752-.558-1.367-1.24-1.367H57.443c-.682 0-1.24.615-1.24 1.367 0 .751.558 1.366 1.24 1.366Zm139.709 197.175H55.481v2.709h141.671v-2.709Z"/>
  <path fill="#F5F5F5" d="M214.649 224.568H78.176v2.709h136.473v-2.709Z"/>
  <path fill="#FFBE55" d="M195.895 218.274V36.342H61.343v181.932h134.552Z" opacity=".5"/>
  <path fill="#fff" d="m108.078 218.274 10.376-181.932h18.667l-10.376 181.932h-18.667Zm23.945 0 10.376-181.932h8.662l-10.376 181.932h-8.662Z"/>
  <path fill="#E6E6E6" d="M195.895 157.954V35.492h-.558v122.462h.558Zm-28.643 99.3H150.82v79.22h16.432v-79.22Z"/>
  <path fill="#F5F5F5" d="M160.134 336.475h7.115V323.33h-7.288l.173 13.145Z"/>
  <path fill="#613D03" d="M72.522 257.254H56.09v79.22h16.432v-79.22Z"/>
  <path fill="#F5F5F5" d="M167.244 257.254H66.309v74.696h100.935v-74.696Z"/>
  <path fill="#F5F5F5" d="M73.425 336.475h-7.116V323.33h7.288l-.172 13.145Z"/>
  <path fill="#613D03" d="M161.724 263.539H71.828v27.55h89.896v-27.55Z"/>
  <path fill="#fff" d="M116.783 282.032c-4.024 0-7.299-3.61-7.299-8.046s3.275-8.047 7.299-8.047c4.025 0 7.3 3.61 7.3 8.047 0 4.437-3.274 8.046-7.3 8.046Zm0-15.244c-3.599 0-6.529 3.229-6.529 7.198 0 3.969 2.929 7.197 6.529 7.197s6.53-3.228 6.53-7.197c0-3.968-2.929-7.198-6.53-7.198Z"/>
  <path fill="#613D03" d="M161.724 297.742H71.828v27.551h89.896v-27.551Z"/>
  <path fill="#fff" d="M116.78 316.236c-4.025 0-7.3-3.61-7.3-8.047 0-4.437 3.275-8.046 7.3-8.046s7.3 3.609 7.3 8.046c0 4.437-3.274 8.047-7.3 8.047Zm0-15.244c-3.6 0-6.529 3.23-6.529 7.197 0 3.969 2.928 7.198 6.529 7.198s6.53-3.228 6.53-7.198c0-3.967-2.929-7.197-6.53-7.197Z"/>
  <path fill="#613D03" d="M277.21 336.469h56.075v-91.624H277.21v91.624Z"/>
  <path fill="#8F5903" d="M406.985 244.848h-73.7v91.623h73.7v-91.623Z"/>
  <path fill="#E6E6E6" d="M277.209 246.533h129.775v-9.49H277.209v9.49Z" opacity=".7"/>
  <path fill="#613D03" d="M274.382 244.848h58.903v-8.773h-58.903v8.773Z"/>
  <path fill="#8F5903" d="M409.813 236.074h-76.528v8.773h76.528v-8.773Z"/>
  <path fill="#613D03" d="M209.939 336.473h45.875v-56.555h-45.875v56.555Z"/>
  <path fill="#8F5903" d="M316.108 279.914h-60.294v56.554h60.294v-56.554Z"/>
  <path fill="#E6E6E6" d="M209.935 281.297h106.169v-7.764H209.935v7.764Z" opacity=".7"/>
  <path fill="#503303" d="M207.624 279.918h48.188v-7.176h-48.188v7.176Z"/>
  <path fill="#8F5903" d="M318.42 272.742h-62.608v7.177h62.608v-7.177Z"/>
  <path fill="#E6E6E6" d="M383.735 44.621h-93.524v159.494h93.524V44.621Z"/>
  <path fill="#F5F5F5" d="M391.732 44.621H291.566v159.494h100.166V44.621Z"/>
  <path fill="#FFBE55" d="M297.953 191.535V57.201c0-3.059 2.25-5.539 5.025-5.539h77.342c2.776 0 5.025 2.48 5.025 5.54v134.334c0 3.06-2.249 5.54-5.025 5.54h-77.342c-2.775-.001-5.025-2.481-5.025-5.541Z" opacity=".4"/>
  <path fill="#E86B31" d="m360.3 109.561-5.234-5.77-32.087 35.372 5.234 5.769 32.087-35.371Z" opacity=".5"/>
  <path fill="#F5F5F5" d="m347.117 95.016-5.234-5.77-32.087 35.372 5.234 5.769 32.087-35.371Z"/>
  <path fill="#E86B31" d="m373.499 124.109-5.233-5.769-32.087 35.372 5.233 5.769 32.087-35.372Z" opacity=".5"/>
  <path fill="#F5F5F5" d="M232.504 382.777c99.586 0 180.317-5.197 180.317-11.608 0-6.411-80.731-11.608-180.317-11.608-99.586 0-180.316 5.197-180.316 11.608 0 6.411 80.73 11.608 180.316 11.608Z" opacity=".3"/>
  <path fill="#E86B31" d="m234.037 298.618 1.056-3.968h-51.159l-19.282 72.414h9.331l9.272-34.822h12.347l9.272 34.822h10.937l9.272-34.822h12.347l9.272 34.822h5.559l-18.224-68.446Zm-50.044 30.854 5.435-20.414 5.436 20.414h-10.871Zm24.464 30.168-7.296-27.398h14.591l-7.295 27.398Zm8.033-30.168h-16.066l-8.216-30.854.319-1.199h32.497l-8.534 32.053Zm9.33 0 5.436-20.414 5.436 20.414H225.82Z"/>
  <path fill="#000" d="m234.037 298.618 1.056-3.968h-51.159l-19.282 72.414h9.331l9.272-34.822h12.347l9.272 34.822h10.937l9.272-34.822h12.347l9.272 34.822h5.559l-18.224-68.446Zm-50.044 30.854 5.435-20.414 5.436 20.414h-10.871Zm24.464 30.168-7.296-27.398h14.591l-7.295 27.398Zm8.033-30.168h-16.066l-8.216-30.854.319-1.199h32.497l-8.534 32.053Zm9.33 0 5.436-20.414 5.436 20.414H225.82Z" opacity=".2"/>
  <path fill="#E86B31" d="M237.009 294.65h-47.388l19.282 72.414h5.559l-9.272-34.822h36.268l9.272 34.822h5.56l-19.281-72.414Zm-32.555 34.822-8.535-32.053h36.268l8.535 32.053h-36.268Z"/>
  <path fill="#fff" d="M237.009 294.65h-47.388l19.282 72.414h5.559l-9.272-34.822h36.268l9.272 34.822h5.56m-51.836-37.592-8.535-32.053h36.268l8.535 32.053h-36.268Z" opacity=".4"/>
  <path fill="#263238" d="M236.031 34.57s2.057-5.383 13.253-4.101c8.145.933 13.093 10.593 12.474 24.262-.621 13.67-5.696 19.562-5.696 19.562l-26.695-15.304s-1.818-22.625 6.664-24.42Z"/>
  <path fill="#263238" d="M260.086 49.006v21.189c4.185-19.08 0-21.19 0-21.19Z"/>
  <path fill="#263238" d="m258.728 40.457 4.352 20.638c-.971-23.106-5.499-24.173-4.352-20.638Z"/>
  <path fill="#E4897B" d="M258.032 92.256c.675 1.99 1.396 4.126 2.162 6.16a148.95 148.95 0 0 0 2.351 6.104c.842 1.993 1.706 3.955 2.632 5.84.47.938.95 1.852 1.449 2.736.239.464.514.851.768 1.283l.347.56c.046.077.099.154.169.232.262.309.757.654 1.425.925.666.271 1.484.454 2.345.568 1.74.234 3.666.186 5.607.025 1.95-.154 3.932-.457 5.911-.851 1.979-.354 3.996-.837 5.922-1.321l1.259 3.869c-3.96 1.968-7.98 3.428-12.309 4.418-2.166.47-4.4.79-6.807.731-1.206-.048-2.458-.183-3.782-.565-1.315-.383-2.747-1.029-4.042-2.244a8.58 8.58 0 0 1-.914-.998c-.167-.205-.232-.305-.325-.432l-.269-.374c-.348-.5-.737-.995-1.049-1.504l-.975-1.522-.895-1.547a76.857 76.857 0 0 1-3.166-6.304 125.815 125.815 0 0 1-2.674-6.454c-.806-2.2-1.582-4.335-2.27-6.666l7.13-2.67Z"/>
  <path fill="#E4897B" d="m288.621 119.174 4.607 1.318.791-6.947s-4.71-.062-6.96 2.224l1.562 3.405Zm10.402 1.716-.653-5.128-4.35-2.217-.79 6.947 5.793.398Z"/>
  <path fill="#8B373A" d="m299.023 120.895-.654-5.128-1.982-1.011-2.367 5.794 5.003.345Z" opacity=".5"/>
  <path fill="#E86B31" d="M245.098 86.66c.285 2.67 2.046 7.803 3.476 11.642a200.989 200.989 0 0 0 1.897 4.858l1.39-.575 11.511-4.793c-.587-6.885-1.685-14.41-8.265-18.204-4.135-2.388-10.513 2.305-10.009 7.072Z"/>
  <path fill="#000" d="M248.578 98.302a206.176 206.176 0 0 0 1.897 4.858l1.391-.575c-.078-2.71-.387-6.99-1.617-8.997-.863 1.327-1.378 2.996-1.671 4.714Z" opacity=".3"/>
  <path fill="#E4897B" d="m205.227 286.439 7.456.779 2.004-18.97-7.457-.779-2.003 18.97Zm-61.387-22.241 6.001 4.989 11.952-13.895-6.002-4.989-11.951 13.895Z"/>
  <path fill="#263238" d="m151.026 268.499-4.309-8.019c-.157-.293-.463-.405-.737-.272l-6.096 2.967c-.632.307-.878 1.255-.506 1.92 1.545 2.766 2.414 4.014 4.309 7.539 1.166 2.17 3.463 7.164 5.073 10.16 1.574 2.93 4.313 1.344 3.88-.068-1.944-6.329-1.746-9.914-1.36-12.766a2.425 2.425 0 0 0-.254-1.461Zm62.615 16.251h-8.879c-.322 0-.608.247-.686.595l-1.733 7.744c-.18.804.375 1.542 1.122 1.549 3.13.031 4.613-.243 8.517-.243 2.402 0 8.617.258 11.935.258 3.244 0 3.83-3.615 2.48-3.942-6.057-1.469-9.578-3.494-11.485-5.426a1.783 1.783 0 0 0-1.271-.535Z"/>
  <path fill="#000" d="m214.691 268.25-1.032 9.778h-7.542l1.113-10.557 7.461.779Zm-58.899-17.941 6.003 4.99-6.163 7.16-6.003-4.99 6.163-7.16Z" opacity=".2"/>
  <path fill="url(#a)" d="M209.715 113.699c5.464 2.376 17.072 7.42 28.297 12.303 21.613-42.595 18.872-45.141 18.872-45.141s-4.47-3.277-9.145-6.076a68.84 68.84 0 0 0-2.13-1.231c-4.052-2.25-8.006-3.78-12.847-5.596-.644-.245-1.29-.467-1.936-.69-5.523-1.856-10.664-2.774-10.664-2.774-.67 6.07-1.302 11.2-1.948 15.65-.835 5.807-1.674 10.44-2.564 14.435-1.673 7.428-3.53 12.654-5.935 19.12Z"/>
  <path fill="#000" d="M215.645 94.58c2.929-4.183 5.97-14.126 5.44-17.986l-2.876 3.552c-.836 5.806-1.674 10.44-2.564 14.434Z" opacity=".3"/>
  <path fill="#E86B31" d="M251.265 75.664c-1.179-6.95-20.292-12.104-20.292-12.104l10.843 20.704 1.708.764s8.524-4.743 7.741-9.364Z"/>
  <path fill="#000" d="M251.265 75.664c-1.179-6.95-20.292-12.104-20.292-12.104l10.843 20.704 1.708.764s8.524-4.743 7.741-9.364Z" opacity=".3"/>
  <path fill="#E4897B" d="M237.968 59.02c-1.09 3.945-2.772 7.804-5.213 8.937 0 0-1.308 10.29 7.263 20.067 9.699-6.483 5.587-14.477 5.587-14.477-4.207-3.23-3.178-6.671-.067-11.807l-3.155-3.163c-1.044-2.107-3.788-1.825-4.415.443Z"/>
  <path fill="#E86B31" d="m230.439 67.144.53-3.582s4.417 2.62 6.251 6.864c1.834 4.243-.99 12.24-.99 12.24l-6.863-7.23 1.072-8.293Z"/>
  <path fill="#8B373A" d="M242.378 58.574c-.985-1.987-3.492-1.848-4.292.095.859 3.425 2.234 6.48 4.825 8.932.307-1.713 1.266-3.631 2.619-5.864l-3.152-3.163Z" opacity=".5"/>
  <path fill="#E4897B" d="M234.938 44.854c.207 8.262.137 11.76 3.722 16.216 5.392 6.701 14.388 4.83 16.383-3.281 1.797-7.3 1.157-19.586-5.936-23.307-6.987-3.665-14.376 2.109-14.169 10.372Z"/>
  <path fill="#263238" d="M235.656 37.643c5.568 6.501 16.2 2.563 16.2 2.563l5.563 3.727-2.956-7.4-6.546-4.215s-15.116 1.993-12.261 5.325Z"/>
  <path fill="#263238" d="M236.261 35.082s2.635 2.392 4.495 7.518c1.86 5.126-5.565 9.051-5.565 9.051s-6.059-7 1.07-16.569Z"/>
  <path fill="#E4897B" d="M233.047 52.408c.304 1.685 1.272 3.073 2.329 3.857 1.59 1.179 2.933-.236 2.951-2.241.016-1.806-.793-4.593-2.611-4.97-1.789-.37-3.017 1.427-2.669 3.354Z"/>
  <path fill="#455A64" d="M238.01 126.004s-5.016 41.644-8.679 73.667c-2.911 25.457-13.541 74.526-13.541 74.526l-10.892-1.189s4.556-55.676 8.723-73.546c-2.576-36.753-9.315-72.339 1.686-83.524l22.703 10.066Z"/>
  <path fill="#E86B31" d="m203.121 270.078 14.359.481-.785 5.405-13.43-.225-.144-5.661Z"/>
  <path fill="#000" d="m220.141 147.521-10.881-9.986c-.381 12.846 1.525 29.454 3.134 47.108 5.497-12.682 9.32-26.307 7.747-37.122Z" opacity=".3"/>
  <path fill="#455A64" d="M231.807 123.414s-20.167 46.334-28.234 77.229c-10.085 24.438-43.96 59.442-43.96 59.442l-7.711-7.596s27.065-50.043 36.277-58.533c4.41-35.783 7.854-70.145 21.541-80.257l22.087 9.715Z"/>
  <path fill="#E86B31" d="m159.242 262.831-10.019-9.151 2.603-4.942 10.979 10.635-3.563 3.458Zm50.66-151.163-2.204 2.264c-.171.175-.011.5.316.641l29.677 12.909c.255.111.512.063.587-.108l1.182-2.707c.082-.188-.085-.449-.364-.571l-28.656-12.465c-.211-.09-.429-.076-.538.037Z"/>
  <path fill="#fff" d="m209.902 111.668-2.204 2.264c-.171.175-.011.5.316.641l29.677 12.909c.255.111.512.063.587-.108l1.182-2.707c.082-.188-.085-.449-.364-.571l-28.656-12.465c-.211-.09-.429-.076-.538.037Z" opacity=".2"/>
  <path fill="#263238" d="m212.576 116.907-.768-.334c-.152-.066-.241-.205-.194-.307l1.564-3.507c.046-.102.209-.132.361-.065l.767.334c.153.067.241.205.195.308l-1.565 3.506c-.045.102-.208.132-.36.065Zm22.859 9.941-.768-.334c-.152-.067-.24-.205-.194-.308l1.564-3.505c.046-.103.209-.132.361-.066l.767.334c.153.067.241.205.195.308l-1.565 3.505c-.045.103-.208.132-.36.066Zm-11.434-4.97-.767-.334c-.152-.067-.241-.205-.194-.308l1.564-3.506c.046-.102.208-.132.361-.065l.767.334c.153.066.241.205.194.307l-1.564 3.506c-.044.103-.207.133-.361.066Zm21.683-74.013c-.019.67.281 1.233.673 1.258.391.024.724-.5.744-1.17.019-.671-.281-1.234-.672-1.259-.391-.024-.724.502-.745 1.17Zm6.762.416c-.019.67.281 1.233.673 1.258.39.023.723-.5.744-1.17.019-.671-.281-1.234-.673-1.259-.391-.024-.724.5-.744 1.171Z"/>
  <path fill="#263238" d="m253.02 47.135 1.45-.375s-.774 1.212-1.45.375Z"/>
  <g filter="url(#b)">
    <path fill="#ED847E" d="M250.298 51.067s.188 3.087.879 4.765c-.978.557-2.159-.212-2.159-.212l1.28-4.553Z"/>
  </g>
  <path fill="#263238" d="M248.701 60.528a.192.192 0 0 0 .113-.175c.003-.108-.073-.202-.17-.208-2.618-.162-3.79-2.293-3.802-2.315-.051-.094-.162-.125-.242-.072-.083.055-.109.175-.059.27.051.094 1.275 2.337 4.09 2.51a.155.155 0 0 0 .07-.01Zm-3.602-15.276a.347.347 0 0 0 .147-.116c.986-1.342 2.276-1.178 2.289-1.176.191.028.365-.126.386-.342.02-.217-.12-.413-.314-.441-.068-.01-1.683-.216-2.908 1.449a.431.431 0 0 0 .052.555.324.324 0 0 0 .348.07Zm11.62-.125a.426.426 0 0 0-.097-.6c-1.694-1.113-3.141-.325-3.203-.291-.172.096-.239.333-.148.528.089.194.301.274.473.18.054-.03 1.186-.624 2.534.26.15.099.335.062.441-.077Z"/>
  <path fill="#E86B31" d="M152.184 272.793a.992.992 0 0 0 .113.046c.321.105.639.015.944-.27a.723.723 0 0 0 .239-.626c-.115-1.06-2.515-2.373-2.788-2.519a.158.158 0 0 0-.191.03.218.218 0 0 0-.051.211c.291 1.014.894 2.726 1.734 3.128Zm-1.264-2.797c.947.556 2.152 1.437 2.212 1.996.007.07.002.165-.114.271-.213.199-.417.263-.624.195-.485-.158-1.024-1.068-1.474-2.462Z"/>
  <path fill="#E86B31" d="M150.706 269.872c.825.395 2.635.656 3.214.051.119-.125.293-.403.11-.857a.948.948 0 0 0-.584-.578c-1.024-.356-2.845.891-2.921.945a.206.206 0 0 0-.084.173.2.2 0 0 0 .091.169c.051.033.109.066.174.097Zm2.706-.976a.593.593 0 0 1 .3.335c.093.231.034.336-.029.402-.38.397-1.836.295-2.68-.052.626-.379 1.731-.925 2.341-.713a.572.572 0 0 1 .068.028Zm64.204 17.472c.686 0 1.322-.117 1.722-.457.273-.233.417-.549.427-.94.007-.292-.125-.451-.236-.533-.822-.6-3.806.913-4.396 1.223a.193.193 0 0 0-.096.197c.01.083.068.151.142.17.648.158 1.581.34 2.437.34Zm1.371-1.689c.153 0 .273.026.351.083.037.028.075.071.073.186-.008.276-.104.489-.294.651-.51.435-1.736.492-3.333.168 1.077-.523 2.491-1.088 3.203-1.088Z"/>
  <path fill="#E86B31" d="M215.217 286.036a.156.156 0 0 0 .067-.015c.991-.452 2.966-2.238 2.829-3.161-.03-.202-.162-.457-.62-.517-1.773-.231-2.427 3.303-2.454 3.453a.21.21 0 0 0 .063.192.167.167 0 0 0 .115.048Zm2.124-3.313c.039 0 .079.003.12.008.187.025.289.086.303.181.079.535-1.282 1.947-2.287 2.565.211-.854.801-2.754 1.864-2.754Z"/>
  <path fill="#263238" d="m246.258 46.719 1.451-.375s-.775 1.212-1.451.375Z"/>
  <path fill="#E4897B" d="M220.171 77.921a347.221 347.221 0 0 0-8.936 9.464 126.23 126.23 0 0 0-4.198 4.905c-1.338 1.639-2.63 3.345-3.613 4.967-.485.766-.892 1.668-.951 1.91-.017.038-.005.009-.018.009.008-.036-.008-.135-.007-.024-.007.129-.01.257.001.386.015.26.067.529.15.824.322 1.191 1.447 2.642 2.846 3.895 2.832 2.542 6.63 4.575 10.301 6.249l-.904 3.989a31.826 31.826 0 0 1-3.294-.722 30.628 30.628 0 0 1-3.21-1.021c-2.115-.813-4.248-1.747-6.291-3.17-1.021-.711-2.044-1.516-2.991-2.546-.946-1.024-1.856-2.265-2.517-3.823-.331-.775-.58-1.63-.73-2.52a10.682 10.682 0 0 1-.143-1.351 7.444 7.444 0 0 1 .01-.895c.029-.287.062-.607.113-.85.194-1.043.477-1.808.761-2.51a21.94 21.94 0 0 1 .906-1.903c1.258-2.329 2.636-4.249 4.037-6.146 1.41-1.879 2.881-3.645 4.365-5.384a148.372 148.372 0 0 1 9.298-9.92l5.015 6.188Z"/>
  <path fill="#E4897B" d="m212.812 113.72 3.702 5.363 3.725-5.643s-3.493-3.483-6.552-3.414l-.875 3.694Z"/>
  <path fill="#E4897B" d="m219.574 122.597 2.59-4.32-1.928-4.836-3.724 5.643 3.062 3.513Z"/>
  <path fill="#E86B31" d="M220.156 64.493c-3.722-.466-11.461 9.261-11.461 9.261l6.948 13.525s10.292-8.03 9.913-13.165c-.334-4.546-.658-9.028-5.4-9.621Zm85.635 127.393-2.232 4.259.804.512 2.233-4.259-.805-.512Zm10.354-19.798-8.086 15.426.804.512 8.086-15.426-.804-.512Z"/>
  <path fill="url(#c)" d="M342.252 73.975 277.573 106.4h25.042L216.93 269.885h45.283L347.9 106.4h25.042l-30.69-32.425Z"/>
  <path fill="#E86B31" d="M262.211 269.884h-45.276l-30.806-58.782h45.277l30.805 58.782Z"/>
  <path fill="#000" d="M262.211 269.884h-45.276l-30.806-58.782h45.277l30.805 58.782Z" opacity=".3"/>
  <path fill="url(#d)" d="M231.407 211.1h-45.284l-85.685 163.485h45.283L231.407 211.1Z"/>
  <defs>
    <linearGradient id="a" x1="246.5" x2="235.123" y1="67.502" y2="119.751" gradientUnits="userSpaceOnUse">
      <stop stop-color="#FB8D48"/>
      <stop offset=".2" stop-color="#ED7136"/>
      <stop offset=".4" stop-color="#C54E47"/>
      <stop offset=".4" stop-color="#C14F49"/>
      <stop offset=".6" stop-color="#9D3863"/>
      <stop offset=".8" stop-color="#5E1F72"/>
    </linearGradient>
    <linearGradient id="c" x1="219.643" x2="373.493" y1="158.325" y2="160.701" gradientUnits="userSpaceOnUse">
      <stop stop-color="#FB8D48"/>
      <stop offset=".2" stop-color="#ED7136"/>
      <stop offset=".4" stop-color="#C54E47"/>
      <stop offset=".4" stop-color="#C14F49"/>
      <stop offset=".6" stop-color="#9D3863"/>
      <stop offset=".8" stop-color="#5E1F72"/>
    </linearGradient>
    <linearGradient id="d" x1="102.715" x2="231.869" y1="281.489" y2="283.496" gradientUnits="userSpaceOnUse">
      <stop stop-color="#FB8D48"/>
      <stop offset=".2" stop-color="#ED7136"/>
      <stop offset=".4" stop-color="#C54E47"/>
      <stop offset=".4" stop-color="#C14F49"/>
      <stop offset=".6" stop-color="#9D3863"/>
      <stop offset=".8" stop-color="#5E1F72"/>
    </linearGradient>
    <filter id="b" width="2.16" height="8.969" x="249.018" y="51.066" color-interpolation-filters="sRGB" filterUnits="userSpaceOnUse">
      <feFlood flood-opacity="0" result="BackgroundImageFix"/>
      <feBlend in="SourceGraphic" in2="BackgroundImageFix" result="shape"/>
      <feColorMatrix in="SourceAlpha" result="hardAlpha" values="0 0 0 0 0 0 0 0 0 0 0 0 0 0 0 0 0 0 127 0"/>
      <feOffset dy="4"/>
      <feGaussianBlur stdDeviation="2"/>
      <feComposite in2="hardAlpha" k2="-1" k3="1" operator="arithmetic"/>
      <feColorMatrix values="0 0 0 0 0 0 0 0 0 0 0 0 0 0 0 0 0 0 0.25 0"/>
      <feBlend in2="shape" result="effect1_innerShadow_1391_358197"/>
    </filter>
  </defs>
</svg>
