<svg xmlns="http://www.w3.org/2000/svg" width="315" height="327" fill="none" viewBox="0 0 315 327">
  <path fill="#E86B31" d="M254.376-.002H61.172v178.093h193.204V-.002Z"/>
  <path fill="#E7F3FF" d="M251.785 20.232H63.758v151.489h188.027V20.232Z" opacity=".8"/>
  <path fill="#CDF3FF" d="M71.015 9.707c0 1.554-.896 2.814-2.002 2.814-1.105 0-2.001-1.26-2.001-2.814s.896-2.814 2.001-2.814c1.106 0 2.002 1.26 2.002 2.814Zm7.305 0c0 1.554-.896 2.814-2.001 2.814-1.106 0-2.003-1.26-2.003-2.814s.897-2.814 2.003-2.814c1.105 0 2.001 1.26 2.001 2.814Zm7.3 0c0 1.554-.895 2.814-2.001 2.814-1.105 0-2.002-1.26-2.002-2.814s.896-2.814 2.002-2.814c1.106 0 2.002 1.26 2.002 2.814Z"/>
  <path fill="#FFBE55" d="M153.52 41.148h-48.825v5.154h48.825v-5.154Zm-30.378 29.817H74.316v5.153h48.826v-5.153Zm30.375-18.219h-79.2v2.577h79.2v-2.577Zm0 3.861h-79.2v5.154h79.2v-5.154Zm-17.54 14.358h-9.426v5.153h9.426v-5.153Zm-50.359 65.148h-5.477v25.537h5.477v-25.537Zm12.398-48.687H92.54v74.222h5.477V87.426Zm12.395 32.457h-5.477v41.766h5.477v-41.766Zm12.394 19.476h-5.477v22.291h5.477v-22.291Zm12.402-35.707h-5.477v57.995h5.477v-57.995Zm12.392 16.231h-5.478v41.766h5.478v-41.766Zm12.398 16.23h-5.477v25.537h5.477v-25.537Z"/>
  <path fill="#fff" d="M203.786 57.832c-16.289 0-29.493 18.566-29.493 41.468 0 22.902 13.204 41.469 29.493 41.469 16.288 0 29.493-18.567 29.493-41.469s-13.205-41.468-29.493-41.468Zm0 62.861c-8.404 0-15.214-9.578-15.214-21.392s6.81-21.392 15.214-21.392c8.402 0 15.215 9.578 15.215 21.392s-6.813 21.392-15.215 21.392Z"/>
  <path fill="#FFBE55" d="M217.988 91.695a29.154 29.154 0 0 1 1.007 7.608c0 9.594-4.491 17.712-10.679 20.425l6.617 17.966c10.758-6.184 18.341-21.039 18.341-38.391 0-6.545-1.082-12.732-3.003-18.237l-12.283 10.629Zm-14.199-13.787c5.823 0 10.877 4.605 13.435 11.361l12.171-10.532c-5.083-12.486-14.642-20.905-25.606-20.905-12.259 0-22.767 10.515-27.219 25.479l13.089 8.09c2.236-7.902 7.713-13.493 14.13-13.493Z"/>
  <path fill="#E86B31" d="M203.786 120.692c-8.404 0-15.214-9.578-15.214-21.392 0-1.863.185-3.66.504-5.383l-13.171-8.14a56.808 56.808 0 0 0-1.612 13.522c0 22.903 13.204 41.468 29.493 41.468 3.281 0 6.433-.764 9.383-2.155l-6.728-18.267c-.864.215-1.748.347-2.655.347Z"/>
  <path fill="#E4897B" d="m178.774 292.379-.876 15.973L173 314.91l12.442-1.338.754-23.285-7.422 2.092Z"/>
  <path fill="#455A64" d="M179.9 183.606s-1.45 38.234-1.524 64.361c-.073 26.126-1.536 58.856-1.536 58.856s3.297 2.812 9.166-1.731c0 0 5.248-40.275 5.7-60.763.452-20.488 5.022-41.146 6.827-67.024l-18.633 6.301Z"/>
  <path fill="#160E3F" d="M174.459 311.113s.743-4.657 1.855-3.674c1.111.981 1.094 4.4 1.094 4.4s4.061 1.634 8.789-.07c0 0-.354 5.638-.927 6.85-.574 1.216-19.942 2.475-20.843 2.218-.899-.255-.214-2.47 10.032-9.724Z"/>
  <path fill="#E7F3FF" d="M185.624 318.487c-.052-.271-.251-.438-.448-.367-3.471 1.28-10.34 1.815-15.25 2.022-.106-2.6-1.466-4.89-1.466-4.89-4.479 2.81-4.532 5.332-4.532 5.332a.669.669 0 0 0 .098.557.406.406 0 0 0 .123.104c.392.198 15.66-.078 21.214-2.129.195-.069.312-.353.261-.629Z"/>
  <path fill="#E7F3FF" d="M169.867 314.587c.627.157 1.337 1.226 1.417 2.114.058.655.791.613.732-.05-.121-1.338-1.028-2.832-1.995-3.071-.464-.117-.62.891-.154 1.007Zm1.584-1.385c.707.55 1.265 1.479 1.473 2.588.121.643.822.331.7-.309-.259-1.368-.968-2.519-1.841-3.199-.412-.321-.745.598-.332.92Zm1.749-1.238c.737.477 1.466 1.167 1.619 2.364.083.653.781.334.7-.309-.185-1.449-1.089-2.393-1.986-2.975-.428-.277-.763.64-.333.92Z"/>
  <path fill="#E4897B" d="m190.166 289.477 2.251 20.603-5.327 6.545 13.187-.522-.408-24.779-9.703-1.847Z"/>
  <path fill="#1C145F" d="M189.1 311.843s.743-4.657 1.855-3.673c1.111.979 1.094 4.398 1.094 4.398s4.06 1.634 8.789-.07c0 0-.354 5.639-.927 6.85-.574 1.216-19.942 2.475-20.843 2.219-.9-.254-.215-2.47 10.032-9.724Z"/>
  <path fill="#E7F3FF" d="M200.265 319.217c-.053-.272-.251-.437-.448-.368-3.471 1.282-10.34 1.817-15.25 2.022-.107-2.6-1.467-4.889-1.467-4.889-4.478 2.809-4.532 5.332-4.532 5.332a.67.67 0 0 0 .099.556c.036.043.076.08.122.104.393.198 15.661-.079 21.214-2.129.196-.07.312-.354.262-.628Z"/>
  <path fill="#E7F3FF" d="M184.508 315.317c.626.157 1.336 1.228 1.416 2.114.058.657.79.614.732-.05-.121-1.338-1.028-2.831-1.995-3.071-.463-.116-.619.891-.153 1.007Zm1.584-1.383c.707.551 1.265 1.482 1.473 2.588.12.644.821.331.7-.309-.26-1.368-.969-2.519-1.841-3.199-.412-.32-.746.598-.332.92Zm1.749-1.24c.737.478 1.465 1.167 1.618 2.365.084.653.781.336.7-.309-.185-1.45-1.089-2.394-1.986-2.977-.428-.274-.763.643-.332.921Z"/>
  <path fill="#455A64" d="M186.614 180.448s-2.96 38.044-2.288 64.54c.661 26.106 5.688 61.928 5.688 61.928s4.69 4.321 10.768.446c0 0-2.005-44.298-.528-64.677.848-11.701 12.467-38.581 9.082-66.119l-22.722 3.882Z"/>
  <path fill="#160E3F" d="M203.234 182.496a.204.204 0 0 1-.063-.011c-.141-.05-.225-.249-.191-.447l.319-1.783c.035-.197.174-.318.318-.267.141.05.225.25.189.448l-.317 1.781c-.031.167-.137.279-.255.279Z"/>
  <path fill="#E86B31" d="M195.341 299.71c-.131 0-.244-.139-.26-.326-.086-1.079-.181-2.28-.28-3.583-.016-.203.088-.382.232-.404.141-.018.273.123.288.326.1 1.3.194 2.499.281 3.576.017.203-.087.386-.23.409-.011.002-.02.002-.031.002Zm-.599-7.878c-.132 0-.246-.142-.259-.331a856.198 856.198 0 0 1-.249-3.586c-.013-.203.092-.381.237-.401.142-.013.271.13.285.333.083 1.235.166 2.431.248 3.58.014.202-.091.383-.235.403-.009.002-.018.002-.027.002Zm-.525-7.885c-.133 0-.248-.146-.26-.336a815.393 815.393 0 0 1-.212-3.592c-.012-.203.096-.379.24-.395.144-.014.27.134.282.337.069 1.213.14 2.411.212 3.586.012.203-.094.381-.238.398-.008.002-.016.002-.024.002Zm-.442-7.896c-.136 0-.251-.149-.261-.344a672.545 672.545 0 0 1-.169-3.594c-.009-.205.101-.378.245-.391.155-.018.269.142.278.345.053 1.199.108 2.398.168 3.588.01.203-.098.38-.243.394-.005.002-.012.002-.018.002Zm-.339-7.909c-.138 0-.254-.152-.261-.35-.042-1.207-.08-2.409-.111-3.6-.005-.204.108-.375.252-.382.166-.001.267.153.272.356.031 1.187.068 2.386.11 3.591.007.203-.105.375-.249.385h-.013Zm-.198-7.915c-.142 0-.259-.16-.262-.361a276.882 276.882 0 0 1-.027-3.607c0-.203.117-.367.262-.367.145 0 .262.164.262.367.001 1.174.01 2.373.027 3.594.003.203-.112.371-.257.374h-.005Zm.015-7.915h-.008c-.145-.007-.259-.176-.255-.378.028-1.286.068-2.501.12-3.608.01-.203.139-.359.279-.344.144.014.254.189.244.392a138.16 138.16 0 0 0-.119 3.581c-.004.199-.12.357-.261.357Zm.417-7.893c-.011 0-.023 0-.035-.003-.143-.026-.244-.212-.225-.413.104-1.085.23-2.287.379-3.573.022-.2.154-.339.3-.304.142.032.239.22.216.421a182.015 182.015 0 0 0-.375 3.554c-.018.184-.131.318-.26.318Zm.898-7.822a.242.242 0 0 1-.047-.004c-.143-.039-.237-.229-.211-.429.147-1.145.306-2.328.472-3.546.028-.2.167-.328.307-.291.142.04.235.232.208.432a422.694 422.694 0 0 0-.472 3.536c-.023.179-.134.302-.257.302Zm1.069-7.78a.155.155 0 0 1-.052-.007c-.143-.04-.234-.235-.205-.434.167-1.159.341-2.337.519-3.53.031-.199.171-.329.31-.284.142.041.232.237.203.435a695.527 695.527 0 0 0-.518 3.526c-.025.173-.135.294-.257.294Zm1.159-7.753a.187.187 0 0 1-.056-.009c-.141-.043-.231-.238-.2-.437.18-1.17.362-2.345.547-3.521.031-.198.169-.323.311-.28.142.044.231.241.2.439-.185 1.177-.367 2.35-.547 3.517-.025.172-.134.291-.255.291Zm1.217-7.738a.171.171 0 0 1-.057-.01c-.14-.044-.229-.241-.197-.439.189-1.178.378-2.352.567-3.514.032-.198.171-.323.314-.277.141.046.228.244.197.44-.19 1.163-.38 2.334-.568 3.512-.027.172-.135.288-.256.288Zm1.259-7.724a.206.206 0 0 1-.059-.009c-.141-.046-.228-.245-.196-.442.196-1.19.393-2.36.585-3.508.033-.196.172-.326.315-.274.141.046.228.244.194.442l-.584 3.507c-.028.169-.136.284-.255.284Zm1.294-7.712a.168.168 0 0 1-.061-.011c-.141-.047-.227-.245-.194-.443.206-1.209.405-2.38.598-3.503.035-.198.176-.315.316-.272.141.05.227.247.193.444a2336.26 2336.26 0 0 0-.597 3.503c-.029.167-.137.282-.255.282Zm1.323-7.705a.173.173 0 0 1-.062-.011c-.14-.049-.226-.246-.192-.443.221-1.273.426-2.446.611-3.501.035-.197.173-.32.317-.27.14.049.226.248.191.446l-.611 3.499c-.029.168-.136.28-.254.28Z"/>
  <path fill="#160E3F" d="M195.852 305.738c-.129 0-.242-.136-.259-.32 0 0-.06-.651-.161-1.828-.018-.201.084-.384.227-.408.142-.031.275.118.291.32.102 1.172.162 1.82.162 1.821.018.202-.084.386-.227.412a.184.184 0 0 1-.033.003Z"/>
  <path fill="#E4897B" d="m190.563 106.249-.628-16.663-4.112.98-1.255-7.45-3.068-.685 4.531-16.272 11.643-2.352-.419 21.22 3.207 13.772-9.899 7.45Z"/>
  <path fill="#8B373A" d="m189.938 89.588.212 5.628 4.528-6.706-4.74 1.078Z"/>
  <path fill="#EF7E82" d="m181.5 82.432 3.068.686.759-1.093-3.827.407Z"/>
  <path fill="#8B373A" d="M189.36 82.259c-.01 1.188-.122 2.35-.596 3.36-.5 1.066-1.428 1.466-2.277 1.648-.217.047-.124.506.089.461.895-.192 1.826-.633 2.391-1.696.582-1.096.722-2.436.733-3.773.002-.309-.338-.309-.34 0Z"/>
  <path fill="#11003D" d="M186.956 71.658c.337-.04.823.099.95.607.072.289.401.165.327-.127-.179-.717-.772-1.02-1.277-.958-.217.027-.218.504 0 .478Zm-1.2 4.43c-.057.693.041 1.574.648 1.614.529.035.998-.687 1.238-1.266.128-.309-.212-.587-.339-.279-.182.44-.452.86-.817.984-.411.138-.364-.722-.337-1.053.028-.353-.365-.35-.393 0Z"/>
  <path fill="#472E03" d="M196.46 57.444s.093-3.07-2.822-2.831c-2.917.241-5.273 3.312-8.014 1.927-2.742-1.385-5.568-2.289-6.425 3.433-.856 5.72 5.764 12.707 15.475 8.672 0 0-1.627 9.512 1.064 11.652 2.693 2.14 7.318-6.412 7.789-13.58.472-7.165-4.754-11.2-7.067-9.273Z"/>
  <path fill="#33138C" d="M184.77 57.914c1.469 1.03 2.854 1.588 4.504 1.29 2.065-.372 3.723-2.932 5.845-1.745.313.176.449-.536.139-.71-1.376-.77-2.419-.262-3.699.611-2.26 1.54-4.296 1.48-6.526-.082-.3-.21-.565.424-.263.636Z"/>
  <path fill="#33138C" d="M187.734 63.444c1.428.222 2.877.168 4.225-.592 1.37-.772 2.364-2.273 3.884-2.566.333-.064.19-.773-.14-.71-1.016.197-1.829.848-2.687 1.608-1.263 1.12-2.462 1.61-3.963 1.65-2.951.081-5.57-1.705-7.13-5.22-.178-.4-.631-.032-.452.372 1.434 3.231 3.555 5.038 6.263 5.458Zm7.616.311c-2.016 1.841-3.653 3.512-6.161 3.654-2.493.14-4.821-1.461-6.777-3.491-.272-.282-.533.357-.264.636 1.977 2.05 4.147 3.412 6.622 3.588 2.744.194 4.657-1.753 6.843-3.752.283-.258.021-.896-.263-.636Zm1.464-.275c-.118-.44-.624-.25-.505.196 1.195 4.462-2.551 10.043-.049 14.053.223.357.592-.166.37-.521-1.293-2.073-.491-5.3-.018-7.65.411-2.047.752-4.023.202-6.078Z"/>
  <path fill="#33138C" d="M199.161 65.451c-.015-2.397-.567-4.251-2.091-5.427-.296-.23-.561.407-.265.635 2.364 1.824 1.988 6.08 1.558 9.29-.295 2.203-.895 4.094.226 6.019.213.367.582-.157.37-.522-.95-1.63-.389-3.507-.091-5.302.253-1.522.303-3.137.293-4.693Z"/>
  <path fill="#33138C" d="M202.445 64.944c-.434-3.382-1.852-5.38-4.1-6.513-.318-.16-.454.551-.139.71 2.516 1.27 3.843 3.922 3.78 7.727-.048 2.912-1.637 5.324-2.272 8.006-.107.451.399.644.505.196.819-3.46 2.726-6.222 2.226-10.126Z"/>
  <path fill="#E4897B" d="M201.09 79.49c0 2.892-1.668 5.237-3.725 5.237-2.057 0-3.724-2.345-3.724-5.238 0-2.893 1.667-5.237 3.724-5.237 2.057 0 3.725 2.344 3.725 5.237Z"/>
  <path fill="#8B373A" d="M198.777 76.838c-1.261-.235-2.369.097-3.126 1.62a5.372 5.372 0 0 0 .308 5.292c.149.226.388-.112.241-.338a4.281 4.281 0 0 1-.193-.325c.676-.3 1.096-1.197.975-2.212-.127-1.06-.818-1.243-1.425-.997a5.337 5.337 0 0 1 .629-1.626c.635-1.076 1.69-1.104 2.591-.936.217.04.215-.438 0-.478Zm-2.122 4.164c.126.81-.318 1.489-.844 1.672a4.692 4.692 0 0 1-.334-2.25c.486-.307 1.041-.29 1.178.578Z"/>
  <path fill="url(#a)" d="M188.025 110.056c-3.151 18.319-10.152 73.711-9.083 86.151 0 0 13.831 4.652 28.667-16.208 1.296-1.823 4.075 13.015 4.075 13.015s-.575-69.881-7.224-88.797c-5.523-15.715-14.525-5.263-16.435 5.839Z"/>
  <path fill="url(#b)" d="M204.457 104.217c-5.523-15.715-14.524-5.263-16.434 5.839a352.781 352.781 0 0 0-1.054 6.56c4.292 13.162 8.276 26.565 11.512 40.211 2.167 9.276 3.735 18.761 5.007 28.371a61.121 61.121 0 0 0 4.118-5.198c1.297-1.824 4.075 13.014 4.075 13.014s-.574-69.881-7.224-88.797Z"/>
  <path fill="#E86B31" d="M202.041 105.447c-.119 0-.226-.114-.255-.283a90.456 90.456 0 0 0-.312-1.773c-.038-.197.046-.398.185-.451.141-.052.284.065.321.26 0 0 .115.608.315 1.795.034.197-.054.396-.195.442a.174.174 0 0 1-.059.01Zm5.564 65.942c-.14 0-.256-.156-.261-.355-.033-1.273-.068-2.53-.106-3.772-.006-.203.106-.375.251-.384.141-.025.266.15.272.352.039 1.244.074 2.503.106 3.779.005.203-.108.373-.253.38h-.009Zm-.261-8.304c-.138 0-.254-.152-.261-.349a737.17 737.17 0 0 0-.155-3.769c-.009-.202.101-.377.245-.389.157-.008.268.142.278.344.054 1.24.106 2.499.154 3.775.008.203-.103.377-.247.388h-.014Zm-.372-8.296c-.136 0-.25-.147-.261-.342a564.574 564.574 0 0 0-.205-3.763c-.012-.203.095-.381.239-.397.152-.013.27.134.282.337.072 1.236.142 2.493.207 3.771.01.203-.098.379-.243.393l-.019.001Zm-.485-8.284c-.133 0-.247-.144-.261-.335-.083-1.277-.17-2.53-.258-3.757-.015-.202.09-.382.233-.404.14-.018.272.127.288.329.089 1.229.175 2.484.26 3.764.012.203-.093.382-.238.401-.008.002-.016.002-.024.002Zm-.603-8.268c-.131 0-.245-.139-.26-.327a626.928 626.928 0 0 0-.315-3.748c-.018-.202.084-.386.227-.41.147-.03.274.118.292.32.106 1.219.212 2.47.316 3.755.016.203-.087.385-.231.407a.136.136 0 0 1-.029.003Zm-.731-8.249c-.129 0-.241-.134-.259-.319-.125-1.289-.25-2.536-.376-3.736-.021-.202.078-.389.221-.418.141-.03.276.109.297.311.126 1.204.252 2.452.377 3.744.019.202-.082.388-.224.415a.219.219 0 0 1-.036.003Zm-.867-8.223c-.126 0-.237-.128-.257-.309a472.494 472.494 0 0 0-.444-3.723c-.025-.2.07-.39.213-.425.143-.035.278.1.302.3.146 1.176.294 2.42.445 3.731.024.201-.074.39-.216.422a.215.215 0 0 1-.043.004Zm-1.022-8.187c-.123 0-.232-.123-.257-.299-.187-1.37-.363-2.605-.525-3.7-.029-.199.062-.393.203-.435.143-.04.28.086.31.285.163 1.099.339 2.337.527 3.711.027.2-.066.393-.208.432a.214.214 0 0 1-.05.006Zm4.466 64.186c-.142 0-.259-.161-.262-.361-.009-.616-.019-1.229-.03-1.838-.004-.203.11-.373.255-.377.156.014.265.155.268.358.012.611.021 1.225.03 1.842.004.203-.111.372-.256.376h-.005Zm-19.704-62.379c-.189.935-.617 1.582-.957 1.447-.339-.135-.462-1.003-.274-1.937.189-.934.617-1.583.957-1.447.34.135.462 1.002.274 1.937Zm-2.374 15.314c-.104.961-.47 1.68-.819 1.606-.349-.074-.549-.913-.447-1.874.103-.96.47-1.679.819-1.606.349.075.549.914.447 1.874Zm-.991 16.255c-.07.967-.412 1.71-.762 1.661-.352-.05-.58-.874-.512-1.839.07-.967.412-1.71.763-1.66.351.049.579.873.511 1.838Zm-2.106 21.036c-.036.971-.35 1.738-.702 1.712-.353-.025-.61-.832-.577-1.802.037-.971.35-1.738.703-1.712.353.026.61.833.576 1.802Zm-1.535 22.494c-.035.97-.35 1.736-.703 1.71-.352-.024-.61-.83-.576-1.802.036-.97.351-1.736.703-1.71.353.025.611.831.576 1.802Z"/>
  <path fill="#FFBE55" d="m188.24 99.828-.83 11.262 14.648-12.893-2.545-5.275-11.273 6.906Z"/>
  <path fill="#E4897B" d="m162.644 131.271-6.462-2.602s-5.964.906-7.734-1.552c-1.773-2.455-4.834-11.962-4.188-11.957.645.006 3.945 7.503 5.458 7.457 1.512-.046 4.056-1.913 5.307-1.207 1.248.705 2.589 3.237 2.589 3.237l6.095 1.518-1.065 5.106Z"/>
  <path fill="#E86B31" d="M198.801 105.033c-6.674 3.671-17.291 25.043-19.383 25.735-2.093.69-16.257-5.495-20.429-6.618l-1.177 5.441s16.738 20.147 26.296 19.164c12.207-1.257 29.844-52.059 14.693-43.722Z"/>
  <path fill="#E4897B" d="m47.35 292.429-7.497 11.654v10.764l-5.728-14.773 8.895-14.771 4.33 7.126Z"/>
  <path fill="#160E3F" d="M40.838 307.829s2.193-2.557 1.246-3.351c-.945-.793-2.757.53-2.757.53s-2.417-3.647-3.316-9.266c0 0-2.862 2.522-3.288 3.589-.427 1.065 6.292 21.904 6.77 22.754.481.848 1.399-.719 1.345-14.256Z"/>
  <path fill="#E7F3FF" d="M32.657 298.904c.163-.048.328.096.366.331.642 4.136 2.979 11.561 4.742 16.801 1.422-.881 3.16-.324 3.16-.324.215 5.779-1.108 6.799-1.108 6.799-.087.131-.22.168-.332.107a.336.336 0 0 1-.103-.087c-.254-.337-5.933-16.493-6.961-23.112-.036-.233.069-.464.236-.515Z"/>
  <path fill="#E7F3FF" d="M40.742 313.978c-.322-.6-1.163-.936-1.665-.683-.37.189-.627-.597-.254-.786.759-.387 1.9-.003 2.396.924.239.442-.236.991-.477.545Zm.132-2.194c-.563-.532-1.27-.764-1.937-.561-.389.118-.49-.736-.103-.853.824-.251 1.708.058 2.402.714.33.314-.032 1.011-.362.7Zm-.008-2.309c-.535-.592-1.18-1.095-1.875-.8-.379.163-.477-.694-.103-.852.842-.358 1.687.231 2.339.954.311.343-.05 1.046-.361.698Z"/>
  <path fill="#455A64" d="M37.321 216.229s37.167-.257 40.863 8.057c3.695 8.315-2.429 29.099-10.348 42.016-7.92 12.915-23.156 35.191-23.156 35.191s-4.095-2.44-7.161-10.55c0 0 21.025-41.863 17.435-42.754-3.59-.891-34 11.284-38.117.743-4.118-10.542-1.9-23.754-1.9-23.754l22.384-8.949Z"/>
  <path fill="#E4897B" d="m105.178 293.32 8.269 20.934-6.863.594-8.518-19.1 7.112-2.428Z"/>
  <path fill="#1C145F" d="M113.583 309.13s-.943-3.781-1.801-2.808c-.858.971-.606 3.818-.606 3.818s-3.271 1.92-7.332 1.152c0 0 .688 4.65 1.25 5.581.562.935 16.795-.68 17.528-1.017.732-.337.007-2.09-9.039-6.726Z"/>
  <path fill="#E7F3FF" d="M104.788 316.812c.025-.233.178-.4.348-.368 2.982.59 8.746.091 12.853-.411-.093-2.183.881-4.279.881-4.279 3.929 1.725 4.15 3.822 4.15 3.822a.58.58 0 0 1-.044.476.335.335 0 0 1-.094.103c-.314.22-13.06 2.09-17.833 1.146-.167-.033-.284-.253-.261-.489Z"/>
  <path fill="#E7F3FF" d="M117.647 311.396c-.511.218-1.029 1.207-1.033 1.958-.003.555-.617.62-.614.06.007-1.134.659-2.503 1.449-2.837.378-.159.578.659.198.819Zm-1.416-.937c-.552.556-.952 1.408-1.049 2.359-.055.554-.661.39-.604-.16.12-1.176.633-2.233 1.312-2.919.321-.326.662.394.341.72Zm-1.543-.793c-.58.5-1.139 1.175-1.184 2.194-.024.557-.628.387-.605-.161.053-1.234.742-2.144 1.448-2.752.338-.291.681.427.341.719Z"/>
  <path fill="#455A64" d="M38.27 217.014s38.75 2.227 42.129 9.502c3.379 7.274 30.651 75.791 30.651 75.791s-4.37 6.895-10.705 5.41c0 0-26.176-54.033-31.561-59.378-5.385-5.345-45.251 11.408-50.716 3.497-5.464-7.912-4.24-28.943-4.24-28.943l24.441-5.879Z"/>
  <path fill="#E86B31" d="M104.503 303.552c-.095 0-.188-.068-.24-.192l-1.422-3.386c-.078-.185-.034-.425.098-.535.133-.109.302-.048.381.138l1.422 3.386c.077.186.034.425-.099.535a.213.213 0 0 1-.14.054Zm-3.125-7.435c-.095 0-.187-.069-.239-.191l-1.42-3.375c-.078-.186-.034-.425.098-.536.132-.109.302-.047.38.138l1.419 3.374c.079.186.035.426-.097.536a.223.223 0 0 1-.141.054Zm-3.122-7.422c-.095 0-.187-.069-.239-.191l-1.419-3.372c-.078-.185-.034-.425.097-.536.134-.108.303-.047.38.138l1.42 3.371c.078.186.034.426-.098.535a.218.218 0 0 1-.14.055Zm-3.121-7.416c-.095 0-.187-.069-.24-.191l-1.42-3.371c-.078-.185-.034-.425.098-.535.133-.111.303-.048.38.137l1.42 3.37c.078.185.035.425-.097.535a.215.215 0 0 1-.141.055Zm-3.124-7.413c-.095 0-.188-.068-.24-.191l-1.42-3.368c-.079-.185-.035-.425.097-.535.132-.112.302-.049.38.136l1.421 3.369c.079.185.035.425-.097.534a.216.216 0 0 1-.141.055Zm-3.126-7.406c-.095 0-.187-.068-.24-.192l-1.421-3.365c-.079-.186-.035-.426.096-.535.132-.111.302-.05.38.136l1.424 3.366c.078.185.035.425-.098.535a.218.218 0 0 1-.14.055Zm-3.13-7.405c-.095 0-.187-.068-.24-.191l-1.425-3.365c-.078-.186-.035-.425.097-.536.132-.11.302-.049.381.136l1.425 3.365c.078.186.035.425-.097.536a.217.217 0 0 1-.141.055Zm-3.138-7.404c-.094 0-.187-.068-.239-.19l-1.43-3.363c-.08-.186-.036-.425.095-.536.132-.113.302-.05.381.135l1.43 3.363c.08.185.036.425-.095.537a.223.223 0 0 1-.142.054Zm-3.152-7.397c-.094 0-.186-.067-.238-.189-.537-1.252-1.02-2.38-1.442-3.356-.08-.184-.038-.425.093-.537.132-.111.303-.052.381.131.422.977.906 2.104 1.443 3.359.08.185.037.425-.094.536a.213.213 0 0 1-.143.056Zm-51.92-5.045a.158.158 0 0 1-.047-.007c-1.048-.257-1.879-.986-2.47-2.166-.087-.177-.057-.42.069-.544.126-.124.298-.081.387.094.503 1.006 1.212 1.627 2.11 1.848.151.036.252.239.226.451-.024.19-.142.324-.274.324Zm3.33-.143c-.144 0-.266-.154-.277-.358-.013-.215.101-.404.253-.421.788-.091 1.72-.202 2.773-.328.152-.017.287.141.3.356.013.214-.1.404-.253.422a709.01 709.01 0 0 1-2.775.328l-.022.001Zm6.099-.725c-.143 0-.264-.153-.277-.357-.013-.214.1-.404.254-.422l2.772-.328c.154-.016.287.142.3.356.012.215-.1.404-.254.422l-2.77.328-.025.001Zm6.099-.71c-.144 0-.266-.154-.277-.359-.012-.215.102-.404.254-.42.907-.102 1.834-.205 2.774-.307.148-.032.287.144.298.359.012.215-.102.403-.255.419-.94.101-1.866.205-2.772.306-.008.002-.015.002-.023.002Zm6.098-.66c-.144 0-.266-.156-.276-.362-.012-.215.103-.402.256-.418.921-.094 1.848-.187 2.774-.276.149-.017.286.147.297.363.01.215-.105.401-.258.416-.926.09-1.852.182-2.772.277h-.02Zm27.077-.081c-.079 0-.157-.047-.212-.138-.13-.214-.621-.613-2.456-.868-.153-.021-.265-.212-.25-.427.016-.215.155-.36.305-.351 2.09.291 2.613.791 2.825 1.141a.505.505 0 0 1-.033.55.233.233 0 0 1-.18.093Zm-20.973-.502c-.146 0-.268-.159-.277-.366-.01-.215.107-.401.26-.414.935-.082 1.863-.159 2.778-.231.153-.019.284.153.293.369.009.215-.108.399-.261.411-.915.072-1.842.148-2.775.23l-.018.001Zm6.109-.468c-.148 0-.27-.163-.277-.373-.007-.215.111-.399.265-.408a161.05 161.05 0 0 1 2.782-.155c.157.007.282.161.287.377.006.215-.115.396-.268.404-.898.043-1.826.094-2.776.154l-.013.001Zm8.895-.267h-.005a72.82 72.82 0 0 0-2.77-.002H67.5c-.151 0-.276-.171-.277-.386-.002-.214.12-.392.274-.395a69.728 69.728 0 0 1 2.787.002c.153.004.276.181.273.397-.003.214-.127.384-.278.384Zm-45.983-2.882c-.144 0-.267-.157-.277-.363a24.068 24.068 0 0 1 .137-3.995c.028-.212.17-.354.324-.312.15.039.25.243.222.455a23.412 23.412 0 0 0-.129 3.798c.011.214-.104.402-.257.417h-.02Z"/>
  <path fill="#E4897B" d="m29.004 160.255-.875-17.661 4.422.283.636-8.075 3.166-1.28-6.27-16.31-12.477-.357L20 139.127l-2.108 15.087 11.11 6.041Z"/>
  <path fill="#8B373A" d="m28.13 142.592.296 5.965-5.387-6.237 5.091.272Zm8.226-9.071-3.167 1.281-.9-1.012 4.067-.269Z"/>
  <path fill="#11003D" d="M30.076 129.107c.082.94.429 1.655.774 1.596.345-.06.557-.871.475-1.811-.082-.941-.429-1.655-.774-1.596-.345.059-.557.87-.474 1.811Z"/>
  <path fill="#8B373A" d="M28.067 134.767c.12 1.249.345 2.453.937 3.43.625 1.032 1.64 1.285 2.55 1.321.232.01.178.512-.052.502-.96-.04-1.982-.334-2.673-1.35-.714-1.05-.985-2.434-1.12-3.841-.031-.324.326-.386.358-.062Z"/>
  <path fill="#11003D" d="M29.614 123.168c-.358.017-.857.254-.945.812-.049.318-.406.246-.356-.074.123-.788.72-1.215 1.257-1.242.23-.011.277.492.044.504Z"/>
  <path fill="#472E03" d="M31.18 106.209c-1.95-.258-3.835.899-5.594 1.877-1.39-3.711-3.533-5.914-6.613-4.577-3.144 1.249-4.018 4.701-3.57 8.944-2.958-.608-5.788-.422-6.913 4.004-1 3.718-.802 9.467 1.593 12.024 1.072 1.234 2.519 1.408 3.84 1.491-.94 2.745-1.562 6.372 1.332 6.982 2.266.523 4.274-1.783 4.71-4.792.187-1.15.185-2.3.12-3.45 2.256-.979 2.816-3.99 2.19-6.677 2.115.526 5.117.329 4.966-2.898 2.83.432 7.928 1.564 8.8-3.746.685-4.247-1.84-8.837-4.86-9.182Z"/>
  <path fill="#764901" d="M32.77 109.225c-.027-.499-.583-.502-.555 0 .116 2.055-.202 3.736-1.559 4.773-1.785 1.366-4.18 1.183-6.038.32-.171-.08-.353.132-.351.376.025 3.814-2.943 5.198-5.173 4.142-.34-.162-.486.592-.148.753 2.483 1.177 5.626-.461 5.855-4.387 2.03.831 4.187.693 6.136-.529 1.562-.979 1.957-3.252 1.834-5.448Zm-15.065 4.659c1.545.588 3.308-.225 4.246-2.113.957-1.926.816-4.152.323-6.294-.11-.478-.646-.274-.535.207.38 1.656.58 3.365.044 5.003-.663 2.024-2.465 3.002-3.93 2.444-.347-.132-.494.622-.148.753Zm-2.139 2.337c-1.873.613-3.65 1.825-3.86 4.781-.195 2.726 1.24 4.866 3.016 5.267-.976 2.097-.845 5.612.496 7.249.269.329.664-.221.393-.552-1.24-1.516-1.29-5.082-.17-6.739.168-.249.049-.66-.196-.667-2.053-.059-3.329-2.593-2.89-5.381.322-2.041 2.113-2.797 3.358-3.205.35-.114.202-.868-.147-.753Zm3.98 10.226c-1.935-.667-1.909-3.073-1.075-5.133.178-.439-.302-.832-.48-.395-.961 2.378-.867 5.134 1.008 6.109-1.09 1.961-1.227 4.434-.923 6.873.062.496.598.285.536-.207-.293-2.349-.155-4.784 1.056-6.595.139-.207.087-.58-.122-.652Z"/>
  <path fill="#E4897B" d="M15.456 133.991c.266 3.046 2.239 5.212 4.405 4.837 2.166-.374 3.707-3.147 3.44-6.194-.266-3.047-2.239-5.213-4.405-4.838-2.166.375-3.707 3.149-3.44 6.195Z"/>
  <path fill="#8B373A" d="M17.687 131.28c.933-.34 2.047-.504 2.814.514.365.483.639 1.025.813 1.598-.661-.149-1.372.17-1.408 1.31-.034 1.092.49 1.959 1.23 2.152a5.089 5.089 0 0 1-.172.377c-.135.265.148.578.284.311.903-1.77.907-3.956-.164-5.628-.938-1.466-2.134-1.615-3.441-1.137-.222.081-.18.585.044.503Zm3.762 2.671a5.117 5.117 0 0 1-.144 2.432c-.57-.098-1.101-.731-1.042-1.608.063-.939.647-1.058 1.186-.824Z"/>
  <path fill="url(#c)" d="M31.806 161.127c3.2 10.471 8.399 56.026 8.399 56.026s-9.17 16.324-26.986 16.324c0 0-3.774-37.554-2.19-58.933 1.584-21.379 13.968-35.701 20.777-13.417Z"/>
  <path fill="#E4897B" d="m62.403 199.707 7.14.033s5.912-3.35 8.227-1.559c2.317 1.791 7.401 10.269 6.74 10.526-.66.255-5.576-6.067-7.113-5.406-1.537.663-3.754 3.604-5.177 3.39-1.423-.212-3.313-2.258-3.313-2.258l-6.544.927.04-5.653Z"/>
  <path fill="#E86B31" d="M26.524 156.726c6.478 7.558 12.706 36.903 14.859 38.761 2.151 1.857 19.571 2.31 24.519 3.225l-.117 6.678s-23.954 13.78-34.356 7.721c-13.283-7.739-19.613-73.546-4.905-56.385Z"/>
  <path fill="#6975EB" d="M98.611 210.169c0-1.099-.634-1.991-1.416-1.991H63.432c-.782 0-1.416.892-1.416 1.991 0 1.1.634 1.992 1.416 1.992h33.763c.782 0 1.416-.892 1.416-1.992Z"/>
  <path fill="#6975EB" d="M96.761 212.096c.747.33 1.541-.253 1.776-1.302l10.117-45.292c.235-1.049-.18-2.166-.926-2.496-.747-.329-1.542.254-1.776 1.303l-10.117 45.292c-.234 1.049.181 2.166.926 2.495Z"/>
  <path fill="#F1F8FF" d="M97.097 211.535c.537 0 .972-.612.972-1.367s-.435-1.367-.972-1.367c-.537 0-.972.612-.972 1.367s.435 1.367.972 1.367Z"/>
  <path fill="#494949" d="M21.192 258.859h-2.22v60.144h2.22v-60.144Z"/>
  <path fill="#F1F8FF" d="M22.65 258.859h-5.134v13.816h5.133v-13.816Z"/>
  <path fill="#494949" d="m36.1 249.946-.047.014-.094.005a6.406 6.406 0 0 0-.473.098c-.425.09-1.063.215-1.863.358a36.22 36.22 0 0 1-2.852.397c-1.086.1-2.288.156-3.551.085-1.26-.069-2.582-.229-3.887-.622-.656-.161-1.304-.411-1.946-.692-.323-.126-.636-.3-.958-.446-.309-.193-.63-.344-.936-.555-1.245-.765-2.433-1.785-3.593-3.019l.195.223-.017-.021-.035-.042-.071-.084-.142-.169-.141-.169-.066-.08.007-.004c.01-.004.016-.002.02.004l.002.012c.004.013-.032-.055-.047-.079a11.84 11.84 0 0 1-.518-.935c-.369-.747-.75-1.7-1.12-2.683-.727-2.005-1.371-4.28-1.91-6.581-.263-1.155-.52-2.319-.743-3.482a146.7 146.7 0 0 1-.59-3.487 93.82 93.82 0 0 1-.764-6.728 78.762 78.762 0 0 1-.257-6.096c-.003-1.886.035-3.63.147-5.157.04-.773.118-1.478.167-2.15l.2-1.821c.151-1.087.259-1.97.376-2.545l.143-.914.053-.335c.3-1.913-.559-3.808-1.919-4.23-1.018-.316-2.028.282-2.599 1.403l-.47.925c-.31.607-.718 1.525-1.219 2.733-.222.614-.486 1.293-.743 2.052-.23.764-.525 1.586-.754 2.493-.513 1.804-.95 3.893-1.333 6.207a81.756 81.756 0 0 0-.48 3.635 95.039 95.039 0 0 0-.294 3.921 81.288 81.288 0 0 0 .04 8.488 79.13 79.13 0 0 0 1.012 9.011c.259 1.525.575 3.057.93 4.597a60.657 60.657 0 0 0 1.302 4.62c.508 1.555 1.077 3.101 1.836 4.679.384.795.798 1.594 1.297 2.411.067.11.104.183.196.32l.261.389c.176.256.356.509.539.756l.136.184.075.093.14.171.14.172.07.086.034.043.248.286c1.976 2.157 4.229 3.813 6.506 4.922.565.296 1.15.479 1.715.711.574.179 1.14.373 1.703.504a17.58 17.58 0 0 0 3.302.43c2.137.055 4.095-.316 5.823-.884a20.2 20.2 0 0 0 4.511-2.145 23.136 23.136 0 0 0 3.164-2.401 22.183 22.183 0 0 0 1.881-1.92c.214-.239.377-.439.488-.58l.15-.177.035-.05c1.016-1.43 1.014-3.747-.003-5.176-.642-.901-1.535-1.233-2.361-.995l-.048.016Z"/>
  <path fill="#fff" d="M32.343 320.48c0-3.665-5.49-6.636-12.263-6.636s-12.264 2.971-12.264 6.636h24.527Z"/>
  <path fill="#74A1D8" d="M14.594 253.455c-12.375-8.786-9.544-45.277-5.405-55.289 1.168.602 1.875 2.327 1.6 4.083l-.054.335-.144.913c-.116.575-.223 1.458-.376 2.546l-.2 1.82c-.049.673-.126 1.378-.166 2.15-.111 1.527-.15 3.271-.147 5.158.003 1.888.086 3.94.257 6.096a94.04 94.04 0 0 0 .764 6.728c.177 1.154.38 2.316.59 3.486.223 1.164.48 2.327.743 3.482.539 2.301 1.183 4.576 1.91 6.581.37.984.75 1.936 1.12 2.683.185.363.364.695.518.935.011.017.03.051.038.067-.004-.003-.006-.007-.013-.004l-.008.004.066.08.142.17.124.148c-.017-.02-.036-.036-.054-.055l.195.224-.018-.021-.035-.043-.07-.084-.018-.02c1.143 1.208 2.313 2.211 3.539 2.964.305.211.627.362.936.555.32.147.634.32.958.446.642.28 1.29.532 1.946.692 1.304.393 2.626.553 3.886.622 1.263.071 2.466.015 3.552-.085a35.848 35.848 0 0 0 2.852-.397c.8-.143 1.438-.268 1.862-.358.21-.051.37-.081.474-.098l.094-.005.047-.014.049-.015c.826-.238 1.719.094 2.36.995.241.337.42.727.546 1.14-4.512 3.433-14.156 8.702-24.46 1.385Z" opacity=".1"/>
  <path fill="#E86B31" d="M224.445 210.167c0-1.099.635-1.991 1.416-1.991h33.764c.782 0 1.416.892 1.416 1.991 0 1.1-.634 1.992-1.416 1.992h-33.764c-.781 0-1.416-.892-1.416-1.992Z"/>
  <path fill="#E86B31" d="M226.298 212.095c-.746.329-1.541-.254-1.775-1.303L214.405 165.5c-.234-1.049.181-2.166.927-2.496.747-.329 1.542.254 1.775 1.303l10.118 45.292c.234 1.049-.181 2.166-.927 2.496Z"/>
  <path fill="#F1F8FF" d="M225.96 211.535c.537 0 .973-.612.973-1.367s-.436-1.367-.973-1.367c-.536 0-.972.612-.972 1.367s.436 1.367.972 1.367Z"/>
  <path fill="#E4897B" d="m220.485 292.988-7.688 19.465 6.381.553 7.921-17.76-6.614-2.258Z"/>
  <path fill="#160E3F" d="M212.674 307.687s.878-3.514 1.675-2.611c.798.903.563 3.55.563 3.55s3.043 1.785 6.818 1.071c0 0-.639 4.325-1.163 5.191-.522.868-15.616-.632-16.298-.946-.681-.313-.006-1.944 8.405-6.255Z"/>
  <path fill="#E7F3FF" d="M220.853 314.827c-.022-.215-.165-.372-.323-.342-2.773.549-8.132.085-11.951-.382.086-2.029-.82-3.978-.82-3.978-3.654 1.604-3.858 3.553-3.858 3.553a.534.534 0 0 0 .041.443.311.311 0 0 0 .087.096c.291.205 12.144 1.943 16.581 1.064.156-.029.265-.233.243-.454Z"/>
  <path fill="#E7F3FF" d="M208.897 309.792c.475.203.956 1.123.96 1.82.004.516.574.577.571.057-.007-1.056-.613-2.327-1.347-2.638-.352-.149-.538.612-.184.761Zm1.317-.872c.513.517.885 1.309.976 2.194.051.514.614.363.562-.149-.112-1.093-.589-2.075-1.22-2.714-.3-.303-.618.366-.318.669Zm1.436-.737c.54.465 1.06 1.092 1.101 2.04.022.517.584.36.562-.149-.05-1.148-.689-1.994-1.346-2.56-.314-.269-.633.398-.317.669Z"/>
  <path fill="#455A64" d="M282.698 222.033s-36.032 2.071-39.174 8.835c-3.141 6.764-24.348 63.09-24.348 63.09s1.767 5.519 7.658 4.139c0 0 25.46-42.978 30.467-47.947 5.007-4.97 39.288 10.478 44.369 3.121 5.081-7.356 2.137-24.887 2.137-24.887l-21.109-6.351Z"/>
  <path fill="#E4897B" d="m274.254 292.159 6.971 10.836v10.009l5.326-13.735-8.271-13.736-4.026 6.626Z"/>
  <path fill="#1D1970" d="M280.306 306.474s-2.04-2.378-1.16-3.116c.88-.736 2.563.494 2.563.494s2.249-3.391 3.085-8.616c0 0 2.66 2.345 3.057 3.336.397.991-5.85 20.368-6.295 21.158-.447.788-1.3-.668-1.25-13.256Z"/>
  <path fill="#E7F3FF" d="M287.912 298.18c-.151-.044-.305.089-.339.308-.598 3.847-2.77 10.751-4.41 15.622-1.323-.818-2.938-.301-2.938-.301-.199 5.374 1.03 6.323 1.03 6.323.081.121.204.155.309.099a.314.314 0 0 0 .095-.081c.237-.313 5.517-15.337 6.473-21.49.033-.217-.063-.431-.22-.48Z"/>
  <path fill="#E7F3FF" d="M280.398 312.198c.3-.559 1.082-.87 1.548-.635.344.175.584-.556.237-.733-.705-.359-1.767-.002-2.228.859-.222.413.219.924.443.509Zm-.125-2.04c.524-.496 1.181-.712 1.802-.521.361.11.454-.685.096-.794-.768-.234-1.589.053-2.234.665-.306.29.031.939.336.65Zm.01-2.151c.497-.549 1.098-1.018 1.743-.743.352.151.444-.645.096-.792-.782-.334-1.569.214-2.175.887-.29.319.046.972.336.648Z"/>
  <path fill="#455A64" d="M283.58 221.304s-34.559-.24-37.995 7.491 2.258 27.059 9.621 39.068c7.364 12.01 19.047 26.09 19.047 26.09s3.06.276 6.292-6.351c0 0-16.699-35.752-13.361-36.581 3.338-.828 31.614 10.492 35.443.69 3.829-9.801 1.767-22.086 1.767-22.086l-20.814-8.321Z"/>
  <path fill="#E86B31" d="M297.721 232.992h-.002c-.158-.002-.285-.183-.284-.406.007-1.153-.054-1.951-.054-1.96-.018-.221.096-.418.253-.442.148-.022.298.135.315.355.003.035.064.851.058 2.053-.001.222-.129.4-.286.4Zm-24.34 52.829c-.077 0-.153-.044-.21-.129a254.352 254.352 0 0 1-1.964-3.017.522.522 0 0 1 .021-.568c.117-.15.298-.136.403.029.631.984 1.284 1.986 1.959 3.008a.526.526 0 0 1-.014.569.248.248 0 0 1-.195.108Zm-4.267-6.69c-.08 0-.16-.048-.216-.14a193.026 193.026 0 0 1-1.877-3.129.522.522 0 0 1 .038-.566c.121-.142.303-.117.403.054a200.35 200.35 0 0 0 1.869 3.116.522.522 0 0 1-.031.567.241.241 0 0 1-.186.098Zm-4.053-6.945c-.085 0-.169-.053-.225-.155a151.712 151.712 0 0 1-1.758-3.265c-.093-.179-.065-.431.062-.563.126-.131.305-.093.4.086a154.418 154.418 0 0 0 1.747 3.248c.097.175.075.428-.05.564a.236.236 0 0 1-.176.085Zm-3.763-7.259c-.091 0-.181-.061-.236-.177a118.8 118.8 0 0 1-1.587-3.438c-.083-.189-.041-.437.092-.553.134-.117.31-.06.394.129.49 1.109 1.02 2.257 1.574 3.411.089.185.055.436-.077.559a.223.223 0 0 1-.16.069Zm-3.333-7.658c-.102 0-.2-.076-.252-.21a83.53 83.53 0 0 1-1.318-3.664c-.067-.201-.005-.44.138-.535.142-.094.313-.008.38.194.391 1.175.83 2.393 1.303 3.621.076.195.024.438-.115.544a.218.218 0 0 1-.136.05Zm-2.643-8.166c-.118 0-.228-.103-.269-.267a52.25 52.25 0 0 1-.846-3.948c-.036-.216.058-.433.212-.486.155-.047.308.082.345.298.213 1.239.491 2.539.827 3.865.053.209-.025.44-.173.514a.213.213 0 0 1-.096.024Zm37.165-6.631-.027-.001c-.663-.084-1.614-.252-2.905-.512-.157-.031-.265-.236-.243-.455.023-.221.17-.371.324-.342 1.282.26 2.222.425 2.876.507.156.02.272.215.259.437-.014.208-.139.366-.284.366Zm3.275-1.187c-.08 0-.16-.047-.217-.14a.522.522 0 0 1 .03-.567c.611-.737 1.08-1.836 1.397-3.267.046-.211.205-.332.358-.264.15.065.235.29.188.503-.348 1.577-.876 2.8-1.569 3.637a.244.244 0 0 1-.187.098Zm-9.622-.056a.22.22 0 0 1-.044-.005l-2.876-.636c-.156-.034-.263-.24-.238-.46.025-.219.174-.369.327-.334l2.875.636c.156.035.262.239.238.46-.021.197-.143.339-.282.339Zm-32.197-.865c-.149 0-.275-.163-.286-.374a43.94 43.94 0 0 1-.048-2.19l.002-.733c-.001-.356.119-.855.694-1.207.145-.087.313.004.376.208.063.203-.003.44-.147.529-.234.143-.351.301-.351.47l-.002.733c0 .584.006 1.293.047 2.135.011.221-.108.413-.265.429h-.02Zm25.873-.538a.23.23 0 0 1-.045-.005 779.28 779.28 0 0 0-2.875-.63c-.155-.033-.263-.239-.239-.458.024-.219.168-.369.326-.337.973.21 1.934.421 2.877.63.156.034.263.24.238.46-.022.198-.144.34-.282.34Zm-6.33-1.363a.286.286 0 0 1-.042-.003c-.963-.2-1.926-.395-2.879-.582-.156-.031-.266-.235-.244-.454.023-.22.17-.367.323-.343.954.187 1.918.382 2.883.582.156.033.265.237.242.457-.022.199-.144.343-.283.343Zm-6.342-1.228a122.198 122.198 0 0 0-2.921-.479c-.157-.023-.271-.223-.254-.443.017-.22.159-.376.315-.356.932.141 1.901.302 2.895.477.156.028.268.228.248.449-.018.203-.142.352-.283.352Zm-6.369-.93h-.021a33.184 33.184 0 0 0-2.89-.192c-.158-.004-.284-.185-.283-.407.002-.22.13-.397.287-.397h.003c.836.014 1.82.079 2.925.193.157.017.275.209.265.431-.012.211-.138.372-.286.372Zm15.995 54.508c-.074 0-.149-.04-.204-.121-.337-.485-.67-.966-.998-1.445a.526.526 0 0 1 .008-.569c.114-.152.294-.15.405.011.327.477.658.957.994 1.441a.522.522 0 0 1-.004.568c-.057.076-.129.115-.201.115Z"/>
  <path fill="#E86B31" d="M279.781 222.235c3.443 13.28 13.236 23.415 22.842 29.342.152-.329.294-.671.426-1.022.387-1.144.705-2.311.957-3.483 1.269-6.602.358-14.744-.037-17.619l-10.348-4.136-10.92-3.286c0 .002-1.096.065-2.92.204Z"/>
  <path fill="#E4897B" d="m262.359 203.555-6.683-.201s-5.478-3.327-7.674-1.724c-2.198 1.6-7.095 9.367-6.48 9.63.613.261 5.317-5.497 6.746-4.829 1.427.669 3.454 3.495 4.789 3.342 1.334-.153 3.137-2.006 3.137-2.006l6.109 1.078.056-5.29Z"/>
  <path fill="#E86B31" d="M288.7 170.08c-2.975 9.736-7.809 52.095-7.809 52.095s8.526 15.179 25.092 15.179c0 0 3.509-34.92 2.036-54.798-1.472-19.879-12.988-33.196-19.319-12.476Z"/>
  <path fill="url(#d)" d="M308.018 182.556c-1.472-19.879-12.988-33.197-19.319-12.476-2.493 8.158-6.291 39.217-7.457 49.071 3.932 1.154 8.103 1.883 11.907.141 5.763-2.418 10.901-6.978 14.974-13.128.32-8.298.398-16.828-.105-23.608Z"/>
  <path fill="#E86B31" d="M295.33 165.09c-6.145 6.816-12.412 33.894-14.442 35.55-2.031 1.657-18.23 1.519-22.845 2.209v6.212s22.042 13.579 31.81 8.283c12.473-6.764 19.429-67.734 5.477-52.254Z"/>
  <path fill="#E4897B" d="m290.309 166.437-.644-17.087-4.217 1.006-1.287-7.64-3.145-.703 4.646-16.684 11.938-2.413-1.176 26.333 1.914 10.603-8.029 6.585Z"/>
  <path fill="#8B373A" d="m289.664 149.355.217 5.77 4.645-6.875-4.862 1.105Z"/>
  <path fill="#EF7E82" d="m281.016 142.017 3.145.703.778-1.12-3.923.417Z"/>
  <path fill="#11003D" d="M286.665 136.735c0 .916-.271 1.659-.607 1.659-.337 0-.609-.743-.609-1.659 0-.915.272-1.659.609-1.659.336.001.607.744.607 1.659Z"/>
  <path fill="#8B373A" d="M289.069 141.833c-.011 1.218-.125 2.41-.611 3.445-.513 1.094-1.466 1.504-2.336 1.692-.221.047-.126.519.092.471.919-.197 1.874-.649 2.451-1.738.596-1.126.741-2.498.752-3.87.003-.316-.345-.316-.348 0Z"/>
  <path fill="#11003D" d="M286.613 130.965c.345-.043.843.101.974.622.074.296.411.169.335-.13-.183-.735-.791-1.045-1.309-.982-.223.026-.224.517 0 .49Z"/>
  <path fill="#472E03" d="M282.623 122.917c.649 1.809 6.409 8.555 12.333 8.495 0 0 2.696 4.531 1.969 9.906-.727 5.375-4.23 9.604.357 14.316 4.586 4.711 15.599 1.793 17.305-7.388 1.707-9.181-2.159-17.905-6.445-23.476-.558-.726-.174-7.674-5.284-11.185-9.611-6.604-22.528 2.938-20.235 9.332Z"/>
  <path fill="#33138C" d="M292.153 126.326c-3.427-1.006-4.809-5.049-5.865-9.3-.121-.486-.674-.277-.552.213.785 3.163 1.69 6.271 3.649 8.341 2.503 2.642 6.085 1.29 8.436 4.426 2.768 3.692 1.268 9.817.24 14.09-.906 3.759-1.754 6.948.145 10.336.227.407.63-.166.404-.568-2.229-3.978-.046-8.917.81-13.131.757-3.731.811-7.529-.871-10.77-1.446-2.784-4.209-2.995-6.396-3.637Z"/>
  <path fill="#33138C" d="M303.883 140.745c.722-3.63 1.082-7.209-.122-10.722-1.106-3.23-3.551-5.184-5.675-6.872-2.951-2.346-5.373-4.972-7.278-8.978-.203-.428-.699-.026-.493.406 1.587 3.34 3.564 6.022 6.013 8.095 2.795 2.367 5.992 4.268 7.274 8.838 2.092 7.453-4.582 16.732 1.17 22.461.301.301.586-.397.288-.694-3.189-3.177-2.076-8.007-1.177-12.534Z"/>
  <path fill="#33138C" d="M310.745 139.748c-.153-3.463-1.197-6.68-2.409-9.641-2.623-6.407-6.487-11.635-9.882-17.207-.24-.394-.643.178-.404.569 3.485 5.72 7.344 11.061 10.034 17.635 1.434 3.502 2.327 7.372 2.07 11.445-.193 3.043-1.733 6.539-.708 9.494.162.466.655.057.494-.407-.705-2.031.173-4.68.505-6.735.274-1.707.376-3.406.3-5.153Z"/>
  <path fill="#E4897B" d="M301.101 139c0 2.966-1.711 5.371-3.82 5.371-2.11 0-3.82-2.405-3.82-5.371 0-2.966 1.71-5.371 3.82-5.371 2.109 0 3.82 2.405 3.82 5.371Z"/>
  <path fill="#8B373A" d="M298.726 136.281c-1.293-.241-2.429.1-3.205 1.662a5.506 5.506 0 0 0 .315 5.426c.152.232.399-.115.246-.347a4.021 4.021 0 0 1-.197-.332c.694-.309 1.124-1.227 1-2.269-.13-1.087-.839-1.275-1.46-1.022a5.429 5.429 0 0 1 .644-1.668c.652-1.103 1.733-1.131 2.657-.96.222.041.219-.45 0-.49Zm-2.177 4.269c.13.832-.326 1.527-.865 1.715a4.807 4.807 0 0 1-.342-2.308c.497-.314 1.067-.296 1.207.593Z"/>
  <path fill="#494949" d="M296.59 258.855h-2.219v60.144h2.219v-60.144Z"/>
  <path fill="#F1F8FF" d="M298.048 258.855h-5.134v13.816h5.134v-13.816Z"/>
  <path fill="#494949" d="m279.459 249.942.047.014.095.005c.104.017.262.047.473.098.424.09 1.062.215 1.862.358.799.149 1.769.285 2.853.397a24 24 0 0 0 3.551.085c1.26-.069 2.582-.229 3.886-.622.657-.16 1.305-.411 1.946-.692.324-.126.637-.3.958-.446.309-.193.631-.344.937-.555 1.245-.765 2.433-1.785 3.592-3.019.051-.056-.39.447-.195.223l.017-.021.035-.042.071-.084.142-.169.141-.169.066-.08-.007-.004c-.01-.004-.016-.002-.02.004a.02.02 0 0 0-.002.012c-.004.013.032-.055.047-.079.154-.241.333-.572.518-.935.369-.747.75-1.7 1.12-2.683.727-2.005 1.371-4.28 1.909-6.581.264-1.155.52-2.319.744-3.482.21-1.17.411-2.333.589-3.486.341-2.31.604-4.572.763-6.729a78.72 78.72 0 0 0 .258-6.096c.003-1.886-.035-3.63-.147-5.157-.04-.773-.118-1.477-.167-2.15l-.2-1.821c-.151-1.087-.259-1.97-.376-2.545l-.143-.913-.054-.336c-.3-1.913.559-3.807 1.92-4.23 1.018-.316 2.028.282 2.599 1.403l.47.925c.309.607.718 1.525 1.218 2.734.223.613.487 1.292.744 2.051.23.764.525 1.586.754 2.493.513 1.804.95 3.893 1.332 6.207.184 1.16.339 2.372.481 3.635.117 1.261.224 2.572.294 3.921a81.198 81.198 0 0 1-.041 8.488 78.926 78.926 0 0 1-1.011 9.011 81.347 81.347 0 0 1-.929 4.597 60.666 60.666 0 0 1-1.304 4.62c-.507 1.555-1.076 3.101-1.835 4.679a27.934 27.934 0 0 1-1.297 2.412c-.067.109-.105.182-.196.319l-.261.389c-.177.256-.357.509-.539.756l-.136.184-.075.093-.14.171-.139.172-.07.086-.035.043-.249.286c-1.976 2.158-4.228 3.813-6.505 4.922-.565.296-1.149.479-1.715.711-.574.179-1.14.373-1.704.504-1.13.253-2.237.398-3.302.43-2.136.055-4.094-.316-5.822-.884a20.192 20.192 0 0 1-4.511-2.144 23.252 23.252 0 0 1-3.165-2.402 22.315 22.315 0 0 1-1.881-1.92 12.42 12.42 0 0 1-.487-.58l-.15-.177-.035-.049c-1.016-1.431-1.014-3.748.003-5.177.642-.9 1.534-1.232 2.361-.995l.049.016Z"/>
  <path fill="#fff" d="M283.215 320.476c0-3.665 5.49-6.636 12.263-6.636s12.264 2.971 12.264 6.636h-24.527Z"/>
  <path fill="#74A1D8" d="M300.964 253.451c12.375-8.786 9.544-45.277 5.405-55.289-1.169.602-1.875 2.327-1.6 4.083l.054.335.143.913c.117.575.224 1.458.376 2.546l.2 1.821c.049.672.127 1.377.167 2.149.111 1.527.15 3.271.147 5.158a78.72 78.72 0 0 1-.258 6.096 93.476 93.476 0 0 1-.763 6.728c-.178 1.154-.38 2.316-.589 3.486-.224 1.164-.48 2.327-.744 3.482-.539 2.301-1.183 4.576-1.909 6.581-.37.984-.751 1.937-1.12 2.683a11.47 11.47 0 0 1-.518.935l-.039.067c.004-.003.007-.007.014-.003l.007.003-.066.08-.141.17-.125.148.055-.055-.196.224.018-.021.035-.042.07-.085.018-.02c-1.143 1.208-2.312 2.211-3.539 2.964-.305.211-.627.363-.936.555-.321.147-.635.32-.958.447-.642.279-1.289.531-1.946.691-1.304.393-2.626.553-3.886.622a24.004 24.004 0 0 1-3.551-.085 35.33 35.33 0 0 1-2.853-.397 62.466 62.466 0 0 1-1.862-.358 6.407 6.407 0 0 0-.474-.098l-.094-.005a.821.821 0 0 0-.047-.014l-.049-.015c-.826-.238-1.719.094-2.361.995-.24.337-.418.727-.545 1.14 4.512 3.433 14.156 8.702 24.46 1.385Z" opacity=".1"/>
  <path fill="#494949" d="M103.165 215.484h-5.33v111.29h5.33v-111.29Zm154.839 0h-5.328v111.29h5.328v-111.29Z"/>
  <path fill="#F1F8FF" d="M285.623 217.514H70.231v6.47h215.392v-6.47Z"/>
  <path fill="#7D4D00" d="M290.948 215.483c0 1.827-1.053 3.306-2.351 3.306H67.25c-1.298 0-2.352-1.48-2.352-3.306s1.054-3.305 2.352-3.305h221.347c1.298 0 2.351 1.479 2.351 3.305Z"/>
  <defs>
    <linearGradient id="a" x1="179.403" x2="211.806" y1="139.464" y2="139.67" gradientUnits="userSpaceOnUse">
      <stop stop-color="#FB8D48"/>
      <stop offset=".2" stop-color="#ED7136"/>
      <stop offset=".4" stop-color="#C54E47"/>
      <stop offset=".4" stop-color="#C14F49"/>
      <stop offset=".6" stop-color="#9D3863"/>
      <stop offset=".8" stop-color="#5E1F72"/>
    </linearGradient>
    <linearGradient id="b" x1="187.399" x2="211.774" y1="137.899" y2="138.02" gradientUnits="userSpaceOnUse">
      <stop stop-color="#FB8D48"/>
      <stop offset=".2" stop-color="#ED7136"/>
      <stop offset=".4" stop-color="#C54E47"/>
      <stop offset=".4" stop-color="#C14F49"/>
      <stop offset=".6" stop-color="#9D3863"/>
      <stop offset=".8" stop-color="#5E1F72"/>
    </linearGradient>
    <linearGradient id="c" x1="11.155" x2="40.315" y1="185.891" y2="186.092" gradientUnits="userSpaceOnUse">
      <stop stop-color="#FB8D48"/>
      <stop offset=".2" stop-color="#ED7136"/>
      <stop offset=".4" stop-color="#C54E47"/>
      <stop offset=".4" stop-color="#C14F49"/>
      <stop offset=".6" stop-color="#9D3863"/>
      <stop offset=".8" stop-color="#5E1F72"/>
    </linearGradient>
    <linearGradient id="d" x1="281.714" x2="308.479" y1="185.778" y2="186.01" gradientUnits="userSpaceOnUse">
      <stop stop-color="#FB8D48"/>
      <stop offset=".2" stop-color="#ED7136"/>
      <stop offset=".4" stop-color="#C54E47"/>
      <stop offset=".4" stop-color="#C14F49"/>
      <stop offset=".6" stop-color="#9D3863"/>
      <stop offset=".8" stop-color="#5E1F72"/>
    </linearGradient>
  </defs>
</svg>
