<svg xmlns="http://www.w3.org/2000/svg" width="437" height="325" fill="none" viewBox="0 0 437 325">
  <path fill="#E86B31" d="M436.111 285.607H0v.218h436.111v-.218Zm-43.692 14.038h-28.89v.218h28.89v-.218Z"/>
  <path fill="#EBEBEB" d="M288.897 302.012h-7.583v.218h7.583v-.218Zm73.751-10.467h-16.74v.218h16.74v-.218ZM83.43 293.01H45.756v.218H83.43v-.218Zm13.29 0h-5.525v.218h5.524v-.218Zm99.66 3.683h-81.706v.218h81.706v-.218Z"/>
  <path fill="#E86B31" d="M206.728 246.706H38.303a4.984 4.984 0 0 1-4.979-4.978V4.978A4.985 4.985 0 0 1 38.303 0h168.425a4.985 4.985 0 0 1 4.978 4.979v236.749a4.984 4.984 0 0 1-4.978 4.978ZM38.303.219a4.765 4.765 0 0 0-4.76 4.76v236.75a4.765 4.765 0 0 0 4.76 4.76h168.425a4.765 4.765 0 0 0 4.76-4.76V4.979a4.766 4.766 0 0 0-4.76-4.76H38.303Zm357.084 246.487H226.962a4.983 4.983 0 0 1-4.978-4.978V4.978A4.985 4.985 0 0 1 226.962 0h168.425a4.984 4.984 0 0 1 4.978 4.979v236.749a4.983 4.983 0 0 1-4.978 4.978ZM226.962.219a4.766 4.766 0 0 0-4.76 4.76v236.75a4.766 4.766 0 0 0 4.76 4.76h168.425a4.765 4.765 0 0 0 4.76-4.76V4.979a4.766 4.766 0 0 0-4.76-4.76H226.962Z"/>
  <path fill="#E86B31" d="M206.752 110.037v15.321l7.889.744a40.932 40.932 0 0 0 5.883 14.151l-5.067 6.121 10.834 10.834 6.121-5.069a40.892 40.892 0 0 0 14.152 5.884l.743 7.89h15.321l.743-7.89a40.911 40.911 0 0 0 14.152-5.884l6.121 5.069 10.834-10.834-5.067-6.121a40.94 40.94 0 0 0 5.883-14.151l7.889-.744v-15.321l-7.889-.744a40.925 40.925 0 0 0-5.883-14.152l5.067-6.121-10.834-10.834-6.121 5.067a40.94 40.94 0 0 0-14.152-5.883l-.743-7.89h-15.321l-.743 7.89a40.94 40.94 0 0 0-14.152 5.883l-6.121-5.067-10.834 10.834 5.067 6.12a40.91 40.91 0 0 0-5.883 14.153l-7.889.744Zm48.216-13.082c11.455 0 20.741 9.287 20.741 20.742s-9.287 20.741-20.741 20.741c-11.455 0-20.742-9.286-20.742-20.741s9.287-20.742 20.742-20.742Z"/>
  <path fill="#FFBE55" d="m180.867 178.598 4.397 3.641 7.785-7.785-3.641-4.397a29.419 29.419 0 0 0 4.227-10.169l5.669-.533v-11.008l-5.669-.535a29.409 29.409 0 0 0-4.227-10.167l3.641-4.398-7.785-7.784-4.397 3.64a29.446 29.446 0 0 0-10.169-4.227l-.534-5.669-11.008.002-.533 5.667a29.414 29.414 0 0 0-10.168 4.227l-4.398-3.64-7.785 7.784 3.642 4.398a29.384 29.384 0 0 0-4.228 10.167l-5.666.535v11.008l5.666.534a29.429 29.429 0 0 0 4.228 10.169l-3.642 4.397 7.785 7.785 4.398-3.642c3.047 2 6.478 3.462 10.168 4.228l.533 5.668h11.008l.534-5.669a29.4 29.4 0 0 0 10.169-4.227Zm-31.109-24.747c0-8.23 6.672-14.902 14.903-14.902 8.229 0 14.902 6.672 14.902 14.902s-6.673 14.903-14.902 14.903c-8.231 0-14.903-6.673-14.903-14.903Z"/>
  <path fill="#FAFAFA" d="M229.79 253.162a35.017 35.017 0 0 0 12.107-5.034l5.236 4.335 9.268-9.267-4.336-5.238a35 35 0 0 0 5.033-12.105l6.748-.635v-13.105l-6.748-.636a35.021 35.021 0 0 0-5.033-12.106l4.336-5.237-9.268-9.266-5.236 4.334a35.055 35.055 0 0 0-12.107-5.034l-.635-6.748h-13.107l-.636 6.748a35.045 35.045 0 0 0-12.105 5.034l-5.236-4.334-9.267 9.266 4.334 5.237a34.98 34.98 0 0 0-5.032 12.106l-6.749.636v13.106l6.749.635a35.02 35.02 0 0 0 5.032 12.106l-4.334 5.236 9.267 9.267 5.236-4.335a34.999 34.999 0 0 0 12.105 5.034l.636 6.748h13.107l.635-6.748Zm-24.931-34.497c0-9.798 7.944-17.742 17.743-17.742 9.8 0 17.743 7.944 17.743 17.742 0 9.799-7.943 17.742-17.743 17.742-9.799 0-17.743-7.943-17.743-17.742Z"/>
  <path fill="#F5F5F5" d="m123.391 94.571-40.125-5.483-5.484 40.125 40.126 5.484 5.483-40.126Z"/>
  <path stroke="#E0E0E0" stroke-miterlimit="10" stroke-width="3" d="m88.996 101.391 26.125 3.571m-27.241 4.569 26.126 3.572m-27.272 4.84 15.385 2.104"/>
  <path fill="#F0F0F0" d="m348.045 49.952-40.498.146.146 40.498 40.498-.146-.146-40.498Z"/>
  <path stroke="#E0E0E0" stroke-miterlimit="10" stroke-width="3" d="m314.936 61.492 26.367-.095m-26.33 8.307 26.367-.095M315 78.196l15.527-.055"/>
  <path fill="#F5F5F5" d="m372.36 148.757-40.178 5.091 5.09 40.178 40.178-5.091-5.09-40.178Z"/>
  <path stroke="#E0E0E0" stroke-miterlimit="10" stroke-width="3" d="m340.904 164.236 26.159-3.314m-25.127 11.459 26.157-3.315m-25.091 11.743 15.404-1.952"/>
  <path fill="#F0F0F0" d="m156.957 213.948-40.498.146.146 40.498 40.498-.146-.146-40.498Z"/>
  <path stroke="#E0E0E0" stroke-miterlimit="10" stroke-width="3" d="m123.844 225.481 26.367-.094m-26.336 8.309 26.367-.094m-26.33 8.584 15.527-.055"/>
  <path fill="#F0F0F0" d="m335.82 233.755-40.498.145.146 40.499 40.498-.146-.146-40.498Z"/>
  <path stroke="#E0E0E0" stroke-miterlimit="10" stroke-width="3" d="m302.707 245.291 26.367-.094m-26.336 8.309 26.368-.094m-26.34 8.586 15.528-.055"/>
  <path fill="#F0F0F0" d="m165.124 47.341-39.534 8.78 8.78 39.534 39.534-8.78-8.78-39.534Z"/>
  <path stroke="#E0E0E0" stroke-miterlimit="10" stroke-width="3" d="m135.25 65.67 25.741-5.717m-23.962 13.732 25.741-5.716m-23.905 14.005 15.159-3.367"/>
  <path fill="#E0E0E0" d="M86.554 93.455h-.726l-.998-4.617h2.721l-.997 4.617Z"/>
  <path fill="#E6E6E6" d="M86.191 92.316c2.035 0 3.685-1.3 3.685-2.901 0-1.603-1.65-2.901-3.685-2.901s-3.685 1.299-3.685 2.9c0 1.603 1.65 2.902 3.685 2.902Z"/>
  <path fill="#E0E0E0" d="M160.557 53.096h-.725l-.998-4.617h2.721l-.998 4.617Zm166.645 1.166h-.726l-.997-4.617h2.721l-.998 4.617Z"/>
  <path fill="#E6E6E6" d="M326.839 53.122c2.036 0 3.686-1.298 3.686-2.9 0-1.603-1.65-2.902-3.686-2.902-2.035 0-3.685 1.3-3.685 2.901 0 1.603 1.65 2.901 3.685 2.901Z"/>
  <path fill="#E0E0E0" d="M368.607 154.559h-.725l-.997-4.618h2.72l-.998 4.618Z"/>
  <path fill="#E6E6E6" d="M368.246 153.419c2.035 0 3.685-1.299 3.685-2.901 0-1.602-1.65-2.901-3.685-2.901-2.036 0-3.685 1.299-3.685 2.901 0 1.602 1.649 2.901 3.685 2.901Z"/>
  <path fill="#E0E0E0" d="M316.253 238.389h-.726l-.998-4.618h2.722l-.998 4.618Z"/>
  <path fill="#E6E6E6" d="M315.89 237.249c2.035 0 3.685-1.299 3.685-2.901 0-1.602-1.65-2.901-3.685-2.901s-3.685 1.299-3.685 2.901c0 1.602 1.65 2.901 3.685 2.901Z"/>
  <path fill="#E0E0E0" d="M135.611 217.629h-.725l-.997-4.617h2.72l-.998 4.617Z"/>
  <path fill="#E6E6E6" d="M135.25 216.49c2.035 0 3.685-1.299 3.685-2.901 0-1.603-1.65-2.901-3.685-2.901-2.036 0-3.686 1.298-3.686 2.901 0 1.602 1.65 2.901 3.686 2.901Z"/>
  <path fill="#F5F5F5" d="M218.056 324.998c93.399 0 169.114-4.421 169.114-9.876 0-5.454-75.715-9.876-169.114-9.876-93.4 0-169.115 4.422-169.115 9.876 0 5.455 75.715 9.876 169.115 9.876Z"/>
  <path fill="#263238" d="M125.305 169.114c0-5.744 3.781-10.419 8.428-10.419s8.427 4.674 8.427 10.419-3.781 10.419-8.427 10.419c-4.647.001-8.428-4.674-8.428-10.419Zm1.744 0c0 4.783 2.999 8.674 6.684 8.674s6.683-3.891 6.683-8.674c0-4.782-2.998-8.674-6.683-8.674-3.685.001-6.684 3.892-6.684 8.674Z"/>
  <path fill="#263238" d="M108.727 169.114c0-5.744 3.781-10.419 8.428-10.419s8.427 4.674 8.427 10.419-3.781 10.419-8.427 10.419c-4.647.001-8.428-4.674-8.428-10.419Zm1.744 0c0 4.783 2.999 8.674 6.684 8.674s6.683-3.891 6.683-8.674c0-4.782-2.998-8.674-6.683-8.674-3.685 0-6.684 3.892-6.684 8.674Z"/>
  <path fill="#263238" d="M92.143 169.114c0-5.744 3.78-10.419 8.428-10.419 4.647 0 8.427 4.674 8.427 10.419s-3.781 10.419-8.427 10.419c-4.648.001-8.428-4.674-8.428-10.419Zm1.744 0c0 4.783 2.999 8.674 6.684 8.674s6.683-3.891 6.683-8.674c0-4.782-2.998-8.674-6.683-8.674-3.686.001-6.684 3.892-6.684 8.674Z"/>
  <path fill="#263238" d="M75.57 169.114c0-5.744 3.781-10.419 8.429-10.419 4.647 0 8.427 4.674 8.427 10.419s-3.78 10.419-8.427 10.419c-4.648.001-8.429-4.674-8.429-10.419Zm1.745 0c0 4.783 2.999 8.674 6.684 8.674s6.683-3.891 6.683-8.674c0-4.782-2.998-8.674-6.683-8.674-3.685.001-6.684 3.892-6.684 8.674Zm64.578 0c0-5.744 3.78-10.419 8.428-10.419 4.647 0 8.427 4.674 8.427 10.419s-3.781 10.419-8.427 10.419c-4.647.001-8.428-4.674-8.428-10.419Zm1.744 0c0 4.783 2.999 8.674 6.684 8.674s6.683-3.891 6.683-8.674c0-4.782-2.998-8.674-6.683-8.674-3.685 0-6.684 3.892-6.684 8.674Z"/>
  <path fill="#263238" d="M64.59 312.986h103.867V169.315H64.589v143.671Z"/>
  <path fill="#fff" d="M64.59 312.986h103.867V169.315H64.589v143.671Z" opacity=".7"/>
  <path fill="#fff" d="M73.956 312.986h94.501V169.315h-94.5v143.671Z" opacity=".6"/>
  <path fill="#000" d="m67.71 312.987-.436-134.268-.436 134.268h.872Zm4.344-.001-.436-125.904-.436 125.904h.872Zm-3.042-143.562.436 100.941.436-100.941h-.872Z" opacity=".2"/>
  <path fill="#263238" d="M152.83 176.146c0 1.637 1.095 2.965 2.446 2.965 1.351 0 2.446-1.328 2.446-2.965 0-1.637-1.095-2.964-2.446-2.964-1.351 0-2.446 1.327-2.446 2.964Z"/>
  <path fill="#263238" d="M155.425 177.024a.874.874 0 0 0 .661-.302c1.692-1.961 2.662-4.734 2.662-7.608 0-5.744-3.781-10.419-8.427-10.419-3.425 0-6.483 2.523-7.789 6.426a.872.872 0 0 0 1.654.554c1.065-3.18 3.473-5.235 6.135-5.235 3.685 0 6.683 3.891 6.683 8.674 0 2.462-.817 4.819-2.239 6.468a.874.874 0 0 0 .66 1.442Z"/>
  <path fill="#fff" d="M155.425 177.024a.874.874 0 0 0 .661-.302c1.692-1.961 2.662-4.734 2.662-7.608 0-5.744-3.781-10.419-8.427-10.419-3.425 0-6.483 2.523-7.789 6.426a.872.872 0 0 0 1.654.554c1.065-3.18 3.473-5.235 6.135-5.235 3.685 0 6.683 3.891 6.683 8.674 0 2.462-.817 4.819-2.239 6.468a.874.874 0 0 0 .66 1.442Z" opacity=".4"/>
  <path fill="#263238" d="M136.246 176.146c0 1.637 1.096 2.965 2.446 2.965 1.351 0 2.446-1.328 2.446-2.965 0-1.637-1.096-2.964-2.446-2.964s-2.446 1.327-2.446 2.964Z"/>
  <path fill="#263238" d="M138.843 177.024a.874.874 0 0 0 .661-.302c1.691-1.961 2.662-4.734 2.662-7.608 0-5.744-3.781-10.419-8.427-10.419-3.425 0-6.483 2.523-7.789 6.426a.872.872 0 0 0 1.654.554c1.065-3.18 3.472-5.235 6.135-5.235 3.685 0 6.682 3.891 6.682 8.674 0 2.462-.816 4.819-2.238 6.468a.874.874 0 0 0 .66 1.442Z"/>
  <path fill="#fff" d="M138.843 177.024a.874.874 0 0 0 .661-.302c1.691-1.961 2.662-4.734 2.662-7.608 0-5.744-3.781-10.419-8.427-10.419-3.425 0-6.483 2.523-7.789 6.426a.872.872 0 0 0 1.654.554c1.065-3.18 3.472-5.235 6.135-5.235 3.685 0 6.682 3.891 6.682 8.674 0 2.462-.816 4.819-2.238 6.468a.874.874 0 0 0 .66 1.442Z" opacity=".4"/>
  <path fill="#263238" d="M119.66 176.146c0 1.637 1.095 2.965 2.446 2.965 1.351 0 2.446-1.328 2.446-2.965 0-1.637-1.095-2.964-2.446-2.964-1.351 0-2.446 1.327-2.446 2.964Z"/>
  <path fill="#263238" d="M122.263 177.024a.874.874 0 0 0 .661-.302c1.691-1.961 2.662-4.734 2.662-7.608 0-5.744-3.781-10.419-8.428-10.419-3.424 0-6.482 2.523-7.789 6.426a.874.874 0 0 0 1.655.554c1.065-3.18 3.473-5.235 6.134-5.235 3.686 0 6.683 3.891 6.683 8.674 0 2.462-.816 4.819-2.238 6.468a.874.874 0 0 0 .66 1.442Z"/>
  <path fill="#fff" d="M122.263 177.024a.874.874 0 0 0 .661-.302c1.691-1.961 2.662-4.734 2.662-7.608 0-5.744-3.781-10.419-8.428-10.419-3.424 0-6.482 2.523-7.789 6.426a.874.874 0 0 0 1.655.554c1.065-3.18 3.473-5.235 6.134-5.235 3.686 0 6.683 3.891 6.683 8.674 0 2.462-.816 4.819-2.238 6.468a.874.874 0 0 0 .66 1.442Z" opacity=".4"/>
  <path fill="#263238" d="M103.086 176.146c0 1.637 1.095 2.965 2.446 2.965 1.351 0 2.445-1.328 2.445-2.965 0-1.637-1.095-2.964-2.445-2.964-1.351 0-2.446 1.327-2.446 2.964Z"/>
  <path fill="#263238" d="M105.679 177.024a.874.874 0 0 0 .661-.302c1.692-1.961 2.662-4.734 2.662-7.608 0-5.744-3.781-10.419-8.428-10.419-3.424 0-6.482 2.523-7.788 6.426a.873.873 0 0 0 1.654.554c1.065-3.18 3.472-5.235 6.134-5.235 3.686 0 6.683 3.891 6.683 8.674 0 2.462-.816 4.819-2.238 6.468a.874.874 0 0 0 .66 1.442Z"/>
  <path fill="#fff" d="M105.679 177.024a.874.874 0 0 0 .661-.302c1.692-1.961 2.662-4.734 2.662-7.608 0-5.744-3.781-10.419-8.428-10.419-3.424 0-6.482 2.523-7.788 6.426a.873.873 0 0 0 1.654.554c1.065-3.18 3.472-5.235 6.134-5.235 3.686 0 6.683 3.891 6.683 8.674 0 2.462-.816 4.819-2.238 6.468a.874.874 0 0 0 .66 1.442Z" opacity=".4"/>
  <path fill="#263238" d="M86.504 176.146c0 1.637 1.095 2.965 2.446 2.965 1.35 0 2.445-1.328 2.445-2.965 0-1.637-1.095-2.964-2.445-2.964-1.352 0-2.446 1.327-2.446 2.964Z"/>
  <path fill="#263238" d="M89.105 177.024a.874.874 0 0 0 .66-.302c1.692-1.961 2.663-4.734 2.663-7.608 0-5.744-3.78-10.419-8.428-10.419-3.424 0-6.482 2.523-7.789 6.426a.873.873 0 0 0 1.655.554c1.065-3.18 3.472-5.235 6.134-5.235 3.685 0 6.683 3.891 6.683 8.674 0 2.462-.816 4.819-2.238 6.468a.874.874 0 0 0 .66 1.442Z"/>
  <path fill="#fff" d="M89.105 177.024a.874.874 0 0 0 .66-.302c1.692-1.961 2.663-4.734 2.663-7.608 0-5.744-3.78-10.419-8.428-10.419-3.424 0-6.482 2.523-7.789 6.426a.873.873 0 0 0 1.655.554c1.065-3.18 3.472-5.235 6.134-5.235 3.685 0 6.683 3.891 6.683 8.674 0 2.462-.816 4.819-2.238 6.468a.874.874 0 0 0 .66 1.442Z" opacity=".4"/>
  <path fill="#E86B31" d="M101.255 235.414h-7.31v12.463h7.31v-12.463Zm11.838-9.074h-7.31v21.533h7.31V226.34Zm11.848 3.406h-7.31v18.132h7.31v-18.132Zm11.834-9.074h-7.31v27.202h7.31v-27.202Zm11.843-9.068h-7.309v36.272h7.309v-36.272Z"/>
  <path fill="#fff" d="M101.255 235.414h-7.31v12.463h7.31v-12.463Zm11.838-9.074h-7.31v21.533h7.31V226.34Zm11.848 3.406h-7.31v18.132h7.31v-18.132Zm11.834-9.074h-7.31v27.202h7.31v-27.202Zm11.843-9.068h-7.309v36.272h7.309v-36.272Z" opacity=".5"/>
  <path fill="#263238" d="M158.366 246.148H83.904v3.451h74.462v-3.451Z"/>
  <path stroke="#FFBE55" stroke-miterlimit="10" stroke-width="2.967" d="m86.238 236.965 23.196-18.459 11.841 6.873 32.602-27.791"/>
  <path fill="#FFBE55" d="m155.783 195.984-4.851.752 3.418 3.65 1.433-4.402Z"/>
  <path fill="#000" d="M126.126 260.813H83.987a.872.872 0 1 1 0-1.745h42.139a.872.872 0 1 1 0 1.745Zm32.543 7.795H90.001a.872.872 0 1 1 0-1.745h68.668a.873.873 0 1 1 0 1.745Zm.097 4.371H83.988a.872.872 0 1 1 0-1.745h74.777a.872.872 0 0 1 .001 1.745Zm.1 4.373H84.089a.872.872 0 1 1 0-1.745h74.777a.873.873 0 1 1 0 1.745Zm-12.125 4.369h-62.56a.872.872 0 1 1 0-1.744h62.559a.87.87 0 1 1 .001 1.744Zm11.928 7.83H90.001a.872.872 0 1 1 0-1.744h68.668a.872.872 0 1 1 0 1.744Zm.097 4.371H83.988a.872.872 0 1 1 0-1.744h74.777a.872.872 0 0 1 .001 1.744Zm.1 4.373H84.089a.872.872 0 1 1 0-1.744h74.777a.872.872 0 1 1 0 1.744Zm-12.125 4.369h-62.56a.872.872 0 1 1 0-1.744h62.559a.871.871 0 1 1 .001 1.744Zm-20.615-114.291H83.987a.872.872 0 1 1 0-1.744h42.139a.871.871 0 1 1 0 1.744Z" opacity=".3"/>
  <path fill="url(#a)" d="M357.998 272.922H257.839a3.019 3.019 0 0 1-3.019-3.019V104.445a3.019 3.019 0 0 1 3.019-3.019h100.158a3.019 3.019 0 0 1 3.019 3.019v165.458a3.018 3.018 0 0 1-3.018 3.019Z"/>
  <path fill="#263238" d="M336.56 106.788h-57.279v-5.618c0-.311.252-.563.563-.563h56.154c.311 0 .563.252.563.563l-.001 5.618Z"/>
  <path fill="#fff" d="M356.817 106.787H259.02v160.758h97.797V106.787Z" opacity=".9"/>
  <path fill="#263238" d="M327.103 114.186h-17.206l-.196-.602a1.858 1.858 0 0 0-3.539 0l-.197.602h-17.206a2.519 2.519 0 0 1-2.521-2.512v-6.332a2.52 2.52 0 0 1 2.521-2.512h38.343a2.515 2.515 0 0 1 2.512 2.512v6.332a2.514 2.514 0 0 1-2.511 2.512Zm-16-1.745h16a.768.768 0 0 0 .767-.767v-6.333a.768.768 0 0 0-.767-.767H288.76a.763.763 0 0 0-.776.767v6.333c0 .43.341.767.776.767h16a3.596 3.596 0 0 1 3.171-1.893 3.6 3.6 0 0 1 3.172 1.893Z"/>
  <path fill="#fff" d="M327.103 114.186h-17.206l-.196-.602a1.858 1.858 0 0 0-3.539 0l-.197.602h-17.206a2.519 2.519 0 0 1-2.521-2.512v-6.332a2.52 2.52 0 0 1 2.521-2.512h38.343a2.515 2.515 0 0 1 2.512 2.512v6.332a2.514 2.514 0 0 1-2.511 2.512Zm-16-1.745h16a.768.768 0 0 0 .767-.767v-6.333a.768.768 0 0 0-.767-.767H288.76a.763.763 0 0 0-.776.767v6.333c0 .43.341.767.776.767h16a3.596 3.596 0 0 1 3.171-1.893 3.6 3.6 0 0 1 3.172 1.893Z" opacity=".5"/>
  <path fill="#263238" d="M324.393 105.614h-32.952a.863.863 0 0 1-.863-.862v-2.071c0-.476.387-.863.863-.863h32.952c.477 0 .863.387.863.863v2.071a.862.862 0 0 1-.863.862Z"/>
  <path fill="#fff" d="M324.393 105.614h-32.952a.863.863 0 0 1-.863-.862v-2.071c0-.476.387-.863.863-.863h32.952c.477 0 .863.387.863.863v2.071a.862.862 0 0 1-.863.862Z" opacity=".2"/>
  <path fill="#FFBE55" d="M349.187 241.511c2.356-9.975-3.821-19.971-13.797-22.327-9.975-2.355-19.971 3.822-22.326 13.797-2.356 9.975 3.821 19.971 13.797 22.327 9.975 2.355 19.971-3.822 22.326-13.797Z"/>
  <path fill="#fff" d="M331.124 237.215h18.559c0 10.182-8.378 18.56-18.559 18.56-10.182 0-18.56-8.378-18.56-18.56 0-10.181 8.378-18.559 18.56-18.559h.067l-.067 18.559Z" opacity=".3"/>
  <path fill="#fff" d="m331.124 237.215 10.014 15.625a18.556 18.556 0 0 1-10.014 2.935c-10.182 0-18.56-8.378-18.56-18.56 0-10.181 8.378-18.559 18.56-18.559h.064l-.064 18.559Z" opacity=".3"/>
  <path fill="#fff" d="m331.124 237.215-15.647 9.981a18.559 18.559 0 0 1-2.913-9.981c0-10.181 8.378-18.559 18.56-18.559h.064l-.064 18.559Z" opacity=".3"/>
  <g opacity=".5">
    <path fill="#000" d="M266.072 135.578v43.807h83.697v-43.807h-83.697Zm83.043 6.842h-14.488v-6.188h14.488v6.188Zm-46.273 0H287.93v-6.188h14.912v6.188Zm.654-6.188h14.911v6.188h-14.911v-6.188Zm-.654 6.842v35.656H287.93v-35.656h14.912Zm.654 0h14.911v35.656h-14.911v-35.656Zm15.566 0h14.911v35.656h-14.911v-35.656Zm0-.654v-6.188h14.911v6.188h-14.911Zm-31.786-6.188v6.188h-20.55v-6.188h20.55Zm-20.55 6.842h20.55v35.656h-20.55v-35.656Zm67.901 35.656v-35.656h14.488v35.656h-14.488Z"/>
    <path fill="#000" d="M292.683 149.196h6.038a.872.872 0 0 0 0-1.745h-6.038a.872.872 0 0 0 0 1.745Zm15.232 7.912h6.554a.871.871 0 1 0 0-1.745h-6.554a.872.872 0 0 0 0 1.745Zm6.844 14.085h-6.844a.872.872 0 0 0 0 1.745h6.844a.872.872 0 0 0 0-1.745Zm15.173-7.916H322.7a.872.872 0 0 0 0 1.745h7.232a.872.872 0 0 0 0-1.745Zm15.605-15.826h-7.319a.872.872 0 0 0 0 1.745h7.319a.873.873 0 0 0 0-1.745Zm-.935 23.742h-6.384a.872.872 0 1 0 0 1.745h6.384a.872.872 0 0 0 0-1.745Zm-51.919-6.171h5.176a.872.872 0 0 0 0-1.745h-5.176a.872.872 0 1 0 0 1.745Zm6.038 6.171h-6.038a.872.872 0 1 0 0 1.745h6.038a.871.871 0 1 0 0-1.745Zm-28.849-21.997h13.802a.872.872 0 0 0 0-1.745h-13.802a.873.873 0 0 0 0 1.745Zm0 7.912h9.19a.872.872 0 0 0 0-1.745h-9.19a.872.872 0 0 0 0 1.745Zm13.802 6.169h-13.802a.872.872 0 0 0 0 1.745h13.802a.871.871 0 1 0 0-1.745Zm-6.901 7.916h-6.901a.872.872 0 0 0 0 1.745h6.901a.871.871 0 1 0 0-1.745Z"/>
  </g>
  <path fill="#000" d="M299.601 126.391h-32.657a.873.873 0 0 1 0-1.745h32.657a.873.873 0 0 1 0 1.745Zm-11.453 4.898h-21.204a.872.872 0 0 1 0-1.744h21.204a.872.872 0 0 1 0 1.744Zm20.934 55.657h-42.138a.872.872 0 0 1 0-1.745h42.138a.872.872 0 1 1 0 1.745Z" opacity=".5"/>
  <path fill="#E86B31" d="M271.282 221.525h-5.206v5.206h5.206v-5.206Z"/>
  <path fill="#000" d="M300.904 225.002h-25.84a.872.872 0 1 1 0-1.744h25.84a.871.871 0 1 1 0 1.744Z" opacity=".5"/>
  <path fill="#E86B31" d="M271.282 230.248h-5.206v5.205h5.206v-5.205Z"/>
  <path fill="#000" d="M300.904 233.723h-25.84a.872.872 0 1 1 0-1.744h25.84a.87.87 0 1 1 0 1.744Z" opacity=".5"/>
  <path fill="#E86B31" d="M271.282 238.977h-5.206v5.205h5.206v-5.205Z"/>
  <path fill="#000" d="M300.904 242.451h-25.84a.872.872 0 1 1 0-1.744h25.84a.871.871 0 1 1 0 1.744Z" opacity=".5"/>
  <path fill="#E86B31" d="M271.282 247.709h-5.206v5.205h5.206v-5.205Z"/>
  <path fill="#000" d="M300.904 251.184h-25.84a.872.872 0 1 1 0-1.745h25.84a.872.872 0 1 1 0 1.745Zm47.709-56.438h-75.651a.871.871 0 1 1 0-1.744h75.651a.872.872 0 0 1 0 1.744Zm.095 4.37h-81.76a.872.872 0 0 1 0-1.745h81.76a.872.872 0 0 1 0 1.745Zm.101 4.373H267.05a.872.872 0 1 1 0-1.745h81.759a.872.872 0 1 1 0 1.745Zm-12.136 4.369h-69.541a.872.872 0 0 1 0-1.745h69.541a.873.873 0 1 1 0 1.745Z" opacity=".5"/>
  <path fill="#fff" d="M271.28 230.248h-5.206v5.205h5.206v-5.205Z" opacity=".3"/>
  <path fill="#fff" d="M271.28 238.979h-5.206v5.205h5.206v-5.205Z" opacity=".5"/>
  <path fill="#fff" d="M271.28 247.705h-5.206v5.205h5.206v-5.205Z" opacity=".7"/>
  <path fill="#E86B31" d="M355.358 295.073s-4.143-9.04.59-17.952c4.734-8.911 6.107-11.011 3.089-12.836-3.018-1.826-4.402 7.129-4.402 7.129s-2.544-6.161-.444-12.608c2.101-6.447 3.418-16.948.549-18.074-2.869-1.126-.548 13.1-3.036 17.949 0 0-2.091-5.398-2.434-10.577-.344-5.178.193-13.447-2.072-15.568-2.265-2.121-3.717-.653-1.491 10.775 2.226 11.427 2.21 20.717 2.21 20.717S343 249.038 339.7 248.6c-3.299-.437-3.295 4.417-.471 8.628 2.825 4.21 8.272 11.754 9.165 15.635 0 0-5.397-11.281-10.251-7.824-4.855 3.458 4.225 10.272 8.272 12.734 4.047 2.462 6.857 17.896 6.857 17.896l2.086-.596Z"/>
  <path fill="#000" d="M355.358 295.073s-4.143-9.04.59-17.952c4.734-8.911 6.107-11.011 3.089-12.836-3.018-1.826-4.402 7.129-4.402 7.129s-2.544-6.161-.444-12.608c2.101-6.447 3.418-16.948.549-18.074-2.869-1.126-.548 13.1-3.036 17.949 0 0-2.091-5.398-2.434-10.577-.344-5.178.193-13.447-2.072-15.568-2.265-2.121-3.717-.653-1.491 10.775 2.226 11.427 2.21 20.717 2.21 20.717S343 249.038 339.7 248.6c-3.299-.437-3.295 4.417-.471 8.628 2.825 4.21 8.272 11.754 9.165 15.635 0 0-5.397-11.281-10.251-7.824-4.855 3.458 4.225 10.272 8.272 12.734 4.047 2.462 6.857 17.896 6.857 17.896l2.086-.596Z" opacity=".2"/>
  <path fill="#E86B31" d="M352.092 298.782s4.034-9.101-.806-17.941c-4.84-8.84-6.237-10.919-3.242-12.79 2.996-1.871 4.488 7.063 4.488 7.063s2.469-6.198.292-12.613c-2.178-6.416-3.62-16.896-.766-18.065 2.855-1.169.705 13.09 3.252 17.902 0 0 2.025-5.428 2.307-10.612.282-5.183-.355-13.443 1.885-15.598 2.24-2.154 3.708-.709 1.62 10.751-2.089 11.46-1.961 20.748-1.961 20.748s4.736-15.062 8.03-15.549c3.295-.486 3.349 4.368.575 8.621-2.773 4.252-8.13 11.876-8.977 15.77 0 0 5.261-11.361 10.156-7.975 4.896 3.385-4.102 10.333-8.118 12.855-4.018 2.523-6.642 17.997-6.642 17.997l-2.093-.564Z"/>
  <path fill="#263238" d="M370.696 292.293h-33.329l2.698 23.849h27.934l2.697-23.849Z"/>
  <path fill="#E86B31" d="M169.441 87.76h25.057a7.716 7.716 0 0 1 7.716 7.715v21.808a7.716 7.716 0 0 1-7.716 7.715h-7.316l2.642 9.504-7.832-9.504H169.44a7.715 7.715 0 0 1-7.715-7.715V95.475a7.716 7.716 0 0 1 7.716-7.715Z"/>
  <path fill="#fff" d="M169.441 87.76h25.057a7.716 7.716 0 0 1 7.716 7.715v21.808a7.716 7.716 0 0 1-7.716 7.715h-7.316l2.642 9.504-7.832-9.504H169.44a7.715 7.715 0 0 1-7.715-7.715V95.475a7.716 7.716 0 0 1 7.716-7.715Z" opacity=".7"/>
  <path fill="#fff" d="M178.183 111.128a7.808 7.808 0 1 0 0-15.617 7.808 7.808 0 0 0 0 15.617Z" opacity=".7"/>
  <path stroke="#E86B31" stroke-miterlimit="10" stroke-width="2.597" d="M178.183 111.128a7.808 7.808 0 1 0 0-15.617 7.808 7.808 0 0 0 0 15.617Zm5.516-2.286 8.902 8.902"/>
  <path stroke="#E86B31" stroke-linecap="round" stroke-linejoin="round" stroke-miterlimit="10" stroke-width="3.895" d="m186.758 111.896 6.8 6.799"/>
  <path fill="#fff" d="M179.396 99.792a1.726 1.726 0 1 1-3.452-.002 1.726 1.726 0 0 1 3.452.002Zm2.587 1.272a.862.862 0 1 1-1.725 0 .862.862 0 0 1 1.725 0Z"/>
  <path fill="#E86B31" d="M251.872 248.148H121.965v20.908h129.907v-20.908Z"/>
  <path fill="#fff" d="M251.872 248.148H121.965v20.908h129.907v-20.908Z" opacity=".8"/>
  <path fill="#000" d="M251.873 253.673v-1.702l-88.945.714 88.945.988Zm-.002 7.332v-1.314l-39.93 1.428 39.93-.114Zm-.001 4.894v-1.696l-64.38.981 64.38.715Z" opacity=".2"/>
  <path fill="#000" d="m151.006 248.148-1.883 15.587 2.222-2.372c1.027 4.392 4.088 7.693 4.088 7.693s2.065-2.567 3.278-5.997l60.668-.697-60.098-1.313c.18-.839.295-1.706.295-2.582 0-.742-.082-1.469-.214-2.175l89.024-.225-89.23-.698a16.957 16.957 0 0 0-1.311-3.39 6.951 6.951 0 0 1 4.65-1.785h89.376v-2.045l-100.865-.001Z" opacity=".2"/>
  <path fill="#E86B31" d="M153.015 258.479a9.425 9.425 0 0 0 2.771 6.68 9.429 9.429 0 0 0 6.691 2.771h90.897c.385 0 .697.312.697.697v.748a.697.697 0 0 1-.697.697H119.105c-3.199 0-6.106-1.3-8.206-3.399a11.574 11.574 0 0 1-3.399-8.293c.047-6.425 5.479-11.519 11.904-11.519h133.97c.385 0 .697.313.697.697v.749a.698.698 0 0 1-.697.697h-90.618c-5.213 0-9.747 4.262-9.741 9.475Z"/>
  <path fill="#E86B31" d="M153.015 258.479a9.43 9.43 0 0 0 2.771 6.68 9.43 9.43 0 0 0 6.692 2.771h90.896c.385 0 .697.312.697.697v.748a.697.697 0 0 1-.697.697h-91.417c-3.2 0-6.107-1.3-8.206-3.399a11.565 11.565 0 0 1-3.399-8.293c.047-6.425 5.478-11.519 11.903-11.519h91.119c.385 0 .697.313.697.697v.749a.698.698 0 0 1-.697.697h-90.617c-5.214 0-9.748 4.262-9.742 9.475Z"/>
  <path fill="#263238" d="M170.137 252.85v8.382l3.033-3.035 2.941 2.94v-8.287h-5.974Z"/>
  <path fill="#fff" d="M153.015 258.479a9.43 9.43 0 0 0 2.771 6.68 9.43 9.43 0 0 0 6.692 2.771h90.896c.385 0 .697.312.697.697v.748a.697.697 0 0 1-.697.697h-91.417c-3.2 0-6.107-1.3-8.206-3.399a11.565 11.565 0 0 1-3.399-8.293c.047-6.425 5.478-11.519 11.903-11.519h91.119c.385 0 .697.313.697.697v.749a.698.698 0 0 1-.697.697h-90.617c-5.214 0-9.748 4.262-9.742 9.475Z" opacity=".6"/>
  <path fill="#E86B31" d="M258.153 294.219H128.246v20.907h129.907v-20.907Z"/>
  <path fill="#fff" d="M258.153 294.219H128.246v20.907h129.907v-20.907Z" opacity=".7"/>
  <path fill="#000" d="M258.15 299.744v-1.703l-88.945.714 88.945.989Zm.003 7.331v-1.313l-39.928 1.428 39.928-.115Zm-.007 4.895v-1.695l-64.378.981 64.378.714Z" opacity=".2"/>
  <path fill="#000" d="m157.284 294.219-1.884 15.586 2.222-2.372c1.027 4.392 4.088 7.693 4.088 7.693s2.065-2.568 3.279-5.997l60.667-.697-60.098-1.313c.18-.84.295-1.706.295-2.583 0-.742-.082-1.469-.214-2.174l89.025-.225-89.23-.699a17.07 17.07 0 0 0-1.311-3.389 6.948 6.948 0 0 1 4.649-1.786h89.375v-2.044H157.284Z" opacity=".2"/>
  <path fill="#263238" d="M159.289 304.548a9.433 9.433 0 0 0 2.771 6.679 9.43 9.43 0 0 0 6.692 2.771h90.897c.385 0 .697.312.697.697v.748a.697.697 0 0 1-.697.697H118.238a11.579 11.579 0 0 1-8.206-3.399 11.572 11.572 0 0 1-3.399-8.293c.047-6.425 5.479-11.518 11.903-11.518H259.65c.384 0 .697.312.697.697v.748a.698.698 0 0 1-.697.697h-90.62c-5.212.001-9.748 4.262-9.741 9.476Z"/>
  <path fill="#FFBE55" d="M159.289 304.548a9.433 9.433 0 0 0 2.771 6.679 9.43 9.43 0 0 0 6.692 2.771h90.897c.385 0 .697.312.697.697v.748a.697.697 0 0 1-.697.697H118.238a11.579 11.579 0 0 1-8.206-3.399 11.572 11.572 0 0 1-3.399-8.293c.047-6.425 5.479-11.518 11.903-11.518H259.65c.384 0 .697.312.697.697v.748a.698.698 0 0 1-.697.697h-90.62c-5.212.001-9.748 4.262-9.741 9.476Z"/>
  <path fill="#263238" d="M159.293 304.548a9.429 9.429 0 0 0 2.771 6.679 9.43 9.43 0 0 0 6.692 2.771h90.897c.384 0 .697.312.697.697v.748a.698.698 0 0 1-.697.697h-91.419a11.579 11.579 0 0 1-8.206-3.399 11.572 11.572 0 0 1-3.399-8.293c.047-6.425 5.479-11.518 11.903-11.518h91.121c.384 0 .697.312.697.697v.748a.698.698 0 0 1-.697.697h-90.619c-5.212.001-9.748 4.262-9.741 9.476Z"/>
  <path fill="#E86B31" d="M169.203 301.891v8.382l3.035-3.035 2.94 2.94v-8.287h-5.975Z"/>
  <path fill="#6C4403" d="M159.293 304.548a9.429 9.429 0 0 0 2.771 6.679 9.43 9.43 0 0 0 6.692 2.771h90.897c.384 0 .697.312.697.697v.748a.698.698 0 0 1-.697.697h-91.419a11.579 11.579 0 0 1-8.206-3.399 11.572 11.572 0 0 1-3.399-8.293c.047-6.425 5.479-11.518 11.903-11.518h91.121c.384 0 .697.312.697.697v.748a.698.698 0 0 1-.697.697h-90.619c-5.212.001-9.748 4.262-9.741 9.476Z"/>
  <path fill="#E86B31" d="M116.553 292.062h48.133v-20.876h-48.133v20.876Z"/>
  <path fill="#fff" d="M116.553 292.062h48.133v-20.876h-48.133v20.876Z" opacity=".8"/>
  <path fill="#000" d="M160.822 273.23h-44.271v-2.042h44.224l.047 2.042Zm.005 1.78-39.94.852 39.94.851v-1.703Zm-.007 7.719-42.295.714 42.295.6v-1.314Zm.008 4.515-41.918.848 41.918.848v-1.696Zm-44.273-9.258 40.551 1.225-40.551.848v-2.073Z" opacity=".2"/>
  <path fill="#263238" d="M223.973 281.516a9.425 9.425 0 0 1-2.771 6.68 9.429 9.429 0 0 1-6.691 2.771H114.33a.697.697 0 0 0-.697.697v.748c0 .385.312.697.697.697h100.702c3.199 0 6.107-1.299 8.206-3.399a11.565 11.565 0 0 0 3.399-8.293c-.047-6.425-5.478-11.519-11.903-11.519H114.33a.698.698 0 0 0-.697.697v.749c0 .384.312.697.697.697h99.902c5.214 0 9.748 4.263 9.741 9.475Z"/>
  <path fill="#fff" d="M223.973 281.516a9.425 9.425 0 0 1-2.771 6.68 9.429 9.429 0 0 1-6.691 2.771H114.33a.697.697 0 0 0-.697.697v.748c0 .385.312.697.697.697h100.702c3.199 0 6.107-1.299 8.206-3.399a11.565 11.565 0 0 0 3.399-8.293c-.047-6.425-5.478-11.519-11.903-11.519H114.33a.698.698 0 0 0-.697.697v.749c0 .384.312.697.697.697h99.902c5.214 0 9.748 4.263 9.741 9.475Z" opacity=".4"/>
  <path fill="#E86B31" d="M260.51 281.641c0 5.773-4.681 10.454-10.454 10.454h-89.232v-20.907h89.232c5.773 0 10.454 4.68 10.454 10.453Z"/>
  <path fill="#fff" d="M160.82 271.188v20.911h89.237c2.207 0 4.25-.686 5.935-1.85a10.449 10.449 0 0 0 4.514-8.606c0-5.778-4.678-10.455-10.449-10.455H160.82Z" opacity=".7"/>
  <path fill="#000" d="M160.824 276.713v-1.703l88.945.714-88.945.989Zm0 7.33v-1.314l39.93 1.428-39.93-.114Zm0 4.895v-1.696l64.38.981-64.38.715Z" opacity=".2"/>
  <path fill="#000" d="M250.202 273.229c1.75 0 3.392.664 4.649 1.786a17.41 17.41 0 0 0-1.314 3.392l-89.23.699 89.022.222a12.128 12.128 0 0 0-.214 2.178c0 .878.114 1.742.3 2.578l-60.099 1.314 60.662.7c.578 1.642 1.357 3.092 2.014 4.149a10.449 10.449 0 0 0 4.514-8.606c0-5.778-4.678-10.455-10.449-10.455H160.82v2.042l89.382.001Z" opacity=".2"/>
  <path fill="#263238" d="M259.684 281.516a9.43 9.43 0 0 1-2.772 6.68 9.425 9.425 0 0 1-6.691 2.771h-90.897a.697.697 0 0 0-.697.697v.748c0 .385.312.697.697.697h91.418c3.2 0 6.107-1.299 8.206-3.399a11.565 11.565 0 0 0 3.399-8.293c-.047-6.425-5.478-11.519-11.903-11.519h-91.12a.698.698 0 0 0-.697.697v.749c0 .384.312.697.697.697h90.618c5.213 0 9.748 4.263 9.742 9.475Z"/>
  <path fill="#E4897B" d="m273.342 161.047-2.183.041a2.54 2.54 0 0 0-2.047 1.105l-2.168 3.164a4.733 4.733 0 0 0-.537 4.311l.328.892c3.624.179 7.672-2.297 7.672-2.297l1.233-.578c1.097-.515 1.571-1.735 1.088-2.802l-1.114-2.457c-.385-.848-1.288-1.397-2.272-1.379Z"/>
  <path fill="#E4897B" d="m231.967 164.93 2.093 1.681c.725.572 1.467 1.13 2.214 1.678a107.06 107.06 0 0 0 4.548 3.167 72.785 72.785 0 0 0 4.687 2.801 47.74 47.74 0 0 0 4.798 2.23l-.83-.175c-.039.048.465.045 1.05-.115.598-.154 1.298-.42 2.009-.755 1.429-.679 2.933-1.537 4.403-2.49a96.896 96.896 0 0 0 4.425-3.02c1.477-1.032 2.944-2.16 4.372-3.223l.054-.04a2.213 2.213 0 0 1 3.082 3.114c-1.191 1.566-2.437 2.976-3.737 4.406a62.311 62.311 0 0 1-4.158 4.072c-1.487 1.289-3.039 2.554-4.856 3.681a19.701 19.701 0 0 1-3.047 1.562c-1.16.444-2.505.875-4.404.771a2.557 2.557 0 0 1-.566-.096l-.263-.079a45.02 45.02 0 0 1-6.067-2.254 57.918 57.918 0 0 1-5.582-2.929 68.316 68.316 0 0 1-5.195-3.418 86.801 86.801 0 0 1-2.469-1.879 43.55 43.55 0 0 1-2.445-2.059 4.43 4.43 0 0 1 5.724-6.757l.16.126Z"/>
  <path fill="#E86B31" d="M220.253 158.729c-2.04 5.684 1.248 11.343 9.155 17.993 3.941-.58 9.246-8.652 9.246-8.652s-11.121-11.127-18.401-9.341Z"/>
  <path fill="#472E05" d="M227.058 123.4s-7.79-7.972-17.938 2.033c-10.147 10.006-12.13 43.149-12.13 43.149l26.495 5.149s3.428-3.937 5.189-15.283c1.761-11.346 2.695-22.195 4.93-24.728 2.235-2.533-6.546-10.32-6.546-10.32Z"/>
  <path fill="#E4897B" d="m249.817 291.255-5.739-2.288 2.242-8.367 2.068-7.674 7.256 1.606-3.081 8.855-2.746 7.868Z"/>
  <path fill="#000" d="m252.487 283.563-6.235-2.808 2.1-7.751 7.271 1.566-3.136 8.993Z" opacity=".2"/>
  <path fill="#263238" d="M206.387 215.881s47.958-6.466 61.3 2.045c13.343 8.511-12.483 60.359-12.483 60.359l-8.076-1.785s6.053-41.096 5.6-42.818c-.453-1.723-23.04 9.494-53.958 10.556l7.617-28.357Z"/>
  <path fill="#455A64" d="M206.387 215.881s47.958-6.466 61.3 2.045c13.343 8.511-12.483 60.359-12.483 60.359l-8.076-1.785s6.053-41.096 5.6-42.818c-.453-1.723-23.04 9.494-53.958 10.556l7.617-28.357Z" opacity=".2"/>
  <path fill="#263238" d="m246.681 273.92 10.165 3.295-1.822 4.635-9.338-3.176.995-4.754Z"/>
  <path stroke="#577AFA" stroke-linecap="round" stroke-linejoin="round" stroke-miterlimit="10" stroke-width=".483" d="M251.838 290.225s1.996-2.599 3.246-1.42c1.439 1.358-3.246 1.42-3.246 1.42Zm0 0s3.92.137 3.832 1.477c-.134 2.03-3.832-1.477-3.832-1.477Z"/>
  <path fill="#2E353A" d="M243.006 285.397c.226-.644 8.02 2.451 8.02 2.451s3.277 6.573 7.669 9.238c4.393 2.667.807 4.655-4.509 2.927-5.316-1.727-9.373-3.047-13.15-4.275-3.778-1.228-.371-3.678 1.97-10.341Z"/>
  <path fill="#fff" d="m246.681 273.92 10.165 3.295-1.822 4.635-9.338-3.176.995-4.754Z" opacity=".4"/>
  <path fill="#E4897B" d="m274.848 307.853-5.946 1.674-3.31-8.005-3.024-7.349 6.737-3.138 2.939 8.903 2.604 7.915Z"/>
  <path fill="#2E353A" d="M266.263 305.323c.033-.681 8.387.061 8.387.061s5.016 5.364 9.986 6.665c4.971 1.301 2.101 4.232-3.487 4.092l-13.823-.344c-3.971-.1-1.405-3.42-1.063-10.474Z"/>
  <path stroke="#577AFA" stroke-linecap="round" stroke-linejoin="round" stroke-miterlimit="10" stroke-width=".483" d="M275.648 306.289s1.171-3.06 2.707-2.287c1.766.892-2.707 2.287-2.707 2.287Zm0 0s3.795-.987 4.095.323c.451 1.983-4.095-.323-4.095-.323Z"/>
  <path fill="#000" d="m272.289 300.118-6.656 1.564-3.047-7.431 6.724-3.179 2.979 9.046Z" opacity=".2"/>
  <path fill="#455A64" d="M219.992 222.082s-.69-9.49-1.01-11.426c-.328-2.055-.762-4.458-1.173-5.683-2.11-6.33-30.309 1.112-30.309 1.112l-.8 4.337s-12.724 23.991-4.222 32.634c2.585 2.628 7.651 3.81 12.827 3.768 0 0 15.813.765 45.218-.605 0 0-2.176 17.128 22.065 50.692l8.108-2.595s-16.031-60.928-17.376-62.014c-11.727-9.473-33.328-10.22-33.328-10.22Z"/>
  <path fill="#263238" d="m261.123 296.53 10.073-3.565 1.372 4.787-9.344 3.157-2.101-4.379Z"/>
  <path fill="url(#b)" d="M229.479 163.269s-1.012 2.478-2.425 6.804c-.34 1.012-.689 2.128-1.055 3.332-.48 1.578-.994 3.314-1.509 5.198-.375 1.361-.75 2.782-1.117 4.283a262.715 262.715 0 0 0-1.133 4.771c-.035.192-.088.392-.123.584-1.421 6.402-2.669 12.595-3.454 20.489l-30.981-2.704s-.105-9.568 1.056-20.358c.628-5.835 1.622-12.019 3.201-17.252 1.229-4.082 2.817-7.589 4.858-9.883 0 0 16.799-5.512 32.682 4.736Z"/>
  <path fill="#E86B31" d="M213.672 154.083c-9.321-2.977-12.94 4.324-12.94 4.324l4.957-.487 10.08 12.648 5.904-7.645 3.715 1.993s-3.619-8.246-11.716-10.833Z"/>
  <path fill="#fff" d="M213.672 154.083c-9.321-2.977-12.94 4.324-12.94 4.324l4.957-.487 10.08 12.648 5.904-7.645 3.715 1.993s-3.619-8.246-11.716-10.833Z" opacity=".6"/>
  <path fill="#E4897B" d="m215.513 169.923-8.546-12.796c4.035-1.83 6.704-9.537 7.28-13.883l6.042 9.125c-1.971 2.931-3.287 6.281 1.23 8.806 0 0-6.007 8.72-6.006 8.748Z"/>
  <path fill="#000" d="m216.713 146.965 3.577 5.398c-.469.693-.897 1.41-1.215 2.135-1.784-.8-3.683-3.468-3.24-5.353.221-.939.57-1.802.878-2.18Z" opacity=".2"/>
  <path fill="#000" d="m187.171 207.051 9.688.637-.349 2.735-10.289-.742.95-2.63Zm32.237 5.007-21.728-1.56.349-2.734 21.025 1.381.354 2.913Z"/>
  <path stroke="#fff" stroke-miterlimit="10" d="m208.087 208.855-.073 1.784a.764.764 0 0 0 .711.792l2.659.178a.764.764 0 0 0 .812-.705l.133-1.809a.762.762 0 0 0-.718-.818l-2.719-.153a.763.763 0 0 0-.805.731Z"/>
  <path fill="#fff" d="m261.123 296.53 10.073-3.565 1.372 4.787-9.344 3.157-2.101-4.379Z" opacity=".5"/>
  <path stroke="#263238" stroke-linecap="round" stroke-linejoin="round" stroke-miterlimit="10" stroke-width=".554" d="M235.438 140.656s-.914-1.81-2.639-1.959"/>
  <path fill="#E4897B" d="M232.525 144.672s.16 2.11.72 3.553c0 0-.951.647-2.054-.014l1.334-3.539Z"/>
  <path fill="#263238" d="M234.446 143.369c-.223.544-.698.865-1.061.717-.363-.149-.476-.71-.254-1.255.223-.544.698-.865 1.061-.717.363.149.476.71.254 1.255Z"/>
  <path fill="#263238" d="m234.027 142.078 1.374.02s-.998.756-1.374-.02Z"/>
  <path fill="#E4897B" d="M214.372 148.063a.972.972 0 0 0 .133.254c.087.173.183.336.279.509.566 1.017 1.273 2.027 2.236 2.813 2.977 2.472 5.545 3.259 7.837 2.624.111-.027.222-.065.334-.102l.009.01c3.413-1.288 6.11-5.262 8.378-10.551 1.054-2.42 1.752-4.63 1.9-6.551.001-.02.032-.08.032-.1.002-.08.025-.179.027-.259.148-2.715-.738-4.963-2.997-6.866-.786-.662-1.733-1.287-2.862-1.867-9.949-5.143-20.09 10.508-15.306 20.086Z"/>
  <path fill="#472E05" d="M235.519 137.006s-2.983 7.291-11.146 6.954c0 0-6.524 5.847-10.777 3.833-5.798-2.745-6.74-13.439-.573-20.74 7.997-9.467 24.745-2.125 22.496 9.953Z"/>
  <path fill="#E4897B" d="M228.752 143.641c.548-1.095.595-3.375-1.231-3.983-1.89-.629-5.052 3.219-1.215 6.367.55.452 1.3-.098 2.446-2.384Z"/>
  <path fill="#472E05" d="M227.067 123.397s7.543 1.679 9.886 6.233c2.736 5.318 2.736 9.393-4.92 11.861 0 0-9.399-9.303-13.521-10.413-4.123-1.11-7.342-1.368-7.342-1.368 2.952-7.814 12.925-9.712 15.897-6.313Zm-2.704 20.563c-4.745 9.476-15.183 25.587-26.301 14.22 0 0 3.993-12.849 12.064-18.159 8.073-5.309 14.237 3.939 14.237 3.939Zm-1.724 15.815c4.062 2.993-1.134 12.873 3.988 15.072 0 0-1.612-1.973-.541-4.662 1.071-2.688 5.425-9.783 3.694-19.398l-7.141 8.988Z"/>
  <path fill="#000" d="M201.635 180.619s-6.629 4.492-12.901 5.05c.628-5.835 1.623-12.019 3.201-17.252 1.021-.506 1.928-.785 2.626-.768 4.657.087 6.358 4.457 6.358 4.457s.829 4.379.716 8.513Z" opacity=".2"/>
  <path fill="#E4897B" d="m225.829 211.707-1.396-1.678a2.542 2.542 0 0 0-2.141-.909l-3.826.285a4.736 4.736 0 0 0-3.701 2.275l-.492.813c2.125 2.941 6.588 4.555 6.588 4.555l1.221.601c1.088.534 2.336.142 2.867-.902l1.222-2.405c.423-.83.287-1.879-.342-2.635Z"/>
  <path fill="#E4897B" d="m198.974 171.61-.005 2.684c.007.923.035 1.851.075 2.777.071 1.853.204 3.699.369 5.531.176 1.831.437 3.632.743 5.408a47.724 47.724 0 0 0 1.257 5.139l-.382-.756c.304.541.884 1.293 1.466 2.018.594.734 1.24 1.48 1.909 2.22a189.11 189.11 0 0 0 4.166 4.447l4.307 4.447 4.318 4.482a2.211 2.211 0 0 1-2.778 3.4c-1.803-1.143-3.515-2.353-5.248-3.569a149.069 149.069 0 0 1-5.076-3.816c-1.659-1.327-3.316-2.672-4.928-4.132a61.569 61.569 0 0 1-2.415-2.294c-.81-.824-1.589-1.661-2.44-2.856a2.559 2.559 0 0 1-.281-.507l-.102-.251a45.076 45.076 0 0 1-2.032-6.144 57.653 57.653 0 0 1-1.2-6.188 67.77 67.77 0 0 1-.578-6.191 86.544 86.544 0 0 1-.076-3.102 42.971 42.971 0 0 1 .079-3.197 4.43 4.43 0 0 1 8.853.247l-.001.203Z"/>
  <path fill="#E86B31" d="M196.498 158.59c-5.712 1.959-8.075 8.062-8.326 18.391 2.916 2.713 12.533 1.811 12.533 1.811s1.736-15.636-4.207-20.202Z"/>
  <path fill="#263238" d="M258.059 219.738v2.755c0 .706-.832.996-1.53.996h-55.047c-.708 0-1.558-.29-1.558-.996v-2.755h58.135Z"/>
  <path fill="#fff" d="M258.059 219.738v2.755c0 .706-.832.996-1.53.996h-55.047c-.708 0-1.558-.29-1.558-.996v-2.755h58.135Z" opacity=".4"/>
  <path fill="#000" d="M258.054 219.738v2.755c0 .706-.833.996-1.53.996h-36.307c-.706 0-1.545-.29-1.545-.996v-2.755h39.382Z" opacity=".2"/>
  <path fill="#263238" d="m267.268 191.136-6.553 29.723c-.213.979-1.167 1.69-2.129 1.69H222.79c-.953 0-1.565-.889-1.345-1.869l6.546-29.496c.221-.97 1.166-1.454 2.127-1.454h35.797c.961 0 1.565.435 1.353 1.406Z"/>
  <path fill="#fff" d="m267.27 191.136-6.553 29.723c-.213.979-1.166 1.69-2.128 1.69h-34.58c-.961 0-1.565-.889-1.353-1.869l6.554-29.496c.212-.97 1.165-1.454 2.127-1.454h34.58c.961 0 1.566.435 1.353 1.406Z" opacity=".4"/>
  <path fill="#000" d="M249.62 206.241v.009c0 2.545-2.728 4.612-4.728 4.612-2 0-3.186-2.068-2.616-4.612.57-2.495 2.561-4.528 4.518-4.605-.571 2.544.651 4.605 2.643 4.605a.835.835 0 0 0 .183-.009Z" opacity=".2"/>
  <defs>
    <linearGradient id="a" x1="256.667" x2="361.401" y1="175.264" y2="176.522" gradientUnits="userSpaceOnUse">
      <stop stop-color="#FB8D48"/>
      <stop offset=".2" stop-color="#ED7136"/>
      <stop offset=".4" stop-color="#C54E47"/>
      <stop offset=".4" stop-color="#C14F49"/>
      <stop offset=".6" stop-color="#9D3863"/>
      <stop offset=".8" stop-color="#5E1F72"/>
    </linearGradient>
    <linearGradient id="b" x1="188.407" x2="229.627" y1="179.303" y2="179.949" gradientUnits="userSpaceOnUse">
      <stop stop-color="#FB8D48"/>
      <stop offset=".2" stop-color="#ED7136"/>
      <stop offset=".4" stop-color="#C54E47"/>
      <stop offset=".4" stop-color="#C14F49"/>
      <stop offset=".6" stop-color="#9D3863"/>
      <stop offset=".8" stop-color="#5E1F72"/>
    </linearGradient>
  </defs>
</svg>
