<svg xmlns="http://www.w3.org/2000/svg" width="508" height="508" fill="none" viewBox="0 0 508 508">
  <path fill="#8B5A09" d="M486.833 500.945H24.93c-3.105 0-5.645-2.54-5.645-5.644v-22.108c0-3.104 2.54-5.644 5.645-5.644h461.903c3.105 0 5.645 2.54 5.645 5.644v22.108c0 3.104-2.54 5.644-5.645 5.644Z"/>
  <path fill="url(#a)" d="M455.229 428.266c3.34-8.514 6.727-17.968 3.575-26.529-.752-2.069-1.928-4.28-1.223-6.397.941-2.869 4.704-3.857 5.927-6.585 1.411-3.01-.8-6.491-.235-9.737.564-3.292 3.81-5.456 6.961-6.632 3.152-1.176 6.585-1.928 9.125-4.092 4.845-4.233 4.281-11.806 3.199-18.203-1.082-6.35-1.882-13.876 2.775-18.345-8.561 1.646-17.31 3.34-24.741 7.855-7.432 4.516-13.359 12.512-12.936 21.214.236 4.374 1.929 9.031-.047 12.888-2.163 4.186-7.949 5.833-9.407 10.301-1.693 5.127 3.34 9.831 5.315 14.864 1.882 4.751.988 10.066 1.411 15.099.424 5.08 3.058 10.818 8.091 11.571l2.21 2.728Z"/>
  <path stroke="#fff" stroke-linecap="round" stroke-miterlimit="10" stroke-width=".579" d="M451.796 417.12c-.094-24.742 4.704-76.53 33.255-85.184"/>
  <path fill="url(#b)" d="M435.333 426.197c-5.08-9.501-10.348-20.084-7.855-30.574.612-2.54 1.646-5.268.564-7.667-1.458-3.198-6.02-3.904-7.855-6.914-2.022-3.293.047-7.714-1.082-11.43-1.128-3.81-5.221-5.833-9.031-6.821-3.81-.94-7.949-1.317-11.242-3.574-6.255-4.281-6.632-13.265-6.255-20.838.376-7.573.282-16.51-5.786-21.072 10.254.752 20.743 1.552 30.057 5.832 9.313 4.281 17.403 12.841 18.062 23.095.329 5.127-1.035 10.819 1.834 15.099 3.105 4.61 10.113 5.739 12.465 10.772 2.681 5.785-2.54 11.947-4.186 18.109-1.505 5.786.235 11.9.423 17.874.188 5.974-2.116 13.076-7.902 14.676l-2.211 3.433Z"/>
  <path stroke="#fff" stroke-linecap="round" stroke-miterlimit="10" stroke-width=".579" d="M437.827 412.652c-3.293-29.022-15.993-88.994-50.659-95.156"/>
  <path fill="url(#c)" d="M467.46 481.937h-44.685c-3.105 0-5.645-2.54-5.645-5.645l-3.763-64.441c0-3.104 2.54-5.644 5.645-5.644h52.211c3.104 0 5.644 2.54 5.644 5.644l-3.763 64.441c0 3.105-2.54 5.645-5.644 5.645Z"/>
  <path fill="#EEA07B" d="m61.404 278.414 28.834-4.372 19.603 129.285-28.833 4.372-19.604-129.285Z"/>
  <path fill="#EEA07B" d="m75.813 276.24 14.416-2.186 19.604 129.285-14.417 2.186L75.813 276.24Z"/>
  <path fill="#FFEBC2" d="m90.263 274.178-28.833 4.374 6.773-17.356 3.857-9.784 6.585 8.232 11.618 14.534Z"/>
  <path fill="#0E538C" d="m78.645 259.644-10.442 1.552 3.857-9.784 6.585 8.232Z"/>
  <path fill="#EEA07B" d="m113.414 244.443 29.046 2.601-11.662 130.24-29.047-2.601 11.663-130.24Z"/>
  <path fill="#EEA07B" d="m127.965 245.754 14.523 1.3-11.663 130.24-14.523-1.3 11.663-130.24Z"/>
  <path fill="#FFEBC2" d="m142.475 247.181-29.069-2.587 10.725-15.24 6.067-8.608 4.422 9.549 7.855 16.886Z"/>
  <path fill="#0E538C" d="m134.62 230.295-10.489-.941 6.068-8.608 4.421 9.549Z"/>
  <path fill="url(#d)" d="M161.571 483.541H46.989l-15.005-177.33h138.76l-9.173 177.33Z"/>
  <path fill="url(#e)" d="M101.365 483.541h60.208l9.172-177.33h-69.38v177.33Z" opacity=".5"/>
  <path fill="#FFEFD6" d="M126.529 433.494h291.16v40.029h-291.16v-40.029Z"/>
  <path fill="url(#f)" d="M127.754 433.493v40.028h305.458v3.01c0 3.716-3.245 6.727-7.244 6.727H129.071c-9.455 0-17.122-7.056-17.122-15.805v-26.764c0-8.749 7.667-15.804 17.122-15.804h296.897c3.999 0 7.244 3.01 7.244 6.726v1.929H127.754v-.047Z"/>
  <path fill="#FFEFD6" d="M126.529 451.32h291.16v22.155h-291.16V451.32Z"/>
  <path fill="#FFEEE6" d="M164.158 384.764h236.596v34.807H164.158v-34.807Z"/>
  <path fill="#EEA07B" d="M164.159 384.764v34.807h245.533v2.635a5.831 5.831 0 0 1-5.832 5.832H165.194c-7.573 0-13.735-6.162-13.735-13.735V391.02c0-7.573 6.162-13.735 13.735-13.735H403.86c3.198 0 5.832 2.634 5.832 5.833v1.693H164.159v-.047Z"/>
  <path fill="#472E05" d="M266.418 266.278c-3.246-4.281-3.528-10.16-.471-14.629 2.446-3.575 4.093-7.996 3.904-11.242-.376-5.832-3.998-11.195-8.937-14.393-6.491-4.233-15.146-4.845-22.154-1.552-7.009 3.292-12.089 10.348-12.982 18.015-.659 5.503.611 11.524-2.211 16.322-2.07 3.433-5.88 5.456-9.643 6.82-3.81 1.317-7.808 2.211-11.289 4.233-3.48 2.023-6.444 5.504-6.397 9.549.047 3.057 1.788 5.88 1.976 8.89.282 4.422-2.822 8.326-6.115 11.242-3.339 2.916-7.149 5.456-9.407 9.266-3.716 6.303-1.976 14.817 2.728 20.461 4.704 5.645 11.759 8.796 18.815 10.631 19.285 5.08 39.605 1.787 59.502 1.458 6.161-.094 12.464.094 18.438-1.458 5.974-1.553 11.806-5.127 14.299-10.772 2.54-5.644 1.27-12.512-2.116-17.639-3.387-5.127-8.702-8.843-14.3-11.477-4.045-1.928-8.372-3.433-11.665-6.444-3.292-3.01-5.221-8.137-3.01-12.041.847-1.506 2.258-2.681 3.057-4.187 1.6-2.916.941-6.632-.846-9.454-.33-.47-.706-.988-1.176-1.599Z"/>
  <path fill="#FFEEE6" d="M164.158 400.285h236.596v19.285H164.158v-19.285Z"/>
  <path fill="#455A64" d="m270.934 350.896 29.163 20.697 35.748 73.848h-6.585l-39.982-65.382s-13.641.471-18.344-3.763c-4.704-4.233-31.75-22.577-31.75-22.577l31.75-2.823Z"/>
  <path fill="#455A64" d="M219.334 344.969c-5.315 14.393-1.552 34.619 16.322 35.56 17.874.94 23.519 0 23.519 0l34.807 70.555h7.996l-27.281-79.022-33.161-18.344-22.202-8.749Z"/>
  <path fill="url(#g)" d="M246.475 262.938c4.703 6.114 15.992 23.048 20.225 41.862 4.234 18.815 15.993 46.097 15.993 46.097h-13.641l-13.17-44.685-12.23-41.863 2.823-1.411Z"/>
  <path fill="#E4897B" d="M260.962 237.96c.706 11.524-4.327 19.426-11.524 19.803-7.196.376-11.9-10.066-9.736-19.803 5.033-8.655 11.9-9.36 11.9-9.36h4.327l5.033 9.36Z"/>
  <path fill="#472E05" d="M256.164 231.092c-1.317 4.045-4.233 7.525-7.996 9.501-3.763 1.976-8.279 2.446-12.371 1.223l10.254-14.628h8.796l8.42 6.679-1.27 7.667c-3.293-2.493-5.833-10.442-5.833-10.442Z"/>
  <path fill="#E4897B" d="M247.273 256.398c-1.506 5.833-1.035 11.948-1.035 12.888-1.411 1.882-7.996 1.412-8.937-5.174 1.411-8.466 4.233-17.874 4.233-17.874l2.352 5.174 3.387 4.986Z"/>
  <path fill="url(#h)" d="M238.242 259.127c-5.88 1.928-25.635 10.865-26.576 12.747 1.411 5.174 8.467 81.844 8.467 81.844h31.985s-4.233-42.333-1.882-45.155c2.352-2.822 9.878-12.7 8.937-14.111-.94-1.411-12.888-31.75-12.888-31.75l-8.043-3.575Z"/>
  <path fill="url(#i)" d="M211.667 271.875c-4.61 3.528-23.989 35.278-17.874 52.211 6.115 16.933 26.106 26.905 26.106 26.905v-9.313s-16.228-12.888-15.287-22.296c.94-9.407 12.229-28.692 12.229-28.692l-5.174-18.815Z"/>
  <path fill="url(#j)" d="M287.442 359.127h-69.238c-2.164 0-3.951-1.787-3.951-3.951l-1.882-44.309c0-2.164 1.787-3.951 3.951-3.951h72.061c2.164 0 3.951 1.787 3.951 3.951l-.941 44.309c0 2.164-1.787 3.951-3.951 3.951Z"/>
  <path fill="#1A87D8" d="M300.849 451.086c4.657 1.034 10.96 6.162 13.97 8.796.611.517.235 1.552-.612 1.552-4.844-.094-15.804-.612-18.344-2.775-3.293-2.823-2.352-7.526-2.352-7.526h7.338v-.047Zm34.901-5.833c4.14 1.129 9.596 5.927 12.324 8.514.612.564.141 1.552-.658 1.505-4.563-.329-14.347-1.223-16.557-3.34-2.917-2.728-1.835-7.008-1.835-7.008l6.726.329Z"/>
  <path fill="url(#k)" d="M252.589 340.078a7.056 7.056 0 1 0-.001-14.111 7.056 7.056 0 0 0 .001 14.111Z"/>
  <path fill="#E86B31" d="m190.499 433.21-8.937-5.174-8.937 5.174v-32.926h17.874v32.926ZM329.07 238.242c0 .894-.329 1.693-.894 2.352.565.611.894 1.458.894 2.352v2.916c0 .611-.188 1.223-.47 1.74.282.518.47 1.129.47 1.741v2.916a3.473 3.473 0 0 1-3.481 3.481h-30.291a3.473 3.473 0 0 1-3.481-3.481v-2.963c0-.612.188-1.223.47-1.741-.282-.517-.47-1.129-.47-1.74v-2.916c0-.894.329-1.694.894-2.352-.565-.612-.894-1.458-.894-2.352v-2.917a3.473 3.473 0 0 1 3.481-3.48h30.291a3.473 3.473 0 0 1 3.481 3.48v2.964Zm24.177-65.946c0 16.98-9.878 31.609-24.177 38.57v15.805c0 1.176-.988 2.163-2.164 2.163h-32.925c-1.176 0-2.164-.987-2.164-2.163v-15.805c-14.299-6.914-24.177-21.59-24.177-38.57 0-23.66 19.144-42.804 42.804-42.804 23.659 0 42.803 19.191 42.803 42.804Z"/>
  <path stroke="#7F7F7F" stroke-linecap="round" stroke-miterlimit="10" stroke-width="1.544" d="M325.027 240.83h-28.693m28.693 6.585h-28.693" opacity=".23"/>
  <path fill="#fff" d="M317.782 177.566c-.518-.471-1.27-.706-2.07-.612-.988.094-1.929.659-2.54 1.458-.517.706-.8 1.552-.941 2.352-.423-.235-.893-.47-1.317-.753l-.141-.094h-.611l-.141.094c-.471.283-.894.518-1.318.753-.141-.8-.423-1.646-.94-2.352-.565-.799-1.552-1.364-2.54-1.458a2.666 2.666 0 0 0-2.07.612c-.705.658-.941 1.599-.705 2.587.376 1.317 1.458 2.398 2.728 2.634.799.141 1.552.094 2.352-.094 1.175 15.287 1.646 30.762 1.317 46.049h1.411c.329-15.334-.141-30.856-1.317-46.144 0-.141 0-.282-.047-.423a10.367 10.367 0 0 0 1.599-.847c.517.283 1.035.612 1.599.847 0 .141 0 .282-.047.423-1.176 15.288-1.646 30.81-1.317 46.144h1.411c-.329-15.287.141-30.809 1.317-46.049.753.188 1.552.282 2.352.094 1.223-.236 2.352-1.317 2.728-2.634.188-.988-.047-1.929-.752-2.587Zm-12.371 3.904c-.706-.142-1.411-.847-1.646-1.647-.094-.329-.141-.846.282-1.176.235-.235.564-.282.799-.282h.189c.564.047 1.176.376 1.552.894.423.564.658 1.27.752 2.069a4.467 4.467 0 0 1-1.928.142Zm11.712-1.647c-.235.8-.894 1.505-1.646 1.647-.612.141-1.27.047-1.882-.142.141-.799.33-1.505.753-2.069.329-.471.941-.8 1.552-.894.282-.047.659 0 .988.282.329.33.282.847.235 1.176Z"/>
  <path stroke="#fff" stroke-linecap="round" stroke-miterlimit="10" stroke-width="3.088" d="M299.156 137.348c-10.348 3.763-27.281 17.403-25.87 39.511"/>
  <path fill="#E86B31" d="M242.477 214.018c6.624 0 11.994-5.37 11.994-11.994 0-6.625-5.37-11.995-11.994-11.995s-11.995 5.37-11.995 11.995c0 6.624 5.371 11.994 11.995 11.994Zm128.411-46.096a5.41 5.41 0 1 0 0-10.819 5.41 5.41 0 0 0 0 10.819Zm-17.638 88.431a8.938 8.938 0 1 0-.002-17.876 8.938 8.938 0 0 0 .002 17.876Zm-85.61-124.649a8.937 8.937 0 0 0 8.937-8.937 8.937 8.937 0 0 0-8.937-8.937 8.937 8.937 0 0 0-8.937 8.937 8.937 8.937 0 0 0 8.937 8.937Z"/>
  <path fill="#fff" d="m190.499 433.211-8.937-5.174-8.937 5.174v-32.926h17.874v32.926Z" opacity=".14"/>
  <defs>
    <linearGradient id="a" x1="461.596" x2="461.596" y1="331.746" y2="428.266" gradientUnits="userSpaceOnUse">
      <stop stop-color="#EEA07B"/>
      <stop offset="1" stop-color="#9C5A76"/>
    </linearGradient>
    <linearGradient id="b" x1="418.376" x2="418.376" y1="317.307" y2="426.197" gradientUnits="userSpaceOnUse">
      <stop stop-color="#EEA07B"/>
      <stop offset="1" stop-color="#9C5A76"/>
    </linearGradient>
    <linearGradient id="c" x1="445.117" x2="445.117" y1="406.207" y2="481.937" gradientUnits="userSpaceOnUse">
      <stop stop-color="#EEA07B"/>
      <stop offset="1" stop-color="#9C5A76"/>
    </linearGradient>
    <linearGradient id="d" x1="76.5" x2="79.5" y1="550.5" y2="306" gradientUnits="userSpaceOnUse">
      <stop stop-color="#EEA07B"/>
      <stop offset="1" stop-color="#9C5A76"/>
    </linearGradient>
    <linearGradient id="e" x1="145.5" x2="141.5" y1="515.5" y2="298" gradientUnits="userSpaceOnUse">
      <stop stop-color="#EEA07B"/>
      <stop offset="1" stop-color="#9C5A76"/>
    </linearGradient>
    <linearGradient id="f" x1="272.581" x2="272.581" y1="424.885" y2="483.258" gradientUnits="userSpaceOnUse">
      <stop stop-color="#EEA07B"/>
      <stop offset="1" stop-color="#9C5A76"/>
    </linearGradient>
    <linearGradient id="g" x1="279" x2="228.997" y1="335.5" y2="287.279" gradientUnits="userSpaceOnUse">
      <stop stop-color="#FB8D48"/>
      <stop offset=".2" stop-color="#ED7136"/>
      <stop offset=".4" stop-color="#C54E47"/>
      <stop offset=".4" stop-color="#C14F49"/>
      <stop offset=".6" stop-color="#9D3863"/>
      <stop offset=".8" stop-color="#5E1F72"/>
    </linearGradient>
    <linearGradient id="h" x1="238.5" x2="196.779" y1="358" y2="268.442" gradientUnits="userSpaceOnUse">
      <stop stop-color="#FB8D48"/>
      <stop offset=".2" stop-color="#ED7136"/>
      <stop offset=".4" stop-color="#C54E47"/>
      <stop offset=".4" stop-color="#C14F49"/>
      <stop offset=".6" stop-color="#9D3863"/>
      <stop offset=".8" stop-color="#5E1F72"/>
    </linearGradient>
    <linearGradient id="i" x1="223.5" x2="174.808" y1="355.5" y2="287.006" gradientUnits="userSpaceOnUse">
      <stop stop-color="#FB8D48"/>
      <stop offset=".2" stop-color="#ED7136"/>
      <stop offset=".4" stop-color="#C54E47"/>
      <stop offset=".4" stop-color="#C14F49"/>
      <stop offset=".6" stop-color="#9D3863"/>
      <stop offset=".8" stop-color="#5E1F72"/>
    </linearGradient>
    <linearGradient id="j" x1="252.353" x2="252.353" y1="306.916" y2="359.127" gradientUnits="userSpaceOnUse">
      <stop stop-color="#EEA07B"/>
      <stop offset="1" stop-color="#9C5A76"/>
    </linearGradient>
    <linearGradient id="k" x1="252.589" x2="252.589" y1="325.967" y2="340.078" gradientUnits="userSpaceOnUse">
      <stop stop-color="#EEA07B"/>
      <stop offset="1" stop-color="#9C5A76"/>
    </linearGradient>
  </defs>
</svg>
