<svg width="35" height="36" viewBox="0 0 35 36" fill="none" xmlns="http://www.w3.org/2000/svg">
<path d="M17.5 2.79688C14.3103 2.80064 11.2523 4.06942 8.99679 6.3249C6.74131 8.58038 5.47253 11.6384 5.46876 14.8281C5.46494 17.4348 6.3164 19.9707 7.89251 22.0469C7.89251 22.0469 8.22064 22.4789 8.27423 22.5413L17.5 33.4219L26.7302 22.5358C26.7783 22.4778 27.1075 22.0469 27.1075 22.0469L27.1086 22.0436C28.6839 19.9683 29.535 17.4336 29.5313 14.8281C29.5275 11.6384 28.2587 8.58038 26.0032 6.3249C23.7478 4.06942 20.6897 2.80064 17.5 2.79688ZM17.5 19.2031C16.6347 19.2031 15.7889 18.9465 15.0694 18.4658C14.3499 17.9851 13.7892 17.3018 13.458 16.5024C13.1269 15.7029 13.0403 14.8233 13.2091 13.9746C13.3779 13.1259 13.7946 12.3464 14.4064 11.7345C15.0183 11.1227 15.7978 10.706 16.6465 10.5372C17.4952 10.3684 18.3748 10.455 19.1743 10.7862C19.9737 11.1173 20.657 11.678 21.1377 12.3975C21.6184 13.117 21.875 13.9628 21.875 14.8281C21.8736 15.988 21.4122 17.1 20.592 17.9201C19.7718 18.7403 18.6599 19.2017 17.5 19.2031Z" fill="#FB8D48"/>
</svg>
