<svg width="342" height="281" viewBox="0 0 342 281" fill="none" xmlns="http://www.w3.org/2000/svg">
<path d="M342 214.908H0V215.048H342V214.908Z" fill="#EBEBEB"/>
<path d="M307.73 223.953H285.074V224.094H307.73V223.953Z" fill="#EBEBEB"/>
<path d="M226.553 225.479H220.607V225.62H226.553V225.479Z" fill="#EBEBEB"/>
<path d="M284.392 218.735H271.265V218.876H284.392V218.735Z" fill="#EBEBEB"/>
<path d="M65.4278 219.681H35.8838V219.821H65.4278V219.681Z" fill="#EBEBEB"/>
<path d="M75.8464 219.681H71.5146V219.821H75.8464V219.681Z" fill="#EBEBEB"/>
<path d="M153.999 222.054H89.9248V222.195H153.999V222.054Z" fill="#EBEBEB"/>
<path d="M162.117 189.844H30.0371C27.8845 189.844 26.1328 188.405 26.1328 186.636V34.0917C26.1328 32.3231 27.8845 30.8838 30.0371 30.8838H162.117C164.269 30.8838 166.02 32.3231 166.02 34.0917V186.636C166.02 188.405 164.269 189.844 162.117 189.844ZM30.0371 31.0249C27.9782 31.0249 26.3038 32.4006 26.3038 34.0922V186.637C26.3038 188.329 27.9782 189.704 30.0371 189.704H162.117C164.175 189.704 165.849 188.329 165.849 186.637V34.0917C165.849 32.4006 164.175 31.0243 162.117 31.0243L30.0371 31.0249Z" fill="#EBEBEB"/>
<path d="M310.066 189.844H177.987C175.834 189.844 174.083 188.405 174.083 186.636V34.0917C174.083 32.3231 175.835 30.8838 177.987 30.8838H310.066C312.219 30.8838 313.97 32.3231 313.97 34.0917V186.636C313.971 188.405 312.219 189.844 310.066 189.844ZM177.987 31.0249C175.928 31.0249 174.254 32.4006 174.254 34.0922V186.637C174.254 188.329 175.928 189.704 177.987 189.704H310.066C312.124 189.704 313.799 188.329 313.799 186.637V34.0917C313.799 32.4006 312.124 31.0243 310.066 31.0243L177.987 31.0249Z" fill="#EBEBEB"/>
<path d="M81.3523 178.935V186.915L77.249 189.366H96.4031L90.2847 187.502V179.492L81.3523 178.935Z" fill="#E0E0E0"/>
<path d="M47.5195 189.136V214.274H133.017V189.136H47.5195ZM131.476 198.981H64.5566V190.765H131.477V198.981H131.476Z" fill="#E0E0E0"/>
<path d="M62.499 189.136V214.274H133.018V189.136H62.499ZM131.478 198.981H64.5579V190.765H131.478V198.981H131.478Z" fill="#EBEBEB"/>
<path d="M131.476 190.765H117.684V198.98H131.476V190.765Z" fill="#E0E0E0"/>
<path d="M81.6204 194.871H64.5566V198.978H81.6204V194.871Z" fill="#E0E0E0"/>
<path d="M95.7261 196.541H82.8799V198.98H95.7261V196.541Z" fill="#E0E0E0"/>
<path d="M110.931 193.989H98.6934V198.98H110.931V193.989Z" fill="#E0E0E0"/>
<path d="M76.6853 200.768L76.3187 201.749H71.4069L71.041 200.768H64.5566V211.674H86.0787V200.768H76.6853Z" fill="#E0E0E0"/>
<path d="M102.262 200.768L101.896 201.749H96.9839L96.6173 200.768H87.2246V211.674H108.747V200.768H102.262Z" fill="#E0E0E0"/>
<path d="M122.021 200.771L121.654 201.752H116.743L116.376 200.771H109.892V211.677H131.414V200.771H122.021Z" fill="#E0E0E0"/>
<path d="M120.512 183.702H56.9067C55.5729 183.702 54.4922 182.813 54.4922 181.718V151.71C54.4922 150.615 55.5736 149.727 56.9067 149.727H120.512C121.846 149.727 122.927 150.615 122.927 151.71V181.718C122.927 182.813 121.846 183.702 120.512 183.702Z" fill="#E0E0E0"/>
<path d="M122.12 183.702H58.5151C57.1813 183.702 56.1006 182.813 56.1006 181.718V151.71C56.1006 150.615 57.182 149.727 58.5151 149.727H122.12C123.454 149.727 124.535 150.615 124.535 151.71V181.718C124.535 182.813 123.454 183.702 122.12 183.702Z" fill="#E6E6E6"/>
<path d="M122.524 182.051V151.379H58.1108V182.051H122.524Z" fill="#F0F0F0"/>
<path d="M212.637 146.781H273.879C280.522 146.781 285.908 151.206 285.908 156.664V195.957H200.609V156.664C200.609 151.206 205.994 146.781 212.637 146.781Z" fill="#E6E6E6"/>
<path d="M182.5 175.904H193.46C197.407 175.904 200.607 178.533 200.607 181.777V214.272H175.353V181.777C175.353 178.533 178.553 175.904 182.5 175.904Z" fill="#E0E0E0"/>
<path d="M182.5 175.904H182.732C186.68 175.904 189.879 178.533 189.879 181.777V214.272H175.353V181.777C175.353 178.533 178.553 175.904 182.5 175.904Z" fill="#EBEBEB"/>
<path d="M276.986 199.345H192.938V214.272H276.986V199.345Z" fill="#E6E6E6"/>
<path d="M192.821 185.693H273.878C277.891 185.693 281.144 188.366 281.144 191.664V195.383C281.144 198.681 277.891 201.354 273.878 201.354H192.821C188.808 201.354 185.555 198.681 185.555 195.383V191.664C185.555 188.367 188.808 185.693 192.821 185.693Z" fill="#F5F5F5"/>
<path d="M263.687 185.693H273.74C277.753 185.693 281.007 188.366 281.007 191.664V195.383C281.007 198.681 277.753 201.354 273.74 201.354H263.687C259.674 201.354 256.42 198.681 256.42 195.383V191.664C256.42 188.367 259.674 185.693 263.687 185.693Z" fill="#E0E0E0"/>
<path d="M274.826 175.904H285.786C289.733 175.904 292.933 178.533 292.933 181.777V214.272H267.679V181.777C267.679 178.533 270.878 175.904 274.826 175.904Z" fill="#E0E0E0"/>
<path d="M274.827 175.904H275.058C279.005 175.904 282.206 178.533 282.206 181.777V214.272H267.679V181.777C267.679 178.533 270.879 175.904 274.827 175.904Z" fill="#F0F0F0"/>
<path d="M209.346 128.676H290.491V59.7846L209.346 59.7846V128.676Z" fill="#EBEBEB"/>
<path d="M206.513 128.676H287.658V59.7846L206.513 59.7846V128.676Z" fill="#F0F0F0"/>
<path d="M285.612 61.417H208.663V127.074H285.612V61.417Z" fill="#E0E0E0"/>
<path d="M285.612 61.417H210.585V127.073H285.612V61.417Z" fill="#E86B31" fill-opacity="0.3"/>
<path d="M247.324 127.075H248.848V61.4179H247.324V127.075Z" fill="#EBEBEB"/>
<path d="M238.582 61.417L217.197 127.073H215.145L236.529 61.417H238.582Z" fill="white"/>
<path d="M246.671 128.334H247.977V60.4054H246.671V128.334Z" fill="#F0F0F0"/>
<path d="M230.819 61.417L210.585 123.551V89.3978L219.696 61.417H230.819Z" fill="white"/>
<path d="M285.613 67.3736V73.6759L268.221 127.071H266.168L285.613 67.3736Z" fill="white"/>
<path d="M285.613 80.1001V114.253L281.441 127.072H270.317L285.613 80.1001Z" fill="white"/>
<path d="M66.8003 112.829H115.931L115.931 63.7094L66.8003 63.7094V112.829Z" fill="#FA8C48"/>
<path d="M78.0413 100.662L103.86 79.813L75.9277 76.0256L78.0413 100.662Z" fill="white"/>
<path d="M103.237 95.7207L104.515 79.7324L85.0765 83.6557L83.6641 95.8887L103.237 95.7207Z" fill="white" fill-opacity="0.4"/>
<path d="M83.355 77.7833C86.4196 75.2652 86.4196 71.1827 83.355 68.6647C80.2904 66.1467 75.3216 66.1467 72.257 68.6647C69.1924 71.1827 69.1924 75.2652 72.257 77.7833C75.3216 80.3013 80.2904 80.3013 83.355 77.7833Z" fill="#FAFAFA"/>
<path d="M100.698 101.422C100.698 99.6947 102.402 98.2948 104.504 98.2948C106.606 98.2948 108.31 99.6947 108.31 101.422C108.31 103.149 106.606 104.549 104.504 104.549C102.402 104.549 100.698 103.149 100.698 101.422Z" fill="white"/>
<path d="M103.601 106.918L92.6104 101.422L101.849 95.1685L103.601 106.918Z" fill="#F5F5F5"/>
<path d="M90.6191 69.9569H88.459V109.179H90.6191V69.9569Z" fill="white"/>
<path d="M111.319 69.9569H108.524V107.444H111.319V69.9569Z" fill="white"/>
<path d="M86.013 95.8898H71.7324V107.623H86.013V95.8898Z" fill="white"/>
<g filter="url(#filter0_f_1532_316323)">
<path d="M171 240.29C244.244 240.29 303.62 237.441 303.62 233.926C303.62 230.412 244.244 227.562 171 227.562C97.7559 227.562 38.3799 230.412 38.3799 233.926C38.3799 237.441 97.7559 240.29 171 240.29Z" fill="#F5F5F5" fill-opacity="0.3"/>
</g>
<path d="M281.8 219.737H133.439V135.054C133.439 133.729 134.747 132.656 136.359 132.656H278.881C280.493 132.656 281.8 133.729 281.8 135.054V219.737Z" fill="#263238"/>
<path d="M278.882 138.032H136.363V212.874H278.882V138.032Z" fill="url(#paint0_linear_1532_316323)"/>
<path opacity="0.2" d="M206.322 136.723C207.107 136.723 207.743 136.2 207.743 135.555C207.743 134.911 207.107 134.388 206.322 134.388C205.537 134.388 204.901 134.911 204.901 135.555C204.901 136.2 205.537 136.723 206.322 136.723Z" fill="white"/>
<path opacity="0.2" d="M209.269 136.433C209.86 136.433 210.339 136.04 210.339 135.555C210.339 135.069 209.86 134.676 209.269 134.676C208.678 134.676 208.199 135.069 208.199 135.555C208.199 136.04 208.678 136.433 209.269 136.433Z" fill="white"/>
<path opacity="0.2" d="M208.202 214.408C208.018 214.358 207.825 214.325 207.62 214.325C206.59 214.325 205.755 215.011 205.755 215.857C205.755 216.704 206.59 217.39 207.62 217.39C208.65 217.39 209.485 216.704 209.485 215.857C209.485 215.828 209.477 215.802 209.475 215.773C208.764 215.58 208.245 215.049 208.202 214.408Z" fill="white"/>
<path d="M292.857 218.549V219.65C292.857 219.948 292.755 220.235 292.577 220.476C292.33 220.819 291.934 221.083 291.448 221.201L281.113 223.708C279.834 224.022 278.5 224.18 277.159 224.18H138.082C136.748 224.18 135.414 224.022 134.135 223.708L123.8 221.201C123.307 221.083 122.91 220.819 122.664 220.476C122.486 220.235 122.384 219.948 122.384 219.65V218.549H292.857Z" fill="#263238"/>
<path opacity="0.2" d="M292.857 218.549V219.65C292.857 219.948 292.755 220.235 292.577 220.476C292.33 220.819 291.934 221.083 291.448 221.201L281.113 223.708C279.834 224.022 278.5 224.18 277.159 224.18H138.082C136.748 224.18 135.414 224.022 134.135 223.708L123.8 221.201C123.307 221.083 122.91 220.819 122.664 220.476C122.486 220.235 122.384 219.948 122.384 219.65V218.549H292.857Z" fill="white"/>
<path opacity="0.2" d="M292.857 218.549V219.65C292.857 219.948 292.755 220.235 292.577 220.476H122.664C122.486 220.235 122.384 219.948 122.384 219.65V218.549H292.857Z" fill="white"/>
<path opacity="0.2" d="M219.616 218.549V219.032C219.616 219.296 219.356 219.51 219.034 219.51H196.216C195.888 219.51 195.628 219.296 195.628 219.032V218.549H219.616Z" fill="black"/>
<path opacity="0.1" d="M278.882 138.032C278.882 138.032 259.174 202.31 136.363 212.874V138.032H278.882Z" fill="white"/>
<path d="M265.379 108.731V179.127L251.111 190.85H194.708C193.498 190.85 192.513 190.041 192.513 189.04V108.731C192.513 107.73 193.498 106.921 194.708 106.921H263.177C264.387 106.921 265.379 107.731 265.379 108.731Z" fill="url(#paint1_linear_1532_316323)"/>
<path opacity="0.6" d="M265.379 111.803V179.125L251.111 190.848H194.708C193.498 190.848 192.513 190.039 192.513 189.039V111.803H265.379Z" fill="white"/>
<path opacity="0.6" d="M263.475 109.156C263.475 109.638 262.999 110.03 262.413 110.03C261.826 110.03 261.35 109.638 261.35 109.156C261.35 108.674 261.826 108.283 262.413 108.283C263 108.283 263.475 108.674 263.475 109.156Z" fill="white"/>
<path opacity="0.6" d="M259.413 109.156C259.413 109.638 258.937 110.03 258.35 110.03C257.763 110.03 257.287 109.638 257.287 109.156C257.287 108.674 257.763 108.283 258.35 108.283C258.937 108.283 259.413 108.674 259.413 109.156Z" fill="white"/>
<path opacity="0.6" d="M255.356 109.156C255.356 109.638 254.88 110.03 254.293 110.03C253.707 110.03 253.23 109.638 253.23 109.156C253.23 108.674 253.707 108.283 254.293 108.283C254.881 108.283 255.356 108.674 255.356 109.156Z" fill="white"/>
<path d="M236.802 117.228H197.745C197.367 117.228 197.061 116.977 197.061 116.666C197.061 116.356 197.367 116.104 197.745 116.104H236.802C237.18 116.104 237.486 116.356 237.486 116.666C237.486 116.977 237.18 117.228 236.802 117.228Z" fill="url(#paint2_linear_1532_316323)"/>
<path d="M225.762 120.297H197.745C197.367 120.297 197.061 120.046 197.061 119.735C197.061 119.425 197.367 119.173 197.745 119.173H225.762C226.139 119.173 226.446 119.425 226.446 119.735C226.446 120.046 226.139 120.297 225.762 120.297Z" fill="url(#paint3_linear_1532_316323)"/>
<path d="M256.038 167.769H206.093C205.716 167.769 205.409 167.518 205.409 167.207C205.409 166.897 205.716 166.645 206.093 166.645H256.038C256.416 166.645 256.722 166.897 256.722 167.207C256.722 167.518 256.416 167.769 256.038 167.769Z" fill="url(#paint4_linear_1532_316323)"/>
<path d="M247.69 180.051H197.745C197.367 180.051 197.061 179.799 197.061 179.489C197.061 179.178 197.367 178.927 197.745 178.927H247.69C248.068 178.927 248.374 179.178 248.374 179.489C248.374 179.799 248.068 180.051 247.69 180.051Z" fill="url(#paint5_linear_1532_316323)"/>
<path d="M256.038 170.838H197.745C197.367 170.838 197.061 170.587 197.061 170.276C197.061 169.966 197.367 169.714 197.745 169.714H256.038C256.415 169.714 256.722 169.966 256.722 170.276C256.722 170.587 256.415 170.838 256.038 170.838Z" fill="url(#paint6_linear_1532_316323)"/>
<path d="M256.038 173.91H197.745C197.367 173.91 197.061 173.659 197.061 173.348C197.061 173.037 197.367 172.786 197.745 172.786H256.038C256.415 172.786 256.722 173.037 256.722 173.348C256.722 173.659 256.415 173.91 256.038 173.91Z" fill="url(#paint7_linear_1532_316323)"/>
<path d="M256.038 176.979H197.745C197.367 176.979 197.061 176.728 197.061 176.417C197.061 176.106 197.367 175.855 197.745 175.855H256.038C256.415 175.855 256.722 176.106 256.722 176.417C256.722 176.728 256.415 176.979 256.038 176.979Z" fill="url(#paint8_linear_1532_316323)"/>
<path opacity="0.5" d="M265.379 179.125L251.11 190.848V179.125H265.379Z" fill="url(#paint9_linear_1532_316323)"/>
<path opacity="0.4" d="M265.38 111.803H261.35V179.125H265.38V111.803Z" fill="black"/>
<path d="M263.362 146.98C262.543 146.98 261.878 146.434 261.878 145.76V138.883C261.878 138.21 262.542 137.664 263.362 137.664C264.182 137.664 264.846 138.21 264.846 138.883V145.76C264.846 146.434 264.182 146.98 263.362 146.98Z" fill="url(#paint10_linear_1532_316323)"/>
<path d="M256.038 150.908H206.093C205.716 150.908 205.409 150.657 205.409 150.346C205.409 150.035 205.716 149.784 206.093 149.784H256.038C256.416 149.784 256.722 150.035 256.722 150.346C256.722 150.657 256.416 150.908 256.038 150.908Z" fill="url(#paint11_linear_1532_316323)"/>
<path d="M247.69 163.189H197.745C197.367 163.189 197.061 162.938 197.061 162.627C197.061 162.316 197.367 162.065 197.745 162.065H247.69C248.068 162.065 248.374 162.316 248.374 162.627C248.374 162.938 248.068 163.189 247.69 163.189Z" fill="url(#paint12_linear_1532_316323)"/>
<path d="M256.038 153.977H197.745C197.367 153.977 197.061 153.726 197.061 153.415C197.061 153.104 197.367 152.853 197.745 152.853H256.038C256.415 152.853 256.722 153.104 256.722 153.415C256.722 153.726 256.415 153.977 256.038 153.977Z" fill="url(#paint13_linear_1532_316323)"/>
<path d="M256.038 157.049H197.745C197.367 157.049 197.061 156.797 197.061 156.487C197.061 156.176 197.367 155.925 197.745 155.925H256.038C256.415 155.925 256.722 156.176 256.722 156.487C256.722 156.797 256.415 157.049 256.038 157.049Z" fill="url(#paint14_linear_1532_316323)"/>
<path d="M256.038 160.117H197.745C197.367 160.117 197.061 159.866 197.061 159.555C197.061 159.245 197.367 158.993 197.745 158.993H256.038C256.415 158.993 256.722 159.245 256.722 159.555C256.722 159.866 256.415 160.117 256.038 160.117Z" fill="url(#paint15_linear_1532_316323)"/>
<path d="M256.04 123.96H197.569V141.885H256.04V123.96Z" fill="url(#paint16_linear_1532_316323)"/>
<path opacity="0.2" d="M197.569 139.009H199.158V135.75H200.991V129.317H203.549V133.276H207.067V138.544H211.261V134.873H214.727L217.022 132.988V128.618H218.419V134.873H221.949V137.099H225.602V125.745L226.613 124.915V128.029H228.948V129.428L231.187 131.269V134.591H234.397V131.962H242.785V129.999H244.679V126.575H245.356V131.962H246.426L248.839 129.979H251.113V128.187H252.256V129.999H253.744V137.432H255.358V133.723L256.039 133.757V123.96H197.569V139.009Z" fill="black"/>
<path d="M256.035 144.727H240.29C239.913 144.727 239.606 144.476 239.606 144.165C239.606 143.855 239.913 143.603 240.29 143.603H256.035C256.413 143.603 256.719 143.855 256.719 144.165C256.719 144.476 256.413 144.727 256.035 144.727Z" fill="url(#paint17_linear_1532_316323)"/>
<path opacity="0.2" d="M220.728 106.921V165.099L209.962 173.945H192.513V108.731C192.513 107.73 193.498 106.921 194.708 106.921H220.728Z" fill="black"/>
<path opacity="0.4" d="M263.362 146.98C262.543 146.98 261.878 146.434 261.878 145.76V138.883C261.878 138.21 262.542 137.664 263.362 137.664C264.182 137.664 264.846 138.21 264.846 138.883V145.76C264.846 146.434 264.182 146.98 263.362 146.98Z" fill="white"/>
<path d="M179.034 117.503V187.899L164.766 199.623H108.364C107.153 199.623 106.168 198.813 106.168 197.813V117.503C106.168 116.503 107.153 115.694 108.364 115.694H176.832C178.043 115.694 179.034 116.503 179.034 117.503Z" fill="url(#paint18_linear_1532_316323)"/>
<path opacity="0.6" d="M179.032 120.581V187.903L164.763 199.627H108.361C107.15 199.627 106.165 198.817 106.165 197.817V120.581H179.032Z" fill="white"/>
<path opacity="0.6" d="M177.128 117.935C177.128 118.417 176.652 118.808 176.065 118.808C175.478 118.808 175.002 118.417 175.002 117.935C175.002 117.452 175.478 117.061 176.065 117.061C176.652 117.061 177.128 117.452 177.128 117.935Z" fill="white"/>
<path opacity="0.6" d="M173.068 117.935C173.068 118.417 172.592 118.808 172.005 118.808C171.418 118.808 170.942 118.417 170.942 117.935C170.942 117.452 171.418 117.061 172.005 117.061C172.592 117.061 173.068 117.452 173.068 117.935Z" fill="white"/>
<path opacity="0.6" d="M169.009 117.935C169.009 118.417 168.533 118.808 167.946 118.808C167.359 118.808 166.883 118.417 166.883 117.935C166.883 117.452 167.359 117.061 167.946 117.061C168.533 117.061 169.009 117.452 169.009 117.935Z" fill="white"/>
<path d="M123.528 126.309H111.397C111.019 126.309 110.713 126.057 110.713 125.747C110.713 125.436 111.019 125.185 111.397 125.185H123.528C123.906 125.185 124.212 125.436 124.212 125.747C124.212 126.057 123.906 126.309 123.528 126.309Z" fill="url(#paint19_linear_1532_316323)"/>
<path d="M129.251 129.377H111.397C111.019 129.377 110.713 129.126 110.713 128.815C110.713 128.505 111.019 128.253 111.397 128.253H129.251C129.628 128.253 129.935 128.505 129.935 128.815C129.935 129.126 129.629 129.377 129.251 129.377Z" fill="url(#paint20_linear_1532_316323)"/>
<path d="M123.73 132.449H111.397C111.019 132.449 110.713 132.198 110.713 131.887C110.713 131.576 111.019 131.325 111.397 131.325H123.73C124.108 131.325 124.414 131.576 124.414 131.887C124.414 132.197 124.108 132.449 123.73 132.449Z" fill="url(#paint21_linear_1532_316323)"/>
<path d="M169.691 182.726H119.746C119.368 182.726 119.062 182.475 119.062 182.164C119.062 181.853 119.368 181.602 119.746 181.602H169.691C170.069 181.602 170.375 181.853 170.375 182.164C170.375 182.475 170.069 182.726 169.691 182.726Z" fill="url(#paint22_linear_1532_316323)"/>
<path d="M142.33 185.795H111.397C111.019 185.795 110.713 185.543 110.713 185.233C110.713 184.922 111.019 184.671 111.397 184.671H142.33C142.708 184.671 143.014 184.922 143.014 185.233C143.014 185.543 142.708 185.795 142.33 185.795Z" fill="url(#paint23_linear_1532_316323)"/>
<path opacity="0.5" d="M179.031 187.903L164.763 199.627V187.903H179.031Z" fill="url(#paint24_linear_1532_316323)"/>
<path opacity="0.4" d="M179.033 120.581H175.002V187.903H179.033V120.581Z" fill="black"/>
<path d="M177.017 183.294C176.198 183.294 175.533 182.749 175.533 182.075V175.198C175.533 174.525 176.197 173.979 177.017 173.979C177.837 173.979 178.502 174.524 178.502 175.198V182.075C178.501 182.748 177.837 183.294 177.017 183.294Z" fill="url(#paint25_linear_1532_316323)"/>
<path d="M169.691 126.309H160.295C159.918 126.309 159.611 126.057 159.611 125.747C159.611 125.436 159.918 125.185 160.295 125.185H169.691C170.068 125.185 170.375 125.436 170.375 125.747C170.375 126.057 170.069 126.309 169.691 126.309Z" fill="url(#paint26_linear_1532_316323)"/>
<path d="M169.692 129.377H164.834C164.457 129.377 164.15 129.126 164.15 128.815C164.15 128.505 164.457 128.253 164.834 128.253H169.692C170.07 128.253 170.376 128.505 170.376 128.815C170.376 129.126 170.07 129.377 169.692 129.377Z" fill="url(#paint27_linear_1532_316323)"/>
<path d="M169.691 140.578H119.746C119.368 140.578 119.062 140.327 119.062 140.016C119.062 139.705 119.368 139.454 119.746 139.454H169.691C170.069 139.454 170.375 139.705 170.375 140.016C170.375 140.326 170.069 140.578 169.691 140.578Z" fill="url(#paint28_linear_1532_316323)"/>
<path d="M169.69 143.647H111.397C111.019 143.647 110.713 143.396 110.713 143.085C110.713 142.774 111.019 142.523 111.397 142.523H169.69C170.068 142.523 170.374 142.774 170.374 143.085C170.374 143.396 170.068 143.647 169.69 143.647Z" fill="url(#paint29_linear_1532_316323)"/>
<path d="M135.49 146.718H111.397C111.019 146.718 110.713 146.467 110.713 146.156C110.713 145.846 111.019 145.594 111.397 145.594H135.49C135.868 145.594 136.174 145.846 136.174 146.156C136.174 146.467 135.868 146.718 135.49 146.718Z" fill="url(#paint30_linear_1532_316323)"/>
<path opacity="0.7" d="M144.033 150.79H121.067V155.845H144.033V150.79Z" fill="url(#paint31_linear_1532_316323)"/>
<path opacity="0.3" d="M131.474 156.971H121.067V175.645H131.474V156.971Z" fill="url(#paint32_linear_1532_316323)"/>
<path opacity="0.3" d="M157.354 156.971H145.401V175.645H157.354V156.971Z" fill="url(#paint33_linear_1532_316323)"/>
<path opacity="0.7" d="M169.69 150.79H145.401V155.845H169.69V150.79Z" fill="url(#paint34_linear_1532_316323)"/>
<path opacity="0.3" d="M169.689 156.971H158.721V175.645H169.689V156.971Z" fill="url(#paint35_linear_1532_316323)"/>
<path opacity="0.5" d="M119.7 156.971H111.396V175.645H119.7V156.971Z" fill="url(#paint36_linear_1532_316323)"/>
<path d="M119.7 150.79H111.396V155.845H119.7V150.79Z" fill="url(#paint37_linear_1532_316323)"/>
<path opacity="0.3" d="M144.035 156.971H132.844V175.645H144.035V156.971Z" fill="url(#paint38_linear_1532_316323)"/>
<path opacity="0.4" d="M177.017 183.294C176.198 183.294 175.533 182.749 175.533 182.075V175.198C175.533 174.525 176.197 173.979 177.017 173.979C177.837 173.979 178.502 174.524 178.502 175.198V182.075C178.501 182.748 177.837 183.294 177.017 183.294Z" fill="white"/>
<path opacity="0.2" d="M179.035 117.503V176.064H137.769C136.558 176.064 135.573 175.254 135.573 174.254V115.694H176.832C178.043 115.694 179.035 116.503 179.035 117.503Z" fill="black"/>
<path d="M215.257 85.5907V155.987L200.989 167.71H144.586C143.376 167.71 142.391 166.901 142.391 165.901V85.5907C142.391 84.5903 143.376 83.7811 144.586 83.7811H213.055C214.265 83.7811 215.257 84.5903 215.257 85.5907Z" fill="url(#paint39_linear_1532_316323)"/>
<path opacity="0.6" d="M215.257 88.6659V155.988L200.989 167.711H144.586C143.376 167.711 142.391 166.902 142.391 165.902V88.6659H215.257Z" fill="white"/>
<path opacity="0.6" d="M212.29 86.8926C212.878 86.8926 213.353 86.5016 213.353 86.0193C213.353 85.5369 212.878 85.1459 212.29 85.1459C211.703 85.1459 211.228 85.5369 211.228 86.0193C211.228 86.5016 211.703 86.8926 212.29 86.8926Z" fill="white"/>
<path opacity="0.6" d="M208.228 86.8926C208.815 86.8926 209.291 86.5016 209.291 86.0193C209.291 85.5369 208.815 85.1459 208.228 85.1459C207.641 85.1459 207.165 85.5369 207.165 86.0193C207.165 86.5016 207.641 86.8926 208.228 86.8926Z" fill="white"/>
<path opacity="0.6" d="M205.234 86.0193C205.234 86.5015 204.758 86.8926 204.171 86.8926C203.584 86.8926 203.108 86.5015 203.108 86.0193C203.108 85.5371 203.584 85.1459 204.171 85.1459C204.759 85.1459 205.234 85.5371 205.234 86.0193Z" fill="white"/>
<path d="M183.734 94.3932H169.801C169.424 94.3932 169.117 94.1414 169.117 93.8312C169.117 93.5209 169.424 93.2692 169.801 93.2692H183.734C184.112 93.2692 184.418 93.5209 184.418 93.8312C184.418 94.1414 184.112 94.3932 183.734 94.3932Z" fill="url(#paint40_linear_1532_316323)"/>
<path d="M189.456 97.462H164.079C163.701 97.462 163.395 97.2102 163.395 96.9C163.395 96.5898 163.701 96.338 164.079 96.338H189.456C189.834 96.338 190.14 96.5898 190.14 96.9C190.14 97.2102 189.835 97.462 189.456 97.462Z" fill="url(#paint41_linear_1532_316323)"/>
<path d="M183.937 100.534H169.6C169.222 100.534 168.916 100.282 168.916 99.9717C168.916 99.6615 169.222 99.4097 169.6 99.4097H183.937C184.315 99.4097 184.621 99.6615 184.621 99.9717C184.621 100.283 184.315 100.534 183.937 100.534Z" fill="url(#paint42_linear_1532_316323)"/>
<path d="M205.917 108.663H155.971C155.594 108.663 155.287 108.411 155.287 108.101C155.287 107.79 155.594 107.539 155.971 107.539H205.917C206.294 107.539 206.601 107.79 206.601 108.101C206.601 108.411 206.295 108.663 205.917 108.663Z" fill="url(#paint43_linear_1532_316323)"/>
<path d="M197.567 120.944H147.622C147.245 120.944 146.938 120.692 146.938 120.382C146.938 120.072 147.245 119.82 147.622 119.82H197.567C197.945 119.82 198.251 120.072 198.251 120.382C198.251 120.692 197.946 120.944 197.567 120.944Z" fill="url(#paint44_linear_1532_316323)"/>
<path d="M205.916 111.732H147.622C147.245 111.732 146.938 111.48 146.938 111.17C146.938 110.859 147.245 110.608 147.622 110.608H205.916C206.293 110.608 206.6 110.859 206.6 111.17C206.6 111.48 206.294 111.732 205.916 111.732Z" fill="url(#paint45_linear_1532_316323)"/>
<path d="M205.916 114.803H147.622C147.245 114.803 146.938 114.551 146.938 114.241C146.938 113.931 147.245 113.679 147.622 113.679H205.916C206.293 113.679 206.6 113.931 206.6 114.241C206.6 114.552 206.294 114.803 205.916 114.803Z" fill="url(#paint46_linear_1532_316323)"/>
<path d="M205.916 117.872H147.622C147.245 117.872 146.938 117.62 146.938 117.31C146.938 117 147.245 116.748 147.622 116.748H205.916C206.293 116.748 206.6 117 206.6 117.31C206.6 117.62 206.294 117.872 205.916 117.872Z" fill="url(#paint47_linear_1532_316323)"/>
<path d="M205.917 139.572H155.971C155.594 139.572 155.287 139.321 155.287 139.01C155.287 138.7 155.594 138.448 155.971 138.448H205.917C206.294 138.448 206.601 138.7 206.601 139.01C206.601 139.321 206.295 139.572 205.917 139.572Z" fill="url(#paint48_linear_1532_316323)"/>
<path d="M197.567 151.853H147.622C147.245 151.853 146.938 151.602 146.938 151.291C146.938 150.981 147.245 150.729 147.622 150.729H197.567C197.945 150.729 198.251 150.981 198.251 151.291C198.251 151.602 197.946 151.853 197.567 151.853Z" fill="url(#paint49_linear_1532_316323)"/>
<path d="M205.916 142.644H147.622C147.245 142.644 146.938 142.393 146.938 142.082C146.938 141.771 147.245 141.52 147.622 141.52H205.916C206.293 141.52 206.6 141.771 206.6 142.082C206.6 142.393 206.294 142.644 205.916 142.644Z" fill="url(#paint50_linear_1532_316323)"/>
<path d="M205.916 145.713H147.622C147.245 145.713 146.938 145.462 146.938 145.151C146.938 144.84 147.245 144.589 147.622 144.589H205.916C206.293 144.589 206.6 144.84 206.6 145.151C206.6 145.462 206.294 145.713 205.916 145.713Z" fill="url(#paint51_linear_1532_316323)"/>
<path d="M205.916 148.782H147.622C147.245 148.782 146.938 148.531 146.938 148.22C146.938 147.909 147.245 147.658 147.622 147.658H205.916C206.293 147.658 206.6 147.909 206.6 148.22C206.6 148.531 206.294 148.782 205.916 148.782Z" fill="url(#paint52_linear_1532_316323)"/>
<path d="M205.918 93.1571H198.92V100.812H205.918V93.1571Z" fill="url(#paint53_linear_1532_316323)"/>
<path d="M151.498 99.5313C153.64 99.5313 155.377 98.1044 155.377 96.3442C155.377 94.584 153.64 93.1571 151.498 93.1571C149.356 93.1571 147.619 94.584 147.619 96.3442C147.619 98.1044 149.356 99.5313 151.498 99.5313Z" fill="url(#paint54_linear_1532_316323)"/>
<path d="M147.401 124.96C147.401 125.331 147.767 125.631 148.219 125.631C148.67 125.631 149.036 125.331 149.036 124.96C149.036 124.589 148.67 124.288 148.219 124.288C147.767 124.288 147.401 124.589 147.401 124.96Z" fill="url(#paint55_linear_1532_316323)"/>
<path d="M147.401 128.028C147.401 128.399 147.767 128.7 148.219 128.7C148.67 128.7 149.036 128.399 149.036 128.028C149.036 127.658 148.67 127.357 148.219 127.357C147.767 127.357 147.401 127.658 147.401 128.028Z" fill="url(#paint56_linear_1532_316323)"/>
<path d="M147.401 131.1C147.401 131.471 147.767 131.772 148.219 131.772C148.67 131.772 149.036 131.471 149.036 131.1C149.036 130.729 148.67 130.428 148.219 130.428C147.767 130.428 147.401 130.729 147.401 131.1Z" fill="url(#paint57_linear_1532_316323)"/>
<path d="M147.401 134.169C147.401 134.54 147.767 134.841 148.219 134.841C148.67 134.841 149.036 134.54 149.036 134.169C149.036 133.798 148.67 133.497 148.219 133.497C147.767 133.497 147.401 133.798 147.401 134.169Z" fill="url(#paint58_linear_1532_316323)"/>
<path d="M159.949 125.521H151.044C150.667 125.521 150.36 125.269 150.36 124.959C150.36 124.649 150.667 124.397 151.044 124.397H159.949C160.327 124.397 160.633 124.649 160.633 124.959C160.633 125.269 160.327 125.521 159.949 125.521Z" fill="url(#paint59_linear_1532_316323)"/>
<path d="M168.298 128.593H151.044C150.667 128.593 150.36 128.341 150.36 128.031C150.36 127.721 150.667 127.469 151.044 127.469H168.298C168.675 127.469 168.982 127.721 168.982 128.031C168.982 128.341 168.676 128.593 168.298 128.593Z" fill="url(#paint60_linear_1532_316323)"/>
<path d="M158.038 131.662H151.044C150.667 131.662 150.36 131.411 150.36 131.1C150.36 130.789 150.667 130.538 151.044 130.538H158.038C158.415 130.538 158.722 130.789 158.722 131.1C158.722 131.411 158.416 131.662 158.038 131.662Z" fill="url(#paint61_linear_1532_316323)"/>
<path d="M165.562 134.733H151.044C150.667 134.733 150.36 134.482 150.36 134.171C150.36 133.861 150.667 133.609 151.044 133.609H165.562C165.939 133.609 166.246 133.861 166.246 134.171C166.246 134.482 165.94 134.733 165.562 134.733Z" fill="url(#paint62_linear_1532_316323)"/>
<path opacity="0.5" d="M215.257 155.988L200.988 167.711V155.988H215.257Z" fill="url(#paint63_linear_1532_316323)"/>
<path opacity="0.2" d="M205.917 93.1571L198.92 100.812H205.917V93.1571Z" fill="black"/>
<path opacity="0.2" d="M153.767 94.4818H149.234V98.2056H153.767V94.4818Z" fill="black"/>
<path opacity="0.4" d="M215.258 88.6659H211.228V155.988H215.258V88.6659Z" fill="black"/>
<path d="M213.24 101.361C212.421 101.361 211.756 100.815 211.756 100.141V93.2646C211.756 92.5914 212.42 92.0451 213.24 92.0451C214.06 92.0451 214.724 92.5908 214.724 93.2646V100.141C214.724 100.815 214.06 101.361 213.24 101.361Z" fill="url(#paint64_linear_1532_316323)"/>
<path opacity="0.4" d="M213.24 101.361C212.421 101.361 211.756 100.815 211.756 100.141V93.2646C211.756 92.5914 212.42 92.0451 213.24 92.0451C214.06 92.0451 214.724 92.5908 214.724 93.2646V100.141C214.724 100.815 214.06 101.361 213.24 101.361Z" fill="white"/>
<path d="M57.3385 117.42H81.221C83.1342 117.42 84.6855 118.695 84.6855 120.267V139.342C84.6855 140.914 83.1342 142.188 81.221 142.188H71.526L72.5677 147.935L67.7736 142.188H57.3385C55.4253 142.188 53.874 140.914 53.874 139.342V120.267C53.8747 118.695 55.4253 117.42 57.3385 117.42Z" fill="url(#paint65_linear_1532_316323)"/>
<path d="M67.3135 125.839V127.36L68.267 127.434C68.3956 127.944 68.6418 128.418 68.9783 128.839L68.3661 129.447L69.6753 130.523L70.4154 130.019C70.9277 130.296 71.505 130.498 72.1261 130.604L72.2157 131.387H74.0673L74.1569 130.604C74.7773 130.498 75.3546 130.296 75.8676 130.019L76.6077 130.523L77.9168 129.447L77.304 128.839C77.6405 128.419 77.8861 127.944 78.0153 127.434L78.9688 127.36V125.839L78.0153 125.765C77.8867 125.255 77.6405 124.781 77.304 124.36L77.9168 123.752L76.6077 122.676L75.8676 123.179C75.3553 122.902 74.778 122.701 74.1569 122.595L74.0673 121.811H72.2157L72.1261 122.595C71.5057 122.7 70.9284 122.902 70.4154 123.179L69.6753 122.676L68.3661 123.752L68.9783 124.359C68.6418 124.78 68.3962 125.254 68.267 125.765L67.3135 125.839ZM73.1405 124.54C74.5249 124.54 75.6473 125.462 75.6473 126.6C75.6473 127.737 74.5249 128.66 73.1405 128.66C71.7561 128.66 70.6336 127.737 70.6336 126.6C70.6343 125.462 71.7567 124.54 73.1405 124.54Z" fill="#F5F5F5"/>
<path d="M68.5093 136.939C68.9957 136.856 69.4478 136.698 69.85 136.481L70.4293 136.876L71.4553 136.033L70.9752 135.556C71.2385 135.226 71.4314 134.855 71.5326 134.455L72.2795 134.397V133.205L71.5326 133.148C71.4314 132.748 71.2392 132.377 70.9752 132.046L71.4553 131.569L70.4293 130.726L69.85 131.121C69.4485 130.905 68.9957 130.746 68.5093 130.663L68.4389 130.049H66.9881L66.9177 130.663C66.4313 130.746 65.9792 130.904 65.5777 131.121L64.9977 130.726L63.9717 131.569L64.4518 132.046C64.1885 132.376 63.9956 132.747 63.8944 133.148L63.1475 133.205V134.397L63.8944 134.455C63.9949 134.855 64.1878 135.226 64.4518 135.557L63.9717 136.033L64.9977 136.876L65.5777 136.482C65.9792 136.698 66.4313 136.857 66.9177 136.94L66.9881 137.554H68.4389L68.5093 136.939ZM65.7487 133.802C65.7487 132.91 66.6283 132.188 67.7132 132.188C68.798 132.188 69.6776 132.91 69.6776 133.802C69.6776 134.693 68.798 135.416 67.7132 135.416C66.6283 135.416 65.7487 134.693 65.7487 133.802Z" fill="#F5F5F5"/>
<path d="M64.7328 130.217L65.1364 130.616L66.1432 130.051L65.8375 129.597C66.1179 129.358 66.3471 129.076 66.5065 128.759L67.1344 128.807L67.3601 127.823L66.7547 127.68C66.7472 127.337 66.6583 127.006 66.5037 126.7L66.99 126.368L66.3026 125.541L65.7493 125.792C65.4586 125.561 65.1152 125.373 64.7301 125.242L64.7882 124.726L63.5906 124.541L63.4161 125.038C62.9989 125.044 62.5953 125.118 62.2232 125.245L61.8197 124.845L60.8128 125.41L61.1186 125.864C60.8388 126.103 60.609 126.385 60.4496 126.702L59.8224 126.654L59.5967 127.638L60.202 127.781C60.2095 128.124 60.2985 128.455 60.4531 128.762L59.9667 129.093L60.6541 129.92L61.2075 129.669C61.4975 129.9 61.8409 130.088 62.2273 130.219L62.1692 130.734L63.3669 130.92L63.5413 130.422C63.9565 130.417 64.3601 130.344 64.7328 130.217ZM61.8559 127.48C62.0249 126.744 62.8881 126.26 63.7834 126.399C64.6788 126.538 65.2677 127.246 65.0988 127.983C64.9298 128.718 64.0666 129.202 63.1713 129.063C62.2759 128.924 61.687 128.215 61.8559 127.48Z" fill="#F5F5F5"/>
<path d="M96.6867 187.214C96.6867 187.214 98.3721 199.661 98.9186 201.144C99.4651 202.628 107.177 210.55 107.177 210.55L104.988 211.488C104.988 211.488 96.7551 204.554 95.474 202.498C94.1929 200.441 92.2168 189.708 92.2168 189.708L96.6867 187.214Z" fill="#E4897B"/>
<path d="M95.1487 181.676C97.99 182.911 98.9189 200.179 98.9189 200.179L100.352 201.998L95.99 204.551C95.99 204.551 94.1329 202.031 93.2656 200.104C92.3983 198.178 90.3408 188.691 90.3408 188.691L95.1487 181.676Z" fill="url(#paint66_linear_1532_316323)"/>
<path d="M95.3486 204.551L100.354 201.291L101.433 203.141L96.8144 205.848L95.3486 204.551Z" fill="url(#paint67_linear_1532_316323)"/>
<path opacity="0.4" d="M95.3486 204.551L100.354 201.291L101.433 203.141L96.8144 205.848L95.3486 204.551Z" fill="#F27D3D"/>
<path d="M83.9627 203.94L89.0749 210.591C99.2166 208.65 131.727 204.575 135.72 213.74C140.681 225.13 104.823 234.209 84.9778 234.765C65.1322 235.32 49.2087 226.037 61.7546 202.268L83.9627 203.94Z" fill="#455A64"/>
<path d="M129.973 229.84C129.928 229.863 129.87 229.861 129.827 229.834C129.787 229.811 129.774 229.769 129.792 229.733C129.857 229.552 130.515 227.984 131.179 227.819C131.322 227.791 131.473 227.827 131.575 227.914C131.763 228.042 131.853 228.243 131.811 228.441C131.703 228.734 131.485 228.992 131.189 229.177C130.811 229.431 130.404 229.654 129.973 229.84ZM130.143 229.539C130.762 229.316 131.263 228.919 131.557 228.419C131.592 228.283 131.526 228.143 131.389 228.06C131.351 228.023 131.29 228.008 131.233 228.023C131.177 228.039 131.125 228.064 131.08 228.096C130.664 228.527 130.347 229.016 130.143 229.539Z" fill="url(#paint68_linear_1532_316323)"/>
<path d="M129.936 229.859C129.891 229.873 129.841 229.861 129.813 229.829C129.751 229.786 128.834 228.835 128.986 228.194C129.022 228.034 129.136 227.892 129.302 227.801C129.445 227.688 129.664 227.671 129.83 227.761C130.31 228.038 130.252 229.31 130.016 229.792L129.999 229.84C129.981 229.851 129.959 229.858 129.936 229.859ZM129.416 227.996C129.333 228.055 129.277 228.136 129.257 228.224C129.162 228.63 129.622 229.239 129.871 229.53C130.022 228.987 129.973 228.095 129.691 227.935C129.661 227.922 129.603 227.884 129.462 227.966L129.416 227.996Z" fill="url(#paint69_linear_1532_316323)"/>
<path d="M95.0864 232.513C95.1131 232.475 95.1651 232.454 95.2177 232.46C95.2649 232.464 95.3026 232.495 95.3073 232.535C95.358 232.719 95.7061 234.352 95.2212 234.761C95.1124 234.843 94.9592 234.871 94.8183 234.836C94.5789 234.799 94.3812 234.659 94.3026 234.469C94.2239 234.17 94.2622 233.858 94.4127 233.577C94.5933 233.205 94.819 232.848 95.0864 232.513ZM95.1145 232.844C94.7047 233.285 94.5002 233.832 94.5372 234.386C94.5878 234.519 94.728 234.615 94.8956 234.633C94.951 234.651 95.0139 234.64 95.0543 234.603C95.0946 234.567 95.1254 234.525 95.1446 234.479C95.2554 233.937 95.2451 233.383 95.1145 232.844Z" fill="url(#paint70_linear_1532_316323)"/>
<path d="M108.077 224.261L99.9129 226.651L95.9922 227.798L96.9977 231.323L100.795 230.659L110.07 229.035L108.077 224.261Z" fill="#E4897B"/>
<path d="M98.0638 231.489L97.3763 227.33C97.338 227.098 97.074 226.938 96.7929 226.976L94.2956 227.318C94.2956 227.318 90.8961 227.58 90.221 228.296C88.247 230.389 89.4802 239.621 90.7956 239.946C91.2771 240.065 91.786 239.522 91.9953 239.147C92.6602 237.959 93.8318 234.846 94.4016 233.86C95.0672 232.707 96.8927 232.142 97.7135 231.94C97.9509 231.882 98.0973 231.691 98.0638 231.489Z" fill="black"/>
<path d="M95.1053 232.481C95.1361 232.451 95.1874 232.442 95.2312 232.458C95.3112 232.471 96.6723 232.938 96.9186 233.56C96.9815 233.715 96.9644 233.884 96.8734 234.03C96.8153 234.185 96.6327 234.288 96.4343 234.276C95.8515 234.224 95.1532 233.088 95.0752 232.573L95.0615 232.524C95.0704 232.506 95.0861 232.491 95.1053 232.481ZM96.6587 233.904C96.6963 233.819 96.6976 233.727 96.6634 233.641C96.5075 233.248 95.7462 232.898 95.357 232.742C95.5444 233.277 96.1128 234.038 96.4535 234.066C96.4883 234.066 96.5602 234.075 96.6361 233.947L96.6587 233.904Z" fill="url(#paint71_linear_1532_316323)"/>
<path opacity="0.2" d="M108.075 224.261L99.9111 226.651L100.793 230.659L110.068 229.035L108.075 224.261Z" fill="black"/>
<path d="M102.241 231.263L104.59 231.402L103.018 224.764L100.354 225.975L102.241 231.263Z" fill="url(#paint72_linear_1532_316323)"/>
<path opacity="0.6" d="M102.241 231.263L104.59 231.402L103.018 224.764L100.354 225.975L102.241 231.263Z" fill="white"/>
<path d="M125.541 213.339V214.99C125.541 215.414 124.933 215.588 124.425 215.588H84.2689C83.7532 215.588 83.1328 215.414 83.1328 214.99V213.339H125.541Z" fill="#263238"/>
<path opacity="0.4" d="M125.541 213.339V214.99C125.541 215.414 124.933 215.588 124.425 215.588H84.2689C83.7532 215.588 83.1328 215.414 83.1328 214.99V213.339H125.541Z" fill="white"/>
<path opacity="0.2" d="M125.541 213.339V214.99C125.541 215.414 124.934 215.588 124.425 215.588H97.94C97.425 215.588 96.8135 215.414 96.8135 214.99V213.339H125.541Z" fill="black"/>
<path d="M132.26 196.197L127.48 214.011C127.324 214.598 126.629 215.024 125.927 215.024H99.8156C99.12 215.024 98.6734 214.491 98.8348 213.905L103.609 196.226C103.771 195.644 104.459 195.354 105.161 195.354H131.274C131.975 195.354 132.416 195.615 132.26 196.197Z" fill="#263238"/>
<path opacity="0.4" d="M132.259 196.197L127.479 214.011C127.323 214.598 126.628 215.024 125.926 215.024H100.702C100.001 215.024 99.5594 214.491 99.7147 213.905L104.495 196.226C104.65 195.644 105.345 195.354 106.047 195.354H131.272C131.973 195.354 132.415 195.615 132.259 196.197Z" fill="white"/>
<path opacity="0.2" d="M119.385 205.252V205.257C119.385 206.783 117.395 208.022 115.936 208.022C114.477 208.022 113.611 206.783 114.027 205.257C114.443 203.762 115.895 202.544 117.323 202.497C116.907 204.023 117.798 205.257 119.251 205.257C119.282 205.257 119.385 205.257 119.385 205.252Z" fill="black"/>
<path d="M113.747 231.894L122.298 233.051L126.405 233.607L127.603 230.121L123.889 229.193L114.815 226.925L113.747 231.894Z" fill="#E4897B"/>
<path d="M126.764 229.549L124.914 233.462C124.811 233.681 124.948 233.925 125.217 234.004L127.603 234.698C127.603 234.698 130.732 235.82 131.745 235.462C134.705 234.416 139.066 225.846 138.106 225.039C137.755 224.744 136.99 225.016 136.586 225.261C135.304 226.037 132.445 228.294 131.365 228.93C130.103 229.674 128.173 229.443 127.336 229.293C127.095 229.25 126.854 229.36 126.764 229.549Z" fill="black"/>
<path opacity="0.2" d="M113.747 231.894L122.298 233.051L123.889 229.193L114.815 226.925L113.747 231.894Z" fill="black"/>
<path d="M122.416 228.463C122.416 228.463 87.5502 212.359 75.52 212.817C63.4899 213.275 61.7539 221.99 66.717 227.444C71.6808 232.898 80.8463 234.226 80.8463 234.226C80.8463 234.226 74.6062 226.98 75.5084 224.942C76.4099 222.903 79.9407 225.747 79.9407 225.747C79.9407 225.747 101.875 231.568 121.063 232.903L122.416 228.463Z" fill="#455A64"/>
<path d="M122.974 228.022L121 226.933L118.465 233.333H121.51L122.974 228.022Z" fill="url(#paint73_linear_1532_316323)"/>
<path opacity="0.6" d="M122.974 228.022L121 226.933L118.465 233.333H121.51L122.974 228.022Z" fill="white"/>
<path d="M61.7578 202.268L83.9673 203.943C83.9673 203.943 87.4488 198.019 90.1164 195.71C92.7772 193.394 95.1507 181.676 95.1507 181.676C93.2765 180.929 91.4092 180.316 89.5829 179.811C82.5035 177.838 76.0808 177.478 72.5924 177.461H72.4692C70.814 177.456 69.8564 177.529 69.8564 177.529C69.3092 177.776 68.7825 178.293 68.2763 179.007C65.896 182.379 64.0013 190.247 62.8796 195.895C62.1545 199.542 61.7578 202.268 61.7578 202.268Z" fill="url(#paint74_linear_1532_316323)"/>
<path opacity="0.2" d="M62.8779 195.895C67.7754 194.052 74.458 190.933 74.1092 187.769C73.733 184.295 70.3062 180.8 68.2747 179.007C65.8944 182.379 63.9997 190.247 62.8779 195.895Z" fill="black"/>
<path d="M75.1289 177.667C75.1289 177.667 78.3957 184.003 84.2747 184.003C90.1537 184.003 90.3445 180.446 90.3445 180.446C90.3445 180.446 84.4641 177.278 75.1289 177.667Z" fill="url(#paint75_linear_1532_316323)"/>
<path opacity="0.4" d="M75.1289 177.667C75.1289 177.667 78.3957 184.003 84.2747 184.003C90.1537 184.003 90.3445 180.446 90.3445 180.446C90.3445 180.446 84.4641 177.278 75.1289 177.667Z" fill="url(#paint76_linear_1532_316323)"/>
<path d="M85.782 178.654C85.8223 179.793 86.6048 180.061 86.6048 180.061C86.8887 182.155 84.6753 182.813 83.5651 182.721C79.206 182.354 77.8291 178.044 77.8291 178.044C81.0008 177.008 81.7129 174.136 81.8462 172.429C81.9098 171.632 81.8462 171.088 81.8462 171.088L87.7704 174.154C87.1787 174.968 86.7608 175.674 86.4468 176.285C85.9297 177.328 85.7649 178.096 85.782 178.654Z" fill="#E4897B"/>
<path opacity="0.2" d="M87.4051 173.772C86.9174 174.631 86.5884 175.368 86.351 176.002C85.9653 177.082 85.8962 177.86 85.9817 178.413C82.6513 178.628 81.3271 172.583 81.3271 172.583L81.2983 172.548C81.2635 171.75 81.1328 171.214 81.1328 171.214L87.4051 173.772Z" fill="black"/>
<path d="M91.1979 160.27C91.1979 160.27 95.544 156.156 90.3408 152.71C85.1377 149.264 74.8551 150.82 72.9611 158.602C71.0671 166.383 73.6807 169.671 73.6807 169.671C73.6807 169.671 73.6793 164.716 75.4173 163.27C75.4173 163.27 74.8968 165.642 75.4173 167.068C75.9379 168.494 75.4173 167.586 75.4173 167.586C75.4173 167.586 77.0199 161.38 84.732 163.159C92.4435 164.938 91.1979 160.27 91.1979 160.27Z" fill="#472E03"/>
<path d="M92.2383 161.612C97.9682 163.048 98.8766 166.03 97.4956 170.986C95.7698 177.181 92.5352 181.078 85.8518 177.988C76.7751 173.791 82.7232 159.227 92.2383 161.612Z" fill="#E4897B"/>
<path d="M93.8904 169.795C93.8904 169.795 94.2276 171.223 94.8329 172.165C94.8329 172.165 94.1045 172.682 93.125 172.319L93.8904 169.795Z" fill="#B66E62"/>
<path d="M90.5246 168.532C90.3919 168.921 90.0287 169.178 89.7126 169.106C89.3966 169.033 89.2482 168.658 89.3802 168.269C89.5129 167.879 89.8761 167.623 90.1921 167.695C90.5081 167.768 90.6573 168.142 90.5246 168.532Z" fill="#263238"/>
<path d="M90.0557 167.683L91.1993 167.588C91.1993 167.588 90.4442 168.183 90.0557 167.683Z" fill="#263238"/>
<path d="M96.4438 169.805C96.3111 170.194 95.9479 170.451 95.6319 170.379C95.3159 170.306 95.1668 169.931 95.2995 169.542C95.4322 169.152 95.7954 168.895 96.1114 168.968C96.4274 169.04 96.5765 169.415 96.4438 169.805Z" fill="#263238"/>
<path d="M95.9746 168.956L97.1183 168.861C97.1183 168.861 96.3631 169.456 95.9746 168.956Z" fill="#263238"/>
<path d="M88.9245 165.558C88.8445 165.558 88.7658 165.527 88.7186 165.468C88.6427 165.375 88.6728 165.248 88.7864 165.185C90.0887 164.467 91.7084 165.054 91.7761 165.08C91.9006 165.126 91.956 165.247 91.8999 165.348C91.8438 165.452 91.6975 165.497 91.5723 165.451C91.5579 165.446 90.1331 164.931 89.0627 165.523C89.0196 165.547 88.9717 165.558 88.9245 165.558Z" fill="#263238"/>
<path d="M98.0515 167.272C97.9804 167.272 97.9093 167.247 97.86 167.198C96.9469 166.285 95.9653 166.304 95.9243 166.313C95.7923 166.313 95.6712 166.232 95.6644 166.12C95.6575 166.009 95.7608 165.913 95.8969 165.906C95.9455 165.899 97.1617 165.858 98.2431 166.939C98.3306 167.026 98.3149 167.155 98.2089 167.226C98.163 167.257 98.1069 167.272 98.0515 167.272Z" fill="#263238"/>
<path d="M83.0299 167.977C83.0299 167.977 87.1442 164.78 87.8467 161.693C87.8467 161.693 100.616 160.726 97.6614 170.336C97.6614 170.336 101.891 162.206 92.1114 159.551C82.3473 156.9 77.9793 168.745 81.7563 173.547C81.7563 173.547 80.4745 169.98 83.0299 167.977Z" fill="#472E03"/>
<path d="M91.8025 174.442C91.8004 174.442 91.7984 174.442 91.7963 174.442C88.9947 174.387 88.6363 172.252 88.6328 172.23C88.6157 172.119 88.7115 172.017 88.8476 172.003C88.9824 171.99 89.1068 172.068 89.1246 172.179C89.1363 172.253 89.4393 173.989 91.808 174.035C91.9448 174.037 92.0528 174.131 92.0501 174.243C92.0474 174.353 91.9372 174.442 91.8025 174.442Z" fill="#263238"/>
<path d="M82.0412 167.035C82.0193 167.097 82.0589 167.159 82.1315 167.188C82.1438 167.193 82.1574 167.197 82.1725 167.2L88.0022 168.315C87.8155 169.191 88.3647 170.098 89.4749 170.541C90.8784 171.101 92.6343 170.71 93.3894 169.668C93.464 169.566 93.5159 169.46 93.5652 169.353C93.875 169.19 94.1363 169.128 94.3183 169.178C94.5433 169.243 94.6138 169.447 94.6179 169.46C94.4414 170.33 94.992 171.228 96.0953 171.668C97.4989 172.229 99.2547 171.837 100.01 170.796C100.765 169.754 100.237 168.451 98.8341 167.891C97.4305 167.331 95.6747 167.723 94.9195 168.764C94.845 168.867 94.793 168.974 94.743 169.08C94.6678 169.017 94.5768 168.959 94.4482 168.925C94.2266 168.863 93.9708 168.888 93.6869 168.987C93.873 168.112 93.3231 167.206 92.2136 166.763C90.81 166.203 89.0542 166.595 88.2991 167.635C88.2019 167.77 88.1274 167.908 88.072 168.049L82.2635 166.937C82.1657 166.919 82.0658 166.963 82.0412 167.035ZM95.2403 168.892C95.9004 167.982 97.4346 167.64 98.661 168.129C99.8874 168.619 100.348 169.758 99.6884 170.667C99.0283 171.577 97.4941 171.92 96.2677 171.43C95.0413 170.941 94.5803 169.802 95.2403 168.892ZM88.6199 167.764C89.2799 166.854 90.8141 166.512 92.0406 167.002C93.267 167.491 93.728 168.63 93.0679 169.539C92.4079 170.449 90.8737 170.792 89.6472 170.302C88.4208 169.813 87.9598 168.675 88.6199 167.764Z" fill="#263238"/>
<g opacity="0.3">
<path d="M82.0412 167.035C82.0193 167.097 82.0589 167.159 82.1315 167.188C82.1438 167.193 82.1574 167.197 82.1725 167.2L88.0022 168.315C87.8155 169.191 88.3647 170.098 89.4749 170.541C90.8784 171.101 92.6343 170.71 93.3894 169.668C93.464 169.566 93.5159 169.46 93.5652 169.353C93.875 169.19 94.1363 169.128 94.3183 169.178C94.5433 169.243 94.6138 169.447 94.6179 169.46C94.4414 170.33 94.992 171.228 96.0953 171.668C97.4989 172.229 99.2547 171.837 100.01 170.796C100.765 169.754 100.237 168.451 98.8341 167.891C97.4305 167.331 95.6747 167.723 94.9195 168.764C94.845 168.867 94.793 168.974 94.743 169.08C94.6678 169.017 94.5768 168.959 94.4482 168.925C94.2266 168.863 93.9708 168.888 93.6869 168.987C93.873 168.112 93.3231 167.206 92.2136 166.763C90.81 166.203 89.0542 166.595 88.2991 167.635C88.2019 167.77 88.1274 167.908 88.072 168.049L82.2635 166.937C82.1657 166.919 82.0658 166.963 82.0412 167.035ZM95.2403 168.892C95.9004 167.982 97.4346 167.64 98.661 168.129C99.8874 168.619 100.348 169.758 99.6884 170.667C99.0283 171.577 97.4941 171.92 96.2677 171.43C95.0413 170.941 94.5803 169.802 95.2403 168.892ZM88.6199 167.764C89.2799 166.854 90.8141 166.512 92.0406 167.002C93.267 167.491 93.728 168.63 93.0679 169.539C92.4079 170.449 90.8737 170.792 89.6472 170.302C88.4208 169.813 87.9598 168.675 88.6199 167.764Z" fill="white"/>
</g>
<path d="M83.5985 169.205C83.8414 168.437 83.366 166.916 81.593 166.64C79.7586 166.354 77.8009 169.137 81.9501 170.964C82.5452 171.226 83.091 170.807 83.5985 169.205Z" fill="#E4897B"/>
<path d="M72.4654 183.676C72.4654 183.676 73.1932 195.689 74.4237 198.379C75.6542 201.07 88.575 211.018 88.575 211.018C88.575 211.018 92.1817 210.357 92.7802 210.55C93.378 210.742 96.8138 213.338 96.8138 213.338H86.8732L86.0065 212.076C86.0065 212.076 72.6371 203.94 71.1685 202.001C70.0817 200.566 66.5898 185.975 66.5898 185.975L72.4654 183.676Z" fill="#E4897B"/>
<path d="M69.8544 177.528C72.1725 176.534 73.3031 179.723 74.6876 186.17C76.072 192.618 75.8456 198.506 75.8456 198.506L77.8278 201.4L72.825 205.188C72.825 205.188 69.0959 202.388 67.5486 198.506C66.0014 194.625 61.7422 181.001 69.8544 177.528Z" fill="url(#paint77_linear_1532_316323)"/>
<path d="M71.5137 205.186L77.8277 200.546L79.3188 202.265L73.6792 206.815L71.5137 205.186Z" fill="url(#paint78_linear_1532_316323)"/>
<path opacity="0.4" d="M71.5137 205.186L77.8277 200.546L79.3188 202.265L73.6792 206.815L71.5137 205.186Z" fill="#E3693A"/>
<defs>
<filter id="filter0_f_1532_316323" x="14.3799" y="203.562" width="313.24" height="60.7271" filterUnits="userSpaceOnUse" color-interpolation-filters="sRGB">
<feFlood flood-opacity="0" result="BackgroundImageFix"/>
<feBlend mode="normal" in="SourceGraphic" in2="BackgroundImageFix" result="shape"/>
<feGaussianBlur stdDeviation="12" result="effect1_foregroundBlur_1532_316323"/>
</filter>
<linearGradient id="paint0_linear_1532_316323" x1="138.842" y1="170.256" x2="279.227" y2="175.44" gradientUnits="userSpaceOnUse">
<stop stop-color="#FB8D48"/>
<stop offset="0.2" stop-color="#ED7136"/>
<stop offset="0.3999" stop-color="#C54E47"/>
<stop offset="0.4" stop-color="#C14F49"/>
<stop offset="0.6" stop-color="#9D3863"/>
<stop offset="0.8" stop-color="#5E1F72"/>
</linearGradient>
<linearGradient id="paint1_linear_1532_316323" x1="193.78" y1="143.057" x2="265.634" y2="144.267" gradientUnits="userSpaceOnUse">
<stop stop-color="#FB8D48"/>
<stop offset="0.2" stop-color="#ED7136"/>
<stop offset="0.3999" stop-color="#C54E47"/>
<stop offset="0.4" stop-color="#C14F49"/>
<stop offset="0.6" stop-color="#9D3863"/>
<stop offset="0.8" stop-color="#5E1F72"/>
</linearGradient>
<linearGradient id="paint2_linear_1532_316323" x1="197.764" y1="116.588" x2="224.589" y2="135.298" gradientUnits="userSpaceOnUse">
<stop stop-color="#FB8D48"/>
<stop offset="0.2" stop-color="#ED7136"/>
<stop offset="0.3999" stop-color="#C54E47"/>
<stop offset="0.4" stop-color="#C14F49"/>
<stop offset="0.6" stop-color="#9D3863"/>
<stop offset="0.8" stop-color="#5E1F72"/>
</linearGradient>
<linearGradient id="paint3_linear_1532_316323" x1="197.572" y1="119.657" x2="220.63" y2="131.347" gradientUnits="userSpaceOnUse">
<stop stop-color="#FB8D48"/>
<stop offset="0.2" stop-color="#ED7136"/>
<stop offset="0.3999" stop-color="#C54E47"/>
<stop offset="0.4" stop-color="#C14F49"/>
<stop offset="0.6" stop-color="#9D3863"/>
<stop offset="0.8" stop-color="#5E1F72"/>
</linearGradient>
<linearGradient id="paint4_linear_1532_316323" x1="206.302" y1="167.129" x2="234.677" y2="192.25" gradientUnits="userSpaceOnUse">
<stop stop-color="#FB8D48"/>
<stop offset="0.2" stop-color="#ED7136"/>
<stop offset="0.3999" stop-color="#C54E47"/>
<stop offset="0.4" stop-color="#C14F49"/>
<stop offset="0.6" stop-color="#9D3863"/>
<stop offset="0.8" stop-color="#5E1F72"/>
</linearGradient>
<linearGradient id="paint5_linear_1532_316323" x1="197.953" y1="179.411" x2="226.328" y2="204.531" gradientUnits="userSpaceOnUse">
<stop stop-color="#FB8D48"/>
<stop offset="0.2" stop-color="#ED7136"/>
<stop offset="0.3999" stop-color="#C54E47"/>
<stop offset="0.4" stop-color="#C14F49"/>
<stop offset="0.6" stop-color="#9D3863"/>
<stop offset="0.8" stop-color="#5E1F72"/>
</linearGradient>
<linearGradient id="paint6_linear_1532_316323" x1="198.098" y1="170.198" x2="226.672" y2="199.61" gradientUnits="userSpaceOnUse">
<stop stop-color="#FB8D48"/>
<stop offset="0.2" stop-color="#ED7136"/>
<stop offset="0.3999" stop-color="#C54E47"/>
<stop offset="0.4" stop-color="#C14F49"/>
<stop offset="0.6" stop-color="#9D3863"/>
<stop offset="0.8" stop-color="#5E1F72"/>
</linearGradient>
<linearGradient id="paint7_linear_1532_316323" x1="198.098" y1="173.27" x2="226.672" y2="202.682" gradientUnits="userSpaceOnUse">
<stop stop-color="#FB8D48"/>
<stop offset="0.2" stop-color="#ED7136"/>
<stop offset="0.3999" stop-color="#C54E47"/>
<stop offset="0.4" stop-color="#C14F49"/>
<stop offset="0.6" stop-color="#9D3863"/>
<stop offset="0.8" stop-color="#5E1F72"/>
</linearGradient>
<linearGradient id="paint8_linear_1532_316323" x1="198.098" y1="176.339" x2="226.672" y2="205.751" gradientUnits="userSpaceOnUse">
<stop stop-color="#FB8D48"/>
<stop offset="0.2" stop-color="#ED7136"/>
<stop offset="0.3999" stop-color="#C54E47"/>
<stop offset="0.4" stop-color="#C14F49"/>
<stop offset="0.6" stop-color="#9D3863"/>
<stop offset="0.8" stop-color="#5E1F72"/>
</linearGradient>
<linearGradient id="paint9_linear_1532_316323" x1="251.358" y1="184.172" x2="265.425" y2="184.504" gradientUnits="userSpaceOnUse">
<stop stop-color="#FB8D48"/>
<stop offset="0.2" stop-color="#ED7136"/>
<stop offset="0.3999" stop-color="#C54E47"/>
<stop offset="0.4" stop-color="#C14F49"/>
<stop offset="0.6" stop-color="#9D3863"/>
<stop offset="0.8" stop-color="#5E1F72"/>
</linearGradient>
<linearGradient id="paint10_linear_1532_316323" x1="261.93" y1="141.675" x2="264.858" y2="141.693" gradientUnits="userSpaceOnUse">
<stop stop-color="#FB8D48"/>
<stop offset="0.2" stop-color="#ED7136"/>
<stop offset="0.3999" stop-color="#C54E47"/>
<stop offset="0.4" stop-color="#C14F49"/>
<stop offset="0.6" stop-color="#9D3863"/>
<stop offset="0.8" stop-color="#5E1F72"/>
</linearGradient>
<linearGradient id="paint11_linear_1532_316323" x1="206.302" y1="150.268" x2="234.677" y2="175.388" gradientUnits="userSpaceOnUse">
<stop stop-color="#FB8D48"/>
<stop offset="0.2" stop-color="#ED7136"/>
<stop offset="0.3999" stop-color="#C54E47"/>
<stop offset="0.4" stop-color="#C14F49"/>
<stop offset="0.6" stop-color="#9D3863"/>
<stop offset="0.8" stop-color="#5E1F72"/>
</linearGradient>
<linearGradient id="paint12_linear_1532_316323" x1="197.953" y1="162.549" x2="226.328" y2="187.67" gradientUnits="userSpaceOnUse">
<stop stop-color="#FB8D48"/>
<stop offset="0.2" stop-color="#ED7136"/>
<stop offset="0.3999" stop-color="#C54E47"/>
<stop offset="0.4" stop-color="#C14F49"/>
<stop offset="0.6" stop-color="#9D3863"/>
<stop offset="0.8" stop-color="#5E1F72"/>
</linearGradient>
<linearGradient id="paint13_linear_1532_316323" x1="198.098" y1="153.337" x2="226.672" y2="182.749" gradientUnits="userSpaceOnUse">
<stop stop-color="#FB8D48"/>
<stop offset="0.2" stop-color="#ED7136"/>
<stop offset="0.3999" stop-color="#C54E47"/>
<stop offset="0.4" stop-color="#C14F49"/>
<stop offset="0.6" stop-color="#9D3863"/>
<stop offset="0.8" stop-color="#5E1F72"/>
</linearGradient>
<linearGradient id="paint14_linear_1532_316323" x1="198.098" y1="156.409" x2="226.672" y2="185.821" gradientUnits="userSpaceOnUse">
<stop stop-color="#FB8D48"/>
<stop offset="0.2" stop-color="#ED7136"/>
<stop offset="0.3999" stop-color="#C54E47"/>
<stop offset="0.4" stop-color="#C14F49"/>
<stop offset="0.6" stop-color="#9D3863"/>
<stop offset="0.8" stop-color="#5E1F72"/>
</linearGradient>
<linearGradient id="paint15_linear_1532_316323" x1="198.098" y1="159.477" x2="226.672" y2="188.889" gradientUnits="userSpaceOnUse">
<stop stop-color="#FB8D48"/>
<stop offset="0.2" stop-color="#ED7136"/>
<stop offset="0.3999" stop-color="#C54E47"/>
<stop offset="0.4" stop-color="#C14F49"/>
<stop offset="0.6" stop-color="#9D3863"/>
<stop offset="0.8" stop-color="#5E1F72"/>
</linearGradient>
<linearGradient id="paint16_linear_1532_316323" x1="198.586" y1="131.678" x2="256.03" y2="135.312" gradientUnits="userSpaceOnUse">
<stop stop-color="#FB8D48"/>
<stop offset="0.2" stop-color="#ED7136"/>
<stop offset="0.3999" stop-color="#C54E47"/>
<stop offset="0.4" stop-color="#C14F49"/>
<stop offset="0.6" stop-color="#9D3863"/>
<stop offset="0.8" stop-color="#5E1F72"/>
</linearGradient>
<linearGradient id="paint17_linear_1532_316323" x1="239.904" y1="144.087" x2="255.431" y2="148.671" gradientUnits="userSpaceOnUse">
<stop stop-color="#FB8D48"/>
<stop offset="0.2" stop-color="#ED7136"/>
<stop offset="0.3999" stop-color="#C54E47"/>
<stop offset="0.4" stop-color="#C14F49"/>
<stop offset="0.6" stop-color="#9D3863"/>
<stop offset="0.8" stop-color="#5E1F72"/>
</linearGradient>
<linearGradient id="paint18_linear_1532_316323" x1="107.435" y1="151.83" x2="179.289" y2="153.039" gradientUnits="userSpaceOnUse">
<stop stop-color="#FB8D48"/>
<stop offset="0.2" stop-color="#ED7136"/>
<stop offset="0.3999" stop-color="#C54E47"/>
<stop offset="0.4" stop-color="#C14F49"/>
<stop offset="0.6" stop-color="#9D3863"/>
<stop offset="0.8" stop-color="#5E1F72"/>
</linearGradient>
<linearGradient id="paint19_linear_1532_316323" x1="110.948" y1="125.668" x2="123.578" y2="128.61" gradientUnits="userSpaceOnUse">
<stop stop-color="#FB8D48"/>
<stop offset="0.2" stop-color="#ED7136"/>
<stop offset="0.3999" stop-color="#C54E47"/>
<stop offset="0.4" stop-color="#C14F49"/>
<stop offset="0.6" stop-color="#9D3863"/>
<stop offset="0.8" stop-color="#5E1F72"/>
</linearGradient>
<linearGradient id="paint20_linear_1532_316323" x1="111.047" y1="128.737" x2="128.129" y2="134.402" gradientUnits="userSpaceOnUse">
<stop stop-color="#FB8D48"/>
<stop offset="0.2" stop-color="#ED7136"/>
<stop offset="0.3999" stop-color="#C54E47"/>
<stop offset="0.4" stop-color="#C14F49"/>
<stop offset="0.6" stop-color="#9D3863"/>
<stop offset="0.8" stop-color="#5E1F72"/>
</linearGradient>
<linearGradient id="paint21_linear_1532_316323" x1="110.951" y1="131.809" x2="123.751" y2="134.835" gradientUnits="userSpaceOnUse">
<stop stop-color="#FB8D48"/>
<stop offset="0.2" stop-color="#ED7136"/>
<stop offset="0.3999" stop-color="#C54E47"/>
<stop offset="0.4" stop-color="#C14F49"/>
<stop offset="0.6" stop-color="#9D3863"/>
<stop offset="0.8" stop-color="#5E1F72"/>
</linearGradient>
<linearGradient id="paint22_linear_1532_316323" x1="119.954" y1="182.086" x2="148.329" y2="207.206" gradientUnits="userSpaceOnUse">
<stop stop-color="#FB8D48"/>
<stop offset="0.2" stop-color="#ED7136"/>
<stop offset="0.3999" stop-color="#C54E47"/>
<stop offset="0.4" stop-color="#C14F49"/>
<stop offset="0.6" stop-color="#9D3863"/>
<stop offset="0.8" stop-color="#5E1F72"/>
</linearGradient>
<linearGradient id="paint23_linear_1532_316323" x1="111.275" y1="185.155" x2="135.586" y2="198.703" gradientUnits="userSpaceOnUse">
<stop stop-color="#FB8D48"/>
<stop offset="0.2" stop-color="#ED7136"/>
<stop offset="0.3999" stop-color="#C54E47"/>
<stop offset="0.4" stop-color="#C14F49"/>
<stop offset="0.6" stop-color="#9D3863"/>
<stop offset="0.8" stop-color="#5E1F72"/>
</linearGradient>
<linearGradient id="paint24_linear_1532_316323" x1="165.011" y1="192.951" x2="179.077" y2="193.283" gradientUnits="userSpaceOnUse">
<stop stop-color="#FB8D48"/>
<stop offset="0.2" stop-color="#ED7136"/>
<stop offset="0.3999" stop-color="#C54E47"/>
<stop offset="0.4" stop-color="#C14F49"/>
<stop offset="0.6" stop-color="#9D3863"/>
<stop offset="0.8" stop-color="#5E1F72"/>
</linearGradient>
<linearGradient id="paint25_linear_1532_316323" x1="175.585" y1="177.989" x2="178.513" y2="178.008" gradientUnits="userSpaceOnUse">
<stop stop-color="#FB8D48"/>
<stop offset="0.2" stop-color="#ED7136"/>
<stop offset="0.3999" stop-color="#C54E47"/>
<stop offset="0.4" stop-color="#C14F49"/>
<stop offset="0.6" stop-color="#9D3863"/>
<stop offset="0.8" stop-color="#5E1F72"/>
</linearGradient>
<linearGradient id="paint26_linear_1532_316323" x1="159.799" y1="125.668" x2="170.061" y2="127.574" gradientUnits="userSpaceOnUse">
<stop stop-color="#FB8D48"/>
<stop offset="0.2" stop-color="#ED7136"/>
<stop offset="0.3999" stop-color="#C54E47"/>
<stop offset="0.4" stop-color="#C14F49"/>
<stop offset="0.6" stop-color="#9D3863"/>
<stop offset="0.8" stop-color="#5E1F72"/>
</linearGradient>
<linearGradient id="paint27_linear_1532_316323" x1="164.259" y1="128.737" x2="170.33" y2="129.389" gradientUnits="userSpaceOnUse">
<stop stop-color="#FB8D48"/>
<stop offset="0.2" stop-color="#ED7136"/>
<stop offset="0.3999" stop-color="#C54E47"/>
<stop offset="0.4" stop-color="#C14F49"/>
<stop offset="0.6" stop-color="#9D3863"/>
<stop offset="0.8" stop-color="#5E1F72"/>
</linearGradient>
<linearGradient id="paint28_linear_1532_316323" x1="119.954" y1="139.938" x2="148.329" y2="165.059" gradientUnits="userSpaceOnUse">
<stop stop-color="#FB8D48"/>
<stop offset="0.2" stop-color="#ED7136"/>
<stop offset="0.3999" stop-color="#C54E47"/>
<stop offset="0.4" stop-color="#C14F49"/>
<stop offset="0.6" stop-color="#9D3863"/>
<stop offset="0.8" stop-color="#5E1F72"/>
</linearGradient>
<linearGradient id="paint29_linear_1532_316323" x1="111.75" y1="143.007" x2="140.325" y2="172.419" gradientUnits="userSpaceOnUse">
<stop stop-color="#FB8D48"/>
<stop offset="0.2" stop-color="#ED7136"/>
<stop offset="0.3999" stop-color="#C54E47"/>
<stop offset="0.4" stop-color="#C14F49"/>
<stop offset="0.6" stop-color="#9D3863"/>
<stop offset="0.8" stop-color="#5E1F72"/>
</linearGradient>
<linearGradient id="paint30_linear_1532_316323" x1="111.156" y1="146.078" x2="132.208" y2="155.326" gradientUnits="userSpaceOnUse">
<stop stop-color="#FB8D48"/>
<stop offset="0.2" stop-color="#ED7136"/>
<stop offset="0.3999" stop-color="#C54E47"/>
<stop offset="0.4" stop-color="#C14F49"/>
<stop offset="0.6" stop-color="#9D3863"/>
<stop offset="0.8" stop-color="#5E1F72"/>
</linearGradient>
<linearGradient id="paint31_linear_1532_316323" x1="121.467" y1="152.966" x2="143.945" y2="154.947" gradientUnits="userSpaceOnUse">
<stop stop-color="#FB8D48"/>
<stop offset="0.2" stop-color="#ED7136"/>
<stop offset="0.3999" stop-color="#C54E47"/>
<stop offset="0.4" stop-color="#C14F49"/>
<stop offset="0.6" stop-color="#9D3863"/>
<stop offset="0.8" stop-color="#5E1F72"/>
</linearGradient>
<linearGradient id="paint32_linear_1532_316323" x1="121.248" y1="165.011" x2="131.512" y2="165.122" gradientUnits="userSpaceOnUse">
<stop stop-color="#FB8D48"/>
<stop offset="0.2" stop-color="#ED7136"/>
<stop offset="0.3999" stop-color="#C54E47"/>
<stop offset="0.4" stop-color="#C14F49"/>
<stop offset="0.6" stop-color="#9D3863"/>
<stop offset="0.8" stop-color="#5E1F72"/>
</linearGradient>
<linearGradient id="paint33_linear_1532_316323" x1="145.609" y1="165.011" x2="157.398" y2="165.157" gradientUnits="userSpaceOnUse">
<stop stop-color="#FB8D48"/>
<stop offset="0.2" stop-color="#ED7136"/>
<stop offset="0.3999" stop-color="#C54E47"/>
<stop offset="0.4" stop-color="#C14F49"/>
<stop offset="0.6" stop-color="#9D3863"/>
<stop offset="0.8" stop-color="#5E1F72"/>
</linearGradient>
<linearGradient id="paint34_linear_1532_316323" x1="145.824" y1="152.966" x2="169.576" y2="155.179" gradientUnits="userSpaceOnUse">
<stop stop-color="#FB8D48"/>
<stop offset="0.2" stop-color="#ED7136"/>
<stop offset="0.3999" stop-color="#C54E47"/>
<stop offset="0.4" stop-color="#C14F49"/>
<stop offset="0.6" stop-color="#9D3863"/>
<stop offset="0.8" stop-color="#5E1F72"/>
</linearGradient>
<linearGradient id="paint35_linear_1532_316323" x1="158.911" y1="165.011" x2="169.729" y2="165.134" gradientUnits="userSpaceOnUse">
<stop stop-color="#FB8D48"/>
<stop offset="0.2" stop-color="#ED7136"/>
<stop offset="0.3999" stop-color="#C54E47"/>
<stop offset="0.4" stop-color="#C14F49"/>
<stop offset="0.6" stop-color="#9D3863"/>
<stop offset="0.8" stop-color="#5E1F72"/>
</linearGradient>
<linearGradient id="paint36_linear_1532_316323" x1="111.541" y1="165.011" x2="119.73" y2="165.082" gradientUnits="userSpaceOnUse">
<stop stop-color="#FB8D48"/>
<stop offset="0.2" stop-color="#ED7136"/>
<stop offset="0.3999" stop-color="#C54E47"/>
<stop offset="0.4" stop-color="#C14F49"/>
<stop offset="0.6" stop-color="#9D3863"/>
<stop offset="0.8" stop-color="#5E1F72"/>
</linearGradient>
<linearGradient id="paint37_linear_1532_316323" x1="111.541" y1="152.966" x2="119.723" y2="153.227" gradientUnits="userSpaceOnUse">
<stop stop-color="#FB8D48"/>
<stop offset="0.2" stop-color="#ED7136"/>
<stop offset="0.3999" stop-color="#C54E47"/>
<stop offset="0.4" stop-color="#C14F49"/>
<stop offset="0.6" stop-color="#9D3863"/>
<stop offset="0.8" stop-color="#5E1F72"/>
</linearGradient>
<linearGradient id="paint38_linear_1532_316323" x1="133.038" y1="165.011" x2="144.075" y2="165.139" gradientUnits="userSpaceOnUse">
<stop stop-color="#FB8D48"/>
<stop offset="0.2" stop-color="#ED7136"/>
<stop offset="0.3999" stop-color="#C54E47"/>
<stop offset="0.4" stop-color="#C14F49"/>
<stop offset="0.6" stop-color="#9D3863"/>
<stop offset="0.8" stop-color="#5E1F72"/>
</linearGradient>
<linearGradient id="paint39_linear_1532_316323" x1="143.658" y1="119.917" x2="215.512" y2="121.127" gradientUnits="userSpaceOnUse">
<stop stop-color="#FB8D48"/>
<stop offset="0.2" stop-color="#ED7136"/>
<stop offset="0.3999" stop-color="#C54E47"/>
<stop offset="0.4" stop-color="#C14F49"/>
<stop offset="0.6" stop-color="#9D3863"/>
<stop offset="0.8" stop-color="#5E1F72"/>
</linearGradient>
<linearGradient id="paint40_linear_1532_316323" x1="169.383" y1="93.7531" x2="183.493" y2="97.4778" gradientUnits="userSpaceOnUse">
<stop stop-color="#FB8D48"/>
<stop offset="0.2" stop-color="#ED7136"/>
<stop offset="0.3999" stop-color="#C54E47"/>
<stop offset="0.4" stop-color="#C14F49"/>
<stop offset="0.6" stop-color="#9D3863"/>
<stop offset="0.8" stop-color="#5E1F72"/>
</linearGradient>
<linearGradient id="paint41_linear_1532_316323" x1="163.86" y1="96.822" x2="185.61" y2="106.858" gradientUnits="userSpaceOnUse">
<stop stop-color="#FB8D48"/>
<stop offset="0.2" stop-color="#ED7136"/>
<stop offset="0.3999" stop-color="#C54E47"/>
<stop offset="0.4" stop-color="#C14F49"/>
<stop offset="0.6" stop-color="#9D3863"/>
<stop offset="0.8" stop-color="#5E1F72"/>
</linearGradient>
<linearGradient id="paint42_linear_1532_316323" x1="169.189" y1="99.8937" x2="183.621" y2="103.804" gradientUnits="userSpaceOnUse">
<stop stop-color="#FB8D48"/>
<stop offset="0.2" stop-color="#ED7136"/>
<stop offset="0.3999" stop-color="#C54E47"/>
<stop offset="0.4" stop-color="#C14F49"/>
<stop offset="0.6" stop-color="#9D3863"/>
<stop offset="0.8" stop-color="#5E1F72"/>
</linearGradient>
<linearGradient id="paint43_linear_1532_316323" x1="156.18" y1="108.023" x2="184.555" y2="133.143" gradientUnits="userSpaceOnUse">
<stop stop-color="#FB8D48"/>
<stop offset="0.2" stop-color="#ED7136"/>
<stop offset="0.3999" stop-color="#C54E47"/>
<stop offset="0.4" stop-color="#C14F49"/>
<stop offset="0.6" stop-color="#9D3863"/>
<stop offset="0.8" stop-color="#5E1F72"/>
</linearGradient>
<linearGradient id="paint44_linear_1532_316323" x1="147.831" y1="120.304" x2="176.206" y2="145.424" gradientUnits="userSpaceOnUse">
<stop stop-color="#FB8D48"/>
<stop offset="0.2" stop-color="#ED7136"/>
<stop offset="0.3999" stop-color="#C54E47"/>
<stop offset="0.4" stop-color="#C14F49"/>
<stop offset="0.6" stop-color="#9D3863"/>
<stop offset="0.8" stop-color="#5E1F72"/>
</linearGradient>
<linearGradient id="paint45_linear_1532_316323" x1="147.976" y1="111.091" x2="176.55" y2="140.504" gradientUnits="userSpaceOnUse">
<stop stop-color="#FB8D48"/>
<stop offset="0.2" stop-color="#ED7136"/>
<stop offset="0.3999" stop-color="#C54E47"/>
<stop offset="0.4" stop-color="#C14F49"/>
<stop offset="0.6" stop-color="#9D3863"/>
<stop offset="0.8" stop-color="#5E1F72"/>
</linearGradient>
<linearGradient id="paint46_linear_1532_316323" x1="147.976" y1="114.163" x2="176.55" y2="143.575" gradientUnits="userSpaceOnUse">
<stop stop-color="#FB8D48"/>
<stop offset="0.2" stop-color="#ED7136"/>
<stop offset="0.3999" stop-color="#C54E47"/>
<stop offset="0.4" stop-color="#C14F49"/>
<stop offset="0.6" stop-color="#9D3863"/>
<stop offset="0.8" stop-color="#5E1F72"/>
</linearGradient>
<linearGradient id="paint47_linear_1532_316323" x1="147.976" y1="117.232" x2="176.55" y2="146.644" gradientUnits="userSpaceOnUse">
<stop stop-color="#FB8D48"/>
<stop offset="0.2" stop-color="#ED7136"/>
<stop offset="0.3999" stop-color="#C54E47"/>
<stop offset="0.4" stop-color="#C14F49"/>
<stop offset="0.6" stop-color="#9D3863"/>
<stop offset="0.8" stop-color="#5E1F72"/>
</linearGradient>
<linearGradient id="paint48_linear_1532_316323" x1="156.18" y1="138.932" x2="184.555" y2="164.053" gradientUnits="userSpaceOnUse">
<stop stop-color="#FB8D48"/>
<stop offset="0.2" stop-color="#ED7136"/>
<stop offset="0.3999" stop-color="#C54E47"/>
<stop offset="0.4" stop-color="#C14F49"/>
<stop offset="0.6" stop-color="#9D3863"/>
<stop offset="0.8" stop-color="#5E1F72"/>
</linearGradient>
<linearGradient id="paint49_linear_1532_316323" x1="147.831" y1="151.213" x2="176.206" y2="176.334" gradientUnits="userSpaceOnUse">
<stop stop-color="#FB8D48"/>
<stop offset="0.2" stop-color="#ED7136"/>
<stop offset="0.3999" stop-color="#C54E47"/>
<stop offset="0.4" stop-color="#C14F49"/>
<stop offset="0.6" stop-color="#9D3863"/>
<stop offset="0.8" stop-color="#5E1F72"/>
</linearGradient>
<linearGradient id="paint50_linear_1532_316323" x1="147.976" y1="142.004" x2="176.55" y2="171.416" gradientUnits="userSpaceOnUse">
<stop stop-color="#FB8D48"/>
<stop offset="0.2" stop-color="#ED7136"/>
<stop offset="0.3999" stop-color="#C54E47"/>
<stop offset="0.4" stop-color="#C14F49"/>
<stop offset="0.6" stop-color="#9D3863"/>
<stop offset="0.8" stop-color="#5E1F72"/>
</linearGradient>
<linearGradient id="paint51_linear_1532_316323" x1="147.976" y1="145.073" x2="176.55" y2="174.485" gradientUnits="userSpaceOnUse">
<stop stop-color="#FB8D48"/>
<stop offset="0.2" stop-color="#ED7136"/>
<stop offset="0.3999" stop-color="#C54E47"/>
<stop offset="0.4" stop-color="#C14F49"/>
<stop offset="0.6" stop-color="#9D3863"/>
<stop offset="0.8" stop-color="#5E1F72"/>
</linearGradient>
<linearGradient id="paint52_linear_1532_316323" x1="147.976" y1="148.142" x2="176.55" y2="177.554" gradientUnits="userSpaceOnUse">
<stop stop-color="#FB8D48"/>
<stop offset="0.2" stop-color="#ED7136"/>
<stop offset="0.3999" stop-color="#C54E47"/>
<stop offset="0.4" stop-color="#C14F49"/>
<stop offset="0.6" stop-color="#9D3863"/>
<stop offset="0.8" stop-color="#5E1F72"/>
</linearGradient>
<linearGradient id="paint53_linear_1532_316323" x1="199.042" y1="96.453" x2="205.942" y2="96.5753" gradientUnits="userSpaceOnUse">
<stop stop-color="#FB8D48"/>
<stop offset="0.2" stop-color="#ED7136"/>
<stop offset="0.3999" stop-color="#C54E47"/>
<stop offset="0.4" stop-color="#C14F49"/>
<stop offset="0.6" stop-color="#9D3863"/>
<stop offset="0.8" stop-color="#5E1F72"/>
</linearGradient>
<linearGradient id="paint54_linear_1532_316323" x1="147.754" y1="95.9016" x2="155.402" y2="96.0821" gradientUnits="userSpaceOnUse">
<stop stop-color="#FB8D48"/>
<stop offset="0.2" stop-color="#ED7136"/>
<stop offset="0.3999" stop-color="#C54E47"/>
<stop offset="0.4" stop-color="#C14F49"/>
<stop offset="0.6" stop-color="#9D3863"/>
<stop offset="0.8" stop-color="#5E1F72"/>
</linearGradient>
<linearGradient id="paint55_linear_1532_316323" x1="147.43" y1="124.866" x2="149.041" y2="124.904" gradientUnits="userSpaceOnUse">
<stop stop-color="#FB8D48"/>
<stop offset="0.2" stop-color="#ED7136"/>
<stop offset="0.3999" stop-color="#C54E47"/>
<stop offset="0.4" stop-color="#C14F49"/>
<stop offset="0.6" stop-color="#9D3863"/>
<stop offset="0.8" stop-color="#5E1F72"/>
</linearGradient>
<linearGradient id="paint56_linear_1532_316323" x1="147.43" y1="127.935" x2="149.041" y2="127.973" gradientUnits="userSpaceOnUse">
<stop stop-color="#FB8D48"/>
<stop offset="0.2" stop-color="#ED7136"/>
<stop offset="0.3999" stop-color="#C54E47"/>
<stop offset="0.4" stop-color="#C14F49"/>
<stop offset="0.6" stop-color="#9D3863"/>
<stop offset="0.8" stop-color="#5E1F72"/>
</linearGradient>
<linearGradient id="paint57_linear_1532_316323" x1="147.43" y1="131.007" x2="149.041" y2="131.045" gradientUnits="userSpaceOnUse">
<stop stop-color="#FB8D48"/>
<stop offset="0.2" stop-color="#ED7136"/>
<stop offset="0.3999" stop-color="#C54E47"/>
<stop offset="0.4" stop-color="#C14F49"/>
<stop offset="0.6" stop-color="#9D3863"/>
<stop offset="0.8" stop-color="#5E1F72"/>
</linearGradient>
<linearGradient id="paint58_linear_1532_316323" x1="147.43" y1="134.076" x2="149.041" y2="134.114" gradientUnits="userSpaceOnUse">
<stop stop-color="#FB8D48"/>
<stop offset="0.2" stop-color="#ED7136"/>
<stop offset="0.3999" stop-color="#C54E47"/>
<stop offset="0.4" stop-color="#C14F49"/>
<stop offset="0.6" stop-color="#9D3863"/>
<stop offset="0.8" stop-color="#5E1F72"/>
</linearGradient>
<linearGradient id="paint59_linear_1532_316323" x1="150.539" y1="124.881" x2="160.363" y2="126.622" gradientUnits="userSpaceOnUse">
<stop stop-color="#FB8D48"/>
<stop offset="0.2" stop-color="#ED7136"/>
<stop offset="0.3999" stop-color="#C54E47"/>
<stop offset="0.4" stop-color="#C14F49"/>
<stop offset="0.6" stop-color="#9D3863"/>
<stop offset="0.8" stop-color="#5E1F72"/>
</linearGradient>
<linearGradient id="paint60_linear_1532_316323" x1="150.684" y1="127.953" x2="167.333" y2="133.302" gradientUnits="userSpaceOnUse">
<stop stop-color="#FB8D48"/>
<stop offset="0.2" stop-color="#ED7136"/>
<stop offset="0.3999" stop-color="#C54E47"/>
<stop offset="0.4" stop-color="#C14F49"/>
<stop offset="0.6" stop-color="#9D3863"/>
<stop offset="0.8" stop-color="#5E1F72"/>
</linearGradient>
<linearGradient id="paint61_linear_1532_316323" x1="150.506" y1="131.022" x2="158.585" y2="132.187" gradientUnits="userSpaceOnUse">
<stop stop-color="#FB8D48"/>
<stop offset="0.2" stop-color="#ED7136"/>
<stop offset="0.3999" stop-color="#C54E47"/>
<stop offset="0.4" stop-color="#C14F49"/>
<stop offset="0.6" stop-color="#9D3863"/>
<stop offset="0.8" stop-color="#5E1F72"/>
</linearGradient>
<linearGradient id="paint62_linear_1532_316323" x1="150.637" y1="134.093" x2="165.211" y2="138.088" gradientUnits="userSpaceOnUse">
<stop stop-color="#FB8D48"/>
<stop offset="0.2" stop-color="#ED7136"/>
<stop offset="0.3999" stop-color="#C54E47"/>
<stop offset="0.4" stop-color="#C14F49"/>
<stop offset="0.6" stop-color="#9D3863"/>
<stop offset="0.8" stop-color="#5E1F72"/>
</linearGradient>
<linearGradient id="paint63_linear_1532_316323" x1="201.236" y1="161.035" x2="215.302" y2="161.367" gradientUnits="userSpaceOnUse">
<stop stop-color="#FB8D48"/>
<stop offset="0.2" stop-color="#ED7136"/>
<stop offset="0.3999" stop-color="#C54E47"/>
<stop offset="0.4" stop-color="#C14F49"/>
<stop offset="0.6" stop-color="#9D3863"/>
<stop offset="0.8" stop-color="#5E1F72"/>
</linearGradient>
<linearGradient id="paint64_linear_1532_316323" x1="211.807" y1="96.056" x2="214.735" y2="96.0741" gradientUnits="userSpaceOnUse">
<stop stop-color="#FB8D48"/>
<stop offset="0.2" stop-color="#ED7136"/>
<stop offset="0.3999" stop-color="#C54E47"/>
<stop offset="0.4" stop-color="#C14F49"/>
<stop offset="0.6" stop-color="#9D3863"/>
<stop offset="0.8" stop-color="#5E1F72"/>
</linearGradient>
<linearGradient id="paint65_linear_1532_316323" x1="54.4099" y1="130.559" x2="84.79" y2="131.153" gradientUnits="userSpaceOnUse">
<stop stop-color="#FB8D48"/>
<stop offset="0.2" stop-color="#ED7136"/>
<stop offset="0.3999" stop-color="#C54E47"/>
<stop offset="0.4" stop-color="#C14F49"/>
<stop offset="0.6" stop-color="#9D3863"/>
<stop offset="0.8" stop-color="#5E1F72"/>
</linearGradient>
<linearGradient id="paint66_linear_1532_316323" x1="98.9224" y1="204.496" x2="86.2479" y2="189.134" gradientUnits="userSpaceOnUse">
<stop stop-color="#FB8D48"/>
<stop offset="0.2" stop-color="#ED7136"/>
<stop offset="0.3999" stop-color="#C54E47"/>
<stop offset="0.4" stop-color="#C14F49"/>
<stop offset="0.6" stop-color="#9D3863"/>
<stop offset="0.8" stop-color="#5E1F72"/>
</linearGradient>
<linearGradient id="paint67_linear_1532_316323" x1="95.4544" y1="203.253" x2="101.452" y2="203.408" gradientUnits="userSpaceOnUse">
<stop stop-color="#FB8D48"/>
<stop offset="0.2" stop-color="#ED7136"/>
<stop offset="0.3999" stop-color="#C54E47"/>
<stop offset="0.4" stop-color="#C14F49"/>
<stop offset="0.6" stop-color="#9D3863"/>
<stop offset="0.8" stop-color="#5E1F72"/>
</linearGradient>
<linearGradient id="paint68_linear_1532_316323" x1="129.82" y1="228.691" x2="131.828" y2="228.729" gradientUnits="userSpaceOnUse">
<stop stop-color="#FB8D48"/>
<stop offset="0.2" stop-color="#ED7136"/>
<stop offset="0.3999" stop-color="#C54E47"/>
<stop offset="0.4" stop-color="#C14F49"/>
<stop offset="0.6" stop-color="#9D3863"/>
<stop offset="0.8" stop-color="#5E1F72"/>
</linearGradient>
<linearGradient id="paint69_linear_1532_316323" x1="128.99" y1="228.634" x2="130.198" y2="228.647" gradientUnits="userSpaceOnUse">
<stop stop-color="#FB8D48"/>
<stop offset="0.2" stop-color="#ED7136"/>
<stop offset="0.3999" stop-color="#C54E47"/>
<stop offset="0.4" stop-color="#C14F49"/>
<stop offset="0.6" stop-color="#9D3863"/>
<stop offset="0.8" stop-color="#5E1F72"/>
</linearGradient>
<linearGradient id="paint70_linear_1532_316323" x1="94.2838" y1="233.489" x2="95.48" y2="233.501" gradientUnits="userSpaceOnUse">
<stop stop-color="#FB8D48"/>
<stop offset="0.2" stop-color="#ED7136"/>
<stop offset="0.3999" stop-color="#C54E47"/>
<stop offset="0.4" stop-color="#C14F49"/>
<stop offset="0.6" stop-color="#9D3863"/>
<stop offset="0.8" stop-color="#5E1F72"/>
</linearGradient>
<linearGradient id="paint71_linear_1532_316323" x1="95.0945" y1="233.237" x2="96.9625" y2="233.274" gradientUnits="userSpaceOnUse">
<stop stop-color="#FB8D48"/>
<stop offset="0.2" stop-color="#ED7136"/>
<stop offset="0.3999" stop-color="#C54E47"/>
<stop offset="0.4" stop-color="#C14F49"/>
<stop offset="0.6" stop-color="#9D3863"/>
<stop offset="0.8" stop-color="#5E1F72"/>
</linearGradient>
<linearGradient id="paint72_linear_1532_316323" x1="100.427" y1="227.622" x2="104.605" y2="227.673" gradientUnits="userSpaceOnUse">
<stop stop-color="#FB8D48"/>
<stop offset="0.2" stop-color="#ED7136"/>
<stop offset="0.3999" stop-color="#C54E47"/>
<stop offset="0.4" stop-color="#C14F49"/>
<stop offset="0.6" stop-color="#9D3863"/>
<stop offset="0.8" stop-color="#5E1F72"/>
</linearGradient>
<linearGradient id="paint73_linear_1532_316323" x1="118.543" y1="229.689" x2="122.99" y2="229.749" gradientUnits="userSpaceOnUse">
<stop stop-color="#FB8D48"/>
<stop offset="0.2" stop-color="#ED7136"/>
<stop offset="0.3999" stop-color="#C54E47"/>
<stop offset="0.4" stop-color="#C14F49"/>
<stop offset="0.6" stop-color="#9D3863"/>
<stop offset="0.8" stop-color="#5E1F72"/>
</linearGradient>
<linearGradient id="paint74_linear_1532_316323" x1="78.6969" y1="213.691" x2="77.5897" y2="177.425" gradientUnits="userSpaceOnUse">
<stop stop-color="#FB8D48"/>
<stop offset="0.2" stop-color="#ED7136"/>
<stop offset="0.3999" stop-color="#C54E47"/>
<stop offset="0.4" stop-color="#C14F49"/>
<stop offset="0.6" stop-color="#9D3863"/>
<stop offset="0.8" stop-color="#5E1F72"/>
</linearGradient>
<linearGradient id="paint75_linear_1532_316323" x1="75.3935" y1="180.376" x2="90.3697" y2="181.07" gradientUnits="userSpaceOnUse">
<stop stop-color="#FB8D48"/>
<stop offset="0.2" stop-color="#ED7136"/>
<stop offset="0.3999" stop-color="#C54E47"/>
<stop offset="0.4" stop-color="#C14F49"/>
<stop offset="0.6" stop-color="#9D3863"/>
<stop offset="0.8" stop-color="#5E1F72"/>
</linearGradient>
<linearGradient id="paint76_linear_1532_316323" x1="82.7367" y1="177.634" x2="82.7367" y2="184.003" gradientUnits="userSpaceOnUse">
<stop offset="0.09375" stop-color="#FFBE55"/>
<stop offset="1" stop-color="#E86B31"/>
</linearGradient>
<linearGradient id="paint77_linear_1532_316323" x1="77.2254" y1="207.438" x2="62.1705" y2="189.126" gradientUnits="userSpaceOnUse">
<stop stop-color="#FB8D48"/>
<stop offset="0.2" stop-color="#ED7136"/>
<stop offset="0.3999" stop-color="#C54E47"/>
<stop offset="0.4" stop-color="#C14F49"/>
<stop offset="0.6" stop-color="#9D3863"/>
<stop offset="0.8" stop-color="#5E1F72"/>
</linearGradient>
<linearGradient id="paint78_linear_1532_316323" x1="71.6494" y1="203.246" x2="79.3437" y2="203.431" gradientUnits="userSpaceOnUse">
<stop stop-color="#FB8D48"/>
<stop offset="0.2" stop-color="#ED7136"/>
<stop offset="0.3999" stop-color="#C54E47"/>
<stop offset="0.4" stop-color="#C14F49"/>
<stop offset="0.6" stop-color="#9D3863"/>
<stop offset="0.8" stop-color="#5E1F72"/>
</linearGradient>
</defs>
</svg>
