<svg width="35" height="36" viewBox="0 0 35 36" fill="none" xmlns="http://www.w3.org/2000/svg">
<path d="M26.7257 33.4212C25.3913 33.4212 23.5169 32.9386 20.7101 31.3705C17.2969 29.4564 14.6569 27.6893 11.2621 24.3035C7.98909 21.0325 6.39631 18.9147 4.16712 14.8583C1.64876 10.2782 2.07805 7.87739 2.55794 6.85132C3.12942 5.62495 3.97297 4.89146 5.06331 4.16343C5.68261 3.75767 6.33798 3.40985 7.02112 3.12437C7.08948 3.09497 7.15305 3.06694 7.20979 3.04165C7.54817 2.88921 8.06087 2.65884 8.71028 2.90493C9.14368 3.06763 9.53059 3.40054 10.1363 3.99868C11.3783 5.22368 13.0757 7.9519 13.7019 9.29175C14.1223 10.1948 14.4005 10.7909 14.4012 11.4594C14.4012 12.2421 14.0074 12.8458 13.5296 13.4972C13.4401 13.6196 13.3512 13.7365 13.2651 13.85C12.7448 14.5335 12.6307 14.7311 12.7059 15.0838C12.8583 15.7927 13.9951 17.903 15.8634 19.7671C17.7317 21.6313 19.7811 22.6963 20.4927 22.8481C20.8605 22.9267 21.0621 22.8078 21.7676 22.2691C21.8688 22.1918 21.9727 22.1119 22.0814 22.0319C22.8101 21.4898 23.3857 21.1063 24.1499 21.1063H24.154C24.8192 21.1063 25.3886 21.3948 26.332 21.8706C27.5624 22.4913 30.3727 24.1667 31.6052 25.4102C32.2047 26.0145 32.539 26.4 32.7024 26.8328C32.9485 27.4842 32.7167 27.9949 32.5656 28.3367C32.5404 28.3934 32.5123 28.4556 32.4829 28.5247C32.1952 29.2066 31.8453 29.8606 31.4377 30.4784C30.7111 31.5653 29.9748 32.4068 28.7457 32.979C28.1146 33.2775 27.4239 33.4287 26.7257 33.4212Z" fill="#FB8D48"/>
</svg>
