<svg width="568" height="568" viewBox="0 0 568 568" fill="none" xmlns="http://www.w3.org/2000/svg">
<path d="M489.788 402.609C488.391 393.023 491.964 356.493 500.096 342.596C508.229 328.698 521.733 314.099 533.398 316.28C544.261 318.311 545.12 332.049 533.878 342.876C522.635 353.702 505.412 367.756 502.16 384.111L493.3 411.954L489.788 402.609Z" fill="#ED7136"/>
<path opacity="0.1" d="M489.788 402.609C488.391 393.023 491.964 356.493 500.096 342.596C508.229 328.698 521.733 314.099 533.398 316.28C544.261 318.311 545.12 332.049 533.878 342.876C522.635 353.702 505.412 367.756 502.16 384.111L493.3 411.954L489.788 402.609Z" fill="black"/>
<path d="M492.39 399.602C492.689 399.523 492.911 399.252 492.916 398.929C493.418 365.231 514.963 334.022 529.664 325.329C530 325.131 530.112 324.696 529.913 324.36C529.716 324.025 529.287 323.905 528.943 324.112C513.962 332.969 492.009 364.7 491.5 398.908C491.493 399.299 491.806 399.619 492.196 399.626C492.265 399.627 492.328 399.619 492.39 399.602Z" fill="white"/>
<path d="M497.661 417.189C498.415 411.576 502.341 401.889 511.226 392.302C522.106 380.561 540.177 374.105 542.691 367.28C545.71 359.081 538.819 353.484 527.08 357.215C511.294 362.233 493.687 381.939 493.912 407.285L497.661 417.189Z" fill="#ED7136"/>
<path d="M494.494 411.875C494.756 411.815 494.972 411.607 495.03 411.324C500.976 381.826 524.79 365.938 534.509 363.207C534.885 363.101 535.105 362.711 535 362.334C534.895 361.957 534.519 361.736 534.128 361.844C523.38 364.863 499.713 380.935 493.643 411.045C493.566 411.428 493.815 411.802 494.197 411.879C494.298 411.9 494.4 411.897 494.494 411.875Z" fill="white"/>
<path d="M166.213 84.5463L157.56 89.5425C157.603 89.1562 157.632 88.7723 157.632 88.3974V85.8902C157.632 81.4292 154.5 79.6206 150.637 81.8518C149.072 82.7549 147.633 84.1862 146.468 85.8607C145.835 80.2511 141.434 78.162 136.088 81.2474C130.308 84.585 125.623 92.6994 125.623 99.3734V103.123C125.623 104.852 125.944 106.308 126.509 107.469L119.322 111.618C117.179 112.855 115.441 115.865 115.441 118.339C115.441 120.813 117.178 121.816 119.322 120.579L166.212 93.5071C168.355 92.27 170.092 89.2607 170.092 86.7865C170.093 84.3112 168.356 83.3081 166.213 84.5463Z" fill="#E6E6E6"/>
<path d="M56.9563 95.708L61.7298 92.0319V81.5171C61.7298 73.1812 68.3788 63.5058 75.5981 59.3379C82.8174 55.1699 88.6689 58.5495 88.6689 66.8843V68.4111C90.307 65.8665 92.4222 63.6774 94.7351 62.3414C99.9301 59.3424 104.141 61.7734 104.141 67.7715V68.4656L110.796 64.6237C114.218 62.6482 116.991 64.2499 116.991 68.1998C116.991 72.1497 114.218 76.9538 110.796 78.9282L56.9563 110.013C53.5358 111.987 50.7617 110.386 50.7617 106.436C50.7617 102.487 53.5347 97.6824 56.9563 95.708Z" fill="#E6E6E6"/>
<path d="M70.6836 399.293C70.6836 402.434 73.0351 406.337 75.9342 408.01L223.037 492.94C225.936 494.614 230.638 494.614 233.537 492.94L451.548 367.084C454.447 365.409 456.799 361.506 456.799 358.366C456.799 355.225 454.448 351.322 451.549 349.648L304.446 264.719C301.547 263.044 296.845 263.044 293.946 264.719L75.9331 390.575C73.034 392.248 70.6836 396.153 70.6836 399.293Z" fill="#EDEDED"/>
<path d="M228.291 482.832V494.193C226.387 494.193 224.484 493.781 223.042 492.945L75.933 408.012C73.0351 406.338 70.6836 402.434 70.6836 399.294C70.6836 396.347 72.7568 392.735 75.4003 390.916C73.0476 392.602 73.2305 395.075 75.9342 396.639L223.043 481.572C224.483 482.408 226.387 482.832 228.291 482.832Z" fill="#EDEDED"/>
<path d="M65.7577 390.763C63.0381 389.193 60.8332 385.206 60.8332 381.858L60.832 206.312C60.832 202.964 63.1824 198.893 66.0815 197.218L284.094 71.3618C286.993 69.6873 291.549 69.6032 294.269 71.1743C296.989 72.7443 299.194 76.7316 299.194 80.0806V255.627C299.194 258.974 296.844 263.046 293.945 264.72L75.9329 390.575C73.0338 392.249 68.4784 392.334 65.7577 390.763Z" fill="#EDEDED"/>
<path d="M75.312 390.893C72.4141 392.251 68.2915 392.227 65.7582 390.759C63.042 389.195 60.8359 385.206 60.8359 381.86V206.308C60.8359 204.635 61.4176 202.78 62.3752 201.143L72.2209 206.817V206.828C71.2758 208.478 70.6817 210.32 70.6817 211.994V387.547C70.6805 390.65 72.706 392.044 75.312 390.893Z" fill="#EDEDED"/>
<path d="M70.6836 211.998V387.544C70.6836 390.892 73.034 392.249 75.933 390.575L293.945 264.719C296.844 263.044 299.195 258.973 299.195 255.625V80.0801C299.195 76.7323 296.844 75.3748 293.945 77.0493L75.9342 202.904C73.0351 204.579 70.6836 208.65 70.6836 211.998Z" fill="#EDEDED"/>
<path d="M75.9321 396.638L223.036 481.567C225.935 483.242 230.637 483.242 233.536 481.567L451.548 355.711C454.447 354.037 454.447 351.323 451.548 349.648L304.445 264.719C301.546 263.044 296.844 263.044 293.945 264.719L75.9321 390.575C73.033 392.248 73.033 394.963 75.9321 396.638Z" fill="#EDEDED"/>
<path d="M78.7556 209.645L289.547 87.9867C291.288 86.9825 292.697 87.797 292.697 89.8054V251.771C292.697 253.779 291.288 256.223 289.547 257.227L78.7556 378.884C77.0164 379.889 75.6055 379.074 75.6055 377.066V215.102C75.6055 213.093 77.0152 210.65 78.7556 209.645Z" fill="#ED7136"/>
<path d="M78.7556 209.645L289.547 87.9867C291.288 86.9825 292.697 87.797 292.697 89.8054V251.771C292.697 253.779 291.288 256.223 289.547 257.227L78.7556 378.884C77.0164 379.889 75.6055 379.074 75.6055 377.066V215.102C75.6055 213.093 77.0152 210.65 78.7556 209.645Z" fill="#263238" stroke="url(#paint0_linear_4372_27813)" stroke-width="0.5" stroke-miterlimit="10"/>
<path d="M93.0095 392.093L296.573 274.579C298.022 273.742 300.373 273.742 301.823 274.579L311.379 280.096C312.829 280.933 312.829 282.289 311.379 283.126L107.788 400.623C106.338 401.46 103.987 401.459 102.537 400.623L93.0095 395.123C91.5599 394.286 91.5588 392.93 93.0095 392.093Z" fill="#263238" stroke="url(#paint1_linear_4372_27813)" stroke-width="0.5" stroke-miterlimit="10"/>
<path d="M117.637 406.309L321.197 288.794C322.647 287.957 324.997 287.957 326.447 288.794L385.224 322.73C386.673 323.567 386.673 324.923 385.224 325.761L181.876 443.126C180.427 443.964 178.074 443.967 176.621 443.134L117.641 409.332C116.189 408.499 116.187 407.146 117.637 406.309Z" fill="#263238" stroke="url(#paint2_linear_4372_27813)" stroke-width="0.5" stroke-miterlimit="10"/>
<path d="M296.52 338.761L302.929 335.061C303.202 334.903 303.207 334.651 302.94 334.496L296.176 330.59C295.909 330.436 295.472 330.439 295.2 330.596L288.791 334.296C288.518 334.453 288.515 334.705 288.782 334.86L295.545 338.765C295.811 338.92 296.247 338.917 296.52 338.761ZM285.536 325.018L279.127 328.718C278.855 328.876 278.851 329.128 279.118 329.282L285.881 333.187C286.148 333.342 286.586 333.338 286.857 333.182L293.267 329.481C293.539 329.324 293.544 329.07 293.277 328.917L286.512 325.012C286.245 324.858 285.808 324.862 285.536 325.018ZM264.83 336.972L253.984 343.234C253.711 343.391 253.708 343.644 253.974 343.798L260.737 347.703C261.004 347.858 261.442 347.854 261.713 347.697L272.558 341.436C272.831 341.279 272.836 341.026 272.569 340.872L265.805 336.967C265.539 336.813 265.102 336.816 264.83 336.972ZM276.169 330.426L269.759 334.127C269.488 334.284 269.483 334.537 269.75 334.69L276.514 338.596C276.781 338.75 277.218 338.747 277.49 338.59L283.899 334.89C284.172 334.732 284.176 334.48 283.909 334.327L277.145 330.422C276.879 330.266 276.441 330.269 276.169 330.426ZM251.026 344.943L244.616 348.643C244.344 348.801 244.339 349.053 244.606 349.206L251.371 353.112C251.638 353.266 252.074 353.263 252.347 353.106L258.756 349.405C259.028 349.248 259.032 348.996 258.765 348.841L252.001 344.936C251.734 344.783 251.298 344.786 251.026 344.943ZM241.658 350.351L235.249 354.051C234.976 354.208 234.973 354.461 235.239 354.615L242.002 358.519C242.269 358.674 242.707 358.671 242.978 358.513L249.387 354.813C249.66 354.655 249.665 354.403 249.397 354.25L242.633 350.345C242.368 350.191 241.931 350.193 241.658 350.351ZM268.221 366.256L274.631 362.555C274.902 362.398 274.907 362.145 274.64 361.992L267.876 358.086C267.609 357.932 267.172 357.935 266.9 358.092L260.491 361.792C260.218 361.95 260.214 362.202 260.481 362.355L267.245 366.261C267.512 366.416 267.95 366.413 268.221 366.256ZM258.855 371.664L265.264 367.964C265.537 367.806 265.54 367.555 265.273 367.4L258.51 363.496C258.243 363.341 257.805 363.344 257.534 363.502L251.124 367.201C250.852 367.358 250.848 367.612 251.114 367.765L257.878 371.67C258.146 371.824 258.582 371.822 258.855 371.664ZM249.487 377.072L255.897 373.371C256.169 373.214 256.173 372.962 255.906 372.808L249.142 368.902C248.875 368.748 248.438 368.751 248.165 368.908L241.756 372.608C241.483 372.766 241.48 373.018 241.747 373.171L248.51 377.077C248.779 377.232 249.215 377.229 249.487 377.072ZM240.12 382.481L246.529 378.781C246.802 378.624 246.805 378.371 246.538 378.217L239.775 374.313C239.508 374.159 239.07 374.161 238.799 374.318L232.39 378.018C232.117 378.175 232.112 378.429 232.379 378.582L239.143 382.486C239.411 382.64 239.848 382.637 240.12 382.481ZM287.154 344.168L293.562 340.468C293.835 340.311 293.838 340.058 293.572 339.905L286.808 335.999C286.541 335.844 286.105 335.848 285.833 336.005L279.423 339.705C279.151 339.862 279.146 340.115 279.413 340.269L286.177 344.175C286.444 344.328 286.88 344.326 287.154 344.168ZM277.589 360.848L291.885 352.594C292.158 352.436 292.161 352.184 291.894 352.03L275.468 342.546C275.201 342.391 274.763 342.395 274.492 342.551L267.097 346.82C266.824 346.978 266.819 347.231 267.086 347.384L275.784 352.405C276.051 352.558 276.046 352.812 275.773 352.969L269.858 356.384C269.586 356.541 269.581 356.795 269.848 356.948L276.612 360.853C276.879 361.008 277.317 361.005 277.589 360.848ZM232.292 355.759L225.883 359.46C225.611 359.616 225.606 359.87 225.873 360.023L232.637 363.929C232.904 364.083 233.341 364.08 233.613 363.923L240.022 360.223C240.295 360.065 240.298 359.813 240.031 359.66L233.268 355.754C233.001 355.6 232.564 355.602 232.292 355.759ZM222.924 361.167L216.515 364.867C216.242 365.025 216.238 365.277 216.506 365.43L223.27 369.336C223.537 369.491 223.974 369.487 224.246 369.33L230.655 365.63C230.927 365.474 230.931 365.22 230.665 365.067L223.9 361.161C223.633 361.007 223.197 361.01 222.924 361.167ZM173.574 420.344C173.841 420.497 174.277 420.495 174.55 420.338L180.959 416.638C181.231 416.481 181.235 416.228 180.968 416.074L174.205 412.17C173.938 412.017 173.5 412.019 173.229 412.176L166.82 415.876C166.547 416.034 166.542 416.286 166.809 416.439L173.574 420.344ZM147.988 404.432L141.579 408.132C141.306 408.288 141.302 408.542 141.57 408.695L148.333 412.599C148.6 412.754 149.038 412.752 149.309 412.594L155.719 408.894C155.991 408.737 155.995 408.484 155.728 408.33L148.964 404.426C148.697 404.273 148.261 404.274 147.988 404.432ZM161.446 416.187C161.713 416.341 162.151 416.338 162.422 416.181L168.831 412.48C169.104 412.323 169.107 412.07 168.841 411.917L162.077 408.011C161.81 407.857 161.372 407.86 161.101 408.017L154.692 411.717C154.419 411.875 154.414 412.126 154.681 412.28L161.446 416.187ZM189.143 423.07L195.552 419.37C195.825 419.212 195.83 418.96 195.563 418.807L188.799 414.901C188.532 414.748 188.095 414.75 187.822 414.907L181.413 418.607C181.141 418.763 181.137 419.016 181.404 419.17L188.167 423.074C188.434 423.229 188.872 423.227 189.143 423.07ZM178.801 428.483C179.068 428.637 179.505 428.634 179.777 428.477L186.186 424.776C186.459 424.619 186.462 424.367 186.196 424.213L179.433 420.307C179.166 420.153 178.729 420.156 178.457 420.313L172.047 424.014C171.776 424.171 171.77 424.423 172.037 424.577L178.801 428.483ZM157.354 399.023L150.945 402.723C150.672 402.881 150.669 403.132 150.936 403.286L157.7 407.192C157.967 407.345 158.404 407.343 158.676 407.186L165.085 403.485C165.358 403.329 165.362 403.076 165.095 402.922L158.331 399.016C158.064 398.864 157.627 398.866 157.354 399.023ZM204.189 371.983L197.78 375.683C197.509 375.841 197.504 376.093 197.771 376.246L204.535 380.152C204.802 380.306 205.238 380.303 205.511 380.146L211.92 376.445C212.193 376.288 212.196 376.036 211.93 375.882L205.166 371.976C204.899 371.823 204.462 371.826 204.189 371.983ZM166.722 393.616L160.313 397.316C160.04 397.472 160.037 397.726 160.302 397.879L167.066 401.785C167.333 401.939 167.77 401.937 168.042 401.779L174.451 398.079C174.724 397.921 174.727 397.669 174.46 397.516L167.697 393.61C167.431 393.456 166.995 393.458 166.722 393.616ZM213.557 366.574L207.148 370.275C206.875 370.432 206.872 370.686 207.139 370.839L213.902 374.744C214.169 374.899 214.605 374.897 214.878 374.739L221.287 371.039C221.56 370.881 221.565 370.629 221.298 370.475L214.534 366.57C214.267 366.415 213.83 366.418 213.557 366.574ZM194.823 377.391L188.414 381.091C188.141 381.248 188.137 381.501 188.404 381.655L195.168 385.559C195.435 385.714 195.873 385.711 196.145 385.554L202.554 381.854C202.826 381.697 202.831 381.444 202.564 381.29L195.799 377.386C195.533 377.231 195.096 377.233 194.823 377.391ZM185.456 382.799L179.046 386.499C178.774 386.655 178.769 386.909 179.036 387.062L185.8 390.968C186.067 391.122 186.504 391.119 186.776 390.962L193.185 387.262C193.457 387.104 193.461 386.852 193.194 386.697L186.43 382.792C186.166 382.64 185.728 382.642 185.456 382.799ZM176.089 388.207L169.68 391.907C169.407 392.065 169.403 392.317 169.67 392.471L176.434 396.376C176.701 396.531 177.138 396.527 177.409 396.371L183.819 392.669C184.09 392.513 184.095 392.259 183.828 392.106L177.064 388.202C176.798 388.047 176.362 388.05 176.089 388.207ZM221.386 393.297L227.796 389.597C228.068 389.44 228.073 389.186 227.806 389.033L221.042 385.128C220.775 384.973 220.338 384.976 220.066 385.133L213.657 388.833C213.384 388.991 213.381 389.243 213.648 389.397L220.412 393.302C220.677 393.457 221.114 393.454 221.386 393.297ZM306.242 313.063L299.833 316.763C299.56 316.92 299.557 317.172 299.822 317.327L306.587 321.232C306.854 321.387 307.292 321.383 307.563 321.226L313.972 317.526C314.245 317.369 314.249 317.118 313.983 316.963L307.219 313.057C306.952 312.903 306.515 312.906 306.242 313.063ZM294.902 319.61L288.493 323.311C288.22 323.468 288.217 323.72 288.483 323.874L295.247 327.78C295.514 327.935 295.951 327.931 296.222 327.774L302.632 324.074C302.904 323.916 302.908 323.664 302.642 323.511L295.878 319.605C295.612 319.45 295.175 319.453 294.902 319.61ZM315.608 307.656L309.2 311.356C308.928 311.512 308.923 311.766 309.19 311.92L315.955 315.825C316.221 315.979 316.659 315.977 316.931 315.819L323.34 312.119C323.613 311.961 323.617 311.709 323.35 311.556L316.586 307.65C316.318 307.496 315.882 307.498 315.608 307.656ZM265.461 356.692L271.87 352.992C272.143 352.834 272.146 352.582 271.879 352.429L265.115 348.523C264.848 348.369 264.411 348.372 264.14 348.529L257.73 352.23C257.458 352.387 257.454 352.639 257.72 352.794L264.484 356.699C264.752 356.853 265.188 356.849 265.461 356.692ZM325.953 302.242C325.687 302.088 325.248 302.09 324.977 302.247L318.569 305.947C318.296 306.105 318.292 306.356 318.559 306.511L325.322 310.416C325.588 310.571 326.025 310.567 326.298 310.411L332.707 306.709C332.98 306.553 332.985 306.301 332.718 306.146L325.953 302.242ZM230.754 387.889L237.163 384.189C237.436 384.031 237.439 383.779 237.172 383.626L230.408 379.72C230.141 379.566 229.704 379.569 229.433 379.726L223.023 383.427C222.751 383.584 222.747 383.837 223.014 383.99L229.778 387.896C230.044 388.048 230.481 388.046 230.754 387.889ZM345.624 321.568L352.033 317.868C352.306 317.712 352.309 317.458 352.043 317.305L345.278 313.4C345.011 313.246 344.575 313.248 344.303 313.406L337.893 317.106C337.622 317.263 337.616 317.516 337.883 317.67L344.647 321.574C344.914 321.727 345.351 321.725 345.624 321.568ZM326.593 321.398L333.003 317.697C333.274 317.54 333.279 317.288 333.012 317.133L326.248 313.228C325.982 313.073 325.544 313.077 325.272 313.234L318.863 316.933C318.59 317.091 318.586 317.344 318.853 317.497L325.616 321.402C325.883 321.558 326.321 321.555 326.593 321.398ZM335.616 307.82C335.35 307.666 334.911 307.669 334.64 307.826L328.23 311.527C327.959 311.684 327.954 311.937 328.221 312.091L334.985 315.996C335.252 316.151 335.689 316.147 335.961 315.991L342.37 312.291C342.643 312.133 342.647 311.881 342.38 311.727L335.616 307.82ZM337.588 306.682L354.014 316.167C354.281 316.32 354.717 316.318 354.99 316.161L361.399 312.461C361.672 312.303 361.677 312.051 361.41 311.898L344.982 302.413C344.715 302.26 344.278 302.262 344.005 302.419L337.596 306.119C337.325 306.274 337.321 306.528 337.588 306.682ZM315.905 318.642L309.495 322.342C309.223 322.499 309.218 322.752 309.485 322.905L316.25 326.81C316.517 326.964 316.954 326.962 317.226 326.804L323.635 323.104C323.907 322.946 323.912 322.694 323.646 322.541L316.882 318.635C316.615 318.483 316.177 318.485 315.905 318.642ZM245.406 359.345L238.996 363.046C238.724 363.203 238.719 363.456 238.986 363.609L245.75 367.515C246.017 367.67 246.454 367.666 246.726 367.509L253.135 363.809C253.408 363.651 253.411 363.399 253.144 363.246L246.38 359.34C246.115 359.185 245.677 359.188 245.406 359.345ZM335.28 326.981C335.546 327.136 335.985 327.132 336.256 326.976L342.666 323.276C342.937 323.118 342.942 322.866 342.675 322.712L335.911 318.807C335.645 318.652 335.207 318.656 334.935 318.812L328.526 322.513C328.253 322.67 328.249 322.922 328.516 323.077L335.28 326.981ZM254.772 353.938L248.363 357.637C248.09 357.795 248.087 358.048 248.354 358.201L255.117 362.106C255.384 362.261 255.821 362.258 256.093 362.101L262.503 358.4C262.775 358.243 262.78 357.99 262.513 357.836L255.749 353.931C255.482 353.777 255.045 353.78 254.772 353.938ZM182.942 414.935C183.209 415.09 183.646 415.086 183.918 414.929L190.327 411.229C190.598 411.072 190.603 410.819 190.336 410.666L183.572 406.76C183.305 406.606 182.869 406.609 182.596 406.766L176.187 410.467C175.914 410.624 175.911 410.877 176.177 411.031L182.942 414.935ZM170.468 402.609L164.059 406.311C163.786 406.467 163.783 406.721 164.05 406.874L170.814 410.78C171.081 410.934 171.518 410.931 171.79 410.774L178.199 407.074C178.472 406.916 178.476 406.664 178.208 406.51L171.444 402.605C171.178 402.45 170.741 402.453 170.468 402.609ZM193.285 409.521L199.694 405.821C199.967 405.664 199.971 405.411 199.705 405.257L192.94 401.353C192.673 401.199 192.235 401.201 191.964 401.359L185.555 405.059C185.283 405.215 185.278 405.469 185.545 405.622L192.31 409.527C192.575 409.68 193.012 409.679 193.285 409.521ZM202.651 404.114L209.061 400.414C209.333 400.256 209.338 400.003 209.071 399.85L202.306 395.945C202.04 395.79 201.603 395.793 201.33 395.95L194.921 399.65C194.649 399.808 194.644 400.06 194.912 400.214L201.677 404.119C201.942 404.273 202.38 404.27 202.651 404.114ZM212.019 398.705L218.428 395.005C218.701 394.847 218.704 394.595 218.438 394.44L211.675 390.535C211.408 390.382 210.971 390.384 210.699 390.542L204.289 394.242C204.017 394.398 204.012 394.652 204.279 394.805L211.043 398.711C211.31 398.864 211.746 398.862 212.019 398.705ZM179.836 397.202L173.427 400.902C173.154 401.059 173.151 401.312 173.416 401.465L180.181 405.37C180.448 405.524 180.884 405.522 181.157 405.364L187.566 401.664C187.839 401.508 187.842 401.254 187.577 401.101L180.813 397.196C180.545 397.042 180.109 397.044 179.836 397.202ZM189.203 391.794L182.794 395.494C182.521 395.651 182.517 395.904 182.784 396.057L189.548 399.963C189.814 400.117 190.252 400.114 190.523 399.957L196.933 396.256C197.204 396.099 197.209 395.847 196.942 395.692L190.178 391.787C189.912 391.635 189.475 391.637 189.203 391.794ZM226.671 370.162L220.262 373.862C219.989 374.02 219.986 374.272 220.252 374.425L227.016 378.33C227.283 378.484 227.721 378.482 227.992 378.324L234.401 374.624C234.674 374.467 234.679 374.214 234.412 374.061L227.647 370.156C227.381 370.002 226.944 370.004 226.671 370.162ZM217.305 375.569L210.895 379.269C210.624 379.426 210.618 379.679 210.886 379.833L217.65 383.738C217.917 383.893 218.354 383.889 218.626 383.733L225.035 380.033C225.308 379.875 225.312 379.622 225.045 379.468L218.282 375.562C218.013 375.409 217.576 375.412 217.305 375.569ZM236.038 364.753L229.629 368.453C229.356 368.611 229.353 368.863 229.619 369.017L236.383 372.922C236.65 373.077 237.087 373.073 237.358 372.917L243.768 369.216C244.04 369.059 244.044 368.807 243.777 368.652L237.013 364.747C236.747 364.593 236.311 364.597 236.038 364.753ZM198.571 386.385L192.161 390.086C191.889 390.243 191.884 390.496 192.151 390.65L198.915 394.555C199.182 394.71 199.618 394.707 199.891 394.55L206.3 390.85C206.573 390.692 206.577 390.441 206.31 390.286L199.545 386.382C199.28 386.226 198.842 386.228 198.571 386.385ZM207.937 380.978L201.528 384.678C201.255 384.836 201.251 385.088 201.519 385.241L208.282 389.147C208.548 389.301 208.986 389.298 209.258 389.141L215.668 385.44C215.94 385.283 215.945 385.031 215.678 384.876L208.913 380.971C208.647 380.818 208.209 380.821 207.937 380.978ZM198.511 417.661L204.92 413.96C205.193 413.804 205.196 413.551 204.93 413.397L198.165 409.491C197.898 409.337 197.461 409.339 197.189 409.497L190.78 413.197C190.507 413.355 190.503 413.607 190.77 413.76L197.534 417.666C197.802 417.821 198.238 417.818 198.511 417.661ZM146.361 413.739L139.596 409.833C139.33 409.679 138.893 409.682 138.621 409.839L132.211 413.539C131.939 413.696 131.934 413.948 132.201 414.102L138.965 418.008C139.232 418.161 139.669 418.159 139.942 418.002L146.351 414.302C146.623 414.146 146.627 413.893 146.361 413.739ZM159.474 417.326L152.71 413.422C152.444 413.267 152.007 413.27 151.735 413.428L141.874 419.12C141.602 419.277 141.598 419.53 141.865 419.684L148.629 423.588C148.896 423.742 149.332 423.74 149.605 423.582L159.465 417.89C159.737 417.732 159.741 417.48 159.474 417.326ZM136.112 406.114L129.349 402.21C129.082 402.055 128.645 402.057 128.373 402.215L120.484 406.769C120.213 406.926 120.207 407.18 120.474 407.333L127.238 411.238C127.505 411.393 127.942 411.39 128.214 411.233L136.102 406.679C136.375 406.521 136.379 406.269 136.112 406.114ZM142.16 402.623C142.426 402.778 142.864 402.774 143.136 402.617L149.546 398.916C149.818 398.76 149.823 398.507 149.556 398.353L142.792 394.447C142.525 394.293 142.088 394.296 141.815 394.453L135.407 398.153C135.134 398.311 135.13 398.563 135.397 398.716L142.16 402.623ZM171.602 421.481L164.838 417.575C164.571 417.422 164.134 417.424 163.863 417.582L151.537 424.698C151.264 424.856 151.261 425.108 151.528 425.261L158.292 429.167C158.559 429.321 158.995 429.318 159.267 429.161L171.593 422.045C171.865 421.887 171.869 421.635 171.602 421.481ZM176.829 429.621L170.064 425.717C169.798 425.562 169.361 425.565 169.088 425.722L161.2 430.277C160.927 430.433 160.923 430.687 161.19 430.84L167.953 434.746C168.22 434.9 168.658 434.897 168.929 434.74L176.818 430.186C177.091 430.028 177.095 429.776 176.829 429.621ZM211.805 362.413C212.071 362.568 212.508 362.564 212.781 362.408L219.19 358.706C219.463 358.55 219.468 358.298 219.201 358.143L212.437 354.237C212.17 354.083 211.732 354.086 211.46 354.243L205.052 357.943C204.779 358.101 204.774 358.353 205.041 358.507L211.805 362.413ZM193.07 373.23C193.337 373.385 193.775 373.381 194.046 373.225L200.455 369.523C200.728 369.367 200.731 369.115 200.465 368.96L193.701 365.054C193.434 364.9 192.998 364.903 192.725 365.06L186.316 368.76C186.043 368.918 186.04 369.17 186.305 369.325L193.07 373.23ZM151.527 397.215C151.794 397.369 152.231 397.367 152.503 397.209L158.912 393.509C159.185 393.352 159.189 393.099 158.922 392.945L152.158 389.04C151.891 388.887 151.455 388.889 151.183 389.046L144.773 392.746C144.502 392.902 144.496 393.156 144.764 393.309L151.527 397.215ZM202.438 367.822C202.705 367.976 203.142 367.974 203.414 367.816L209.823 364.116C210.096 363.959 210.099 363.706 209.832 363.553L203.068 359.647C202.801 359.494 202.365 359.495 202.092 359.653L195.683 363.353C195.41 363.509 195.406 363.763 195.673 363.916L202.438 367.822ZM183.704 378.638C183.971 378.791 184.408 378.789 184.68 378.632L191.089 374.932C191.362 374.775 191.366 374.522 191.099 374.368L184.336 370.464C184.069 370.311 183.631 370.312 183.36 370.47L176.95 374.17C176.678 374.328 176.674 374.58 176.941 374.733L183.704 378.638ZM181.699 430.157C181.432 430.003 180.995 430.005 180.723 430.163L170.863 435.856C170.59 436.012 170.587 436.265 170.852 436.419L177.616 440.324C177.883 440.478 178.319 440.476 178.592 440.318L188.452 434.625C188.725 434.469 188.728 434.215 188.462 434.062L181.699 430.157ZM170.261 386.399C170.528 386.553 170.965 386.55 171.236 386.393L177.646 382.693C177.918 382.535 177.922 382.283 177.656 382.13L170.892 378.224C170.625 378.07 170.188 378.073 169.915 378.23L163.506 381.93C163.233 382.086 163.23 382.339 163.496 382.493L170.261 386.399ZM160.893 391.807C161.16 391.961 161.597 391.958 161.869 391.802L168.278 388.1C168.551 387.944 168.555 387.69 168.288 387.537L161.525 383.631C161.258 383.477 160.82 383.48 160.549 383.637L154.14 387.337C153.867 387.495 153.864 387.746 154.13 387.901L160.893 391.807ZM355.237 329.966C354.97 329.811 354.533 329.813 354.261 329.971L338.485 339.08C338.212 339.237 338.208 339.49 338.475 339.643L345.24 343.548C345.506 343.702 345.943 343.7 346.216 343.542L361.991 334.434C362.264 334.277 362.268 334.025 362.001 333.87L355.237 329.966ZM334.531 341.92C334.264 341.765 333.827 341.768 333.555 341.925L327.146 345.625C326.873 345.783 326.869 346.036 327.135 346.189L333.899 350.094C334.166 350.248 334.603 350.246 334.876 350.088L341.285 346.388C341.558 346.231 341.561 345.978 341.296 345.824L334.531 341.92ZM207.878 412.253L214.287 408.553C214.559 408.395 214.563 408.143 214.296 407.99L207.533 404.084C207.266 403.93 206.828 403.933 206.557 404.09L200.148 407.791C199.875 407.948 199.87 408.2 200.137 408.354L206.901 412.26C207.168 412.413 207.605 412.411 207.878 412.253ZM315.797 352.736C315.53 352.581 315.093 352.585 314.821 352.741L308.412 356.441C308.139 356.599 308.136 356.851 308.403 357.005L315.166 360.91C315.433 361.065 315.871 361.061 316.142 360.905L322.552 357.204C322.824 357.047 322.829 356.793 322.562 356.64L315.797 352.736ZM364.604 324.557C364.337 324.403 363.9 324.406 363.628 324.563L357.219 328.264C356.947 328.421 356.943 328.674 357.21 328.827L363.974 332.733C364.24 332.887 364.678 332.884 364.949 332.727L371.359 329.027C371.631 328.869 371.635 328.617 371.369 328.464L364.604 324.557ZM380.735 323.054L364.307 313.57C364.041 313.415 363.604 313.419 363.332 313.575L356.922 317.277C356.65 317.433 356.645 317.687 356.913 317.84L373.34 327.324C373.607 327.479 374.044 327.476 374.316 327.319L380.725 323.618C380.998 323.461 381.002 323.208 380.735 323.054ZM280.793 372.945C280.526 372.791 280.089 372.794 279.818 372.951L271.929 377.505C271.656 377.662 271.652 377.915 271.919 378.07L278.683 381.974C278.95 382.129 279.387 382.126 279.658 381.968L287.547 377.414C287.819 377.257 287.824 377.004 287.557 376.851L280.793 372.945ZM304.457 359.282C304.19 359.128 303.753 359.131 303.482 359.288L293.621 364.982C293.348 365.138 293.345 365.391 293.611 365.545L300.375 369.451C300.642 369.605 301.078 369.602 301.35 369.445L311.211 363.753C311.483 363.596 311.488 363.344 311.221 363.189L304.457 359.282ZM259.101 385.469C258.834 385.315 258.397 385.318 258.126 385.475L205.374 415.931C205.102 416.088 205.097 416.341 205.364 416.495L212.128 420.4C212.395 420.555 212.831 420.553 213.104 420.395L265.855 389.938C266.128 389.781 266.132 389.528 265.865 389.374L259.101 385.469ZM203.392 417.633C203.125 417.479 202.688 417.482 202.416 417.639L194.528 422.193C194.255 422.35 194.252 422.603 194.519 422.756L201.282 426.662C201.549 426.815 201.987 426.813 202.258 426.655L210.147 422.101C210.418 421.944 210.423 421.692 210.156 421.537L203.392 417.633ZM269.947 379.207C269.68 379.052 269.244 379.056 268.971 379.212L261.084 383.767C260.811 383.925 260.807 384.177 261.074 384.33L267.837 388.234C268.104 388.389 268.542 388.387 268.813 388.23L276.7 383.676C276.973 383.519 276.976 383.267 276.709 383.112L269.947 379.207ZM192.545 423.895C192.278 423.74 191.841 423.744 191.57 423.9L183.681 428.455C183.409 428.612 183.405 428.865 183.672 429.018L190.436 432.924C190.703 433.078 191.139 433.075 191.412 432.918L199.3 428.364C199.573 428.206 199.577 427.954 199.31 427.8L192.545 423.895ZM291.64 366.683C291.373 366.529 290.937 366.531 290.664 366.689L282.776 371.243C282.504 371.4 282.5 371.653 282.767 371.807L289.53 375.712C289.796 375.867 290.235 375.865 290.506 375.707L298.395 371.152C298.667 370.996 298.671 370.742 298.404 370.589L291.64 366.683ZM325.163 347.327C324.896 347.173 324.459 347.176 324.186 347.333L317.777 351.033C317.504 351.19 317.501 351.442 317.768 351.596L324.532 355.502C324.799 355.655 325.236 355.653 325.507 355.496L331.917 351.796C332.189 351.638 332.193 351.386 331.927 351.233L325.163 347.327ZM345.919 332.555L352.328 328.855C352.601 328.697 352.606 328.445 352.339 328.291L345.575 324.387C345.308 324.232 344.871 324.235 344.599 324.392L338.19 328.092C337.918 328.249 337.914 328.502 338.179 328.656L344.944 332.56C345.209 332.715 345.648 332.713 345.919 332.555ZM305.888 333.352L312.297 329.652C312.57 329.495 312.573 329.242 312.307 329.089L305.542 325.184C305.275 325.03 304.839 325.032 304.566 325.19L298.157 328.89C297.884 329.048 297.88 329.3 298.147 329.453L304.911 333.358C305.178 333.512 305.615 333.51 305.888 333.352ZM282.814 368.988L301.548 358.173C301.821 358.016 301.824 357.762 301.557 357.609L294.793 353.704C294.526 353.55 294.09 353.552 293.818 353.709L275.084 364.525C274.811 364.682 274.807 364.935 275.074 365.088L281.837 368.993C282.105 369.149 282.542 369.146 282.814 368.988ZM335.576 337.969C335.843 338.123 336.28 338.12 336.552 337.963L342.961 334.263C343.234 334.105 343.238 333.853 342.971 333.7L336.207 329.794C335.942 329.641 335.504 329.643 335.232 329.8L328.822 333.501C328.551 333.658 328.546 333.911 328.812 334.064L335.576 337.969ZM326.889 332.385L333.298 328.684C333.57 328.527 333.574 328.274 333.307 328.121L326.543 324.215C326.277 324.061 325.839 324.064 325.568 324.221L319.158 327.921C318.886 328.079 318.881 328.331 319.148 328.484L325.912 332.39C326.18 332.544 326.617 332.542 326.889 332.385ZM273.448 374.397L279.857 370.696C280.13 370.539 280.134 370.287 279.867 370.132L273.104 366.227C272.837 366.072 272.399 366.076 272.127 366.232L265.717 369.934C265.445 370.09 265.441 370.343 265.708 370.497L272.472 374.403C272.738 374.556 273.175 374.554 273.448 374.397ZM314.87 349.924C315.137 350.079 315.574 350.075 315.846 349.918L322.255 346.217C322.528 346.06 322.531 345.807 322.265 345.654L315.5 341.748C315.233 341.594 314.797 341.597 314.525 341.754L308.115 345.454C307.843 345.612 307.838 345.864 308.106 346.017L314.87 349.924ZM226.612 401.437L233.021 397.736C233.293 397.579 233.297 397.327 233.031 397.173L226.268 393.267C226.001 393.113 225.564 393.115 225.292 393.273L218.882 396.974C218.61 397.131 218.606 397.383 218.872 397.537L225.636 401.443C225.903 401.597 226.34 401.594 226.612 401.437ZM235.979 396.029L242.389 392.329C242.66 392.171 242.665 391.919 242.398 391.765L235.634 387.86C235.367 387.706 234.931 387.709 234.658 387.866L228.249 391.566C227.976 391.723 227.973 391.976 228.239 392.13L235.003 396.034C235.27 396.189 235.707 396.187 235.979 396.029ZM217.245 406.846L223.655 403.146C223.927 402.989 223.932 402.736 223.664 402.582L216.9 398.678C216.633 398.523 216.196 398.526 215.924 398.683L209.515 402.383C209.242 402.54 209.239 402.793 209.505 402.947L216.269 406.852C216.535 407.005 216.973 407.002 217.245 406.846ZM254.713 385.213L261.122 381.513C261.395 381.355 261.4 381.103 261.133 380.949L254.369 377.044C254.102 376.889 253.665 376.893 253.392 377.049L246.983 380.749C246.711 380.906 246.707 381.158 246.973 381.313L253.737 385.218C254.004 385.373 254.442 385.369 254.713 385.213ZM245.346 390.621L251.755 386.921C252.028 386.765 252.032 386.512 251.765 386.358L245 382.452C244.734 382.298 244.296 382.3 244.024 382.458L237.615 386.158C237.344 386.316 237.339 386.568 237.606 386.721L244.37 390.627C244.637 390.78 245.074 390.778 245.346 390.621ZM264.081 379.804L270.49 376.104C270.762 375.948 270.766 375.694 270.5 375.541L263.736 371.636C263.469 371.482 263.032 371.484 262.76 371.642L256.351 375.342C256.079 375.499 256.075 375.752 256.342 375.905L263.106 379.811C263.37 379.964 263.808 379.962 264.081 379.804ZM311.112 302.213C311.379 302.367 311.816 302.364 312.088 302.207L318.497 298.506C318.77 298.35 318.773 298.097 318.507 297.943L316.707 296.904C316.44 296.749 316.003 296.752 315.73 296.909L309.321 300.61C309.049 300.767 309.045 301.019 309.311 301.174L311.112 302.213ZM264.787 331.824C265.053 331.979 265.49 331.976 265.763 331.818L272.172 328.119C272.444 327.962 272.449 327.71 272.182 327.555L265.419 323.651C265.152 323.496 264.714 323.498 264.443 323.655L258.034 327.356C257.761 327.513 257.756 327.766 258.023 327.92L264.787 331.824ZM283.521 321.008C283.788 321.163 284.225 321.159 284.497 321.003L290.906 317.303C291.179 317.145 291.182 316.894 290.916 316.739L284.151 312.834C283.884 312.679 283.447 312.683 283.176 312.839L276.766 316.539C276.495 316.696 276.489 316.949 276.757 317.103L283.521 321.008ZM253.349 338.428C253.616 338.582 254.052 338.58 254.325 338.422L260.734 334.722C261.006 334.565 261.01 334.312 260.743 334.159L253.979 330.253C253.712 330.1 253.275 330.102 253.003 330.26L246.594 333.96C246.321 334.117 246.317 334.37 246.584 334.523L253.349 338.428ZM274.153 326.417C274.419 326.571 274.858 326.568 275.129 326.411L281.539 322.71C281.81 322.553 281.815 322.3 281.548 322.147L274.784 318.241C274.518 318.087 274.081 318.089 273.808 318.247L267.399 321.947C267.126 322.105 267.122 322.357 267.389 322.51L274.153 326.417ZM234.614 349.245C234.881 349.398 235.318 349.396 235.59 349.238L241.999 345.538C242.272 345.381 242.276 345.128 242.009 344.973L235.245 341.069C234.978 340.914 234.541 340.917 234.268 341.075L227.859 344.775C227.586 344.932 227.583 345.185 227.85 345.338L234.614 349.245ZM243.981 343.836C244.248 343.99 244.686 343.987 244.957 343.831L251.366 340.129C251.639 339.973 251.642 339.721 251.375 339.566L244.612 335.66C244.345 335.506 243.909 335.509 243.636 335.666L237.227 339.366C236.954 339.524 236.951 339.776 237.216 339.93L243.981 343.836ZM292.378 313.029C292.645 313.184 293.083 313.18 293.354 313.023L299.763 309.322C300.036 309.165 300.039 308.913 299.774 308.759L297.973 307.719C297.706 307.565 297.269 307.568 296.997 307.725L290.588 311.426C290.315 311.583 290.311 311.835 290.578 311.99L292.378 313.029ZM320.479 296.805C320.746 296.959 321.184 296.957 321.455 296.799L327.865 293.099C328.137 292.941 328.141 292.689 327.874 292.536L326.073 291.496C325.806 291.343 325.37 291.345 325.097 291.503L318.688 295.203C318.415 295.36 318.411 295.613 318.678 295.766L320.479 296.805ZM334.689 305.008C334.956 305.162 335.393 305.159 335.664 305.002L342.074 301.302C342.346 301.144 342.35 300.892 342.084 300.739L335.319 296.833C335.053 296.679 334.615 296.682 334.343 296.839L327.934 300.54C327.661 300.697 327.657 300.95 327.925 301.103L334.689 305.008ZM355.287 327.147L361.696 323.446C361.968 323.289 361.973 323.037 361.706 322.883L354.942 318.977C354.676 318.823 354.238 318.826 353.966 318.983L347.557 322.683C347.286 322.841 347.281 323.093 347.548 323.246L354.312 327.152C354.577 327.307 355.014 327.304 355.287 327.147ZM301.746 307.621C302.013 307.775 302.449 307.773 302.722 307.615L309.131 303.915C309.403 303.758 309.408 303.505 309.141 303.351L307.341 302.312C307.074 302.158 306.636 302.16 306.365 302.318L299.955 306.018C299.684 306.176 299.679 306.428 299.946 306.581L301.746 307.621ZM225.247 354.652C225.514 354.807 225.952 354.803 226.223 354.646L232.633 350.946C232.905 350.789 232.91 350.536 232.643 350.383L225.879 346.477C225.612 346.323 225.175 346.326 224.903 346.483L218.494 350.184C218.222 350.341 218.218 350.593 218.485 350.748L225.247 354.652Z" fill="url(#paint3_linear_4372_27813)"/>
<path d="M259.555 409.72L317.281 376.392C319.02 375.388 321.841 375.388 323.581 376.392L356.682 395.503C358.421 396.507 358.421 398.136 356.682 399.14L298.956 432.468C297.217 433.472 294.396 433.472 292.656 432.468L259.555 413.357C257.815 412.352 257.815 410.724 259.555 409.72Z" fill="#263238" stroke="url(#paint4_linear_4372_27813)" stroke-width="0.5" stroke-miterlimit="10"/>
<path d="M249.785 157.044C231.739 173.249 216.154 172.4 206.411 164.897C196.677 183.654 181.093 202.49 163.046 207.121L152.743 234.951C152.743 234.951 158.265 241.314 158.265 256.539C158.265 263.401 157.214 269.433 155.713 275.425C153.833 282.937 151.412 290.709 151.412 303.684C151.412 312.487 152.572 321.04 157.024 328.822C159.595 333.324 163.306 337.136 168.308 340.127C164.977 338.206 155.174 332.544 152.643 331.084C147.341 328.033 143.44 324.111 140.768 319.44C136.316 311.647 135.156 303.104 135.156 294.302C135.156 281.327 137.577 273.555 139.457 266.032C140.958 260.05 142.018 254.018 142.018 247.156C142.018 231.932 136.496 225.569 136.496 225.569L146.789 197.739C164.835 193.108 180.42 174.272 190.153 155.515C199.897 163.017 215.482 163.868 233.528 147.662L249.785 157.044Z" fill="#ED7136"/>
<path opacity="0.8" d="M195.869 158.811L190.156 155.514C191.882 156.843 193.795 157.957 195.869 158.811Z" fill="white"/>
<path d="M233.532 147.66C218.683 160.995 205.503 162.776 195.871 158.811L206.413 164.897C216.157 172.399 231.741 173.25 249.788 157.044L233.532 147.66Z" fill="url(#paint5_linear_4372_27813)"/>
<path d="M190.158 155.514C180.424 174.27 164.839 193.106 146.793 197.738L163.048 207.121C181.094 202.49 196.679 183.654 206.413 164.897L190.158 155.514Z" fill="url(#paint6_linear_4372_27813)"/>
<path d="M146.791 197.738L136.496 225.567L152.742 234.95L163.046 207.122L146.791 197.738Z" fill="url(#paint7_linear_4372_27813)"/>
<path opacity="0.4" d="M157.023 328.821C152.571 321.038 151.411 312.485 151.411 303.682C151.411 290.708 153.832 282.936 155.712 275.423C157.213 269.431 158.264 263.4 158.264 256.537C158.264 241.313 152.742 234.95 152.742 234.95L136.496 225.566C136.496 225.566 142.018 231.929 142.018 247.154C142.018 254.016 140.957 260.049 139.457 266.03C137.577 273.552 135.156 281.325 135.156 294.299C135.156 303.102 136.316 311.645 140.768 319.438C143.439 324.109 147.34 328.03 152.643 331.081C155.174 332.542 164.976 338.204 168.308 340.124C163.305 337.133 159.594 333.322 157.023 328.821Z" fill="white"/>
<path d="M157.023 328.821C152.571 321.038 151.411 312.485 151.411 303.682C151.411 290.708 153.832 282.936 155.712 275.423C157.213 269.431 158.264 263.4 158.264 256.537C158.264 241.313 152.742 234.95 152.742 234.95L136.496 225.566C136.496 225.566 142.018 231.929 142.018 247.154C142.018 254.016 140.957 260.049 139.457 266.03C137.577 273.552 135.156 281.325 135.156 294.299C135.156 303.102 136.316 311.645 140.768 319.438C143.439 324.109 147.34 328.03 152.643 331.081C155.174 332.542 164.976 338.204 168.308 340.124C163.305 337.133 159.594 333.322 157.023 328.821Z" fill="url(#paint8_linear_4372_27813)"/>
<path d="M206.413 347.882C179.46 348.181 164.02 341.073 157.021 328.819C152.574 321.034 151.414 312.483 151.414 303.68C151.414 290.707 153.828 282.938 155.712 275.419C157.211 269.435 158.269 263.399 158.269 256.541C158.269 241.316 152.747 234.954 152.747 234.954L163.044 207.119C181.09 202.488 196.675 183.648 206.413 164.892C216.152 172.402 231.737 173.246 249.783 157.041L260.08 172.985C260.08 172.985 254.558 185.723 254.558 200.947C254.558 207.804 255.616 212.62 257.115 216.873C258.999 222.217 261.413 227.2 261.413 240.172C261.413 248.974 260.253 258.864 255.806 271.785C248.807 292.12 233.366 317.058 206.413 347.882Z" fill="#ED7136"/>
<path d="M206.413 347.882C179.46 348.181 164.02 341.073 157.021 328.819C152.574 321.034 151.414 312.483 151.414 303.68C151.414 290.707 153.828 282.938 155.712 275.419C157.211 269.435 158.269 263.399 158.269 256.541C158.269 241.316 152.747 234.954 152.747 234.954L163.044 207.119C181.09 202.488 196.675 183.648 206.413 164.892C216.152 172.402 231.737 173.246 249.783 157.041L260.08 172.985C260.08 172.985 254.558 185.723 254.558 200.947C254.558 207.804 255.616 212.62 257.115 216.873C258.999 222.217 261.413 227.2 261.413 240.172C261.413 248.974 260.253 258.864 255.806 271.785C248.807 292.12 233.366 317.058 206.413 347.882Z" fill="url(#paint9_linear_4372_27813)"/>
<path opacity="0.75" d="M203.223 340.879C182.344 340.632 168.85 335.41 163.102 325.347C159.862 319.674 158.418 312.992 158.418 303.681C158.418 293.027 160.165 286.237 161.854 279.669C162.075 278.812 162.294 277.964 162.505 277.12C164.419 269.482 165.273 263.135 165.273 256.54C165.273 245.449 162.614 238.185 160.505 234.167L168.407 212.808C187.722 206.093 201.681 187.023 209.078 174.513C213.011 176.192 217.267 177.061 221.68 177.061C230.407 177.061 239.278 173.814 248.131 167.391L252.285 173.819C250.483 179.031 247.558 189.289 247.558 200.948C247.558 207.772 248.469 213.401 250.511 219.2C250.729 219.818 250.953 220.428 251.178 221.045C252.841 225.583 254.411 229.872 254.411 240.173C254.411 249.96 252.799 259.007 249.186 269.506C242.298 289.523 226.838 313.526 203.223 340.879Z" fill="#ED7136"/>
<path opacity="0.4" d="M203.223 340.879C182.344 340.632 168.85 335.41 163.102 325.347C159.862 319.674 158.418 312.992 158.418 303.681C158.418 293.027 160.165 286.237 161.854 279.669C162.075 278.812 162.294 277.964 162.505 277.12C164.419 269.482 165.273 263.135 165.273 256.54C165.273 245.449 162.614 238.185 160.505 234.167L168.407 212.808C187.722 206.093 201.681 187.023 209.078 174.513C213.011 176.192 217.267 177.061 221.68 177.061C230.407 177.061 239.278 173.814 248.131 167.391L252.285 173.819C250.483 179.031 247.558 189.289 247.558 200.948C247.558 207.772 248.469 213.401 250.511 219.2C250.729 219.818 250.953 220.428 251.178 221.045C252.841 225.583 254.411 229.872 254.411 240.173C254.411 249.96 252.799 259.007 249.186 269.506C242.298 289.523 226.838 313.526 203.223 340.879Z" fill="white"/>
<path d="M203.223 340.879C182.344 340.632 168.85 335.41 163.102 325.347C159.862 319.674 158.418 312.992 158.418 303.681C158.418 293.027 160.165 286.237 161.854 279.669C162.075 278.812 162.294 277.964 162.505 277.12C164.419 269.482 165.273 263.135 165.273 256.54C165.273 245.449 162.614 238.185 160.505 234.167L168.407 212.808C187.722 206.093 201.681 187.023 209.078 174.513C213.011 176.192 217.267 177.061 221.68 177.061C230.407 177.061 239.278 173.814 248.131 167.391L252.285 173.819C250.483 179.031 247.558 189.289 247.558 200.948C247.558 207.772 248.469 213.401 250.511 219.2C250.729 219.818 250.953 220.428 251.178 221.045C252.841 225.583 254.411 229.872 254.411 240.173C254.411 249.96 252.799 259.007 249.186 269.506C242.298 289.523 226.838 313.526 203.223 340.879Z" fill="url(#paint10_linear_4372_27813)"/>
<path d="M167.883 331.135C174.994 337.405 186.818 340.685 203.222 340.879L192.753 334.917C183.388 334.86 175.054 333.649 167.883 331.135Z" fill="url(#paint11_linear_4372_27813)"/>
<path opacity="0.15" d="M246.832 170.675L252.284 173.82L248.131 167.391L245.766 169.023L246.832 170.675Z" fill="black"/>
<path d="M245.058 216.056C243.016 210.257 242.105 204.627 242.105 197.804C242.105 186.145 245.031 175.886 246.832 170.675L245.765 169.023C237.699 174.358 229.629 177.063 221.68 177.063C217.267 177.063 213.011 176.195 209.078 174.515C201.681 187.024 187.722 206.095 168.407 212.809L160.505 234.169C162.614 238.187 165.273 245.451 165.273 256.542C165.273 263.136 164.418 269.483 162.505 277.122C162.294 277.966 162.076 278.813 161.854 279.671C160.165 286.238 158.418 293.028 158.418 303.683C158.418 312.993 159.863 319.675 163.102 325.348C164.736 328.21 167.02 330.666 169.898 332.742C176.876 335.922 186.181 337.598 197.771 337.735C221.386 310.382 236.846 286.378 243.734 266.363C247.347 255.863 248.959 246.817 248.959 237.03C248.959 226.729 247.389 222.442 245.726 217.902C245.5 217.283 245.277 216.673 245.058 216.056Z" fill="#FFDAB8"/>
<path d="M168.407 212.808L160.505 234.167C162.614 238.185 165.273 245.45 165.273 256.541C165.273 263.135 164.418 269.482 162.505 277.121C162.294 277.965 162.076 278.812 161.854 279.67C160.165 286.237 158.418 293.027 158.418 303.681C158.418 312.992 159.863 319.674 163.102 325.347C164.736 328.209 167.02 330.665 169.898 332.74C176.876 335.921 186.181 337.597 197.771 337.734V259.031L209.078 255.612V174.514C205.918 179.906 202.198 185.3 197.771 190.693C190.212 199.807 180.331 208.663 168.407 212.808Z" fill="#FFDAB8"/>
<path d="M229.333 233.028C229.333 232.056 228.692 231.083 227.407 230.342L223.618 228.154C221.049 226.67 216.882 226.67 214.312 228.154L179.97 247.981C178.684 248.724 178.042 249.698 178.043 250.672V296.029C178.04 297.003 178.681 297.978 179.97 298.722L183.757 300.909C186.327 302.392 190.492 302.392 193.063 300.909L227.407 281.081C228.692 280.339 229.333 279.367 229.333 278.394V233.028Z" fill="#ED7136"/>
<path opacity="0.4" d="M183.758 255.542L179.97 253.355C177.401 251.871 177.401 249.465 179.97 247.981L214.311 228.154C216.881 226.67 221.048 226.67 223.618 228.154L227.406 230.342C229.976 231.825 229.976 234.23 227.406 235.714L193.063 255.542C190.493 257.025 186.326 257.025 183.758 255.542Z" fill="white"/>
<path opacity="0.1" d="M188.416 256.652V302.02C186.729 302.02 185.043 301.654 183.763 300.913L179.97 298.722C178.681 297.98 178.036 297.002 178.047 296.025V250.668C178.047 251.646 178.681 252.613 179.97 253.355L183.763 255.547C185.041 256.287 186.729 256.652 188.416 256.652Z" fill="black"/>
<path d="M213.407 279.092L205.207 283.827L206.477 268.993C205.497 268.475 204.871 267.199 204.871 265.366C204.871 262.1 206.857 258.306 209.307 256.892C211.756 255.477 213.742 256.979 213.742 260.245C213.742 262.077 213.117 264.074 212.136 265.726L213.407 279.092Z" fill="#455A64"/>
<path d="M213.407 279.093L205.98 274.805L205.207 283.827L213.407 279.093Z" fill="#37474F"/>
<path d="M209.309 256.891C207.706 257.817 206.307 259.762 205.527 261.911L212.139 265.728V265.726C213.119 264.075 213.745 262.077 213.745 260.245C213.744 256.979 211.757 255.478 209.309 256.891Z" fill="#37474F"/>
<path d="M220.055 234.04C220.055 234.037 220.056 234.036 220.056 234.034L220.055 215.896C220.055 210.279 217.932 205.832 214.231 203.694C210.698 201.653 206.329 201.93 201.927 204.472C193.842 209.14 187.509 220.53 187.509 230.402V248.639C187.509 249.187 187.874 249.736 188.597 250.154C190.046 250.99 192.394 250.99 193.842 250.154C194.566 249.736 194.932 249.188 194.932 248.639V230.402C194.932 223.182 199.835 214.25 205.638 210.899C207.617 209.756 209.396 209.474 210.521 210.121C211.844 210.886 212.635 213.044 212.635 215.895V234.033C212.635 234.034 212.635 234.034 212.635 234.035V234.045H212.636C212.642 234.589 213.005 235.131 213.723 235.546C215.172 236.382 217.52 236.382 218.968 235.546C219.687 235.131 220.051 234.588 220.056 234.045H220.058V234.04H220.055Z" fill="#E0E0E0"/>
<path d="M264.199 313.769L269.198 310.884L271.179 308.484L266.18 311.37L264.199 313.769Z" fill="#ED7136"/>
<path opacity="0.4" d="M264.199 313.769L269.198 310.884L271.179 308.484L266.18 311.37L264.199 313.769Z" fill="black"/>
<path d="M277.801 321.623L282.799 318.737L286.976 315.039L281.978 317.926L277.801 321.623Z" fill="#ED7136"/>
<path opacity="0.4" d="M277.801 321.623L282.799 318.737L286.976 315.039L281.978 317.926L277.801 321.623Z" fill="black"/>
<path d="M320.302 331.596C321.398 332.99 322.196 335.038 322.368 337.036C321.272 335.641 320.473 333.593 320.302 331.596ZM331.922 331.747C330.24 320.295 324.088 308.967 316.754 304.733C313.235 302.698 309.978 302.624 307.369 304.15C306.606 304.593 303.776 306.225 302.661 306.865C302.571 306.914 302.48 306.964 302.398 307.021C302.193 307.135 301.988 307.267 301.79 307.406C301.413 307.668 301.052 307.964 300.708 308.3C300.659 308.341 300.609 308.399 300.552 308.447C300.405 308.595 300.257 308.759 300.117 308.923C299.944 309.12 299.773 309.326 299.616 309.538C299.288 309.973 298.977 310.44 298.697 310.949C298.557 311.195 298.418 311.458 298.287 311.728L257.18 287.996L252.184 290.876V294.059L252.61 294.305L253.004 294.535V295.207L252.184 295.683V297.537L258.221 310.318L264.193 313.772L266.178 311.368L271.444 314.518L274.472 319.703L277.803 321.623L281.979 317.923L287.105 320.884L288.829 327.989L297.418 332.944C297.853 334.765 298.403 336.545 299.042 338.285C299.1 338.465 299.165 338.646 299.239 338.842C302.094 346.349 306.639 352.772 311.758 355.732C312.414 356.11 313.054 356.422 313.686 356.659C314.047 356.807 314.408 356.922 314.76 357.021C315.08 357.11 315.4 357.184 315.72 357.234C316.778 357.423 317.804 357.415 318.763 357.226C318.903 357.193 319.042 357.16 319.181 357.127C319.378 357.086 319.575 357.029 319.764 356.955C319.912 356.897 320.06 356.84 320.207 356.782C320.363 356.724 320.519 356.65 320.666 356.568C320.814 356.503 320.954 356.429 321.093 356.347C321.167 356.306 321.241 356.265 321.307 356.224C321.34 356.216 321.373 356.191 321.406 356.166C322.546 355.51 325.36 353.885 326.122 353.451C329.92 351.253 332.382 345.682 332.382 337.807C332.382 335.807 332.226 333.772 331.922 331.747Z" fill="#ED7136"/>
<path d="M318.835 341.255C316.863 340.117 315.265 336.733 315.265 333.696C315.265 330.66 316.863 329.122 318.835 330.26C320.807 331.398 322.405 334.782 322.405 337.819C322.407 340.856 320.807 342.395 318.835 341.255ZM326.926 334.625C325.244 323.181 319.092 311.853 311.758 307.62C308.361 305.66 305.22 305.512 302.661 306.866C302.571 306.915 302.48 306.965 302.398 307.022C302.193 307.137 301.988 307.268 301.79 307.407C301.413 307.669 301.052 307.965 300.708 308.301C300.659 308.342 300.609 308.4 300.552 308.449C300.405 308.596 300.257 308.76 300.117 308.925C299.944 309.121 299.773 309.327 299.616 309.539C299.288 309.974 298.977 310.441 298.697 310.95C298.557 311.197 298.418 311.459 298.287 311.729C297.607 313.124 297.065 314.748 296.703 316.586L252.184 290.877V294.06L252.61 294.307L253.004 294.536V295.209L252.184 295.685V297.538L258.221 310.32L264.193 313.773L266.178 311.369L271.444 314.519L274.472 319.704L277.803 321.624L281.979 317.924L287.105 320.886L288.829 327.99L297.418 332.945C297.853 334.766 298.403 336.546 299.042 338.286C299.1 338.466 299.165 338.647 299.239 338.843C302.094 346.35 306.639 352.773 311.758 355.733C312.414 356.111 313.054 356.423 313.686 356.66C314.047 356.808 314.408 356.923 314.76 357.022C315.08 357.111 315.4 357.185 315.72 357.235C316.778 357.424 317.804 357.416 318.763 357.227C318.903 357.194 319.042 357.161 319.181 357.128C319.378 357.088 319.575 357.03 319.764 356.956C319.912 356.898 320.06 356.841 320.207 356.783C320.363 356.725 320.519 356.651 320.666 356.57C320.814 356.504 320.954 356.43 321.093 356.348C321.167 356.307 321.241 356.266 321.307 356.225C321.34 356.217 321.373 356.192 321.406 356.167C325.048 353.87 327.386 348.382 327.386 340.696C327.386 338.695 327.221 336.66 326.926 334.625Z" fill="#ED7136"/>
<path opacity="0.4" d="M322.406 337.818C322.406 340.853 320.807 342.395 318.838 341.255C316.861 340.115 315.262 336.735 315.262 333.7C315.262 330.664 316.861 329.123 318.838 330.262C319.363 330.565 319.864 331.026 320.298 331.599C320.47 333.593 321.273 335.643 322.365 337.038C322.397 337.3 322.406 337.563 322.406 337.818Z" fill="black"/>
<path opacity="0.4" d="M332.38 337.808C332.38 345.683 329.92 351.254 326.121 353.452C325.357 353.887 322.544 355.512 321.404 356.167C325.046 353.87 327.384 348.382 327.384 340.696C327.384 338.694 327.219 336.66 326.925 334.625C325.244 323.181 319.091 311.853 311.757 307.62C308.361 305.659 305.22 305.512 302.66 306.866C303.776 306.226 306.605 304.594 307.369 304.151C309.977 302.625 313.234 302.699 316.753 304.734C324.087 308.966 330.24 320.296 331.921 331.748C332.225 333.772 332.38 335.807 332.38 337.808Z" fill="white"/>
<path d="M327.386 340.696C327.386 348.382 325.048 353.87 321.406 356.167C322.547 355.511 325.361 353.886 326.123 353.452C329.921 351.254 332.382 345.683 332.382 337.808C332.382 337.518 332.372 337.226 332.365 336.934C330.649 337.924 328.913 338.926 327.369 339.818C327.375 340.111 327.386 340.404 327.386 340.696Z" fill="#ED7136"/>
<path opacity="0.1" d="M327.386 340.696C327.386 348.382 325.048 353.87 321.406 356.167C322.547 355.511 325.361 353.886 326.123 353.452C329.921 351.254 332.382 345.683 332.382 337.808C332.382 337.518 332.372 337.226 332.365 336.934C330.649 337.924 328.913 338.926 327.369 339.818C327.375 340.111 327.386 340.404 327.386 340.696Z" fill="black"/>
<path opacity="0.15" d="M296.887 319.867V321.491L252.188 295.684L253.008 295.208V294.535L296.887 319.867Z" fill="black"/>
<path opacity="0.15" d="M296.887 320.54V321.491L252.188 295.683L253.008 295.207V295.199L296.887 320.54Z" fill="black"/>
<path opacity="0.15" d="M298.746 324.16C298.746 335.224 304.571 347.558 311.758 351.706C318.944 355.855 324.77 350.25 324.77 339.185C324.77 328.121 318.944 315.788 311.758 311.639C304.571 307.491 298.746 313.096 298.746 324.16Z" stroke="black" stroke-width="0.7315" stroke-miterlimit="10"/>
<path opacity="0.5" d="M298.287 311.73C297.607 313.125 297.065 314.749 296.703 316.587L252.184 290.878L257.18 287.998L298.287 311.73Z" fill="white"/>
<path d="M467.98 437.405C468.153 438.959 468.366 443.322 476.272 444.409C484.179 445.496 489.16 442.88 491.268 439.075C493.376 435.271 492.893 432.171 493.23 428.648C493.568 425.125 496.479 423.25 497.315 421.435C498.548 418.764 496.746 414.604 496.746 414.604L467.98 437.405Z" fill="#263238"/>
<path d="M410.287 425.017C410 425.244 409.919 427.736 410.801 428.842C411.409 429.603 416.903 433.286 423.472 432.231C430.04 431.176 433.197 429.338 436.885 426.974C440.658 424.555 443.309 424.126 447.236 423.992C451.038 423.862 453.821 423.017 454.109 422.018C454.614 420.265 454.614 419.155 453.782 419.211L410.287 425.017Z" fill="#263238"/>
<path d="M494.907 408.486C493.917 415.693 479.937 415.112 481.076 409.355L478.582 391.852L494.407 392.342L494.907 408.486Z" fill="#F5D1B7"/>
<path d="M468.553 433.81C469.253 432.512 471.292 430.641 472.189 429.471C476.879 423.354 479.832 416.237 480.412 408.497C480.444 408.072 480.497 407.25 480.918 406.995C481.365 406.727 481.772 407.097 482.225 407.295C482.234 407.288 482.24 407.281 482.249 407.275C482.249 407.275 482.252 407.297 482.253 407.309C482.82 407.553 483.602 407.827 484.701 407.949C487.503 408.262 490.6 407.59 491.3 407.687C491.843 407.762 492.011 409.446 491.967 411.268C492.963 410.637 493.289 409.389 494.185 408.659C494.667 408.266 494.881 408.254 494.871 407.605C494.864 407.183 494.837 406.803 494.832 406.381C495.55 406.169 496.154 408.926 496.745 411.03C497.429 413.466 498.282 416.215 497.322 418.689C496.787 420.066 495.903 421.274 495.092 422.508C493.695 424.636 492.466 426.969 492.222 429.504C492.115 430.615 492.2 431.741 492.042 432.845C491.491 436.693 488.852 439.718 485.143 440.876C480.322 442.383 473.082 442.146 468.834 438.775C467.347 437.592 467.853 435.109 468.553 433.81Z" fill="#263238"/>
<path d="M450.555 407.277C446.725 410.253 442.103 412.008 437.391 409.859L436.289 380.398L452.158 383.25L450.555 407.277Z" fill="#F5D1B7"/>
<path d="M413.48 419.933C414.532 419.598 415.572 419.223 416.599 418.814C419.468 417.673 422.234 416.273 424.881 414.682C426.05 413.98 427.195 413.239 428.313 412.457C429.488 411.637 430.574 410.726 431.687 409.824C432.276 409.347 432.819 408.685 433.298 408.098C434.251 406.927 435.053 405.63 435.674 404.254C435.813 403.948 435.965 403.612 436.268 403.468C436.629 403.298 437.058 403.467 437.384 403.695C437.671 403.896 437.928 404.146 438.254 404.287C438.561 404.42 438.878 404.542 439.188 404.671C440.181 405.084 441.233 405.34 442.303 405.436C446.316 405.795 446.446 404.988 446.621 406.283C446.663 406.599 446.679 407.118 446.653 407.735C448.771 407.384 450.442 406.699 450.534 405.896L450.791 403.327C452.903 403.136 453.044 406.916 453.738 411.161C454.299 414.596 455.123 417.085 454.179 419.612C450.984 422.402 445.352 421.725 442.142 422.255C437.602 423.005 435.479 426.364 429.167 428.549C418.993 432.069 412.568 428.009 410.661 426.238C409.399 423.983 409.146 421.315 413.48 419.933Z" fill="#263238"/>
<path d="M490.443 233.081C491.247 245.561 492.713 263.884 493.223 278.319C494.182 305.452 493.808 336.377 493.808 336.377C493.808 336.377 496.444 346.078 496.731 353.765C497.379 371.097 497.256 410.019 497.256 410.019C497.256 410.019 490.075 417.256 479.319 411.571C479.319 411.571 469.794 357.003 467.129 339.91C464.588 323.614 459.624 291.02 459.624 291.02L457.378 337.282C457.378 337.282 460.008 346.703 459.069 359.486C458.487 367.425 453.954 406.639 453.954 406.639C449.823 410.515 437.776 408.408 435.145 405.326C435.145 405.326 430.926 347.379 430.458 339.009C429.446 320.903 426.754 253.42 428.1 242.939C429.445 232.458 490.443 233.081 490.443 233.081Z" fill="#00344F"/>
<path d="M459.623 291.02L456.47 270.142C456.47 270.142 447.793 268.5 441.465 263.801C441.465 263.801 443.93 269.379 453.514 273.358L456.63 292.801L457.378 337.282L459.623 291.02Z" fill="black"/>
<path d="M477.33 149.299C477.909 151.652 481.91 151.292 483.649 150.851C485.799 150.306 487.393 148.392 487.128 146.17C488.033 145.895 488.868 145.436 489.452 144.747C490.429 143.597 490.272 142.118 489.615 140.871C491.036 139.799 491.914 138.044 491.593 136.275C491.365 135.013 490.618 133.827 489.64 133.08C488.809 132.445 487.265 131.682 486.156 131.839C485.746 131.897 485.339 132.664 485.931 132.725C486.71 132.805 487.863 133.357 488.467 133.824C489.131 134.336 489.906 135.105 490.189 136.004C490.659 137.496 490.115 138.977 488.966 139.907C488.748 139.646 488.518 139.399 488.269 139.194C487.453 138.52 486.462 138.086 485.39 138.177C484.649 138.239 483.734 138.565 483.49 139.351C483.214 140.241 484.135 140.993 484.816 141.38C485.828 141.957 487.005 142.037 488.104 141.677C488.192 141.648 488.275 141.601 488.361 141.567C488.421 141.688 488.48 141.81 488.525 141.928C489.138 143.561 488.153 144.57 486.815 145.021C486.016 143.358 483.833 142.141 482.082 143.013C481.078 143.513 480.963 144.599 481.679 145.417C482.331 146.162 483.416 146.429 484.366 146.486C484.803 146.512 485.27 146.501 485.741 146.45C485.836 147.173 485.682 147.929 485.26 148.538C484.524 149.597 483.165 149.847 481.961 149.937C480.399 150.053 479.298 149.615 478.059 148.698C477.716 148.444 477.245 148.951 477.33 149.299ZM487.704 140.574C486.95 140.782 486.186 140.672 485.508 140.217C485.031 139.898 484.508 139.432 485.353 139.37C486.239 139.305 487.085 139.857 487.704 140.574ZM485.332 145.288C484.827 145.31 484.329 145.269 483.895 145.159C483.559 145.074 482.072 144.32 482.83 143.983C483.415 143.723 484.43 144.301 484.843 144.674C485.04 144.853 485.197 145.064 485.332 145.288Z" fill="#263238"/>
<path d="M480.095 105.362C480.095 105.362 480.382 105.402 480.832 105.515C480.521 103.93 481.216 102.338 482.647 101.683C484.368 100.896 486.481 101.762 487.365 103.618L482.223 105.97C483.591 106.517 485.267 107.519 486.137 109.309C487.546 112.207 485.688 118.382 483.809 126.006C481.93 133.631 480.909 136.926 479.662 140.133C478.799 142.352 477.246 142.422 477.246 142.422V134.815L477.574 128.51C477.574 128.51 473.526 122.983 473.082 118.454C472.509 112.625 473.737 110.24 473.737 110.24L480.095 105.362Z" fill="#263238"/>
<path d="M452.121 98.8243C459.205 98.847 464.93 104.609 464.907 111.694C464.884 118.779 459.122 124.504 452.037 124.48C444.952 124.457 439.227 118.695 439.25 111.61C439.275 104.525 445.037 98.8004 452.121 98.8243Z" fill="#263238"/>
<path d="M477.336 127.504C478.858 128.823 480.095 125.41 481.374 124.079C482.653 122.749 486.823 120.939 488.885 125.322C490.987 129.788 486.975 135.856 483.859 137.301C479.294 139.418 477.248 134.815 477.248 134.815V153.847C472.439 162.509 462.04 160.483 457.125 161.696C456.231 158.185 456.584 156.856 457.096 154.91L457.133 148.71C457.133 148.71 453.346 149.44 450.851 149.046C446.699 148.39 444.473 144.97 443.227 140.469C441.226 133.241 440.813 121.104 443.593 107.068C448.244 103.472 463.979 104.055 473.738 110.241C473.023 122.687 475.817 126.185 477.336 127.504Z" fill="#F5D1B7"/>
<path d="M457.133 148.707C457.133 148.707 466.412 146.869 469.659 145.157C471.832 144.011 473.625 142.017 474.155 140.738C474.155 140.738 473.538 143.487 471.592 145.959C469.211 148.982 457.125 151.175 457.125 151.175L457.133 148.707Z" fill="#F5D1B7"/>
<path d="M440.436 97.1449C440.453 96.9881 440.473 96.8325 440.495 96.6768C440.537 96.3883 440.597 96.0827 440.799 95.8725C441.425 95.2216 442.674 96.8541 443.12 97.2357C443.549 97.6004 443.987 97.9548 444.45 98.2752C444.598 98.3774 445.688 98.9102 445.699 99.0193C445.533 97.4754 445.305 95.8873 445.691 94.3423C445.874 93.3188 446.165 90.9491 447.431 90.6947C448.186 90.5436 448.843 91.174 449.405 91.7C454.481 96.4519 461.11 94.2526 467.227 94.448C472.342 94.6116 478.515 96.6927 480.824 101.667C481.881 103.943 482.062 106.341 479.973 107.914C478.625 108.93 477.306 108.882 476.552 110.506C476.366 110.905 475.197 115.747 475.887 115.698C473.279 115.882 470.788 114.347 470.187 111.803C470.062 111.273 469.776 110.31 469.659 109.766C469.488 108.963 468.822 108.747 468.199 108.881C466.648 109.215 465.636 109.85 464.166 110.252C460.191 111.341 455.328 111.83 451.288 111.012C448.256 110.397 445.326 108.939 443.196 106.669C440.871 104.186 440.071 100.482 440.436 97.1449Z" fill="#263238"/>
<path d="M479.781 130.978C479.781 132.503 481.018 133.74 482.544 133.74C484.07 133.74 485.307 132.503 485.307 130.978C485.307 129.452 484.07 128.215 482.544 128.215C481.018 128.216 479.781 129.452 479.781 130.978Z" fill="#263238"/>
<path d="M479.48 125.924C479.743 125.16 480.127 124.276 480.706 123.693C481.203 123.19 482.167 122.821 482.899 122.944C482.938 122.95 482.975 123.04 482.934 123.064C482.632 123.247 482.41 123.341 482.11 123.556C481.817 123.765 481.5 124.006 481.26 124.274C481.034 124.527 480.864 124.831 480.728 125.137C480.58 125.475 480.431 125.943 480.409 126.312C480.365 127.053 480.409 127.523 480.675 128.133C480.812 128.448 480.962 128.744 481.196 128.999C481.397 129.217 481.678 129.404 481.808 129.676C481.976 130.027 481.494 130.624 481.111 130.42C480.373 130.024 479.91 129.261 479.609 128.508C479.27 127.658 479.178 126.8 479.48 125.924Z" fill="#263238"/>
<path d="M440.112 163.668C436.269 166.18 430.97 169.456 429.675 173.008C428.38 176.56 424.642 197.185 424.227 203.828C424.227 203.828 429.817 206.55 435.023 206.872L440.112 163.668Z" fill="url(#paint12_linear_4372_27813)"/>
<path d="M485.472 153.842C495.199 159.172 504.834 167.152 506.851 170.221C506.851 170.221 501.158 189.161 496.162 198.144C491.166 207.126 488.476 233.701 488.476 233.701C488.476 233.701 454.212 245.073 443.473 245.958C432.735 246.843 431.372 242.286 431.372 242.286C431.372 242.286 431.149 212.585 433.614 192.755C436.079 172.927 435.569 167.036 440.112 163.668C443.049 161.49 455.727 155.996 455.727 155.996C455.727 155.996 455.727 158.593 455.727 161.696C462.697 161.807 485.472 153.842 485.472 153.842Z" fill="url(#paint13_linear_4372_27813)"/>
<path d="M453.093 164.736C453.093 164.736 452.164 163.136 452.364 160.595L455.226 158.514L455.275 162.124L453.093 164.736Z" fill="#ED7136"/>
<path opacity="0.25" d="M453.093 164.736C453.093 164.736 452.164 163.136 452.364 160.595L455.226 158.514L455.275 162.124L453.093 164.736Z" fill="black"/>
<path d="M458.656 162.532L466.071 158.303L471.628 162.714L460.385 167.381L458.656 162.532Z" fill="#ED7136"/>
<path opacity="0.25" d="M458.656 162.532L466.071 158.303L471.628 162.714L460.385 167.381L458.656 162.532Z" fill="black"/>
<path d="M477.252 145.795V147.289C476.968 148.712 474.172 152.002 467.119 155.168C459.939 158.39 457.129 161.696 457.129 161.696C457.129 161.696 459.801 161.684 462.721 162.73C465.932 163.88 471.269 167.953 472.792 167.914C474.275 167.876 476.414 163.666 480.41 159.476C483.768 155.954 485.473 153.841 485.473 153.841C485.473 153.841 479.992 145.826 477.252 145.795Z" fill="url(#paint14_linear_4372_27813)"/>
<path d="M457.128 161.696C454.576 161.984 452.18 163.755 451.555 162.818C450.931 161.881 453.098 153.344 457.11 150.748L457.128 161.696Z" fill="url(#paint15_linear_4372_27813)"/>
<path d="M432.365 206.521C432.365 206.521 432.052 211.83 431.97 213.643C431.888 215.456 434.932 246.613 434.932 246.613L424.223 251.139C424.223 251.139 422.933 239.144 422.511 232.457C422.09 225.771 422.592 217.541 423.434 211.858C424.276 206.173 424.588 203.998 424.588 203.998C427.463 205.327 430.103 205.978 432.365 206.521Z" fill="#F5D1B7"/>
<path d="M425.084 266.341C425.084 266.341 425.071 266.823 425.093 268.636C425.115 270.449 426.207 275.801 426.878 277.478C427.549 279.155 429.178 282.845 429.994 283.277C430.948 283.782 431.59 283.837 432.608 283.743C434.305 283.585 436.076 284.458 437.676 283.69C438.302 283.39 438.892 282.989 439.567 282.828C440.565 282.59 441.7 282.886 442.584 282.365C443.149 282.032 443.502 281.418 444.062 281.078C444.881 280.579 445.958 280.761 446.83 280.361C447.531 280.039 448.027 279.363 448.271 278.632C448.773 277.131 448.283 275.446 447.977 273.946C447.977 273.946 448.696 273.131 448.743 271.406C448.791 269.68 448.456 266.756 448.072 265.654C447.689 264.552 439.923 260.095 439.923 260.095L438.39 259.088C438.39 259.088 433.357 257.746 428.852 260.622C424.347 263.499 425.084 266.341 425.084 266.341Z" fill="#F5D1B7"/>
<path d="M427.185 266.13C425.133 269.552 426.339 275.679 426.347 275.752C425.7 273.419 425.11 270.028 425.093 268.637C425.071 266.824 425.084 266.343 425.084 266.343C425.084 266.343 424.347 263.5 428.852 260.624C433.357 257.748 438.39 259.09 438.39 259.09C438.39 259.09 429.25 262.689 427.185 266.13Z" fill="#F5D1B7"/>
<path d="M447.978 273.948C447.355 271.84 445.533 268.653 444.671 267.85C443.808 267.047 443.089 266.041 443.952 266.376C444.814 266.711 446.012 266.914 446.492 266.31C446.971 265.705 447.067 266.76 446.539 267.574C446.012 268.389 446.444 269.012 447.066 270.354C447.69 271.696 447.839 273.191 447.978 273.948Z" fill="#F5D1B7"/>
<path d="M503.879 170.596C507.118 171.71 507.551 180.589 506.849 188.535C506.147 196.482 499.946 215.292 497.117 221.838C493.943 229.181 492.019 233.426 489.91 235.733C487.799 238.04 483.38 239.928 477.726 242.859C472.605 245.514 469.107 246.851 460.391 249.557C450.554 252.61 446.779 252.798 444.669 254.259C442.558 255.72 441.983 258.909 439.927 260.097L438.393 259.09C435.72 259.629 431.252 261.411 428.609 263.173C426.104 264.843 425.086 266.342 425.086 266.342L425.095 268.637C425.095 268.637 422.603 269.691 420.492 265.214C418.382 260.737 417.408 254.083 419.843 251.16C422.277 248.238 429.97 244.286 436.188 242.284C442.407 240.282 445.539 238.285 452.833 233.877C460.603 229.18 465.994 226.059 469.833 223.948C471.307 223.101 472.294 222.061 472.951 219.353C473.47 217.209 475.033 210.892 475.988 206.148C477.576 198.268 480.995 174.255 503.879 170.596Z" fill="#F5D1B7"/>
<path d="M506.848 170.219C506.848 170.219 508.356 170.484 508.566 176.769C508.776 183.056 508.526 189.763 507.707 194.591C506.888 199.42 502.062 213.686 502.062 213.686C502.062 213.686 488.122 218.258 473.855 212.803C473.855 212.803 477.212 192.243 478.471 186.789C479.73 181.334 497.367 164.515 506.848 170.219Z" fill="url(#paint16_linear_4372_27813)"/>
<path d="M457.527 170.628C456.733 175.735 455.632 187.883 455.632 205.024C455.632 209.227 449.5 217.755 448.057 217.574C446.614 217.393 443.969 209.372 443.594 204.718C444.175 193.45 450.988 175.965 453.964 169.994L457.527 170.628Z" fill="white"/>
<path opacity="0.15" d="M453.738 170.481C453.814 170.312 453.891 170.144 453.964 169.996L457.527 170.63L457.313 172.127C455.85 172.045 454.21 171.033 453.738 170.481Z" fill="black"/>
<path d="M458.653 162.531C457.124 162.121 455.272 162.121 455.272 162.121C455.272 162.121 453.935 163.088 453.091 164.734C453.091 164.734 452.903 167.9 453.961 169.995C453.961 169.995 455.277 171.103 457.524 170.629C457.524 170.629 459.655 169.342 460.381 167.38C460.613 165.662 459.414 163.088 458.653 162.531Z" fill="white"/>
<defs>
<linearGradient id="paint0_linear_4372_27813" x1="184.151" y1="87.5566" x2="184.151" y2="379.315" gradientUnits="userSpaceOnUse">
<stop stop-color="#EEA07B"/>
<stop offset="1" stop-color="#9C5A76"/>
</linearGradient>
<linearGradient id="paint1_linear_4372_27813" x1="202.194" y1="273.951" x2="202.194" y2="401.25" gradientUnits="userSpaceOnUse">
<stop stop-color="#EEA07B"/>
<stop offset="1" stop-color="#9C5A76"/>
</linearGradient>
<linearGradient id="paint2_linear_4372_27813" x1="251.431" y1="288.166" x2="251.431" y2="443.757" gradientUnits="userSpaceOnUse">
<stop stop-color="#EEA07B"/>
<stop offset="1" stop-color="#9C5A76"/>
</linearGradient>
<linearGradient id="paint3_linear_4372_27813" x1="124.81" y1="355.559" x2="381.62" y2="364.268" gradientUnits="userSpaceOnUse">
<stop stop-color="#FB8D48"/>
<stop offset="0.2" stop-color="#ED7136"/>
<stop offset="0.3999" stop-color="#C54E47"/>
<stop offset="0.4" stop-color="#C14F49"/>
<stop offset="0.6" stop-color="#9D3863"/>
<stop offset="0.8" stop-color="#5E1F72"/>
</linearGradient>
<linearGradient id="paint4_linear_4372_27813" x1="308.118" y1="375.639" x2="308.118" y2="433.221" gradientUnits="userSpaceOnUse">
<stop stop-color="#EEA07B"/>
<stop offset="1" stop-color="#9C5A76"/>
</linearGradient>
<linearGradient id="paint5_linear_4372_27813" x1="196.809" y1="157.304" x2="249.876" y2="159.781" gradientUnits="userSpaceOnUse">
<stop stop-color="#FB8D48"/>
<stop offset="0.2" stop-color="#ED7136"/>
<stop offset="0.3999" stop-color="#C54E47"/>
<stop offset="0.4" stop-color="#C14F49"/>
<stop offset="0.6" stop-color="#9D3863"/>
<stop offset="0.8" stop-color="#5E1F72"/>
</linearGradient>
<linearGradient id="paint6_linear_4372_27813" x1="147.83" y1="177.733" x2="206.608" y2="179.05" gradientUnits="userSpaceOnUse">
<stop stop-color="#FB8D48"/>
<stop offset="0.2" stop-color="#ED7136"/>
<stop offset="0.3999" stop-color="#C54E47"/>
<stop offset="0.4" stop-color="#C14F49"/>
<stop offset="0.6" stop-color="#9D3863"/>
<stop offset="0.8" stop-color="#5E1F72"/>
</linearGradient>
<linearGradient id="paint7_linear_4372_27813" x1="136.958" y1="213.76" x2="163.141" y2="214.122" gradientUnits="userSpaceOnUse">
<stop stop-color="#FB8D48"/>
<stop offset="0.2" stop-color="#ED7136"/>
<stop offset="0.3999" stop-color="#C54E47"/>
<stop offset="0.4" stop-color="#C14F49"/>
<stop offset="0.6" stop-color="#9D3863"/>
<stop offset="0.8" stop-color="#5E1F72"/>
</linearGradient>
<linearGradient id="paint8_linear_4372_27813" x1="135.733" y1="274.89" x2="168.432" y2="275.073" gradientUnits="userSpaceOnUse">
<stop stop-color="#FB8D48"/>
<stop offset="0.2" stop-color="#ED7136"/>
<stop offset="0.3999" stop-color="#C54E47"/>
<stop offset="0.4" stop-color="#C14F49"/>
<stop offset="0.6" stop-color="#9D3863"/>
<stop offset="0.8" stop-color="#5E1F72"/>
</linearGradient>
<linearGradient id="paint9_linear_4372_27813" x1="153.327" y1="239.213" x2="261.814" y2="240.425" gradientUnits="userSpaceOnUse">
<stop stop-color="#FB8D48"/>
<stop offset="0.2" stop-color="#ED7136"/>
<stop offset="0.3999" stop-color="#C54E47"/>
<stop offset="0.4" stop-color="#C14F49"/>
<stop offset="0.6" stop-color="#9D3863"/>
<stop offset="0.8" stop-color="#5E1F72"/>
</linearGradient>
<linearGradient id="paint10_linear_4372_27813" x1="160.087" y1="242.087" x2="254.762" y2="243.103" gradientUnits="userSpaceOnUse">
<stop stop-color="#FB8D48"/>
<stop offset="0.2" stop-color="#ED7136"/>
<stop offset="0.3999" stop-color="#C54E47"/>
<stop offset="0.4" stop-color="#C14F49"/>
<stop offset="0.6" stop-color="#9D3863"/>
<stop offset="0.8" stop-color="#5E1F72"/>
</linearGradient>
<linearGradient id="paint11_linear_4372_27813" x1="168.497" y1="335.33" x2="203.183" y2="337.77" gradientUnits="userSpaceOnUse">
<stop stop-color="#FB8D48"/>
<stop offset="0.2" stop-color="#ED7136"/>
<stop offset="0.3999" stop-color="#C54E47"/>
<stop offset="0.4" stop-color="#C14F49"/>
<stop offset="0.6" stop-color="#9D3863"/>
<stop offset="0.8" stop-color="#5E1F72"/>
</linearGradient>
<linearGradient id="paint12_linear_4372_27813" x1="424.503" y1="182.27" x2="440.171" y2="182.382" gradientUnits="userSpaceOnUse">
<stop stop-color="#FB8D48"/>
<stop offset="0.2" stop-color="#ED7136"/>
<stop offset="0.3999" stop-color="#C54E47"/>
<stop offset="0.4" stop-color="#C14F49"/>
<stop offset="0.6" stop-color="#9D3863"/>
<stop offset="0.8" stop-color="#5E1F72"/>
</linearGradient>
<linearGradient id="paint13_linear_4372_27813" x1="432.68" y1="193.552" x2="507.116" y2="194.733" gradientUnits="userSpaceOnUse">
<stop stop-color="#FB8D48"/>
<stop offset="0.2" stop-color="#ED7136"/>
<stop offset="0.3999" stop-color="#C54E47"/>
<stop offset="0.4" stop-color="#C14F49"/>
<stop offset="0.6" stop-color="#9D3863"/>
<stop offset="0.8" stop-color="#5E1F72"/>
</linearGradient>
<linearGradient id="paint14_linear_4372_27813" x1="457.622" y1="155.319" x2="485.563" y2="156.013" gradientUnits="userSpaceOnUse">
<stop stop-color="#FB8D48"/>
<stop offset="0.2" stop-color="#ED7136"/>
<stop offset="0.3999" stop-color="#C54E47"/>
<stop offset="0.4" stop-color="#C14F49"/>
<stop offset="0.6" stop-color="#9D3863"/>
<stop offset="0.8" stop-color="#5E1F72"/>
</linearGradient>
<linearGradient id="paint15_linear_4372_27813" x1="451.548" y1="156.062" x2="457.148" y2="156.112" gradientUnits="userSpaceOnUse">
<stop stop-color="#FB8D48"/>
<stop offset="0.2" stop-color="#ED7136"/>
<stop offset="0.3999" stop-color="#C54E47"/>
<stop offset="0.4" stop-color="#C14F49"/>
<stop offset="0.6" stop-color="#9D3863"/>
<stop offset="0.8" stop-color="#5E1F72"/>
</linearGradient>
<linearGradient id="paint16_linear_4372_27813" x1="474.46" y1="189.043" x2="508.761" y2="189.542" gradientUnits="userSpaceOnUse">
<stop stop-color="#FB8D48"/>
<stop offset="0.2" stop-color="#ED7136"/>
<stop offset="0.3999" stop-color="#C54E47"/>
<stop offset="0.4" stop-color="#C14F49"/>
<stop offset="0.6" stop-color="#9D3863"/>
<stop offset="0.8" stop-color="#5E1F72"/>
</linearGradient>
</defs>
</svg>
