<svg width="35" height="36" viewBox="0 0 35 36" fill="none" xmlns="http://www.w3.org/2000/svg">
<path d="M29.1641 6.44336H5.83073C4.22656 6.44336 2.92865 7.75586 2.92865 9.36003L2.91406 26.86C2.91406 28.4642 4.22656 29.7767 5.83073 29.7767H29.1641C30.7682 29.7767 32.0807 28.4642 32.0807 26.86V9.36003C32.0807 7.75586 30.7682 6.44336 29.1641 6.44336ZM28.5807 12.6413L18.2703 19.0871C17.8036 19.3788 17.1911 19.3788 16.7245 19.0871L6.41406 12.6413C6.26783 12.5592 6.13978 12.4483 6.03765 12.3153C5.93552 12.1823 5.86144 12.0299 5.8199 11.8674C5.77836 11.705 5.77021 11.5358 5.79596 11.3701C5.8217 11.2043 5.8808 11.0456 5.96968 10.9034C6.05856 10.7612 6.17537 10.6385 6.31304 10.5427C6.45071 10.447 6.60637 10.3801 6.77062 10.3463C6.93486 10.3124 7.10427 10.3123 7.26858 10.3458C7.43289 10.3793 7.5887 10.4458 7.72656 10.5413L17.4974 16.6517L27.2682 10.5413C27.4061 10.4458 27.5619 10.3793 27.7262 10.3458C27.8905 10.3123 28.0599 10.3124 28.2242 10.3463C28.3884 10.3801 28.5441 10.447 28.6818 10.5427C28.8194 10.6385 28.9362 10.7612 29.0251 10.9034C29.114 11.0456 29.1731 11.2043 29.1988 11.3701C29.2246 11.5358 29.2164 11.705 29.1749 11.8674C29.1333 12.0299 29.0593 12.1823 28.9571 12.3153C28.855 12.4483 28.727 12.5592 28.5807 12.6413Z" fill="#FB8D48"/>
</svg>
