<svg width="90" height="91" viewBox="0 0 90 91" fill="none" xmlns="http://www.w3.org/2000/svg">
<path d="M82.1074 32.1155C83.9795 30.1679 87.2703 31.493 87.2703 34.1944V74.2187C87.2703 76.8914 84.0389 78.2299 82.149 76.34L62.5329 56.7239C61.3777 55.5687 61.3592 53.7015 62.4913 52.5236L82.1074 32.1155Z" fill="#FB8D48"/>
<path d="M80.2256 78.267C82.1155 80.1569 80.777 83.3883 78.1042 83.3883H11.8989C9.22617 83.3883 7.88768 80.1569 9.77757 78.267L29.2689 58.7757C30.4564 57.5882 32.3873 57.6067 33.5518 58.8167L36.4656 61.8445C38.7156 64.193 41.7531 65.4867 45.0016 65.4867C48.2641 65.4867 51.2875 64.193 53.5516 61.8445L56.4515 58.8228C57.6154 57.6099 59.5486 57.59 60.7373 58.7787L80.2256 78.267Z" fill="#FB8D48"/>
<path d="M28.1856 53.2309C28.9401 54.0162 28.9276 55.2607 28.1576 56.0307L6.14078 78.0475C4.88085 79.3074 2.72656 78.4151 2.72656 76.6333V31.6991C2.72656 29.8979 4.92097 29.0146 6.16883 30.3135L28.1856 53.2309Z" fill="#FB8D48"/>
<path d="M52.1181 31.3285C53.8172 31.3285 54.7424 33.3132 53.6499 34.6145L46.5366 43.0873C45.737 44.0397 44.2713 44.0392 43.4723 43.0863L36.3678 34.6136C35.2765 33.312 36.2018 31.3285 37.9004 31.3285H39.5336C40.293 31.3285 40.8977 30.7098 40.8977 29.9645V9.83008C40.8977 8.72551 41.7931 7.83008 42.8977 7.83008H47.1242C48.2288 7.83008 49.1242 8.72551 49.1242 9.83008V29.9645C49.1242 30.7098 49.7289 31.3285 50.4883 31.3285H52.1181Z" fill="#FFCF65"/>
<path d="M80.735 24.7188C82.4975 24.7188 83.3983 26.8333 82.1772 28.1043L57.6046 53.6827C57.6017 53.6858 57.594 53.6877 57.5908 53.6905C57.5842 53.6961 57.5768 53.7013 57.5732 53.7091C57.5731 53.7092 57.5731 53.7093 57.573 53.7094C57.5714 53.7131 57.5703 53.7173 57.5674 53.7202L51.5812 59.9594C49.8375 61.7594 47.5031 62.7578 45 62.7578C42.4969 62.7578 40.1625 61.7594 38.4328 59.9594L32.4141 53.7016L7.82284 28.1043C6.60176 26.8333 7.50257 24.7188 9.26511 24.7188H36.225C37.2968 24.7188 38.1656 25.5876 38.1656 26.6594C38.1656 27.7312 37.2968 28.6 36.225 28.6H30.6844C30.15 28.6 29.6719 28.8953 29.4469 29.3875C29.2219 29.8656 29.3062 30.4281 29.6437 30.8359L43.9594 47.9078C44.2125 48.2172 44.6063 48.4 45 48.4C45.4078 48.4 45.7875 48.2172 46.0547 47.9078L60.3703 30.8359C60.7078 30.4281 60.7781 29.8656 60.5531 29.3875C60.3281 28.8953 59.85 28.6 59.3156 28.6H53.775C52.7032 28.6 51.8344 27.7312 51.8344 26.6594C51.8344 25.5876 52.7032 24.7188 53.775 24.7188H80.735Z" fill="#FB8D48"/>
<path d="M53.12 31.334C54.4193 31.334 55.1267 32.8516 54.2913 33.8466L46.5288 43.0927C45.7292 44.0451 44.2635 44.0447 43.4645 43.0918L35.7057 33.8387C34.8736 32.8463 35.5791 31.334 36.8742 31.334C37.3249 31.334 37.7525 31.5333 38.0422 31.8786L43.4642 38.3386C44.2634 39.2909 45.7287 39.2909 46.528 38.3386L51.9486 31.8801C52.2392 31.5339 52.6681 31.334 53.12 31.334Z" fill="#F5B643"/>
</svg>
