<svg width="505" height="300" viewBox="0 0 505 300" fill="none" xmlns="http://www.w3.org/2000/svg">
<g clip-path="url(#clip0_1391_349640)">
<path d="M505 140.039V299.999H0V124.617H19.174V155.765H50.3416V116.679H74.9405V133.123H87.7293L98.8055 121.702H111.399V83.8086H146.627V140.039H182.627V153.588H196.584V133.136H249.788V155.765H270.136V124.617H301.175V171.099H302.985V108.482H330.33V124.617H353.535V155.765H384.69V116.679H409.289V133.123H422.09L433.166 121.702H445.759V83.8086H480.976V140.039H505Z" fill="url(#paint0_linear_1391_349640)" fill-opacity="0.12"/>
<path d="M128.082 89.1637C128.082 89.1637 160.614 74.74 173.178 94.2892C185.742 113.838 168.141 112.622 168.141 112.622C168.141 112.622 167.164 121.66 150.546 100.27C142.715 90.1875 128.082 89.1652 128.082 89.1652V89.1637Z" fill="#BBD070"/>
<path d="M122.406 33.4363C122.406 33.4363 151.283 24.1949 170.297 61.9872C189.31 99.7794 206.403 102.766 206.403 102.766C206.403 102.766 141.089 114.858 122.406 33.4363Z" fill="#97A43C"/>
<path d="M194.397 104.947C191.868 117.511 163.994 93.2829 161.249 71.5566C158.505 49.8303 163.971 33.8874 158.43 19.9512C158.43 19.9512 206.851 43.0768 194.398 104.947H194.397Z" fill="#48753A"/>
<path d="M201.934 42.0084C200.785 42.0084 199.686 42.1835 198.672 42.5022C197.338 39.1609 194.02 36.793 190.139 36.793C185.824 36.793 182.206 39.7178 181.235 43.6554C180.489 43.3651 179.677 43.2042 178.827 43.2042C175.235 43.2042 172.324 46.0596 172.324 49.5823H211.097C211.097 45.3986 206.995 42.0068 201.935 42.0068L201.934 42.0084Z" fill="#EBEBEB"/>
<path d="M144.484 67.2059C143.608 67.2059 142.77 67.3385 141.998 67.583C140.979 65.0352 138.45 63.2305 135.49 63.2305C132.2 63.2305 129.441 65.4612 128.701 68.4633C128.132 68.2424 127.513 68.1194 126.865 68.1194C124.126 68.1194 121.906 70.2964 121.906 72.983H151.47C151.47 69.7932 148.342 67.2075 144.484 67.2075V67.2059Z" fill="#EBEBEB"/>
<path d="M227.638 82.3242H195.267C193.232 82.3242 191.582 84.0264 191.582 86.1262V86.9844C191.582 89.0841 193.232 90.7863 195.267 90.7863H227.638C229.673 90.7863 231.323 89.0841 231.323 86.9844V86.1262C231.323 84.0264 229.673 82.3242 227.638 82.3242Z" fill="url(#paint1_linear_1391_349640)"/>
<path d="M267.14 85.4668H299.513C301.547 85.4668 303.198 87.1706 303.198 89.2687V90.1285C303.198 92.2267 301.547 93.9304 299.513 93.9304H267.142C265.108 93.9304 263.457 92.2267 263.457 90.1285V89.2687C263.457 87.1706 265.108 85.4684 267.14 85.4684V85.4668Z" fill="url(#paint2_linear_1391_349640)"/>
<path d="M371.126 176.08L350.435 185.785L329.755 195.485L302.674 208.191L245.296 235.108L181.695 185.14L160.065 168.146L142.709 154.516L125.078 140.663C140.998 87.7832 188.803 49.3789 245.298 49.3789C313.789 49.3789 369.505 105.818 371.129 176.081L371.126 176.08Z" fill="url(#paint3_linear_1391_349640)"/>
<path d="M350.622 179.24C350.622 181.439 350.558 183.622 350.433 185.782L329.753 195.482L302.672 208.188L245.294 235.105L181.693 185.137L160.063 168.143L142.707 154.513C153.554 106.41 195.368 70.5625 245.295 70.5625C303.467 70.5625 350.625 119.223 350.625 179.241L350.622 179.24Z" fill="white"/>
<path d="M331.192 179.242C331.192 184.789 330.695 190.222 329.752 195.485L302.672 208.19L245.293 235.107L181.692 185.139L160.062 168.145C165.351 124.429 201.493 90.6094 245.293 90.6094C292.736 90.6094 331.194 130.293 331.194 179.244L331.192 179.242Z" fill="url(#paint4_linear_1391_349640)"/>
<path d="M309.157 179.241C309.157 189.626 306.825 199.452 302.675 208.189L245.297 235.106L181.696 185.138C181.523 183.194 181.438 181.228 181.438 179.241C181.438 142.848 210.03 113.354 245.297 113.354C280.564 113.354 309.157 142.848 309.157 179.241Z" fill="white"/>
<path d="M266.153 200.758C277.672 188.873 277.672 169.604 266.153 157.719C254.634 145.834 235.958 145.834 224.439 157.719C212.92 169.604 212.92 188.873 224.439 200.758C235.958 212.642 254.634 212.642 266.153 200.758Z" fill="url(#paint5_linear_1391_349640)"/>
<path d="M218.509 13.7352H193.494C192.771 13.7352 192.184 13.1294 192.184 12.3832C192.184 11.637 192.771 11.0312 193.494 11.0312H218.509C219.232 11.0312 219.819 11.6355 219.819 12.3832C219.819 13.1294 219.232 13.7352 218.509 13.7352Z" fill="url(#paint6_linear_1391_349640)"/>
<path d="M214.847 19.7606H193.494C192.771 19.7606 192.184 19.1548 192.184 18.4086C192.184 17.6624 192.771 17.0566 193.494 17.0566H214.847C215.57 17.0566 216.157 17.6624 216.157 18.4086C216.157 19.1548 215.57 19.7606 214.847 19.7606Z" fill="url(#paint7_linear_1391_349640)"/>
<path d="M229.411 25.7899H193.494C192.771 25.7899 192.184 25.1841 192.184 24.4379C192.184 23.6917 192.771 23.0859 193.494 23.0859H229.411C230.134 23.0859 230.721 23.6917 230.721 24.4379C230.721 25.1841 230.135 25.7899 229.411 25.7899Z" fill="url(#paint8_linear_1391_349640)"/>
<path d="M354.146 192.666H370.348C371.033 192.666 371.588 193.239 371.588 193.945V196.526C371.588 197.231 371.033 197.806 370.348 197.806H354.146C353.461 197.806 352.906 197.233 352.906 196.526V193.945C352.906 193.239 353.461 192.666 354.146 192.666Z" fill="url(#paint9_linear_1391_349640)"/>
<path d="M354.146 202.287H370.348C371.033 202.287 371.588 202.86 371.588 203.567V206.147C371.588 206.853 371.033 207.427 370.348 207.427H354.146C353.461 207.427 352.906 206.854 352.906 206.147V203.567C352.906 202.86 353.461 202.287 354.146 202.287Z" fill="url(#paint10_linear_1391_349640)"/>
<path d="M354.144 211.91H370.344C371.029 211.91 371.584 212.483 371.584 213.19V215.77C371.584 216.477 371.029 217.05 370.344 217.05H354.142C353.457 217.05 352.902 216.477 352.902 215.77V213.19C352.902 212.483 353.457 211.91 354.142 211.91H354.144Z" fill="url(#paint11_linear_1391_349640)"/>
<path opacity="0.18" d="M326.933 64.1602H351.69C353.63 64.1602 355.205 65.7851 355.205 67.787V93.3294C355.205 95.3313 353.63 96.9562 351.69 96.9562H326.933C324.993 96.9562 323.418 95.3313 323.418 93.3294V67.787C323.418 65.7851 324.993 64.1602 326.933 64.1602Z" fill="url(#paint12_linear_1391_349640)"/>
<path d="M349.984 76.6218C348.287 71.7266 343.751 68.7197 338.972 68.8665C337.814 68.9027 336.643 69.1236 335.493 69.548C332.012 70.8321 329.515 73.6938 328.49 77.0746C327.779 79.4172 327.775 82.0092 328.639 84.4986C328.724 84.7463 328.817 84.9892 328.918 85.2274C329.373 86.3065 329.967 87.2814 330.675 88.138C333.642 91.7365 338.564 93.2557 343.129 91.5724C349.024 89.3969 352.092 82.7033 349.985 76.6218H349.984ZM342.172 88.8164C338.749 90.08 335.059 88.9394 332.834 86.2418C332.304 85.5997 331.857 84.8677 331.518 84.0585C331.443 83.8802 331.373 83.6972 331.308 83.5126C330.662 81.6463 330.665 79.7028 331.198 77.9469C331.967 75.4118 333.839 73.2679 336.449 72.304C337.31 71.9853 338.189 71.8212 339.056 71.7929C342.638 71.6808 346.039 73.9352 347.313 77.6062C348.894 82.1654 346.592 87.1836 342.172 88.8148V88.8164Z" fill="url(#paint13_linear_1391_349640)"/>
<path d="M331.2 77.9457L328.492 77.0733C329.518 73.6926 332.013 70.8325 335.495 69.5467C336.645 69.1224 337.816 68.9015 338.974 68.8652L339.058 71.7916C338.191 71.8184 337.312 71.9841 336.451 72.3028C333.841 73.2651 331.969 75.4106 331.2 77.9457Z" fill="#15456E"/>
<path d="M331.522 84.0597L328.921 85.2271C328.822 84.9889 328.727 84.7459 328.641 84.4983C327.779 82.0089 327.784 79.4169 328.493 77.0742L331.201 77.9466C330.669 79.7024 330.664 81.646 331.311 83.5123C331.375 83.6984 331.446 83.8799 331.521 84.0581L331.522 84.0597Z" fill="#1B5C91"/>
<path d="M330.671 88.1386C329.963 87.2819 329.368 86.3054 328.914 85.228L331.515 84.0605C331.854 84.8698 332.302 85.6003 332.831 86.2439L330.669 88.1401L330.671 88.1386Z" fill="#2273B5"/>
<path d="M144.156 117.342H165.312V133.162V136.495L162.083 133.162H144.156V117.342Z" fill="url(#paint14_linear_1391_349640)"/>
<path d="M218.902 85.3293C213.108 82.5007 206.408 84.0041 202.24 88.5727C201.231 89.6786 200.37 90.9643 199.705 92.4125C197.694 96.7982 197.942 101.689 199.966 105.68C201.368 108.447 203.624 110.782 206.57 112.219C206.862 112.362 207.159 112.495 207.457 112.616C208.806 113.165 210.191 113.489 211.575 113.604C217.379 114.088 223.129 110.887 225.767 105.137C229.172 97.7116 226.097 88.8441 218.902 85.3308V85.3293ZM222.506 103.544C220.529 107.857 216.217 110.255 211.865 109.892C210.828 109.805 209.789 109.562 208.778 109.151C208.555 109.059 208.333 108.961 208.113 108.854C205.904 107.775 204.214 106.025 203.162 103.951C201.644 100.958 201.457 97.292 202.965 94.0043C203.462 92.9189 204.108 91.955 204.865 91.1252C207.991 87.7003 213.013 86.5724 217.357 88.6926C222.753 91.3272 225.058 97.975 222.506 103.542V103.544Z" fill="url(#paint15_linear_1391_349640)"/>
<path d="M203.162 103.952L199.966 105.679C197.942 101.688 197.694 96.7977 199.705 92.4121C200.368 90.9639 201.229 89.6781 202.24 88.5723L204.867 91.1248C204.11 91.9546 203.465 92.9185 202.966 94.0038C201.459 97.2915 201.645 100.958 203.163 103.95L203.162 103.952Z" fill="#FFAD5B"/>
<path d="M208.777 109.153L207.456 112.617C207.159 112.496 206.862 112.363 206.569 112.22C203.622 110.781 201.367 108.446 199.965 105.681L203.16 103.953C204.212 106.026 205.902 107.777 208.111 108.856C208.332 108.963 208.553 109.063 208.777 109.153Z" fill="#FFAD5B"/>
<path d="M290.554 160.303H275.434V163.067H290.554V160.303Z" fill="url(#paint16_linear_1391_349640)"/>
<path d="M290.554 155.506H275.434V158.27H290.554V155.506Z" fill="url(#paint17_linear_1391_349640)"/>
<path d="M290.554 150.709H275.434V153.473H290.554V150.709Z" fill="url(#paint18_linear_1391_349640)"/>
<path d="M197.096 125.205H189.703V127.261H197.096V125.205Z" fill="#D8E7FF"/>
<path d="M197.096 129.314H189.703V131.37H197.096V129.314Z" fill="#D8E7FF"/>
<path d="M197.096 121.094H189.703V123.149H197.096V121.094Z" fill="#D8E7FF"/>
<path d="M152.628 169.992L152.258 170.494L212.554 217.869L212.925 217.367L152.628 169.992Z" fill="url(#paint19_linear_1391_349640)"/>
<path d="M300.461 215.123L255.516 236.217L255.769 236.791L300.714 215.697L300.461 215.123Z" fill="url(#paint20_linear_1391_349640)"/>
<path d="M372.024 159.168L377.268 144.229L346.059 148.729L339.309 163.885L372.024 159.168Z" fill="url(#paint21_linear_1391_349640)"/>
<path d="M350.367 180.857L341.395 168.045L372.619 163.543L383.096 176.244L350.367 180.857Z" fill="url(#paint22_linear_1391_349640)"/>
<path d="M265.215 179.031L372.618 163.543L372.025 159.168L264.573 174.663C263.421 174.851 262.623 175.958 262.787 177.154C262.949 178.348 264.01 179.181 265.166 179.036V179.039L265.194 179.036C265.197 179.036 265.201 179.036 265.204 179.036C265.209 179.036 265.212 179.034 265.215 179.033V179.031Z" fill="url(#paint23_linear_1391_349640)"/>
<path d="M278.103 175.966C278.103 175.966 276.569 175.673 275.791 174.859C275.014 174.045 272.929 173.455 272.259 173.474C271.589 173.493 266.663 173.387 266.247 173.657C265.831 173.927 266.182 174.539 266.673 174.534C267.166 174.529 271.719 174.894 271.719 174.894C271.719 174.894 266.664 174.782 266.323 175.094C265.982 175.406 265.985 176.055 266.675 176.28C266.675 176.28 266.157 177.352 267.395 177.445L269.864 177.639C269.864 177.639 268.556 177.776 269.392 178.331C269.837 178.626 272.664 178.498 273.221 178.659C273.777 178.819 277.195 178.732 277.195 178.732L278.101 175.97L278.103 175.966Z" fill="#E4897B"/>
<path d="M284.41 272.398C284.41 277.434 299.517 281.515 318.151 281.515C336.785 281.515 351.892 277.434 351.892 272.398C351.892 267.362 336.785 263.281 318.151 263.281C299.517 263.281 284.41 267.362 284.41 272.398Z" fill="#D4EBFE"/>
<path d="M318.15 278.72C335.659 278.72 349.852 274.885 349.852 270.154C349.852 265.423 335.659 261.588 318.15 261.588C300.642 261.588 286.449 265.423 286.449 270.154C286.449 274.885 300.642 278.72 318.15 278.72Z" fill="#7AC6FF"/>
<path d="M328.622 164.949C328.622 164.949 329.544 178.276 327.019 179.871C325.438 180.87 319.134 184.241 319.32 184.872C319.507 185.505 322.88 190.495 322.88 190.495C322.88 190.495 334.988 182.268 335.38 179.674C335.762 177.141 334.783 160.161 333.12 159.379C331.874 158.793 331.215 159.278 329.644 160.481C327.44 162.171 328.623 164.948 328.623 164.948L328.622 164.949Z" fill="url(#paint24_linear_1391_349640)"/>
<path d="M330.029 261.936C330.029 261.936 330.405 264.632 330.452 265.037C330.5 265.443 334.64 264.799 334.64 264.799L334.975 261.589C334.975 261.589 330.546 261.555 330.027 261.936H330.029Z" fill="#424773"/>
<path d="M330.413 264.697C330.413 264.697 329.101 266.322 327.832 267.03C326.563 267.738 324.569 268.019 323.818 268.753C323.277 269.281 321.844 271.561 327.116 271.513C332.387 271.468 334.93 271.835 335.494 270.961C336.058 270.087 334.677 264.514 334.677 264.514C334.677 264.514 333.428 264.977 330.415 264.697H330.413Z" fill="#292C47"/>
<path d="M309.301 261.936C309.301 261.936 309.677 264.632 309.724 265.037C309.772 265.443 313.914 264.799 313.914 264.799L314.249 261.589C314.249 261.589 309.819 261.555 309.301 261.936Z" fill="#424773"/>
<path d="M309.681 264.697C309.681 264.697 308.369 266.322 307.1 267.03C305.831 267.738 301.16 268.32 300.409 269.052C299.868 269.582 298.966 271.712 306.383 271.513C311.652 271.371 314.196 271.835 314.76 270.961C315.325 270.087 313.944 264.514 313.944 264.514C313.944 264.514 312.768 265.009 309.681 264.697Z" fill="#292C47"/>
<path d="M328.546 192.646C328.546 192.646 332.437 199.026 332.147 204.792C331.856 210.558 332.494 216.719 333.078 222.742C333.729 229.457 335.506 243.433 335.602 247.025C335.698 250.617 335.475 264.134 335.475 264.134L328.725 264.082C328.725 264.082 326.329 236.776 325.168 233.939C324.008 231.103 319.24 210.588 319.046 208.32C318.852 206.051 328.546 192.646 328.546 192.646Z" fill="#455A64"/>
<path d="M308.058 193.511C308.058 193.511 306.522 209.187 306.133 212.716C305.746 216.245 306.011 231.538 305.818 233.745C305.624 235.951 307.112 259.281 307.479 263.725L314.898 263.676C314.898 263.676 315.41 244.804 315.41 235.634C315.41 226.463 317.69 215.789 320.303 209.739C322.916 203.689 328.897 203.546 330.503 192.321C330.503 192.321 310.232 189.952 308.058 193.512V193.511Z" fill="#455A64"/>
<path d="M322.499 138.473C322.499 138.473 317.377 136.2 314.778 140.177C312.178 144.154 312.022 152.368 314.605 153.509C317.187 154.649 321.163 154.321 322.631 151.826C324.099 149.33 325.488 145.684 325.548 143.204C325.606 140.724 323.837 139.259 322.501 138.475L322.499 138.473Z" fill="#E4897B"/>
<path d="M315.6 152.708C315.6 152.708 315.662 156.07 315.302 156.788C314.943 157.504 322.07 157.523 322.07 157.523C322.07 157.523 322.854 153.103 323.952 149.809C325.048 146.515 315.602 152.71 315.602 152.71L315.6 152.708Z" fill="#E4897B"/>
<path d="M323.828 149.964C323.828 149.964 323.125 150.674 321.134 150.248C319.144 149.822 316.829 146.946 316.004 146.603C315.182 146.259 315.197 145.751 315.197 145.751L314.636 146.514L313.745 146.527C313.745 146.527 314.673 144.105 313.495 143.039C312.319 141.972 315.142 135.132 321.465 137.774C321.465 137.774 326.338 139.428 326.021 142.318C325.705 145.208 325.001 148.574 323.828 149.963V149.964Z" fill="#472E03"/>
<path d="M314.877 156.701C314.877 156.701 314.899 155.332 315.5 155.201C316.101 155.07 322.141 154.471 322.879 154.77V156.365C322.879 156.365 321.456 157.269 314.875 156.701H314.877Z" fill="#E2D2CA"/>
<path d="M315.38 144.703C315.517 144.222 316.78 142.893 317.168 144.405C317.556 145.916 316.31 147.858 315.676 147.655C315.041 147.451 315.036 145.922 315.38 144.703Z" fill="#EEA886"/>
<path d="M323.96 139.031C323.96 139.031 330.805 139.593 323.871 149.55L323.96 139.031Z" fill="#472E03"/>
<path d="M306.056 158.599C310.354 157.82 314.877 156.701 314.877 156.701L322.882 156.365C322.882 156.365 330.227 158.034 333.12 159.382C333.394 159.509 333.395 166.143 334.149 167.883L331.75 173.103C331.75 173.103 330.365 183.446 330.077 188.044C329.946 190.155 332.935 207.843 332.935 207.843C332.935 207.843 329.732 208.816 324.268 209.438C318.805 210.059 305.157 209.214 305.071 208.548C304.984 207.882 307.715 183.761 307.836 182.512C308.021 180.595 307.299 171.735 307.299 171.735C306.27 173.162 300.319 178.513 297.414 180.213C295.348 181.422 290.278 180.683 288.786 180.527C285.555 180.187 276.627 179.529 276.453 179.201C276.314 179.003 276.966 175.646 277.34 175.517C277.667 175.405 289.191 174.816 292.081 174.971C293.254 175.034 297.079 170.625 297.079 170.625C297.079 170.625 303.685 159.7 306.056 158.601V158.599Z" fill="url(#paint25_linear_1391_349640)"/>
<path d="M349.852 230.781V270.153C349.852 274.884 335.658 278.719 318.15 278.719C300.643 278.719 286.449 274.884 286.449 270.153V230.781H349.852Z" fill="url(#paint26_linear_1391_349640)"/>
<path d="M264.583 96.0077C264.583 96.0077 263.276 97.1893 262.103 99.0051C260.93 100.821 257.816 100.917 257.683 103.395C257.55 105.874 261.917 105.951 264.21 105.143C266.504 104.336 266.849 101.916 268.236 101.31C269.623 100.704 270.343 100.215 270.236 99.0335C270.129 97.8519 269.363 95.9336 269.363 95.9336C269.363 95.9336 268.502 96.2176 267.994 96.2744C267.488 96.3327 265.783 96.3532 264.583 96.0062V96.0077Z" fill="#252840"/>
<path d="M280.304 28.8573C280.304 28.8573 279.425 34.2495 278.717 37.8116C278.43 39.2567 278.17 40.4004 278.009 40.7601C277.806 41.2128 276.156 43.0413 274.138 45.1852C270.595 48.9477 265.915 53.6867 265.915 53.6867L264.086 50.104C264.086 50.104 268.243 45.0747 271.061 41.7208C272.366 40.1685 273.384 38.9743 273.57 38.8023C274.159 38.2581 274.843 32.8991 275.804 28.485C276.766 24.0694 278.693 21.6289 278.693 21.6289L280.306 28.8605L280.304 28.8573Z" fill="url(#paint27_linear_1391_349640)"/>
<path d="M274.138 45.185C270.595 48.9476 265.915 53.6866 265.915 53.6866L264.086 50.1039C264.086 50.1039 268.243 45.0746 271.061 41.7207C271.925 42.1577 273.511 43.2005 274.138 45.1866V45.185Z" fill="#E4897B"/>
<path d="M296.854 94.5312C296.854 94.5312 298.057 95.9037 298.768 96.7351C299.479 97.5681 302.204 99.0541 302.22 101.526C302.235 104.206 300.209 103.971 298.406 103.874C296.603 103.776 295.139 102.49 294.379 100.974C293.62 99.4564 291.6 99.0589 291.458 97.8347C291.316 96.6105 292.394 94.4082 292.394 94.4082L296.853 94.5312H296.854Z" fill="#252840"/>
<path d="M292.631 92.1285L292.398 94.4097C292.398 94.4097 296.161 96.1008 296.857 94.5327L296.695 92.5008L292.631 92.127V92.1285Z" fill="#5F8CC9"/>
<path d="M264.791 94.3574L264.586 96.0091C264.586 96.0091 266.86 96.8374 269.366 95.935L269.416 94.4663L264.791 94.3574Z" fill="#5F8CC9"/>
<path d="M297.064 52.9564C297.196 53.4359 272.98 52.9564 272.98 52.9564C272.98 52.9564 279.679 47.9255 280.113 46.5814C280.548 45.2373 278.409 37.1744 278.129 34.5509C277.905 32.4511 277.346 23.0599 278.687 21.6243C280.089 20.124 285.138 18.5527 285.138 18.5527L292.497 18.8351C292.497 18.8351 293.711 19.097 294.579 19.5135C295.448 19.93 300.413 21.7552 301.22 24.314C302.026 26.8744 296.266 35.103 296.266 35.103C296.266 35.103 296.255 35.4722 296.237 36.0795C296.214 36.8872 296.182 38.1162 296.151 39.4492C296.113 41.1751 296.079 43.0745 296.079 44.4627C296.079 47.7251 296.934 52.4768 297.066 52.9564H297.064Z" fill="url(#paint28_linear_1391_349640)"/>
<path d="M297.07 52.9557C297.07 52.9557 300.363 57.9471 300.411 61.3547C300.456 64.7622 299.19 74.2103 299.097 76.0813C299.004 77.9539 297.299 93.5513 297.299 93.5513C297.299 93.5513 295.981 94.8149 292.027 93.231C292.027 93.231 291.154 78.4382 291.061 76.8559C290.967 75.272 290.967 67.9773 290.084 66.9219C289.2 65.8665 283.851 62.5552 283.153 61.9305C282.455 61.3058 270.3 64.3 269.026 64.6408C265.728 65.5226 267.231 71.4432 267.96 74.0983C269.18 78.5392 270.248 94.5751 270.248 94.5751C270.248 94.5751 267.899 95.6085 263.963 94.7345C263.963 94.7345 256.237 65.7782 255.989 62.8991C255.742 60.0201 255.619 55.2716 274.659 51.6621L297.067 52.9557H297.07Z" fill="#455A64"/>
<path d="M287.158 2.05482C287.158 2.05482 280.77 0.567176 282.228 8.86361C283.687 17.1585 285.224 17.8116 289.078 16.0936C292.933 14.3772 292.587 9.06239 292.782 6.45624C292.976 3.8501 289.196 2.14475 287.158 2.05482Z" fill="#E4897B"/>
<path d="M285.47 20.683C285.47 20.683 288.299 23.7782 292.771 20.9654C292.771 20.9654 291.771 14.2576 292.297 10.992C292.823 7.72489 286.463 16.0545 286.463 16.0545C286.547 16.1002 286.602 16.411 286.614 16.8559C286.625 17.2313 286.605 17.703 286.547 18.1858C286.415 19.2711 286.088 20.418 285.469 20.6862L285.47 20.683Z" fill="#E4897B"/>
<path d="M290.586 7.76186C290.67 7.02987 292.073 6.76168 292.186 7.85967C292.299 8.95766 291.548 10.8823 291.016 10.693C290.484 10.5037 290.47 8.7715 290.586 7.76186Z" fill="#E4897B"/>
<path d="M292.475 10.7131C292.475 10.7131 292.309 8.09908 291.384 8.01862C290.459 7.93659 290.317 8.99041 290.317 8.99041L289.383 9.17183C289.383 9.17183 289.678 6.8812 288.755 6.48049C287.831 6.07979 282.768 7.74097 282.027 7.06893C281.285 6.39688 281.634 1.74936 282.975 1.1136C284.316 0.477842 288.021 -0.946703 290.735 0.947958C290.735 0.947958 292.851 0.698702 293.164 2.46085C293.478 4.22299 293.051 9.40373 292.476 10.7131H292.475Z" fill="#472E03"/>
<path d="M286.547 18.1844C291.16 16.7173 291.507 13.8508 291.513 13.8066C289.993 16.4996 286.614 16.8561 286.614 16.8561C286.625 17.2315 286.605 17.7032 286.547 18.186V18.1844Z" fill="#A77860"/>
<path d="M294.657 19.5502C294.657 19.5502 291.279 26.4899 285.821 26.0419C280.362 25.5938 284.891 18.6194 285.139 18.5547C285.411 18.4837 290.736 17.1144 294.657 19.5502Z" fill="#E4897B"/>
<path d="M270.211 52.6049C270.211 52.6049 286.934 54.7314 297.065 52.9567L277.706 50.4609C277.706 50.4609 277.592 50.9705 270.211 52.6049Z" fill="url(#paint29_linear_1391_349640)"/>
<path d="M282.719 49.6758L281.473 50.3273C281.473 50.3273 281.757 52.3687 282.439 52.9871L283.837 52.6195C283.837 52.6195 283.546 50.3794 282.719 49.6758Z" fill="#E4897B"/>
<path d="M302.072 45.4932C301.823 45.7914 298.536 47.1544 294.822 48.631C289.749 50.6487 284.025 52.556 284.025 52.556L282.723 49.6754C282.723 49.6754 288.716 46.3152 292.767 43.9583C294.68 42.8445 296.16 41.9563 296.368 41.7497C297.019 41.1092 297.187 40.0838 296.709 38.2948C296.23 36.5058 295.128 28.2804 295.004 27.3196C294.88 26.3605 295.314 23.8001 297.64 23.6723C299.965 23.5445 301.149 24.2213 301.149 24.2213C301.149 24.2213 301.733 24.4721 302.167 30.2949C302.601 36.1177 302.664 44.7896 302.074 45.4932H302.072Z" fill="url(#paint30_linear_1391_349640)"/>
<path d="M296.239 36.0785C296.216 36.8862 296.184 38.1151 296.154 39.4482C293.883 33.7074 295.195 29.1261 295.218 29.0488C294.972 30.6075 296.221 36.0028 296.239 36.0785Z" fill="#B08439"/>
<path d="M278.715 37.8112C278.427 39.2563 278.167 40.4 278.007 40.7597C277.231 36.8884 277.929 31.9316 277.929 31.9316C278.034 34.2996 278.715 37.8112 278.715 37.8112Z" fill="#B08439"/>
<path d="M294.822 48.6314C289.749 50.6491 283.84 52.6179 283.84 52.6179L282.723 49.6741C282.723 49.6741 288.716 46.3139 292.767 43.957C292.767 43.957 294.239 44.6969 294.823 48.6298L294.822 48.6314Z" fill="#E4897B"/>
<path d="M282.359 52.7874L258.59 52.4277L270.591 58.7143L282.359 52.7874Z" fill="#5E5853"/>
<path d="M270.591 58.716L282.359 54.0133V52.7891L269.66 57.5155L270.591 58.716Z" fill="#91887F"/>
<path d="M281.746 50.3686C281.746 50.3686 280.261 50.1304 279.235 49.8843C278.441 49.6934 276.466 49.9569 275.963 50.4822C275.46 51.0076 273.86 54.6723 273.558 54.8947C273.255 55.1187 273.712 55.6361 274.244 55.3758C274.244 55.3758 274.732 56.9787 275.935 56.3792C277.139 55.7797 277.957 54.4687 278.587 54.2384C279.217 54.0081 282.888 52.8439 282.888 52.8439C282.888 52.8439 282.691 49.9806 281.744 50.3702L281.746 50.3686Z" fill="#E4897B"/>
<path d="M276.324 50.2441C276.324 50.2441 275.37 50.719 275.121 50.932C274.872 51.1434 273.862 51.9227 273.618 52.1072C273.373 52.2902 273.986 52.8124 275.791 52.0063C277.595 51.2001 276.323 50.2457 276.323 50.2457L276.324 50.2441Z" fill="#E4897B"/>
<path d="M270.592 58.7156L263.522 38.7988L240.73 39.1822L247.469 57.5356L270.592 58.7156Z" fill="#6E6760"/>
<path d="M256.231 47.6087C256.927 49.0427 256.716 50.6061 255.762 51.0983C254.807 51.5905 253.47 50.8269 252.774 49.3929C252.078 47.9589 252.288 46.3955 253.243 45.9033C254.197 45.4111 255.535 46.1747 256.231 47.6087Z" fill="#807066"/>
<path d="M185.034 287.216C203.669 287.216 218.775 283.134 218.775 278.099C218.775 273.064 203.669 268.982 185.034 268.982C166.399 268.982 151.293 273.064 151.293 278.099C151.293 283.134 166.399 287.216 185.034 287.216Z" fill="#D4EBFE"/>
<path d="M185.033 284.42C202.541 284.42 216.735 280.584 216.735 275.853C216.735 271.122 202.541 267.287 185.033 267.287C167.525 267.287 153.332 271.122 153.332 275.853C153.332 280.584 167.525 284.42 185.033 284.42Z" fill="#7AC6FF"/>
<path d="M151.44 172.172C151.44 172.172 150.338 171.116 150.557 170.326C150.743 169.654 150.463 168.9 150.393 168.591C150.298 168.176 150.261 166.833 149.962 166.907C149.456 167.033 149.572 169.177 149.511 169.633C149.448 170.089 148.109 168.561 147.65 168.48C147.191 168.4 144.862 170.834 145.901 171.772C146.939 172.711 148.368 173.093 148.52 173.296C148.671 173.498 149.381 174.055 149.381 174.055L151.442 172.17L151.44 172.172Z" fill="#E4897B"/>
<path d="M147.941 168.641C147.941 168.641 144.579 165.982 144.212 165.998C143.843 166.014 143.715 166.211 144.019 166.473C144.323 166.735 147.195 169.137 147.195 169.137C147.195 169.137 142.704 166.681 142.4 166.626C142.221 166.594 142.088 166.945 142.238 167.101C142.388 167.257 146.568 169.969 146.568 169.969C146.568 169.969 142.371 167.683 142.103 167.716C141.869 167.744 141.701 168.144 142.001 168.336C142.301 168.527 146.08 170.876 146.08 170.876C146.08 170.876 142.924 169.41 142.713 169.576C142.585 169.677 142.403 169.899 143.229 170.251C144.054 170.603 145.851 171.726 145.851 171.726L147.94 168.641H147.941Z" fill="#E4897B"/>
<path d="M174.79 140.107C174.79 140.107 166.749 139.417 166.97 148.144C167.19 156.871 168.531 158.186 166.965 164.352C165.399 170.519 174.804 160.85 174.804 160.85L174.79 140.107Z" fill="#472E03"/>
<path d="M199.289 270.727C199.289 270.727 202.275 275.054 201.865 275.74C201.455 276.427 198.316 276.524 196.403 275.74C194.492 274.956 194.446 269.884 193.582 267.704C193.22 266.792 193.995 264.1 195.084 263.904C196.173 263.708 197.358 264.283 197.358 264.283C197.358 264.283 196.228 267.352 199.289 270.727Z" fill="#363A5E"/>
<path d="M197.375 264.248C197.375 264.248 198.004 266.091 198.233 267.852C198.424 269.311 200.36 272.409 200.27 272.802C200.178 273.193 197.721 273.548 196.721 272.539C195.719 271.527 195.076 268.59 194.855 266.831C194.651 265.193 194.391 264.386 194.391 264.386C194.391 264.386 196.421 263.171 197.377 264.248H197.375Z" fill="#EEA886"/>
<path d="M173.294 270.8C173.294 270.8 176.172 275.056 175.764 275.742C175.354 276.428 172.215 276.526 170.302 275.742C168.391 274.958 168.345 269.886 167.481 267.706C167.118 266.794 167.894 264.101 168.982 263.906C170.071 263.71 171.349 264.325 171.349 264.325C171.349 264.325 170.235 267.425 173.294 270.8Z" fill="#363A5E"/>
<path d="M171.35 264.327C171.35 264.327 171.577 266.335 171.941 267.757C172.305 269.178 174.262 272.412 174.171 272.803C174.079 273.195 171.622 273.55 170.62 272.54C169.619 271.529 168.845 268.604 168.755 266.832C168.663 265.061 168.983 263.906 168.983 263.906C168.983 263.906 170.394 263.248 171.35 264.325V264.327Z" fill="#EEA886"/>
<path d="M185.736 193.868C185.736 193.868 188.299 206.701 188.888 209.932C189.476 213.163 191.123 228.813 191.301 231.472C191.476 234.134 193.975 244.159 193.857 245.109C193.739 246.059 197.912 264.896 197.912 264.896C197.912 264.896 194.955 265.226 193.776 264.717C192.97 264.369 186.498 247.379 186.498 242.629C186.498 236.062 182.943 227.486 182.428 225.99C177.354 211.275 176.425 207.784 175.718 206.895C175.718 206.895 175.611 208.096 175.37 210.09C175.093 212.384 173.882 228.761 173.353 230.914C172.824 233.067 173.235 240.354 172.94 244.028C172.645 247.702 172.101 264.464 172.101 264.464C172.101 264.464 169.445 264.582 168.273 263.863C167.881 263.622 166.527 245.852 166.468 241.48C166.41 237.109 166.347 231.08 166.232 229.19C165.142 211.074 162.463 208.487 166.683 195.666C174.585 171.662 185.738 193.865 185.738 193.865L185.736 193.868Z" fill="#455A64"/>
<path d="M193.5 267.326V271.857H194.046V268.356L193.5 267.326Z" fill="#363A5E"/>
<path d="M167.402 267.324V271.855H167.948V268.354L167.402 267.324Z" fill="#363A5E"/>
<path d="M178.138 163.328C178.138 163.328 177.431 161.613 176.905 159.69C176.881 159.599 176.858 159.507 176.835 159.414C176.772 159.163 176.714 158.911 176.662 158.658C176.633 158.515 176.605 158.373 176.581 158.231C176.394 157.171 176.342 156.156 176.581 155.434C177.361 153.058 171.691 154.703 171.691 154.703C171.691 154.703 172.791 160.99 171.691 163.11C170.593 165.23 178.139 163.329 178.139 163.329L178.138 163.328Z" fill="#E4897B"/>
<path d="M167.541 197.888C167.541 197.888 179.365 200.892 185.351 197.529C185.351 197.529 183.309 188.694 184.267 185.222C185.224 181.75 190.218 169.651 190.218 169.651C190.218 169.651 186.597 164.25 183.834 163.264C181.071 162.276 177.51 161.664 177.51 161.664L172.331 162.125C172.331 162.125 167.891 162.409 168.522 163.224C172.253 168.042 167.539 197.887 167.539 197.887L167.541 197.888Z" fill="#EDDAD3"/>
<path d="M166.41 177.806C166.41 177.806 166.643 178.313 167.282 180.31C167.932 174.702 167.592 171.783 167.592 171.783C167.522 174.781 166.41 177.806 166.41 177.806Z" fill="#CFBEB8"/>
<path d="M172.043 161.939L178.139 167.066L177.511 161.666C177.511 161.666 173.956 160.874 172.043 161.94V161.939Z" fill="#E4897B"/>
<path d="M168.023 183.54C168.861 187.128 164.621 198.354 164.621 198.354L171.778 200.854C172.664 201.163 173.607 200.587 173.771 199.639C174.578 194.97 176.67 182.447 176.907 176.896C177.2 169.998 172.334 161.861 172.334 161.861C163.682 163.393 166.054 176.896 166.054 176.896C166.054 176.896 166.367 177.746 166.788 179.076C166.893 179.41 167.005 179.775 167.121 180.163C167.418 181.161 167.736 182.319 168.022 183.54H168.023Z" fill="url(#paint31_linear_1391_349640)"/>
<path d="M178.123 161.959L178.016 161.664C178.016 161.664 182.447 162.36 184.698 163.519C186.95 164.679 191.26 170.674 191.26 170.674L185.623 178.353C185.617 184.255 187.612 198.101 187.612 198.101L183.695 199.754C183.085 200.012 182.413 199.556 182.404 198.876C182.342 194.66 182.152 182.177 182.054 177.307C181.936 171.404 177.855 161.86 177.855 161.86C177.946 161.891 178.036 161.924 178.125 161.959H178.123Z" fill="url(#paint32_linear_1391_349640)"/>
<path d="M186.154 189.632C186.154 189.632 181.903 189.803 181.241 189.632C180.581 189.462 176.169 187.488 175.903 185.539C175.639 183.589 186.152 187.286 186.152 187.286V189.632H186.154Z" fill="#E4897B"/>
<path d="M172.965 183.539L190.217 181.457L182.423 187.999L172.965 183.539Z" fill="#707070"/>
<path d="M182.423 187.999L172.965 184.672V183.539L182.741 186.775L182.423 187.999Z" fill="#A1A1A1"/>
<path d="M177.191 160.668L180.468 166.033L182.054 167.065L178.36 161.722L177.191 160.668Z" fill="#FAE6DE"/>
<path d="M180.468 166.033L178.138 167.065L177.511 161.663L177.191 160.668L180.468 166.033Z" fill="#D6C5BE"/>
<path d="M185.637 187.123C185.637 187.123 185.814 189.389 185.637 189.865C185.637 189.865 196.276 188.769 197.268 187.234C198.26 185.699 198.225 183.834 198.225 183.834L185.638 187.123H185.637Z" fill="url(#paint33_linear_1391_349640)"/>
<path d="M182.426 188L187.455 168.701L206.584 166.617L201.341 184.381L182.426 188Z" fill="#A1A1A1"/>
<path d="M157.63 176.967C156.672 176.151 156.107 175.852 154.95 174.825C153.15 173.226 150.851 171.202 150.851 171.202L148.664 174.514C148.664 174.514 153.951 179.31 156.762 182.156C156.762 182.156 160.318 186.096 161.113 185.748C161.908 185.399 164.743 181.158 167.008 177.082C169.272 173.006 170.286 170.403 170.399 168.628C170.512 166.853 164.817 165.998 164.817 165.998L160.357 176.047C160.357 176.047 159.563 177.484 159.159 177.918C159.159 177.918 158.156 177.33 157.63 176.967Z" fill="url(#paint34_linear_1391_349640)"/>
<path d="M174.006 140.99C176 140.654 180.559 141.169 181.853 146.569C181.853 146.569 181.856 148.066 181.637 149.266C181.419 150.468 182.805 153.772 182.561 153.972C182.316 154.173 181.254 154.516 181.254 154.516C181.254 154.516 180.498 158.394 179.223 158.512C177.948 158.631 173.017 158.173 170.234 153.789C167.449 149.405 165.959 142.352 174.006 140.992V140.99Z" fill="#E4897B"/>
<path d="M181.85 146.568C181.85 146.568 178.851 149.24 175.673 150.084C172.496 150.927 170.814 154.611 170.814 154.611C170.814 154.611 165.192 148.824 168.585 143.209C171.978 137.595 181.846 140.098 181.852 146.57L181.85 146.568Z" fill="#472E03"/>
<path d="M175.087 150.278C175.087 150.278 171.759 159.284 172.149 161.455C172.149 161.455 170.506 161.16 167.441 162.127C167.441 162.127 168.923 146.039 175.087 150.278Z" fill="#472E03"/>
<path d="M176.377 166.195L178.138 167.066L172.152 160.941L176.377 166.195Z" fill="#D6C5BE"/>
<path d="M172.151 160.941L176.376 166.195L174.064 168.321L171.57 162.033L172.151 160.941Z" fill="#FAE6DE"/>
<path d="M173.312 156.859C173.34 156.905 174.256 158.374 176.835 159.413C176.773 159.163 176.715 158.91 176.663 158.658C176.634 158.514 176.606 158.372 176.582 158.23C176.582 158.23 174.447 157.692 173.312 156.859Z" fill="#A77860"/>
<path d="M193.901 176.77C193.369 177.803 193.378 178.882 193.921 179.179C194.464 179.477 195.335 178.88 195.867 177.847C196.399 176.814 196.39 175.735 195.847 175.438C195.305 175.14 194.433 175.736 193.901 176.77Z" fill="#828282"/>
<path d="M171.571 162.033C171.571 162.033 165.999 161.252 164.375 167.272C164.375 167.272 171.46 166.485 171.571 162.033Z" fill="url(#paint35_linear_1391_349640)"/>
<path d="M216.735 236.482V275.854C216.735 280.585 202.542 284.42 185.033 284.42C167.524 284.42 153.332 280.585 153.332 275.854V236.482H216.735Z" fill="url(#paint36_linear_1391_349640)"/>
</g>
<defs>
<linearGradient id="paint0_linear_1391_349640" x1="252.5" y1="97.7291" x2="252.5" y2="285.632" gradientUnits="userSpaceOnUse">
<stop stop-color="#CEF0FD"/>
<stop offset="1" stop-color="#E3F7FF"/>
</linearGradient>
<linearGradient id="paint1_linear_1391_349640" x1="191.582" y1="86.5553" x2="231.323" y2="86.5553" gradientUnits="userSpaceOnUse">
<stop stop-color="#D5E4FF"/>
<stop offset="1" stop-color="#EDFFFE"/>
</linearGradient>
<linearGradient id="paint2_linear_1391_349640" x1="263.457" y1="89.6978" x2="303.198" y2="89.6978" gradientUnits="userSpaceOnUse">
<stop stop-color="#D5E4FF"/>
<stop offset="1" stop-color="#EDFFFE"/>
</linearGradient>
<linearGradient id="paint3_linear_1391_349640" x1="129.357" y1="129.345" x2="371.896" y2="135.576" gradientUnits="userSpaceOnUse">
<stop stop-color="#FB8D48"/>
<stop offset="0.2" stop-color="#ED7136"/>
<stop offset="0.3999" stop-color="#C54E47"/>
<stop offset="0.4" stop-color="#C14F49"/>
<stop offset="0.6" stop-color="#9D3863"/>
<stop offset="0.8" stop-color="#5E1F72"/>
</linearGradient>
<linearGradient id="paint4_linear_1391_349640" x1="163.039" y1="152.824" x2="331.75" y2="156.698" gradientUnits="userSpaceOnUse">
<stop stop-color="#FB8D48"/>
<stop offset="0.2" stop-color="#ED7136"/>
<stop offset="0.3999" stop-color="#C54E47"/>
<stop offset="0.4" stop-color="#C14F49"/>
<stop offset="0.6" stop-color="#9D3863"/>
<stop offset="0.8" stop-color="#5E1F72"/>
</linearGradient>
<linearGradient id="paint5_linear_1391_349640" x1="222.268" y1="197.02" x2="265.454" y2="156.756" gradientUnits="userSpaceOnUse">
<stop stop-color="#FB8D48"/>
<stop offset="0.2" stop-color="#ED7136"/>
<stop offset="0.3999" stop-color="#C54E47"/>
<stop offset="0.4" stop-color="#C14F49"/>
<stop offset="0.6" stop-color="#9D3863"/>
<stop offset="0.8" stop-color="#5E1F72"/>
</linearGradient>
<linearGradient id="paint6_linear_1391_349640" x1="192.185" y1="12.3832" x2="219.819" y2="12.3832" gradientUnits="userSpaceOnUse">
<stop stop-color="#D5E4FF"/>
<stop offset="1" stop-color="#EDFFFE"/>
</linearGradient>
<linearGradient id="paint7_linear_1391_349640" x1="192.184" y1="18.4102" x2="216.156" y2="18.4102" gradientUnits="userSpaceOnUse">
<stop stop-color="#D5E4FF"/>
<stop offset="1" stop-color="#EDFFFE"/>
</linearGradient>
<linearGradient id="paint8_linear_1391_349640" x1="192.185" y1="24.4379" x2="230.721" y2="24.4379" gradientUnits="userSpaceOnUse">
<stop stop-color="#D5E4FF"/>
<stop offset="1" stop-color="#EDFFFE"/>
</linearGradient>
<linearGradient id="paint9_linear_1391_349640" x1="352.906" y1="195.236" x2="371.586" y2="195.236" gradientUnits="userSpaceOnUse">
<stop stop-color="#D5E4FF"/>
<stop offset="1" stop-color="#EDFFFE"/>
</linearGradient>
<linearGradient id="paint10_linear_1391_349640" x1="352.906" y1="204.857" x2="371.586" y2="204.857" gradientUnits="userSpaceOnUse">
<stop stop-color="#D5E4FF"/>
<stop offset="1" stop-color="#EDFFFE"/>
</linearGradient>
<linearGradient id="paint11_linear_1391_349640" x1="352.904" y1="214.48" x2="371.584" y2="214.48" gradientUnits="userSpaceOnUse">
<stop stop-color="#D5E4FF"/>
<stop offset="1" stop-color="#EDFFFE"/>
</linearGradient>
<linearGradient id="paint12_linear_1391_349640" x1="339.312" y1="102.088" x2="339.312" y2="56.1666" gradientUnits="userSpaceOnUse">
<stop stop-color="#80C0FF"/>
<stop offset="1" stop-color="#EDFFFE"/>
</linearGradient>
<linearGradient id="paint13_linear_1391_349640" x1="327.974" y1="80.5594" x2="350.649" y2="80.5594" gradientUnits="userSpaceOnUse">
<stop stop-color="#ABC9FF"/>
<stop offset="1" stop-color="#EDFFFE"/>
</linearGradient>
<linearGradient id="paint14_linear_1391_349640" x1="154.734" y1="117.342" x2="154.734" y2="136.495" gradientUnits="userSpaceOnUse">
<stop stop-color="#EEA07B"/>
<stop offset="1" stop-color="#9C5A76"/>
</linearGradient>
<linearGradient id="paint15_linear_1391_349640" x1="198.316" y1="98.7749" x2="227.155" y2="98.7749" gradientUnits="userSpaceOnUse">
<stop stop-color="#D5E4FF"/>
<stop offset="1" stop-color="#EDFFFE"/>
</linearGradient>
<linearGradient id="paint16_linear_1391_349640" x1="275.434" y1="161.685" x2="290.554" y2="161.685" gradientUnits="userSpaceOnUse">
<stop stop-color="#D5E4FF"/>
<stop offset="1" stop-color="#EDFFFE"/>
</linearGradient>
<linearGradient id="paint17_linear_1391_349640" x1="275.434" y1="156.888" x2="290.554" y2="156.888" gradientUnits="userSpaceOnUse">
<stop stop-color="#D5E4FF"/>
<stop offset="1" stop-color="#EDFFFE"/>
</linearGradient>
<linearGradient id="paint18_linear_1391_349640" x1="275.434" y1="152.091" x2="290.554" y2="152.091" gradientUnits="userSpaceOnUse">
<stop stop-color="#D5E4FF"/>
<stop offset="1" stop-color="#EDFFFE"/>
</linearGradient>
<linearGradient id="paint19_linear_1391_349640" x1="178.225" y1="190.883" x2="178.605" y2="190.399" gradientUnits="userSpaceOnUse">
<stop stop-color="#FB8D48"/>
<stop offset="0.2" stop-color="#ED7136"/>
<stop offset="0.3999" stop-color="#C54E47"/>
<stop offset="0.4" stop-color="#C14F49"/>
<stop offset="0.6" stop-color="#9D3863"/>
<stop offset="0.8" stop-color="#5E1F72"/>
</linearGradient>
<linearGradient id="paint20_linear_1391_349640" x1="256.406" y1="236.097" x2="278.803" y2="250.179" gradientUnits="userSpaceOnUse">
<stop stop-color="#FB8D48"/>
<stop offset="0.2" stop-color="#ED7136"/>
<stop offset="0.3999" stop-color="#C54E47"/>
<stop offset="0.4" stop-color="#C14F49"/>
<stop offset="0.6" stop-color="#9D3863"/>
<stop offset="0.8" stop-color="#5E1F72"/>
</linearGradient>
<linearGradient id="paint21_linear_1391_349640" x1="339.969" y1="152.692" x2="377.359" y2="154.092" gradientUnits="userSpaceOnUse">
<stop stop-color="#FB8D48"/>
<stop offset="0.2" stop-color="#ED7136"/>
<stop offset="0.3999" stop-color="#C54E47"/>
<stop offset="0.4" stop-color="#C14F49"/>
<stop offset="0.6" stop-color="#9D3863"/>
<stop offset="0.8" stop-color="#5E1F72"/>
</linearGradient>
<linearGradient id="paint22_linear_1391_349640" x1="342.12" y1="170.998" x2="383.163" y2="172.915" gradientUnits="userSpaceOnUse">
<stop stop-color="#FB8D48"/>
<stop offset="0.2" stop-color="#ED7136"/>
<stop offset="0.3999" stop-color="#C54E47"/>
<stop offset="0.4" stop-color="#C14F49"/>
<stop offset="0.6" stop-color="#9D3863"/>
<stop offset="0.8" stop-color="#5E1F72"/>
</linearGradient>
<linearGradient id="paint23_linear_1391_349640" x1="273.888" y1="71.4788" x2="353.46" y2="237.741" gradientUnits="userSpaceOnUse">
<stop stop-color="#ABC9FF"/>
<stop offset="1" stop-color="#EDFFFE"/>
</linearGradient>
<linearGradient id="paint24_linear_1391_349640" x1="319.597" y1="172.635" x2="335.522" y2="172.794" gradientUnits="userSpaceOnUse">
<stop stop-color="#FB8D48"/>
<stop offset="0.2" stop-color="#ED7136"/>
<stop offset="0.3999" stop-color="#C54E47"/>
<stop offset="0.4" stop-color="#C14F49"/>
<stop offset="0.6" stop-color="#9D3863"/>
<stop offset="0.8" stop-color="#5E1F72"/>
</linearGradient>
<linearGradient id="paint25_linear_1391_349640" x1="277.437" y1="179.309" x2="334.341" y2="180.504" gradientUnits="userSpaceOnUse">
<stop stop-color="#FB8D48"/>
<stop offset="0.2" stop-color="#ED7136"/>
<stop offset="0.3999" stop-color="#C54E47"/>
<stop offset="0.4" stop-color="#C14F49"/>
<stop offset="0.6" stop-color="#9D3863"/>
<stop offset="0.8" stop-color="#5E1F72"/>
</linearGradient>
<linearGradient id="paint26_linear_1391_349640" x1="287.552" y1="251.421" x2="350.05" y2="253.024" gradientUnits="userSpaceOnUse">
<stop stop-color="#FB8D48"/>
<stop offset="0.2" stop-color="#ED7136"/>
<stop offset="0.3999" stop-color="#C54E47"/>
<stop offset="0.4" stop-color="#C14F49"/>
<stop offset="0.6" stop-color="#9D3863"/>
<stop offset="0.8" stop-color="#5E1F72"/>
</linearGradient>
<linearGradient id="paint27_linear_1391_349640" x1="264.368" y1="35.4316" x2="280.365" y2="35.5885" gradientUnits="userSpaceOnUse">
<stop stop-color="#FB8D48"/>
<stop offset="0.2" stop-color="#ED7136"/>
<stop offset="0.3999" stop-color="#C54E47"/>
<stop offset="0.4" stop-color="#C14F49"/>
<stop offset="0.6" stop-color="#9D3863"/>
<stop offset="0.8" stop-color="#5E1F72"/>
</linearGradient>
<linearGradient id="paint28_linear_1391_349640" x1="273.473" y1="33.4572" x2="301.397" y2="33.9001" gradientUnits="userSpaceOnUse">
<stop stop-color="#FB8D48"/>
<stop offset="0.2" stop-color="#ED7136"/>
<stop offset="0.3999" stop-color="#C54E47"/>
<stop offset="0.4" stop-color="#C14F49"/>
<stop offset="0.6" stop-color="#9D3863"/>
<stop offset="0.8" stop-color="#5E1F72"/>
</linearGradient>
<linearGradient id="paint29_linear_1391_349640" x1="270.678" y1="51.8398" x2="296.484" y2="56.0361" gradientUnits="userSpaceOnUse">
<stop stop-color="#FB8D48"/>
<stop offset="0.2" stop-color="#ED7136"/>
<stop offset="0.3999" stop-color="#C54E47"/>
<stop offset="0.4" stop-color="#C14F49"/>
<stop offset="0.6" stop-color="#9D3863"/>
<stop offset="0.8" stop-color="#5E1F72"/>
</linearGradient>
<linearGradient id="paint30_linear_1391_349640" x1="283.067" y1="36.0992" x2="302.576" y2="36.3582" gradientUnits="userSpaceOnUse">
<stop stop-color="#FB8D48"/>
<stop offset="0.2" stop-color="#ED7136"/>
<stop offset="0.3999" stop-color="#C54E47"/>
<stop offset="0.4" stop-color="#C14F49"/>
<stop offset="0.6" stop-color="#9D3863"/>
<stop offset="0.8" stop-color="#5E1F72"/>
</linearGradient>
<linearGradient id="paint31_linear_1391_349640" x1="164.835" y1="178.686" x2="176.965" y2="178.76" gradientUnits="userSpaceOnUse">
<stop stop-color="#FB8D48"/>
<stop offset="0.2" stop-color="#ED7136"/>
<stop offset="0.3999" stop-color="#C54E47"/>
<stop offset="0.4" stop-color="#C14F49"/>
<stop offset="0.6" stop-color="#9D3863"/>
<stop offset="0.8" stop-color="#5E1F72"/>
</linearGradient>
<linearGradient id="paint32_linear_1391_349640" x1="178.089" y1="178.095" x2="191.31" y2="178.185" gradientUnits="userSpaceOnUse">
<stop stop-color="#FB8D48"/>
<stop offset="0.2" stop-color="#ED7136"/>
<stop offset="0.3999" stop-color="#C54E47"/>
<stop offset="0.4" stop-color="#C14F49"/>
<stop offset="0.6" stop-color="#9D3863"/>
<stop offset="0.8" stop-color="#5E1F72"/>
</linearGradient>
<linearGradient id="paint33_linear_1391_349640" x1="185.856" y1="186.431" x2="198.252" y2="186.932" gradientUnits="userSpaceOnUse">
<stop stop-color="#FB8D48"/>
<stop offset="0.2" stop-color="#ED7136"/>
<stop offset="0.3999" stop-color="#C54E47"/>
<stop offset="0.4" stop-color="#C14F49"/>
<stop offset="0.6" stop-color="#9D3863"/>
<stop offset="0.8" stop-color="#5E1F72"/>
</linearGradient>
<linearGradient id="paint34_linear_1391_349640" x1="149.042" y1="174.511" x2="170.473" y2="174.968" gradientUnits="userSpaceOnUse">
<stop stop-color="#FB8D48"/>
<stop offset="0.2" stop-color="#ED7136"/>
<stop offset="0.3999" stop-color="#C54E47"/>
<stop offset="0.4" stop-color="#C14F49"/>
<stop offset="0.6" stop-color="#9D3863"/>
<stop offset="0.8" stop-color="#5E1F72"/>
</linearGradient>
<linearGradient id="paint35_linear_1391_349640" x1="164.5" y1="164.27" x2="171.593" y2="164.458" gradientUnits="userSpaceOnUse">
<stop stop-color="#FB8D48"/>
<stop offset="0.2" stop-color="#ED7136"/>
<stop offset="0.3999" stop-color="#C54E47"/>
<stop offset="0.4" stop-color="#C14F49"/>
<stop offset="0.6" stop-color="#9D3863"/>
<stop offset="0.8" stop-color="#5E1F72"/>
</linearGradient>
<linearGradient id="paint36_linear_1391_349640" x1="154.435" y1="257.122" x2="216.932" y2="258.725" gradientUnits="userSpaceOnUse">
<stop stop-color="#FB8D48"/>
<stop offset="0.2" stop-color="#ED7136"/>
<stop offset="0.3999" stop-color="#C54E47"/>
<stop offset="0.4" stop-color="#C14F49"/>
<stop offset="0.6" stop-color="#9D3863"/>
<stop offset="0.8" stop-color="#5E1F72"/>
</linearGradient>
<clipPath id="clip0_1391_349640">
<rect width="505" height="300" fill="white"/>
</clipPath>
</defs>
</svg>
