<svg width="35" height="36" viewBox="0 0 35 36" fill="none" xmlns="http://www.w3.org/2000/svg">
<path d="M23.8557 21.0254C23.9724 20.0629 24.0599 19.1004 24.0599 18.1087C24.0599 17.1171 23.9724 16.1546 23.8557 15.1921H28.7849C29.0182 16.1254 29.1641 17.1025 29.1641 18.1087C29.1641 19.115 29.0182 20.0921 28.7849 21.0254M21.2745 29.1337C22.1495 27.515 22.8203 25.765 23.287 23.9421H27.5891C26.1762 26.375 23.9346 28.2179 21.2745 29.1337ZM20.9099 21.0254H14.0849C13.9391 20.0629 13.8516 19.1004 13.8516 18.1087C13.8516 17.1171 13.9391 16.14 14.0849 15.1921H20.9099C21.0411 16.14 21.1432 17.1171 21.1432 18.1087C21.1432 19.1004 21.0411 20.0629 20.9099 21.0254ZM17.4974 29.7171C16.287 27.9671 15.3099 26.0275 14.712 23.9421H20.2828C19.6849 26.0275 18.7078 27.9671 17.4974 29.7171ZM11.6641 12.2754H7.40573C8.80406 9.83591 11.044 7.99006 13.7057 7.08372C12.8307 8.70247 12.1745 10.4525 11.6641 12.2754ZM7.40573 23.9421H11.6641C12.1745 25.765 12.8307 27.515 13.7057 29.1337C11.0496 28.2174 8.8128 26.3741 7.40573 23.9421ZM6.2099 21.0254C5.97656 20.0921 5.83073 19.115 5.83073 18.1087C5.83073 17.1025 5.97656 16.1254 6.2099 15.1921H11.1391C11.0224 16.1546 10.9349 17.1171 10.9349 18.1087C10.9349 19.1004 11.0224 20.0629 11.1391 21.0254M17.4974 6.48581C18.7078 8.23581 19.6849 10.19 20.2828 12.2754H14.712C15.3099 10.19 16.287 8.23581 17.4974 6.48581ZM27.5891 12.2754H23.287C22.8306 10.4692 22.1547 8.72566 21.2745 7.08372C23.9578 8.00247 26.1891 9.85456 27.5891 12.2754ZM17.4974 3.52539C9.43281 3.52539 2.91406 10.0879 2.91406 18.1087C2.91406 21.9765 4.45052 25.6858 7.18542 28.4207C8.53961 29.7749 10.1473 30.8491 11.9166 31.582C13.6859 32.3148 15.5823 32.6921 17.4974 32.6921C21.3651 32.6921 25.0745 31.1556 27.8094 28.4207C30.5443 25.6858 32.0807 21.9765 32.0807 18.1087C32.0807 16.1936 31.7035 14.2973 30.9706 12.5279C30.2378 10.7586 29.1636 9.15094 27.8094 7.79675C26.4552 6.44256 24.8475 5.36836 23.0782 4.63548C21.3089 3.9026 19.4125 3.52539 17.4974 3.52539Z" fill="#FB8D48"/>
</svg>
