<svg xmlns="http://www.w3.org/2000/svg" width="448" height="312" fill="none" viewBox="0 0 448 312">
  <path fill="#97A6B7" d="M245.513 297.054c-5.187-1.275-9.064-4.536-10.157-8.544l-7.55-27.678-64.582 1.699-7.948 28.834c-1.114 4.038 3.343 8.09 8.474 9.577l27.02 7.831c5.026 1.457 10.428 2.037 15.797 1.696l57.102-3.618c1.67-.106 3.009-1.078 3.203-2.325.194-1.247 1.364-2.647-.228-3.038l-21.131-4.434Z"/>
  <path fill="url(#a)" d="M246.151 295.37c-5.182-1.259-9.055-4.479-10.147-8.436l-7.543-27.33-63.008 1.679-7.94 28.472c-1.112 3.987 1.83 7.986 6.957 9.454l26.993 7.733c5.02 1.438 10.417 2.011 15.781 1.675l57.045-3.573c1.667-.105 3.005-1.064 3.199-2.296.194-1.231-.809-2.393-2.399-2.779l-18.938-4.599Z"/>
  <path fill="#97A6B7" d="M31.26 279.229c-7.003.309-12.733-3.056-12.733-7.504V111.424c0-4.448 5.73-7.882 12.733-7.658l325.289 16.681c5.142.165 7.901-2.909 7.901.873v136.336c0 3.782-4.164 7.043-9.305 7.271L31.26 279.229Z"/>
  <path fill="#fff" d="M34.172 279.229c-7.003.309-12.732-3.056-12.732-7.504V111.424c0-4.448 5.729-7.882 12.732-7.658l323.885 10.396c5.142.165 9.305 3.376 9.305 7.158v136.336c0 3.782-4.163 7.043-9.305 7.271L34.172 279.229Z"/>
  <path fill="#D8DEE8" d="m358.053 117.371-323.884-9.87c-3.744-.114-6.788 1.719-6.788 4.093v159.89c0 2.375 3.044 4.17 6.788 4.011l323.884-13.776c2.756-.118 4.985-1.858 4.985-3.887V121.197c0-2.029-2.229-3.742-4.985-3.826Z" opacity=".3"/>
  <path fill="#263238" d="M355.644 250.177 37.677 261.804c-3.338.122-6.05-1.512-6.05-3.651V113.689c0-2.138 2.712-3.797 6.05-3.705l317.967 8.743c2.495.068 4.514 1.617 4.514 3.46v124.489c0 1.843-2.019 3.41-4.514 3.501Z"/>
  <path fill="#fff" d="m117.003 125.24-72.616-1.582v-5.129l72.616 1.74v4.971Z" opacity=".6"/>
  <path fill="#fff" d="m151.193 124.565-16.775-.376v-3.503l16.775.401v3.478Zm0 4.832-16.775-.341v-3.503l16.775.366v3.478Z" opacity=".36"/>
  <path fill="url(#b)" d="m234.81 130.978-65.08-1.32v-3.449l65.08 1.42v3.349Z"/>
  <path fill="url(#c)" d="m245.466 135.942-64.433-1.168v-3.432l64.433 1.267v3.333Z"/>
  <path fill="url(#d)" d="m245.466 140.57-64.433-1.031v-3.432l64.433 1.13v3.333Z"/>
  <path fill="#fff" d="m245.481 145.086-64.432-.892v-3.432l64.432.991v3.333Z" opacity=".6"/>
  <path fill="#fff" d="m151.193 134.234-16.775-.304v-3.504l16.775.33v3.478Zm0 4.831-16.775-.268v-3.504l16.775.294v3.478Zm0 4.831-16.775-.232v-3.504l16.775.258v3.478Zm0 4.834-16.775-.197v-3.504l16.775.223v3.478Z" opacity=".36"/>
  <path fill="#fff" d="m196.162 149.133-41.291-.483v-3.472l41.291.547v3.408Z" opacity=".6"/>
  <path fill="#fff" d="m151.193 153.561-16.775-.161v-3.504l16.775.187v3.478Zm0 4.833-16.775-.125v-3.503l16.775.15v3.478Zm0 4.833-16.775-.088v-3.504l16.775.114v3.478Z" opacity=".36"/>
  <path fill="url(#e)" d="m215.494 154.173-45.779-.438v-3.45l45.779.509v3.379Z"/>
  <path fill="#fff" d="m239.293 158.929-58.244-.433v-3.432l58.244.523v3.342Z" opacity=".6"/>
  <path fill="url(#f)" d="m239.293 163.574-58.244-.308v-3.432l58.244.398v3.342Z"/>
  <path fill="#fff" d="m151.193 168.058-16.775-.052v-3.504l16.775.078v3.478Zm0 4.834-16.775-.017v-3.504l16.775.043v3.478Zm0 4.833-16.775.019v-3.504l16.775.007v3.478Zm0 4.825-16.775.055v-3.503l16.775-.03v3.478Zm0 4.84-16.775.091v-3.504l16.775-.065v3.478Zm0 4.824-16.775.127v-3.504l16.775-.101v3.478Zm0 4.84-16.775.163v-3.504l16.775-.137v3.478Zm0 4.828-16.775.199v-3.504l16.775-.173v3.478Zm0 4.834-16.775.235v-3.504l16.775-.209v3.478Zm0 4.836-16.775.271v-3.504l16.775-.245v3.478Zm0 4.826-16.775.307v-3.504l16.775-.281v3.478Zm0 4.836-16.775.343v-3.504l16.775-.317v3.478Zm0 4.828-16.775.379v-3.504l16.775-.353v3.478Zm0 4.836-16.775.415v-3.504l16.775-.389v3.478Zm0 4.83-16.775.451v-3.504l16.775-.425v3.478Zm0 4.832-16.775.487v-3.504l16.775-.461v3.478Zm0 4.832-16.775.523v-3.504l16.775-.496v3.477Zm0 4.834-16.775.558v-3.503l16.775-.532v3.477Z" opacity=".36"/>
  <path fill="url(#g)" d="m200.496 125.674-45.75-1.026v-3.472l45.75 1.096v3.402Z"/>
  <path fill="#fff" d="m234.795 224.156-65.08 1.468v-3.45l65.08-1.367v3.349Z" opacity=".6"/>
  <path fill="url(#h)" d="m245.466 228.551-64.433 1.592v-3.432l64.433-1.492v3.332Z"/>
  <path fill="url(#i)" d="m245.466 233.182-64.433 1.73v-3.432l64.433-1.63v3.332Z"/>
  <path fill="url(#j)" d="m273.219 237.005-62.764 1.819v-3.387l62.764-1.722v3.29Z"/>
  <path fill="url(#k)" d="m273.219 241.573-62.764 1.953v-3.386l62.764-1.857v3.29Z"/>
  <path fill="#fff" d="m273.219 246.147-62.764 2.088v-3.387l62.764-1.991v3.29Z" opacity=".6"/>
  <path fill="url(#l)" d="m200.496 220.207-45.75.934v-3.473l45.75-.863v3.402Z"/>
  <path fill="url(#m)" d="m234.795 172.972-65.08-.066v-3.449l65.08.166v3.349Z"/>
  <path fill="#fff" d="m245.466 177.61-64.433.074v-3.432l64.433.026v3.332Z" opacity=".6"/>
  <path fill="url(#n)" d="m245.466 182.249-64.433.211v-3.432l64.433-.112v3.333Z"/>
  <path fill="url(#o)" d="m245.466 186.876-64.433.349v-3.432l64.433-.25v3.333Z"/>
  <path fill="url(#p)" d="m196.144 191.881-41.29.313v-3.473l41.29-.248v3.408Z"/>
  <path fill="#fff" d="m215.494 196.43-45.779.444v-3.449l45.779-.374v3.379Z" opacity=".6"/>
  <path fill="url(#q)" d="m239.278 200.838-58.245.69v-3.432l58.245-.6v3.342Z"/>
  <path fill="url(#r)" d="m239.278 205.485-58.245.815v-3.432l58.245-.725v3.342Z"/>
  <path fill="url(#s)" d="m252.19 209.918-57.544.928v-3.411l57.544-.839v3.322Z"/>
  <path fill="url(#t)" d="m252.19 214.535-57.544 1.052v-3.411l57.544-.963v3.322Z"/>
  <path fill="url(#u)" d="m200.504 168.095-45.75-.144v-3.472l45.75.214v3.402Z"/>
  <path fill="#fff" d="m117.003 133.003-41.564-.764v-5.061l41.564.855v4.97Z"/>
  <path fill="#fff" d="m64.684 132.047 7.828.144v-5.067l-7.828-.161v5.084Zm52.319 8.11-41.564-.635v-5.061l41.564.725v4.971Zm-52.319-.799 7.828.12v-5.068l-7.828-.137v5.085Zm52.319 7.941-41.564-.505v-5.062l41.564.596v4.971Zm-52.319-.631 7.828.096v-5.068l-7.828-.112v5.084Z" opacity=".6"/>
  <path fill="#fff" d="m117.003 198.022-72.616.725v-5.129l72.616-.567v4.971Z"/>
  <path fill="#fff" d="m117.003 205.789-41.564.556v-5.061l41.564-.466v4.971Zm-52.319.7 7.828-.105v-5.068l-7.828.088v5.085Zm52.319 6.443-41.564.685v-5.061l41.564-.595v4.971Zm-52.319.866 7.828-.129v-5.067l-7.828.112v5.084Zm52.319 6.282-41.564.816v-5.062l41.564-.725v4.971Zm-52.319 1.026 7.828-.154v-5.067l-7.828.136v5.085Z" opacity=".6"/>
  <path fill="#fff" d="m117.003 154.488-72.616-.655v-5.128l72.616.812v4.971Z"/>
  <path fill="#fff" d="m117.003 162.264-41.564-.234v-5.061l41.564.324v4.971Zm-52.319-.299 7.828.044v-5.067l-7.828-.061v5.084Zm52.319 7.439-41.564-.105v-5.061l41.564.195v4.971Zm-52.319-.128 7.828.019v-5.067l-7.828-.037v5.085Zm52.319 14.511-41.564.157v-5.061l41.564-.067v4.971Zm-52.319.197 7.828-.03v-5.067l-7.828.012v5.085Zm52.319 6.954-41.564.286v-5.061l41.564-.196v4.971Zm-52.319.359 7.828-.054v-5.067l-7.828.037v5.084Zm52.319-14.746-41.564.026v-5.061l41.564.064v4.971Zm-52.319.035 7.828-.004v-5.068l-7.828-.012v5.084Z" opacity=".6"/>
  <path fill="#fff" d="m117.003 227.223-72.616 1.651v-5.129l72.616-1.493v4.971Z"/>
  <path fill="#fff" d="m117.003 234.99-41.564 1.086v-5.061l41.564-.995v4.97Zm-52.319 1.364 7.828-.205v-5.067l-7.828.188v5.084Zm52.319 5.779-41.564 1.216v-5.062l41.564-1.125v4.971Zm-52.319 1.534 7.828-.229v-5.067l-7.828.212v5.084Zm52.319 5.616-41.564 1.346v-5.061l41.564-1.256v4.971Zm-52.319 1.692 7.828-.253v-5.068l-7.828.237v5.084Zm61.136-1.955-1.599.052V120.443l1.599.039V249.02Z" opacity=".6"/>
  <path fill="url(#v)" d="M120.746 48.565c3.86-.835 9.019 4.415 13.308 8.78 6.417 6.53 13.914 14.16 11.894 23.322-1.987 9.013-12.419 16.033-15.392 15.03-2.543-.86 2.346-6.922-1.399-15.03-3.022-6.543-8.03-6.545-11.388-12.96-4.168-7.96-1.773-18.114 2.977-19.142Z"/>
  <path fill="url(#w)" d="M122.663 90.082c19.883 3.576 32.979 9.315 40.628 13.375 4.145 2.201 6.06 3.573 7.094 5.573 5.89 11.4-24.37 28.636-27.595 30.441l-4.226-7.299c3.127-12.712 8.333-16.701 12.689-17.887 1.219-.332 3.264-.687 3.225-1.114-.094-1.01-11.588.429-22.572-2.548-10.952-2.969-21.956-10.48-19.991-15.446.358-.906 1.861-3.526 10.748-5.095Z"/>
  <path fill="url(#x)" d="M141.938 173.41s-1.851.489-1.858 1.573c-.007 1.084 1.875 5.86 3.919 7.557s2.227-.835 2.1-2.466c-.126-1.63-.662-5.281-1.167-5.987-.506-.706-2.994-.677-2.994-.677Z"/>
  <path fill="url(#y)" d="M147.888 106.75c3.612-.053 12.077-.552 14.33 2.547 1.881 2.586-1.413 6.506-3.439 8.917-5.507 6.555-10.853 7.226-14.618 11.253-1.457 1.559-2.777 3.736-3.198 6.847l-2.396-4.14c3.126-12.713 8.332-16.701 12.688-17.887 1.219-.332 3.265-.688 3.225-1.115-.094-1.01-11.588.43-22.571-2.547-9.984-2.707-19.978-9.182-20.184-14.068 15.809 8.399 27.708 10.316 36.163 10.193Z" opacity=".3"/>
  <path fill="salmon" d="M140.875 168.801c.109 1.671.301 3.068.473 4.105.382 2.295.733 3.203 1.214 4.03.42.721 1.468 2.293 1.969 2.184.509-.111-.015-1.852-.411-6.697-.058-.703-.233-2.941-.233-2.941l-3.012-.681Z"/>
  <path fill="url(#z)" d="M111.191 91.041c11.456 5.116 18.892 10.933 23.216 14.861 5.104 4.638 12.868 11.692 15.678 22.21 1.499 5.606.762 10.635-.774 20.464a158.594 158.594 0 0 1-5.422 23.139l-2.643.786c-2.36-3.212-5.446-8.295-6.553-14.795-1.81-10.635 3.561-14.015.983-21.557-2.233-6.534-8.704-10.54-21.646-18.552-10.633-6.583-20.437-10.489-24.077-18.7-.618-1.395-1.143-3.105-.136-4.671 2.172-3.376 10.479-4.553 21.374-3.185Z"/>
  <path fill="#472E05" d="M102.053 49.176c2.974-.473 7.864-.38 12.526-3.099 1.403-.818 6.375-3.718 5.771-7.868-.531-3.653-5.205-5.616-5.779-5.85-3.309-1.35-6.608-1.05-10.267-.679-4.744.48-6.32 1.44-9.616 2.099-8.156 1.628-10.914-1.77-19.125-1.484-10.495.367-11.403 6.108-20.233 6.251-9.913.161-11.812-7.025-21.6-8.242C20.147 28.613-.407 39.445.007 51.933c.24 7.212 7.49 15.478 16.75 17.96 5.398 1.446 11.223.987 12.886 3.587 1.183 1.85-1.477 3.276-1.226 6.5.323 4.157 5.155 7.074 5.935 7.544 7.242 4.373 23.479 2.164 34.566-4.023 19.995-11.157 16.969-31.749 33.136-34.325Z"/>
  <path fill="url(#A)" d="M79.088 47.695a286.163 286.163 0 0 1 23.134-1.17c18.238-.183 20.849 1.53 21.517 2.798 1.246 2.364-.888 3.549.324 7.67.724 2.465.039 3.588 1.44 6.237 1.364 2.58.294 3.968-.913 10.02-1.543 7.737-2.255 11.67.668 14.79 2.032 2.167 4.304 2.35 4.087 3.38-.461 2.194-10.7.984-23.663 5.195-3.752 1.219-7.207 2.72-10.103 3.981-6.783 2.949-8.037 4.077-11.178 5.413-9.933 4.227-24.854 4.634-32.675-.477-2.915-1.906-5.04-4.707-4.084-5.732 1.302-1.397 7.125 1.775 12.468-.16 3.54-1.281 2.867-3.354 6.96-5.797 4.924-2.94 8.349-1.4 11.7-3.312 5.23-2.984 2.851-10.128 1.383-22.106a148.56 148.56 0 0 1-1.065-20.73Z"/>
  <path fill="#D76B5F" d="M98.822 44.914c-2.487 1.143-6.508 2.637-6.951 3.043-.443.405 12.181 2.006 20.037-.93 0 0 1.217-.502-3.518-1.203-1.009-.15-.812-1.604-.677-3.107l-.947-1.303s-5.457 2.356-7.944 3.5Z"/>
  <path fill="salmon" d="M105.103 40.528s-.975 3.066 2.67 4.581c3.265 1.358 8.787-4.206 7.756-6.273-.344-.69-1.573-1.576-2.858-1.874-.904-.21-4.322-.129-5.787 2.004-.383-.624-1.07-.95-1.531-.848-.586.13-.672.92-.692 1.098-.068.62.27 1.1.442 1.312Z"/>
  <path fill="url(#B)" d="M110.754 89.68c-3.755 1.154-4.262 3.646-9.456 5.06-4.953 1.348-6.616-.342-11.557.778-7.42 1.681-10.258 6.986-11.382 6.485-1.029-.458-.042-5.532 4.728-8.82 5.478-3.776 11.379-2.047 14.884-5.967 1.364-1.525 2.416-3.961 1.226-5.836-1.612-2.541-5.823-1.66-8.055-3.762-4.01-3.776 5.373-10.587 2.802-16.343-1.026-2.298-4.294-5.178-14.832-7.105.143 5.77.592 10.593 1.041 14.255C81.621 80.403 84 87.547 78.771 90.531c-3.353 1.913-6.777.372-11.702 3.312-4.092 2.443-3.42 4.516-6.96 5.797-5.342 1.935-11.165-1.236-12.467.16-.956 1.025 1.169 3.826 4.084 5.732 7.82 5.111 22.742 4.704 32.675.478 3.14-1.336 4.395-2.465 11.178-5.414 2.897-1.26 6.351-2.762 10.103-3.98 9.097-2.956 16.847-3.242 20.823-3.908-7.893-3.899-12.702-3.963-15.751-3.027Z" opacity=".3"/>
  <path fill="url(#C)" d="m147.001 93.588-47.65 1.717c-.655.024-1.253.284-1.6.697l-1.319 1.568c-.656.78.132 1.786 1.373 1.751l50.471-1.424-1.275-4.31Z"/>
  <path fill="url(#D)" d="m190.734 74.09-49.226.707c-1.457.02-2.791.608-3.51 1.546L120.951 98.56l51.989-1.534c1.427-.042 2.729-.614 3.463-1.522l15.793-19.545c.673-.832-.153-1.887-1.462-1.868Z"/>
  <path fill="url(#E)" d="M137.997 76.347c.72-.938 2.054-1.525 3.511-1.546l1.079-.016c.161 1.177.648 2.254 1.62 3.123 3.036 2.714 8.079 1.04 11.838 3.912 4.129 3.155.314 6.911 4.006 9.848 3.886 3.09 10.169.574 17.392 2.552l-1.04 1.287c-.734.907-2.036 1.48-3.463 1.522l-51.989 1.534 17.046-22.216Z" opacity=".3"/>
  <path fill="url(#F)" d="m107.163 93.609 1.611-3.151c-5.934-1.205-14.142-2.986-22.56-5.214-2.08-.55-2.841-1.262-3.397-1.809-4.316-4.24 6.667-11.72 6.47-21.425-.136-6.728-5.643-14.424-10.495-14.511C68.93 47.32 47.184 78.319 65.5 91.55c9.09 6.567 26.074 7.329 41.664 2.059Z"/>
  <path fill="salmon" d="M108.771 90.465c3.726-1.466 8.185.036 8.472.137.819.286 2.01.796 3.214 1.707.136.138 1.752 1.796 1.164 2.328-.472.426-2.3.073-4.496-.94a22.971 22.971 0 0 0-3.933-.07c-3.016.206-4.397.911-5.491.302-.802-.446-1.075-1.389-.787-2.09.31-.752 1.227-1.126 1.857-1.374Z"/>
  <path fill="#D8DEE8" d="M260.485 72.855c-1.181-.01-2.311-.536-2.841-1.415l-17.698-29.435a1.967 1.967 0 0 1-.292-1.015V10.547c0-1.328 1.413-2.371 3.154-2.329 1.74.042 3.15 1.151 3.15 2.478v29.869l17.36 28.918c.723 1.206.042 2.621-1.523 3.162a3.916 3.916 0 0 1-1.31.21Zm45.691.447c-1.687-.015-3.055-1.087-3.055-2.395V55.664l-16.164-12.73c-.578-.455-.902-1.065-.902-1.695V11.734c0-1.313 1.379-2.344 3.08-2.303 1.699.04 3.075 1.137 3.075 2.448v28.478l16.123 12.724c.573.452.894 1.057.894 1.684v16.2c0 1.306-1.366 2.353-3.051 2.337Zm24.556.191c-1.67-.015-3.025-1.082-3.025-2.383V45.322c0-.624.319-1.218.887-1.65l10.045-7.659V12.891c0-1.297 1.347-2.316 3.009-2.277 1.66.04 3.004 1.123 3.004 2.419v24.06c0 .623-.316 1.214-.88 1.644l-10.02 7.655v24.776c0 1.299-1.352 2.34-3.02 2.325Zm-93.853 155.322c-1.758.048-3.184-.995-3.184-2.329v-24.147c0-.641.336-1.263.933-1.729l13.418-10.46v-21.434c0-1.331 1.416-2.428 3.162-2.45 1.745-.023 3.158 1.036 3.158 2.364v22.4c0 .638-.332 1.256-.925 1.718l-13.383 10.455v23.112c0 1.333-1.423 2.452-3.179 2.5Zm50.761-1.392c-.795.022-1.591-.19-2.198-.639-1.214-.9-1.214-2.412 0-3.377l17.509-13.907v-41.523c0-1.314 1.38-2.396 3.081-2.418 1.701-.022 3.078 1.023 3.078 2.335v42.447c0 .629-.324 1.241-.901 1.7l-18.374 14.623c-.605.482-1.4.737-2.195.759Zm49.569-1.354c-.777.021-1.554-.188-2.147-.633-1.187-.889-1.187-2.384 0-3.337l19.266-15.478v-10.378l-28.02-21.298c-1.192-.906-1.192-2.404 0-3.345 1.19-.94 3.12-.967 4.308-.061l28.843 21.969c.563.429.879 1.019.879 1.641v12.306c0 .623-.316 1.226-.879 1.68l-20.106 16.184c-.592.477-1.368.728-2.144.75ZM387.816 98.64l-30.484-.093c-1.661-.005-3.008-1.06-3.008-2.358 0-1.297 1.347-2.343 3.008-2.336l29.257.121 17.798-13.925c.551-.431 1.297-.67 2.076-.664l29.136.225c1.598.012 2.892 1.052 2.892 2.323 0 1.272-1.294 2.294-2.892 2.283l-27.921-.184-17.77 13.932c-.554.435-1.307.678-2.092.676Zm-25.611 45.817c-.767.006-1.535-.217-2.12-.67-1.173-.907-1.173-2.393 0-3.318l29.069-22.924c.555-.438 1.307-.684 2.091-.685l44.351-.061c1.597-.002 2.891 1.026 2.891 2.297 0 1.271-1.294 2.305-2.891 2.309l-43.126.108-28.146 22.241c-.584.462-1.352.697-2.119.703Zm19.04 27.054-23.913.348c-1.661.025-3.008-1.008-3.008-2.305 0-1.297 1.347-2.367 3.008-2.389l22.681-.305 14.737-11.771c.553-.442 1.304-.694 2.086-.703l38.763-.405c1.598-.017 2.892 1 2.892 2.271s-1.294 2.317-2.892 2.335l-37.542.435-14.713 11.776c-.556.445-1.312.702-2.099.713Z"/>
  <path fill="#D8DEE8" d="M447.999 81.999c0 5.455-5.546 9.851-12.409 9.819-6.886-.033-12.485-4.508-12.485-9.997s5.6-9.884 12.485-9.818c6.863.065 12.409 4.54 12.409 9.996Zm0 37.078c0 5.455-5.546 9.902-12.409 9.932-6.886.03-12.485-4.395-12.485-9.884 0-5.488 5.6-9.935 12.485-9.932 6.863.004 12.409 4.429 12.409 9.884Zm0 37.073c0 5.456-5.546 9.952-12.409 10.045-6.886.092-12.485-4.282-12.485-9.77 0-5.489 5.6-9.986 12.485-10.046 6.863-.058 12.409 4.316 12.409 9.771ZM242.801.281c7.475.195 13.514 4.966 13.514 10.659 0 5.692-6.039 10.18-13.514 10.022-7.5-.159-13.6-4.932-13.6-10.66 0-5.73 6.1-10.215 13.6-10.02Zm46.324 1.311c7.299.19 13.198 4.903 13.198 10.529s-5.899 10.062-13.198 9.908c-7.325-.155-13.281-4.87-13.281-10.531 0-5.662 5.956-10.096 13.281-9.906Zm52.517 1.275c7.13.185 12.893 4.842 12.893 10.403 0 5.56-5.763 9.947-12.893 9.796-7.156-.151-12.974-4.81-12.974-10.405s5.818-9.98 12.974-9.794ZM236.875 216.011c7.545-.184 13.641 4.303 13.641 10.023 0 5.719-6.096 10.534-13.641 10.755-7.571.221-13.729-4.264-13.729-10.02 0-5.756 6.158-10.573 13.729-10.758Zm50.761-1.24c7.367-.18 13.321 4.256 13.321 9.908 0 5.652-5.954 10.408-13.321 10.624-7.393.216-13.406-4.219-13.406-9.906 0-5.688 6.013-10.445 13.406-10.626Zm49.572-1.209c7.197-.176 13.012 4.21 13.012 9.796 0 5.586-5.815 10.285-13.012 10.495-7.221.212-13.093-4.173-13.093-9.794s5.872-10.321 13.093-10.497Z"/>
  <path fill="url(#G)" d="m354.52 60.456-125.111-2.81c-5.684-.128-10.309 3.368-10.309 7.81v102.621c0 4.44 4.625 7.945 10.309 7.828l125.111-2.577c5.157-.106 9.323-3.603 9.323-7.811V68.284c0-4.208-4.166-7.712-9.323-7.828Z"/>
  <path fill="url(#H)" d="m359.84 60.456-125.11-2.81c-5.685-.128-10.31 3.368-10.31 7.81v102.621c0 4.44 4.625 7.945 10.31 7.828l125.11-2.577c5.158-.106 9.324-3.603 9.324-7.811V68.284c0-4.208-4.166-7.712-9.324-7.828Z"/>
  <path fill="url(#I)" d="m334.3 81.413-77.913-1.117c-3.475-.05-6.299 2.129-6.299 4.867v63.267c0 2.738 2.824 4.923 6.299 4.879l77.913-.972c3.271-.041 5.917-2.22 5.917-4.867V86.292c0-2.648-2.646-4.832-5.917-4.879Z"/>
  <path fill="#FFBE55" d="m339.618 81.413-77.912-1.117c-3.476-.05-6.3 2.129-6.3 4.867v63.267c0 2.738 2.824 4.923 6.3 4.879l77.912-.972c3.271-.041 5.917-2.22 5.917-4.867V86.292c0-2.648-2.645-4.832-5.917-4.879Z"/>
  <path fill="url(#J)" d="m315.342 264.9-.277 6.028c-.081 1.769 1.834 3.137 4.276 3.056l4.438-.146a29.081 29.081 0 0 0 2.507 8.222l-3.748 1.666c-2.153.956-2.967 2.938-1.817 4.425l3.915 5.064c1.148 1.484 6.69 2.367 8.837 1.408l.677-2.042c2.373 2.197 5.09 4.178 8.096 5.907l-2.051 2.513c-1.282 1.571-.652 3.493 1.406 4.293l7.005 2.722c2.051.797 8.712.921 9.988-.647l-1.999-3.163a67.498 67.498 0 0 0 11.475 1.845l-.123 2.671c-.08 1.752 1.8 3.095 4.199 3l8.161-.323c2.39-.095 4.391-1.588 4.471-3.336l.123-2.662a73.33 73.33 0 0 0 11.575-2.723l1.724 2.256c1.119 1.464 7.987 2.217 10.082 1.266l2.867-3.575c2.089-.949 2.879-2.901 1.766-4.362l-1.782-2.34c3.101-1.934 5.935-4.092 8.449-6.434l3.311 1.313c2.001.793 7.927 1.199 9.172-.346l.947-6.278c1.243-1.543.635-3.437-1.36-4.233l-3.48-1.389c1.429-2.651 2.499-5.419 3.166-8.269l4.273-.141c2.347-.077 4.312-1.544 4.391-3.275l.272-5.902c.079-1.732-1.757-3.077-4.103-3.004l-4.524.139a29.36 29.36 0 0 0-2.686-7.864l4.142-1.849c2.073-.926 2.858-2.865 1.753-4.333l.788-5.865c-1.106-1.47-8.247-1.054-10.326-.131l-4.358 1.937c-2.264-2.027-4.828-3.865-7.647-5.483l2.684-3.298c1.251-1.536.638-3.444-1.369-4.261l-2.986-3.2c-2.013-.819-8.532.173-9.789 1.713l-2.759 3.38a67.205 67.205 0 0 0-10.592-1.79l.178-3.869c.08-1.747-1.789-3.116-4.177-3.058l-8.156.198c-2.397.058-4.406 1.525-4.487 3.278l-.178 3.88a73.74 73.74 0 0 0-10.882 2.349l1.62-4.093c-1.135-1.491-7.892-1.121-10.023-.189l-7.276 3.179c-2.138.933-2.947 2.902-1.806 4.395l2.447 3.2c-3.046 1.796-5.855 3.805-8.379 5.993l.185-2.05c-2.065-.824-9.286.1-10.574 1.662l-4.394 5.33c-1.29 1.565-.656 3.5 1.415 4.322l4.127 1.636c-1.545 2.62-2.738 5.362-3.532 8.193l-4.698.146c-2.442.075-4.489 1.57-4.57 3.338Zm30.114 2.654c.61-13.262 15.851-24.427 33.943-24.934 17.981-.504 31.989 9.722 31.386 22.838-.603 13.117-15.594 24.273-33.582 24.922-18.098.653-32.356-9.565-31.747-22.826Z"/>
  <path fill="url(#K)" d="m320.803 264.852-.277 6.028c-.081 1.768 1.834 3.136 4.276 3.056l4.438-.147a29.081 29.081 0 0 0 2.507 8.222l-3.748 1.666c-2.153.957-2.967 2.938-1.818 4.425l3.916 5.064c1.148 1.485 3.819 1.91 5.966.951l3.547-1.584c2.373 2.196 5.091 4.177 8.097 5.906l-2.051 2.513c-1.282 1.571-.652 3.493 1.406 4.293l7.004 2.722c2.052.798 4.749.172 6.025-1.396l1.965-2.414a67.597 67.597 0 0 0 11.475 1.846l-.123 2.67c-.08 1.753 1.8 3.096 4.198 3.001l8.162-.324c2.389-.095 4.391-1.588 4.471-3.335l.122-2.663a73.342 73.342 0 0 0 11.576-2.722l1.724 2.256c1.118 1.464 3.724 1.878 5.819.927l7.13-3.237c2.089-.948 2.879-2.9 1.766-4.361l-1.783-2.341c3.101-1.933 5.936-4.091 8.45-6.434l3.311 1.314c2.001.793 4.632.183 5.877-1.362l4.242-5.263c1.243-1.542.635-3.437-1.36-4.233l-3.48-1.389c1.429-2.651 2.499-5.418 3.166-8.268l4.273-.141c2.346-.078 4.312-1.544 4.391-3.276l.271-5.902c.08-1.732-1.756-3.076-4.102-3.004l-4.525.14a29.345 29.345 0 0 0-2.685-7.864l4.141-1.849c2.074-.927 2.859-2.866 1.754-4.333l-3.77-5.007c-1.106-1.47-3.689-1.913-5.769-.989l-4.358 1.936c-2.264-2.027-4.827-3.865-7.646-5.482l2.684-3.298c1.25-1.537.638-3.444-1.369-4.262l-6.853-2.79c-2.014-.819-4.666-.237-5.922 1.303l-2.759 3.38a67.09 67.09 0 0 0-10.592-1.789l.178-3.869c.08-1.748-1.79-3.117-4.178-3.059l-8.155.198c-2.397.058-4.407 1.526-4.487 3.278l-.179 3.88a73.796 73.796 0 0 0-10.882 2.35l-2.489-3.269c-1.135-1.491-3.783-1.945-5.914-1.014l-7.276 3.179c-2.138.934-2.946 2.902-1.805 4.395l2.446 3.2c-3.045 1.797-5.855 3.805-8.378 5.994l-4.318-1.724c-2.065-.824-4.784-.227-6.071 1.336l-4.394 5.329c-1.29 1.566-.656 3.501 1.415 4.322l4.127 1.637c-1.545 2.62-2.738 5.362-3.532 8.193l-4.698.145c-2.442.076-4.489 1.57-4.57 3.339Zm30.114 2.653c.61-13.262 15.851-24.426 33.942-24.934 17.982-.504 31.99 9.722 31.387 22.838-.603 13.117-15.595 24.273-33.583 24.922-18.097.653-32.355-9.565-31.746-22.826Z"/>
  <defs>
    <linearGradient id="a" x1="212.396" x2="212.396" y1="271.631" y2="298.306" gradientUnits="userSpaceOnUse">
      <stop offset=".494" stop-color="#EBEFF2"/>
      <stop offset="1" stop-color="#fff"/>
    </linearGradient>
    <linearGradient id="b" x1="195.344" x2="210.602" y1="97.372" y2="222.922" gradientUnits="userSpaceOnUse">
      <stop offset=".004" stop-color="#E38DDD"/>
      <stop offset="1" stop-color="#9571F6"/>
    </linearGradient>
    <linearGradient id="c" x1="182.154" x2="241.342" y1="133.323" y2="149.398" gradientUnits="userSpaceOnUse">
      <stop stop-color="#FB8D48"/>
      <stop offset=".2" stop-color="#ED7136"/>
      <stop offset=".4" stop-color="#C54E47"/>
      <stop offset=".4" stop-color="#C14F49"/>
      <stop offset=".6" stop-color="#9D3863"/>
      <stop offset=".8" stop-color="#5E1F72"/>
    </linearGradient>
    <linearGradient id="d" x1="182.154" x2="241.088" y1="138.029" y2="154.531" gradientUnits="userSpaceOnUse">
      <stop stop-color="#FB8D48"/>
      <stop offset=".2" stop-color="#ED7136"/>
      <stop offset=".4" stop-color="#C54E47"/>
      <stop offset=".4" stop-color="#C14F49"/>
      <stop offset=".6" stop-color="#9D3863"/>
      <stop offset=".8" stop-color="#5E1F72"/>
    </linearGradient>
    <linearGradient id="e" x1="170.511" x2="213.429" y1="151.959" y2="161.76" gradientUnits="userSpaceOnUse">
      <stop stop-color="#FB8D48"/>
      <stop offset=".2" stop-color="#ED7136"/>
      <stop offset=".4" stop-color="#C54E47"/>
      <stop offset=".4" stop-color="#C14F49"/>
      <stop offset=".6" stop-color="#9D3863"/>
      <stop offset=".8" stop-color="#5E1F72"/>
    </linearGradient>
    <linearGradient id="f" x1="195.929" x2="209.89" y1="97.446" y2="212.323" gradientUnits="userSpaceOnUse">
      <stop offset=".004" stop-color="#E38DDD"/>
      <stop offset="1" stop-color="#9571F6"/>
    </linearGradient>
    <linearGradient id="g" x1="155.542" x2="198.979" y1="123.112" y2="131.68" gradientUnits="userSpaceOnUse">
      <stop stop-color="#FB8D48"/>
      <stop offset=".2" stop-color="#ED7136"/>
      <stop offset=".4" stop-color="#C54E47"/>
      <stop offset=".4" stop-color="#C14F49"/>
      <stop offset=".6" stop-color="#9D3863"/>
      <stop offset=".8" stop-color="#5E1F72"/>
    </linearGradient>
    <linearGradient id="h" x1="182.154" x2="241.864" y1="227.339" y2="242.49" gradientUnits="userSpaceOnUse">
      <stop stop-color="#FB8D48"/>
      <stop offset=".2" stop-color="#ED7136"/>
      <stop offset=".4" stop-color="#C54E47"/>
      <stop offset=".4" stop-color="#C14F49"/>
      <stop offset=".6" stop-color="#9D3863"/>
      <stop offset=".8" stop-color="#5E1F72"/>
    </linearGradient>
    <linearGradient id="i" x1="182.154" x2="242.059" y1="232.029" y2="246.816" gradientUnits="userSpaceOnUse">
      <stop stop-color="#FB8D48"/>
      <stop offset=".2" stop-color="#ED7136"/>
      <stop offset=".4" stop-color="#C54E47"/>
      <stop offset=".4" stop-color="#C14F49"/>
      <stop offset=".6" stop-color="#9D3863"/>
      <stop offset=".8" stop-color="#5E1F72"/>
    </linearGradient>
    <linearGradient id="j" x1="211.547" x2="270.131" y1="235.914" y2="249.872" gradientUnits="userSpaceOnUse">
      <stop stop-color="#FB8D48"/>
      <stop offset=".2" stop-color="#ED7136"/>
      <stop offset=".4" stop-color="#C54E47"/>
      <stop offset=".4" stop-color="#C14F49"/>
      <stop offset=".6" stop-color="#9D3863"/>
      <stop offset=".8" stop-color="#5E1F72"/>
    </linearGradient>
    <linearGradient id="k" x1="215.439" x2="226.343" y1="121.717" y2="211.447" gradientUnits="userSpaceOnUse">
      <stop offset=".004" stop-color="#E38DDD"/>
      <stop offset="1" stop-color="#9571F6"/>
    </linearGradient>
    <linearGradient id="l" x1="155.542" x2="198.855" y1="218.672" y2="227.534" gradientUnits="userSpaceOnUse">
      <stop stop-color="#FB8D48"/>
      <stop offset=".2" stop-color="#ED7136"/>
      <stop offset=".4" stop-color="#C54E47"/>
      <stop offset=".4" stop-color="#C14F49"/>
      <stop offset=".6" stop-color="#9D3863"/>
      <stop offset=".8" stop-color="#5E1F72"/>
    </linearGradient>
    <linearGradient id="m" x1="170.847" x2="227.708" y1="170.97" y2="191.388" gradientUnits="userSpaceOnUse">
      <stop stop-color="#FB8D48"/>
      <stop offset=".2" stop-color="#ED7136"/>
      <stop offset=".4" stop-color="#C54E47"/>
      <stop offset=".4" stop-color="#C14F49"/>
      <stop offset=".6" stop-color="#9D3863"/>
      <stop offset=".8" stop-color="#5E1F72"/>
    </linearGradient>
    <linearGradient id="n" x1="182.154" x2="238.683" y1="180.442" y2="200.371" gradientUnits="userSpaceOnUse">
      <stop stop-color="#FB8D48"/>
      <stop offset=".2" stop-color="#ED7136"/>
      <stop offset=".4" stop-color="#C54E47"/>
      <stop offset=".4" stop-color="#C14F49"/>
      <stop offset=".6" stop-color="#9D3863"/>
      <stop offset=".8" stop-color="#5E1F72"/>
    </linearGradient>
    <linearGradient id="o" x1="182.154" x2="239.147" y1="185.128" y2="204.467" gradientUnits="userSpaceOnUse">
      <stop stop-color="#FB8D48"/>
      <stop offset=".2" stop-color="#ED7136"/>
      <stop offset=".4" stop-color="#C54E47"/>
      <stop offset=".4" stop-color="#C14F49"/>
      <stop offset=".6" stop-color="#9D3863"/>
      <stop offset=".8" stop-color="#5E1F72"/>
    </linearGradient>
    <linearGradient id="p" x1="155.572" x2="194.498" y1="190.075" y2="198.451" gradientUnits="userSpaceOnUse">
      <stop stop-color="#FB8D48"/>
      <stop offset=".2" stop-color="#ED7136"/>
      <stop offset=".4" stop-color="#C54E47"/>
      <stop offset=".4" stop-color="#C14F49"/>
      <stop offset=".6" stop-color="#9D3863"/>
      <stop offset=".8" stop-color="#5E1F72"/>
    </linearGradient>
    <linearGradient id="q" x1="189.239" x2="201.912" y1="105.075" y2="209.356" gradientUnits="userSpaceOnUse">
      <stop offset=".004" stop-color="#E38DDD"/>
      <stop offset="1" stop-color="#9571F6"/>
    </linearGradient>
    <linearGradient id="r" x1="182.046" x2="235.548" y1="203.932" y2="218.469" gradientUnits="userSpaceOnUse">
      <stop stop-color="#FB8D48"/>
      <stop offset=".2" stop-color="#ED7136"/>
      <stop offset=".4" stop-color="#C54E47"/>
      <stop offset=".4" stop-color="#C14F49"/>
      <stop offset=".6" stop-color="#9D3863"/>
      <stop offset=".8" stop-color="#5E1F72"/>
    </linearGradient>
    <linearGradient id="s" x1="195.647" x2="248.747" y1="208.426" y2="222.366" gradientUnits="userSpaceOnUse">
      <stop stop-color="#FB8D48"/>
      <stop offset=".2" stop-color="#ED7136"/>
      <stop offset=".4" stop-color="#C54E47"/>
      <stop offset=".4" stop-color="#C14F49"/>
      <stop offset=".6" stop-color="#9D3863"/>
      <stop offset=".8" stop-color="#5E1F72"/>
    </linearGradient>
    <linearGradient id="t" x1="195.647" x2="248.938" y1="213.096" y2="226.692" gradientUnits="userSpaceOnUse">
      <stop stop-color="#FB8D48"/>
      <stop offset=".2" stop-color="#ED7136"/>
      <stop offset=".4" stop-color="#C54E47"/>
      <stop offset=".4" stop-color="#C14F49"/>
      <stop offset=".6" stop-color="#9D3863"/>
      <stop offset=".8" stop-color="#5E1F72"/>
    </linearGradient>
    <linearGradient id="u" x1="163.055" x2="177.099" y1="100.523" y2="216.085" gradientUnits="userSpaceOnUse">
      <stop offset=".004" stop-color="#E38DDD"/>
      <stop offset="1" stop-color="#9571F6"/>
    </linearGradient>
    <linearGradient id="v" x1="133.346" x2="138.538" y1="55.76" y2="83.152" gradientUnits="userSpaceOnUse">
      <stop offset=".2" stop-color="#5E1F72"/>
      <stop offset=".4" stop-color="#9D3863"/>
      <stop offset=".6" stop-color="#C14F49"/>
      <stop offset=".6" stop-color="#C54E47"/>
      <stop offset=".8" stop-color="#ED7136"/>
      <stop offset="1" stop-color="#FB8D48"/>
    </linearGradient>
    <linearGradient id="w" x1="199.092" x2="139.634" y1="114.776" y2="114.776" gradientUnits="userSpaceOnUse">
      <stop stop-color="#AA80F9"/>
      <stop offset=".996" stop-color="#6165D7"/>
    </linearGradient>
    <linearGradient id="x" x1="148.004" x2="141.786" y1="163.522" y2="197.73" gradientUnits="userSpaceOnUse">
      <stop offset=".004" stop-color="#E38DDD"/>
      <stop offset="1" stop-color="#9571F6"/>
    </linearGradient>
    <linearGradient id="y" x1="171.145" x2="111.688" y1="116.435" y2="116.435" gradientUnits="userSpaceOnUse">
      <stop stop-color="#AA80F9"/>
      <stop offset=".996" stop-color="#6165D7"/>
    </linearGradient>
    <linearGradient id="z" x1="167.336" x2="131.566" y1="87.434" y2="146.11" gradientUnits="userSpaceOnUse">
      <stop stop-color="#AA80F9"/>
      <stop offset=".996" stop-color="#6165D7"/>
    </linearGradient>
    <linearGradient id="A" x1="97.91" x2="95.975" y1="109.378" y2="53.206" gradientUnits="userSpaceOnUse">
      <stop stop-color="#FB8D48"/>
      <stop offset=".2" stop-color="#ED7136"/>
      <stop offset=".4" stop-color="#C54E47"/>
      <stop offset=".4" stop-color="#C14F49"/>
      <stop offset=".6" stop-color="#9D3863"/>
      <stop offset=".8" stop-color="#5E1F72"/>
    </linearGradient>
    <linearGradient id="B" x1="77.33" x2="119.197" y1="90.408" y2="39.591" gradientUnits="userSpaceOnUse">
      <stop stop-color="#FFC444"/>
      <stop offset=".996" stop-color="#F36F56"/>
    </linearGradient>
    <linearGradient id="C" x1="96.195" x2="148.276" y1="96.455" y2="96.455" gradientUnits="userSpaceOnUse">
      <stop offset=".004" stop-color="#E38DDD"/>
      <stop offset="1" stop-color="#9571F6"/>
    </linearGradient>
    <linearGradient id="D" x1="120.951" x2="192.436" y1="86.325" y2="86.325" gradientUnits="userSpaceOnUse">
      <stop offset=".004" stop-color="#E38DDD"/>
      <stop offset="1" stop-color="#9571F6"/>
    </linearGradient>
    <linearGradient id="E" x1="175.757" x2="151.505" y1="72.281" y2="104.759" gradientUnits="userSpaceOnUse">
      <stop offset=".004" stop-color="#E38DDD"/>
      <stop offset="1" stop-color="#9571F6"/>
    </linearGradient>
    <linearGradient id="F" x1="102.571" x2="70.278" y1="115.905" y2="59.06" gradientUnits="userSpaceOnUse">
      <stop stop-color="#FB8D48"/>
      <stop offset=".2" stop-color="#ED7136"/>
      <stop offset=".4" stop-color="#C54E47"/>
      <stop offset=".4" stop-color="#C14F49"/>
      <stop offset=".6" stop-color="#9D3863"/>
      <stop offset=".8" stop-color="#5E1F72"/>
    </linearGradient>
    <linearGradient id="G" x1="221.617" x2="364.309" y1="108.562" y2="111.949" gradientUnits="userSpaceOnUse">
      <stop stop-color="#FB8D48"/>
      <stop offset=".2" stop-color="#ED7136"/>
      <stop offset=".4" stop-color="#C54E47"/>
      <stop offset=".4" stop-color="#C14F49"/>
      <stop offset=".6" stop-color="#9D3863"/>
      <stop offset=".8" stop-color="#5E1F72"/>
    </linearGradient>
    <linearGradient id="H" x1="226.937" x2="369.629" y1="108.562" y2="111.949" gradientUnits="userSpaceOnUse">
      <stop stop-color="#FB8D48"/>
      <stop offset=".2" stop-color="#ED7136"/>
      <stop offset=".4" stop-color="#C54E47"/>
      <stop offset=".4" stop-color="#C14F49"/>
      <stop offset=".6" stop-color="#9D3863"/>
      <stop offset=".8" stop-color="#5E1F72"/>
    </linearGradient>
    <linearGradient id="I" x1="251.655" x2="340.506" y1="111.732" y2="113.859" gradientUnits="userSpaceOnUse">
      <stop stop-color="#FB8D48"/>
      <stop offset=".2" stop-color="#ED7136"/>
      <stop offset=".4" stop-color="#C54E47"/>
      <stop offset=".4" stop-color="#C14F49"/>
      <stop offset=".6" stop-color="#9D3863"/>
      <stop offset=".8" stop-color="#5E1F72"/>
    </linearGradient>
    <linearGradient id="J" x1="317.24" x2="440.662" y1="259.568" y2="262.84" gradientUnits="userSpaceOnUse">
      <stop offset=".2" stop-color="#5E1F72"/>
      <stop offset=".4" stop-color="#9D3863"/>
      <stop offset=".6" stop-color="#C14F49"/>
      <stop offset=".6" stop-color="#C54E47"/>
      <stop offset=".8" stop-color="#ED7136"/>
      <stop offset="1" stop-color="#FB8D48"/>
    </linearGradient>
    <linearGradient id="K" x1="322.701" x2="446.122" y1="259.519" y2="262.791" gradientUnits="userSpaceOnUse">
      <stop stop-color="#FB8D48"/>
      <stop offset=".2" stop-color="#ED7136"/>
      <stop offset=".4" stop-color="#C54E47"/>
      <stop offset=".4" stop-color="#C14F49"/>
      <stop offset=".6" stop-color="#9D3863"/>
      <stop offset=".8" stop-color="#5E1F72"/>
    </linearGradient>
  </defs>
</svg>
