<svg xmlns="http://www.w3.org/2000/svg" width="407" height="439" fill="none" viewBox="0 0 407 439">
  <path fill="url(#a)" d="m191.721 99.03-10.343-1.923a74.967 74.967 0 0 0-1.128-20.447l9.694-3.428c2.649-.938 4.053-3.91 3.141-6.644l-2.434-7.297c-.917-2.752-3.823-4.245-6.494-3.328l-9.554 3.28a77.326 77.326 0 0 0-11.416-17.75l6.567-7.597c1.885-2.18 1.644-5.56-.54-7.558l-5.839-5.342c-2.208-2.019-5.551-1.888-7.464.302l-6.562 7.508a78.711 78.711 0 0 0-19.416-10.147l1.88-10.012c.554-2.954-1.405-5.915-4.386-6.617L119.449.152c-3.019-.71-5.929 1.133-6.489 4.119l-1.901 10.122a79.631 79.631 0 0 0-22.49.88l-3.654-10.16c-1.074-2.985-4.384-4.686-7.4-3.791l-8.068 2.392c-3.05.905-4.637 4.084-3.536 7.094l3.808 10.407A79.081 79.081 0 0 0 50.696 33.49l-8.998-7.586c-2.55-2.15-6.37-2-8.528.344l-5.756 6.258c-2.172 2.36-1.832 6.017.755 8.156l9.334 7.72a75.686 75.686 0 0 0-9.675 20.17l-12.5-2.324c-3.363-.626-6.577 1.41-7.166 4.548l-1.567 8.346c-.589 3.138 1.675 6.162 5.046 6.751l12.857 2.249a74.948 74.948 0 0 0 2.384 21.823l-12.527 4.3c-3.195 1.097-4.84 4.395-3.668 7.359l3.106 7.856c1.165 2.945 4.68 4.418 7.845 3.298l12.698-4.491a77.689 77.689 0 0 0 13.15 17.091l-8.704 9.959c-2.123 2.428-1.795 5.953.727 7.863l6.67 5.051c2.494 1.889 6.205 1.455 8.292-.96l8.66-10.018a79.034 79.034 0 0 0 19.596 8.055l-2.354 12.538c-.56 2.986 1.49 5.724 4.569 6.113l8.137 1.03c3.04.385 5.947-1.699 6.501-4.652l2.329-12.403a79.538 79.538 0 0 0 20.629-2.368l4.156 11.359c.993 2.715 4.069 4.004 6.866 2.887l7.396-2.953c2.767-1.105 4.219-4.179 3.25-6.874l-4.011-11.154a78.932 78.932 0 0 0 16.67-11.731l8.814 7.289c2.163 1.79 5.42 1.409 7.278-.843l4.923-5.969c1.846-2.237 1.614-5.504-.522-7.305l-8.501-7.166a75.624 75.624 0 0 0 8.888-18.183l10.643 1.861c2.744.48 5.39-1.417 5.919-4.235l1.407-7.496c.529-2.818-1.255-5.514-3.993-6.024Zm-95.294 45.987c-30.81-4.609-51.956-33.161-46.236-63.625 5.719-30.464 35.843-49.73 66.299-43.241 29.421 6.267 48.193 34.391 42.821 63.006-5.372 28.615-33.122 48.312-62.884 43.86Z"/>
  <path fill="#97A6B7" d="m160.129 19.578 8.476 1.679-1.176 6.264-7.3-7.943Zm26.693 36.292 8.401 1.93-3.006 4.343-5.395-6.274Zm5.616 43.386 8.422 2.282-3.572 3.623-4.85-5.905Zm-25.239 55.989 8.073 2.742 2.287-6.581-10.36 3.839Zm-37.48 24.604 7.195 2.753 1.625-5.391-8.82 2.638Zm-39.721 6.213-6.465-2.441 7.361-7.469-.896 9.91Zm-34.881-14-7.486-3.071 7.377-6.151.109 9.222ZM9.406 85.053l7.243 2.499.551-6.206-7.794 3.707Zm7.625 47.611 7.058 2.552 1.498-4.714-8.556 2.162Z"/>
  <path fill="url(#b)" d="m199.951 101.271-10.429-1.94c.575-7.02.16-13.94-1.137-20.613l9.774-3.457c2.671-.944 4.087-3.94 3.167-6.698l-2.454-7.356c-.925-2.774-3.855-4.28-6.549-3.355l-9.632 3.306a77.983 77.983 0 0 0-11.511-17.894l6.621-7.66c1.9-2.197 1.657-5.605-.545-7.619l-5.888-5.385c-2.226-2.036-5.596-1.904-7.526.303l-6.616 7.57a79.363 79.363 0 0 0-19.577-10.23l1.895-10.094c.559-2.977-1.417-5.963-4.422-6.67l-8.044-1.894c-3.045-.716-5.978 1.141-6.543 4.152l-1.916 10.205a80.306 80.306 0 0 0-22.678.886L92.257 6.586c-1.082-3.01-4.42-4.725-7.461-3.823l-8.134 2.412c-3.076.912-4.675 4.117-3.565 7.151l3.84 10.492a79.732 79.732 0 0 0-19.18 12.376l-9.073-7.648c-2.572-2.168-6.424-2.017-8.599.347L34.281 34.2c-2.19 2.38-1.847 6.066.762 8.223l9.412 7.783A76.297 76.297 0 0 0 34.7 70.541l-12.603-2.343c-3.392-.631-6.632 1.42-7.226 4.585l-1.58 8.414c-.594 3.164 1.69 6.212 5.088 6.806l12.963 2.268a75.554 75.554 0 0 0 2.406 22.001l-12.632 4.335c-3.221 1.105-4.88 4.43-3.698 7.418l3.132 7.921c1.174 2.968 4.719 4.453 7.91 3.325l12.803-4.528a78.353 78.353 0 0 0 13.259 17.231l-8.776 10.04c-2.14 2.448-1.81 6.001.734 7.927l6.725 5.093c2.514 1.904 6.256 1.466 8.36-.969l8.731-10.099a79.68 79.68 0 0 0 19.76 8.121l-2.374 12.641c-.565 3.01 1.502 5.77 4.607 6.163l8.204 1.038c3.066.388 5.997-1.712 6.556-4.69l2.347-12.503a80.227 80.227 0 0 0 20.8-2.387l4.191 11.452c1.001 2.736 4.103 4.035 6.923 2.91l7.457-2.977c2.79-1.114 4.254-4.213 3.277-6.93l-4.045-11.245a79.532 79.532 0 0 0 16.808-11.826l8.887 7.349c2.182 1.804 5.466 1.42 7.338-.85l4.965-6.017c1.861-2.256 1.626-5.55-.527-7.365l-8.571-7.225a76.26 76.26 0 0 0 8.961-18.331l10.731 1.877c2.767.483 5.435-1.429 5.968-4.27l1.419-7.557c.533-2.841-1.266-5.56-4.027-6.073Zm-96.082 46.359c-31.064-4.647-52.386-33.433-46.62-64.145 5.765-30.712 36.138-50.134 66.846-43.592 29.666 6.32 48.594 34.673 43.178 63.521-5.416 28.848-33.395 48.705-63.404 44.216Z"/>
  <path fill="#97A6B7" d="M264.568 386.643c-6.045-2.005-10.564-7.136-11.838-13.443l-8.8-43.552-75.274 2.673-9.264 45.372c-1.297 6.354 3.896 12.729 9.878 15.069l31.493 12.322a40.93 40.93 0 0 0 18.412 2.669l66.556-5.693c1.945-.167 3.506-1.696 3.732-3.658.227-1.962 1.59-4.166-.265-4.781l-24.63-6.978Z"/>
  <path fill="url(#c)" d="M265.313 383.993a17.7 17.7 0 0 1-11.827-13.274l-8.791-43.004-73.439 2.642-9.255 44.801a13.108 13.108 0 0 0 8.109 14.877l31.461 12.167a41.347 41.347 0 0 0 18.393 2.636l66.489-5.622a4.103 4.103 0 0 0 .933-7.986l-22.073-7.237Z"/>
  <path fill="#97A6B7" d="M14.841 358.596C6.678 359.083 0 353.787 0 346.789V94.554c0-6.999 6.678-12.403 14.841-12.05l379.141 26.248c5.992.26 9.208-4.578 9.208 1.374V324.65c0 5.952-4.852 11.084-10.845 11.441L14.841 358.596Z"/>
  <path fill="url(#d)" d="M18.23 358.596c-8.163.487-14.841-4.809-14.841-11.807V94.554c0-6.999 6.678-12.403 14.84-12.05l377.504 16.358c5.993.26 10.846 5.312 10.846 11.264V324.65c0 5.952-4.853 11.084-10.846 11.441L18.23 358.596Z"/>
  <path fill="#D8DEE8" d="M395.266 99.047 17.762 83.517c-3.892 4.686-7.44 7.569-7.44 11.306V346.41c0 3.737 3.548 6.562 7.912 6.312l377.504-21.678c3.212-.185 5.809-2.922 5.809-6.116V109.933c0-3.193-2.597-5.889-6.281-10.886Z" opacity=".3"/>
  <path fill="#263238" d="M392.928 312.886 22.321 331.18c-3.89.192-7.052-2.38-7.052-5.744V98.121c0-3.364 3.162-5.974 7.052-5.83l370.607 13.756c2.908.108 5.261 2.546 5.261 5.445v195.884c0 2.9-2.353 5.366-5.261 5.51Z"/>
  <path fill="#fff" d="m114.775 116.301-84.638-2.489v-8.07l84.638 2.738v7.821Z" opacity=".6"/>
  <path fill="#fff" d="m154.632 115.238-19.552-.592v-5.513l19.552.632v5.473Zm0 7.599-19.552-.535v-5.513l19.552.576v5.472Z" opacity=".36"/>
  <path fill="url(#e)" d="m252.067 125.508-75.854-2.077v-5.427l75.854 2.234v5.27Z"/>
  <path fill="url(#f)" d="m264.508 133.135-75.1-1.838v-5.401l75.1 1.995v5.244Z"/>
  <path fill="url(#g)" d="m264.508 140.416-75.1-1.621v-5.4l75.1 1.777v5.244Z"/>
  <path fill="#fff" d="m264.508 147.709-75.1-1.405v-5.4l75.1 1.561v5.244Z" opacity=".6"/>
  <path fill="#fff" d="m154.632 130.447-19.552-.479v-5.513l19.552.519v5.473Zm0 7.6-19.552-.422v-5.514l19.552.463v5.473Zm0 7.605-19.552-.365v-5.514l19.552.407v5.472Zm0 7.604-19.552-.309v-5.513l19.552.349v5.473Z" opacity=".36"/>
  <path fill="#fff" d="m207.025 154.084-48.127-.761v-5.464l48.127.861v5.364Z" opacity=".6"/>
  <path fill="#fff" d="m154.632 160.859-19.552-.252v-5.513l19.552.293v5.472Zm0 7.604-19.552-.196v-5.513l19.552.236v5.473Zm0 7.602-19.552-.14v-5.513l19.552.18v5.473Z" opacity=".36"/>
  <path fill="url(#h)" d="m229.572 161.826-53.359-.689v-5.428l53.359.8v5.317Z"/>
  <path fill="#fff" d="m257.295 169.489-67.887-.681v-5.4l67.887.822v5.259Z" opacity=".6"/>
  <path fill="url(#i)" d="m257.295 176.799-67.887-.485v-5.4l67.887.626v5.259Z"/>
  <path fill="#fff" d="m154.632 183.668-19.552-.083v-5.513l19.552.124v5.472Zm0 7.604-19.552-.026v-5.514l19.552.067v5.473Zm0 7.604-19.552.03v-5.513l19.552.01v5.473Zm0 7.606-19.552.087v-5.513l19.552-.046v5.472Zm0 7.6-19.552.143v-5.513l19.552-.103v5.473Zm0 7.603-19.552.2v-5.513l19.552-.159v5.472Zm0 7.608-19.552.256v-5.513l19.552-.216v5.473Zm0 7.601-19.552.313v-5.513l19.552-.272v5.472Zm0 7.602-19.552.369v-5.513l19.552-.329v5.473Zm0 7.605-19.552.426v-5.513l19.552-.385v5.472Zm0 7.606-19.552.482v-5.513l19.552-.442v5.473Zm0 7.601-19.552.539v-5.513l19.552-.498v5.472Zm0 7.606-19.552.595v-5.513l19.552-.555v5.473Zm0 7.602-19.552.651v-5.513l19.552-.611v5.473Zm0 7.605-19.552.708v-5.513l19.552-.668v5.473Zm0 7.604-19.552.765v-5.514l19.552-.724v5.473Zm0 7.601-19.552.822v-5.514l19.552-.78v5.472Zm0 7.606-19.552.878v-5.514l19.552-.837v5.473Z" opacity=".36"/>
  <path fill="url(#j)" d="m212.091 116.974-53.323-1.614v-5.464l53.323 1.725v5.353Z"/>
  <path fill="#fff" d="m252.067 271.946-75.854 2.309v-5.427l75.854-2.152v5.27Z" opacity=".6"/>
  <path fill="url(#k)" d="m264.508 278.855-75.1 2.504v-5.4l75.1-2.348v5.244Z"/>
  <path fill="url(#l)" d="m264.508 286.138-75.1 2.722v-5.401l75.1-2.564v5.243Z"/>
  <path fill="url(#m)" d="m296.87 292.157-73.155 2.862v-5.329l73.155-2.71v5.177Z"/>
  <path fill="url(#n)" d="m296.87 299.352-73.155 3.074v-5.329l73.155-2.921v5.176Z"/>
  <path fill="#fff" d="m296.87 306.542-73.155 3.285v-5.329l73.155-3.133v5.177Z" opacity=".6"/>
  <path fill="url(#o)" d="m212.091 265.722-53.323 1.47v-5.464l53.323-1.359v5.353Z"/>
  <path fill="url(#p)" d="m252.067 191.405-75.854-.102v-5.428l75.854.26v5.27Z"/>
  <path fill="#fff" d="m264.508 198.704-75.1.116v-5.4l75.1.041v5.243Z" opacity=".6"/>
  <path fill="url(#q)" d="m264.508 205.994-75.1.333v-5.4l75.1-.177v5.244Z"/>
  <path fill="url(#r)" d="m264.508 213.277-75.1.55v-5.4l75.1-.394v5.244Z"/>
  <path fill="url(#s)" d="m207.025 221.155-48.127.491v-5.464l48.127-.391v5.364Z"/>
  <path fill="#fff" d="m229.572 228.307-53.359.699v-5.428l53.359-.588v5.317Z" opacity=".6"/>
  <path fill="url(#t)" d="m257.295 235.251-67.887 1.086v-5.4l67.887-.945v5.259Z"/>
  <path fill="url(#u)" d="m257.295 242.558-67.887 1.282v-5.4l67.887-1.141v5.259Z"/>
  <path fill="url(#v)" d="m272.343 249.54-67.07 1.461v-5.367l67.07-1.322v5.228Z"/>
  <path fill="url(#w)" d="m272.343 256.8-67.07 1.655v-5.368l67.07-1.515v5.228Z" opacity=".5"/>
  <path fill="url(#x)" d="m212.091 183.915-53.323-.226v-5.464l53.323.337v5.353Z"/>
  <path fill="#fff" d="m114.775 128.518-48.445-1.203v-7.963l48.445 1.344v7.822Z"/>
  <path fill="#fff" d="m53.8 127.006 9.125.227v-7.974l-9.124-.253v8Zm60.975 12.758-48.445-1v-7.963l48.445 1.141v7.822ZM53.8 138.508l9.125.188v-7.973l-9.124-.215v8Zm60.975 12.499-48.445-.795v-7.964l48.445.937v7.822ZM53.8 150.004l9.125.15v-7.974l-9.124-.176v8Z" opacity=".6"/>
  <path fill="#fff" d="m114.775 230.82-84.638 1.141v-8.07l84.638-.893v7.822Z"/>
  <path fill="#fff" d="m114.775 243.039-48.445.874v-7.963l48.445-.733v7.822ZM53.8 244.14l9.125-.164v-7.974l-9.124.138v8Zm60.975 10.145-48.445 1.079V247.4l48.445-.937v7.822ZM53.8 255.642l9.125-.204v-7.973l-9.124.176v8.001Zm60.975 9.885L66.33 266.81v-7.964l48.445-1.141v7.822ZM53.8 267.145l9.125-.242v-7.973l-9.124.215v8Z" opacity=".6"/>
  <path fill="#fff" d="m114.775 162.327-84.638-1.031v-8.069l84.638 1.278v7.822Z"/>
  <path fill="#fff" d="m114.775 174.548-48.445-.367v-7.964l48.445.51v7.821Zm-60.975-.464 9.125.07v-7.974l-9.124-.096v8Zm60.975 11.708-48.445-.164v-7.964l48.445.306v7.822Zm-60.975-.206 9.125.031v-7.973l-9.124-.058v8Zm60.975 22.839-48.445.247v-7.964l48.445-.104v7.821Zm-60.975.314 9.125-.047v-7.973l-9.124.02v8Zm60.975 10.929-48.445.45v-7.963l48.445-.309v7.822Zm-60.975.568 9.125-.085v-7.973l-9.124.058v8Zm60.975-23.201-48.445.04v-7.964l48.445.102v7.822Zm-60.975.051 9.125-.007v-7.974l-9.124-.019v8Z" opacity=".6"/>
  <path fill="#fff" d="m114.775 276.765-84.638 2.598v-8.07l84.638-2.35v7.822Z"/>
  <path fill="#fff" d="m114.775 288.988-48.445 1.708v-7.963l48.445-1.567v7.822ZM53.8 291.137l9.125-.322v-7.973l-9.124.295v8Zm60.975 9.095-48.445 1.913v-7.964l48.445-1.771v7.822ZM53.8 302.637l9.125-.361v-7.973l-9.124.333v8.001Zm60.975 8.837-48.445 2.117v-7.964l48.445-1.975v7.822ZM53.8 314.14l9.125-.399v-7.973l-9.124.372v8Zm71.261-3.071-1.864.081V108.752l1.864.06v202.257Z" opacity=".6"/>
  <path fill="url(#y)" d="m367.793 12.647-78.72-5.952c-7.456-.564-13.54 5.467-13.54 13.475v24.54c0 8.008 6.084 14.802 13.54 15.172l78.72 3.913c6.847.34 12.362-5.548 12.362-13.15V27.346c0-7.601-5.515-14.181-12.362-14.699Z"/>
  <path fill="url(#z)" d="m356.181 98.722-54.703-1.74c-3.796-.121-6.884 3.101-6.884 7.198v27.39c0 4.097 3.088 7.452 6.884 7.494l54.703.613c3.583.04 6.478-3.138 6.478-7.098v-26.48c0-3.96-2.895-7.263-6.478-7.377Z"/>
  <path fill="#898989" d="m330.438 93.987-2.469-.083V65.115l2.469.119v28.754Z"/>
  <path fill="url(#A)" d="m356.181 176.666-54.703.407c-3.796.028-6.884 3.372-6.884 7.468v27.391c0 4.096 3.088 7.33 6.884 7.223l54.703-1.535c3.583-.1 6.478-3.392 6.478-7.352v-26.48c0-3.96-2.895-7.149-6.478-7.122Z"/>
  <path fill="url(#B)" d="m369.869 12.745-78.658-5.949c-7.45-.563-13.529 5.466-13.529 13.47v24.531c0 8.005 6.079 14.795 13.529 15.166l78.658 3.91c6.841.34 12.352-5.547 12.352-13.146V27.438c0-7.599-5.511-14.176-12.352-14.693Z"/>
  <path fill="url(#C)" d="m358.267 98.786-54.659-1.74c-3.794-.12-6.879 3.101-6.879 7.195v27.38c0 4.095 3.085 7.449 6.879 7.491l54.659.612c3.58.04 6.472-3.137 6.472-7.095v-26.47c0-3.958-2.892-7.26-6.472-7.373Z"/>
  <path fill="url(#D)" d="m358.267 176.697-54.659.407c-3.794.028-6.879 3.371-6.879 7.465v27.38c0 4.095 3.085 7.328 6.879 7.221l54.659-1.534c3.58-.101 6.472-3.391 6.472-7.349v-26.47c0-3.959-2.892-7.146-6.472-7.12Z"/>
  <path fill="#898989" d="m330.438 172.934-2.469.013v-28.789l2.469.022v28.754Z"/>
  <path fill="url(#E)" d="m291.247 251.27.347-.208c-5.972-.556-15.001-2.551-20.294-3.814-.184.028-.393.014-.577.041a91.156 91.156 0 0 1-18.286.783c-6.637-.353-13.715-1.614-20.826-3.766-.894-.232-1.775-.591-2.662-.88-.441-.155-.892-.308-1.336-.467l-.665-.224c-.226-.083-.443-.178-.665-.263a541.99 541.99 0 0 0-2.65-1.058l-.665-.263-.654-.305c-.438-.198-.875-.397-1.308-.598-1.769-.758-3.471-1.699-5.199-2.576-.859-.459-1.704-.974-2.549-1.459-.42-.239-.85-.483-1.271-.733-.413-.266-.833-.534-1.243-.796a82.702 82.702 0 0 1-18.04-15.486l-1.936-2.288c-.624-.777-1.212-1.593-1.817-2.376l-.907-1.191-.836-1.24-.846-1.235c-.276-.412-.571-.808-.82-1.243-.514-.849-1.032-1.695-1.549-2.548-.124-.209-.273-.427-.376-.63l-.311-.587-.62-1.175-.619-1.163c-.056-.103-.097-.172-.167-.308l-.607-1.212-.819-1.615-.608-1.212-.104-.203-.037-.073c.005-.002-.241-.403.177.266l-1.131-2.727c-.181-.452-.392-.892-.548-1.36l-.487-1.377-.493-1.375-.245-.685c-.083-.228-.142-.464-.214-.692-.276-.926-.557-1.849-.827-2.774-.155-.455-.25-.93-.367-1.391l-.332-1.394-.35-1.383-.265-1.399c-.171-.936-.377-1.852-.517-2.776-.129-.926-.261-1.856-.383-2.78-.899-7.397-.684-14.659.477-21.424l.2-1.264.273-1.249c.178-.826.324-1.657.53-2.465.005-.032.021-.065.025-.097.429-1.59.789-3.157 1.313-4.668.115-.388.238-.774.364-1.156l.174-.576.216-.566c.273-.747.552-1.492.823-2.233.068-.182.126-.37.199-.555l.234-.536c.154-.363.311-.722.459-1.076.318-.71.573-1.429.932-2.11 2.608-5.501 5.629-10.312 8.873-14.295a68.39 68.39 0 0 1 9.688-9.779l1.167-.929c.384-.294.738-.619 1.132-.878.769-.548 1.499-1.074 2.194-1.578.721-.491 1.438-.92 2.093-1.353.331-.216.648-.435.963-.629.333-.182.655-.363.962-.541l1.745-1.009c.149-.095.243-.115.353-.169l.318-.138c.202-.097.191-.055.376-.142.155-.075.235-.099.243-.086l17.112 28.596 8.868-28.905 20.005-66.832-98.017-19.808 18.178 30.377c.026.044-.466.403-.846.695-.812.645-1.597 1.286-2.56 2.051-.475.39-.92.751-1.431 1.17l-.745.616c-.259.208-.54.43-.754.634-.924.842-1.899 1.726-2.94 2.668-.511.477-1.038.957-1.577 1.457-.533.508-1.06 1.048-1.604 1.597-1.084 1.097-2.239 2.225-3.385 3.454-1.123 1.25-2.286 2.547-3.499 3.893-.615.668-1.175 1.399-1.774 2.123l-1.793 2.218a127.854 127.854 0 0 0-13.795 21.677c-4.215 8.345-7.703 17.848-10.088 28.077-.333 1.268-.547 2.576-.815 3.874-.123.652-.253 1.302-.38 1.957l-.186.99-.153.988a994.058 994.058 0 0 1-.587 3.997l-.142 1.006-.1 1.015c-.068.684-.135 1.361-.199 2.043-.311 2.705-.399 5.465-.534 8.237-.045 1.383-.026 2.776-.031 4.177 0 .69.005 1.39.002 2.094l.091 2.104c.428 11.225 2.503 22.667 6.203 33.621.486 1.355.973 2.722 1.462 4.081.502 1.351 1.087 2.683 1.633 4.02l.841 1.997.928 1.964.929 1.957c.313.651.61 1.305.96 1.939.682 1.268 1.275 2.594 1.959 3.866.169.312.239.695.424 1.003l.556.93 1.209 1.784 1.166 1.81c.369.616.821 1.184 1.218 1.778l2.418 3.538c.512.827.193.274.325.484l.07.088.139.183.28.351.559.715 1.111 1.424.559.716.276.354.349.434 1.451 1.775 1.46 1.769.729.873c.242.286.48.527.723.795.962 1.035 1.928 2.067 2.885 3.105.471.521.989 1.002 1.489 1.493l1.513 1.472 1.504 1.46 1.57 1.391c1.05.917 2.081 1.851 3.149 2.729 1.085.867 2.165 1.725 3.245 2.583 8.751 6.698 18.211 11.927 27.763 15.575.594.234 1.19.461 1.782.691.599.213 1.198.416 1.801.615 1.198.404 2.372.828 3.569 1.192 2.411.687 4.759 1.406 7.143 1.92.592.141 1.183.271 1.771.415l.875.202.885.167c1.181.219 2.353.432 3.511.642l.872.156.877.124c.58.072 1.161.155 1.736.23 1.156.146 2.29.346 3.435.416 6.137.605 12.043.693 17.612.358a92.702 92.702 0 0 0 7.873-.794 105.59 105.59 0 0 0 20.549-5.017c.73-.278 1.453-.539 2.162-.804.701-.267 1.403-.504 2.069-.802 1.336-.576 2.621-1.12 3.855-1.652 1.225-.556 2.369-1.147 3.474-1.678.544-.272 1.084-.524 1.606-.796.505-.279 1.054-.465 1.545-.73.962-.54 1.961-.931 2.8-1.433Z"/>
  <path fill="url(#F)" d="m291.245 251.268.348-.208c-5.973-.556-15.002-2.551-20.294-3.814-.184.027-.393.013-.577.041a91.24 91.24 0 0 1-18.287.783c-6.636-.354-13.714-1.614-20.825-3.766-.894-.232-1.776-.591-2.663-.88-.44-.155-.892-.308-1.335-.468l-.665-.223c-.226-.083-.443-.178-.665-.264-.878-.353-1.761-.705-2.651-1.057l-.664-.263-.655-.305c-.437-.198-.874-.397-1.307-.598-1.77-.758-3.471-1.699-5.2-2.576-.859-.459-1.704-.974-2.549-1.46-.42-.238-.849-.482-1.27-.732-.413-.266-.833-.534-1.243-.796a82.661 82.661 0 0 1-18.041-15.487l-1.935-2.287c-.624-.777-1.212-1.593-1.817-2.376l-.907-1.191-.837-1.24-.845-1.235c-.276-.413-.572-.808-.821-1.243-.513-.849-1.032-1.695-1.548-2.549-.125-.208-.273-.426-.377-.629l-.31-.588-.62-1.174-.62-1.164c-.055-.102-.097-.171-.166-.307l-.607-1.212-.82-1.616-.607-1.212-.104-.203-.037-.072c.004-.003-.242-.404.177.266l-1.131-2.728c-.182-.451-.392-.892-.548-1.359l-.488-1.377-.492-1.375-.245-.685c-.083-.228-.142-.464-.214-.693-.277-.926-.557-1.849-.827-2.773-.155-.456-.25-.93-.367-1.391l-.333-1.394-.35-1.383-.264-1.4c-.171-.935-.377-1.851-.517-2.776-.129-.925-.261-1.855-.384-2.779-.898-7.397-.683-14.659.478-21.424l.199-1.264.273-1.249c.178-.826.324-1.657.531-2.465.005-.032.02-.065.024-.097-8.213 22.348-6.094 49.322 7.948 72.788 14.389 24.044 37.936 38.796 62.118 41.634a92.294 92.294 0 0 0 7.873-.794 105.519 105.519 0 0 0 20.549-5.017c.73-.277 1.453-.539 2.162-.804.702-.266 1.403-.503 2.069-.801 1.337-.576 2.621-1.121 3.855-1.652 1.225-.556 2.369-1.147 3.474-1.678.544-.273 1.084-.525 1.606-.796.506-.279 1.054-.466 1.545-.73.963-.54 1.962-.931 2.8-1.433Z"/>
  <path fill="#F4F7FA" d="M269.081 240.761a1.346 1.346 0 0 0-.931 1.705l7.689 24.477c.22.7.959 1.096 1.664.89l17.857-5.208a1.348 1.348 0 0 0 .919-1.663l-6.923-24.359a1.348 1.348 0 0 0-1.652-.932l-18.623 5.09Z"/>
  <path fill="url(#G)" d="M270.504 241.951a1.206 1.206 0 0 0-.83 1.52l6.857 21.829c.196.624.856.977 1.484.793l15.925-4.644c.634-.185 1-.848.82-1.483l-6.174-21.723a1.203 1.203 0 0 0-1.474-.831l-16.608 4.539Z"/>
  <path fill="#F4F7FA" d="M272.883 243.17a.931.931 0 0 0-.645 1.169l2.17 7.119a.93.93 0 0 0 1.131.628l12.708-3.409a.928.928 0 0 0 .655-1.149l-2.016-7.226a.931.931 0 0 0-1.142-.648l-12.861 3.516Zm3.229 11.359a.957.957 0 0 0-.666 1.206l2.239 7.346a.96.96 0 0 0 1.167.648l13.113-3.518a.96.96 0 0 0 .676-1.185l-2.08-7.456a.962.962 0 0 0-1.179-.669l-13.27 3.628Z" opacity=".75"/>
  <path fill="url(#H)" d="M372.994 253.324c1.005.38 16.328 6.474 19.477 22.466.255 1.292 2.716 15.032-6.602 24.738-10.448 10.885-30.568 10.615-38.554 1.516-1.862-2.122-2.845-4.474-3.395-6.45l2.104-5.59c2.568-3.1 6.063-3.834 7.93-4.294 4.603-1.134 8.078.916 10.714-1.304 1.458-1.228 1.748-2.995 2.007-4.574.881-5.378-2.154-8.688-2.375-12.004-.165-2.479-1.033-7.911 2.203-11.454 2.049-2.243 4.887-2.853 6.491-3.05Z"/>
  <path fill="url(#I)" d="M378.965 431.555c.179-.985 3.358-1.876 4.933-.557.781.654 1.32 1.982.868 2.581-.165.218.509.602-.137.609-2.142.025-5.842-1.655-5.664-2.633Z"/>
  <path fill="salmon" d="m382.297 431.913 3.27-.462c-1.515-1.824-1.234-7.633-1.234-7.633l-3.478.777s.397 1.594 1.071 3.946c.231.805.333 2.065.371 3.372Z"/>
  <path fill="url(#J)" d="M382.01 431.504s3.936-.907 4.362-.126c.426.781.757 2.871-1.741 2.804-2.498-.067-2.843-2.016-2.621-2.678Z"/>
  <path fill="url(#K)" d="M334.1 435.247c.315-.95 3.588-1.387 4.962.139.682.758 1.03 2.147.498 2.677-.194.193.42.668-.22.585-2.125-.275-5.553-2.457-5.24-3.401Z"/>
  <path fill="salmon" d="m277.499 268.618-2.989-1.432a6.601 6.601 0 0 1-1.713-2.039c-.886-1.662-.872-3.46-.86-3.462.007-.001-.136-2.419.89-2.828a.862.862 0 0 1 .468-.042l1.063 2.799s.171 1.218 2.091 2.482c1.904 1.659 2.671 3.174 2.671 3.174l-1.621 1.348Zm59.85 167.446h3.302c-1.244-2.018-.154-7.73-.154-7.73l-3.552.282s.17 1.634.508 4.057c.116.829.041 2.091-.104 3.391Z"/>
  <path fill="url(#L)" d="M328.793 311.185a152.844 152.844 0 0 0-5.121 23.435c-4.011 29.178 4.515 30.109 2.922 62.442-.508 10.321 8.942 34.12 9.775 34.645.403.039.84.066 1.307.051a12.99 12.99 0 0 0 3.328-.554c1.497-.258 6.894-14.876 5.643-23.567-.886-6.152-.629-12.753-.116-25.957.084-2.139 5.557-41.622 5.557-41.622a646.149 646.149 0 0 0 5.24 36.66c5.334 30.931 22.675 49.653 23.579 49.953.179.072 1.806.663 3.137-.213.592-.391.793-.894.793-.894.464-.363-.137-30.882-5.426-53.85-7.677-33.338-4.334-41.138-6.767-56.029-2.104-12.884-43.851-4.5-43.851-4.5Z"/>
  <path fill="url(#M)" d="M359.801 250.721c-5.097-.15-14.97-1.815-21.423 3.992-.112.1-.634.672-1.285 1.434a42.29 42.29 0 0 0-4.556 6.538c-1.361 2.427-2.589 5.256-3.829 9.472a81.41 81.41 0 0 0-3.023 16.526c-1.179 15.513-.01 22.67 1.052 27.537 4.608 2.367 16.483 6.603 30.633 4.499 6.462-.962 11.633-3.112 15.272-5.031-3.671-11.117-.791-17.065.568-22.548 1.938-7.818 1.969-7.227 3.564-13.438 2.633-10.247 3.065-20.718 1.256-22.861-4.877-5.777-13.665-5.986-18.229-6.12Z"/>
  <path fill="url(#N)" d="M378.035 256.842c-2.738-3.244-6.709-4.732-10.473-5.438 1.765 7.876-2.244 17.521-7.683 22.641-5.075 4.776-9.744 1.604-13.108 5.587-2.778 3.288-2.869 8.634-1.467 12.3 1.896 4.958 5.984 5.44 5.772 8.238-.282 3.71-7.74 6.471-13.226 6.987-5.729.539-10.298-1.277-12.563-2.371.229 5.249.859 8.703 1.455 11.435 4.609 2.367 16.484 6.603 30.633 4.498 6.462-.961 11.633-3.111 15.272-5.031-3.671-11.116-.791-17.065.568-22.548 1.938-7.818 1.969-7.227 3.564-13.437 2.633-10.248 3.065-20.719 1.256-22.861Z"/>
  <path fill="url(#O)" d="M337.116 435.624s4.025-.347 4.337.486c.312.833.347 2.949-2.117 2.533-2.463-.416-2.533-2.394-2.22-3.019Z"/>
  <path fill="url(#P)" d="M346.311 252.58c-5.575-3.628-20.153 7.737-24.566 10.872-17.114 12.153-15.063 19.735-22.835 15.95-5.255-2.558-5.969-10.272-14.951-13.174a19.168 19.168 0 0 0-3.833-.815c-.012.006-2.966 1.577-2.979 1.581-1.049.34-2.098.679-2.978 1.582a23.283 23.283 0 0 0-2.054 6.525c.085.904.263 2.404.67 4.215.337 1.499 4.283 17.902 17.999 22.954 2.519.928 4.613 1.194 5.669 1.323 4.507.546 8.592-.122 15.576-2.529 11.829-4.076 20.861-7.899 28.846-17.245.38-.445.687-.882.994-1.352 5.939-9.107 9.824-26.386 4.442-29.887Z"/>
  <path fill="salmon" d="M345.455 244.876c-1.579-2.67-.876-5.719-.717-6.378.664-2.759.911-3.177 1.423-3.761l.724-.766.092-.066c.504-.347 2.384-.909 2.79-.93 1.296-.065 3.934 4.584 5.445 11.748a56.177 56.177 0 0 1 2.308 5.558c8.762.741 9.978 1.769 10.017 2.362.082 1.25-4.91 2.694-8.665 3.243-8.187 1.199-16.604-.96-16.565-2.487.017-.665 1.644-1.531 8.585-2.44l-.487-3.446c-.564-.124-3.787-.671-4.95-2.637Z"/>
  <path fill="#472E05" d="M343.812 232.64c.591 2.187 2.245 4.25 2.871 4.485.08.031.543.231 1.023.655.066.058.129.129.194.225.847 1.252-.913 3.46-.325 3.965.426.366 1.757-.631 2.037-.291.265.319-.773 1.404-.467 1.789.231.291.913-.213 1.528.163.306.187.289.405.748 1.105.259.396.587.818.813 1.041 1.099 1.083 3.366.982 3.642.357.076-.174-.055-.268-.066-.78 0 0-.01-.475.163-1.073.247-.854 1.176-1.666 2.048-2.731 1.616-1.972 1.832-3.344 1.884-3.802.019-.163.025-.284.03-.372.09-1.752-.54-4.122-1.653-5.386-1.866-2.117-4.298-.228-7.186-2.048-3.333-2.101-2.808-6.326-4.325-6.373-1.672-.052-4.051 5.028-2.959 9.071Z"/>
  <path fill="salmon" d="M348.222 241.241c.34-.88 1.468-.439 1.727.513.26.953-.4 2.191-1.346 2.241-.947.051-.838-1.569-.381-2.754Z"/>
  <path fill="#472E05" d="m348.228 239.533-.813 1.951s-.824 2.355-1.886 1.463c-.674-.566-.817-.625-.928-.651a3.468 3.468 0 0 1-.145-.878c-.204.564-.487 1.523-.487 2.635 0 1.08 0 2.236.845 3.121.049.051.97.988 2.211.943 0 0 .488-.018 2.341-.878 0 0-2.536-.975-2.666-1.333-.353-.972.884-1.879 1.366-4.195.185-.893.19-1.659.162-2.178Z"/>
  <defs>
    <linearGradient id="a" x1="101.155" x2="101.155" y1="0" y2="185.036" gradientUnits="userSpaceOnUse">
      <stop stop-color="#B64A18"/>
      <stop offset="1" stop-color="#FFBE55"/>
    </linearGradient>
    <linearGradient id="b" x1="16.517" x2="204.717" y1="81.749" y2="85.483" gradientUnits="userSpaceOnUse">
      <stop stop-color="#FB8D48"/>
      <stop offset=".2" stop-color="#ED7136"/>
      <stop offset=".4" stop-color="#C54E47"/>
      <stop offset=".4" stop-color="#C14F49"/>
      <stop offset=".6" stop-color="#9D3863"/>
      <stop offset=".8" stop-color="#5E1F72"/>
    </linearGradient>
    <linearGradient id="c" x1="226.41" x2="222.257" y1="399.246" y2="279.616" gradientUnits="userSpaceOnUse">
      <stop stop-color="#D8DEE8"/>
      <stop offset=".996" stop-color="#97A6B7"/>
    </linearGradient>
    <linearGradient id="d" x1="153.237" x2="-7.931" y1="314.461" y2="640.952" gradientUnits="userSpaceOnUse">
      <stop stop-color="#D8DEE8"/>
      <stop offset=".996" stop-color="#97A6B7"/>
    </linearGradient>
    <linearGradient id="e" x1="214.14" x2="214.14" y1="118.004" y2="125.508" gradientUnits="userSpaceOnUse">
      <stop offset=".114" stop-color="#FFBE55"/>
      <stop offset="1" stop-color="#E86B31"/>
    </linearGradient>
    <linearGradient id="f" x1="190.714" x2="261.909" y1="129.013" y2="143.337" gradientUnits="userSpaceOnUse">
      <stop stop-color="#FB8D48"/>
      <stop offset=".2" stop-color="#ED7136"/>
      <stop offset=".4" stop-color="#C54E47"/>
      <stop offset=".4" stop-color="#C14F49"/>
      <stop offset=".6" stop-color="#9D3863"/>
      <stop offset=".8" stop-color="#5E1F72"/>
    </linearGradient>
    <linearGradient id="g" x1="190.714" x2="261.735" y1="136.418" y2="151.148" gradientUnits="userSpaceOnUse">
      <stop stop-color="#FB8D48"/>
      <stop offset=".2" stop-color="#ED7136"/>
      <stop offset=".4" stop-color="#C54E47"/>
      <stop offset=".4" stop-color="#C14F49"/>
      <stop offset=".6" stop-color="#9D3863"/>
      <stop offset=".8" stop-color="#5E1F72"/>
    </linearGradient>
    <linearGradient id="h" x1="177.141" x2="228.309" y1="158.343" y2="166.998" gradientUnits="userSpaceOnUse">
      <stop stop-color="#FB8D48"/>
      <stop offset=".2" stop-color="#ED7136"/>
      <stop offset=".4" stop-color="#C54E47"/>
      <stop offset=".4" stop-color="#C14F49"/>
      <stop offset=".6" stop-color="#9D3863"/>
      <stop offset=".8" stop-color="#5E1F72"/>
    </linearGradient>
    <linearGradient id="i" x1="223.352" x2="223.352" y1="170.914" y2="176.799" gradientUnits="userSpaceOnUse">
      <stop offset=".114" stop-color="#FFBE55"/>
      <stop offset="1" stop-color="#E86B31"/>
    </linearGradient>
    <linearGradient id="j" x1="159.695" x2="211.193" y1="112.944" y2="120.468" gradientUnits="userSpaceOnUse">
      <stop stop-color="#FB8D48"/>
      <stop offset=".2" stop-color="#ED7136"/>
      <stop offset=".4" stop-color="#C54E47"/>
      <stop offset=".4" stop-color="#C14F49"/>
      <stop offset=".6" stop-color="#9D3863"/>
      <stop offset=".8" stop-color="#5E1F72"/>
    </linearGradient>
    <linearGradient id="k" x1="190.714" x2="262.263" y1="276.947" y2="290.396" gradientUnits="userSpaceOnUse">
      <stop stop-color="#FB8D48"/>
      <stop offset=".2" stop-color="#ED7136"/>
      <stop offset=".4" stop-color="#C54E47"/>
      <stop offset=".4" stop-color="#C14F49"/>
      <stop offset=".6" stop-color="#9D3863"/>
      <stop offset=".8" stop-color="#5E1F72"/>
    </linearGradient>
    <linearGradient id="l" x1="190.714" x2="262.394" y1="284.324" y2="297.43" gradientUnits="userSpaceOnUse">
      <stop stop-color="#FB8D48"/>
      <stop offset=".2" stop-color="#ED7136"/>
      <stop offset=".4" stop-color="#C54E47"/>
      <stop offset=".4" stop-color="#C14F49"/>
      <stop offset=".6" stop-color="#9D3863"/>
      <stop offset=".8" stop-color="#5E1F72"/>
    </linearGradient>
    <linearGradient id="m" x1="224.987" x2="294.966" y1="290.442" y2="302.791" gradientUnits="userSpaceOnUse">
      <stop stop-color="#FB8D48"/>
      <stop offset=".2" stop-color="#ED7136"/>
      <stop offset=".4" stop-color="#C54E47"/>
      <stop offset=".4" stop-color="#C14F49"/>
      <stop offset=".6" stop-color="#9D3863"/>
      <stop offset=".8" stop-color="#5E1F72"/>
    </linearGradient>
    <linearGradient id="n" x1="260.292" x2="260.292" y1="294.176" y2="302.426" gradientUnits="userSpaceOnUse">
      <stop offset=".114" stop-color="#FFBE55"/>
      <stop offset="1" stop-color="#E86B31"/>
    </linearGradient>
    <linearGradient id="o" x1="159.695" x2="211.111" y1="263.307" y2="271.099" gradientUnits="userSpaceOnUse">
      <stop stop-color="#FB8D48"/>
      <stop offset=".2" stop-color="#ED7136"/>
      <stop offset=".4" stop-color="#C54E47"/>
      <stop offset=".4" stop-color="#C14F49"/>
      <stop offset=".6" stop-color="#9D3863"/>
      <stop offset=".8" stop-color="#5E1F72"/>
    </linearGradient>
    <linearGradient id="p" x1="177.532" x2="247.409" y1="188.256" y2="206.842" gradientUnits="userSpaceOnUse">
      <stop stop-color="#FB8D48"/>
      <stop offset=".2" stop-color="#ED7136"/>
      <stop offset=".4" stop-color="#C54E47"/>
      <stop offset=".4" stop-color="#C14F49"/>
      <stop offset=".6" stop-color="#9D3863"/>
      <stop offset=".8" stop-color="#5E1F72"/>
    </linearGradient>
    <linearGradient id="q" x1="190.714" x2="260.062" y1="203.151" y2="221.261" gradientUnits="userSpaceOnUse">
      <stop stop-color="#FB8D48"/>
      <stop offset=".2" stop-color="#ED7136"/>
      <stop offset=".4" stop-color="#C54E47"/>
      <stop offset=".4" stop-color="#C14F49"/>
      <stop offset=".6" stop-color="#9D3863"/>
      <stop offset=".8" stop-color="#5E1F72"/>
    </linearGradient>
    <linearGradient id="r" x1="190.714" x2="260.389" y1="210.528" y2="228.041" gradientUnits="userSpaceOnUse">
      <stop stop-color="#FB8D48"/>
      <stop offset=".2" stop-color="#ED7136"/>
      <stop offset=".4" stop-color="#C54E47"/>
      <stop offset=".4" stop-color="#C14F49"/>
      <stop offset=".6" stop-color="#9D3863"/>
      <stop offset=".8" stop-color="#5E1F72"/>
    </linearGradient>
    <linearGradient id="s" x1="159.735" x2="206.03" y1="218.312" y2="225.691" gradientUnits="userSpaceOnUse">
      <stop stop-color="#FB8D48"/>
      <stop offset=".2" stop-color="#ED7136"/>
      <stop offset=".4" stop-color="#C54E47"/>
      <stop offset=".4" stop-color="#C14F49"/>
      <stop offset=".6" stop-color="#9D3863"/>
      <stop offset=".8" stop-color="#5E1F72"/>
    </linearGradient>
    <linearGradient id="t" x1="223.352" x2="223.352" y1="229.992" y2="236.337" gradientUnits="userSpaceOnUse">
      <stop offset=".114" stop-color="#FFBE55"/>
      <stop offset="1" stop-color="#E86B31"/>
    </linearGradient>
    <linearGradient id="u" x1="190.589" x2="254.944" y1="240.115" y2="253.067" gradientUnits="userSpaceOnUse">
      <stop stop-color="#FB8D48"/>
      <stop offset=".2" stop-color="#ED7136"/>
      <stop offset=".4" stop-color="#C54E47"/>
      <stop offset=".4" stop-color="#C14F49"/>
      <stop offset=".6" stop-color="#9D3863"/>
      <stop offset=".8" stop-color="#5E1F72"/>
    </linearGradient>
    <linearGradient id="v" x1="206.44" x2="270.186" y1="247.192" y2="259.588" gradientUnits="userSpaceOnUse">
      <stop stop-color="#FB8D48"/>
      <stop offset=".2" stop-color="#ED7136"/>
      <stop offset=".4" stop-color="#C54E47"/>
      <stop offset=".4" stop-color="#C14F49"/>
      <stop offset=".6" stop-color="#9D3863"/>
      <stop offset=".8" stop-color="#5E1F72"/>
    </linearGradient>
    <linearGradient id="w" x1="205.273" x2="272.343" y1="255.013" y2="255.013" gradientUnits="userSpaceOnUse">
      <stop stop-color="#FF9085"/>
      <stop offset="1" stop-color="#FB6FBB"/>
    </linearGradient>
    <linearGradient id="x" x1="185.43" x2="185.43" y1="178.225" y2="183.915" gradientUnits="userSpaceOnUse">
      <stop offset=".114" stop-color="#FFBE55"/>
      <stop offset="1" stop-color="#E86B31"/>
    </linearGradient>
    <linearGradient id="y" x1="318.206" x2="349.57" y1="-11.281" y2="142.688" gradientUnits="userSpaceOnUse">
      <stop stop-color="#AB316D"/>
      <stop offset="1" stop-color="#792D3D"/>
    </linearGradient>
    <linearGradient id="z" x1="343.732" x2="325.091" y1="247.676" y2="88.679" gradientUnits="userSpaceOnUse">
      <stop stop-color="#AB316D"/>
      <stop offset="1" stop-color="#792D3D"/>
    </linearGradient>
    <linearGradient id="A" x1="315.37" x2="346.538" y1="142.626" y2="272.49" gradientUnits="userSpaceOnUse">
      <stop stop-color="#AB316D"/>
      <stop offset="1" stop-color="#792D3D"/>
    </linearGradient>
    <linearGradient id="B" x1="279.5" x2="382.485" y1="31.356" y2="35.011" gradientUnits="userSpaceOnUse">
      <stop stop-color="#FB8D48"/>
      <stop offset=".2" stop-color="#ED7136"/>
      <stop offset=".4" stop-color="#C54E47"/>
      <stop offset=".4" stop-color="#C14F49"/>
      <stop offset=".6" stop-color="#9D3863"/>
      <stop offset=".8" stop-color="#5E1F72"/>
    </linearGradient>
    <linearGradient id="C" x1="297.911" x2="364.932" y1="115.42" y2="117.491" gradientUnits="userSpaceOnUse">
      <stop stop-color="#FB8D48"/>
      <stop offset=".2" stop-color="#ED7136"/>
      <stop offset=".4" stop-color="#C54E47"/>
      <stop offset=".4" stop-color="#C14F49"/>
      <stop offset=".6" stop-color="#9D3863"/>
      <stop offset=".8" stop-color="#5E1F72"/>
    </linearGradient>
    <linearGradient id="D" x1="297.911" x2="364.931" y1="194.985" y2="197.066" gradientUnits="userSpaceOnUse">
      <stop stop-color="#FB8D48"/>
      <stop offset=".2" stop-color="#ED7136"/>
      <stop offset=".4" stop-color="#C54E47"/>
      <stop offset=".4" stop-color="#C14F49"/>
      <stop offset=".6" stop-color="#9D3863"/>
      <stop offset=".8" stop-color="#5E1F72"/>
    </linearGradient>
    <linearGradient id="E" x1="208.945" x2="208.945" y1="18.602" y2="265.169" gradientUnits="userSpaceOnUse">
      <stop offset=".114" stop-color="#FFBE55"/>
      <stop offset="1" stop-color="#E86B31"/>
    </linearGradient>
    <linearGradient id="F" x1="172.552" x2="291.999" y1="199.816" y2="202.268" gradientUnits="userSpaceOnUse">
      <stop stop-color="#FB8D48"/>
      <stop offset=".2" stop-color="#ED7136"/>
      <stop offset=".4" stop-color="#C54E47"/>
      <stop offset=".4" stop-color="#C14F49"/>
      <stop offset=".6" stop-color="#9D3863"/>
      <stop offset=".8" stop-color="#5E1F72"/>
    </linearGradient>
    <linearGradient id="G" x1="264.712" x2="303.691" y1="222.755" y2="286.113" gradientUnits="userSpaceOnUse">
      <stop stop-color="#FF9085"/>
      <stop offset="1" stop-color="#FB6FBB"/>
    </linearGradient>
    <linearGradient id="H" x1="377.371" x2="369.342" y1="323.657" y2="264.766" gradientUnits="userSpaceOnUse">
      <stop stop-color="#FB8D48"/>
      <stop offset=".2" stop-color="#ED7136"/>
      <stop offset=".4" stop-color="#C54E47"/>
      <stop offset=".4" stop-color="#C14F49"/>
      <stop offset=".6" stop-color="#9D3863"/>
      <stop offset=".8" stop-color="#5E1F72"/>
    </linearGradient>
    <linearGradient id="I" x1="377.199" x2="384.2" y1="428.713" y2="433.366" gradientUnits="userSpaceOnUse">
      <stop stop-color="#444B8C"/>
      <stop offset=".996" stop-color="#26264F"/>
    </linearGradient>
    <linearGradient id="J" x1="377.727" x2="384.728" y1="427.916" y2="432.568" gradientUnits="userSpaceOnUse">
      <stop stop-color="#444B8C"/>
      <stop offset=".996" stop-color="#26264F"/>
    </linearGradient>
    <linearGradient id="K" x1="332.75" x2="339.03" y1="432.186" y2="437.773" gradientUnits="userSpaceOnUse">
      <stop stop-color="#444B8C"/>
      <stop offset=".996" stop-color="#26264F"/>
    </linearGradient>
    <linearGradient id="L" x1="338.286" x2="379.238" y1="442.8" y2="277.453" gradientUnits="userSpaceOnUse">
      <stop stop-color="#444B8C"/>
      <stop offset=".996" stop-color="#26264F"/>
    </linearGradient>
    <linearGradient id="M" x1="348.238" x2="345.805" y1="324.112" y2="276.909" gradientUnits="userSpaceOnUse">
      <stop stop-color="#FB8D48"/>
      <stop offset=".2" stop-color="#ED7136"/>
      <stop offset=".4" stop-color="#C54E47"/>
      <stop offset=".4" stop-color="#C14F49"/>
      <stop offset=".6" stop-color="#9D3863"/>
      <stop offset=".8" stop-color="#5E1F72"/>
    </linearGradient>
    <linearGradient id="N" x1="347.329" x2="342.182" y1="347.328" y2="271.182" gradientUnits="userSpaceOnUse">
      <stop stop-color="#FB8D48"/>
      <stop offset=".2" stop-color="#ED7136"/>
      <stop offset=".4" stop-color="#C54E47"/>
      <stop offset=".4" stop-color="#C14F49"/>
      <stop offset=".6" stop-color="#9D3863"/>
      <stop offset=".8" stop-color="#5E1F72"/>
    </linearGradient>
    <linearGradient id="O" x1="333.378" x2="339.658" y1="431.472" y2="437.059" gradientUnits="userSpaceOnUse">
      <stop stop-color="#444B8C"/>
      <stop offset=".996" stop-color="#26264F"/>
    </linearGradient>
    <linearGradient id="P" x1="238.074" x2="344.091" y1="280.411" y2="245.183" gradientUnits="userSpaceOnUse">
      <stop stop-color="#FB8D48"/>
      <stop offset=".2" stop-color="#ED7136"/>
      <stop offset=".299" stop-color="#C14F49"/>
      <stop offset=".6" stop-color="#9D3863"/>
      <stop offset=".8" stop-color="#5E1F72"/>
    </linearGradient>
  </defs>
</svg>
