<svg xmlns="http://www.w3.org/2000/svg" width="465" height="383" fill="none" viewBox="0 0 465 383">
  <path fill="#E86B31" d="M418.405 356.627h-30.803v.259h30.803v-.259Z"/>
  <path fill="#EBEBEB" d="M308.038 359.436h-8.085v.259h8.085v-.259Zm78.635-12.43h-17.849v.259h17.849v-.259Zm-297.714 1.74h-40.17v.259h40.17v-.259Zm14.169 0h-5.89v.259h5.89v-.259Zm106.256 4.375h-87.118v.259h87.118v-.259Z"/>
  <path fill="#E86B31" d="M220.422 293.752H40.84c-2.927 0-5.309-2.653-5.309-5.913V6.663c0-3.26 2.382-5.913 5.309-5.913h179.582c2.926 0 5.307 2.653 5.307 5.913v281.176c0 3.26-2.381 5.913-5.307 5.913ZM40.84 1.01c-2.8 0-5.076 2.536-5.076 5.654V287.84c0 3.118 2.276 5.654 5.076 5.654h179.582c2.798 0 5.075-2.536 5.075-5.654V6.663c0-3.117-2.277-5.654-5.075-5.654L40.84 1.01Zm380.74 292.742H241.999c-2.927 0-5.308-2.653-5.308-5.913V6.663c0-3.26 2.382-5.913 5.308-5.913H421.58c2.928 0 5.309 2.653 5.309 5.913v281.176c0 3.26-2.381 5.913-5.309 5.913ZM241.999 1.01c-2.798 0-5.075 2.536-5.075 5.654V287.84c0 3.118 2.277 5.654 5.075 5.654H421.58c2.799 0 5.076-2.536 5.076-5.654V6.663c0-3.117-2.277-5.654-5.076-5.654l-179.581.001ZM465 339.951H0v.259h465v-.259Z"/>
  <path fill="#E0E0E0" d="M79.839 131.078v-20.174h-1.395v20.174c-.898.329-1.55 1.259-1.55 2.369v6.388c0 1.383 1.007 2.504 2.247 2.504 1.242 0 2.248-1.121 2.248-2.504v-6.388c0-1.11-.652-2.04-1.55-2.369Z"/>
  <path fill="#EBEBEB" d="M86.646 110.904h-2.779v227.13h2.779v-227.13Z"/>
  <path fill="#E0E0E0" d="M103.387 338.968h-36.27c0-2.087 1.519-3.779 3.393-3.779h29.484c1.874 0 3.393 1.692 3.393 3.779Zm-19.52-212.001 2.779-1.018v-15.045h-2.779v16.063Z"/>
  <path fill="#E86B31" d="M101.903 63.785H68.609l-10.23 49.205h53.754l-10.23-49.205Z"/>
  <path fill="#FFBE55" d="M247.995 77.648v-8.834c-.977 0-.979-1.691 0-1.691 3.023 0 6.048-.023 9.073-.043v12.261h-9.073c-.977-.001-.978-1.693 0-1.693Z"/>
  <path fill="#F5F5F5" d="M255.04 68.813h-7.048v8.821h7.048v-8.822Z"/>
  <path fill="#FAFAFA" d="M253.566 78.498h24.432c1.68 0 3.042-2.357 3.042-5.264s-1.362-5.263-3.042-5.263h-24.432v10.526Z"/>
  <path fill="#FFBE55" d="M253.569 67.122c7.999 0 16.011-.16 24.008 0 5.479.11 5.773 11.807.4 12.218-3.746.285-7.599 0-11.351 0h-13.057c-.977 0-.978-1.692 0-1.692h22.744c1.755 0 3.01-.022 3.688-2.328.587-1.995.402-6.066-2-6.506-.258-.048-.563 0-.823 0h-23.609c-.977 0-.978-1.692 0-1.692Z"/>
  <path fill="#E86B31" d="M247.914 65.717v-7.851c-.869 0-.87-1.504 0-1.504 2.686 0 5.374-.02 8.062-.038V67.22h-8.062c-.868 0-.87-1.503 0-1.503Z"/>
  <path fill="#F5F5F5" d="M254.173 57.867h-6.263v7.84h6.263v-7.84Z"/>
  <path fill="#FAFAFA" d="M252.863 66.468h21.713c1.493 0 2.703-2.094 2.703-4.678 0-2.583-1.21-4.677-2.703-4.677h-21.713v9.355Z"/>
  <path fill="#E86B31" d="M252.867 56.36c7.109 0 14.229-.142 21.336 0 4.868.099 5.131 10.493.355 10.858-3.328.254-6.753 0-10.088 0h-11.602c-.869 0-.87-1.503 0-1.503h20.212c1.56 0 2.675-.02 3.278-2.07.521-1.772.357-5.39-1.778-5.782-.229-.042-.5 0-.731 0h-20.98c-.871 0-.873-1.503-.002-1.503Zm-4.872 33.294V80.82c-.977 0-.979-1.692 0-1.692 3.023 0 6.048-.022 9.073-.042v12.26h-9.073c-.977 0-.978-1.692 0-1.692Z"/>
  <path fill="#F5F5F5" d="M255.04 80.818h-7.048v8.822h7.048v-8.822Z"/>
  <path fill="#FAFAFA" d="M253.566 90.498h24.432c1.68 0 3.042-2.356 3.042-5.263s-1.362-5.262-3.042-5.262h-24.432v10.525Z"/>
  <path fill="#E86B31" d="M253.569 79.124c7.999 0 16.011-.16 24.008 0 5.479.11 5.773 11.807.4 12.218-3.746.285-7.599 0-11.351 0h-13.057c-.977 0-.978-1.692 0-1.692h22.744c1.755 0 3.01-.022 3.688-2.328.587-1.995.402-6.066-2-6.506-.258-.048-.563 0-.823 0h-23.609c-.977 0-.978-1.692 0-1.692Z"/>
  <path fill="#F5F5F5" d="M308.016 89.978h51.056v7.298H143.449V89.98h164.567Z"/>
  <path fill="#E0E0E0" d="M346.879 115.019V97.275h7.964l-7.964 17.744Z"/>
  <path fill="#F5F5F5" d="m350.861 115.019 7.965-17.744h-3.983l-7.964 17.744h3.982Z"/>
  <path fill="#E0E0E0" d="M155.391 115.019V97.275h-7.965l7.965 17.744Z"/>
  <path fill="#F5F5F5" d="m151.414 115.019-7.965-17.744h3.982l7.966 17.744h-3.983Z"/>
  <path fill="#FFBE55" d="M295.188 72.206c0 10.659 7.758 19.3 17.327 19.3 9.57 0 17.328-8.64 17.328-19.3v-.673c0-10.66-7.758-19.3-17.328-19.3-9.569 0-17.327 8.64-17.327 19.3v.673Z"/>
  <path fill="#E86B31" d="M295.188 69.432c0 10.66 7.758 19.301 17.327 19.301 9.57 0 17.328-8.641 17.328-19.3v-.673c0-10.66-7.758-19.301-17.328-19.301-9.569 0-17.327 8.641-17.327 19.3v.673Z"/>
  <path fill="#FFDAC9" d="M298.98 68.762c0 8.328 6.061 15.079 13.538 15.079 7.476 0 13.537-6.751 13.537-15.079 0-8.327-6.061-15.078-13.537-15.078-7.477 0-13.538 6.75-13.538 15.078Z"/>
  <path fill="#FFBE55" d="M312.518 56.064c-7.116 0-12.938 6.12-13.484 13.888a17.306 17.306 0 0 1-.054-1.19c0-8.327 6.061-15.078 13.538-15.078 7.476 0 13.537 6.75 13.537 15.078 0 .402-.026.797-.054 1.19-.546-7.77-6.368-13.888-13.483-13.888Z"/>
  <path fill="#E0E0E0" d="M303.963 68.751h7.118v-7.927c0-.882.641-1.596 1.432-1.596.79 0 1.432.715 1.432 1.596v9.523c0 .88-.642 1.595-1.432 1.595h-8.55c-.79 0-1.432-.715-1.432-1.595 0-.882.642-1.596 1.432-1.596Z"/>
  <path fill="#E86B31" d="M303.967 70.357c-.79 0-1.432-.715-1.432-1.596 0-.881.641-1.595 1.432-1.595h8.551c.79 0 1.432.714 1.432 1.595 0 .88-.642 1.596-1.432 1.596h-8.551Z"/>
  <path fill="#FFBE55" d="M311.078 59.236c0-.882.642-1.595 1.432-1.595.791 0 1.433.714 1.433 1.595v9.523c0 .88-.642 1.595-1.433 1.595s-1.432-.713-1.432-1.595v-9.523Z"/>
  <path fill="#E0E0E0" d="M203.631 90.23h10.443V41.91h-10.443v48.32Z"/>
  <path fill="#E86B31" d="M208.858 83.492c1.774 0 3.213-1.602 3.213-3.579s-1.439-3.579-3.213-3.579c-1.775 0-3.213 1.602-3.213 3.579s1.438 3.58 3.213 3.58Z"/>
  <path fill="#E86B31" d="M205.644 69.848h6.426V46.583h-6.426v23.265Z" opacity=".6"/>
  <path fill="#E6E6E6" d="M195.792 90.228h8.435V51.202h-8.435v39.026Z"/>
  <path fill="#E86B31" d="M197.414 81.895c0 1.596 1.162 2.891 2.595 2.891 1.433 0 2.595-1.293 2.595-2.89 0-1.598-1.161-2.892-2.595-2.892-1.434 0-2.595 1.295-2.595 2.891Z"/>
  <path fill="#E86B31" d="M197.411 73.766h5.191v-18.79h-5.191v18.79Z" opacity=".6"/>
  <path fill="#FAFAFA" d="M197.411 57.625h5.191v-2.65h-5.191v2.65Z" opacity=".6"/>
  <path fill="#EBEBEB" d="M220.823 90.23h10.443V41.91h-10.443v48.32Z"/>
  <path fill="#E0E0E0" d="M226.041 83.492c1.775 0 3.213-1.602 3.213-3.579s-1.438-3.579-3.213-3.579c-1.774 0-3.213 1.602-3.213 3.579s1.439 3.58 3.213 3.58Z"/>
  <path fill="#FAFAFA" d="M222.828 69.848h6.426V46.583h-6.426v23.265Z" opacity=".6"/>
  <path fill="#E0E0E0" d="M186.096 90.23h10.443V41.91h-10.443v48.32Z"/>
  <path fill="#E86B31" d="M191.319 83.492c1.774 0 3.213-1.602 3.213-3.579s-1.439-3.579-3.213-3.579c-1.775 0-3.214 1.602-3.214 3.579s1.439 3.58 3.214 3.58Z"/>
  <path fill="#E86B31" d="M188.105 69.848h6.426V46.583h-6.426v23.265Z" opacity=".6"/>
  <path fill="#EBEBEB" d="m171.204 89.5 10.386 1.215 4.533-48.054-10.385-1.215-4.534 48.053Z"/>
  <path fill="#E0E0E0" d="M174.159 79.463c-.186 1.966 1.094 3.727 2.859 3.933 1.765.207 3.346-1.219 3.532-3.185.185-1.966-1.095-3.727-2.86-3.933-1.765-.207-3.346 1.22-3.531 3.185Z"/>
  <path fill="#E86B31" d="m175.109 69.461 6.391.748 2.182-23.135-6.39-.748-2.183 23.135Z" opacity=".6"/>
  <path fill="#E6E6E6" d="M213.331 90.228h8.435V51.202h-8.435v39.026Z"/>
  <path fill="#E86B31" d="M214.957 81.895c0 1.596 1.162 2.891 2.596 2.891 1.433 0 2.595-1.293 2.595-2.89 0-1.598-1.161-2.892-2.595-2.892-1.434 0-2.596 1.295-2.596 2.891Z"/>
  <path fill="#E86B31" d="M214.95 73.766h5.191v-18.79h-5.191v18.79Z" opacity=".6"/>
  <path fill="#FAFAFA" d="M214.95 57.625h5.191v-2.65h-5.191v2.65Z" opacity=".6"/>
  <path fill="#F5F5F5" d="M228.016 382.748c99.586 0 180.317-5.251 180.317-11.729 0-6.478-80.731-11.73-180.317-11.73-99.586 0-180.317 5.252-180.317 11.73 0 6.478 80.731 11.729 180.317 11.729Z" opacity=".2"/>
  <path fill="#E86B31" d="M231.967 228.499h-17.428l8.37-29.52h17.428l-8.37 29.52Z"/>
  <path fill="#000" d="M220.465 207.597h17.428l2.443-8.618h-17.428l-2.443 8.618Z" opacity=".2"/>
  <path fill="#E86B31" d="M245.764 226.623H212.41v4.489h33.354v-4.489Z"/>
  <path fill="#fff" d="M245.764 226.623H212.41v4.489h33.354v-4.489Z" opacity=".5"/>
  <path fill="#fff" d="M229.087 226.623H212.41v4.489h16.677v-4.489Z" opacity=".6"/>
  <path fill="#E86B31" d="m374.987 192.568-6.074-77.32-95.059 9.336h-95.788l-96.526-9.336-1.86 2.072 6.073 77.319 96.523 9.336h95.793l95.058-9.336 1.86-2.071Z"/>
  <path fill="#fff" d="m374.983 192.568-6.074-77.32-95.059 9.336h-95.788l-96.527-9.336 6.073 77.32 96.524 9.335h95.793l95.058-9.335Z" opacity=".2"/>
  <path fill="#fff" d="m366.395 118.642-89.528 8.729 5.588 71.104 89.528-8.729-5.588-71.104Z" opacity=".8"/>
  <path fill="#263238" d="M293.674 134.571c-.544.053-1.024-.399-1.072-1.009-.049-.611.354-1.149.898-1.203l22.515-2.21c.544-.054 1.024.399 1.073 1.009.048.611-.355 1.15-.899 1.203l-22.515 2.21Z" opacity=".5"/>
  <path fill="#fff" d="M293.674 134.571c-.544.053-1.024-.399-1.072-1.009-.049-.611.354-1.149.898-1.203l22.515-2.21c.544-.054 1.024.399 1.073 1.009.048.611-.355 1.15-.899 1.203l-22.515 2.21Z" opacity=".5"/>
  <path fill="#263238" d="M330.303 130.979c-.544.054-1.024-.398-1.072-1.009-.049-.611.354-1.149.898-1.202l22.515-2.211c.544-.054 1.024.399 1.072 1.009.049.611-.354 1.15-.898 1.203l-22.515 2.21Z" opacity=".5"/>
  <path fill="#fff" d="M330.303 130.979c-.544.054-1.024-.398-1.072-1.009-.049-.611.354-1.149.898-1.202l22.515-2.211c.544-.054 1.024.399 1.072 1.009.049.611-.354 1.15-.898 1.203l-22.515 2.21Z" opacity=".5"/>
  <path fill="#E86B31" d="M317.574 148.064c.556 7.075-4.103 13.312-10.407 13.932-6.303.619-11.863-4.615-12.419-11.69-.556-7.076 4.104-13.313 10.407-13.932 6.302-.619 11.863 4.615 12.419 11.69Z"/>
  <path fill="#fff" d="m301.203 155.828-1.301.127c-.335.034-.632-.246-.662-.623l-.538-6.854c-.03-.377.218-.709.555-.742l1.301-.128c.336-.033.632.247.662.624l.539 6.853c.029.377-.219.71-.556.743Zm1.705-8.726c.838-.928 2.938-3.534 2.927-6.344-.004-1.378 1.702-1.963 2.323-.771.465.892.574 2.604-.265 5.799l3.215-.316c.86-.084 1.682.411 2.094 1.261.241.497.319 1.073.223 1.627l-.939 5.409c-.209 1.204-1.185 2.044-2.276 1.959l-6.15-.483c-.51-.04-.918-.49-.963-1.061l-.483-6.159a1.225 1.225 0 0 1 .294-.921Zm51.295-2.63c-.556-7.075-6.116-12.308-12.419-11.69-6.304.62-10.963 6.857-10.407 13.932.556 7.075 6.116 12.308 12.419 11.69 6.304-.619 10.963-6.857 10.407-13.932Z" opacity=".9"/>
  <path fill="#E86B31" d="m336.867 140.014-1.302.128c-.335.033-.585.365-.555.742l.539 6.854c.029.377.326.657.662.624l1.301-.128c.337-.033.585-.366.555-.743l-.538-6.853c-.03-.377-.327-.656-.662-.624Zm3.039 8.263c.97.751 3.444 2.908 3.872 5.676.21 1.358 1.982 1.601 2.407.308.318-.97.16-2.677-1.164-5.658l3.215-.316c.86-.085 1.592-.733 1.864-1.651a2.71 2.71 0 0 0-.033-1.645l-1.768-5.143c-.394-1.144-1.486-1.782-2.547-1.484l-5.981 1.674c-.495.139-.827.662-.783 1.233l.484 6.158c.026.342.181.654.434.848Zm-36.721 33.203-6.79.666.692 8.75 6.79-.667-.692-8.749Z"/>
  <path fill="#fff" d="m310.126 182.726-6.79.667.541 6.841 6.791-.667-.542-6.841Zm12.875-10.229-6.79.667 1.245 15.73 6.79-.667-1.245-15.73Zm13.43-3.205-6.79.667 1.392 17.601 6.791-.666-1.393-17.602Zm13.898 2.592-6.79.667 1.083 13.682 6.79-.666-1.083-13.683Z" opacity=".9"/>
  <path fill="#E86B31" d="m316.325 174.581-6.79.667 1.133 14.316 6.79-.667-1.133-14.316Zm13.172-6.496-6.79.667 1.542 19.483 6.79-.667-1.542-19.483Zm13.875 2.412-6.79.667 1.245 15.73 6.79-.667-1.245-15.73Zm12.899-10.043-6.791.667 1.934 24.438 6.791-.667-1.934-24.438Z"/>
  <path fill="#fff" d="m84.598 118.629 5.584 71.104 90.903 8.791-5.584-71.103-90.903-8.792Z" opacity=".8"/>
  <path fill="#fff" d="m149.517 151.549-48.785-4.719c-2.055-.199-3.866-2.201-4.044-4.473l-.615-7.83c-.179-2.272 1.343-3.952 3.398-3.753l48.785 4.718c2.055.199 3.866 2.202 4.044 4.473l.614 7.831c.18 2.27-1.342 3.952-3.397 3.753Z"/>
  <path fill="#E86B31" d="M108.795 139.644c.214 2.717-1.606 4.728-4.065 4.49-2.458-.238-4.624-2.634-4.838-5.352-.213-2.717 1.606-4.728 4.065-4.489 2.459.238 4.625 2.634 4.838 5.351Z"/>
  <path fill="#263238" d="M114.499 137.432c-.534-.052-1.003-.572-1.05-1.162-.046-.59.349-1.027.883-.975l29.899 2.891c.534.052 1.005.572 1.05 1.162.047.59-.349 1.026-.883.974l-29.899-2.89Zm.602 7.703c-.534-.051-1.004-.571-1.05-1.162-.047-.59.348-1.026.882-.975l17.513 1.694c.534.052 1.003.572 1.05 1.162.046.591-.349 1.027-.883.975l-17.512-1.694Zm-.301-3.85c-.534-.052-1.004-.572-1.05-1.162-.047-.59.349-1.026.882-.974l25.361 2.453c.534.052 1.005.572 1.05 1.161.047.59-.348 1.027-.882.975l-25.361-2.453Z"/>
  <path fill="#fff" d="M114.499 137.432c-.534-.052-1.003-.572-1.05-1.162-.046-.59.349-1.027.883-.975l29.899 2.891c.534.052 1.005.572 1.05 1.162.047.59-.349 1.026-.883.974l-29.899-2.89Zm.602 7.703c-.534-.051-1.004-.571-1.05-1.162-.047-.59.348-1.026.882-.975l17.513 1.694c.534.052 1.003.572 1.05 1.162.046.591-.349 1.027-.883.975l-17.512-1.694Zm-.301-3.85c-.534-.052-1.004-.572-1.05-1.162-.047-.59.349-1.026.882-.974l25.361 2.453c.534.052 1.005.572 1.05 1.161.047.59-.348 1.027-.882.975l-25.361-2.453Z" opacity=".5"/>
  <path fill="#E86B31" d="m152.065 128.067-5.703-.484c-.784-.067-1.358.583-1.281 1.451l.467 5.285c.076.866.771 1.623 1.554 1.692l1.651.146.809 1.29c.274.437.825.48 1.021.079l.58-1.187 1.642.145c.786.07 1.362-.581 1.285-1.451l-.466-5.275c-.077-.868-.775-1.625-1.559-1.691Z"/>
  <path fill="#fff" d="M147.68 132.36c-.491-.536-.73-1.092-.768-1.574-.064-.821.388-1.32 1.14-1.248.7.068.967.45 1.418 1.008.369-.479.58-.815 1.28-.747.752.073 1.29.668 1.354 1.49.039.482-.116 1.001-.53 1.448l-1.779 1.955-2.115-2.332Z" opacity=".9"/>
  <path fill="#fff" d="m162.849 171.662-48.785-4.718c-2.055-.199-3.866-2.202-4.044-4.473l-.615-7.831c-.179-2.272 1.343-3.952 3.398-3.753l48.785 4.719c2.055.198 3.866 2.201 4.044 4.473l.614 7.83c.179 2.271-1.342 3.952-3.397 3.753Z"/>
  <path fill="#E86B31" d="M122.131 159.759c.213 2.717-1.606 4.728-4.065 4.49-2.459-.238-4.624-2.633-4.838-5.352-.213-2.717 1.606-4.727 4.065-4.489 2.458.238 4.624 2.634 4.838 5.351Z"/>
  <path fill="#263238" d="M127.823 157.547c-.534-.051-1.004-.571-1.05-1.162-.046-.59.349-1.026.883-.975l29.899 2.892c.534.051 1.005.571 1.05 1.162.047.59-.348 1.026-.882.975l-29.9-2.892Zm.602 7.704c-.534-.052-1.005-.572-1.05-1.163-.047-.59.349-1.026.882-.974l17.512 1.693c.534.052 1.005.572 1.05 1.163.047.589-.348 1.026-.882.974l-17.512-1.693Zm-.301-3.85c-.534-.052-1.003-.572-1.05-1.162-.046-.591.349-1.027.883-.975l25.361 2.453c.534.052 1.003.572 1.05 1.161.046.591-.349 1.027-.883.975l-25.361-2.452Z"/>
  <path fill="#fff" d="M127.823 157.547c-.534-.051-1.004-.571-1.05-1.162-.046-.59.349-1.026.883-.975l29.899 2.892c.534.051 1.005.571 1.05 1.162.047.59-.348 1.026-.882.975l-29.9-2.892Zm.602 7.704c-.534-.052-1.005-.572-1.05-1.163-.047-.59.349-1.026.882-.974l17.512 1.693c.534.052 1.005.572 1.05 1.163.047.589-.348 1.026-.882.974l-17.512-1.693Zm-.301-3.85c-.534-.052-1.003-.572-1.05-1.162-.046-.591.349-1.027.883-.975l25.361 2.453c.534.052 1.003.572 1.05 1.161.046.591-.349 1.027-.883.975l-25.361-2.452Z" opacity=".5"/>
  <path fill="#E86B31" d="m165.394 148.178-5.704-.484c-.784-.066-1.358.583-1.281 1.451l.467 5.286c.076.866.771 1.623 1.554 1.691l1.651.146.809 1.29c.274.437.825.481 1.021.08l.58-1.187 1.642.145c.786.069 1.362-.582 1.285-1.452l-.466-5.275c-.077-.868-.774-1.625-1.558-1.691Z"/>
  <path fill="#fff" d="M161.009 152.469c-.491-.534-.73-1.091-.769-1.573-.064-.822.388-1.321 1.14-1.248.7.067.967.449 1.418 1.008.369-.48.58-.816 1.281-.747.751.072 1.289.668 1.354 1.489.038.481-.117 1.001-.53 1.447l-1.78 1.955-2.114-2.331Z" opacity=".9"/>
  <path fill="#fff" d="m156.474 191.149-48.785-4.717c-2.055-.199-3.866-2.201-4.044-4.473l-.615-7.831c-.179-2.271 1.343-3.952 3.398-3.753l48.785 4.718c2.055.199 3.866 2.201 4.044 4.473l.614 7.83c.18 2.272-1.342 3.952-3.397 3.753Z"/>
  <path fill="#E86B31" d="M115.752 179.245c.214 2.717-1.606 4.727-4.065 4.49-2.459-.238-4.625-2.633-4.838-5.351-.213-2.717 1.606-4.728 4.065-4.49 2.459.237 4.625 2.633 4.838 5.351Z"/>
  <path fill="#263238" d="M121.452 177.025c-.534-.052-1.004-.572-1.05-1.161-.046-.591.349-1.027.883-.975l29.899 2.891c.534.052 1.004.572 1.05 1.161.047.591-.349 1.027-.882.975l-29.9-2.891Zm.609 7.705c-.533-.052-1.003-.572-1.049-1.161-.047-.591.348-1.027.882-.975l24.072 2.328c.534.051 1.004.572 1.05 1.161.047.59-.349 1.027-.882.975l-24.073-2.328Zm-.308-3.852c-.534-.051-1.004-.571-1.05-1.161-.047-.59.349-1.026.883-.975l21.612 2.091c.534.052 1.003.572 1.05 1.161.046.591-.349 1.027-.883.975l-21.612-2.091Z"/>
  <path fill="#fff" d="M121.452 177.025c-.534-.052-1.004-.572-1.05-1.161-.046-.591.349-1.027.883-.975l29.899 2.891c.534.052 1.004.572 1.05 1.161.047.591-.349 1.027-.882.975l-29.9-2.891Zm.609 7.705c-.533-.052-1.003-.572-1.049-1.161-.047-.591.348-1.027.882-.975l24.072 2.328c.534.051 1.004.572 1.05 1.161.047.59-.349 1.027-.882.975l-24.073-2.328Zm-.308-3.852c-.534-.051-1.004-.571-1.05-1.161-.047-.59.349-1.026.883-.975l21.612 2.091c.534.052 1.003.572 1.05 1.161.046.591-.349 1.027-.883.975l-21.612-2.091Z" opacity=".5"/>
  <path fill="#E86B31" d="m159.187 169.754-5.704-.484c-.784-.066-1.358.583-1.281 1.452l.467 5.285c.076.866.771 1.623 1.554 1.691l1.651.146.809 1.29c.274.437.825.481 1.021.08l.58-1.187 1.642.145c.786.069 1.362-.581 1.285-1.452l-.466-5.274c-.077-.867-.774-1.626-1.558-1.692Z"/>
  <path fill="#fff" d="M154.834 175.683c-.232-.022-.438-.249-.458-.506l-.14-1.779c-.02-.258.153-.447.385-.426.233.023.438.25.459.507l.139 1.779c.02.258-.152.447-.385.425Zm.79-2.704c.281-.248.985-.96.983-1.872-.001-.448.571-.529.778-.102.155.32.192.883-.091 1.867l1.077.105c.287.028.563.241.7.543.08.178.107.369.075.543l-.317 1.697c-.071.378-.399.587-.763.49l-2.059-.552a.466.466 0 0 1-.322-.407l-.16-2.032a.324.324 0 0 1 .099-.28Z" opacity=".9"/>
  <path fill="#fff" d="m181.098 127.689 5.584 71.105h90.213l-5.585-71.105h-90.212Z" opacity=".8"/>
  <path fill="#000" d="M183.88 198.461c-.385 0-.725-.348-.759-.777l-1.759-22.388c-.033-.428.251-.776.636-.776s.725.348.759.776l1.759 22.388c.034.429-.251.777-.636.777Zm-2.096-26.532c-.385 0-.724-.348-.759-.777l-2.495-31.768c-.033-.429.251-.777.636-.777s.725.348.759.777l2.495 31.768c.035.429-.25.777-.636.777Zm-2.803-35.734c-.385 0-.725-.348-.759-.777l-.52-6.618c-.034-.429.251-.777.636-.777s.724.348.759.777l.52 6.618c.034.429-.251.777-.636.777Zm100.675 62.268c-.385 0-.725-.348-.759-.777l-2.558-32.575c-.034-.429.251-.777.636-.777s.724.348.759.777l2.558 32.575c.034.429-.251.777-.636.777Zm-2.859-36.371c-.385 0-.724-.348-.758-.777l-1.993-25.38c-.034-.429.251-.777.636-.777s.724.348.759.777l1.993 25.38c.033.43-.251.777-.637.777Zm-2.356-29.983c-.385 0-.724-.348-.759-.777l-.199-2.532c-.033-.429.251-.777.636-.777s.725.348.759.777l.199 2.532c.034.429-.251.777-.636.777Z" opacity=".2"/>
  <path fill="#E86B31" d="M260.789 158.992c-.047-.591.345-1.068.875-1.068s.997.478 1.043 1.068l1.103 14.05c.047.59-.345 1.068-.875 1.068-.529 0-.997-.479-1.042-1.068l-1.104-14.05Z"/>
  <path fill="#263238" d="M187.883 133.669c-.53 0-.997-.478-1.043-1.068-.047-.59.346-1.068.875-1.068h21.913c.53 0 .997.479 1.043 1.068.046.591-.345 1.068-.875 1.068h-21.913Zm.601 7.703c-.529 0-.997-.478-1.043-1.068-.046-.59.345-1.068.875-1.068h18.194c.529 0 .997.479 1.042 1.068.047.591-.345 1.068-.875 1.068h-18.193Zm-.3-3.849c-.53 0-.997-.479-1.044-1.068-.046-.591.346-1.068.876-1.068h14.473c.53 0 .997.478 1.044 1.068.046.59-.346 1.068-.875 1.068h-14.474Z"/>
  <path fill="#fff" d="M187.883 133.669c-.53 0-.997-.478-1.043-1.068-.047-.59.346-1.068.875-1.068h21.913c.53 0 .997.479 1.043 1.068.046.591-.345 1.068-.875 1.068h-21.913Zm.601 7.703c-.529 0-.997-.478-1.043-1.068-.046-.59.345-1.068.875-1.068h18.194c.529 0 .997.479 1.042 1.068.047.591-.345 1.068-.875 1.068h-18.193Zm-.3-3.849c-.53 0-.997-.479-1.044-1.068-.046-.591.346-1.068.876-1.068h14.473c.53 0 .997.478 1.044 1.068.046.59-.346 1.068-.875 1.068h-14.474Z" opacity=".5"/>
  <path fill="#E86B31" d="M266.027 150.24c.24 3.052-1.787 5.528-4.529 5.528s-5.158-2.475-5.397-5.528c-.24-3.053 1.788-5.529 4.529-5.529 2.741.001 5.157 2.476 5.397 5.529Z"/>
  <path fill="#fff" d="M258.62 152.878c-.302 0-.569-.273-.595-.61l-.183-2.328c-.026-.336.197-.61.499-.61.303 0 .569.274.596.61l.183 2.328c.027.338-.197.61-.5.61Zm1.027-3.664c.364-.363 1.278-1.39 1.275-2.593-.002-.59.74-.769 1.01-.233.201.402.249 1.139-.117 2.472h1.398c.374 0 .731.246.91.628.104.223.138.473.096.707l-.41 2.277c-.091.506-.516.825-.99.743l-2.675-.466c-.221-.038-.399-.248-.418-.495l-.209-2.658a.483.483 0 0 1 .13-.382Z"/>
  <path fill="#E86B31" d="M268.512 181.796c-.24-3.053-2.656-5.528-5.397-5.528s-4.769 2.474-4.529 5.528c.24 3.053 2.656 5.529 5.396 5.529 2.741 0 4.77-2.476 4.53-5.529Z"/>
  <path fill="#fff" d="M260.693 179.158c-.302 0-.526.274-.499.61l.183 2.328c.027.337.293.61.595.61s.526-.273.499-.61l-.183-2.328c-.026-.336-.293-.61-.595-.61Zm1.6 3.667c.422.363 1.497 1.39 1.683 2.593.091.59.861.769 1.046.233.139-.402.07-1.139-.505-2.472h1.398c.374 0 .692-.246.811-.628.07-.223.064-.473-.014-.706l-.767-2.277c-.172-.506-.646-.825-1.107-.742l-2.601.465c-.216.038-.36.248-.341.495l.209 2.657a.566.566 0 0 0 .188.382Z"/>
  <path fill="#E86B31" d="M248.417 186.709c9.378-10.913 8.313-29-2.379-40.4-10.692-11.4-26.962-11.796-36.34-.884-9.377 10.913-8.312 29 2.38 40.4 10.692 11.4 26.962 11.796 36.339.884Z"/>
  <path fill="#fff" d="M245.601 145.859c-5.048-5.171-11.713-8.369-18.796-8.369-14.168 0-24.648 12.794-23.409 28.573h25.653l16.552-20.204Z" opacity=".6"/>
  <path fill="#000" d="m209.328 145.857 19.726 20.205-2.244-28.574c-7.084 0-13.246 3.199-17.482 8.369Z" opacity=".2"/>
  <path fill="#E86B31" d="m209.328 145.857 19.726 20.205-2.244-28.574c-7.084 0-13.246 3.199-17.482 8.369Z"/>
  <path fill="#000" d="m209.328 145.857 19.726 20.205-2.244-28.574c-7.084 0-13.246 3.199-17.482 8.369Z" opacity=".3"/>
  <path fill="#fff" d="M231.296 194.636c14.168 0 24.648-12.794 23.408-28.574h-25.652L212.5 186.267c5.048 5.171 11.712 8.369 18.796 8.369Z" opacity=".3"/>
  <path fill="#263238" d="M248.084 189.756c.302 3.836-2.246 6.946-5.689 6.946-3.444 0-6.48-3.11-6.781-6.946-.301-3.836 2.246-6.945 5.69-6.945 3.443 0 6.478 3.109 6.78 6.945Z"/>
  <path fill="#E86B31" d="M239.682 190.91c-.569-.573-.846-1.201-.89-1.763-.075-.959.449-1.598 1.319-1.598.811 0 1.122.418 1.643 1.024.428-.606.672-1.024 1.483-1.024.87 0 1.494.639 1.57 1.598.043.562-.134 1.19-.614 1.763l-2.059 2.502-2.452-2.502Z"/>
  <path fill="#263238" d="M212.901 154.948c.301 3.836-2.246 6.945-5.69 6.945-3.444 0-6.479-3.109-6.781-6.945-.301-3.836 2.246-6.946 5.69-6.946 3.444 0 6.479 3.11 6.781 6.946Z"/>
  <path fill="#E86B31" d="M210.598 154.951c.189 2.415-1.415 4.374-3.585 4.374-2.168 0-4.081-1.959-4.271-4.374-.19-2.416 1.414-4.375 3.584-4.375s4.082 1.959 4.272 4.375Z"/>
  <path fill="#fff" d="M210.598 154.951c.189 2.415-1.415 4.374-3.585 4.374-2.168 0-4.081-1.959-4.271-4.374-.19-2.416 1.414-4.375 3.584-4.375s4.082 1.959 4.272 4.375Z" opacity=".5"/>
  <path fill="#E86B31" d="M208.106 155.88c-.735.821-1.866.823-2.731 0-.345-.327-.782.203-.436.532 1.161 1.103 2.699 1.103 3.687 0 .294-.329-.226-.859-.52-.532Zm-2.496-2.354c.037.475-.081.862-.265.862s-.363-.386-.401-.862c-.037-.477.082-.862.265-.862.185 0 .364.385.401.862Zm2.539 0c.037.475-.081.862-.265.862s-.363-.386-.401-.862c-.037-.477.082-.862.265-.862.185 0 .364.385.401.862Z"/>
  <path fill="#263238" d="M250.979 148.631c.301 3.836-2.246 6.946-5.69 6.946-3.444 0-6.479-3.11-6.78-6.946-.302-3.836 2.246-6.945 5.689-6.945 3.444 0 6.48 3.109 6.781 6.945Z"/>
  <path fill="#E86B31" d="M248.671 148.634c.19 2.416-1.415 4.375-3.584 4.375s-4.082-1.959-4.271-4.375c-.19-2.415 1.415-4.374 3.584-4.374 2.168 0 4.081 1.959 4.271 4.374Z"/>
  <path fill="#fff" d="M248.671 148.634c.19 2.416-1.415 4.375-3.584 4.375s-4.082-1.959-4.271-4.375c-.19-2.415 1.415-4.374 3.584-4.374 2.168 0 4.081 1.959 4.271 4.374Z" opacity=".5"/>
  <path fill="#E86B31" d="M243.552 150.816c.735-.821 1.867-.823 2.732 0 .345.327.782-.203.435-.532-1.161-1.103-2.699-1.103-3.687 0-.293.329.226.859.52.532Zm.144-3.606c.037.476-.082.861-.265.861-.184 0-.364-.385-.401-.861-.037-.476.082-.862.265-.862.184 0 .364.385.401.862Zm2.547 0c.037.476-.082.861-.265.861-.184 0-.364-.385-.401-.861-.037-.476.081-.862.265-.862s.364.385.401.862Z"/>
  <path fill="#263238" d="M213.424 176.268c.302 3.836-2.246 6.946-5.689 6.946-3.444 0-6.48-3.11-6.781-6.946-.301-3.836 2.246-6.946 5.69-6.946 3.442.001 6.479 3.11 6.78 6.946Z"/>
  <path fill="#E86B31" d="M211.12 176.275c.19 2.416-1.415 4.375-3.584 4.375s-4.082-1.959-4.271-4.375c-.189-2.416 1.415-4.375 3.584-4.375s4.081 1.959 4.271 4.375Z"/>
  <path fill="#fff" d="M211.12 176.275c.19 2.416-1.415 4.375-3.584 4.375s-4.082-1.959-4.271-4.375c-.189-2.416 1.415-4.375 3.584-4.375s4.081 1.959 4.271 4.375Z" opacity=".5"/>
  <path fill="#E86B31" d="M205.347 177.657c1.171 1.199 2.915 1.199 3.897 0l-.057-.731h-3.898l.058.731Zm1.328-2.697c-.571-.504-1.22-.504-1.711 0-.229.235.161.633.39.398.291-.298.657-.298.994 0 .265.234.594-.163.327-.398Zm2.543 0c-.571-.504-1.22-.504-1.711 0-.229.235.161.633.39.398.291-.298.657-.298.994 0 .265.234.594-.163.327-.398Zm68.737 50.933h-28.842v5.222h57.684v-2.147l-28.842-3.075Z"/>
  <path fill="#fff" d="M277.955 225.893h-28.842v5.222h57.684v-2.147l-28.842-3.075Z" opacity=".6"/>
  <path fill="#fff" d="M277.955 231.115h-28.842v-5.222l28.842 3.075v2.147Z" opacity=".6"/>
  <path fill="#fff" d="m370.359 169.149-3.968-50.518-5.37.527-23.005 73.912 25.683-2.523 6.66-21.398Zm-122.133 29.647 22.131-71.105H245.46l-22.132 71.105h24.898Zm-90.06-2.489 18.162-58.351-.828-10.537-20.183-1.952-21.321 68.502 24.17 2.338Z" opacity=".5"/>
  <path fill="#E86B31" d="M323.418 241.325H141.313c-.885 0-1.602-.798-1.602-1.785v-4.403h185.308v4.403c0 .987-.717 1.785-1.601 1.785Z"/>
  <path fill="#000" d="M323.418 241.325H141.313c-.885 0-1.602-.798-1.602-1.785v-4.403h185.308v4.403c0 .987-.717 1.785-1.601 1.785Z" opacity=".2"/>
  <path fill="#fff" d="M223.597 241.325h-82.284c-.885 0-1.602-.798-1.602-1.785v-4.403h83.886v6.188Z" opacity=".3"/>
  <path fill="#E86B31" d="M328.796 236.293H135.941c-1.044 0-1.89-.943-1.89-2.105v-.97c0-1.162.846-2.105 1.89-2.105h192.855c1.044 0 1.89.943 1.89 2.105v.97c0 1.162-.846 2.105-1.89 2.105Z"/>
  <path fill="#fff" d="M223.6 236.293h-87.659c-1.044 0-1.89-.943-1.89-2.105v-.97c0-1.162.846-2.105 1.89-2.105H223.6v5.18Z" opacity=".4"/>
  <path fill="#263238" d="M213.82 365.861H149.5c-3.855 0-6.992-3.494-6.992-7.79V249.122c0-4.295 3.137-7.788 6.992-7.788h64.32c3.856 0 6.994 3.494 6.994 7.788v108.949c0 4.294-3.137 7.79-6.994 7.79ZM149.5 245.478c-1.804 0-3.272 1.634-3.272 3.644v108.949c0 2.009 1.468 3.646 3.272 3.646h64.32c1.805 0 3.274-1.636 3.274-3.646V249.122c0-2.01-1.469-3.644-3.274-3.644H149.5Z"/>
  <g opacity=".4">
    <path fill="#fff" d="M213.82 365.861H149.5c-3.855 0-6.992-3.494-6.992-7.79V249.122c0-4.295 3.137-7.788 6.992-7.788h64.32c3.856 0 6.994 3.494 6.994 7.788v108.949c0 4.294-3.137 7.79-6.994 7.79ZM149.5 245.478c-1.804 0-3.272 1.634-3.272 3.644v108.949c0 2.009 1.468 3.646 3.272 3.646h64.32c1.805 0 3.274-1.636 3.274-3.646V249.122c0-2.01-1.469-3.644-3.274-3.644H149.5Z" opacity=".2"/>
  </g>
  <path fill="#000" d="M213.819 241.334h-64.32c-3.616 0-6.601 3.076-6.956 7.002h3.766c.324-1.632 1.63-2.858 3.19-2.858h64.32c1.562 0 2.867 1.225 3.192 2.858h3.765c-.355-3.927-3.339-7.002-6.957-7.002Z" opacity=".2"/>
  <path fill="#263238" d="M313.933 365.861h-64.319c-3.856 0-6.993-3.494-6.993-7.79V249.122c0-4.295 3.137-7.788 6.993-7.788h64.319c3.856 0 6.994 3.494 6.994 7.788v108.949c0 4.294-3.137 7.79-6.994 7.79Zm-64.319-120.383c-1.804 0-3.273 1.634-3.273 3.644v108.949c0 2.009 1.469 3.646 3.273 3.646h64.319c1.806 0 3.274-1.636 3.274-3.646V249.122c0-2.01-1.468-3.644-3.274-3.644h-64.319Z"/>
  <path fill="#fff" d="M313.933 365.861h-64.319c-3.856 0-6.993-3.494-6.993-7.79V249.122c0-4.295 3.137-7.788 6.993-7.788h64.319c3.856 0 6.994 3.494 6.994 7.788v108.949c0 4.294-3.137 7.79-6.994 7.79Zm-64.319-120.383c-1.804 0-3.273 1.634-3.273 3.644v108.949c0 2.009 1.469 3.646 3.273 3.646h64.319c1.806 0 3.274-1.636 3.274-3.646V249.122c0-2.01-1.468-3.644-3.274-3.644h-64.319Z" opacity=".1"/>
  <path fill="#000" d="M313.936 241.334h-64.319c-3.617 0-6.602 3.076-6.957 7.002h3.766c.324-1.632 1.629-2.858 3.191-2.858h64.319c1.562 0 2.867 1.225 3.192 2.858h3.766c-.356-3.927-3.34-7.002-6.958-7.002Z" opacity=".2"/>
  <path fill="#E86B31" d="M198.29 266.93h-71.933c-4.327 0-7.834 3.906-7.834 8.725v81.881c0 4.819 3.507 8.725 7.834 8.725h71.933c4.326 0 7.833-3.906 7.833-8.725v-81.881c0-4.819-3.507-8.725-7.833-8.725Z"/>
  <path fill="#fff" d="M198.29 266.93h-71.933c-4.327 0-7.834 3.906-7.834 8.725v81.881c0 4.819 3.507 8.725 7.834 8.725h71.933c4.326 0 7.833-3.906 7.833-8.725v-81.881c0-4.819-3.507-8.725-7.833-8.725Z" opacity=".4"/>
  <path fill="#000" d="M118.523 357.469v.069c0 4.819 3.507 8.726 7.834 8.726h71.933c4.326 0 7.833-3.907 7.833-8.726v-.069h-87.6Z" opacity=".1"/>
  <path fill="#E86B31" d="M198.291 366.261h-19.942c-4.326 0-7.833-3.906-7.833-8.725v-81.881c0-4.819 3.507-8.725 7.833-8.725h19.942c4.326 0 7.833 3.906 7.833 8.725v81.881c0 4.819-3.507 8.725-7.833 8.725Z"/>
  <path fill="#fff" d="M198.294 361.598c2.011 0 3.648-1.823 3.648-4.064v-81.88c0-2.241-1.637-4.064-3.648-4.064h-19.942c-2.012 0-3.649 1.823-3.649 4.064v81.88c0 2.241 1.637 4.064 3.649 4.064h19.942Z" opacity=".3"/>
  <path fill="#fff" d="M199.246 278.072h-21.855v6.475h21.855v-6.475Zm0 7.77h-21.855v6.474h21.855v-6.474Z" opacity=".7"/>
  <path fill="#E86B31" d="M188.322 321.669c2.514 0 4.552-2.27 4.552-5.071 0-2.8-2.038-5.071-4.552-5.071s-4.552 2.271-4.552 5.071c0 2.801 2.038 5.071 4.552 5.071Z"/>
  <g opacity=".9">
    <path fill="#fff" d="M189.388 315.591c.873 1.054.286 2.84-1.058 2.846-1.347.006-1.925-1.798-1.058-2.846.434-.524-.269-1.311-.705-.784-1.447 1.748-.475 4.741 1.762 4.741 2.24 0 3.21-2.993 1.763-4.741-.435-.526-1.139.26-.704.784Z"/>
    <path fill="#fff" d="M187.832 313.641v2.528a.5.5 0 0 0 .996 0v-2.528a.5.5 0 0 0-.996 0Z"/>
  </g>
  <path fill="#E86B31" d="M179.704 333.145c.77 0 1.395-.696 1.395-1.554 0-.858-.625-1.554-1.395-1.554-.771 0-1.395.696-1.395 1.554 0 .858.624 1.554 1.395 1.554Zm5.746 0c.77 0 1.395-.696 1.395-1.554 0-.858-.625-1.554-1.395-1.554-.771 0-1.395.696-1.395 1.554 0 .858.624 1.554 1.395 1.554Zm5.75 0c.77 0 1.395-.696 1.395-1.554 0-.858-.625-1.554-1.395-1.554-.771 0-1.395.696-1.395 1.554 0 .858.624 1.554 1.395 1.554Zm5.746 0c.77 0 1.395-.696 1.395-1.554 0-.858-.625-1.554-1.395-1.554-.771 0-1.395.696-1.395 1.554 0 .858.624 1.554 1.395 1.554Zm-14.367 5.525c.77 0 1.395-.695 1.395-1.554 0-.858-.625-1.554-1.395-1.554-.771 0-1.395.696-1.395 1.554 0 .859.624 1.554 1.395 1.554Zm5.742 0c.77 0 1.395-.695 1.395-1.554 0-.858-.625-1.554-1.395-1.554-.771 0-1.395.696-1.395 1.554 0 .859.624 1.554 1.395 1.554Zm5.746 0c.77 0 1.395-.695 1.395-1.554 0-.858-.625-1.554-1.395-1.554-.771 0-1.395.696-1.395 1.554 0 .859.624 1.554 1.395 1.554Zm-14.363 6.117c.77 0 1.395-.695 1.395-1.553 0-.859-.625-1.554-1.395-1.554-.771 0-1.395.695-1.395 1.554 0 .858.624 1.553 1.395 1.553Zm5.746 0c.77 0 1.395-.695 1.395-1.553 0-.859-.625-1.554-1.395-1.554-.771 0-1.395.695-1.395 1.554 0 .858.624 1.553 1.395 1.553Zm5.75 0c.77 0 1.395-.695 1.395-1.553 0-.859-.625-1.554-1.395-1.554-.771 0-1.395.695-1.395 1.554 0 .858.624 1.553 1.395 1.553Zm5.746 0c.77 0 1.395-.695 1.395-1.553 0-.859-.625-1.554-1.395-1.554-.771 0-1.395.695-1.395 1.554 0 .858.624 1.553 1.395 1.553Zm-14.367 5.528c.77 0 1.395-.696 1.395-1.554 0-.858-.625-1.554-1.395-1.554-.771 0-1.395.696-1.395 1.554 0 .858.624 1.554 1.395 1.554Zm5.742 0c.77 0 1.395-.696 1.395-1.554 0-.858-.625-1.554-1.395-1.554-.771 0-1.395.696-1.395 1.554 0 .858.624 1.554 1.395 1.554Zm5.746 0c.77 0 1.395-.696 1.395-1.554 0-.858-.625-1.554-1.395-1.554-.771 0-1.395.696-1.395 1.554 0 .858.624 1.554 1.395 1.554Zm-14.363 6.121c.77 0 1.395-.696 1.395-1.554 0-.858-.625-1.554-1.395-1.554-.771 0-1.395.696-1.395 1.554 0 .858.624 1.554 1.395 1.554Zm5.746 0c.77 0 1.395-.696 1.395-1.554 0-.858-.625-1.554-1.395-1.554-.771 0-1.395.696-1.395 1.554 0 .858.624 1.554 1.395 1.554Zm5.75 0c.77 0 1.395-.696 1.395-1.554 0-.858-.625-1.554-1.395-1.554-.771 0-1.395.696-1.395 1.554 0 .858.624 1.554 1.395 1.554Zm5.746 0c.77 0 1.395-.696 1.395-1.554 0-.858-.625-1.554-1.395-1.554-.771 0-1.395.696-1.395 1.554 0 .858.624 1.554 1.395 1.554Z"/>
  <path fill="#E4897B" d="m307.013 221.065-5.618-2.821-7.875 3.659v4.367s12.226-.455 12.223-.433c0 0 13.791 5.114 18.884 4.328 5.094-.787 21.313-25.965 21.313-25.965l-8.149-7.946-15.514 24.627-15.264.184Z"/>
  <path fill="#8B373A" d="m307.013 221.063-5.618-2.821-7.875 3.659v4.367s12.226-.454 12.223-.433c0 0 .345.129.945.34l3.946-5.156-3.621.044Z" opacity=".3"/>
  <path fill="#263238" d="M332.305 203.411s5.641-11.173 9.246-14.714c2.188-2.149 5.238-2.819 7.297-3.012 1.294-.122 2.402 1.021 2.412 2.468.029 4.416-1.004 14.024-9.161 23.913l-9.794-8.655Z"/>
  <path fill="#E86B31" d="M332.309 201.309s6.869 3.599 10.891 10.681l-2.193 1.888s-4.474-6.285-10.069-9.894l1.371-2.675Z"/>
  <path fill="#EB827E" d="m318.53 160.969-2.784 4.873s1.451 1.192 3.481.381l-.697-5.254Z"/>
  <path fill="#E86B31" d="M318.055 164.054c-1.709 0-3.098-1.656-3.098-3.691s1.39-3.691 3.098-3.691 3.098 1.655 3.098 3.691c0 2.035-1.39 3.691-3.098 3.691Zm0-6.604c-1.324 0-2.4 1.307-2.4 2.914 0 1.606 1.076 2.914 2.4 2.914 1.323 0 2.4-1.308 2.4-2.914 0-1.607-1.077-2.914-2.4-2.914Z"/>
  <path fill="#1A2E35" d="M316.848 160.292c-.006.629.281 1.145.651 1.15.37.005.699-.526.69-1.137-.01-.611-.281-1.144-.652-1.143-.371 0-.677.503-.689 1.13Z"/>
  <path fill="#E4897B" d="M338.633 156.364c.248 8.358.516 11.897-2.888 16.56-5.39 4.95-14.408 5.532-16.892-2.583-2.239-7.3-2.269-19.713 4.757-23.838 5.009-2.938 11.207-.798 13.846 4.782a12.484 12.484 0 0 1 1.177 5.079Z"/>
  <path fill="#8B373A" d="m328.094 176.483-.054-.409c-.12-.906-.924-1.49-1.716-1.247l-3.051.931c1.467.685 3.124.905 4.821.725Z" opacity=".2"/>
  <path fill="#1A2E35" d="M318.883 157.444a.287.287 0 0 1-.262-.113c-.465-.652-1.184-1.015-1.931-.973-.16.022-.307-.104-.329-.282-.017-.18.097-.344.258-.369.945-.074 1.862.372 2.454 1.196a.358.358 0 0 1-.032.465l-.001.001a.323.323 0 0 1-.157.075Z"/>
  <path fill="#E4897B" d="m327.82 174.372 1.645 12.415 9.308-2.146-2.982-12.707-7.971 2.438Z"/>
  <path fill="#472E03" d="M318.493 149.587c3.167 6.717 5.361.573 4.78 5.988-.582 5.413 1.165 7.168 1.165 7.168l6.376 10.592c.337.561.985.745 1.539.475 1.654-.808 2.728-.631 3.317-.364.414.188.879.133 1.214-.198 1.439-1.419 4.856-5.486 5.905-12.944 2.057-14.615-8.026-16.843-8.026-16.843-5.602-1.297-4.166-7.911-7.496-7.91-2.539.001-1.792 4.655-1.792 4.655s-2.719-2.269-4.295-1.496c-2.037.998-.231 5.653-.231 5.653s-5.56-1.362-2.456 5.224Z"/>
  <path fill="#E86B31" d="M325.049 158.809h-9.303l.448-1.036h8.855v1.036Z"/>
  <path fill="#E4897B" d="M323.137 160.089c-.27 1.682.073 3.414.954 4.814 1.18 1.847 3.06 1.023 3.81-.949.681-1.786.873-4.884-.835-6.038-1.708-1.155-3.579.12-3.929 2.173Z"/>
  <path fill="#263238" d="M325.301 182.244s5.976-6.292 12.245-5.783c4.262.345 5.58 6.301 5.58 6.301l-17.825-.518Z"/>
  <path fill="#fff" d="M325.301 182.244s5.976-6.292 12.245-5.783c4.262.345 5.58 6.301 5.58 6.301l-17.825-.518Z" opacity=".2"/>
  <path fill="url(#a)" d="m329.343 258.383-13.097-71.225c-.524-2.852 1.206-5.471 3.776-5.709 8.215-.764 24.78-1.501 30.319 4.162 12.911 13.203 13.935 73.808 13.935 73.808l-34.933-1.036Z"/>
  <path fill="#000" d="M319.96 186.045s-2.084.889-3.472 2.43l4.309 23.43c3.848-9.603 3.583-25.86 3.583-25.86h-4.42Z" opacity=".5"/>
  <path fill="#E4897B" d="m280.908 220.174-5.557-3.095-7.789 4.014v4.791s12.093-.498 12.091-.474c0 0 13.64 5.612 18.677 4.748 5.038-.863 21.08-28.488 21.08-28.488l-8.06-8.719-15.345 27.02-15.097.203Z"/>
  <path fill="#E86B31" d="M305.926 200.808s5.58-12.258 9.144-16.143c3.565-3.884 9.445-3.362 9.445-3.362s2.092 14.215-8.902 29.001l-9.687-9.496Z"/>
  <path fill="#263238" d="M305.93 198.5s6.794 3.95 10.772 11.719l-2.169 2.072s-4.425-6.895-9.959-10.855l1.356-2.936Z"/>
  <path fill="#fff" d="M305.93 198.5s6.794 3.95 10.772 11.719l-2.169 2.072s-4.425-6.895-9.959-10.855l1.356-2.936Z" opacity=".2"/>
  <path fill="#E4897B" d="m325.57 336.143 3.187 17.199 6.287-1.036-1.511-16.745-7.963.582Z"/>
  <path fill="#000" d="m334.529 346.593-.996-11.032-7.963.582 1.992 10.751 6.967-.301Z" opacity=".2"/>
  <path fill="#455A64" d="M362.881 257.871s3.193 18.646-7.735 18.646c-10.927 0-25.461 3.979-25.461 3.979s4.185 4.428 5.115 60.853l-9.068.43s-15.061-63.686-12.09-70.685c4.185-9.856 25.855-13.223 25.855-13.223h23.384Z"/>
  <path fill="#E86B31" d="m323.809 338.759 12.328-.345-.394 5.698-10.343.493-1.591-5.846Z"/>
  <path fill="#fff" d="m323.809 338.759 12.328-.345-.394 5.698-10.343.493-1.591-5.846Z" opacity=".5"/>
  <path fill="#E86B31" d="M325.923 354.426c-.814.108-1.673.055-1.985-.299a.716.716 0 0 1-.069-.753.861.861 0 0 1 .445-.469c1.057-.482 3.499.667 3.605.718a.173.173 0 0 1 .094.17.18.18 0 0 1-.109.158c-.647.223-1.31.381-1.981.475Zm-1.194-1.28a.966.966 0 0 0-.292.083.45.45 0 0 0-.278.282c-.093.231-.04.329.01.382.355.434 2.008.225 3.208-.106a6.616 6.616 0 0 0-2.648-.641Z"/>
  <path fill="#E86B31" d="M327.884 353.952a.086.086 0 0 1-.065.002c-.825-.282-2.568-1.654-2.517-2.493-.006-.2.102-.459.524-.563.308-.079.632-.014.896.179.916.653 1.303 2.596 1.322 2.686a.185.185 0 0 1-.053.166.138.138 0 0 1-.107.023Zm-1.919-2.74-.09.003c-.276.063-.281.191-.288.237.013.5 1.179 1.6 2.048 2.025a4.203 4.203 0 0 0-1.11-2.119.755.755 0 0 0-.56-.146Z"/>
  <path fill="#E86B31" d="m328.464 352.839 7.148-.955c.27-.037.526.14.616.425l1.99 6.305c.181.557-.08 1.172-.58 1.373a.868.868 0 0 1-.198.054c-2.582.295-4.89.444-8.098.878-3.785.507-2.77.883-7.214 1.548-2.677.398-3.534-2.931-2.415-3.25 5.125-1.426 5.478-3.248 7.262-5.591a2.215 2.215 0 0 1 1.489-.787Z"/>
  <path fill="#E4897B" d="m307.184 340.752 5.928 16.035 5.774-1.284-3.971-17.157-7.731 2.406Z"/>
  <path fill="#000" d="m317.564 349.791-2.649-11.445-7.731 2.406 3.854 10.424 6.526-1.385Z" opacity=".2"/>
  <path fill="#455A64" d="M362.883 257.867s6.751 19.449-15.565 18.646c-8.547-.307-45.562 9.323-45.562 9.323s6.675 3.885 15.045 55.939l-9.474 2.396s-26.858-59.105-23.887-66.104c4.185-9.856 48.227-20.2 48.227-20.2h31.216Z"/>
  <path fill="#E86B31" d="m306.164 343.504 11.237-2.676 1.163 5.18-10.772 2.762-1.628-5.266Z"/>
  <path fill="#fff" d="m306.164 343.504 11.237-2.676 1.163 5.18-10.772 2.762-1.628-5.266Z" opacity=".5"/>
  <path fill="#E86B31" d="M309.54 357.515c-.814.109-1.673.055-1.985-.298a.716.716 0 0 1-.069-.753.863.863 0 0 1 .445-.47c1.057-.48 3.499.667 3.606.718a.18.18 0 0 1 .095.17.182.182 0 0 1-.11.159c-.647.221-1.311.381-1.982.474Zm-1.194-1.28a.912.912 0 0 0-.292.083.45.45 0 0 0-.278.282c-.092.23-.04.329.01.383.355.434 2.008.224 3.208-.106a6.589 6.589 0 0 0-2.648-.642Z"/>
  <path fill="#E86B31" d="M311.494 357.042a.086.086 0 0 1-.065.002c-.825-.282-2.569-1.654-2.518-2.493-.005-.2.103-.458.525-.563a1.06 1.06 0 0 1 .895.179c.916.651 1.303 2.596 1.322 2.686a.183.183 0 0 1-.053.166.132.132 0 0 1-.106.023Zm-1.92-2.739-.09.003c-.276.063-.281.191-.287.237.013.5 1.178 1.599 2.048 2.025a4.212 4.212 0 0 0-1.111-2.119.743.743 0 0 0-.56-.146Z"/>
  <path fill="#E86B31" d="m312.082 355.93 7.148-.957c.269-.036.525.141.615.426l1.991 6.305c.18.558-.08 1.172-.581 1.373a.868.868 0 0 1-.198.054c-2.582.294-4.89.444-8.097.878-3.785.507-2.771.883-7.214 1.548-2.678.398-3.534-2.931-2.416-3.25 5.126-1.426 5.478-3.248 7.262-5.591a2.228 2.228 0 0 1 1.49-.786Z"/>
  <path fill="#263238" d="M383.313 345.889c-5.684-1.041-14.115-2.514-17.869-2.823a61.086 61.086 0 0 0-2.996-.152v-32.478h-7.14v32.478a59.799 59.799 0 0 0-2.996.152c-3.755.308-12.185 1.782-17.869 2.823-3.275.6-5.673 3.753-5.673 7.449v1.641h6.924l.93-2.308s13.016-2.511 17.402-2.871c2.419-.199 7.286-.199 9.707 0 4.386.359 17.4 2.871 17.4 2.871l.93 2.308h6.925v-1.641c-.001-3.696-2.399-6.849-5.675-7.449Z"/>
  <path fill="#fff" d="M383.313 345.889c-5.684-1.041-14.115-2.514-17.869-2.823a61.086 61.086 0 0 0-2.996-.152v-32.478h-7.14v32.478a59.799 59.799 0 0 0-2.996.152c-3.755.308-12.185 1.782-17.869 2.823-3.275.6-5.673 3.753-5.673 7.449v1.641h6.924l.93-2.308s13.016-2.511 17.402-2.871c2.419-.199 7.286-.199 9.707 0 4.386.359 17.4 2.871 17.4 2.871l.93 2.308h6.925v-1.641c-.001-3.696-2.399-6.849-5.675-7.449Z" opacity=".1"/>
  <path fill="#263238" d="M361.299 315.098h-4.83c-1.831 0-3.317-1.654-3.317-3.694v-27.453h11.464v27.453c0 2.039-1.486 3.694-3.317 3.694Z"/>
  <path fill="#000" d="M364.616 283.951h-11.464v7.58h11.464v-7.58Z" opacity=".2"/>
  <path fill="#263238" d="M386.09 365.859c2.696 0 4.882-2.435 4.882-5.438 0-3.004-2.186-5.439-4.882-5.439-2.697 0-4.883 2.435-4.883 5.439 0 3.003 2.186 5.438 4.883 5.438Zm-54.415 0c2.697 0 4.883-2.435 4.883-5.438 0-3.004-2.186-5.439-4.883-5.439-2.696 0-4.882 2.435-4.882 5.439 0 3.003 2.186 5.438 4.882 5.438Z"/>
  <path fill="#494949" d="M397.64 277.479a85.301 85.301 0 0 0-20.914-3.208c-7.263-.203-34.446-.03-40.902-.033a85.294 85.294 0 0 0-23.34 3.241c-4.792 1.361-3.315 9.065 1.014 9.154.382.008 82.558-.019 82.859-.004 4.528.229 6.18-7.759 1.283-9.15Z"/>
  <path fill="#E86B31" d="M314.709 286.467a77.294 77.294 0 0 1 42.23 0c5.222 1.484 7.449-7.506 2.225-8.99a85.474 85.474 0 0 0-46.679 0c-5.216 1.482-3.007 10.476 2.224 8.99Z"/>
  <path fill="#000" d="M314.709 286.467a77.294 77.294 0 0 1 42.23 0c5.222 1.484 7.449-7.506 2.225-8.99a85.474 85.474 0 0 0-46.679 0c-5.216 1.482-3.007 10.476 2.224 8.99Z" opacity=".4"/>
  <path fill="#494949" d="M375.659 210.771c-.864-.018-1.733.413-2.311 1.484-11.072 20.507-15.005 45.16-11.185 68.68.239 1.474 1.146 2.161 2.151 2.237 1.676.128 31.51.01 32.593.008 1.627-.004 3.415-1.544 3.032-3.897-3.549-21.857.359-44.881 10.623-63.892 1.275-2.362-.606-4.579-2.507-4.62-.865-.018-30.494.041-32.396 0Z"/>
  <path fill="#E86B31" d="M367.536 279.283c-3.55-21.856.359-44.88 10.622-63.891 1.856-3.436-2.967-6.564-4.818-3.136-11.072 20.507-15.004 45.16-11.185 68.68.639 3.93 6.017 2.264 5.381-1.653Z"/>
  <path fill="#000" d="M367.536 279.283c-3.55-21.856.359-44.88 10.622-63.891 1.856-3.436-2.967-6.564-4.818-3.136-11.072 20.507-15.004 45.16-11.185 68.68.639 3.93 6.017 2.264 5.381-1.653Z" opacity=".4"/>
  <path fill="#263238" d="m331 252.258 28.749 29.289c1.985 2.021 4.952-1.265 2.96-3.296l-28.75-29.29c-1.984-2.021-4.952 1.267-2.959 3.297Z"/>
  <path fill="#fff" d="m331 252.258 28.749 29.289c1.985 2.021 4.952-1.265 2.96-3.296l-28.75-29.29c-1.984-2.021-4.952 1.267-2.959 3.297Z" opacity=".5"/>
  <path fill="#000" d="M333.959 248.961c-1.984-2.021-4.951 1.266-2.959 3.296l5.5 5.604h6.194l-8.735-8.9Z" opacity=".2"/>
  <path fill="#E86B31" d="M316.019 253.717h39.447c3.591 0 3.596-6.215 0-6.215h-39.447c-3.59 0-3.596 6.215 0 6.215Z"/>
  <path fill="#fff" d="M316.019 253.717h39.447c3.591 0 3.596-6.215 0-6.215h-39.447c-3.59 0-3.596 6.215 0 6.215Z" opacity=".3"/>
  <defs>
    <linearGradient id="a" x1="334.5" x2="366.525" y1="160.752" y2="238.335" gradientUnits="userSpaceOnUse">
      <stop stop-color="#FB8D48"/>
      <stop offset=".2" stop-color="#ED7136"/>
      <stop offset=".4" stop-color="#C54E47"/>
      <stop offset=".4" stop-color="#C14F49"/>
      <stop offset=".6" stop-color="#9D3863"/>
      <stop offset=".8" stop-color="#5E1F72"/>
    </linearGradient>
  </defs>
</svg>
