<svg xmlns="http://www.w3.org/2000/svg" width="334" height="335" fill="none" viewBox="0 0 334 335">
  <path fill="url(#a)" d="M291.344 226.972c.005-4.173-.829-11.865 2.704-19.079 2.559-5.226 7.138-10.305 11.397-9.8 3.967.471 4.326 6.568.533 10.743-3.793 4.175-8.621 9.949-9.673 19.179l-2.732 6.85-2.229-7.893Z"/>
  <path fill="url(#b)" d="M291.344 226.972c.005-4.173-.829-11.865 2.704-19.079 2.559-5.226 7.138-10.305 11.397-9.8 3.967.471 4.326 6.568.533 10.743-3.793 4.175-8.621 9.949-9.673 19.179l-2.732 6.85-2.229-7.893Z" opacity=".2"/>
  <path fill="url(#c)" d="M292.767 229.904a.29.29 0 0 0 .24-.297c-.48-11.866 3.381-21.716 11.168-28.485a.29.29 0 0 0-.38-.438c-7.925 6.889-11.855 16.899-11.368 28.946a.291.291 0 0 0 .301.279l.039-.005Z"/>
  <path fill="url(#d)" d="M290.591 241.892s2.873 1.936 7.338 2.042c4.465.106 6.114-2.243 6.114-2.243s-2.271-3.871-4.908-4.688c0 0 4.325.294 8.006 2.095 0 0 2.675-.317 3.192-4.535 0 0-1.911-2.24-7.396-2.854 0 0 3.12-1.245 7.932-.682.367.093 1.149-5.376 1.273-7.867.125-2.491-.849-2.334-2.812-2.586-1.963-.252-8.458.294-9.505 1.495-1.047 1.202-1.172 4.846-1.172 4.846s-1.404-1.864-1.374-3.701c0 0-1.989-.39-4.018.637-2.03 1.027-2.682 1.85-2.783 3.41-.1 1.559-.232 3.891.394 5.701 0 0-1.85-2.981-1.755-5.576 0 0-1.016 1.679-1.888 3.951-.871 2.27.164 7.768 3.362 10.555Z"/>
  <path fill="url(#e)" d="M290.666 242.172a.289.289 0 0 0 .201-.189c2.542-7.794 14.501-18.056 19.072-19.597a.29.29 0 0 0 .182-.368.28.28 0 0 0-.368-.181c-4.658 1.571-16.849 12.028-19.438 19.966a.29.29 0 0 0 .186.366.29.29 0 0 0 .165.003Z"/>
  <path fill="#37474F" d="m148.088 242.459 23.63-13.664c2.435-1.406 3.653-3.249 3.654-5.092 0-1.843.01-3.287.01-3.287l-22.236-12.62c-1.299-.751-2.352-2.575-2.352-4.075v-29.133l-41.273 23.849-.001 29.134c0 1.5 1.052 3.324 2.352 4.074l18.573 10.814c4.873 2.812 12.771 2.812 17.643 0Z"/>
  <path fill="#263238" d="M119.429 232.73v3.272l-7.564-4.359c-1.29-.747-2.349-2.567-2.349-4.074v-29.13l7.863-4.537c.163 1.997.339 4.061.502 6.071l-5.514 3.192v22.761c0 1.508 1.046 3.328 2.35 4.074l4.712 2.73Z"/>
  <path fill="#455A64" d="M112.364 225.93c0 1.5 1.053 3.324 2.352 4.074l15.724 9.167c4.872 2.813 12.771 2.814 17.643.002l23.641-13.662c4.873-2.811 4.874-7.37.002-10.183l-15.736-9.175c-1.299-.75-2.352-2.574-2.352-4.074v-22.765l-41.275 23.85.001 22.766Z"/>
  <path fill="#000" d="M160.785 208.922v-.003l-4.791-2.766c-1.299-.75-2.352-2.575-2.352-4.074v-22.765l-41.275 23.85v22.765c0 1.501 1.054 3.324 2.353 4.075l4.708 2.718 41.357-23.8Z" opacity=".15"/>
  <path fill="#37474F" d="M175.375 220.418v3.287c0 1.847-1.222 3.68-3.653 5.092l-23.634 13.656c-2.336 1.358-5.365 2.036-8.42 2.091v-3.273c3.055-.041 6.084-.747 8.42-2.092l23.634-13.668c2.431-1.399 3.653-3.246 3.653-5.093Z"/>
  <path fill="#455A64" d="M46.098 257.359c1.523.879 4.075.833 5.699-.105L211.415 165.1c1.624-.937 2.939-3.217 2.939-5.092V20.297c0-1.875-1.235-4.108-2.758-4.988-1.523-.879-4.075-.832-5.698.106L46.282 107.568c-1.624.938-2.94 3.217-2.94 5.092l-.002 139.711c0 1.875 1.235 4.109 2.758 4.988Z"/>
  <path fill="#37474F" d="m51.796 257.25 159.617-92.153c1.624-.938 2.941-3.218 2.941-5.093V20.292c0-1.875-1.316-2.635-2.941-1.697L51.798 110.748c-1.624.938-2.94 3.218-2.94 5.093l-.002 139.711c0 1.875 1.316 2.635 2.94 1.698Z"/>
  <path fill="#E86B31" d="m54.371 237.097.001-119.424c0-1.125.79-2.493 1.765-3.056l150.932-87.142c.975-.562 1.764-.106 1.764 1.019l.005 119.427c0 1.125-.79 2.493-1.764 3.055l-150.94 87.14c-.973.562-1.763.106-1.763-1.019Z"/>
  <path fill="#FAFAFA" d="m54.371 237.097.001-119.424c0-1.125.79-2.493 1.765-3.056l150.932-87.142c.975-.562 1.764-.106 1.764 1.019l.005 119.427c0 1.125-.79 2.493-1.764 3.055l-150.94 87.14c-.973.562-1.763.106-1.763-1.019Z"/>
  <path fill="#E86B31" d="M131.306 205.519c-.321 0-.62-.076-.885-.229-.629-.363-.976-1.1-.976-2.075 0-1.895 1.286-4.12 2.926-5.068.846-.487 1.657-.555 2.285-.193.628.362.975 1.1.975 2.075.001 1.895-1.285 4.12-2.926 5.068-.486.28-.963.422-1.399.422Zm2.464-7.127c-.319 0-.681.112-1.064.333-1.429.825-2.592 2.839-2.592 4.489 0 .726.228 1.258.641 1.496.413.238.988.169 1.617-.193 1.43-.825 2.592-2.839 2.592-4.489 0-.726-.227-1.258-.641-1.497a1.108 1.108 0 0 0-.553-.139Z"/>
  <path fill="#F0F0F0" d="m235.052 49.951-155.45 89.644v114.57c0 1.526 1.65 2.485 2.971 1.723l2.771-1.6 146.809-84.649c1.597-.922 2.899-3.165 2.899-5.018V49.951Z"/>
  <path fill="#E0E0E0" d="M234.384 51.108V164.62c0 1.604-1.174 3.637-2.564 4.439L85.01 253.71l-2.77 1.6a1.285 1.285 0 0 1-.65.177c-.337 0-.672-.136-.92-.374a1.299 1.299 0 0 1-.4-.948V139.98l154.114-88.872Zm.668-1.157-155.45 89.644v114.57a1.99 1.99 0 0 0 1.987 1.99c.33 0 .666-.083.984-.267l2.771-1.6 146.809-84.649c1.597-.921 2.899-3.164 2.899-5.018V49.951Z"/>
  <path fill="#455A64" d="m231.367 47.82-155.46 89.64 3.696 2.134 155.45-89.644-3.686-2.129Z" opacity=".8"/>
  <path fill="#EBEBEB" d="M80.645 255.912s-1.04-.51-1.04-1.749l-.001-111.272v-3.3l-3.697-2.134-.005 113.937a3.069 3.069 0 0 0 1.54 2.668l3.053 1.765.15.085Z"/>
  <path fill="#E86B31" d="M75.902 137.51v-7.73c0-.923.646-2.048 1.443-2.513L229.92 39.31c.797-.465 2.09-.469 2.889-.007l.794.459c.799.46 1.446 1.582 1.446 2.505v7.743l-155.45 89.633-3.697-2.133Z"/>
  <path fill="#000" d="M75.902 137.51v-7.73c0-.923.646-2.048 1.443-2.513L229.92 39.31c.797-.465 2.09-.469 2.889-.007l.794.459c.799.46 1.446 1.582 1.446 2.505v7.743l-155.45 89.633-3.697-2.133Z" opacity=".3"/>
  <path fill="#E86B31" d="M79.602 131.914c0-.923.645-2.048 1.441-2.512L233.61 41.439c.797-.465 1.442-.095 1.442.828v7.743l-155.45 89.633v-7.729Z"/>
  <path fill="#000" d="M79.602 131.914c0-.923.645-2.048 1.441-2.512L233.61 41.439c.797-.465 1.442-.095 1.442.828v7.743l-155.45 89.633v-7.729Z" opacity=".4"/>
  <path fill="#E86B31" d="M80.021 130.484c-.26.455-.42.969-.42 1.43v7.729l-3.695-2.131v-7.736c0-.461.16-.968.421-1.422l3.694 2.13Z"/>
  <path fill="#000" d="M80.021 130.484c-.26.455-.42.969-.42 1.43v7.729l-3.695-2.131v-7.736c0-.461.16-.968.421-1.422l3.694 2.13Z" opacity=".5"/>
  <path fill="#FAFAFA" d="M228.266 49.658c0 .865.607 1.216 1.356.784.75-.433 1.357-1.485 1.357-2.35s-.607-1.216-1.357-.784c-.749.433-1.356 1.485-1.356 2.35Zm-5.426 3.135c0 .865.607 1.216 1.357.783.749-.432 1.356-1.484 1.356-2.35 0-.865-.607-1.215-1.356-.783-.75.432-1.357 1.484-1.357 2.35Zm-5.426 3.131c0 .865.607 1.215 1.357.783.749-.432 1.356-1.485 1.356-2.35s-.607-1.215-1.356-.783c-.75.433-1.357 1.485-1.357 2.35ZM79.598 139.646v114.52c-.001 1.525 1.651 2.485 2.972 1.722l2.77-1.6 33.971-19.587V116.744l-39.713 22.899v.003Zm42.429-20.968v111.23l109.765-63.373-.001-111.228-109.764 63.371Z"/>
  <path fill="#E86B31" d="m110.219 130.184-25.334 14.639c-.47.271-.85.93-.85 1.471v2.637c0 .541.38.761.85.49l25.334-14.639c.469-.27.849-.929.849-1.47v-2.637c0-.542-.38-.761-.849-.491Z"/>
  <path fill="#FAFAFA" d="m110.219 130.184-25.334 14.639c-.47.271-.85.93-.85 1.471v2.637c0 .541.38.761.85.49l25.334-14.639c.469-.27.849-.929.849-1.47v-2.637c0-.542-.38-.761-.849-.491Z" opacity=".8"/>
  <path fill="#455A64" d="m115.861 131.231-.747-.719c.148-.377.238-.791.238-1.193 0-.61-.204-1.077-.559-1.282-.27-.155-.594-.142-.909.04-.658.38-1.173 1.446-1.173 2.426 0 .61.204 1.077.558 1.282.125.072.26.108.401.108.166 0 .339-.05.509-.148.247-.143.475-.383.662-.68l.613.589a.292.292 0 0 0 .416-.008.294.294 0 0 0-.009-.415Zm-1.976.005c-.13.074-.24.088-.321.04-.122-.07-.265-.315-.265-.773 0-.764.403-1.642.88-1.917a.427.427 0 0 1 .212-.069c.04 0 .077.01.109.029.121.07.264.314.264.772 0 .765-.403 1.643-.879 1.918ZM84.66 157.158l-.568.328c-.033.02-.06-.001-.06-.046v-1.538c0-.045.027-.097.06-.116l.569-.328c.033-.019.06.002.06.047v1.538c0 .045-.027.096-.06.115Zm.852-.492-.568.328c-.034.02-.061-.001-.061-.046v-1.538c0-.045.027-.096.06-.116l.57-.328c.032-.019.06.002.06.046v1.539c0 .045-.027.096-.06.115Zm.852-.491-.569.328c-.033.02-.06-.001-.06-.045v-1.538c0-.045.027-.097.06-.116l.569-.328c.033-.019.06.001.06.046v1.539c0 .043-.027.095-.06.114Zm-1.704 2.968-.568.328c-.033.019-.06-.001-.06-.046v-1.539c0-.044.027-.096.06-.115l.569-.328c.033-.02.06.001.06.046v1.538c0 .044-.027.097-.06.116Zm.852-.492-.568.328c-.034.019-.061-.002-.061-.046v-1.539c0-.045.027-.096.06-.115l.57-.328c.032-.02.06.001.06.046v1.538a.148.148 0 0 1-.06.116Zm.852-.491-.569.328c-.033.02-.06-.001-.06-.046v-1.538c0-.045.027-.096.06-.116l.569-.328c.033-.019.06.002.06.046v1.539c0 .044-.027.096-.06.115Zm-1.614 6.226-.699-.426c-.026-.016-.026-.078 0-.126l.7-1.234c.034-.059.082-.05.082.015v1.66c0 .066-.048.132-.082.111Z"/>
  <path fill="#455A64" d="m84.459 163.444.92-.532v.438l-.92.531c-.079.046-.143-.016-.143-.137 0-.119.064-.255.143-.3Zm1.091-.629.315-.182v.437l-.314.182v-.437Zm1.163-.453v1.611c0 .123-.064.256-.142.301-.078.045-.142-.014-.142-.137v-1.391l-.39.225v-.438l.532-.306c.078-.047.142.015.142.135Zm-1.691 5.635c-.652.449-1.095 1.689-.97 2.604.115.839.613.807.667 1.196.006.042.034.058.064.04l.622-.354c.03-.017.058-.064.064-.113.066-.513.701-1.133.706-2.381.004-.958-.52-1.426-1.153-.992Zm.373 4.491-.601.347c-.042.024-.075-.001-.075-.056v-.554c0-.054.033-.119.075-.142l.6-.347c.042-.024.076.001.076.056v.554c-.001.054-.034.118-.075.142Zm-.231-17.487c-.554.455-1 1.401-1.09 2.305-.052.526.014.956.16 1.261l-.203 1.05c-.017.087.03.133.08.078l.606-.66c.252.08.557.009.88-.259.555-.458 1.004-1.404 1.092-2.309.143-1.47-.624-2.208-1.525-1.466Zm.218 3.443c-.558.322-1.011-.114-1.011-.972 0-.859.453-1.818 1.01-2.14.558-.322 1.011.115 1.011.973s-.453 1.818-1.01 2.139Zm-.218 16.83c-.554.456-1 1.402-1.09 2.306-.052.526.014.955.16 1.26l-.203 1.051c-.017.087.03.132.08.077l.606-.66c.252.08.557.009.88-.258.555-.458 1.004-1.404 1.092-2.309.143-1.471-.624-2.208-1.525-1.467Zm.218 3.444c-.558.322-1.011-.114-1.011-.973 0-.858.453-1.817 1.01-2.139.558-.322 1.011.114 1.011.972 0 .859-.453 1.819-1.01 2.14Zm.633 3.984c0 .454-.238.959-.533 1.129-.294.17-.533-.059-.533-.513s.239-.959.533-1.129c.295-.17.533.059.533.513Zm.918.162c0 .302-.159.639-.355.752-.196.114-.355-.039-.355-.342 0-.302.159-.639.355-.752.196-.114.355.039.355.342Zm-.818 3.074-1.26.727v-1.593c0-.336.205-.726.457-.871l.347-.201c.252-.145.456.009.456.345v1.593Zm.517-2.139-.347.199v1.838l.654-.377v-1.428c0-.226-.137-.331-.307-.232Zm-2.597.738c0 .302.16.455.356.342.196-.113.355-.45.355-.752s-.16-.455-.355-.342c-.197.114-.356.45-.356.752Zm.3.59.346-.199v1.837l-.654.378v-1.428c0-.227.138-.489.308-.588Z"/>
  <path fill="#E0E0E0" d="m90.188 153.558 14.835-8.565c.399-.23.722-.067.722.366s-.324.97-.722 1.201l-14.835 8.565c-.4.23-.723.066-.723-.366 0-.433.325-.971.723-1.201Zm0 6.982 14.835-8.564c.399-.231.722-.067.722.366 0 .432-.324.97-.722 1.201l-14.835 8.564c-.4.231-.723.067-.723-.366s.325-.971.723-1.201Zm0 6.982 14.835-8.564c.399-.231.722-.067.722.366s-.324.971-.722 1.201l-14.835 8.565c-.4.23-.723.066-.723-.367 0-.432.325-.97.723-1.201Zm0 6.983 14.835-8.565c.399-.23.722-.066.722.366 0 .433-.324.97-.722 1.201l-14.835 8.565c-.4.23-.723.067-.723-.366s.325-.971.723-1.201Zm0 6.984 14.835-8.564c.399-.231.722-.067.722.366s-.324.97-.722 1.201l-14.835 8.564c-.4.231-.723.067-.723-.366s.325-.97.723-1.201Z"/>
  <path fill="#455A64" d="m92.903 187.188 14.834-8.564c.4-.23.724-.067.724.366s-.324.971-.724 1.201l-14.834 8.565c-.4.23-.723.066-.723-.367 0-.432.324-.969.723-1.201Z"/>
  <path fill="#E0E0E0" d="m92.903 191.907 14.834-8.564c.4-.231.724-.067.724.366s-.324.97-.724 1.201l-14.834 8.564c-.4.231-.723.067-.723-.366s.324-.97.723-1.201Zm0 4.715 14.834-8.564c.4-.231.724-.067.724.366 0 .432-.324.97-.724 1.201l-14.834 8.564c-.4.231-.723.067-.723-.366s.324-.971.723-1.201Zm2.887 2.998 14.834-8.564c.4-.231.723-.067.723.366s-.324.97-.723 1.201l-14.834 8.564c-.4.231-.724.067-.724-.366s.324-.971.724-1.201Z"/>
  <path fill="#455A64" d="m92.323 203.68 1.204-2.125c.046-.081.046-.188 0-.216l-1.204-.735c-.058-.035-.143.077-.143.191v2.859c0 .114.084.129.143.026Z"/>
  <path fill="#E0E0E0" d="m95.79 204.321 14.834-8.564c.4-.231.723-.067.723.366s-.324.97-.723 1.201l-14.834 8.564c-.4.23-.724.066-.724-.366 0-.433.324-.97.724-1.201Z"/>
  <path fill="#455A64" d="m92.323 208.38 1.204-2.126c.046-.081.046-.188 0-.216l-1.204-.734c-.058-.036-.143.076-.143.19v2.86c0 .113.084.128.143.026Z"/>
  <path fill="#E0E0E0" d="m95.79 209.02 14.834-8.564c.4-.23.723-.067.723.366s-.324.971-.723 1.201l-14.834 8.565c-.4.23-.724.066-.724-.367 0-.432.324-.97.724-1.201Z"/>
  <path fill="#455A64" d="m92.323 213.079 1.204-2.126c.046-.081.046-.187 0-.215l-1.204-.735c-.058-.036-.143.077-.143.19v2.86c0 .113.084.129.143.026Z"/>
  <path fill="#E0E0E0" d="m95.79 213.722 14.834-8.565c.4-.23.723-.067.723.366s-.324.971-.723 1.201l-14.834 8.565c-.4.23-.724.067-.724-.366s.324-.971.724-1.201Z"/>
  <path fill="#455A64" d="m92.323 217.779 1.204-2.125c.046-.081.046-.188 0-.216l-1.204-.734c-.058-.035-.143.077-.143.19v2.86c0 .113.084.128.143.025Z"/>
  <path fill="#E0E0E0" d="m95.79 218.423 14.834-8.565c.4-.23.723-.066.723.366 0 .433-.324.971-.723 1.201L95.79 219.99c-.4.23-.724.067-.724-.366s.324-.971.724-1.201Z"/>
  <path fill="#455A64" d="m92.323 222.481 1.204-2.126c.046-.081.046-.188 0-.216l-1.204-.734c-.058-.035-.143.077-.143.19v2.86c0 .113.084.128.143.026Z"/>
  <path fill="#E0E0E0" d="m95.79 223.122 14.834-8.564c.4-.231.723-.067.723.366 0 .432-.324.97-.723 1.201l-14.834 8.564c-.4.231-.724.067-.724-.366 0-.432.324-.97.724-1.201Z"/>
  <path fill="#455A64" d="m92.323 227.18 1.204-2.126c.046-.081.046-.187 0-.216l-1.204-.734c-.058-.035-.143.077-.143.191v2.86c0 .112.084.127.143.025Z"/>
  <path fill="#E0E0E0" d="m95.79 227.823 14.834-8.564c.4-.231.723-.067.723.366s-.324.97-.723 1.201L95.79 229.39c-.4.231-.724.067-.724-.366s.324-.97.724-1.201Z"/>
  <path fill="#455A64" d="m92.323 231.883 1.204-2.126c.046-.081.046-.187 0-.215l-1.204-.735c-.058-.035-.143.077-.143.191v2.86c0 .112.084.128.143.025Z"/>
  <path fill="#E0E0E0" d="m95.79 232.524 14.834-8.564c.4-.231.723-.067.723.366s-.324.971-.723 1.201l-14.834 8.564c-.4.231-.724.067-.724-.366 0-.432.324-.97.724-1.201Z"/>
  <path fill="#455A64" d="m92.323 236.582 1.204-2.125c.046-.081.046-.188 0-.216l-1.204-.734c-.058-.036-.143.076-.143.19v2.86c0 .113.084.127.143.025Z"/>
  <path fill="#F0F0F0" d="m125.466 133.934 48.757-28.15c.399-.23.723-.791.723-1.252v-12.43c0-.46-.324-.648-.723-.417l-48.757 28.144c-.4.231-.724.792-.724 1.253v12.435c0 .461.324.648.724.417Z"/>
  <path fill="#455A64" d="M129.716 125.16c0-.006.001-.016.004-.03l.321-1.335-.442.255c-.011.006-.02.006-.028-.002s-.012-.02-.012-.037v-.241c0-.017.004-.033.012-.051a.075.075 0 0 1 .028-.034l.708-.409c.012-.006.02-.006.029.002.008.008.012.02.012.037v.211a.627.627 0 0 1-.024.13l-.321 1.338c-.004.016-.01.031-.016.047a.065.065 0 0 1-.026.032l-.209.121c-.01.005-.018.005-.024-.002-.009-.006-.012-.017-.012-.032Zm1.181-2.248a.357.357 0 0 1 .191-.06.184.184 0 0 1 .132.058.327.327 0 0 1 .079.152.956.956 0 0 1 .03.218 6.49 6.49 0 0 1 0 .406 1.49 1.49 0 0 1-.03.254 1.063 1.063 0 0 1-.211.454.708.708 0 0 1-.191.161.373.373 0 0 1-.192.06.194.194 0 0 1-.132-.058.341.341 0 0 1-.078-.152 1.09 1.09 0 0 1-.031-.219 6.087 6.087 0 0 1 0-.406c.004-.084.014-.168.031-.254a1.02 1.02 0 0 1 .21-.454.725.725 0 0 1 .192-.16Zm.158.921a6.112 6.112 0 0 0 0-.383.854.854 0 0 0-.011-.099.179.179 0 0 0-.026-.068.063.063 0 0 0-.047-.029c-.02-.002-.044.005-.074.023a.24.24 0 0 0-.074.063.302.302 0 0 0-.047.084.561.561 0 0 0-.027.098c-.005.036-.01.072-.01.111a4.077 4.077 0 0 0 0 .383.58.58 0 0 0 .009.1.159.159 0 0 0 .027.068.072.072 0 0 0 .048.029.132.132 0 0 0 .074-.023.253.253 0 0 0 .074-.063.316.316 0 0 0 .048-.084.645.645 0 0 0 .036-.21Zm.868-1.178c.003.06.003.117 0 .174a.622.622 0 0 1-.059.264.411.411 0 0 1-.173.194.212.212 0 0 1-.1.034.101.101 0 0 1-.071-.029.188.188 0 0 1-.042-.078.436.436 0 0 1-.018-.117 1.179 1.179 0 0 1 .018-.31.512.512 0 0 1 .113-.239.378.378 0 0 1 .1-.082.197.197 0 0 1 .101-.034c.028.001.052.01.071.029a.19.19 0 0 1 .044.077.624.624 0 0 1 .016.117Zm.371-.482a.305.305 0 0 1 .021-.044.093.093 0 0 1 .032-.03l.122-.07c.011-.006.019-.007.026-.003.007.005.01.014.01.028l-.002.013a.124.124 0 0 1-.004.016l-.733 1.906a.227.227 0 0 1-.021.044.078.078 0 0 1-.032.03l-.122.071c-.011.006-.019.007-.026.002-.006-.005-.01-.014-.01-.028l.002-.012c.001-.005.002-.011.005-.016l.732-1.907Zm-.664.814a.207.207 0 0 0 .015.08c.009.016.024.016.045.004a.091.091 0 0 0 .045-.056.375.375 0 0 0 .016-.097 1.268 1.268 0 0 0 0-.151.223.223 0 0 0-.016-.08c-.009-.015-.023-.016-.045-.004a.1.1 0 0 0-.045.056.348.348 0 0 0-.015.098 1.25 1.25 0 0 0 0 .15Zm.981.07c.003.059.003.117 0 .174a.884.884 0 0 1-.017.137.576.576 0 0 1-.114.238.379.379 0 0 1-.1.083.21.21 0 0 1-.101.034.098.098 0 0 1-.071-.029.183.183 0 0 1-.043-.078.474.474 0 0 1-.017-.116c-.002-.029-.004-.057-.004-.083 0-.027.002-.057.004-.09a.688.688 0 0 1 .06-.265.44.44 0 0 1 .172-.194.206.206 0 0 1 .1-.033.091.091 0 0 1 .071.028.182.182 0 0 1 .042.078c.01.033.016.072.018.116Zm-.294.332a.212.212 0 0 0 .016.08c.008.015.023.016.045.003a.098.098 0 0 0 .045-.055.354.354 0 0 0 .015-.098 1.267 1.267 0 0 0 0-.151.246.246 0 0 0-.015-.081c-.009-.014-.023-.016-.045-.004a.099.099 0 0 0-.045.057.375.375 0 0 0-.016.097 1.925 1.925 0 0 0 0 .152Zm-2.608-2.06-.49-.755a9.851 9.851 0 0 0-1.157 3.118l.791-.061a7.254 7.254 0 0 1 .856-2.302Z"/>
  <path fill="#455A64" d="M131.09 119.838v-1.279c-.7.403-1.346 1.125-1.871 2.016l.489.755c.389-.659.865-1.194 1.382-1.492Zm-2.353 4.979c0-.391.042-.791.116-1.186l-.791.061a8.68 8.68 0 0 0-.156 1.604 6.1 6.1 0 0 0 .156 1.425l.791-.852a4.54 4.54 0 0 1-.116-1.052Z"/>
  <path fill="#E86B31" d="M134.118 120.197c-.21-.873-.62-1.491-1.157-1.782-.525-.285-1.172-.26-1.871.144v1.279c.517-.299.993-.314 1.381-.103.397.216.701.669.855 1.314.074.31.116.661.116 1.052s-.042.79-.116 1.186a7.253 7.253 0 0 1-.855 2.302c-.388.659-.864 1.194-1.381 1.492-.516.299-.993.314-1.382.103-.396-.216-.7-.669-.855-1.314l-.791.852c.21.874.62 1.491 1.157 1.783.526.285 1.172.26 1.871-.144.699-.403 1.345-1.125 1.871-2.017a9.828 9.828 0 0 0 1.157-3.117 8.69 8.69 0 0 0 .156-1.605c0-.529-.056-1.006-.156-1.425Z"/>
  <path fill="#455A64" d="m139.032 116.696 14.834-8.564c.4-.231.724-.067.724.366s-.324.97-.724 1.201l-14.835 8.564c-.399.231-.722.067-.722-.366s.324-.97.723-1.201Z"/>
  <path fill="#E0E0E0" d="m139.032 119.853 25.688-14.827c.399-.23.723-.066.723.366 0 .433-.324.971-.723 1.201l-25.689 14.827c-.399.231-.722.067-.722-.366s.324-.97.723-1.201Z"/>
  <path fill="#F0F0F0" d="m178.372 103.383 48.757-28.15c.4-.23.723-.791.723-1.252V61.55c0-.46-.324-.648-.723-.417l-48.757 28.145c-.4.23-.724.791-.724 1.252v12.435c0 .461.324.648.724.417Z"/>
  <path fill="#455A64" d="M182.863 93.47a1.07 1.07 0 0 1 .273-.687.733.733 0 0 1 .161-.132.384.384 0 0 1 .162-.054.215.215 0 0 1 .139.031c.04.026.073.066.098.124a.561.561 0 0 1 .036.217.872.872 0 0 1-.035.247 1.702 1.702 0 0 1-.074.222l-.281.763a.29.29 0 0 0-.016.038.068.068 0 0 1-.03.034l-.236.136c-.008.005-.015.004-.02-.003-.006-.006-.009-.016-.009-.03a.06.06 0 0 1 .003-.02.032.032 0 0 1 .005-.014l.19-.52a.315.315 0 0 1-.139.02.21.21 0 0 1-.117-.05.29.29 0 0 1-.08-.121.572.572 0 0 1-.03-.2Zm.595-.343a.185.185 0 0 0-.014-.075.085.085 0 0 0-.035-.044.09.09 0 0 0-.051-.011.136.136 0 0 0-.061.02.28.28 0 0 0-.06.049.37.37 0 0 0-.05.07.366.366 0 0 0-.05.176c0 .03.005.055.014.075.009.02.02.034.036.043.014.01.031.014.05.012a.132.132 0 0 0 .06-.02.282.282 0 0 0 .061-.049.428.428 0 0 0 .086-.155.314.314 0 0 0 .014-.09Zm.834-1.049a.358.358 0 0 1 .191-.06.188.188 0 0 1 .132.058.347.347 0 0 1 .079.152c.017.065.027.138.03.218a6.596 6.596 0 0 1 0 .406 1.587 1.587 0 0 1-.03.254 1.158 1.158 0 0 1-.079.243.957.957 0 0 1-.132.211.73.73 0 0 1-.191.16.364.364 0 0 1-.192.06.19.19 0 0 1-.132-.057.333.333 0 0 1-.079-.152 1.022 1.022 0 0 1-.03-.218 6 6 0 0 1 0-.407c.003-.084.013-.168.03-.254a1.11 1.11 0 0 1 .079-.242.947.947 0 0 1 .132-.212.73.73 0 0 1 .192-.16Zm.157.922a4.89 4.89 0 0 0 0-.383.684.684 0 0 0-.01-.099.183.183 0 0 0-.026-.069.065.065 0 0 0-.048-.028.127.127 0 0 0-.073.022.283.283 0 0 0-.122.147.667.667 0 0 0-.037.21 4.886 4.886 0 0 0 0 .383c.001.038.004.07.01.1a.154.154 0 0 0 .026.067.067.067 0 0 0 .049.029.143.143 0 0 0 .074-.023.248.248 0 0 0 .073-.063.335.335 0 0 0 .048-.084.45.45 0 0 0 .027-.098.787.787 0 0 0 .009-.111Zm.866-1.178c.003.06.003.117 0 .174a.617.617 0 0 1-.059.264.41.41 0 0 1-.173.194.212.212 0 0 1-.1.033.101.101 0 0 1-.072-.028.183.183 0 0 1-.043-.079.533.533 0 0 1-.018-.116l-.002-.084.002-.09a.885.885 0 0 1 .018-.136.612.612 0 0 1 .043-.127.442.442 0 0 1 .172-.194.205.205 0 0 1 .101-.033c.028 0 .052.01.07.029a.176.176 0 0 1 .043.077c.01.033.016.071.018.116Zm.37-.483a.225.225 0 0 1 .022-.044.089.089 0 0 1 .031-.03l.122-.07c.012-.006.02-.007.026-.003.007.005.01.014.01.028 0 .003 0 .007-.002.013 0 .005-.002.01-.004.016l-.732 1.906a.244.244 0 0 1-.022.044.088.088 0 0 1-.032.03l-.121.07c-.012.006-.02.007-.026.002-.007-.004-.01-.014-.01-.028l.002-.012c0-.005.002-.01.004-.016l.732-1.906Zm-.664.815a.207.207 0 0 0 .016.08c.008.015.023.016.044.004a.095.095 0 0 0 .045-.056.345.345 0 0 0 .016-.098 1.266 1.266 0 0 0 0-.15.207.207 0 0 0-.016-.08c-.008-.015-.023-.017-.045-.004a.098.098 0 0 0-.044.055.35.35 0 0 0-.016.099 1.256 1.256 0 0 0 0 .15Zm.982.07c.003.059.003.117 0 .174a.865.865 0 0 1-.017.136.576.576 0 0 1-.115.24.392.392 0 0 1-.1.082.203.203 0 0 1-.101.033.099.099 0 0 1-.072-.028.18.18 0 0 1-.042-.078.478.478 0 0 1-.018-.116 1.237 1.237 0 0 1 .018-.31.684.684 0 0 1 .042-.128.467.467 0 0 1 .072-.11.38.38 0 0 1 .101-.084.208.208 0 0 1 .1-.033c.029 0 .052.01.071.028.019.02.034.045.043.079.01.032.016.07.018.115Zm-.294.331a.206.206 0 0 0 .016.08c.008.016.023.017.045.004a.096.096 0 0 0 .045-.056.39.39 0 0 0 .015-.098 1.266 1.266 0 0 0 0-.15.237.237 0 0 0-.015-.08c-.009-.016-.023-.017-.045-.005a.1.1 0 0 0-.045.056.385.385 0 0 0-.016.098 1.918 1.918 0 0 0 0 .151Zm-1.272-3.525v-1.28c-.699.404-1.345 1.125-1.871 2.017l.49.755c.388-.66.864-1.194 1.381-1.492Z"/>
  <path fill="#E86B31" d="M187.466 89.39c-.21-.873-.62-1.49-1.157-1.781-.525-.286-1.172-.261-1.871.143v1.28c.517-.298.993-.314 1.381-.103.397.216.7.67.855 1.314.074.31.116.662.116 1.052 0 .391-.042.79-.116 1.186a7.27 7.27 0 0 1-.854 2.3c-.388.657-.866 1.196-1.382 1.494-.517.299-.994.314-1.382.103-.397-.216-.701-.67-.855-1.314a4.538 4.538 0 0 1-.115-1.052c0-.39.041-.79.115-1.186a7.256 7.256 0 0 1 .855-2.302l-.489-.755a9.791 9.791 0 0 0-1.157 3.118 8.686 8.686 0 0 0-.156 1.605c0 .528.055 1.005.156 1.424.209.874.619 1.49 1.157 1.782.525.285 1.171.26 1.871-.144.699-.404 1.345-1.124 1.871-2.016l-.001-.003.001.001a9.84 9.84 0 0 0 1.157-3.117 8.684 8.684 0 0 0 .155-1.605c0-.528-.055-1.005-.155-1.424Z"/>
  <path fill="#455A64" d="m192.364 85.888 14.834-8.565c.4-.23.723-.067.723.366s-.324.97-.723 1.201l-14.835 8.565c-.399.23-.722.067-.722-.366s.324-.97.723-1.201Z"/>
  <path fill="#E0E0E0" d="m192.364 89.045 25.688-14.827c.399-.23.723-.067.723.366s-.324.97-.723 1.2l-25.689 14.828c-.399.23-.722.067-.722-.366 0-.432.324-.97.723-1.201Z"/>
  <path fill="#455A64" d="m130.43 137.343 10.405-6.026c.4-.23.724-.066.724.366 0 .433-.324.971-.724 1.201l-10.405 6.026c-.4.23-.723.067-.723-.366s.324-.971.723-1.201Z"/>
  <path fill="#E0E0E0" d="m227.181 85.374.001 79.469c0 .222-.196.562-.389.674L125.407 224.05l-.001-79.47c0-.222.197-.562.39-.674l1.267-.731c.602-.348 1.057-1.135 1.057-1.831v-4.597c0-.222.197-.562.39-.674l14.556-8.401v4.272c0 .777.537 1.184 1.068 1.184.219 0 .441-.063.656-.188l82.391-47.566Zm.268-.84a.659.659 0 0 0-.323.098l-82.67 47.729a.66.66 0 0 1-.323.099c-.237 0-.4-.189-.4-.516v-4.597c0-.327-.163-.516-.4-.516a.654.654 0 0 0-.323.099l-14.834 8.564c-.4.231-.724.792-.724 1.253v4.596c0 .461-.324 1.022-.723 1.253l-1.267.731c-.4.231-.724.792-.724 1.253l.001 79.794c0 .327.163.516.4.516a.644.644 0 0 0 .323-.099l101.665-58.696c.399-.23.723-.791.723-1.252l-.001-79.794c0-.327-.163-.516-.4-.516Z"/>
  <path fill="#E0E0E0" d="M131.276 148.049a.698.698 0 0 1-.354-.092c-.241-.139-.379-.416-.379-.758v-3.03c0-.576.391-1.253.89-1.542l8.062-4.648c.298-.171.605-.189.846-.05.241.138.379.415.379.757v3.03c0 .577-.391 1.254-.891 1.542l-8.062 4.648a.991.991 0 0 1-.491.143Zm.491-4.843c-.296.171-.556.622-.556.963v3.03c0 .114.031.171.045.179.014.007.079.007.177-.051l8.062-4.649c.296-.171.556-.621.556-.963v-3.03c0-.114-.03-.17-.044-.179-.014-.008-.079-.006-.178.05l-8.062 4.65Z"/>
  <path fill="#E0E0E0" d="m132.247 144.455 5.255-3.049c.266-.154.481-.045.481.243 0 .289-.215.647-.481.801l-5.255 3.049c-.266.154-.481.045-.481-.244-.001-.288.215-.646.481-.8Z"/>
  <path fill="#455A64" d="m138.724 140.905.435.618c.017.024.05.005.066-.038l.436-1.121c.021-.054.001-.104-.033-.084l-.871.503c-.035.02-.055.092-.033.122Z"/>
  <path fill="#E86B31" d="M130.174 177.404c.385-.223.697-.042.697.403s-.312.985-.697 1.207c-.385.223-.697.042-.697-.402 0-.445.312-.986.697-1.208Zm5.426-6.266c.385-.222.697-.042.697.403s-.312.985-.697 1.208c-.386.222-.698.042-.698-.403 0-.444.312-.985.698-1.208Zm5.422-3.133c.385-.222.697-.042.697.403s-.312.986-.697 1.208c-.385.222-.698.042-.698-.403s.312-.985.698-1.208Zm5.429-1.757c.386-.223.698-.042.698.402 0 .445-.312.986-.698 1.208-.384.223-.697.042-.697-.403s.312-.985.697-1.207Zm5.434-5.643c.385-.222.697-.042.697.403s-.312.985-.697 1.208c-.385.222-.697.042-.697-.403s.312-.986.697-1.208Zm5.422-2c.385-.222.697-.042.697.403s-.312.985-.697 1.208c-.386.222-.698.042-.698-.403 0-.444.312-.986.698-1.208Zm5.426-6.266c.385-.222.697-.042.697.403s-.312.986-.697 1.208c-.386.222-.698.042-.698-.403s.312-.985.698-1.208Zm5.425-1.566c.386-.222.698-.042.698.403s-.312.985-.698 1.208c-.384.222-.697.042-.697-.403 0-.444.313-.986.697-1.208Zm5.426-17.232c.386-.223.697-.043.697.402s-.311.986-.697 1.208c-.385.223-.697.042-.697-.403s.312-.985.697-1.207Zm5.43 9.398c.385-.222.697-.042.697.403s-.312.985-.697 1.208c-.386.222-.698.042-.698-.403s.313-.986.698-1.208Zm5.426 0c.385-.222.697-.042.697.403s-.312.985-.697 1.208c-.386.222-.698.042-.698-.403.001-.445.313-.986.698-1.208Zm5.429 0c.386-.222.698-.042.698.403s-.312.985-.698 1.208c-.384.222-.697.042-.697-.403s.313-.986.697-1.208Zm5.426-9.398c.385-.223.697-.043.697.402s-.312.986-.697 1.208c-.385.223-.697.042-.697-.403s.312-.985.697-1.207Zm5.426-1.801c.385-.223.697-.042.697.403 0 .444-.312.985-.697 1.207-.385.223-.698.042-.698-.402 0-.445.313-.986.698-1.208Zm5.449-7.6c.385-.222.697-.042.697.403s-.312.985-.697 1.208c-.385.222-.697.042-.697-.403s.312-.986.697-1.208Zm5.406 0c.386-.222.698-.042.698.403s-.312.985-.698 1.208c-.385.222-.697.042-.697-.403s.312-.986.697-1.208Zm5.426 0c.386-.222.697-.042.697.403s-.311.985-.697 1.208c-.385.222-.697.042-.697-.403s.312-.986.697-1.208Zm5.43-3.133c.385-.222.697-.042.697.403s-.312.985-.697 1.208c-.386.222-.698.042-.698-.403 0-.444.312-.985.698-1.208Z"/>
  <path fill="#E86B31" d="M130.155 178.385a.167.167 0 0 1-.125-.277l5.479-6.297a.182.182 0 0 1 .042-.036l5.388-3.11 5.418-1.759 5.398-5.612a.168.168 0 0 1 .063-.041l5.386-1.985 5.4-6.235a.172.172 0 0 1 .08-.052l5.34-1.541 5.4-17.147a.168.168 0 0 1 .304-.032l5.378 9.315 5.344-.007 5.317.007 5.379-9.315a.166.166 0 0 1 .092-.075l5.376-1.784 5.395-7.554a.168.168 0 0 1 .136-.07h10.809l5.388-3.111a.169.169 0 0 1 .229.061.168.168 0 0 1-.062.228l-5.427 3.134a.172.172 0 0 1-.084.022h-10.767l-5.377 7.529a.171.171 0 0 1-.083.062l-5.367 1.781-5.395 9.344a.167.167 0 0 1-.145.084l-5.413-.008-5.441.008a.167.167 0 0 1-.145-.084l-5.236-9.071-5.313 16.871a.168.168 0 0 1-.113.11l-5.379 1.552-5.395 6.23a.173.173 0 0 1-.069.048l-5.391 1.986-5.4 5.615a.161.161 0 0 1-.069.043l-5.427 1.757-5.331 3.082-5.462 6.277a.165.165 0 0 1-.125.057Z"/>
  <path fill="#E0E0E0" d="M130.171 181.678a.334.334 0 0 1-.168-.623l92.257-53.264a.334.334 0 1 1 .334.578l-92.257 53.265a.333.333 0 0 1-.166.044Z"/>
  <path fill="#E86B31" d="M130.178 174.275c.385-.222.697-.042.697.403s-.312.985-.697 1.208c-.385.222-.698.042-.698-.403s.312-.986.698-1.208Zm5.426-9.4c.384-.223.697-.043.697.402s-.312.986-.697 1.208c-.385.223-.698.042-.698-.403.001-.445.313-.985.698-1.207Zm5.422-1.174c.385-.223.697-.042.697.403 0 .444-.312.985-.697 1.207-.385.223-.698.042-.698-.403 0-.444.312-.985.698-1.207Zm5.429-11.358c.386-.222.698-.042.698.403s-.312.985-.698 1.208c-.385.222-.697.042-.697-.403s.312-.985.697-1.208Zm5.434 3.133c.385-.222.697-.042.697.403s-.312.985-.697 1.208c-.385.222-.698.042-.698-.403s.313-.985.698-1.208Zm5.422-1.566c.385-.223.697-.042.697.403 0 .444-.312.985-.697 1.207-.385.223-.698.042-.698-.403 0-.444.313-.985.698-1.207Zm5.425-4.699c.386-.223.698-.043.698.402s-.312.986-.698 1.208c-.385.222-.697.042-.697-.403s.312-.985.697-1.207Zm5.426-6.268c.386-.223.698-.042.698.403s-.312.985-.698 1.207c-.385.223-.697.043-.697-.402s.312-.986.697-1.208Zm5.426-1.566c.385-.223.697-.043.697.402s-.312.986-.697 1.208c-.385.223-.697.042-.697-.403s.312-.985.697-1.207Zm5.43-4.702c.384-.222.697-.042.697.403s-.312.985-.697 1.208c-.386.222-.698.042-.698-.403 0-.444.312-.985.698-1.208Zm5.425 0c.386-.222.698-.042.698.403s-.312.985-.698 1.208c-.385.222-.697.042-.697-.403 0-.444.312-.985.697-1.208Zm5.43-12.531c.386-.222.698-.042.698.403s-.312.985-.698 1.208c-.385.222-.697.042-.697-.403s.312-.985.697-1.208Zm5.426 6.223c.385-.223.697-.042.697.403 0 .444-.312.985-.697 1.207-.385.223-.697.042-.697-.403 0-.444.312-.985.697-1.207Zm5.426-6.223c.385-.222.697-.042.697.403s-.312.985-.697 1.208c-.386.222-.698.042-.698-.403s.313-.985.698-1.208Zm5.426-3.133c.384-.222.697-.042.697.403s-.312.985-.697 1.208c-.386.222-.698.042-.698-.403 0-.444.313-.985.698-1.208Zm5.429 0c.385-.222.698-.042.698.403s-.312.985-.698 1.208c-.385.222-.697.042-.697-.403s.312-.985.697-1.208Zm5.426-3.133c.385-.222.697-.042.697.403s-.312.986-.697 1.208c-.385.222-.697.042-.697-.403s.312-.985.697-1.208Zm5.43 0c.385-.222.697-.042.697.403s-.312.986-.697 1.208c-.386.222-.698.042-.698-.403s.312-.985.698-1.208Z"/>
  <path fill="#E86B31" d="M130.175 175.246a.167.167 0 0 1-.145-.25l5.466-9.422a.162.162 0 0 1 .109-.08l5.308-1.133 5.39-11.286a.166.166 0 0 1 .234-.073l5.372 3.101 5.318-1.54 5.391-4.671 5.417-6.254a.169.169 0 0 1 .079-.052l5.392-1.556 5.399-4.675a.167.167 0 0 1 .11-.041h5.317l5.383-12.432a.167.167 0 0 1 .28-.044l5.3 6.121 5.301-6.121a.179.179 0 0 1 .043-.035l5.445-3.144a.166.166 0 0 1 .084-.023h5.382l5.369-3.1a.175.175 0 0 1 .084-.022h5.427a.167.167 0 1 1 0 .334h-5.383l-5.369 3.099a.163.163 0 0 1-.084.023h-5.382l-5.383 3.107-5.408 6.246a.175.175 0 0 1-.253 0l-5.253-6.066-5.321 12.289a.168.168 0 0 1-.153.101h-5.365l-5.379 4.659a.165.165 0 0 1-.064.034l-5.38 1.553-5.401 6.233-5.436 4.713a.165.165 0 0 1-.064.034l-5.421 1.57a.166.166 0 0 1-.129-.016l-5.277-3.046-5.348 11.197a.17.17 0 0 1-.117.091l-5.316 1.135-5.428 9.358a.158.158 0 0 1-.141.084Z"/>
  <g opacity=".3">
    <path fill="#000" d="M130.178 174.275c.385-.222.697-.042.697.403s-.312.985-.697 1.208c-.385.222-.698.042-.698-.403s.312-.986.698-1.208Zm5.426-9.4c.384-.223.697-.043.697.402s-.312.986-.697 1.208c-.385.223-.698.042-.698-.403.001-.445.313-.985.698-1.207Zm5.422-1.174c.385-.223.697-.042.697.403 0 .444-.312.985-.697 1.207-.385.223-.698.042-.698-.403 0-.444.312-.985.698-1.207Zm5.429-11.358c.386-.222.698-.042.698.403s-.312.985-.698 1.208c-.385.222-.697.042-.697-.403s.312-.985.697-1.208Zm5.434 3.133c.385-.222.697-.042.697.403s-.312.985-.697 1.208c-.385.222-.698.042-.698-.403s.313-.985.698-1.208Zm5.422-1.566c.385-.223.697-.042.697.403 0 .444-.312.985-.697 1.207-.385.223-.698.042-.698-.403 0-.444.313-.985.698-1.207Zm5.425-4.699c.386-.223.698-.043.698.402s-.312.986-.698 1.208c-.385.222-.697.042-.697-.403s.312-.985.697-1.207Zm5.426-6.268c.386-.223.698-.042.698.403s-.312.985-.698 1.207c-.385.223-.697.043-.697-.402s.312-.986.697-1.208Zm5.426-1.566c.385-.223.697-.043.697.402s-.312.986-.697 1.208c-.385.223-.697.042-.697-.403s.312-.985.697-1.207Zm5.43-4.702c.384-.222.697-.042.697.403s-.312.985-.697 1.208c-.386.222-.698.042-.698-.403 0-.444.312-.985.698-1.208Zm5.425 0c.386-.222.698-.042.698.403s-.312.985-.698 1.208c-.385.222-.697.042-.697-.403 0-.444.312-.985.697-1.208Zm5.43-12.531c.386-.222.698-.042.698.403s-.312.985-.698 1.208c-.385.222-.697.042-.697-.403s.312-.985.697-1.208Zm5.426 6.223c.385-.223.697-.042.697.403 0 .444-.312.985-.697 1.207-.385.223-.697.042-.697-.403 0-.444.312-.985.697-1.207Zm5.426-6.223c.385-.222.697-.042.697.403s-.312.985-.697 1.208c-.386.222-.698.042-.698-.403s.313-.985.698-1.208Zm5.426-3.133c.384-.222.697-.042.697.403s-.312.985-.697 1.208c-.386.222-.698.042-.698-.403 0-.444.313-.985.698-1.208Zm5.429 0c.385-.222.698-.042.698.403s-.312.985-.698 1.208c-.385.222-.697.042-.697-.403s.312-.985.697-1.208Zm5.426-3.133c.385-.222.697-.042.697.403s-.312.986-.697 1.208c-.385.222-.697.042-.697-.403s.312-.985.697-1.208Zm5.43 0c.385-.222.697-.042.697.403s-.312.986-.697 1.208c-.386.222-.698.042-.698-.403s.312-.985.698-1.208Z"/>
    <path fill="#000" d="M130.175 175.246a.167.167 0 0 1-.145-.25l5.466-9.422a.162.162 0 0 1 .109-.08l5.308-1.133 5.39-11.286a.166.166 0 0 1 .234-.073l5.372 3.101 5.318-1.54 5.391-4.671 5.417-6.254a.169.169 0 0 1 .079-.052l5.392-1.556 5.399-4.675a.167.167 0 0 1 .11-.041h5.317l5.383-12.432a.167.167 0 0 1 .28-.044l5.3 6.121 5.301-6.121a.179.179 0 0 1 .043-.035l5.445-3.144a.166.166 0 0 1 .084-.023h5.382l5.369-3.1a.175.175 0 0 1 .084-.022h5.427a.167.167 0 1 1 0 .334h-5.383l-5.369 3.099a.163.163 0 0 1-.084.023h-5.382l-5.383 3.107-5.408 6.246a.175.175 0 0 1-.253 0l-5.253-6.066-5.321 12.289a.168.168 0 0 1-.153.101h-5.365l-5.379 4.659a.165.165 0 0 1-.064.034l-5.38 1.553-5.401 6.233-5.436 4.713a.165.165 0 0 1-.064.034l-5.421 1.57a.166.166 0 0 1-.129-.016l-5.277-3.046-5.348 11.197a.17.17 0 0 1-.117.091l-5.316 1.135-5.428 9.358a.158.158 0 0 1-.141.084Z"/>
  </g>
  <path fill="#E0E0E0" d="m133.013 151.023 5.254-3.049c.266-.154.482-.045.482.244 0 .288-.216.646-.482.8l-5.254 3.049c-.266.154-.482.045-.482-.243s.216-.647.482-.801Z"/>
  <path fill="#E86B31" d="M130.174 152.341c.385-.222.697-.042.697.403s-.312.985-.697 1.208c-.385.222-.697.042-.697-.403s.312-.985.697-1.208Z"/>
  <path fill="#000" d="M130.174 152.341c.385-.222.697-.042.697.403s-.312.985-.697 1.208c-.385.222-.697.042-.697-.403s.312-.985.697-1.208Z" opacity=".3"/>
  <path fill="#E0E0E0" d="m133.013 154.148 5.254-3.049c.266-.154.482-.045.482.244 0 .288-.216.646-.482.8l-5.254 3.049c-.266.154-.482.045-.482-.243 0-.289.216-.647.482-.801Z"/>
  <path fill="#E86B31" d="M130.174 155.474c.385-.222.697-.042.697.403s-.312.985-.697 1.208c-.385.222-.697.042-.697-.403s.312-.985.697-1.208Zm-.007 41.748a.166.166 0 0 1-.12-.283l2.754-2.831 2.704-.343 2.729-3.527 2.733.375 2.655-2.397 2.711-1.625 2.763-3.83 2.745.86 2.636-2.356a.168.168 0 0 1 .223.25l-2.779 2.483-2.694-.845-2.693 3.708-2.714 1.623-2.744 2.483-2.695-.37-2.697 3.484-2.724.345-2.672 2.747a.176.176 0 0 1-.121.049Z"/>
  <path fill="#455A64" d="M131.241 188.059a.66.66 0 0 1 .069-.06.798.798 0 0 1 .484-.176.493.493 0 0 1 .326.124.78.78 0 0 1 .213.344c.052.15.078.328.078.536 0 .208-.026.417-.078.625a2.943 2.943 0 0 1-.213.591 2.526 2.526 0 0 1-.326.501 1.623 1.623 0 0 1-.41.35.804.804 0 0 1-.412.124.494.494 0 0 1-.325-.124.788.788 0 0 1-.215-.344 1.665 1.665 0 0 1-.077-.537c0-.117.009-.233.026-.344.017-.113.039-.221.068-.326.028-.107.059-.211.094-.312.034-.101.068-.199.102-.291l.723-2.056c.013-.027.028-.061.044-.102a.182.182 0 0 1 .078-.091l.228-.13c.023-.014.042-.012.057.006.015.018.022.046.022.083a.198.198 0 0 1-.021.09l-.535 1.519Zm-.509 1.737c0 .123.016.231.046.322a.51.51 0 0 0 .129.219.309.309 0 0 0 .204.087.5.5 0 0 0 .273-.081c.1-.058.19-.135.271-.233.081-.097.149-.206.205-.323a1.89 1.89 0 0 0 .129-.368 1.62 1.62 0 0 0 .044-.375c0-.122-.014-.23-.044-.322a.53.53 0 0 0-.129-.219.31.31 0 0 0-.205-.086.49.49 0 0 0-.271.08 1 1 0 0 0-.273.234 1.554 1.554 0 0 0-.204.322 1.826 1.826 0 0 0-.175.743Zm2.356-.98a.762.762 0 0 0 .055.163.223.223 0 0 0 .107.113.32.32 0 0 0 .188.016.989.989 0 0 0 .304-.126 1.183 1.183 0 0 0 .43-.437c.055-.097.099-.204.132-.319.033-.114.049-.239.049-.374a.807.807 0 0 0-.046-.306c-.033-.072-.076-.122-.13-.145a.3.3 0 0 0-.192-.009 1.024 1.024 0 0 0-.242.103l-.329.19c-.03.017-.055.016-.076-.005-.021-.02-.032-.052-.032-.097v-.22c0-.038.007-.074.022-.114.014-.039.028-.074.042-.107l.714-1.599-1.143.66c-.029.017-.054.015-.075-.005-.021-.02-.032-.052-.032-.098v-.22a.31.31 0 0 1 .032-.134.208.208 0 0 1 .075-.093l1.565-.903c.029-.017.054-.015.075.005.021.02.032.053.032.098v.22a.412.412 0 0 1-.02.119.86.86 0 0 1-.052.13l-.703 1.573a.858.858 0 0 1 .364-.115.41.41 0 0 1 .282.088.608.608 0 0 1 .182.286c.044.127.066.287.066.479 0 .209-.027.41-.079.605a2.566 2.566 0 0 1-.213.539c-.089.163-.193.31-.313.441-.121.13-.249.235-.383.313-.178.102-.33.158-.459.17a.478.478 0 0 1-.318-.068.498.498 0 0 1-.186-.24 1.03 1.03 0 0 1-.066-.356c0-.038.009-.073.026-.11.017-.037.038-.063.062-.075l.182-.106c.029-.017.052-.017.069 0 .018.018.028.04.034.07Zm2.359-1.365a.878.878 0 0 0 .055.164.237.237 0 0 0 .108.113.314.314 0 0 0 .188.015.925.925 0 0 0 .304-.127 1.177 1.177 0 0 0 .429-.437 1.353 1.353 0 0 0 .182-.692.792.792 0 0 0-.047-.306c-.032-.073-.075-.122-.129-.145a.295.295 0 0 0-.192-.008.94.94 0 0 0-.242.102l-.33.191c-.029.016-.054.015-.075-.006-.021-.02-.032-.053-.032-.098v-.22a.32.32 0 0 1 .022-.114c.014-.039.028-.074.042-.107l.714-1.598-1.143.66c-.03.017-.054.014-.076-.005-.021-.021-.031-.054-.031-.098v-.22c0-.045.01-.09.031-.135a.215.215 0 0 1 .076-.093l1.564-.903c.03-.016.054-.014.076.006.02.02.032.052.032.097v.22a.435.435 0 0 1-.02.118 1 1 0 0 1-.052.132l-.703 1.573a.847.847 0 0 1 .363-.116.413.413 0 0 1 .283.089.595.595 0 0 1 .182.285c.044.127.066.288.066.479 0 .208-.026.41-.079.606a2.546 2.546 0 0 1-.213.538c-.089.164-.193.31-.314.44-.12.131-.247.236-.382.313a1.155 1.155 0 0 1-.459.17.48.48 0 0 1-.319-.067.498.498 0 0 1-.186-.24 1.016 1.016 0 0 1-.066-.356c0-.038.009-.074.026-.11a.168.168 0 0 1 .062-.076l.182-.105c.029-.016.053-.016.07 0a.138.138 0 0 1 .033.071Z"/>
  <path fill="#E0E0E0" d="m130.657 199.379 23.449-13.589c.265-.153.481-.044.481.244 0 .289-.216.647-.481.8l-23.449 13.589c-.265.154-.481.045-.481-.244-.001-.288.215-.647.481-.8Zm0-15.674 5.255-3.049c.266-.154.482-.045.482.243 0 .289-.216.647-.482.801l-5.255 3.049c-.265.154-.481.045-.481-.244-.001-.288.215-.646.481-.8Z"/>
  <path fill="#E86B31" d="M130.167 216.002a.163.163 0 0 1-.116-.047.165.165 0 0 1-.004-.235l2.754-2.832 2.721-.345 2.742-2.395 2.641-.72 2.754-5.483 2.762 1.352 2.663-2.347.045-.01 2.645-.501 2.669-4.617a.168.168 0 0 1 .229-.062c.08.047.106.149.061.229l-2.746 4.749-2.75.521-2.762 2.435-2.666-1.305-2.672 5.321-2.748.749-2.723 2.402-2.706.344-2.672 2.746a.166.166 0 0 1-.121.051Z"/>
  <path fill="#000" d="M130.167 216.002a.163.163 0 0 1-.116-.047.165.165 0 0 1-.004-.235l2.754-2.832 2.721-.345 2.742-2.395 2.641-.72 2.754-5.483 2.762 1.352 2.663-2.347.045-.01 2.645-.501 2.669-4.617a.168.168 0 0 1 .229-.062c.08.047.106.149.061.229l-2.746 4.749-2.75.521-2.762 2.435-2.666-1.305-2.672 5.321-2.748.749-2.723 2.402-2.706.344-2.672 2.746a.166.166 0 0 1-.121.051Z" opacity=".3"/>
  <path fill="#455A64" d="M131.551 209.35a.313.313 0 0 1-.032.134.202.202 0 0 1-.075.093l-.163.094c-.03.017-.054.015-.076-.005-.02-.02-.031-.053-.031-.098v-3.369l-.643 1.124c-.024.046-.05.074-.08.083-.029.009-.053.003-.071-.02l-.095-.134c-.019-.026-.026-.063-.022-.111a.324.324 0 0 1 .042-.133l.849-1.493a.263.263 0 0 1 .064-.08.766.766 0 0 1 .063-.042l.163-.095c.03-.016.055-.014.076.006.021.02.031.052.031.097v3.949Zm1.737-3.087c.08-.156.139-.303.179-.44.04-.137.059-.297.059-.48 0-.217-.041-.374-.123-.471-.082-.097-.212-.094-.389.009a.86.86 0 0 0-.237.197 1.189 1.189 0 0 0-.163.262 1.853 1.853 0 0 0-.103.305 4.855 4.855 0 0 0-.062.319.364.364 0 0 1-.041.128.182.182 0 0 1-.062.072l-.183.105c-.023.014-.043.012-.061-.004-.017-.016-.025-.043-.025-.08.002-.152.024-.318.066-.497.043-.179.103-.355.183-.527a2.45 2.45 0 0 1 .292-.481c.115-.147.247-.265.395-.35a.74.74 0 0 1 .385-.119.4.4 0 0 1 .278.122.719.719 0 0 1 .169.317c.039.137.058.295.058.475 0 .13-.007.252-.02.366a2.372 2.372 0 0 1-.066.34c-.03.114-.07.229-.117.347a4.649 4.649 0 0 1-.175.375l-.885 1.784 1.214-.702c.03-.016.054-.014.076.006.02.02.032.053.032.097v.22c0 .045-.012.09-.032.134a.203.203 0 0 1-.076.093l-1.711.988c-.029.016-.054.015-.075-.006-.021-.02-.033-.052-.033-.098v-.219c0-.046.007-.088.021-.128.013-.04.035-.093.067-.155l1.165-2.304Zm3.14-2.217c.002.182.004.353.004.515 0 .161-.002.333-.004.519a4.17 4.17 0 0 1-.066.7 3.08 3.08 0 0 1-.184.641c-.082.2-.186.377-.312.535a1.572 1.572 0 0 1-.451.389c-.175.101-.325.145-.451.131a.436.436 0 0 1-.311-.175 1.017 1.017 0 0 1-.184-.428 2.899 2.899 0 0 1-.067-.625c-.002-.182-.004-.353-.004-.515 0-.161.002-.334.004-.518.003-.239.024-.473.067-.702.04-.23.101-.443.184-.642.081-.197.186-.377.311-.537a1.57 1.57 0 0 1 .451-.393c.175-.1.325-.143.451-.127.126.014.23.074.312.177.082.103.144.246.184.429.042.182.063.39.066.626Zm-1.652 1.988c.005.383.061.635.169.758.107.121.264.122.47.002.207-.119.364-.3.47-.545.108-.246.164-.563.169-.954a31.86 31.86 0 0 0 0-1.033c-.005-.385-.061-.639-.169-.762-.106-.124-.263-.126-.47-.007-.206.12-.363.303-.47.55-.108.247-.164.566-.169.957a31.777 31.777 0 0 0 0 1.034Z"/>
  <path fill="#E0E0E0" d="m130.657 218.158 23.449-13.588c.265-.154.481-.045.481.244 0 .288-.216.646-.481.8l-23.449 13.588c-.265.154-.481.045-.481-.244-.001-.288.215-.646.481-.8Zm0-15.674 5.255-3.049c.266-.154.482-.045.482.244 0 .288-.216.646-.482.8l-5.255 3.049c-.265.154-.481.045-.481-.243-.001-.289.215-.647.481-.801Z"/>
  <path fill="#E86B31" d="M162.729 178.384a.167.167 0 0 1-.104-.298l2.714-2.165 2.733-3.122 2.773-.402 2.647-.598 2.74-3.236 2.697.477 2.704-4.282 2.748.043 2.658-2.376a.168.168 0 0 1 .236.013.166.166 0 0 1-.013.236l-2.756 2.464-2.691-.044-2.723 4.314-2.73-.483-2.687 3.175-2.769.624-2.665.387-2.672 3.049-2.735 2.185a.158.158 0 0 1-.105.039Z"/>
  <path fill="#455A64" d="M163.803 169.221a.586.586 0 0 1 .07-.061.798.798 0 0 1 .483-.176.496.496 0 0 1 .326.124.79.79 0 0 1 .214.344c.051.15.077.328.077.536 0 .208-.026.417-.077.625a3.017 3.017 0 0 1-.214.592 2.44 2.44 0 0 1-.326.501 1.57 1.57 0 0 1-.41.35.792.792 0 0 1-.411.123.497.497 0 0 1-.326-.123.796.796 0 0 1-.214-.344 1.638 1.638 0 0 1-.077-.537 2.447 2.447 0 0 1 .093-.67c.029-.107.059-.21.094-.312.034-.101.068-.199.103-.291l.723-2.056a1.44 1.44 0 0 0 .043-.102.176.176 0 0 1 .079-.091l.227-.13c.023-.014.042-.012.057.006.015.018.023.046.023.082a.25.25 0 0 1-.021.091l-.536 1.519Zm-.509 1.736c0 .123.015.23.045.322a.538.538 0 0 0 .129.219.319.319 0 0 0 .205.087.503.503 0 0 0 .272-.081 1.01 1.01 0 0 0 .272-.233c.08-.098.149-.207.205-.324a1.91 1.91 0 0 0 .129-.368c.03-.126.044-.252.044-.374 0-.123-.014-.23-.044-.322a.542.542 0 0 0-.129-.22.313.313 0 0 0-.205-.086.503.503 0 0 0-.272.08c-.1.059-.191.137-.272.234a1.58 1.58 0 0 0-.205.323c-.055.117-.098.24-.129.368-.03.128-.045.254-.045.375Zm3.262-2.718c.079-.155.139-.302.18-.439.039-.137.059-.298.059-.481 0-.216-.042-.373-.124-.47-.082-.097-.211-.095-.389.008a.912.912 0 0 0-.237.197 1.192 1.192 0 0 0-.162.263 1.673 1.673 0 0 0-.103.304 3.925 3.925 0 0 0-.062.32.378.378 0 0 1-.041.128.187.187 0 0 1-.062.071l-.183.106c-.024.013-.044.012-.062-.004-.017-.017-.025-.043-.025-.08.002-.152.024-.318.067-.498a2.83 2.83 0 0 1 .183-.526 2.45 2.45 0 0 1 .292-.481c.115-.148.247-.265.395-.35.146-.084.274-.124.385-.119a.403.403 0 0 1 .278.121.717.717 0 0 1 .169.318c.039.137.058.295.058.475 0 .131-.007.252-.02.366a2.372 2.372 0 0 1-.066.34c-.03.114-.069.229-.117.347a4.649 4.649 0 0 1-.175.375l-.885 1.783 1.214-.701c.03-.017.055-.015.076.005.021.02.032.053.032.098v.22c0 .044-.011.09-.032.134a.203.203 0 0 1-.076.093l-1.711.988c-.029.016-.055.015-.075-.006-.022-.02-.032-.052-.032-.097v-.219c0-.046.006-.088.02-.128a1.03 1.03 0 0 1 .067-.155l1.164-2.306Zm2.699-3.589c.029-.017.054-.014.075.005.021.021.032.053.032.098v.22a.717.717 0 0 1-.012.123 1.81 1.81 0 0 1-.032.147l-.882 4.013a.783.783 0 0 1-.041.124.172.172 0 0 1-.074.088l-.183.106c-.026.015-.048.014-.067-.004-.018-.018-.028-.047-.028-.088l.002-.029c.001-.012.005-.028.011-.052l.885-4.021-1.302.753c-.03.016-.055.014-.076-.006-.021-.02-.032-.053-.032-.097v-.221c0-.044.011-.089.032-.134a.208.208 0 0 1 .076-.093l1.616-.932Z"/>
  <path fill="#E0E0E0" d="m163.22 180.539 23.448-13.588c.266-.154.482-.045.482.243 0 .289-.216.647-.482.801l-23.448 13.588c-.266.154-.482.044-.482-.244s.216-.646.482-.8Zm0-15.674 5.254-3.049c.266-.154.482-.045.482.244 0 .288-.216.646-.482.8l-5.254 3.049c-.266.154-.482.045-.482-.244 0-.287.216-.646.482-.8Z"/>
  <path fill="#E86B31" d="M162.73 197.168a.168.168 0 0 1-.143-.254l2.773-4.549 2.789.516 2.625-.717 2.715-3.312 2.697-.68 2.743-4.887 2.802.815 2.635-.5 2.673-2.379a.163.163 0 0 1 .235.014.165.165 0 0 1-.014.235l-2.741 2.441-.045.009-2.759.523-2.625-.762-2.684 4.779-2.73.69-2.712 3.308-.051.014-2.75.752-.038-.007-2.6-.481-2.654 4.352a.165.165 0 0 1-.141.08Z"/>
  <path fill="#000" d="M162.73 197.168a.168.168 0 0 1-.143-.254l2.773-4.549 2.789.516 2.625-.717 2.715-3.312 2.697-.68 2.743-4.887 2.802.815 2.635-.5 2.673-2.379a.163.163 0 0 1 .235.014.165.165 0 0 1-.014.235l-2.741 2.441-.045.009-2.759.523-2.625-.762-2.684 4.779-2.73.69-2.712 3.308-.051.014-2.75.752-.038-.007-2.6-.481-2.654 4.352a.165.165 0 0 1-.141.08Z" opacity=".3"/>
  <path fill="#455A64" d="M163.983 189.287a.46.46 0 0 1-.055.041l-.052.033a.8.8 0 0 1-.369.118.483.483 0 0 1-.318-.094.712.712 0 0 1-.225-.323 1.59 1.59 0 0 1-.085-.569c0-.207.027-.414.079-.62.053-.207.126-.4.217-.581a2.46 2.46 0 0 1 .317-.485 1.46 1.46 0 0 1 .383-.332.817.817 0 0 1 .415-.129.46.46 0 0 1 .314.122.761.761 0 0 1 .198.341c.046.149.07.326.07.535 0 .101-.01.21-.032.326a3.802 3.802 0 0 1-.079.348 6.211 6.211 0 0 1-.103.341l-.103.305-.723 2.055c-.014.029-.027.062-.044.102a.173.173 0 0 1-.079.091l-.227.131c-.023.014-.043.012-.057-.006a.135.135 0 0 1-.022-.083.2.2 0 0 1 .02-.09l.56-1.577Zm.513-1.727c0-.126-.015-.236-.045-.328a.47.47 0 0 0-.128-.21.292.292 0 0 0-.197-.073.516.516 0 0 0-.25.077.972.972 0 0 0-.252.213 1.4 1.4 0 0 0-.195.299 1.705 1.705 0 0 0-.171.738c0 .13.015.24.045.33.03.092.072.161.126.209a.285.285 0 0 0 .195.074.496.496 0 0 0 .252-.078.967.967 0 0 0 .25-.212c.077-.089.143-.189.197-.3.054-.111.097-.228.128-.354.029-.126.045-.255.045-.385Zm1.029 1.27a.783.783 0 0 0 .056.163.23.23 0 0 0 .106.113.324.324 0 0 0 .189.016.933.933 0 0 0 .304-.127 1.17 1.17 0 0 0 .429-.436c.056-.099.1-.205.133-.319.034-.115.05-.24.05-.374a.786.786 0 0 0-.048-.306.27.27 0 0 0-.129-.146.304.304 0 0 0-.193-.008.957.957 0 0 0-.241.103l-.33.191c-.029.016-.054.014-.075-.006-.021-.021-.032-.053-.032-.098v-.22c0-.037.008-.075.022-.114l.042-.107.714-1.598-1.143.66c-.03.016-.054.014-.076-.006-.02-.021-.032-.053-.032-.097v-.22c0-.045.012-.09.032-.134a.203.203 0 0 1 .076-.093l1.564-.904c.03-.017.054-.014.076.005.02.021.031.054.031.098v.22a.445.445 0 0 1-.019.119 1.136 1.136 0 0 1-.052.13l-.703 1.574a.83.83 0 0 1 .363-.115.4.4 0 0 1 .282.087.617.617 0 0 1 .183.286c.043.128.066.287.066.479 0 .208-.027.41-.08.605a2.511 2.511 0 0 1-.212.539c-.089.163-.193.31-.313.441-.121.13-.248.235-.383.313a1.185 1.185 0 0 1-.46.17.478.478 0 0 1-.318-.068.498.498 0 0 1-.186-.24 1.016 1.016 0 0 1-.066-.356c0-.038.009-.073.026-.111a.164.164 0 0 1 .062-.075l.182-.104c.03-.017.052-.017.07-.001a.13.13 0 0 1 .033.071Z"/>
  <path fill="#E0E0E0" d="m163.224 199.322 23.448-13.588c.266-.154.482-.045.482.244 0 .288-.216.646-.482.8l-23.448 13.588c-.266.154-.482.045-.482-.244 0-.288.216-.646.482-.8Zm0-15.672 5.254-3.049c.266-.154.482-.045.482.244 0 .288-.216.646-.482.8l-5.254 3.049c-.266.154-.482.045-.482-.243s.216-.647.482-.801Z"/>
  <path fill="#E86B31" d="M198.004 147.892c1.157-.668 2.224-.702 3.093-.23l-3.093 8.34v-8.11Zm-3.098 3.341c.869-1.475 1.936-2.672 3.093-3.34v8.109l-3.093-4.769Z"/>
  <path fill="#E86B31" d="M192.992 156.389a16.24 16.24 0 0 1 1.915-5.155l3.093 4.769-5.008.386Z"/>
  <path fill="#000" d="M194.907 151.234a16.242 16.242 0 0 0-1.915 5.154l5.008-.386v-8.109c-1.157.668-2.224 1.865-3.093 3.341Z" opacity=".3"/>
  <path fill="#E86B31" d="M201.097 147.662c.889.483 1.568 1.499 1.915 2.943l-5.008 5.397 3.093-8.34Zm-8.103 13.737a10.086 10.086 0 0 1-.26-2.356c0-.875.093-1.769.26-2.655l5.008-.386-5.008 5.397Z"/>
  <path fill="#E86B31" d="M203.012 155.615a16.24 16.24 0 0 1-1.915 5.155l-3.093-4.769 5.008-.386Zm-5.013 8.496c-1.157.668-2.224.703-3.093.231l3.093-8.34v8.109Z"/>
  <path fill="#E86B31" d="m192.992 161.399 5.008-5.397-3.093 8.34c-.889-.483-1.568-1.5-1.915-2.943Zm10.02-10.794c.166.694.259 1.481.259 2.357 0 .875-.093 1.768-.259 2.654l-5.008.386 5.008-5.397Zm-1.915 10.166c-.869 1.475-1.936 2.672-3.093 3.34v-8.109l3.093 4.769Z"/>
  <path fill="#455A64" d="m195.372 168.246 5.255-3.049c.266-.154.481-.045.481.243 0 .289-.215.647-.481.801l-5.255 3.049c-.266.154-.481.045-.481-.244 0-.288.215-.646.481-.8Z"/>
  <path fill="#E0E0E0" d="m194.213 172.057 7.572-4.394c.265-.153.481-.044.481.244 0 .289-.216.647-.481.801l-7.573 4.393c-.266.154-.482.045-.482-.244.001-.288.217-.646.483-.8Zm0 3.142 7.572-4.393c.265-.154.481-.045.481.244 0 .288-.216.646-.481.8l-7.573 4.394c-.266.153-.482.044-.482-.244.001-.289.217-.647.483-.801Zm0 3.141 7.572-4.393c.265-.154.481-.045.481.243 0 .289-.216.647-.481.801l-7.573 4.393c-.266.154-.482.045-.482-.244.001-.288.217-.646.483-.8Z"/>
  <path fill="#E86B31" d="M216.988 136.885c1.157-.668 2.224-.703 3.093-.231l-3.093 8.34v-8.109Zm-3.097 3.34c.869-1.475 1.935-2.672 3.092-3.34v8.109l-3.092-4.769Z"/>
  <path fill="#E86B31" d="M211.977 145.379a16.218 16.218 0 0 1 1.915-5.154l3.093 4.768-5.008.386Zm8.104-8.725c.889.483 1.569 1.499 1.915 2.944l-5.008 5.396 3.093-8.34Zm-8.103 13.736a10.127 10.127 0 0 1-.259-2.355c0-.875.092-1.769.259-2.655l5.008-.386-5.008 5.396Zm10.018-5.783a16.215 16.215 0 0 1-1.915 5.155l-3.093-4.768 5.008-.387Z"/>
  <path fill="#E86B31" d="M216.983 153.103c-1.157.668-2.223.703-3.092.23l3.092-8.339v8.109Z"/>
  <path fill="#E86B31" d="m211.977 150.391 5.008-5.397-3.093 8.339c-.889-.482-1.569-1.498-1.915-2.942Z"/>
  <path fill="#000" d="M213.893 140.225a16.242 16.242 0 0 0-1.915 5.154 14.48 14.48 0 0 0-.259 2.655c0 .875.092 1.662.259 2.355.347 1.444 1.026 2.46 1.915 2.943l3.093-8.34v-8.109c-1.157.669-2.224 1.866-3.093 3.342Z" opacity=".3"/>
  <path fill="#E86B31" d="M221.996 139.598c.167.693.259 1.481.259 2.356 0 .875-.092 1.769-.259 2.654l-5.008.386 5.008-5.396Zm-1.915 10.165c-.869 1.476-1.936 2.673-3.093 3.341v-8.11l3.093 4.769Z"/>
  <path fill="#455A64" d="m214.368 157.279 5.255-3.049c.266-.154.481-.045.481.244 0 .288-.215.646-.481.8l-5.255 3.049c-.266.154-.481.045-.481-.243s.215-.647.481-.801Z"/>
  <path fill="#E0E0E0" d="m213.209 161.092 7.572-4.393c.265-.154.481-.045.481.243 0 .289-.216.647-.481.801l-7.573 4.393c-.266.154-.481.045-.481-.244 0-.288.216-.646.482-.8Zm0 3.141 7.572-4.394c.265-.153.481-.045.481.244s-.216.647-.481.8l-7.573 4.394c-.266.153-.481.044-.481-.244 0-.289.216-.647.482-.8Zm0 3.14 7.572-4.393c.265-.154.481-.045.481.244 0 .288-.216.646-.481.8l-7.573 4.393c-.266.154-.481.045-.481-.243s.216-.647.482-.801Z"/>
  <path fill="url(#f)" d="M216.888 245.613c.086-2.571-1.615-5.759-3.799-7.119-1.078-.672-2.072-.771-2.813-.39l-.002-.002c-4.469 2.243-35.875 22.382-37.884 23.374l-.025.013c-.374.201-.615.648-.637 1.294-.043 1.297.814 2.904 1.914 3.588.551.344 1.059.39 1.434.188l.029-.015c3.18-1.752 34.176-14.961 40.513-18.359l.002-.001.004-.002c.741-.398 1.221-1.286 1.264-2.569Z"/>
  <path fill="#000" d="M215.652 241.27c-.671-1.151-1.566-2.155-2.563-2.777-1.075-.67-2.066-.769-2.806-.392-.149.082-.195.108-.091.049-4.08 2.087-27.454 16.998-35.319 21.845l-.052.032-.318.195-.097.059a9.75 9.75 0 0 1-.179.11l-.211.129c-.005.003-.01.007-.016.009-.832.508-1.393.839-1.61.946l-.026.014c-.068.036-.126.09-.184.142-.263.237-.434.622-.452 1.152-.005.146.005.297.022.45.006.058.017.116.027.174a3.847 3.847 0 0 0 .199.753c.022.064.044.128.069.192l.014.031 43.593-23.113Z" opacity=".1"/>
  <path fill="#E86B31" d="M173.635 266.371c-1.097-.682-1.95-2.282-1.907-3.574.044-1.291.967-1.784 2.063-1.101s1.949 2.283 1.906 3.573c-.043 1.29-.967 1.784-2.062 1.102Z"/>
  <path fill="#37474F" d="M164.251 267.236c-.033.991.623 2.22 1.465 2.745.419.262.804.298 1.091.148l.004-.001.001-.001 7.596-4.044.006-.003h.001c.284-.155.469-.495.485-.989.034-.991-.622-2.22-1.464-2.745-.421-.263-.809-.299-1.097-.146l-7.595 4.043v.001c-.288.151-.476.494-.493.992Z"/>
  <path fill="#263238" d="M164.745 266.244c-.289.152-.477.495-.494.993-.012.373.073.78.229 1.171l9.797-5.226a2.936 2.936 0 0 0-.841-.837c-.421-.262-.809-.298-1.096-.145l-7.596 4.043.001.001Z"/>
  <path fill="url(#g)" d="M173.996 273.981c0-4.868-3.217-9.736-9.649-13.45-12.868-7.429-33.728-7.429-46.596 0-6.433 3.714-9.649 8.582-9.649 13.45v8.967c0 4.868 3.217 9.736 9.65 13.45 12.867 7.429 33.728 7.429 46.595 0 6.434-3.714 9.65-8.582 9.65-13.45v-8.967h-.001Zm-54.651-10.691c5.746-3.317 13.454-5.145 21.704-5.145 8.249 0 15.958 1.827 21.704 5.145 5.195 2.999 8.056 6.797 8.056 10.691 0 3.895-2.861 7.692-8.056 10.691-5.746 3.318-13.455 5.145-21.704 5.145-8.25 0-15.958-1.827-21.704-5.145-5.195-2.999-8.057-6.796-8.057-10.691.001-3.895 2.861-7.692 8.057-10.691Z"/>
  <path fill="url(#h)" d="M117.747 287.43c12.867 7.429 33.728 7.429 46.595 0 12.867-7.428 12.867-19.473 0-26.901-12.867-7.429-33.728-7.429-46.595 0-12.866 7.429-12.866 19.473 0 26.901Zm-6.462-13.45c0-3.895 2.861-7.692 8.056-10.691 5.746-3.317 13.454-5.145 21.704-5.145 8.251 0 15.959 1.827 21.704 5.145 5.196 2.999 8.057 6.797 8.057 10.691 0 3.895-2.862 7.692-8.057 10.691-5.747 3.318-13.455 5.145-21.704 5.145-8.25 0-15.958-1.827-21.704-5.145-5.195-2.999-8.056-6.796-8.056-10.691Z"/>
  <path fill="url(#i)" d="M111.277 273.979c0 1.53.44 3.033 1.288 4.486 1.306-2.262 3.606-4.384 6.774-6.207 5.741-3.32 13.453-5.149 21.705-5.149 8.247 0 15.957 1.829 21.699 5.149 3.167 1.822 5.467 3.945 6.78 6.207.841-1.453 1.28-2.956 1.28-4.486 0-3.894-2.861-7.692-8.061-10.693-5.741-3.314-13.453-5.143-21.699-5.143-8.252 0-15.963 1.829-21.705 5.143-5.2 3.001-8.061 6.799-8.061 10.693Z"/>
  <path fill="url(#j)" d="M111.277 273.979c0 1.53.44 3.033 1.288 4.486 1.306-2.262 3.606-4.384 6.774-6.207 5.741-3.32 13.453-5.149 21.705-5.149 8.247 0 15.957 1.829 21.699 5.149 3.167 1.822 5.467 3.945 6.78 6.207.841-1.453 1.28-2.956 1.28-4.486 0-3.894-2.861-7.692-8.061-10.693-5.741-3.314-13.453-5.143-21.699-5.143-8.252 0-15.963 1.829-21.705 5.143-5.2 3.001-8.061 6.799-8.061 10.693Z" opacity=".1"/>
  <path fill="#fff" d="M119.339 267.35c5.746-3.318 13.454-5.145 21.704-5.145 8.251 0 15.959 1.827 21.704 5.145 4.287 2.475 6.979 5.494 7.792 8.661-.813 3.168-3.505 6.186-7.792 8.662-5.747 3.318-13.455 5.145-21.704 5.145-8.25 0-15.958-1.827-21.704-5.145-4.287-2.475-6.979-5.493-7.792-8.662.813-3.168 3.505-6.186 7.792-8.661Z" opacity=".4"/>
  <path fill="#000" d="M133.283 292.472v8.96c-5.691-.79-11.089-2.466-15.531-5.034-6.436-3.715-9.654-8.584-9.654-13.453v-8.966c0-.981.133-1.963.394-2.938h.007c-1.561 5.793 1.523 11.923 9.253 16.39 4.442 2.569 9.84 4.245 15.531 5.041Z" opacity=".1"/>
  <path fill="#263238" d="M290.32 237.719c.39.158.472.91.498 2.401.02 1.128.216 3.1-1.112 3.464-1.329.363-3.259.119-4.08-.963-1.026-1.349-1.714-2.533-3.185-4.184-1.276-1.433-2.66-2.775-3.143-4.755-.437-1.79-.022-2.552 1.203-3.041 1.684-.674 4.254 1.708 5.553 2.104 1.119.339 3.876 4.816 4.266 4.974Z"/>
  <path fill="#FFA8A7" d="m290.352 236.341-.042 1.829s-1.934 1.418-4.624.021c-.076-.178-.42-2.627-.42-2.627l5.086.777Z"/>
  <path fill="#263238" d="M275.273 247.924s.488 1.603.74 2.999c.199 1.111.48 2.966.074 3.789-.406.823-1.928 1.326-4.269 1.256-1.517-.046-3.903.93-5.541 1.797-1.692.895-5.177 1.188-6.94.941-2.077-.292-4.208-1.548-4.525-2.419-.318-.87.15-1.756 5.106-3.737.045-.018 6.874-2.07 9.309-4.638l6.046.012Z"/>
  <path fill="#FFA8A7" d="M275.313 245.947s-.037 1.357-.048 2.133c-.011.775-.952 1.91-3.321 1.773-1.664-.097-2.816-.571-2.72-1.941l.045-1.976 6.044.011Z"/>
  <path fill="#37474F" d="M292.085 212.099c-.703-5.994-1.945-9.573-1.945-9.573s.837-8.203 1.326-15.987c.528-8.408 1.018-12.737-.636-24.88 0 0-25.778-2.316-26.481 7.402-.704 9.717.295 34.515.519 38.796.225 4.281.879 8.077 1.606 15.023.717 6.856 2.796 23.054 2.796 23.054 3.064 1.747 6.045.013 6.045.013s2.349-19.408 2.259-24.344c-.109-6.027-1.627-10.805-1.627-10.805s.696-8.009 1.307-14.977c.612-6.967 1.169-10.307 1.343-13.339l.591-.277s.325 12.05.549 16.331c.225 4.281.813 8.394 1.87 16.36.917 6.91 3.784 21.552 3.784 21.552 3.064 1.747 4.958-.108 4.958-.108s2.438-18.247 1.736-24.241Z"/>
  <path fill="#263238" d="M278.602 182.482s6.66-3.098 10.023-5.951c0 0-3.158 4.245-7.22 6.067 0 0-1.766 14.92-1.752 14.624l-.494-14.749-.557.009Z"/>
  <path fill="#FFA8A7" d="m273.98 127.024 1.004 8.9 8.406-.424-.934-10.387-8.476 1.911Z"/>
  <path fill="url(#k)" d="M286.558 130.431c3.129-.144 4.718.326 6.124 3.025 1.406 2.7 1.956 10.764 2.445 14.923.489 4.158.611 7.092-1.101 7.519-1.711.429-8.374.612-8.374.612l.906-26.079Z"/>
  <path fill="url(#l)" d="M291.837 135.043c-.454-2.491-3.728-5.109-6.794-4.61-.712.115-1.406.233-2.081.352-.368 1.497-4.471 2.433-8.391 1.511-1.181.31-5.071 1.038-6.055 1.365-2.816.935-3.979 3.708-4.418 12.896 0 0 .225 20.806.115 24.951 6.956 2.935 14.257 3.014 18.311 2.224 8.441-1.646 9.532-5.107 9.532-5.107l-1.256-9.518c0-.002 2.062-18.43 1.037-24.064Z"/>
  <path fill="url(#m)" d="m274.312 129.959.063.56s2.43.607 5.161 0c2.731-.607 3.282-1.379 3.282-1.379l-.056-.635s.679-.252 1.036.794c.358 1.047.395 1.276.395 1.276s.315 1.913-2.896 2.887c-4.619 1.401-7.995-.873-7.995-.873l-1.259.265s1.089-2.509 1.418-3.018c.329-.509.787-.436.787-.436l.064.559Z"/>
  <path fill="#455A64" d="m248.652 120.414-16.668 8.697 8.282 22.645 15.554-8.713-7.168-22.629Z"/>
  <path fill="#F5F5F5" d="m247.888 122.631-13.982 7.296 7.33 19.468 13.048-7.31-6.396-19.454Z"/>
  <path fill="#000" d="m244.937 124.732-.27-.693c-.15-.383-1.314-.154-2.6.51l-2.462 1.271c-1.286.664-2.207 1.512-2.058 1.894l.271.693 7.119-3.675Z" opacity=".15"/>
  <path fill="#E86B31" d="M244.666 121.96c-.092-.239-.599-.2-1.132.087l-.964.521s-.593-1.496-2.811-.461-1.712 2.769-1.712 2.769l-1.023.564c-.565.311-.968.76-.899 1.004l.124.44 8.586-4.48a25.36 25.36 0 0 0-.169-.444Z"/>
  <path fill="#E86B31" d="M243.741 122.964c-.799.393-1.113.582-.883 1.172.262.673.507 1.157.507 1.157l-3.798 1.987s-.316-.857-.455-1.188c-.138-.33-.416-.488-1.02-.172l-.225-.238 5.99-3.053-.116.335Z"/>
  <path fill="#000" d="M243.741 122.964c-.799.393-1.113.582-.883 1.172.262.673.507 1.157.507 1.157l-3.798 1.987s-.316-.857-.455-1.188c-.138-.33-.416-.488-1.02-.172l-.225-.238 5.99-3.053-.116.335Z" opacity=".3"/>
  <path fill="#E86B31" d="m245.097 124.767-.271-.693c-.149-.383-1.313-.154-2.599.51l-2.462 1.271c-1.286.664-2.207 1.512-2.058 1.895l.271.692 7.119-3.675Z"/>
  <path fill="#FFA8A7" d="M268.524 133.66c-3.848.334-5.487 1.036-8.376 6.245-3.135 5.653-9.161 15.883-9.925 17.175-1.063 1.797-1.264 4.531-.347 6.181.857 1.541 3.577 2.247 6.66-1.236 3.665-4.14 10.487-14.254 10.487-14.254s5.793-7.644 1.501-14.111Z"/>
  <path fill="#FFA8A7" d="M251.466 164.449c-2.949-.357-9.838-9.703-11.797-12.757-2.145-3.342-4.143-4.949-5.968-6.297-3.122-2.307-2.668-5.85-1.305-9.098.472-1.125 2.072-.393 2.072-.393l.563 1.541.976 2.669c.662.614 1.038.813 1.083.631.082-.344-.486-1.78-.473-3.276.017-1.799 1.277-.616 1.654.014.376.631.816 1.658 1.33 2.973.629 1.611.368 3.242 1.134 4.34.765 1.098 11.043 10.945 11.043 10.945l-.312 8.708Z"/>
  <path fill="url(#n)" d="M269.261 133.46c-2.331-.058-5.133.314-7.302 3.133-2.169 2.819-10.853 18.149-10.853 18.149l-4.874-4.368s-3.064 1.768-3.748 5.296c0 0 2.354 3.728 4.413 5.989 2.06 2.261 4.358 3.827 6.241 3.133s3.807-2.187 7.863-7.833c4.057-5.646 8.483-12.312 8.483-12.312s2.795-6.511-.223-11.187Z"/>
  <path fill="#F28F8F" d="M268.062 116.127s-2.098 3.184-1.86 3.497c.24.313 1.784.595 1.784.595l.076-4.092Z"/>
  <path fill="#263238" d="M269.039 118.173a2.503 2.503 0 0 1-2.5-2.501c0-1.379 1.122-2.5 2.5-2.5a2.503 2.503 0 0 1 2.501 2.5 2.503 2.503 0 0 1-2.501 2.501Zm0-4.445a1.946 1.946 0 0 0-1.944 1.945c0 1.072.872 1.944 1.944 1.944a1.946 1.946 0 0 0 1.945-1.944 1.947 1.947 0 0 0-1.945-1.945Z"/>
  <path fill="#FFA8A7" d="M273.885 107.32c-4.246.896-5.472 2.762-5.873 9.509-.418 7.048.302 9.264 1.228 10.213.625.641 4.098.757 5.851.274 2.194-.606 7.15-2.362 9.472-5.908 2.731-4.171 3.448-9.825.524-12.144-4.113-3.264-9.473-2.308-11.202-1.944Z"/>
  <path fill="#F28F8F" d="m274.035 127.513-.197-1.298s-2.043 1.176-4.354.986c.811.401 2.925.514 4.551.312Z"/>
  <path fill="#263238" d="m266.777 115.15 7.551.978-.305.53-7.246-.94v-.568Z"/>
  <path fill="#263238" d="M267.29 110.042c.319.046.648.029.958-.058-.277.604-.015 1.373.518 1.771.533.398 1.271.454 1.904.252-.23.391-.306.87-.209 1.313.204.924 1.244 1.724 2.2 1.587.046.986.058 1.952 1.111 2.401 0 0 .671-2.606 2.867-2.278 2.211.33 2.509 3.148 1.116 4.859-1.384 1.701-2.675 1.064-2.691 1.056.129.064.173.895.218 1.052.139.488.329.974.564 1.425a6.804 6.804 0 0 0 1.988 2.329c1.15.847 2.554 1.453 3.984 1.109 1.246-.299 2.376-1.156 2.903-2.336.133-.297.238-.62.474-.844.288-.273.707-.34 1.082-.468a3.226 3.226 0 0 0 1.931-1.83c.34-.849.29-1.846-.134-2.657a2.979 2.979 0 0 0 2.13-2.201 2.982 2.982 0 0 0-1.014-2.89c1.244-.762 1.888-2.386 1.503-3.794-.33-1.208-1.334-2.067-2.51-2.407-.858-.248-.528-.383-.793-1.222a3.124 3.124 0 0 0-.988-1.474 3.151 3.151 0 0 0-2.923-.544c-.191-1.094-1.065-1.986-2.121-2.281-.48-.135-1.011-.185-1.499-.059-.353.092-1.077.419-1.209.756-.446-.439-.592-1.019-1.138-1.419a3.282 3.282 0 0 0-1.928-.641 3.303 3.303 0 0 0-2.813 1.655c-.764-.798-1.861-1.295-2.965-1.248-1.105.048-2.19.673-2.705 1.652-.515.978-.391 2.28.365 3.087-.682.284-1.308.761-1.64 1.42-.362.714-.312 1.609.231 2.216.262.294.433.489.829.617.133.044.268.074.404.094Z"/>
  <path fill="#263238" d="m273.725 118.793.078-2.949a1.476 1.476 0 0 0-.078 2.949Z"/>
  <defs>
    <linearGradient id="a" x1="291.564" x2="308.695" y1="213.906" y2="214.062" gradientUnits="userSpaceOnUse">
      <stop stop-color="#FB8D48"/>
      <stop offset=".2" stop-color="#ED7136"/>
      <stop offset=".4" stop-color="#C54E47"/>
      <stop offset=".4" stop-color="#C14F49"/>
      <stop offset=".6" stop-color="#9D3863"/>
      <stop offset=".8" stop-color="#5E1F72"/>
    </linearGradient>
    <linearGradient id="b" x1="291.564" x2="308.695" y1="213.906" y2="214.062" gradientUnits="userSpaceOnUse">
      <stop stop-color="#FB8D48"/>
      <stop offset=".2" stop-color="#ED7136"/>
      <stop offset=".4" stop-color="#C54E47"/>
      <stop offset=".4" stop-color="#C14F49"/>
      <stop offset=".6" stop-color="#9D3863"/>
      <stop offset=".8" stop-color="#5E1F72"/>
    </linearGradient>
    <linearGradient id="c" x1="292.593" x2="304.318" y1="213.227" y2="213.319" gradientUnits="userSpaceOnUse">
      <stop stop-color="#FB8D48"/>
      <stop offset=".2" stop-color="#ED7136"/>
      <stop offset=".4" stop-color="#C54E47"/>
      <stop offset=".4" stop-color="#C14F49"/>
      <stop offset=".6" stop-color="#9D3863"/>
      <stop offset=".8" stop-color="#5E1F72"/>
    </linearGradient>
    <linearGradient id="d" x1="287.372" x2="312.237" y1="230.599" y2="231.118" gradientUnits="userSpaceOnUse">
      <stop stop-color="#FB8D48"/>
      <stop offset=".2" stop-color="#ED7136"/>
      <stop offset=".4" stop-color="#C54E47"/>
      <stop offset=".4" stop-color="#C14F49"/>
      <stop offset=".6" stop-color="#9D3863"/>
      <stop offset=".8" stop-color="#5E1F72"/>
    </linearGradient>
    <linearGradient id="e" x1="290.646" x2="310.204" y1="230.586" y2="230.956" gradientUnits="userSpaceOnUse">
      <stop stop-color="#FB8D48"/>
      <stop offset=".2" stop-color="#ED7136"/>
      <stop offset=".4" stop-color="#C54E47"/>
      <stop offset=".4" stop-color="#C14F49"/>
      <stop offset=".6" stop-color="#9D3863"/>
      <stop offset=".8" stop-color="#5E1F72"/>
    </linearGradient>
    <linearGradient id="f" x1="172.512" x2="217.02" y1="250.281" y2="251.635" gradientUnits="userSpaceOnUse">
      <stop stop-color="#FB8D48"/>
      <stop offset=".2" stop-color="#ED7136"/>
      <stop offset=".4" stop-color="#C54E47"/>
      <stop offset=".4" stop-color="#C14F49"/>
      <stop offset=".6" stop-color="#9D3863"/>
      <stop offset=".8" stop-color="#5E1F72"/>
    </linearGradient>
    <linearGradient id="g" x1="109.248" x2="174.198" y1="275.2" y2="276.965" gradientUnits="userSpaceOnUse">
      <stop stop-color="#FB8D48"/>
      <stop offset=".2" stop-color="#ED7136"/>
      <stop offset=".4" stop-color="#C54E47"/>
      <stop offset=".4" stop-color="#C14F49"/>
      <stop offset=".6" stop-color="#9D3863"/>
      <stop offset=".8" stop-color="#5E1F72"/>
    </linearGradient>
    <linearGradient id="h" x1="109.244" x2="174.168" y1="271.337" y2="273.518" gradientUnits="userSpaceOnUse">
      <stop stop-color="#FB8D48"/>
      <stop offset=".2" stop-color="#ED7136"/>
      <stop offset=".4" stop-color="#C54E47"/>
      <stop offset=".4" stop-color="#C14F49"/>
      <stop offset=".6" stop-color="#9D3863"/>
      <stop offset=".8" stop-color="#5E1F72"/>
    </linearGradient>
    <linearGradient id="i" x1="112.313" x2="170.839" y1="266.893" y2="270.217" gradientUnits="userSpaceOnUse">
      <stop stop-color="#FB8D48"/>
      <stop offset=".2" stop-color="#ED7136"/>
      <stop offset=".4" stop-color="#C54E47"/>
      <stop offset=".4" stop-color="#C14F49"/>
      <stop offset=".6" stop-color="#9D3863"/>
      <stop offset=".8" stop-color="#5E1F72"/>
    </linearGradient>
    <linearGradient id="j" x1="112.313" x2="170.839" y1="266.893" y2="270.217" gradientUnits="userSpaceOnUse">
      <stop stop-color="#FB8D48"/>
      <stop offset=".2" stop-color="#ED7136"/>
      <stop offset=".4" stop-color="#C54E47"/>
      <stop offset=".4" stop-color="#C14F49"/>
      <stop offset=".6" stop-color="#9D3863"/>
      <stop offset=".8" stop-color="#5E1F72"/>
    </linearGradient>
    <linearGradient id="k" x1="285.823" x2="295.481" y1="141.646" y2="141.717" gradientUnits="userSpaceOnUse">
      <stop stop-color="#FB8D48"/>
      <stop offset=".2" stop-color="#ED7136"/>
      <stop offset=".4" stop-color="#C54E47"/>
      <stop offset=".4" stop-color="#C14F49"/>
      <stop offset=".6" stop-color="#9D3863"/>
      <stop offset=".8" stop-color="#5E1F72"/>
    </linearGradient>
    <linearGradient id="l" x1="264.585" x2="292.224" y1="149.224" y2="149.567" gradientUnits="userSpaceOnUse">
      <stop stop-color="#FB8D48"/>
      <stop offset=".2" stop-color="#ED7136"/>
      <stop offset=".4" stop-color="#C54E47"/>
      <stop offset=".4" stop-color="#C14F49"/>
      <stop offset=".6" stop-color="#9D3863"/>
      <stop offset=".8" stop-color="#5E1F72"/>
    </linearGradient>
    <linearGradient id="m" x1="272.254" x2="284.225" y1="130.82" y2="131.339" gradientUnits="userSpaceOnUse">
      <stop stop-color="#FB8D48"/>
      <stop offset=".2" stop-color="#ED7136"/>
      <stop offset=".4" stop-color="#C54E47"/>
      <stop offset=".4" stop-color="#C14F49"/>
      <stop offset=".6" stop-color="#9D3863"/>
      <stop offset=".8" stop-color="#5E1F72"/>
    </linearGradient>
    <linearGradient id="n" x1="242.974" x2="270.76" y1="147.019" y2="147.501" gradientUnits="userSpaceOnUse">
      <stop stop-color="#FB8D48"/>
      <stop offset=".2" stop-color="#ED7136"/>
      <stop offset=".4" stop-color="#C54E47"/>
      <stop offset=".4" stop-color="#C14F49"/>
      <stop offset=".6" stop-color="#9D3863"/>
      <stop offset=".8" stop-color="#5E1F72"/>
    </linearGradient>
  </defs>
</svg>
