<svg xmlns="http://www.w3.org/2000/svg" width="373" height="336" fill="none" viewBox="0 0 373 336">
  <path fill="#F5F5F5" d="M182.321 110.463a2.78 2.78 0 0 1-1.179-.266l-6.089-2.843c-1.215-.568-2.122-1.977-2.365-3.68l-1.217-8.526c-.243-1.701.21-3.464 1.182-4.599l4.873-5.683c.972-1.135 2.331-1.487 3.547-.92l6.09 2.843c1.215.568 2.122 1.978 2.364 3.68l1.218 8.526c.243 1.702-.21 3.463-1.183 4.598l-4.873 5.684c-.665.776-1.511 1.186-2.368 1.186Zm-5.766-8.08 5.69 2.656 4.553-5.31-1.138-7.967-5.69-2.656-4.552 5.31 1.137 7.967Zm76.806-16.678a2.78 2.78 0 0 1-1.179-.266L249.1 84c-1.216-.568-2.122-1.978-2.365-3.68l-.616-4.314c-.243-1.702.21-3.463 1.183-4.599l2.467-2.877c.973-1.135 2.332-1.487 3.547-.919l3.082 1.44c1.216.567 2.122 1.977 2.365 3.68l.616 4.314c.242 1.702-.211 3.463-1.182 4.598l-2.467 2.878c-.666.774-1.512 1.184-2.369 1.184Zm-2.759-6.676 2.683 1.252 2.147-2.504-.537-3.756-2.683-1.253-2.146 2.504.536 3.757Z"/>
  <path fill="#E0E0E0" d="M338.528 148.84c-.787 0-1.545-.48-2.045-1.32l-1.736-2.918c-.583-.98-.736-2.316-.398-3.486l1.008-3.486c.338-1.17 1.121-2.015 2.042-2.206l2.745-.567c.919-.191 1.855.3 2.439 1.28l1.736 2.918c.584.98.736 2.316.398 3.486l-1.009 3.486c-.338 1.169-1.12 2.015-2.042 2.205l-2.744.567a1.883 1.883 0 0 1-.394.041Zm2.012-11.343a.423.423 0 0 0-.094.01l-2.746.567c-.221.045-.408.248-.489.529l-1.008 3.485c-.081.281-.045.602.095.837l1.736 2.919c.14.235.369.353.586.307l2.745-.567c.22-.046.408-.249.489-.53l1.008-3.485a1.091 1.091 0 0 0-.095-.836v-.001l-1.737-2.918c-.119-.201-.301-.317-.49-.317ZM28.697 177.962c-1.011 0-1.986-.618-2.628-1.698l-4.081-6.856c-.75-1.26-.944-2.976-.51-4.48l2.368-8.19c.435-1.504 1.44-2.589 2.624-2.834l6.449-1.333c1.186-.244 2.385.386 3.135 1.646l4.08 6.857c.75 1.259.945 2.975.51 4.479l-2.368 8.19c-.435 1.505-1.44 2.591-2.625 2.836l-6.448 1.332a2.626 2.626 0 0 1-.506.051Zm-3.95-11.417 3.996 6.715 6.315-1.304 2.318-8.02-3.996-6.715-6.314 1.304-2.319 8.02Z"/>
  <path fill="#EBEBEB" d="M45.198 117.907h-3.846c-.932 0-1.8-.676-2.267-1.764l-1.923-4.487a4.62 4.62 0 0 1 0-3.527l1.923-4.487c.466-1.088 1.335-1.763 2.267-1.763h3.846c.932 0 1.8.675 2.267 1.763l1.923 4.487a4.62 4.62 0 0 1 0 3.527l-1.923 4.487c-.466 1.088-1.335 1.764-2.267 1.764Zm-3.846-13.347c-.224 0-.433.162-.545.424l-1.922 4.487a1.11 1.11 0 0 0 0 .847l1.922 4.487c.112.261.321.423.545.423h3.845c.224 0 .433-.162.545-.423l1.923-4.487a1.11 1.11 0 0 0 0-.847l-1.923-4.487c-.112-.262-.32-.424-.545-.424h-3.845Zm69.443-37.337-7.498-6.357-9.207-20.931-12.806-10.564-2.48 3.617 1.303 2.355 4.04 7.305L100.2 71.672l6.545 4.852 4.051-9.3Zm-9.421 15.051-2.148-9.64-23.585-36.298-3.145 2.506 4.98 19.086 13.691 18.117 3.069 11.315 7.138-5.086Z"/>
  <path fill="#E86B31" d="M114.148 69.02s26.634 19.69 31.999 26.339c5.365 6.647 17.902 34.323 16.629 37.858-1.274 3.535-2.247 3.99-5.137.59-2.89-3.401-12.226-22.393-14.737-25.461-2.51-3.069-33.707-27.725-33.707-27.725l4.953-11.602Z"/>
  <path fill="#EBEBEB" d="M96.094 77.452c4.659 0 8.435-5.088 8.435-11.363 0-6.275-3.776-11.362-8.435-11.362-4.658 0-8.434 5.087-8.434 11.362s3.776 11.363 8.434 11.363Z"/>
  <path fill="#E0E0E0" d="M93.972 77.087c.007-.06.725.272 2.06.286.665.022 1.483-.12 2.388-.474.902-.36 1.893-.985 2.822-1.98.921-.993 1.802-2.343 2.381-4.053.568-1.7.912-3.722.741-5.822a13.58 13.58 0 0 0-.569-3.125c-.139-.52-.346-1.002-.539-1.5-.229-.469-.448-.954-.728-1.388-1.059-1.793-2.606-3.136-4.345-3.769-1.748-.59-3.585-.431-5.159.44-.4.195-.768.475-1.137.735-.348.308-.704.595-1.014.956a9.985 9.985 0 0 0-1.626 2.357c-.91 1.722-1.339 3.714-1.457 5.573a14.69 14.69 0 0 0 .615 5.102c.452 1.478 1.09 2.674 1.749 3.58.663.903 1.325 1.563 1.915 1.982 1.171.862 1.918 1.043 1.903 1.1-.001.006-.047-.007-.134-.038l-.388-.146a3.286 3.286 0 0 1-.617-.29c-.24-.133-.52-.277-.812-.508-.603-.405-1.285-1.058-1.97-1.963-.68-.91-1.342-2.117-1.815-3.622a14.921 14.921 0 0 1-.66-5.218c.111-1.907.545-3.957 1.475-5.735a10.278 10.278 0 0 1 1.667-2.434c.318-.373.683-.67 1.042-.989.38-.268.758-.558 1.17-.76 1.621-.903 3.517-1.07 5.32-.461 1.792.65 3.387 2.04 4.476 3.891.287.447.513.948.748 1.432.198.513.409 1.012.552 1.547.316 1.05.515 2.14.577 3.22.169 2.162-.193 4.236-.785 5.975-.602 1.748-1.513 3.122-2.463 4.123-.956 1.005-1.972 1.625-2.894 1.974-.924.341-1.756.465-2.43.422-.337.011-.634-.047-.892-.09a3.005 3.005 0 0 1-.645-.15l-.391-.127a.448.448 0 0 1-.131-.053Z"/>
  <path fill="#8A350E" d="M94.894 72.303c-2.546-.892-4.073-4.395-3.412-7.824.662-3.43 3.262-5.486 5.808-4.595 2.546.89 4.073 4.394 3.411 7.823-.662 3.43-3.262 5.487-5.807 4.596Z"/>
  <path fill="#E0E0E0" d="M94.896 72.301c.006-.043.413.134 1.163.132.736-.003 1.868-.274 2.917-1.399a6.325 6.325 0 0 0 1.327-2.273 8.272 8.272 0 0 0 .41-3.254 7.619 7.619 0 0 0-.32-1.744 6.543 6.543 0 0 0-.708-1.61c-.591-1.001-1.455-1.75-2.425-2.102-.975-.33-2-.242-2.879.244a4.278 4.278 0 0 0-1.2.942 5.57 5.57 0 0 0-.91 1.314c-.508.96-.75 2.072-.819 3.11a8.24 8.24 0 0 0 .338 2.856c.51 1.67 1.4 2.65 2.042 3.135.655.495 1.075.607 1.064.65 0 0-.428-.063-1.112-.53-.67-.458-1.61-1.435-2.163-3.158a8.475 8.475 0 0 1-.383-2.972c.061-1.087.307-2.257.836-3.273.254-.515.577-.985.95-1.39a4.52 4.52 0 0 1 1.263-1 3.727 3.727 0 0 1 3.038-.265c1.024.37 1.936 1.166 2.556 2.223.319.519.568 1.099.742 1.702.18.6.292 1.222.327 1.839a8.588 8.588 0 0 1-.452 3.406 6.462 6.462 0 0 1-1.409 2.345c-1.105 1.142-2.28 1.379-3.031 1.34-.766-.042-1.162-.268-1.162-.268Z"/>
  <path fill="#EBEBEB" d="m105.512 74.924 3.446-8.078c1.01-2.368 3.254-3.185 5.012-1.824l.322.25c1.759 1.36 2.365 4.384 1.355 6.752l-3.445 8.078c-1.01 2.368-3.255 3.185-5.013 1.824l-.322-.25c-1.759-1.361-2.365-4.384-1.355-6.752Z"/>
  <path fill="#E0E0E0" d="M105.509 74.924c.037.018-.298.62-.413 1.887a6.714 6.714 0 0 0 .221 2.259 6.1 6.1 0 0 0 .516 1.243c.232.396.521.768.867 1.077.353.296.739.616 1.165.803.428.193.902.282 1.387.236.969-.086 1.98-.768 2.625-1.96 1.143-2.57 2.354-5.51 3.654-8.53.628-1.47.613-3.331.017-4.713a4.38 4.38 0 0 0-1.183-1.689c-.493-.423-.988-.785-1.529-.914-1.072-.295-2.164.114-2.919.936-.779.802-1.126 2.026-1.583 2.99l-2.045 4.683-.568 1.264c-.131.287-.204.434-.212.428-.008-.006.05-.165.167-.464l.526-1.297 1.973-4.738.659-1.567c.232-.554.547-1.092.949-1.526.795-.882 1.953-1.33 3.1-1.026.576.133 1.117.524 1.615.949.514.438.965 1.053 1.271 1.802.642 1.478.662 3.478-.014 5.055-1.306 3.034-2.503 5.926-3.685 8.547-.695 1.267-1.777 1.98-2.803 2.058a2.901 2.901 0 0 1-1.467-.27c-.458-.213-.837-.537-1.201-.853a4.69 4.69 0 0 1-.898-1.147 6.28 6.28 0 0 1-.519-1.31 6.787 6.787 0 0 1-.186-2.342c.065-.647.216-1.115.316-1.426.121-.299.189-.45.197-.445Z"/>
  <path fill="#E86B31" d="M95.227 93.074s10.09 38.606 14.087 46.819c3.996 8.213 22.227 29.378 25.023 28.26 2.796-1.117 3.288-2.338 1.268-6.732-2.021-4.394-14.413-19.893-16.252-23.729-1.839-3.835-14.825-49.313-14.825-49.313l-9.301 4.695Z"/>
  <path fill="#EBEBEB" d="m100.955 82.55-6.476 3.266c-1.899.957-2.862 3.808-2.151 6.366l.13.47c.71 2.557 2.827 3.855 4.726 2.897l6.476-3.266c1.899-.958 2.862-3.808 2.151-6.366l-.13-.47c-.711-2.557-2.827-3.855-4.726-2.898Z"/>
  <path fill="#E0E0E0" d="M100.958 82.551c-.003-.01.119-.077.358-.189.244-.082.611-.207 1.095-.188.482.017 1.077.185 1.685.627.299.232.599.527.875.904.269.384.511.847.695 1.38.172.535.348 1.092.429 1.735a6.827 6.827 0 0 1-.041 1.994c-.223 1.352-.922 2.674-1.963 3.391-2.111 1.146-4.424 2.266-6.858 3.51-1.266.641-2.727.29-3.705-.804-.5-.528-.877-1.228-1.114-1.982-.23-.731-.428-1.514-.432-2.302-.037-1.573.48-3.04 1.255-3.953a3.865 3.865 0 0 1 1.272-1.014l1.255-.62 3.79-1.853 1.036-.487c.238-.109.365-.16.368-.149.003.011-.117.084-.349.214l-1.018.549-3.763 1.957c-.78.451-1.733.713-2.447 1.618-.725.87-1.202 2.255-1.16 3.728.007.74.192 1.457.421 2.181.224.704.577 1.355 1.045 1.846.915 1.018 2.276 1.341 3.455.744 2.424-1.237 4.774-2.368 6.842-3.469.977-.664 1.642-1.897 1.862-3.17a6.497 6.497 0 0 0 .053-1.883c-.068-.596-.239-1.162-.399-1.678a5.452 5.452 0 0 0-.647-1.33 4.46 4.46 0 0 0-.827-.886c-.578-.441-1.15-.624-1.618-.661-.948-.054-1.443.293-1.45.24Z"/>
  <path fill="#263238" d="M355.471 304.752c0 .097-75.812.175-169.309.175-93.53 0-169.326-.079-169.326-.175 0-.095 75.796-.174 169.326-.174 93.497 0 169.309.078 169.309.174Z"/>
  <path fill="#E0E0E0" d="M43.277 228.103c.138-.562 15.634-68.806 15.634-68.806l-.388-8.475 4.053-8.99 5.034 2.24-.689 10.078-3.578 7.327-15.61 68.565-4.456-1.939Z"/>
  <path fill="#263238" d="M43.277 228.101s.105.037.3.118l.86.359 3.31 1.404-.057.04 15.532-68.597.006-.023.01-.021 3.576-7.329-.02.079.688-10.078.088.182a68.14 68.14 0 0 0-.416-.185l-4.618-2.055.15-.075-4.053 8.989.018-.1.385 8.475.001.03-.006.029-11.245 49.224-3.296 14.345c-.387 1.671-.687 2.962-.891 3.848l-.235.997c-.054.226-.087.344-.087.344s.02-.11.067-.33l.215-.984.853-3.827 3.22-14.338 11.16-49.376-.006.06-.39-8.475-.003-.054.021-.046 4.051-8.991.054-.119.097.044 4.618 2.054.416.185.098.043-.01.138-.69 10.078-.002.043-.018.037-3.58 7.325.016-.043-15.687 68.533-.014.061-.044-.02a4795.58 4795.58 0 0 1-3.32-1.482l-.844-.382c-.187-.087-.278-.134-.278-.134Z"/>
  <path fill="url(#a)" d="m39.537 231.42-6.96 12.679-9.732 47.561s-1.4 9.701 6.555 12.457c8.932 3.095 10.993-6.122 10.993-6.122l9.463-46.451-.142-16.12 2.336-3.544c.47-.713.245-1.841-.427-2.141l-11.175-4.972c-.675-.3-1.357.434-1.289 1.388l.378 5.265Z"/>
  <path fill="#263238" d="M49.79 235.982c-.02.091-2.363-.828-5.23-2.054-2.868-1.226-5.175-2.294-5.154-2.387.022-.091 2.364.828 5.232 2.054 2.867 1.226 5.175 2.295 5.153 2.387Zm.063 15.561c-.005.024-.253-.037-.698-.165a43.944 43.944 0 0 1-1.875-.599 85.03 85.03 0 0 1-6.114-2.361 87.966 87.966 0 0 1-5.998-2.85 48.038 48.038 0 0 1-1.786-.976c-.418-.243-.646-.387-.64-.409.007-.022.248.079.677.282l1.814.872c1.53.737 3.65 1.731 6.013 2.749a154.391 154.391 0 0 0 6.082 2.454l1.853.706c.436.169.676.274.672.297Z"/>
  <path fill="#000" d="m26.345 293.008-.239-.095c-.87-.347-1.366-1.579-1.108-2.75l8.737-39.758c.258-1.171 1.172-1.84 2.042-1.493l.239.095c.87.347 1.366 1.579 1.108 2.75l-8.737 39.758c-.258 1.171-1.172 1.84-2.042 1.493Zm4.961 2.199-.239-.095c-.87-.347-1.366-1.578-1.108-2.75l8.737-39.757c.258-1.172 1.172-1.841 2.042-1.494l.239.095c.87.347 1.366 1.579 1.108 2.751l-8.738 39.757c-.257 1.171-1.17 1.84-2.041 1.493Zm5.266 2.102-.24-.095c-.869-.347-1.365-1.578-1.108-2.75l8.738-39.757c.258-1.172 1.172-1.841 2.041-1.495l.24.096c.87.347 1.365 1.578 1.108 2.75l-8.738 39.757c-.257 1.173-1.171 1.841-2.041 1.494Z" opacity=".3"/>
  <path fill="#263238" d="M63.3 161.456c-.024.091-1.016-.288-2.216-.847-1.2-.56-2.154-1.086-2.13-1.178.023-.091 1.015.289 2.215.848 1.2.559 2.154 1.086 2.13 1.177Zm4.313-17.388c.015.007-.048.338-.175.94l-.565 2.562-2.002 8.682-.039.167-.124-.058-2.29-1.075-2.36-1.116-.113-.053.032-.153 1.815-8.687.556-2.541c.135-.593.216-.914.231-.908.015.006-.037.337-.145.94l-.484 2.568-1.729 8.718-.08-.206 2.362 1.108 2.29 1.082-.163.109 2.087-8.645c.26-1.038.475-1.889.637-2.531.153-.59.244-.909.259-.903Z"/>
  <path fill="#E0E0E0" d="M214.298 75.915c-.397 0-.795-.087-1.179-.267l-6.09-2.842c-1.215-.568-2.121-1.977-2.364-3.679l-1.217-8.527c-.244-1.702.21-3.464 1.183-4.599l4.872-5.683c.972-1.133 2.332-1.486 3.547-.919l6.089 2.843c1.216.567 2.123 1.978 2.365 3.68l1.217 8.525c.243 1.703-.211 3.465-1.183 4.599l-4.872 5.682c-.665.776-1.512 1.187-2.368 1.187Zm-5.767-8.082 5.69 2.656 4.553-5.31-1.138-7.966-5.69-2.657-4.552 5.31 1.137 7.968Z"/>
  <path fill="#263238" d="M208.534 67.831c-.007.01-.041-.174-.1-.53l-.25-1.57-.881-5.841a.161.161 0 0 1 .031-.123l4.535-5.336c.034-.04.08-.05.12-.031l5.691 2.646a4.28 4.28 0 0 1 .086.134l.001.002v.004l.001.008.003.017.004.032.01.066.019.131.037.262.074.52.147 1.033.288 2.027.547 3.865a.205.205 0 0 1-.04.156l-4.569 5.283c-.026.032-.064.04-.094.025l-4.166-2.01-1.118-.559c-.254-.13-.383-.202-.376-.21.008-.009.151.046.416.159l1.149.5 4.157 1.874-.095.025 4.535-5.337-.039.155-.557-3.862-.291-2.026-.148-1.032-.075-.52-.037-.262-.019-.13-.009-.066-.005-.033-.002-.016-.001-.008-.001-.004v-.002c-.019-.03.16.248.083.13l-5.687-2.665.12-.03-4.569 5.283.032-.123.782 5.811.203 1.603c.046.368.066.567.058.575Z"/>
  <path fill="#263238" d="M214.3 75.913c-.001-.018.216-.006.615-.107.394-.104.988-.342 1.591-.987l4.944-5.833c.517-.592.92-1.424 1.113-2.383a6.53 6.53 0 0 0 .115-1.503c-.023-.509-.124-1.036-.197-1.577l-.996-6.891c-.087-.614-.159-1.212-.361-1.765a4.913 4.913 0 0 0-.809-1.487 3.489 3.489 0 0 0-1.196-.969l-1.402-.653-2.878-1.341-1.472-.687c-.496-.253-.975-.428-1.494-.423a2.8 2.8 0 0 0-1.475.439c-.466.275-.838.728-1.23 1.193a4281.619 4281.619 0 0 0-4.525 5.275c-.689.84-1.09 2.04-1.133 3.234-.034.6.061 1.177.147 1.775l.247 1.75.471 3.349c.156 1.075.29 2.136.447 3.113.192.959.598 1.793 1.113 2.381.257.297.539.537.832.717.291.176.604.305.896.449l1.666.791 2.665 1.276c.735.34 1.29.666 1.689.758.4.1.617.09.617.106 0 0-.217.043-.625-.037-.413-.072-.976-.38-1.714-.699l-2.679-1.22c-.523-.24-1.081-.494-1.672-.766-.296-.141-.601-.26-.915-.443a3.772 3.772 0 0 1-.878-.743c-.546-.613-.979-1.487-1.187-2.5-.169-1.014-.303-2.047-.465-3.129l-.484-3.345-.253-1.749c-.085-.58-.19-1.21-.156-1.851.043-1.275.469-2.56 1.206-3.464l2.221-2.602 2.302-2.69c.198-.226.382-.455.597-.683a3.86 3.86 0 0 1 .693-.562 3.004 3.004 0 0 1 1.584-.473c.545-.01 1.098.197 1.578.444l1.471.688 2.877 1.346 1.403.658c.477.23.915.588 1.28 1.042.365.454.659 1 .862 1.594.215.592.291 1.245.375 1.842l.973 6.897c.069.54.169 1.066.193 1.618a6.923 6.923 0 0 1-.129 1.589c-.209 1.01-.642 1.886-1.187 2.498l-5.002 5.754c-.63.646-1.241.867-1.643.95-.41.078-.626.037-.626.037Z"/>
  <path fill="#E0E0E0" d="M171.911 61.968c-.787 0-1.545-.48-2.045-1.32l-1.737-2.918c-.583-.98-.735-2.316-.397-3.487l1.008-3.485c.339-1.17 1.121-2.016 2.042-2.206l2.745-.567c.922-.189 1.856.3 2.439 1.28l1.736 2.919c.583.98.736 2.315.398 3.486l-1.008 3.486c-.339 1.17-1.121 2.015-2.043 2.206l-2.744.567c-.131.026-.263.04-.394.04Zm2.012-11.344a.448.448 0 0 0-.094.01l-2.744.567c-.222.046-.41.249-.491.53l-1.007 3.485a1.09 1.09 0 0 0 .095.837l1.736 2.918c.141.236.365.353.586.308l2.745-.567c.221-.046.409-.248.49-.53l1.008-3.485a1.1 1.1 0 0 0-.095-.837l-1.737-2.917c-.121-.203-.303-.319-.492-.319Z"/>
  <path fill="#263238" d="M173.922 50.624c-.001-.008.075-.035.214.014a.595.595 0 0 1 .234.167c.084.097.149.221.236.353l1.413 2.286.23.38c.083.153.132.343.137.542.011.2-.051.405-.096.558l-.143.509a1310.78 1310.78 0 0 0-.792 2.79c-.062.233-.198.445-.371.559-.187.12-.353.11-.511.156l-.493.104c-.671.136-1.328.29-2.072.42-.214 0-.426-.126-.566-.341l-.332-.557-.639-1.077-.615-1.04-.15-.254a1.175 1.175 0 0 1-.139-.321 1.343 1.343 0 0 1 .011-.731l.647-2.192.294-.992c.051-.153.081-.32.169-.484a.795.795 0 0 1 .32-.334c.956-.236 1.68-.327 2.205-.427.517-.086.808-.122.809-.088-.001.014-.069.025-.204.068l-.59.155c-.501.134-1.281.285-2.151.52a.6.6 0 0 0-.233.256c-.057.105-.089.27-.138.432l-.281 1-.624 2.202a.927.927 0 0 0-.006.502c.037.151.155.301.254.479l.621 1.035.641 1.074.324.541a.46.46 0 0 0 .374.225 3149.855 3149.855 0 0 1 2.526-.509c.164-.04.336-.045.44-.121a.661.661 0 0 0 .254-.379l.172-.586a2676.663 2676.663 0 0 0 .796-2.696c.054-.176.095-.302.091-.45a.902.902 0 0 0-.095-.4l-.215-.375-1.349-2.356c-.269-.637-.62-.585-.607-.617Z"/>
  <path fill="#263238" d="M171.909 61.967c0-.012.115-.035.332-.069l.949-.223 1.505-.341c.296-.068.605-.116.905-.296.302-.166.595-.428.848-.777.253-.352.457-.784.588-1.296l.456-1.602c.27-1.121.827-2.265.626-3.547a4.12 4.12 0 0 0-.639-1.74l-.994-1.664-.511-.855a3.587 3.587 0 0 0-.555-.763c-.423-.428-.957-.675-1.5-.674-.267-.006-.543.078-.825.13l-.832.17-1.615.339c-.501.148-.958.502-1.293.99a3.624 3.624 0 0 0-.417.808c-.103.286-.188.618-.28.924l-.53 1.814c-.162.594-.374 1.147-.436 1.704-.142 1.143.183 2.208.679 2.94l1.249 2.14c.188.314.344.622.523.852.178.233.364.416.543.55.732.53 1.234.435 1.224.486 0 .006-.029.01-.086.015a1.367 1.367 0 0 1-.253-.01 2.065 2.065 0 0 1-.933-.371 2.791 2.791 0 0 1-.581-.55c-.196-.238-.359-.546-.55-.85l-1.279-2.107c-.516-.733-.899-1.906-.749-3.14.068-.624.281-1.18.436-1.771l.52-1.82c.093-.312.169-.621.284-.951a3.97 3.97 0 0 1 .455-.892c.367-.538.868-.93 1.419-1.096.546-.13 1.079-.23 1.632-.348l.831-.172c.275-.05.559-.14.865-.134.6-.002 1.188.271 1.654.745.232.231.436.536.6.825l.509.857.989 1.67c.348.53.6 1.208.681 1.893a4.87 4.87 0 0 1-.159 1.996l-.501 1.71-.47 1.595a4.067 4.067 0 0 1-.644 1.371 2.604 2.604 0 0 1-1.861 1.092l-1.512.282c-.415.073-.736.137-.957.16-.225.013-.34.013-.34.001Zm48.451-8.749c.052.06-.502 1.067-1.28 2.209-.779 1.143-1.52 1.921-1.566 1.849-.048-.074.605-.955 1.376-2.087.771-1.13 1.414-2.037 1.47-1.97Zm-9.328-3.85c.066-.031.408 1.087.666 2.534.259 1.446.332 2.652.263 2.664-.073.015-.259-1.154-.516-2.583-.253-1.429-.482-2.584-.413-2.615Zm-3.705 10.366c-.029.091-.868-.306-1.912-.739-1.044-.437-1.902-.748-1.887-.845.012-.092.906.069 1.963.512 1.059.44 1.863.986 1.836 1.072Zm-1.065 11.62c-.054-.061.401-.918 1.017-1.912.617-.994 1.161-1.75 1.216-1.688.055.061-.4.917-1.017 1.912-.616.994-1.161 1.75-1.216 1.688Zm8.38 3.671c-.07.015-.227-.952-.35-2.16-.123-1.209-.164-2.197-.093-2.209.071-.011.228.956.35 2.161.122 1.205.164 2.194.093 2.208Zm7.075-8.586c-.026.09-.683-.167-1.467-.573-.785-.406-1.4-.81-1.374-.899.026-.09.682.166 1.467.573.785.406 1.4.808 1.374.898Zm98.736 51.376c3.371-5.463 6.737-10.984 9.36-17.147 2.623-6.164 4.49-13.054 4.614-20.156.018-1.077-.327-8.552-1.094-8.85-.549-.214-.926 6.384-1.377 6.859-4.293 4.528-7.084 11.25-8.689 18.27-1.605 7.02-2.365 13.703-2.814 21.024Z"/>
  <path fill="#E4897B" d="M276.596 159.371c1.342-4.68 7.949-28.113 7.923-28.127 0 0-11.394-7.99-7.483-24.255 1.89-7.857 6.758-23.611 11.287-37.798 4.868-15.249 17.614-22.898 29.287-17.588l1.16.527c12.263 6.676 14.905 24.435 9.613 40.764l-24.353 76.045-21.354-8.892-6.08-.676Z"/>
  <path fill="#853510" d="M284.517 131.242s7.428 4.047 17.217.887c0 0-6.774 10.31-18.406 3.393l1.189-4.28Z"/>
  <path fill="#263238" d="M288.32 84.832c-.339 1.207.141 2.588 1.07 3.087.928.498 1.955-.073 2.293-1.28.338-1.207-.141-2.589-1.068-3.087-.929-.5-1.957.073-2.295 1.28Zm.889-7.751c.137.399 1.763-.306 3.609.54 1.853.811 2.888 2.709 3.164 2.495.133-.09.052-.734-.393-1.581-.437-.841-1.287-1.853-2.441-2.37-1.153-.515-2.263-.385-2.967-.054-.714.33-1.043.787-.972.97Zm15.321 16.533c-.338 1.206.142 2.588 1.071 3.086.927.498 1.954-.073 2.293-1.28.338-1.207-.141-2.589-1.069-3.088-.929-.499-1.957.075-2.295 1.282Zm2.526-7.292c.137.399 1.765-.305 3.61.542 1.852.81 2.887 2.708 3.165 2.494.132-.09.053-.732-.394-1.58-.436-.842-1.287-1.854-2.44-2.371-1.152-.514-2.264-.385-2.967-.054-.714.33-1.044.787-.974.97Zm-11.424 16.113c.044-.138-1.038-.928-2.818-2.095-.456-.28-.871-.61-.842-1.079.004-.51.373-1.105.788-1.741l2.608-4.205c3.665-6.01 6.488-11.038 6.307-11.235-.181-.197-3.298 4.515-6.963 10.525l-2.557 4.26c-.359.642-.872 1.321-.87 2.384.008.533.268 1.035.543 1.282.271.262.535.39.764.515 1.838.987 2.997 1.527 3.04 1.389Zm5.006 4.193c-.294-.16-.975 2.54-3.172 3.676-2.196 1.145-4.258-.131-4.369.239-.07.157.345.741 1.239 1.186a4.012 4.012 0 0 0 3.608-.047c1.342-.7 2.186-2.064 2.532-3.142.359-1.094.304-1.865.162-1.912Zm9.05-30.359c.012.76 1.937 1.278 4.017 2.616 2.099 1.282 3.633 2.932 4.073 2.456.201-.232.056-1.007-.487-1.984-.536-.973-1.498-2.103-2.751-2.89-1.253-.785-2.514-1.048-3.412-.975-.904.07-1.439.42-1.44.777Zm-17.642-7.114c.183.713 1.603.705 3.14 1.374 1.554.596 2.732 1.666 3.178 1.21.202-.227.14-.886-.292-1.679-.424-.787-1.249-1.648-2.311-2.083-1.063-.434-2.103-.336-2.78.001-.686.335-1.01.837-.935 1.177Z"/>
  <path fill="#E4897B" d="M324.396 104.442c.235-.026 9.086.467 6.048 11.421-3.039 10.955-10.575 4.586-10.502 4.264.073-.321 4.454-15.685 4.454-15.685Z"/>
  <path fill="#853510" d="M323.575 117.227c.046-.018.105.205.303.473.194.261.568.562 1.051.562.977.008 2.21-1.465 2.797-3.42a8.867 8.867 0 0 0 .361-2.932c-.026-.926-.255-1.679-.659-2.001-.394-.35-.796-.156-.982.102-.193.252-.202.496-.251.494-.03.016-.123-.272.068-.691a1.07 1.07 0 0 1 .51-.525c.254-.116.572-.08.861.115.61.374.96 1.436 1.008 2.443a9.137 9.137 0 0 1-.355 3.301c-.665 2.181-2.076 3.824-3.379 3.69-.627-.087-1.04-.559-1.215-.942-.177-.397-.152-.664-.118-.669Z"/>
  <path fill="#472E03" d="M298.72 53.814c-1.034-1.653 4.532-5.34 8.316-5.644 5.72-.46 13.681 1.553 17.683 5.59 4.819 4.862 8.28 10.81 9.106 18.844.826 8.035-.354 16.288-2.668 23.776-.706 2.284-1.569 4.6-3.042 6.079-1.819 1.829-4.424 2.227-5.277 5.605-.312 1.235-.92 2.331-1.791 2.898-2.088 1.36-3.334-1.575-3.597-4.008-.563-5.198.692-10.405 1.931-15.386.881-3.54 1.789-7.15 3.471-10.118.914-1.615 2.041-3.005 2.888-4.686.847-1.68 1.403-3.797.978-5.747a8.746 8.746 0 0 0-.402-1.238c-1.523-3.896-4.505-6.368-7.773-6.485-5.183-.184-13.902-.964-15.343-4.103-2.073-4.516-2.216-6.835-2.216-6.835l-2.264 1.458Z"/>
  <path fill="url(#b)" d="M325.768 47.077c.521.356 12.741 10.528 12.66 25.36-.08 14.831-2.095 18.463-2.095 18.463s.608.986.974 2.244c.329 1.128-1.546 4.944-3.155 3.67-10.971-13.713-26.091-21.59-43.339-28.784l-13.011-6.273c-3.805-1.123-4.756-3.027-2.897-3.549 1.426-.4 13.242-1.204 13.242-1.204l2.552-1.06 7.97-7.578s-.308-1.711 1.31-2.268c1.618-.557 15.498-6.057 25.789.979Z"/>
  <path fill="#263238" d="M290.699 55.945s.173.093.508.242l1.47.632c1.284.514 3.112 1.384 5.358 2.5 4.468 2.3 10.53 5.945 16.785 11.039 6.28 5.038 11.617 10.338 15.426 14.244 1.909 1.948 3.429 3.568 4.486 4.678l1.218 1.278c.28.288.434.428.434.428s-.135-.172-.406-.477l-1.19-1.323a237.243 237.243 0 0 0-4.442-4.758c-3.786-3.953-9.115-9.29-15.407-14.338-6.267-5.104-12.357-8.727-16.847-10.978-4.507-2.217-7.393-3.167-7.393-3.167Z"/>
  <path fill="#000" d="M335.869 60.521s-13.486-9.725-20.936-8.546l.87-.16-6.955.78c-1.175.133-2.524.18-3.332-.976 0 0 4.223-2.41 10.891-2.364 6.668.045 16.453 3.268 19.462 11.266Z" opacity=".3"/>
  <path fill="#263238" d="M336.047 60.717s-.304-.664-.992-1.722a22.44 22.44 0 0 0-3.271-3.983 21.117 21.117 0 0 0-5.817-4.014c-2.324-1.08-5.051-1.854-7.909-1.48-1.424.162-2.788.54-4.099.91-1.306.4-2.574.697-3.769 1.144-1.187.449-2.297.944-3.376 1.083-1.082.204-2.069-.146-2.95-.529-3.526-1.56-5.431-3.536-5.196-3.762.002-.012-.01.222.185.503.191.268.506.624.953.988.888.738 2.239 1.668 4.007 2.482.873.398 1.914.776 3.021.577 1.106-.133 2.234-.627 3.413-1.064 1.177-.432 2.456-.727 3.76-1.123 1.308-.364 2.665-.738 4.071-.897 2.819-.37 5.508.384 7.819 1.44a21.251 21.251 0 0 1 5.792 3.923c1.523 1.425 2.596 2.858 3.299 3.883.351.515.612.929.782 1.218.175.284.277.423.277.423Z"/>
  <path fill="#000" d="M338.252 78.566c-2.554-1.21-4.268-3.003-6.618-4.928-2.505-2.052-5.027-3.926-7.456-6.136-1.843-1.678-4.077-3.45-4.898-6.041a5.524 5.524 0 0 0-.047 4.15c.521 1.367 2.739 3.733 3.682 4.597 5.376 4.923 9.112 8.287 15.121 11.713.164-.88.216-3.355.216-3.355Z" opacity=".3"/>
  <path fill="url(#c)" d="M338.386 70.792c1.38 1.699 2.212 2.798 1.785 4.681-.357 1.567-1.073 3.354-2.275 3.1-.366-.077-.696-.334-1.016-.587l-16.449-12.978c-.556-.44-1.154-.943-1.366-1.763-.326-1.262.491-2.64 1.447-2.99.957-.35 1.969.032 2.912.442 5.362 2.336 10.252 5.929 14.962 10.095Z"/>
  <path fill="#263238" d="M319.248 63.719c.034-.014-.242-.406-.21-1.258.025-.802.443-2.118 1.492-2.67 1.055-.48 2.453-.158 3.824.587a90.779 90.779 0 0 1 4.494 2.577c3.159 1.925 5.887 4.033 7.744 5.79a40.96 40.96 0 0 1 2.158 2.158l.569.62c.132.138.204.208.209.2.006-.008-.056-.094-.178-.248l-.542-.666a32.296 32.296 0 0 0-2.122-2.245c-1.841-1.812-4.573-3.963-7.742-5.894a77.618 77.618 0 0 0-4.514-2.56c-1.399-.74-2.837-1.066-3.961-.524-1.12.624-1.521 2.027-1.523 2.87-.006.44.079.772.153.977.087.198.144.29.149.286Z"/>
  <path fill="#fff" d="m296.17 50.746 11.199 4.833-2.016 3.786-12.001-5.938 2.818-2.68Z"/>
  <path fill="#263238" d="M309.597 71.816c.029-.077-4.685-3.325-10.527-7.252-5.845-3.929-10.604-7.05-10.632-6.973-.029.077 4.684 3.324 10.528 7.253 5.842 3.928 10.603 7.05 10.631 6.972Z"/>
  <path fill="url(#d)" d="m312.421 153.103.146-9.904-25.155 12.589s-4.649-20.344-4.649-21.305l-5.574 4.721-9.266-5.367-9.265-6.169-18.741 44.19-19.659 78.097 46.328 41.62 34.346-49.587 20.88-42.863 11.481-27.15-20.872-18.872Z"/>
  <path fill="#263238" d="M285.175 155.645c-.014 0-.027-.346-.038-.99l-.026-2.777.113.097c-1.925 1.257-4.819 3.523-7.575 6.988l-.201.253-.016-.37-.057-1.385c-.202-4.858-.37-9.256-.479-12.44l-.116-3.772-.018-1.027c-.001-.235.003-.358.011-.359.009 0 .023.122.041.355l.066 1.023.198 3.766c.156 3.181.352 7.576.554 12.434l.058 1.385-.217-.118c2.784-3.489 5.724-5.731 7.682-6.927l.116-.071-.003.168-.047 2.777c-.015.644-.031.99-.046.99Zm24.924-2.065c.003.01-.095.083-.287.209l-.842.539-3.118 1.922-10.324 6.222-4.906 2.918-.209.125.039-.303a70.07 70.07 0 0 0 .573-9.536l.116.095-2.322 1.52-.622.39c-.142.086-.217.125-.22.116-.004-.009.065-.067.201-.17l.602-.441 2.289-1.609.112-.079.004.173a65.166 65.166 0 0 1-.493 9.597l-.169-.178 4.899-2.938 10.356-6.128 3.15-1.821.862-.479c.199-.105.305-.156.309-.144Z"/>
  <path fill="#455A64" d="M266.128 300.253H76.69c-4.001 0-7.245-4.37-7.245-9.76V113.787c0-5.39 3.244-9.76 7.245-9.76h189.437c4.001 0 7.245 4.37 7.245 9.76v176.707c0 5.389-3.243 9.759-7.244 9.759Z"/>
  <path fill="#455A64" d="M273.561 304.748H70.324c-4.888 0-8.851-5.338-8.851-11.924v-5.246h220.939v5.246c0 6.586-3.962 11.924-8.851 11.924Z"/>
  <path fill="#263238" d="M267.327 111.824H74.918v165.711h192.409V111.824ZM151.305 285.738l2.741 6.346h38.579l2.546-6.346h-43.866Z"/>
  <path fill="#EBEBEB" d="M262.129 277.004H80.507c-.9 0-1.628-.982-1.628-2.193V119.627c0-1.211.728-2.193 1.628-2.193H262.13c.899 0 1.628.981 1.628 2.193v155.184c-.001 1.211-.729 2.193-1.629 2.193Z"/>
  <path fill="#FAFAFA" d="M263.558 277.238H78.68l.198-147.879h184.68v147.879Z"/>
  <path fill="#263238" d="M94.412 123.597c0 1.187-.682 2.149-1.523 2.149-.84 0-1.522-.962-1.522-2.149 0-1.186.681-2.148 1.522-2.148s1.523.962 1.523 2.148Zm-9.226 0c0 1.187-.682 2.149-1.523 2.149-.84 0-1.522-.962-1.522-2.149 0-1.186.681-2.148 1.522-2.148s1.523.962 1.523 2.148Zm4.741 0c0 1.187-.68 2.149-1.522 2.149-.84 0-1.522-.962-1.522-2.149 0-1.186.682-2.148 1.522-2.148.841 0 1.522.962 1.522 2.148ZM271.62 285.739c0 .107-45.262.192-101.082.192-55.84 0-101.093-.085-101.093-.192 0-.106 45.253-.192 101.093-.192 55.82 0 101.082.086 101.082.192Z"/>
  <path fill="#E0E0E0" d="M151.459 157.724c3.042-2.476 6.279-4.353 9.619-5.631l1.981-12.826 16.086-.38 2.315 12.723c3.371 1.119 6.656 2.842 9.76 5.173l8.13-7.179 11.574 15.056-5.039 11.195c1.838 4.099 3.231 8.462 4.179 12.961l9.52 2.669.283 21.671-9.445 3.119c-.831 4.541-2.11 8.965-3.84 13.147l5.328 10.954-11.173 15.593-8.312-6.79c-3.041 2.477-6.28 4.353-9.62 5.631l-1.981 12.827-16.086.38-2.315-12.724c-3.37-1.12-6.655-2.843-9.759-5.173l-8.13 7.179-11.575-15.055 5.04-11.195c-1.838-4.099-3.233-8.461-4.181-12.96l-9.52-2.67-.282-21.669 9.444-3.121c.831-4.54 2.111-8.965 3.84-13.147l-5.328-10.954 11.175-15.593 8.312 6.789Zm8.575 28.869c-6.621 9.238-6.429 23.958.429 32.876 6.857 8.919 17.783 8.66 24.403-.578 6.62-9.238 6.429-23.957-.429-32.876-6.857-8.919-17.782-8.66-24.403.578Z"/>
  <path fill="#E0E0E0" d="M215.72 165.994a23.065 23.065 0 0 1 1.12-4.631l-2.003-3.62 3.604-5.678 2.965 2.104a12.736 12.736 0 0 1 3.222-2.21l.484-4.467 5.528-.582.993 4.311a11.31 11.31 0 0 1 3.437 1.51l2.687-2.699 4.215 4.856-1.562 3.996a21.278 21.278 0 0 1 1.641 4.339l3.315.652.433 7.448-3.2 1.337a23.03 23.03 0 0 1-1.121 4.631l2.004 3.62-3.605 5.678-2.966-2.104a12.713 12.713 0 0 1-3.221 2.21l-.484 4.467-5.529.581-.992-4.311a11.308 11.308 0 0 1-3.437-1.509l-2.688 2.699-4.214-4.856 1.561-3.996a21.299 21.299 0 0 1-1.64-4.339l-3.316-.652-.431-7.448 3.2-1.337Zm7.492 2.258c-.335 5.34 3.12 9.525 6.96 8.631 2.617-.61 4.669-3.59 4.894-7.156.336-5.341-3.12-9.528-6.961-8.632-2.617.611-4.669 3.591-4.893 7.157ZM94.603 240.803c.042-1.947.28-3.853.692-5.672l-2.819-3.742 3.451-7.493 3.74 1.739c1.028-1.306 2.189-2.439 3.466-3.355l-.03-5.328 6.374-2.011 1.73 4.79c1.446.057 2.86.377 4.211.934l2.777-3.797 5.562 4.649-1.291 5.039a22.65 22.65 0 0 1 2.49 4.668l3.955-.039 1.493 8.585-3.556 2.331a28.52 28.52 0 0 1-.692 5.673l2.819 3.741-3.451 7.494-3.74-1.74c-1.028 1.305-2.19 2.438-3.465 3.354l.029 5.328-6.373 2.012-1.731-4.791a12.313 12.313 0 0 1-4.211-.933l-2.777 3.797-5.562-4.649 1.29-5.038a22.702 22.702 0 0 1-2.49-4.668l-3.954.039-1.493-8.586 3.556-2.331Zm9.218 2.416c.885 5.088 4.662 8.245 8.439 7.054 3.775-1.192 6.119-6.282 5.235-11.369-.885-5.087-4.663-8.245-8.439-7.053-3.776 1.192-6.12 6.282-5.235 11.368Z"/>
  <path fill="#EBEBEB" d="M106.045 169.215c.166-1.223.453-2.396.844-3.491l-1.51-2.729 2.717-4.281 2.236 1.586a9.616 9.616 0 0 1 2.429-1.666l.365-3.368 4.168-.438.748 3.25a8.51 8.51 0 0 1 2.592 1.138l2.026-2.035 3.177 3.66-1.177 3.013c.512 1 .931 2.097 1.236 3.271l2.5.491.326 5.616-2.413 1.007a17.27 17.27 0 0 1-.845 3.492l1.511 2.729-2.717 4.281-2.236-1.586a9.624 9.624 0 0 1-2.429 1.666l-.364 3.368-4.168.439-.748-3.251a8.533 8.533 0 0 1-2.592-1.137l-2.026 2.035-3.178-3.661 1.178-3.012c-.513-1-.931-2.098-1.237-3.272l-2.499-.491-.326-5.615 2.412-1.009Zm5.646 2.728c.193 3.327 2.351 5.813 4.82 5.553 2.47-.26 4.315-3.168 4.122-6.494-.193-3.327-2.351-5.813-4.82-5.553-2.47.26-4.315 3.167-4.122 6.494Zm104.241 57.739a14.92 14.92 0 0 1 .725-2.999l-1.298-2.344 2.334-3.677 1.921 1.362a8.273 8.273 0 0 1 2.086-1.431l.314-2.892 3.58-.377.643 2.791c.78.193 1.527.526 2.226.978l1.74-1.748 2.729 3.144-1.011 2.588c.44.859.8 1.801 1.062 2.81l2.147.422.28 4.823-2.072.866a14.904 14.904 0 0 1-.726 2.999l1.298 2.345-2.334 3.677-1.921-1.363a8.255 8.255 0 0 1-2.086 1.431l-.313 2.892-3.581.377-.642-2.792a7.332 7.332 0 0 1-2.226-.977l-1.741 1.748-2.729-3.145 1.011-2.587a13.828 13.828 0 0 1-1.062-2.811l-2.147-.422-.28-4.823 2.073-.865Zm4.849 2.343c.166 2.858 2.02 4.994 4.141 4.771 2.121-.223 3.707-2.721 3.541-5.579-.166-2.857-2.02-4.993-4.141-4.769-2.121.223-3.706 2.72-3.541 5.577Z"/>
  <path fill="url(#e)" d="M171.94 236.95h-24.744c-6.39 0-10.384-9.319-7.189-16.774l12.372-28.869 12.373-28.868c3.194-7.455 11.182-7.455 14.377 0l12.373 28.868 12.372 28.869c3.195 7.455-.799 16.774-7.189 16.774H171.94Z"/>
  <path fill="#263238" d="M198.578 223.51s.069.172.194.518c.094.358.251.906.25 1.664a5.82 5.82 0 0 1-.579 2.633c-.23.454-.534.9-.932 1.25-.399.342-.889.579-1.422.627-4.217.061-10.306.051-17.836.076l-26.448.037-3.778.004c-1.342.039-2.618-1.245-3.049-2.972a6.448 6.448 0 0 1-.125-2.699c.043-.221.097-.441.15-.658.073-.207.142-.422.219-.623l.477-1.176 1.931-4.758 8.047-19.817a130646.73 130646.73 0 0 1 11.885-29.243c.319-.768.611-1.538.948-2.294.341-.765.819-1.424 1.392-1.862 1.141-.896 2.58-.959 3.742-.226.58.364 1.098.908 1.478 1.591.374.701.633 1.437.931 2.15l1.72 4.242 3.288 8.113 5.897 14.563 8.525 21.101 2.306 5.745.594 1.498c.133.338.195.516.195.516s-.077-.166-.218-.499l-.616-1.482-2.349-5.713-8.596-21.047-5.926-14.544-3.299-8.104-1.725-4.238c-.296-.709-.568-1.465-.914-2.108a4.11 4.11 0 0 0-1.391-1.493c-1.092-.687-2.45-.626-3.519.217-.538.411-.985 1.031-1.305 1.751-.326.731-.625 1.519-.941 2.282l-3.826 9.428-8.049 19.823-8.051 19.814-1.934 4.757c-.305.799-.694 1.536-.824 2.371a6 6 0 0 0 .116 2.509c.404 1.611 1.576 2.79 2.816 2.758l3.778.003 26.448.037 17.829.036a2.477 2.477 0 0 0 1.382-.592c.389-.335.687-.767.916-1.208a5.742 5.742 0 0 0 .591-2.574c-.021-1.503-.441-2.172-.393-2.184Z"/>
  <path fill="#fff" d="M167.938 217.341c0-2.956 1.748-5.16 4.239-5.16 2.492 0 4.203 2.204 4.203 5.16 0 2.907-1.711 5.262-4.203 5.262-2.491 0-4.239-2.355-4.239-5.262Zm.037-30.263h8.405l-1.413 22.297h-5.616l-1.376-22.297Zm5.147-27.953c-.018.07-.578-.375-1.575-.437-.98-.078-2.391.357-3.586 1.615-1.193 1.268-1.92 2.908-2.371 4.101-.451 1.207-.663 2.002-.703 1.981-.016-.007.018-.214.104-.578.085-.364.225-.884.434-1.509.414-1.236 1.134-2.948 2.377-4.27 1.251-1.317 2.739-1.732 3.758-1.586.513.066.916.229 1.177.388.262.156.392.277.385.295Zm-10.339 12.248c-.062-.049.182-.758.545-1.582.362-.826.705-1.455.767-1.405.062.048-.182.757-.545 1.582-.362.825-.705 1.454-.767 1.405Z"/>
  <path fill="#fff" d="m184.353 174.629-38.535 31.99-5.006 11.679 46.261-37.321-2.72-6.348Zm6.069 14.176-51.078 40.591c.146.921.605 2.11 1.109 2.892l50.873-41.375-.904-2.108Z" opacity=".3"/>
  <path fill="#E0E0E0" d="M316.661 264.5c-4.091-6.075-10.293-8.027-15.737-5.677l-4.761-7.037-.663-.999-37.662-55.668c2.263-7.072 1.423-15.577-2.668-21.652-3.48-5.166-8.487-7.353-13.255-6.447l-1.84.985 6.406 5.796-.339 9.41-5.179 6.331-6.985-.458-4.567-6.78-1.887.993c-.541 5.68 2.286 12.831 5.365 17.404 4.085 6.066 10.275 8.021 15.713 5.688l38.293 56.601 1.178 1.759 3.629 5.365c-2.251 7.065-1.407 15.554 2.678 21.62 3.067 4.555 7.136 7.596 11.367 7.441l1.888-.993-4.567-6.782.34-9.41 5.179-6.331 6.985.458 2.679 7.775 1.888-.994c1.132-6.306.002-13.231-3.478-18.398Z"/>
  <path fill="#000" d="M316.661 264.5c-4.091-6.075-10.293-8.027-15.737-5.677l-4.761-7.037-.663-.999-37.662-55.668c2.263-7.072 1.423-15.577-2.668-21.652-3.48-5.166-8.487-7.353-13.255-6.447l-1.84.985 6.406 5.796-.339 9.41-5.179 6.331-6.985-.458-4.567-6.78-1.887.993c-.541 5.68 2.286 12.831 5.365 17.404 4.085 6.066 10.275 8.021 15.713 5.688l38.293 56.601 1.178 1.759 3.629 5.365c-2.251 7.065-1.407 15.554 2.678 21.62 3.067 4.555 7.136 7.596 11.367 7.441l1.888-.993-4.567-6.782.34-9.41 5.179-6.331 6.985.458 2.679 7.775 1.888-.994c1.132-6.306.002-13.231-3.478-18.398Z" opacity=".3"/>
  <path fill="#E0E0E0" d="M314.775 265.492c-4.091-6.075-10.293-8.026-15.737-5.677l-4.761-7.037-.663-.999-37.662-55.668c2.263-7.072 1.423-15.577-2.669-21.652-3.479-5.166-8.486-7.353-13.255-6.447l4.567 6.78-.339 9.41-5.179 6.331-6.986-.457-4.566-6.781c-1.132 6.305-.002 13.231 3.478 18.397 4.085 6.066 10.275 8.021 15.713 5.688l38.293 56.601 1.177 1.759 3.629 5.365c-2.25 7.065-1.406 15.554 2.679 21.62 3.479 5.166 8.486 7.353 13.255 6.447l-4.567-6.78.339-9.41 5.179-6.331 6.985.458 4.567 6.78c1.133-6.305.003-13.23-3.477-18.397Z"/>
  <path fill="#263238" d="M314.773 265.493s.217.323.632.97c.383.679.972 1.683 1.556 3.164.587 1.473 1.165 3.422 1.512 5.838.314 2.413.387 5.315-.17 8.443l-.023.132-.068-.101-4.575-6.771.044.028-6.985-.445.053-.026-5.175 6.339.027-.075-.333 9.41-.022-.085c1.413 2.097 2.968 4.4 4.571 6.776l.117.174-.173.034c-2.363.455-4.891.155-7.28-1.01-2.387-1.155-4.624-3.188-6.359-5.94-1.748-2.728-2.992-6.186-3.436-9.93-.456-3.734-.132-7.735 1.026-11.371l.02.161-43.112-63.71.134.049c-2.636 1.133-5.593 1.294-8.406.317-2.815-.959-5.454-3.089-7.446-6.061-1.676-2.487-2.879-5.522-3.474-8.745a27.485 27.485 0 0 1-.029-9.803l.057-.319.164.243 4.566 6.781-.089-.057 6.985.459-.092.044 5.18-6.33-.041.118.34-9.409.033.121-4.566-6.782-.157-.234.231-.042c2.811-.514 5.691.009 8.217 1.52 2.53 1.495 4.706 3.911 6.252 6.858 1.556 2.937 2.511 6.384 2.742 9.868.244 3.482-.184 6.973-1.168 10.077l-.02-.161 43.045 63.754-.06-.022c2.695-1.154 5.256-1.115 7.36-.614a13.283 13.283 0 0 1 5.023 2.579c1.25 1.01 2.057 2.039 2.605 2.7.513.715.767 1.086.767 1.086s-.27-.352-.788-1.057c-.553-.65-1.365-1.665-2.614-2.66a13.25 13.25 0 0 0-5.009-2.532c-2.093-.485-4.637-.511-7.309.646l-.035.015-.024-.037-43.126-63.654-.048-.072.028-.089c.967-3.06 1.387-6.499 1.144-9.928-.23-3.431-1.172-6.823-2.705-9.712-1.524-2.9-3.667-5.276-6.157-6.745-2.485-1.485-5.32-1.997-8.085-1.49l.074-.276 4.568 6.779.035.052-.002.069-.339 9.41-.002.071-.039.047-5.178 6.332-.039.047-.053-.003-6.985-.456-.053-.004-.036-.052-4.567-6.78.221-.076a27.022 27.022 0 0 0 .029 9.637c.585 3.167 1.767 6.15 3.415 8.595 1.959 2.922 4.552 5.015 7.318 5.958 2.765.961 5.673.802 8.264-.311l.079-.034.055.082 43.087 63.741.049.071-.028.089c-1.144 3.581-1.465 7.524-1.019 11.206.435 3.692 1.657 7.102 3.38 9.796 1.709 2.718 3.914 4.726 6.269 5.871 2.356 1.155 4.853 1.456 7.187 1.011l-.055.208-4.563-6.786-.024-.036.002-.048.346-9.41.002-.044.024-.031 5.185-6.322.022-.028.03.002 6.985.47.027.002.018.027 4.559 6.79-.092.032c.561-3.104.497-5.987.193-8.389-.337-2.405-.904-4.349-1.479-5.823-.574-1.481-1.155-2.49-1.53-3.175a68.148 68.148 0 0 1-.612-.996Z"/>
  <path fill="#263238" d="M254.234 199.36c.015.012-.044.189-.164.5-.117.314-.314.748-.579 1.264a15.355 15.355 0 0 1-2.517 3.533c-1.134 1.171-2.305 1.946-3.182 2.369-.439.213-.8.357-1.056.429-.254.077-.395.108-.4.085-.011-.057.542-.264 1.39-.741.848-.475 1.98-1.267 3.092-2.415a17.514 17.514 0 0 0 2.527-3.405c.561-.982.851-1.648.889-1.619Z"/>
  <path fill="#E4897B" d="m296.288 223.538-14.327-8.98-12.788-2.148 4.697 5.329s-16.531 7.761-16.821 9.511c-.29 1.75 1.306 6.451 4.218 5.583 0 0-1.638 2.655-.956 5.631.682 2.975 2.188 3.513 4.967 2.822 0 0-1.891 3.813-.409 5.756 1.483 1.945 3.789 1.451 3.789 1.451s.027 4.644 1.849 5.05c1.821.407 6.894-.075 8.788-.862l9.622-4.003 6.272-1.854 1.099-23.286Z"/>
  <path fill="#853510" d="M269.958 229.433c.055.255-1.847 1.224-4.248 2.164-2.402.94-4.392 1.494-4.447 1.239-.055-.255 1.846-1.223 4.248-2.163 2.401-.94 4.392-1.495 4.447-1.24Zm2.436 9.164c.057.255-1.454 1.092-3.374 1.872-1.921.778-3.524 1.204-3.581.949-.057-.254 1.454-1.092 3.375-1.871 1.92-.78 3.523-1.204 3.58-.95Zm2.185 7.615c.033.286-1.339.678-2.951 1.222-1.604.568-2.867 1.312-2.967 1.06-.093-.21 1.068-1.378 2.784-1.99 1.707-.574 3.108-.529 3.134-.292Zm1.803-29.211c.054.261-1.823 1.178-4.142 2.256-2.321 1.073-4.22 1.905-4.296 1.656-.075-.241 1.718-1.481 4.063-2.566 2.344-1.089 4.325-1.598 4.375-1.346Z"/>
  <path fill="#E4897B" d="m293.597 221.852 30.978 15.113-1.811 28.645-34.104-18.524 4.937-25.234Z"/>
  <path fill="url(#f)" d="M333.343 171.727s4.04 5.624 6.391 15.734c2.334 10.039 13.443 52.967 13.16 66.607-.293 14.102-7.34 24.165-22.828 18.592-9.242-3.325-20.25-8.702-20.25-8.702l7.825-34.661 6.122 2.079-9.885-25 19.465-34.649Z"/>
  <path fill="#263238" d="M326.256 188.11c.058.056-4.226 8.278-9.567 18.362-5.343 10.089-9.72 18.218-9.778 18.163-.058-.057 4.225-8.277 9.567-18.365 5.342-10.085 9.72-18.217 9.778-18.16Zm11.852 48.01c-.011.025-.267-.177-.751-.476a11.866 11.866 0 0 0-2.124-1.012c-.918-.342-2.032-.662-3.269-1.024l-4.021-1.197a519.324 519.324 0 0 1-7.292-2.249l-2.203-.721c-.519-.178-.804-.288-.8-.311.004-.024.297.041.823.178l2.222.612c1.873.532 4.457 1.291 7.309 2.15l4.015 1.224c1.233.38 2.346.725 3.267 1.101.921.373 1.643.784 2.117 1.127.239.168.417.314.535.421.118.106.177.167.172.177Z"/>
  <path fill="#000" d="M346.028 237.625a5.302 5.302 0 0 0-2.132-3.839c-1.089-.786-2.336-1.06-3.559-1.286-5.567-1.029-11.194-1.314-16.81-1.598l.52.304c6.931 1.724 13.732 4.393 20.266 7.955.376.205.803.412 1.173.19.453-.273.591-1.061.542-1.726ZM218.396 104.722c-5.22-1.196-11.465.844-16.686-.352-.78-.178-1.633-.341-2.319.191-.824.64-1.109 2.057-1.15 3.336-.111 3.541 1.105 7.035 3.002 9.49 1.897 2.454 4.422 3.92 7.016 4.513 2.084.477 4.324.386 6.183-.971 3.244-2.367 4.814-11.373 3.954-16.207Z" opacity=".3"/>
  <path fill="#E4897B" d="M198.132 117.591s-3.168-4.999-3.627-7.308c-.305-1.53-.152-5.808-.014-8.52.094-1.86.951-3.558 2.261-4.157.457-.208.889-.235 1.182.13 0 0 .2-.469 1.444-2.183 1.243-1.715 1.833-2.877 4.57-1.81 0 0 2.012-2.863 3.17-2.65 1.158.215 2.305.67 2.305.67s4.412-.25 5.316 1.637c.396.825 1.211 1.402 2.003 1.79 1.393.68 2.538 2.047 3.147 3.868.828 2.477.88 5.179.88 5.179l-4.488.24s.317 13.873-.811 14.992c-1.127 1.119-1.558.721-1.558.721s-.86 3.256-4.216.846c0 0-2.787 1.132-3.975-.415-1.189-1.547-5.56-16.416-5.56-16.416l.122 7.39s2.303 4.782 1.175 5.901c-1.126 1.119-3.326.095-3.326.095Z"/>
  <path fill="#853510" d="M203.722 98.785c.017-.007.107.304.255.871l.606 2.416a754.094 754.094 0 0 1 1.906 8.007c.737 3.131 1.33 5.998 2.019 7.929.333.971.669 1.712.913 2.211.244.501.399.761.381.781-.007.008-.052-.05-.132-.167a6.06 6.06 0 0 1-.331-.535 15.028 15.028 0 0 1-.995-2.183c-.743-1.933-1.367-4.807-2.102-7.932a766.914 766.914 0 0 1-1.833-8.038l-.528-2.448c-.119-.58-.177-.904-.159-.912Zm5.508-1.711c.017-.006.098.314.228.899l.53 2.482c.436 2.1 1.021 5.007 1.652 8.222a809.672 809.672 0 0 1 1.579 8.25l.45 2.511c.101.595.148.926.131.933-.017.007-.097-.314-.228-.897l-.529-2.482c-.437-2.1-1.022-5.008-1.653-8.226a804.428 804.428 0 0 1-1.579-8.25l-.45-2.51c-.101-.594-.148-.926-.131-.932Z"/>
  <defs>
    <linearGradient id="a" x1="23.264" x2="52.409" y1="259.167" y2="259.375" gradientUnits="userSpaceOnUse">
      <stop stop-color="#FB8D48"/>
      <stop offset=".2" stop-color="#ED7136"/>
      <stop offset=".4" stop-color="#C54E47"/>
      <stop offset=".4" stop-color="#C14F49"/>
      <stop offset=".6" stop-color="#9D3863"/>
      <stop offset=".8" stop-color="#5E1F72"/>
    </linearGradient>
    <linearGradient id="b" x1="275.105" x2="338.637" y1="66.581" y2="68.064" gradientUnits="userSpaceOnUse">
      <stop stop-color="#FB8D48"/>
      <stop offset=".2" stop-color="#ED7136"/>
      <stop offset=".4" stop-color="#C54E47"/>
      <stop offset=".4" stop-color="#C14F49"/>
      <stop offset=".6" stop-color="#9D3863"/>
      <stop offset=".8" stop-color="#5E1F72"/>
    </linearGradient>
    <linearGradient id="c" x1="319.362" x2="340.353" y1="68.074" y2="68.543" gradientUnits="userSpaceOnUse">
      <stop stop-color="#FB8D48"/>
      <stop offset=".2" stop-color="#ED7136"/>
      <stop offset=".4" stop-color="#C54E47"/>
      <stop offset=".4" stop-color="#C14F49"/>
      <stop offset=".6" stop-color="#9D3863"/>
      <stop offset=".8" stop-color="#5E1F72"/>
    </linearGradient>
    <linearGradient id="d" x1="245" x2="272.316" y1="287.424" y2="145.479" gradientUnits="userSpaceOnUse">
      <stop stop-color="#FB8D48"/>
      <stop offset=".2" stop-color="#ED7136"/>
      <stop offset=".4" stop-color="#C54E47"/>
      <stop offset=".4" stop-color="#C14F49"/>
      <stop offset=".6" stop-color="#9D3863"/>
      <stop offset=".8" stop-color="#5E1F72"/>
    </linearGradient>
    <linearGradient id="e" x1="140.033" x2="205.231" y1="191.336" y2="192.38" gradientUnits="userSpaceOnUse">
      <stop stop-color="#FB8D48"/>
      <stop offset=".2" stop-color="#ED7136"/>
      <stop offset=".4" stop-color="#C54E47"/>
      <stop offset=".4" stop-color="#C14F49"/>
      <stop offset=".6" stop-color="#9D3863"/>
      <stop offset=".8" stop-color="#5E1F72"/>
    </linearGradient>
    <linearGradient id="f" x1="284" x2="299.192" y1="271.924" y2="158.423" gradientUnits="userSpaceOnUse">
      <stop stop-color="#FB8D48"/>
      <stop offset=".2" stop-color="#ED7136"/>
      <stop offset=".4" stop-color="#C54E47"/>
      <stop offset=".4" stop-color="#C14F49"/>
      <stop offset=".6" stop-color="#9D3863"/>
      <stop offset=".8" stop-color="#5E1F72"/>
    </linearGradient>
  </defs>
</svg>
