<svg xmlns="http://www.w3.org/2000/svg" width="579" height="561" fill="none" viewBox="0 0 579 561">
  <path fill="#E86B31" d="m511.333 443.263 13.31 7.439c-.177-4.599-.591-11.439.065-16.044 4.019-28.164 15.352-37.45 20.742-51.158 5.674-14.436-1.248-19.082-10.237-16.486-8.017 2.315-19.619 13.801-23.274 34.818-2.428 13.984-1.997 29.17-.606 41.431Z"/>
  <path fill="#fff" d="m511.333 443.263 13.31 7.439c-.177-4.599-.591-11.439.065-16.044 4.019-28.164 15.352-37.45 20.742-51.158 5.674-14.436-1.248-19.082-10.237-16.486-8.017 2.315-19.619 13.801-23.274 34.818-2.428 13.984-1.997 29.17-.606 41.431Z" opacity=".65"/>
  <path fill="#fff" d="m518.389 447.208 1.333.744c-4.761-32.835 6.835-61.313 18.281-73.075a.552.552 0 0 0-.022-.796.604.604 0 0 0-.828.022c-11.44 11.765-23.03 40.435-18.764 73.105Z"/>
  <path fill="#E86B31" d="m520.902 448.611 7.491 4.188h.006c3.983-11.35 8.072-15.897 13.149-23.363 4.627-6.794 10.007-11.003 12.865-15.777 2.531-4.23 4.432-9.542.671-12.756-5.986-5.118-13.8.296-19.173 6.149-4.643 5.06-13.983 18.524-15.009 41.559Z"/>
  <path fill="#fff" d="m520.902 448.611 7.491 4.188h.006c3.983-11.35 8.072-15.897 13.149-23.363 4.627-6.794 10.007-11.003 12.865-15.777 2.531-4.23 4.432-9.542.671-12.756-5.986-5.118-13.8.296-19.173 6.149-4.643 5.06-13.983 18.524-15.009 41.559Z" opacity=".3"/>
  <path fill="#fff" d="m523.975 450.328 1.09.615c3.144-17.953 15.74-38.725 23.569-43.631a.565.565 0 0 0 .172-.801.6.6 0 0 0-.823-.172c-8.102 5.087-20.671 25.761-24.008 43.989Z"/>
  <path fill="#E86B31" d="m69.99 447.573-11.988 6.701c.16-4.142.533-10.304-.058-14.45-3.62-25.368-13.828-33.732-18.682-46.078-5.11-13.002 1.123-17.187 9.22-14.849 7.221 2.086 17.671 12.431 20.962 31.361 2.188 12.595 1.8 26.272.547 37.315Z"/>
  <path fill="#fff" d="m69.99 447.573-11.988 6.701c.16-4.142.533-10.304-.058-14.45-3.62-25.368-13.828-33.732-18.682-46.078-5.11-13.002 1.123-17.187 9.22-14.849 7.221 2.086 17.671 12.431 20.962 31.361 2.188 12.595 1.8 26.272.547 37.315Z" opacity=".65"/>
  <path fill="#fff" d="m63.635 451.125-1.2.67c4.288-29.575-6.156-55.223-16.466-65.817a.498.498 0 0 1 .02-.717.546.546 0 0 1 .745.019c10.305 10.598 20.745 36.42 16.901 65.845Z"/>
  <path fill="#E86B31" d="m61.37 452.39-6.747 3.773h-.005c-3.586-10.224-7.27-14.32-11.843-21.043-4.167-6.118-9.011-9.91-11.587-14.21-2.28-3.81-3.993-8.593-.604-11.489 5.391-4.611 12.429.267 17.269 5.538 4.18 4.557 12.592 16.684 13.516 37.431Z"/>
  <path fill="#fff" d="m61.37 452.39-6.747 3.773h-.005c-3.586-10.224-7.27-14.32-11.843-21.043-4.167-6.118-9.011-9.91-11.587-14.21-2.28-3.81-3.993-8.593-.604-11.489 5.391-4.611 12.429.267 17.269 5.538 4.18 4.557 12.592 16.684 13.516 37.431Z" opacity=".3"/>
  <path fill="#fff" d="m58.602 453.937-.982.553c-2.831-16.17-14.176-34.88-21.228-39.298a.51.51 0 0 1-.155-.722.54.54 0 0 1 .74-.154c7.299 4.583 18.62 23.203 21.625 39.621Z"/>
  <path fill="#E6E6E6" d="m323.51 373.333-33.082-18.491c-6.791-3.796-18.228-4.662-25.547-1.935l-19.636 7.317c-7.318 2.727-18.244 8.745-24.406 13.441l-19.981 15.23c-2.871 2.189-4.282 4.85-4.291 7.454-.002.735-.005 3.673.002 4.42.029 2.942 1.85 5.8 5.429 7.8l33.081 18.49c6.791 3.795 17.801 3.795 24.591 0l63.84-35.683c3.409-1.905 5.096-4.404 5.077-6.902-.005-.711-.001-3.547 0-4.269.006-2.486-1.681-4.974-5.077-6.872Z"/>
  <path fill="#E0E0E0" d="M196.569 400.77c.029 2.943 1.85 5.801 5.43 7.801l33.08 18.489c3.395 1.898 7.846 2.847 12.296 2.847v-4.571l-50.809-28.398a576.34 576.34 0 0 0 .003 3.832Z"/>
  <path fill="#000" d="M196.569 400.77c.029 2.943 1.85 5.801 5.43 7.801l33.08 18.489c3.395 1.898 7.846 2.847 12.296 2.847v-4.571l-50.809-28.398a576.34 576.34 0 0 0 .003 3.832Z" opacity=".1"/>
  <path fill="#F0F0F0" d="m264.882 352.91-19.636 7.317c-7.317 2.727-18.244 8.745-24.406 13.441l-19.981 15.231c-6.161 4.696-5.65 11.579 1.14 15.375l33.081 18.49c6.791 3.795 17.801 3.795 24.591 0l63.84-35.683c6.79-3.796 6.79-9.949 0-13.745l-33.082-18.491c-6.792-3.795-18.229-4.661-25.547-1.935Z"/>
  <path fill="#000" d="M290.428 354.846c-6.791-3.796-18.228-4.662-25.547-1.935l-19.636 7.317c-7.318 2.727-18.244 8.745-24.406 13.441l-19.981 15.23c-2.871 2.189-4.282 4.85-4.291 7.454-.002.735-.005 3.673.002 4.42.029 2.942 1.85 5.8 5.429 7.8l18.431 10.301v-4.28l88.447-49.435-18.448-10.313Z" opacity=".1"/>
  <path fill="#E0E0E0" d="M259.431 374.291c0-9.439 3.056-39.175 9.461-46.134l-20.481-2.19c-10.075 10.308-22.133 34.929-29.429 49.116 0 0 6.009 2.372 13.426 5.338 7.417 2.968 17.734 2.968 23.042 0 2.703-1.51 4.022-3.749 3.972-6.13h.009Z"/>
  <path fill="#000" d="M259.431 374.291c0-9.439 3.056-39.175 9.461-46.134l-20.481-2.19c-10.075 10.308-22.133 34.929-29.429 49.116 0 0 6.009 2.372 13.426 5.338 7.417 2.968 17.734 2.968 23.042 0 2.703-1.51 4.022-3.749 3.972-6.13h.009Z" opacity=".1"/>
  <path fill="#E0E0E0" d="M255.607 328.828c3.976 1.591 9.504 1.591 12.349 0 2.845-1.589 2.845-4.684 0-6.91l-5.152-4.031c-5.022 1.987-9.845 4.603-14.394 8.08 0 0 3.222 1.27 7.197 2.861Z"/>
  <path fill="#4C5052" d="M143.596 420.839c2.821 1.576 7.546 1.492 10.553-.189 37.577-21.002 210.365-117.597 247.935-138.595 3.007-1.681 5.444-5.768 5.444-9.129V51.133c0-3.362-2.287-7.364-5.108-8.941-2.821-1.577-7.546-1.492-10.552.188L143.937 180.977c-3.007 1.681-5.445 5.769-5.445 9.13l-.004 221.791c0 3.361 2.287 7.364 5.108 8.941Z"/>
  <path fill="#4C5052" d="m154.151 420.646 247.932-138.595c3.009-1.681 5.445-5.769 5.445-9.13V51.129c0-3.362-2.437-4.724-5.445-3.044L154.155 186.682c-3.007 1.68-5.444 5.767-5.444 9.13l-.004 221.791c-.001 3.361 2.436 4.723 5.444 3.043Z"/>
  <path fill="#EBEBEB" d="M148.707 399.668v17.933c0 3.361 2.438 4.724 5.445 3.043l247.932-138.595c3.009-1.68 5.445-5.769 5.445-9.13v-17.935L148.707 399.668Z"/>
  <path fill="#263238" d="m155.9 382.987.003-184.828c0-2.068 1.499-4.581 3.347-5.615L396.974 59.652c1.849-1.034 3.349-.196 3.349 1.872l.009 184.831c0 2.068-1.498 4.581-3.349 5.615L159.248 384.858c-1.848 1.033-3.348.195-3.348-1.871Zm-15.805-198.091 10.211 5.698c-.982 1.656-1.584 3.53-1.609 5.21v197.191l.008 24.605c0 3.068 2.143 4.782 5.442 3.05-3.296 1.855-7.986 1.625-10.552.188-2.818-1.583-5.111-4.92-5.111-8.304V190.107c.002-1.68.63-3.555 1.611-5.211Z"/>
  <path fill="#BA68C8" d="m275.114 339.026 12.315-6.844c1.102-.617 1.996-.179 1.996.977s-.894 2.593-1.996 3.21l-12.315 6.844c-1.103.617-1.997.178-1.997-.978 0-1.157.894-2.594 1.997-3.209Z"/>
  <path fill="#455A64" d="M162.971 375.49c-.307 0-.612-.077-.891-.233a1.702 1.702 0 0 1-.894-1.498l.002-175.219.025-.073a1.79 1.79 0 0 1 .333-.556l.12-.094L392.832 68.413a1.819 1.819 0 0 1 1.787-.001c.558.313.892.872.892 1.497l.007 175.224-.025.073a1.759 1.759 0 0 1-.329.551l-.123.097-231.177 129.401a1.82 1.82 0 0 1-.893.235Zm-.802-176.779-.003 175.048c0 .282.151.535.403.675a.817.817 0 0 0 .804 0L394.466 245.08c.024-.035.051-.08.07-.118l-.007-175.053a.766.766 0 0 0-.402-.674.823.823 0 0 0-.806 0L162.24 198.59a.981.981 0 0 0-.071.121Z"/>
  <path fill="#37474F" d="M395.021 86.22V69.91c0-.965-1.079-1.569-1.943-1.086L161.912 198.227a1.377 1.377 0 0 0-.234.391l-.002 18.223 233.345-130.62Z"/>
  <path fill="#BA68C8" d="m167.118 198.21 1.434-.803c.704-.394 1.274-.075 1.274.712v1.605c0 .787-.571 1.743-1.274 2.137l-1.434.803c-.705.393-1.274.074-1.274-.712v-1.606c0-.787.569-1.743 1.274-2.136Z"/>
  <path fill="#455A64" d="m167.118 206.315 1.434-.803c.704-.393 1.274-.075 1.274.712v1.606c0 .787-.571 1.743-1.274 2.136l-1.434.803c-.705.394-1.274.075-1.274-.712v-1.605c0-.787.569-1.745 1.274-2.137Zm27.888-15.586 1.435-.803c.704-.393 1.274-.074 1.274.712v1.606c0 .786-.571 1.743-1.274 2.136l-1.435.803c-.704.393-1.274.075-1.274-.712v-1.605c0-.787.57-1.744 1.274-2.137Z"/>
  <path fill="#263238" d="m202.973 186.273 1.435-.802c.704-.393 1.274-.075 1.274.712v1.606c0 .787-.571 1.743-1.274 2.136l-1.435.803c-.704.394-1.274.075-1.274-.712v-1.605c0-.788.57-1.745 1.274-2.138Z"/>
  <path fill="#455A64" d="m210.942 181.819 1.435-.803c.704-.393 1.273-.074 1.273.712v1.605c0 .787-.571 1.744-1.273 2.137l-1.435.802c-.704.393-1.274.075-1.274-.712v-1.606c0-.785.57-1.743 1.274-2.135Zm-37.131 15.353a.491.491 0 0 1-.424-.237.464.464 0 0 1 .179-.648l11.952-6.682a.497.497 0 0 1 .669.174.464.464 0 0 1-.179.648l-11.952 6.682a.505.505 0 0 1-.245.063Zm35.856-20.044a.49.49 0 0 1-.423-.238.465.465 0 0 1 .179-.648l11.952-6.681a.495.495 0 0 1 .669.173.464.464 0 0 1-.179.648l-11.952 6.682a.497.497 0 0 1-.246.064Zm51.793-28.949a.489.489 0 0 1-.423-.237.465.465 0 0 1 .179-.648l11.952-6.681a.496.496 0 0 1 .669.174.465.465 0 0 1-.179.648l-11.952 6.681a.506.506 0 0 1-.246.063Zm-67.728 37.857a.49.49 0 0 1-.423-.238.464.464 0 0 1 .179-.648l7.968-4.454a.496.496 0 0 1 .67.174.466.466 0 0 1-.18.648l-7.968 4.454a.519.519 0 0 1-.246.064Zm35.855-20.043a.493.493 0 0 1-.425-.237.465.465 0 0 1 .179-.648l7.969-4.454a.499.499 0 0 1 .67.173.466.466 0 0 1-.18.648l-7.969 4.454a.492.492 0 0 1-.244.064Zm15.937-8.905a.492.492 0 0 1-.425-.238.466.466 0 0 1 .18-.648l7.968-4.454a.497.497 0 0 1 .669.174.465.465 0 0 1-.179.648l-7.969 4.454a.497.497 0 0 1-.244.064Zm35.858-20.041a.487.487 0 0 1-.423-.238.465.465 0 0 1 .179-.648l7.968-4.454a.497.497 0 0 1 .67.174.465.465 0 0 1-.18.648l-7.968 4.454a.497.497 0 0 1-.246.064Zm15.936-8.909a.49.49 0 0 1-.424-.237.465.465 0 0 1 .18-.648l3.984-2.228a.498.498 0 0 1 .67.174.466.466 0 0 1-.18.648l-3.985 2.227a.493.493 0 0 1-.245.064Zm11.954-6.68a.488.488 0 0 1-.424-.238.465.465 0 0 1 .178-.648l11.952-6.68a.498.498 0 0 1 .669.174.465.465 0 0 1-.179.648l-11.952 6.68a.49.49 0 0 1-.244.064Z"/>
  <path fill="#263238" d="m174.659 201.663 10.253-5.73c.469-.263.85-.05.85.474v2.555c0 .524-.38 1.162-.85 1.423l-10.253 5.731c-.469.263-.848.05-.848-.475v-2.555c0-.522.379-1.16.848-1.423Zm43.825-24.537 10.254-5.73c.469-.263.85-.05.85.474v2.555c0 .524-.381 1.162-.85 1.423l-10.254 5.731c-.469.263-.849.05-.849-.475v-2.555c0-.522.38-1.16.849-1.423Zm39.841-22.265 10.253-5.731c.469-.262.85-.049.85.474v2.555c0 .525-.381 1.163-.85 1.425l-10.253 5.731c-.469.262-.848.049-.848-.476v-2.554c0-.524.379-1.162.848-1.424Zm35.857-20.041 10.253-5.731c.469-.262.849-.049.849.475v2.555c0 .525-.38 1.163-.849 1.424l-10.253 5.731c-.469.262-.85.049-.85-.476v-2.555c.001-.523.381-1.161.85-1.423Z"/>
  <path fill="#455A64" d="M237.557 168.926a.494.494 0 0 1-.425-.237.466.466 0 0 1 .18-.648l15.935-8.908a.496.496 0 0 1 .669.173.464.464 0 0 1-.179.648l-15.935 8.908a.496.496 0 0 1-.245.064Zm39.856-22.16a.494.494 0 0 1-.425-.238.465.465 0 0 1 .179-.648l10.681-5.97a.496.496 0 0 1 .669.174.466.466 0 0 1-.18.648l-10.68 5.97a.503.503 0 0 1-.244.064Z"/>
  <path fill="#E0E0E0" d="M391.213 73.156c.97-.542 1.758-.103 1.758.983 0 1.087-.788 2.406-1.758 2.949-.972.542-1.758.103-1.758-.983-.001-1.086.786-2.406 1.758-2.949Z"/>
  <path fill="#263238" d="M384.883 76.69c.971-.543 1.758-.104 1.758.983 0 1.086-.788 2.406-1.758 2.948-.972.543-1.758.103-1.758-.983s.787-2.406 1.758-2.949Zm-6.33 3.535c.971-.543 1.759-.103 1.759.983s-.788 2.406-1.759 2.948c-.972.543-1.758.103-1.758-.983s.786-2.406 1.758-2.948Z"/>
  <path fill="#F1D3C5" d="M175.669 390.193c.312 0 .644-.096.989-.288l240.249-134.501c1.997-1.112 3.686-3.935 3.686-6.164V87.991c0-1.33-.578-2.122-1.549-2.122-.433 0-.936.154-1.454.444L177.333 220.75c-1.995 1.116-3.683 3.941-3.683 6.171v160.303c0 .82.233 1.611.638 2.173.263.363.715.797 1.381.797Z"/>
  <path fill="#37474F" d="M169.529 387.783c.435.223 3.56 1.948 4.928 2.704-.923-.637-1.41-1.732-1.477-3.267l-.001-155.083-5.142-2.873-.001 155.142c0 1.504.669 2.851 1.693 3.377Z"/>
  <path fill="#455A64" d="M419.046 86.528c.755 0 .868.917.868 1.464v161.25c0 2.022-1.531 4.584-3.342 5.593L176.319 389.338c-.238.132-.457.2-.649.2-.712 0-1.337-1.081-1.337-2.314V226.92c0-2.023 1.528-4.588 3.339-5.6L417.931 86.883c.524-.294.896-.355 1.115-.355Zm0-1.313c-.54 0-1.149.17-1.794.531L176.994 220.184c-2.219 1.24-4.017 4.256-4.017 6.736v160.304c0 1.961 1.125 3.626 2.693 3.626.416 0 .862-.116 1.327-.375l240.252-134.501c2.221-1.237 4.02-4.25 4.02-6.731V87.992c0-1.76-.904-2.777-2.223-2.777Z"/>
  <path fill="#263238" d="M421.264 87.914v5.313L172.977 232.136l-5.141-2.874v-5.172c0-1.253.476-2.649 1.222-3.89.72-1.207 1.722-2.232 2.796-2.835L412.12 82.93c1.147-.639 2.171-.656 2.928-.23.733.437 4.251 2.376 4.971 2.73.11.06.22.12.306.201.11.083.22.19.317.307.098.118.183.25.257.39.086.142.148.295.196.474.062.165.099.343.123.53v.024c.023.18.046.357.046.558Z"/>
  <path fill="#37474F" d="M421.265 87.915v5.314L172.979 232.137v-5.22c0-.78.171-1.596.488-2.412.049-.13.097-.272.159-.403.158-.354.341-.709.55-1.052.733-1.218 1.722-2.27 2.821-2.873l240.25-134.428c1.233-.697 2.332-.686 3.078-.117.11.082.22.189.317.307.098.117.183.249.257.39.086.141.147.295.196.473.061.166.098.343.123.531v.024c.024.18.047.357.047.558Z"/>
  <path fill="#FAFAFA" d="M407.511 94.266c-.721.403-1.306 1.602-1.306 2.677s.585 1.62 1.306 1.216c.722-.403 1.307-1.602 1.307-2.677s-.585-1.62-1.307-1.216Zm4.701-2.636c-.721.404-1.306 1.603-1.306 2.678s.585 1.62 1.306 1.216c.722-.403 1.307-1.602 1.307-2.677 0-1.074-.585-1.619-1.307-1.216Zm4.706-2.632c-.722.404-1.307 1.602-1.307 2.677 0 1.076.585 1.62 1.307 1.217.721-.404 1.306-1.602 1.306-2.677s-.586-1.62-1.306-1.217Z"/>
  <path fill="#455A64" d="M417.25 85.744 176.997 220.18c-1.099.624-2.11 1.676-2.83 2.887l-5.105-2.862c.721-1.2 1.706-2.241 2.794-2.841L412.12 82.931c1.15-.648 2.172-.66 2.918-.232.72.428 4.056 2.264 4.903 2.704-.708-.332-1.655-.233-2.691.34Z"/>
  <path fill="#FFBE55" d="M410.533 130.257 226.963 232.86v-6.675l183.57-102.603v6.675Zm0 113.838-183.57 102.602v-6.674l183.57-102.603v6.675Z"/>
  <path fill="#E0E0E0" d="M235.734 246.151h-1.015v-2.74l2.45-1.37.506.851-1.941 1.086v2.173Zm0 66.888h-1.015v-4.778h1.015v4.778Zm0-9.556h-1.015v-4.778h1.015v4.778Zm0-9.556h-1.015v-4.778h1.015v4.778Zm0-9.555h-1.015v-4.778h1.015v4.778Zm0-9.556h-1.015v-4.778h1.015v4.778Zm0-9.554h-1.015v-4.778h1.015v4.778Zm0-9.556h-1.015v-4.778h1.015v4.778Zm-1.015 65.418v-3.306h1.015v1.605l1.435-.803.506.852-2.956 1.652Zm7.351-4.11-.508-.852 4.396-2.456.507.852-4.395 2.456Zm8.791-4.915-.507-.85 4.396-2.457.507.85-4.396 2.457Zm8.792-4.913-.507-.852 4.397-2.457.507.852-4.397 2.457Zm8.792-4.914-.507-.85 4.396-2.457.507.85-4.396 2.457Zm8.792-4.914-.507-.852 4.396-2.456.507.852-4.396 2.456Zm8.79-4.913-.507-.852 4.396-2.456.507.852-4.396 2.456Zm8.792-4.915-.507-.852 4.395-2.456.508.852-4.396 2.456Zm8.791-4.914-.507-.852 4.397-2.456.507.852-4.397 2.456Zm8.793-4.914-.507-.851 4.396-2.456.507.849-4.396 2.458Zm8.792-4.913-.508-.852 4.396-2.456.507.851-4.395 2.457Zm8.79-4.914-.507-.851 4.396-2.457.507.851-4.396 2.457Zm8.792-4.914-.508-.851 4.396-2.457.507.851-4.395 2.457Zm8.791-4.914-.507-.851 4.397-2.457.507.851-4.397 2.457Zm8.793-4.914-.507-.851 4.395-2.458.508.851-4.396 2.458Zm8.791-4.914-.507-.851 4.396-2.456.507.851-4.396 2.456Zm8.791-4.914-.507-.85 4.395-2.457.508.851-4.396 2.456Zm8.791-4.913-.507-.851 4.396-2.456.507.851-4.396 2.456Zm8.793-4.915-.507-.851 4.396-2.456.507.851-4.396 2.456Zm8.793-4.913-.508-.85 1.944-1.086v-2.173h1.015v2.74l-2.451 1.369Zm2.449-8.888h-1.015v-4.777h1.015v4.777Zm0-9.554h-1.015v-4.778h1.015v4.778Zm0-9.556h-1.015v-4.778h1.015v4.778Zm0-9.556h-1.015v-4.778h1.015v4.778Zm0-9.555h-1.015v-4.778h1.015v4.778Zm0-9.556h-1.015v-4.778h1.015v4.778Zm0-9.555h-1.015v-4.778h1.015v4.778Zm.002-9.556h-1.015v-1.605l-1.436.803-.508-.851 2.959-1.653v3.306ZM242.07 240.435l-.508-.851 4.396-2.456.507.85-4.395 2.457Zm8.792-4.914-.507-.851 4.396-2.456.507.851-4.396 2.456Zm8.792-4.914-.507-.85 4.396-2.457.507.851-4.396 2.456Zm8.791-4.914-.507-.851 4.396-2.456.507.851-4.396 2.456Zm8.792-4.913-.507-.851 4.396-2.457.507.851-4.396 2.457Zm8.79-4.914-.507-.851 4.397-2.458.507.851-4.397 2.458Zm8.793-4.914-.507-.851 4.396-2.457.507.851-4.396 2.457Zm8.792-4.914-.508-.851 4.396-2.456.507.851-4.395 2.456Zm8.791-4.914-.507-.851 4.396-2.457.507.851-4.396 2.457Zm8.792-4.914-.508-.851 4.396-2.456.507.851-4.395 2.456Zm8.79-4.914-.507-.85 4.397-2.457.507.851-4.397 2.456Zm8.793-4.913-.507-.851 4.395-2.457.508.85-4.396 2.458Zm8.791-4.914-.507-.851 4.396-2.457.507.851-4.396 2.457Zm8.792-4.915-.507-.85 4.395-2.458.508.851-4.396 2.457Zm8.791-4.913-.507-.851 4.396-2.456.507.851-4.396 2.456Zm8.791-4.914-.507-.851 4.396-2.456.508.851-4.397 2.456Zm8.792-4.913-.507-.851 4.396-2.456.507.85-4.396 2.457Zm8.792-4.915-.507-.851 4.396-2.456.507.851-4.396 2.456Z"/>
  <path fill="#E0E0E0" d="m237.947 245.69-5.437 3.039v-7.018l5.437-3.039v7.018Zm167.035-93.367-5.437 3.039v-7.018l5.437-3.039v7.018ZM237.947 322.268l-5.437 3.038v-7.018l5.437-3.038v7.018Zm167.035-93.367-5.437 3.038v-7.018l5.437-3.038v7.018Z"/>
  <path fill="#E86B31" d="M248.783 293.005c-.31.173-.577.176-.801.012-.226-.164-.337-.447-.337-.847v-35.193c0-.399.111-.806.337-1.224.224-.415.491-.71.801-.883l13.59-7.596c1.885-1.053 3.474-1.605 4.769-1.657 1.294-.051 2.326.242 3.101.881.773.639 1.329 1.545 1.666 2.718.338 1.172.506 2.432.506 3.775 0 1.054-.091 2.022-.273 2.904a17.787 17.787 0 0 1-.655 2.382 13.045 13.045 0 0 1-.781 1.798c-.267.496-.485.879-.655 1.155 1.097.367 1.864 1.074 2.301 2.12.436 1.046.654 2.475.654 4.293a22.6 22.6 0 0 1-.506 4.641 19.375 19.375 0 0 1-1.668 4.717c-.773 1.541-1.78 2.992-3.017 4.355-1.239 1.365-2.758 2.551-4.558 3.556l-14.474 8.093Zm15.786-35.408c0-.944-.218-1.575-.655-1.896-.436-.318-1.077-.242-1.921.229l-6.541 3.657v6.21l6.541-3.657c.844-.47 1.485-1.109 1.921-1.917a5.437 5.437 0 0 0 .655-2.626Zm-9.117 23.236 6.964-3.893c.843-.471 1.518-1.166 2.024-2.086.507-.918.761-1.849.761-2.793 0-.944-.254-1.593-.761-1.945-.506-.354-1.181-.293-2.024.178l-6.964 3.892v6.647Z"/>
  <path fill="#FFBE55" d="M290.27 231.684c1.858-1.038 3.517-1.712 4.981-2.021 1.463-.309 2.709-.241 3.734.2 1.028.444 1.816 1.302 2.364 2.575.549 1.273.823 2.963.823 5.07 0 2.723-.436 5.228-1.307 7.513a20.448 20.448 0 0 1-3.714 6.188l5.233 10.042c.085.17.126.347.126.528 0 .326-.092.659-.274.997-.183.34-.401.579-.654.72l-5.74 3.209c-.563.315-.964.375-1.204.182a2.32 2.32 0 0 1-.568-.662l-4.685-9.039-3.884 2.17v11.658c0 .4-.113.807-.337 1.223-.226.417-.494.712-.803.885l-5.528 3.09c-.311.173-.577.176-.802.012-.225-.164-.338-.447-.338-.847v-35.193c0-.399.113-.806.338-1.225.225-.414.491-.709.802-.882l11.437-6.393Zm-4.768 19.172 4.77-2.666c1.182-.66 2.159-1.496 2.933-2.511.773-1.013 1.161-2.282 1.161-3.807 0-1.526-.388-2.363-1.161-2.51-.774-.148-1.751.106-2.933.767l-4.77 2.665v8.062Z"/>
  <path fill="#E86B31" d="M322.429 213.71c.563-.315.991-.355 1.286-.12.297.234.499.52.613.856l9.2 29.179c.112.302.168.542.168.723 0 .327-.091.658-.273.997-.184.34-.402.578-.656.721l-5.317 2.972c-.564.315-.965.383-1.203.209a1.065 1.065 0 0 1-.443-.652l-1.181-3.86-11.227 6.275-1.181 5.181c-.057.324-.205.706-.443 1.147-.24.443-.641.821-1.202 1.136l-5.319 2.972c-.254.142-.471.145-.654.011-.183-.134-.275-.365-.275-.691 0-.181.056-.485.168-.911l9.2-39.464c.114-.462.318-.975.613-1.54a3.163 3.163 0 0 1 1.288-1.32l6.838-3.821Zm-6.837 27.627 6.837-3.82-3.418-11.165-3.419 14.985Z"/>
  <path fill="#FFBE55" d="M356.318 232.899c-.478.268-.865.321-1.16.16-.295-.163-.485-.31-.57-.444l-9.666-13.23v18.413c0 .402-.112.808-.337 1.225-.225.416-.493.712-.802.884l-5.528 3.09c-.311.174-.577.177-.802.012-.225-.165-.338-.447-.338-.846v-35.194c0-.399.113-.806.338-1.224.225-.415.491-.711.802-.883l4.389-2.453c.478-.267.865-.321 1.161-.159.295.162.484.31.57.444l9.664 13.229V197.51c0-.399.114-.806.339-1.223.223-.416.492-.711.801-.885l5.528-3.089c.31-.173.577-.178.803-.014.224.166.337.447.337.847v35.193c0 .4-.113.807-.337 1.224-.226.417-.493.711-.803.884l-4.389 2.452Z"/>
  <path fill="#E86B31" d="M380.08 181.484c1.942-1.085 3.714-1.703 5.319-1.855 1.602-.152 2.989.118 4.157.809 1.166.692 2.082 1.787 2.743 3.287.662 1.502 1.034 3.336 1.119 5.504.027.748.042 1.439.042 2.074v3.624c0 .617-.015 1.297-.042 2.039a27.732 27.732 0 0 1-1.097 6.769 28.812 28.812 0 0 1-2.68 6.292 27.28 27.28 0 0 1-4.073 5.408 22.808 22.808 0 0 1-5.276 4.066l-11.396 6.369c-.31.173-.577.177-.801.012-.226-.164-.337-.446-.337-.846v-35.193c0-.399.111-.806.337-1.225.224-.414.491-.71.801-.883l11.184-6.251Zm5.53 11.891c-.17-4.082-2.084-5.101-5.741-3.057l-4.304 2.406v20.701l4.515-2.523c3.545-1.982 5.388-5.1 5.53-9.355.026-.779.041-1.503.041-2.175v-3.895c0-.655-.015-1.354-.041-2.102Z"/>
  <path fill="#000" d="M184.332 240.574v137.081c0 .805.584 1.131 1.304.729l21.86-12.219c.72-.402 1.303-1.381 1.303-2.187V226.897c0-.805-.583-1.131-1.303-.729l-21.86 12.219c-.719.403-1.304 1.382-1.304 2.187Z" opacity=".15"/>
  <path fill="#455A64" d="M213.408 228.455c-.237-.132-.562-.113-.922.089l-21.86 12.218c-.72.403-1.304 1.383-1.304 2.188v137.08c0 .395.14.674.369.81.237.141 4.047 2.259 4.278 2.392.237.136.565.118.928-.085l21.859-12.218c.721-.403 1.304-1.382 1.304-2.188V231.659c0-.403-.147-.687-.384-.818-.235-.13-4.032-2.253-4.268-2.386Z"/>
  <path fill="#37474F" d="m193.594 250.073.379-5.977-4.271-2.387c-.234.395-.38.837-.38 1.238v137.082c0 .394.14.673.369.809.237.141 4.046 2.259 4.278 2.392.237.136.565.118.928-.085l-1.304-.728.001-132.344Z"/>
  <path fill="#455A64" d="M193.594 245.336v137.082c0 .805.583 1.131 1.304.729l21.859-12.219c.721-.402 1.304-1.381 1.304-2.187V231.659c0-.805-.583-1.131-1.304-.729l-21.859 12.219c-.721.403-1.304 1.382-1.304 2.187Z"/>
  <path fill="#37474F" d="m216.757 230.93-21.859 12.219c-.721.402-1.304 1.382-1.304 2.187v4.739l24.468-13.676v-4.74c-.001-.805-.584-1.131-1.305-.729Z"/>
  <path fill="#fff" d="m197.173 253.918 6.134-3.429c.459-.257.832-.048.832.464l.001 6.859c0 .513-.372 1.136-.832 1.393l-6.135 3.431c-.458.256-.831.049-.831-.465v-6.859c0-.513.373-1.137.831-1.394Zm11.164-6.236 6.134-3.43c.459-.256.832-.048.832.465l.001 6.858c0 .514-.372 1.137-.832 1.394l-6.135 3.43c-.458.257-.831.048-.831-.464v-6.86c.001-.512.373-1.136.831-1.393Zm-11.164 18.48 6.134-3.429c.459-.257.832-.048.832.464l.001 6.859c0 .513-.372 1.136-.832 1.393l-6.135 3.431c-.458.256-.831.048-.831-.464v-6.86c0-.514.373-1.138.831-1.394Zm11.164-6.24 6.134-3.429c.459-.257.832-.049.832.464l.001 6.859c0 .513-.372 1.138-.832 1.393l-6.135 3.431c-.458.256-.831.048-.831-.465v-6.859c.001-.514.373-1.137.831-1.394Zm-11.164 18.481 6.134-3.43c.459-.257.832-.048.832.464l.001 6.859c0 .513-.372 1.137-.832 1.393l-6.135 3.431c-.458.257-.831.048-.831-.464v-6.86c0-.512.373-1.137.831-1.393Zm11.164-6.237 6.134-3.429c.459-.257.832-.048.832.464l.001 6.859c0 .513-.372 1.136-.832 1.393l-6.135 3.431c-.458.256-.831.048-.831-.465v-6.859c.001-.514.373-1.138.831-1.394Zm-11.164 18.479 6.134-3.43c.459-.256.832-.048.832.464l.001 6.859c0 .514-.372 1.137-.832 1.394l-6.135 3.43c-.458.257-.831.048-.831-.465v-6.86c0-.512.373-1.136.831-1.392Zm11.164-6.239 6.134-3.429c.459-.257.832-.048.832.465l.001 6.859c0 .513-.372 1.137-.832 1.395l-6.135 3.43c-.458.257-.831.049-.831-.464v-6.86c.001-.514.373-1.139.831-1.396Zm-11.164 18.479 6.134-3.429c.459-.257.832-.049.832.465l.001 6.858c0 .514-.372 1.137-.832 1.394l-6.135 3.43c-.458.257-.831.049-.831-.464v-6.859c0-.514.373-1.138.831-1.395Zm11.164-6.238 6.134-3.43c.459-.256.832-.048.832.464l.001 6.859c0 .514-.372 1.137-.832 1.394l-6.135 3.43c-.458.257-.831.049-.831-.464v-6.86c.001-.512.373-1.136.831-1.393Zm-11.164 18.478 6.134-3.429c.459-.257.832-.049.832.464l.001 6.859c0 .513-.372 1.138-.832 1.393l-6.135 3.431c-.458.256-.831.049-.831-.464v-6.86c0-.512.373-1.137.831-1.394Zm11.164-6.236 6.134-3.429c.459-.257.832-.049.832.464l.001 6.858c0 .514-.372 1.138-.832 1.394l-6.135 3.43c-.458.257-.831.048-.831-.464v-6.86c.001-.512.373-1.136.831-1.393Zm-11.164 18.48 6.134-3.429c.459-.257.832-.049.832.464l.001 6.859c0 .513-.372 1.137-.832 1.393l-6.135 3.431c-.458.257-.831.048-.831-.464v-6.86c0-.513.373-1.138.831-1.394Zm11.164-6.236 6.134-3.429c.459-.257.832-.049.832.464l.001 6.859c0 .513-.372 1.136-.832 1.393l-6.135 3.431c-.458.256-.831.048-.831-.465v-6.859c.001-.514.373-1.137.831-1.394Zm-11.164 18.477 6.134-3.43c.459-.257.832-.048.832.464l.001 6.859c0 .513-.372 1.137-.832 1.393l-6.135 3.431c-.458.257-.831.048-.831-.464v-6.86c0-.512.373-1.137.831-1.393Zm11.164-6.237 6.134-3.429c.459-.257.832-.048.832.465l.001 6.859c0 .513-.372 1.137-.832 1.393l-6.135 3.431c-.458.256-.831.048-.831-.466v-6.859c.001-.513.373-1.137.831-1.394Z" opacity=".2"/>
  <path fill="#FAFAFA" d="m197.049 354.808 10.294-5.754c.77-.431 1.395-.082 1.395.78l.002 11.509c0 .861-.624 1.908-1.394 2.339l-10.294 5.756c-.77.43-1.396.082-1.396-.779v-11.511c-.002-.862.623-1.91 1.393-2.34Z"/>
  <path fill="#263238" d="m213.832 357.065.002 9.436c-.013.149-.198.459-.315.539l-8.45 4.724-.001-9.437c.013-.149.199-.46.315-.539l8.449-4.723Zm1.388-3.026c-.188 0-.399.059-.623.184l-10.293 5.754c-.77.431-1.396 1.478-1.396 2.339l.001 11.511c0 .611.314.964.773.964.187 0 .399-.059.623-.185l10.296-5.755c.77-.431 1.394-1.478 1.394-2.34l-.001-11.509c-.003-.61-.317-.963-.774-.963Z"/>
  <path fill="#000" d="M200.329 42.762c-.48 0-1.021.151-1.594.472l-61.801 34.488c-1.97 1.1-3.567 3.78-3.567 5.98v73.389c0 1.741 1 3.219 2.393 3.219.368 0 .765-.104 1.177-.334l61.796-34.545c1.971-1.099 3.57-3.774 3.57-5.975v-74.23c0-1.56-.804-2.464-1.974-2.464Z" opacity=".15"/>
  <path fill="#263238" d="M206.46 46.842c.636.383 3.612 2.021 4.357 2.393a2.027 2.027 0 0 0-.804-.162c-.48 0-1.032.151-1.596.476l-61.809 34.49c-1.969 1.104-3.563 3.776-3.563 5.983v73.389c0 .175.011.348.035.522.025.139.049.29.084.418.024.152.06.291.108.418.084.28.203.535.36.756.048.082.107.163.168.244.071.105.167.209.264.291.011.023.024.034.036.034.084.081.167.139.264.209l-.108-.07c-1.26-.684-3.9-2.137-4.272-2.335-.911-.464-1.5-1.661-1.5-2.996v-73.39c0-1.116.421-2.36 1.081-3.462.647-1.069 1.535-1.987 2.484-2.522l61.809-34.489c1.019-.557 1.93-.568 2.602-.197Z"/>
  <path fill="#455A64" d="M210.008 49.076c-.479 0-1.02.151-1.593.472l-61.801 34.488c-1.97 1.101-3.567 3.78-3.567 5.981v73.388c0 1.741.999 3.22 2.392 3.22.369 0 .766-.104 1.178-.334l61.795-34.546c1.971-1.098 3.571-3.773 3.571-5.975V51.541c0-1.562-.804-2.465-1.975-2.465Z"/>
  <path fill="#455A64" d="M144.1 166.096c.047.047.107.093.156.139l.108.069c-.096-.069-.181-.128-.264-.208Z"/>
  <path fill="#37474F" d="M196.357 59.63c-.844.472-1.529 1.875-1.529 3.134 0 1.258.685 1.895 1.529 1.424.844-.471 1.528-1.874 1.528-3.133s-.684-1.897-1.528-1.425Zm5.504-3.084c-.845.472-1.529 1.875-1.529 3.134 0 1.257.684 1.895 1.529 1.423.844-.472 1.528-1.874 1.528-3.133 0-1.258-.684-1.896-1.528-1.424Zm5.505-3.08c-.844.472-1.528 1.875-1.528 3.133 0 1.26.684 1.896 1.528 1.424.845-.472 1.529-1.874 1.529-3.133 0-1.258-.684-1.896-1.529-1.424Zm1.048-3.919-61.796 34.488c-.977.554-1.874 1.488-2.513 2.563l-4.533-2.542c.639-1.065 1.515-1.987 2.48-2.52l61.808-34.488c1.021-.575 1.929-.586 2.591-.206a189.4 189.4 0 0 0 4.353 2.4c-.628-.293-1.47-.205-2.39.305Z"/>
  <path fill="#263238" d="M142.457 101.535a.304.304 0 0 1-.259-.143.286.286 0 0 1 .105-.398l5.317-3.072V92.74c0-.103.058-.2.151-.252l14.622-8.173a.304.304 0 0 1 .3 0c.092.053.15.15.15.253v4.946l48.292-26.993a.308.308 0 0 1 .41.106.286.286 0 0 1-.11.397l-48.741 27.244a.304.304 0 0 1-.3 0 .291.291 0 0 1-.151-.252V85.07l-14.022 7.838v5.177a.288.288 0 0 1-.147.25l-5.464 3.158a.299.299 0 0 1-.153.042Z"/>
  <path fill="#37474F" d="m163.607 83.971 14.624-8.172v4.25l-14.624 8.174v-4.252Zm15.506-8.701 14.623-8.172v4.25l-14.623 8.174V75.27Z"/>
  <path fill="#E0E0E0" d="m147.922 103.637 1.755-.982c.861-.481 1.559-.091 1.559.871v1.964c0 .962-.698 2.133-1.559 2.615l-1.755.982c-.86.481-1.559.09-1.559-.871v-1.964c0-.962.697-2.133 1.559-2.615Z"/>
  <path fill="#37474F" d="m147.922 117.167 1.755-.983c.861-.48 1.559-.09 1.559.872v1.964c0 .961-.698 2.132-1.559 2.614l-1.755.981c-.86.481-1.559.091-1.559-.871v-1.964c0-.962.697-2.133 1.559-2.613Zm0 11.011 1.755-.982c.861-.481 1.559-.091 1.559.871v1.964c0 .962-.698 2.133-1.559 2.615l-1.755.982c-.86.481-1.559.091-1.559-.871v-1.964c0-.963.697-2.134 1.559-2.615Zm0 11.008 1.755-.982c.861-.481 1.559-.091 1.559.871v1.964c0 .962-.698 2.132-1.559 2.614l-1.755.983c-.86.48-1.559.09-1.559-.872V141.8c0-.962.697-2.132 1.559-2.614Zm0 11.01 1.755-.982c.861-.481 1.559-.091 1.559.871v1.964c0 .962-.698 2.132-1.559 2.614l-1.755.982c-.86.481-1.559.091-1.559-.871v-1.964c0-.963.697-2.133 1.559-2.614Zm6.027-49.925 12.544-7.013c.575-.32 1.039-.06 1.039.581v3.126c0 .64-.465 1.421-1.039 1.742l-12.544 7.011c-.574.32-1.039.06-1.039-.581v-3.125c0-.641.465-1.421 1.039-1.741Z"/>
  <path fill="#E0E0E0" d="m172.197 90.07 1.756-.981c.86-.481 1.559-.091 1.559.87v1.965c0 .962-.699 2.132-1.559 2.614l-1.756.981c-.86.481-1.558.091-1.558-.87v-1.965c0-.963.697-2.133 1.558-2.614Z"/>
  <path fill="#37474F" d="m178.225 86.7 12.545-7.012c.574-.32 1.039-.06 1.039.58v3.126c0 .641-.466 1.422-1.039 1.742l-12.545 7.011c-.574.321-1.039.061-1.039-.58V88.44c.001-.64.466-1.42 1.039-1.74Z"/>
  <path fill="#263238" d="M145.15 116.383a.307.307 0 0 1-.261-.146.288.288 0 0 1 .11-.397l53.969-30.172a.307.307 0 0 1 .41.106.288.288 0 0 1-.11.397l-53.969 30.172a.295.295 0 0 1-.149.04Zm0 10.894a.307.307 0 0 1-.261-.146.287.287 0 0 1 .11-.396l53.969-30.173a.307.307 0 0 1 .41.107.288.288 0 0 1-.11.397l-53.969 30.172a.294.294 0 0 1-.149.039Zm0 10.901a.306.306 0 0 1-.261-.145.288.288 0 0 1 .11-.397l53.969-30.171a.306.306 0 0 1 .41.106.288.288 0 0 1-.11.397l-53.969 30.171a.294.294 0 0 1-.149.039Zm0 10.896a.307.307 0 0 1-.261-.146.288.288 0 0 1 .11-.397l53.969-30.172a.308.308 0 0 1 .41.107.288.288 0 0 1-.11.397l-53.969 30.171a.285.285 0 0 1-.149.04Zm0 10.895a.307.307 0 0 1-.261-.144.288.288 0 0 1 .11-.397l53.969-30.172a.306.306 0 0 1 .41.106.288.288 0 0 1-.11.397l-53.969 30.171a.294.294 0 0 1-.149.039Z"/>
  <path fill="#E0E0E0" d="m157.575 110.738 4.45-2.488c.287-.16.52-.03.52.291v6.568c0 .321-.233.711-.52.871l-4.45 2.484c-.288.161-.52.031-.52-.29v-6.565c0-.321.232-.711.52-.871Zm0 10.975 4.45-2.488c.287-.16.52-.03.52.29v6.569c0 .32-.233.71-.52.871l-4.45 2.485c-.288.16-.52.03-.52-.29v-6.565c0-.322.232-.712.52-.872Zm0 10.98 4.45-2.488c.287-.16.52-.03.52.291v6.568c0 .321-.233.711-.52.871l-4.45 2.485c-.288.161-.52.031-.52-.29v-6.565c0-.322.232-.712.52-.872Zm0 10.977 4.45-2.488c.287-.16.52-.03.52.29v6.569c0 .32-.233.71-.52.871l-4.45 2.485c-.288.16-.52.03-.52-.29v-6.565c0-.322.232-.712.52-.872Z"/>
  <path fill="#fff" d="M167.419 109.956a.907.907 0 0 1-.781-.436.858.858 0 0 1 .329-1.191l19.683-11a.917.917 0 0 1 1.23.318c.247.415.1.95-.329 1.189l-19.683 11.001a.894.894 0 0 1-.449.119Zm0 10.901a.907.907 0 0 1-.781-.436.856.856 0 0 1 .329-1.189l14.622-8.174a.917.917 0 0 1 1.229.319.856.856 0 0 1-.329 1.19l-14.622 8.174a.916.916 0 0 1-.448.116Zm0 10.896a.907.907 0 0 1-.781-.436.858.858 0 0 1 .329-1.191l24.37-13.622a.918.918 0 0 1 1.23.318.856.856 0 0 1-.329 1.19l-24.37 13.622a.904.904 0 0 1-.449.119Zm0 10.897a.907.907 0 0 1-.781-.436.856.856 0 0 1 .329-1.189l9.748-5.449a.917.917 0 0 1 1.23.319.856.856 0 0 1-.329 1.19l-9.748 5.449a.922.922 0 0 1-.449.116Z" opacity=".2"/>
  <path fill="#37474F" d="m207.811 73.162-4.875 2.724v52.128l4.875-2.725V73.162Z"/>
  <path fill="#455A64" d="M205.373 76.109c-.723.404-1.311 1.513-1.311 2.475v40.475c0 .962.588 1.414 1.311 1.01.724-.405 1.311-1.514 1.311-2.476V77.119c0-.962-.587-1.414-1.311-1.01Z"/>
  <path fill="#000" d="M453.785 64.766c-.315 0-.667.1-1.043.307l-19.507 10.892c-1.296.724-2.354 2.495-2.354 3.945v80.654c0 .418.098.867.248 1.15.166.317.403.642.617.762.109.061.162.082.208.104a.85.85 0 0 0 .201.068c.099.022.2.037.301.037l.032.001c.232 0 .489-.075.747-.218l19.507-10.929c1.295-.724 2.354-2.488 2.354-3.945V66.387c0-.098-.008-.194-.015-.284-.008-.075-.015-.142-.04-.21.008-.014 0-.03-.008-.044a.786.786 0 0 0-.054-.202 1.021 1.021 0 0 0-.139-.292.384.384 0 0 0-.078-.12c-.023-.03-.038-.059-.069-.082a.764.764 0 0 0-.154-.149l-.015-.014a1.275 1.275 0 0 0-.739-.224Z" opacity=".15"/>
  <path fill="#FFBE55" d="M465.594 69.412c-.315 0-.667.1-1.044.307l-19.506 10.893c-1.296.724-2.355 2.495-2.355 3.945v80.653c0 .418.099.868.248 1.15.167.317.403.643.617.763.109.06.163.081.209.104a.84.84 0 0 0 .2.067c.1.022.201.037.301.037l.033.001c.23 0 .488-.074.747-.217l19.506-10.93c1.296-.724 2.354-2.487 2.354-3.945V71.034c0-.097-.008-.194-.015-.283-.008-.076-.015-.143-.039-.21.008-.015 0-.03-.008-.045a.748.748 0 0 0-.055-.202.97.97 0 0 0-.139-.291.38.38 0 0 0-.077-.119c-.023-.03-.038-.06-.07-.083a.715.715 0 0 0-.154-.149l-.016-.015a1.262 1.262 0 0 0-.737-.225Z"/>
  <path fill="#D49A3D" d="M466.13 69.52c-.427-.191-.969-.14-1.584.203l-19.499 10.883c-.635.363-1.229.978-1.646 1.685h-.011l-6.025-3.331c.417-.696 1.001-1.312 1.636-1.655l19.509-10.893c.678-.383 1.272-.394 1.71-.141.427.252 5.41 2.998 5.91 3.25Z"/>
  <path fill="#FAFAFA" d="M453.557 79.008c-.733.41-1.328 1.63-1.328 2.722 0 1.093.595 1.647 1.328 1.238.734-.41 1.328-1.629 1.328-2.722s-.594-1.648-1.328-1.238Zm4.783-2.675c-.734.41-1.328 1.629-1.328 2.722s.595 1.647 1.328 1.237c.733-.41 1.328-1.629 1.328-2.722 0-1.094-.594-1.648-1.328-1.237Zm4.781-2.68c-.733.41-1.328 1.629-1.328 2.722 0 1.094.595 1.648 1.328 1.237.734-.41 1.328-1.628 1.328-2.721 0-1.095-.594-1.648-1.328-1.238Z"/>
  <path fill="#704705" d="M442.936 166.359c-.157-.313-.223-.702-.246-1.15V91.998l.003.002v-7.444c0-.737.267-1.546.702-2.262l-6.03-3.333c-.436.723-.715 1.54-.715 2.277l-.002 7.4.004.002v73.209c0 .44.101.858.27 1.203.084.179.345.565.718.777.045.025 5.404 3.001 5.621 3.127.108.06.208.112.293.165-.025-.015-.361-.249-.618-.762Z"/>
  <path fill="#ED4611" d="M459.92 99.305c2.135-4.86 1.565-9.748-1.275-10.917-2.839-1.17-6.873 1.822-9.008 6.682-2.136 4.86-1.566 9.747 1.274 10.917 2.84 1.169 6.873-1.822 9.009-6.682Z"/>
  <path fill="#E86B31" d="M461.231 118.183c0 4.586-2.881 9.914-6.434 11.901-3.554 1.986-6.434-.122-6.434-4.708 0-4.587 2.88-9.915 6.434-11.902 3.553-1.986 6.434.121 6.434 4.709Z"/>
  <path fill="#000" d="M461.231 118.183c0 4.586-2.881 9.914-6.434 11.901-3.554 1.986-6.434-.122-6.434-4.708 0-4.587 2.88-9.915 6.434-11.902 3.553-1.986 6.434.121 6.434 4.709Z" opacity=".2"/>
  <path fill="#FAFAFA" d="M459.965 148.45c2.136-4.86 1.566-9.747-1.274-10.917-2.839-1.17-6.873 1.821-9.009 6.68-2.136 4.86-1.566 9.747 1.274 10.917 2.839 1.17 6.873-1.821 9.009-6.68Z"/>
  <path fill="#000" d="m464.029 166.471-32.064 17.907c-.599.334-1.084 1.148-1.084 1.817v36.78c0 .669.485.94 1.084.605l32.064-17.907c.598-.334 1.084-1.148 1.084-1.817v-36.78c0-.668-.486-.939-1.084-.605Z" opacity=".15"/>
  <path fill="#37474F" d="m469.794 169.859-32.064 17.907c-.598.334-1.084 1.148-1.084 1.817v36.78c0 .669.488 1.477 1.09 1.807l3.813 2.096c.603.329 1.575.324 2.174-.01l32.064-17.907c.599-.334 1.084-1.148 1.084-1.817v-36.78c0-.669-.488-1.477-1.09-1.807l-3.813-2.096c-.601-.329-1.575-.324-2.174.01Z"/>
  <path fill="#FAFAFA" d="M443.242 230.143c-.303 0-.336-.346-.336-.494V192.87c0-.578.437-1.309.952-1.597l32.065-17.906a.743.743 0 0 1 .352-.109c.304 0 .336.345.336.493v36.78c0 .577-.437 1.308-.952 1.596l-32.064 17.907a.75.75 0 0 1-.353.109Z"/>
  <path fill="#37474F" d="m476.272 173.515.018.001c.011.009.054.076.054.238v36.78c0 .488-.383 1.131-.82 1.375l-32.064 17.907a.468.468 0 0 1-.232.074h-.005c-.011-.009-.054-.076-.054-.238v-36.78c0-.488.383-1.131.82-1.374l32.063-17.907a.48.48 0 0 1 .22-.076Zm0-.511c-.145 0-.31.046-.484.143l-32.063 17.907c-.599.334-1.084 1.148-1.084 1.817v36.78c0 .474.244.749.599.749.146 0 .311-.046.485-.144l32.063-17.906c.599-.334 1.084-1.148 1.084-1.818v-36.779c-.001-.474-.244-.749-.6-.749Z"/>
  <path fill="#455A64" d="M476.857 173.564c-.084-.528-.53-.718-1.071-.417l-32.059 17.907c-.3.17-.571.456-.766.785l-5.973-3.327c.196-.315.455-.586.746-.747l32.064-17.908c.595-.334 1.567-.339 2.172-.01l3.811 2.097c.546.301 1.001.994 1.076 1.62Zm-7.839 11.293v8.971l-.842.455v-2.828c0-1.525-1.282-2.044-2.864-1.159l-3.931 2.197v16.178c0 1.768 1.117 2.577 2.495 1.806l2.467-1.378v.972l-13.375 7.475v-.972l2.466-1.378c1.379-.771 2.496-2.829 2.496-4.597v-16.178l-3.931 2.197c-1.582.885-2.864 2.837-2.864 4.361v2.829l-.842.485v-8.97l18.725-10.466Z"/>
  <path fill="#E4897B" d="M511.359 406.234c.159 2.979.262 6.075.322 9.033.965 16.615-.337 24.771.506 35.411.158 2.003 1.756 15.516 1.386 19.701-.557 6.288-9.247 6.192-10.076 2.536-.829-3.656-2.838-19.62-3.042-21.245-.675-6.812-4.588-16.498-7.25-30.104a1751.328 1751.328 0 0 0-3.687-15.332h21.841Zm-58.525 42.415c1.802-1.774 2.909-3.385 2.607-7.602-.056-.782-1.264-16.673-2.55-34.813h22.539c-.706 8.924-7.063 36.806-7.134 39.101.027.078-.12.217-.13.716-.064 4.015-5.029 6.131-8.916 8.77-1.535 1.043-5.999 4.12-10.497 6.138-2.816 1.263-8.503 1.324-9.189-.335 4.73-3.239 9.496-8.262 13.27-11.975Z"/>
  <path fill="#263238" d="M431.517 464.865c-.241-.002-.632 2.425.662 3.471 1.494 1.207 5.897 3.21 11.753 2.573 5.856-.636 9.043-2.265 11.404-4.037 2.361-1.774 5.67-4.275 8.322-4.784 2.463-.473 5.144-1.467 5.939-2.157.794-.688.721-3.786.721-3.786l-38.801 8.72Z"/>
  <path fill="#37474F" d="M468.419 444.2s.441.017.584.736c.17.855.336 3.339.706 4.743.514 1.953.827 5.946.486 7.53-.34 1.583-4.359 2.647-6.929 3.516-2.625.887-5.672 2.739-8.35 4.721-2.773 2.051-8.578 4.08-12.39 4.093-5.82.022-9.571-1.464-10.712-3.393-1.412-2.387-.973-5.239 5.747-8.014 1.272-.525 5.747-2.895 7.272-3.755 1.612-.908 3.159-1.921 4.587-3.061a25.383 25.383 0 0 0 2.062-1.832c.571-.569 1.375-1.256 1.718-1.967.077-.161.132-.349.201-.518.2-.483.34-.929.453-1.432.091-.413.139-.869.382-1.228.344-.507.863-.332 1.408-.277 1.246.124 2.481.361 3.684.707 1.1.316 2.231.729 3.151 1.426.823.623.954 1.867.987 2.817.013.357 0 .718-.001 1.076 0 .152-.074.427.16.365.224-.058.477-.59.564-.772.19-.399.314-.826.521-1.219.237-.448.505-.908.848-1.29a6.317 6.317 0 0 1 1.07-.979c.364-.254.829-.379 1.153-.669.412-.366.599-1.021.638-1.324Z"/>
  <path fill="#FAFAFA" d="M436.476 458.588c8.419.615 11.72 6.9 12.045 9.856-2.095.658-4.254 1.088-5.995 1.094-5.82.022-9.811-1.464-10.952-3.393-1.332-2.252-1.094-5.537 4.902-7.557Z"/>
  <path fill="#F0F0F0" d="M449.81 460.281a.436.436 0 0 0 .262-.083.356.356 0 0 0 .063-.53c-1.157-1.329-5.225-4.593-8.29-4.318-.227.021-.392.206-.37.412.022.207.217.359.449.34 2.861-.25 6.65 2.984 7.569 4.038a.43.43 0 0 0 .317.141Zm3.65-1.904a.434.434 0 0 0 .262-.083.357.357 0 0 0 .065-.53c-1.158-1.33-5.228-4.599-8.29-4.317-.227.02-.393.205-.37.412.021.207.213.359.449.339 2.862-.253 6.651 2.984 7.568 4.038a.42.42 0 0 0 .316.141Zm3.389-2.18a.436.436 0 0 0 .262-.083.356.356 0 0 0 .064-.53c-1.156-1.33-5.238-4.595-8.29-4.317-.227.02-.392.205-.369.411.022.208.214.358.449.34 2.857-.251 6.651 2.984 7.568 4.038a.426.426 0 0 0 .316.141Zm3.318-2.183a.434.434 0 0 0 .257-.08.357.357 0 0 0 .073-.529c-1.591-1.885-5.929-4.639-8.99-4.362-.227.02-.392.205-.37.411.021.208.216.353.449.34 2.756-.248 6.848 2.403 8.261 4.074a.423.423 0 0 0 .32.146Z"/>
  <path fill="#263238" d="M500.768 475.764c.23 3.645.848 6.061 2.258 8.197 1.409 2.137 4.069 2.809 6.762 2.183 2.694-.626 6.144-2.298 6.916-5.442.772-3.143 1.222-5.298.61-8.677l-16.546 3.739Z"/>
  <path fill="#37474F" d="M512.091 449.377c1.109.08 1.437 4.973 2.077 9.872.686 5.251 2.396 7.424 3.009 11.729.7 4.919-.188 7.116-2.067 10.09-1.879 2.974-8.533 5.891-11.812 1.632-2.673-3.473-2.783-7.323-2.539-12.235.252-5.077-.131-8.593-.357-12.447-.217-3.683-1.106-7.397-.141-7.807.074.542.145 1.228.224 1.759.098.654.1 1.34.358 1.964.114.274.36.561.461.116.068-.302.036-.615 0-.916-.162-1.357.582-1.468.985-1.573.872-.229 4.317-.617 5.149-.669.848-.053 3.775-.17 4.155.272.257.299.294.801.373 1.423.095.739.281 1.282.304 1.05.053-.53-.059-1.908-.074-2.241-.014-.32-.071-.754-.075-1.075-.005-.314-.007-.629-.03-.944Z"/>
  <path fill="#FAFAFA" d="M517.484 473.828c.191 3.054-.604 5.146-2.075 7.475-1.879 2.974-9.068 5.901-12.347 1.642-1.631-2.119-2.068-4.625-2.292-7.181 1.963-3.284 13.614-4.731 16.714-1.936Z"/>
  <path fill="#F0F0F0" d="M503.187 470.415a.444.444 0 0 0 .137-.034c.045-.02 5.18-1.968 10.179-.906.221.043.441-.081.494-.284.051-.203-.088-.406-.309-.453-5.286-1.119-10.523.877-10.72.961-.205.091-.291.316-.193.503a.42.42 0 0 0 .412.213Zm10.069-4.609a.413.413 0 0 0 .35-.253c.071-.199-.043-.413-.257-.48-4.976-1.546-10.499.773-10.706.874-.203.097-.279.324-.174.509.107.184.358.251.555.159.046-.022 5.429-2.271 10.058-.827a.43.43 0 0 0 .174.018Zm-.176-3.456a.409.409 0 0 0 .346-.248c.077-.197-.033-.413-.248-.483-5.472-1.798-10.713.738-10.908.845-.194.109-.256.34-.138.518a.434.434 0 0 0 .565.127c.043-.025 5.11-2.452 10.204-.78.059.02.12.025.179.021Z"/>
  <path fill="#EBEBEB" d="M512.808 458.945a.408.408 0 0 0 .344-.242c.08-.195-.028-.412-.241-.485-5.129-1.761-10.771.837-10.983.951a.359.359 0 0 0-.15.514.425.425 0 0 0 .561.138c.049-.026 5.521-2.535 10.282-.898a.432.432 0 0 0 .187.022Z"/>
  <path fill="#455A64" d="M500.133 312.416c4.99 8.346 8.692 15.167 9.198 39.981.505 24.816.442 26.483.549 29.475.105 2.992.742 6.003 2.41 20.742 1.667 14.74.353 31.637.353 31.637s-1.854 3.257-8.001 3.762c-5.669.466-8.431-1.705-8.431-1.705s-7.774-28.703-9.924-37.582c-2.15-8.878-7.155-30.446-7.155-30.446l-3.003 19.191s1.729 8.134 0 21.06c-1.729 12.926-3.959 20.893-3.959 20.893s-5.321 1.371-10.172 1.305c-4.851-.067-8.121-1.895-8.121-1.895s-3.69-33.121-3.69-47.771c0-14.651-2.009-46.794 3.019-68.484l46.927-.163Z"/>
  <path fill="#263238" d="m479.132 368.281-5.061-28.174s-10.683-.699-16.62-6.394c2.409 6.05 11.174 10.287 15.026 11.133l4.522 23.118-.87 19.507 3.003-19.19Zm28.073 16.652c-1.814-6.591-2.626-6.44-2.782-24.773-.168-19.773-2.7-32.628-8.739-44.37l-.803.347c3.545 6.89 5.861 14.192 7.201 23.075-1.848.431-3.788.622-5.615-.432-2.294-1.322-3.945-4.429-4.907-9.233-2.309-11.532-4.923-15.268-5.033-15.422l-.742.447c.026.037 2.635 3.797 4.901 15.123 1.022 5.108 2.759 8.305 5.307 9.776 1.154.666 2.348.899 3.514.899.928 0 1.836-.15 2.696-.345.842 5.9 1.267 12.495 1.332 20.144.156 18.431.983 18.331 2.808 24.966.339 1.231.672 2.442.987 3.695 1.953 7.77 4.045 30.014 2.951 47.545.386-.209.688-.417.926-.607 1.006-17.498-1.071-39.4-3.012-47.119-.316-1.264-.651-2.479-.99-3.716Z"/>
  <path fill="#263238" d="M467.849 341.67c-.167 1.577-3.38 34.221-2.47 42.146.215 1.881.482 3.635.739 5.331.836 5.524 1.702 11.236 1.042 22.408-.581 9.835-1.488 13.925-1.595 18.977.307-.037.604-.078.891-.121.108-5.075 1.015-9.075 1.591-18.812.666-11.251-.206-17.002-1.049-22.564-.257-1.69-.521-3.436-.737-5.305-.901-7.842 2.43-41.597 2.471-41.982l-.883-.078Zm17.189-86.104c-.14-8.777.701-17.568 2.503-26.17.185-.883.347-1.771.562-2.612.601-2.365 1.608-4.353 4.671-4.777 2.949-.408 6.221.764 8.53 2.504 2.494 1.88 4.216 4.696 4.719 7.718.437 2.629-.019 5.318.143 7.975.134 2.206.61 6.367 3.832 6.01.032-.003-.043.971-1.232 1.411-.775.285-1.958.07-2.746-.091.439 3.363.563 6.792-.034 10.132-.599 3.339-1.949 6.6-4.216 9.184-.462.526-.963 1.026-1.542 1.429-1.151.799-2.54 1.211-3.945 1.295-1.205.073-2.866.049-3.998-.371-2.554-.951-4.702-3.2-5.759-5.605-.585-1.335-.878-2.767-1.051-4.202-.153-1.263-.417-2.573-.437-3.83Z"/>
  <path fill="#E86B31" d="M497.462 223.655a7.546 7.546 0 0 1 1.077 3.509c.023.545-.012 1.097-.183 1.616-.328.996-1.512 2.47-2.684 2.548-1.649.109-2.782-1.034-3.453-2.352a11.15 11.15 0 0 1-1.2-5.626c.024-.461.089-.948.384-1.31.242-.298.611-.472.984-.587 2.267-.696 4.027.485 5.075 2.202Z"/>
  <path fill="#263238" d="M494.01 224.158c.025.325.031.66.016 1.005 1.259.6 2.204 1.702 2.834 2.916 1.966 3.79.999 8.45-1.049 12.2-2.049 3.749-5.068 6.909-7.473 10.453-1.327 1.956-2.467 4.027-3.484 6.15-.16.334-.38.715-.758.755-.255.026-.491-.119-.704-.258-2.065-1.351-4.874-2.417-6.54-4.204-2.258-2.423-4.68-4.884-6.783-7.428a151.082 151.082 0 0 0-5.784-5.619c-.898-.828-1.746-1.509-2.354-2.519-.601-1-1.26-1.916-1.933-2.876-3.291-4.692-2.642-10.179.84-14.58 2.304-2.913 6.353-4.607 10.015-5.325 2.179-.427 4.429-.534 6.645-.442 6.098.25 15.962 2.651 16.512 9.772Z"/>
  <path fill="#E4897B" d="M447.115 271.824c-3.174 3.932-12.235 15.089-12.235 15.089s-12.398-6.741-17.229-9.446c-5.043-2.824-6.139-4.328-6.633-4.793-2.395-2.257-5.405-3.674-8.561-4.715l-3.773 3.308c.072.277-.502.535-.831.637-2.125.656-5.562-.132-7.693-.603-1.399-.31-2.731-.864-4.179-.974-.889-.068-1.819.048-2.59.479-.524.293-.9.733-.457 1.313.277.361.733.546 1.153.75.861.421 1.627.807 1.942 1.74.198.586.278 1.223.627 1.741.445.659 1.251 1.018 1.77 1.626.461.542.538 1.242.917 1.798.405.594 1.433 1.032 2.07 1.369 1.517.802 3.164 1.375 4.85 1.771 2.559.602 3.241.715 5.88.798 1.443.046 4.27-.005 6.301 1.427 1.928 1.36 4 2.983 9.871 7.803 4.826 3.962 7.271 6.162 13.336 9.65 4.641 2.668 6.195 3.097 11.937-1.256 4.187-3.173 16.153-16.488 16.153-16.488l2.277-23.223c-7.678 1.284-9.293 3.25-14.903 10.199Z"/>
  <path fill="#37474F" d="m408.469 262.623-24.168-28.03a1.659 1.659 0 0 0-.436-.38c-.493-.277-5.663-3.164-5.798-3.241-.496-.28-.851.093-.854 1.012l-.127 56.645c-.001.48.078.757.211.833.193.11 5.668 3.169 5.804 3.245.193.106.499-.202.845-.917l4.148-8.588 2.366 8.174c.092.323.254.545.462.667.473.279 5.602 3.132 5.818 3.252.473.265 1.177.018 1.852-.732l3.348-3.723c.981-1.091 1.526-2.835 1.22-3.895l-4.57-15.791c-.307-1.06.55-2.403 1.913-3l6.777-2.965c1.365-.597 1.896-1.747 1.189-2.566Z"/>
  <path fill="#FFBE55" d="M397.151 294.677c-.088 0-.149-.176-.171-.252l-4.569-15.791c-.324-1.125-1.048-1.247-1.345-1.247-.449 0-1.102.246-1.669 1.418l-5.76 11.924s.126-55.59.128-55.629l24.131 27.987a.493.493 0 0 1 .125.466c-.067.28-.377.684-1.048.979l-6.777 2.964c-1.711.749-2.732 2.442-2.324 3.854l4.569 15.791c.212.731-.173 2.237-1.064 3.226l-3.349 3.724c-.415.463-.747.586-.877.586Z"/>
  <path fill="#455A64" d="m384.503 237.083 22.746 26.381c-.073.097-.246.261-.584.409l-6.777 2.966c-2.039.892-3.241 2.959-2.735 4.706l4.57 15.791c.134.465-.159 1.722-.909 2.556l-3.308 3.678-4.378-15.132c-.476-1.647-1.7-1.774-2.063-1.774-.666 0-1.612.318-2.345 1.835l-4.331 8.964.114-50.38Zm-.937-2.958c-.331 0-.548.385-.551 1.104l-.128 56.645c-.001.571.111.854.294.854.193 0 .464-.314.765-.937l6.125-12.679c.321-.664.682-1.002.994-1.002.26 0 .486.236.626.718l4.569 15.792c.151.52.479.779.89.779.426 0 .942-.279 1.442-.834l3.347-3.724c.981-1.091 1.527-2.835 1.22-3.895l-4.57-15.791c-.307-1.061.55-2.404 1.913-3l6.777-2.965c1.364-.597 1.895-1.746 1.188-2.567l-24.168-28.029c-.27-.317-.524-.469-.733-.469Z"/>
  <path fill="#263238" d="M396.644 295.236a1294.02 1294.02 0 0 1-5.724-3.193c-.201-.121-.365-.343-.46-.668l-2.358-8.168 1.975-4.093c.585-1.217 1.313-1.347 1.62-.288l4.564 15.789c.087.287.211.491.383.621Z"/>
  <path fill="#F0997A" d="M434.881 286.912c4.306 2.407 6.102 5.695 6.266 8.616 1.74-6.437-5.207-9.921-5.207-9.921l-1.059 1.305Zm-34.07-13.881c1.562 2.094 4.786 4.084 6.438 4.473 0 0-2.413.39-4.067-.793-1.812-1.298-2.231-2.706-2.371-3.68Z"/>
  <path fill="#E4897B" d="M398.463 266.818c-.776-.197-1.554-.384-2.332-.57-.378-.09-.762-.166-1.121-.301-.341-.128-.635-.225-.923.125-.203.247-.244.581-.219.892.085 1.033.807 1.931 1.677 2.552.868.621 1.887 1.019 2.854 1.489.177.086.263.175.286.261l3.773-3.308a59.68 59.68 0 0 0-3.995-1.14Z"/>
  <path fill="url(#a)" d="M505.244 322.376c2.84-2.231-2.198-10.31-3.76-21.572-.481-3.471 1.821-12.077 1.821-12.077s-6.648-9.708-4.5-26.564l-10.326-1.871-16.802-.243-9.66 1.573c-2.229 1.901-5.697 5.663-8.939 10.218-4.68 6.573-4.25 15.032.799 20.259.075 1.033-.102 9.019-.56 13.079-.634 5.629-4.152 16.638-1.848 17.743 9.864 8.111 40.396 7.933 53.775-.545Z"/>
  <path fill="#E4897B" d="M490.649 248.175c1.904.34 3.715-.576 4.877-1.809 2.579-2.736 2.83-5.514 1.644-7.36-.976-1.517-3.395-2.481-5.097-1.449-.984.598-1.586 1.315-2.104 2.302-.401.763-.632 1.889-1.703 1.962-.536.037-1.081-.263-1.323-.727-.142-.272-.184-.581-.2-.886a6.405 6.405 0 0 1 1.266-4.161 27.914 27.914 0 0 1-11.188-6.139c-.47-.426-.938-.884-1.174-1.464a8.665 8.665 0 0 0 1.485 3.449c-3.851-.803-6.69-4.09-8.19-7.616-2.4 1.208-4.372 3.166-5.71 5.432-1.176 1.992-1.181 4.981-1.405 7.236-.892 9.044.348 14.088 3.088 16.533 1.476 1.318 4.082 2.594 7.289 2.445l-.142 4.202s-9.434 8.819 2.689 7.91c9.084-.681 13.762-7.568 13.762-7.568l.136-13.71c0 .003.191 1.096 2 1.418Z"/>
  <path fill="#B16668" d="M470.584 246.26c.475 1.485 2.127 2.319 3.691 1.863 1.564-.456 2.446-2.03 1.973-3.516l-5.664 1.653Z"/>
  <path fill="#F0997A" d="M476.359 245.52c-.043 1.169-.843 2.241-2.086 2.603-.347.101-.697.13-1.039.111.084-1.564 1.479-2.776 3.125-2.714Z"/>
  <path fill="#263238" d="m477.068 233.647 3.411 1.889c.559-.898.249-2.049-.694-2.571-.943-.521-2.158-.215-2.717.682Zm-13.874.012 3.595-1.533c-.414-.969-1.555-1.41-2.547-.987-.993.423-1.463 1.551-1.048 2.52Zm15.522 3.823c0 .822-.688 1.487-1.537 1.487s-1.536-.665-1.536-1.487c0-.822.687-1.488 1.536-1.488s1.537.666 1.537 1.488Zm-11.615-1.086c0 .822-.688 1.488-1.537 1.488s-1.537-.666-1.537-1.488.688-1.488 1.537-1.488 1.537.666 1.537 1.488Z"/>
  <path fill="#F0997A" d="m466.338 240.807 4.781 1.969 1.608-9.786-6.389 7.817Zm5.865 15.118c4.824-.169 11.486-1.889 13.477-7.261-.829 5.816-5.252 7.484-7.964 8.207-3.296.879-5.575.91-5.575.91l.062-1.856Zm-2.346 27.615c-3.072-1.979-4.608-2.729-6.011-3.043-1.404-.314-6.358-2.028-8.243-2.389-1.196-.229-1.594 1.579-.03 2.745 1.204.898 4.276 2.009 5.631 2.641 1.355.633 4.091 3.519 4.091 3.519l4.562-3.473Z"/>
  <path fill="#E4897B" d="M511.704 270.809c-3.223-5.846-6.46-7.354-12.899-8.647-4.041 7.152-1.058 19.235-1.058 19.235l3.916 14.485s-17.541-1.652-19.609-2.788c-2.068-1.135-7.72-6.42-9.607-7.994-2.567-2.142-3.776-1.788-5.021-1.555-4.075.761-4.959 1.129-5.804 1.69-.844.561-.728 1.551-.728 1.551-1.083.176-2.714.214-2.846 1.924-.087 1.129-.003 1.365-.003 1.365s-.39.054-.69.416c-.86 1.037.853 4.424 1.878 5.223.721.562 1.713.593 3.002.37 1.097-.189.535-1.234.535-1.234l1.548.02c3.44 2.108 3.814 6.564 8.267 7.358.941.167 2.854.059 5.432.761 9.635 2.622 25.621 11.141 34.113 11.468 8.289.32 7.859-3.852 7.768-8.664-.081-4.293-4.981-29.155-8.194-34.984Z"/>
  <path fill="#F0997A" d="m501.232 294.252.429 1.629c3.802.758 8.431 5.285 9.424 7.199-.845-3.067-3.158-7.435-9.853-8.828Zm-40.337-7.465 4.827-1.144-4.756.498c-.065.222-.09.438-.071.646Zm-2.851 3.288 5.575-.932-5.609.315c-.016.194.001.401.034.617Zm5.146 3.98c-.683-.615-.743-.994-.743-.994s-1.355.034-1.959-.04a5.944 5.944 0 0 1-.758-.174c-.302-.103-.607-.227-.839-.456.183.266.476.462.782.589.273.121.559.193.855.246l.35.64c-.212.029-.41.111-.572.239-.239.188-.378.453-.457.717.132-.246.324-.457.545-.605.223-.135.502-.2.747-.165 1.248.221 1.628.798 1.628.798l1.548.02s-.761-.486-1.127-.815Z"/>
  <path fill="#E86B31" d="m510.1 199.144-.892-2.695c-.48-2.177 8.695 2.951 9.175 5.128l-2.956 7.704a1.235 1.235 0 0 1-.496.56c-.649.387-3.04 1.692-3.248 1.815-.654.388-1.618.145-1.89-.679l-3.829-12.715c-.238-1.073 1.876-.368 4.136.882Z"/>
  <path fill="#704705" d="m510.1 199.144-.892-2.695c-.48-2.177 8.695 2.951 9.175 5.128l-2.956 7.704a1.235 1.235 0 0 1-.496.56c-.649.387-3.04 1.692-3.248 1.815-.654.388-1.618.145-1.89-.679l-3.829-12.715c-.238-1.073 1.876-.368 4.136.882Z"/>
  <path fill="#E86B31" d="m498.923 146.644 34.88 19.479c.651.363 1.179 1.249 1.179 1.977v40.011c0 .728-.53 1.608-1.186 1.967l-3.449 1.899c-.656.357-1.714.353-2.365-.011l-34.881-19.48c-.651-.364-1.179-1.249-1.179-1.977v-40.012c0-.728.53-1.608 1.186-1.967l3.449-1.899c.656-.356 1.715-.352 2.366.013Z"/>
  <path fill="#704705" d="m498.923 146.644 34.88 19.479c.651.363 1.179 1.249 1.179 1.977v40.011c0 .728-.53 1.608-1.186 1.967l-3.449 1.899c-.656.357-1.714.353-2.365-.011l-34.881-19.48c-.651-.364-1.179-1.249-1.179-1.977v-40.012c0-.728.53-1.608 1.186-1.967l3.449-1.899c.656-.356 1.715-.352 2.366.013Z"/>
  <path fill="#E86B31" d="m493.101 149.839 34.881 19.48c.651.364 1.179 1.248 1.179 1.976v40.012c0 .727-.528 1.023-1.179.659l-13.348-7.454-2.453 6.584c-.471 1.046-2.029.97-2.389-.118l-3.258-10.989-13.433-7.503c-.651-.364-1.179-1.248-1.179-1.977v-40.012c0-.726.527-1.021 1.179-.658Z"/>
  <path fill="#FFBE55" d="m493.101 149.839 34.881 19.48c.651.364 1.179 1.248 1.179 1.976v40.012c0 .727-.528 1.023-1.179.659l-13.348-7.454-2.453 6.584c-.471 1.046-2.029.97-2.389-.118l-3.258-10.989-13.433-7.503c-.651-.364-1.179-1.248-1.179-1.977v-40.012c0-.726.527-1.021 1.179-.658Z"/>
  <path fill="#FAFAFA" d="M505.136 192.626c-.115 0-.231-.008-.348-.024a2.58 2.58 0 0 1-1.998-1.419l-4.17-8.507c-.609-1.254-.053-2.749 1.244-3.339 1.296-.591 2.839-.052 3.449 1.204l2.466 4.995 11.916-13.432c.934-1.05 2.573-1.171 3.658-.269a2.458 2.458 0 0 1 .278 3.541l-14.526 16.375a2.634 2.634 0 0 1-1.969.875Z"/>
  <path fill="#FFBE55" d="M491.938 150.291c.092-.576.576-.781 1.164-.455l34.877 19.481c.327.185.621.496.834.854l5.8-3.237c-.213-.343-.495-.638-.811-.812l-34.882-19.481c-.648-.364-1.704-.368-2.363-.01l-3.448 1.898c-.594.328-1.089 1.081-1.171 1.762Z" opacity=".7"/>
  <path fill="#E4897B" d="m321.619 443.942 6.674-12.731 13.436 7.612-16.562 18.928s-8.209-.736-9.532-4.882c-1.321-4.146 3.722-7.547 5.984-8.927Z"/>
  <path fill="#263238" d="M312.154 448.943c-.819.543-1.32 1.193-1.862 1.97-.541.777-.373 4.546-.889 6.295-.517 1.749-.916 2.215-1.779 4.407-.957 2.429-2.726 4.648-.727 10.891 2.025 6.327 5.203 9.219 7.904 10.744 1.421.802 3.259.765 3.259.765s3.541-1.296 2.998-3.323c-.544-2.028-8.904-31.749-8.904-31.749Z"/>
  <path fill="#455A64" d="M327.692 455.795c-.098.644-1.027 1.631-1.404 2.157-1.271 1.766-1.854 4.155-2.296 6.242-2.087 9.881 1.969 14.903-3.523 18.609-1.593.969-4.893.704-9.911-5.524-2.562-3.181-4.026-9.723-3.027-12.685 1-2.961 2.369-4.891 3.014-7.17.643-2.279.309-6.524 1.608-8.482.762-1.149 2.002-1.956 3.187-2.653.974-.574 3.104-1.329 4.099-1.876 1.075-.591 1.54-1.168 2.179-.471l-1.146 1.372c-1.791 2.401-1.291 2.752-1.248 4.03.044 1.333-.415 2.742-.666 4.068 1.274-1.555 1.795-2.915 3.186-2.676 1.301.224 1.556.173 3.549 1.983 1.992 1.811 2.486 2.506 2.399 3.076Z"/>
  <path fill="#37474F" d="M310.558 477.277c-2.562-3.181-4.026-9.723-3.027-12.684a26.951 26.951 0 0 1 1.178-2.87c-.043.199-.104.404-.132.576-.062.382-.115.768-.152 1.153-.147 1.485-.141 3.101.508 4.485.577 1.231 1.91 4.319 3.628 4.388.972.038 1.793-.883 2.167-1.935.158-.446.42-1.644.42-1.644s2.534.529 4.463 1.765c2.49 1.595 2.4 1.948 2.4 1.948-.104.545-.217 1.47-.081 2.117.137.648.515 1.695.928 2.108.199.2.414.357.633.492-.102 2.28-.719 4.071-3.022 5.626-1.591.969-4.892.703-9.911-5.525Z"/>
  <path fill="#37474F" d="M323.993 464.191c-.647 3.067-.703 5.662-.637 7.898-.938 2.531-1.759 2.454-1.872 1.145-.113-1.317 1.691-6.753 3.035-11.248a37.747 37.747 0 0 0-.526 2.205Zm-6.212-15.841c-.15-1.233.248-2.499 1-3.615.245-.112.475-.222.659-.322 1.074-.591 1.54-1.168 2.179-.471l-1.146 1.372c-1.792 2.401-1.292 2.752-1.249 4.03.044 1.331-.414 2.742-.666 4.068-1.039 4.29-1.989 5.723-2.479 9.776-.491 4.052.349 6.775-.243 7.005-.591.229-1.786-.231-2.002-3.479-.217-3.247 1.263-8.705 2.308-11.291 1.043-2.587 1.853-5.341 1.639-7.073Z"/>
  <path fill="#EBEBEB" d="M314.85 469.035c.057.056.13.095.214.113 2.938.585 4.504 1.301 6.691 3.795a.434.434 0 0 0 .589.047.395.395 0 0 0 .048-.569c-2.311-2.635-4.033-3.441-7.16-4.063a.418.418 0 0 0-.493.314.393.393 0 0 0 .111.363Zm.53-3.381a.442.442 0 0 0 .209.114c3.04.681 4.727 1.515 7.049 4.141.174.19.425.194.604.046.18-.149.2-.411.048-.585-2.451-2.765-4.285-3.688-7.508-4.41a.429.429 0 0 0-.514.31.414.414 0 0 0 .112.384Zm-.073-3.723c.06.059.139.104.231.125 3.352.752 5.318 1.758 7.876 4.654a.488.488 0 0 0 .667.049.446.446 0 0 0 .051-.645c-2.694-3.043-4.829-4.153-8.381-4.95a.473.473 0 0 0-.567.343.446.446 0 0 0 .123.424Zm.557-3.177a.47.47 0 0 0 .226.122c3.286.736 5.189 1.702 7.704 4.546.16.181.457.21.652.048a.436.436 0 0 0 .05-.632c-2.638-2.985-4.716-4.056-8.199-4.836a.463.463 0 0 0-.555.336.438.438 0 0 0 .122.416Zm1.204-3.096a.464.464 0 0 0 .227.122c3.286.738 5.186 1.701 7.704 4.547.164.184.458.21.653.048a.439.439 0 0 0 .05-.632c-2.643-2.987-4.715-4.056-8.198-4.837a.465.465 0 0 0-.556.336.435.435 0 0 0 .12.416Z"/>
  <path fill="#E4897B" d="m325.242 444.959 8.699 6.884 4.919 2.989-5.615 10.28-15.823-7.334 7.82-12.819Z"/>
  <path fill="#455A64" d="M307.518 398.986s31.658-5.08 45.205-4.997c13.824.085 15.107 10.134 11.648 16.288-6.623 11.784-29.653 36.775-29.653 36.775s-7.735-3.429-10.112-9.909l5.254-11.66-16.529 5.12-8.442-5.484-.688-4.172 3.317-21.961Z"/>
  <path fill="#455A64" d="m307.518 398.984-54.805 8.835s-.538 12.7 4.62 24.075c4.429 9.769 13.463 14.108 20.502 15.157 7.396 1.102 16.58 1.304 16.58 1.304s4.299 3.256 8.66 4.935c4.361 1.678 23.449 9.418 23.449 9.418s5.362-4.394 4.829-13.549L313.33 430.6c-4.077-4.812-5.51-6.366-7.777-7.456 3.48-6.503 2.355-16.993 1.965-24.16Z"/>
  <path fill="#000" d="M332.618 415.552c-3.453 4.985-5.619 8.681-6.979 11.232l4.223-1.301c4.759-10.979 5.737-14.179 13.342-19.323 0 0-5.457 1.99-10.586 9.392Zm-42.243 26.651s-.064 2.694 4.04 6.154c0 0 4.299 3.256 8.66 4.935 4.361 1.678 23.449 9.418 23.449 9.418s1.037-.465 2.521-3.183c-4.935-1.128-21.189-7.286-26.44-9.441-9.345-3.833-12.23-7.883-12.23-7.883Zm20.23-14.71a542.597 542.597 0 0 1 2.726 3.111l2.645-.84s-4.692-4.941-7.718-7.538c-.614-.527-1.067-.95-1.733-1.316 1.527-3.881 1.472-10.248 1.472-10.248-.588 4.406-2.804 7.731-3.997 9.312-2.117-.569-4.565-.574-7.608-.084a10313.3 10313.3 0 0 0-20.669 3.389s14.729-1.284 22.392-1.57c7.664-.286 10.643 3.687 12.49 5.784Z" opacity=".3"/>
  <path fill="#263238" d="M358.8 460.189c3.723 1.421 6.023 2.852 7.744 5.028 1.719 2.176 2.245 4.382.611 7.017-1.634 2.637-4.636 5.732-8.202 5.53-3.565-.201-5.76-1.062-9.068-2.799l8.915-14.776Z"/>
  <path fill="#455A64" d="M329.045 463.238c-.052 1.08 4.651 3.234 9.538 5.491 5.237 2.42 6.526 3.995 10.801 6.031 4.886 2.327 6.741 2.461 10.533 1.441 3.791-1.019 8.468-6.273 5.21-11.104-2.656-3.938-6.096-5.02-11.317-6.351-5.397-1.374-8.269-2.337-12.213-3.82-3.769-1.417-6.877-3.965-7.657-3.082.539.253 4.484 2.61 3.737 3.251-.183.33-.747.228-1.716-.161-.423-.17-.913-.273-1.353-.063-.442.211-.726.687-.975 1.134-.604 1.088-.683 1.757-1.182 2.896-.292.666-.17.28-.442.955-.305.756-.885 1.895-.809 2.586.047.417.359.55.691.754.331.204.799.449 1.11.683.125.093.35.402.278.561-.118.264-.799.139-1.082.025-.339-.137-.758-.228-1.103-.351-.328-.117-1.185-.487-2.049-.876Z"/>
  <path fill="#37474F" d="M347.707 473.975c.702.343 5.137 2.339 6.529 1.142 1.506-1.295-2.051-3.362-2.051-3.362s-.543-3.239 3.495-8.002c.699.524 3.615.498 3.576-1.164-.041-1.651-4.926-3.697-4.997-3.728 4.999 1.295 8.29 2.411 10.868 6.235 3.257 4.83-1.42 10.085-5.211 11.104-3.791 1.02-5.648.885-10.532-1.442-.489-.232-1.247-.538-1.677-.783Z"/>
  <path fill="#37474F" d="M352.662 471.432c1.849.598.581 2.227-2.128 1.699-4.061-.792-7.433-3.021-11.952-4.401-4.886-2.257-9.863-4.359-9.542-5.554.874.317 2.745 1.072 2.745 1.072.366.15 1.31.491 1.31.491 3.704 1.548 7.8 4.038 11.806 5.088 3.529.925 5.911 1.008 7.761 1.605Zm2.749-7.064c-1.693-.948-1.987-1.758-5.307-3.234-3.296-1.465-8.932-4.635-12.4-6.591-1.085-.576-3.729-2.68-3.765-2.698.575-.634 2.689-.049 4.806 1.243 2.116 1.291 3.405 2.114 5.503 3.171 4.074 2.37 8.721 3.97 11.047 5.421 2.328 1.449 1.808 3.636.116 2.688Z"/>
  <path fill="#F0F0F0" d="M355.661 463.935a.545.545 0 0 1-.097.144c-.035.035-2.683 2.857-3.169 7.933-.025.25-.232.447-.463.444-.231-.004-.399-.208-.375-.458.519-5.431 3.295-8.378 3.447-8.537.174-.18.44-.189.594-.017a.453.453 0 0 1 .063.491Zm-3.283-2.321a.567.567 0 0 1-.085.133c-.036.04-3.213 3.753-3.923 9.364-.034.247-.244.44-.476.43-.23-.012-.392-.223-.361-.472.754-5.933 4.017-9.738 4.176-9.916.169-.186.435-.205.596-.042a.449.449 0 0 1 .073.503Zm-7.232 9.164a.473.473 0 0 1-.392.285c-.233.013-.416-.178-.408-.425.196-5.744 4.015-11.133 4.195-11.319.174-.181.44-.189.596-.018.154.171.132.459-.036.636-.041.043-3.735 5.307-3.911 10.652a.493.493 0 0 1-.044.189Zm-3.036-1.88a.477.477 0 0 1-.385.285c-.234.018-.419-.169-.414-.417.112-6.347 4.238-10.569 4.422-10.739.184-.169.449-.16.592.023.143.182.109.473-.073.637-.042.037-3.991 4.108-4.097 10.016a.54.54 0 0 1-.045.195Z"/>
  <path fill="#EBEBEB" d="M338.174 467.288a.472.472 0 0 1-.379.283c-.232.022-.421-.162-.42-.41.025-5.973 4.363-10.596 4.559-10.782.18-.175.446-.171.593.006.148.178.125.462-.059.637-.044.044-4.226 4.516-4.249 10.062a.499.499 0 0 1-.045.204Z"/>
  <path fill="#E4897B" d="M308.211 353.795c2.616 3.781 12.556 16.929 12.556 16.929s6.434-4.474 10.85-8.061c4.415-3.586 7.23-5.32 9.272-12.419.515-1.791 1.922-3.805 2.594-4.882 1.253-2.01 1.758-4.186 1.942-5.256.105-.913 2.509-.646 2.953 2.287.301 1.515-.216 3.009-.215 4.51-.008.459-.26 1.428.333 1.346 3.584-.5 6.228-4.446 10.517-7.241 1.55-1.001 5.516-2.042 6.357.131.071.53-.321.895-.469 1.363-.022.07-.015.121-.011.193.008.223.016.435.068.655.103.437.289.85.384 1.29a3.074 3.074 0 0 1-.24 1.979c-.229.47-.579.891-.711 1.395.082 1.194.041 1.774-.378 2.725-.332.752-.864 1.46-1.369 2.116-.337.437-.485.981-.722 1.475-.408.854-1.077 1.562-1.747 2.244-2.346 2.388-4.869 4.658-7.809 6.319-1.326.749-2.732 1.371-3.981 2.242-.926.645-1.78 1.395-2.475 2.274-.875 1.107-2.704 2.669-4.817 5.571-2.416 3.319-6.413 8.837-13.205 16.068-5.468 5.824-8.671 3.522-16.385-3.673-9.481-8.845-14.559-13.937-14.559-13.937l-2.298-29.344c5.609 1.817 10.948 7.919 13.565 11.701Z"/>
  <path fill="#F28F8F" d="M348.054 350.738c.711 4.011-1.166 6.995-2.652 8.525 3.273-.863 4.599-4.954 2.652-8.525Z"/>
  <path fill="url(#b)" d="M291.75 341.184c5.264.865 9.364 2.876 15.986 11.358 6.622 8.482 13.031 17.73 13.031 17.73l6.272-4.073c-1.691.945-.285 7.44 2.439 10.711 2.724 3.27 6.127 4.117 6.127 4.117s-3.035 4.667-6.192 7.512c-3.364 3.032-4.888 4.125-7.208 4.124-2.318 0-4.871-1.295-10.929-6.868-6.056-5.574-15.677-14.478-15.677-14.478l-3.849-30.133Z"/>
  <path fill="#37474F" fill-opacity=".11" d="M320.767 370.274c-2.815 3.013-4.803 8.272-4.605 10.983-1.182-3.169-.015-8.571 3.565-12.468l1.04 1.485Zm11.908 14.61a11.206 11.206 0 0 1-1.942-.579 11.03 11.03 0 0 1-3.447-2.18c-1.872-1.744-3.168-4.169-3.516-6.663-.017-.128-.161-.088-.152.029.18 2.769 1.359 5.381 3.486 7.27a11.949 11.949 0 0 0 3.643 2.202c.543.208 1.005.354 1.574.483.124-.163.309-.377.447-.548-.031-.005-.063-.008-.093-.014Z"/>
  <path fill="#FAFAFA" d="M300.654 359.701c-.735-14.247-4.062-18.178-11.527-18.978l-12.321-1.258c-3.656.725-16.234 4.604-20.471 6.029-2.727.917-3.901 6.524-4.487 15.309-.476 7.136-.549 13.116-.306 22.982.204 8.267.413 17.686 3.022 29.178 10.193 3.739 39.657.171 51.403-12.861-.946-2.946-4.716-8.27-5.313-14.191.386-12.402.231-21.732 0-26.21Z"/>
  <path fill="url(#c)" d="m256.061 345.308 9.201-3.132s1.661 3.743 5.226 10.925c3.564 7.181 3.693 10.442 4.025 22.974.332 12.534 2.7 34.565 4.242 39.65-5.705.769-10.646 8.776-25.296 6.292 0 0-3.078-14.514-3.558-39.242-.25-12.816-.319-33.846 6.16-37.467Z"/>
  <path fill="#FFBE55" d="M273.999 364.842c-1.433-11.255-6.303-11.838-7.43-8.138-4.228-6.129-5.021-11.188-4.954-13.287a131.087 131.087 0 0 0 2.586-3.775c.848-1.298 1.881-1.466 1.881-1.466l.076 3.093s.308 3.02 3.783 7.156c2.551 3.038 3.451 6.923 4.058 16.417Z"/>
  <path fill="url(#d)" d="M282.381 341.115c5.239 1.974 9.077 7.608 10.315 15.4 1.238 7.791 2.249 27.676 3.118 33.557.868 5.881 4.75 16.128 4.75 16.128s6.43-2.563 8.212-7.446c-2.96-3.737-5.706-8.929-6.218-13.831-.512-4.901-.041-20.524-.803-26.504s-1.415-14.234-8.736-16.994c-3.154-1.189-10.58-1.661-10.58-1.661l-.058 1.351Z"/>
  <path fill="#FFBE55" d="M293.26 361.014c-.717-5.734-4.084-15.991-10.499-18.082-.38-.777-.38-1.817-.38-1.817l.058-2.976s2.703.851 5.469 2.583c2.765 1.732 7.546 7.266 8.779 11.731-2.776-2.283-3.877 1.429-3.427 8.561Z"/>
  <path fill="#263238" d="M266.566 336.21c-.998-3.916-5.388-7.762-7.487-11.089-2.024-3.208-3.275-5.719-3.313-8.867-.023-1.864.994-4.466 2.376-5.096-.158.072-.49-3.299-.464-3.62.086-1.129.412-2.279.861-3.323a12.076 12.076 0 0 1 4.449-5.283c2.809-1.842 6.279-2.478 9.665-2.685 3.385-.208 6.796-.03 10.163-.441 3.365-.411 6.781-1.489 9.185-3.806-.13.124.183 1.535.2 1.771.051.701.07 1.404.055 2.106-.025 1.121.191 2.189-.223 3.263a8.34 8.34 0 0 0 3.333-3.263c.4 3.033.748 6.329-.871 8.956.761.299 1.169 1.103 1.367 1.874.42 1.638.189 3.398-.488 4.953-.676 1.555-1.777 2.914-3.064 4.053-2.236 1.979-5.019 3.31-7.905 4.2-2.887.89-5.892 1.36-8.889 1.787-.186.026-.382.057-.521.18-.106.092-.163.223-.216.349-1.154 2.721-3.026 5.285-4.547 7.835l-3.606 6.046c-.01.015-.064.082-.06.1Z"/>
  <path fill="#E4897B" d="M261.024 330.075c2.96 1.546 4.833-.34 4.833-.34l.326 13.234c2.501 5.509 12.105 7.762 17.174 7.412.686-2.374.542-5.977-.412-8.627l-.086-3.59s1.942.167 5.016-.822c3.084-.993 5.36-3.524 6.127-6.936.8-3.565.644-7.82.044-12.224a39.233 39.233 0 0 1-.316-3.54c-.073-1.914-.633-3.929-1.334-5.715a15.335 15.335 0 0 0-2.906-4.675c-.154-.171-.329-.347-.557-.392-.197-.04-.398.024-.58.107-.961.44-1.562 1.369-2.356 2.052-1.661 1.427-4.071 1.694-6.285 1.539a20.915 20.915 0 0 1-6.469-1.512c-.257-.107-.546-.219-.808-.121-.245.091-.39.352-.413.605-.023.254.051.505.124.751.73 2.425 1.341 5.329.37 7.779-.33.834-.869 1.617-1.487 2.277-.169.18-1.96 1.517-1.957 1.534.208 1.18.496 4.174-1.524 4.203-1.454.022-1.63-1.738-3.191-3.229-1.592-1.523-5.062-1.763-6.305.586-1.741 3.284-.27 7.951 2.972 9.644Z"/>
  <path fill="#F28F8F" d="M282.861 338.163c-5.129-.368-8.282-1.101-11.85-3.848-2.806-2.161-3.964-6.987-3.964-6.987s-.015 5.473 2.656 8.5c1.747 1.98 5.166 4.272 13.197 4.603l-.039-2.268Z"/>
  <path fill="#263238" d="M279.957 318.336a1.433 1.433 0 0 1-1.396 1.48 1.449 1.449 0 0 1-1.478-1.41 1.432 1.432 0 0 1 1.395-1.48 1.45 1.45 0 0 1 1.479 1.41Zm-1.437-4.316-2.979 1.801a1.75 1.75 0 0 1 .584-2.403 1.744 1.744 0 0 1 2.395.602Zm13.604.702-3.366-1.056c.268-.918 1.24-1.426 2.169-1.135.93.292 1.466 1.273 1.197 2.191Zm-.495 2.744a1.444 1.444 0 0 1-1.523 1.357 1.439 1.439 0 0 1-1.345-1.529 1.444 1.444 0 0 1 1.522-1.358 1.439 1.439 0 0 1 1.346 1.53Z"/>
  <path fill="#F28F8F" d="m289.357 322.787-4.699 2.251-1.869-9.03c1.752-.686 4.222 3.398 6.568 6.779Z"/>
  <path fill="#B16668" d="m279.342 327.111 6.059 1a3.005 3.005 0 0 1-3.479 2.528 3.126 3.126 0 0 1-2.58-3.528Z"/>
  <path fill="#F28F8F" d="M280.109 328.029a3.453 3.453 0 0 0-.744.041c.216 1.279 1.213 2.348 2.557 2.57.338.056.667.041.986-.011.033-1.343-1.193-2.498-2.799-2.6Z"/>
  <path fill="#000" d="M342.156 424.548a9.071 9.071 0 0 0-1.476-1.678c-5.664-5.075-16.301-11.782-25.34-17.356l-41.122 22.987a.36.36 0 0 0 0 .633l29.865 16.695 38.073-21.281Z" opacity=".15"/>
  <path fill="#37474F" d="M354.624 412.861v.644c0 .943-.518 1.816-1.366 2.292l-47.813 26.723c-.419.238-.896.35-1.36.35-.474 0-.948-.115-1.375-.352l-26.062-14.52a2.644 2.644 0 0 1-1.363-2.292v-.89h.006v.009c0 .115.054.221.172.291l28.622 16 50.539-28.255Z"/>
  <path fill="#263238" d="M304.082 441.11v1.76c.469 0 .943-.115 1.364-.352l47.813-26.722a2.636 2.636 0 0 0 1.369-2.294v-.645l-50.546 28.253Z"/>
  <path fill="#455A64" d="m354.628 412.858-28.351-15.844a1.674 1.674 0 0 0-1.629 0l-49.181 27.493a.345.345 0 0 0 0 .607l28.615 15.997 50.546-28.253Z"/>
  <path fill="#37474F" d="m303.823 438.781-15.292-8.536 44.712-24.991 15.37 8.493-44.79 25.034Z"/>
  <path fill="#263238" d="m348.61 413.743-.583.326-14.788-8.168-44.122 24.667-.584-.325 44.706-24.993 15.371 8.493Zm-52.305 1.288.281.158 7.495 4.187 13.328-7.449.277-.153-7.776-4.346-13.605 7.603Z"/>
  <path fill="#37474F" d="m296.588 415.189 7.494 4.187 13.329-7.449-7.499-4.189-13.324 7.451Z"/>
  <path fill="#E4897B" d="M311.366 418.181c-2.398-2.301-5.877-5.494-8.801-6.431-.377-.117-.945-.372-2.054-.619 1.008-.193 2.021-.26 3.004-.581.976-.318 1.907-.84 2.538-1.629.254-.317.433-.822.113-1.077a.716.716 0 0 0-.416-.148c-2.191-.064-3.917-.394-5.906-.532-.868-.061-1.845-.173-2.683.047-.816.214-1.629.445-2.43.713-3.632 1.216-7.076.891-12.09-1.333s-23.1-13.001-23.1-13.001l3.832 20.528 14.306 5.355v-.001l.149.056c1.144.416 2.174 1.28 4.907 2.092 3.24.963 7.384-.176 10.199-.321 2.815-.146 7.586 1.114 10.198 2.14 2.611 1.026 5.746-2.867 7.055-2.399 1.311.468 3.577-.557 1.179-2.859Z"/>
  <path fill="#F28F8F" d="M299.297 409.628c-1.895-.186-3.985.625-3.985.625s2.341.047 5.199.876c1.007-.192 2.02-.26 3.004-.58.861-.282 1.687-.722 2.303-1.363-1.574 1.034-4.625.63-6.521.442Z"/>
  <path fill="#353739" d="M304.852 441.5a3.329 3.329 0 0 0 2.789-.209l47.602-26.607a3.144 3.144 0 0 0 1.575-2.192l5.211-30.087a3.074 3.074 0 0 0-.914-2.743l-49.468 27.654a2.33 2.33 0 0 0-1.163 1.621l-5.632 32.563Z"/>
  <path fill="#455A64" d="m304.082 441.11.325.18c.144.079.292.148.445.209l5.633-32.561a2.323 2.323 0 0 1 1.162-1.621l49.469-27.655a3.311 3.311 0 0 0-.66-.486l-49.57 27.705a2.324 2.324 0 0 0-1.162 1.622l-5.642 32.607Z"/>
  <path fill="#37474F" d="m310.945 407.931-.767-.429a2.28 2.28 0 0 0-.454 1.001l-5.642 32.607.325.181c.144.078.292.148.445.208l5.633-32.56c.066-.372.23-.714.46-1.008Z"/>
  <path fill="#E86B31" d="M331.664 413.725c.348-2.015 2.496-4.689 4.797-5.976 2.301-1.286 3.883-.695 3.534 1.319-.349 2.015-2.497 4.689-4.798 5.976-2.3 1.286-3.883.697-3.533-1.319Z"/>
  <path fill="#E4897B" d="M273.441 403.173c-7.623-5.346-13.9-9.584-13.9-9.584l2.18-22.685s1.645-11.22-.964-17.567c-2.708-6.588-5.391-7.517-5.391-7.517s-4.417 1.509-7.37 4.007c-2.953 2.498-4.362 8.31-5.074 16.504-.626 7.195-1.801 25.242-1.987 29.453-.237 5.345.03 9.639 5.863 12.221 6.163 2.73 24.649 8.837 24.649 8.837l1.994-13.669Z"/>
  <path fill="url(#e)" d="M256.062 345.307c-5.992 1.857-9.052 2.928-11.583 9.726-2.53 6.798-2.444 19.282-3.219 29.286-.775 10.005-1.344 16.541.313 19.698.909 1.732 2.566 3.326 8.504 5.494 5.937 2.167 11.645 4.133 11.645 4.133s.567-8.838 7.08-14.789l-8.947-5.264s2.053-20.431 2.552-26.019c.498-5.59 1.111-17.426-6.345-22.265Z"/>
  <path fill="#37474F" fill-opacity=".11" d="M259.854 393.59c-3.503-1.599-10.453-.158-11.934 1.055 1.766-2.962 6.496-4.028 12.164-3.341l-.23 2.286Zm2.263 6.154c-1.099.67-1.947 1.836-2.578 2.914a14.13 14.13 0 0 0-1.432 3.465 18.122 18.122 0 0 0-.602 4.224c-.017.582-.036 1.21.011 1.828l.664.235c-.18-2.03-.022-4.085.519-6.069.321-1.174.78-2.325 1.378-3.395.609-1.09 1.383-2.034 2.106-3.046.036-.049.026-.212-.066-.156Z"/>
  <path fill="#E4897B" d="m106.664 444.674-1.018-12.881 14.507 1.375s-.408 6.966-.717 10.905c-.183 2.33 2.808 6.747 2.808 6.747s-6.926 3.51-10.548 2.112c-3.622-1.398-5.435-6.056-5.357-7.059.078-1.001.325-1.199.325-1.199Z"/>
  <path fill="#263238" d="M141.126 465.72c.229.002.55 2.399-.708 3.403-1.451 1.159-5.694 3.041-11.265 2.298-5.571-.744-8.575-2.41-10.788-4.202-2.213-1.793-5.315-4.321-7.832-4.875-2.338-.514-4.874-1.547-5.617-2.241-.742-.694-.605-3.742-.605-3.742l36.815 9.359Z"/>
  <path fill="#455A64" d="M106.661 444.65s-.699 0-.852.704c-.181.839-.392 3.28-.777 4.655-.533 1.911-.918 5.836-.628 7.401.291 1.565 4.101 2.693 6.533 3.599 2.485.926 5.35 2.81 7.86 4.814 2.599 2.074 8.091 4.262 11.727 4.275 4.302.017 9.16-1.25 10.29-3.125 1.399-2.322 2.429-5.025-3.92-7.891-1.202-.543-5.417-2.964-6.854-3.841-3.886-2.372-6.614-4.54-8.369-8.683-.205-.484-.42-1.02-.903-1.271-.37-.192-.82-.17-1.239-.119-1.064.13-5.309.637-6.282 1.064-.86.377-2.08.814-2.073 1.851.002.361.109.714.229 1.057.074.213.131.496-.066.618-.186.117-.429-.021-.595-.164-.662-.574-1.143-1.305-1.699-1.972a6.042 6.042 0 0 0-.999-.984c-.343-.258-.782-.389-1.085-.682-.382-.366-.284-.819-.298-1.306Z"/>
  <path fill="#37474F" d="M118.797 465.826a43.748 43.748 0 0 0-3.453-2.496v-.006s7.455 4.397 10.507 2.471c1.967-1.241 1.054-2.784 1.013-3.275-.042-.491 6.89-3.876 8.789-4.069.525.283.966.51 1.242.635 6.348 2.866 5.319 5.569 3.92 7.891-1.13 1.875-4.655 3.31-10.215 3.251-3.637-.039-9.203-2.329-11.803-4.402Z"/>
  <path fill="#37474F" d="M126.355 461.084c3.95 1.544 2.25 2.226 1.139 2.365-1.112.138-7.75-3.624-11.788-6.717-4.212-3.226-6.853-6.732-8.418-7.917a26.873 26.873 0 0 1-1.768-1.49c.113-.825.206-1.576.29-1.971.152-.704.852-.704.852-.704.013.487-.084.94.299 1.31.304.292.743.424 1.085.681.378.284.702.627 1 .985.554.667 1.036 1.398 1.698 1.972 3.419 4.197 11.661 9.941 15.611 11.486Z"/>
  <path fill="#263238" d="M127.218 462.895a.403.403 0 0 1-.248-.087.356.356 0 0 1-.05-.523c1.134-1.286 6.472-4.307 9.387-3.972.216.023.369.21.344.412-.026.203-.198.343-.436.326-2.722-.307-7.794 2.692-8.693 3.711a.394.394 0 0 1-.304.133Zm-3.438-2.053a.408.408 0 0 1-.248-.086.357.357 0 0 1-.05-.523c1.132-1.285 6.47-4.304 9.388-3.971a.377.377 0 0 1 .344.412.386.386 0 0 1-.436.325c-2.723-.302-7.794 2.692-8.693 3.711a.39.39 0 0 1-.305.132Zm-3.44-1.948a.408.408 0 0 1-.248-.086.36.36 0 0 1-.05-.524c1.134-1.286 6.473-4.309 9.388-3.971.216.024.37.21.344.413-.025.203-.212.349-.435.325-2.724-.306-7.795 2.692-8.693 3.711a.409.409 0 0 1-.306.132Zm-3.184-2.215a.403.403 0 0 1-.248-.087.359.359 0 0 1-.05-.523c1.133-1.286 6.484-4.306 9.388-3.971.216.024.37.21.344.413-.025.202-.213.347-.435.325-2.72-.304-7.795 2.691-8.693 3.709a.399.399 0 0 1-.306.134Zm-3.119-2.212a.41.41 0 0 1-.243-.083.359.359 0 0 1-.058-.523c1.559-1.823 7.143-4.335 10.056-4.001.216.024.371.21.344.413-.025.203-.214.343-.435.325-2.624-.298-7.971 2.116-9.354 3.732a.4.4 0 0 1-.31.137Z"/>
  <path fill="#E4897B" d="m82.137 454.451 2.668-12.437-15.018-1.477-.016 11.891s-1.352 4.321-.357 5.829c.995 1.507 10.989 2.702 11.856 1.632.866-1.071.867-5.438.867-5.438Z"/>
  <path fill="#263238" d="M82.076 481.246c-.277 3.821-.963 6.316-2.503 8.447-1.542 2.131-4.423 2.608-7.33 1.716-2.908-.892-6.627-2.955-7.438-6.336-.811-3.381-.627-5.639.06-9.149l17.211 5.322Z"/>
  <path fill="#455A64" d="M69.771 452.43c-1.2-.012-.678 5.186-1.408 10.296-.781 5.477-2.646 7.618-3.342 12.105-.794 5.125-.506 7.467 1.504 10.765 2.01 3.3 9.183 6.95 12.761 2.742 2.918-3.43 3.066-7.48 2.839-12.68-.234-5.375-.447-9.16-.173-13.203.262-3.864 1.228-7.335.188-7.85-.085.563-.168 1.281-.257 1.834-.069.425-.204 2.518-.876 2.484a7.199 7.199 0 0 1-.003-1.464c.036-.436-.003-.919-.32-1.279-.32-.364-1.48-.783-1.967-.907-1.18-.304-3.28-.654-4.48-.847a20.646 20.646 0 0 0-1.797-.212c-.486-.033-1.06-.042-1.522.072-.284.071-.547.23-.653.476-.08.18-.066.387-.068.587a3.749 3.749 0 0 1-.157 1.053c-.045.15-.165.327-.336.275-.139-.041-.193-.2-.193-.329 0-.627.091-1.074.13-1.799.017-.336.082-.79.089-1.127.008-.331.013-.663.041-.992Z"/>
  <path fill="#37474F" d="M65.305 473.377c-.122.739-.867 5.636.636 6.649 1.626 1.097 2.55-2.725 2.55-2.725s3.838-.742 9.397 1.884c-.291.78.55 3.5 2.084 3.063 1.524-.434 2.163-6.068 2.172-6.141.197 4.984-.024 8.902-2.856 12.232-3.578 4.207-10.75.556-12.76-2.743-2.011-3.298-2.3-5.64-1.505-10.765.079-.515.175-.994.282-1.454Z"/>
  <path fill="#37474F" d="M68.927 477.668c-.038 1.873-2.103 1.074-2.175-1.581-.07-2.654 1.595-8.805 1.612-13.361.09-6.256.207-10.309 1.408-10.296-.004.062-.003.126-.008.19l-.177 2.611c-.037.379-.077.714-.075 1.118-.057 3.822.2 11.231-.194 14.697-.393 3.466-.354 4.749-.391 6.622Zm8.315 1.414c.407-1.81.748-3.028 1.19-6.486.44-3.433 2.173-10.343 3.02-14.055.297-.617.382-1.795.432-2.102.084-.517.161-1.172.24-1.715.008-.038.017-.077.023-.115.75.385.62 3.35.295 4.896-.325 1.546-.73 3.206-1.125 5.423-1.06 4.377-.911 10.875-1.607 13.4-.698 2.523-2.876 2.565-2.468.754Z"/>
  <path fill="#263238" d="M78.003 479.345a.543.543 0 0 1-.162-.056c-.043-.024-4.385-2.364-9.24-1.596-.238.037-.48-.11-.541-.326-.063-.218.08-.424.32-.461 5.193-.822 9.69 1.606 9.88 1.712.217.118.3.365.183.551a.43.43 0 0 1-.44.176Zm1.032-3.989a.536.536 0 0 1-.147-.048c-.049-.024-4.932-2.469-10.346-1.783-.24.027-.477-.123-.531-.342-.054-.219.097-.421.337-.451 5.726-.722 10.718 1.783 10.929 1.888.221.113.313.358.206.548-.085.148-.266.219-.448.188Zm-10.175-5.673a.482.482 0 0 1-.375-.298c-.076-.215.049-.432.283-.483 5.393-1.2 10.692 1.671 10.915 1.796.218.119.3.365.183.551-.117.185-.389.235-.6.12-.052-.027-5.2-2.811-10.217-1.689a.521.521 0 0 1-.189.003Zm.334-3.62a.483.483 0 0 1-.371-.291c-.083-.215.039-.432.27-.487 5.933-1.422 10.927 1.652 11.136 1.782.21.131.274.381.145.558-.13.178-.41.217-.613.085-.046-.031-4.85-2.976-10.372-1.653a.473.473 0 0 1-.195.006Zm.396-4.066a.49.49 0 0 1-.371-.286c-.085-.213.033-.433.264-.492 5.56-1.413 10.986 1.762 11.214 1.9.213.126.284.376.16.556-.123.181-.395.228-.608.098-.054-.032-5.296-3.097-10.458-1.784a.49.49 0 0 1-.202.008Z"/>
  <path fill="#455A64" d="M72.124 332.579c-2.79 29.898-1.708 65.823-1.708 65.823-.244 2.27-2.2 9.552-2.156 20.82.064 15.852.933 27.646.933 27.646 3.58 2.963 11.059 3.551 14.863 1.667 0 0 5.57-25.004 8.889-39.271 3.318-14.267 6.963-29.874 6.963-29.874l2.4 18.298s-.703 9.431-.345 16.074c.439 8.143 3.684 27.602 3.684 27.602 2.067 2.559 11.122 3.088 14.305 0 0 0 4.639-35.238 5.176-45.566 1.107-21.295.432-44.159.22-65.325l-53.224 2.106Z"/>
  <path fill="#37474F" d="m99.906 379.39 3.635-27.831s7.848-1.038 11.923-4.705c0 0-2.673 4.896-10.087 6.698l-3.037 26.049-.033 18.086-2.4-18.297Z"/>
  <path fill="#E4897B" d="M162.479 307.812c-3.676 1.093-5.361 1.568-10.408 3.138-4.462 1.387-14.152 5.203-22.916 6.086-6.235.629-7.946-8.001-8.6-12.156-1.233-7.83-2.831-21.439-2.831-21.439l-1.609-18.349c9.87 3.072 14.482 4.468 17.236 18.113 1.139 5.649 3.211 17.59 3.211 17.59s17.824-1.892 20.535-2.321c5.436-.862 8.158-3.164 11.888-1.03 3.73 2.134 6.225 5.014 6.225 5.014l-12.731 5.354Z"/>
  <path fill="url(#f)" d="M115.475 264.631c6.996 1.451 14.959 3.346 17.484 13.436 1.663 6.64 4.258 21.742 4.258 21.742l13.581-.5s-2.317 1.961-1.677 6.324c.556 3.789 2.951 5.318 2.951 5.318s-7.755 3.147-16.222 5.726c-7.718 2.351-10.275 1.824-12.308-.64-2.032-2.463-2.937-7.575-3.829-12.306-1.411-7.483-2.617-21.001-2.617-21.001l-1.621-18.099Z"/>
  <path fill="url(#g)" d="M75.315 266.477s-5.124 10.613-4.023 21.331c.712 6.931.906 10.333.826 21.487-.057 7.754-.468 23.807-.468 23.807 8.215 6.759 45.918 8.461 54.33-1.691v-29.938c0-9.808-.787-17.749-1.938-22.382-2.6-10.468-6.377-12.876-8.571-14.46-7.081-1.777-14.46-2.638-19.535-1.926-12.218 1.713-20.621 3.772-20.621 3.772Z"/>
  <path fill="#263238" d="M90.574 260.289c-3.573-5.09-6-8.463-8.609-14.143-1.057-2.301-4.069-9.264-2.976-12.478.66-1.943 1.867-3.426 3.85-4.233-.587-2.471.467-5.25 2.222-7.064 2.898-2.997 5.744-3.797 9.093-4.423 3.35-.625 6.826-.217 10.126.615 3.076.776 6.765 2.195 9.713.292 1.017-.655 1.763-1.81 1.618-2.984 1.471.719 2.536 2.166 2.756 3.747.22 1.58-.411 3.248-1.633 4.319 1.596.179 2.944 1.593 3.001 3.147.056 1.554-1.183 3.057-2.761 3.346 1.145.92 1.252 2.638.725 3.985a5.872 5.872 0 0 1-2.81 3.059 6.17 6.17 0 0 1-4.2.473c.464.113-.055 3.032-.147 3.378-.235.893-.583 2.008-1.398 2.559-1.991 1.348-3.71 3.052-5.496 4.657l-9.765 8.773c-1.103.994-2.204 1.987-3.31 2.975Z"/>
  <path fill="#E4897B" d="M116.22 250.036c-.518 4.424-2.578 6.871-5.467 8.163-1.977.883-4.891.911-4.891.911l.011 3.594c9.647 9.555-12.487 9.796-17.407 1.162l-.15-12.231s-2.202 2.466-5.045.659c-2.19-1.391-4.713-4.865-3.58-8.37.852-2.639 3.803-3.274 6.28-1.689.878.563 1.45 1.39 2.262 2.003.895.676 1.866-.106 2.306-.958 1.055-2.046.635-3.544.1-5.77 1.529-.754 2.747-1.582 3.624-2.829.876-1.248.852-3.711.567-5.194 3.336.802 7.87 1.149 10.859.42 2.7-.66 5.569-1.551 7.551-3.511 1.963 3.314 1.561 6.211 2.256 10.119.792 4.456 1.252 9.009.724 13.521Z"/>
  <path fill="#AF6152" d="M105.864 259.111c-3.472.183-9.13-.23-12.254-2.875-2.326-1.971-3.92-4.738-3.92-4.738s1.117 4.035 3.21 6.077c1.858 1.812 5.201 3.11 7.453 3.402 1.828.236 4.521.177 5.543.171l-.032-2.037Zm-4.114-10.215 5.077.963a2.535 2.535 0 0 1-2.98 2.059 2.627 2.627 0 0 1-2.097-3.022Z"/>
  <path fill="#FFA8A7" d="M102.192 249.959c1.368-.186 2.643.601 3.083 1.816a2.538 2.538 0 0 1-1.428.143 2.623 2.623 0 0 1-2.029-1.871c.123-.033.244-.07.374-.088Z"/>
  <path fill="#263238" d="m96.77 237.692 3.059-1.825a1.756 1.756 0 0 0-2.423-.615 1.795 1.795 0 0 0-.637 2.44Zm16.937-1.09-3.232-1.522a1.748 1.748 0 0 1 2.347-.844c.893.421 1.289 1.48.885 2.366Zm-15.194 3.656c.031.798.735 1.437 1.57 1.428.836-.009 1.487-.665 1.456-1.463-.032-.798-.736-1.438-1.57-1.428-.835.01-1.488.665-1.456 1.463Zm11.334-.969c.032.798.735 1.437 1.57 1.428.836-.008 1.487-.664 1.456-1.462-.032-.8-.736-1.439-1.571-1.429-.836.01-1.488.665-1.455 1.463Z"/>
  <path fill="#AF6152" d="m110.872 244.39-4.71 2.108-1.447-8.577c1.715-.381 4.403 3.356 6.157 6.469Z"/>
  <path fill="#455A64" d="M28.818 366.244c-2.108 1.12-4.754.374-5.912-1.666-1.158-2.04-.388-4.603 1.72-5.724v-.001l6.737-3.557c.564-.301 1.333-.239 2.172.253 1.68.985 3.007 3.325 2.965 5.225-.021.951-.38 1.611-.944 1.911l-6.736 3.557-.002.002Z"/>
  <path fill="#37474F" d="M36.5 360.774c-.02.951-.38 1.611-.944 1.912l-6.736 3.557-.002.001a4.47 4.47 0 0 1-4.23-.027c1.15.433 5.867-2.066 7.994-3.197 2.127-1.131 3.2-2.596 1.605-5.712-1.163-2.27-2.57-2.065-3.25-1.786l.426-.226c.564-.301 1.333-.239 2.173.253 1.678.985 3.006 3.325 2.964 5.225Z"/>
  <path fill="#E86B31" d="M48.386 364.695c-5.933 3.156-13.385 1.057-16.645-4.687-3.26-5.745-1.092-12.959 4.842-16.114 1.588-.845 3.75-.673 6.114.714 4.727 2.773 8.464 9.358 8.346 14.708-.058 2.675-1.07 4.535-2.657 5.379Z"/>
  <path fill="#E86B31" d="M187.642 267.515c4.727 2.774 8.464 9.359 8.346 14.709-.06 2.675-1.07 4.534-2.658 5.379L48.386 364.694c-1.587.845-3.75.673-6.114-.714-4.727-2.773-8.464-9.358-8.345-14.708.059-2.675 1.07-4.535 2.657-5.379l144.945-77.092c1.586-.843 3.749-.672 6.113.714Z"/>
  <path fill="#fff" d="M187.642 267.515c4.727 2.774 8.464 9.359 8.346 14.709-.06 2.675-1.07 4.534-2.658 5.379L48.386 364.694c-1.587.845-3.75.673-6.114-.714-4.727-2.773-8.464-9.358-8.345-14.708.059-2.675 1.07-4.535 2.657-5.379l144.945-77.092c1.586-.843 3.749-.672 6.113.714Z" opacity=".35"/>
  <path fill="#E86B31" d="M187.642 267.516c-2.363-1.387-4.528-1.558-6.115-.714l-1.73.92c-.88 1.035-1.415 2.549-1.455 4.49-.11 5.5 3.744 12.262 8.609 15.105 1.694.99 3.283 1.361 4.644 1.209l1.735-.923c1.588-.844 2.599-2.704 2.658-5.379.118-5.35-3.619-11.935-8.346-14.708ZM166.5 284.341l-26.582 14.138c-.79.42-1.075 1.38-.634 2.142l1.141 1.975c.441.762 1.439 1.039 2.23.618l26.581-14.137c.79-.421 1.074-1.38.634-2.143l-1.14-1.974c-.441-.762-1.439-1.04-2.23-.619Z"/>
  <path fill="#000" d="m166.5 284.341-26.582 14.138c-.79.42-1.075 1.38-.634 2.142l1.141 1.975c.441.762 1.439 1.039 2.23.618l26.581-14.137c.79-.421 1.074-1.38.634-2.143l-1.14-1.974c-.441-.762-1.439-1.04-2.23-.619Z" opacity=".35"/>
  <path fill="#000" d="m161.498 292.95-2.549-4.413-.785.454 2.549 4.413.785-.454Z" opacity=".35"/>
  <path fill="#E86B31" d="M203.094 278.695c.11-5.5-3.743-12.262-8.608-15.105-2.433-1.422-4.656-1.593-6.287-.723l-5.889 3.145c-1.631.871-2.666 2.785-2.722 5.535-.11 5.5 3.744 12.262 8.609 15.105 2.432 1.422 4.656 1.593 6.287.723l5.889-3.145c1.631-.872 2.667-2.784 2.721-5.535Z"/>
  <path fill="#fff" d="M203.094 278.695c.11-5.5-3.743-12.262-8.608-15.105-2.433-1.422-4.656-1.593-6.287-.723l-5.889 3.145c-1.631.871-2.666 2.785-2.722 5.535-.11 5.5 3.744 12.262 8.609 15.105 2.432 1.422 4.656 1.593 6.287.723l5.889-3.145c1.631-.872 2.667-2.784 2.721-5.535Z" opacity=".35"/>
  <path fill="#E86B31" d="M218.481 257.947c-.351-.207-.75-.427-1.058-.456-6.42-.905-24.558 2.991-29.122 5.333-.033.017-.07.027-.103.045-1.63.871-2.666 2.783-2.721 5.535-.11 5.499 3.744 12.262 8.608 15.105 2.423 1.415 4.638 1.591 6.266.732l.004.007c4.379-2.329 17.673-15.176 20.353-20.964l-.007-.012c.13-.26.212-.577.226-.955.041-1.593-1.049-3.542-2.446-4.37Z"/>
  <path fill="#000" d="M228.396 255.702c.391.716.108 1.605-.633 1.983l-7.732 3.956c-.74.379-1.657.106-2.048-.612-.392-.716-.109-1.604.632-1.983l7.732-3.956c.74-.378 1.657-.105 2.049.612Z"/>
  <path fill="#AF6152" d="M90.617 310.84c2.111-2.315 2.72-2.62 5.248-3.053 2.528-.434 3.683-.663 4.681-.753.999-.088 4.507.19 5.219.495 1.28.547-.292 2.509-2.212 2.722-1.92.213-4.445.305-4.445.305l-8.49.284Z"/>
  <path fill="#E4897B" d="M76.234 266.674c-9.312 2.033-15.4 8.04-18.885 14.68-6.141 11.699-8.46 19.878-11.14 24.964-3.207 6.087 2.642 10.371 7.488 12.802 6.25 3.137 15.803 8.381 22.901 8.154 3.135-.101 4.643-1.608 6.121-3.107l6.91-6.365s-6.987-.821-9.585-2.002c-2.598-1.182-15.453-9.489-15.453-9.489l8.937-13.969s9.073-17.571 2.706-25.668Z"/>
  <path fill="url(#h)" d="M77.028 266.08c-4.101.522-8.457 1.658-12.197 4.741-3.739 3.083-5.31 4.008-11.766 17.286-6.456 13.279-7.906 17.735-8.745 20.43-1.029 3.3.374 5.447 4.487 8.4 4.113 2.953 16.122 7.66 16.122 7.66s.308-3.391 3.85-7.289c2.704-2.975 6.952-4 6.952-4l-10.464-7.472s7.993-11.901 10.242-16.668c3.026-6.416 4.895-14.143 1.519-23.088Z"/>
  <path fill="#E4897B" d="M80.938 321.206c.82-.265.614-3.7 1.962-4.377 1.348-.676 1.567-.514 2.075-1.922.509-1.408 1.464-2.064 2.34-2.113.876-.049.323-1.561 1.877-2.171 1.189-.467 4.744-.897 6.226-.959 1.481-.062 5.099 1.537 6.674 2.325 1.574.788.714 1.859-.121 2.436s-2.666.417-2.666.417 1.644 1.056 1.389 1.684c-.336.826-1.744 1.706-3.97 1.119 1.508.737 1.482 1.646.408 2.247-.822.46-2.104.47-3.664.146-1.961-.407-4.779-.908-6.172-.125l-1.639 1.549-4.72-.256Z"/>
  <path fill="#AF6152" d="M80.938 321.208c.364-.092.515-.486.669-.77.136-.313.24-.629.336-.942.199-.62.35-1.252.623-1.766.128-.255.29-.481.485-.591l.87-.479c.296-.155.644-.426.796-.762.144-.333.221-.653.256-.988-.19.278-.344.578-.56.797-.2.231-.44.335-.75.452-.306.11-.623.239-.943.382-.41.204-.637.551-.816.866-.324.659-.436 1.323-.525 1.973l-.122.963c-.043.314-.065.642-.32.865Zm18.367-6.366a42.67 42.67 0 0 0-2.525-1.364c-.868-.422-1.694-.841-2.698-1.132-1.082-.153-1.99-.064-2.97.005-.962.079-1.917.22-2.866.42.967.078 1.928.122 2.885.137l1.429.035c.462.015.97.021 1.348.097.841.227 1.747.633 2.64.945a23.16 23.16 0 0 0 2.757.857Zm-13.092 1.32c.912.012 1.838-.105 2.707-.165.864-.052 1.692.111 2.55.352 1.721.46 3.451.977 5.253 1.295-1.61-.852-3.297-1.492-5.058-1.984-.877-.236-1.868-.395-2.81-.215-.925.164-1.766.455-2.642.717Zm89.982-14.914c2.869-1.351 3.334-1.838 4.442-4.081 1.107-2.242 1.644-3.257 1.999-4.165.356-.908 1.015-4.255.902-5-.202-1.34-2.575-.398-3.3 1.336-.725 1.734-1.492 4.067-1.492 4.067l-2.551 7.843Z"/>
  <path fill="#E4897B" d="M162.469 307.811c1.981-.49 4.67.115 5.703-.961 1.033-1.078.93-1.325 2.466-1.423 1.537-.097 2.446-.814 2.729-1.619.282-.803 1.639.116 2.662-1.171.783-.984 2.161-4.186 2.618-5.552.458-1.365-.168-5.168-.533-6.846-.364-1.679-1.659-1.164-2.457-.539-.798.624-1.128 2.376-1.128 2.376s-.612-1.816-1.305-1.745c-.911.093-2.164 1.171-2.173 3.406-.331-1.605-1.244-1.823-2.129-.981-.677.643-1.029 1.837-1.123 3.379-.118 1.938-.554 4.595-1.705 5.686-.735.393-2.282 1.286-2.926 1.829l-.699 4.161Z"/>
  <path fill="#AF6152" d="M174.53 292.072c.255.906.495 1.806.685 2.72.187.923.384 1.806.406 2.819-.138 1.051-.468 1.875-.799 2.771a21.302 21.302 0 0 1-1.183 2.561c.18-.922.392-1.832.633-2.728l.346-1.344c.11-.434.239-.91.266-1.283-.003-.845-.165-1.799-.237-2.715a21.58 21.58 0 0 1-.117-2.801Zm-4.809 11.862c.232-.854.595-1.686.888-2.482.282-.793.34-1.608.33-2.472.001-1.73-.051-3.482.113-5.248.418 1.729.605 3.476.625 5.249.001.88-.105 1.849-.535 2.678-.41.821-.925 1.526-1.421 2.275Z"/>
  <path fill="#263238" d="M86.196 205.829c-1.785-.599-2.074-2.054-.646-3.25 1.427-1.198 4.03-1.683 5.815-1.084 1.785.598 2.074 2.053.646 3.25-1.428 1.196-4.03 1.681-5.815 1.084Z"/>
  <path fill="#263238" d="m92.817 203.691-.667.124c-.209-.272-.55-.503-1.02-.661-1.45-.487-3.568-.092-4.729.881-.375.315-.602.651-.692.98l-.666.124.998 1.03h.002c.21.207.504.383.884.509 1.451.487 3.569.092 4.73-.882.303-.254.509-.524.625-.79h.002l.533-1.315Z"/>
  <path fill="#455A64" d="M84.594 205.038c-2.635-.891-3.058-3.043-.942-4.808 2.114-1.764 5.967-2.472 8.602-1.582 2.636.891 3.059 3.044.943 4.808-2.115 1.766-5.967 2.474-8.603 1.582Z"/>
  <path fill="#37474F" d="M84.281 204.291c-2.734-.924-3.172-3.157-.978-4.987 2.193-1.831 6.188-2.565 8.922-1.641 2.734.924 3.172 3.157.979 4.988-2.195 1.83-6.189 2.564-8.923 1.64Z"/>
  <path fill="#455A64" d="M84 203.442c-2.804-.947-3.253-3.236-1.003-5.113 2.25-1.876 6.345-2.629 9.148-1.681 2.804.947 3.253 3.236 1.003 5.113-2.249 1.875-6.345 2.629-9.148 1.681Z"/>
  <path fill="#37474F" d="M83.714 202.593c-2.872-.97-3.333-3.316-1.028-5.239 2.304-1.923 6.502-2.694 9.374-1.724 2.872.971 3.332 3.318 1.028 5.24-2.304 1.923-6.501 2.694-9.374 1.723Z"/>
  <path fill="#455A64" d="M83.432 201.745c-2.941-.994-3.412-3.397-1.052-5.365 2.36-1.969 6.658-2.759 9.6-1.765 2.94.995 3.412 3.397 1.052 5.366-2.36 1.968-6.658 2.759-9.6 1.764Z"/>
  <path fill="#37474F" d="M83.148 200.898c-3.01-1.018-3.492-3.476-1.076-5.492 2.415-2.015 6.814-2.824 9.825-1.806 3.01 1.018 3.493 3.477 1.077 5.492s-6.815 2.824-9.826 1.806Z"/>
  <path fill="#FFDBA1" d="M94.11 192.439c-.206-1.038-1.12-1.946-2.693-2.479-3.15-1.065-7.754-.218-10.283 1.89-1.264 1.054-1.77 2.224-1.564 3.265l.469 2.393c.205 1.039 1.12 1.949 2.695 2.48 3.154 1.064 7.757.218 10.284-1.89 1.264-1.055 1.768-2.225 1.563-3.266-.081-.402-.39-1.988-.47-2.393Z"/>
  <path fill="#E86B31" d="M77.416 145.72c-12.076 2.22-20.008 13.498-17.715 25.189 3.297 16.806 18.167 16.963 19.495 23.736.212 1.08 1.16 2.023 2.794 2.575 3.27 1.106 8.046.227 10.67-1.96 1.311-1.095 1.836-2.309 1.624-3.388-1.328-6.774 12.446-12.196 9.15-29.002-2.291-11.692-13.94-19.37-26.018-17.15Z"/>
  <path fill="url(#i)" d="M77.416 145.72c-12.076 2.22-20.008 13.498-17.715 25.189 3.297 16.806 18.167 16.963 19.495 23.736.212 1.08 1.16 2.023 2.794 2.575 3.27 1.106 8.046.227 10.67-1.96 1.311-1.095 1.836-2.309 1.624-3.388-1.328-6.774 12.446-12.196 9.15-29.002-2.291-11.692-13.94-19.37-26.018-17.15Z"/>
  <path fill="#E86B31" d="M82.777 196.608c-2.734-.924-3.171-3.157-.978-4.988 2.194-1.831 6.188-2.565 8.922-1.64 2.734.924 3.172 3.157.979 4.987-2.194 1.83-6.189 2.564-8.923 1.641Z"/>
  <path fill="#FFDBA1" d="M82.777 196.608c-2.734-.924-3.171-3.157-.978-4.988 2.194-1.831 6.188-2.565 8.922-1.64 2.734.924 3.172 3.157.979 4.987-2.194 1.83-6.189 2.564-8.923 1.641Z"/>
  <path fill="#E86B31" d="M92.607 193.985a4.728 4.728 0 0 1-.909.985c-2.195 1.83-6.19 2.564-8.922 1.64a4.885 4.885 0 0 1-1.22-.594 4.65 4.65 0 0 1 .91-.985c2.194-1.832 6.19-2.566 8.922-1.64.478.161.888.36 1.22.594Z" opacity=".25"/>
  <path fill="#E86B31" d="M92.607 193.985a4.728 4.728 0 0 1-.909.985c-2.195 1.83-6.19 2.564-8.922 1.64a4.885 4.885 0 0 1-1.22-.594 4.65 4.65 0 0 1 .91-.985c2.194-1.832 6.19-2.566 8.922-1.64.478.161.888.36 1.22.594Z"/>
  <path fill="#FFBE55" d="M92.607 193.985a4.728 4.728 0 0 1-.909.985c-2.195 1.83-6.19 2.564-8.922 1.64a4.885 4.885 0 0 1-1.22-.594 4.65 4.65 0 0 1 .91-.985c2.194-1.832 6.19-2.566 8.922-1.64.478.161.888.36 1.22.594Z" opacity=".8"/>
  <path fill="#fff" d="M95.26 153.693c-1.753-1.759-4.219-3.007-6.57-1.473-.244.158-.47.351-.68.583-.74.819-.866 2.051-.497 3.08.71 1.991 2.998 2.893 4.49 4.268a18.574 18.574 0 0 1 3.982 5.248c.295.585.722 1.566 1.159 2.061.685.778 1.791.717 2.316.31.763-.593 1-1.704.962-2.531-.23-4.922-1.945-8.319-5.162-11.546Zm3.497 15.633c-.844.073-1.436.835-1.531 1.527-.094.686.146 1.334.6 1.854.496.568 1.461.563 2.002.071.556-.506.834-1.297.68-2.024-.165-.773-.846-1.507-1.751-1.428Z" opacity=".45"/>
  <path fill="#455A64" d="m89.716 194.94-.253.047c-1.478-7.535-1.95-12.338-1.581-16.065.108-1.084.298-2.027.547-2.838-1.879-.204-4.006-1.005-5.43-1.89-.99 1.328-2.665 2.828-4.336 3.685a15.001 15.001 0 0 1 1.584 2.447c1.756 3.336 3.135 7.974 4.612 15.507l-.253.048c-1.473-7.51-2.845-12.128-4.59-15.441a14.441 14.441 0 0 0-1.593-2.442 7.335 7.335 0 0 1-.696.291c-2.46.878-4.083.44-4.779-.262-.486-.491-.6-1.157-.31-1.828.256-.595.844-.953 1.608-.981 1.135-.041 2.705.631 4.254 2.464 1.651-.831 3.313-2.315 4.287-3.624a5.735 5.735 0 0 1-.89-.705c-1.535-1.533-1.762-3.06-1.461-3.979a1.754 1.754 0 0 1 1.38-1.217c.664-.122 1.3.112 1.745.642.628.748.995 2.25.147 4.22a5.68 5.68 0 0 1-.56.972c1.401.872 3.51 1.661 5.361 1.851.747-2.255 1.953-3.439 3.025-3.802.724-.245 1.404-.121 1.867.342.522.521.67 1.182.403 1.811-.382.9-1.725 1.883-4.347 1.939a7.214 7.214 0 0 1-.758-.024c-.253.806-.45 1.749-.558 2.838-.37 3.702.102 8.485 1.575 15.994Zm-.94-19.076c.23.016.455.022.673.018 2.5-.055 3.763-.957 4.114-1.785.23-.54.105-1.088-.35-1.542-.39-.39-.974-.492-1.597-.281-.959.327-2.107 1.449-2.84 3.59ZM73.95 175.5c-.51.093-.893.373-1.074.793-.25.583-.16 1.137.259 1.56.639.646 2.16 1.037 4.503.2.205-.072.411-.158.618-.254-1.491-1.733-2.985-2.37-4-2.332a2.116 2.116 0 0 0-.306.033Zm7.914-7.099c-.577.105-.996.478-1.183 1.047-.348 1.069.202 2.533 1.401 3.73.224.223.512.451.85.676.23-.329.413-.644.535-.931.664-1.54.621-3.097-.108-3.966-.388-.464-.92-.661-1.495-.556Z"/>
  <path fill="#FFBE55" d="M75.909 141.144a.671.671 0 0 1-.797-.498l-1.404-6.303a.65.65 0 0 1 .515-.772.671.671 0 0 1 .796.498l1.404 6.304a.648.648 0 0 1-.514.771Zm14.575.746a.693.693 0 0 1-.347-.017.645.645 0 0 1-.433-.816l2.04-6.138a.676.676 0 0 1 .844-.419c.352.11.546.475.433.816l-2.04 6.139a.667.667 0 0 1-.497.435Zm12.235 7.698a.682.682 0 0 1-.638-.199.635.635 0 0 1 .048-.917l4.937-4.328a.688.688 0 0 1 .948.046.634.634 0 0 1-.048.917l-4.938 4.328a.672.672 0 0 1-.309.153Zm13.132 11.233-6.512 1.358a.67.67 0 0 1-.797-.497.651.651 0 0 1 .515-.772l6.511-1.358a.672.672 0 0 1 .797.497.652.652 0 0 1-.514.772Zm-.939 17.441a.674.674 0 0 1-.347-.016l-6.34-1.976a.645.645 0 0 1-.433-.816.677.677 0 0 1 .843-.419l6.341 1.975c.352.11.547.475.433.816a.665.665 0 0 1-.497.436Zm-59.046 12.166a.682.682 0 0 1-.638-.199.636.636 0 0 1 .047-.917l4.938-4.328a.687.687 0 0 1 .947.046.635.635 0 0 1-.047.917l-4.938 4.328a.694.694 0 0 1-.31.153Zm-1.683-16.92-6.512 1.359a.671.671 0 0 1-.797-.498.65.65 0 0 1 .515-.771l6.511-1.359a.671.671 0 0 1 .797.498.649.649 0 0 1-.514.771Zm.77-14.11a.682.682 0 0 1-.347-.017l-6.34-1.975a.646.646 0 0 1-.433-.817.675.675 0 0 1 .843-.419l6.34 1.975c.352.11.547.476.433.817a.663.663 0 0 1-.496.436Zm7.952-11.845a.684.684 0 0 1-.638-.198l-4.471-4.78a.636.636 0 0 1 .047-.917.687.687 0 0 1 .948.046l4.47 4.78a.636.636 0 0 1-.047.917.672.672 0 0 1-.309.152Z"/>
  <defs>
    <linearGradient id="a" x1="476.5" x2="464.103" y1="342.5" y2="245.293" gradientUnits="userSpaceOnUse">
      <stop offset=".2" stop-color="#5E1F72"/>
      <stop offset=".4" stop-color="#9D3863"/>
      <stop offset=".6" stop-color="#C14F49"/>
      <stop offset=".6" stop-color="#C54E47"/>
      <stop offset=".8" stop-color="#ED7136"/>
      <stop offset="1" stop-color="#FB8D48"/>
    </linearGradient>
    <linearGradient id="b" x1="296" x2="339.548" y1="344.5" y2="372.639" gradientUnits="userSpaceOnUse">
      <stop stop-color="#FB8D48"/>
      <stop offset=".2" stop-color="#ED7136"/>
      <stop offset=".4" stop-color="#C54E47"/>
      <stop offset=".4" stop-color="#C14F49"/>
      <stop offset=".6" stop-color="#9D3863"/>
      <stop offset=".8" stop-color="#5E1F72"/>
    </linearGradient>
    <linearGradient id="c" x1="257.5" x2="288.646" y1="343.5" y2="394.674" gradientUnits="userSpaceOnUse">
      <stop stop-color="#FB8D48"/>
      <stop offset=".2" stop-color="#ED7136"/>
      <stop offset=".4" stop-color="#C54E47"/>
      <stop offset=".4" stop-color="#C14F49"/>
      <stop offset=".6" stop-color="#9D3863"/>
      <stop offset=".8" stop-color="#5E1F72"/>
    </linearGradient>
    <linearGradient id="d" x1="291" x2="313.666" y1="353" y2="378.928" gradientUnits="userSpaceOnUse">
      <stop stop-color="#FB8D48"/>
      <stop offset=".2" stop-color="#ED7136"/>
      <stop offset=".4" stop-color="#C54E47"/>
      <stop offset=".4" stop-color="#C14F49"/>
      <stop offset=".6" stop-color="#9D3863"/>
      <stop offset=".8" stop-color="#5E1F72"/>
    </linearGradient>
    <linearGradient id="e" x1="265" x2="277.955" y1="342" y2="404.937" gradientUnits="userSpaceOnUse">
      <stop stop-color="#FB8D48"/>
      <stop offset=".2" stop-color="#ED7136"/>
      <stop offset=".4" stop-color="#C54E47"/>
      <stop offset=".4" stop-color="#C14F49"/>
      <stop offset=".6" stop-color="#9D3863"/>
      <stop offset=".8" stop-color="#5E1F72"/>
    </linearGradient>
    <linearGradient id="f" x1="115" x2="144.903" y1="262.5" y2="320.268" gradientUnits="userSpaceOnUse">
      <stop stop-color="#FB8D48"/>
      <stop offset=".2" stop-color="#ED7136"/>
      <stop offset=".405" stop-color="#C14F49"/>
      <stop offset=".6" stop-color="#9D3863"/>
      <stop offset=".8" stop-color="#5E1F72"/>
    </linearGradient>
    <linearGradient id="g" x1="101.5" x2="117.458" y1="265.5" y2="328.854" gradientUnits="userSpaceOnUse">
      <stop stop-color="#FB8D48"/>
      <stop offset=".2" stop-color="#ED7136"/>
      <stop offset=".4" stop-color="#C54E47"/>
      <stop offset=".4" stop-color="#C14F49"/>
      <stop offset=".6" stop-color="#9D3863"/>
      <stop offset=".8" stop-color="#5E1F72"/>
    </linearGradient>
    <linearGradient id="h" x1="73.5" x2="78.85" y1="266" y2="332.79" gradientUnits="userSpaceOnUse">
      <stop stop-color="#FB8D48"/>
      <stop offset=".2" stop-color="#ED7136"/>
      <stop offset=".4" stop-color="#C54E47"/>
      <stop offset=".4" stop-color="#C14F49"/>
      <stop offset=".6" stop-color="#9D3863"/>
      <stop offset=".8" stop-color="#5E1F72"/>
    </linearGradient>
    <linearGradient id="i" x1="81.626" x2="81.626" y1="145.338" y2="197.698" gradientUnits="userSpaceOnUse">
      <stop stop-color="#EEA07B"/>
      <stop offset="1" stop-color="#9C5A76"/>
    </linearGradient>
  </defs>
</svg>
