<svg xmlns="http://www.w3.org/2000/svg" width="415" height="341" fill="none" viewBox="0 0 415 341">
  <path fill="#EBEBEB" d="M415 260.74H0v.171h415v-.171Zm-41.585 10.975h-27.491v.17h27.491v-.17Zm-98.503 1.851h-7.215v.171h7.215v-.171Zm70.183-8.181h-15.929v.17h15.929v-.17Zm-265.702 1.146h-35.85v.171h35.85v-.171Zm12.643 0h-5.257v.171h5.257v-.171Zm94.834 2.879h-77.751v.171h77.751v-.171Zm9.851-39.078H36.449c-2.612 0-4.738-1.746-4.738-3.892V41.365c0-2.146 2.126-3.892 4.738-3.892H196.72c2.611 0 4.737 1.746 4.737 3.892V226.44c0 2.146-2.126 3.892-4.737 3.892ZM36.449 37.644c-2.499 0-4.53 1.669-4.53 3.721v185.076c0 2.052 2.031 3.722 4.53 3.722H196.72c2.497 0 4.529-1.67 4.529-3.722V41.365c0-2.052-2.032-3.722-4.529-3.722H36.449Zm339.799 192.688H215.977c-2.612 0-4.737-1.746-4.737-3.892V41.365c0-2.146 2.126-3.892 4.737-3.892h160.271c2.613 0 4.738 1.746 4.738 3.892V226.44c.001 2.146-2.125 3.892-4.738 3.892ZM215.977 37.644c-2.497 0-4.529 1.669-4.529 3.721v185.076c0 2.052 2.032 3.722 4.529 3.722h160.271c2.499 0 4.531-1.67 4.531-3.722V41.365c0-2.052-2.032-3.722-4.531-3.722H215.977Z"/>
  <path fill="#E0E0E0" d="M98.718 217.098v9.681l-4.98 2.974h23.243l-7.425-2.261v-9.719l-10.838-.675Z"/>
  <path fill="#E0E0E0" d="M57.662 229.475v30.499H161.41v-30.499H57.662Zm101.878 11.944H78.336v-9.968h81.204v9.968Z"/>
  <path fill="#EBEBEB" d="M75.84 229.475v30.499h85.571v-30.499H75.84Zm83.702 11.944H78.338v-9.968h81.205v9.968h-.001Z"/>
  <path fill="#E0E0E0" d="M159.54 231.451h-16.737v9.967h16.737v-9.967Zm-60.498 4.981H78.336v4.983h20.706v-4.983Zm17.117 2.025H100.57v2.96h15.589v-2.96Zm18.449-3.096h-14.85v6.055h14.85v-6.055Zm-41.555 8.225-.444 1.19h-5.96l-.445-1.19h-7.868v13.232h26.116v-13.232H93.054Zm31.036 0-.445 1.19h-5.96l-.445-1.19h-11.397v13.232h26.116v-13.232h-7.869Zm23.977.004-.445 1.19h-5.96l-.445-1.19h-7.868v13.232h26.116V243.59h-11.398Zm-1.831-20.709H69.053c-1.619 0-2.93-1.078-2.93-2.407v-36.407c0-1.33 1.312-2.407 2.93-2.407h77.182c1.618 0 2.93 1.078 2.93 2.407v36.407c0 1.329-1.312 2.407-2.93 2.407Z"/>
  <path fill="#E6E6E6" d="M148.188 222.881H71.006c-1.618 0-2.93-1.078-2.93-2.407v-36.407c0-1.33 1.312-2.407 2.93-2.407h77.182c1.618 0 2.93 1.078 2.93 2.407v36.407c0 1.329-1.312 2.407-2.93 2.407Z"/>
  <path fill="#F0F0F0" d="M148.678 220.877v-37.213H70.515v37.213h78.163Z"/>
  <path fill="#E6E6E6" d="M258.022 178.086h74.315c8.061 0 14.596 5.368 14.596 11.99v47.673H243.428v-47.673c0-6.622 6.534-11.99 14.594-11.99Z"/>
  <path fill="#E0E0E0" d="M221.455 213.418h13.299c4.79 0 8.673 3.19 8.673 7.125v39.426h-30.646v-39.426c.001-3.935 3.884-7.125 8.674-7.125Z"/>
  <path fill="#EBEBEB" d="M221.455 213.418h.281c4.79 0 8.673 3.19 8.673 7.125v39.426h-17.628v-39.426c.001-3.935 3.884-7.125 8.674-7.125Z"/>
  <path fill="#E6E6E6" d="M336.109 241.859H234.121v18.11h101.988v-18.11Z"/>
  <path fill="#F5F5F5" d="M233.978 225.297h98.358c4.869 0 8.817 3.243 8.817 7.244v4.512c0 4.001-3.947 7.244-8.817 7.244h-98.358c-4.87 0-8.818-3.243-8.818-7.244v-4.512c0-4.001 3.948-7.244 8.818-7.244Z"/>
  <path fill="#E0E0E0" d="M319.97 225.297h12.2c4.869 0 8.818 3.243 8.818 7.244v4.512c0 4.001-3.949 7.244-8.818 7.244h-12.2c-4.869 0-8.818-3.243-8.818-7.244v-4.512c0-4.001 3.949-7.244 8.818-7.244Z"/>
  <path fill="#E0E0E0" d="M333.487 213.418h13.299c4.79 0 8.674 3.19 8.674 7.125v39.426h-30.646v-39.426c0-3.935 3.883-7.125 8.673-7.125Z"/>
  <path fill="#F0F0F0" d="M333.488 213.418h.28c4.79 0 8.674 3.19 8.674 7.125v39.426h-17.628v-39.426c.001-3.935 3.884-7.125 8.674-7.125Z"/>
  <path fill="#EBEBEB" d="M254.03 156.119h98.466V72.537H254.03v83.582Z"/>
  <path fill="#F0F0F0" d="M250.592 156.119h98.467V72.537h-98.467v83.582Z"/>
  <path fill="#E0E0E0" d="M346.574 74.518h-93.373v79.659h93.373v-79.66Z"/>
  <path fill="#E86B31" fill-opacity=".3" d="M346.575 74.518h-91.042v79.657h91.042V74.518Z"/>
  <path fill="#EBEBEB" d="M300.114 154.178h1.849v-79.66h-1.849v79.66Z"/>
  <path fill="#fff" d="m289.506 74.518-25.949 79.657h-2.491l25.95-79.657h2.49Z"/>
  <path fill="#F0F0F0" d="M299.322 155.705h1.584V73.291h-1.584v82.414Z"/>
  <path fill="#fff" d="m280.086 74.518-24.553 75.384v-41.437l11.056-33.947h13.497Zm66.491 7.226v7.646l-21.106 64.783h-2.491l23.597-72.429Zm-.001 15.442v41.436l-5.063 15.553h-13.497l18.56-56.99Z"/>
  <path fill="#FA8C48" d="M81.058 136.893h59.618V77.298H81.059v59.595Z"/>
  <path fill="#fff" d="m94.7 122.132 31.329-25.295-33.894-4.595 2.564 29.89Z"/>
  <path fill="#fff" d="m125.274 116.136 1.551-19.398-23.588 4.76-1.714 14.842 23.751-.204Z"/>
  <path fill="#FAFAFA" d="M101.148 94.373c3.718-3.055 3.718-8.008 0-11.063-3.72-3.055-9.748-3.055-13.467 0-3.72 3.055-3.72 8.008 0 11.063 3.719 3.055 9.748 3.055 13.467 0Z"/>
  <path fill="#fff" d="M122.193 123.054c0-2.096 2.068-3.794 4.618-3.794 2.551 0 4.619 1.698 4.619 3.794 0 2.095-2.068 3.793-4.619 3.793-2.55 0-4.618-1.698-4.618-3.793Z"/>
  <path fill="#F5F5F5" d="m125.715 129.722-13.336-6.668 11.211-7.587 2.125 14.255Z"/>
  <path fill="#fff" d="M109.963 84.879h-2.621v47.586h2.621V84.879Zm25.118 0h-3.392v45.481h3.392V84.879Zm-30.707 31.463h-17.33v14.235h17.33v-14.235Z"/>
  <g filter="url(#a)">
    <path fill="#F5F5F5" fill-opacity=".3" d="M207.5 291.535c88.878 0 160.928-3.457 160.928-7.721s-72.05-7.72-160.928-7.72-160.928 3.456-160.928 7.72c0 4.264 72.05 7.721 160.928 7.721Z"/>
  </g>
  <path fill="#263238" d="M341.949 266.6H161.92V163.857c0-1.607 1.586-2.91 3.542-2.91h172.944c1.956 0 3.543 1.303 3.543 2.91V266.6Z"/>
  <path fill="url(#b)" d="M338.409 167.471H165.471v90.803h172.938v-90.803Z"/>
  <path fill="#fff" d="M250.361 165.881c.952 0 1.724-.634 1.724-1.416 0-.782-.772-1.416-1.724-1.416s-1.724.634-1.724 1.416c0 .782.772 1.416 1.724 1.416Zm3.576-.352c.717 0 1.298-.477 1.298-1.066 0-.589-.581-1.067-1.298-1.067-.717 0-1.298.478-1.298 1.067s.581 1.066 1.298 1.066Zm-1.295 94.606a2.677 2.677 0 0 0-.707-.102c-1.25 0-2.263.833-2.263 1.86 0 1.026 1.013 1.859 2.263 1.859s2.264-.833 2.264-1.859c0-.035-.01-.068-.013-.102-.863-.235-1.492-.879-1.544-1.656Z" opacity=".2"/>
  <path fill="#263238" d="M355.367 265.158v1.337c0 .361-.125.709-.341 1.002-.298.416-.78.736-1.369.88l-12.541 3.041a20.172 20.172 0 0 1-4.798.572H167.554c-1.618 0-3.237-.191-4.789-.572l-12.541-3.041c-.598-.144-1.079-.464-1.378-.88a1.69 1.69 0 0 1-.34-1.002v-1.337h206.861Z"/>
  <path fill="#fff" d="M355.367 265.158v1.337c0 .361-.125.709-.341 1.002-.298.416-.78.736-1.369.88l-12.541 3.041a20.172 20.172 0 0 1-4.798.572H167.554c-1.618 0-3.237-.191-4.789-.572l-12.541-3.041c-.598-.144-1.079-.464-1.378-.88a1.69 1.69 0 0 1-.34-1.002v-1.337h206.861Z" opacity=".2"/>
  <path fill="#fff" d="M355.367 265.158v1.337c0 .361-.125.709-.341 1.002h-206.18a1.69 1.69 0 0 1-.34-1.002v-1.337h206.861Z" opacity=".2"/>
  <path fill="#000" d="M266.491 265.158v.587c0 .32-.315.579-.706.579h-27.688c-.399 0-.714-.259-.714-.579v-.587h29.108Z" opacity=".2"/>
  <path fill="#fff" d="M338.409 167.471s-23.913 77.986-172.938 90.803v-90.803h172.938Z" opacity=".1"/>
  <path fill="url(#c)" d="M322.025 131.92v85.409l-17.313 14.223H236.27c-1.469 0-2.665-.982-2.665-2.196V131.92c0-1.214 1.196-2.195 2.665-2.195h83.083c1.469 0 2.672.982 2.672 2.195Z"/>
  <path fill="#fff" d="M322.025 135.648v81.679l-17.313 14.224H236.27c-1.469 0-2.665-.982-2.665-2.196v-93.707h88.42Zm-2.311-3.211c0 .585-.577 1.059-1.289 1.059-.713 0-1.29-.474-1.29-1.059s.577-1.06 1.29-1.06c.713.001 1.289.475 1.289 1.06Zm-4.929 0c0 .585-.578 1.059-1.29 1.059-.712 0-1.29-.474-1.29-1.059s.578-1.06 1.29-1.06c.712 0 1.29.475 1.29 1.06Zm-4.922 0c0 .585-.578 1.059-1.29 1.059-.712 0-1.29-.474-1.29-1.059s.578-1.06 1.29-1.06c.713.001 1.29.475 1.29 1.06Z" opacity=".6"/>
  <path fill="url(#d)" d="M287.35 142.231h-47.395c-.458 0-.83-.306-.83-.682 0-.376.372-.682.83-.682h47.395c.458 0 .83.306.83.682 0 .376-.372.682-.83.682Z"/>
  <path fill="url(#e)" d="M273.953 145.954h-33.998c-.458 0-.83-.306-.83-.682 0-.377.372-.682.83-.682h33.998c.458 0 .83.305.83.682 0 .376-.372.682-.83.682Z"/>
  <path fill="url(#f)" d="M310.692 203.549h-60.606c-.458 0-.83-.305-.83-.682 0-.377.372-.681.83-.681h60.606c.458 0 .83.304.83.681 0 .377-.372.682-.83.682Z"/>
  <path fill="url(#g)" d="M300.562 218.45h-60.607c-.458 0-.83-.305-.83-.682 0-.377.372-.682.83-.682h60.607c.458 0 .83.305.83.682 0 .377-.372.682-.83.682Z"/>
  <path fill="url(#h)" d="M310.691 207.272h-70.736c-.458 0-.83-.305-.83-.682 0-.377.372-.682.83-.682h70.736c.458 0 .83.305.83.682 0 .377-.372.682-.83.682Z"/>
  <path fill="url(#i)" d="M310.691 210.998h-70.736c-.458 0-.83-.304-.83-.681 0-.377.372-.682.83-.682h70.736c.458 0 .83.305.83.682 0 .377-.372.681-.83.681Z"/>
  <path fill="url(#j)" d="M310.691 214.723h-70.736c-.458 0-.83-.305-.83-.682 0-.377.372-.682.83-.682h70.736c.458 0 .83.305.83.682 0 .377-.372.682-.83.682Z"/>
  <path fill="url(#k)" d="m322.025 217.326-17.314 14.224v-14.224h17.314Z" opacity=".5"/>
  <path fill="#000" d="M322.026 135.648h-4.891v81.679h4.891v-81.679Z" opacity=".4"/>
  <path fill="url(#l)" d="M319.578 178.326c-.994 0-1.801-.662-1.801-1.48v-8.343c0-.817.806-1.48 1.801-1.48.995 0 1.802.663 1.802 1.48v8.343c-.001.818-.807 1.48-1.802 1.48Z"/>
  <path fill="url(#m)" d="M310.692 183.092h-60.606c-.458 0-.83-.305-.83-.682 0-.377.372-.681.83-.681h60.606c.458 0 .83.304.83.681 0 .377-.372.682-.83.682Z"/>
  <path fill="url(#n)" d="M300.562 197.993h-60.607c-.458 0-.83-.305-.83-.682 0-.377.372-.682.83-.682h60.607c.458 0 .83.305.83.682 0 .377-.372.682-.83.682Z"/>
  <path fill="url(#o)" d="M310.691 186.815h-70.736c-.458 0-.83-.305-.83-.682 0-.377.372-.682.83-.682h70.736c.458 0 .83.305.83.682 0 .377-.372.682-.83.682Z"/>
  <path fill="url(#p)" d="M310.691 190.541h-70.736c-.458 0-.83-.304-.83-.681 0-.377.372-.682.83-.682h70.736c.458 0 .83.305.83.682 0 .377-.372.681-.83.681Z"/>
  <path fill="url(#q)" d="M310.691 194.266h-70.736c-.458 0-.83-.305-.83-.682 0-.377.372-.682.83-.682h70.736c.458 0 .83.305.83.682 0 .377-.372.682-.83.682Z"/>
  <path fill="url(#r)" d="M310.691 150.398H239.74v21.748h70.951v-21.748Z"/>
  <path fill="#000" d="M239.74 168.656h1.928v-3.954h2.224v-7.804h3.104v4.803h4.269v6.391h5.089v-4.453h4.207l2.784-2.288v-5.301h1.695v7.589h4.284v2.7h4.433v-13.775l1.226-1.007v3.778h2.833v1.697l2.718 2.233v4.031h3.894v-3.189h10.179v-2.382h2.299v-4.154h.821v6.536h1.298l2.929-2.406h2.759v-2.174h1.387v2.198h1.806v9.018h1.958v-4.5l.826.041v-11.886h-70.95v18.258Z" opacity=".2"/>
  <path fill="url(#s)" d="M310.688 175.594h-19.106c-.458 0-.83-.305-.83-.682 0-.377.372-.682.83-.682h19.106c.458 0 .83.305.83.682 0 .377-.372.682-.83.682Z"/>
  <path fill="#000" d="M267.843 129.725v70.585l-13.064 10.732h-21.174V131.92c0-1.214 1.196-2.195 2.665-2.195h31.573Z" opacity=".2"/>
  <path fill="#fff" d="M319.578 178.326c-.994 0-1.801-.662-1.801-1.48v-8.343c0-.817.806-1.48 1.801-1.48.995 0 1.802.663 1.802 1.48v8.343c-.001.818-.807 1.48-1.802 1.48Z" opacity=".4"/>
  <path fill="url(#t)" d="M217.25 142.563v85.408l-17.314 14.224h-68.442c-1.469 0-2.664-.982-2.664-2.196v-97.436c0-1.214 1.195-2.196 2.664-2.196h83.083c1.469 0 2.673.982 2.673 2.196Z"/>
  <path fill="#fff" d="M217.246 146.297v81.679l-17.314 14.223H131.49c-1.469 0-2.664-.982-2.664-2.196v-93.706h88.42Zm-2.311-3.21c0 .585-.578 1.06-1.29 1.06-.712 0-1.29-.475-1.29-1.06 0-.585.578-1.06 1.29-1.06.712 0 1.29.475 1.29 1.06Zm-4.926 0c0 .585-.577 1.06-1.289 1.06-.713 0-1.29-.475-1.29-1.06 0-.585.577-1.06 1.29-1.06.712 0 1.289.475 1.289 1.06Zm-4.925 0c0 .585-.578 1.06-1.29 1.06-.712 0-1.29-.475-1.29-1.06 0-.585.578-1.06 1.29-1.06.713 0 1.29.475 1.29 1.06Z" opacity=".6"/>
  <path fill="url(#u)" d="M149.897 153.247h-14.721c-.458 0-.83-.306-.83-.682 0-.377.372-.682.83-.682h14.721c.458 0 .83.305.83.682 0 .376-.372.682-.83.682Z"/>
  <path fill="url(#v)" d="M156.84 156.969h-21.664c-.458 0-.83-.305-.83-.682 0-.376.372-.682.83-.682h21.664c.459 0 .83.306.83.682 0 .377-.371.682-.83.682Z"/>
  <path fill="url(#w)" d="M150.141 160.696h-14.965c-.458 0-.83-.305-.83-.682 0-.377.372-.682.83-.682h14.965c.459 0 .83.305.83.682 0 .376-.371.682-.83.682Z"/>
  <path fill="url(#x)" d="M205.913 221.694h-60.606c-.459 0-.83-.305-.83-.682 0-.377.371-.682.83-.682h60.606c.458 0 .83.305.83.682 0 .377-.371.682-.83.682Z"/>
  <path fill="url(#y)" d="M172.712 225.416h-37.536c-.458 0-.83-.304-.83-.681 0-.377.372-.682.83-.682h37.536c.458 0 .83.305.83.682 0 .376-.371.681-.83.681Z"/>
  <path fill="url(#z)" d="M217.245 227.977 199.932 242.2v-14.223h17.313Z" opacity=".5"/>
  <path fill="#000" d="M217.247 146.297h-4.892v81.679h4.892v-81.679Z" opacity=".4"/>
  <path fill="url(#A)" d="M214.803 222.384c-.994 0-1.801-.662-1.801-1.479v-8.343c0-.817.806-1.48 1.801-1.48.994 0 1.801.662 1.801 1.48v8.343c-.001.817-.807 1.479-1.801 1.479Z"/>
  <path fill="url(#B)" d="M205.911 153.247H194.51c-.458 0-.83-.306-.83-.682 0-.377.372-.682.83-.682h11.401c.458 0 .83.305.83.682 0 .376-.371.682-.83.682Z"/>
  <path fill="url(#C)" d="M205.912 156.969h-5.895c-.458 0-.829-.305-.829-.682 0-.376.371-.682.829-.682h5.895c.458 0 .83.306.83.682 0 .377-.371.682-.83.682Z"/>
  <path fill="url(#D)" d="M205.913 170.559h-60.606c-.459 0-.83-.305-.83-.682 0-.377.371-.682.83-.682h60.606c.458 0 .83.305.83.682 0 .377-.371.682-.83.682Z"/>
  <path fill="url(#E)" d="M205.912 174.282h-70.736c-.458 0-.83-.305-.83-.682 0-.377.372-.682.83-.682h70.736c.458 0 .83.305.83.682 0 .377-.371.682-.83.682Z"/>
  <path fill="url(#F)" d="M164.412 178.008h-29.236c-.458 0-.83-.305-.83-.682 0-.377.372-.681.83-.681h29.236c.458 0 .83.304.83.681 0 .377-.371.682-.83.682Z"/>
  <path fill="url(#G)" d="M174.775 182.947h-27.867v6.133h27.867v-6.133Z" opacity=".7"/>
  <path fill="url(#H)" d="M159.536 190.445h-12.628v22.657h12.628v-22.657Z" opacity=".3"/>
  <path fill="url(#I)" d="M190.942 190.445h-14.504v22.657h14.504v-22.657Z" opacity=".3"/>
  <path fill="url(#J)" d="M205.911 182.947h-29.473v6.133h29.473v-6.133Z" opacity=".7"/>
  <path fill="url(#K)" d="M205.909 190.445H192.6v22.657h13.309v-22.657Z" opacity=".3"/>
  <path fill="url(#L)" d="M145.249 190.445h-10.075v22.657h10.075v-22.657Z" opacity=".5"/>
  <path fill="url(#M)" d="M145.249 182.947h-10.075v6.133h10.075v-6.133Z"/>
  <path fill="url(#N)" d="M174.779 190.445h-13.58v22.657h13.58v-22.657Z" opacity=".3"/>
  <path fill="#fff" d="M214.803 222.384c-.994 0-1.801-.662-1.801-1.479v-8.343c0-.817.806-1.48 1.801-1.48.994 0 1.801.662 1.801 1.48v8.343c-.001.817-.807 1.479-1.801 1.479Z" opacity=".4"/>
  <path fill="#000" d="M217.25 142.563v71.048h-50.074c-1.469 0-2.664-.981-2.664-2.195v-71.049h50.065c1.469 0 2.673.982 2.673 2.196Z" opacity=".2"/>
  <path fill="url(#O)" d="M261.205 103.846v85.408l-17.314 14.224h-68.442c-1.469 0-2.664-.982-2.664-2.196v-97.436c0-1.214 1.195-2.196 2.664-2.196h83.083c1.47 0 2.673.982 2.673 2.196Z"/>
  <path fill="#fff" d="M261.205 107.576v81.679l-17.314 14.223h-68.442c-1.469 0-2.664-.982-2.664-2.195v-93.707h88.42Zm-3.601-2.15c.713 0 1.29-.475 1.29-1.06 0-.585-.577-1.059-1.29-1.059-.712 0-1.29.474-1.29 1.059s.578 1.06 1.29 1.06Zm-4.929 0c.712 0 1.289-.475 1.289-1.06 0-.585-.577-1.059-1.289-1.059-.713 0-1.29.474-1.29 1.059s.577 1.06 1.29 1.06Zm-3.632-1.06c0 .585-.578 1.06-1.29 1.06-.712 0-1.29-.475-1.29-1.06 0-.585.578-1.059 1.29-1.059.713 0 1.29.474 1.29 1.059Z" opacity=".6"/>
  <path fill="url(#P)" d="M222.956 114.526h-16.907c-.458 0-.83-.306-.83-.682 0-.376.372-.682.83-.682h16.907c.458 0 .83.306.83.682 0 .376-.372.682-.83.682Z"/>
  <path fill="url(#Q)" d="M229.898 118.248h-30.795c-.458 0-.83-.305-.83-.681 0-.377.372-.682.83-.682h30.795c.458 0 .83.305.83.682 0 .376-.371.681-.83.681Z"/>
  <path fill="url(#R)" d="M223.202 121.975h-17.397c-.459 0-.83-.305-.83-.682 0-.376.371-.682.83-.682h17.397c.458 0 .83.306.83.682 0 .377-.372.682-.83.682Z"/>
  <path fill="url(#S)" d="M249.872 131.838h-60.606c-.459 0-.83-.305-.83-.682 0-.376.371-.681.83-.681h60.606c.458 0 .83.305.83.681 0 .377-.371.682-.83.682Z"/>
  <path fill="url(#T)" d="M239.74 146.739h-60.605c-.458 0-.83-.306-.83-.682 0-.377.372-.682.83-.682h60.605c.459 0 .83.305.83.682 0 .376-.371.682-.83.682Z"/>
  <path fill="url(#U)" d="M249.871 135.561h-70.736c-.458 0-.83-.306-.83-.682 0-.376.372-.682.83-.682h70.736c.458 0 .83.306.83.682 0 .376-.371.682-.83.682Z"/>
  <path fill="url(#V)" d="M249.871 139.288h-70.736c-.458 0-.83-.306-.83-.682 0-.377.372-.682.83-.682h70.736c.458 0 .83.305.83.682 0 .377-.371.682-.83.682Z"/>
  <path fill="url(#W)" d="M249.871 143.012h-70.736c-.458 0-.83-.305-.83-.682 0-.376.372-.682.83-.682h70.736c.458 0 .83.306.83.682 0 .377-.371.682-.83.682Z"/>
  <path fill="url(#X)" d="M249.872 169.34h-60.606c-.459 0-.83-.305-.83-.682 0-.377.371-.681.83-.681h60.606c.458 0 .83.304.83.681 0 .377-.371.682-.83.682Z"/>
  <path fill="url(#Y)" d="M239.74 184.241h-60.605c-.458 0-.83-.305-.83-.682 0-.377.372-.682.83-.682h60.605c.459 0 .83.305.83.682 0 .377-.371.682-.83.682Z"/>
  <path fill="url(#Z)" d="M249.871 173.067h-70.736c-.458 0-.83-.305-.83-.682 0-.377.372-.682.83-.682h70.736c.458 0 .83.305.83.682 0 .377-.371.682-.83.682Z"/>
  <path fill="url(#aa)" d="M249.871 176.789h-70.736c-.458 0-.83-.304-.83-.681 0-.377.372-.682.83-.682h70.736c.458 0 .83.305.83.682 0 .377-.371.681-.83.681Z"/>
  <path fill="url(#ab)" d="M249.871 180.514h-70.736c-.458 0-.83-.305-.83-.682 0-.377.372-.682.83-.682h70.736c.458 0 .83.305.83.682 0 .377-.371.682-.83.682Z"/>
  <path fill="url(#ac)" d="M249.873 113.025h-8.492v9.288h8.492v-9.288Z"/>
  <path fill="url(#ad)" d="M183.838 120.759c2.599 0 4.707-1.731 4.707-3.867 0-2.135-2.108-3.867-4.707-3.867-2.6 0-4.707 1.732-4.707 3.867 0 2.136 2.107 3.867 4.707 3.867Z"/>
  <path fill="url(#ae)" d="M178.865 151.61c0 .45.444.815.992.815s.992-.365.992-.815c0-.45-.444-.815-.992-.815s-.992.365-.992.815Z"/>
  <path fill="url(#af)" d="M178.865 155.332c0 .45.444.815.992.815s.992-.365.992-.815c0-.45-.444-.814-.992-.814s-.992.364-.992.814Z"/>
  <path fill="url(#ag)" d="M178.865 159.059c0 .45.444.815.992.815s.992-.365.992-.815c0-.45-.444-.815-.992-.815s-.992.365-.992.815Z"/>
  <path fill="url(#ah)" d="M178.865 162.784c0 .45.444.814.992.814s.992-.364.992-.814c0-.45-.444-.815-.992-.815s-.992.365-.992.815Z"/>
  <path fill="url(#ai)" d="M194.091 152.291h-10.806c-.458 0-.83-.305-.83-.681 0-.377.372-.682.83-.682h10.806c.458 0 .83.305.83.682 0 .376-.372.681-.83.681Z"/>
  <path fill="url(#aj)" d="M204.221 156.018h-20.936c-.458 0-.83-.305-.83-.682 0-.376.372-.682.83-.682h20.936c.458 0 .83.306.83.682 0 .377-.371.682-.83.682Z"/>
  <path fill="url(#ak)" d="M191.771 159.741h-8.486c-.458 0-.83-.305-.83-.682 0-.377.372-.682.83-.682h8.486c.458 0 .83.305.83.682 0 .377-.371.682-.83.682Z"/>
  <path fill="url(#al)" d="M200.901 163.467h-17.616c-.458 0-.83-.305-.83-.682 0-.377.372-.681.83-.681h17.616c.458 0 .83.304.83.681 0 .377-.371.682-.83.682Z"/>
  <path fill="url(#am)" d="m261.204 189.256-17.313 14.223v-14.223h17.313Z" opacity=".5"/>
  <path fill="#000" d="m249.872 113.025-8.491 9.288h8.491v-9.288Zm-63.283 1.608h-5.499v4.518h5.499v-4.518Z" opacity=".2"/>
  <path fill="#000" d="M261.206 107.576h-4.892v81.679h4.892v-81.679Z" opacity=".4"/>
  <path fill="url(#an)" d="M258.758 122.98c-.994 0-1.801-.662-1.801-1.48v-8.343c0-.817.806-1.479 1.801-1.479.994 0 1.801.662 1.801 1.479v8.343c0 .818-.807 1.48-1.801 1.48Z"/>
  <path fill="#fff" d="M258.758 122.98c-.994 0-1.801-.662-1.801-1.48v-8.343c0-.817.806-1.479 1.801-1.479.994 0 1.801.662 1.801 1.479v8.343c0 .818-.807 1.48-1.801 1.48Z" opacity=".4"/>
  <path fill="url(#ao)" d="M69.577 142.463h28.98c2.322 0 4.204 1.546 4.204 3.453v23.143c0 1.907-1.882 3.454-4.204 3.454H86.793l1.264 6.972-5.817-6.972H69.577c-2.322 0-4.204-1.547-4.204-3.454v-23.143c0-1.907 1.882-3.453 4.204-3.453Z"/>
  <path fill="#F5F5F5" d="M81.682 152.676v1.846l1.157.089c.156.619.454 1.194.863 1.705l-.743.737 1.589 1.305.898-.611a6.768 6.768 0 0 0 2.076.71l.108.95h2.247l.109-.95a6.782 6.782 0 0 0 2.076-.71l.898.611 1.588-1.305-.743-.737a4.5 4.5 0 0 0 .863-1.705l1.157-.089v-1.846l-1.157-.089a4.499 4.499 0 0 0-.863-1.706l.743-.738-1.588-1.305-.898.611a6.74 6.74 0 0 0-2.076-.709l-.109-.951H87.63l-.108.951a6.755 6.755 0 0 0-2.076.709l-.898-.611-1.589 1.305.743.738a4.499 4.499 0 0 0-.863 1.705l-1.157.09Zm7.07-1.576c1.68 0 3.042 1.119 3.042 2.499 0 1.38-1.362 2.499-3.042 2.499-1.68 0-3.041-1.119-3.041-2.499 0-1.38 1.362-2.499 3.041-2.499Z"/>
  <path fill="#F5F5F5" d="M83.133 166.143a5.32 5.32 0 0 0 1.627-.556l.703.479 1.245-1.023-.582-.578c.319-.401.553-.851.676-1.336l.906-.07v-1.447l-.906-.07a3.529 3.529 0 0 0-.677-1.336l.583-.578-1.245-1.023-.703.478a5.338 5.338 0 0 0-1.627-.555l-.085-.745h-1.76l-.086.745a5.308 5.308 0 0 0-1.626.555l-.704-.478-1.245 1.023.583.578c-.32.4-.554.851-.677 1.336l-.906.07v1.447l.906.07c.122.485.356.935.677 1.336l-.583.579 1.245 1.022.704-.478a5.335 5.335 0 0 0 1.626.555l.085.745h1.76l.086-.745Zm-3.35-3.807c0-1.082 1.068-1.958 2.384-1.958 1.317 0 2.384.876 2.384 1.958 0 1.081-1.067 1.958-2.384 1.958-1.316 0-2.384-.877-2.384-1.958Zm-1.233-4.348.49.484 1.222-.685-.37-.552c.34-.289.618-.631.811-1.015l.762.057.274-1.193-.735-.174a2.762 2.762 0 0 0-.304-1.189l.59-.403-.834-1.003-.672.304a4.116 4.116 0 0 0-1.237-.666l.071-.626-1.453-.225-.212.603a4.693 4.693 0 0 0-1.447.25l-.49-.485-1.222.686.371.551c-.34.289-.618.632-.812 1.016l-.76-.058-.275 1.194.735.174c.009.416.117.818.305 1.189l-.59.403.834 1.003.671-.305c.352.28.769.508 1.237.667l-.07.626 1.453.225.212-.605a4.668 4.668 0 0 0 1.446-.248Zm-3.49-3.321c.205-.893 1.252-1.48 2.339-1.311 1.086.168 1.8 1.028 1.596 1.921-.205.893-1.253 1.48-2.34 1.311-1.085-.169-1.8-1.029-1.595-1.921Z"/>
  <path fill="#E4897B" d="M117.326 227.141s2.046 15.102 2.709 16.901c.663 1.8 10.02 11.412 10.02 11.412l-2.655 1.138s-9.991-8.413-11.545-10.908c-1.555-2.495-3.953-15.517-3.953-15.517l5.424-3.026Z"/>
  <path fill="url(#ap)" d="M115.459 220.422c3.448 1.498 4.575 22.448 4.575 22.448l1.739 2.208-5.293 3.097s-2.253-3.058-3.306-5.395c-1.052-2.338-3.549-13.847-3.549-13.847l5.834-8.511Z"/>
  <path fill="url(#aq)" d="m115.701 248.175 6.074-3.956 1.309 2.244-5.604 3.286-1.779-1.574Z"/>
  <path fill="#F27D3D" d="m115.701 248.175 6.074-3.956 1.309 2.244-5.604 3.286-1.779-1.574Z" opacity=".4"/>
  <path fill="#455A64" d="m101.885 247.433 6.203 8.069c12.306-2.354 51.756-7.298 56.601 3.822 6.021 13.818-37.491 24.833-61.573 25.508-24.081.674-43.404-10.589-28.18-39.428l26.949 2.029Z"/>
  <path fill="url(#ar)" d="M157.715 278.858a.185.185 0 0 1-.177-.007c-.048-.028-.064-.079-.042-.123.079-.22.877-2.122 1.683-2.322a.577.577 0 0 1 .48.115c.228.156.338.399.286.639-.13.356-.395.669-.754.894a9.11 9.11 0 0 1-1.476.804Zm.207-.365c.75-.271 1.359-.752 1.716-1.359.042-.165-.039-.335-.205-.435a.196.196 0 0 0-.189-.045.601.601 0 0 0-.186.088 5.301 5.301 0 0 0-1.136 1.751Z"/>
  <path fill="url(#as)" d="M157.67 278.881a.147.147 0 0 1-.15-.036c-.075-.053-1.187-1.206-1.004-1.984a.746.746 0 0 1 .384-.477.605.605 0 0 1 .642-.049c.581.337.511 1.88.224 2.464l-.019.059a.169.169 0 0 1-.077.023Zm-.631-2.26a.469.469 0 0 0-.193.277c-.115.492.443 1.231.745 1.584.183-.659.123-1.741-.218-1.935-.037-.016-.107-.062-.279.038l-.055.036Z"/>
  <path fill="url(#at)" d="M115.382 282.101a.173.173 0 0 1 .16-.065c.057.006.103.043.108.091.062.224.484 2.205-.104 2.701a.586.586 0 0 1-.489.091c-.291-.045-.53-.214-.626-.445a1.474 1.474 0 0 1 .134-1.082c.219-.452.493-.884.817-1.291Zm.034.401c-.497.535-.745 1.199-.7 1.871.061.161.231.278.435.299a.197.197 0 0 0 .192-.035.42.42 0 0 0 .11-.151 4.535 4.535 0 0 0-.037-1.984Z"/>
  <path fill="#E4897B" d="m131.147 272.088-9.907 2.899-4.758 1.392 1.221 4.277 4.608-.806 11.254-1.97-2.418-5.792Z"/>
  <path fill="#000" d="m118.996 280.857-.834-5.046c-.046-.281-.367-.476-.708-.429l-3.03.414s-4.125.319-4.945 1.188c-2.395 2.539-.898 13.739.698 14.134.584.144 1.202-.515 1.456-.969.806-1.442 2.228-5.219 2.919-6.415.808-1.399 3.023-2.085 4.019-2.329.288-.071.466-.302.425-.548Z"/>
  <path fill="url(#au)" d="M115.405 282.061a.15.15 0 0 1 .152-.028c.098.016 1.749.583 2.048 1.337a.62.62 0 0 1-.055.57c-.07.189-.292.313-.533.299-.707-.064-1.554-1.442-1.649-2.067l-.016-.06a.114.114 0 0 1 .053-.051Zm1.885 1.726a.406.406 0 0 0 .005-.319c-.189-.477-1.113-.901-1.585-1.091.228.649.917 1.573 1.331 1.607.042-.001.129.011.221-.144l.028-.053Z"/>
  <path fill="#000" d="m131.143 272.088-9.907 2.899 1.071 4.863 11.254-1.97-2.418-5.792Z" opacity=".2"/>
  <path fill="url(#av)" d="m124.063 280.584 2.851.169-1.908-8.054-3.233 1.47 2.29 6.415Z"/>
  <path fill="#fff" d="m124.063 280.584 2.851.169-1.908-8.054-3.233 1.47 2.29 6.415Z" opacity=".6"/>
  <path fill="#263238" d="M152.337 258.838v2.003c0 .514-.737.725-1.355.725h-48.726c-.626 0-1.379-.211-1.379-.725v-2.003h51.46Z"/>
  <path fill="#fff" d="M152.337 258.838v2.003c0 .514-.737.725-1.355.725h-48.726c-.626 0-1.379-.211-1.379-.725v-2.003h51.46Z" opacity=".4"/>
  <path fill="#000" d="M152.339 258.838v2.003c0 .514-.738.725-1.355.725h-32.138c-.625 0-1.367-.211-1.367-.725v-2.003h34.86Z" opacity=".2"/>
  <path fill="#263238" d="m160.49 238.04-5.8 21.614c-.189.711-1.032 1.228-1.884 1.228h-31.685c-.844 0-1.386-.646-1.19-1.358l5.793-21.449c.196-.706 1.032-1.057 1.883-1.057h31.687c.85 0 1.386.316 1.196 1.022Z"/>
  <path fill="#fff" d="m160.489 238.04-5.8 21.614c-.189.711-1.032 1.228-1.884 1.228h-30.609c-.85 0-1.386-.646-1.197-1.358l5.801-21.449c.188-.706 1.031-1.057 1.883-1.057h30.609c.851 0 1.386.316 1.197 1.022Z" opacity=".4"/>
  <path fill="#000" d="M144.866 249.025v.007c0 1.851-2.415 3.354-4.185 3.354-1.771 0-2.821-1.503-2.316-3.354.505-1.814 2.267-3.292 3.999-3.348-.505 1.85.577 3.348 2.34 3.348.038 0 .162 0 .162-.007Z" opacity=".2"/>
  <path fill="#E4897B" d="m138.027 281.35 10.377 1.403 4.983.674 1.454-4.228-4.507-1.127-11.01-2.752-1.297 6.03Z"/>
  <path fill="#000" d="m153.821 278.505-2.244 4.747c-.125.266.041.562.367.658l2.896.842s3.796 1.361 5.026.926c3.592-1.268 8.883-11.665 7.718-12.645-.425-.358-1.354-.027-1.844.269-1.556.942-5.026 3.68-6.335 4.452-1.532.903-3.874.622-4.89.44-.292-.052-.585.081-.694.311Z"/>
  <path fill="#000" d="m138.027 281.35 10.377 1.403 1.93-4.681-11.01-2.752-1.297 6.03Z" opacity=".2"/>
  <path fill="#455A64" d="M148.546 277.186s-42.309-19.539-56.907-18.983c-14.598.556-16.704 11.129-10.682 17.747 6.023 6.617 17.145 8.228 17.145 8.228s-7.572-8.792-6.477-11.265c1.094-2.473 5.378.978 5.378.978s26.617 7.062 49.9 8.682l1.643-5.387Z"/>
  <path fill="url(#aw)" d="m149.223 276.652-2.394-1.322-3.077 7.764h3.695l1.776-6.442Z"/>
  <path fill="#fff" d="m149.223 276.652-2.394-1.322-3.077 7.764h3.695l1.776-6.442Z" opacity=".6"/>
  <path fill="url(#ax)" d="m74.94 245.406 26.95 2.032s4.224-7.187 7.461-9.989c3.229-2.81 6.109-17.026 6.109-17.026a65.275 65.275 0 0 0-6.756-2.264c-8.591-2.393-16.384-2.83-20.617-2.85h-.15c-2.008-.007-3.17.082-3.17.082-.664.3-1.303.927-1.918 1.793-2.888 4.091-5.187 13.637-6.548 20.49-.88 4.425-1.362 7.732-1.362 7.732Z"/>
  <path fill="#000" d="M76.299 237.673c5.943-2.236 14.052-6.021 13.628-9.859-.456-4.214-4.614-8.455-7.08-10.63-2.888 4.091-5.187 13.637-6.548 20.489Z" opacity=".2"/>
  <path fill="url(#ay)" d="M91.164 215.558s3.964 7.688 11.098 7.688 7.365-4.317 7.365-4.317-7.135-3.843-18.463-3.371Z"/>
  <path fill="url(#az)" d="M91.164 215.558s3.964 7.688 11.098 7.688 7.365-4.317 7.365-4.317-7.135-3.843-18.463-3.371Z" opacity=".4"/>
  <path fill="#E4897B" d="M104.092 216.756c.049 1.381.998 1.707.998 1.707.345 2.541-2.341 3.339-3.688 3.227-5.29-.445-6.96-5.675-6.96-5.675 3.848-1.256 4.712-4.741 4.874-6.812.077-.967 0-1.627 0-1.627l7.189 3.72a19.653 19.653 0 0 0-1.606 2.586c-.628 1.265-.828 2.197-.807 2.874Z"/>
  <path fill="#000" d="M106.062 210.832a18.684 18.684 0 0 0-1.279 2.705c-.468 1.311-.552 2.254-.448 2.926-4.041.26-5.648-7.073-5.648-7.073l-.035-.043a9.248 9.248 0 0 0-.2-1.618l7.61 3.103Z" opacity=".2"/>
  <path fill="#472E03" d="M110.664 194.451s5.274-4.991-1.04-9.172c-6.314-4.181-18.79-2.293-21.09 7.148-2.297 9.441.874 13.43.874 13.43s-.002-6.012 2.107-7.766c0 0-.631 2.877 0 4.608.632 1.73 0 .629 0 .629s1.945-7.53 11.303-5.372c9.358 2.159 7.846-3.505 7.846-3.505Z"/>
  <path fill="#E4897B" d="M111.925 196.08c6.953 1.742 8.056 5.36 6.38 11.374-2.094 7.515-6.019 12.243-14.129 8.494-11.014-5.091-3.797-22.761 7.749-19.868Z"/>
  <path fill="#B66E62" d="M113.931 206.008s.409 1.733 1.143 2.875c0 0-.883.628-2.072.187l.929-3.062Z"/>
  <path fill="#263238" d="M109.847 204.475c-.161.473-.601.785-.985.697-.383-.088-.563-.543-.403-1.016.161-.472.602-.784.985-.696.384.089.564.543.403 1.015Z"/>
  <path fill="#263238" d="m109.279 203.446 1.388-.116s-.916.722-1.388.116Zm7.75 2.574c-.161.473-.601.784-.985.697-.383-.088-.564-.543-.403-1.016.161-.472.602-.784.985-.696.384.088.564.543.403 1.015Z"/>
  <path fill="#263238" d="m116.461 204.991 1.388-.116s-.917.722-1.388.116Zm-8.555-4.125a.322.322 0 0 1-.25-.109c-.092-.113-.055-.267.082-.343 1.581-.872 3.546-.159 3.628-.128.151.057.219.203.151.326-.068.126-.246.18-.398.124-.017-.006-1.746-.631-3.045.088a.349.349 0 0 1-.168.042Zm11.075 2.081a.326.326 0 0 1-.232-.09c-1.108-1.108-2.299-1.085-2.349-1.074-.16 0-.307-.099-.316-.234-.008-.135.117-.251.283-.259.059-.009 1.534-.059 2.846 1.253.107.106.088.262-.041.348a.35.35 0 0 1-.191.056Z"/>
  <path fill="#472E03" d="M100.752 203.802s4.993-3.879 5.845-7.625c0 0 15.494-1.172 11.91 10.487 0 0 5.132-9.864-6.735-13.085-11.848-3.217-17.149 11.155-12.565 16.981 0 0-1.556-4.328 1.545-6.758Z"/>
  <path fill="#263238" d="M111.397 211.644h-.007c-3.4-.066-3.835-2.657-3.839-2.683-.021-.135.096-.259.261-.276.163-.015.314.079.336.214.014.09.382 2.195 3.256 2.251.166.004.297.117.294.253-.003.134-.137.241-.301.241Zm-11.845-8.984c-.026.075.022.15.11.185a.235.235 0 0 0 .05.014l7.074 1.354c-.227 1.062.44 2.162 1.787 2.7 1.703.68 3.833.205 4.75-1.059.09-.124.153-.253.213-.382.376-.198.693-.274.914-.213.273.08.358.327.363.342-.214 1.056.454 2.146 1.793 2.68 1.703.68 3.834.204 4.75-1.059.917-1.264.276-2.844-1.426-3.524-1.704-.68-3.834-.204-4.751 1.059-.09.125-.153.254-.214.384a.906.906 0 0 0-.357-.189c-.269-.074-.58-.045-.924.076.226-1.062-.442-2.161-1.788-2.698-1.703-.68-3.834-.205-4.75 1.058a2.303 2.303 0 0 0-.276.502l-7.048-1.349c-.119-.022-.24.031-.27.119Zm16.017 2.253c.801-1.104 2.662-1.52 4.151-.926 1.488.594 2.047 1.976 1.246 3.079-.801 1.104-2.662 1.52-4.151.926-1.488-.594-2.047-1.976-1.246-3.079Zm-8.034-1.369c.801-1.104 2.663-1.519 4.151-.925 1.488.594 2.048 1.975 1.247 3.079-.801 1.104-2.663 1.519-4.151.925-1.488-.593-2.048-1.974-1.247-3.079Z"/>
  <path fill="#fff" d="M99.552 202.66c-.026.075.022.15.11.185a.235.235 0 0 0 .05.014l7.074 1.354c-.227 1.062.44 2.162 1.787 2.7 1.703.68 3.833.205 4.75-1.059.09-.124.153-.253.213-.382.376-.198.693-.274.914-.213.273.08.358.327.363.342-.214 1.056.454 2.146 1.793 2.68 1.703.68 3.834.204 4.75-1.059.917-1.264.276-2.844-1.426-3.524-1.704-.68-3.834-.204-4.751 1.059-.09.125-.153.254-.214.384a.906.906 0 0 0-.357-.189c-.269-.074-.58-.045-.924.076.226-1.062-.442-2.161-1.788-2.698-1.703-.68-3.834-.205-4.75 1.058a2.303 2.303 0 0 0-.276.502l-7.048-1.349c-.119-.022-.24.031-.27.119Zm16.017 2.253c.801-1.104 2.662-1.52 4.151-.926 1.488.594 2.047 1.976 1.246 3.079-.801 1.104-2.662 1.52-4.151.926-1.488-.594-2.047-1.976-1.246-3.079Zm-8.034-1.369c.801-1.104 2.663-1.519 4.151-.925 1.488.594 2.048 1.975 1.247 3.079-.801 1.104-2.663 1.519-4.151.925-1.488-.593-2.048-1.974-1.247-3.079Z" opacity=".3"/>
  <path fill="#E4897B" d="M101.443 205.291c.295-.931-.282-2.777-2.433-3.112-2.226-.346-4.602 3.029.433 5.246.722.318 1.385-.191 2-2.134ZM87.934 222.85s.883 14.573 2.377 17.838c1.493 3.265 17.172 15.334 17.172 15.334s4.376-.802 5.102-.568c.726.233 4.895 3.383 4.895 3.383h-12.062l-1.052-1.531s-16.223-9.871-18.005-12.224c-1.32-1.741-5.556-19.444-5.556-19.444l7.13-2.788Z"/>
  <path fill="url(#aA)" d="M84.765 215.388c2.813-1.204 4.185 2.664 5.865 10.487 1.68 7.822 1.405 14.965 1.405 14.965l2.405 3.512-6.07 4.596s-4.526-3.398-6.403-8.107c-1.877-4.709-7.046-21.238 2.798-25.453Z"/>
  <path fill="url(#aB)" d="m86.78 248.946 7.661-5.63 1.81 2.085-6.844 5.521-2.628-1.976Z"/>
  <path fill="#E3693A" d="m86.78 248.946 7.661-5.63 1.81 2.085-6.844 5.521-2.628-1.976Z" opacity=".4"/>
  <defs>
    <linearGradient id="b" x1="168.478" x2="338.829" y1="206.567" y2="212.858" gradientUnits="userSpaceOnUse">
      <stop stop-color="#FB8D48"/>
      <stop offset=".2" stop-color="#ED7136"/>
      <stop offset=".4" stop-color="#C54E47"/>
      <stop offset=".4" stop-color="#C14F49"/>
      <stop offset=".6" stop-color="#9D3863"/>
      <stop offset=".8" stop-color="#5E1F72"/>
    </linearGradient>
    <linearGradient id="c" x1="235.143" x2="322.334" y1="173.567" y2="175.035" gradientUnits="userSpaceOnUse">
      <stop stop-color="#FB8D48"/>
      <stop offset=".2" stop-color="#ED7136"/>
      <stop offset=".4" stop-color="#C54E47"/>
      <stop offset=".4" stop-color="#C14F49"/>
      <stop offset=".6" stop-color="#9D3863"/>
      <stop offset=".8" stop-color="#5E1F72"/>
    </linearGradient>
    <linearGradient id="d" x1="239.978" x2="272.527" y1="141.454" y2="164.159" gradientUnits="userSpaceOnUse">
      <stop stop-color="#FB8D48"/>
      <stop offset=".2" stop-color="#ED7136"/>
      <stop offset=".4" stop-color="#C54E47"/>
      <stop offset=".4" stop-color="#C14F49"/>
      <stop offset=".6" stop-color="#9D3863"/>
      <stop offset=".8" stop-color="#5E1F72"/>
    </linearGradient>
    <linearGradient id="e" x1="239.745" x2="267.724" y1="145.177" y2="159.364" gradientUnits="userSpaceOnUse">
      <stop stop-color="#FB8D48"/>
      <stop offset=".2" stop-color="#ED7136"/>
      <stop offset=".4" stop-color="#C54E47"/>
      <stop offset=".4" stop-color="#C14F49"/>
      <stop offset=".6" stop-color="#9D3863"/>
      <stop offset=".8" stop-color="#5E1F72"/>
    </linearGradient>
    <linearGradient id="f" x1="250.339" x2="284.766" y1="202.773" y2="233.256" gradientUnits="userSpaceOnUse">
      <stop stop-color="#FB8D48"/>
      <stop offset=".2" stop-color="#ED7136"/>
      <stop offset=".4" stop-color="#C54E47"/>
      <stop offset=".4" stop-color="#C14F49"/>
      <stop offset=".6" stop-color="#9D3863"/>
      <stop offset=".8" stop-color="#5E1F72"/>
    </linearGradient>
    <linearGradient id="g" x1="240.208" x2="274.635" y1="217.673" y2="248.156" gradientUnits="userSpaceOnUse">
      <stop stop-color="#FB8D48"/>
      <stop offset=".2" stop-color="#ED7136"/>
      <stop offset=".4" stop-color="#C54E47"/>
      <stop offset=".4" stop-color="#C14F49"/>
      <stop offset=".6" stop-color="#9D3863"/>
      <stop offset=".8" stop-color="#5E1F72"/>
    </linearGradient>
    <linearGradient id="h" x1="240.384" x2="275.052" y1="206.495" y2="242.185" gradientUnits="userSpaceOnUse">
      <stop stop-color="#FB8D48"/>
      <stop offset=".2" stop-color="#ED7136"/>
      <stop offset=".4" stop-color="#C54E47"/>
      <stop offset=".4" stop-color="#C14F49"/>
      <stop offset=".6" stop-color="#9D3863"/>
      <stop offset=".8" stop-color="#5E1F72"/>
    </linearGradient>
    <linearGradient id="i" x1="240.384" x2="275.052" y1="210.222" y2="245.912" gradientUnits="userSpaceOnUse">
      <stop stop-color="#FB8D48"/>
      <stop offset=".2" stop-color="#ED7136"/>
      <stop offset=".4" stop-color="#C54E47"/>
      <stop offset=".4" stop-color="#C14F49"/>
      <stop offset=".6" stop-color="#9D3863"/>
      <stop offset=".8" stop-color="#5E1F72"/>
    </linearGradient>
    <linearGradient id="j" x1="240.384" x2="275.052" y1="213.947" y2="249.636" gradientUnits="userSpaceOnUse">
      <stop stop-color="#FB8D48"/>
      <stop offset=".2" stop-color="#ED7136"/>
      <stop offset=".4" stop-color="#C54E47"/>
      <stop offset=".4" stop-color="#C14F49"/>
      <stop offset=".6" stop-color="#9D3863"/>
      <stop offset=".8" stop-color="#5E1F72"/>
    </linearGradient>
    <linearGradient id="k" x1="305.012" x2="322.081" y1="223.45" y2="223.853" gradientUnits="userSpaceOnUse">
      <stop stop-color="#FB8D48"/>
      <stop offset=".2" stop-color="#ED7136"/>
      <stop offset=".4" stop-color="#C54E47"/>
      <stop offset=".4" stop-color="#C14F49"/>
      <stop offset=".6" stop-color="#9D3863"/>
      <stop offset=".8" stop-color="#5E1F72"/>
    </linearGradient>
    <linearGradient id="l" x1="317.84" x2="321.393" y1="171.89" y2="171.912" gradientUnits="userSpaceOnUse">
      <stop stop-color="#FB8D48"/>
      <stop offset=".2" stop-color="#ED7136"/>
      <stop offset=".4" stop-color="#C54E47"/>
      <stop offset=".4" stop-color="#C14F49"/>
      <stop offset=".6" stop-color="#9D3863"/>
      <stop offset=".8" stop-color="#5E1F72"/>
    </linearGradient>
    <linearGradient id="m" x1="250.339" x2="284.766" y1="182.316" y2="212.799" gradientUnits="userSpaceOnUse">
      <stop stop-color="#FB8D48"/>
      <stop offset=".2" stop-color="#ED7136"/>
      <stop offset=".4" stop-color="#C54E47"/>
      <stop offset=".4" stop-color="#C14F49"/>
      <stop offset=".6" stop-color="#9D3863"/>
      <stop offset=".8" stop-color="#5E1F72"/>
    </linearGradient>
    <linearGradient id="n" x1="240.208" x2="274.635" y1="197.216" y2="227.699" gradientUnits="userSpaceOnUse">
      <stop stop-color="#FB8D48"/>
      <stop offset=".2" stop-color="#ED7136"/>
      <stop offset=".4" stop-color="#C54E47"/>
      <stop offset=".4" stop-color="#C14F49"/>
      <stop offset=".6" stop-color="#9D3863"/>
      <stop offset=".8" stop-color="#5E1F72"/>
    </linearGradient>
    <linearGradient id="o" x1="240.384" x2="275.052" y1="186.038" y2="221.728" gradientUnits="userSpaceOnUse">
      <stop stop-color="#FB8D48"/>
      <stop offset=".2" stop-color="#ED7136"/>
      <stop offset=".4" stop-color="#C54E47"/>
      <stop offset=".4" stop-color="#C14F49"/>
      <stop offset=".6" stop-color="#9D3863"/>
      <stop offset=".8" stop-color="#5E1F72"/>
    </linearGradient>
    <linearGradient id="p" x1="240.384" x2="275.052" y1="189.765" y2="225.455" gradientUnits="userSpaceOnUse">
      <stop stop-color="#FB8D48"/>
      <stop offset=".2" stop-color="#ED7136"/>
      <stop offset=".4" stop-color="#C54E47"/>
      <stop offset=".4" stop-color="#C14F49"/>
      <stop offset=".6" stop-color="#9D3863"/>
      <stop offset=".8" stop-color="#5E1F72"/>
    </linearGradient>
    <linearGradient id="q" x1="240.384" x2="275.052" y1="193.489" y2="229.179" gradientUnits="userSpaceOnUse">
      <stop stop-color="#FB8D48"/>
      <stop offset=".2" stop-color="#ED7136"/>
      <stop offset=".4" stop-color="#C54E47"/>
      <stop offset=".4" stop-color="#C14F49"/>
      <stop offset=".6" stop-color="#9D3863"/>
      <stop offset=".8" stop-color="#5E1F72"/>
    </linearGradient>
    <linearGradient id="r" x1="240.974" x2="310.68" y1="159.762" y2="164.172" gradientUnits="userSpaceOnUse">
      <stop stop-color="#FB8D48"/>
      <stop offset=".2" stop-color="#ED7136"/>
      <stop offset=".4" stop-color="#C54E47"/>
      <stop offset=".4" stop-color="#C14F49"/>
      <stop offset=".6" stop-color="#9D3863"/>
      <stop offset=".8" stop-color="#5E1F72"/>
    </linearGradient>
    <linearGradient id="s" x1="291.113" x2="309.953" y1="174.818" y2="180.381" gradientUnits="userSpaceOnUse">
      <stop stop-color="#FB8D48"/>
      <stop offset=".2" stop-color="#ED7136"/>
      <stop offset=".4" stop-color="#C54E47"/>
      <stop offset=".4" stop-color="#C14F49"/>
      <stop offset=".6" stop-color="#9D3863"/>
      <stop offset=".8" stop-color="#5E1F72"/>
    </linearGradient>
    <linearGradient id="t" x1="130.368" x2="217.559" y1="184.21" y2="185.678" gradientUnits="userSpaceOnUse">
      <stop stop-color="#FB8D48"/>
      <stop offset=".2" stop-color="#ED7136"/>
      <stop offset=".4" stop-color="#C54E47"/>
      <stop offset=".4" stop-color="#C14F49"/>
      <stop offset=".6" stop-color="#9D3863"/>
      <stop offset=".8" stop-color="#5E1F72"/>
    </linearGradient>
    <linearGradient id="u" x1="134.631" x2="149.957" y1="152.47" y2="156.04" gradientUnits="userSpaceOnUse">
      <stop stop-color="#FB8D48"/>
      <stop offset=".2" stop-color="#ED7136"/>
      <stop offset=".4" stop-color="#C54E47"/>
      <stop offset=".4" stop-color="#C14F49"/>
      <stop offset=".6" stop-color="#9D3863"/>
      <stop offset=".8" stop-color="#5E1F72"/>
    </linearGradient>
    <linearGradient id="v" x1="134.751" x2="155.478" y1="156.193" y2="163.067" gradientUnits="userSpaceOnUse">
      <stop stop-color="#FB8D48"/>
      <stop offset=".2" stop-color="#ED7136"/>
      <stop offset=".4" stop-color="#C54E47"/>
      <stop offset=".4" stop-color="#C14F49"/>
      <stop offset=".6" stop-color="#9D3863"/>
      <stop offset=".8" stop-color="#5E1F72"/>
    </linearGradient>
    <linearGradient id="w" x1="134.635" x2="150.166" y1="159.919" y2="163.591" gradientUnits="userSpaceOnUse">
      <stop stop-color="#FB8D48"/>
      <stop offset=".2" stop-color="#ED7136"/>
      <stop offset=".4" stop-color="#C54E47"/>
      <stop offset=".4" stop-color="#C14F49"/>
      <stop offset=".6" stop-color="#9D3863"/>
      <stop offset=".8" stop-color="#5E1F72"/>
    </linearGradient>
    <linearGradient id="x" x1="145.559" x2="179.987" y1="220.917" y2="251.401" gradientUnits="userSpaceOnUse">
      <stop stop-color="#FB8D48"/>
      <stop offset=".2" stop-color="#ED7136"/>
      <stop offset=".4" stop-color="#C54E47"/>
      <stop offset=".4" stop-color="#C14F49"/>
      <stop offset=".6" stop-color="#9D3863"/>
      <stop offset=".8" stop-color="#5E1F72"/>
    </linearGradient>
    <linearGradient id="y" x1="135.027" x2="164.525" y1="224.64" y2="241.081" gradientUnits="userSpaceOnUse">
      <stop stop-color="#FB8D48"/>
      <stop offset=".2" stop-color="#ED7136"/>
      <stop offset=".4" stop-color="#C54E47"/>
      <stop offset=".4" stop-color="#C14F49"/>
      <stop offset=".6" stop-color="#9D3863"/>
      <stop offset=".8" stop-color="#5E1F72"/>
    </linearGradient>
    <linearGradient id="z" x1="200.233" x2="217.301" y1="234.101" y2="234.503" gradientUnits="userSpaceOnUse">
      <stop stop-color="#FB8D48"/>
      <stop offset=".2" stop-color="#ED7136"/>
      <stop offset=".4" stop-color="#C54E47"/>
      <stop offset=".4" stop-color="#C14F49"/>
      <stop offset=".6" stop-color="#9D3863"/>
      <stop offset=".8" stop-color="#5E1F72"/>
    </linearGradient>
    <linearGradient id="A" x1="213.065" x2="216.618" y1="215.948" y2="215.97" gradientUnits="userSpaceOnUse">
      <stop stop-color="#FB8D48"/>
      <stop offset=".2" stop-color="#ED7136"/>
      <stop offset=".4" stop-color="#C54E47"/>
      <stop offset=".4" stop-color="#C14F49"/>
      <stop offset=".6" stop-color="#9D3863"/>
      <stop offset=".8" stop-color="#5E1F72"/>
    </linearGradient>
    <linearGradient id="B" x1="193.907" x2="206.36" y1="152.47" y2="154.783" gradientUnits="userSpaceOnUse">
      <stop stop-color="#FB8D48"/>
      <stop offset=".2" stop-color="#ED7136"/>
      <stop offset=".4" stop-color="#C54E47"/>
      <stop offset=".4" stop-color="#C14F49"/>
      <stop offset=".6" stop-color="#9D3863"/>
      <stop offset=".8" stop-color="#5E1F72"/>
    </linearGradient>
    <linearGradient id="C" x1="199.319" x2="206.686" y1="156.193" y2="156.984" gradientUnits="userSpaceOnUse">
      <stop stop-color="#FB8D48"/>
      <stop offset=".2" stop-color="#ED7136"/>
      <stop offset=".4" stop-color="#C54E47"/>
      <stop offset=".4" stop-color="#C14F49"/>
      <stop offset=".6" stop-color="#9D3863"/>
      <stop offset=".8" stop-color="#5E1F72"/>
    </linearGradient>
    <linearGradient id="D" x1="145.559" x2="179.987" y1="169.782" y2="200.266" gradientUnits="userSpaceOnUse">
      <stop stop-color="#FB8D48"/>
      <stop offset=".2" stop-color="#ED7136"/>
      <stop offset=".4" stop-color="#C54E47"/>
      <stop offset=".4" stop-color="#C14F49"/>
      <stop offset=".6" stop-color="#9D3863"/>
      <stop offset=".8" stop-color="#5E1F72"/>
    </linearGradient>
    <linearGradient id="E" x1="135.605" x2="170.272" y1="173.505" y2="209.195" gradientUnits="userSpaceOnUse">
      <stop stop-color="#FB8D48"/>
      <stop offset=".2" stop-color="#ED7136"/>
      <stop offset=".4" stop-color="#C54E47"/>
      <stop offset=".4" stop-color="#C14F49"/>
      <stop offset=".6" stop-color="#9D3863"/>
      <stop offset=".8" stop-color="#5E1F72"/>
    </linearGradient>
    <linearGradient id="F" x1="134.883" x2="160.427" y1="177.232" y2="188.455" gradientUnits="userSpaceOnUse">
      <stop stop-color="#FB8D48"/>
      <stop offset=".2" stop-color="#ED7136"/>
      <stop offset=".4" stop-color="#C54E47"/>
      <stop offset=".4" stop-color="#C14F49"/>
      <stop offset=".6" stop-color="#9D3863"/>
      <stop offset=".8" stop-color="#5E1F72"/>
    </linearGradient>
    <linearGradient id="G" x1="147.393" x2="174.669" y1="185.588" y2="187.991" gradientUnits="userSpaceOnUse">
      <stop stop-color="#FB8D48"/>
      <stop offset=".2" stop-color="#ED7136"/>
      <stop offset=".4" stop-color="#C54E47"/>
      <stop offset=".4" stop-color="#C14F49"/>
      <stop offset=".6" stop-color="#9D3863"/>
      <stop offset=".8" stop-color="#5E1F72"/>
    </linearGradient>
    <linearGradient id="H" x1="147.128" x2="159.582" y1="200.2" y2="200.335" gradientUnits="userSpaceOnUse">
      <stop stop-color="#FB8D48"/>
      <stop offset=".2" stop-color="#ED7136"/>
      <stop offset=".4" stop-color="#C54E47"/>
      <stop offset=".4" stop-color="#C14F49"/>
      <stop offset=".6" stop-color="#9D3863"/>
      <stop offset=".8" stop-color="#5E1F72"/>
    </linearGradient>
    <linearGradient id="I" x1="176.69" x2="190.994" y1="200.2" y2="200.378" gradientUnits="userSpaceOnUse">
      <stop stop-color="#FB8D48"/>
      <stop offset=".2" stop-color="#ED7136"/>
      <stop offset=".4" stop-color="#C54E47"/>
      <stop offset=".4" stop-color="#C14F49"/>
      <stop offset=".6" stop-color="#9D3863"/>
      <stop offset=".8" stop-color="#5E1F72"/>
    </linearGradient>
    <linearGradient id="J" x1="176.95" x2="205.772" y1="185.588" y2="188.274" gradientUnits="userSpaceOnUse">
      <stop stop-color="#FB8D48"/>
      <stop offset=".2" stop-color="#ED7136"/>
      <stop offset=".4" stop-color="#C54E47"/>
      <stop offset=".4" stop-color="#C14F49"/>
      <stop offset=".6" stop-color="#9D3863"/>
      <stop offset=".8" stop-color="#5E1F72"/>
    </linearGradient>
    <linearGradient id="K" x1="192.831" x2="205.957" y1="200.2" y2="200.35" gradientUnits="userSpaceOnUse">
      <stop stop-color="#FB8D48"/>
      <stop offset=".2" stop-color="#ED7136"/>
      <stop offset=".4" stop-color="#C54E47"/>
      <stop offset=".4" stop-color="#C14F49"/>
      <stop offset=".6" stop-color="#9D3863"/>
      <stop offset=".8" stop-color="#5E1F72"/>
    </linearGradient>
    <linearGradient id="L" x1="135.349" x2="145.286" y1="200.2" y2="200.286" gradientUnits="userSpaceOnUse">
      <stop stop-color="#FB8D48"/>
      <stop offset=".2" stop-color="#ED7136"/>
      <stop offset=".4" stop-color="#C54E47"/>
      <stop offset=".4" stop-color="#C14F49"/>
      <stop offset=".6" stop-color="#9D3863"/>
      <stop offset=".8" stop-color="#5E1F72"/>
    </linearGradient>
    <linearGradient id="M" x1="135.349" x2="145.277" y1="185.588" y2="185.904" gradientUnits="userSpaceOnUse">
      <stop stop-color="#FB8D48"/>
      <stop offset=".2" stop-color="#ED7136"/>
      <stop offset=".4" stop-color="#C54E47"/>
      <stop offset=".4" stop-color="#C14F49"/>
      <stop offset=".6" stop-color="#9D3863"/>
      <stop offset=".8" stop-color="#5E1F72"/>
    </linearGradient>
    <linearGradient id="N" x1="161.435" x2="174.828" y1="200.2" y2="200.356" gradientUnits="userSpaceOnUse">
      <stop stop-color="#FB8D48"/>
      <stop offset=".2" stop-color="#ED7136"/>
      <stop offset=".4" stop-color="#C54E47"/>
      <stop offset=".4" stop-color="#C14F49"/>
      <stop offset=".6" stop-color="#9D3863"/>
      <stop offset=".8" stop-color="#5E1F72"/>
    </linearGradient>
    <linearGradient id="O" x1="174.323" x2="261.514" y1="145.493" y2="146.961" gradientUnits="userSpaceOnUse">
      <stop stop-color="#FB8D48"/>
      <stop offset=".2" stop-color="#ED7136"/>
      <stop offset=".4" stop-color="#C54E47"/>
      <stop offset=".4" stop-color="#C14F49"/>
      <stop offset=".6" stop-color="#9D3863"/>
      <stop offset=".8" stop-color="#5E1F72"/>
    </linearGradient>
    <linearGradient id="P" x1="205.542" x2="222.662" y1="113.749" y2="118.27" gradientUnits="userSpaceOnUse">
      <stop stop-color="#FB8D48"/>
      <stop offset=".2" stop-color="#ED7136"/>
      <stop offset=".4" stop-color="#C54E47"/>
      <stop offset=".4" stop-color="#C14F49"/>
      <stop offset=".6" stop-color="#9D3863"/>
      <stop offset=".8" stop-color="#5E1F72"/>
    </linearGradient>
    <linearGradient id="Q" x1="198.838" x2="225.229" y1="117.472" y2="129.652" gradientUnits="userSpaceOnUse">
      <stop stop-color="#FB8D48"/>
      <stop offset=".2" stop-color="#ED7136"/>
      <stop offset=".4" stop-color="#C54E47"/>
      <stop offset=".4" stop-color="#C14F49"/>
      <stop offset=".6" stop-color="#9D3863"/>
      <stop offset=".8" stop-color="#5E1F72"/>
    </linearGradient>
    <linearGradient id="R" x1="205.306" x2="222.818" y1="121.198" y2="125.944" gradientUnits="userSpaceOnUse">
      <stop stop-color="#FB8D48"/>
      <stop offset=".2" stop-color="#ED7136"/>
      <stop offset=".4" stop-color="#C54E47"/>
      <stop offset=".4" stop-color="#C14F49"/>
      <stop offset=".6" stop-color="#9D3863"/>
      <stop offset=".8" stop-color="#5E1F72"/>
    </linearGradient>
    <linearGradient id="S" x1="189.518" x2="223.946" y1="131.062" y2="161.545" gradientUnits="userSpaceOnUse">
      <stop stop-color="#FB8D48"/>
      <stop offset=".2" stop-color="#ED7136"/>
      <stop offset=".4" stop-color="#C54E47"/>
      <stop offset=".4" stop-color="#C14F49"/>
      <stop offset=".6" stop-color="#9D3863"/>
      <stop offset=".8" stop-color="#5E1F72"/>
    </linearGradient>
    <linearGradient id="T" x1="179.388" x2="213.815" y1="145.962" y2="176.445" gradientUnits="userSpaceOnUse">
      <stop stop-color="#FB8D48"/>
      <stop offset=".2" stop-color="#ED7136"/>
      <stop offset=".4" stop-color="#C54E47"/>
      <stop offset=".4" stop-color="#C14F49"/>
      <stop offset=".6" stop-color="#9D3863"/>
      <stop offset=".8" stop-color="#5E1F72"/>
    </linearGradient>
    <linearGradient id="U" x1="179.564" x2="214.231" y1="134.784" y2="170.474" gradientUnits="userSpaceOnUse">
      <stop stop-color="#FB8D48"/>
      <stop offset=".2" stop-color="#ED7136"/>
      <stop offset=".4" stop-color="#C54E47"/>
      <stop offset=".4" stop-color="#C14F49"/>
      <stop offset=".6" stop-color="#9D3863"/>
      <stop offset=".8" stop-color="#5E1F72"/>
    </linearGradient>
    <linearGradient id="V" x1="179.564" x2="214.231" y1="138.511" y2="174.201" gradientUnits="userSpaceOnUse">
      <stop stop-color="#FB8D48"/>
      <stop offset=".2" stop-color="#ED7136"/>
      <stop offset=".4" stop-color="#C54E47"/>
      <stop offset=".4" stop-color="#C14F49"/>
      <stop offset=".6" stop-color="#9D3863"/>
      <stop offset=".8" stop-color="#5E1F72"/>
    </linearGradient>
    <linearGradient id="W" x1="179.564" x2="214.231" y1="142.236" y2="177.925" gradientUnits="userSpaceOnUse">
      <stop stop-color="#FB8D48"/>
      <stop offset=".2" stop-color="#ED7136"/>
      <stop offset=".4" stop-color="#C54E47"/>
      <stop offset=".4" stop-color="#C14F49"/>
      <stop offset=".6" stop-color="#9D3863"/>
      <stop offset=".8" stop-color="#5E1F72"/>
    </linearGradient>
    <linearGradient id="X" x1="189.518" x2="223.946" y1="168.564" y2="199.047" gradientUnits="userSpaceOnUse">
      <stop stop-color="#FB8D48"/>
      <stop offset=".2" stop-color="#ED7136"/>
      <stop offset=".4" stop-color="#C54E47"/>
      <stop offset=".4" stop-color="#C14F49"/>
      <stop offset=".6" stop-color="#9D3863"/>
      <stop offset=".8" stop-color="#5E1F72"/>
    </linearGradient>
    <linearGradient id="Y" x1="179.388" x2="213.815" y1="183.464" y2="213.947" gradientUnits="userSpaceOnUse">
      <stop stop-color="#FB8D48"/>
      <stop offset=".2" stop-color="#ED7136"/>
      <stop offset=".4" stop-color="#C54E47"/>
      <stop offset=".4" stop-color="#C14F49"/>
      <stop offset=".6" stop-color="#9D3863"/>
      <stop offset=".8" stop-color="#5E1F72"/>
    </linearGradient>
    <linearGradient id="Z" x1="179.564" x2="214.231" y1="172.29" y2="207.98" gradientUnits="userSpaceOnUse">
      <stop stop-color="#FB8D48"/>
      <stop offset=".2" stop-color="#ED7136"/>
      <stop offset=".4" stop-color="#C54E47"/>
      <stop offset=".4" stop-color="#C14F49"/>
      <stop offset=".6" stop-color="#9D3863"/>
      <stop offset=".8" stop-color="#5E1F72"/>
    </linearGradient>
    <linearGradient id="aa" x1="179.564" x2="214.231" y1="176.013" y2="211.703" gradientUnits="userSpaceOnUse">
      <stop stop-color="#FB8D48"/>
      <stop offset=".2" stop-color="#ED7136"/>
      <stop offset=".4" stop-color="#C54E47"/>
      <stop offset=".4" stop-color="#C14F49"/>
      <stop offset=".6" stop-color="#9D3863"/>
      <stop offset=".8" stop-color="#5E1F72"/>
    </linearGradient>
    <linearGradient id="ab" x1="179.564" x2="214.231" y1="179.738" y2="215.427" gradientUnits="userSpaceOnUse">
      <stop stop-color="#FB8D48"/>
      <stop offset=".2" stop-color="#ED7136"/>
      <stop offset=".4" stop-color="#C54E47"/>
      <stop offset=".4" stop-color="#C14F49"/>
      <stop offset=".6" stop-color="#9D3863"/>
      <stop offset=".8" stop-color="#5E1F72"/>
    </linearGradient>
    <linearGradient id="ac" x1="241.529" x2="249.902" y1="117.024" y2="117.173" gradientUnits="userSpaceOnUse">
      <stop stop-color="#FB8D48"/>
      <stop offset=".2" stop-color="#ED7136"/>
      <stop offset=".4" stop-color="#C54E47"/>
      <stop offset=".4" stop-color="#C14F49"/>
      <stop offset=".6" stop-color="#9D3863"/>
      <stop offset=".8" stop-color="#5E1F72"/>
    </linearGradient>
    <linearGradient id="ad" x1="179.295" x2="188.575" y1="116.355" y2="116.574" gradientUnits="userSpaceOnUse">
      <stop stop-color="#FB8D48"/>
      <stop offset=".2" stop-color="#ED7136"/>
      <stop offset=".4" stop-color="#C54E47"/>
      <stop offset=".4" stop-color="#C14F49"/>
      <stop offset=".6" stop-color="#9D3863"/>
      <stop offset=".8" stop-color="#5E1F72"/>
    </linearGradient>
    <linearGradient id="ae" x1="178.9" x2="180.855" y1="151.497" y2="151.543" gradientUnits="userSpaceOnUse">
      <stop stop-color="#FB8D48"/>
      <stop offset=".2" stop-color="#ED7136"/>
      <stop offset=".4" stop-color="#C54E47"/>
      <stop offset=".4" stop-color="#C14F49"/>
      <stop offset=".6" stop-color="#9D3863"/>
      <stop offset=".8" stop-color="#5E1F72"/>
    </linearGradient>
    <linearGradient id="af" x1="178.9" x2="180.855" y1="155.219" y2="155.265" gradientUnits="userSpaceOnUse">
      <stop stop-color="#FB8D48"/>
      <stop offset=".2" stop-color="#ED7136"/>
      <stop offset=".4" stop-color="#C54E47"/>
      <stop offset=".4" stop-color="#C14F49"/>
      <stop offset=".6" stop-color="#9D3863"/>
      <stop offset=".8" stop-color="#5E1F72"/>
    </linearGradient>
    <linearGradient id="ag" x1="178.9" x2="180.855" y1="158.946" y2="158.992" gradientUnits="userSpaceOnUse">
      <stop stop-color="#FB8D48"/>
      <stop offset=".2" stop-color="#ED7136"/>
      <stop offset=".4" stop-color="#C54E47"/>
      <stop offset=".4" stop-color="#C14F49"/>
      <stop offset=".6" stop-color="#9D3863"/>
      <stop offset=".8" stop-color="#5E1F72"/>
    </linearGradient>
    <linearGradient id="ah" x1="178.9" x2="180.855" y1="162.67" y2="162.717" gradientUnits="userSpaceOnUse">
      <stop stop-color="#FB8D48"/>
      <stop offset=".2" stop-color="#ED7136"/>
      <stop offset=".4" stop-color="#C54E47"/>
      <stop offset=".4" stop-color="#C14F49"/>
      <stop offset=".6" stop-color="#9D3863"/>
      <stop offset=".8" stop-color="#5E1F72"/>
    </linearGradient>
    <linearGradient id="ai" x1="182.672" x2="194.593" y1="151.515" y2="153.628" gradientUnits="userSpaceOnUse">
      <stop stop-color="#FB8D48"/>
      <stop offset=".2" stop-color="#ED7136"/>
      <stop offset=".4" stop-color="#C54E47"/>
      <stop offset=".4" stop-color="#C14F49"/>
      <stop offset=".6" stop-color="#9D3863"/>
      <stop offset=".8" stop-color="#5E1F72"/>
    </linearGradient>
    <linearGradient id="aj" x1="182.848" x2="203.05" y1="155.241" y2="161.733" gradientUnits="userSpaceOnUse">
      <stop stop-color="#FB8D48"/>
      <stop offset=".2" stop-color="#ED7136"/>
      <stop offset=".4" stop-color="#C54E47"/>
      <stop offset=".4" stop-color="#C14F49"/>
      <stop offset=".6" stop-color="#9D3863"/>
      <stop offset=".8" stop-color="#5E1F72"/>
    </linearGradient>
    <linearGradient id="ak" x1="182.632" x2="192.435" y1="158.964" y2="160.379" gradientUnits="userSpaceOnUse">
      <stop stop-color="#FB8D48"/>
      <stop offset=".2" stop-color="#ED7136"/>
      <stop offset=".4" stop-color="#C54E47"/>
      <stop offset=".4" stop-color="#C14F49"/>
      <stop offset=".6" stop-color="#9D3863"/>
      <stop offset=".8" stop-color="#5E1F72"/>
    </linearGradient>
    <linearGradient id="al" x1="182.79" x2="200.475" y1="162.691" y2="167.538" gradientUnits="userSpaceOnUse">
      <stop stop-color="#FB8D48"/>
      <stop offset=".2" stop-color="#ED7136"/>
      <stop offset=".4" stop-color="#C54E47"/>
      <stop offset=".4" stop-color="#C14F49"/>
      <stop offset=".6" stop-color="#9D3863"/>
      <stop offset=".8" stop-color="#5E1F72"/>
    </linearGradient>
    <linearGradient id="am" x1="244.192" x2="261.26" y1="195.38" y2="195.783" gradientUnits="userSpaceOnUse">
      <stop stop-color="#FB8D48"/>
      <stop offset=".2" stop-color="#ED7136"/>
      <stop offset=".4" stop-color="#C54E47"/>
      <stop offset=".4" stop-color="#C14F49"/>
      <stop offset=".6" stop-color="#9D3863"/>
      <stop offset=".8" stop-color="#5E1F72"/>
    </linearGradient>
    <linearGradient id="an" x1="257.02" x2="260.573" y1="116.544" y2="116.566" gradientUnits="userSpaceOnUse">
      <stop stop-color="#FB8D48"/>
      <stop offset=".2" stop-color="#ED7136"/>
      <stop offset=".4" stop-color="#C54E47"/>
      <stop offset=".4" stop-color="#C14F49"/>
      <stop offset=".6" stop-color="#9D3863"/>
      <stop offset=".8" stop-color="#5E1F72"/>
    </linearGradient>
    <linearGradient id="ao" x1="66.023" x2="102.888" y1="158.403" y2="159.125" gradientUnits="userSpaceOnUse">
      <stop stop-color="#FB8D48"/>
      <stop offset=".2" stop-color="#ED7136"/>
      <stop offset=".4" stop-color="#C54E47"/>
      <stop offset=".4" stop-color="#C14F49"/>
      <stop offset=".6" stop-color="#9D3863"/>
      <stop offset=".8" stop-color="#5E1F72"/>
    </linearGradient>
    <linearGradient id="ap" x1="120.038" x2="104.661" y1="248.108" y2="229.467" gradientUnits="userSpaceOnUse">
      <stop stop-color="#FB8D48"/>
      <stop offset=".2" stop-color="#ED7136"/>
      <stop offset=".4" stop-color="#C54E47"/>
      <stop offset=".4" stop-color="#C14F49"/>
      <stop offset=".6" stop-color="#9D3863"/>
      <stop offset=".8" stop-color="#5E1F72"/>
    </linearGradient>
    <linearGradient id="aq" x1="115.83" x2="123.107" y1="246.6" y2="246.788" gradientUnits="userSpaceOnUse">
      <stop stop-color="#FB8D48"/>
      <stop offset=".2" stop-color="#ED7136"/>
      <stop offset=".4" stop-color="#C54E47"/>
      <stop offset=".4" stop-color="#C14F49"/>
      <stop offset=".6" stop-color="#9D3863"/>
      <stop offset=".8" stop-color="#5E1F72"/>
    </linearGradient>
    <linearGradient id="ar" x1="157.529" x2="159.966" y1="277.463" y2="277.511" gradientUnits="userSpaceOnUse">
      <stop stop-color="#FB8D48"/>
      <stop offset=".2" stop-color="#ED7136"/>
      <stop offset=".4" stop-color="#C54E47"/>
      <stop offset=".4" stop-color="#C14F49"/>
      <stop offset=".6" stop-color="#9D3863"/>
      <stop offset=".8" stop-color="#5E1F72"/>
    </linearGradient>
    <linearGradient id="as" x1="156.522" x2="157.988" y1="277.395" y2="277.411" gradientUnits="userSpaceOnUse">
      <stop stop-color="#FB8D48"/>
      <stop offset=".2" stop-color="#ED7136"/>
      <stop offset=".4" stop-color="#C54E47"/>
      <stop offset=".4" stop-color="#C14F49"/>
      <stop offset=".6" stop-color="#9D3863"/>
      <stop offset=".8" stop-color="#5E1F72"/>
    </linearGradient>
    <linearGradient id="at" x1="114.408" x2="115.86" y1="283.285" y2="283.299" gradientUnits="userSpaceOnUse">
      <stop stop-color="#FB8D48"/>
      <stop offset=".2" stop-color="#ED7136"/>
      <stop offset=".4" stop-color="#C54E47"/>
      <stop offset=".4" stop-color="#C14F49"/>
      <stop offset=".6" stop-color="#9D3863"/>
      <stop offset=".8" stop-color="#5E1F72"/>
    </linearGradient>
    <linearGradient id="au" x1="115.392" x2="117.658" y1="282.978" y2="283.023" gradientUnits="userSpaceOnUse">
      <stop stop-color="#FB8D48"/>
      <stop offset=".2" stop-color="#ED7136"/>
      <stop offset=".4" stop-color="#C54E47"/>
      <stop offset=".4" stop-color="#C14F49"/>
      <stop offset=".6" stop-color="#9D3863"/>
      <stop offset=".8" stop-color="#5E1F72"/>
    </linearGradient>
    <linearGradient id="av" x1="121.863" x2="126.932" y1="276.167" y2="276.229" gradientUnits="userSpaceOnUse">
      <stop stop-color="#FB8D48"/>
      <stop offset=".2" stop-color="#ED7136"/>
      <stop offset=".4" stop-color="#C54E47"/>
      <stop offset=".4" stop-color="#C14F49"/>
      <stop offset=".6" stop-color="#9D3863"/>
      <stop offset=".8" stop-color="#5E1F72"/>
    </linearGradient>
    <linearGradient id="aw" x1="143.847" x2="149.243" y1="278.673" y2="278.747" gradientUnits="userSpaceOnUse">
      <stop stop-color="#FB8D48"/>
      <stop offset=".2" stop-color="#ED7136"/>
      <stop offset=".4" stop-color="#C54E47"/>
      <stop offset=".4" stop-color="#C14F49"/>
      <stop offset=".6" stop-color="#9D3863"/>
      <stop offset=".8" stop-color="#5E1F72"/>
    </linearGradient>
    <linearGradient id="ax" x1="95.494" x2="94.151" y1="259.265" y2="215.264" gradientUnits="userSpaceOnUse">
      <stop stop-color="#FB8D48"/>
      <stop offset=".2" stop-color="#ED7136"/>
      <stop offset=".4" stop-color="#C54E47"/>
      <stop offset=".4" stop-color="#C14F49"/>
      <stop offset=".6" stop-color="#9D3863"/>
      <stop offset=".8" stop-color="#5E1F72"/>
    </linearGradient>
    <linearGradient id="ay" x1="91.485" x2="109.658" y1="218.845" y2="219.687" gradientUnits="userSpaceOnUse">
      <stop stop-color="#FB8D48"/>
      <stop offset=".2" stop-color="#ED7136"/>
      <stop offset=".4" stop-color="#C54E47"/>
      <stop offset=".4" stop-color="#C14F49"/>
      <stop offset=".6" stop-color="#9D3863"/>
      <stop offset=".8" stop-color="#5E1F72"/>
    </linearGradient>
    <linearGradient id="az" x1="100.396" x2="100.396" y1="215.518" y2="223.246" gradientUnits="userSpaceOnUse">
      <stop offset=".094" stop-color="#FFBE55"/>
      <stop offset="1" stop-color="#E86B31"/>
    </linearGradient>
    <linearGradient id="aA" x1="93.709" x2="75.445" y1="251.678" y2="229.457" gradientUnits="userSpaceOnUse">
      <stop stop-color="#FB8D48"/>
      <stop offset=".2" stop-color="#ED7136"/>
      <stop offset=".4" stop-color="#C54E47"/>
      <stop offset=".4" stop-color="#C14F49"/>
      <stop offset=".6" stop-color="#9D3863"/>
      <stop offset=".8" stop-color="#5E1F72"/>
    </linearGradient>
    <linearGradient id="aB" x1="86.944" x2="96.281" y1="246.591" y2="246.817" gradientUnits="userSpaceOnUse">
      <stop stop-color="#FB8D48"/>
      <stop offset=".2" stop-color="#ED7136"/>
      <stop offset=".4" stop-color="#C54E47"/>
      <stop offset=".4" stop-color="#C14F49"/>
      <stop offset=".6" stop-color="#9D3863"/>
      <stop offset=".8" stop-color="#5E1F72"/>
    </linearGradient>
    <filter id="a" width="369.855" height="63.441" x="22.572" y="252.094" color-interpolation-filters="sRGB" filterUnits="userSpaceOnUse">
      <feFlood flood-opacity="0" result="BackgroundImageFix"/>
      <feBlend in="SourceGraphic" in2="BackgroundImageFix" result="shape"/>
      <feGaussianBlur result="effect1_foregroundBlur_1571_48863" stdDeviation="12"/>
    </filter>
  </defs>
</svg>
