<svg xmlns="http://www.w3.org/2000/svg" width="399" height="354" fill="none" viewBox="0 0 399 354">
  <g filter="url(#a)">
    <path fill="#E0E0E0" fill-opacity=".09" d="M163.565 257.478c-17.985-9.213-47.051-9.213-64.92 0-17.87 9.214-17.774 24.15.21 33.363 17.988 9.213 47.053 9.213 64.922 0 17.87-9.213 17.775-24.15-.212-33.363Z"/>
  </g>
  <path fill="#E0E0E0" d="m280.514 257.114-5.305 2.735-76.436-39.003 5.306-2.735 76.435 39.003Zm62.365 31.901-5.305 2.735-51.785-26.427 5.305-2.735 51.785 26.427Z"/>
  <g opacity=".6">
    <path fill="#E86B31" d="m324.375 104.028 2.27 1.163.159-49.698-2.27-1.163-.159 49.698Zm-.027 8.719 2.27 1.162.014-4.451-2.27-1.163-.014 4.452Zm-3.012-5.817 2.27 1.163.015-4.452-2.271-1.162-.014 4.451Zm8.887 8.829 2.27 1.163.014-4.452-2.271-1.163-.013 4.452Zm.17-53.605-.014 4.445 2.271 1.163.014-4.444-2.271-1.164Zm-3.057 37.436 2.27 1.164.09-28.078-2.271-1.162-.089 28.077Zm-5.969-3.057 2.271 1.163.09-28.078-2.271-1.163-.09 28.078Zm8.961-14.347 2.27 1.164.03-9.173-2.27-1.163-.03 9.172Zm-.058 18.906 2.27 1.162.045-14.038-2.27-1.163-.045 14.039ZM186.827 88.963l-.015 4.452 2.271 1.163.014-4.452-2.27-1.163Zm-8.921-.111 2.271 1.163.014-4.451-2.27-1.164-.015 4.452Zm.032-9.127 2.271 1.163.032-10.297-2.27-1.163-.033 10.297Zm8.847 22.765 2.27 1.163.014-4.445-2.27-1.163-.014 4.445Zm-5.941 17.03 2.27 1.163.141-43.905-2.271-1.163-.14 43.905Zm-.11 35.405 2.271 1.162.094-29.379-2.27-1.163-.095 29.38Zm3.047-33.901 2.271 1.164.063-20.043-2.27-1.163-.064 20.042Zm-.058 17.905 2.27 1.163.042-13.118-2.27-1.163-.042 13.118Zm-5.957-5.908 2.27 1.163.108-33.641-2.271-1.162-.107 33.64Zm8.875 14.342 2.27 1.162.048-15.005-2.27-1.163-.048 15.006Zm.082-25.265 2.27 1.163.028-8.628-2.27-1.162-.028 8.627Zm174.987 36.509-.015 4.452 2.271 1.163.014-4.451-2.27-1.164Zm-9.155 72.87 2.27 1.163.014-4.452-2.27-1.163-.014 4.452Zm9.109-58.831 2.27 1.163.014-4.445-2.27-1.163-.014 4.445Zm-6.047 50.849 2.27 1.163.237-73.981-2.271-1.163-.236 73.981Zm2.969-9.162 2.27 1.163.153-47.64-2.271-1.163-.152 47.64Zm-5.859-36.63 2.27 1.163.029-8.936-2.271-1.162-.028 8.935Zm-.063 20.105 2.27 1.163.048-15.005-2.27-1.163-.048 15.005Zm-.062 18.703 2.27 1.163.048-15.005-2.271-1.163-.047 15.005Zm8.937-4.426 2.27 1.164.048-15.006-2.27-1.163-.048 15.005Zm.078-24.719 2.27 1.162.029-8.989-2.27-1.162-.029 8.989ZM261.124 43.549l-.015 4.445 2.271 1.163.014-4.445-2.27-1.163Zm-9.046 41.553 2.27 1.163.015-4.452-2.271-1.163-.014 4.452Zm-.031 9.715 2.27 1.163.015-4.452-2.271-1.163-.014 4.452Zm3.07-12.617 2.27 1.164.131-40.992-2.27-1.163-.131 40.992Zm2.988-13.63 2.271 1.162.061-19.286-2.27-1.163-.062 19.286Zm-.066 20.38 2.27 1.162.05-15.334-2.271-1.163-.049 15.334Zm-5.851-38.25 2.27 1.163.028-8.937-2.271-1.162-.027 8.935Zm-.063 19.277 2.271 1.164.028-8.937-2.27-1.163-.029 8.936Zm8.805 34.358 2.27 1.162.077-23.816-2.272-1.163-.075 23.817Zm.093-29.219 2.271 1.163.061-19.18-2.27-1.163-.062 19.18Z"/>
    <path fill="#fff" d="m324.375 104.028 2.27 1.163.159-49.698-2.27-1.163-.159 49.698Zm-.027 8.719 2.27 1.162.014-4.451-2.27-1.163-.014 4.452Zm-3.012-5.817 2.27 1.163.015-4.452-2.271-1.162-.014 4.451Zm8.887 8.829 2.27 1.163.014-4.452-2.271-1.163-.013 4.452Zm.17-53.605-.014 4.445 2.271 1.163.014-4.444-2.271-1.164Zm-3.057 37.436 2.27 1.164.09-28.078-2.271-1.162-.089 28.077Zm-5.969-3.057 2.271 1.163.09-28.078-2.271-1.163-.09 28.078Zm8.961-14.347 2.27 1.164.03-9.173-2.27-1.163-.03 9.172Zm-.058 18.906 2.27 1.162.045-14.038-2.27-1.163-.045 14.039ZM186.827 88.963l-.015 4.452 2.271 1.163.014-4.452-2.27-1.163Zm-8.921-.111 2.271 1.163.014-4.451-2.27-1.164-.015 4.452Zm.032-9.127 2.271 1.163.032-10.297-2.27-1.163-.033 10.297Zm8.847 22.765 2.27 1.163.014-4.445-2.27-1.163-.014 4.445Zm-5.941 17.03 2.27 1.163.141-43.905-2.271-1.163-.14 43.905Zm-.11 35.405 2.271 1.162.094-29.379-2.27-1.163-.095 29.38Zm3.047-33.901 2.271 1.164.063-20.043-2.27-1.163-.064 20.042Zm-.058 17.905 2.27 1.163.042-13.118-2.27-1.163-.042 13.118Zm-5.957-5.908 2.27 1.163.108-33.641-2.271-1.162-.107 33.64Zm8.875 14.342 2.27 1.162.048-15.005-2.27-1.163-.048 15.006Zm.082-25.265 2.27 1.163.028-8.628-2.27-1.162-.028 8.627Zm174.987 36.509-.015 4.452 2.271 1.163.014-4.451-2.27-1.164Zm-9.155 72.87 2.27 1.163.014-4.452-2.27-1.163-.014 4.452Zm9.109-58.831 2.27 1.163.014-4.445-2.27-1.163-.014 4.445Zm-6.047 50.849 2.27 1.163.237-73.981-2.271-1.163-.236 73.981Zm2.969-9.162 2.27 1.163.153-47.64-2.271-1.163-.152 47.64Zm-5.859-36.63 2.27 1.163.029-8.936-2.271-1.162-.028 8.935Zm-.063 20.105 2.27 1.163.048-15.005-2.27-1.163-.048 15.005Zm-.062 18.703 2.27 1.163.048-15.005-2.271-1.163-.047 15.005Zm8.937-4.426 2.27 1.164.048-15.006-2.27-1.163-.048 15.005Zm.078-24.719 2.27 1.162.029-8.989-2.27-1.162-.029 8.989ZM261.124 43.549l-.015 4.445 2.271 1.163.014-4.445-2.27-1.163Zm-9.046 41.553 2.27 1.163.015-4.452-2.271-1.163-.014 4.452Zm-.031 9.715 2.27 1.163.015-4.452-2.271-1.163-.014 4.452Zm3.07-12.617 2.27 1.164.131-40.992-2.27-1.163-.131 40.992Zm2.988-13.63 2.271 1.162.061-19.286-2.27-1.163-.062 19.286Zm-.066 20.38 2.27 1.162.05-15.334-2.271-1.163-.049 15.334Zm-5.851-38.25 2.27 1.163.028-8.937-2.271-1.162-.027 8.935Zm-.063 19.277 2.271 1.164.028-8.937-2.27-1.163-.029 8.936Zm8.805 34.358 2.27 1.162.077-23.816-2.272-1.163-.075 23.817Zm.093-29.219 2.271 1.163.061-19.18-2.27-1.163-.062 19.18Z" opacity=".5"/>
    <path fill="#E86B31" d="m42.873 84.81.154 48.035-2.193 1.124-.154-48.035 2.193-1.123Zm.165 52.169.013 4.292-2.193 1.124-.014-4.293 2.194-1.123Zm2.917-5.633.014 4.302-2.194 1.124-.013-4.303 2.193-1.123Zm-8.593 8.539.014 4.292-2.194 1.124-.014-4.293 2.194-1.123Zm-.152-47.512.013 4.293-2.194 1.123-.013-4.292 2.193-1.124Zm2.878 9.043.087 27.14-2.194 1.123-.087-27.139 2.194-1.124Zm5.762-2.953.087 27.14-2.194 1.123-.087-27.14 2.194-1.123Zm-8.61 4.41.03 8.87-2.194 1.123-.03-8.869 2.195-1.124Zm.047 13.57.044 13.571-2.194 1.123-.043-13.57 2.193-1.124Zm82.805 30.028.014 4.293-2.193 1.124-.015-4.293 2.194-1.124Zm8.61-4.407.013 4.293-2.193 1.124-.014-4.293 2.194-1.124Zm-.047-14.48.032 9.959-2.194 1.124-.032-9.959 2.194-1.124Zm-8.532 27.664.015 4.293-2.194 1.124-.014-4.293 2.193-1.124Zm5.627-21.687.136 42.434-2.203 1.128-.136-42.434 2.203-1.128Zm.156 48.261.091 28.4-2.203 1.129-.091-28.4 2.203-1.129Zm-2.927-23.738.062 19.369-2.194 1.124-.062-19.369 2.194-1.124Zm.074 24 .041 12.68-2.194 1.123-.041-12.679 2.194-1.124Zm5.695-25.551.104 32.523-2.193 1.123-.104-32.522 2.193-1.124Zm-8.523 31.871.046 14.508-2.193 1.124-.047-14.508 2.194-1.124Zm-.055-18.25.027 8.339-2.193 1.124-.027-8.339 2.193-1.124Zm-58.742 11.121.014 4.294-2.194 1.123-.014-4.293 2.194-1.124Zm8.832 66.133.014 4.302-2.194 1.124-.014-4.302 2.194-1.124Zm-8.8-56.863.013 4.302-2.194 1.124-.013-4.302 2.193-1.124Zm5.628-18.063.229 71.517-2.194 1.123-.229-71.516 2.194-1.124Zm-2.784 16.606.148 46.054-2.204 1.128-.146-46.054 2.202-1.128Zm5.776 2.004.028 8.642-2.194 1.124-.027-8.643 2.193-1.123Zm.043 13.57.047 14.508-2.194 1.123-.046-14.507 2.193-1.124Zm.059 18.078.046 14.499-2.193 1.123-.047-14.498 2.194-1.124Zm-8.637-4.281.047 14.508-2.194 1.123-.046-14.507 2.193-1.124Zm-.055-18.078.029 8.69-2.194 1.123-.028-8.69 2.194-1.123ZM110.827 36.85l.013 4.292-2.194 1.124-.013-4.293 2.194-1.123Zm8.734 35.863.014 4.293-2.193 1.123-.015-4.293 2.194-1.123Zm.031 9.383.014 4.301-2.194 1.124-.014-4.302 2.194-1.123Zm-3.082-47.512.126 39.629-2.194 1.124-.126-39.63 2.194-1.123Zm-2.816 7.801.06 18.64-2.194 1.124-.06-18.64 2.194-1.124Zm.074 23.519.047 14.82-2.194 1.124-.047-14.82 2.194-1.124Zm5.676-30.781.027 8.633-2.194 1.123-.027-8.632 2.194-1.124Zm.054 18.629.028 8.642-2.193 1.124-.028-8.642 2.193-1.124Zm-8.558 18.832.073 23.018-2.193 1.123-.074-23.017 2.194-1.124Zm-.074-23.766.059 18.545-2.194 1.124-.059-18.545 2.194-1.124Z"/>
    <path fill="#fff" d="m42.873 84.81.154 48.035-2.193 1.124-.154-48.035 2.193-1.123Zm.165 52.169.013 4.292-2.193 1.124-.014-4.293 2.194-1.123Zm2.917-5.633.014 4.302-2.194 1.124-.013-4.303 2.193-1.123Zm-8.593 8.539.014 4.292-2.194 1.124-.014-4.293 2.194-1.123Zm-.152-47.512.013 4.293-2.194 1.123-.013-4.292 2.193-1.124Zm2.878 9.043.087 27.14-2.194 1.123-.087-27.139 2.194-1.124Zm5.762-2.953.087 27.14-2.194 1.123-.087-27.14 2.194-1.123Zm-8.61 4.41.03 8.87-2.194 1.123-.03-8.869 2.195-1.124Zm.047 13.57.044 13.571-2.194 1.123-.043-13.57 2.193-1.124Zm82.805 30.028.014 4.293-2.193 1.124-.015-4.293 2.194-1.124Zm8.61-4.407.013 4.293-2.193 1.124-.014-4.293 2.194-1.124Zm-.047-14.48.032 9.959-2.194 1.124-.032-9.959 2.194-1.124Zm-8.532 27.664.015 4.293-2.194 1.124-.014-4.293 2.193-1.124Zm5.627-21.687.136 42.434-2.203 1.128-.136-42.434 2.203-1.128Zm.156 48.261.091 28.4-2.203 1.129-.091-28.4 2.203-1.129Zm-2.927-23.738.062 19.369-2.194 1.124-.062-19.369 2.194-1.124Zm.074 24 .041 12.68-2.194 1.123-.041-12.679 2.194-1.124Zm5.695-25.551.104 32.523-2.193 1.123-.104-32.522 2.193-1.124Zm-8.523 31.871.046 14.508-2.193 1.124-.047-14.508 2.194-1.124Zm-.055-18.25.027 8.339-2.193 1.124-.027-8.339 2.193-1.124Zm-58.742 11.121.014 4.294-2.194 1.123-.014-4.293 2.194-1.124Zm8.832 66.133.014 4.302-2.194 1.124-.014-4.302 2.194-1.124Zm-8.8-56.863.013 4.302-2.194 1.124-.013-4.302 2.193-1.124Zm5.628-18.063.229 71.517-2.194 1.123-.229-71.516 2.194-1.124Zm-2.784 16.606.148 46.054-2.204 1.128-.146-46.054 2.202-1.128Zm5.776 2.004.028 8.642-2.194 1.124-.027-8.643 2.193-1.123Zm.043 13.57.047 14.508-2.194 1.123-.046-14.507 2.193-1.124Zm.059 18.078.046 14.499-2.193 1.123-.047-14.498 2.194-1.124Zm-8.637-4.281.047 14.508-2.194 1.123-.046-14.507 2.193-1.124Zm-.055-18.078.029 8.69-2.194 1.123-.028-8.69 2.194-1.123ZM110.827 36.85l.013 4.292-2.194 1.124-.013-4.293 2.194-1.123Zm8.734 35.863.014 4.293-2.193 1.123-.015-4.293 2.194-1.123Zm.031 9.383.014 4.301-2.194 1.124-.014-4.302 2.194-1.123Zm-3.082-47.512.126 39.629-2.194 1.124-.126-39.63 2.194-1.123Zm-2.816 7.801.06 18.64-2.194 1.124-.06-18.64 2.194-1.124Zm.074 23.519.047 14.82-2.194 1.124-.047-14.82 2.194-1.124Zm5.676-30.781.027 8.633-2.194 1.123-.027-8.632 2.194-1.124Zm.054 18.629.028 8.642-2.193 1.124-.028-8.642 2.193-1.124Zm-8.558 18.832.073 23.018-2.193 1.123-.074-23.017 2.194-1.124Zm-.074-23.766.059 18.545-2.194 1.124-.059-18.545 2.194-1.124Z" opacity=".5"/>
  </g>
  <path fill="#E0E0E0" d="M191.392 51.118c.316.162.565.544.563.865l-.004 1.154c-.001.317-.251.449-.567.287-.311-.16-.565-.55-.564-.866l.004-1.154c.001-.321.257-.445.568-.286Zm-.017 4.499c.316.162.565.55.564.867l-.007 2.228c-.001.322-.252.449-.568.286-.31-.159-.565-.544-.563-.865l.007-2.228c.001-.318.257-.447.567-.288Zm-.015 5.574c.316.162.565.55.563.872l-.007 2.228c-.001.316-.251.449-.567.287-.311-.16-.565-.55-.564-.867l.007-2.228c.001-.322.257-.451.568-.292Zm-.02 5.579c.316.162.565.549.564.866l-.008 2.228c0 .322-.251.454-.567.292-.31-.159-.565-.549-.563-.871l.007-2.228c.001-.317.257-.447.567-.288Zm-.015 5.57c.316.162.565.549.563.871l-.007 2.228c-.001.317-.252.449-.568.287-.31-.16-.565-.55-.563-.866l.007-2.228c.001-.322.257-.452.568-.293Zm-.02 5.581c.316.162.565.55.563.867l-.007 2.234c-.001.317-.251.449-.567.286-.311-.159-.565-.549-.564-.866l.008-2.234c0-.316.256-.445.567-.287Zm-.019 5.576c.316.162.564.544.563.867l-.007 2.228c-.001.316-.252.448-.568.286-.31-.159-.565-.549-.563-.866l.007-2.228c.002-.322.257-.446.568-.287Zm-.016 5.573c.316.162.565.55.563.867l-.007 2.234c-.001.317-.251.448-.567.286-.311-.159-.565-.55-.564-.866l.008-2.233c0-.318.256-.447.567-.288Zm-.016 5.58c.316.161.565.544.564.865l-.008 2.228c0 .322-.251.449-.567.287-.311-.16-.565-.545-.563-.867l.007-2.228c.001-.32.256-.445.567-.286Zm-.023 5.572c.316.163.565.55.563.866l-.007 2.234c-.001.317-.251.449-.567.287-.311-.159-.565-.55-.564-.866l.007-2.234c.002-.316.257-.446.568-.287Zm-.016 5.583c.316.162.565.549.564.866l-.008 2.228c0 .322-.251.449-.567.287-.31-.159-.565-.544-.563-.866l.007-2.228c.001-.318.257-.447.567-.287Zm-.015 5.57c.316.162.565.549.563.866l-.007 2.234c-.001.316-.252.449-.568.287-.311-.16-.565-.55-.563-.866l.007-2.234c.001-.317.256-.446.568-.287Zm-.02 5.578c.316.162.565.549.563.866l-.007 2.228c-.001.322-.251.454-.567.292-.311-.159-.565-.549-.564-.871l.008-2.228c.001-.317.257-.446.567-.287Zm-.019 5.574c.316.162.564.549.563.872l-.007 2.228c-.001.316-.252.449-.568.286-.31-.159-.565-.549-.563-.865l.007-2.229c.001-.322.257-.451.568-.292Zm-.017 5.578c.316.162.565.549.564.867l-.007 2.233c-.001.318-.251.449-.567.287-.312-.159-.565-.549-.564-.867l.008-2.233c0-.317.255-.446.566-.287Zm-.018 5.579c.316.163.565.545.563.866l-.001.577.57.292c.311.159.565.55.564.866-.001.317-.257.446-.568.287l-1.136-.582c-.31-.16-.565-.55-.563-.867l.004-1.153c.001-.321.257-.445.567-.286Zm35.285 19.228c.316.162.57.552.569.869-.001.316-.257.446-.572.284l-2.273-1.164c-.316-.162-.569-.553-.569-.869.001-.317.257-.446.573-.285l2.272 1.165Zm-5.691-2.913c.31.159.565.549.563.866-.001.317-.257.446-.567.286l-2.278-1.166c-.31-.16-.565-.55-.563-.866.001-.317.257-.446.567-.287l2.278 1.167Zm-5.692-2.914c.311.16.565.55.564.867-.001.316-.257.446-.568.287l-2.277-1.167c-.316-.162-.565-.55-.563-.866 0-.317.251-.449.567-.287l2.277 1.166Zm-5.695-2.919c.316.162.57.552.569.868-.001.317-.257.446-.572.284l-2.273-1.164c-.316-.161-.57-.552-.569-.868.001-.317.257-.446.572-.284l2.273 1.164Zm-5.691-2.914c.316.162.565.549.563.867-.001.317-.251.448-.567.286l-2.278-1.166c-.31-.16-.565-.55-.563-.866.001-.318.257-.446.567-.287l2.278 1.166Zm-5.692-2.917c.312.16.565.55.564.866-.001.317-.257.446-.568.287l-2.277-1.167c-.311-.159-.565-.549-.564-.866.001-.318.257-.446.568-.287l2.277 1.167Zm33.01 16.909c.31.16.565.55.563.866-.001.317-.257.446-.567.287l-1.131-.579c-.316-.162-.565-.55-.563-.866.001-.317.251-.449.567-.287l1.131.579Z"/>
  <path fill="#000" d="M191.392 51.118c.316.162.565.544.563.865l-.004 1.154c-.001.317-.251.449-.567.287-.311-.16-.565-.55-.564-.866l.004-1.154c.001-.321.257-.445.568-.286Zm-.017 4.499c.316.162.565.55.564.867l-.007 2.228c-.001.322-.252.449-.568.286-.31-.159-.565-.544-.563-.865l.007-2.228c.001-.318.257-.447.567-.288Zm-.015 5.574c.316.162.565.55.563.872l-.007 2.228c-.001.316-.251.449-.567.287-.311-.16-.565-.55-.564-.867l.007-2.228c.001-.322.257-.451.568-.292Zm-.02 5.579c.316.162.565.549.564.866l-.008 2.228c0 .322-.251.454-.567.292-.31-.159-.565-.549-.563-.871l.007-2.228c.001-.317.257-.447.567-.288Zm-.015 5.57c.316.162.565.549.563.871l-.007 2.228c-.001.317-.252.449-.568.287-.31-.16-.565-.55-.563-.866l.007-2.228c.001-.322.257-.452.568-.293Zm-.02 5.581c.316.162.565.55.563.867l-.007 2.234c-.001.317-.251.449-.567.286-.311-.159-.565-.549-.564-.866l.008-2.234c0-.316.256-.445.567-.287Zm-.019 5.576c.316.162.564.544.563.867l-.007 2.228c-.001.316-.252.448-.568.286-.31-.159-.565-.549-.563-.866l.007-2.228c.002-.322.257-.446.568-.287Zm-.016 5.573c.316.162.565.55.563.867l-.007 2.234c-.001.317-.251.448-.567.286-.311-.159-.565-.55-.564-.866l.008-2.233c0-.318.256-.447.567-.288Zm-.016 5.58c.316.161.565.544.564.865l-.008 2.228c0 .322-.251.449-.567.287-.311-.16-.565-.545-.563-.867l.007-2.228c.001-.32.256-.445.567-.286Zm-.023 5.572c.316.163.565.55.563.866l-.007 2.234c-.001.317-.251.449-.567.287-.311-.159-.565-.55-.564-.866l.007-2.234c.002-.316.257-.446.568-.287Zm-.016 5.583c.316.162.565.549.564.866l-.008 2.228c0 .322-.251.449-.567.287-.31-.159-.565-.544-.563-.866l.007-2.228c.001-.318.257-.447.567-.287Zm-.015 5.57c.316.162.565.549.563.866l-.007 2.234c-.001.316-.252.449-.568.287-.311-.16-.565-.55-.563-.866l.007-2.234c.001-.317.256-.446.568-.287Zm-.02 5.578c.316.162.565.549.563.866l-.007 2.228c-.001.322-.251.454-.567.292-.311-.159-.565-.549-.564-.871l.008-2.228c.001-.317.257-.446.567-.287Zm-.019 5.574c.316.162.564.549.563.872l-.007 2.228c-.001.316-.252.449-.568.286-.31-.159-.565-.549-.563-.865l.007-2.229c.001-.322.257-.451.568-.292Zm-.017 5.578c.316.162.565.549.564.867l-.007 2.233c-.001.318-.251.449-.567.287-.312-.159-.565-.549-.564-.867l.008-2.233c0-.317.255-.446.566-.287Zm-.018 5.579c.316.163.565.545.563.866l-.001.577.57.292c.311.159.565.55.564.866-.001.317-.257.446-.568.287l-1.136-.582c-.31-.16-.565-.55-.563-.867l.004-1.153c.001-.321.257-.445.567-.286Zm35.285 19.228c.316.162.57.552.569.869-.001.316-.257.446-.572.284l-2.273-1.164c-.316-.162-.569-.553-.569-.869.001-.317.257-.446.573-.285l2.272 1.165Zm-5.691-2.913c.31.159.565.549.563.866-.001.317-.257.446-.567.286l-2.278-1.166c-.31-.16-.565-.55-.563-.866.001-.317.257-.446.567-.287l2.278 1.167Zm-5.692-2.914c.311.16.565.55.564.867-.001.316-.257.446-.568.287l-2.277-1.167c-.316-.162-.565-.55-.563-.866 0-.317.251-.449.567-.287l2.277 1.166Zm-5.695-2.919c.316.162.57.552.569.868-.001.317-.257.446-.572.284l-2.273-1.164c-.316-.161-.57-.552-.569-.868.001-.317.257-.446.572-.284l2.273 1.164Zm-5.691-2.914c.316.162.565.549.563.867-.001.317-.251.448-.567.286l-2.278-1.166c-.31-.16-.565-.55-.563-.866.001-.318.257-.446.567-.287l2.278 1.166Zm-5.692-2.917c.312.16.565.55.564.866-.001.317-.257.446-.568.287l-2.277-1.167c-.311-.159-.565-.549-.564-.866.001-.318.257-.446.568-.287l2.277 1.167Zm33.01 16.909c.31.16.565.55.563.866-.001.317-.257.446-.567.287l-1.131-.579c-.316-.162-.565-.55-.563-.866.001-.317.251-.449.567-.287l1.131.579Z" opacity=".3"/>
  <path fill="#E0E0E0" d="M269.322 148.87c.316.162.571.033.572-.284l.004-1.153c.001-.322-.253-.713-.569-.875-.31-.159-.566-.029-.567.292l-.004 1.153c0 .318.254.708.564.867Zm.055-17.506c.316.162.571.033.572-.284l.008-2.515c.001-.322-.253-.712-.569-.874-.311-.159-.567-.03-.568.293l-.007 2.514c-.001.317.252.707.564.866Zm-.02 6.293c.316.162.572.032.572-.29l.008-2.514c.001-.317-.253-.707-.569-.869-.31-.159-.566-.03-.567.287l-.008 2.514c0 .322.254.712.564.872Zm-.019 6.285c.316.162.571.032.572-.285l.008-2.514c.001-.322-.253-.707-.569-.869-.311-.159-.567-.035-.568.287l-.008 2.514c0 .317.254.707.565.867Zm1.206-20.591-1.137-.582c-.31-.159-.566-.029-.567.287l-.004 1.153c-.001.318.253.708.563.867.316.162.572.033.572-.285l.002-.576.566.29c.31.159.566.029.567-.287.002-.317-.252-.707-.562-.867Zm22.478 11.513-2.251-1.153c-.312-.16-.567-.03-.568.287-.001.316.253.707.564.866l2.251 1.153c.312.16.567.03.568-.286.001-.317-.253-.708-.564-.867Zm-5.621-2.879-2.252-1.153c-.31-.159-.566-.03-.567.287-.001.316.253.707.563.865l2.252 1.154c.311.159.567.03.568-.287.001-.316-.253-.707-.564-.866Zm-5.621-2.879-2.252-1.153c-.31-.159-.566-.03-.567.287-.001.316.253.707.563.866l2.252 1.153c.311.159.567.03.568-.287.001-.316-.253-.706-.564-.866Zm-5.617-2.875-2.252-1.153c-.31-.159-.566-.03-.567.287-.001.317.253.707.563.866l2.252 1.154c.311.159.567.029.567-.287.002-.317-.253-.707-.563-.867Zm20.225 11.514 1.131.579c.311.16.567.03.568-.286l.004-1.154c0-.322-.253-.707-.564-.866-.316-.162-.566-.036-.567.286l-.002.577-.565-.29c-.317-.162-.572-.032-.573.285-.002.317.252.708.568.869Zm1.183-15.152c.311.16.567.036.568-.287l.007-2.238c.001-.322-.253-.712-.564-.872-.316-.162-.566-.029-.567.293l-.007 2.238c-.001.322.248.704.563.866Zm-.019 5.61c.311.159.567.029.568-.287l.007-2.244c.001-.317-.253-.707-.564-.866-.316-.162-.567-.03-.568.287l-.007 2.243c-.001.317.248.705.564.867Zm-.02 5.605c.311.16.567.03.568-.287l.007-2.243c0-.317-.253-.707-.564-.867-.316-.162-.566-.029-.567.287l-.007 2.244c-.001.317.247.704.563.866Zm.059-16.82c.31.159.566.029.567-.287l.004-1.153c.001-.322-.253-.708-.563-.866-.316-.162-.567-.036-.568.287l-.004 1.153c-.001.316.248.704.564.866Zm-27.436 36.493-1.131-.579c-.31-.159-.566-.03-.567.287-.001.317.253.707.563.866l1.132.579c.316.162.567.03.567-.287.001-.316-.248-.704-.564-.866Zm22.224 11.384-2.222-1.137c-.316-.162-.566-.03-.567.286-.001.317.247.705.563.866l2.222 1.138c.31.159.566.03.567-.287.002-.316-.252-.706-.563-.866Zm-5.554-2.842-2.226-1.14c-.311-.16-.567-.03-.568.286-.001.318.253.708.564.867l2.226 1.141c.31.159.567.029.567-.287.002-.317-.253-.707-.563-.867Zm-5.556-2.85-2.221-1.138c-.311-.159-.567-.03-.568.287 0 .316.253.707.564.866l2.221 1.137c.311.16.567.03.568-.286.001-.317-.252-.707-.564-.866Zm-5.553-2.845-2.227-1.141c-.31-.159-.566-.029-.567.287-.001.317.253.707.563.866l2.227 1.141c.31.159.566.029.567-.287.002-.317-.253-.707-.563-.866Zm19.995 11.399.566.29-.002.576c-.001.322.253.708.569.869.311.159.567.035.568-.287l.004-1.153c0-.317-.253-.707-.564-.866l-1.136-.582c-.311-.159-.567-.03-.568.287-.001.317.253.707.563.866Zm1.111 7.586c.311.16.567.03.567-.286l.008-2.343c0-.317-.253-.707-.564-.866-.316-.162-.571-.032-.572.284l-.007 2.343c-.002.316.252.706.568.868Zm.556 3.228c.001-.322-.253-.707-.564-.867-.316-.162-.572-.037-.572.285l-.008 2.337c0 .322.253.707.569.869.311.159.567.035.568-.287l.002-.653 1.057.541c.31.16.566.03.567-.286.001-.323-.253-.708-.563-.866l-1.057-.542.001-.531Zm-.017 5.847c.001-.317-.252-.708-.563-.867-.316-.162-.571-.032-.572.284l-.007 2.343c-.001.316.253.707.569.869.31.159.566.029.567-.287l.006-2.342Zm-.019 5.852c.001-.322-.253-.707-.563-.867-.316-.161-.572-.037-.573.284l-.007 2.338c-.001.322.253.707.569.869.311.159.567.035.568-.287l.006-2.337Zm-.583 4.984c-.316-.161-.571-.033-.572.285l-.007 2.342c-.001.318.253.708.569.869.31.159.566.03.567-.287l.007-2.342c.001-.318-.253-.708-.564-.867Zm-.039 11.703c-.316-.161-.571-.032-.572.285l-.007 2.343c-.001.316.253.707.569.868.31.16.566.03.567-.287l.007-2.342c.001-.317-.253-.708-.564-.867Zm-.017 5.853c-.316-.162-.571-.038-.572.284l-.002.576-.566-.289c-.31-.16-.566-.03-.567.286-.001.317.253.708.563.867l1.137.582c.31.159.566.03.567-.287l.004-1.153c.001-.322-.254-.707-.564-.866Zm-4.473-1.133-2.221-1.138c-.316-.162-.567-.03-.568.287 0 .317.248.704.564.866l2.221 1.137c.311.16.567.03.568-.286.001-.317-.253-.707-.564-.866Zm-5.553-2.846-2.227-1.141c-.31-.159-.566-.03-.567.287-.001.316.253.707.563.866l2.227 1.14c.31.16.566.03.567-.287.001-.316-.253-.706-.563-.865Zm-5.56-2.847-2.221-1.138c-.311-.159-.567-.029-.568.287-.001.317.253.707.564.866l2.221 1.138c.316.161.567.029.568-.287.001-.317-.248-.704-.564-.866Zm-5.55-2.845-2.226-1.14c-.311-.16-.567-.03-.568.286 0 .318.253.708.564.866l2.226 1.141c.311.159.567.03.568-.287 0-.316-.253-.707-.564-.866Zm-5.56-2.846-1.131-.58c-.31-.159-.567-.029-.567.287-.001.317.253.707.563.867l1.131.579c.316.162.566.03.567-.287.002-.317-.247-.705-.563-.866Zm37.131-15.037 2.175 1.114c.31.159.567.03.567-.287.001-.322-.253-.707-.563-.866l-2.175-1.115c-.316-.162-.567-.035-.568.287-.001.317.248.705.564.867Zm-5.442-2.789 2.176 1.114c.31.159.566.03.567-.287.001-.322-.253-.707-.563-.866l-2.176-1.115c-.316-.162-.566-.035-.567.287-.002.317.247.705.563.867Zm10.884 5.574 1.131.58c.31.159.566.029.567-.287.001-.322-.253-.707-.563-.867l-1.131-.579c-.316-.162-.571-.037-.572.284-.002.317.252.707.568.869Zm-14.011 15.19-1.131-.579c-.047-.024-.09-.03-.134-.041l.003-.634c.001-.323-.253-.708-.564-.866-.316-.162-.571-.038-.572.284l-.007 2.337c-.001.322.253.707.569.868.31.16.567.036.567-.286l.002-.605c.044.033.086.072.134.096l1.131.579c.31.159.566.035.567-.287 0-.316-.254-.707-.565-.866Zm21.789 11.159-2.181-1.117c-.316-.162-.567-.029-.568.287 0 .322.249.704.564.866l2.181 1.117c.31.159.566.036.567-.287.002-.316-.252-.706-.563-.866Zm-5.451-2.791-2.176-1.115c-.316-.162-.566-.03-.567.287-.001.322.248.704.563.867l2.176 1.114c.316.161.566.035.567-.287.001-.317-.247-.705-.563-.866Zm-5.448-2.788-2.181-1.117c-.31-.159-.566-.03-.567.287-.001.322.253.707.563.866l2.181 1.117c.316.163.567.036.568-.286 0-.317-.249-.705-.564-.867Zm-5.445-2.793-2.181-1.117c-.31-.159-.567-.03-.567.287-.001.322.253.707.563.866l2.181 1.118c.311.159.567.035.567-.287.002-.317-.252-.707-.563-.867Zm20.739 10.626-1.131-.579c-.31-.159-.567-.03-.567.287-.001.322.253.707.563.866l.566.29-.002.576c-.001.322.253.712.564.872.316.162.567.029.568-.292l.004-1.153c0-.317-.249-.705-.565-.867Zm-.014 4.718c-.31-.159-.566-.03-.567.287l-.008 2.374c-.001.316.253.707.564.865.316.163.567.03.568-.286l.007-2.374c.001-.317-.248-.705-.564-.866Zm-.016 5.934c-.31-.159-.567-.035-.567.287l-.008 2.374c0 .317.253.707.564.867.316.161.566.029.567-.287l.007-2.374c.001-.322-.248-.704-.563-.867Zm-.019 5.933c-.311-.159-.566-.03-.567.287l-.004 1.153c-.001.322.253.712.563.872.316.161.567.029.568-.293l.004-1.153c.001-.317-.248-.705-.564-.866Z"/>
  <path fill="#000" d="M269.322 148.87c.316.162.571.033.572-.284l.004-1.153c.001-.322-.253-.713-.569-.875-.31-.159-.566-.029-.567.292l-.004 1.153c0 .318.254.708.564.867Zm.055-17.506c.316.162.571.033.572-.284l.008-2.515c.001-.322-.253-.712-.569-.874-.311-.159-.567-.03-.568.293l-.007 2.514c-.001.317.252.707.564.866Zm-.02 6.293c.316.162.572.032.572-.29l.008-2.514c.001-.317-.253-.707-.569-.869-.31-.159-.566-.03-.567.287l-.008 2.514c0 .322.254.712.564.872Zm-.019 6.285c.316.162.571.032.572-.285l.008-2.514c.001-.322-.253-.707-.569-.869-.311-.159-.567-.035-.568.287l-.008 2.514c0 .317.254.707.565.867Zm1.206-20.591-1.137-.582c-.31-.159-.566-.029-.567.287l-.004 1.153c-.001.318.253.708.563.867.316.162.572.033.572-.285l.002-.576.566.29c.31.159.566.029.567-.287.002-.317-.252-.707-.562-.867Zm22.478 11.513-2.251-1.153c-.312-.16-.567-.03-.568.287-.001.316.253.707.564.866l2.251 1.153c.312.16.567.03.568-.286.001-.317-.253-.708-.564-.867Zm-5.621-2.879-2.252-1.153c-.31-.159-.566-.03-.567.287-.001.316.253.707.563.865l2.252 1.154c.311.159.567.03.568-.287.001-.316-.253-.707-.564-.866Zm-5.621-2.879-2.252-1.153c-.31-.159-.566-.03-.567.287-.001.316.253.707.563.866l2.252 1.153c.311.159.567.03.568-.287.001-.316-.253-.706-.564-.866Zm-5.617-2.875-2.252-1.153c-.31-.159-.566-.03-.567.287-.001.317.253.707.563.866l2.252 1.154c.311.159.567.029.567-.287.002-.317-.253-.707-.563-.867Zm20.225 11.514 1.131.579c.311.16.567.03.568-.286l.004-1.154c0-.322-.253-.707-.564-.866-.316-.162-.566-.036-.567.286l-.002.577-.565-.29c-.317-.162-.572-.032-.573.285-.002.317.252.708.568.869Zm1.183-15.152c.311.16.567.036.568-.287l.007-2.238c.001-.322-.253-.712-.564-.872-.316-.162-.566-.029-.567.293l-.007 2.238c-.001.322.248.704.563.866Zm-.019 5.61c.311.159.567.029.568-.287l.007-2.244c.001-.317-.253-.707-.564-.866-.316-.162-.567-.03-.568.287l-.007 2.243c-.001.317.248.705.564.867Zm-.02 5.605c.311.16.567.03.568-.287l.007-2.243c0-.317-.253-.707-.564-.867-.316-.162-.566-.029-.567.287l-.007 2.244c-.001.317.247.704.563.866Zm.059-16.82c.31.159.566.029.567-.287l.004-1.153c.001-.322-.253-.708-.563-.866-.316-.162-.567-.036-.568.287l-.004 1.153c-.001.316.248.704.564.866Zm-27.436 36.493-1.131-.579c-.31-.159-.566-.03-.567.287-.001.317.253.707.563.866l1.132.579c.316.162.567.03.567-.287.001-.316-.248-.704-.564-.866Zm22.224 11.384-2.222-1.137c-.316-.162-.566-.03-.567.286-.001.317.247.705.563.866l2.222 1.138c.31.159.566.03.567-.287.002-.316-.252-.706-.563-.866Zm-5.554-2.842-2.226-1.14c-.311-.16-.567-.03-.568.286-.001.318.253.708.564.867l2.226 1.141c.31.159.567.029.567-.287.002-.317-.253-.707-.563-.867Zm-5.556-2.85-2.221-1.138c-.311-.159-.567-.03-.568.287 0 .316.253.707.564.866l2.221 1.137c.311.16.567.03.568-.286.001-.317-.252-.707-.564-.866Zm-5.553-2.845-2.227-1.141c-.31-.159-.566-.029-.567.287-.001.317.253.707.563.866l2.227 1.141c.31.159.566.029.567-.287.002-.317-.253-.707-.563-.866Zm19.995 11.399.566.29-.002.576c-.001.322.253.708.569.869.311.159.567.035.568-.287l.004-1.153c0-.317-.253-.707-.564-.866l-1.136-.582c-.311-.159-.567-.03-.568.287-.001.317.253.707.563.866Zm1.111 7.586c.311.16.567.03.567-.286l.008-2.343c0-.317-.253-.707-.564-.866-.316-.162-.571-.032-.572.284l-.007 2.343c-.002.316.252.706.568.868Zm.556 3.228c.001-.322-.253-.707-.564-.867-.316-.162-.572-.037-.572.285l-.008 2.337c0 .322.253.707.569.869.311.159.567.035.568-.287l.002-.653 1.057.541c.31.16.566.03.567-.286.001-.323-.253-.708-.563-.866l-1.057-.542.001-.531Zm-.017 5.847c.001-.317-.252-.708-.563-.867-.316-.162-.571-.032-.572.284l-.007 2.343c-.001.316.253.707.569.869.31.159.566.029.567-.287l.006-2.342Zm-.019 5.852c.001-.322-.253-.707-.563-.867-.316-.161-.572-.037-.573.284l-.007 2.338c-.001.322.253.707.569.869.311.159.567.035.568-.287l.006-2.337Zm-.583 4.984c-.316-.161-.571-.033-.572.285l-.007 2.342c-.001.318.253.708.569.869.31.159.566.03.567-.287l.007-2.342c.001-.318-.253-.708-.564-.867Zm-.039 11.703c-.316-.161-.571-.032-.572.285l-.007 2.343c-.001.316.253.707.569.868.31.16.566.03.567-.287l.007-2.342c.001-.317-.253-.708-.564-.867Zm-.017 5.853c-.316-.162-.571-.038-.572.284l-.002.576-.566-.289c-.31-.16-.566-.03-.567.286-.001.317.253.708.563.867l1.137.582c.31.159.566.03.567-.287l.004-1.153c.001-.322-.254-.707-.564-.866Zm-4.473-1.133-2.221-1.138c-.316-.162-.567-.03-.568.287 0 .317.248.704.564.866l2.221 1.137c.311.16.567.03.568-.286.001-.317-.253-.707-.564-.866Zm-5.553-2.846-2.227-1.141c-.31-.159-.566-.03-.567.287-.001.316.253.707.563.866l2.227 1.14c.31.16.566.03.567-.287.001-.316-.253-.706-.563-.865Zm-5.56-2.847-2.221-1.138c-.311-.159-.567-.029-.568.287-.001.317.253.707.564.866l2.221 1.138c.316.161.567.029.568-.287.001-.317-.248-.704-.564-.866Zm-5.55-2.845-2.226-1.14c-.311-.16-.567-.03-.568.286 0 .318.253.708.564.866l2.226 1.141c.311.159.567.03.568-.287 0-.316-.253-.707-.564-.866Zm-5.56-2.846-1.131-.58c-.31-.159-.567-.029-.567.287-.001.317.253.707.563.867l1.131.579c.316.162.566.03.567-.287.002-.317-.247-.705-.563-.866Zm37.131-15.037 2.175 1.114c.31.159.567.03.567-.287.001-.322-.253-.707-.563-.866l-2.175-1.115c-.316-.162-.567-.035-.568.287-.001.317.248.705.564.867Zm-5.442-2.789 2.176 1.114c.31.159.566.03.567-.287.001-.322-.253-.707-.563-.866l-2.176-1.115c-.316-.162-.566-.035-.567.287-.002.317.247.705.563.867Zm10.884 5.574 1.131.58c.31.159.566.029.567-.287.001-.322-.253-.707-.563-.867l-1.131-.579c-.316-.162-.571-.037-.572.284-.002.317.252.707.568.869Zm-14.011 15.19-1.131-.579c-.047-.024-.09-.03-.134-.041l.003-.634c.001-.323-.253-.708-.564-.866-.316-.162-.571-.038-.572.284l-.007 2.337c-.001.322.253.707.569.868.31.16.567.036.567-.286l.002-.605c.044.033.086.072.134.096l1.131.579c.31.159.566.035.567-.287 0-.316-.254-.707-.565-.866Zm21.789 11.159-2.181-1.117c-.316-.162-.567-.029-.568.287 0 .322.249.704.564.866l2.181 1.117c.31.159.566.036.567-.287.002-.316-.252-.706-.563-.866Zm-5.451-2.791-2.176-1.115c-.316-.162-.566-.03-.567.287-.001.322.248.704.563.867l2.176 1.114c.316.161.566.035.567-.287.001-.317-.247-.705-.563-.866Zm-5.448-2.788-2.181-1.117c-.31-.159-.566-.03-.567.287-.001.322.253.707.563.866l2.181 1.117c.316.163.567.036.568-.286 0-.317-.249-.705-.564-.867Zm-5.445-2.793-2.181-1.117c-.31-.159-.567-.03-.567.287-.001.322.253.707.563.866l2.181 1.118c.311.159.567.035.567-.287.002-.317-.252-.707-.563-.867Zm20.739 10.626-1.131-.579c-.31-.159-.567-.03-.567.287-.001.322.253.707.563.866l.566.29-.002.576c-.001.322.253.712.564.872.316.162.567.029.568-.292l.004-1.153c0-.317-.249-.705-.565-.867Zm-.014 4.718c-.31-.159-.566-.03-.567.287l-.008 2.374c-.001.316.253.707.564.865.316.163.567.03.568-.286l.007-2.374c.001-.317-.248-.705-.564-.866Zm-.016 5.934c-.31-.159-.567-.035-.567.287l-.008 2.374c0 .317.253.707.564.867.316.161.566.029.567-.287l.007-2.374c.001-.322-.248-.704-.563-.867Zm-.019 5.933c-.311-.159-.566-.03-.567.287l-.004 1.153c-.001.322.253.712.563.872.316.161.567.029.568-.293l.004-1.153c.001-.317-.248-.705-.564-.866Z" opacity=".3"/>
  <path fill="#5E1F72" d="m350.979 173.951-32.146-16.615c-1.505-.771-2.864-.828-3.838-.302v-.005l-3.87 2.011c.968-.488 2.302-.413 3.772.34l32.146 16.615c2.946 1.51 5.325 5.165 5.315 8.166l-.249 31.075c-.004 1.434-.557 2.454-1.449 2.969v.007l3.76-1.955.111-.058.094-.049-.009-.002c.88-.52 1.424-1.534 1.428-2.957l.249-31.075c.011-3-2.368-6.656-5.314-8.165Z"/>
  <path fill="#5E1F72" d="m350.979 173.951-32.146-16.615c-1.505-.771-2.864-.828-3.838-.302v-.005l-3.87 2.011c.968-.488 2.302-.413 3.772.34l32.146 16.615c2.946 1.51 5.325 5.165 5.315 8.166l-.249 31.075c-.004 1.434-.557 2.454-1.449 2.969v.007l3.76-1.955.111-.058.094-.049-.009-.002c.88-.52 1.424-1.534 1.428-2.957l.249-31.075c.011-3-2.368-6.656-5.314-8.165Z" opacity=".4"/>
  <path fill="#455A64" d="m311.09 159.059.001.002c.009-.005.017-.012.027-.016l-.028.014Z"/>
  <path fill="#5D1F72" fill-opacity=".61" d="m352.109 215.237.249-31.075c.009-3.001-2.369-6.656-5.316-8.165l-32.146-16.616c-1.469-.753-2.804-.828-3.772-.34l-.006.003c-.01.005-.017.012-.026.016-.951.495-1.541 1.539-1.546 3.023l-.249 31.075c-.01 3.003 2.372 6.661 5.315 8.168l32.146 16.615c1.54.789 2.924.829 3.901.264.893-.515 1.445-1.534 1.45-2.968Z"/>
  <path fill="#5D1F72" d="m350.979 173.951-32.146-16.615c-1.505-.771-2.864-.828-3.838-.302v-.005l-3.87 2.011c.968-.488 2.302-.413 3.772.34l32.146 16.615c2.946 1.51 5.325 5.165 5.315 8.166l-.249 31.075c-.004 1.434-.557 2.454-1.449 2.969v.007l3.76-1.955.111-.058.094-.049-.009-.002c.88-.52 1.424-1.534 1.428-2.957l.249-31.075c.011-3-2.368-6.656-5.314-8.165Z"/>
  <path fill="#fff" d="m338.625 189.569 2.777 1.422-.055 17.203-21.093-10.804.055-17.203 2.771 1.419.012-4.091c.014-4.372 3.512-6.141 7.802-3.944 4.283 2.194 7.759 7.535 7.745 11.907l-.014 4.091Zm-3.009-1.541.013-4.091c.009-2.676-2.121-5.948-4.746-7.293-2.624-1.344-4.768-.26-4.776 2.415l-.013 4.091 9.522 4.878Zm-3.149 11.415-.633-5.717c.749.002 1.272-.512 1.275-1.418.004-1.283-1.012-2.838-2.265-3.48-1.258-.644-2.275-.13-2.279 1.153-.003.918.52 1.972 1.278 2.737l-.662 5.043 3.286 1.682Z" opacity=".7"/>
  <path fill="#E86B31" d="m341.33 99.54-54.799-28.285c-1.561-.8-2.971-.86-3.981-.313v-.005l-4.015 2.085c1.005-.505 2.389-.427 3.914.354l54.798 28.284c3.057 1.566 5.525 5.359 5.514 8.471l-.258 32.238c-.005 1.488-.578 2.545-1.504 3.08v.008l3.901-2.029a3.2 3.2 0 0 0 .116-.06l.096-.05-.008-.003c.912-.539 1.477-1.591 1.481-3.067l.259-32.238c.01-3.113-2.457-6.905-5.514-8.47Z"/>
  <path fill="#000" d="m341.33 99.54-54.799-28.285c-1.561-.8-2.971-.86-3.981-.313v-.005l-4.015 2.085c1.005-.505 2.389-.427 3.914.354l54.798 28.284c3.057 1.566 5.525 5.359 5.514 8.471l-.258 32.238c-.005 1.488-.578 2.545-1.504 3.08v.008l3.901-2.029a3.2 3.2 0 0 0 .116-.06l.096-.05-.008-.003c.912-.539 1.477-1.591 1.481-3.067l.259-32.238c.01-3.113-2.457-6.905-5.514-8.47Z" opacity=".4"/>
  <path fill="#455A64" d="m278.5 73.04.002.002c.009-.005.017-.012.027-.017l-.029.015Z"/>
  <path fill="#E86B31" d="m342.504 142.367.258-32.238c.01-3.113-2.458-6.905-5.514-8.47l-54.799-28.285c-1.525-.782-2.909-.859-3.913-.353l-.006.003-.028.017c-.985.514-1.598 1.597-1.603 3.136l-.258 32.238c-.01 3.116 2.461 6.91 5.514 8.474l54.798 28.285c1.597.818 3.034.859 4.047.274.926-.535 1.499-1.593 1.504-3.081Z"/>
  <path fill="#fff" d="m341.33 99.54-54.799-28.285c-1.561-.8-2.971-.86-3.981-.313v-.005l-4.015 2.085c1.005-.505 2.389-.427 3.914.354l54.798 28.284c3.057 1.566 5.525 5.359 5.514 8.471l-.258 32.238c-.005 1.488-.578 2.545-1.504 3.08v.008l3.901-2.029a3.2 3.2 0 0 0 .116-.06l.096-.05-.008-.003c.912-.539 1.477-1.591 1.481-3.067l.259-32.238c.01-3.113-2.457-6.905-5.514-8.47Z" opacity=".2"/>
  <path fill="#fff" d="M293.755 89.428c2.876 1.474 5.2 5.044 5.19 7.977-.007 2.214-1.346 3.429-3.243 3.253l-.005 1.449 4.659 3.59c1.86 1.432 3.154 3.808 3.148 5.766l-.035 6.888-9.802-5.021-9.804-5.021.035-6.889c.006-1.957 1.316-3 3.179-2.524l4.662 1.185.005-1.45c-1.889-1.763-3.216-4.344-3.209-6.558.009-2.933 2.343-4.118 5.22-2.645Zm39.638 22.176-.005 1.617-23.658-12.133.005-1.617 23.658 12.133Zm-10.982 2.408-.005 1.621-12.703-6.521.006-1.622 12.702 6.522Zm5.243 15.717-.005 1.617-17.985-9.228.006-1.616 17.984 9.227Zm-.673-8.82-.005 1.617-17.285-8.868.006-1.617 17.284 8.868Zm6.354 9.053-.006 1.617-23.657-12.133.005-1.616 23.658 12.132Zm.007-2.679-.005 1.617-23.657-12.133.004-1.617 23.658 12.133Zm-6.338-13.596-.004 1.617-17.285-8.869.005-1.617 17.284 8.869Zm6.381.589-.005 1.617-23.657-12.133.004-1.617 23.658 12.133Zm-9.773-10.802-.005 1.617-13.865-7.116.006-1.618 13.864 7.117Z" opacity=".7"/>
  <path fill="#E86B31" d="m340.875 237.168-38.316-19.824c-1.505-.771-2.864-.828-3.837-.302v-.005l-3.87 2.01c.968-.487 2.302-.412 3.772.341l38.316 19.824c2.946 1.509 5.325 5.165 5.315 8.165l-.249 31.075c-.005 1.435-.557 2.454-1.449 2.969v.008l3.76-1.956c.038-.018.074-.038.111-.058l.093-.048-.008-.003c.88-.52 1.423-1.534 1.428-2.957l.249-31.074c.01-3.001-2.369-6.656-5.315-8.165Z"/>
  <path fill="#000" d="m340.875 237.168-38.316-19.824c-1.505-.771-2.864-.828-3.837-.302v-.005l-3.87 2.01c.968-.487 2.302-.412 3.772.341l38.316 19.824c2.946 1.509 5.325 5.165 5.315 8.165l-.249 31.075c-.005 1.435-.557 2.454-1.449 2.969v.008l3.76-1.956c.038-.018.074-.038.111-.058l.093-.048-.008-.003c.88-.52 1.423-1.534 1.428-2.957l.249-31.074c.01-3.001-2.369-6.656-5.315-8.165Z" opacity=".4"/>
  <path fill="#455A64" d="m294.816 219.067.002.001c.009-.005.017-.011.026-.015l-.028.014Z"/>
  <path fill="#E86B31" d="m342.006 278.453.248-31.075c.01-3-2.369-6.655-5.315-8.165l-38.316-19.824c-1.47-.753-2.804-.828-3.772-.341l-.006.003c-.01.005-.017.012-.027.016-.95.496-1.541 1.539-1.546 3.023l-.249 31.075c-.009 3.003 2.373 6.661 5.316 8.168l38.316 19.824c1.539.789 2.924.828 3.901.264.892-.514 1.445-1.533 1.45-2.968Z"/>
  <path fill="#fff" d="m340.875 237.168-38.316-19.824c-1.505-.771-2.864-.828-3.837-.302v-.005l-3.87 2.01c.968-.487 2.302-.412 3.772.341l38.316 19.824c2.946 1.509 5.325 5.165 5.315 8.165l-.249 31.075c-.005 1.435-.557 2.454-1.449 2.969v.008l3.76-1.956c.038-.018.074-.038.111-.058l.093-.048-.008-.003c.88-.52 1.423-1.534 1.428-2.957l.249-31.074c.01-3.001-2.369-6.656-5.315-8.165Z" opacity=".2"/>
  <path fill="#fff" d="m322.849 252.482-.007 1.908-20.139-10.324.006-1.908 20.14 10.324Zm-1.588-3.653-.005 1.908-18.545-9.506.006-1.909 18.544 9.507Zm.008-2.836-.006 1.908-18.544-9.506.005-1.909 18.545 9.507Zm6.646.56-.005 1.909-25.176-12.904.007-1.908 25.174 12.903Zm.009-2.836-.007 1.909-25.175-12.903.007-1.909 25.175 12.903Zm.007-2.836-.006 1.908-25.175-12.902.006-1.908 25.175 12.902Zm-.045 14.179-.006 1.909-3.126-1.601.006-1.909 3.126 1.601Zm8.434-7.042-.005 1.909-4.729-2.423.006-1.908 4.728 2.422Zm.008-2.836-.005 1.908-4.729-2.422.006-1.908 4.728 2.422Zm-35.427-15.315-.006 1.908-2.879-1.474.006-1.908 2.879 1.474Zm-.035 11.344-.006 1.909-2.88-1.475.007-1.909 2.879 1.475Zm20.875 24.249-.005 1.909-19.048-9.779.006-1.908 19.047 9.778Zm-1.587-3.626-.006 1.909-17.453-8.962.006-1.908 17.453 8.961Zm.008-2.812-.007 1.908-17.452-8.961.006-1.908 17.453 8.961Zm14.738 13.177-.006 1.908-10.824-5.545.006-1.908 10.824 5.545Zm-34.034-23.086-.006 1.909-2.88-1.475.007-1.908 2.879 1.474Z" opacity=".7"/>
  <path fill="#E86B31" d="M277.134 146.812 213.469 114.2c-1.561-.799-2.971-.859-3.982-.314v-.005l-4.014 2.086c1.004-.505 2.388-.427 3.913.354l63.665 32.611c3.057 1.567 5.525 5.359 5.514 8.472l-.258 80.882c-.005 1.488-.578 2.546-1.504 3.081v.007l3.902-2.029a3.2 3.2 0 0 0 .116-.06l.096-.05-.009-.003c.913-.539 1.477-1.591 1.482-3.067l.259-80.883c.009-3.112-2.459-6.904-5.515-8.47Z"/>
  <path fill="#000" d="M277.134 146.812 213.469 114.2c-1.561-.799-2.971-.859-3.982-.314v-.005l-4.014 2.086c1.004-.505 2.388-.427 3.913.354l63.665 32.611c3.057 1.567 5.525 5.359 5.514 8.472l-.258 80.882c-.005 1.488-.578 2.546-1.504 3.081v.007l3.902-2.029a3.2 3.2 0 0 0 .116-.06l.096-.05-.009-.003c.913-.539 1.477-1.591 1.482-3.067l.259-80.883c.009-3.112-2.459-6.904-5.515-8.47Z" opacity=".4"/>
  <path fill="#455A64" d="m205.438 115.986.001.001.027-.016-.028.015Z"/>
  <path fill="#E86B31" d="m278.308 238.285.258-80.882c.01-3.113-2.458-6.905-5.514-8.471l-63.665-32.612c-1.525-.782-2.91-.86-3.914-.354l-.006.004-.027.016c-.986.514-1.599 1.597-1.603 3.137l-.259 80.882c-.009 3.116 2.461 6.91 5.515 8.474l63.665 32.612c1.597.818 3.034.86 4.047.274.924-.534 1.498-1.592 1.503-3.08Z"/>
  <path fill="#fff" d="M277.134 146.812 213.469 114.2c-1.561-.799-2.971-.859-3.982-.314v-.005l-4.014 2.086c1.004-.505 2.388-.427 3.913.354l63.665 32.611c3.057 1.567 5.525 5.359 5.514 8.472l-.258 80.882c-.005 1.488-.578 2.546-1.504 3.081v.007l3.902-2.029a3.2 3.2 0 0 0 .116-.06l.096-.05-.009-.003c.913-.539 1.477-1.591 1.482-3.067l.259-80.883c.009-3.112-2.459-6.904-5.515-8.47Z" opacity=".2"/>
  <g opacity=".7">
    <path fill="#fff" d="M238.744 178.611a4.727 4.727 0 0 1 1.797 1.661c.712 1.13.847 2.335.403 3.581-1.02 2.869-3.284 4.752-6.21 5.172a.84.84 0 0 1-.486-.104 1.78 1.78 0 0 1-.759-.81c-.268-.565-.145-1.072.276-1.135 2.569-.366 4.558-2.022 5.455-4.544.228-.638.233-1.209.01-1.561a1.29 1.29 0 0 0-.487-.416 1.28 1.28 0 0 0-.434-.137c-.431-.046-.814.126-1.252.401-2.2 1.374-3.75 3.629-4.486 6.523-.096.377-.467.478-.879.267a1.486 1.486 0 0 1-.204-.128c-.485-.361-.787-1.009-.676-1.448.806-3.161 2.503-5.625 4.902-7.129.53-.327 1.131-.622 1.936-.537.359.037.732.157 1.094.344Zm5.869 28.596c.467.239.869.806.903 1.309.039.527-.332.783-.83.567l-2.75-1.184-.072-.034c-.465-.239-.86-.804-.896-1.307-.039-.527.332-.78.83-.566l2.749 1.184.066.031Z"/>
    <path fill="#fff" d="M244.955 205.256a23.091 23.091 0 0 1 3.931 2.57c.479.384.756 1.036.615 1.454-.116.345-.479.422-.871.221a1.394 1.394 0 0 1-.247-.162 20.152 20.152 0 0 0-3.443-2.25c-2.302-1.179-4.614-1.739-6.58-1.544a.85.85 0 0 1-.463-.107 1.804 1.804 0 0 1-.773-.845c-.256-.565-.116-1.06.314-1.103 2.247-.22 4.888.42 7.517 1.766Z"/>
    <path fill="#fff" d="M246.305 203.236c2.139 1.096 4.279 2.468 6.36 4.094.482.376.767 1.027.639 1.454-.106.358-.473.444-.873.239a1.522 1.522 0 0 1-.231-.149 37.217 37.217 0 0 0-5.907-3.801c-4.091-2.095-8.175-3.104-11.748-2.834a.848.848 0 0 1-.451-.108c-.31-.159-.612-.479-.779-.86-.248-.566-.098-1.053.333-1.086 3.851-.29 8.25.794 12.657 3.051Zm4.993-.08c1.344.688 2.686 1.5 3.997 2.423.491.346.811.99.719 1.446-.084.4-.467.511-.893.293a1.387 1.387 0 0 1-.164-.1 30.758 30.758 0 0 0-3.668-2.226c-1.535-.786-3.072-1.394-4.557-1.798a1.038 1.038 0 0 1-.208-.083c-.41-.21-.78-.685-.876-1.158-.111-.553.191-.894.677-.763 1.621.443 3.298 1.107 4.973 1.966Z"/>
    <path fill="#fff" d="M253.038 200.71a26.001 26.001 0 0 1 4.538 2.992c.477.388.75 1.042.607 1.455-.118.341-.481.415-.871.214a1.462 1.462 0 0 1-.253-.166 22.745 22.745 0 0 0-3.976-2.614c-2.922-1.497-5.87-2.12-8.257-1.663-.157.029-.336-.01-.513-.1a1.783 1.783 0 0 1-.741-.778c-.282-.561-.176-1.082.232-1.162 2.718-.517 5.972.152 9.234 1.822Zm-13.051-24.685c1.368.701 2.737 1.843 3.67 3.424.865 1.467 1.233 3.131 1.008 4.568-.195 1.27-.794 2.179-1.355 2.901-3.385 4.359-9.057 6.212-15.568 5.078a.933.933 0 0 1-.283-.097c-.379-.194-.73-.62-.854-1.069-.155-.561.101-.952.576-.868 6.089 1.058 11.396-.675 14.559-4.755.479-.613.986-1.378 1.139-2.365.146-.935-.075-2.013-.59-2.888-.554-.938-1.405-1.636-2.289-2.089a5.72 5.72 0 0 0-1.806-.586c-2.292-.313-3.908.822-4.859 1.829-1.095 1.16-1.904 2.711-2.686 4.215-.113.213-.224.431-.337.644-.924 1.752-1.96 3.563-3.586 4.737-.18.13-.439.112-.7-.021a1.67 1.67 0 0 1-.569-.502c-.383-.518-.44-1.129-.121-1.357 1.468-1.066 2.444-2.768 3.315-4.422.111-.211.221-.427.335-.64.813-1.561 1.652-3.177 2.837-4.43 1.578-1.671 3.566-2.397 5.751-2.102.74.103 1.576.367 2.413.795Z"/>
    <path fill="#fff" d="M253.515 197.97c1.879.962 3.755 2.366 5.424 4.115.442.459.611 1.104.378 1.436-.162.232-.476.252-.801.085a1.588 1.588 0 0 1-.418-.319c-1.413-1.48-3.001-2.667-4.591-3.481-1.845-.945-3.694-1.388-5.273-1.199a.834.834 0 0 1-.475-.105c-.3-.153-.595-.458-.767-.826-.259-.567-.127-1.066.296-1.118 1.865-.226 4.047.296 6.227 1.412Zm-1.52-6.495a6.729 6.729 0 0 1 1.63 1.198c.45.443.648 1.091.438 1.447-.152.259-.479.291-.823.116a1.674 1.674 0 0 1-.376-.278 3.659 3.659 0 0 0-.885-.649 3.079 3.079 0 0 0-.195-.091.88.88 0 0 1-.094-.043c-.458-.234-.846-.791-.889-1.29-.045-.527.318-.793.815-.586.127.052.253.111.379.176Z"/>
    <path fill="#fff" d="M253.939 195.222c2.19 1.121 4.364 2.922 6.139 5.152.404.507.492 1.128.196 1.387-.177.157-.453.149-.733.005a1.648 1.648 0 0 1-.528-.447c-1.451-1.823-3.281-3.325-5.108-4.261-1.021-.523-2.041-.87-2.994-.996a.97.97 0 0 1-.315-.103c-.367-.189-.711-.594-.845-1.034-.172-.566.069-.971.535-.909 1.178.156 2.418.573 3.653 1.206Zm-13.813-23.075c1.57.804 3.087 1.992 4.331 3.439 2.443 2.84 3.933 6.8 3.795 10.086-.109 2.621-1.153 4.888-3.099 6.736-3.729 3.542-9.515 4.514-15.873 2.665a1 1 0 0 1-.19-.078 1.787 1.787 0 0 1-.88-1.176c-.105-.55.206-.881.694-.74 5.916 1.72 11.302.818 14.772-2.478 1.746-1.66 2.678-3.652 2.773-5.924.112-2.658-1.053-5.811-2.966-8.034a11.293 11.293 0 0 0-3.36-2.66c-.972-.497-1.977-.815-2.934-.907-1.905-.178-3.685.478-5.152 1.896-1.318 1.278-2.256 2.98-3.261 4.909l-.148.287c-.909 1.745-1.848 3.555-3.144 4.981-.17.191-.464.193-.764.04a1.624 1.624 0 0 1-.48-.387c-.421-.488-.546-1.118-.279-1.413 1.214-1.338 2.123-3.089 3-4.783l.149-.284c1.046-2.009 2.028-3.779 3.442-5.154 1.667-1.613 3.728-2.355 5.959-2.142 1.172.112 2.41.503 3.615 1.121Zm12.553 14.671c.35.18.682.56.828.984 1.277 3.718 3.908 7.448 7.042 9.977.479.387.752 1.038.612 1.456-.115.343-.477.42-.867.22a1.516 1.516 0 0 1-.251-.164c-3.648-2.944-6.712-7.287-8.197-11.615-.196-.569.02-.998.478-.965a.94.94 0 0 1 .355.107Z"/>
    <path fill="#fff" d="M240.525 169.035c1.883.965 3.704 2.35 5.274 4.064 3.294 3.6 5.442 8.578 5.598 12.995.134 3.645-1.036 6.885-3.377 9.369-3.968 4.21-10.333 5.41-17.464 3.286a1.151 1.151 0 0 1-.185-.074 1.79 1.79 0 0 1-.88-1.182c-.102-.552.212-.878.7-.734 6.66 1.983 12.607.861 16.317-3.071 1.491-1.58 3.233-4.33 3.087-8.44-.135-3.718-1.975-8.037-4.693-11.006a15.733 15.733 0 0 0-4.377-3.35c-1.739-.89-3.549-1.373-5.188-1.328-2.737.074-5.142 1.478-6.956 4.061-1.659 2.362-2.687 5.415-3.684 8.365-.116.344-.476.421-.868.221a1.476 1.476 0 0 1-.252-.166c-.477-.386-.753-1.038-.609-1.454 1.02-3.026 2.075-6.157 3.817-8.639 1.987-2.825 4.656-4.363 7.714-4.447 1.922-.052 4.01.497 6.026 1.53Z"/>
    <path fill="#fff" d="M241.237 165.451c2.542 1.302 4.973 3.307 6.889 5.761 2.577 3.304 3.985 6.997 5.349 10.571.284.745.577 1.514.876 2.261 1.416 3.556 3.816 8.242 7.197 10.357.494.31.851.947.795 1.426-.053.441-.441.592-.895.359a1.156 1.156 0 0 1-.105-.06c-3.352-2.098-6.246-6.157-8.598-12.061-.308-.768-.606-1.554-.897-2.31-1.266-3.326-2.578-6.767-4.81-9.628a17.926 17.926 0 0 0-5.836-4.838c-1.393-.713-2.823-1.186-4.186-1.355-3.042-.374-5.88.616-8.203 2.868-2.123 2.056-3.627 4.893-5.08 7.635-.149.278-.482.317-.835.136a1.545 1.545 0 0 1-.35-.252c-.459-.433-.671-1.082-.475-1.452 1.488-2.809 3.029-5.713 5.254-7.87 2.535-2.453 5.663-3.531 9.052-3.112 1.595.197 3.249.74 4.858 1.564Z"/>
    <path fill="#fff" d="M241.149 161.223c2.74 1.404 5.373 3.526 7.499 6.11 2.884 3.506 4.652 7.519 6.362 11.401l.483 1.094c1.791 4.035 3.871 8.161 6.948 11.019.462.428.68 1.08.491 1.453-.143.284-.482.329-.837.146a1.633 1.633 0 0 1-.339-.241c-3.574-3.318-5.87-7.844-7.822-12.239-.161-.366-.321-.732-.486-1.101-1.609-3.656-3.277-7.438-5.827-10.539-1.825-2.219-4.097-4.045-6.475-5.264-1.313-.673-2.66-1.16-3.982-1.424-3.275-.65-6.39.009-9.002 1.918-2.626 1.917-4.442 4.844-5.729 7.184-.15.27-.482.306-.83.128a1.536 1.536 0 0 1-.36-.261c-.457-.438-.663-1.084-.465-1.452 1.337-2.421 3.223-5.46 5.992-7.481 2.838-2.073 6.254-2.785 9.874-2.061 1.492.296 3.013.846 4.505 1.61Z"/>
    <path fill="#fff" d="M242.668 153.481a28.62 28.62 0 0 1 2.794 1.64c5.221 3.474 9.856 8.931 12.401 14.602.621 1.387 1.126 2.794 1.617 4.155.918 2.56 1.788 4.981 3.35 7.147.377.524.418 1.127.094 1.348-.177.121-.432.1-.687-.03a1.71 1.71 0 0 1-.585-.518c-1.865-2.591-2.858-5.355-3.82-8.032-.467-1.302-.952-2.649-1.521-3.92-2.271-5.063-6.428-9.946-11.124-13.068a25.643 25.643 0 0 0-2.534-1.488c-3.642-1.866-7.436-2.677-10.727-2.25-3.771.491-6.957 2.529-9.212 5.891-.16.237-.479.259-.808.089a1.556 1.556 0 0 1-.407-.308c-.442-.456-.62-1.102-.392-1.44 2.403-3.581 5.815-5.754 9.862-6.281 3.576-.467 7.715.422 11.699 2.463Z"/>
    <path fill="#fff" d="M240.969 148.683c2.17 1.112 4.398 2.616 6.582 4.467 4.386 3.717 8.553 8.724 12.388 14.88.34.543.317 1.116-.048 1.277-.174.076-.394.046-.617-.068a1.747 1.747 0 0 1-.658-.63c-3.624-5.817-7.538-10.529-11.633-13.999-2.004-1.699-4.044-3.077-6.024-4.091-2.697-1.382-5.284-2.088-7.519-2.011-2.612.093-4.729 1.176-7.105 2.777-.179.121-.431.101-.684-.029a1.71 1.71 0 0 1-.588-.525c-.378-.524-.419-1.126-.094-1.347 2.17-1.46 4.595-2.827 7.624-2.934 2.498-.086 5.381.699 8.376 2.233Z"/>
    <path fill="#fff" d="M242.101 158.094c4.404 2.256 8.694 6.181 11.57 10.61 1.74 2.68 2.991 5.516 4.195 8.259 1.5 3.408 2.915 6.623 5.161 9.445.401.503.489 1.124.196 1.387-.177.157-.453.146-.733.003a1.673 1.673 0 0 1-.528-.445c-2.552-3.205-4.131-6.791-5.657-10.26-1.15-2.614-2.338-5.315-3.916-7.744-2.542-3.918-6.361-7.4-10.289-9.413-.178-.09-.355-.178-.532-.262-3.784-1.809-7.749-2.329-11.165-1.467-3.011.761-5.695 2.565-7.98 5.362-.169.207-.471.216-.781.057a1.635 1.635 0 0 1-.455-.359c-.43-.477-.573-1.114-.32-1.425 2.407-2.946 5.25-4.852 8.458-5.659 3.706-.938 8.036-.361 12.185 1.619.198.093.395.191.591.292Z"/>
  </g>
  <path fill="#fff" d="M268.732 218.814c.816.418 1.475 1.43 1.472 2.259l-.036 11.158-12.243-6.271c-.816-.419-1.474-1.43-1.472-2.262.003-.829.666-1.164 1.482-.746l9.293 4.76.026-8.151c.002-.828.665-1.164 1.478-.747Zm-56.293-28.835c.813.416 1.471 1.428 1.469 2.257l-.026 8.151 9.292 4.76c.817.418 1.475 1.43 1.473 2.258-.003.833-.666 1.168-1.482.749l-12.243-6.271.036-11.159c.001-.828.664-1.163 1.481-.745Zm57.974-34.119-.036 11.155c-.002.833-.665 1.168-1.482.749-.813-.416-1.471-1.428-1.469-2.26l.027-8.148-9.293-4.76c-.817-.418-1.475-1.43-1.472-2.259.002-.832.665-1.167 1.481-.749l12.244 6.272Zm-47.004-24.076c.816.419 1.474 1.431 1.472 2.262-.003.83-.666 1.164-1.482.746l-9.293-4.76-.026 8.148c-.002.832-.666 1.167-1.479.751-.816-.418-1.474-1.43-1.472-2.262l.036-11.155 12.244 6.27Z" opacity=".3"/>
  <path fill="#E86B31" d="m243.06 69.098-67.396-34.523c-.435-.223-.827-.252-1.128-.132l.002-.01-.063.03c-.005.002-.012.004-.017.008l-.704.326.293.177a1.352 1.352 0 0 0-.083.461l-.019 5.792-.03 9.541-.088 27.358c-.003.956.754 2.118 1.691 2.6l67.396 34.522c.179.091.348.142.51.173l-.085.295.752-.352.039-.018.019-.008-.004-.003c.289-.162.47-.486.471-.947l.088-27.358.03-9.542.019-5.791c.001-.956-.755-2.12-1.693-2.6Z"/>
  <path fill="#000" d="m243.06 69.098-67.396-34.523c-.435-.223-.827-.252-1.128-.132l.002-.01-.063.03c-.005.002-.012.004-.017.008l-.704.326.293.177a1.352 1.352 0 0 0-.083.461l-.019 5.792-.03 9.541-.088 27.358c-.003.956.754 2.118 1.691 2.6l67.396 34.522c.179.091.348.142.51.173l-.085.295.752-.352.039-.018.019-.008-.004-.003c.289-.162.47-.486.471-.947l.088-27.358.03-9.542.019-5.791c.001-.956-.755-2.12-1.693-2.6Z" opacity=".1"/>
  <path fill="#37474F" d="m173.148 51.122 70.789 36.26.031-9.541-70.789-36.26-.031 9.54Z"/>
  <path fill="#E86B31" d="M242.296 69.45 174.9 34.927c-.937-.48-1.699-.095-1.702.86l-.018 5.792 70.789 36.26.019-5.79c.002-.956-.754-2.119-1.692-2.599Zm-69.233 9.03c-.004.957.753 2.12 1.69 2.6l67.396 34.523c.938.48 1.699.095 1.702-.861l.087-27.358-70.789-36.261-.086 27.358Z"/>
  <path fill="#fff" d="m213.929 92.47-.008 2.41-9.273-4.75.008-2.41 9.273 4.75Zm14.502 7.426-.007 2.41-11.377-5.828.007-2.41 11.377 5.828Zm11.025 5.651-.008 2.41-7.714-3.951.008-2.41 7.714 3.951Zm-38.83-30.755-.008 2.416-22.239-11.393.008-2.415 22.239 11.392Zm-3.425 1.858-.007 2.414-18.827-9.642.008-2.416 18.826 9.644Zm-5.072-10.615-.008 2.416-13.73-7.034.007-2.415 13.731 7.033Z" opacity=".5"/>
  <path fill="#455A64" d="m85.133 141.39.025-.013c-.008.004-.017.006-.025.009v.004Z"/>
  <path fill="#455A64" d="m114.859 117.061.172 34.473-30.57 15.659-.172-34.473 30.57-15.659Z"/>
  <path fill="#000" d="m114.859 117.061.172 34.473-30.57 15.659-.172-34.473 30.57-15.659Z" opacity=".1"/>
  <path fill="#455A64" d="m69.926 125.338 14.364 7.38.172 34.473-14.364-7.38-.172-34.473Z"/>
  <path fill="#000" d="m69.926 125.338 14.364 7.38.172 34.473-14.364-7.38-.172-34.473Z" opacity=".3"/>
  <path fill="#455A64" d="m84.29 132.721 30.57-15.659-8.103-21.193-30.57 15.659 8.103 21.193Z"/>
  <path fill="#E86B31" d="m103.546 101.6-22.53 11.54 5.136 13.432 22.529-11.54-5.135-13.432Z"/>
  <path fill="#000" d="m103.546 101.6-22.53 11.54 5.136 13.432 22.529-11.54-5.135-13.432Z" opacity=".2"/>
  <path fill="#fff" d="m103.546 101.6-22.53 11.54 5.136 13.432 22.529-11.54-5.135-13.432Z" opacity=".2"/>
  <path fill="#455A64" d="M108.682 115.033v.001l-22.53 11.54.353.925 23.524-12.049-1.347-.417Zm-4.142-13.941-.993.509 5.136 13.431 1.347.417-5.49-14.357Z"/>
  <path fill="#000" d="M108.682 115.033v.001l-22.53 11.54.353.925 23.524-12.049-1.347-.417Z" opacity=".1"/>
  <path fill="#000" d="m104.54 101.092-.993.509 5.136 13.431 1.347.417-5.49-14.357Z" opacity=".4"/>
  <path fill="#455A64" d="m76.187 111.524-6.261-3.245v17.058l14.364 7.38-8.103-21.193Z"/>
  <path fill="#000" d="m76.187 111.524-6.261-3.245v17.058l14.364 7.38-8.103-21.193Z" opacity=".3"/>
  <path fill="#455A64" d="m106.757 95.867-6.308-3.139-30.523 15.553 6.26 3.245 30.571-15.659Z"/>
  <path fill="#fff" d="m106.757 95.867-6.308-3.139-30.523 15.553 6.26 3.245 30.571-15.659Z" opacity=".1"/>
  <path fill="#455A64" d="M101.295 133.491h.001l-.003-.001.002.001Z"/>
  <path fill="#37474F" d="M101.143 132.505c-.001-.284.223-.625.502-.767l1.731-.887c.128-.065.242-.072.331-.037l.004-.004-.662-.336-.002.002c-.092-.053-.22-.051-.364.023l-1.732.887c-.279.143-.503.483-.502.767l.003.702c0 .137.055.233.144.28l-.001.001.004.002h.002l.693.352c-.091-.046-.148-.144-.149-.284l-.002-.701Z"/>
  <path fill="#455A64" d="M103.875 131.106c-.001-.152-.068-.249-.17-.29-.089-.035-.204-.029-.331.037l-1.731.887c-.279.143-.503.483-.502.767l.002.702c0 .139.057.237.148.283l.003.001c.091.045.216.038.355-.033l1.732-.887c.274-.14.498-.485.498-.765l-.004-.702Zm1.917.074v-.001l-.003-.001.003.002Z"/>
  <path fill="#37474F" d="M105.638 130.192c-.001-.285.223-.625.502-.767l1.732-.887c.127-.065.241-.072.33-.036l.004-.005-.662-.336-.002.003c-.092-.053-.219-.052-.363.022l-1.732.887c-.279.143-.502.483-.502.767l.003.701c.001.138.056.233.144.281h-.001l.004.003h.002l.693.351c-.092-.045-.148-.143-.149-.283l-.003-.701Z"/>
  <path fill="#455A64" d="M108.375 128.789c-.001-.152-.068-.249-.17-.289-.089-.036-.204-.029-.331.036l-1.731.887c-.28.143-.503.483-.502.767l.002.701c.001.141.057.239.148.284h.003c.091.045.216.038.355-.033l1.732-.887c.274-.141.498-.485.498-.765l-.004-.701Zm1.908.081v-.001h-.002l.002.001Z"/>
  <path fill="#37474F" d="M110.131 127.883c-.001-.285.223-.624.502-.767l1.732-.887c.127-.065.241-.071.33-.036l.004-.004-.662-.337-.002.003c-.092-.053-.219-.051-.364.023l-1.732.887c-.279.143-.502.483-.501.767l.002.701c.001.138.056.233.144.28v.001l.004.002.001.001.693.351c-.092-.046-.149-.144-.149-.284l-.002-.701Z"/>
  <path fill="#455A64" d="M112.867 126.481c-.001-.152-.068-.249-.17-.29-.089-.035-.204-.029-.331.036l-1.731.888c-.28.143-.503.482-.502.766l.002.702c.001.14.058.238.149.284l.002.001c.091.044.216.037.355-.034l1.732-.887c.274-.141.499-.485.498-.765l-.004-.701Zm-11.572 11.038.001-.001h-.003l.002.001Z"/>
  <path fill="#37474F" d="M101.143 136.532c-.001-.284.223-.625.502-.767l1.731-.887c.128-.065.242-.072.331-.037l.004-.004-.662-.336-.002.002c-.092-.053-.22-.051-.364.023l-1.732.887c-.279.143-.503.483-.502.767l.003.702c0 .137.055.233.144.28l-.001.001.004.002.002.001.693.351c-.091-.046-.148-.144-.149-.284l-.002-.701Z"/>
  <path fill="#455A64" d="M103.875 135.133c-.001-.152-.068-.249-.17-.289-.089-.036-.204-.029-.331.036l-1.731.888c-.279.143-.503.482-.502.766l.002.702c0 .14.057.238.148.284l.003.001c.091.044.216.037.355-.034l1.732-.887c.274-.141.498-.485.498-.765l-.004-.702Zm1.917.073v-.001h-.003l.003.001Z"/>
  <path fill="#37474F" d="M105.638 134.219c-.001-.285.223-.624.502-.767l1.732-.887c.127-.065.241-.071.33-.036l.004-.004-.662-.337-.002.003c-.092-.053-.219-.051-.363.022l-1.732.887c-.279.143-.502.483-.502.767l.003.702c.001.137.056.233.144.279l-.001.002.004.002.002.001.693.351c-.092-.046-.148-.144-.149-.284l-.003-.701Z"/>
  <path fill="#455A64" d="M108.375 132.817c-.001-.152-.068-.249-.17-.29-.089-.035-.204-.029-.331.036l-1.731.887c-.28.143-.503.483-.502.767l.002.702c.001.139.057.238.148.284h.003c.091.044.216.037.355-.034l1.732-.887c.274-.141.498-.485.498-.764l-.004-.701Zm1.908.08v-.001h-.002l.002.001Z"/>
  <path fill="#37474F" d="M110.131 131.91c-.001-.284.223-.624.502-.766l1.732-.888c.127-.065.241-.071.33-.036l.004-.004-.662-.336-.002.003c-.092-.054-.219-.052-.364.022l-1.732.887c-.279.143-.502.483-.501.767l.002.702c.001.137.056.233.144.279v.002l.004.002.001.001.693.351c-.092-.045-.149-.144-.149-.284l-.002-.702Z"/>
  <path fill="#455A64" d="M112.867 130.508c-.001-.152-.068-.249-.17-.289-.089-.036-.204-.029-.331.036l-1.731.887c-.28.143-.503.483-.502.767l.002.701c.001.14.058.238.149.284h.002c.091.045.216.038.355-.033l1.732-.887c.274-.141.499-.485.498-.765l-.004-.701Zm-11.572 11.038.001-.001h-.003l.002.001Z"/>
  <path fill="#37474F" d="M101.143 140.559c-.001-.285.223-.625.502-.767l1.731-.887c.128-.065.242-.072.331-.036l.004-.004-.662-.337-.002.003c-.092-.053-.22-.052-.364.022l-1.732.887c-.279.143-.503.483-.502.767l.003.702c0 .137.055.233.144.28l-.001.001.004.002h.002l.693.352c-.091-.046-.148-.144-.149-.284l-.002-.701Z"/>
  <path fill="#455A64" d="M103.875 139.157c-.001-.153-.068-.25-.17-.29-.089-.035-.204-.029-.331.036l-1.731.887c-.279.143-.503.483-.502.767l.002.702c0 .139.057.238.148.284h.003c.091.045.216.038.355-.033l1.732-.887c.274-.141.498-.485.498-.765l-.004-.701Zm1.917.076v-.001h-.003l.003.001Z"/>
  <path fill="#37474F" d="M105.638 138.246c-.001-.284.223-.624.502-.767l1.732-.887c.127-.065.241-.071.33-.036l.004-.004-.662-.336-.002.003c-.092-.054-.219-.052-.363.022l-1.732.887c-.279.143-.502.483-.502.767l.003.702c.001.137.056.233.144.279l-.001.002.004.002.002.001.693.351c-.092-.046-.148-.144-.149-.284l-.003-.702Z"/>
  <path fill="#455A64" d="M108.375 136.844c-.001-.152-.068-.249-.17-.289-.089-.036-.204-.029-.331.036l-1.731.887c-.28.143-.503.483-.502.767l.002.701c.001.14.057.238.148.284l.003.001c.091.044.216.037.355-.033l1.732-.888c.274-.14.498-.485.498-.764l-.004-.702Zm1.908.077-.002-.001.002.001Z"/>
  <path fill="#37474F" d="M110.131 135.934c-.001-.285.223-.625.502-.767l1.732-.887c.127-.065.241-.072.33-.036l.004-.004-.662-.337-.002.003c-.092-.053-.219-.052-.364.022l-1.732.887c-.279.143-.502.483-.501.767l.002.702c.001.137.056.232.144.279v.002l.004.002h.001l.693.352c-.092-.046-.149-.144-.149-.284l-.002-.701Z"/>
  <path fill="#455A64" d="M112.867 134.532c-.001-.153-.068-.25-.17-.29-.089-.035-.204-.029-.331.036l-1.731.887c-.28.143-.503.483-.502.767l.002.702c.001.139.058.238.149.284h.002c.091.044.216.037.355-.034l1.732-.887c.274-.141.499-.485.498-.764l-.004-.701Zm-11.572 11.037h.001l-.003-.001.002.001Z"/>
  <path fill="#37474F" d="M101.143 144.582c-.001-.284.223-.624.502-.767l1.731-.887c.128-.065.242-.071.331-.036l.004-.004-.662-.336-.002.003c-.092-.054-.22-.052-.364.021l-1.732.888c-.279.143-.503.482-.502.766l.003.702c0 .137.055.233.144.28h-.001l.004.002.002.001.693.351c-.091-.045-.148-.143-.149-.284l-.002-.7Z"/>
  <path fill="#455A64" d="M103.875 143.18c-.001-.152-.068-.249-.17-.29-.089-.035-.204-.029-.331.037l-1.731.887c-.279.143-.503.483-.502.766l.002.702c0 .14.057.238.148.284l.003.001c.091.044.216.037.355-.034l1.732-.887c.274-.141.498-.485.498-.764l-.004-.702Zm1.917.081-.003-.001.003.001Z"/>
  <path fill="#37474F" d="M105.638 142.274c-.001-.285.223-.625.502-.767l1.732-.887c.127-.065.241-.072.33-.036l.004-.005-.662-.336-.002.003c-.092-.053-.219-.052-.363.023l-1.732.887c-.279.143-.502.483-.502.766l.003.702c.001.137.056.233.144.28l-.001.001.004.002.002.001.693.351c-.092-.045-.148-.144-.149-.284l-.003-.701Z"/>
  <path fill="#455A64" d="M108.375 140.871c-.001-.152-.068-.249-.17-.289-.089-.036-.204-.029-.331.036l-1.731.887c-.28.143-.503.483-.502.767l.002.702c.001.14.057.237.148.283h.003c.091.045.216.038.355-.033l1.732-.887c.274-.141.498-.485.498-.765l-.004-.701Zm1.908.077v-.001h-.002l.002.001Z"/>
  <path fill="#37474F" d="M110.131 139.962c-.001-.285.223-.625.502-.767l1.732-.887c.127-.065.241-.072.33-.037l.004-.004-.662-.336-.002.002c-.092-.053-.219-.051-.364.022l-1.732.888c-.279.143-.502.482-.501.766l.002.702c.001.137.056.233.144.28v.001l.004.002.001.001.693.351c-.092-.045-.149-.144-.149-.284l-.002-.7Z"/>
  <path fill="#455A64" d="M112.867 138.559c-.001-.152-.068-.249-.17-.29-.089-.035-.204-.029-.331.037l-1.731.887c-.28.143-.503.483-.502.767l.002.702c.001.139.058.238.149.284h.002c.091.044.216.037.355-.034l1.732-.887c.274-.141.499-.485.498-.764l-.004-.702Z"/>
  <path fill="#fff" d="m103.707 130.81.004-.004-.662-.336-.002.003c-.092-.054-.22-.052-.364.021l-1.732.888c-.279.143-.503.482-.502.766l.003.702c0 .137.055.234.144.28l-.001.001.004.002.002.001.693.351.001.001.001-.001c.091.045.216.038.355-.033l1.732-.887c.274-.141.498-.485.498-.765l-.003-.702c-.001-.15-.069-.247-.171-.288Zm4.495-2.309.004-.004-.662-.336-.002.003c-.092-.053-.219-.051-.363.022l-1.732.887c-.279.143-.502.483-.502.767l.003.702c.001.137.056.233.144.28l-.001.001.004.002.002.001.693.351.001.001c.091.044.216.036.355-.034l1.732-.888c.274-.14.499-.485.498-.764l-.002-.702c-.002-.151-.07-.248-.172-.289Zm1.381.01h-.001l.004.002.002.001.692.351.002.001.001-.001c.091.045.216.038.355-.033l1.731-.887c.275-.141.499-.485.498-.765l-.002-.701c-.001-.153-.068-.25-.17-.29l.004-.004-.662-.336-.002.002c-.092-.053-.219-.051-.364.023l-1.732.887c-.279.143-.502.483-.501.767l.002.702c-.001.138.055.234.143.281Zm-5.876 6.326.004-.004-.662-.336-.002.003c-.092-.054-.22-.051-.364.022l-1.732.887c-.279.143-.503.483-.502.767l.003.702c0 .137.055.233.144.28l-.001.001.004.002.002.001.693.351.001.001.001-.001c.091.044.216.037.355-.033l1.732-.888c.274-.141.498-.485.498-.764l-.003-.702c-.001-.151-.069-.248-.171-.289Zm4.495-2.308.004-.004-.662-.337-.002.003c-.092-.053-.219-.051-.363.022l-1.732.887c-.279.143-.502.483-.502.767l.003.702c.001.137.056.233.144.279l-.001.002.004.002.002.001.693.351.001.001v-.001c.091.044.216.037.355-.033l1.732-.888c.274-.14.499-.485.498-.764l-.002-.702c-.002-.151-.07-.248-.172-.288Zm4.493-2.313.004-.004-.662-.336-.002.003c-.092-.053-.219-.052-.364.022l-1.732.887c-.279.143-.502.483-.501.767l.002.702c.001.137.056.233.144.28v.001l.004.002.001.001.693.351.001.001.001-.001c.091.045.216.037.355-.033l1.732-.887c.274-.141.499-.485.498-.765l-.002-.702c-.002-.151-.07-.248-.172-.289Zm-8.988 8.649.004-.004-.662-.337-.002.003c-.092-.053-.22-.051-.364.022l-1.732.887c-.279.143-.503.483-.502.768l.003.701c0 .138.055.233.144.28l-.001.001.004.002.002.001.693.351h.002c.091.044.216.037.355-.034l1.732-.887c.274-.141.498-.485.498-.764l-.003-.702c-.001-.151-.069-.248-.171-.288Zm4.495-2.313.004-.004-.662-.336-.002.003c-.092-.053-.219-.052-.363.022l-1.732.887c-.279.143-.502.483-.502.767l.003.702c.001.137.056.233.144.279l-.001.002.004.002.002.001.693.351.001.001c.091.044.216.036.355-.034l1.732-.888c.274-.14.499-.485.498-.764l-.002-.702c-.002-.151-.07-.248-.172-.289Zm4.493-2.308.004-.004-.662-.337-.002.003c-.092-.053-.219-.052-.364.022l-1.732.887c-.279.143-.502.483-.501.767l.002.702c.001.137.056.232.144.279v.002l.004.002h.001l.693.352h.002c.091.044.216.037.355-.034l1.732-.887c.274-.141.499-.485.498-.764l-.002-.702c-.002-.15-.07-.247-.172-.288Zm-8.988 8.648.004-.004-.662-.337-.002.003c-.092-.053-.22-.051-.364.023l-1.732.887c-.279.143-.503.483-.502.767l.003.701c0 .138.055.233.144.281h-.001l.004.003h.002l.693.351.001.001.001-.001c.091.045.216.038.355-.033l1.732-.887c.274-.141.498-.485.498-.765l-.003-.701c-.001-.151-.069-.249-.171-.289Zm4.495-2.312.004-.005-.662-.336-.002.003c-.092-.053-.219-.052-.363.023l-1.732.887c-.279.143-.502.483-.502.767l.003.701c.001.137.056.234.144.28l-.001.001.004.002h.002l.693.352h.001c.091.045.216.037.355-.034l1.732-.887c.274-.141.499-.485.498-.765l-.002-.701c-.002-.15-.07-.247-.172-.288Zm4.493-2.309.004-.004-.662-.337-.002.003c-.092-.053-.219-.051-.364.023l-1.732.887c-.279.143-.502.483-.501.767l.002.701c.001.138.056.233.144.28v.001l.004.003h.001l.693.351.001.001.001-.001c.091.045.216.038.355-.033l1.732-.887c.274-.141.499-.485.498-.765l-.002-.701c-.002-.152-.07-.249-.172-.289Z" opacity=".2"/>
  <path fill="#455A64" d="m93.41 139.7-.574-.296 1.271.643.574.295-1.271-.642Zm0 .001-2.23 1.142-1.262 1.941 4.764-2.441-1.271-.642Z"/>
  <path fill="#263238" d="m93.413 139.7-.574-.296-2.23 1.143.573.295 2.23-1.142Z"/>
  <path fill="#37474F" d="m90.607 140.549-1.263 1.94.574.296 1.262-1.941-.573-.295Z"/>
  <path fill="#263238" d="m93.031 136.814.008 2.277.573.296-.007-2.277-.574-.296Z"/>
  <path fill="#455A64" d="m94.868 135.17-1.262 1.941.007 2.276 1.27.642-.015-4.859Z"/>
  <path fill="#37474F" d="m94.867 135.169-.573-.296-1.263 1.941.574.296 1.262-1.941Zm-1.55 2.176-.573-.296-2.064 1.057.573.296 2.064-1.057Z"/>
  <path fill="#455A64" d="m93.317 137.346-2.063 1.057.006 2.101 2.064-1.057-.007-2.101Z"/>
  <path fill="#263238" d="m90.68 138.107.007 2.102.573.296-.007-2.102-.573-.296Z"/>
  <path fill="#37474F" d="m94.088 134.771-4.764 2.441.573.295 4.764-2.44-.573-.296Z"/>
  <path fill="#455A64" d="m89.898 137.509 1.272.643 2.23-1.142 1.262-1.942-4.764 2.441Z"/>
  <path fill="#37474F" d="m89.121 137.525.015 4.86.574.295-.016-4.859-.573-.296Z"/>
  <path fill="#455A64" d="m90.966 138.465-1.27-.643.015 4.86 1.263-1.941-.008-2.276Z"/>
  <path fill="#455A64" d="m89.694 137.821-.573-.296 1.271.643.573.295-1.27-.642Z"/>
  <path fill="#fff" d="m93.123 139.548.202-.103v-.21l.288.15 1.271.643-.016-4.86-.573-.295-.002.003-.204-.105-4.764 2.441.573.295.982.497-.2.101.001.21-.289-.149-1.27-.643.014 4.86.573.295.001-.001.205.106 4.764-2.441-.573-.295-.983-.499Zm-2.15.805.004.003-.005.002v-.005Zm2.061-3.159v.002h-.002l.002-.002Z" opacity=".2"/>
  <path fill="#455A64" d="M85.508 166.655V146.19l13.013-6.641v20.44l-13.013 6.666Z"/>
  <path fill="#fff" d="M85.508 166.655V146.19l13.013-6.641v20.44l-13.013 6.666Z" opacity=".1"/>
  <path fill="#455A64" d="m97.592 140.975-11.174 5.714v11.974l11.174-5.714v-11.974Z"/>
  <path fill="#000" d="m97.592 140.975-11.174 5.714v11.974l11.174-5.714v-11.974Z" opacity=".4"/>
  <path fill="#37474F" d="M86.418 146.688v.972l4.209-2.153 4.752 6.937-8.407 4.301-.554-.809v2.726l11.174-5.714-6.076-8.868-5.098 2.608Z"/>
  <path fill="#000" d="M86.418 146.688v.972l4.209-2.153 4.752 6.937-8.407 4.301-.554-.809v2.726l11.174-5.714-6.076-8.868-5.098 2.608Z" opacity=".4"/>
  <path fill="#E86B31" d="m86.972 156.743 8.407-4.3-4.752-6.937-4.209 2.152v8.277l.554.808Z"/>
  <path fill="#000" d="m86.972 156.743 8.407-4.3-4.752-6.937-4.209 2.152v8.277l.554.808Z" opacity=".2"/>
  <path fill="#fff" d="m86.972 156.743 8.407-4.3-4.752-6.937-4.209 2.152v8.277l.554.808Z" opacity=".2"/>
  <path fill="#455A64" d="m105.134 148.54-.891-.477-.041-.022-.012-.006-.002.002c-.31-.141-.725-.114-1.183.121-.944.484-1.711 1.662-1.708 2.624.001.489.201.83.519.986l.896.481.032.017.012.006v-.002c.309.144.725.119 1.184-.116.949-.486 1.716-1.664 1.713-2.632-.001-.489-.201-.827-.519-.982Z"/>
  <path fill="#000" d="M102.221 151.277c-.003-.962.764-2.14 1.708-2.624.469-.24.893-.264 1.205-.114l-.891-.477c-.013-.007-.026-.015-.041-.021l-.012-.006-.002.002c-.31-.14-.725-.114-1.183.121-.944.483-1.711 1.662-1.708 2.624.001.489.2.83.519.985l.896.482c-.302-.164-.489-.497-.491-.972Z" opacity=".3"/>
  <path fill="#fff" d="M102.221 151.277c-.003-.962.764-2.14 1.708-2.624.469-.24.893-.264 1.205-.114l-.891-.477c-.013-.007-.026-.015-.041-.021l-.012-.006-.002.002c-.31-.14-.725-.114-1.183.121-.944.483-1.711 1.662-1.708 2.624.001.489.2.83.519.985l.896.482c-.302-.164-.489-.497-.491-.972Z" opacity=".2"/>
  <path fill="#fff" d="M105.131 148.541c-.311-.15-.735-.126-1.205.114-.943.484-1.71 1.662-1.707 2.624.001.475.19.808.491.97l.031.017c.004.002.009.002.013.005.309.143.725.118 1.184-.117.948-.486 1.716-1.664 1.713-2.632-.002-.487-.201-.825-.52-.981Z" opacity=".15"/>
  <path fill="#455A64" d="m112.47 144.774-.891-.477-.041-.022-.012-.006-.002.002c-.31-.14-.725-.114-1.183.121-.944.484-1.711 1.662-1.708 2.624.001.489.201.83.519.986l.896.481.031.017.012.006.001-.002c.309.144.726.119 1.184-.116.949-.486 1.716-1.664 1.713-2.632-.001-.489-.201-.827-.519-.982Z"/>
  <path fill="#000" d="M109.557 147.512c-.003-.962.764-2.141 1.708-2.624.469-.24.893-.265 1.205-.114l-.891-.477-.041-.022-.012-.006-.002.002c-.31-.14-.725-.114-1.183.121-.944.484-1.711 1.662-1.708 2.624.001.489.201.83.519.986l.896.481c-.301-.163-.489-.497-.491-.971Z" opacity=".3"/>
  <path fill="#fff" d="M109.557 147.512c-.003-.962.764-2.141 1.708-2.624.469-.24.893-.265 1.205-.114l-.891-.477-.041-.022-.012-.006-.002.002c-.31-.14-.725-.114-1.183.121-.944.484-1.711 1.662-1.708 2.624.001.489.201.83.519.986l.896.481c-.301-.163-.489-.497-.491-.971Z" opacity=".2"/>
  <path fill="#fff" d="M112.467 144.776c-.311-.151-.735-.126-1.205.114-.943.483-1.71 1.662-1.707 2.624.001.474.19.808.49.97l.032.017.012.004c.309.144.726.119 1.184-.116.949-.487 1.716-1.665 1.713-2.633-.001-.487-.2-.825-.519-.98Z" opacity=".15"/>
  <path fill="#fff" d="m85.89 133.534 27.386-14.028.078 3.322-27.386 14.028-.077-3.322Z" opacity=".2"/>
  <path fill="#455A64" d="m77.523 125.402-7.582-3.884-5.187 2.683 7.582 3.884c1.235.632 1.996 1.801 1.996 3.066v22.033c0 .537-.325.972-.778 1.213l5.067-2.626-.008-.003c.519-.223.906-.682.906-1.267v-22.034c0-1.264-.76-2.433-1.996-3.065Z"/>
  <path fill="#455A64" d="M74.332 153.185v-22.034c0-1.265-.761-2.434-1.995-3.066l-7.583-3.884v26.53l7.183 3.68a1.753 1.753 0 0 0 1.55.018l.026-.01.041-.021c.454-.241.778-.677.778-1.213Z"/>
  <path fill="#000" d="M74.332 153.185v-22.034c0-1.265-.761-2.434-1.995-3.066l-7.583-3.884v26.53l7.183 3.68a1.753 1.753 0 0 0 1.55.018l.026-.01.041-.021c.454-.241.778-.677.778-1.213Z" opacity=".3"/>
  <path fill="#fff" d="M90.786 116.324a.12.12 0 0 1 .147.028c.353.382.854.562 1.34.483.074-.012.141.047.15.132.007.07-.027.137-.082.164a.116.116 0 0 1-.036.012c-.566.093-1.15-.118-1.56-.562a.173.173 0 0 1-.004-.22.161.161 0 0 1 .045-.037Zm.196.819a.533.533 0 0 1 .245-.059c.075.001.134.071.131.157a.162.162 0 0 1-.083.141.121.121 0 0 1-.056.014.287.287 0 0 0-.134.032l-.026.016-.013.007c-.063.032-.137.004-.17-.066-.036-.074-.012-.17.055-.212.016-.01.033-.021.05-.03Zm-2.18.002a.325.325 0 0 1 .291-.013c.142.067.227.233.25.491a2.957 2.957 0 0 1-.377 1.727.144.144 0 0 1-.059.056.12.12 0 0 1-.13-.011c-.06-.047-.077-.143-.034-.215.257-.442.378-.994.33-1.518-.012-.132-.045-.221-.089-.242-.02-.009-.048-.005-.076.009a.185.185 0 0 0-.055.044.672.672 0 0 0-.113.25 3.85 3.85 0 0 0-.111 1.675c.01.073-.024.144-.08.173a.106.106 0 0 1-.03.011c-.073.017-.143-.038-.157-.122a4.22 4.22 0 0 1 .121-1.832.989.989 0 0 1 .18-.372.456.456 0 0 1 .14-.111Zm2.778 1.903c.186-.095.379-.171.574-.225.073-.021.145.031.161.115a.168.168 0 0 1-.08.179c-.007.003-.015.007-.023.009-.18.049-.356.119-.526.206a3.001 3.001 0 0 0-.6.405.121.121 0 0 1-.027.018.123.123 0 0 1-.162-.046.174.174 0 0 1 .03-.219 3.25 3.25 0 0 1 .653-.442Zm-.17-1.618c.302-.155.642-.204.964-.126.073.018.118.101.101.184a.16.16 0 0 1-.079.111.119.119 0 0 1-.083.01 1.164 1.164 0 0 0-.8.108c-.14.072-.272.171-.382.295a.137.137 0 0 1-.04.031.122.122 0 0 1-.152-.033.173.173 0 0 1 .006-.22 1.61 1.61 0 0 1 .465-.36Zm-.32 3.242c.064-.033.14-.005.173.067.034.076.009.17-.057.211l-.367.23-.01.005c-.065.033-.14.005-.173-.067-.034-.076-.009-.17.057-.211l.367-.23.01-.005Z"/>
  <path fill="#fff" d="M91.524 117.914c.26-.133.544-.197.826-.178.076.005.13.078.124.165a.162.162 0 0 1-.082.133.117.117 0 0 1-.064.013 1.334 1.334 0 0 0-.699.151 1.622 1.622 0 0 0-.642.605.157.157 0 0 1-.057.055.12.12 0 0 1-.13-.013.171.171 0 0 1-.034-.216 1.91 1.91 0 0 1 .758-.715Z"/>
  <path fill="#fff" d="M91.63 118.41c.21-.109.435-.183.665-.219.074-.012.14.049.15.134.006.07-.028.136-.083.163a.12.12 0 0 1-.037.012c-.2.031-.396.097-.582.192a2.39 2.39 0 0 0-.993.98.15.15 0 0 1-.062.062.119.119 0 0 1-.125-.009c-.063-.045-.082-.141-.042-.214a2.652 2.652 0 0 1 1.108-1.101Zm-.615 1.907c.183-.094.378-.16.575-.192.074-.013.141.046.151.131a.166.166 0 0 1-.082.165.142.142 0 0 1-.036.012 1.726 1.726 0 0 0-.504.168 2.084 2.084 0 0 0-.804.747.147.147 0 0 1-.057.053.118.118 0 0 1-.132-.014c-.06-.049-.074-.146-.03-.217a2.39 2.39 0 0 1 .919-.853Z"/>
  <path fill="#fff" d="M91.04 119.806a3.4 3.4 0 0 1 .926-.321c.074-.015.143.043.153.128a.162.162 0 0 1-.081.167.098.098 0 0 1-.034.012 3.177 3.177 0 0 0-.86.299 3.789 3.789 0 0 0-1.44 1.321.131.131 0 0 1-.055.051.12.12 0 0 1-.134-.015c-.06-.05-.072-.148-.027-.218a4.083 4.083 0 0 1 1.552-1.424Zm-2.255-3.248c.19-.097.404-.126.597-.022.178.097.315.298.373.554.052.224.04.454.02.649-.117 1.178-.626 2.313-1.398 3.113a.169.169 0 0 1-.037.027.12.12 0 0 1-.154-.037.172.172 0 0 1 .013-.22c.722-.748 1.198-1.809 1.307-2.911.017-.167.028-.36-.013-.535-.038-.166-.124-.299-.23-.357-.115-.062-.247-.042-.369.02a.838.838 0 0 0-.23.18c-.267.295-.378.712-.423 1.009-.052.343-.05.703-.049 1.051l.001.151c.001.408-.007.841-.116 1.266a.153.153 0 0 1-.077.101.115.115 0 0 1-.09.008c-.073-.022-.113-.108-.092-.191.098-.384.106-.792.106-1.177l-.001-.149c-.002-.363-.004-.737.052-1.107.076-.494.25-.903.504-1.185.085-.095.192-.179.306-.238Z"/>
  <path fill="#fff" d="M88.579 115.942c.217-.112.45-.156.669-.119.429.072.82.459.993.987.139.419.157.925.051 1.501-.2 1.103-.773 2.119-1.57 2.785a.122.122 0 0 1-.025.017c-.057.03-.126.01-.164-.049a.173.173 0 0 1 .033-.218c.742-.62 1.275-1.566 1.462-2.593.094-.517.08-.963-.04-1.327-.141-.427-.45-.738-.786-.794a.84.84 0 0 0-.519.093 1.23 1.23 0 0 0-.37.3c-.218.258-.374.625-.45 1.063-.07.394-.074.797-.072 1.245v.066c.003.406.004.824-.054 1.237a.155.155 0 0 1-.08.121.127.127 0 0 1-.075.012c-.073-.011-.123-.091-.111-.176.055-.388.052-.793.05-1.186v-.065c-.003-.466.001-.886.076-1.31.088-.498.27-.921.524-1.222a1.5 1.5 0 0 1 .458-.368Z"/>
  <path fill="#fff" d="M88.442 115.403c.26-.133.538-.192.807-.163.566.061 1.086.507 1.357 1.164.225.541.285 1.215.174 1.949-.189 1.242-.811 2.38-1.708 3.12a.114.114 0 0 1-.025.016.122.122 0 0 1-.163-.05.173.173 0 0 1 .033-.218c.838-.691 1.419-1.755 1.595-2.916.071-.466.102-1.151-.15-1.762-.23-.552-.678-.942-1.145-.993-.22-.024-.45.027-.67.139-.24.123-.464.32-.64.572-.292.421-.473.997-.52 1.666-.044.613.02 1.237.082 1.841a.166.166 0 0 1-.082.164.205.205 0 0 1-.037.012c-.074.012-.14-.048-.15-.133-.063-.619-.129-1.259-.083-1.903.052-.733.254-1.369.581-1.839.208-.296.466-.523.744-.666Z"/>
  <path fill="#fff" d="M88.314 114.744c.35-.18.73-.236 1.08-.143.47.123.836.481 1.19.827.073.072.15.147.226.218.359.336.89.698 1.379.518.072-.026.147.018.168.1.02.076-.013.157-.076.189l-.016.007c-.485.178-1.033-.014-1.63-.572-.077-.072-.154-.148-.23-.221-.33-.323-.67-.657-1.077-.763-.289-.076-.612-.026-.912.128-.192.098-.375.24-.533.418-.352.397-.603.975-.726 1.67-.112.634-.112 1.296-.112 1.937 0 .064-.034.12-.083.145a.14.14 0 0 1-.053.014c-.075.001-.135-.067-.135-.152-.001-.657-.001-1.334.116-2 .134-.757.412-1.392.804-1.834.186-.209.397-.372.62-.486Z"/>
  <path fill="#fff" d="M88.06 114.107c.38-.194.787-.261 1.167-.181.516.108.938.462 1.348.804l.115.096c.427.353.892.678 1.39.658.076-.003.136.064.138.15a.165.165 0 0 1-.082.148.112.112 0 0 1-.05.013c-.58.025-1.09-.329-1.556-.715l-.116-.097c-.386-.322-.785-.655-1.241-.75a1.516 1.516 0 0 0-1.007.158 2.064 2.064 0 0 0-.514.377c-.394.39-.694.957-.868 1.643-.175.688-.203 1.411-.208 1.964a.16.16 0 0 1-.083.143.114.114 0 0 1-.054.014c-.074.001-.134-.068-.134-.154.005-.573.035-1.324.22-2.049.188-.745.518-1.365.952-1.796.18-.178.377-.321.583-.426Z"/>
  <path fill="#fff" d="M87.984 113.48c.608-.312 1.3-.349 1.868-.097.344.152.642.402.932.644.36.3.698.584 1.105.682.073.018.119.1.102.185a.16.16 0 0 1-.08.11.119.119 0 0 1-.082.01c-.462-.112-.84-.428-1.206-.734-.275-.231-.56-.469-.871-.607-.502-.223-1.118-.188-1.66.09-.025.013-.049.025-.073.039-.515.288-.976.801-1.297 1.446-.284.567-.471 1.247-.558 2.02a.158.158 0 0 1-.082.125.114.114 0 0 1-.07.013c-.074-.009-.126-.085-.116-.171.091-.814.29-1.534.592-2.138.349-.699.852-1.258 1.417-1.574a.945.945 0 0 1 .079-.043Z"/>
  <path fill="#fff" d="M87.778 112.683c.13-.066.263-.122.399-.165a2.317 2.317 0 0 1 2.188.393c.148.12.283.262.415.398.247.257.481.499.775.599.071.024.111.111.088.194a.153.153 0 0 1-.076.098.116.116 0 0 1-.093.007c-.352-.12-.62-.397-.878-.665a4.623 4.623 0 0 0-.39-.376 2.082 2.082 0 0 0-1.962-.349 2.335 2.335 0 0 0-.36.15c-.504.258-.963.701-1.296 1.259-.381.64-.61 1.431-.66 2.286a.163.163 0 0 1-.084.135.111.111 0 0 1-.062.013c-.075-.004-.131-.077-.125-.163.054-.911.3-1.756.71-2.444.36-.605.86-1.088 1.41-1.37Z"/>
  <path fill="#fff" d="M87.318 112.2c.3-.153.629-.255.972-.296.69-.084 1.432.064 2.203.438.069.033.1.125.069.204a.153.153 0 0 1-.071.082.12.12 0 0 1-.108.002c-.73-.354-1.426-.494-2.07-.416a2.671 2.671 0 0 0-.891.271 2.52 2.52 0 0 0-.932.816c-.279.405-.446.889-.612 1.491a.158.158 0 0 1-.076.099.118.118 0 0 1-.094.007c-.071-.025-.111-.111-.088-.193.151-.55.336-1.124.659-1.594a2.826 2.826 0 0 1 1.039-.911Zm12.984-.94.279.752-4.75 2.44-.28-.752 4.751-2.44Zm4.697.187.28.754-8.64 4.432-.28-.754 8.64-4.432Zm-1.336-3.605.28.752-8.641 4.432-.279-.752 8.64-4.432Zm-.53-1.426.278.752-8.64 4.433-.279-.753 8.641-4.432Zm-5.112.93.28.752-4.057 2.078-.28-.752 4.057-2.078Zm2.595 8.047.279.754-3.728 1.91-.28-.754 3.729-1.91Z"/>
  <path fill="#E4897B" d="M101.019 162.275c-3.517.522-7.187.641-10.775.509-.912-.033-1.686-.619-1.84-1.417a23.01 23.01 0 0 1-.35-6.209c.033-.395.277-.751.649-.969l1.593-.932a1.069 1.069 0 0 1 1.087.011l.678.422c.32.198.47.543.394.882a1.724 1.724 0 0 0-.038.233c.593.051 1.221.113 1.815.164a9.404 9.404 0 0 1-2.084-2.672c-.373-.72-.643-1.567-.15-2.282.336-.489 1.041-.726 1.594-.43.563.301.58.942.746 1.478.405 1.317 1.829 2.153 3.172 2.818 1.344.664 2.812 1.368 3.445 2.611.849 1.668.068 3.954.064 5.783Z"/>
  <path fill="#F28F8F" d="m92.417 154.807-2.058-.075c1.13-.999 2.058.075 2.058.075Zm44.256-40.328-2.603 4.323 2.316 1.392c.133-1.848.153-3.868.287-5.715Z"/>
  <path fill="#455A64" d="M158.492 131.354c5.437-3.856 9.943 3.379 13.233 11.439a646.134 646.134 0 0 0 5.349 12.664c.853 1.961.502 4.168-.922 5.848l-9.689 11.424-4.322-8.295 5.365-7.218-5.46-8.857-3.554-17.005Z"/>
  <path fill="#FFA8A7" d="M123.2 281.464c.716.627 1.825.704 2.832.703 3.03-.003 6.06-.38 8.975-1.116 1.646-.415 3.269-.95 4.722-1.752a12.13 12.13 0 0 0 4.156-3.764 26.92 26.92 0 0 1-.679-5.093c-2.481-.02-5.053-.022-7.533-.022v3.586c-3.718 2.234-8.038 3.904-12.424 4.846a1.815 1.815 0 0 0-.555.738c-.241.642-.037 1.399.506 1.874Z"/>
  <path fill="#455A64" d="M144.469 277.719a27.76 27.76 0 0 1-.586-2.182 12.15 12.15 0 0 1-4.156 3.764c-1.454.803-3.076 1.337-4.722 1.752a36.997 36.997 0 0 1-8.975 1.116c-1.007.001-2.116-.076-2.832-.703-.543-.476-.748-1.232-.507-1.874.107-.285.309-.533.555-.738-.336.072-.672.15-1.008.213-1.181.223-2.406.407-3.423.984-1.016.577-1.773 1.675-1.451 2.706.293.938 1.34 1.515 2.342 1.91 3.82 1.51 8.273 1.717 12.25.57 2.481-.715 4.869-1.948 7.475-1.884 1.488.037 3.121.473 4.37-.245.92-.528 1.33-1.566 1.323-2.538-.005-.974-.357-1.914-.655-2.851Z"/>
  <path fill="#FFA8A7" d="M153.833 256.182c-1.222.173-2.421.994-2.5 2.089-.077 1.053.84 1.932 1.692 2.668l3.258 2.815c.911.787 1.878 1.604 3.105 1.901 1.245.301 2.627.001 3.654-.69a4.826 4.826 0 0 0 1.446-1.562c-.105-.654-.197-1.311-.335-1.962-.175-.826-.394-1.681-.987-2.337-1.032-1.142-2.715-1.297-4.241-1.428-1.247-.107-1.978-.75-2.911-1.377-.723-.141-1.454-.221-2.181-.117Z"/>
  <path fill="#455A64" d="M164.49 263.402a4.84 4.84 0 0 1-1.445 1.561c-1.029.691-2.41.991-3.654.69-1.227-.297-2.195-1.114-3.106-1.901a8164.96 8164.96 0 0 1-3.257-2.815c-.852-.736-1.769-1.615-1.693-2.668.08-1.095 1.279-1.915 2.5-2.089.727-.103 1.458-.024 2.181.117a12.948 12.948 0 0 0-.323-.213 15.359 15.359 0 0 0-2.666-1.323c-1.019-.389-2.17-.675-3.227-.379-1.32.371-2.165 1.615-2.219 2.842-.053 1.227.562 2.414 1.401 3.391.839.977 1.896 1.785 2.891 2.639a33.064 33.064 0 0 1 3.711 3.728c.833.983 1.608 2.018 2.63 2.85 1.021.832 2.345 1.454 3.731 1.402 1.155-.044 2.318-.625 2.775-1.568.291-.6.281-1.277.25-1.93-.07-1.451-.249-2.896-.48-4.334Z"/>
  <path fill="#455A64" d="M130.737 178.333c-2.289 25.64-.572 52.35-.572 52.35s3.994 28.648 4.578 40.688c3.254 2.857 9.514 0 9.514 0 1.788-20.942 6.509-29.008 1.359-42.047l3.684-30.047 1.466 24.115 5.58 37.59c3.386 2.181 7.773 0 7.773 0 1.812-18.423 6.056-26.8 0-41.778 7.248-29.828 4.845-41.163 3.893-44.171l-37.275 3.3Z"/>
  <path fill="#000" d="M130.737 178.333c-2.289 25.64-.572 52.35-.572 52.35s3.994 28.648 4.578 40.688c3.254 2.857 9.514 0 9.514 0 1.788-20.942 6.509-29.008 1.359-42.047l3.684-30.047 1.466 24.115 5.58 37.59c3.386 2.181 7.773 0 7.773 0 1.812-18.423 6.056-26.8 0-41.778 7.248-29.828 4.845-41.163 3.893-44.171l-37.275 3.3Z" opacity=".4"/>
  <path fill="#455A64" d="M130.737 178.333c-2.289 25.64-.572 52.35-.572 52.35s3.994 28.648 4.578 40.688c3.254 2.857 9.514 0 9.514 0 1.788-20.942 6.509-29.008 1.359-42.047l3.684-30.047 1.466 24.115 5.58 37.59c3.386 2.181 7.773 0 7.773 0 1.812-18.423 6.056-26.8 0-41.778 7.248-29.828 4.845-41.163 3.893-44.171l-37.275 3.3Z" opacity=".1"/>
  <path fill="#fff" d="M158.492 131.354c5.437-3.856 9.943 3.379 13.233 11.439a646.134 646.134 0 0 0 5.349 12.664c.853 1.961.502 4.168-.922 5.848l-9.689 11.424-4.322-8.295 5.365-7.218-5.46-8.857-3.554-17.005Z" opacity=".2"/>
  <path fill="#455A64" d="M140.467 133.781c4.863-1.333 19.018-4.075 22.604-1.206 3.133 2.507 5.169 11.149.945 22.247-1.206 3.17-1.071 6.643.498 9.685 3.135 6.073 4.279 10.906 4.279 10.906-11.373 10.281-31.402 8.694-38.984 4.316 0-12.376 2.386-24.554 2.386-24.554l8.272-21.394Z"/>
  <path fill="#fff" d="M140.467 133.781c4.863-1.333 19.018-4.075 22.604-1.206 3.133 2.507 5.169 11.149.945 22.247-1.206 3.17-1.071 6.643.498 9.685 3.135 6.073 4.279 10.906 4.279 10.906-11.373 10.281-31.402 8.694-38.984 4.316 0-12.376 2.386-24.554 2.386-24.554l8.272-21.394Z" opacity=".4"/>
  <path fill="#fff" d="M140.467 133.781c4.863-1.333 19.018-4.075 22.604-1.206 3.133 2.507 5.169 11.149.945 22.247-1.206 3.17-1.071 6.643.498 9.685 3.135 6.073 4.279 10.906 4.279 10.906-11.373 10.281-31.402 8.694-38.984 4.316 0-12.376 2.386-24.554 2.386-24.554l8.272-21.394Z" opacity=".1"/>
  <path fill="#472E03" d="M137.063 111.066c-2.657-1.438-4.267-4.034-3.984-6.784.283-2.749 2.259-5.276 4.969-6.632 2.71-1.357 6.07-1.57 9.039-.744 2.621.73 4.949 2.214 7.641 2.695 2.34.418 4.857.06 7.065.864 2.768 1.009 4.375 3.623 5.085 6.202.995 3.618.625 7.522-1.037 10.941-1.662 3.421-5.99 7.509-9.639 9.35-3.72 3.945-10.349 1.364-13.162-1.978-2.813-3.341-5.977-13.914-5.977-13.914Z"/>
  <path fill="#E4897B" d="M138.756 108.189c-1.707 2.19-2.577 4.823-2.941 7.466-.364 2.642-.246 5.316-.128 7.976.047 1.03.12 2.132.823 2.953.83.97 2.324 1.282 3.696 1.291 1.372.007 2.619 0 4.111-.045l.296 5.506c4.9 2.412 10.407.73 11.838-.983l-.25-5.394c-7.618 1.269-11.732-1.048-12.447-5.236 1.51.199 3.308-.066 4.397-1.013 1.09-.948 1.642-2.361 1.447-3.704-.087-.599-.325-1.196-.788-1.638-.765-.729-2.054-.906-3.115-.581-1.061.325-1.902 1.08-2.462 1.942-.56.863-.87 1.833-1.142 2.799-.894-.58-1.295-1.817-.916-2.741.204-.499.611-.975.524-1.499-.098-.593-.777-.96-1.098-1.488-.273-.448-.269-.997-.115-1.487.155-.491.448-.937.738-1.377-.586-.915-1.609-2.021-2.468-2.747Z"/>
  <path fill="#472E03" d="M168.097 123.94c-2.648-2.532-4.862-5.472-6.086-8.75-1.225-3.279-1.415-6.914-.136-10.177.721-1.842 1.927-3.569 3.656-4.772 1.73-1.204 4.014-1.838 6.176-1.486 3.431.56 5.89 3.496 6.51 6.541.62 3.046-.252 6.171-1.368 9.104-1.392 3.662-4.578 8.169-4.03 13.341-1.729-1.057-3.299-2.44-4.722-3.801Z"/>
  <path fill="#455A64" d="M140.466 133.78c-8.965-3.469-9.286 4.796-14.208 12.852-3.015 5.18-5.636 11.82-5.636 11.82-8.805-1.164-14.288-3.114-19.477-3.584-2.617 4.159-2.119 9.027-2.119 9.027l22.558 4.808c3.676.783 7.463-.829 9.078-3.862 6.247-11.719 13.207-23.549 9.804-31.061Z"/>
  <path fill="#fff" d="M140.466 133.78c-8.965-3.469-9.286 4.796-14.208 12.852-3.015 5.18-5.636 11.82-5.636 11.82-8.805-1.164-14.288-3.114-19.477-3.584-2.617 4.159-2.119 9.027-2.119 9.027l22.558 4.808c3.676.783 7.463-.829 9.078-3.862 6.247-11.719 13.207-23.549 9.804-31.061Z" opacity=".2"/>
  <path fill="#000" d="M161.746 186.744c-3.124 2.425-7.221 3.762-11.37 3.762l-1.075 8.768.979 16.107 1.988-23.287c3.866-.351 7.281-2.506 9.478-5.35Z" opacity=".3"/>
  <path fill="#5D1F72" d="M89.884 55.82 64.86 68.559a4.622 4.622 0 0 0-1.82 1.637 3.954 3.954 0 0 0-.634 2.121v16.156c0 2.908 3.712 5.383 7.378 3.523l4.348-2.204.393.565c.017.024.043.034.064.05l-.003.008.048.028.012.007c.716.42 1.974 1.02 2.257 1.15l-.006-.017c.13.032.281-.015.333-.145l1.6-4.027 15.974-8.099c1.521-.771 2.46-2.207 2.46-3.762V59.343c0-3.126-5.188-4.638-7.38-3.522Z"/>
  <path fill="#fff" d="M74.526 90.356c.017.024.043.034.064.05l-.003.008.048.028.012.007c.715.42 1.974 1.02 2.257 1.15l-.006-.017a.258.258 0 0 1-.157-.099l-1.55-2.228.306-.155-1.364.691.393.565Z" opacity=".2"/>
  <path fill="#fff" d="M67.897 72.643a4.552 4.552 0 0 1 1.307-1.453l.004-.003a4.54 4.54 0 0 1 .593-.36l25.023-12.736c1.085-.553 2.438.142 2.438 1.253 0-3.126-5.188-4.64-7.38-3.523L64.86 68.558a4.622 4.622 0 0 0-1.82 1.637l4.858 2.448Z" opacity=".4"/>
  <path fill="#fff" d="M67.35 90.743V74.588c0-.172.013-.344.037-.512.075-.503.258-.984.512-1.43l-4.858-2.449a3.954 3.954 0 0 0-.635 2.121v16.156c0 2.908 3.712 5.382 7.378 3.523-1.085.55-2.435-.145-2.435-1.254Z" opacity=".2"/>
  <path fill="#fff" d="M90.074 63.456c.494-.253.988-.314 1.365-.124.755.382.76 1.628.01 2.78L80.954 82.239c-.375.576-.867 1.024-1.364 1.279-.493.252-.985.31-1.363.118l-4.515-2.283c-.755-.381-.759-1.627-.008-2.78.375-.576.868-1.02 1.362-1.274.494-.253.988-.314 1.365-.124l3.143 1.59 9.138-14.035c.374-.576.867-1.02 1.36-1.273Z"/>
  <defs>
    <filter id="a" width="139.812" height="95.182" x="61.305" y="226.568" color-interpolation-filters="sRGB" filterUnits="userSpaceOnUse">
      <feFlood flood-opacity="0" result="BackgroundImageFix"/>
      <feBlend in="SourceGraphic" in2="BackgroundImageFix" result="shape"/>
      <feGaussianBlur result="effect1_foregroundBlur_1571_48003" stdDeviation="12"/>
    </filter>
  </defs>
</svg>
