<svg xmlns="http://www.w3.org/2000/svg" width="376" height="325" fill="none" viewBox="0 0 376 325">
  <path fill="#637D8B" fill-opacity=".2" d="M122.127 22.962c-5.995-11.945-34.1.768-55.805 16.23C44.617 54.656 24.8 82.176 30.794 94.123c5.996 11.944 35.534.657 57.24-14.806 21.707-15.462 40.089-44.409 34.093-56.354Z" opacity=".26"/>
  <path fill="#BEE8ED" fill-opacity=".3" d="M122.128 22.961c-2.086-4.156-6.852-5.321-13.09-4.43.233.328.444.68.634 1.057 5.995 11.946-12.388 40.891-34.093 56.354-14.178 10.1-31.695 18.414-43.813 19.64 7.696 9.438 35.544-1.505 56.268-16.268 21.708-15.462 40.091-44.408 34.094-56.353Z" opacity=".26"/>
  <path fill="#637D8B" fill-opacity=".2" d="M350.437 325.001c15.741-23.728 38.391-65.645 16.49-83.98-31.424-26.308 17.835-70.827-.849-111.299-18.685-40.472-57.753 25.296-132.491-56.66-74.738-81.957-107.012 5.058-178.353 34.401-71.342 29.342 1.698 73.861-40.767 108.263-32.688 26.481-1.972 84.129 13.907 109.275h322.063Z" opacity=".26"/>
  <path fill="#B9DDED" fill-opacity=".33" d="M350.437 325.001c15.742-23.727 38.391-65.645 16.491-83.98-31.425-26.307 17.835-70.827-.85-111.298-18.684-40.473-57.752 25.295-132.491-56.66-11.005-12.069-21.089-20.47-30.513-25.934 5.124 7.09 9.938 16.897 13.81 30.426 16.986 59.36 26.045 85.666 77.57 85.666 51.524 0-53.789 79.596-16.986 98.483 21.309 10.936 8.451 40.414-6.152 63.297h79.121Z" opacity=".26"/>
  <path fill="#DF653B" d="M211.029 200.996c.315.116 2.018.742 4.869 1.377l-4.869-1.377Zm47.22-122.703c-4.204-1.965-7.915-5.4-10.553-9.766-.948-1.57-1.781-3.334-1.887-5.264-.106-1.93.693-4.037 2.205-4.741.89-.414 1.885-.304 2.834-.16a54.253 54.253 0 0 1 8.022 1.846c-4.482-1.843-8.883-4.105-12.755-7.365-2.227-1.876-4.377-4.299-4.938-7.478-.262-1.487-.07-3.244.942-4.17.511-.466 1.159-.657 1.792-.794a14.547 14.547 0 0 1 5.39-.144c-3.111-.416-5.554-3.288-7.573-6.139-2.547-3.595-4.938-7.666-5.364-12.343-.253-2.784.536-6.107 2.745-7.065 2.036-.884 4.285.69 5.647 2.696 1.361 2.008 2.204 4.472 3.647 6.397-.098-1.846-.193-3.724.153-5.526.346-1.804 1.202-3.556 2.579-4.414 1.957-1.22 4.487-.287 6.043 1.58 1.557 1.868 2.323 4.463 2.857 7.017.934 4.467 1.302 9.071 1.646 13.657 1.433-1.057 1.572-3.924 3.186-4.5.675-.242 1.406.029 2.028.423 2.415 1.526 3.761 4.74 4.338 7.922.577 3.182.539 6.48 1.002 9.69.038.264.1.564.3.687.26.16.565-.078.776-.32.692-.787 1.321-1.795 2.258-2.023 1.49-.361 2.703 1.43 3.296 3.098 2.373 6.675 1.128 14.299-.153 21.385-.602 3.332-2.106 7.37-4.516 9.206 0 0-10.807-.99-15.947-3.392Z"/>
  <path fill="#5D1F72" d="M265.999 61.577c.296-6.127.158-12.27-.415-18.37-.034-.357-.495-.273-.462.083.547 5.828.695 11.695.442 17.552a392.84 392.84 0 0 0-11.295-22.519 389.17 389.17 0 0 0-2.197-3.989l.854-8.031c.038-.357-.427-.418-.464-.062l-.786 7.386a388.422 388.422 0 0 0-5.362-9.256c-.174-.292-.535.062-.362.352a384.284 384.284 0 0 1 5.66 9.797.198.198 0 0 0 .04.072 388.29 388.29 0 0 1 5.879 10.939c-1.985.194-3.941-.358-5.642-1.606-.254-.186-.53.264-.273.452 1.859 1.363 3.988 1.948 6.16 1.688a.122.122 0 0 0 .028-.007A396.653 396.653 0 0 1 270.718 73.7c-6.049-.925-11.311-4.938-16.263-8.938-.248-.2-.523.25-.273.451 5.1 4.12 10.53 8.239 16.787 9.083.189.45.381.9.568 1.352a413.48 413.48 0 0 1 5.927 15.117c.121.328.548.103.427-.225a409.214 409.214 0 0 0-6.552-16.6 406.302 406.302 0 0 0-5.377-12.228.293.293 0 0 0 .037-.135Zm9.543-23.967C279.498 22.64 288.037 9.253 299.031 0c3.92 14.396 4.167 30.277.704 45.185-2.733 11.767-7.84 23.856-15.049 32.99-8.987 11.387-11.465-13.56-11.608-19.553a75.512 75.512 0 0 1 2.464-21.011Z"/>
  <path fill="#DF653B" d="M279.416 85.547a289.452 289.452 0 0 1 2.122-19.616c2.066-2.284 4.37-4.15 6.953-5.612.16-.091.015-.352-.143-.26-2.499 1.413-4.728 3.207-6.742 5.378a289.29 289.29 0 0 1 2.404-14.117 123.618 123.618 0 0 0 8.061-7.893c.131-.14-.071-.346-.201-.207a122.914 122.914 0 0 1-7.77 7.626 287.809 287.809 0 0 1 3.98-17.313l8.44-8.135c.136-.131-.066-.338-.201-.207l-8.097 7.804a283.922 283.922 0 0 1 8.312-26.271c.068-.184-.175-.327-.244-.14a284.505 284.505 0 0 0-8.366 26.463 49.827 49.827 0 0 1-2.823-10.426c-.031-.195-.297-.1-.266.092a50.089 50.089 0 0 0 2.967 10.798 286.979 286.979 0 0 0-3.958 17.213c-2.09-4.124-3.603-8.525-4.546-13.177-.039-.194-.305-.1-.266.092.971 4.791 2.542 9.314 4.721 13.546a.183.183 0 0 0-.013.08 289.045 289.045 0 0 0-2.42 14.23 44.396 44.396 0 0 1-5.037-7.354c-.092-.169-.329-.001-.237.167a44.68 44.68 0 0 0 5.22 7.581 288.377 288.377 0 0 0-2.128 19.67c-.013.2.263.185.278-.012Z"/>
  <path fill="#5D1F72" d="M312.854 80.624c11.932-2.781 24.807-.439 35.952 6.099-8.067 10.135-18.765 17.378-30.437 20.608-9.212 2.55-19.691 2.949-29.085.014-11.713-3.658 4.171-17.054 8.186-19.834 4.722-3.27 9.941-5.617 15.384-6.886Z"/>
  <path fill="#DF653B" d="M281.944 105.508a171.967 171.967 0 0 1 14.284-6.6c2.465.988 4.751 2.389 6.885 4.239.132.114.245-.14.114-.254-2.064-1.789-4.268-3.151-6.634-4.138a169.454 169.454 0 0 1 10.667-3.905 98.435 98.435 0 0 0 8.926 4.306c.153.064.204-.223.052-.287a97.842 97.842 0 0 1-8.616-4.14 166.95 166.95 0 0 1 13.537-3.79l9.257 4.563c.15.073.201-.213.052-.286-2.96-1.46-5.92-2.919-8.881-4.377a166.004 166.004 0 0 1 21.543-3.558c.155-.016.146-.312-.012-.298a166.21 166.21 0 0 0-21.697 3.591 38.292 38.292 0 0 1 5.849-7.324c.12-.117-.061-.332-.179-.217-2.288 2.23-4.297 4.766-6.039 7.627a167.863 167.863 0 0 0-13.46 3.769c1.885-3.836 4.213-7.239 6.962-10.201.115-.124-.066-.34-.18-.218-2.832 3.052-5.217 6.563-7.137 10.534a.106.106 0 0 0-.059.024 169.416 169.416 0 0 0-10.75 3.939 46.445 46.445 0 0 1 2.783-8.109c.074-.163-.144-.318-.218-.154a46.668 46.668 0 0 0-2.856 8.384 172.17 172.17 0 0 0-14.324 6.62c-.142.072-.01.333.131.26Z"/>
  <path fill="#DF653B" d="M281.795 73.407c.62-7.212 3.02-14.193 6.824-19.853 1.367-2.033 2.988-3.96 5.051-4.822 2.064-.862 4.65-.388 5.964 1.694.774 1.227 1.012 2.807 1.2 4.326.532 4.328.83 8.698.889 13.072.387-7.596 1.259-15.222 3.412-22.387 1.238-4.122 3.1-8.325 6.361-10.343 1.525-.944 3.51-1.28 4.883-.05.693.62 1.136 1.554 1.514 2.485a31.75 31.75 0 0 1 2.106 8.282c-.672-4.962 1.574-9.778 3.949-13.932 2.996-5.239 6.568-10.41 11.51-12.759 2.942-1.4 6.847-1.379 8.691 1.69 1.699 2.827.799 6.875-.897 9.706-1.694 2.831-4.074 5.027-5.649 7.955 1.977-.818 3.987-1.645 6.077-1.762 2.09-.117 4.31.573 5.742 2.39 2.038 2.586 1.936 6.836.464 9.92-1.471 3.082-4.022 5.205-6.611 6.955-4.529 3.06-9.412 5.294-14.285 7.484 1.67 1.834 4.843 1.012 6.056 3.3.507.955.476 2.183.272 3.288-.79 4.286-3.804 7.53-7.063 9.574-3.258 2.043-6.866 3.177-10.196 5.052-.274.154-.577.359-.64.713-.082.46.289.845.629 1.085 1.108.784 2.434 1.392 3.022 2.76.932 2.172-.581 4.698-2.184 6.218-6.415 6.084-15.172 6.917-23.356 7.5-3.848.274-8.791-.593-11.665-3.655 0 0-2.828-17.07-2.07-25.886Z"/>
  <path fill="#5D1F72" d="M302.809 79.34a109.154 109.154 0 0 0 19.865-7.287c.377-.181.118-.865-.257-.685a108.352 108.352 0 0 1-18.964 7.033 476.479 476.479 0 0 0 24.001-30.455l9.06-1.584c.402-.07.3-.81-.101-.74l-8.332 1.457a502.871 502.871 0 0 0 8.147-11.64c.254-.375-.262-.806-.516-.431a494.462 494.462 0 0 1-8.628 12.296.298.298 0 0 0-.063.087 489.515 489.515 0 0 1-9.792 13.049c-.93-3-1.036-6.224-.291-9.305.111-.461-.478-.725-.591-.26a18.543 18.543 0 0 0 .389 10.136c.005.016.012.028.018.043a467.506 467.506 0 0 1-25.447 29.968c-1.18-9.689 1.29-19.277 3.856-28.383.129-.456-.461-.718-.591-.259-2.643 9.377-5.167 19.264-3.824 29.246-.424.456-.844.915-1.268 1.369a455.444 455.444 0 0 1-14.327 14.633c-.313.306.087.885.4.579a454.87 454.87 0 0 0 15.718-16.136.338.338 0 0 0 .069-.074 465.645 465.645 0 0 0 11.309-12.665.259.259 0 0 0 .16.007Z"/>
  <path fill="#fff" d="M295.021 57.57H71.937v120.765h223.084V57.57Z"/>
  <path fill="#DF653B" d="M161.018 78.188H89.272v82.375h71.746V78.188Z"/>
  <path fill="#5D1F72" d="m161.019 121.2-27.74-33.048h-19.091s4.344 24.844-2.051 47.893c-1.431 5.156-5.945 6.268-6.657 13.602l12.442 10.918h43.097V121.2Z" opacity=".44"/>
  <path fill="#fff" d="M135.224 101.043h-22.986v4.836h22.986v-4.836Zm6.76 42.836h-36.505v5.769h36.505v-5.769Zm-9.652-45.516c.162-4.899.521-8.68.946-10.21h-4.014v5.767h-3.428v-5.768h-4.209v5.768h-3.425v-5.768h-4.014c.425 1.531.784 5.313.945 10.21h17.199Zm-.05 10.199H115.18c-.297 13.113-1.979 28.276-6.496 32.689h30.095c-4.518-4.414-6.201-19.576-6.497-32.689Z"/>
  <path fill="#455A64" d="m220.505 237.371 13.652 31.582-5.7 3.303-23.634-35.617c-.512-.772-.692-1.8-.47-2.755l7.534-33.087c2.705.885 11.272 3.263 23.37 2.277-.111 2.836-1.289 8.356-7.5 15.786-4.829 5.784-6.826 12.909-7.491 15.888a4.307 4.307 0 0 0 .239 2.623Z"/>
  <path fill="#000" d="M229.296 271.725c-.012 3.517-4.971 8.146-4.971 8.146s-.059 1.07 1.005 1.768c.905.594 8.141-4.277 10.265-5.732.367-.251.54-.774.399-1.25-.53-1.793-2.012-4.97-2.332-5.501l-4.366 2.569Z"/>
  <path fill="#455A64" d="M235.924 203.024c-4.489 11.049-40.768 25.839-40.768 25.839l-15.06 21.651-6.1-.295s11.092-31.044 12.568-34.561c1.288-3.07 19.812-12.768 24.462-15.166.777.295 10.375 3.833 24.898 2.532Z"/>
  <path fill="#000" d="M174.358 250.23c-1.462 3.341-8.162 4.919-8.162 4.919s-.498.984.227 2.271c.617 1.095 9.512.695 12.134.553.452-.025.833-.422.894-.957.235-2.017.213-5.852.127-6.544l-5.22-.242Z"/>
  <path fill="#E4897B" d="M187.014 123.639s-.234-5.316-1.117-5.421c-.883-.106-.836 1.886-.836 1.886s-1.474-4.04-2.298-3.727c-1.33.503-.614 3.528 1.211 8.787l3.04-1.525Z"/>
  <path fill="#DF653B" d="m232.786 158.939-26.275-39.666-3.98 1.405s16.362 41.115 21.079 44.451c4.717 3.337 9.176-6.19 9.176-6.19Z"/>
  <path fill="#E4897B" d="M203.236 120.409s-2.692-4.248-2.073-5.006c.618-.758 1.659.803 1.659.803s-1.055-4.221-.256-4.615c1.291-.635 2.376 2.231 3.821 7.653l-3.151 1.165Z"/>
  <path fill="#472E03" d="M218.751 140.814s-2.982-2.092-1.824-5.612c.019-.056.049-.104.072-.155.88-1.859 2.88-2.148 4.34-.912.295.251.765.383 1.492.292 2.908-.362 7.293 1.396 7.163 9.102-.13 7.706-3.733 9.051-4.992 9.206l-.033-1.991-6.218-9.93Z"/>
  <path fill="#E4897B" d="M224.678 146.359s1.563-1.474 1.921.272c.359 1.746-.228 3.724-1.627 4.112l.163 3.103h-5.014v-2.599s-3.423-1.165-2.963-5.546c.401-3.828 1.595-4.889 1.595-4.889s2.734 2.448 5.847 2.39c0 0-.573 2.537.078 3.157Z"/>
  <path fill="#F48C6C" d="M221.617 152.139c.607-.129 2.409-2.612 2.409-2.612-2.453 2.147-3.907 1.72-3.907 1.72v2.599h1.216c.002-.934.072-1.662.282-1.707Z"/>
  <path fill="url(#a)" d="M235.924 203.022c-15.154 1.362-24.946-2.555-24.946-2.555l3.346-28.69s-13.561-8.078-16.805-10.712c-3.153-2.56-14.003-35.649-14.003-35.649l3.832-1.932 14.74 28.8s8.032 1.24 11.248 1.303c3.217.065 12.652.129 12.652.129s10.067 2.957 8.677 14.285c-1.843 15.016 1.259 35.021 1.259 35.021Z"/>
  <path fill="#E86B31" fill-opacity=".4" d="M215.9 201.874c1.191-9.811 3.758-31.495 3.278-32.182-.622-.89-12.572-6.97-18.921-9.343-6.311-2.358-16.162-34.788-16.277-35.165l-.021.011-.33.572c1.157 3.506 10.924 32.892 13.889 35.3 3.243 2.634 16.804 10.712 16.804 10.712l-3.345 28.69s1.756.699 4.923 1.405Z"/>
  <path fill="#0F4360" d="M211.03 200.496c-4.644 2.396-23.177 12.095-24.46 15.169-1.479 3.512-12.576 34.549-12.576 34.549l2.672.134c3.241-8.743 11-29.454 12.763-32.019 2.243-3.263 26.471-16.457 26.471-16.457l-4.87-1.376Z"/>
  <path fill="#DF653B" d="M341.051 241.807c-6.355 7.051-16.135 7.319-22.756.623l-.617-.623 11.037-26.756 12.336 26.756Z"/>
  <path fill="#1E5A82" d="m328.715 215.051-.058.14.061-.084 4.348 26.7c-2.237 2.483-4.904 4.107-7.703 4.899 5.431 1.557 11.355-.092 15.688-4.899l-12.336-26.756Z" opacity=".19"/>
  <path fill="#5D1F72" d="M341.053 241.809H317.68v83.193h23.373v-83.193Z"/>
  <path fill="#000" d="M341.051 241.809h-8.434v83.193h8.434v-83.193Z" opacity=".06"/>
  <path fill="#5D1F72" d="m334.39 227.358-5.675-12.307-5.076 12.307h10.751ZM192.661 120.163c9.625 0 17.428-9.296 17.428-20.763 0-11.467-7.803-20.763-17.428-20.763-9.626 0-17.429 9.296-17.429 20.763 0 11.467 7.803 20.763 17.429 20.763Z"/>
  <path fill="#DF653B" d="M205.321 107.442c3.729-10.572-.441-22.743-9.315-27.185-8.874-4.442-19.09.526-22.819 11.098-3.729 10.571.442 22.742 9.316 27.185 8.873 4.442 19.09-.527 22.818-11.098Z"/>
  <path fill="#fff" d="M189.256 115.257c7.351 0 13.31-7.099 13.31-15.857s-5.959-15.857-13.31-15.857c-7.351 0-13.311 7.1-13.311 15.857 0 8.758 5.96 15.857 13.311 15.857Z"/>
  <path fill="#DF653B" d="M189.258 87.559c-5.491 0-9.942 5.302-9.942 11.843s4.451 11.844 9.942 11.844c5.49 0 9.941-5.303 9.941-11.844 0-6.54-4.45-11.843-9.941-11.843Zm0 19.885c-3.728 0-6.75-3.6-6.75-8.042 0-4.441 3.022-8.042 6.75-8.042s6.75 3.6 6.75 8.042c.001 4.442-3.022 8.042-6.75 8.042Zm0-4.24c-1.762 0-3.191-1.702-3.191-3.802s1.429-3.802 3.191-3.802c1.762 0 3.191 1.703 3.191 3.802 0 2.1-1.428 3.802-3.191 3.802Z"/>
  <path fill="#5D1F72" d="M266.873 98.287h-71.417v-3.275l-6.767 4.654 6.767 4.656v-3.276h71.417v-2.759Z"/>
  <path fill="#DF653B" d="M274.797 88.86H252.9l-7.875 9.431h21.898l7.874-9.432ZM245.025 101h21.898l7.874 9.431H252.9L245.025 101Zm31.611 70.828h-27.292v22.535h27.292v-22.535Z"/>
  <path fill="#DF653B" d="M255.898 175.254c-2.859 3.406-2.859 8.928 0 12.332 2.859 3.406 7.494 3.406 10.352 0l-10.352-12.332Z"/>
  <path fill="#5D1F72" d="M269.731 191.762c2.859-3.406 2.859-8.928 0-12.333-2.859-3.405-7.494-3.405-10.352 0l10.352 12.333Z"/>
  <path fill="#DF653B" d="M280.772 151.52h-20.901v20.496h20.901V151.52Z"/>
  <path fill="#5D1F72" d="m268.471 167.119 5.691-3.566c.813-.51.813-1.897 0-2.407l-5.691-3.566c-.76-.476-1.672.18-1.672 1.203v7.133c0 1.022.912 1.678 1.672 1.203Zm16.437 27.119h-27.293v33.154h27.293v-33.154Z"/>
  <path fill="#DF653B" d="M261.984 200.125v20.713h18.555v-20.713h-18.555Zm16.946 1.955v10.94l-2.208-2.631-6.625 7.902-4.065-4.833-2.441 2.908V202.08h15.339Z"/>
  <path fill="#DF653B" d="M269.775 208.07c0-1.126-.766-2.039-1.71-2.039-.945 0-1.711.913-1.711 2.039 0 1.125.766 2.038 1.711 2.038.944 0 1.71-.913 1.71-2.038Zm-227.85-11.528c11.549-4.166 18.076-18.696 14.58-32.455-3.497-13.758-15.694-21.534-27.243-17.368-11.548 4.166-18.076 18.696-14.579 32.454 3.497 13.759 15.694 21.535 27.242 17.369Z"/>
  <path fill="#fff" d="M50.294 171.631s-6.582 7.748-14.703 7.748c-8.12 0-14.704-7.748-14.704-7.748s6.582-7.748 14.704-7.748c8.12.001 14.703 7.748 14.703 7.748Z"/>
  <path fill="#DF653B" d="M39.413 171.968c0-2.516-1.712-4.554-3.823-4.554-2.111 0-3.822 2.039-3.822 4.554s1.711 4.555 3.822 4.555c2.112 0 3.823-2.039 3.823-4.555Z"/>
  <path fill="#5D1F72" d="M50.294 171.629s-6.578 7.746-14.701 7.746c-7.62 0-13.874-6.811-14.624-7.654l20.859 24.855c7.05-2.498 12.607-9.119 14.703-17.518l-6.237-7.429Z" opacity=".5"/>
  <path fill="#DF653B" d="M328.095 169.117c12.409 0 22.469-11.984 22.469-26.767 0-14.784-10.06-26.768-22.469-26.768s-22.468 11.984-22.468 26.768c0 14.783 10.059 26.767 22.468 26.767Z"/>
  <path fill="#fff" d="M343.124 145.658v-6.62l-4.131-1.107a15.099 15.099 0 0 0-.57-1.64l2.264-4.263-3.929-4.68-3.577 2.697a10.34 10.34 0 0 0-1.377-.678l-.929-4.922h-5.556l-.93 4.922c-.473.192-.933.417-1.377.678l-3.578-2.697-3.928 4.68 2.263 4.263a15.312 15.312 0 0 0-.569 1.64l-4.132 1.107v6.62l4.132 1.107c.161.564.351 1.112.569 1.64l-2.263 4.262 3.928 4.681 3.578-2.697c.444.26.904.487 1.377.679l.93 4.921h5.556l.929-4.921c.474-.192.934-.418 1.377-.679l3.577 2.697 3.929-4.681-2.264-4.262c.219-.528.409-1.077.57-1.64l4.131-1.107Zm-15.028 2.257c-2.581 0-4.673-2.492-4.673-5.567s2.092-5.567 4.673-5.567 4.673 2.492 4.673 5.567c0 3.074-2.092 5.567-4.673 5.567Z"/>
  <path fill="#DF653B" d="M243.063 303.662v-22.787h-41.575v-22.777h-41.576v66.765H284.2v-21.201h-41.137Z"/>
  <path fill="#5D1F72" d="M201.488 280.875V325l41.576-44.125h-41.576Z"/>
  <path fill="#DF653B" d="m243.062 303.66 41.138 21.201V303.66h-41.138Z"/>
  <path fill="#DF653B" d="M201.487 287.643v37.224h-20.955l-8.081-9.637v-3.669l2.91-7.278-5.281-21.133 18.874-10.338c.255.204 6.184 7.259 12.533 14.831Z" opacity=".46"/>
  <path fill="#fff" d="M188.321 311.562h-15.87v3.669h4.56v.423c0 2.221 1.511 4.021 3.375 4.021 1.863 0 3.375-1.801 3.375-4.021v-.423h4.559v-3.669h.001Zm-7.635-21.332h-2.202v19.421h3.805V290.23h-1.603Zm-5.29-6c-1.076 0-1.951 1.042-1.951 2.322 0 1.281.875 2.322 1.951 2.322h1.948v-2.322c0-1.28-.874-2.322-1.948-2.322Z"/>
  <path fill="#fff" d="M179.365 269.48c-7.209.596-12.974 7.693-13.258 16.295-.169 5.125 1.565 9.769 4.428 13.015 2.109 2.39 3.365 5.653 3.365 9.12v1.741h3.446V290.23h-1.949c-1.703 0-3.089-1.649-3.089-3.678 0-2.028 1.386-3.678 3.089-3.678 1.702 0 3.087 1.65 3.087 3.678v2.321h3.804v-2.321c0-2.028 1.384-3.678 3.087-3.678 1.703 0 3.088 1.65 3.088 3.678s-1.385 3.678-3.088 3.678h-1.949v19.421h3.445v-1.674c0-3.429 1.16-6.734 3.264-9.074 2.793-3.106 4.541-7.529 4.541-12.441-.001-9.805-6.958-17.674-15.311-16.982Z"/>
  <path fill="#fff" d="M187.325 286.552c0-1.28-.875-2.322-1.951-2.322-1.075 0-1.948 1.042-1.948 2.322v2.322h1.948c1.075 0 1.951-1.041 1.951-2.322Z"/>
  <path fill="#DF653B" d="M149.248 223.273H63.859V325h85.389V223.273Z"/>
  <path fill="#DF653B" d="M63.86 223.273 149.247 325H63.859V223.273Z"/>
  <path fill="#5D1F72" d="m106.553 274.137-42.694 50.864h85.389l-42.695-50.864Z"/>
  <path fill="#455A64" d="m304.447 280.064 1.715 35.893h-5.214l-8.345-34.154c-.605-10.714-1.322-36.33-1.501-42.948 5.512 1.128 12.585 1.464 15.068 1.556 1.715 13.081-1.723 39.653-1.723 39.653Z"/>
  <path fill="#455A64" d="M306.212 240.758s-.632 13.041-12.056 14.78c-9.087 1.392-19.591 8.529-19.591 8.529L263.703 296.3l-6.484-.132 5.639-40.456 21.63-19.446c2.926 3.049 15.947 3.903 20.776 4.117l.948.375Z"/>
  <path fill="#0F4360" d="m265.577 257.863 22.488-22.005-2.858-.237-22.346 20.091-5.638 40.455 1.497.029 6.857-38.333Z"/>
  <path fill="#E4897B" d="M291.896 183.922c.369 3.184 2.796 4.991 5.718 4.743l-.071 4.462 5.801-1.345s-.486-3.125-.073-4.959c-2.565.608-3.133-2.114-3.133-2.114 1.505-.997.867-2.932.32-3.382-.55-.449-1.231.353-1.231.353s-.508 3.426-.807 2.181c-.269-1.117-.516-4.404-1.831-4.441-2.194-.063-2.837-.459-2.837-.459a3.078 3.078 0 0 1-1.29-1.082c-.273 1.319-.858 3.512-.566 6.043Z"/>
  <path fill="#472E03" d="M299.225 181.679s.682-.803 1.231-.354c.548.451 1.186 2.384-.319 3.382 0 0 .504 4.302 2.977 4.368 0 0 3.538-13.257-.393-16.334-9.73-7.615-13.249 4.396-9.612 6.028 0 0 1.284.588 3.478.65 1.315.038 1.562 3.324 1.831 4.442.299 1.242.807-2.182.807-2.182Z"/>
  <path fill="#F48C6C" d="M298.844 189.408c.338-.302 1.265-2.377 1.265-2.377-.731.904-2.495 1.63-2.495 1.63l-.071 4.463 1.105-.257c-.007-1.63.027-3.307.196-3.459Z"/>
  <path fill="url(#b)" d="M304.785 191.55s5.151 4.167 3.631 17.769c-1.52 13.602-3.483 26.585-1.33 31.119 0 0-19.252-.412-22.672-4.258 0 0 2.412-18.495 7.6-32.424 1.729-4.643 1.52-8.312 5.192-11.06 1.597-1.196 4.904-1.53 7.579-1.146Z"/>
  <path fill="#E4897B" d="M300.985 215.406s-6.08 14.486-7.516 15.391c-1.436.906-19.759.504-19.759.504s-6.923 2.113-9.034-3.521h9.034l13.595-2.113 4.645-15.089 9.035 4.828Z"/>
  <path fill="#000" d="M300.944 315.957c-1.413 3.371-8.018 5.012-8.018 5.012s-.483.995.26 2.266c.634 1.083 9.522.495 12.14.298.453-.034.826-.439.881-.975.205-2.023.047-5.91-.049-6.601h-5.214Zm-43.28-19.815c-1.412 3.37-8.017 5.012-8.017 5.012s-.484.994.26 2.265c.633 1.083 9.521.495 12.14.297.452-.034.826-.438.881-.974.204-2.022.046-5.911-.049-6.601h-5.215v.001Z"/>
  <path fill="url(#c)" d="M289.801 213.36s1.736-5.047 3.264-9.815c1.797-5.607 3.696-11.038 7.906-10.469 8.27 1.12 1.645 24.465 1.645 24.465l-12.815-4.181Z"/>
  <path fill="url(#d)" d="M301.907 193.301v.03c6.807 2.713.705 24.205.705 24.205l-2.226-.729c-1.572 3.665-5.761 13.251-6.917 13.991-.615.381-4.294.533-8.324.575a223.344 223.344 0 0 0-.43 2.701c3.161-.07 8.943-.281 9.655-.888.986-.84 7.537-12.007 7.537-12.007l2.541-.333s2.047-11.085 2.183-18.729c.145-7.642-4.724-8.816-4.724-8.816Z"/>
  <path fill="#000" d="M116.6 264.337c1.077 4.089 8.248 7.349 8.248 7.349s.392 1.22-.635 2.488c-.876 1.081-10.769-1.485-13.681-2.268-.503-.136-.862-.67-.842-1.284.076-2.316.841-6.649 1.052-7.403l5.858 1.118Zm27.955-17.614c2.022 3.544 9.678 4.2 9.678 4.2s.671 1.034-.006 2.601c-.576 1.336-10.671 2.28-13.648 2.53-.514.044-.987-.345-1.116-.939-.489-2.243-.806-6.655-.786-7.45l5.878-.942Z"/>
  <path fill="url(#e)" d="M84.525 171.644s-1.458-41.278.486-47.644h4.857s1.457 40.507 3.561 45.908c2.106 5.4-8.904 1.736-8.904 1.736Z"/>
  <path fill="#455A64" d="M101.709 204.453s27.079.423 32.411 3.652c5.333 3.229 10.856 38.562 10.856 38.562l-6.794 1.349-7.938-25.37s-25.869-.719-28.535-18.193Z"/>
  <path fill="#455A64" d="M84.26 204.967s-.666 18.092 9.555 18.519c10.221.427 24.886.57 24.886.57l-8.666 39.033 7.443 1.567s14.443-43.877 14.554-48.15c.111-4.274-28.673-12.221-28.673-12.221l-19.098.682Z"/>
  <path fill="url(#f)" d="M96.233 165.352s7.086 6.702 5.499 13.059c-1.586 6.357 3.138 26.255 3.138 26.255l-20.589.376s2.74-18.212.29-26.287c-2.452-8.075 1.981-15.981 11.662-13.403Z"/>
  <path fill="url(#g)" d="M86.337 170.936s1.658-6.787 9.446-.859c7.788 5.927 11.799 7.184 11.799 7.184l16.191-15.531 4.003 2.577-18.39 22.145c-.001.001-26.835-2.629-23.05-15.516Z"/>
  <path fill="#E4897B" d="m94.585 162.606-.222 2.726h-4.725v-4.226s-2.43-1.162-2.123-3.293c.308-2.132 2.208-.934 2.208-.934 2.264-.102 2.264-3.649 2.264-3.649 1.283 1.066 5.14.085 5.14.085 2.041 7.99-2.542 9.291-2.542 9.291Z"/>
  <path fill="#F48C6C" d="M89.812 165.332h-.171v-4.227s.839 1.59.171 4.227Zm4.773-2.725-.222 2.726H93.12c.03-.999-.005-1.884-.213-2.01-.5-.301-1.844-1.8-1.844-1.8 1.092.753 3.522 1.084 3.522 1.084Z"/>
  <path fill="#472E03" d="M97.129 153.316s-3.856.981-5.14-.085c0 0 0 3.547-2.263 3.649 0 0-1.9-1.198-2.208.933-.308 2.132 2.122 3.293 2.122 3.293s.84 1.59.172 4.227c-.217.843-.581 1.788-1.177 2.83-1.729 3.023-1.3 4.197.252 7.791 1.551 3.6-7.21 9.705-10.143 3.961-2.936-5.738-.925-6.207 1.592-12.8 2.517-6.593 2.636-6.944 2.096-10.436-.546-3.498 1.366-8.467 6.328-10.334 4.781-1.801 10.496.511 8.369 6.971Z"/>
  <path fill="#DF653B" d="m104.875 204.664-3.592.061c-.487-7.887-1.895-17.127-5.751-18.988-3.14-1.514-5.341-4.147-6.817-6.577 3.131 2.978 8.396 4.808 12.832 5.886.641 8.295 3.328 19.618 3.328 19.618Z" opacity=".2"/>
  <path fill="#0F4360" d="M117.478 264.656s14.443-43.877 14.554-48.15c.111-4.274-28.673-12.221-28.673-12.221l-.896.032-1.182.408s25.387 10.465 26.52 12.488c1.009 1.803-9.069 39.123-11.279 47.241l.956.202Z" opacity=".67"/>
  <path fill="#E4897B" d="M127.619 164.211s7.867-2.627 6.359-3.574c-.206-.129-5.537-.06-7.998-.02-.793.012-1.555.372-2.159 1.017l-.018.113 3.816 2.464ZM89.382 124.49l-.223-7.588c-2.6.084-3.403 5.849-3.587 7.588h3.81Z"/>
  <path fill="#9DD5FC" d="m43.022 291.925.21.624c2.169-.687 5.266-2.146 7.582-5.204 3.947-5.214 9.676-10.55 12.467-17.008 3.814-8.823 17.022-20.025 17.022-20.025s-14.054 3.078-22.28 14.138c-8.224 11.06-8.438 17.11-9.194 20.65-.807 3.779-3.63 5.801-5.807 6.825Z"/>
  <path fill="#DF653B" d="m43.066 292.058.166.491c2.168-.687 5.266-2.146 7.581-5.204 3.947-5.214 9.676-10.55 12.468-17.008 3.814-8.823 17.022-20.025 17.022-20.025s-16.483 8.141-19.705 15.202c-3.223 7.063-1.865 6.273-5.386 12.238-3.521 5.964-4.474 7.732-6.915 10.559-1.562 1.808-3.808 3.068-5.23 3.747Z"/>
  <path fill="#9DD5FC" d="M42.17 290.827s.876-2.849-1.804-11.756c-2.68-8.906-6.676-17.007-7.48-27.335-.805-10.328 3.144-38.264 2.85-39.946-.294-1.681 8.373 28.391 6.172 42.015-2.2 13.625-1.932 18.025-.49 24.367 1.44 6.341 2.188 11.58 1.977 13.227l-1.226-.572Z"/>
  <path fill="#DF653B" d="M39.43 272.077c1.322 3.933 3.63 14.112 3.26 16.842-.036.254-.174.16-.398-.22-.07-1.782-.477-4.814-1.926-9.626-2.68-8.906-6.676-17.006-7.48-27.335-.805-10.328 3.144-38.263 2.85-39.945 0 0 2.723 21.37 1.04 37.205-1.205 11.337 1.331 19.147 2.653 23.079Z"/>
  <path fill="#9DD5FC" d="M44.391 288.426s-3.133-14.521 1.767-26.899c4.9-12.377 12.781-28.228 12.871-34.586 0 0 2.407 30.259-4.057 38.64-6.465 8.381-11.05 9.627-9.765 22.812l-.816.033Z"/>
  <path fill="#DF653B" d="M51.146 259.413c-7.198 10.17-7.663 22.086-6.467 27.649.093.433.263.7.485.845-1.122-12.723 3.425-14.05 9.807-22.326 6.464-8.38 4.057-38.64 4.057-38.64s-.683 22.301-7.882 32.472Z"/>
  <path fill="#9DD5FC" d="m40.337 288.513-2.624-8.354C27.991 249.665 7.2 250.806 7.2 250.806c2.203.287 14.202 9.313 16.617 18.213 1.134 4.181 5.019 6.825 8.399 8.492 2.438 1.202 4.35 3.574 5.294 6.509a58.696 58.696 0 0 1 1.303 4.762l1.525-.269Z"/>
  <path fill="#DF653B" d="M27.542 269.063c2.833 5.279 6.118 7.201 8.971 7.665C26.385 249.769 7.2 250.806 7.2 250.806c.436.057 1.263.465 2.314 1.136 4.18 2.232 13.025 7.798 18.029 17.121Zm29.708 17.48H33.533c-2.831 0-4.975 3.047-4.48 6.368l4.258 28.609c.3 2.013 1.77 3.48 3.485 3.48h17.19c1.716 0 3.186-1.467 3.485-3.48l4.259-28.609c.493-3.321-1.65-6.368-4.482-6.368Z"/>
  <path fill="#DF653B" d="M61.629 290.49c-.535-2.245-2.265-3.947-4.38-3.947H33.532c-2.115 0-3.846 1.701-4.38 3.947h32.476Z"/>
  <path fill="#DF653B" d="M57.25 286.543H51.2c2.832 0 4.976 3.047 4.481 6.368l-4.258 28.609c-.3 2.013-1.77 3.48-3.486 3.48h6.05c1.717 0 3.186-1.467 3.486-3.48l4.258-28.609c.495-3.321-1.65-6.368-4.48-6.368Z"/>
  <defs>
    <linearGradient id="a" x1="184.427" x2="236.114" y1="157.854" y2="158.512" gradientUnits="userSpaceOnUse">
      <stop stop-color="#FB8D48"/>
      <stop offset=".2" stop-color="#ED7136"/>
      <stop offset=".4" stop-color="#C54E47"/>
      <stop offset=".4" stop-color="#C14F49"/>
      <stop offset=".6" stop-color="#9D3863"/>
      <stop offset=".8" stop-color="#5E1F72"/>
    </linearGradient>
    <linearGradient id="b" x1="295.5" x2="289.839" y1="237" y2="205.7" gradientUnits="userSpaceOnUse">
      <stop stop-color="#FB8D48"/>
      <stop offset=".2" stop-color="#ED7136"/>
      <stop offset=".4" stop-color="#C54E47"/>
      <stop offset=".4" stop-color="#C14F49"/>
      <stop offset=".6" stop-color="#9D3863"/>
      <stop offset=".8" stop-color="#5E1F72"/>
    </linearGradient>
    <linearGradient id="c" x1="297" x2="297.109" y1="222.5" y2="196.467" gradientUnits="userSpaceOnUse">
      <stop stop-color="#FB8D48"/>
      <stop offset=".2" stop-color="#ED7136"/>
      <stop offset=".4" stop-color="#C54E47"/>
      <stop offset=".4" stop-color="#C14F49"/>
      <stop offset=".6" stop-color="#9D3863"/>
      <stop offset=".8" stop-color="#5E1F72"/>
    </linearGradient>
    <linearGradient id="d" x1="303" x2="295.667" y1="234" y2="210.613" gradientUnits="userSpaceOnUse">
      <stop stop-color="#FB8D48"/>
      <stop offset=".2" stop-color="#ED7136"/>
      <stop offset=".4" stop-color="#C54E47"/>
      <stop offset=".4" stop-color="#C14F49"/>
      <stop offset=".6" stop-color="#9D3863"/>
      <stop offset=".8" stop-color="#5E1F72"/>
    </linearGradient>
    <linearGradient id="e" x1="84.169" x2="93.733" y1="145.036" y2="145.073" gradientUnits="userSpaceOnUse">
      <stop stop-color="#FB8D48"/>
      <stop offset=".2" stop-color="#ED7136"/>
      <stop offset=".4" stop-color="#C54E47"/>
      <stop offset=".4" stop-color="#C14F49"/>
      <stop offset=".6" stop-color="#9D3863"/>
      <stop offset=".8" stop-color="#5E1F72"/>
    </linearGradient>
    <linearGradient id="f" x1="84.271" x2="104.947" y1="182.158" y2="182.367" gradientUnits="userSpaceOnUse">
      <stop stop-color="#FB8D48"/>
      <stop offset=".2" stop-color="#ED7136"/>
      <stop offset=".4" stop-color="#C54E47"/>
      <stop offset=".4" stop-color="#C14F49"/>
      <stop offset=".6" stop-color="#9D3863"/>
      <stop offset=".8" stop-color="#5E1F72"/>
    </linearGradient>
    <linearGradient id="g" x1="86.698" x2="127.889" y1="172.375" y2="173.725" gradientUnits="userSpaceOnUse">
      <stop stop-color="#FB8D48"/>
      <stop offset=".2" stop-color="#ED7136"/>
      <stop offset=".4" stop-color="#C54E47"/>
      <stop offset=".4" stop-color="#C14F49"/>
      <stop offset=".6" stop-color="#9D3863"/>
      <stop offset=".8" stop-color="#5E1F72"/>
    </linearGradient>
  </defs>
</svg>
