<svg xmlns="http://www.w3.org/2000/svg" width="550" height="460" fill="none" viewBox="0 0 550 460">
  <g clip-path="url(#a)">
    <g opacity=".5">
      <path fill="#E86B31" d="M119.31 256.949v-22.555l-15.359 16.719v27.802h-9.895v-39.844H91.54l-7.165-6.669-7.204 6.669h-2.474v53.771H38.289v52.776h105.014v-88.669H119.31Zm-27.77 14.297H77.213v-1.458H91.54v1.458Zm0-2.91H77.213v-1.457H91.54v1.457Zm0-2.908H77.213v-1.455H91.54v1.455Zm0-2.91H77.213v-1.454H91.54v1.454Zm0-2.906H77.213v-1.458H91.54v1.458Zm0-2.909H77.213v-1.457H91.54v1.457Zm0-2.909H77.213v-1.454H91.54v1.454Zm0-2.909H77.213v-1.455H91.54v1.455Zm0-2.909H77.213v-1.454H91.54v1.454Zm0-2.907H77.213v-1.457H91.54v1.457Zm0-2.908H77.213v-1.455H91.54v1.455Zm25.821 70.851h-1.487v-71.58l1.487-1.624v73.204Z" opacity=".58"/>
      <path fill="#E86B31" d="M227.768 256.949v-22.555l-15.358 16.719v27.802h-9.895v-39.844h-2.516l-7.165-6.669-7.204 6.669h-2.474v53.771h-36.408v52.776h105.014v-88.669h-23.994Zm-27.769 14.297h-14.327v-1.458h14.327v1.458Zm0-2.91h-14.327v-1.457h14.327v1.457Zm0-2.908h-14.327v-1.455h14.327v1.455Zm0-2.91h-14.327v-1.454h14.327v1.454Zm0-2.906h-14.327v-1.458h14.327v1.458Zm0-2.909h-14.327v-1.457h14.327v1.457Zm0-2.909h-14.327v-1.454h14.327v1.454Zm0-2.909h-14.327v-1.455h14.327v1.455Zm0-2.909h-14.327v-1.454h14.327v1.454Zm0-2.907h-14.327v-1.457h14.327v1.457Zm0-2.908h-14.327v-1.455h14.327v1.455Zm25.821 70.851h-1.487v-71.58l1.487-1.624v73.204Z" opacity=".6"/>
      <path fill="#E86B31" d="M188.569 294.84v-50.979h-2.306v-5.159h-17.842v5.159h-2.292v64.088h-16.745v-29.023h-24.382v38.086h-11.781v-68.221H89.203v52.414h-2.818v-31.201H82.04l-12.112-6.371v6.371H67.28v38.534h-5.882v-52.183h-5.947v-18.306h-.814v18.306H48.69v89.376h154.906v-50.89h-15.027v-.001Zm-128.604-4.955h-9.813v-1.135h9.813v1.135Zm0-2.624h-9.813v-1.134h9.813v1.134Zm0-2.628h-9.813v-1.134h9.813v1.134Zm0-2.624h-9.813v-1.134h9.813v1.134Zm0-2.624h-9.813v-1.135h9.813v1.135Zm0-2.628h-9.813v-1.134h9.813v1.134Zm0-2.624h-9.813v-1.135h9.813v1.135Zm0-2.625h-9.813v-1.134h9.813v1.134Zm0-2.627h-9.813v-1.135h9.813v1.135Zm0-2.625h-9.813v-1.134h9.813v1.134Zm0-2.623h-9.813v-1.135h9.813v1.135Zm0-2.629h-9.813v-1.134h9.813v1.134Zm0-2.624h-9.813v-1.135h9.813v1.135Zm34.413 15.628h-2.922v-2.907h2.922v2.907Zm0-4.849h-2.922v-2.91h2.922v2.91Zm0-4.852h-2.922v-2.906h2.922v2.906Zm0-4.848h-2.922v-2.91h2.922v2.91Zm0-4.852h-2.922v-2.91h2.922v2.91Zm5.55 19.401h-2.92v-2.907h2.92v2.907Zm0-4.849h-2.92v-2.91h2.92v2.91Zm0-4.852h-2.92v-2.906h2.92v2.906Zm0-4.848h-2.92v-2.91h2.92v2.91Zm0-4.852h-2.92v-2.91h2.92v2.91Zm5.553 19.401h-2.923v-2.907h2.923v2.907Zm0-4.849h-2.923v-2.91h2.923v2.91Zm0-4.852h-2.923v-2.906h2.923v2.906Zm0-4.848h-2.923v-2.91h2.923v2.91Zm0-4.852h-2.923v-2.91h2.923v2.91Zm5.548 19.401h-2.918v-2.907h2.918v2.907Zm0-4.849h-2.918v-2.91h2.918v2.91Zm0-4.852h-2.918v-2.906h2.918v2.906Zm0-4.848h-2.918v-2.91h2.918v2.91Zm79.839 59.373h-3.036v-3.024h3.036v3.024Zm0-6.056h-3.036v-3.025h3.036v3.025Zm0-6.056h-3.036v-3.024h3.036v3.024Zm0-6.056h-3.036v-3.024h3.036v3.024Zm5.635 18.168h-3.036v-3.024h3.036v3.024Zm0-6.056h-3.036v-3.025h3.036v3.025Zm0-6.056h-3.036v-3.024h3.036v3.024Zm0-6.056h-3.036v-3.024h3.036v3.024Zm5.634 18.168h-3.04v-3.024h3.04v3.024Zm0-6.056h-3.04v-3.025h3.04v3.025Zm0-6.056h-3.04v-3.024h3.04v3.024Zm0-6.056h-3.04v-3.024h3.04v3.024Z" opacity=".29"/>
      <path fill="#E86B31" d="M259.818 289.423v-45.562h-2.306v-5.159H239.67v5.159h-2.292v64.089h-16.745v-29.024h-24.382v38.086H184.47v-68.221h-24.018v52.414h-2.818v-31.201h-4.345l-12.112-6.371v6.371h-2.649v38.534h-5.881v-52.183h-5.948v-18.306h-.814v18.306h-5.947v89.376h154.906v-56.306h-15.026v-.002Zm-128.604.461h-9.813v-1.135h9.813v1.135Zm0-2.624h-9.813v-1.134h9.813v1.134Zm0-2.628h-9.813v-1.134h9.813v1.134Zm0-2.624h-9.813v-1.134h9.813v1.134Zm0-2.624h-9.813v-1.135h9.813v1.135Zm0-2.628h-9.813v-1.134h9.813v1.134Zm0-2.624h-9.813v-1.135h9.813v1.135Zm0-2.625h-9.813v-1.134h9.813v1.134Zm0-2.627h-9.813v-1.135h9.813v1.135Zm0-2.625h-9.813v-1.134h9.813v1.134Zm0-2.623h-9.813v-1.135h9.813v1.135Zm0-2.629h-9.813v-1.134h9.813v1.134Zm0-2.624h-9.813v-1.135h9.813v1.135Zm34.413 15.628h-2.922V271.1h2.922v2.907Zm0-4.849h-2.922v-2.91h2.922v2.91Zm0-4.852h-2.922V261.4h2.922v2.906Zm0-4.848h-2.922v-2.91h2.922v2.91Zm0-4.852h-2.922v-2.91h2.922v2.91Zm5.549 19.401h-2.918V271.1h2.918v2.907Zm0-4.849h-2.918v-2.91h2.918v2.91Zm0-4.852h-2.918V261.4h2.918v2.906Zm0-4.848h-2.918v-2.91h2.918v2.91Zm0-4.852h-2.918v-2.91h2.918v2.91Zm5.554 19.401h-2.923V271.1h2.923v2.907Zm0-4.849h-2.923v-2.91h2.923v2.91Zm0-4.852h-2.923V261.4h2.923v2.906Zm0-4.848h-2.923v-2.91h2.923v2.91Zm0-4.852h-2.923v-2.91h2.923v2.91Zm5.549 19.401h-2.918V271.1h2.918v2.907Zm0-4.849h-2.918v-2.91h2.918v2.91Zm0-4.852h-2.918V261.4h2.918v2.906Zm0-4.848h-2.918v-2.91h2.918v2.91Zm81.379 51.345h-2.621v-2.611h2.621v2.611Zm0-5.228h-2.621v-2.611h2.621v2.611Zm0-5.228h-2.621v-2.611h2.621v2.611Zm0-5.228h-2.621v-2.611h2.621v2.611Zm4.864 15.684h-2.621v-2.611h2.621v2.611Zm0-5.228h-2.621v-2.611h2.621v2.611Zm0-5.228h-2.621v-2.611h2.621v2.611Zm0-5.228h-2.621v-2.611h2.621v2.611Zm4.864 15.684h-2.625v-2.611h2.625v2.611Zm0-5.228h-2.625v-2.611h2.625v2.611Zm0-5.228h-2.625v-2.611h2.625v2.611Zm0-5.228h-2.625v-2.611h2.625v2.611Z" opacity=".41"/>
      <path fill="#E86B31" d="M352.127 256.949v-22.555l-15.359 16.719v27.802h-9.895v-39.844h-2.516l-7.165-6.669-7.203 6.669h-2.475v53.771h-36.407v52.776h105.014v-88.669h-23.994Zm-27.77 14.297H310.03v-1.458h14.327v1.458Zm0-2.91H310.03v-1.457h14.327v1.457Zm0-2.908H310.03v-1.455h14.327v1.455Zm0-2.91H310.03v-1.454h14.327v1.454Zm0-2.906H310.03v-1.458h14.327v1.458Zm0-2.909H310.03v-1.457h14.327v1.457Zm0-2.909H310.03v-1.454h14.327v1.454Zm0-2.909H310.03v-1.455h14.327v1.455Zm0-2.909H310.03v-1.454h14.327v1.454Zm0-2.907H310.03v-1.457h14.327v1.457Zm0-2.908H310.03v-1.455h14.327v1.455Zm25.822 70.851h-1.486v-71.58l1.486-1.624v73.204Z" opacity=".59"/>
      <path fill="#E86B31" d="M460.589 256.949v-22.555l-15.359 16.719v27.802h-9.895v-39.844h-2.516l-7.165-6.669-7.204 6.669h-2.474v53.771h-36.408v52.776h105.014v-88.669h-23.993Zm-27.77 14.297h-14.327v-1.458h14.327v1.458Zm0-2.91h-14.327v-1.457h14.327v1.457Zm0-2.908h-14.327v-1.455h14.327v1.455Zm0-2.91h-14.327v-1.454h14.327v1.454Zm0-2.906h-14.327v-1.458h14.327v1.458Zm0-2.909h-14.327v-1.457h14.327v1.457Zm0-2.909h-14.327v-1.454h14.327v1.454Zm0-2.909h-14.327v-1.455h14.327v1.455Zm0-2.909h-14.327v-1.454h14.327v1.454Zm0-2.907h-14.327v-1.457h14.327v1.457Zm0-2.908h-14.327v-1.455h14.327v1.455Zm25.822 70.851h-1.487v-71.58l1.487-1.624v73.204Z" opacity=".42"/>
      <path fill="#E86B31" d="M421.394 294.84v-50.979h-2.307v-5.159h-17.841v5.159h-2.293v64.088H382.21v-29.023h-24.383v38.086h-11.781v-68.221h-24.017v52.414h-2.819v-31.201h-4.345l-12.111-6.371v6.371h-2.65v38.534h-5.881v-52.183h-5.948v-18.306h-.814v18.306h-5.947v89.376H436.42v-50.89h-15.026v-.001Zm-128.604-4.955h-9.813v-1.135h9.813v1.135Zm0-2.624h-9.813v-1.134h9.813v1.134Zm0-2.628h-9.813v-1.134h9.813v1.134Zm0-2.624h-9.813v-1.134h9.813v1.134Zm0-2.624h-9.813v-1.135h9.813v1.135Zm0-2.628h-9.813v-1.134h9.813v1.134Zm0-2.624h-9.813v-1.135h9.813v1.135Zm0-2.625h-9.813v-1.134h9.813v1.134Zm0-2.627h-9.813v-1.135h9.813v1.135Zm0-2.625h-9.813v-1.134h9.813v1.134Zm0-2.623h-9.813v-1.135h9.813v1.135Zm0-2.629h-9.813v-1.134h9.813v1.134Zm0-2.624h-9.813v-1.135h9.813v1.135Zm34.413 15.628h-2.922v-2.907h2.922v2.907Zm0-4.849h-2.922v-2.91h2.922v2.91Zm0-4.852h-2.922v-2.906h2.922v2.906Zm0-4.848h-2.922v-2.91h2.922v2.91Zm0-4.852h-2.922v-2.91h2.922v2.91Zm5.548 19.401h-2.918v-2.907h2.918v2.907Zm0-4.849h-2.918v-2.91h2.918v2.91Zm0-4.852h-2.918v-2.906h2.918v2.906Zm0-4.848h-2.918v-2.91h2.918v2.91Zm0-4.852h-2.918v-2.91h2.918v2.91Zm5.554 19.401h-2.922v-2.907h2.922v2.907Zm0-4.849h-2.922v-2.91h2.922v2.91Zm0-4.852h-2.922v-2.906h2.922v2.906Zm0-4.848h-2.922v-2.91h2.922v2.91Zm0-4.852h-2.922v-2.91h2.922v2.91Zm5.549 19.401h-2.918v-2.907h2.918v2.907Zm0-4.849h-2.918v-2.91h2.918v2.91Zm0-4.852h-2.918v-2.906h2.918v2.906Zm0-4.848h-2.918v-2.91h2.918v2.91Zm79.84 59.373h-3.037v-3.024h3.037v3.024Zm0-6.056h-3.037v-3.025h3.037v3.025Zm0-6.056h-3.037v-3.024h3.037v3.024Zm0-6.056h-3.037v-3.024h3.037v3.024Zm5.633 18.168h-3.036v-3.024h3.036v3.024Zm0-6.056h-3.036v-3.025h3.036v3.025Zm0-6.056h-3.036v-3.024h3.036v3.024Zm0-6.056h-3.036v-3.024h3.036v3.024Zm5.635 18.168h-3.04v-3.024h3.04v3.024Zm0-6.056h-3.04v-3.025h3.04v3.025Zm0-6.056h-3.04v-3.024h3.04v3.024Zm0-6.056h-3.04v-3.024h3.04v3.024Z" opacity=".6"/>
      <path fill="#E86B31" d="M492.639 289.423v-45.562h-2.307v-5.159h-17.841v5.159h-2.293v64.089h-16.744v-29.024h-24.383v38.086h-11.78v-68.221h-24.018v52.414h-2.819v-31.201h-4.344l-12.112-6.371v6.371h-2.65v38.534h-5.881v-52.183h-5.948v-18.306h-.814v18.306h-5.947v89.376h154.907v-56.306h-15.026v-.002Zm-128.605.461h-9.812v-1.135h9.812v1.135Zm0-2.624h-9.812v-1.134h9.812v1.134Zm0-2.628h-9.812v-1.134h9.812v1.134Zm0-2.624h-9.812v-1.134h9.812v1.134Zm0-2.624h-9.812v-1.135h9.812v1.135Zm0-2.628h-9.812v-1.134h9.812v1.134Zm0-2.624h-9.812v-1.135h9.812v1.135Zm0-2.625h-9.812v-1.134h9.812v1.134Zm0-2.627h-9.812v-1.135h9.812v1.135Zm0-2.625h-9.812v-1.134h9.812v1.134Zm0-2.623h-9.812v-1.135h9.812v1.135Zm0-2.629h-9.812v-1.134h9.812v1.134Zm0-2.624h-9.812v-1.135h9.812v1.135Zm34.413 15.628h-2.922V271.1h2.922v2.907Zm0-4.849h-2.922v-2.91h2.922v2.91Zm0-4.852h-2.922V261.4h2.922v2.906Zm0-4.848h-2.922v-2.91h2.922v2.91Zm0-4.852h-2.922v-2.91h2.922v2.91Zm5.549 19.401h-2.919V271.1h2.919v2.907Zm0-4.849h-2.919v-2.91h2.919v2.91Zm0-4.852h-2.919V261.4h2.919v2.906Zm0-4.848h-2.919v-2.91h2.919v2.91Zm0-4.852h-2.919v-2.91h2.919v2.91Zm5.553 19.401h-2.922V271.1h2.922v2.907Zm0-4.849h-2.922v-2.91h2.922v2.91Zm0-4.852h-2.922V261.4h2.922v2.906Zm0-4.848h-2.922v-2.91h2.922v2.91Zm0-4.852h-2.922v-2.91h2.922v2.91Zm5.55 19.401h-2.919V271.1h2.919v2.907Zm0-4.849h-2.919v-2.91h2.919v2.91Zm0-4.852h-2.919V261.4h2.919v2.906Zm0-4.848h-2.919v-2.91h2.919v2.91Zm81.378 51.345h-2.621v-2.611h2.621v2.611Zm0-5.228h-2.621v-2.611h2.621v2.611Zm0-5.228h-2.621v-2.611h2.621v2.611Zm0-5.228h-2.621v-2.611h2.621v2.611Zm4.865 15.684h-2.621v-2.611h2.621v2.611Zm0-5.228h-2.621v-2.611h2.621v2.611Zm0-5.228h-2.621v-2.611h2.621v2.611Zm0-5.228h-2.621v-2.611h2.621v2.611Zm4.864 15.684h-2.625v-2.611h2.625v2.611Zm0-5.228h-2.625v-2.611h2.625v2.611Zm0-5.228h-2.625v-2.611h2.625v2.611Zm0-5.228h-2.625v-2.611h2.625v2.611Z" opacity=".64"/>
      <path fill="#E86B31" d="M447.291 284.002h-17.229v61.727h17.229v-61.727Z"/>
      <path fill="#E86B31" d="M543.908 346.696H.591c-.338 0-.612-.229-.612-.511 0-.282.274-.511.612-.511h543.316c.338 0 .613.229.613.511 0 .282-.274.511-.612.511Z"/>
    </g>
    <path fill="url(#b)" d="M210.199 238.701c4.275.469 8.039 1.401 11.294 2.796 3.253 1.398 5.949 3.251 8.088 5.563 2.136 2.313 3.661 5.132 4.571 8.46.911 3.328 1.131 7.119.661 11.371-.608 5.498-2.118 9.953-4.526 13.361-2.41 3.409-5.566 5.865-9.468 7.366l9.154 27.496c.146.46.198.875.158 1.242a2.504 2.504 0 0 1-.821 1.635c-.474.432-1.002.613-1.584.55l-13.213-1.45c-1.297-.142-2.183-.574-2.66-1.293a9.963 9.963 0 0 1-1.093-2.124l-8.182-24.718-8.939-.98-2.602 23.535c-.089.807-.425 1.475-1.008 2.005-.585.53-1.232.756-1.943.676l-12.728-1.396c-.713-.078-1.296-.437-1.749-1.082-.454-.642-.635-1.368-.546-2.175l7.855-71.044c.09-.806.425-1.474 1.008-2.004.582-.53 1.23-.756 1.944-.677l26.329 2.887Zm-14.664 32.118 10.978 1.204c2.721.299 5.035-.04 6.947-1.019 1.911-.978 3.037-3.007 3.378-6.086.34-3.079-.316-5.303-1.967-6.672-1.653-1.367-3.838-2.202-6.558-2.501l-10.978-1.204-1.8 16.278Z"/>
    <path fill="#E86B31" d="M324.329 80.653h-.601l-19.166-24.55-18.606 24.55h-75.782l-39.643 39.098h39.099v9.256l1.846.002v-9.258h36.102l.1.099.1-.099h.865l.099.099.1-.099h36.102v225.073h39.383V119.751h36.104l.099.099.1-.099h.932l39.642-39.098h-76.875Zm-149.31 37.26 34.611-34.137v34.137h-34.611Zm71.085-35.421-16.662 16.595-16.661-16.595h33.323Zm-34.628 1.3 16.661 16.594-16.661 16.595v-33.19Zm1.676 34.121 16.29-16.227 16.29 16.227h-32.58Zm34.016-1.171-16.421-16.355 16.421-16.355v32.71Zm36.473-34.25L266.98 99.087l-16.661-16.595h33.322Zm-34.627 1.3 16.661 16.594-16.661 16.595v-33.19Zm1.676 34.121 16.29-16.227 16.29 16.227h-32.58Zm34.256-.932-16.661-16.595 16.661-16.594v33.189Zm19.638-57.855 16.807 21.527h-33.123l16.316-21.527Zm16.529 23.366-16.508 16.442-16.509-16.442h33.017Zm-32.776 221.543 16.269-16.204 16.269 16.204h-32.538Zm32.951 1.838-16.683 16.617-16.683-16.617h33.366Zm-33.279-37.172H321.2l-16.595 16.53-16.596-16.53Zm.24-1.838 16.356-16.292 16.356 16.292h-32.712Zm-.152-35.334h33.017l-16.508 16.443-16.509-16.443Zm.065-1.839 16.443-16.378 16.444 16.378h-32.887Zm.023-35.333h32.841l-16.42 16.355-16.421-16.355Zm-.11-1.839 16.531-16.465 16.531 16.465h-33.062Zm.022-35.507h33.017l-16.508 16.442-16.509-16.442Zm.065-1.839 16.443-16.378 16.444 16.378h-32.887Zm-.065-35.421h33.017l-16.508 16.443-16.509-16.443Zm.065-1.838 16.443-16.378 16.444 16.378h-32.887Zm-1.37-34.121 16.509 16.442-16.509 16.443V83.791Zm0 37.259 16.509 16.442-16.509 16.444v-32.886Zm0 37.26 16.509 16.442-16.509 16.443v-32.885Zm0 37.258 16.509 16.443-16.509 16.442v-32.885Zm0 37.26 16.509 16.443-16.509 16.443v-32.886Zm0 37.259 16.509 16.443-16.509 16.443v-32.886Zm0 37.259 16.509 16.442-16.509 16.443v-32.885Zm35.691 35.638h-35.691v-.153l17.814-17.743 17.877 17.807v.089Zm0-2.689-16.572-16.507 16.572-16.506v33.013Zm0-37.259-16.572-16.506 16.572-16.507v33.013Zm0-37.258-16.572-16.507 16.572-16.508v33.015Zm0-37.261-16.572-16.506 16.572-16.507v33.013Zm0-37.258-16.572-16.507 16.572-16.507v33.014Zm0-37.26-16.572-16.507 16.572-16.507V154Zm0-37.259-16.572-16.506 16.572-16.507v33.013Zm36.474-34.25-16.662 16.596-16.661-16.595h33.323Zm-34.628 1.3 16.661 16.595-16.661 16.595v-33.19Zm1.675 34.122 16.291-16.227 16.291 16.227h-32.582Zm34.258-.932-16.661-16.595 16.661-16.594v33.189Zm1.846-34.49h34.611l-34.611 34.136V82.492Z"/>
    <path fill="#E6F8FF" d="M209.63 191.454c-2.293 0-4.159-1.859-4.159-4.143V124.89c0-2.285 1.866-4.144 4.159-4.144 2.294 0 4.16 1.859 4.16 4.144v62.421c.001 2.284-1.865 4.143-4.16 4.143Zm0-70.019a3.465 3.465 0 0 0-3.467 3.454v62.421a3.464 3.464 0 0 0 3.467 3.453 3.464 3.464 0 0 0 3.468-3.453v-62.421c.001-1.904-1.555-3.454-3.468-3.454Z"/>
    <path fill="#E86B31" d="M209.628 191.111c-2.098 0-3.814-1.71-3.814-3.8v-10.674c0-2.089 1.717-3.799 3.814-3.799 2.098 0 3.815 1.71 3.815 3.799v10.674c0 2.09-1.717 3.8-3.815 3.8Z"/>
    <path fill="#E86B31" d="M209.622 206.535c-.257 0-.519-.018-.782-.057-2.745-.395-4.747-2.674-4.866-5.542a1.201 1.201 0 0 1 1.153-1.248c.643-.023 1.225.486 1.253 1.148.083 1.979 1.512 3.081 2.805 3.267 1.553.226 2.853-.743 3.485-2.586 1.181-3.448-3.087-5.926-3.27-6.03a1.204 1.204 0 0 1-.609-1.043v-5.365c0-.663.54-1.2 1.204-1.2.665 0 1.205.538 1.205 1.2v4.699c2.156 1.452 5.08 4.629 3.749 8.514-.908 2.647-2.949 4.243-5.327 4.243Zm2.3-74.078h-4.584a3.732 3.732 0 0 1-3.738-3.724v-15.286a3.731 3.731 0 0 1 3.738-3.724h4.584a3.731 3.731 0 0 1 3.739 3.724v15.286a3.732 3.732 0 0 1-3.739 3.724Z"/>
    <path stroke="#FFBC97" stroke-linecap="round" stroke-linejoin="round" stroke-miterlimit="10" stroke-width="1.5" d="M209.629 203.932v52.062"/>
    <path fill="url(#c)" d="M115.008 348.663c-.718 0-1.337-.293-1.857-.885-.523-.59-.782-1.291-.782-2.103v-71.474c0-.811.259-1.511.782-2.102.52-.589 1.139-.884 1.857-.884h31.473c4.365 0 8.048.683 11.045 2.046 2.997 1.366 5.391 3.136 7.185 5.311a20.156 20.156 0 0 1 3.86 7.413c.782 2.766 1.173 5.515 1.173 8.242 0 2.14-.212 4.003-.634 5.589-.425 1.586-.929 2.951-1.515 4.093-.586 1.145-1.19 2.066-1.808 2.766-.62.702-1.124 1.236-1.515 1.604 2.541 1.993 4.316 4.298 5.328 6.915 1.009 2.619 1.514 5.773 1.514 9.46 0 3.025-.39 5.974-1.173 8.852-.782 2.876-2.069 5.44-3.861 7.689-1.792 2.251-4.122 4.058-6.988 5.421-2.869 1.367-6.388 2.048-10.557 2.048h-33.527v-.001Zm36.557-53.993c0-1.917-.506-3.447-1.515-4.591-1.011-1.143-2.493-1.716-4.448-1.716h-15.15v12.614h15.15c1.955 0 3.436-.571 4.448-1.716 1.009-1.142 1.515-2.672 1.515-4.591Zm-21.113 36.844h16.127c1.955 0 3.52-.645 4.692-1.936 1.173-1.29 1.759-2.894 1.759-4.813 0-1.918-.586-3.522-1.759-4.813-1.173-1.29-2.737-1.936-4.692-1.936h-16.127v13.498Z"/>
    <path fill="url(#d)" d="M278.98 271.215c1.304 0 2.298.406 2.981 1.217.684.813 1.157 1.623 1.417 2.434l21.308 69.704c.261.737.392 1.291.392 1.659 0 .664-.213 1.237-.636 1.716-.425.481-.929.719-1.515.719h-12.316c-1.304 0-2.232-.313-2.785-.941-.555-.626-.896-1.234-1.026-1.825l-2.738-9.183h-25.999l-2.738 9.183c-.131.591-.473 1.199-1.026 1.825-.555.627-1.483.941-2.786.941h-12.316c-.586 0-1.091-.238-1.514-.719-.425-.479-.636-1.052-.636-1.716 0-.368.13-.922.391-1.659l21.309-69.704c.26-.811.733-1.621 1.418-2.434.684-.811 1.677-1.217 2.981-1.217h15.834Zm-15.834 48.35h15.834l-7.916-26.555-7.918 26.555Z"/>
    <path fill="url(#e)" d="M353.395 348.662c-1.109 0-2.004-.332-2.688-.996-.684-.663-1.125-1.179-1.319-1.549l-22.385-37.838v37.396c0 .813-.261 1.513-.782 2.103-.523.591-1.141.885-1.857.885h-12.805c-.717 0-1.337-.293-1.857-.885-.523-.59-.782-1.291-.782-2.103v-71.474c0-.811.26-1.511.782-2.102.52-.589 1.14-.884 1.857-.884h10.165c1.108 0 2.004.332 2.689.995.684.664 1.124 1.18 1.318 1.549l22.385 37.839v-37.397c0-.811.259-1.511.782-2.102.52-.589 1.139-.884 1.857-.884h12.804c.717 0 1.334.295 1.858.884.52.591.781 1.291.781 2.102v71.474c0 .813-.261 1.513-.781 2.103-.524.591-1.141.885-1.858.885h-10.164v-.001Z"/>
    <path fill="url(#f)" d="M401.141 271.215c4.497 0 8.601.756 12.316 2.268 3.714 1.513 6.923 3.634 9.628 6.361 2.703 2.73 4.822 5.995 6.353 9.792 1.53 3.8 2.395 7.949 2.59 12.448.064 1.549.097 2.97.097 4.259v7.358a94.97 94.97 0 0 1-.097 4.094c-.196 4.574-1.043 8.741-2.541 12.502-1.5 3.762-3.568 7.009-6.207 9.736-2.639 2.731-5.784 4.852-9.433 6.362-3.65 1.513-7.722 2.268-12.218 2.268h-26.391c-.717 0-1.336-.293-1.857-.885-.522-.59-.781-1.291-.781-2.103v-71.474c0-.811.26-1.511.781-2.102.521-.589 1.14-.884 1.857-.884h25.903Zm12.805 30.425c-.391-8.481-4.823-12.723-13.293-12.723h-9.97v42.043h10.459c8.21 0 12.478-4.241 12.805-12.724.064-1.548.097-3.004.097-4.37v-7.91a107.024 107.024 0 0 0-.098-4.316Z"/>
    <path fill="#494949" d="M450.148 369.25a.813.813 0 0 1-.334-.073c-.564-.257-.892-1.098-.733-1.877 4.143-20.207 8.093-40.637 11.914-60.392 3.817-19.744 7.765-40.16 11.871-60.167.159-.78.745-1.208 1.311-.948.565.256.893 1.098.733 1.876-4.102 19.989-8.047 40.394-11.863 60.127-3.823 19.766-7.775 40.205-11.921 60.433-.129.625-.533 1.021-.978 1.021Zm-24.397 0a.817.817 0 0 1-.334-.073c-.564-.257-.891-1.098-.732-1.877 4.143-20.207 8.093-40.637 11.913-60.392 3.817-19.744 7.766-40.16 11.871-60.167.16-.78.747-1.208 1.312-.948.564.256.892 1.098.732 1.876-4.101 19.989-8.047 40.394-11.862 60.127-3.823 19.766-7.775 40.205-11.921 60.433-.129.625-.534 1.021-.979 1.021Z"/>
    <path fill="#494949" d="M456.635 333.66h-23.146c-.586 0-1.08-.664-1.105-1.486-.025-.822.43-1.486 1.016-1.486h23.146c.586 0 1.08.664 1.105 1.486.024.822-.43 1.486-1.016 1.486Zm3.683-20.087h-23.147c-.586 0-1.081-.665-1.106-1.487-.024-.822.431-1.486 1.017-1.486h23.146c.586 0 1.081.664 1.106 1.486.025.822-.429 1.487-1.016 1.487Zm-7.371 40.171H429.8c-.586 0-1.081-.664-1.106-1.486-.025-.822.43-1.487 1.017-1.487h23.146c.586 0 1.081.665 1.106 1.487.025.822-.43 1.486-1.016 1.486Zm11.778-60.255h-23.146c-.586 0-1.08-.665-1.105-1.487-.025-.822.43-1.486 1.016-1.486h23.146c.586 0 1.08.664 1.105 1.486.025.822-.43 1.487-1.016 1.487Zm3.346-20.082h-23.146c-.586 0-1.081-.665-1.106-1.487-.025-.822.43-1.486 1.017-1.486h23.145c.586 0 1.081.664 1.106 1.486.025.822-.43 1.487-1.016 1.487Zm4.744-20.086h-23.146c-.586 0-1.081-.665-1.106-1.487-.024-.822.431-1.486 1.017-1.486h23.145c.587 0 1.081.664 1.106 1.486.025.822-.43 1.487-1.016 1.487Z"/>
    <path fill="#0C0C0C" d="M462.769 369.25a.85.85 0 0 0 .34-.073c.586-.257.985-1.098.892-1.877-2.429-20.207-4.646-40.637-6.79-60.392-2.142-19.744-4.358-40.16-6.766-60.167-.094-.78-.643-1.208-1.231-.948-.587.256-.986 1.098-.892 1.876 2.406 19.989 4.621 40.394 6.762 60.127 2.146 19.766 4.364 40.205 6.794 60.433.076.625.446 1.021.891 1.021Zm24.401 0c.11 0 .224-.023.339-.073.586-.257.985-1.098.892-1.877-2.428-20.207-4.645-40.637-6.789-60.392-2.142-19.744-4.358-40.16-6.766-60.167-.095-.78-.645-1.208-1.232-.948-.587.256-.985 1.098-.891 1.876 2.406 19.989 4.62 40.394 6.761 60.127 2.146 19.766 4.364 40.205 6.794 60.433.077.625.447 1.021.892 1.021Z"/>
    <path fill="#0C0C0C" d="M459.307 333.66h23.145c.586 0 1.137-.664 1.232-1.486.094-.822-.304-1.486-.891-1.486h-23.146c-.586 0-1.137.664-1.231 1.486-.093.822.304 1.486.891 1.486Zm-1.983-20.087h23.147c.586 0 1.137-.665 1.231-1.487.094-.822-.303-1.486-.89-1.486h-23.147c-.586 0-1.137.664-1.231 1.486-.094.822.304 1.487.89 1.487Zm3.967 40.171h23.147c.586 0 1.137-.664 1.231-1.486.094-.822-.304-1.487-.891-1.487h-23.146c-.586 0-1.137.665-1.231 1.487-.095.822.303 1.486.89 1.486Zm-6.668-60.255h23.146c.586 0 1.137-.665 1.231-1.487.094-.822-.303-1.486-.89-1.486h-23.146c-.586 0-1.137.664-1.231 1.486-.095.822.303 1.487.89 1.487Zm-1.641-20.082h23.146c.586 0 1.137-.665 1.231-1.487.094-.822-.304-1.486-.891-1.486h-23.145c-.586 0-1.137.664-1.231 1.486-.095.822.304 1.487.89 1.487Zm-3.043-20.086h23.146c.586 0 1.137-.665 1.231-1.487.094-.822-.304-1.486-.89-1.486H450.28c-.586 0-1.137.664-1.231 1.486-.095.822.304 1.487.89 1.487Z"/>
    <path fill="#E86B31" d="M445.194 247.605h32.684v-2.961a2.545 2.545 0 0 0-2.55-2.54h-27.585a2.545 2.545 0 0 0-2.55 2.54l.001 2.961Z"/>
    <path fill="#FCB6AC" d="M464.486 209.021s-2.016.296-4.563.583c-3.83.438-8.861.849-10.137.219-2.119-1.061-9.082-7.014-9.082-7.014l-1.093-.704a1.51 1.51 0 0 0-.601-.199 7.418 7.418 0 0 1-1.141-.205 2.765 2.765 0 0 1-.73-.315c-.043-.014-.081-.043-.119-.071a.131.131 0 0 0-.033-.02c-.485-.311-.857-.697-1.168-.951-.482-.39.236-.635 1.05-.237.808.388.293.311.808.292.509-.021-.033-.78-.503-1.324-.433-.508-.374-.52-.804-1.115-.424-.585-.827-1.043-1.058-1.422-.158-.267-.226-.607.079-.52.318.097 1.668 1.41 2.007 1.633.34.216.835-.19 1.782.331.947.521 1.319 2.047 1.617 2.535.298.487 9.935 6.107 11.13 6.053 1.198-.061 10.247-2.211 13.051-2.055 1.515.086-.492 4.506-.492 4.506Z"/>
    <path fill="#ED9C80" d="M459.923 209.604c-3.831.439-8.862.85-10.138.219-2.118-1.061-9.082-7.013-9.082-7.013l-1.093-.704a1.49 1.49 0 0 0-.601-.2 7.287 7.287 0 0 1-1.14-.205 2.763 2.763 0 0 1-.73-.314c.641.316 1.978.055 2.634.401.706.361 5.603 4.335 7.822 5.738 2.214 1.393 3.049 1.87 5.039 1.865 1.988.004 6.715-.834 6.715-.834l.574 1.047Z" opacity=".3"/>
    <path fill="#FCB6AC" d="M441.967 270.371s-.376 1.968-.3 3.526c.229 1.077.038 1.4.038 1.4l-4.129-.234s1.795-.942 1.549-5.169c-.248-4.228 2.842.477 2.842.477Z"/>
    <path fill="#000" d="M441.725 274.226s-1.772.711-3.555.262c-2.054 1.015-3.509 1.433-5.395 1.724-1.886.292-1.506 1.833 1.721 1.528 3.228-.305 5.488-.22 6.209-.169.721.052 1.873.115 1.907-.388.034-.501-.307-3.139-.887-2.957Z"/>
    <path fill="#FCB6AC" d="M454.605 272.209s-.375 1.968-.3 3.526c.23 1.077.038 1.4.038 1.4l-4.128-.234s1.795-.942 1.549-5.169c-.248-4.228 2.841.477 2.841.477Z"/>
    <path fill="#000" d="M454.367 276.062s-1.772.711-3.555.262c-2.053 1.015-3.509 1.433-5.394 1.724-1.886.292-1.507 1.833 1.721 1.528 3.227-.305 5.488-.221 6.209-.169.72.051 1.873.115 1.906-.388.035-.501-.307-3.139-.887-2.957Z"/>
    <path fill="#455A64" d="M458.368 232.191s-18.79 6.052-19.585 13.402c-.389 3.584-3.472 24.375-3.472 24.375s7.261 2.476 8.792 1.006c0 0 1.693-20.747 2.382-24.212.688-3.466 19.059-11.341 19.059-11.341l-.748-4.712-6.428 1.482Z"/>
    <path fill="#455A64" d="M458.368 232.191s-18.79 6.052-19.585 13.402c-.389 3.584-3.472 24.375-3.472 24.375s7.261 2.476 8.792 1.006c0 0 1.693-20.747 2.382-24.212.688-3.466 19.059-11.341 19.059-11.341l-.748-4.712-6.428 1.482Z"/>
    <path fill="#fff" d="m460.75 232.176 4.402.761.394 2.484s-18.37 7.874-19.059 11.34c-.151.761-.35 2.358-.57 4.385-.337-1.287-.675-2.573-1.011-3.86-.132-.501-.264-1.008-.271-1.526-.016-1.118.547-2.16 1.189-3.078 3.109-4.451 10.004-8.186 14.926-10.506Z" opacity=".2"/>
    <path fill="#455A64" d="M455.028 247.176c-.774-5.148 14.345-2.176 17.3-6.587 1.03-1.538 1.633-6.222 0-7.49-3.178-2.47-9.696-1.635-9.696-1.635s-15.374 9.166-15.388 12.953c-.015 4.239 2.111 28.201 2.111 28.201s6.93.961 7.414-.354c.902-6.682-1.741-25.088-1.741-25.088Z"/>
    <path fill="#F96B12" d="M460.533 216.74c.637 8.577-3.143 8.715-3.413 16.013 0 0 9.365-1.175 16.053 1.617 0 0-.532-4.149-1.992-8.02-.043-.118-.093-.23-.136-.342a19.403 19.403 0 0 0-.949-2.086c-.015-.04-.036-.073-.056-.112-.043-.091-.085-.177-.115-.276a.238.238 0 0 1-.05-.099c-.42-1.114-.239-2.558.266-4.104.468-1.432 1.221-2.953 2.038-4.368a45.53 45.53 0 0 1 1.478-2.373v-.007a55.847 55.847 0 0 1 2.596-3.557s.819-2.722-.826-5.102c0-.006-.008-.006-.014-.012a5.294 5.294 0 0 0-.678-.814c-.709-.706-2.682-1.611-4.288-2.146a13.366 13.366 0 0 0-1.14-.328 4.332 4.332 0 0 0-.7-.12c-.939-.074-1.64-.034-2.219.088-1.741.389-2.3.746-4.901 1.526l-5.663 2.455s.755 4.729.174 6.151l3.923-.109s.537 5.122.612 6.125Z"/>
    <path fill="#F0F9FC" d="M469.874 223.434c-1.036-2.768 1.593-7.555 3.781-10.843v-.007l-2.419-2.537s.043 4.173-.676 5.805c-.712 1.619-1.852 4.951-.686 7.582Zm-8.787-16.727s-1.637 2.638-1.164 3.906l-3.927.109s.253-.612.221-1.72c.605.152 2.974.733 4.87-2.295Z" opacity=".18"/>
    <path fill="#DB4052" d="m464.38 231.534-15.616-.625a.808.808 0 0 1-.76-.644l-2.161-10.525a.806.806 0 0 1 .825-.966l15.615.625a.808.808 0 0 1 .76.644l2.161 10.525a.805.805 0 0 1-.824.966Z"/>
    <path fill="#FFBE55" d="m464.417 231.152-15.547-.622a.484.484 0 0 1-.455-.385l-2.137-10.409a.483.483 0 0 1 .493-.579l15.191.608a.757.757 0 0 1 .712.603l2.123 10.339a.371.371 0 0 1-.38.445Z"/>
    <path fill="#E4897B" d="m465.646 225.86.114.632.328-.047.187.919.729-.133c0-.006 0-.006.007-.006.006 0 .013 0 .02-.007.809-.139 2.24-.426 4.152-.872 1.237-.28 2.669-.626 4.28-1.039 2.12-.54 3.497-1.619 3.53-1.911.06-.473-.026-1.406-.187-2.537a48.15 48.15 0 0 0-.294-1.852c-.388-2.325-.91-4.821-1.103-5.714-.014-.094-.034-.173-.047-.226l-.021-.12-.615.24-3.351 1.285.221.626 2.079 5.955c.013.026.013.059.013.086a.381.381 0 0 1-.261.406c-1.645.593-3.618 1.519-5.329 2.379a113.17 113.17 0 0 0-3.464 1.798 1.295 1.295 0 0 1-.147.08.929.929 0 0 1-.515.106c-.185-.008-.326-.048-.326-.048Z"/>
    <path fill="#FCB6AC" d="M467.035 227.219a91.77 91.77 0 0 0 4.15-.869 164.89 164.89 0 0 0 4.279-1.039c2.118-.545 3.499-1.623 3.532-1.911.06-.474-.027-1.412-.186-2.54-.37-2.682-1.151-6.43-1.397-7.57a2.825 2.825 0 0 0-.047-.226l-.837.431s.031.145.091.403c.269 1.226 1.083 4.954 1.458 7.128.121.723.197 1.275.19 1.508-.043 1.088-.641 1.224-1.381 1.538-.423.185-3.293 1.125-5.839 1.936-1.935.62-3.686 1.155-4.013 1.211Zm-.399-1.501s-.428.092-.572.086c-.226-.011-.3-.055-.3-.055s-.905-.61-1.693-.7l.131.638s-1.058.597-1.392.812c0 0-.347.158-.486.198-.139.041-1.38-.072-1.671-.067-.292.005-.453.174-.444.358 0 0 .019.092.179.121.027.005.111.016.214.03a4.856 4.856 0 0 0-.33-.014c-.291.004-.452.173-.444.357 0 0 .02.092.179.122.047.008.265.035.549.07-.228.038-.357.181-.35.342 0 0 .019.092.179.122.048.008.285.038.587.075a.308.308 0 0 0-.133.259s.019.093.179.123c.16.029 2.327.377 2.548.337.406-.073 1.949-1.191 2.031-1.249.292-.169.679-.322.679-.322l.36-1.643Z"/>
    <path fill="#E86B31" d="M470.774 209.789c.87 2.997 1.257 4.569 1.405 5.176.047.193.067.286.067.286s.548 0 1.351-.153c.842-.167 1.966-.507 3.023-1.199.073-.047.146-.1.22-.153a6.488 6.488 0 0 0 1.458-1.426s-.902-5.881-2.868-8.399c0-.006-.007-.006-.013-.014-.355-.453-.756-.806-1.191-.979-.066-.026-.134-.053-.194-.066-1.022-.333-1.899.027-2.534.819-.575.706-.943 1.765-1.05 2.978a8.67 8.67 0 0 0 .326 3.13Z"/>
    <path fill="#FCB6AC" d="M464.212 199.046c.719.379 1.487.528 2.252.544a7.295 7.295 0 0 1-.084.99c-.191.047-.293.072-.421.117-.293.104-.158.676-.123.889.16.981 1.069 1.386 1.977 1.129.903-.256 1.245-1.251 1.55-2.032.127-.327-.015-1.354-.009-1.569.408-.165 1.514-.605 1.514-.605s1.911-1.549 1.933-2.936c.008-.387-.677-1.397-.689-1.826-.025-1.987-1.362-3.144-2.072-4.289-.891-1.43-3.212-1.193-4.822-.81-.972.23-1.685.507-1.685.507s-2.152 8.417.679 9.891Z"/>
    <path fill="#532008" d="M461.895 186.507c.118-.218.245-.43.371-.637.195.382.705.46 1.136.45 1.811-.042 3.656-.799 5.384-.26.51.159 1.021.471 1.192.975 1.432-.431 2.872-.023 3.905 1.104 2.059 2.248.147 5.605 1.192 8.173.359.881 1.055 1.616 1.296 2.537a2.803 2.803 0 0 1-.507 2.41c-.589.744-1.512 1.132-2.394 1.492-.372.15-.745.302-1.135.397a4.092 4.092 0 0 1-2.467-.181c-.57-.231-1.12-.639-1.286-1.229-.164-.582.077-1.194.32-1.748.432-.986 1.068-1.621 1.678-2.475.614-.862 1.227-1.268 1.087-2.426-.021-.177-.05-.369-.175-.498-.202-.208-.574-.142-.781.061-.208.202-.295.494-.372.773a3.416 3.416 0 0 0-1.431-1.887c-.553-.349-1.017-.581-1.42-1.104-.246-.317-.957-1.29-.698-1.671-.797.461-2.392.303-3.249.083-1.002-.258-1.955-.976-2.178-1.983-.179-.808.126-1.611.532-2.356Z"/>
    <path fill="#E6ECEF" d="M104.099 360.902c0 1.018-9.411 1.845-21.022 1.845-11.609 0-21.02-.827-21.02-1.845 0-1.019 9.411-1.845 21.02-1.845 11.61-.001 21.022.825 21.022 1.845Z" opacity=".12"/>
    <path fill="#153351" d="M87.175 247.496c.79.791 1.53 1.671 1.916 2.718.388 1.047.374 2.293-.264 3.211-.34.488-.937.879-1.51.719a1.676 1.676 0 0 1-.43-.206 5.747 5.747 0 0 1-2.62-4.086"/>
    <path fill="#FCB6AC" d="M70.641 353.088s-.938 2.713-1.208 3.394-2.292.055-2.409-.385c-.117-.44.794-3.679.794-3.679"/>
    <path fill="#000" d="M66.424 356.162c-.245.722-.7 1.751-.604 2.113.096.363 2.66 1.447 3.236 1.795.426.259 1.367.615 1.854.702 1.705.303 3.012.008 3.142-.256.543-1.1-2.835-1.833-4.275-4.939 0 0-.254-.03-.521.233-.409.404-.978.568-1.443.291-.265-.158-.584-.497-.709-.81 0 0-.434.149-.68.871Z"/>
    <path fill="#FCB6AC" d="M93.2 354.207s-.067 2.868-.116 3.599c-.05.731-2.167.746-2.413.362-.245-.383-.366-3.745-.366-3.745"/>
    <path fill="#000" d="M90.122 358.411c-.014.762-.134 1.88.07 2.196.201.316 2.976.574 3.63.732.485.118 1.489.172 1.98.107 1.716-.227 2.873-.903 2.916-1.194.181-1.213-3.26-.889-5.58-3.412 0 0-.252.049-.425.38-.266.509-.76.837-1.286.714-.3-.071-.708-.296-.922-.556 0-.002-.37.271-.383 1.033Z"/>
    <path fill="#E4897B" d="M114.179 240.43c-.036-.311-.436-.157-.539.1a2.124 2.124 0 0 0-.055.221c.033-.512.054-.93.042-1.032-.035-.294-.406-.182-.53.05a5.06 5.06 0 0 0 .002-.428c-.037-.378-.442-.218-.542.095-.022.07-.054.266-.088.524.005-.136.006-.24.001-.287-.036-.31-.394-.228-.496.029-.033.085-.05.238-.104.604-.045.313-.132.649-.171.963-.036.285-.372 1.629-1.041 1.771-1.025.219-.375-1.558-1.098-1.957-.227-.125-.468 1.253-.485 2.032-.017.779-.022 1.169.052 1.629.064.459.32 1.108.284 1.386-.058.448-.583 1.367-.583 1.367l2.591.588s.612-1.419.926-1.749c.786-.781 1.279-1.679 1.568-2.763.181-.68.243-1.389.295-2.089 0 0-.017-.952-.029-1.054Z"/>
    <path fill="#E4897B" d="M89.82 262s8.215-.073 12.674-5.052c3.558-4.966 6.996-10.459 7.253-10.969.7.266 2.205.952 2.205.952s-4.701 10.476-6.532 12.869c-1.831 2.393-5.433 6.312-13.046 8.257C88.727 263.886 89.82 262 89.82 262Z"/>
    <path fill="#455A64" d="M90.304 328.383c.162-2.277-2.149-20.373-2.72-20.127-.19.082-.308.272-.412.45a31.02 31.02 0 0 0-1.338 2.508 22.875 22.875 0 0 0-1.06 2.731c1.675 4.923 4.268 12.017 4.019 14.516-1.541 4.145-1.132 10.926-.357 17.029-.301-8.031 1.739-15.29 1.868-17.107Z"/>
    <path fill="#455A64" d="M93.392 293.435s-1.701.419-5.088.33c-4.302-.112-9.757-2.281-9.757-2.281-5.487 5.916-2.47 12.842-2.66 15.12-.19 2.278-.635 13.101-1.126 19.13-5.564 5.428-5.767 19.86-7.395 27.446l-.06.259c2.284.842 3.692 1.026 3.692 1.026l.215-.608c1.658-4.991 9.313-19.305 11.218-24.899 1.729-5.074 6.193-20.478 6.276-20.464l5.693.97c.011-9.813-1.008-16.029-1.008-16.029Z"/>
    <path fill="#E4897B" d="M89.953 256.459c.018.522.038 2.564-1.05 3.051-1.09.496-1.788.703-1.756.871.012.076.12.436.235.788.25.788.63.983.63.983l.158 2.614-1.957 1.943-.638.634-.96-.876-3.13-2.841s1.29-1.583.399-3.28c-.127-.239-1.554-1.813-2.692-3.398-.663-.932-1.226-1.86-1.375-2.524-.408-1.815-.753-3.725.293-4.864 1.038-1.14 8.762-4.788 10.126 1.147 0 0 1.16 1.544 1.697 2.018.543.482.404 1.135-.077 1.403-.476.268.079 1.809.097 2.331Z"/>
    <path fill="#455A64" d="M95.99 327.169c.473-6.165-1.667-25.492-1.876-27.155-.201-1.663-1.383-1.875-2.28-2.148-4.476-1.341-9.785 5.574-8.37 11.785.019.1.046.207.074.314.84 3.598 5.59 15.155 5.256 18.496-2.6 6.993.35 21.483 1.24 27.577.11.004.218-.001.319-.005 2.235-.068 3.496-.384 3.496-.384s1.667-22.315 2.14-28.48Z"/>
    <path fill="#F96B12" d="M94.843 299.974s-8.902 2.177-20.083.111c.541-3.441 1.453-13.797 1.596-17.721l.016-.4c.089-2.506.135-4.296.191-4.37.112-.154-.286-8.151.374-11.285.12-.577.28-.987.485-1.153 1.308-1.083 2.847-2.219 4.565-3.068 0 0 4 4.286 6.042-.457 2.246-.201 3.39.25 4.04 2.489 3.597 12.442 2.774 35.854 2.774 35.854Z"/>
    <path fill="#E86B31" d="M89.707 261.659s3.72.063 7.517-1.612c2.118 2.48 3.398 7.001 3.398 7.001s-5.12 3.242-8.863 3.553c-.803-5.434-2.052-8.942-2.052-8.942Z"/>
    <path fill="#B0D9EF" d="M90.428 262.438s2.306 2.906 3.064 7.848c2.581-.5 6.619-2.723 7.129-3.24-1.136.366-5.986 2.162-6.65.675-1.238-2.771-3.543-5.283-3.543-5.283Z"/>
    <path fill="#FFBE55" d="m89.471 265.221 16.467 1.778-3.426 9.37-13.8-9.431c-.416-.193-.59-.595-.406-.94l.18-.337c.163-.304.565-.483.985-.44Z"/>
    <path fill="#F99BA7" d="M105.53 271.945c-.946 2.588-2.297 4.569-3.017 4.425-.721-.144-.538-2.358.408-4.946.946-2.588 2.297-4.569 3.018-4.424.719.144.537 2.358-.409 4.945Z"/>
    <path fill="#E4897B" d="M74.965 277.566s1.722 5.917 6.2 8.704c1.304.812 2.942.357 3.967-.784 3.066-3.415 6.13-11.108 7.111-14.013-1.796-.951-2.372-.803-2.372-.803s-4.348 6.013-6.841 10.036l-1.864-3.236"/>
    <path fill="#E4897B" d="M89.742 270.894s.8-1.287.837-2.261c.038-.975-.426-2.66.525-3.537.353-.326 1.592-.826 2.985-.596 2.074.342 2.637.95 2.526 1.387-.112.437-1.55.588-1.926 1.33-.376.741-.166 1.206-.26 2.02-.142 1.223-1.853 1.74-2.225 2.35-.266.433-2.462-.693-2.462-.693Z"/>
    <path fill="#E86B31" d="M76.936 296.643c.517-1.782 1.022-12.275 1.077-13.831 1.397-.143 4.1-1.166 5.683-3.688-.584-.998-2.042-4.456-4.743-7.393l-1.559-5.823s-.18.137-.455.398c-.659 3.134-.261 11.131-.374 11.285-.056.074-.102 1.864-.19 4.37l-.017.4c-.146 3.925-1.053 14.277-1.596 17.721 11.181 2.067 20.083-.111 20.083-.111s-18.487-1.302-17.909-3.328Z"/>
    <path fill="#E86B31" d="M78.448 264.338s-4.615 3.011-4.813 8.136c-.152 3.964 2.478 9.747 2.478 9.747s4.566.502 6.962-3.215c-.71-1.805-1.33-3.409-2.694-5.541"/>
    <path fill="#532008" d="M85.41 248.853c1.723-.534 4.017-.636 3.005-3.131-.592-1.457-2.594-2.644-5.01-2.513-1.327.072-2.806 1.525-3.642 3.298-3.825 1.5-4.293 4.569-3.528 7.672 0 0 1.694 5.848 6.136 6.065 0 0-.028-1.167-.455-2.691 0 0-1.806-.603-2.128-1.673-.449-1.49 1.663-.498 1.663-.498s.02-1.174-.206-2.222c-.085-.395-.323-.715-.634-.98.072-.15.953-2.133 4.798-3.327Z"/>
    <path fill="#E6ECEF" d="M411.1 373.892c15.4 0 27.883-1.25 27.883-2.793 0-1.542-12.483-2.792-27.883-2.792-15.399 0-27.883 1.25-27.883 2.792 0 1.543 12.484 2.793 27.883 2.793Z" opacity=".12"/>
    <path fill="#AF835B" d="m420.358 345.393.008 7.722-.397-.742-.398.742-.397-.741-.395.742-.397-.742-.397.743-.397-.742-.396.743-.008-7.723 3.174-.002Z"/>
    <path fill="#E86B31" d="m430.559 345.924-21.264.023.028 25.602 21.264-.023-.028-25.602Z"/>
    <path fill="#65A0B7" d="m430.586 345.885-21.264.023.006 4.856 21.264-.023-.006-4.856Z" opacity=".45"/>
    <path fill="#FFBE55" d="m431.393 345.382-22.614.024.006 4.629 22.613-.024-.005-4.629Z"/>
    <path fill="#D74433" d="m421.647 345.389.009 7.722-.398-.742-.397.743-.397-.742-.396.743-.396-.742-.398.742-.397-.741-.395.742-.009-7.722 3.174-.003Z" opacity=".5"/>
    <path fill="url(#g)" d="M389.084 355.976c.454-2.392 1.826-4.651 4-5.865 1.258-.701 2.686-1.25 4.145-1.254a9.643 9.643 0 0 1 3.722.768c2.018.846 3.767 2.421 4.588 4.443.685 1.688.683 3.574.283 5.33-.389 1.713-1.356 3.472-.721 5.256.181.511.707 1.068.549 1.638-.187.677-.968.894-1.52 1.184-.656.345-1.311.69-1.966 1.037-.47.248-1.15.778-1.72.565-.564-.184-.74-.927-1.067-1.36-.862-1.139-2.377-1.625-3.709-1.955-1.529-.379-2.919-1.011-4.089-2.084-2.165-1.986-3.036-4.841-2.495-7.703Z"/>
    <path stroke="#fff" stroke-miterlimit="10" stroke-width=".464" d="M403.832 368.062s-2.184-4.44-3.135-6.68c-.253-.596-.522-1.201-.714-2.216-.124-.654-.284-2.095.651-2.248 1.105-.179 1.003 1.42.544 2.004-.379.48-1.347.872-1.969.847-1.094-.044-2.084-1.007-2.437-1.939-.271-.713.603-1.244 1.147-.767.519.455 1.169 2.784.101 3.434-.562.342-1.255.421-1.898.289-1.161-.237-1.431-2.143.048-1.611 1.05.377 1.902 1.493 2.456 2.405 1.514 2.496 2.636 4.495 4.103 7.018"/>
    <path fill="#E86B31" d="m401.226 369.548 4.428-2.37-.235-.436-4.428 2.371.235.435Z"/>
    <path fill="#E86B31" d="M401.813 371.188a.29.29 0 0 0-.184-.322l-.044-.015a.291.291 0 0 1-.185-.317l.014-.08a.29.29 0 0 0-.199-.322.289.289 0 0 1-.2-.314l.033-.221a.256.256 0 0 1 .134-.189l4.4-2.356a.262.262 0 0 1 .233-.006l.204.094a.287.287 0 0 1 .152.34.29.29 0 0 0 .159.343l.075.032a.29.29 0 0 1 .163.329l-.012.044a.293.293 0 0 0 .169.332l.057.023a.29.29 0 0 1 .167.338l-.008.029a.54.54 0 0 1-.257.324l-4.25 2.276a.539.539 0 0 1-.413.034l-.029-.008a.291.291 0 0 1-.192-.325l.013-.063Z"/>
    <path fill="#E86B31" d="M401.415 370.079a.059.059 0 0 1-.022-.025.081.081 0 0 1 .033-.111l2.051-1.097a.08.08 0 0 1 .11.033.08.08 0 0 1-.033.11l-2.051 1.098a.082.082 0 0 1-.088-.008Zm2.965-1.588a.082.082 0 0 1-.023-.026.081.081 0 0 1 .034-.11l1.137-.609a.082.082 0 0 1 .11.033.08.08 0 0 1-.033.11l-1.137.609a.08.08 0 0 1-.088-.007Zm-1.268 1.322a.063.063 0 0 1-.022-.026.081.081 0 0 1 .033-.11l2.972-1.591a.082.082 0 0 1 .111.033.081.081 0 0 1-.034.11l-2.971 1.592a.084.084 0 0 1-.089-.008Zm-1.434.768a.082.082 0 0 1 .011-.136l.877-.469a.084.084 0 0 1 .111.033c.021.04.006.09-.033.111l-.877.469a.084.084 0 0 1-.089-.008Zm2.787-.848a.076.076 0 0 1-.022-.025.082.082 0 0 1 .034-.111l1.59-.851a.083.083 0 0 1 .111.033.081.081 0 0 1-.034.11l-1.59.852a.082.082 0 0 1-.089-.008Zm-1.679.901a.063.063 0 0 1-.022-.026.08.08 0 0 1 .033-.11l.638-.342a.083.083 0 0 1 .111.033.082.082 0 0 1-.033.111l-.639.342a.082.082 0 0 1-.088-.008Zm1.078-1.867a.078.078 0 0 1-.022-.026.08.08 0 0 1 .033-.11l.231-.123a.081.081 0 0 1 .077.143l-.231.123a.08.08 0 0 1-.088-.007Z"/>
    <path fill="#F9DCE0" d="M389.084 355.975c.454-2.392 1.826-4.651 4-5.865.248-.138.503-.27.763-.393-3.398 2.095-4.801 6.766-2.712 10.365 1.757 3.025 4.45 4.411 8.295 4.088.805-.068 1.504.111 2.01.801.467.637.626 1.451 1.139 2.061a.66.66 0 0 0 .282.218.72.72 0 0 0 .333.006c.916-.139 1.76-.554 2.482-1.134a.779.779 0 0 1-.026.17c-.187.677-.968.894-1.52 1.184-.656.344-1.311.69-1.966 1.037-.47.248-1.15.778-1.72.565-.564-.184-.74-.928-1.067-1.36-.862-1.14-2.377-1.625-3.709-1.955-1.529-.379-2.919-1.011-4.089-2.084-2.165-1.988-3.036-4.842-2.495-7.704Z" opacity=".5"/>
    <path fill="#E6ECEF" d="M154.567 376.807c37.693 0 68.249-2.159 68.249-4.823 0-2.664-30.556-4.824-68.249-4.824s-68.249 2.16-68.249 4.824c0 2.664 30.556 4.823 68.249 4.823Z" opacity=".12"/>
    <path fill="#D6E0E5" d="M123.48 365.942c-8.927-.425-17.846-.223-26.777-.201-3.228.007-6.466.053-9.681.356-1.94.183-4.735.24-6.348 1.486-2.746 2.119 2.608 2.974 3.825 3.121 6.467.78 13.122.409 19.614.227 9.763-.273 19.555.179 29.307-.285.193-.009.196-.302 0-.302-8.201-.035-16.436-.124-24.635.093-5.896.157-11.795.395-17.694.285-2.627-.048-5.314-.101-7.908-.566-1.213-.218-4.194-.915-2.134-2.39 1.867-1.337 5.23-1.279 7.396-1.431 2.748-.193 5.505-.238 8.258-.249 8.928-.035 17.848-.138 26.777-.027.077 0 .076-.114 0-.117Z"/>
    <path fill="#C1CED6" d="M182.494 359.427c4.723.094 9.437.425 14.138.873 2.141.204 4.279.466 6.422.651 1.006.086 2.315.002 3.255.369 1.388.162 1.53 1.2.425 3.113-.628.093-1.257.167-1.889.22-9.027.854-18.198-1.074-27.172.411-.22.036-.17.404.053.388 6.253-.465 12.418-.18 18.676-.04 3.238.073 6.559.121 9.772-.347 1.106-.161 2.522-.437 2.841-1.703.811-3.218-6.175-2.936-7.826-3.102-6.216-.628-12.445-1.06-18.696-1.036-.13.001-.13.201.001.203Zm-71.033 8.474c-4.675.052-9.387.48-13.977 1.259-2.723.461-5.594 1.029-8.055 2.335-1.205.639-3.008 1.951-2.516 3.56.452 1.48 2.53 2.072 3.832 2.432 2.537.702 5.204.975 7.82 1.183 4.516.358 9.034.339 13.56.354 3.785.012 9.648.58 11.1-4.034.81-2.574-.321-5.289-1.057-7.737-.454-1.511-.839-3.169-.361-4.724.262-.853.803-1.747 1.757-1.919.812-.146 1.536.25 1.874.986.142.31.602.04.461-.268-.597-1.298-2.27-1.654-3.409-.812-1.771 1.308-1.573 4.047-1.106 5.921.626 2.513 1.916 5.033 1.491 7.69-.353 2.212-2.124 3.554-4.204 4.084-2.701.688-5.641.312-8.42.327a174 174 0 0 1-6.854-.088c-2.819-.097-5.644-.261-8.44-.635-2.13-.285-4.553-.595-6.44-1.699-1.535-.898-1.439-2.274-.126-3.39 1.927-1.641 4.789-2.255 7.199-2.772 5.19-1.114 10.564-1.561 15.884-1.759l-.013-.294Zm121.746-6.13c.246.952 1.296 1.039 2.155 1.165 1.263.185 2.483.398 3.718.729.573.153 1.305.249 1.83.537 2.682 1.475 1.463 3.396-.632 4.143-2.803.999-5.989.579-8.909.631-3.339.06-6.678.125-10.017.14-12.804.056-25.607.113-38.41.18-.256.001-.256.396 0 .395 15.078-.077 30.164.007 45.242-.283 3.252-.062 6.671.215 9.898-.215 1.522-.202 3.939-.639 4.662-2.269.526-1.185-.111-2.232-1.18-2.794-1.259-.662-2.876-.912-4.261-1.188-1.091-.217-3.571-.035-3.99-1.201-.023-.066-.125-.04-.106.03Z"/>
    <path fill="#C1CED6" d="M231.235 362.417c.089.738 1.748 1.47 2.269 1.811 1.202.787 3.45 1.914 3.873 3.421 1.32 4.703-26.423 3.526-28.565 3.542-9.282.067-18.559.132-27.839.19-.255.002-.256.397 0 .395 8.822-.053 17.637-.098 26.46-.186 7.933-.079 16.02.396 23.912-.592 1.585-.199 5.706-.43 6.364-2.439.418-1.275-1.004-2.399-1.871-3.072-.863-.672-1.799-1.239-2.728-1.811-.397-.245-1.652-.763-1.766-1.274-.013-.059-.117-.047-.109.015Z"/>
    <path fill="#ECA888" d="M209.242 360.964c-1.284-2.517-1.63-5.56-.494-8.208.656-1.532 1.578-3.042 2.915-4.075 1.167-.901 2.54-1.546 3.965-1.921 2.455-.646 5.183-.433 7.374.846 1.829 1.067 3.167 2.802 4.049 4.697.86 1.848 1.222 4.145 3.074 5.337.529.34 1.409.482 1.668 1.116.31.755-.254 1.505-.555 2.16-.358.78-.713 1.56-1.07 2.34-.254.559-.502 1.525-1.177 1.732-.648.229-1.34-.33-1.948-.496-1.602-.439-3.339.183-4.797.819-1.673.73-3.4 1.129-5.238.969-3.4-.296-6.229-2.305-7.766-5.316Z"/>
    <path stroke="#E86B31" stroke-miterlimit="10" stroke-width=".417" d="M231.382 361.667s-5.163-2.537-7.629-3.926c-.656-.368-1.333-.735-2.232-1.532-.579-.513-1.75-1.725-.999-2.524.887-.945 1.932.597 1.925 1.457-.007.707-.617 1.75-1.207 2.166-1.035.731-2.63.546-3.617-.062-.756-.465-.33-1.568.509-1.513.8.052 3.053 1.732 2.534 3.082-.273.711-.853 1.272-1.537 1.605-1.235.6-2.837-.96-1.102-1.514 1.233-.394 2.809.03 3.966.477 3.165 1.225 5.617 2.271 8.758 3.554"/>
    <path fill="#E86B31" d="m230.059 364.865 2.382-5.301-.524-.234-2.383 5.301.525.234Z"/>
    <path fill="#E86B31" d="M231.749 365.962a.338.338 0 0 0-.399-.166l-.05.017a.34.34 0 0 1-.395-.161l-.044-.084a.34.34 0 0 0-.412-.154.336.336 0 0 1-.407-.148l-.127-.227a.298.298 0 0 1-.012-.268l2.368-5.267a.302.302 0 0 1 .209-.17l.254-.057a.339.339 0 0 1 .382.205.339.339 0 0 0 .39.203l.092-.023a.34.34 0 0 1 .384.188l.02.048a.34.34 0 0 0 .39.186l.07-.019a.34.34 0 0 1 .394.194l.012.032a.62.62 0 0 1-.006.479l-2.287 5.087a.623.623 0 0 1-.355.323l-.033.012a.34.34 0 0 1-.407-.164l-.031-.066Z"/>
    <path fill="#E86B31" d="M230.595 365.222a.095.095 0 0 1-.087-.133l1.104-2.455a.096.096 0 0 1 .126-.048.095.095 0 0 1 .048.125l-1.104 2.455a.095.095 0 0 1-.087.056Zm1.596-3.549a.095.095 0 0 1-.087-.133l.612-1.361a.095.095 0 0 1 .125-.048c.048.021.07.077.048.125l-.612 1.361a.094.094 0 0 1-.086.056Zm-.225 2.111a.095.095 0 0 1-.087-.133l1.6-3.558a.095.095 0 0 1 .173.077l-1.599 3.558a.093.093 0 0 1-.087.056Zm-.773 1.717a.095.095 0 0 1-.087-.133l.472-1.049a.096.096 0 0 1 .125-.048.095.095 0 0 1 .048.125l-.472 1.049a.091.091 0 0 1-.086.056Zm1.963-2.745a.095.095 0 0 1-.087-.133l.855-1.903a.096.096 0 0 1 .126-.048.095.095 0 0 1 .048.125l-.856 1.903a.094.094 0 0 1-.086.056Zm-.907 2.011a.095.095 0 0 1-.087-.134l.343-.765c.022-.047.078-.068.126-.047a.095.095 0 0 1 .048.125l-.343.765a.096.096 0 0 1-.087.056Zm-.334-2.476a.109.109 0 0 1-.039-.008.096.096 0 0 1-.048-.125l.124-.276a.095.095 0 0 1 .125-.048c.048.021.07.077.048.125l-.123.276a.097.097 0 0 1-.087.056Zm-22.673-1.326c-1.284-2.517-1.63-5.561-.494-8.209.129-.301.269-.603.421-.899-1.633 4.322.399 9.601 4.876 11.434 3.764 1.539 7.223.914 10.526-2.095.691-.629 1.461-.958 2.416-.683.882.256 1.606.892 2.511 1.09.137.03.283.048.416.002a.858.858 0 0 0 .31-.23c.742-.773 1.223-1.749 1.475-2.791.037.054.07.11.096.174.31.754-.254 1.504-.555 2.16-.358.779-.713 1.559-1.07 2.339-.254.559-.502 1.526-1.177 1.732-.648.229-1.341-.33-1.948-.496-1.602-.438-3.339.183-4.797.819-1.674.73-3.4 1.13-5.238.969-3.402-.297-6.231-2.306-7.768-5.316Z"/>
    <path fill="#FFBE55" d="M184.905 370.105H122.53c-.183 0-.331.121-.331.27v1.922c0 .15.148.271.331.271h68.642c1.162 0 2.105-.772 2.105-1.726v-12.499c0-.954-.943-1.726-2.105-1.726H122.53c-.183 0-.331.122-.331.27v1.923c0 .15.148.27.331.27h62.375c1.162 0 2.103.773 2.103 1.725v7.573c0 .955-.941 1.727-2.103 1.727Z"/>
    <path fill="#FFEAC9" d="M124.902 359.082h60.345c2.531 0 4.584 2.045 4.584 4.566v1.892c0 2.522-2.053 4.566-4.584 4.566h-60.345v-11.024Z"/>
    <path stroke="#230C01" stroke-miterlimit="10" stroke-width=".834" d="M189.831 366.721h-29.257m29.259-2.188H141.68m48.152-2.002h-60.797m53.906-2.136h-48.259m15.315 6.326h-16.745"/>
    <path fill="#E86B31" d="M125.061 348.769h64.461c.171 0 .309-.071.309-.157v-1.119c0-.087-.138-.157-.309-.157h-70.327c-1.087 0-1.621.449-1.621 1.004v7.274c0 .554.534 1.004 1.621 1.004h70.326c.171 0 .309-.071.309-.157v-1.119c0-.087-.138-.157-.309-.157H125.06c-1.087 0-1.968-.45-1.968-1.004v-4.407c.001-.555.882-1.005 1.969-1.005Z"/>
    <path fill="#FFC8AF" d="M187.299 355.184h-64.995a3.214 3.214 0 0 1-3.22-3.207 3.213 3.213 0 0 1 3.22-3.207H187.3v6.414h-.001Z"/>
    <path stroke="#230C01" stroke-miterlimit="10" stroke-width=".4" d="M119.084 352.01h46.076m-45.732 1.56h64.262m-58.012.85h52.265m-20.74-3.68h22.112"/>
    <path fill="#FFF5E4" d="M163.261 341.057c-3.96.003-5.275 2.013-5.712 2.852-.436-.839-1.751-2.849-5.711-2.852-5.813-.006-29.317 2.556-29.317 2.556v.979h70.055v-.979s-23.502-2.561-29.315-2.556Z"/>
    <path stroke="#000" stroke-miterlimit="10" stroke-width=".417" d="M192.278 344.202s-23.207-2.214-29.02-2.21c-3.959.004-5.274 1.667-5.711 2.506-.436-.839-1.752-2.502-5.711-2.506-5.813-.005-29.02 2.21-29.02 2.21"/>
    <path stroke="#000" stroke-linejoin="round" stroke-miterlimit="10" stroke-width=".417" d="M142.994 344.139s8.347-.417 10.23-.262c2.636.217 4.324.619 4.324.619s-1.792-1.676-6.028-1.676c-2.546 0-28.704 1.768-28.704 1.768"/>
    <path stroke="#F4BAC0" stroke-linejoin="round" stroke-miterlimit="10" stroke-width=".417" d="m142.419 344.104-12.925.486"/>
    <path stroke="#000" stroke-linejoin="round" stroke-miterlimit="10" stroke-width=".417" d="M172.138 344.139s-8.347-.417-10.23-.262c-2.636.217-4.324.619-4.324.619s1.792-1.676 6.028-1.676c2.546 0 28.704 1.768 28.704 1.768"/>
    <path stroke="#F4BAC0" stroke-linejoin="round" stroke-miterlimit="10" stroke-width=".417" d="m172.713 344.104 12.925.486"/>
    <path fill="#FFBE55" d="M193.153 347.336h-70.772a.88.88 0 0 1-.881-.878v-.99a.88.88 0 0 1 .881-.878h70.772a.88.88 0 0 1 .881.878v.989a.88.88 0 0 1-.881.879Z"/>
    <path fill="#E6ECEF" d="M258.026 377.967c0 1.427-9.609 2.585-21.463 2.585-11.853 0-21.461-1.158-21.461-2.585 0-1.428 9.608-2.586 21.461-2.586 11.854 0 21.463 1.158 21.463 2.586Z" opacity=".12"/>
    <path fill="#FCB6AC" d="M227.523 371.924s-.005 2.192.132 2.976c.136.783 2.288.605 2.493.17.204-.436-.071-4.07-.071-4.07"/>
    <path fill="#000" d="M230.506 375.146c.024.703.162 1.734-.04 2.026-.202.291-3.028.525-3.693.669-.494.108-1.517.156-2.018.096-1.755-.211-2.943-.838-2.991-1.106-.201-1.12 3.314-.816 5.646-3.142 0 0 .257.046.438.353.278.469.786.773 1.321.66.306-.065.611-.193.826-.432 0 0 .487.172.511.876Z"/>
    <path fill="#E86B31" d="M246.111 310.9a59.101 59.101 0 0 0 2.795-2.166c2.11-1.765 3.995-3.681 4.228-5.077.515-3.128.113-12.424-.136-16.812a21.256 21.256 0 0 0-.041-.746c-.25-4.147-2.488-5.984-3.608-6.658-.571 5.39-1.861 17.558-1.965 18.184-.137.802-1.273 13.275-1.273 13.275Z"/>
    <path fill="#C35420" d="M246.105 310.899a59.733 59.733 0 0 0 2.795-2.165c.08-3.428 1.104-8.215 2.546-14.206 1.711-7.553.635-8.942.635-8.942l-3.438.521c-.572 5.334-1.192 11.093-1.265 11.518-.137.802-1.273 13.274-1.273 13.274Z"/>
    <path fill="#FCB6AC" d="M245.771 370.779s.298 2.633.407 3.301c.108.668 2.264.53 2.483.16.22-.371.073-3.47.073-3.47"/>
    <path fill="#000" d="M249.24 374.422c.076.7.286 1.72.106 2.025-.181.305-2.983.741-3.635.933-.485.142-1.502.265-2.007.241-1.765-.086-2.995-.625-3.063-.889-.282-1.103 3.246-1.052 5.404-3.539 0 0 .26.028.463.319.311.449.839.715 1.365.564.301-.087.697-.324.894-.578 0 0 .397.224.473.924Z"/>
    <path fill="#455A64" d="m246.844 309.802-10.28-.054.982 12.661.336 4.281s.968 17.165 1.746 19.859c1.299 7.564 5.98 26.296 5.98 26.296 1.246.338 2.688.327 3.556-.21-.921-9.988.938-21.101-3.055-28.227.63-4.592 1.583-8.673 2.515-19.139.188-2.113.913-2.448 1.164-6.838.24-4.396-2.944-8.629-2.944-8.629Z"/>
    <path fill="#144E93" d="M238.738 339.155c.463-2.114 1.875-6.589 2.728-8.902 1.189-3.233 2.498-4.711 2.498-4.711 4.698-5.859.525-12.54.525-12.54s-3.907 3.843-4.17 4.23c-.249.36-1.674 3.459-2.776 5.18l.337 4.281c.002 0 .394 5.944.858 12.462Z"/>
    <path fill="#455A64" d="m244.553 309.82-13.28.6s-3.615 28.247-3.412 33.646c.367 9.78-.627 28.684-.627 28.684s1.615 1.514 3.442.623c0 0 6.87-16.767 4.816-27.53.952-3.923 4.555-16.863 5.714-18.656 1.618-2.502 7.783-4.87 3.347-17.367Z"/>
    <path fill="#E4897B" d="M243.969 277.029s-.737-2.486-.415-4.32c.323-1.834 1.428-5.136 1.014-7.613-.415-2.476-3.545-4.54-6.86-4.219-3.316.321-4.282 3.485-4.835 5.32-.553 1.834-.46 4.631-.322 6.145.138 1.513.967 2.706 1.519 3.026.553.321 2.632-.103 2.996.293.365.395.642 2.734.642 2.734"/>
    <path fill="#E86B31" d="M245.537 278.991s-.185-1.45-.737-1.963c-.553-.514-4.235-.514-5.341-.376-1.105.138-3.829 1.403-4.189 1.671-.36.267.35 1.66.35 1.66l9.917-.992Z"/>
    <path fill="#532008" d="M244.011 273.836a2.214 2.214 0 0 1-.134.077 2.52 2.52 0 0 1-2.574-.189c-.602.466-1.376.807-2.127.652-.751-.156-1.369-.974-1.079-1.669a1.962 1.962 0 0 1-1.644-.514c-.87-.843-.298-1.569-.303-2.539-.004-.689-.056-1.872-.956-2.011a.868.868 0 0 0-.868.419c-.067.12-.108.263-.223.34-.153.103-.378.034-.495-.106-.118-.141-.152-.331-.164-.512a2.945 2.945 0 0 1 .902-2.309c-1.24-.702-1.918-1.899-2.049-3.295-.054-.583-.02-1.194.254-1.715.379-.72 1.153-1.154 1.916-1.47a5.315 5.315 0 0 1 3.067-.325c1.215.22 1.624.964 2.561 1.265 1.499-.498 3.518-.016 3.83 1.632.784-.137 1.612.04 2.128.702.72.923.159 1.694-.086 2.646-.34 1.324.092 2.46.022 3.748-.06 1.107-.851 2.04-1.145 3.082-.22.774-.027 1.599-.833 2.091Z"/>
    <path fill="#F96B12" d="M231.032 307.594c-.169 1.436-1.434 4.954-.572 5.266.347.121 1.756.041 3.479-.103h.048c.032 0 .056-.009.08-.009 1.531-.128 3.278-.297 4.743-.409 5.855-.248 8.842-.381 9.43-.71.282-.169.29-.674.201-1.195-.201-1.284-.265-2.575-.097-3.866.145-1.083.347-2.375.628-3.85.966-5.109 2.859-12.914 3.141-17.606.451-7.355-7.457-6.658-7.457-6.658-10.065-.626-14.793 2.262-15.34 6.57a15.56 15.56 0 0 0-.089.978c-.257 4.443 1.103 11.614 1.747 16.972.179 1.476.146 3.184.058 4.62Z"/>
    <path fill="#C35420" d="M231.033 307.594c-.169 1.436-1.433 4.954-.571 5.267.346.12 1.755.04 3.478-.104-1.554.112-1.844-2.371-1.498-3.165.346-.803 1.064-2.607.999-4.748-.073-2.134-.878-6.946-1.353-11.494-.451-4.227-.065-7.532-.008-7.973-.242.481-.934 1.155-2.884 1.604-.04 4.468 1.184 11.012 1.78 15.994.178 1.475.146 3.183.057 4.619Z"/>
    <path fill="#E4897B" d="M205.353 304.852c-.231-.125.014-.387.245-.387.032 0 .1.011.19.027-.409-.134-.743-.248-.818-.289-.22-.117-.016-.37.204-.395a4.198 4.198 0 0 1-.334-.131c-.284-.146-.034-.409.242-.39.062.005.226.041.437.095a2 2 0 0 1-.224-.09c-.231-.124-.056-.376.177-.375.076.001.2.035.503.108.257.062.546.098.805.165.359.094.747.13.753.131.892-.285 1.328-.756 1.328-.756l-.879-.486s-.051-.772 2.399.154c.365.138.677.637.905.696.228.06.902.053.902.053l-.002 2.136s-1.195-.209-1.549-.069c-.351.15-1.778.602-2.022.623-.1.011-.526-.035-1.021-.102l-.736-.154-.689-.217c-.001.002-.74-.307-.816-.347Z"/>
    <path fill="#E86B31" d="M211.645 305.269s3.833.866 6.949 1.445c2.409.433 4.965.787 7.483.605.018-.001.04.009.058.007 1.559-.058 3.624-.515 4.106-1.21.482-.695 1.42-3.443 1.42-3.443.789-1.619 1.979-6.016 2.984-9.761.018-.062.032-.117.047-.172.466-1.743.896-3.338 1.217-4.42.16-.508.14-1.046-.038-1.519a2.105 2.105 0 0 0-.819-1.068c-.004-.01-.004-.01-.012-.014-1.054-.714-.731-1.732-1.815-1.035-.056.029-.707-.166-.756-.134-.7-1.706-.229-4.001-.229-4.001s-3.042 1.328-4.15 7.573c-.246 1.385-1.771 11.158-1.879 12.356-.004.094-.005.18-.013.264 0 0-.041.14-.08.357-.01.066-.011.152-.019.236a11.863 11.863 0 0 0-2.969.281c-3.469.788-11.239 1.183-11.239 1.183l-.204 1.931-.002.025.005.011-.045.503Z"/>
    <path fill="#F3FBFF" d="M266.955 222.172c1.325-3.245.151-7.23-2.508-9.523-2.66-2.293-6.554-2.924-9.93-1.943-3.377.982-6.216 3.444-8.011 6.457-.557-1.62-1.398-3.258-2.875-4.135-2.053-1.218-4.802-.579-6.68.893-1.877 1.472-3.076 3.616-4.227 5.701-2.182-1.723-4.486-3.504-7.228-3.992-4.053-.723-7.962 1.51-11.655 3.326-6.82 3.352-12.855 2.73-25.073 4.26 24.647-1.414 78.187-1.044 78.187-1.044Zm-96.996-69.864c1.746-4.273.2-9.522-3.302-12.542-3.503-3.02-8.632-3.851-13.079-2.559-4.447 1.293-8.188 4.536-10.552 8.505-.733-2.134-1.84-4.292-3.786-5.446-2.703-1.604-6.325-.763-8.796 1.176-2.472 1.938-4.052 4.762-5.568 7.509-2.874-2.269-5.908-4.615-9.519-5.258-5.339-.952-10.487 1.99-15.351 4.38-8.983 4.415-16.931 3.597-33.024 5.611 32.463-1.864 102.977-1.376 102.977-1.376Zm235.884-2.056c3.79 0 7.314 3.164 7.715 6.918 1.192-1.551 3.026-2.733 4.986-2.679 1.961.054 3.9 1.632 3.922 3.585 2.075-2.301 5.896-2.721 8.584-1.364 1.212.611 2.265 1.498 3.156 2.513.776.883 1.425 1.956 2.51 2.498 1.095.547 8.254 1.033 10.61 1.194 5.438.373 10.884.624 16.33.832 3.086.118 6.173.221 9.26.289-13.453 0-81.552-.175-85.639-.175.3-2.201 1.759-4.211 3.763-5.186 2.168-1.055 4.359-.686 6.454.217-.096-.766.709-8.642 8.349-8.642ZM371.028 32.137c6.081 0 11.736 5.077 12.38 11.1 1.912-2.49 4.855-4.386 8-4.3 3.145.087 6.258 2.62 6.292 5.754 3.329-3.693 9.46-4.367 13.775-2.19 1.944.98 3.634 2.405 5.064 4.033 1.245 1.416 2.286 3.138 4.028 4.008 1.757.878 13.244 1.657 17.024 1.916 8.725.599 17.465 1.003 26.204 1.335 4.952.189 9.904.355 14.858.465-21.587 0-130.86-.282-137.417-.282.482-3.53 2.824-6.758 6.038-8.321 3.48-1.693 6.995-1.1 10.357.348-.153-1.227 1.138-13.866 13.397-13.866Z" opacity=".4"/>
    <path fill="#E6ECEF" d="M340.285 383.464c0 1.01 6.194 1.829 13.836 1.829 7.641 0 13.835-.819 13.835-1.829s-6.194-1.829-13.835-1.829c-7.642 0-13.836.819-13.836 1.829Z" opacity=".12"/>
    <path fill="url(#h)" d="M368.932 378.367c1.285-2.517 1.63-5.561.495-8.209-.657-1.531-1.579-3.042-2.916-4.075-1.167-.901-2.54-1.545-3.965-1.92-2.455-.647-5.182-.433-7.374.846-1.829 1.067-3.167 2.801-4.049 4.696-.86 1.849-1.222 4.145-3.074 5.337-.529.341-1.408.483-1.668 1.117-.31.754.254 1.504.555 2.16.358.779.713 1.559 1.07 2.339.254.559.502 1.526 1.177 1.732.648.229 1.341-.33 1.948-.496 1.602-.439 3.339.184 4.797.819 1.674.73 3.4 1.13 5.238.969 3.4-.296 6.23-2.304 7.766-5.315Z"/>
    <path stroke="#fff" stroke-miterlimit="10" stroke-width=".417" d="M346.795 379.069s5.163-2.537 7.629-3.925c.655-.369 1.333-.736 2.232-1.533.578-.513 1.75-1.724.998-2.524-.887-.944-1.931.597-1.923 1.457.006.708.616 1.75 1.206 2.167 1.037.731 2.631.545 3.618-.063.756-.465.331-1.568-.508-1.513-.801.052-3.053 1.732-2.535 3.082.273.711.854 1.273 1.538 1.606 1.235.6 2.837-.959 1.102-1.515-1.233-.394-2.81.031-3.966.478-3.166 1.224-5.617 2.27-8.759 3.554"/>
    <path fill="#E86B31" d="m348.613 382.025-2.383-5.3-.524.234 2.383 5.3.524-.234Z"/>
    <path fill="#E86B31" d="M346.429 383.364a.338.338 0 0 1 .398-.166l.05.017a.34.34 0 0 0 .396-.161l.044-.083a.338.338 0 0 1 .411-.155.338.338 0 0 0 .408-.148l.127-.226a.298.298 0 0 0 .011-.268l-2.367-5.268a.3.3 0 0 0-.208-.17l-.254-.057a.339.339 0 0 0-.382.205.34.34 0 0 1-.391.203l-.091-.023a.341.341 0 0 0-.384.188l-.02.049a.34.34 0 0 1-.391.185l-.069-.019a.34.34 0 0 0-.394.194l-.012.032a.616.616 0 0 0 .006.479l2.287 5.087a.613.613 0 0 0 .355.323l.032.012a.338.338 0 0 0 .407-.164l.031-.066Z"/>
    <path fill="#E86B31" d="M347.58 382.626a.094.094 0 0 0 .086-.133l-1.103-2.455a.097.097 0 0 0-.126-.048.095.095 0 0 0-.048.125l1.104 2.455a.095.095 0 0 0 .087.056Zm-1.594-3.549a.109.109 0 0 0 .039-.008.095.095 0 0 0 .048-.125l-.612-1.361a.094.094 0 0 0-.125-.047.094.094 0 0 0-.048.125l.611 1.36a.096.096 0 0 0 .087.056Zm.22 2.111a.09.09 0 0 0 .039-.008.095.095 0 0 0 .048-.125l-1.6-3.558a.094.094 0 0 0-.125-.047.095.095 0 0 0-.048.125l1.599 3.557a.096.096 0 0 0 .087.056Zm.776 1.718a.105.105 0 0 0 .039-.008.096.096 0 0 0 .048-.126l-.472-1.048a.096.096 0 0 0-.125-.048.095.095 0 0 0-.048.125l.471 1.049a.096.096 0 0 0 .087.056Zm-1.961-2.745a.09.09 0 0 0 .039-.009.095.095 0 0 0 .048-.125l-.856-1.903c-.022-.047-.077-.069-.125-.047a.094.094 0 0 0-.048.125l.855 1.903a.097.097 0 0 0 .087.056Zm.906 2.01a.104.104 0 0 0 .038-.008.094.094 0 0 0 .048-.125l-.343-.765a.095.095 0 0 0-.125-.048.094.094 0 0 0-.048.125l.344.765c.015.035.05.056.086.056Zm.334-2.476a.095.095 0 0 0 .087-.133l-.124-.276a.095.095 0 1 0-.173.077l.123.276c.016.035.05.056.087.056Z"/>
    <path fill="#F9DCE0" d="M368.933 378.367c1.284-2.517 1.63-5.561.494-8.208a14.89 14.89 0 0 0-.42-.899c1.632 4.321-.4 9.602-4.877 11.433-3.765 1.54-7.223.916-10.526-2.094-.691-.63-1.461-.959-2.415-.683-.882.255-1.606.891-2.511 1.089-.137.03-.283.048-.416.002a.839.839 0 0 1-.31-.23c-.742-.773-1.223-1.748-1.475-2.791a.936.936 0 0 0-.096.173c-.31.755.254 1.505.555 2.16.358.78.713 1.559 1.07 2.34.254.559.502 1.525 1.177 1.732.648.229 1.341-.33 1.948-.497 1.602-.438 3.339.184 4.797.82 1.674.729 3.401 1.129 5.238.968 3.401-.296 6.231-2.303 7.767-5.315Z" opacity=".3"/>
  </g>
  <defs>
    <linearGradient id="b" x1="209.785" x2="219.077" y1="235.255" y2="315.382" gradientUnits="userSpaceOnUse">
      <stop stop-color="#FB8D48"/>
      <stop offset=".2" stop-color="#ED7136"/>
      <stop offset=".4" stop-color="#C54E47"/>
      <stop offset=".4" stop-color="#C14F49"/>
      <stop offset=".6" stop-color="#9D3863"/>
      <stop offset=".8" stop-color="#5E1F72"/>
    </linearGradient>
    <linearGradient id="c" x1="147.177" x2="155.772" y1="270.706" y2="345.719" gradientUnits="userSpaceOnUse">
      <stop stop-color="#FB8D48"/>
      <stop offset=".2" stop-color="#ED7136"/>
      <stop offset=".4" stop-color="#C54E47"/>
      <stop offset=".4" stop-color="#C14F49"/>
      <stop offset=".6" stop-color="#9D3863"/>
      <stop offset=".8" stop-color="#5E1F72"/>
    </linearGradient>
    <linearGradient id="d" x1="277.357" x2="284.803" y1="270.706" y2="345.967" gradientUnits="userSpaceOnUse">
      <stop stop-color="#FB8D48"/>
      <stop offset=".2" stop-color="#ED7136"/>
      <stop offset=".4" stop-color="#C54E47"/>
      <stop offset=".4" stop-color="#C14F49"/>
      <stop offset=".6" stop-color="#9D3863"/>
      <stop offset=".8" stop-color="#5E1F72"/>
    </linearGradient>
    <linearGradient id="e" x1="342.859" x2="351.667" y1="270.706" y2="345.668" gradientUnits="userSpaceOnUse">
      <stop stop-color="#FB8D48"/>
      <stop offset=".2" stop-color="#ED7136"/>
      <stop offset=".4" stop-color="#C54E47"/>
      <stop offset=".4" stop-color="#C14F49"/>
      <stop offset=".6" stop-color="#9D3863"/>
      <stop offset=".8" stop-color="#5E1F72"/>
    </linearGradient>
    <linearGradient id="f" x1="407.871" x2="416.355" y1="270.706" y2="345.744" gradientUnits="userSpaceOnUse">
      <stop stop-color="#FB8D48"/>
      <stop offset=".2" stop-color="#ED7136"/>
      <stop offset=".4" stop-color="#C54E47"/>
      <stop offset=".4" stop-color="#C14F49"/>
      <stop offset=".6" stop-color="#9D3863"/>
      <stop offset=".8" stop-color="#5E1F72"/>
    </linearGradient>
    <linearGradient id="g" x1="399.099" x2="401.119" y1="348.724" y2="368.407" gradientUnits="userSpaceOnUse">
      <stop stop-color="#FB8D48"/>
      <stop offset=".2" stop-color="#ED7136"/>
      <stop offset=".4" stop-color="#C54E47"/>
      <stop offset=".4" stop-color="#C14F49"/>
      <stop offset=".6" stop-color="#9D3863"/>
      <stop offset=".8" stop-color="#5E1F72"/>
    </linearGradient>
    <linearGradient id="h" x1="360.407" x2="361.818" y1="363.678" y2="383.111" gradientUnits="userSpaceOnUse">
      <stop stop-color="#FB8D48"/>
      <stop offset=".2" stop-color="#ED7136"/>
      <stop offset=".4" stop-color="#C54E47"/>
      <stop offset=".4" stop-color="#C14F49"/>
      <stop offset=".6" stop-color="#9D3863"/>
      <stop offset=".8" stop-color="#5E1F72"/>
    </linearGradient>
    <clipPath id="a">
      <path fill="#fff" d="M0 0h550v459.643H0z"/>
    </clipPath>
  </defs>
</svg>
