<svg width="400" height="293" viewBox="0 0 400 293" fill="none" xmlns="http://www.w3.org/2000/svg">
<path d="M26.2641 288.247C26.2641 288.247 -2.66066 220.067 33.9266 168.55C70.5138 117.032 48.1987 71.3511 112.445 25.8832C195.017 -32.5616 274.659 25.1037 298.408 64.2027C322.156 103.302 402.825 83.3448 379.386 194.583C361.203 280.877 374.768 284.669 374.768 284.669L26.2729 288.247H26.2641Z" fill="white" fill-opacity="0.04"/>
<path d="M3.76933 284.467H400V288.24C400 290.322 398.31 292.014 396.231 292.014H3.76933C1.69 292.023 0 290.331 0 288.249C0 286.159 1.69 284.467 3.76933 284.467Z" fill="#EEA07B"/>
<path d="M0 284.467H148.579V288.24C148.579 290.322 146.889 292.014 144.809 292.014H3.76933C1.69 292.023 0 290.331 0 288.249V284.476V284.467Z" fill="#EEA07B"/>
<path d="M203.436 140.506C186.633 172.837 167.742 186.009 167.742 186.009L184.049 212.078L212.523 182.448L203.427 140.506H203.436Z" fill="#EEA07B"/>
<path d="M245.104 132.791L203.429 140.506C200.792 219.431 199.801 284.457 199.801 284.457H274.595C274.595 284.457 276.762 163.599 264.729 137.229L245.095 132.791H245.104Z" fill="url(#paint0_linear_1391_269284)"/>
<path d="M240.273 173.004L260.571 171.285" stroke="url(#paint1_linear_1391_269284)" stroke-width="4" stroke-miterlimit="10"/>
<path d="M230.947 156.043C230.947 156.043 243.83 244.073 232.62 279.691L230.947 156.043Z" fill="url(#paint2_linear_1391_269284)"/>
<path d="M217.461 200.139C217.461 200.139 229.91 205.152 246.041 205.684C262.18 206.215 252.137 214.807 228.22 213.178" stroke="#EEA07B" stroke-miterlimit="10"/>
<path d="M220.664 129.575L230.946 156.929L245.103 132.791L235.777 117.52L220.664 129.575Z" fill="#E9A394"/>
<path d="M230.947 156.929L250.148 151.623L245.104 132.791L230.947 156.929Z" fill="#EEA07B"/>
<path d="M222.948 135.65L212.533 147.307L230.946 156.927L222.948 135.65Z" fill="#EEA07B"/>
<path d="M184.05 212.068C184.05 212.068 190.138 199.366 177.069 183.005C169.823 173.934 166.487 158.273 166.487 158.273L155.604 159.93L165.575 212.068H184.059H184.05Z" fill="#E9A394"/>
<path d="M153.383 141.932L148.923 145.989L154.878 151.25L136.226 150.931L135.828 157.345L155.604 159.94L166.487 158.275L153.383 141.932Z" fill="#E9A394"/>
<path d="M156.64 151.916L138.74 144.52L137.59 147.708L152.526 153.989L156.64 151.916Z" fill="#E9A394"/>
<path d="M212.516 96.1534L203.438 119.414L210.383 121.558L212.516 134.659L234.689 129.574L237.892 94.0098L212.516 96.1534Z" fill="#E9A394"/>
<path d="M227.317 101.679H210.355L212.205 96.6655L227.317 95.7266V101.679Z" fill="#E37A82"/>
<path d="M236.175 112.292C236.175 112.292 225.354 110.051 225.354 98.8461C225.354 98.8461 209.303 101.034 203.764 92.3089C197.199 81.9805 207.233 70.102 215.515 72.5202C215.515 72.5202 210.294 77.7021 218.222 78.3045C223.876 78.7385 234.202 71.2092 237.892 78.4905C237.892 78.4905 266.347 85.0011 245.103 111.54L236.166 112.284L236.175 112.292Z" fill="#472E05"/>
<path d="M225.354 97.9601C225.354 97.9601 203.897 102.106 199.411 86.7105C196.792 77.7019 205.8 72.582 205.8 72.582" stroke="#472E05" stroke-width="2" stroke-miterlimit="10"/>
<path d="M216.276 118.671C220.747 118.671 224.372 115.042 224.372 110.566C224.372 106.09 220.747 102.461 216.276 102.461C211.804 102.461 208.18 106.09 208.18 110.566C208.18 115.042 211.804 118.671 216.276 118.671Z" stroke="#16005C" stroke-width="0.5" stroke-miterlimit="10"/>
<path d="M223.939 107.943L235.477 108.572" stroke="#16005C" stroke-width="0.5" stroke-miterlimit="10"/>
<path d="M250.145 114.34C250.145 119.363 243.42 123.428 238.412 123.428C233.404 123.428 231.988 119.354 231.988 114.34C231.988 109.327 236.058 105.252 241.067 105.252C246.075 105.252 250.145 109.327 250.145 114.34Z" fill="#E9A394"/>
<path d="M293.052 203.08V245.005H272.17L270.436 208.545L293.052 203.08Z" fill="#E9A394"/>
<path d="M201.809 193.598L202.685 164.385L189.156 206.761L201.809 193.598Z" fill="#EEA07B"/>
<path d="M221.744 132.358L234.689 129.576L224.071 138.647L221.744 132.358Z" fill="#E37A82"/>
<path d="M214.082 114.332C214.937 114.332 215.63 112.884 215.63 111.098C215.63 109.313 214.937 107.865 214.082 107.865C213.226 107.865 212.533 109.313 212.533 111.098C212.533 112.884 213.226 114.332 214.082 114.332Z" fill="#16005C"/>
<path d="M218.293 103.224C218.293 98.8834 214.842 101.807 214.842 101.807L218.293 103.224Z" fill="#16005C"/>
<path d="M214.842 122.426L219.779 121.115C219.779 121.115 221.894 139.434 214.842 122.426Z" fill="white"/>
<path d="M108.541 204.521C108.541 204.521 141.819 199.366 142.474 257.465C142.58 266.89 148.579 284.465 148.579 284.465H118.416L108.541 204.521Z" fill="url(#paint3_linear_1391_269284)"/>
<path d="M73.7408 199.365L53.6289 204.122L59.7695 284.464H138.032C138.032 284.464 135.404 220.899 105.895 201.828L73.7497 199.365H73.7408Z" fill="url(#paint4_linear_1391_269284)"/>
<path d="M53.6295 204.124C32.8982 208.855 37.747 224.79 41.7552 257.503C31.4117 265.918 41.3305 269.7 41.3305 269.7C29.9694 281.756 44.1442 284.466 44.1442 284.466H81.9879C81.9879 284.466 74.3696 199.385 53.6206 204.124H53.6295Z" fill="url(#paint5_linear_1391_269284)"/>
<path d="M79.7404 265.907L70.6621 224.168" stroke="#EEA07B" stroke-miterlimit="10"/>
<path d="M44.1445 284.465C44.1445 284.465 50.5329 269.779 70.7333 262.391C87.4741 256.27 111.975 272.161 127.654 257.059L130.556 274.057L81.9971 284.456H44.1445V284.465Z" fill="#E9A394"/>
<path d="M110.717 157.991L125.688 180.809L116.088 184.237L114.424 202.786L85.5527 192.741L88.2691 155.023L110.717 157.991Z" fill="#E9A394"/>
<path d="M88.499 181.959L73.7402 199.365L92.6754 222.59L101.205 195.467L88.499 181.959Z" fill="#E37A82"/>
<path d="M93.4351 171.18L114.556 163.845L110.716 157.99L89.8516 160.16L93.4351 171.18Z" fill="#E37A82"/>
<path d="M91.613 179.17C91.613 179.17 98.0102 191.987 93.5596 167.282C93.5596 167.282 99.6295 167.965 104.381 159.948C104.381 159.948 102.903 173.014 116.848 159.948C130.793 146.883 113.07 136.66 91.4095 140.505C72.6425 143.835 53.8578 154.456 81.3049 190.446L91.613 179.17Z" fill="#472E05"/>
<path d="M88.1977 184.264C86.7554 186.195 84.2779 187.949 81.7119 188.33C76.5623 189.083 71.5365 185.017 70.7933 179.862C70.05 174.706 72.6425 172.031 77.7922 171.287C80.6855 170.862 84.0302 171.721 86.543 173.475C87.304 174.423 88.2065 184.273 88.2065 184.273L88.1977 184.264Z" fill="#E9A394"/>
<path d="M108.56 177.15C109.329 176.941 109.565 175.344 109.088 173.583C108.61 171.822 107.6 170.564 106.831 170.772C106.063 170.981 105.826 172.578 106.304 174.339C106.781 176.1 107.791 177.359 108.56 177.15Z" fill="#16005C"/>
<path d="M102.708 169.48C102.708 169.48 101.956 165.246 105.885 167.283L102.708 169.48Z" fill="#16005C"/>
<path d="M104.381 188.33C104.381 188.33 106.619 192.502 111.035 189.676" stroke="#C4C6C5" stroke-miterlimit="10"/>
<path d="M80.457 274.914H154.755C156.985 274.914 158.79 276.721 158.79 278.953V280.424C158.79 282.656 156.985 284.463 154.755 284.463H84.4918C82.2621 284.463 80.457 282.656 80.457 280.424V274.914Z" fill="#1E262A"/>
<path d="M215.091 219.668H128.662C126.096 219.668 123.928 221.581 123.601 224.132L116.638 278.706C116.248 281.762 118.628 284.464 121.699 284.464H208.128C210.694 284.464 212.862 282.551 213.189 280L220.152 225.426C220.542 222.37 218.162 219.668 215.091 219.668Z" fill="#1E262A"/>
<path d="M219.277 219.668H132.848C130.282 219.668 128.114 221.581 127.787 224.132L120.823 278.706C120.434 281.762 122.814 284.464 125.884 284.464H212.313C214.879 284.464 217.047 282.551 217.374 280L224.338 225.426C224.727 222.37 222.347 219.668 219.277 219.668Z" fill="#263238"/>
<path d="M178.156 257.916C181.754 254.498 182.178 249.098 179.104 245.854C176.029 242.611 170.62 242.752 167.022 246.17C163.424 249.589 163 254.989 166.075 258.232C169.149 261.476 174.558 261.334 178.156 257.916Z" fill="#EEA07B"/>
<path d="M217.391 284.004H109.814" stroke="#0A2D7D" stroke-miterlimit="10"/>
<path d="M264.931 210.972L300.643 211.654L292.547 167.922L273.558 170.074C273.558 170.074 265.002 182.715 271.762 192.538C279.38 203.628 264.153 204.036 264.931 210.98V210.972Z" fill="#472E05"/>
<path d="M280.68 205.684C280.68 205.684 264.435 221.646 255.861 281.8H273.947L280.68 205.684Z" fill="#EEA07B"/>
<path d="M323.631 201.236L316.561 281.799H264.029L270.568 251.027C270.568 251.027 250.571 240.583 280.69 205.683L288.176 201.83L320.702 199.367L323.631 201.236Z" fill="url(#paint6_linear_1391_269284)"/>
<path d="M280.681 241.746C280.681 241.746 277.531 247.149 280.557 251.481L276.098 281.811" stroke="#EEA07B" stroke-miterlimit="10"/>
<path d="M273.348 251.17L303.768 252.073" stroke="#EEA07B" stroke-miterlimit="10"/>
<path d="M309.765 266.335L306.553 227.59" stroke="#EEA07B" stroke-miterlimit="10"/>
<path d="M323.629 201.238C323.629 201.238 326.532 204.888 329.885 213.365C334.645 225.376 340.326 247.087 339.954 281.801H316.551L323.62 201.238H323.629Z" fill="url(#paint7_linear_1391_269284)"/>
<path d="M339.955 284.46C339.955 284.46 328.267 257.691 298.855 265.353C266.745 273.715 254.818 272.156 254.818 272.156L252.385 284.46H339.955Z" fill="#E9A394"/>
<path d="M309.348 259.727L298.916 262.065L322.62 284.467H344.962C344.962 284.467 335.335 261.091 309.357 259.735L309.348 259.727Z" fill="#EEA07B"/>
<path d="M309.994 266.672L314.967 265.148" stroke="#EEA07B" stroke-miterlimit="10"/>
<path d="M254.826 272.154L239.563 268.992L228.627 284.458H252.384L254.826 272.154Z" fill="#E9A394"/>
<path d="M280.682 241.744L309.04 213.354L303.767 210.865L323.631 201.237L314.508 195.426H293.29L280.682 211.202L284.168 212.07L280.682 214.515V241.744Z" fill="#EEA07B"/>
<path d="M300.51 205.081L309.766 198.668L299.767 176.293L284.274 186.037L288.636 204.603L280.682 241.744L300.51 205.081Z" fill="#E9A394"/>
<path d="M285.521 191.334L296.396 185.656L286.689 196.295L285.521 191.334Z" fill="#E37A82"/>
<path d="M265.647 158.932L260.904 185.284H268.027L276.026 196.295L296.394 185.656L282.149 153.883L265.647 158.932Z" fill="#E9A394"/>
<path d="M264.497 165.326L264.02 168.214L282.813 165.654L282.521 162.049L264.497 165.326Z" fill="#E37A82"/>
<path d="M317.579 156.931C312.872 144.167 307.129 139.25 307.129 139.25C295.6 127.788 275.904 140.508 275.904 140.508C250.66 134.387 260.907 165.771 260.907 165.771L281.47 163.247C284.345 180.511 294.627 171.768 294.627 171.768L299.423 180.422C299.423 180.422 294.583 184.701 299.626 192.044C303.776 198.085 293.831 200.149 296.405 206.58L336.143 198.333C336.143 172.158 326.082 180.006 317.588 156.94L317.579 156.931Z" fill="#472E05"/>
<path d="M338.743 197.573C338.743 197.573 341.919 185.659 324.621 172.15" stroke="#472E05" stroke-width="2" stroke-miterlimit="10"/>
<path d="M295.21 181.538C299.94 181.538 303.775 177.699 303.775 172.963C303.775 168.228 299.94 164.389 295.21 164.389C290.479 164.389 286.645 168.228 286.645 172.963C286.645 177.699 290.479 181.538 295.21 181.538Z" fill="#E9A394"/>
<path d="M273.348 184.32L278.657 183.018C278.657 183.018 280.524 198.174 273.348 184.32Z" fill="white"/>
<path d="M268.922 175.366C268.922 175.366 270.612 165.055 274.31 175.366" stroke="#0A2D7D" stroke-width="0.5" stroke-miterlimit="10"/>
<path d="M270.23 167.526C270.23 167.526 272.283 164.036 274.725 167.526H270.23Z" fill="#16005C"/>
<path d="M190.37 74.6657C187.291 66.0912 177.611 61.804 169.125 65.4623C161.826 68.6157 157.95 76.9068 160.215 84.5423C161.48 88.8119 164.338 92.107 167.922 94.0381C171.231 95.8185 174.063 98.3519 176.142 101.479L176.744 102.382L188.636 98.1039L188.521 97.0321C188.131 93.232 188.795 89.4319 190.193 85.8799C191.564 82.4164 191.724 78.4569 190.37 74.6746V74.6657Z" fill="#EEA07B"/>
<path d="M190.37 74.6657C187.291 66.0912 177.611 61.804 169.125 65.4623C161.826 68.6157 157.95 76.9068 160.215 84.5423C161.48 88.8119 164.338 92.107 167.922 94.0381C171.231 95.8185 174.063 98.3519 176.142 101.479L176.744 102.382L188.636 98.1039L188.521 97.0321C188.131 93.232 188.795 89.4319 190.193 85.8799C191.564 82.4164 191.724 78.4569 190.37 74.6746V74.6657Z" fill="#EEA07B"/>
<path d="M179.469 98.8657L169.992 85.4813C169.992 85.4813 170.169 82.7707 173.142 83.2048C176.115 83.6388 177.894 88.3335 175.77 87.5717C173.646 86.81 172.894 81.2915 176.911 80.4499C180.929 79.6084 182.273 88.741 180.053 86.9783C177.832 85.2155 178.301 79.4047 182.601 79.3516L185.123 98.6531" stroke="white" stroke-miterlimit="10"/>
<path d="M184.41 96.2512L178.831 98.2596C176.707 99.0245 175.604 101.369 176.368 103.495L177.545 106.771C178.309 108.898 180.65 110.002 182.775 109.237L188.353 107.229C190.478 106.464 191.58 104.12 190.816 101.993L189.64 98.7173C188.876 96.5904 186.534 95.4864 184.41 96.2512Z" fill="#EEA07B"/>
<path d="M189.685 93.2623L172.875 99.3145L175.827 107.533L192.638 101.481L189.685 93.2623Z" fill="#EEA07B"/>
<path d="M175.035 60.1032L173.354 50.4746" stroke="#EEA07B" stroke-miterlimit="10"/>
<path d="M162.914 65.8336L154.889 57.9766" stroke="#EEA07B" stroke-miterlimit="10"/>
<path d="M154.543 80.1055L145.385 80.761" stroke="#EEA07B" stroke-miterlimit="10"/>
<path d="M188.246 65.374L192.369 57.7207" stroke="#EEA07B" stroke-miterlimit="10"/>
<path d="M317.289 136.103H374.121C376.094 136.103 377.988 134.5 378.351 132.524L384.226 100.086C384.58 98.1111 383.27 96.5078 381.297 96.5078H324.465C322.492 96.5078 320.598 98.1111 320.236 100.086L314.36 132.524C314.007 134.5 315.316 136.103 317.289 136.103Z" fill="#EEA07B"/>
<path d="M362.869 118.824C364.529 117.306 364.849 114.951 363.583 113.564C362.318 112.177 359.946 112.283 358.286 113.801C356.627 115.318 356.307 117.673 357.573 119.06C358.838 120.447 361.21 120.341 362.869 118.824Z" fill="white"/>
<path d="M351.584 118.822C353.244 117.304 353.563 114.949 352.298 113.562C351.032 112.175 348.661 112.281 347.001 113.799C345.342 115.317 345.022 117.671 346.288 119.058C347.553 120.445 349.925 120.339 351.584 118.822Z" fill="white"/>
<path d="M340.293 118.818C341.953 117.3 342.272 114.945 341.007 113.558C339.741 112.171 337.37 112.277 335.71 113.795C334.051 115.313 333.731 117.667 334.997 119.054C336.262 120.441 338.634 120.335 340.293 118.818Z" fill="white"/>
<path d="M347.878 133.968L328.129 145.723L331.668 133.047L347.878 133.968Z" fill="#EEA07B"/>
<path d="M134.209 131.29H77.3772C75.4041 131.29 73.5106 129.687 73.1478 127.712L67.2726 95.2739C66.9187 93.2986 68.2282 91.6953 70.2013 91.6953H127.033C129.006 91.6953 130.9 93.2986 131.263 95.2739L137.138 127.712C137.492 129.687 136.182 131.29 134.209 131.29Z" fill="#EEA07B"/>
<path d="M93.9288 114.233C95.1944 112.846 94.8748 110.491 93.2151 108.973C91.5554 107.456 89.184 107.35 87.9185 108.737C86.6529 110.124 86.9724 112.478 88.6321 113.996C90.2918 115.514 92.6632 115.62 93.9288 114.233Z" fill="white"/>
<path d="M105.208 114.235C106.474 112.848 106.154 110.493 104.494 108.975C102.835 107.458 100.463 107.352 99.1978 108.739C97.9322 110.126 98.2517 112.48 99.9114 113.998C101.571 115.516 103.943 115.622 105.208 114.235Z" fill="white"/>
<path d="M116.505 114.235C117.771 112.848 117.451 110.493 115.791 108.975C114.132 107.458 111.76 107.352 110.495 108.739C109.229 110.126 109.549 112.48 111.208 113.998C112.868 115.516 115.239 115.622 116.505 114.235Z" fill="white"/>
<path d="M113.939 129.164L117.054 140.503L129.663 128.367L113.939 129.164Z" fill="#EEA07B"/>
<defs>
<linearGradient id="paint0_linear_1391_269284" x1="201.104" y1="198.092" x2="275.022" y2="198.8" gradientUnits="userSpaceOnUse">
<stop stop-color="#FB8D48"/>
<stop offset="0.2" stop-color="#ED7136"/>
<stop offset="0.3999" stop-color="#C54E47"/>
<stop offset="0.4" stop-color="#C14F49"/>
<stop offset="0.6" stop-color="#9D3863"/>
<stop offset="0.8" stop-color="#5E1F72"/>
</linearGradient>
<linearGradient id="paint1_linear_1391_269284" x1="240.626" y1="172.025" x2="259.65" y2="176.382" gradientUnits="userSpaceOnUse">
<stop stop-color="#FB8D48"/>
<stop offset="0.2" stop-color="#ED7136"/>
<stop offset="0.3999" stop-color="#C54E47"/>
<stop offset="0.4" stop-color="#C14F49"/>
<stop offset="0.6" stop-color="#9D3863"/>
<stop offset="0.8" stop-color="#5E1F72"/>
</linearGradient>
<linearGradient id="paint2_linear_1391_269284" x1="231.056" y1="209.28" x2="237.226" y2="209.286" gradientUnits="userSpaceOnUse">
<stop stop-color="#FB8D48"/>
<stop offset="0.2" stop-color="#ED7136"/>
<stop offset="0.3999" stop-color="#C54E47"/>
<stop offset="0.4" stop-color="#C14F49"/>
<stop offset="0.6" stop-color="#9D3863"/>
<stop offset="0.8" stop-color="#5E1F72"/>
</linearGradient>
<linearGradient id="paint3_linear_1391_269284" x1="109.237" y1="238.875" x2="148.726" y2="239.258" gradientUnits="userSpaceOnUse">
<stop stop-color="#FB8D48"/>
<stop offset="0.2" stop-color="#ED7136"/>
<stop offset="0.3999" stop-color="#C54E47"/>
<stop offset="0.4" stop-color="#C14F49"/>
<stop offset="0.6" stop-color="#9D3863"/>
<stop offset="0.8" stop-color="#5E1F72"/>
</linearGradient>
<linearGradient id="paint4_linear_1391_269284" x1="55.0968" y1="236.005" x2="138.319" y2="237.605" gradientUnits="userSpaceOnUse">
<stop stop-color="#FB8D48"/>
<stop offset="0.2" stop-color="#ED7136"/>
<stop offset="0.3999" stop-color="#C54E47"/>
<stop offset="0.4" stop-color="#C14F49"/>
<stop offset="0.6" stop-color="#9D3863"/>
<stop offset="0.8" stop-color="#5E1F72"/>
</linearGradient>
<linearGradient id="paint5_linear_1391_269284" x1="37.7037" y1="238.607" x2="82.1526" y2="239.09" gradientUnits="userSpaceOnUse">
<stop stop-color="#FB8D48"/>
<stop offset="0.2" stop-color="#ED7136"/>
<stop offset="0.3999" stop-color="#C54E47"/>
<stop offset="0.4" stop-color="#C14F49"/>
<stop offset="0.6" stop-color="#9D3863"/>
<stop offset="0.8" stop-color="#5E1F72"/>
</linearGradient>
<linearGradient id="paint6_linear_1391_269284" x1="265.066" y1="234.859" x2="323.844" y2="235.683" gradientUnits="userSpaceOnUse">
<stop stop-color="#FB8D48"/>
<stop offset="0.2" stop-color="#ED7136"/>
<stop offset="0.3999" stop-color="#C54E47"/>
<stop offset="0.4" stop-color="#C14F49"/>
<stop offset="0.6" stop-color="#9D3863"/>
<stop offset="0.8" stop-color="#5E1F72"/>
</linearGradient>
<linearGradient id="paint7_linear_1391_269284" x1="316.958" y1="235.925" x2="340.059" y2="236.055" gradientUnits="userSpaceOnUse">
<stop stop-color="#FB8D48"/>
<stop offset="0.2" stop-color="#ED7136"/>
<stop offset="0.3999" stop-color="#C54E47"/>
<stop offset="0.4" stop-color="#C14F49"/>
<stop offset="0.6" stop-color="#9D3863"/>
<stop offset="0.8" stop-color="#5E1F72"/>
</linearGradient>
</defs>
</svg>
