<svg width="312" height="281" viewBox="0 0 312 281" fill="none" xmlns="http://www.w3.org/2000/svg">
<path d="M152.504 91.8806C152.173 91.8806 151.839 91.8076 151.518 91.657L146.424 89.2724C145.408 88.7964 144.65 87.6139 144.446 86.1859L143.428 79.0344C143.225 77.607 143.604 76.1289 144.417 75.1769L148.493 70.4094C149.306 69.4574 150.443 69.1624 151.46 69.6384L156.554 72.0229C157.57 72.4989 158.329 73.6814 158.532 75.1094L159.55 82.2609C159.753 83.6884 159.374 85.1659 158.561 86.1179L154.485 90.8853C153.929 91.5367 153.221 91.8806 152.504 91.8806ZM147.681 85.1029L152.44 87.3307L156.248 82.8763L155.297 76.1941L150.537 73.9658L146.729 78.4202L147.681 85.1029Z" fill="#F5F5F5"/>
<path d="M211.926 71.1134C211.594 71.1134 211.261 71.0404 210.94 70.8897L208.362 69.6831C207.345 69.2066 206.587 68.0235 206.384 66.5961L205.869 62.9773C205.665 61.5504 206.044 60.0729 206.857 59.1203L208.921 56.7066C209.735 55.7545 210.872 55.4595 211.889 55.936L214.466 57.1432C215.483 57.6192 216.242 58.8022 216.445 60.2303L216.96 63.849C217.162 65.2771 216.784 66.754 215.971 67.706L213.907 70.1198C213.351 70.7695 212.643 71.1134 211.926 71.1134ZM209.618 65.5131L211.863 66.5635L213.658 64.4633L213.209 61.3127L210.965 60.2618L209.17 62.362L209.618 65.5131Z" fill="#F5F5F5"/>
<path d="M283.165 124.071C282.507 124.071 281.873 123.668 281.454 122.964L280.002 120.516C279.515 119.694 279.387 118.574 279.67 117.592L280.513 114.668C280.795 113.687 281.45 112.978 282.221 112.818L284.517 112.342C285.285 112.182 286.069 112.594 286.557 113.416L288.009 115.864C288.497 116.685 288.625 117.806 288.342 118.788L287.498 121.711C287.216 122.693 286.561 123.402 285.79 123.562L283.494 124.037C283.385 124.061 283.275 124.071 283.165 124.071ZM284.848 114.557C284.822 114.557 284.795 114.559 284.769 114.565L282.473 115.041C282.288 115.079 282.131 115.249 282.063 115.484L281.22 118.408C281.152 118.643 281.183 118.913 281.3 119.11L282.752 121.558C282.869 121.755 283.061 121.854 283.242 121.815L285.538 121.34C285.723 121.302 285.879 121.131 285.947 120.896L286.79 117.972C286.858 117.737 286.828 117.468 286.711 117.271V117.271L285.258 114.823C285.158 114.654 285.006 114.557 284.848 114.557Z" fill="#E0E0E0"/>
<path d="M24.0035 148.499C23.1577 148.499 22.3424 147.981 21.8049 147.075L18.3916 141.324C17.7651 140.267 17.6017 138.827 17.9652 137.566L19.9458 130.696C20.3098 129.435 21.1505 128.524 22.141 128.319L27.5349 127.201C28.5271 126.996 29.53 127.525 30.1569 128.582L33.5702 134.333C34.1971 135.389 34.3606 136.829 33.997 138.09L32.016 144.961C31.6525 146.222 30.8113 147.133 29.8204 147.339L24.4265 148.456C24.2859 148.484 24.1445 148.499 24.0035 148.499ZM20.6996 138.922L24.0422 144.555L29.3241 143.461L31.2635 136.734L27.9209 131.101L22.6394 132.195L20.6996 138.922Z" fill="#E0E0E0"/>
<path d="M37.806 98.1242H34.5894C33.8094 98.1242 33.0827 97.5578 32.6929 96.6451L31.0846 92.8814C30.6944 91.9687 30.6944 90.8357 31.0846 89.923L32.6929 86.1593C33.0827 85.2466 33.8094 84.6801 34.5894 84.6801H37.806C38.5855 84.6801 39.3123 85.2466 39.7025 86.1587L41.3112 89.9224C41.7014 90.8351 41.7014 91.9681 41.3112 92.8808L39.7025 96.6445C39.3123 97.5578 38.5855 98.1242 37.806 98.1242ZM34.589 86.9292C34.4018 86.9292 34.2271 87.0652 34.1335 87.2844L32.5253 91.0481C32.4317 91.2673 32.4317 91.5393 32.5253 91.7585L34.1335 95.5222C34.2271 95.7414 34.4018 95.8774 34.589 95.8774H37.8055C37.9927 95.8774 38.1675 95.7414 38.2611 95.5222L39.8693 91.7585C39.9629 91.5393 39.9629 91.2673 39.8693 91.0481L38.2611 87.2844C38.1675 87.0652 37.9927 86.9292 37.8055 86.9292H34.589Z" fill="#EBEBEB"/>
<path d="M92.6758 55.6109L86.4042 50.2786L78.7028 32.7212L67.9908 23.8601L65.917 26.8938L67.0065 28.8692L70.3861 34.9967L83.8125 59.3425L89.2875 63.412L92.6758 55.6109Z" fill="#EBEBEB"/>
<path d="M84.7951 68.2352L82.9984 60.1497L63.27 29.7023L60.6396 31.8047L64.8046 47.8138L76.2571 63.0103L78.8238 72.5014L84.7951 68.2352Z" fill="#EBEBEB"/>
<path d="M95.4794 57.1175C95.4794 57.1175 117.758 73.6346 122.246 79.2108C126.734 84.787 137.22 108.002 136.155 110.967C135.09 113.932 134.275 114.313 131.858 111.461C129.441 108.609 121.631 92.6786 119.531 90.1046C117.431 87.5307 91.3369 66.8485 91.3369 66.8485L95.4794 57.1175Z" fill="#E86B31"/>
<path d="M80.3782 64.1903C84.2745 64.1903 87.4331 59.9232 87.4331 54.6594C87.4331 49.3956 84.2745 45.1284 80.3782 45.1284C76.4818 45.1284 73.3232 49.3956 73.3232 54.6594C73.3232 59.9232 76.4818 64.1903 80.3782 64.1903Z" fill="#EBEBEB"/>
<path d="M78.6028 63.8847C78.6086 63.8347 79.2094 64.1123 80.3259 64.1247C80.8825 64.1427 81.5668 64.0235 82.3235 63.7268C83.0786 63.425 83.9068 62.9007 84.6839 62.0661C85.4548 61.2326 86.1915 60.1008 86.6757 58.6666C87.1508 57.2402 87.4391 55.5441 87.2956 53.7828C87.2431 52.9032 87.0788 52.0153 86.8201 51.1616C86.7032 50.7261 86.5301 50.3209 86.3691 49.9033C86.1774 49.5099 85.9939 49.103 85.7601 48.7394C84.8744 47.2349 83.5803 46.1081 82.1255 45.5776C80.6633 45.083 79.1266 45.2156 77.8103 45.9468C77.475 46.1104 77.168 46.3453 76.859 46.5628C76.5678 46.8213 76.2703 47.0618 76.0111 47.3653C75.4774 47.9408 75.014 48.6084 74.6508 49.3424C73.8904 50.7862 73.531 52.4576 73.4319 54.0166C73.3379 55.5879 73.5734 57.0615 73.9465 58.2962C74.3247 59.5365 74.8588 60.5391 75.4096 61.2995C75.9641 62.0565 76.5182 62.6107 77.0112 62.9614C77.9913 63.6847 78.6157 63.837 78.6028 63.8847C78.602 63.8898 78.5641 63.8785 78.4909 63.8527C78.4061 63.8207 78.2991 63.7802 78.1669 63.7302C78.0233 63.6796 77.8482 63.606 77.6502 63.4863C77.4497 63.3756 77.215 63.2547 76.9713 63.0608C76.4667 62.7214 75.8963 62.1734 75.3239 61.4142C74.7552 60.6515 74.2011 59.6383 73.8055 58.376C73.4149 57.1194 73.1649 55.6121 73.2531 53.9991C73.3462 52.3997 73.7094 50.68 74.4865 49.189C74.858 48.432 75.3331 47.7418 75.8814 47.1472C76.1476 46.8342 76.4529 46.5847 76.7529 46.3177C77.0711 46.0924 77.3873 45.8496 77.7321 45.6799C79.0875 44.9228 80.6737 44.7829 82.1808 45.2932C83.6805 45.8389 85.015 47.0051 85.9257 48.5573C86.1657 48.9322 86.3546 49.352 86.5509 49.7583C86.7165 50.1888 86.8933 50.6069 87.0131 51.056C87.2773 51.936 87.4437 52.851 87.4952 53.7564C87.6367 55.5699 87.3342 57.3099 86.8392 58.7683C86.335 60.2351 85.5733 61.3872 84.7792 62.2274C83.9788 63.0698 83.1293 63.5902 82.3581 63.8825C81.5847 64.1691 80.8892 64.2725 80.3259 64.2371C80.0434 64.2461 79.7951 64.1972 79.5796 64.1618C79.3633 64.1365 79.184 64.0854 79.04 64.0353C78.9061 63.9921 78.7988 63.9572 78.7127 63.9291C78.639 63.905 78.602 63.8892 78.6028 63.8847Z" fill="#E0E0E0"/>
<path d="M79.374 59.8714C77.2445 59.1234 75.9674 56.1853 76.5206 53.309C77.0743 50.4321 79.2492 48.7067 81.3783 49.4542C83.5078 50.2017 84.7853 53.1404 84.2316 56.0167C83.6783 58.893 81.5035 60.6189 79.374 59.8714Z" fill="#8A350E"/>
<path d="M79.3757 59.8703C79.3807 59.8338 79.7214 59.9822 80.3488 59.9811C80.9645 59.9783 81.9113 59.7506 82.789 58.8076C83.2192 58.3389 83.6298 57.7038 83.8989 56.9007C84.1631 56.1021 84.3228 55.154 84.2413 54.1711C84.2113 53.6799 84.119 53.1842 83.9742 52.7082C83.8348 52.2288 83.6356 51.7686 83.3818 51.3572C82.8872 50.5181 82.165 49.8904 81.3534 49.5942C80.5376 49.3182 79.6807 49.3919 78.9456 49.7993C78.5754 49.9909 78.2355 50.2624 77.941 50.5895C77.6427 50.9104 77.3835 51.2824 77.1805 51.6916C76.7549 52.4969 76.5524 53.4298 76.4954 54.3009C76.4413 55.1793 76.5707 56.0038 76.7778 56.6962C77.2046 58.0972 77.9493 58.9183 78.4863 59.3258C79.0342 59.7405 79.3849 59.8349 79.3757 59.8703C79.3757 59.8703 79.018 59.8181 78.4456 59.4269C77.8852 59.042 77.099 58.2226 76.6364 56.7771C76.4122 56.0628 76.2674 55.2046 76.3161 54.2846C76.3677 53.3725 76.5732 52.3913 77.0158 51.5393C77.2275 51.1071 77.4983 50.7126 77.8108 50.3725C78.1198 50.0264 78.4772 49.738 78.867 49.5335C79.6407 49.1007 80.5472 49.0198 81.4079 49.3115C82.2645 49.6228 83.027 50.2899 83.5461 51.1768C83.8128 51.6118 84.0208 52.0984 84.166 52.6042C84.3166 53.1072 84.411 53.6293 84.4397 54.1464C84.5192 55.1816 84.3453 56.1741 84.0616 57.0041C83.7725 57.8393 83.3369 58.494 82.8835 58.9706C81.9587 59.9288 80.9765 60.1272 80.3479 60.0946C79.7073 60.0597 79.3757 59.8703 79.3757 59.8703Z" fill="#E0E0E0"/>
<path d="M88.2564 62.0697L91.1384 55.2943C91.9833 53.3076 93.8607 52.6225 95.3313 53.7639L95.6008 53.9736C97.0714 55.115 97.5785 57.6513 96.7336 59.638L93.852 66.4134C93.0071 68.4001 91.1297 69.0852 89.6591 67.9438L89.3896 67.7341C87.9186 66.5921 87.4115 64.0564 88.2564 62.0697Z" fill="#EBEBEB"/>
<path d="M88.2539 62.0706C88.2851 62.0852 88.0051 62.5904 87.9086 63.6532C87.8678 64.1798 87.9019 64.8424 88.0937 65.5477C88.1965 65.8955 88.3358 66.2513 88.5247 66.5902C88.7194 66.9229 88.9611 67.2348 89.2506 67.4939C89.5455 67.7423 89.8688 68.0103 90.2245 68.1671C90.583 68.329 90.9791 68.4038 91.3851 68.365C92.195 68.293 93.0412 67.7209 93.5807 66.7217C94.5363 64.5659 95.5493 62.0998 96.6367 59.5669C97.1625 58.3333 97.15 56.772 96.6508 55.6126C96.4141 55.0242 96.063 54.542 95.662 54.1964C95.2497 53.8418 94.835 53.5377 94.3824 53.4293C93.4859 53.1825 92.5724 53.5248 91.9413 54.2149C91.2894 54.8876 90.9995 55.9144 90.6167 56.7226C89.9033 58.3608 89.3217 59.6961 88.9062 60.651C88.7086 61.0927 88.5509 61.4451 88.4315 61.7115C88.3217 61.952 88.2605 62.0756 88.2539 62.0706C88.2472 62.0655 88.2959 61.9318 88.3941 61.6811C88.5043 61.408 88.6507 61.046 88.8333 60.5931C89.2344 59.627 89.7956 58.2765 90.484 56.6186C90.66 56.1994 90.8435 55.761 91.0348 55.3047C91.2295 54.8393 91.4924 54.388 91.8294 54.0244C92.4937 53.2843 93.463 52.9083 94.4219 53.164C94.904 53.2753 95.3566 53.6035 95.7731 53.9598C96.2028 54.3268 96.5805 54.8427 96.8359 55.4716C97.3734 56.7113 97.3896 58.3889 96.8247 59.7119C95.7319 62.2566 94.731 64.6822 93.7417 66.8807C93.161 67.9435 92.2558 68.542 91.3972 68.6072C90.9666 68.6426 90.5477 68.5572 90.1704 68.3807C89.7868 68.202 89.4698 67.93 89.1653 67.6653C88.8637 67.3877 88.6137 67.055 88.4149 66.7026C88.2214 66.3435 88.0812 65.9686 87.9801 65.6039C87.7917 64.8648 87.7705 64.1786 87.825 63.6397C87.879 63.0968 88.0059 62.7039 88.0891 62.4437C88.1906 62.1931 88.2476 62.0661 88.2539 62.0706Z" fill="#E0E0E0"/>
<path d="M79.6523 77.2947C79.6523 77.2947 88.093 109.677 91.4355 116.567C94.7785 123.456 110.028 141.209 112.367 140.271C114.706 139.334 115.117 138.31 113.427 134.624C111.737 130.939 101.372 117.938 99.8333 114.721C98.295 111.503 87.4328 73.3562 87.4328 73.3562L79.6523 77.2947Z" fill="#E86B31"/>
<path d="M84.4446 68.4665L79.0275 71.2062C77.4392 72.0093 76.6334 74.4006 77.2279 76.5463L77.3369 76.9397C77.9313 79.0855 79.7014 80.174 81.2897 79.3709L86.7068 76.6312C88.2956 75.8275 89.1009 73.4368 88.5065 71.2911L88.3975 70.8977C87.803 68.752 86.0329 67.6634 84.4446 68.4665Z" fill="#EBEBEB"/>
<path d="M84.4466 68.4678C84.4441 68.4588 84.5465 68.4032 84.7462 68.3093C84.95 68.2402 85.257 68.1351 85.6626 68.1514C86.0653 68.166 86.5632 68.3065 87.072 68.6774C87.3216 68.8719 87.5729 69.1197 87.8038 69.4356C88.0288 69.7582 88.231 70.146 88.3849 70.5927C88.5284 71.0418 88.6757 71.5088 88.7439 72.0489C88.8117 72.5805 88.8059 73.1526 88.7098 73.7208C88.5226 74.8549 87.9385 75.9643 87.0679 76.5657C85.3015 77.5267 83.3671 78.4664 81.3308 79.5094C80.2725 80.0478 79.0499 79.7533 78.232 78.835C77.8139 78.3927 77.4986 77.8054 77.3006 77.1726C77.108 76.5595 76.942 75.9031 76.9391 75.2422C76.9079 73.9226 77.3401 72.6918 77.9887 71.9264C78.309 71.5363 78.6813 71.2593 79.0528 71.0755C79.4172 70.8945 79.7675 70.7209 80.1019 70.5551C81.4248 69.9071 82.5027 69.3788 83.2731 69.0012C83.6338 68.8309 83.9216 68.6949 84.1392 68.5926C84.3381 68.5015 84.4441 68.4588 84.4466 68.4678C84.4491 68.4774 84.3489 68.5386 84.155 68.6471C83.9412 68.7629 83.6579 68.9157 83.3031 69.1074C82.5384 69.5064 81.4685 70.0639 80.156 70.749C79.5037 71.1278 78.7067 71.3469 78.1093 72.1068C77.5028 72.8357 77.1038 73.9979 77.1388 75.2332C77.1446 75.8536 77.2989 76.4561 77.4911 77.063C77.6783 77.6537 77.9737 78.2 78.3647 78.6114C79.1302 79.4656 80.2687 79.7365 81.2551 79.2357C83.2823 78.1977 85.2479 77.2491 86.978 76.3257C87.7954 75.7688 88.3512 74.7341 88.5355 73.6663C88.6299 73.1319 88.6395 72.5912 88.5796 72.0871C88.5226 71.5875 88.3799 71.1126 88.2464 70.6793C88.1041 70.251 87.9157 69.8779 87.7047 69.5648C87.488 69.258 87.2505 69.0146 87.0134 68.8208C86.5295 68.451 86.0511 68.2975 85.6597 68.2661C84.8668 68.2211 84.4525 68.5122 84.4466 68.4678Z" fill="#E0E0E0"/>
<path d="M297.338 254.852C297.338 254.932 233.924 254.998 155.717 254.998C77.4831 254.998 14.083 254.932 14.083 254.852C14.083 254.771 77.4835 254.705 155.717 254.705C233.924 254.705 297.338 254.771 297.338 254.852Z" fill="#263238"/>
<path d="M36.1992 190.557C36.3145 190.086 49.2762 132.843 49.2762 132.843L48.9517 125.734L52.3417 118.193L56.5524 120.072L55.9763 128.525L52.9836 134.671L39.927 192.184L36.1992 190.557Z" fill="#E0E0E0"/>
<path d="M36.1992 190.556C36.1992 190.556 36.2866 190.587 36.4492 190.655C36.6173 190.725 36.8561 190.825 37.1693 190.956C37.8037 191.226 38.7322 191.621 39.9386 192.134L39.8904 192.167C41.9991 182.828 46.8767 161.227 52.8825 134.628L52.8871 134.608L52.8954 134.591C53.843 132.643 54.8577 130.558 55.8868 128.443L55.8698 128.51C56.0532 125.813 56.2479 122.953 56.4451 120.056L56.5192 120.208C56.4093 120.16 56.2904 120.106 56.171 120.053C54.8722 119.474 53.5839 118.899 52.3084 118.33L52.4345 118.267C51.2821 120.829 50.1494 123.348 49.0432 125.807L49.0586 125.723C49.1684 128.147 49.2762 130.519 49.3806 132.832L49.3818 132.857L49.3764 132.882C45.5879 149.512 42.3069 163.915 39.9707 174.171C38.7959 179.298 37.8591 183.387 37.2134 186.204C36.8898 187.605 36.6393 188.688 36.468 189.431C36.3827 189.794 36.3178 190.071 36.2716 190.267C36.2267 190.457 36.1992 190.556 36.1992 190.556C36.1992 190.556 36.2154 190.464 36.255 190.279C36.2974 190.085 36.3569 189.811 36.4351 189.454C36.5994 188.715 36.8386 187.637 37.1481 186.243C37.7788 183.428 38.6944 179.342 39.8421 174.217C42.1605 163.93 45.4165 149.482 49.1759 132.8L49.1718 132.85C49.0657 130.537 48.9567 128.165 48.8452 125.741L48.8431 125.696L48.8606 125.658C49.9659 123.198 51.0978 120.678 52.2493 118.116L52.2938 118.016L52.3754 118.053C53.6508 118.621 54.9396 119.196 56.2379 119.776C56.3569 119.829 56.4763 119.882 56.5861 119.931L56.6681 119.967L56.6602 120.083C56.4626 122.98 56.2675 125.84 56.0832 128.536L56.0807 128.573L56.0657 128.603C55.0357 130.717 54.0202 132.801 53.0718 134.748L53.0847 134.711C47.019 161.286 42.0927 182.867 39.9628 192.198L39.9511 192.248L39.9145 192.232C38.7052 191.691 37.7742 191.274 37.1381 190.989C36.8311 190.85 36.5965 190.743 36.4318 190.668C36.2749 190.596 36.1992 190.556 36.1992 190.556Z" fill="#263238"/>
<path d="M33.0712 193.34L27.2497 203.975L19.1086 243.87C19.1086 243.87 17.938 252.007 24.5919 254.319C32.0633 256.915 33.7867 249.183 33.7867 249.183L41.7024 210.22L41.5838 196.698L43.5378 193.726C43.9309 193.128 43.7425 192.181 43.1804 191.93L33.8329 187.76C33.268 187.508 32.6977 188.123 32.7551 188.924L33.0712 193.34Z" fill="url(#paint0_linear_1532_316594)"/>
<path d="M41.6481 197.166C41.6302 197.243 39.6709 196.472 37.2726 195.444C34.8736 194.415 32.9437 193.519 32.962 193.442C32.9799 193.365 34.9389 194.136 37.3384 195.164C39.7362 196.193 41.6664 197.089 41.6481 197.166Z" fill="#263238"/>
<path d="M41.6999 210.219C41.6961 210.239 41.489 210.189 41.1166 210.081C40.7439 209.974 40.2081 209.802 39.5479 209.578C38.2275 209.13 36.4138 208.451 34.434 207.598C32.4543 206.744 30.6846 205.876 29.4166 205.208C28.7822 204.874 28.2722 204.593 27.9228 204.389C27.5729 204.185 27.3824 204.064 27.3878 204.045C27.3932 204.027 27.5946 204.112 27.9536 204.282C28.3504 204.474 28.86 204.719 29.4707 205.014C30.7512 205.632 32.5246 206.466 34.5006 207.32C36.4762 208.171 38.2795 208.88 39.5878 209.378C40.2118 209.616 40.7323 209.815 41.1379 209.97C41.5031 210.112 41.7036 210.2 41.6999 210.219Z" fill="#263238"/>
<g opacity="0.3">
<path d="M22.0364 245L21.8367 244.921C21.1091 244.629 20.694 243.596 20.9095 242.614L28.2182 209.265C28.4337 208.282 29.1983 207.721 29.9258 208.012L30.1255 208.092C30.8531 208.383 31.2683 209.416 31.0528 210.399L23.7441 243.748C23.5286 244.731 22.764 245.291 22.0364 245Z" fill="black"/>
</g>
<g opacity="0.3">
<path d="M26.1858 246.845L25.9861 246.765C25.2586 246.474 24.8434 245.441 25.0589 244.458L32.3676 211.11C32.5831 210.127 33.3477 209.566 34.0753 209.857L34.2749 209.937C35.0025 210.228 35.4177 211.261 35.2022 212.244L27.8935 245.592C27.6784 246.575 26.9138 247.136 26.1858 246.845Z" fill="black"/>
</g>
<g opacity="0.3">
<path d="M30.5901 248.608L30.3904 248.528C29.6629 248.237 29.2477 247.204 29.4632 246.221L36.7719 212.873C36.9874 211.89 37.752 211.329 38.4796 211.62L38.6792 211.699C39.4068 211.991 39.822 213.023 39.6065 214.006L32.2978 247.355C32.0827 248.338 31.3181 248.899 30.5901 248.608Z" fill="black"/>
</g>
<path d="M52.9469 134.654C52.9273 134.73 52.0978 134.412 51.094 133.943C50.0902 133.474 49.2923 133.032 49.3119 132.956C49.3314 132.879 50.1609 133.197 51.1647 133.666C52.1685 134.136 52.9664 134.577 52.9469 134.654Z" fill="#263238"/>
<path d="M56.5551 120.069C56.5676 120.074 56.5151 120.352 56.4086 120.857C56.2884 121.403 56.1299 122.125 55.9361 123.006C55.5072 124.871 54.9248 127.404 54.2617 130.289L54.2292 130.429L54.1256 130.38C53.507 130.089 52.8664 129.787 52.2095 129.478C51.5315 129.157 50.87 128.843 50.2356 128.542L50.1416 128.498L50.1682 128.369C50.7702 125.481 51.2977 122.948 51.6862 121.083C51.8772 120.208 52.0336 119.493 52.1517 118.951C52.2644 118.454 52.3323 118.185 52.3447 118.19C52.3572 118.194 52.314 118.472 52.2233 118.978C52.1205 119.525 51.9845 120.248 51.8185 121.132C51.4487 123.003 50.9457 125.546 50.3725 128.445L50.3055 128.272C50.9407 128.571 51.6026 128.882 52.2811 129.202C52.9375 129.513 53.5778 129.816 54.1959 130.109L54.0599 130.201C54.7513 127.328 55.3587 124.806 55.8054 122.949C56.0238 122.078 56.2027 121.365 56.3383 120.826C56.4665 120.331 56.5426 120.064 56.5551 120.069Z" fill="#263238"/>
<path d="M179.251 62.9014C178.919 62.9014 178.586 62.8284 178.265 62.6778L173.171 60.2932C172.155 59.8172 171.397 58.6353 171.193 57.2078L170.175 50.0553C169.972 48.6278 170.351 47.1497 171.165 46.1977L175.24 41.4308C176.053 40.4799 177.191 40.1843 178.207 40.6597L183.301 43.0443C184.318 43.5203 185.076 44.7033 185.279 46.1314L186.297 53.2817C186.5 54.7109 186.121 56.1884 185.307 57.1393L181.232 61.9056C180.676 62.5569 179.968 62.9014 179.251 62.9014ZM174.428 56.1226L179.187 58.3504L182.995 53.896L182.043 47.2138L177.284 44.9854L173.476 49.4399L174.428 56.1226Z" fill="#E0E0E0"/>
<path d="M174.43 56.1208C174.425 56.1281 174.396 55.9747 174.346 55.6763C174.294 55.3464 174.224 54.9075 174.137 54.3584C173.958 53.1681 173.707 51.5017 173.4 49.4594C173.394 49.4207 173.406 49.3808 173.426 49.3566C174.509 48.0797 175.799 46.5567 177.22 44.8803C177.248 44.8465 177.287 44.8387 177.32 44.8544C178.793 45.5412 180.403 46.292 182.081 47.0743C182.018 46.976 182.168 47.2092 182.153 47.1861L182.153 47.1878L182.153 47.1912L182.154 47.1979L182.156 47.212L182.16 47.2395L182.168 47.2946L182.184 47.4048L182.215 47.6239L182.277 48.0606C182.318 48.3512 182.359 48.64 182.4 48.9272C182.481 49.501 182.562 50.0681 182.641 50.6273C182.799 51.7445 182.951 52.8281 183.098 53.8694C183.105 53.9195 183.091 53.9689 183.065 53.9998C181.633 55.66 180.34 57.1594 179.243 58.4318C179.221 58.4582 179.19 58.4644 179.164 58.4526C177.712 57.7495 176.527 57.1757 175.68 56.766C175.29 56.571 174.979 56.4153 174.744 56.2978C174.532 56.1883 174.425 56.1281 174.43 56.1208C174.437 56.1141 174.556 56.1602 174.778 56.2546C175.019 56.3597 175.338 56.4996 175.739 56.6744C176.584 57.0565 177.766 57.591 179.216 58.2463L179.137 58.2665C180.226 56.9818 181.51 55.4666 182.93 53.7902L182.897 53.9206C182.747 52.8798 182.592 51.7968 182.431 50.6807C182.351 50.122 182.27 49.5555 182.188 48.9817C182.147 48.6945 182.106 48.4062 182.064 48.1157L182.002 47.679L181.971 47.4598L181.955 47.3502L181.947 47.2952L181.943 47.2676L181.941 47.2541L181.94 47.2474L181.94 47.244L181.94 47.2423C181.924 47.2176 182.074 47.4508 182.009 47.3519C180.333 46.564 178.725 45.8081 177.253 45.1163L177.353 45.0904C175.922 46.75 174.621 48.2579 173.531 49.5224L173.557 49.4195C173.83 51.4517 174.053 53.1096 174.212 54.2938C174.282 54.8541 174.339 55.3014 174.382 55.6381C174.42 55.9472 174.437 56.1141 174.43 56.1208Z" fill="#263238"/>
<path d="M179.253 62.9001C179.253 62.8849 179.434 62.8945 179.768 62.8102C180.097 62.7231 180.594 62.523 181.098 61.9824C182.086 60.814 183.496 59.1454 185.234 57.089C185.666 56.5928 186.003 55.8948 186.165 55.0906C186.243 54.6882 186.278 54.2616 186.261 53.83C186.242 53.4029 186.157 52.9606 186.097 52.5065C185.835 50.6952 185.557 48.7613 185.263 46.7263C185.19 46.2115 185.13 45.7097 184.961 45.246C184.802 44.7807 184.571 44.3536 184.285 43.9989C184 43.6438 183.657 43.3656 183.284 43.1863C182.897 43.0053 182.506 42.8227 182.112 42.6383C181.323 42.2697 180.519 41.8942 179.704 41.5132C179.296 41.3227 178.886 41.1305 178.473 40.9372C178.058 40.7247 177.658 40.5786 177.223 40.582C176.796 40.5853 176.372 40.709 175.989 40.9506C175.599 41.1816 175.288 41.561 174.96 41.951C174.308 42.7136 173.665 43.4645 173.033 44.2029C172.402 44.9408 171.782 45.6658 171.176 46.3756C170.599 47.0809 170.264 48.0875 170.227 49.0884C170.2 49.592 170.279 50.0758 170.351 50.5777C170.42 51.074 170.489 51.5635 170.557 52.0462C170.693 53.0112 170.824 53.9486 170.952 54.8545C171.082 55.756 171.194 56.6462 171.326 57.4661C171.486 58.2704 171.825 58.9695 172.257 59.4635C172.471 59.7125 172.707 59.9137 172.952 60.0648C173.196 60.2121 173.457 60.32 173.702 60.4408C174.194 60.6757 174.66 60.8972 175.095 61.1051C175.96 61.5204 176.708 61.879 177.324 62.1751C177.939 62.4595 178.403 62.7338 178.738 62.8108C179.072 62.8945 179.253 62.8855 179.253 62.9001C179.253 62.9001 179.072 62.9355 178.73 62.8686C178.385 62.8085 177.914 62.5494 177.297 62.2825C176.677 61.9998 175.925 61.6564 175.056 61.2596C174.618 61.0584 174.152 60.8443 173.657 60.6167C173.41 60.4981 173.154 60.3981 172.892 60.2447C172.634 60.089 172.385 59.8805 172.158 59.6214C171.701 59.1072 171.339 58.3743 171.165 57.5252C171.023 56.6737 170.911 55.8077 170.776 54.9C170.645 53.9947 170.51 53.0584 170.371 52.0945C170.301 51.6124 170.231 51.1228 170.16 50.6272C170.088 50.1399 170 49.6122 170.029 49.0744C170.065 48.0049 170.421 46.927 171.037 46.1688C171.644 45.4556 172.264 44.7273 172.895 43.986C173.526 43.2464 174.169 42.4945 174.82 41.7307C174.986 41.5402 175.14 41.348 175.321 41.1569C175.5 40.9737 175.695 40.8152 175.9 40.6854C176.31 40.4257 176.766 40.2925 177.225 40.2892C177.681 40.2807 178.143 40.4538 178.545 40.6612C178.958 40.8545 179.368 41.0473 179.775 41.2384C180.59 41.6206 181.393 41.9971 182.182 42.3674C182.576 42.5529 182.968 42.7372 183.355 42.9193C183.755 43.1127 184.121 43.4122 184.426 43.7938C184.731 44.1743 184.977 44.6323 185.147 45.1308C185.327 45.627 185.391 46.175 185.461 46.6757C185.747 48.7119 186.019 50.648 186.274 52.461C186.332 52.9134 186.416 53.3546 186.436 53.8176C186.451 54.2751 186.413 54.7264 186.328 55.1507C186.153 55.9988 185.791 56.7327 185.335 57.2464C183.577 59.2747 182.151 60.9202 181.152 62.0729C180.624 62.6146 180.113 62.7995 179.777 62.8692C179.434 62.935 179.253 62.9001 179.253 62.9001Z" fill="#263238"/>
<path d="M143.797 51.2027C143.139 51.2027 142.505 50.7998 142.086 50.095L140.634 47.6475C140.146 46.8253 140.019 45.7047 140.302 44.7229L141.145 41.7994C141.428 40.8175 142.083 40.1089 142.853 39.9493L145.149 39.4738C145.92 39.3153 146.701 39.7256 147.189 40.5472L148.641 42.9953C149.129 43.8169 149.257 44.9376 148.974 45.9194L148.131 48.8435C147.848 49.8253 147.193 50.534 146.422 50.6941L144.127 51.1696C144.017 51.1915 143.907 51.2027 143.797 51.2027ZM145.48 41.6875C145.454 41.6875 145.428 41.6903 145.401 41.696L143.106 42.1714C142.921 42.2096 142.764 42.3799 142.696 42.6159L141.853 45.5389C141.785 45.775 141.816 46.0441 141.933 46.2414L143.385 48.6889C143.503 48.8867 143.69 48.9851 143.875 48.9469L146.171 48.4714C146.356 48.4332 146.513 48.2629 146.581 48.0274L147.424 45.1039C147.492 44.8684 147.461 44.5992 147.344 44.402L145.892 41.9545C145.791 41.7842 145.638 41.6875 145.48 41.6875Z" fill="#E0E0E0"/>
<path d="M145.479 41.6874C145.478 41.6807 145.542 41.6577 145.658 41.6987C145.715 41.7212 145.786 41.7616 145.854 41.8392C145.924 41.9207 145.979 42.0246 146.052 42.1354C146.355 42.6277 146.753 43.2734 147.233 44.0529C147.296 44.1569 147.36 44.2631 147.425 44.371C147.495 44.4997 147.536 44.6593 147.54 44.8257C147.549 44.9937 147.497 45.1657 147.46 45.2944C147.42 45.4343 147.38 45.5765 147.34 45.7209C147.176 46.3026 147.001 46.9202 146.818 47.5682C146.772 47.7306 146.725 47.8953 146.678 48.0617C146.626 48.2567 146.512 48.4343 146.368 48.5298C146.211 48.631 146.072 48.6231 145.94 48.6613C145.804 48.69 145.666 48.7192 145.528 48.7484C144.966 48.8619 144.417 48.9918 143.795 49.1002C143.615 49.1008 143.438 48.9946 143.321 48.8142C143.228 48.6574 143.135 48.5017 143.043 48.3471C142.862 48.0414 142.684 47.7402 142.509 47.444C142.334 47.1478 142.163 46.8567 141.994 46.5712L141.869 46.3582C141.825 46.288 141.777 46.1863 141.752 46.089C141.698 45.8901 141.704 45.6625 141.762 45.4759C141.952 44.8307 142.132 44.2164 142.303 43.6376C142.387 43.351 142.47 43.0733 142.549 42.8053C142.592 42.6771 142.617 42.5366 142.69 42.3995C142.759 42.2702 142.854 42.1741 142.958 42.1191C143.758 41.9212 144.363 41.8448 144.802 41.7611C145.235 41.6891 145.478 41.6588 145.479 41.6874C145.478 41.6992 145.421 41.7082 145.309 41.7442C145.17 41.7807 145.008 41.8234 144.815 41.874C144.395 41.9864 143.744 42.1129 143.016 42.3107C142.939 42.3545 142.87 42.4282 142.82 42.5248C142.773 42.6136 142.746 42.7519 142.705 42.8873C142.63 43.1571 142.551 43.437 142.47 43.7258C142.306 44.3075 142.132 44.9251 141.948 45.5737C141.908 45.7097 141.906 45.858 141.944 45.9941C141.974 46.1211 142.073 46.247 142.156 46.3959C142.326 46.6797 142.499 46.9697 142.675 47.2642C142.851 47.5598 143.03 47.8599 143.212 48.1651C143.301 48.3157 143.392 48.4669 143.483 48.6192C143.56 48.7377 143.677 48.8074 143.795 48.8074C144.378 48.69 144.946 48.5753 145.496 48.4646C145.635 48.4365 145.772 48.4084 145.908 48.3809C146.045 48.3466 146.189 48.3427 146.276 48.2791C146.374 48.214 146.45 48.1016 146.488 47.9616C146.537 47.7958 146.585 47.6317 146.632 47.4699C146.822 46.8253 147.003 46.2104 147.173 45.6321C147.216 45.4888 147.258 45.3472 147.299 45.2084C147.344 45.0611 147.378 44.9549 147.374 44.8307C147.373 44.7099 147.345 44.5913 147.295 44.4952C147.234 44.3884 147.174 44.2833 147.115 44.181C146.656 43.3774 146.276 42.712 145.987 42.2051C145.762 41.67 145.468 41.7139 145.479 41.6874Z" fill="#263238"/>
<path d="M143.795 51.2018C143.795 51.1917 143.892 51.172 144.073 51.1439C144.276 51.0961 144.539 51.0338 144.867 50.9568C145.221 50.8764 145.642 50.7809 146.126 50.6707C146.373 50.6139 146.631 50.5735 146.883 50.4229C147.136 50.2835 147.381 50.0632 147.592 49.7709C147.803 49.4759 147.974 49.1134 148.084 48.684C148.206 48.2519 148.334 47.8034 148.465 47.3397C148.691 46.3995 149.157 45.4396 148.988 44.3645C148.92 43.8328 148.738 43.3394 148.454 42.9055C148.182 42.4492 147.905 41.9833 147.623 41.5095C147.482 41.2724 147.339 41.033 147.195 40.7919C147.054 40.544 146.911 40.3338 146.731 40.1523C146.378 39.7932 145.931 39.5858 145.477 39.5869C145.253 39.5813 145.022 39.6521 144.786 39.6954C144.553 39.7437 144.321 39.7915 144.091 39.8387C143.633 39.9348 143.182 40.0292 142.739 40.1225C142.321 40.2473 141.938 40.544 141.658 40.9532C141.517 41.1572 141.399 41.3865 141.31 41.6309C141.223 41.8709 141.152 42.1497 141.075 42.4059C140.923 42.9263 140.775 43.4338 140.631 43.9273C140.496 44.4263 140.319 44.89 140.267 45.357C140.148 46.3158 140.42 47.2088 140.835 47.8236C141.22 48.4851 141.57 49.0859 141.88 49.6186C142.037 49.8811 142.167 50.1402 142.317 50.3324C142.466 50.5285 142.622 50.6814 142.771 50.7943C143.384 51.2389 143.804 51.1591 143.795 51.2018C143.795 51.2068 143.771 51.2108 143.723 51.2142C143.676 51.2181 143.605 51.2164 143.512 51.2057C143.328 51.1821 143.05 51.1164 142.731 50.8944C142.572 50.7848 142.406 50.6325 142.246 50.433C142.081 50.2335 141.945 49.9755 141.785 49.7209C141.468 49.196 141.109 48.6042 140.715 47.9529C140.284 47.338 139.964 46.354 140.089 45.3193C140.146 44.7956 140.324 44.3291 140.453 43.8334C140.594 43.3383 140.74 42.8297 140.889 42.3076C140.967 42.0451 141.03 41.786 141.126 41.509C141.224 41.2398 141.352 40.9869 141.506 40.7615C141.814 40.3102 142.233 39.9809 142.694 39.8415C143.151 39.7325 143.596 39.6493 144.058 39.5498C144.288 39.5021 144.52 39.4537 144.754 39.4054C144.984 39.3633 145.221 39.2885 145.477 39.293C145.979 39.2919 146.471 39.5206 146.861 39.918C147.055 40.1118 147.226 40.3676 147.363 40.6098C147.506 40.8514 147.648 41.0914 147.789 41.3291C148.069 41.8046 148.346 42.2722 148.616 42.7296C148.906 43.1736 149.118 43.7429 149.186 44.3173C149.26 44.8933 149.206 45.4823 149.053 45.992C148.909 46.4844 148.768 46.9632 148.633 47.4263C148.498 47.8882 148.367 48.3345 148.24 48.7644C148.122 49.2073 147.931 49.6074 147.702 49.9143C147.245 50.5487 146.633 50.7775 146.145 50.8303C145.658 50.9214 145.236 51.0006 144.88 51.0669C144.533 51.1276 144.264 51.1816 144.079 51.2001C143.892 51.2119 143.795 51.2119 143.795 51.2018Z" fill="#263238"/>
<path d="M184.323 43.8633C184.366 43.9138 183.903 44.758 183.252 45.7156C182.601 46.6749 181.981 47.3274 181.942 47.2667C181.903 47.2049 182.448 46.4659 183.093 45.5167C183.738 44.568 184.276 43.8076 184.323 43.8633Z" fill="#263238"/>
<path d="M176.52 40.6335C176.575 40.6076 176.862 41.5456 177.077 42.7589C177.294 43.9723 177.355 44.9833 177.297 44.994C177.236 45.0064 177.081 44.0257 176.866 42.8275C176.654 41.6288 176.462 40.6599 176.52 40.6335Z" fill="#263238"/>
<path d="M173.421 49.3285C173.397 49.4055 172.696 49.0722 171.822 48.7091C170.949 48.3422 170.231 48.0814 170.243 47.9999C170.254 47.9229 171.001 48.0578 171.886 48.4298C172.771 48.7979 173.444 49.2565 173.421 49.3285Z" fill="#263238"/>
<path d="M172.53 59.0757C172.484 59.024 172.865 58.3058 173.381 57.4717C173.897 56.6377 174.352 56.0038 174.398 56.0555C174.444 56.1072 174.063 56.8254 173.547 57.6595C173.031 58.4935 172.576 59.128 172.53 59.0757Z" fill="#263238"/>
<path d="M179.54 62.1552C179.481 62.1676 179.35 61.3561 179.247 60.3428C179.144 59.3289 179.109 58.5 179.169 58.4904C179.228 58.4809 179.359 59.2924 179.462 60.3029C179.564 61.3133 179.599 62.1428 179.54 62.1552Z" fill="#263238"/>
<path d="M185.457 54.9524C185.436 55.0278 184.886 54.8125 184.23 54.4719C183.574 54.1314 183.059 53.7936 183.081 53.7183C183.102 53.643 183.651 53.8577 184.308 54.1988C184.964 54.5394 185.479 54.8766 185.457 54.9524Z" fill="#263238"/>
<path d="M268.047 98.0473C270.867 93.4648 273.682 88.8339 275.876 83.664C278.07 78.4942 279.632 72.7146 279.735 66.7574C279.751 65.8542 279.462 59.5835 278.82 59.3334C278.361 59.1541 278.045 64.6892 277.669 65.0871C274.078 68.8857 271.743 74.5231 270.401 80.4123C269.058 86.3009 268.423 91.9063 268.047 98.0473Z" fill="#263238"/>
<path d="M231.362 132.905C232.485 128.979 238.012 109.324 237.99 109.312C237.99 109.312 228.459 102.61 231.731 88.9662C233.311 82.3757 237.384 69.1613 241.172 57.261C245.243 44.4704 255.905 38.0541 265.669 42.5085L266.639 42.9508C276.897 48.55 279.107 63.4464 274.68 77.1434L254.31 140.93L236.448 133.472L231.362 132.905Z" fill="#E4897B"/>
<path d="M237.987 109.31C237.987 109.31 244.201 112.705 252.389 110.054C252.389 110.054 246.723 118.702 236.993 112.9L237.987 109.31Z" fill="#853510"/>
<path d="M241.169 70.381C240.886 71.3932 241.287 72.552 242.065 72.9707C242.84 73.3883 243.7 72.9089 243.982 71.8968C244.265 70.8846 243.865 69.7252 243.089 69.3071C242.312 68.8878 241.452 69.3689 241.169 70.381Z" fill="#263238"/>
<path d="M241.912 63.8798C242.027 64.2142 243.387 63.6224 244.931 64.3327C246.481 65.0128 247.347 66.6043 247.578 66.4251C247.689 66.3498 247.622 65.8097 247.249 65.0987C246.884 64.3934 246.172 63.5448 245.208 63.1109C244.243 62.6793 243.314 62.7884 242.726 63.066C242.128 63.3425 241.853 63.7263 241.912 63.8798Z" fill="#263238"/>
<path d="M254.728 77.747C254.445 78.7592 254.847 79.918 255.624 80.3362C256.399 80.7537 257.258 80.2749 257.542 79.2622C257.825 78.25 257.424 77.0906 256.648 76.6725C255.871 76.2538 255.011 76.7349 254.728 77.747Z" fill="#263238"/>
<path d="M256.841 71.631C256.956 71.9654 258.317 71.3753 259.86 72.0851C261.41 72.7652 262.275 74.3567 262.507 74.1775C262.618 74.1016 262.552 73.5632 262.178 72.8517C261.813 72.1458 261.101 71.2972 260.138 70.8634C259.173 70.4317 258.243 70.5408 257.656 70.8184C257.058 71.0943 256.782 71.4782 256.841 71.631Z" fill="#263238"/>
<path d="M247.285 85.1463C247.322 85.0311 246.417 84.3685 244.928 83.3895C244.547 83.1546 244.2 82.8781 244.224 82.4841C244.228 82.057 244.536 81.5568 244.883 81.0235C245.577 79.9023 246.303 78.7277 247.065 77.4964C250.13 72.4558 252.491 68.238 252.34 68.0728C252.189 67.9075 249.582 71.8595 246.516 76.9007C245.77 78.1483 245.057 79.3369 244.377 80.475C244.077 81.0128 243.648 81.5827 243.649 82.474C243.656 82.9208 243.874 83.3423 244.103 83.5497C244.33 83.7694 244.551 83.8768 244.742 83.9813C246.28 84.8091 247.249 85.2621 247.285 85.1463Z" fill="#263238"/>
<path d="M251.473 88.6636C251.227 88.5292 250.657 90.7941 248.819 91.7473C246.983 92.7072 245.258 91.6371 245.166 91.9479C245.107 92.0794 245.454 92.5695 246.202 92.9421C246.934 93.3141 248.095 93.4861 249.22 92.9027C250.342 92.3154 251.048 91.1718 251.338 90.2675C251.638 89.3498 251.591 88.7029 251.473 88.6636Z" fill="#263238"/>
<path d="M259.042 63.198C259.052 63.8353 260.663 64.2703 262.402 65.3926C264.158 66.4678 265.441 67.852 265.809 67.4529C265.978 67.2585 265.856 66.6077 265.402 65.7883C264.953 64.9723 264.149 64.0242 263.101 63.3638C262.053 62.7063 260.998 62.4854 260.247 62.5467C259.49 62.6057 259.043 62.8991 259.042 63.198Z" fill="#263238"/>
<path d="M244.285 57.2309C244.439 57.8294 245.626 57.8227 246.912 58.3836C248.212 58.8838 249.197 59.7807 249.57 59.3986C249.739 59.208 249.688 58.655 249.326 57.9902C248.971 57.3298 248.282 56.6082 247.393 56.2429C246.504 55.8793 245.634 55.9614 245.067 56.244C244.493 56.525 244.223 56.9454 244.285 57.2309Z" fill="#263238"/>
<path d="M271.345 86.8302C271.542 86.8083 278.946 87.2214 276.404 96.4101C273.862 105.599 267.558 100.256 267.62 99.9866C267.68 99.7174 271.345 86.8302 271.345 86.8302Z" fill="#E4897B"/>
<path d="M270.659 97.5538C270.697 97.5392 270.747 97.7258 270.913 97.9506C271.074 98.1698 271.387 98.4227 271.792 98.4221C272.609 98.4289 273.64 97.193 274.131 95.5537C274.38 94.7264 274.47 93.8643 274.433 93.0944C274.412 92.3177 274.22 91.6854 273.882 91.4157C273.553 91.1218 273.216 91.2847 273.061 91.5017C272.899 91.7124 272.891 91.9175 272.851 91.9153C272.825 91.9288 272.748 91.6877 272.907 91.3359C272.986 91.1673 273.126 90.9914 273.334 90.8953C273.547 90.798 273.812 90.8284 274.054 90.9925C274.565 91.3061 274.857 92.1963 274.897 93.0415C274.967 93.9048 274.879 94.881 274.6 95.81C274.044 97.6398 272.864 99.0179 271.774 98.9055C271.249 98.8324 270.904 98.4362 270.757 98.1153C270.61 97.782 270.631 97.5583 270.659 97.5538Z" fill="#853510"/>
<path d="M249.868 44.3628C249.003 42.9763 253.659 39.8831 256.824 39.6285C261.609 39.2435 268.268 40.9312 271.616 44.3184C275.647 48.3963 278.541 53.3846 279.232 60.1241C279.923 66.8636 278.936 73.7863 277.001 80.0672C276.41 81.9837 275.688 83.9259 274.456 85.1668C272.935 86.7005 270.756 87.0343 270.042 89.8685C269.781 90.9043 269.273 91.8231 268.544 92.2992C266.798 93.4395 265.755 90.9779 265.535 88.9367C265.064 84.5773 266.114 80.2089 267.151 76.0315C267.887 73.0625 268.647 70.0333 270.054 67.5442C270.819 66.1898 271.761 65.0236 272.47 63.6136C273.178 62.2041 273.643 60.4281 273.288 58.7927C273.23 58.5269 273.112 58.1678 272.951 57.7547C271.677 54.4867 269.183 52.4129 266.45 52.3151C262.114 52.1606 254.821 51.5058 253.616 48.8734C251.881 45.0855 251.762 43.1399 251.762 43.1399L249.868 44.3628Z" fill="#472E03"/>
<path d="M272.492 38.7117C272.928 39.0107 283.15 47.5424 283.083 59.9834C283.015 72.4244 281.33 75.471 281.33 75.471C281.33 75.471 281.838 76.2977 282.145 77.3532C282.419 78.299 280.851 81.5002 279.506 80.4318C270.328 68.9288 257.682 62.3225 243.254 56.2877L232.371 51.0251C229.188 50.0832 228.393 48.4866 229.948 48.0488C231.14 47.7133 241.025 47.0383 241.025 47.0383L243.159 46.1504L249.826 39.793C249.826 39.793 249.568 38.3577 250.921 37.8906C252.275 37.4236 263.885 32.8102 272.492 38.7117Z" fill="url(#paint1_linear_1532_316594)"/>
<path d="M243.159 46.1507C243.159 46.1507 243.304 46.2288 243.584 46.353C243.919 46.4975 244.325 46.6728 244.814 46.8835C245.888 47.3146 247.417 48.0446 249.295 48.9804C253.033 50.9092 258.104 53.967 263.335 58.2399C268.588 62.4661 273.052 66.9121 276.238 70.188C277.835 71.8223 279.107 73.1812 279.991 74.1124C280.396 74.5384 280.732 74.8919 281.009 75.1836C281.244 75.4258 281.373 75.5433 281.373 75.5433C281.373 75.5433 281.26 75.3983 281.033 75.1426C280.762 74.8402 280.434 74.4744 280.038 74.0332C279.169 73.0778 277.909 71.6964 276.322 70.0419C273.155 66.7261 268.698 62.2498 263.435 58.0156C258.193 53.7343 253.099 50.695 249.343 48.8073C245.573 46.9471 243.159 46.1507 243.159 46.1507Z" fill="#263238"/>
<g opacity="0.3">
<path d="M280.942 49.989C280.942 49.989 269.662 41.8311 263.43 42.8202C263.672 42.7758 263.915 42.7308 264.158 42.6864C262.218 42.9045 260.279 43.1225 258.34 43.3411C257.357 43.4519 256.229 43.4912 255.553 42.5218C255.553 42.5218 259.085 40.4997 264.663 40.5385C270.241 40.5767 278.426 43.2804 280.942 49.989Z" fill="black"/>
</g>
<path d="M281.091 50.1534C281.091 50.1534 280.837 49.5959 280.262 48.709C279.689 47.8244 278.799 46.5931 277.525 45.3679C276.262 44.1315 274.614 42.9075 272.659 42.0004C270.716 41.0945 268.434 40.4454 266.044 40.7595C264.853 40.8955 263.712 41.2125 262.616 41.5222C261.523 41.8582 260.462 42.1072 259.462 42.4826C258.47 42.8586 257.542 43.2739 256.639 43.3908C255.733 43.5622 254.908 43.2683 254.171 42.9474C251.222 41.6385 249.628 39.9812 249.825 39.7912C249.827 39.7811 249.817 39.9778 249.98 40.2133C250.139 40.4381 250.403 40.7365 250.777 41.0422C251.52 41.661 252.65 42.441 254.129 43.1239C254.858 43.4577 255.73 43.7747 256.656 43.6077C257.581 43.4965 258.524 43.0823 259.51 42.7159C260.495 42.3528 261.565 42.1061 262.655 41.7739C263.75 41.4682 264.884 41.1546 266.061 41.0209C268.418 40.7112 270.668 41.3429 272.601 42.2292C274.542 43.116 276.182 44.3119 277.446 45.5197C278.72 46.715 279.618 47.9172 280.205 48.777C280.499 49.2086 280.717 49.556 280.859 49.7982C281.006 50.0365 281.091 50.1534 281.091 50.1534Z" fill="#263238"/>
<g opacity="0.3">
<path d="M282.935 65.1251C280.798 64.1107 279.365 62.6062 277.399 60.991C275.304 59.2702 273.194 57.6983 271.163 55.8442C269.621 54.437 267.752 52.9505 267.066 50.7772C266.6 51.9023 266.589 53.1129 267.026 54.2588C267.462 55.4047 269.317 57.3892 270.106 58.1141C274.603 62.2437 277.728 65.0655 282.754 67.939C282.891 67.2005 282.935 65.1251 282.935 65.1251Z" fill="black"/>
</g>
<path d="M283.047 58.6045C284.202 60.0292 284.898 60.9514 284.54 62.5306C284.242 63.8452 283.643 65.344 282.638 65.131C282.331 65.0664 282.055 64.8506 281.787 64.6387C277.201 61.0099 272.615 57.381 268.029 53.7522C267.564 53.3841 267.064 52.9615 266.886 52.2736C266.613 51.2153 267.297 50.0593 268.097 49.7654C268.897 49.4715 269.743 49.7924 270.533 50.1369C275.017 52.096 279.108 55.1094 283.047 58.6045Z" fill="url(#paint2_linear_1532_316594)"/>
<path d="M267.039 52.6712C267.068 52.6599 266.837 52.3312 266.863 51.6157C266.885 50.943 267.234 49.8392 268.111 49.3773C268.994 48.9732 270.164 49.2441 271.31 49.869C272.476 50.4996 273.752 51.2173 275.07 52.0305C277.712 53.6451 279.994 55.4132 281.547 56.8873C282.331 57.6117 282.935 58.2529 283.352 58.6975C283.522 58.8829 283.679 59.0544 283.828 59.2168C283.938 59.3331 283.999 59.3916 284.003 59.3848C284.007 59.3781 283.956 59.3067 283.854 59.1769C283.711 59.0015 283.562 58.8178 283.4 58.6188C282.997 58.149 282.403 57.4824 281.626 56.735C280.085 55.2153 277.8 53.4113 275.15 51.7916C273.827 50.975 272.547 50.2641 271.374 49.6437C270.203 49.0238 269.001 48.7501 268.061 49.2042C267.124 49.728 266.788 50.9048 266.786 51.6118C266.782 51.9816 266.853 52.2592 266.915 52.4312C266.988 52.5975 267.036 52.6751 267.039 52.6712Z" fill="#263238"/>
<path d="M247.736 41.7896L257.103 45.8433L255.417 49.0191L245.378 44.0381L247.736 41.7896Z" fill="white"/>
<path d="M258.967 59.4631C258.991 59.3985 255.048 56.6745 250.161 53.3801C245.273 50.0845 241.291 47.4667 241.268 47.5313C241.244 47.596 245.186 50.3194 250.074 53.615C254.961 56.9094 258.943 59.5283 258.967 59.4631Z" fill="#263238"/>
<path d="M261.328 127.647L261.451 119.34L240.409 129.899C240.409 129.899 236.521 112.835 236.521 112.029L231.858 115.989L224.108 111.487L216.357 106.312L200.681 143.379L184.237 208.887L222.989 243.799L251.718 202.204L269.184 166.251L278.787 143.477L261.328 127.647Z" fill="url(#paint3_linear_1532_316594)"/>
<path d="M238.539 129.78C238.526 129.78 238.515 129.489 238.506 128.949C238.501 128.367 238.494 127.587 238.485 126.619L238.579 126.701C236.97 127.756 234.548 129.656 232.243 132.563L232.075 132.775L232.062 132.464C232.047 132.094 232.03 131.7 232.014 131.303C231.845 127.228 231.704 123.539 231.613 120.868C231.573 119.564 231.541 118.493 231.517 117.704C231.51 117.357 231.505 117.073 231.501 116.843C231.5 116.646 231.503 116.542 231.51 116.542C231.518 116.541 231.53 116.644 231.544 116.839C231.559 117.069 231.578 117.352 231.6 117.698C231.641 118.486 231.698 119.554 231.765 120.856C231.896 123.524 232.06 127.211 232.229 131.286C232.245 131.684 232.262 132.078 232.277 132.447L232.096 132.348C234.424 129.422 236.884 127.541 238.522 126.538L238.619 126.479L238.616 126.62C238.6 127.587 238.587 128.368 238.577 128.949C238.565 129.49 238.551 129.78 238.539 129.78Z" fill="#263238"/>
<path d="M259.386 128.047C259.389 128.056 259.307 128.117 259.146 128.223C258.965 128.339 258.731 128.489 258.442 128.675C257.801 129.07 256.917 129.618 255.834 130.287C253.602 131.636 250.56 133.475 247.198 135.506C245.758 136.365 244.377 137.189 243.095 137.954L242.92 138.058L242.952 137.804C243.364 134.639 243.448 131.846 243.432 129.806L243.529 129.885C242.714 130.42 242.061 130.849 241.587 131.16C241.375 131.293 241.203 131.401 241.067 131.487C240.948 131.559 240.885 131.592 240.882 131.585C240.879 131.577 240.936 131.529 241.05 131.442C241.183 131.345 241.349 131.223 241.554 131.072C242.022 130.742 242.666 130.288 243.469 129.722L243.563 129.656L243.566 129.802C243.614 131.85 243.554 134.661 243.153 137.851L243.011 137.702C244.292 136.932 245.671 136.103 247.11 135.238C250.482 133.237 253.533 131.426 255.772 130.097C256.866 129.463 257.76 128.945 258.407 128.57C258.703 128.404 258.943 128.271 259.128 128.168C259.294 128.08 259.383 128.037 259.386 128.047Z" fill="#263238"/>
<path d="M222.606 251.077H64.1487C60.802 251.077 58.0889 247.412 58.0889 242.891V94.6689C58.0889 90.1476 60.802 86.4822 64.1487 86.4822H222.606C225.952 86.4822 228.666 90.1476 228.666 94.6689V242.891C228.666 247.412 225.953 251.077 222.606 251.077Z" fill="#455A64"/>
<path d="M228.824 254.848H58.8239C54.735 254.848 51.4199 250.37 51.4199 244.846V240.446H236.227V244.846C236.228 250.37 232.913 254.848 228.824 254.848Z" fill="#455A64"/>
<path d="M223.609 93.0223H62.666V232.021H223.609V93.0223Z" fill="#263238"/>
<path d="M126.561 238.902L128.854 244.225H161.124L163.253 238.902H126.561Z" fill="#263238"/>
<path d="M219.261 231.576H67.3411C66.5889 231.576 65.9795 230.752 65.9795 229.737V99.5669C65.9795 98.5513 66.5889 97.7274 67.3411 97.7274H219.262C220.014 97.7274 220.623 98.5508 220.623 99.5669V229.737C220.623 230.752 220.013 231.576 219.261 231.576Z" fill="#EBEBEB"/>
<path d="M220.456 231.772H65.8125L65.9781 107.731H220.456V231.772Z" fill="#FAFAFA"/>
<path d="M78.9716 102.898C78.9716 103.893 78.4012 104.7 77.6982 104.7C76.9947 104.7 76.4248 103.893 76.4248 102.898C76.4248 101.902 76.9947 101.096 77.6982 101.096C78.4012 101.096 78.9716 101.902 78.9716 102.898Z" fill="#263238"/>
<path d="M71.2542 102.898C71.2542 103.893 70.6843 104.7 69.9804 104.7C69.2774 104.7 68.707 103.893 68.707 102.898C68.707 101.902 69.2774 101.096 69.9804 101.096C70.6843 101.096 71.2542 101.902 71.2542 102.898Z" fill="#263238"/>
<path d="M75.2206 102.898C75.2206 103.893 74.6507 104.7 73.9472 104.7C73.2438 104.7 72.6738 103.893 72.6738 102.898C72.6738 101.902 73.2442 101.096 73.9472 101.096C74.6507 101.096 75.2206 101.902 75.2206 102.898Z" fill="#263238"/>
<path d="M227.2 238.903C227.2 238.993 189.341 239.064 142.649 239.064C95.9407 239.064 58.0889 238.993 58.0889 238.903C58.0889 238.814 95.9407 238.742 142.649 238.742C189.341 238.742 227.2 238.814 227.2 238.903Z" fill="#263238"/>
<path d="M126.69 131.524C129.234 129.447 131.942 127.872 134.736 126.8L136.393 116.041L149.848 115.722L151.784 126.395C154.604 127.333 157.352 128.779 159.948 130.734L166.748 124.712L176.43 137.341L172.215 146.732C173.753 150.17 174.918 153.83 175.711 157.604L183.674 159.842L183.91 178.02L176.01 180.636C175.315 184.445 174.245 188.156 172.798 191.664L177.255 200.852L167.909 213.931L160.956 208.237C158.412 210.314 155.703 211.888 152.91 212.96L151.252 223.719L137.797 224.038L135.861 213.364C133.042 212.425 130.294 210.98 127.697 209.026L120.897 215.048L111.215 202.419L115.431 193.028C113.893 189.591 112.727 185.932 111.934 182.158L103.97 179.919L103.734 161.742L111.635 159.125C112.329 155.316 113.4 151.604 114.846 148.096L110.39 138.908L119.737 125.828L126.69 131.524ZM133.862 155.739C128.325 163.488 128.485 175.835 134.221 183.315C139.957 190.797 149.096 190.579 154.633 182.83C160.171 175.081 160.011 162.735 154.275 155.254C148.539 147.773 139.4 147.99 133.862 155.739Z" fill="#E0E0E0"/>
<path d="M180.442 138.46C180.626 137.098 180.945 135.794 181.378 134.576L179.703 131.539L182.718 126.777L185.198 128.541C186.022 127.773 186.926 127.146 187.893 126.687L188.297 122.94L192.922 122.453L193.752 126.068C194.76 126.319 195.725 126.749 196.627 127.335L198.875 125.071L202.401 129.144L201.094 132.496C201.663 133.609 202.127 134.83 202.466 136.136L205.24 136.683L205.601 142.93L202.925 144.051C202.74 145.413 202.421 146.717 201.988 147.936L203.663 150.973L200.648 155.735L198.167 153.971C197.344 154.739 196.44 155.366 195.473 155.824L195.068 159.571L190.444 160.059L189.614 156.443C188.606 156.193 187.64 155.763 186.738 155.177L184.49 157.44L180.965 153.368L182.271 150.016C181.703 148.903 181.239 147.681 180.899 146.376L178.126 145.83L177.765 139.582L180.442 138.46ZM186.709 140.355C186.428 144.834 189.318 148.344 192.53 147.594C194.72 147.082 196.436 144.582 196.624 141.591C196.905 137.112 194.014 133.599 190.801 134.351C188.612 134.863 186.896 137.363 186.709 140.355Z" fill="#E0E0E0"/>
<path d="M79.1316 201.21C79.167 199.577 79.3658 197.979 79.7103 196.452L77.3528 193.314L80.2394 187.029L83.3678 188.488C84.2272 187.392 85.199 186.441 86.2664 185.673L86.2419 181.204L91.5729 179.518L93.0202 183.535C94.2295 183.583 95.413 183.852 96.5429 184.318L98.8654 181.134L103.518 185.034L102.438 189.26C103.249 190.42 103.952 191.733 104.521 193.175L107.829 193.143L109.078 200.344L106.104 202.299C106.068 203.933 105.87 205.531 105.525 207.058L107.882 210.196L104.996 216.481L101.867 215.022C101.008 216.117 100.036 217.068 98.969 217.836L98.9935 222.305L93.6625 223.992L92.2152 219.974C91.0059 219.926 89.8228 219.657 88.6926 219.191L86.3696 222.376L81.7171 218.477L82.797 214.25C81.9862 213.09 81.2832 211.776 80.7141 210.335L77.4061 210.367L76.1572 203.165L79.1316 201.21ZM86.8422 203.237C87.5823 207.505 90.7422 210.153 93.9009 209.154C97.0591 208.154 99.0198 203.885 98.2797 199.618C97.5396 195.351 94.3797 192.702 91.221 193.701C88.0627 194.702 86.1021 198.971 86.8422 203.237Z" fill="#E0E0E0"/>
<path d="M88.7031 141.162C88.8425 140.136 89.0825 139.152 89.4095 138.234L88.1461 135.944L90.4191 132.354L92.2895 133.684C92.9106 133.105 93.5924 132.632 94.3212 132.286L94.6262 129.462L98.1127 129.094L98.7383 131.82C99.4984 132.008 100.226 132.333 100.906 132.775L102.601 131.068L105.259 134.138L104.274 136.665C104.703 137.504 105.053 138.425 105.308 139.409L107.399 139.821L107.671 144.531L105.653 145.376C105.514 146.403 105.274 147.386 104.947 148.305L106.21 150.595L103.937 154.185L102.067 152.855C101.446 153.434 100.765 153.907 100.036 154.253L99.7309 157.077L96.2444 157.445L95.6187 154.719C94.8587 154.531 94.1311 154.207 93.451 153.765L91.7562 155.472L89.0983 152.401L90.083 149.875C89.6545 149.036 89.3047 148.115 89.0488 147.13L86.958 146.719L86.6855 142.008L88.7031 141.162ZM93.4256 143.45C93.587 146.241 95.392 148.326 97.4579 148.108C99.5233 147.89 101.067 145.451 100.906 142.661C100.744 139.871 98.9392 137.785 96.8734 138.003C94.8079 138.221 93.2642 140.66 93.4256 143.45Z" fill="#EBEBEB"/>
<path d="M180.619 191.882C180.739 191.001 180.945 190.156 181.226 189.367L180.14 187.4L182.093 184.316L183.699 185.459C184.233 184.961 184.818 184.555 185.444 184.258L185.706 181.832L188.701 181.516L189.239 183.858C189.891 184.019 190.517 184.298 191.101 184.678L192.556 183.211L194.839 185.849L193.994 188.019C194.362 188.74 194.663 189.53 194.882 190.376L196.678 190.73L196.912 194.776L195.179 195.502C195.059 196.384 194.853 197.229 194.572 198.018L195.657 199.985L193.705 203.069L192.098 201.926C191.565 202.423 190.979 202.83 190.353 203.126L190.091 205.552L187.096 205.868L186.559 203.526C185.906 203.365 185.281 203.086 184.697 202.707L183.241 204.173L180.958 201.535L181.804 199.365C181.436 198.644 181.135 197.853 180.915 197.007L179.12 196.653L178.886 192.607L180.619 191.882ZM184.676 193.848C184.814 196.245 186.365 198.036 188.139 197.849C189.913 197.662 191.24 195.567 191.101 193.17C190.962 190.773 189.411 188.981 187.637 189.169C185.863 189.356 184.537 191.451 184.676 193.848Z" fill="#EBEBEB"/>
<path d="M143.822 197.979H123.125C117.78 197.979 114.439 190.162 117.111 183.909L127.46 159.693L137.809 135.478C140.481 129.225 147.163 129.225 149.836 135.478L160.185 159.693L170.533 183.909C173.206 190.162 169.865 197.979 164.52 197.979H143.822Z" fill="url(#paint4_linear_1532_316594)"/>
<path d="M166.104 186.705C166.104 186.705 166.162 186.849 166.266 187.139C166.345 187.439 166.476 187.9 166.475 188.535C166.487 189.163 166.371 189.966 165.991 190.743C165.798 191.125 165.544 191.499 165.212 191.793C164.877 192.079 164.468 192.278 164.021 192.318C160.495 192.369 155.401 192.361 149.103 192.382C142.803 192.391 135.305 192.401 126.98 192.413C125.939 192.414 124.885 192.415 123.82 192.416C122.697 192.449 121.63 191.372 121.27 189.924C121.079 189.207 121.038 188.412 121.165 187.66C121.201 187.474 121.246 187.29 121.291 187.107C121.351 186.934 121.409 186.753 121.473 186.585L121.872 185.599C122.406 184.281 122.944 182.95 123.488 181.608C125.662 176.238 127.913 170.678 130.219 164.985C132.526 159.29 134.779 153.73 136.955 148.36C138.043 145.675 139.113 143.038 140.16 140.456C140.427 139.811 140.671 139.166 140.953 138.531C141.238 137.89 141.638 137.337 142.117 136.97C143.072 136.218 144.276 136.165 145.247 136.78C145.732 137.085 146.166 137.542 146.484 138.115C146.797 138.703 147.013 139.32 147.262 139.918C147.749 141.121 148.228 142.307 148.701 143.476C149.646 145.815 150.564 148.086 151.451 150.281C153.225 154.672 154.876 158.763 156.384 162.497C159.393 169.966 161.828 176.011 163.515 180.196C164.35 182.284 165 183.907 165.444 185.016C165.66 185.563 165.826 185.982 165.94 186.272C166.052 186.556 166.104 186.705 166.104 186.705C166.104 186.705 166.039 186.566 165.922 186.286C165.803 185.999 165.631 185.585 165.406 185.044C164.954 183.941 164.293 182.328 163.442 180.251C161.741 176.076 159.285 170.046 156.251 162.597C154.735 158.867 153.076 154.782 151.294 150.398C150.404 148.205 149.483 145.936 148.535 143.6C148.06 142.431 147.579 141.246 147.092 140.044C146.844 139.45 146.617 138.816 146.328 138.277C146.028 137.737 145.62 137.31 145.164 137.024C144.25 136.448 143.114 136.499 142.221 137.206C141.77 137.551 141.396 138.071 141.129 138.675C140.856 139.288 140.606 139.949 140.342 140.589C139.296 143.173 138.229 145.812 137.142 148.497C134.967 153.868 132.715 159.429 130.409 165.125C128.101 170.818 125.849 176.377 123.674 181.745C123.13 183.087 122.591 184.418 122.057 185.735C121.801 186.405 121.476 187.024 121.368 187.724C121.25 188.422 121.287 189.161 121.464 189.829C121.802 191.18 122.783 192.169 123.82 192.142C124.885 192.143 125.939 192.143 126.98 192.145C135.305 192.156 142.803 192.167 149.103 192.176C155.395 192.189 160.489 192.199 164.016 192.206C164.448 192.171 164.845 191.983 165.172 191.71C165.497 191.428 165.747 191.066 165.938 190.696C166.315 189.942 166.436 189.155 166.432 188.537C166.415 187.276 166.064 186.715 166.104 186.705Z" fill="#263238"/>
<path d="M140.474 181.531C140.474 179.051 141.936 177.202 144.02 177.202C146.104 177.202 147.535 179.051 147.535 181.531C147.535 183.969 146.104 185.944 144.02 185.944C141.936 185.944 140.474 183.969 140.474 181.531ZM140.505 156.146H147.536L146.353 174.849H141.656L140.505 156.146Z" fill="white"/>
<path d="M144.811 132.698C144.795 132.757 144.327 132.384 143.494 132.332C142.673 132.267 141.493 132.631 140.494 133.687C139.495 134.751 138.888 136.126 138.51 137.127C138.133 138.139 137.956 138.805 137.922 138.789C137.909 138.782 137.937 138.609 138.009 138.304C138.08 137.998 138.198 137.562 138.373 137.037C138.719 136.001 139.321 134.565 140.361 133.456C141.407 132.351 142.652 132.003 143.504 132.125C143.933 132.181 144.271 132.318 144.489 132.451C144.707 132.582 144.817 132.684 144.811 132.698Z" fill="white"/>
<path d="M136.162 142.972C136.111 142.931 136.315 142.337 136.618 141.645C136.921 140.952 137.208 140.425 137.26 140.466C137.311 140.507 137.107 141.102 136.804 141.794C136.501 142.486 136.214 143.013 136.162 142.972Z" fill="white"/>
<g opacity="0.3">
<path d="M154.205 145.703L121.972 172.536L117.785 182.333L156.481 151.028L154.205 145.703Z" fill="white"/>
</g>
<g opacity="0.3">
<path d="M159.282 157.594L116.557 191.642C116.679 192.415 117.062 193.412 117.485 194.068L160.037 159.362L159.282 157.594Z" fill="white"/>
</g>
<path d="M264.876 221.088C261.453 215.992 256.265 214.355 251.712 216.326L247.729 210.423L247.175 209.585L215.672 162.89C217.565 156.958 216.863 149.824 213.44 144.729C210.53 140.395 206.342 138.561 202.353 139.321L200.814 140.147L206.173 145.009L205.889 152.902L201.557 158.212L195.714 157.828L191.894 152.141L190.316 152.974C189.863 157.738 192.228 163.737 194.803 167.573C198.22 172.661 203.398 174.301 207.947 172.344L239.977 219.821L240.962 221.297L243.998 225.797C242.115 231.723 242.821 238.843 246.238 243.932C248.804 247.752 252.207 250.303 255.747 250.173L257.325 249.34L253.506 243.652L253.79 235.759L258.122 230.448L263.965 230.832L266.206 237.354L267.784 236.52C268.732 231.231 267.786 225.422 264.876 221.088Z" fill="#E0E0E0"/>
<g opacity="0.3">
<path d="M264.876 221.088C261.453 215.992 256.265 214.355 251.712 216.326L247.729 210.423L247.175 209.585L215.672 162.89C217.565 156.958 216.863 149.824 213.44 144.729C210.53 140.395 206.342 138.561 202.353 139.321L200.814 140.147L206.173 145.009L205.889 152.902L201.557 158.212L195.714 157.828L191.894 152.141L190.316 152.974C189.863 157.738 192.228 163.737 194.803 167.573C198.22 172.661 203.398 174.301 207.947 172.344L239.977 219.821L240.962 221.297L243.998 225.797C242.115 231.723 242.821 238.843 246.238 243.932C248.804 247.752 252.207 250.303 255.747 250.173L257.325 249.34L253.506 243.652L253.79 235.759L258.122 230.448L263.965 230.832L266.206 237.354L267.784 236.52C268.732 231.231 267.786 225.422 264.876 221.088Z" fill="black"/>
</g>
<path d="M263.297 221.92C259.875 216.824 254.688 215.187 250.134 217.158L246.151 211.255L245.597 210.417L214.094 163.723C215.987 157.791 215.284 150.657 211.862 145.561C208.951 141.227 204.763 139.393 200.775 140.153L204.594 145.84L204.311 153.734L199.979 159.044L194.136 158.66L190.316 152.972C189.369 158.261 190.315 164.07 193.225 168.404C196.643 173.492 201.82 175.132 206.369 173.175L238.399 220.652L239.384 222.128L242.42 226.628C240.537 232.554 241.243 239.675 244.66 244.763C247.571 249.096 251.758 250.931 255.747 250.171L251.927 244.484L252.211 236.59L256.543 231.28L262.386 231.664L266.206 237.351C267.154 232.062 266.208 226.253 263.297 221.92Z" fill="#E0E0E0"/>
<path d="M263.296 221.92C263.296 221.92 263.477 222.192 263.824 222.734C264.145 223.303 264.638 224.146 265.126 225.388C265.617 226.624 266.1 228.259 266.391 230.285C266.654 232.31 266.714 234.743 266.249 237.367L266.229 237.478L266.172 237.393C265.04 235.712 263.748 233.795 262.346 231.714L262.383 231.737C260.581 231.622 258.621 231.497 256.54 231.364L256.584 231.342C255.231 233.004 253.778 234.789 252.256 236.659L252.278 236.596C252.191 239.048 252.097 241.717 252 244.489L251.981 244.418C253.164 246.177 254.464 248.109 255.804 250.102L255.903 250.248L255.758 250.276C253.781 250.658 251.666 250.406 249.668 249.429C247.672 248.46 245.8 246.755 244.349 244.447C242.887 242.158 241.847 239.258 241.476 236.118C241.094 232.986 241.365 229.629 242.333 226.579L242.35 226.714C231.668 210.884 219.395 192.697 206.289 173.274L206.401 173.315C204.196 174.266 201.722 174.4 199.369 173.581C197.015 172.777 194.808 170.99 193.141 168.497C191.74 166.411 190.733 163.865 190.235 161.162C189.732 158.46 189.731 155.611 190.211 152.939L190.259 152.671L190.396 152.875C191.678 154.784 192.951 156.68 194.215 158.563L194.141 158.516C196.103 158.645 198.051 158.773 199.984 158.9L199.907 158.937C201.365 157.15 202.809 155.381 204.239 153.628L204.205 153.727C204.301 151.066 204.396 148.437 204.49 145.834L204.517 145.936C203.229 144.018 201.957 142.123 200.698 140.247L200.566 140.051L200.76 140.015C203.111 139.585 205.52 140.023 207.633 141.29C209.749 142.544 211.569 144.571 212.862 147.043C214.164 149.506 214.963 152.398 215.156 155.32C215.36 158.241 215.002 161.169 214.179 163.773L214.162 163.638C229.775 186.826 242.341 205.49 250.168 217.115L250.118 217.097C252.372 216.129 254.514 216.161 256.274 216.581C258.036 217.054 259.441 217.888 260.476 218.745C261.521 219.592 262.196 220.455 262.655 221.009C263.084 221.61 263.296 221.92 263.296 221.92C263.296 221.92 263.071 221.625 262.637 221.034C262.174 220.489 261.495 219.637 260.45 218.802C259.415 217.958 258.015 217.139 256.261 216.679C254.51 216.272 252.382 216.25 250.147 217.22L250.118 217.233L250.097 217.202C242.256 205.596 229.666 186.961 214.024 163.809L213.984 163.749L214.008 163.674C214.816 161.108 215.168 158.222 214.965 155.346C214.772 152.468 213.984 149.623 212.702 147.2C211.427 144.767 209.634 142.774 207.552 141.542C205.473 140.297 203.102 139.867 200.789 140.292L200.851 140.061C202.111 141.935 203.383 143.829 204.672 145.747L204.701 145.79L204.699 145.849C204.606 148.452 204.512 151.081 204.416 153.742L204.414 153.801L204.382 153.841C202.951 155.595 201.508 157.365 200.05 159.152L200.017 159.192L199.973 159.189C198.041 159.062 196.093 158.935 194.131 158.806L194.086 158.803L194.056 158.759C192.792 156.876 191.518 154.981 190.236 153.072L190.421 153.009C189.949 155.635 189.951 158.436 190.445 161.092C190.935 163.749 191.923 166.25 193.302 168.302C194.94 170.753 197.109 172.508 199.423 173.299C201.736 174.105 204.168 173.972 206.336 173.038L206.401 173.01L206.448 173.079C219.547 192.511 231.813 210.707 242.489 226.545L242.529 226.605L242.506 226.679C241.549 229.683 241.28 232.991 241.654 236.079C242.017 239.175 243.04 242.036 244.481 244.296C245.911 246.576 247.754 248.26 249.725 249.221C251.696 250.189 253.784 250.441 255.737 250.069L255.69 250.243C254.352 248.247 253.054 246.312 251.874 244.551L251.853 244.521L251.855 244.48C251.956 241.708 252.055 239.039 252.144 236.587L252.146 236.55L252.166 236.525C253.692 234.659 255.148 232.878 256.503 231.221L256.522 231.198L256.547 231.2C258.628 231.34 260.587 231.472 262.389 231.594L262.412 231.595L262.427 231.618C263.824 233.705 265.111 235.627 266.24 237.314L266.164 237.34C266.632 234.737 266.58 232.318 266.325 230.303C266.043 228.286 265.569 226.655 265.087 225.419C264.607 224.177 264.121 223.33 263.808 222.756C263.466 222.206 263.296 221.92 263.296 221.92Z" fill="#263238"/>
<path d="M212.657 166.448C212.67 166.458 212.621 166.606 212.52 166.867C212.422 167.13 212.258 167.495 212.035 167.927C211.593 168.794 210.877 169.905 209.931 170.891C208.982 171.874 208.002 172.523 207.269 172.878C206.902 173.057 206.599 173.177 206.386 173.238C206.173 173.302 206.055 173.329 206.051 173.309C206.041 173.261 206.504 173.088 207.213 172.687C207.923 172.29 208.87 171.625 209.8 170.662C210.728 169.695 211.446 168.63 211.914 167.806C212.382 166.983 212.625 166.423 212.657 166.448Z" fill="#263238"/>
<path d="M247.834 186.728L235.85 179.196L225.153 177.394L229.082 181.864C229.082 181.864 215.255 188.374 215.013 189.842C214.77 191.31 216.105 195.253 218.54 194.525C218.54 194.525 217.17 196.752 217.741 199.248C218.311 201.744 219.571 202.195 221.895 201.615C221.895 201.615 220.314 204.814 221.554 206.444C222.794 208.075 224.722 207.661 224.722 207.661C224.722 207.661 224.746 211.557 226.269 211.897C227.793 212.238 232.036 211.834 233.62 211.174C235.204 210.513 241.669 207.816 241.669 207.816L246.915 206.261L247.834 186.728Z" fill="#E4897B"/>
<path d="M225.81 191.673C225.856 191.887 224.265 192.7 222.257 193.488C220.248 194.277 218.583 194.742 218.537 194.528C218.491 194.314 220.082 193.502 222.091 192.713C224.099 191.925 225.764 191.459 225.81 191.673Z" fill="#853510"/>
<path d="M227.848 199.36C227.896 199.574 226.632 200.276 225.026 200.93C223.419 201.583 222.078 201.94 222.031 201.726C221.983 201.513 223.247 200.81 224.854 200.157C226.46 199.503 227.801 199.147 227.848 199.36Z" fill="#853510"/>
<path d="M229.676 205.748C229.703 205.988 228.556 206.316 227.207 206.773C225.866 207.249 224.809 207.873 224.726 207.661C224.648 207.486 225.619 206.506 227.054 205.993C228.483 205.511 229.654 205.549 229.676 205.748Z" fill="#853510"/>
<path d="M231.184 181.245C231.228 181.464 229.658 182.233 227.718 183.137C225.777 184.038 224.189 184.736 224.125 184.527C224.062 184.325 225.563 183.284 227.524 182.374C229.484 181.461 231.141 181.034 231.184 181.245Z" fill="#853510"/>
<path d="M245.584 185.314L271.495 197.991L269.981 222.019L241.454 206.481L245.584 185.314Z" fill="#E4897B"/>
<path d="M278.83 143.269C278.83 143.269 282.209 147.986 284.175 156.467C286.128 164.888 295.42 200.896 295.183 212.337C294.938 224.166 289.044 232.607 276.089 227.932C268.358 225.143 259.15 220.633 259.15 220.633L265.696 191.559L270.816 193.303L262.547 172.333L278.83 143.269Z" fill="url(#paint5_linear_1532_316594)"/>
<path d="M272.901 157.011C272.949 157.058 269.366 163.955 264.899 172.414C260.429 180.876 256.768 187.695 256.719 187.648C256.671 187.601 260.253 180.706 264.722 172.244C269.19 163.785 272.852 156.964 272.901 157.011Z" fill="#263238"/>
<path d="M282.815 197.282C282.805 197.303 282.592 197.134 282.186 196.883C281.783 196.63 281.179 196.319 280.41 196.035C279.642 195.747 278.71 195.479 277.675 195.175C276.638 194.866 275.503 194.527 274.312 194.171C271.927 193.45 269.771 192.782 268.213 192.284C267.463 192.038 266.841 191.834 266.37 191.68C265.936 191.531 265.698 191.439 265.701 191.419C265.705 191.399 265.95 191.453 266.389 191.568C266.864 191.7 267.49 191.873 268.248 192.082C269.815 192.528 271.976 193.165 274.361 193.885C275.551 194.249 276.684 194.595 277.72 194.912C278.752 195.23 279.682 195.52 280.453 195.836C281.223 196.149 281.827 196.493 282.223 196.781C282.423 196.921 282.572 197.044 282.671 197.134C282.77 197.223 282.819 197.274 282.815 197.282Z" fill="#263238"/>
<g opacity="0.3">
<path d="M289.44 198.545C289.337 197.156 288.567 195.984 287.657 195.325C286.746 194.665 285.703 194.435 284.68 194.246C280.023 193.383 275.316 193.143 270.619 192.906L271.053 193.16C276.851 194.606 282.54 196.845 288.005 199.833C288.32 200.005 288.677 200.179 288.987 199.993C289.365 199.764 289.481 199.102 289.44 198.545Z" fill="black"/>
</g>
<g opacity="0.3">
<path d="M182.681 87.0645C178.314 86.0613 173.091 87.7732 168.724 86.77C168.071 86.6199 167.357 86.4839 166.784 86.9302C166.094 87.4663 165.856 88.6549 165.822 89.7284C165.729 92.6985 166.746 95.6294 168.333 97.688C169.92 99.7466 172.032 100.977 174.201 101.474C175.945 101.874 177.818 101.797 179.373 100.66C182.087 98.6737 183.4 91.1199 182.681 87.0645Z" fill="black"/>
</g>
<path d="M165.731 97.8597C165.731 97.8597 163.081 93.6661 162.697 91.7294C162.442 90.4464 162.57 86.858 162.685 84.5825C162.764 83.0229 163.481 81.5982 164.576 81.0964C164.958 80.9216 165.32 80.8991 165.565 81.2043C165.565 81.2043 165.733 80.812 166.773 79.3738C167.813 77.9357 168.306 76.9606 170.595 77.8553C170.595 77.8553 172.279 75.4539 173.247 75.6332C174.216 75.813 175.175 76.1946 175.175 76.1946C175.175 76.1946 178.865 75.9844 179.622 77.5676C179.953 78.2599 180.635 78.7438 181.297 79.0687C182.462 79.6402 183.42 80.7867 183.929 82.3137C184.622 84.3914 184.666 86.6579 184.666 86.6579L180.911 86.8591C180.911 86.8591 181.177 98.4959 180.233 99.4344C179.291 100.374 178.93 100.04 178.93 100.04C178.93 100.04 178.21 102.77 175.403 100.75C175.403 100.75 173.072 101.699 172.078 100.401C171.084 99.1034 167.428 86.6315 167.428 86.6315L167.53 92.8298C167.53 92.8298 169.456 96.8408 168.513 97.7799C167.571 98.7184 165.731 97.8597 165.731 97.8597Z" fill="#E4897B"/>
<path d="M170.406 82.0851C170.42 82.0789 170.496 82.3397 170.62 82.8157C170.753 83.3474 170.923 84.0274 171.126 84.8417C171.545 86.5558 172.11 88.9303 172.72 91.5582C173.337 94.185 173.833 96.5898 174.409 98.2095C174.688 99.0238 174.969 99.6454 175.173 100.064C175.377 100.484 175.507 100.702 175.492 100.719C175.486 100.726 175.448 100.677 175.381 100.579C175.313 100.482 175.218 100.333 175.105 100.13C174.877 99.7269 174.572 99.1132 174.272 98.2994C173.651 96.6775 173.129 94.267 172.514 91.6459C171.903 89.018 171.362 86.634 170.98 84.9036C170.803 84.0785 170.655 83.389 170.539 82.85C170.44 82.3633 170.391 82.0913 170.406 82.0851Z" fill="#853510"/>
<path d="M175.014 80.6499C175.028 80.6449 175.096 80.9135 175.205 81.4036C175.321 81.9493 175.469 82.6484 175.648 83.4858C176.012 85.2471 176.502 87.6856 177.03 90.3827C177.558 93.0808 178.023 95.5278 178.35 97.3026C178.502 98.1501 178.628 98.857 178.727 99.4084C178.811 99.9074 178.851 100.186 178.836 100.191C178.822 100.197 178.755 99.9282 178.645 99.4387C178.529 98.8936 178.381 98.1945 178.203 97.3571C177.838 95.5958 177.348 93.1567 176.82 90.4574C176.292 87.7592 175.827 85.3117 175.5 83.5369C175.348 82.69 175.222 81.9824 175.124 81.4311C175.039 80.9332 174.999 80.655 175.014 80.6499Z" fill="#853510"/>
<defs>
<linearGradient id="paint0_linear_1532_316594" x1="19.4592" y1="216.614" x2="43.8379" y2="216.788" gradientUnits="userSpaceOnUse">
<stop stop-color="#FB8D48"/>
<stop offset="0.2" stop-color="#ED7136"/>
<stop offset="0.3999" stop-color="#C54E47"/>
<stop offset="0.4" stop-color="#C14F49"/>
<stop offset="0.6" stop-color="#9D3863"/>
<stop offset="0.8" stop-color="#5E1F72"/>
</linearGradient>
<linearGradient id="paint1_linear_1532_316594" x1="230.115" y1="55.0719" x2="283.257" y2="56.3088" gradientUnits="userSpaceOnUse">
<stop stop-color="#FB8D48"/>
<stop offset="0.2" stop-color="#ED7136"/>
<stop offset="0.3999" stop-color="#C54E47"/>
<stop offset="0.4" stop-color="#C14F49"/>
<stop offset="0.6" stop-color="#9D3863"/>
<stop offset="0.8" stop-color="#5E1F72"/>
</linearGradient>
<linearGradient id="paint2_linear_1532_316594" x1="267.135" y1="56.3243" x2="284.693" y2="56.7154" gradientUnits="userSpaceOnUse">
<stop stop-color="#FB8D48"/>
<stop offset="0.2" stop-color="#ED7136"/>
<stop offset="0.3999" stop-color="#C54E47"/>
<stop offset="0.4" stop-color="#C14F49"/>
<stop offset="0.6" stop-color="#9D3863"/>
<stop offset="0.8" stop-color="#5E1F72"/>
</linearGradient>
<linearGradient id="paint3_linear_1532_316594" x1="204.933" y1="240.316" x2="227.906" y2="121.276" gradientUnits="userSpaceOnUse">
<stop stop-color="#FB8D48"/>
<stop offset="0.2" stop-color="#ED7136"/>
<stop offset="0.3999" stop-color="#C54E47"/>
<stop offset="0.4" stop-color="#C14F49"/>
<stop offset="0.6" stop-color="#9D3863"/>
<stop offset="0.8" stop-color="#5E1F72"/>
</linearGradient>
<linearGradient id="paint4_linear_1532_316594" x1="117.133" y1="159.717" x2="171.669" y2="160.588" gradientUnits="userSpaceOnUse">
<stop stop-color="#FB8D48"/>
<stop offset="0.2" stop-color="#ED7136"/>
<stop offset="0.3999" stop-color="#C54E47"/>
<stop offset="0.4" stop-color="#C14F49"/>
<stop offset="0.6" stop-color="#9D3863"/>
<stop offset="0.8" stop-color="#5E1F72"/>
</linearGradient>
<linearGradient id="paint5_linear_1532_316594" x1="237.556" y1="227.315" x2="250.333" y2="132.119" gradientUnits="userSpaceOnUse">
<stop stop-color="#FB8D48"/>
<stop offset="0.2" stop-color="#ED7136"/>
<stop offset="0.3999" stop-color="#C54E47"/>
<stop offset="0.4" stop-color="#C14F49"/>
<stop offset="0.6" stop-color="#9D3863"/>
<stop offset="0.8" stop-color="#5E1F72"/>
</linearGradient>
</defs>
</svg>
