<svg width="448" height="312" viewBox="0 0 448 312" fill="none" xmlns="http://www.w3.org/2000/svg">
<path d="M245.513 297.054C240.326 295.779 236.449 292.518 235.356 288.51L227.806 260.832L163.224 262.531L155.276 291.365C154.162 295.403 158.619 299.455 163.75 300.942L190.77 308.773C195.796 310.23 201.198 310.81 206.567 310.469L263.669 306.851C265.339 306.745 266.678 305.773 266.872 304.526C267.066 303.279 268.236 301.879 266.644 301.488L245.513 297.054Z" fill="#97A6B7"/>
<path d="M246.151 295.37C240.969 294.111 237.096 290.891 236.004 286.934L228.461 259.604L165.453 261.283L157.513 289.755C156.401 293.742 159.343 297.741 164.47 299.209L191.463 306.942C196.483 308.38 201.88 308.953 207.244 308.617L264.289 305.044C265.956 304.939 267.294 303.98 267.488 302.748C267.682 301.517 266.679 300.355 265.089 299.969L246.151 295.37Z" fill="url(#paint0_linear_1551_308922)"/>
<path d="M31.2604 279.229C24.2569 279.538 18.5273 276.173 18.5273 271.725V111.424C18.5273 106.976 24.2569 103.542 31.2604 103.766L356.549 120.447C361.691 120.612 364.45 117.538 364.45 121.32V257.656C364.45 261.438 360.286 264.699 355.145 264.927L31.2604 279.229Z" fill="#97A6B7"/>
<path d="M34.1725 279.229C27.169 279.538 21.4395 276.173 21.4395 271.725V111.424C21.4395 106.976 27.169 103.542 34.1725 103.766L358.057 114.162C363.199 114.327 367.362 117.538 367.362 121.32V257.656C367.362 261.438 363.199 264.699 358.057 264.927L34.1725 279.229Z" fill="white"/>
<path opacity="0.3" d="M358.053 117.371L34.169 107.501C30.4248 107.387 27.3809 109.22 27.3809 111.594V236.267V271.484C27.3809 273.859 30.425 275.654 34.169 275.495L358.053 261.719C360.809 261.601 363.038 259.861 363.038 257.832V226.666V121.197C363.038 119.168 360.809 117.455 358.053 117.371Z" fill="#D8DEE8"/>
<path d="M355.644 250.177L37.6767 261.804C34.3393 261.926 31.627 260.292 31.627 258.153V113.689C31.627 111.551 34.3393 109.892 37.6767 109.984L355.644 118.727C358.139 118.795 360.158 120.344 360.158 122.187V246.676C360.158 248.519 358.139 250.086 355.644 250.177Z" fill="#263238"/>
<path opacity="0.6" d="M117.003 125.24L44.3867 123.658V118.529L117.003 120.269V125.24Z" fill="white"/>
<path opacity="0.36" d="M151.193 124.565L134.418 124.189V120.686L151.193 121.087V124.565Z" fill="white"/>
<path opacity="0.36" d="M151.193 129.397L134.418 129.056V125.553L151.193 125.919V129.397Z" fill="white"/>
<path d="M234.81 130.978L169.73 129.658V126.209L234.81 127.629V130.978Z" fill="url(#paint1_linear_1551_308922)"/>
<path d="M245.466 135.942L181.033 134.774V131.342L245.466 132.609V135.942Z" fill="url(#paint2_linear_1551_308922)"/>
<path d="M245.466 140.57L181.033 139.539V136.107L245.466 137.237V140.57Z" fill="url(#paint3_linear_1551_308922)"/>
<path opacity="0.6" d="M245.481 145.086L181.049 144.194V140.762L245.481 141.753V145.086Z" fill="white"/>
<path opacity="0.36" d="M151.193 134.234L134.418 133.93V130.426L151.193 130.756V134.234Z" fill="white"/>
<path opacity="0.36" d="M151.193 139.065L134.418 138.797V135.293L151.193 135.587V139.065Z" fill="white"/>
<path opacity="0.36" d="M151.193 143.896L134.418 143.664V140.16L151.193 140.418V143.896Z" fill="white"/>
<path opacity="0.36" d="M151.193 148.73L134.418 148.533V145.029L151.193 145.252V148.73Z" fill="white"/>
<path opacity="0.6" d="M196.162 149.133L154.871 148.65V145.178L196.162 145.725V149.133Z" fill="white"/>
<path opacity="0.36" d="M151.193 153.561L134.418 153.4V149.896L151.193 150.083V153.561Z" fill="white"/>
<path opacity="0.36" d="M151.193 158.394L134.418 158.269V154.766L151.193 154.916V158.394Z" fill="white"/>
<path opacity="0.36" d="M151.193 163.227L134.418 163.139V159.635L151.193 159.749V163.227Z" fill="white"/>
<path d="M215.494 154.173L169.715 153.735V150.285L215.494 150.794V154.173Z" fill="url(#paint4_linear_1551_308922)"/>
<path opacity="0.6" d="M239.293 158.929L181.049 158.496V155.064L239.293 155.587V158.929Z" fill="white"/>
<path d="M239.293 163.574L181.049 163.266V159.834L239.293 160.232V163.574Z" fill="url(#paint5_linear_1551_308922)"/>
<path opacity="0.36" d="M151.193 168.058L134.418 168.006V164.502L151.193 164.58V168.058Z" fill="white"/>
<path opacity="0.36" d="M151.193 172.892L134.418 172.875V169.371L151.193 169.414V172.892Z" fill="white"/>
<path opacity="0.36" d="M151.193 177.725L134.418 177.744V174.24L151.193 174.247V177.725Z" fill="white"/>
<path opacity="0.36" d="M151.193 182.55L134.418 182.605V179.102L151.193 179.072V182.55Z" fill="white"/>
<path opacity="0.36" d="M151.193 187.39L134.418 187.481V183.977L151.193 183.912V187.39Z" fill="white"/>
<path opacity="0.36" d="M151.193 192.214L134.418 192.341V188.837L151.193 188.736V192.214Z" fill="white"/>
<path opacity="0.36" d="M151.193 197.054L134.418 197.217V193.713L151.193 193.576V197.054Z" fill="white"/>
<path opacity="0.36" d="M151.193 201.882L134.418 202.081V198.577L151.193 198.404V201.882Z" fill="white"/>
<path opacity="0.36" d="M151.193 206.716L134.418 206.951V203.447L151.193 203.238V206.716Z" fill="white"/>
<path opacity="0.36" d="M151.193 211.552L134.418 211.823V208.319L151.193 208.074V211.552Z" fill="white"/>
<path opacity="0.36" d="M151.193 216.378L134.418 216.685V213.181L151.193 212.9V216.378Z" fill="white"/>
<path opacity="0.36" d="M151.193 221.214L134.418 221.557V218.053L151.193 217.736V221.214Z" fill="white"/>
<path opacity="0.36" d="M151.193 226.042L134.418 226.421V222.917L151.193 222.564V226.042Z" fill="white"/>
<path opacity="0.36" d="M151.193 230.878L134.418 231.293V227.789L151.193 227.4V230.878Z" fill="white"/>
<path opacity="0.36" d="M151.193 235.708L134.418 236.159V232.655L151.193 232.23V235.708Z" fill="white"/>
<path opacity="0.36" d="M151.193 240.54L134.418 241.027V237.523L151.193 237.062V240.54Z" fill="white"/>
<path opacity="0.36" d="M151.193 245.372L134.418 245.895V242.391L151.193 241.895V245.372Z" fill="white"/>
<path opacity="0.36" d="M151.193 250.206L134.418 250.764V247.261L151.193 246.729V250.206Z" fill="white"/>
<path d="M200.496 125.674L154.746 124.648V121.176L200.496 122.272V125.674Z" fill="url(#paint6_linear_1551_308922)"/>
<path opacity="0.6" d="M234.795 224.156L169.715 225.624V222.174L234.795 220.807V224.156Z" fill="white"/>
<path d="M245.466 228.551L181.033 230.143V226.711L245.466 225.219V228.551Z" fill="url(#paint7_linear_1551_308922)"/>
<path d="M245.466 233.182L181.033 234.912V231.48L245.466 229.85V233.182Z" fill="url(#paint8_linear_1551_308922)"/>
<path d="M273.219 237.005L210.455 238.824V235.437L273.219 233.715V237.005Z" fill="url(#paint9_linear_1551_308922)"/>
<path d="M273.219 241.573L210.455 243.526V240.14L273.219 238.283V241.573Z" fill="url(#paint10_linear_1551_308922)"/>
<path opacity="0.6" d="M273.219 246.147L210.455 248.235V244.848L273.219 242.857V246.147Z" fill="white"/>
<path d="M200.496 220.207L154.746 221.141V217.668L200.496 216.805V220.207Z" fill="url(#paint11_linear_1551_308922)"/>
<path d="M234.795 172.972L169.715 172.906V169.457L234.795 169.623V172.972Z" fill="url(#paint12_linear_1551_308922)"/>
<path opacity="0.6" d="M245.466 177.61L181.033 177.684V174.252L245.466 174.278V177.61Z" fill="white"/>
<path d="M245.466 182.249L181.033 182.46V179.028L245.466 178.916V182.249Z" fill="url(#paint13_linear_1551_308922)"/>
<path d="M245.466 186.876L181.033 187.225V183.793L245.466 183.543V186.876Z" fill="url(#paint14_linear_1551_308922)"/>
<path d="M196.144 191.881L154.854 192.194V188.721L196.144 188.473V191.881Z" fill="url(#paint15_linear_1551_308922)"/>
<path opacity="0.6" d="M215.494 196.43L169.715 196.874V193.425L215.494 193.051V196.43Z" fill="white"/>
<path d="M239.278 200.838L181.033 201.528V198.096L239.278 197.496V200.838Z" fill="url(#paint16_linear_1551_308922)"/>
<path d="M239.278 205.485L181.033 206.3V202.868L239.278 202.143V205.485Z" fill="url(#paint17_linear_1551_308922)"/>
<path d="M252.19 209.918L194.646 210.846V207.435L252.19 206.596V209.918Z" fill="url(#paint18_linear_1551_308922)"/>
<path d="M252.19 214.535L194.646 215.587V212.176L252.19 211.213V214.535Z" fill="url(#paint19_linear_1551_308922)"/>
<path d="M200.504 168.095L154.754 167.951V164.479L200.504 164.693V168.095Z" fill="url(#paint20_linear_1551_308922)"/>
<path d="M117.003 133.003L75.4395 132.239V127.178L117.003 128.033V133.003Z" fill="white"/>
<path opacity="0.6" d="M64.6836 132.047L72.5121 132.191V127.124L64.6836 126.963V132.047Z" fill="white"/>
<path opacity="0.6" d="M117.003 140.157L75.4395 139.522V134.461L117.003 135.186V140.157Z" fill="white"/>
<path opacity="0.6" d="M64.6836 139.358L72.5121 139.478V134.41L64.6836 134.273V139.358Z" fill="white"/>
<path opacity="0.6" d="M117.003 147.299L75.4395 146.794V141.732L117.003 142.328V147.299Z" fill="white"/>
<path opacity="0.6" d="M64.6836 146.668L72.5121 146.764V141.696L64.6836 141.584V146.668Z" fill="white"/>
<path d="M117.003 198.022L44.3867 198.747V193.618L117.003 193.051V198.022Z" fill="white"/>
<path opacity="0.6" d="M117.003 205.789L75.4395 206.345V201.284L117.003 200.818V205.789Z" fill="white"/>
<path opacity="0.6" d="M64.6836 206.489L72.5121 206.384V201.316L64.6836 201.404V206.489Z" fill="white"/>
<path opacity="0.6" d="M117.003 212.932L75.4395 213.617V208.556L117.003 207.961V212.932Z" fill="white"/>
<path opacity="0.6" d="M64.6836 213.798L72.5121 213.669V208.602L64.6836 208.714V213.798Z" fill="white"/>
<path opacity="0.6" d="M117.003 220.08L75.4395 220.896V215.834L117.003 215.109V220.08Z" fill="white"/>
<path opacity="0.6" d="M64.6836 221.106L72.5121 220.952V215.885L64.6836 216.021V221.106Z" fill="white"/>
<path d="M117.003 154.488L44.3867 153.833V148.705L117.003 149.517V154.488Z" fill="white"/>
<path opacity="0.6" d="M117.003 162.264L75.4395 162.03V156.969L117.003 157.293V162.264Z" fill="white"/>
<path opacity="0.6" d="M64.6836 161.965L72.5121 162.009V156.942L64.6836 156.881V161.965Z" fill="white"/>
<path opacity="0.6" d="M117.003 169.404L75.4395 169.299V164.238L117.003 164.433V169.404Z" fill="white"/>
<path opacity="0.6" d="M64.6836 169.276L72.5121 169.295V164.228L64.6836 164.191V169.276Z" fill="white"/>
<path opacity="0.6" d="M117.003 183.787L75.4395 183.944V178.883L117.003 178.816V183.787Z" fill="white"/>
<path opacity="0.6" d="M64.6836 183.984L72.5121 183.954V178.887L64.6836 178.899V183.984Z" fill="white"/>
<path opacity="0.6" d="M117.003 190.938L75.4395 191.224V186.163L117.003 185.967V190.938Z" fill="white"/>
<path opacity="0.6" d="M64.6836 191.297L72.5121 191.243V186.176L64.6836 186.213V191.297Z" fill="white"/>
<path opacity="0.6" d="M117.003 176.551L75.4395 176.577V171.516L117.003 171.58V176.551Z" fill="white"/>
<path opacity="0.6" d="M64.6836 176.586L72.5121 176.582V171.514L64.6836 171.502V176.586Z" fill="white"/>
<path d="M117.003 227.223L44.3867 228.874V223.745L117.003 222.252V227.223Z" fill="white"/>
<path opacity="0.6" d="M117.003 234.99L75.4395 236.076V231.015L117.003 230.02V234.99Z" fill="white"/>
<path opacity="0.6" d="M64.6836 236.354L72.5121 236.149V231.082L64.6836 231.27V236.354Z" fill="white"/>
<path opacity="0.6" d="M117.003 242.133L75.4395 243.349V238.287L117.003 237.162V242.133Z" fill="white"/>
<path opacity="0.6" d="M64.6836 243.667L72.5121 243.438V238.371L64.6836 238.583V243.667Z" fill="white"/>
<path opacity="0.6" d="M117.003 249.283L75.4395 250.629V245.568L117.003 244.312V249.283Z" fill="white"/>
<path opacity="0.6" d="M64.6836 250.975L72.5121 250.722V245.654L64.6836 245.891V250.975Z" fill="white"/>
<path opacity="0.6" d="M125.82 249.02L124.221 249.072V120.443L125.82 120.482V249.02Z" fill="white"/>
<path d="M120.746 48.5649C124.606 47.7297 129.765 52.9803 134.054 57.3454C140.471 63.8756 147.968 71.5052 145.948 80.6667C143.961 89.6802 133.529 96.7001 130.556 95.6961C128.013 94.8372 132.902 88.775 129.157 80.6667C126.135 74.1241 121.127 74.1217 117.769 67.7073C113.601 59.7466 115.996 49.5925 120.746 48.5649Z" fill="url(#paint21_linear_1551_308922)"/>
<path d="M122.663 90.082C142.546 93.6577 155.642 99.3974 163.291 103.457C167.436 105.658 169.351 107.03 170.385 109.03C176.275 120.43 146.015 137.666 142.79 139.471C141.381 137.038 139.973 134.605 138.564 132.172C141.691 119.46 146.897 115.471 151.253 114.285C152.472 113.953 154.517 113.598 154.478 113.171C154.384 112.161 142.89 113.6 131.906 110.623C120.954 107.654 109.95 100.143 111.915 95.1775C112.273 94.271 113.776 91.6506 122.663 90.082Z" fill="url(#paint22_linear_1551_308922)"/>
<path d="M141.938 173.41C141.938 173.41 140.087 173.899 140.08 174.983C140.073 176.067 141.955 180.843 143.999 182.54C146.043 184.237 146.226 181.705 146.099 180.074C145.973 178.444 145.437 174.793 144.932 174.087C144.426 173.381 141.938 173.41 141.938 173.41Z" fill="url(#paint23_linear_1551_308922)"/>
<path opacity="0.3" d="M147.888 106.75C151.5 106.697 159.965 106.198 162.218 109.297C164.099 111.883 160.805 115.803 158.779 118.214C153.272 124.769 147.926 125.44 144.161 129.467C142.704 131.026 141.384 133.203 140.963 136.314C140.164 134.934 139.365 133.554 138.567 132.174C141.693 119.461 146.899 115.473 151.255 114.287C152.474 113.955 154.52 113.599 154.48 113.172C154.386 112.162 142.892 113.602 131.909 110.625C121.925 107.918 111.931 101.443 111.725 96.5566C127.534 104.956 139.433 106.873 147.888 106.75Z" fill="url(#paint24_linear_1551_308922)"/>
<path d="M140.875 168.801C140.984 170.472 141.176 171.869 141.348 172.906C141.73 175.201 142.081 176.109 142.562 176.936C142.982 177.657 144.03 179.229 144.531 179.12C145.04 179.009 144.516 177.268 144.12 172.423C144.062 171.72 143.887 169.482 143.887 169.482L140.875 168.801Z" fill="#FA8072"/>
<path d="M111.191 91.041C122.647 96.1572 130.083 101.974 134.407 105.902C139.511 110.54 147.275 117.594 150.085 128.112C151.584 133.718 150.847 138.747 149.311 148.576C147.785 158.339 145.599 166.287 143.889 171.715C143.008 171.977 142.127 172.239 141.246 172.501C138.887 169.289 135.8 164.206 134.693 157.706C132.883 147.071 138.254 143.691 135.676 136.149C133.443 129.615 126.972 125.609 114.03 117.597C103.397 111.014 93.5927 107.108 89.9534 98.8968C89.3351 97.5025 88.8101 95.792 89.8175 94.2257C91.9887 90.8503 100.296 89.6726 111.191 91.041Z" fill="url(#paint25_linear_1551_308922)"/>
<path d="M102.053 49.1765C105.027 48.7028 109.917 48.7969 114.579 46.0775C115.982 45.2589 120.954 42.3586 120.35 38.2091C119.819 34.5559 115.145 32.5926 114.571 32.3588C111.262 31.0097 107.963 31.3095 104.304 31.6801C99.5601 32.1606 97.9843 33.1207 94.6877 33.7789C86.5321 35.4072 83.774 32.0084 75.5628 32.2953C65.0678 32.6617 64.16 38.4031 55.3301 38.5464C45.4174 38.7071 43.5177 31.521 33.7307 30.3035C20.1461 28.6135 -0.407907 39.446 0.00615974 51.9338C0.245211 59.1463 7.49553 67.4122 16.7563 69.8937C22.1543 71.3401 27.9791 70.8807 29.6417 73.4809C30.825 75.3312 28.1649 76.7569 28.4162 79.9811C28.7395 84.1377 33.5708 87.0546 34.351 87.5255C41.593 91.898 57.8296 89.6893 68.9173 83.5022C88.9115 72.3451 85.8856 51.7532 102.053 49.1765Z" fill="#472E05"/>
<path d="M79.0885 47.6947C85.8227 47.08 93.5901 46.6122 102.222 46.5253C120.46 46.3418 123.071 48.0548 123.739 49.3231C124.985 51.687 122.851 52.8718 124.063 56.9938C124.787 59.4583 124.102 60.5814 125.503 63.2296C126.867 65.8102 125.797 67.1978 124.59 73.2493C123.047 80.9873 122.335 84.92 125.258 88.0395C127.29 90.2069 129.562 90.3905 129.345 91.4201C128.884 93.6137 118.645 92.4039 105.682 96.6148C101.93 97.8337 98.4755 99.3359 95.5788 100.596C88.7963 103.545 87.5415 104.673 84.4007 106.009C74.4677 110.236 59.5467 110.643 51.7264 105.532C48.8108 103.626 46.6859 100.825 47.6421 99.7996C48.9442 98.4035 54.7669 101.575 60.1099 99.6403C63.6496 98.3588 62.9772 96.2856 67.0694 93.843C71.9943 90.9031 75.4185 92.4436 78.7706 90.5308C83.9999 87.547 81.621 80.4027 80.153 68.4248C79.5454 63.466 78.9357 56.3854 79.0885 47.6947Z" fill="url(#paint26_linear_1551_308922)"/>
<path d="M98.8221 44.9139C96.3346 46.0569 92.3137 47.5509 91.8707 47.9566C91.4278 48.3616 104.052 49.9629 111.908 47.0265C111.908 47.0265 113.125 46.5254 108.39 45.8238C107.381 45.6743 107.578 44.2203 107.713 42.717L106.766 41.4141C106.766 41.4141 101.309 43.7702 98.8221 44.9139Z" fill="#D76B5F"/>
<path d="M105.103 40.5276C105.103 40.5276 104.128 43.5939 107.773 45.1093C111.038 46.4666 116.56 40.9034 115.529 38.836C115.185 38.1464 113.956 37.2601 112.671 36.9622C111.767 36.7526 108.349 36.8334 106.884 38.9656C106.501 38.3422 105.814 38.0154 105.353 38.1179C104.767 38.2474 104.681 39.0371 104.661 39.2158C104.593 39.8357 104.931 40.3167 105.103 40.5276Z" fill="#FA8072"/>
<path opacity="0.3" d="M110.754 89.6809C106.999 90.8341 106.492 93.3261 101.298 94.7396C96.3446 96.088 94.6824 94.3984 89.7413 95.5179C82.3201 97.1994 79.4825 102.504 78.3592 102.003C77.33 101.545 78.3171 96.4707 83.0872 93.1831C88.5654 89.4075 94.4659 91.1365 97.9713 87.2165C99.3353 85.6913 100.387 83.2548 99.1971 81.3796C97.5848 78.8385 93.3736 79.7197 91.1421 77.6179C87.1326 73.842 96.5151 67.0315 93.9438 61.2746C92.9176 58.9771 89.65 56.0975 79.1124 54.1699C79.2554 59.9405 79.7043 64.7629 80.153 68.425C81.6208 80.403 83.9997 87.5473 78.7706 90.531C75.4185 92.4438 71.9944 90.9035 67.0694 93.8433C62.977 96.286 63.6496 98.3591 60.1099 99.6405C54.7669 101.575 48.9442 98.4039 47.6421 99.7998C46.6859 100.825 48.8108 103.626 51.7264 105.532C59.5469 110.643 74.4677 110.236 84.4007 106.01C87.5415 104.674 88.7963 103.545 95.5788 100.596C98.4755 99.3363 101.93 97.8342 105.682 96.6152C114.779 93.66 122.529 93.374 126.505 92.7084C118.612 88.8092 113.803 88.7451 110.754 89.6809Z" fill="url(#paint27_linear_1551_308922)"/>
<path d="M147.001 93.5879L99.3516 95.3054C98.6958 95.3293 98.0976 95.5894 97.7506 96.0022L96.4321 97.5697C95.776 98.35 96.5643 99.3564 97.8048 99.3213L148.276 97.8971L147.001 93.5879Z" fill="url(#paint28_linear_1551_308922)"/>
<path d="M190.734 74.0901L141.508 74.7967C140.051 74.8176 138.717 75.4053 137.998 76.3434L120.951 98.5593L172.94 97.025C174.367 96.9828 175.669 96.4106 176.403 95.5028L192.196 75.9583C192.869 75.1265 192.043 74.0713 190.734 74.0901Z" fill="url(#paint29_linear_1551_308922)"/>
<path opacity="0.3" d="M137.997 76.3475C138.717 75.4093 140.051 74.8215 141.508 74.8006L142.587 74.7852C142.748 75.9622 143.235 77.0389 144.207 77.9082C147.243 80.6222 152.286 78.9482 156.045 81.8204C160.174 84.9753 156.359 88.7312 160.051 91.6676C163.937 94.7582 170.22 92.2418 177.443 94.2196L176.403 95.5067C175.669 96.4145 174.367 96.9868 172.94 97.0289L120.951 98.5632L137.997 76.3475Z" fill="url(#paint30_linear_1551_308922)"/>
<path d="M107.163 93.6089C107.7 92.5587 108.237 91.5086 108.774 90.458C102.84 89.2529 94.6323 87.4723 86.2143 85.2442C84.1342 84.6937 83.3729 83.982 82.8165 83.4354C78.5006 79.1954 89.484 71.7156 89.2871 62.0099C89.1509 55.282 83.6443 47.5861 78.7924 47.4988C68.9298 47.3212 47.1841 78.3199 65.4992 91.5503C74.5897 98.1169 91.5731 98.879 107.163 93.6089Z" fill="url(#paint31_linear_1551_308922)"/>
<path d="M108.771 90.4648C112.497 88.9989 116.956 90.5015 117.243 90.6022C118.062 90.8884 119.253 91.3983 120.457 92.309C120.593 92.4465 122.209 94.1052 121.621 94.6368C121.149 95.0627 119.321 94.7096 117.125 93.6978C116.204 93.6021 114.834 93.5144 113.192 93.6264C110.176 93.8325 108.795 94.5381 107.701 93.929C106.899 93.4831 106.626 92.5405 106.914 91.8396C107.224 91.0865 108.141 90.713 108.771 90.4648Z" fill="#FA8072"/>
<path d="M260.485 72.855C259.304 72.8445 258.174 72.3193 257.644 71.4396L239.946 42.005C239.754 41.6853 239.654 41.3387 239.654 40.99V10.5475C239.654 9.21915 241.067 8.176 242.808 8.21802C244.548 8.25993 245.958 9.36944 245.958 10.6959V40.5645L263.318 69.483C264.041 70.689 263.36 72.1043 261.795 72.645C261.37 72.7917 260.924 72.8589 260.485 72.855Z" fill="#D8DEE8"/>
<path d="M306.176 73.3025C304.489 73.2874 303.121 72.2149 303.121 70.9074V55.664L286.957 42.9344C286.379 42.4791 286.055 41.8693 286.055 41.2388V11.7338C286.055 10.4211 287.434 9.38983 289.135 9.43087C290.834 9.47179 292.21 10.5679 292.21 11.8787V40.3574L308.333 53.0811C308.906 53.5326 309.227 54.1382 309.227 54.7652V70.9659C309.227 72.2714 307.861 73.3178 306.176 73.3025Z" fill="#D8DEE8"/>
<path d="M330.732 73.4928C329.062 73.4778 327.707 72.4108 327.707 71.1099V45.3225C327.707 44.6978 328.026 44.1038 328.594 43.6711L338.639 36.0132V12.8914C338.639 11.5939 339.986 10.5745 341.648 10.6144C343.308 10.6545 344.652 11.7373 344.652 13.033V37.0933C344.652 37.7156 344.336 38.3067 343.772 38.737L333.752 46.392V71.1676C333.752 72.4669 332.4 73.5079 330.732 73.4928Z" fill="#D8DEE8"/>
<path d="M236.879 228.815C235.121 228.863 233.695 227.82 233.695 226.486V202.339C233.695 201.698 234.031 201.076 234.628 200.61L248.046 190.15V168.716C248.046 167.385 249.462 166.288 251.208 166.266C252.953 166.243 254.366 167.302 254.366 168.63V191.03C254.366 191.668 254.034 192.286 253.441 192.748L240.058 203.203V226.315C240.058 227.648 238.635 228.767 236.879 228.815Z" fill="#D8DEE8"/>
<path d="M287.64 227.423C286.845 227.445 286.049 227.233 285.442 226.784C284.228 225.884 284.228 224.372 285.442 223.407L302.951 209.5V167.977C302.951 166.663 304.331 165.581 306.032 165.559C307.733 165.537 309.11 166.582 309.11 167.894V210.341C309.11 210.97 308.786 211.582 308.209 212.041L289.835 226.664C289.23 227.146 288.435 227.401 287.64 227.423Z" fill="#D8DEE8"/>
<path d="M337.209 226.069C336.432 226.09 335.655 225.881 335.062 225.436C333.875 224.547 333.875 223.052 335.062 222.099L354.328 206.621V196.243L326.308 174.945C325.116 174.039 325.116 172.541 326.308 171.6C327.498 170.66 329.428 170.633 330.616 171.539L359.459 193.508C360.022 193.937 360.338 194.527 360.338 195.149V207.455C360.338 208.078 360.022 208.681 359.459 209.135L339.353 225.319C338.761 225.796 337.985 226.047 337.209 226.069Z" fill="#D8DEE8"/>
<path d="M387.816 98.6396L357.332 98.5473C355.671 98.5422 354.324 97.4864 354.324 96.1893C354.324 94.8921 355.671 93.8459 357.332 93.8528L386.589 93.9743L404.387 80.0486C404.938 79.6176 405.684 79.3789 406.463 79.3849L435.599 79.6096C437.197 79.6219 438.491 80.6625 438.491 81.9335C438.491 83.2046 437.197 84.2266 435.599 84.216L407.678 84.032L389.908 97.9638C389.354 98.3987 388.601 98.6419 387.816 98.6396Z" fill="#D8DEE8"/>
<path d="M362.205 144.457C361.438 144.463 360.67 144.24 360.085 143.787C358.912 142.88 358.912 141.394 360.085 140.469L389.154 117.545C389.709 117.107 390.461 116.861 391.245 116.86L435.596 116.799C437.193 116.797 438.487 117.825 438.487 119.096C438.487 120.367 437.193 121.401 435.596 121.405L392.47 121.513L364.324 143.754C363.74 144.216 362.972 144.451 362.205 144.457Z" fill="#D8DEE8"/>
<path d="M381.245 171.511L357.332 171.859C355.671 171.884 354.324 170.851 354.324 169.554C354.324 168.257 355.671 167.187 357.332 167.165L380.013 166.86L394.75 155.089C395.303 154.647 396.054 154.395 396.836 154.386L435.6 153.981C437.197 153.964 438.491 154.981 438.491 156.252C438.491 157.523 437.197 158.569 435.6 158.587L398.057 159.022L383.344 170.798C382.788 171.243 382.032 171.5 381.245 171.511Z" fill="#D8DEE8"/>
<path d="M447.999 81.9989C447.999 87.4542 442.453 91.8503 435.59 91.8178C428.704 91.7853 423.105 87.3095 423.105 81.821C423.105 76.3324 428.705 71.9367 435.59 72.0027C442.453 72.0682 447.999 76.5437 447.999 81.9989Z" fill="#D8DEE8"/>
<path d="M447.999 119.077C447.999 124.532 442.453 128.979 435.59 129.009C428.704 129.039 423.105 124.614 423.105 119.125C423.105 113.637 428.705 109.19 435.59 109.193C442.453 109.197 447.999 113.622 447.999 119.077Z" fill="#D8DEE8"/>
<path d="M447.999 156.15C447.999 161.606 442.453 166.102 435.59 166.195C428.704 166.287 423.105 161.913 423.105 156.425C423.105 150.936 428.705 146.439 435.59 146.379C442.453 146.321 447.999 150.695 447.999 156.15Z" fill="#D8DEE8"/>
<path d="M242.801 0.2815C250.276 0.475532 256.315 5.24717 256.315 10.9397C256.315 16.6322 250.276 21.1195 242.801 20.9616C235.301 20.8032 229.201 16.0302 229.201 10.3013C229.201 4.57255 235.301 0.086732 242.801 0.2815Z" fill="#D8DEE8"/>
<path d="M289.125 1.59184C296.424 1.78132 302.323 6.49508 302.323 12.1209C302.323 17.7467 296.424 22.1827 289.125 22.0285C281.8 21.8738 275.844 17.1587 275.844 11.4975C275.844 5.83631 281.8 1.40161 289.125 1.59184Z" fill="#D8DEE8"/>
<path d="M341.642 2.86702C348.772 3.05221 354.535 7.70944 354.535 13.27C354.535 18.8305 348.772 23.2166 341.642 23.0659C334.486 22.9148 328.668 18.2562 328.668 12.6611C328.668 7.06591 334.486 2.68122 341.642 2.86702Z" fill="#D8DEE8"/>
<path d="M236.875 216.011C244.42 215.827 250.516 220.314 250.516 226.034C250.516 231.753 244.42 236.568 236.875 236.789C229.304 237.01 223.146 232.525 223.146 226.769C223.146 221.013 229.304 216.196 236.875 216.011Z" fill="#D8DEE8"/>
<path d="M287.636 214.771C295.003 214.591 300.957 219.027 300.957 224.679C300.957 230.331 295.003 235.087 287.636 235.303C280.243 235.519 274.23 231.084 274.23 225.397C274.23 219.709 280.243 214.952 287.636 214.771Z" fill="#D8DEE8"/>
<path d="M337.208 213.562C344.405 213.386 350.22 217.772 350.22 223.358C350.22 228.944 344.405 233.643 337.208 233.853C329.987 234.065 324.115 229.68 324.115 224.059C324.115 218.438 329.987 213.738 337.208 213.562Z" fill="#D8DEE8"/>
<path d="M354.52 60.456L229.409 57.646C223.725 57.5183 219.1 61.0145 219.1 65.4555V168.077C219.1 172.517 223.725 176.022 229.409 175.905L354.52 173.328C359.677 173.222 363.843 169.725 363.843 165.517V68.2843C363.843 64.0765 359.677 60.5719 354.52 60.456Z" fill="url(#paint32_linear_1551_308922)"/>
<path d="M359.84 60.456L234.73 57.646C229.045 57.5183 224.42 61.0145 224.42 65.4555V168.077C224.42 172.517 229.045 176.022 234.73 175.905L359.84 173.328C364.998 173.222 369.164 169.725 369.164 165.517V68.2843C369.164 64.0765 364.998 60.5719 359.84 60.456Z" fill="url(#paint33_linear_1551_308922)"/>
<path d="M334.3 81.4133L256.387 80.2958C252.912 80.2459 250.088 82.4249 250.088 85.1629V148.43C250.088 151.168 252.912 153.353 256.387 153.309L334.3 152.337C337.571 152.296 340.217 150.117 340.217 147.47V86.2921C340.217 83.6443 337.571 81.4601 334.3 81.4133Z" fill="url(#paint34_linear_1551_308922)"/>
<path d="M339.618 81.4133L261.706 80.2958C258.23 80.2459 255.406 82.4249 255.406 85.1629V148.43C255.406 151.168 258.23 153.353 261.706 153.309L339.618 152.337C342.889 152.296 345.535 150.117 345.535 147.47V86.2921C345.535 83.6443 342.89 81.4601 339.618 81.4133Z" fill="#FFBE55"/>
<path d="M315.342 264.9L315.065 270.928C314.984 272.697 316.899 274.065 319.341 273.984L323.779 273.838C324.202 276.703 325.052 279.455 326.286 282.06L322.538 283.726C320.385 284.682 319.571 286.664 320.721 288.151L324.636 293.215C325.784 294.699 331.326 295.582 333.473 294.623L334.15 292.581C336.523 294.778 339.24 296.759 342.246 298.488L340.195 301.001C338.913 302.572 339.543 304.494 341.601 305.294L348.606 308.016C350.657 308.813 357.318 308.937 358.594 307.369L356.595 304.206C360.232 305.125 364.074 305.751 368.07 306.051L367.947 308.722C367.867 310.474 369.747 311.817 372.146 311.722L380.307 311.399C382.697 311.304 384.698 309.811 384.778 308.063L384.901 305.401C388.911 304.792 392.786 303.873 396.476 302.678L398.2 304.934C399.319 306.398 406.187 307.151 408.282 306.2L411.149 302.625C413.238 301.676 414.028 299.724 412.915 298.263L411.133 295.923C414.234 293.989 417.068 291.831 419.582 289.489L422.893 290.802C424.894 291.595 430.82 292.001 432.065 290.456L433.012 284.178C434.255 282.635 433.647 280.741 431.652 279.945L428.172 278.556C429.601 275.905 430.671 273.137 431.338 270.287L435.611 270.146C437.958 270.069 439.923 268.602 440.002 266.871L440.274 260.969C440.353 259.237 438.517 257.892 436.171 257.965L431.647 258.104C431.132 255.364 430.224 252.732 428.961 250.24L433.103 248.391C435.176 247.465 435.961 245.526 434.856 244.058L435.644 238.193C434.538 236.723 427.397 237.139 425.318 238.062L420.96 239.999C418.696 237.972 416.132 236.134 413.313 234.516L415.997 231.218C417.248 229.682 416.635 227.774 414.628 226.957L411.643 223.757C409.629 222.938 403.11 223.93 401.853 225.47L399.094 228.85C395.73 227.995 392.187 227.388 388.502 227.06L388.68 223.191C388.76 221.444 386.891 220.075 384.503 220.133L376.347 220.331C373.95 220.389 371.941 221.856 371.86 223.609L371.682 227.489C367.932 228.007 364.291 228.802 360.8 229.838L362.42 225.745C361.285 224.254 354.528 224.624 352.397 225.556L345.121 228.735C342.983 229.668 342.174 231.637 343.315 233.13L345.762 236.33C342.716 238.126 339.907 240.135 337.383 242.323L337.568 240.273C335.503 239.449 328.282 240.373 326.994 241.935L322.6 247.265C321.31 248.83 321.944 250.765 324.015 251.587L328.142 253.223C326.597 255.843 325.404 258.585 324.61 261.416L319.912 261.562C317.47 261.637 315.423 263.132 315.342 264.9ZM345.456 267.554C346.066 254.292 361.307 243.127 379.399 242.62C397.38 242.116 411.388 252.342 410.785 265.458C410.182 278.575 395.191 289.731 377.203 290.38C359.105 291.033 344.847 280.815 345.456 267.554Z" fill="url(#paint35_linear_1551_308922)"/>
<path d="M320.803 264.852L320.526 270.88C320.445 272.648 322.36 274.016 324.802 273.936L329.24 273.789C329.663 276.654 330.513 279.406 331.747 282.011L327.999 283.677C325.846 284.634 325.032 286.615 326.181 288.102L330.097 293.166C331.245 294.651 333.916 295.076 336.063 294.117L339.61 292.533C341.983 294.729 344.701 296.71 347.707 298.439L345.656 300.952C344.374 302.523 345.004 304.445 347.062 305.245L354.066 307.967C356.118 308.765 358.815 308.139 360.091 306.571L362.056 304.157C365.693 305.076 369.535 305.702 373.531 306.003L373.408 308.673C373.328 310.426 375.208 311.769 377.606 311.674L385.768 311.35C388.157 311.255 390.159 309.762 390.239 308.015L390.361 305.352C394.371 304.744 398.247 303.824 401.937 302.63L403.661 304.886C404.779 306.35 407.385 306.764 409.48 305.813L416.61 302.576C418.699 301.628 419.489 299.676 418.376 298.215L416.593 295.874C419.694 293.941 422.529 291.783 425.043 289.44L428.354 290.754C430.355 291.547 432.986 290.937 434.231 289.392L438.473 284.129C439.716 282.587 439.108 280.692 437.113 279.896L433.633 278.507C435.062 275.856 436.132 273.089 436.799 270.239L441.072 270.098C443.418 270.02 445.384 268.554 445.463 266.822L445.734 260.92C445.814 259.188 443.978 257.844 441.632 257.916L437.107 258.056C436.593 255.315 435.684 252.684 434.422 250.192L438.563 248.343C440.637 247.416 441.422 245.477 440.317 244.01L436.547 239.003C435.441 237.533 432.858 237.09 430.778 238.014L426.42 239.95C424.156 237.923 421.593 236.085 418.774 234.468L421.458 231.17C422.708 229.633 422.096 227.726 420.089 226.908L413.236 224.118C411.222 223.299 408.57 223.881 407.314 225.421L404.555 228.801C401.191 227.946 397.648 227.339 393.963 227.012L394.141 223.143C394.221 221.395 392.351 220.026 389.963 220.084L381.808 220.282C379.411 220.34 377.401 221.808 377.321 223.56L377.142 227.44C373.393 227.959 369.752 228.753 366.26 229.79L363.771 226.521C362.636 225.03 359.988 224.576 357.857 225.507L350.581 228.686C348.443 229.62 347.635 231.588 348.776 233.081L351.222 236.281C348.177 238.078 345.367 240.086 342.844 242.275L338.526 240.551C336.461 239.727 333.742 240.324 332.455 241.887L328.061 247.216C326.771 248.782 327.405 250.717 329.476 251.538L333.603 253.175C332.058 255.795 330.865 258.537 330.071 261.368L325.373 261.513C322.931 261.589 320.884 263.083 320.803 264.852ZM350.917 267.505C351.527 254.243 366.768 243.079 384.859 242.571C402.841 242.067 416.849 252.293 416.246 265.409C415.643 278.526 400.651 289.682 382.663 290.331C364.566 290.984 350.308 280.766 350.917 267.505Z" fill="url(#paint36_linear_1551_308922)"/>
<defs>
<linearGradient id="paint0_linear_1551_308922" x1="212.396" y1="271.631" x2="212.396" y2="298.306" gradientUnits="userSpaceOnUse">
<stop offset="0.494" stop-color="#EBEFF2"/>
<stop offset="1" stop-color="white"/>
</linearGradient>
<linearGradient id="paint1_linear_1551_308922" x1="195.344" y1="97.3721" x2="210.602" y2="222.922" gradientUnits="userSpaceOnUse">
<stop offset="0.0036" stop-color="#E38DDD"/>
<stop offset="1" stop-color="#9571F6"/>
</linearGradient>
<linearGradient id="paint2_linear_1551_308922" x1="182.154" y1="133.323" x2="241.342" y2="149.398" gradientUnits="userSpaceOnUse">
<stop stop-color="#FB8D48"/>
<stop offset="0.2" stop-color="#ED7136"/>
<stop offset="0.3999" stop-color="#C54E47"/>
<stop offset="0.4" stop-color="#C14F49"/>
<stop offset="0.6" stop-color="#9D3863"/>
<stop offset="0.8" stop-color="#5E1F72"/>
</linearGradient>
<linearGradient id="paint3_linear_1551_308922" x1="182.154" y1="138.029" x2="241.088" y2="154.531" gradientUnits="userSpaceOnUse">
<stop stop-color="#FB8D48"/>
<stop offset="0.2" stop-color="#ED7136"/>
<stop offset="0.3999" stop-color="#C54E47"/>
<stop offset="0.4" stop-color="#C14F49"/>
<stop offset="0.6" stop-color="#9D3863"/>
<stop offset="0.8" stop-color="#5E1F72"/>
</linearGradient>
<linearGradient id="paint4_linear_1551_308922" x1="170.511" y1="151.959" x2="213.429" y2="161.76" gradientUnits="userSpaceOnUse">
<stop stop-color="#FB8D48"/>
<stop offset="0.2" stop-color="#ED7136"/>
<stop offset="0.3999" stop-color="#C54E47"/>
<stop offset="0.4" stop-color="#C14F49"/>
<stop offset="0.6" stop-color="#9D3863"/>
<stop offset="0.8" stop-color="#5E1F72"/>
</linearGradient>
<linearGradient id="paint5_linear_1551_308922" x1="195.929" y1="97.4461" x2="209.89" y2="212.323" gradientUnits="userSpaceOnUse">
<stop offset="0.0036" stop-color="#E38DDD"/>
<stop offset="1" stop-color="#9571F6"/>
</linearGradient>
<linearGradient id="paint6_linear_1551_308922" x1="155.542" y1="123.112" x2="198.979" y2="131.68" gradientUnits="userSpaceOnUse">
<stop stop-color="#FB8D48"/>
<stop offset="0.2" stop-color="#ED7136"/>
<stop offset="0.3999" stop-color="#C54E47"/>
<stop offset="0.4" stop-color="#C14F49"/>
<stop offset="0.6" stop-color="#9D3863"/>
<stop offset="0.8" stop-color="#5E1F72"/>
</linearGradient>
<linearGradient id="paint7_linear_1551_308922" x1="182.154" y1="227.339" x2="241.864" y2="242.49" gradientUnits="userSpaceOnUse">
<stop stop-color="#FB8D48"/>
<stop offset="0.2" stop-color="#ED7136"/>
<stop offset="0.3999" stop-color="#C54E47"/>
<stop offset="0.4" stop-color="#C14F49"/>
<stop offset="0.6" stop-color="#9D3863"/>
<stop offset="0.8" stop-color="#5E1F72"/>
</linearGradient>
<linearGradient id="paint8_linear_1551_308922" x1="182.154" y1="232.029" x2="242.059" y2="246.816" gradientUnits="userSpaceOnUse">
<stop stop-color="#FB8D48"/>
<stop offset="0.2" stop-color="#ED7136"/>
<stop offset="0.3999" stop-color="#C54E47"/>
<stop offset="0.4" stop-color="#C14F49"/>
<stop offset="0.6" stop-color="#9D3863"/>
<stop offset="0.8" stop-color="#5E1F72"/>
</linearGradient>
<linearGradient id="paint9_linear_1551_308922" x1="211.547" y1="235.914" x2="270.131" y2="249.872" gradientUnits="userSpaceOnUse">
<stop stop-color="#FB8D48"/>
<stop offset="0.2" stop-color="#ED7136"/>
<stop offset="0.3999" stop-color="#C54E47"/>
<stop offset="0.4" stop-color="#C14F49"/>
<stop offset="0.6" stop-color="#9D3863"/>
<stop offset="0.8" stop-color="#5E1F72"/>
</linearGradient>
<linearGradient id="paint10_linear_1551_308922" x1="215.439" y1="121.717" x2="226.343" y2="211.447" gradientUnits="userSpaceOnUse">
<stop offset="0.0036" stop-color="#E38DDD"/>
<stop offset="1" stop-color="#9571F6"/>
</linearGradient>
<linearGradient id="paint11_linear_1551_308922" x1="155.542" y1="218.672" x2="198.855" y2="227.534" gradientUnits="userSpaceOnUse">
<stop stop-color="#FB8D48"/>
<stop offset="0.2" stop-color="#ED7136"/>
<stop offset="0.3999" stop-color="#C54E47"/>
<stop offset="0.4" stop-color="#C14F49"/>
<stop offset="0.6" stop-color="#9D3863"/>
<stop offset="0.8" stop-color="#5E1F72"/>
</linearGradient>
<linearGradient id="paint12_linear_1551_308922" x1="170.847" y1="170.97" x2="227.708" y2="191.388" gradientUnits="userSpaceOnUse">
<stop stop-color="#FB8D48"/>
<stop offset="0.2" stop-color="#ED7136"/>
<stop offset="0.3999" stop-color="#C54E47"/>
<stop offset="0.4" stop-color="#C14F49"/>
<stop offset="0.6" stop-color="#9D3863"/>
<stop offset="0.8" stop-color="#5E1F72"/>
</linearGradient>
<linearGradient id="paint13_linear_1551_308922" x1="182.154" y1="180.442" x2="238.683" y2="200.371" gradientUnits="userSpaceOnUse">
<stop stop-color="#FB8D48"/>
<stop offset="0.2" stop-color="#ED7136"/>
<stop offset="0.3999" stop-color="#C54E47"/>
<stop offset="0.4" stop-color="#C14F49"/>
<stop offset="0.6" stop-color="#9D3863"/>
<stop offset="0.8" stop-color="#5E1F72"/>
</linearGradient>
<linearGradient id="paint14_linear_1551_308922" x1="182.154" y1="185.128" x2="239.147" y2="204.467" gradientUnits="userSpaceOnUse">
<stop stop-color="#FB8D48"/>
<stop offset="0.2" stop-color="#ED7136"/>
<stop offset="0.3999" stop-color="#C54E47"/>
<stop offset="0.4" stop-color="#C14F49"/>
<stop offset="0.6" stop-color="#9D3863"/>
<stop offset="0.8" stop-color="#5E1F72"/>
</linearGradient>
<linearGradient id="paint15_linear_1551_308922" x1="155.572" y1="190.075" x2="194.498" y2="198.451" gradientUnits="userSpaceOnUse">
<stop stop-color="#FB8D48"/>
<stop offset="0.2" stop-color="#ED7136"/>
<stop offset="0.3999" stop-color="#C54E47"/>
<stop offset="0.4" stop-color="#C14F49"/>
<stop offset="0.6" stop-color="#9D3863"/>
<stop offset="0.8" stop-color="#5E1F72"/>
</linearGradient>
<linearGradient id="paint16_linear_1551_308922" x1="189.239" y1="105.075" x2="201.912" y2="209.356" gradientUnits="userSpaceOnUse">
<stop offset="0.0036" stop-color="#E38DDD"/>
<stop offset="1" stop-color="#9571F6"/>
</linearGradient>
<linearGradient id="paint17_linear_1551_308922" x1="182.046" y1="203.932" x2="235.548" y2="218.469" gradientUnits="userSpaceOnUse">
<stop stop-color="#FB8D48"/>
<stop offset="0.2" stop-color="#ED7136"/>
<stop offset="0.3999" stop-color="#C54E47"/>
<stop offset="0.4" stop-color="#C14F49"/>
<stop offset="0.6" stop-color="#9D3863"/>
<stop offset="0.8" stop-color="#5E1F72"/>
</linearGradient>
<linearGradient id="paint18_linear_1551_308922" x1="195.647" y1="208.426" x2="248.747" y2="222.366" gradientUnits="userSpaceOnUse">
<stop stop-color="#FB8D48"/>
<stop offset="0.2" stop-color="#ED7136"/>
<stop offset="0.3999" stop-color="#C54E47"/>
<stop offset="0.4" stop-color="#C14F49"/>
<stop offset="0.6" stop-color="#9D3863"/>
<stop offset="0.8" stop-color="#5E1F72"/>
</linearGradient>
<linearGradient id="paint19_linear_1551_308922" x1="195.647" y1="213.096" x2="248.938" y2="226.692" gradientUnits="userSpaceOnUse">
<stop stop-color="#FB8D48"/>
<stop offset="0.2" stop-color="#ED7136"/>
<stop offset="0.3999" stop-color="#C54E47"/>
<stop offset="0.4" stop-color="#C14F49"/>
<stop offset="0.6" stop-color="#9D3863"/>
<stop offset="0.8" stop-color="#5E1F72"/>
</linearGradient>
<linearGradient id="paint20_linear_1551_308922" x1="163.055" y1="100.523" x2="177.099" y2="216.085" gradientUnits="userSpaceOnUse">
<stop offset="0.0036" stop-color="#E38DDD"/>
<stop offset="1" stop-color="#9571F6"/>
</linearGradient>
<linearGradient id="paint21_linear_1551_308922" x1="133.346" y1="55.7598" x2="138.538" y2="83.1523" gradientUnits="userSpaceOnUse">
<stop offset="0.2" stop-color="#5E1F72"/>
<stop offset="0.4" stop-color="#9D3863"/>
<stop offset="0.6" stop-color="#C14F49"/>
<stop offset="0.6001" stop-color="#C54E47"/>
<stop offset="0.8" stop-color="#ED7136"/>
<stop offset="1" stop-color="#FB8D48"/>
</linearGradient>
<linearGradient id="paint22_linear_1551_308922" x1="199.092" y1="114.776" x2="139.634" y2="114.776" gradientUnits="userSpaceOnUse">
<stop stop-color="#AA80F9"/>
<stop offset="0.9964" stop-color="#6165D7"/>
</linearGradient>
<linearGradient id="paint23_linear_1551_308922" x1="148.004" y1="163.522" x2="141.786" y2="197.73" gradientUnits="userSpaceOnUse">
<stop offset="0.0036" stop-color="#E38DDD"/>
<stop offset="1" stop-color="#9571F6"/>
</linearGradient>
<linearGradient id="paint24_linear_1551_308922" x1="171.145" y1="116.435" x2="111.688" y2="116.435" gradientUnits="userSpaceOnUse">
<stop stop-color="#AA80F9"/>
<stop offset="0.9964" stop-color="#6165D7"/>
</linearGradient>
<linearGradient id="paint25_linear_1551_308922" x1="167.336" y1="87.4345" x2="131.566" y2="146.11" gradientUnits="userSpaceOnUse">
<stop stop-color="#AA80F9"/>
<stop offset="0.9964" stop-color="#6165D7"/>
</linearGradient>
<linearGradient id="paint26_linear_1551_308922" x1="97.9102" y1="109.378" x2="95.9755" y2="53.2059" gradientUnits="userSpaceOnUse">
<stop stop-color="#FB8D48"/>
<stop offset="0.2" stop-color="#ED7136"/>
<stop offset="0.3999" stop-color="#C54E47"/>
<stop offset="0.4" stop-color="#C14F49"/>
<stop offset="0.6" stop-color="#9D3863"/>
<stop offset="0.8" stop-color="#5E1F72"/>
</linearGradient>
<linearGradient id="paint27_linear_1551_308922" x1="77.3298" y1="90.4079" x2="119.197" y2="39.5907" gradientUnits="userSpaceOnUse">
<stop stop-color="#FFC444"/>
<stop offset="0.9964" stop-color="#F36F56"/>
</linearGradient>
<linearGradient id="paint28_linear_1551_308922" x1="96.1955" y1="96.455" x2="148.276" y2="96.455" gradientUnits="userSpaceOnUse">
<stop offset="0.0036" stop-color="#E38DDD"/>
<stop offset="1" stop-color="#9571F6"/>
</linearGradient>
<linearGradient id="paint29_linear_1551_308922" x1="120.951" y1="86.3246" x2="192.436" y2="86.3246" gradientUnits="userSpaceOnUse">
<stop offset="0.0036" stop-color="#E38DDD"/>
<stop offset="1" stop-color="#9571F6"/>
</linearGradient>
<linearGradient id="paint30_linear_1551_308922" x1="175.757" y1="72.2806" x2="151.505" y2="104.759" gradientUnits="userSpaceOnUse">
<stop offset="0.0036" stop-color="#E38DDD"/>
<stop offset="1" stop-color="#9571F6"/>
</linearGradient>
<linearGradient id="paint31_linear_1551_308922" x1="102.571" y1="115.905" x2="70.2781" y2="59.0599" gradientUnits="userSpaceOnUse">
<stop stop-color="#FB8D48"/>
<stop offset="0.2" stop-color="#ED7136"/>
<stop offset="0.3999" stop-color="#C54E47"/>
<stop offset="0.4" stop-color="#C14F49"/>
<stop offset="0.6" stop-color="#9D3863"/>
<stop offset="0.8" stop-color="#5E1F72"/>
</linearGradient>
<linearGradient id="paint32_linear_1551_308922" x1="221.617" y1="108.562" x2="364.309" y2="111.949" gradientUnits="userSpaceOnUse">
<stop stop-color="#FB8D48"/>
<stop offset="0.2" stop-color="#ED7136"/>
<stop offset="0.3999" stop-color="#C54E47"/>
<stop offset="0.4" stop-color="#C14F49"/>
<stop offset="0.6" stop-color="#9D3863"/>
<stop offset="0.8" stop-color="#5E1F72"/>
</linearGradient>
<linearGradient id="paint33_linear_1551_308922" x1="226.937" y1="108.562" x2="369.629" y2="111.949" gradientUnits="userSpaceOnUse">
<stop stop-color="#FB8D48"/>
<stop offset="0.2" stop-color="#ED7136"/>
<stop offset="0.3999" stop-color="#C54E47"/>
<stop offset="0.4" stop-color="#C14F49"/>
<stop offset="0.6" stop-color="#9D3863"/>
<stop offset="0.8" stop-color="#5E1F72"/>
</linearGradient>
<linearGradient id="paint34_linear_1551_308922" x1="251.655" y1="111.732" x2="340.506" y2="113.859" gradientUnits="userSpaceOnUse">
<stop stop-color="#FB8D48"/>
<stop offset="0.2" stop-color="#ED7136"/>
<stop offset="0.3999" stop-color="#C54E47"/>
<stop offset="0.4" stop-color="#C14F49"/>
<stop offset="0.6" stop-color="#9D3863"/>
<stop offset="0.8" stop-color="#5E1F72"/>
</linearGradient>
<linearGradient id="paint35_linear_1551_308922" x1="317.24" y1="259.568" x2="440.662" y2="262.84" gradientUnits="userSpaceOnUse">
<stop offset="0.2" stop-color="#5E1F72"/>
<stop offset="0.4" stop-color="#9D3863"/>
<stop offset="0.6" stop-color="#C14F49"/>
<stop offset="0.6001" stop-color="#C54E47"/>
<stop offset="0.8" stop-color="#ED7136"/>
<stop offset="1" stop-color="#FB8D48"/>
</linearGradient>
<linearGradient id="paint36_linear_1551_308922" x1="322.701" y1="259.519" x2="446.122" y2="262.791" gradientUnits="userSpaceOnUse">
<stop stop-color="#FB8D48"/>
<stop offset="0.2" stop-color="#ED7136"/>
<stop offset="0.3999" stop-color="#C54E47"/>
<stop offset="0.4" stop-color="#C14F49"/>
<stop offset="0.6" stop-color="#9D3863"/>
<stop offset="0.8" stop-color="#5E1F72"/>
</linearGradient>
</defs>
</svg>
