<svg width="400" height="361" viewBox="0 0 400 361" fill="none" xmlns="http://www.w3.org/2000/svg">
<path d="M400 317.238H0V317.481H400V317.238Z" fill="#E86B31"/>
<path d="M189.616 274.033H35.1367C32.6191 274.033 30.5703 271.552 30.5703 268.503V5.53011C30.5703 2.48119 32.6191 0 35.1367 0H189.616C192.133 0 194.182 2.48119 194.182 5.53011V268.503C194.182 271.552 192.133 274.033 189.616 274.033ZM35.1367 0.243177C32.7287 0.243177 30.7703 2.61489 30.7703 5.53108V268.504C30.7703 271.42 32.7287 273.792 35.1367 273.792H189.616C192.023 273.792 193.982 271.42 193.982 268.504V5.53011C193.982 2.61489 192.023 0.242209 189.616 0.242209L35.1367 0.243177Z" fill="#E86B31"/>
<path d="M362.649 274.033H208.171C205.653 274.033 203.605 271.552 203.605 268.503V5.53011C203.605 2.48119 205.654 0 208.171 0H362.649C365.168 0 367.216 2.48119 367.216 5.53011V268.503C367.217 271.552 365.168 274.033 362.649 274.033ZM208.171 0.243177C205.764 0.243177 203.805 2.61489 203.805 5.53108V268.504C203.805 271.42 205.764 273.792 208.171 273.792H362.649C365.057 273.792 367.016 271.42 367.016 268.504V5.53011C367.016 2.61489 365.057 0.242209 362.649 0.242209L208.171 0.243177Z" fill="#E86B31"/>
<path d="M359.915 326.471H334.66V326.713H359.915V326.471Z" fill="#E86B31"/>
<path d="M268.269 323.84H241.543V324.082H268.269V323.84Z" fill="#E86B31"/>
<path d="M367.212 335.469H317.266V335.711H367.212V335.469Z" fill="#E86B31"/>
<path d="M57.3528 333.84H41.9648V334.082H57.3528V333.84Z" fill="#EBEBEB"/>
<path d="M88.7102 333.84H64.4766V334.082H88.7102V333.84Z" fill="#EBEBEB"/>
<path d="M195.309 329.746H151.664V329.988H195.309V329.746Z" fill="#E86B31"/>
<path d="M119.463 175.467L348.201 175.467V21.2495L119.463 21.2495L119.463 175.467Z" fill="#E0E0E0"/>
<path d="M106.9 175.467L347.045 175.467V21.2495L106.9 21.2495L106.9 175.467Z" fill="#F5F5F5"/>
<path d="M343.123 170.721V26.0059L110.826 26.0059L110.826 170.721L343.123 170.721Z" fill="#F6D5A1"/>
<path d="M249.063 170.721L205.205 26.0059H277.586L321.443 170.721H249.063Z" fill="#F5F5F5"/>
<path d="M179.391 170.721L135.533 26.0059H190.134L233.992 170.721H179.391Z" fill="#F5F5F5"/>
<path d="M43.3425 123.461H89.3633L89.3633 48.662H43.3425L43.3425 123.461Z" fill="#E6E6E6"/>
<path d="M40.1336 123.461L88.668 123.461L88.668 48.662L40.1336 48.662L40.1336 123.461Z" fill="#FFBE55"/>
<path d="M84.6016 118.539L84.6016 53.5879L44.1992 53.5879L44.1992 118.539L84.6016 118.539Z" fill="white"/>
<path d="M64.6797 103.23L72.0957 94.2492C75.8261 89.7315 75.8261 82.38 72.0957 77.8614L64.6797 68.8802C64.5277 68.6962 64.2797 68.6962 64.1277 68.8802L56.7125 77.8604C52.9813 82.3781 52.9813 89.7296 56.7125 94.2482L64.1285 103.229C64.2805 103.414 64.5277 103.414 64.6797 103.23ZM64.4037 69.884L71.5429 78.5298C74.9693 82.6794 74.9693 89.4302 71.5429 93.5798L64.4037 102.226L57.2645 93.5798C53.8381 89.4302 53.8381 82.6794 57.2645 78.5298L64.4037 69.884Z" fill="#F0F0F0"/>
<path d="M322.425 313.711H333.246V205.641H322.425V313.711Z" fill="#828282"/>
<path d="M179.625 317.236H331.75V313.709H179.625V317.236Z" fill="#F0F0F0"/>
<path d="M322.427 205.641H178.125V313.71H322.427V205.641Z" fill="#FAFAFA"/>
<path d="M303.616 268.791H196.934C191.195 268.791 186.527 263.137 186.527 256.188C186.527 249.238 191.195 243.584 196.934 243.584H303.616C309.355 243.584 314.023 249.238 314.023 256.188C314.023 263.137 309.354 268.791 303.616 268.791ZM196.934 244.431C191.581 244.431 187.226 249.704 187.226 256.188C187.226 262.671 191.58 267.944 196.934 267.944H303.616C308.969 267.944 313.325 262.67 313.325 256.188C313.325 249.705 308.97 244.431 303.616 244.431H196.934Z" fill="#6E2300"/>
<path d="M303.616 300.145H196.934C191.195 300.145 186.527 294.491 186.527 287.541C186.527 280.592 191.195 274.938 196.934 274.938H303.616C309.355 274.938 314.023 280.592 314.023 287.541C314.023 294.491 309.354 300.145 303.616 300.145ZM196.934 275.784C191.581 275.784 187.226 281.058 187.226 287.541C187.226 294.024 191.58 299.298 196.934 299.298H303.616C308.969 299.298 313.325 294.025 313.325 287.541C313.325 281.059 308.97 275.784 303.616 275.784H196.934Z" fill="#6E2300"/>
<path d="M217.343 253.47H283.21C284.405 253.47 285.381 252.287 285.381 250.841C285.381 249.394 284.405 248.211 283.21 248.211H217.343C216.149 248.211 215.172 249.394 215.172 250.841C215.172 252.287 216.149 253.47 217.343 253.47Z" fill="#E86B31"/>
<path d="M303.616 237.438H196.934C191.195 237.438 186.527 231.784 186.527 224.834C186.527 217.885 191.195 212.23 196.934 212.23H303.616C309.355 212.23 314.023 217.885 314.023 224.834C314.023 231.784 309.354 237.438 303.616 237.438ZM196.934 213.077C191.581 213.077 187.226 218.351 187.226 224.834C187.226 231.318 191.58 236.591 196.934 236.591H303.616C308.969 236.591 313.325 231.317 313.325 224.834C313.325 218.352 308.97 213.077 303.616 213.077H196.934Z" fill="#6E2300"/>
<path d="M217.343 222.121H283.21C284.405 222.121 285.381 220.938 285.381 219.491C285.381 218.044 284.405 216.861 283.21 216.861H217.343C216.149 216.861 215.172 218.044 215.172 219.491C215.172 220.937 216.149 222.121 217.343 222.121Z" fill="#E86B31"/>
<path d="M217.343 284.824H283.21C284.405 284.824 285.381 283.641 285.381 282.194C285.381 280.747 284.405 279.564 283.21 279.564H217.343C216.149 279.564 215.172 280.747 215.172 282.194C215.172 283.641 216.149 284.824 217.343 284.824Z" fill="#E86B31"/>
<path d="M176.151 205.645L322.43 205.645V200.151L176.151 200.151V205.645Z" fill="#828282"/>
<path d="M335.367 200.15H322.426V205.644H335.367V200.15Z" fill="#E6E6E6"/>
<path d="M68.5742 272.752H106.525L110.142 196.639C110.232 194.753 109.042 193.225 107.485 193.225H75.1726C73.6158 193.225 72.2806 194.753 72.191 196.639L68.5742 272.752Z" fill="#E6E6E6"/>
<path d="M64.7422 272.752H102.693L106.31 196.639C106.4 194.753 105.21 193.225 103.653 193.225H71.3414C69.7846 193.225 68.4494 194.753 68.3598 196.639L64.7422 272.752Z" fill="#F5F5F5"/>
<path d="M75.5117 272.754H104.752V266.674C104.752 264.789 103.489 263.26 101.933 263.26H75.5117V272.754Z" fill="#E6E6E6"/>
<path d="M44.8828 272.754H84.1532V266.674C84.1532 264.789 82.8908 263.26 81.334 263.26H47.702C46.1452 263.26 44.8828 264.789 44.8828 266.674V272.754Z" fill="#F5F5F5"/>
<path d="M103.929 317.234H106.531V272.75H103.929V317.234Z" fill="#E6E6E6"/>
<path d="M84.8273 317.234H87.4297V272.75H84.8273V317.234Z" fill="#E6E6E6"/>
<path d="M64.5812 317.234H67.1836V272.75H64.5812V317.234Z" fill="#E6E6E6"/>
<path d="M45.4835 317.234H48.0859L48.0859 272.75H45.4835L45.4835 317.234Z" fill="#E6E6E6"/>
<path d="M117.152 272.752H155.103L158.72 196.639C158.81 194.753 157.62 193.225 156.064 193.225H123.752C122.195 193.225 120.86 194.753 120.77 196.639L117.152 272.752Z" fill="#E6E6E6"/>
<path d="M113.316 272.752H151.267L154.884 196.639C154.974 194.753 153.784 193.225 152.228 193.225H119.916C118.359 193.225 117.024 194.753 116.934 196.639L113.316 272.752Z" fill="#F5F5F5"/>
<path d="M124.09 272.754H153.33V266.674C153.33 264.789 152.067 263.26 150.511 263.26H124.09V272.754Z" fill="#E6E6E6"/>
<path d="M93.4609 272.754H132.731V266.674C132.731 264.789 131.469 263.26 129.912 263.26H96.2801C94.7233 263.26 93.4609 264.789 93.4609 266.674V272.754Z" fill="#F5F5F5"/>
<path d="M152.499 317.234H155.102V272.75H152.499V317.234Z" fill="#E6E6E6"/>
<path d="M133.398 317.234H136V272.75H133.398V317.234Z" fill="#E6E6E6"/>
<path d="M113.159 317.234H115.762V272.75H113.159V317.234Z" fill="#E6E6E6"/>
<path d="M94.0539 317.234H96.6562V272.75H94.0539V317.234Z" fill="#E6E6E6"/>
<path d="M199.998 360.999C285.663 360.999 355.109 356.087 355.109 350.029C355.109 343.97 285.663 339.059 199.998 339.059C114.332 339.059 44.8867 343.97 44.8867 350.029C44.8867 356.087 114.332 360.999 199.998 360.999Z" fill="#F5F5F5" fill-opacity="0.4"/>
<path d="M233.036 85.0544C232.837 85.0544 232.665 84.8751 232.64 84.63C232.613 84.3645 232.768 84.1223 232.988 84.0893L246.526 82.043C246.742 82.0091 246.945 82.198 246.973 82.4635C247 82.729 246.845 82.9712 246.625 83.0042L233.086 85.0505C233.069 85.0524 233.053 85.0544 233.036 85.0544Z" fill="#E86B31"/>
<path d="M246.532 88.2735C246.509 88.2735 246.486 88.2706 246.464 88.2667L233.016 85.4772C232.798 85.4326 232.652 85.1816 232.689 84.9181C232.727 84.6536 232.936 84.4772 233.151 84.5228L246.599 87.3123C246.817 87.3569 246.963 87.6078 246.926 87.8714C246.892 88.1068 246.722 88.2735 246.532 88.2735Z" fill="#E86B31"/>
<path d="M215.762 61.7238C211.092 59.6243 203.959 73.1134 206.981 87.3979C212.092 82.2311 219.176 81.0966 221.815 83.2C225.637 86.2469 222.407 86.1065 224.383 92.5657C226.359 99.0249 243.436 97.7868 236.814 83.3618C246.814 58.763 218.981 47.1389 215.762 61.7238Z" fill="#472E05"/>
<path d="M183.071 114.896L184.863 116.746C185.537 117.443 185.891 118.49 185.814 119.559L185.455 124.553C185.312 126.55 184.378 128.338 182.952 129.352L182.069 129.98C178.924 127.156 177.243 121.297 177.243 121.297L176.611 119.692C176.049 118.262 176.489 116.638 177.622 115.961L180.233 114.403C181.134 113.867 182.264 114.063 183.071 114.896Z" fill="#B55B52"/>
<path d="M210.755 122.09C210.51 122.854 210.327 123.39 210.11 124.005C209.9 124.6 209.674 125.176 209.452 125.753C209.01 126.906 208.518 128.021 208.03 129.136C207.026 131.346 205.944 133.506 204.747 135.588C204.16 136.636 203.53 137.657 202.9 138.677C202.238 139.674 201.588 140.676 200.878 141.64C199.515 143.604 197.952 145.415 196.353 147.168L196.134 147.408C195.944 147.617 195.722 147.81 195.51 147.963C194.713 148.53 193.662 149.051 192.466 149.22C191.279 149.405 190.018 149.18 189.05 148.72C187.087 147.769 186.09 146.435 185.306 145.33C184.53 144.192 184.022 143.109 183.581 142.055C183.147 141.002 182.787 139.986 182.483 138.972C181.885 136.946 181.451 134.969 181.118 132.988C180.791 130.989 180.55 129.073 180.436 126.98C180.334 125.104 181.506 123.484 183.054 123.359C184.19 123.268 185.213 124.007 185.718 125.148L185.795 125.325C186.476 126.867 187.166 128.544 187.871 130.091C188.576 131.653 189.292 133.176 190.045 134.537C190.418 135.216 190.788 135.861 191.166 136.412C191.539 136.957 191.921 137.425 192.197 137.674C192.459 137.941 192.682 137.869 192.194 137.545C191.958 137.396 191.492 137.268 191.073 137.321C190.648 137.362 190.333 137.522 190.194 137.592L189.351 138.387C190.471 136.837 191.565 135.257 192.582 133.548C193.596 131.846 194.573 130.09 195.488 128.266C196.396 126.44 197.288 124.588 198.106 122.687C198.521 121.74 198.914 120.781 199.306 119.832L199.871 118.41L200.373 117.112L200.503 116.775C201.81 113.397 205.131 111.942 207.921 113.525C210.593 115.04 211.802 118.81 210.755 122.09Z" fill="#B55B52"/>
<path d="M256.55 321.863C257.79 315.067 257.475 313.476 258.485 309.752C259.345 306.557 259.412 306.748 260.741 303.755C261.623 301.773 259.947 300.193 258.277 299.939C256.976 299.741 255.596 299.669 253.998 299.361L250.539 307.168C252.365 309.975 253.823 316.826 253.177 322.074C252.721 325.829 256.049 324.583 256.55 321.863Z" fill="#263238"/>
<path d="M200.837 160.282C200.837 160.282 199.923 217.711 198.955 249.523C196.413 268.353 249.869 307.554 249.869 307.554C251.013 308.211 254.038 301.034 253.995 299.361C253.995 299.361 231.005 258.349 217.306 248.445C232.466 197.636 228.347 160.281 228.347 160.281H200.837V160.282Z" fill="#455A64"/>
<path opacity="0.2" d="M228.35 160.287H211C211 160.287 214.468 216.421 218.334 244.925C232.278 195.921 228.35 160.287 228.35 160.287Z" fill="black"/>
<path opacity="0.2" d="M239.078 275.01C232.494 265.06 224.878 254.703 218.758 249.588C219.63 259.431 220.526 271.309 221.214 283.468C226.966 288.981 232.934 294.106 237.926 298.204C238.718 290.434 239.19 282.48 239.078 275.01Z" fill="black"/>
<path d="M246.52 306.138C247.218 306.744 248.458 307.832 249.352 308.679C249.648 308.959 250.065 308.895 250.303 308.543C252.084 305.906 254.121 301.045 254.775 299.436C254.904 299.117 254.85 298.738 254.642 298.488L252.403 295.793C252.097 295.426 251.591 295.488 251.352 295.922L246.355 305.01C246.15 305.381 246.221 305.878 246.52 306.138Z" fill="#E86B31"/>
<path opacity="0.3" d="M246.52 306.138C247.218 306.744 248.458 307.832 249.352 308.679C249.648 308.959 250.065 308.895 250.303 308.543C252.084 305.906 254.121 301.045 254.775 299.436C254.904 299.117 254.85 298.738 254.642 298.488L252.403 295.793C252.097 295.426 251.591 295.488 251.352 295.922L246.355 305.01C246.15 305.381 246.221 305.878 246.52 306.138Z" fill="white"/>
<path d="M220.746 354.705C226.593 354.705 226.18 354.596 229.475 354.462C232.297 354.34 232.938 354.766 235.204 354.705C237.097 354.657 237.19 352.466 236.797 349.947C236.601 348.682 236.265 347.136 236.016 345.092H227.134C225.719 347.878 223.161 349.971 219.825 350.507C216.642 351.019 218.415 354.705 220.746 354.705Z" fill="#263238"/>
<path d="M209.09 160.281C209.09 160.281 218.277 221.516 221.641 249.269C225.175 278.416 229.529 325.725 227.134 345.089C228.431 346.052 233.241 346.111 236.015 345.089C236.015 345.089 250.051 278.618 238.326 250.557C244.998 182.349 235.131 178.797 232.403 160.281H209.09Z" fill="#455A64"/>
<path d="M226.768 341.058C226.669 342.034 226.468 343.736 226.161 345.035C226.05 345.504 226.278 345.938 226.661 346.014C229.865 346.644 234.638 345.731 236.156 345.405C236.446 345.343 236.684 345.068 236.756 344.72L237.52 340.999C237.625 340.491 237.329 340.033 236.904 340.043L227.498 340.262C227.133 340.271 226.813 340.618 226.768 341.058Z" fill="#E86B31"/>
<path opacity="0.3" d="M226.768 341.058C226.669 342.034 226.468 343.736 226.161 345.035C226.05 345.504 226.278 345.938 226.661 346.014C229.865 346.644 234.638 345.731 236.156 345.405C236.446 345.343 236.684 345.068 236.756 344.72L237.52 340.999C237.625 340.491 237.329 340.033 236.904 340.043L227.498 340.262C227.133 340.271 226.813 340.618 226.768 341.058Z" fill="white"/>
<path d="M208.287 106.652C202.462 107.982 201.23 110.865 196.941 121.576C198.236 128.624 205.198 134.819 205.198 134.819C205.198 134.819 217.891 115.762 208.287 106.652Z" fill="#263238"/>
<path d="M199.056 119.999C198.96 123.758 199.265 128.301 199.962 137.248C200.432 144.825 198.874 159.23 200.844 160.285H232.407C233.043 149.434 232.808 141.961 238.476 117.733C239.79 112.116 236.859 106.722 232.18 106.146C230.93 105.992 229.604 105.864 228.243 105.785C222.951 105.475 218.612 105.269 213.911 105.786C212.352 105.956 210.739 106.195 209.195 106.453C203.624 107.39 199.228 113.264 199.056 119.999Z" fill="url(#paint0_linear_1391_355472)"/>
<path d="M227.233 86.2422C225.985 91.8266 224.454 102.059 227.451 105.786C227.451 105.786 223.083 104.991 213.809 111.937C211.124 107.273 213.119 105.786 213.119 105.786C218.353 104.298 218.505 99.678 217.876 95.3386L227.233 86.2422Z" fill="#B55B52"/>
<path d="M215.758 110.542C218.812 111.068 219.769 116.656 219.769 116.656C219.769 116.656 227.105 110.372 229.43 105.939C228.341 105.248 226.751 103.879 226.751 103.879C226.751 103.879 217.541 108.407 215.758 110.542Z" fill="white"/>
<path d="M212.855 109.942C212.855 109.942 210.43 110.577 209.213 114.662C208.514 106.517 211.703 105.767 211.703 105.767C211.703 105.767 212.661 104.938 214.465 105.283C212.042 106.831 212.855 109.942 212.855 109.942Z" fill="white"/>
<path opacity="0.2" d="M223.417 89.9531L217.879 95.3345C218.031 96.3615 218.133 97.4031 218.131 98.4156C220.117 98.0717 222.976 95.4605 223.337 92.9684C223.518 91.7263 223.549 90.5316 223.417 89.9531Z" fill="black"/>
<path d="M233.4 78.8228C230.68 87.3863 229.68 91.0708 224.857 94.3968C217.602 99.3999 209.478 94.0955 210.022 84.8702C210.512 76.5663 214.877 63.956 222.868 62.7042C230.739 61.4709 236.12 70.2592 233.4 78.8228Z" fill="#B55B52"/>
<path d="M215.758 62.9059C216.333 67.5079 228.042 72.0469 230.266 71.4908C227.466 74.5048 229.377 87.8263 235.332 83.7359C236.888 68.1803 229.383 54.3482 215.758 62.9059Z" fill="#472E05"/>
<path opacity="0.2" d="M223.172 78.0523C223.172 78.0523 224.854 77.4351 226.067 78.4312C224.463 78.6075 223.172 78.0523 223.172 78.0523Z" fill="black"/>
<path opacity="0.2" d="M223.141 78.8935C223.141 78.8935 224.739 78.7288 225.611 80.0204C224.167 79.7733 223.141 78.8935 223.141 78.8935Z" fill="black"/>
<path d="M221.573 77.7195C221.371 78.4501 220.889 78.9423 220.498 78.8193C220.107 78.6952 219.953 78.0034 220.156 77.2729C220.359 76.5423 220.84 76.0501 221.231 76.1732C221.623 76.2972 221.775 76.989 221.573 77.7195Z" fill="#263238"/>
<path d="M214.175 75.5252C213.972 76.2558 213.491 76.748 213.099 76.6249C212.708 76.5009 212.555 75.8091 212.758 75.0776C212.96 74.347 213.442 73.8548 213.833 73.9778C214.224 74.1019 214.377 74.7946 214.175 75.5252Z" fill="#263238"/>
<path d="M213.997 74.0754L212.699 73.1152C212.699 73.1152 213.057 74.7198 213.997 74.0754Z" fill="#263238"/>
<path d="M215.892 77.3691C215.892 77.3691 214.004 80.1945 212.465 81.3591C213.006 82.5092 214.464 82.5218 214.464 82.5218L215.892 77.3691Z" fill="#A02724"/>
<path d="M217.163 86.3108C216.835 86.2798 216.49 86.213 216.13 86.0996C216.033 86.0686 215.981 85.9485 216.014 85.8293C216.047 85.7111 216.149 85.6403 216.25 85.6704C218.875 86.5017 220.726 84.6472 220.744 84.6288C220.825 84.5455 220.942 84.5522 221.005 84.6424C221.068 84.7325 221.055 84.873 220.975 84.9553C220.903 85.028 219.413 86.522 217.163 86.3108Z" fill="#263238"/>
<path d="M233.432 86.1409C232.418 87.8045 231.024 88.6668 229.837 88.7928C228.051 88.9817 227.651 86.4548 228.56 84.2069C229.378 82.1838 231.293 79.6482 232.887 80.5144C234.458 81.368 234.591 84.2389 233.432 86.1409Z" fill="#B55B52"/>
<path d="M224.081 73.9885C223.99 73.9478 223.915 73.8645 223.879 73.7502C223.321 71.9548 221.981 71.6544 221.966 71.6515C221.768 71.6079 221.641 71.3821 221.69 71.1438C221.739 70.9064 221.942 70.7475 222.145 70.7901C222.215 70.8056 223.897 71.1796 224.589 73.4081C224.657 73.63 224.554 73.8868 224.359 73.9817C224.265 74.0263 224.165 74.0263 224.081 73.9885Z" fill="#263238"/>
<path d="M212.896 70.6852C212.807 70.661 212.728 70.597 212.678 70.4991C212.576 70.2966 212.639 70.0253 212.82 69.8936C214.628 68.5691 216.179 69.3597 216.244 69.3955C216.429 69.4934 216.501 69.7511 216.406 69.9721C216.311 70.193 216.084 70.2928 215.9 70.1968C215.84 70.1649 214.628 69.5729 213.191 70.6261C213.096 70.6939 212.991 70.7113 212.896 70.6852Z" fill="#263238"/>
<path d="M221.395 76.2668L220.098 75.3066C220.098 75.3066 220.455 76.9112 221.395 76.2668Z" fill="#263238"/>
<path d="M241.509 115.988C241.792 116.732 241.984 117.264 242.198 117.88C242.406 118.477 242.59 119.073 242.779 119.667C243.157 120.854 243.478 122.056 243.8 123.256C244.417 125.665 244.947 128.109 245.353 130.597C245.567 131.836 245.737 133.094 245.904 134.351C246.036 135.621 246.18 136.884 246.26 138.17C246.479 140.722 246.469 143.342 246.4 145.953L246.39 146.309C246.382 146.62 246.343 146.948 246.286 147.239C246.07 148.327 245.649 149.604 244.919 150.763C244.204 151.925 243.194 152.867 242.248 153.392C240.32 154.441 238.835 154.384 237.634 154.298C236.42 154.183 235.422 153.874 234.49 153.526C233.562 153.173 232.709 152.78 231.896 152.34C230.277 151.454 228.802 150.459 227.393 149.373C225.978 148.268 224.674 147.148 223.351 145.794C222.166 144.581 222.018 142.434 223.02 140.998C223.755 139.946 224.904 139.568 225.932 139.921L226.091 139.977C227.481 140.456 228.955 141.019 230.365 141.479C231.782 141.95 233.184 142.385 234.515 142.674C235.178 142.821 235.818 142.948 236.408 143.001C236.99 143.053 237.534 143.046 237.874 142.98C238.214 142.937 238.326 142.692 237.796 142.892C237.543 142.994 237.143 143.312 236.884 143.714C236.613 144.112 236.489 144.498 236.434 144.667L236.32 145.953C236.178 143.901 235.998 141.85 235.689 139.777C235.382 137.711 235.018 135.64 234.571 133.576C234.118 131.516 233.637 129.453 233.076 127.419C232.802 126.401 232.505 125.392 232.214 124.39L231.762 122.91L231.34 121.571L231.23 121.223C230.132 117.737 231.574 113.834 234.453 112.503C237.208 111.231 240.287 112.797 241.509 115.988Z" fill="#B55B52"/>
<path d="M232.469 106.197C237.608 107.158 239.668 109.051 243.866 121.557C241.96 126.221 233.039 130.683 233.039 130.683C233.039 130.683 226.044 115.303 232.469 106.197Z" fill="#E86B31"/>
<path d="M176.04 232.157L174.673 225.103C171.228 207.325 175.359 189.369 179.352 172.005C182.819 156.931 186.094 142.694 183.731 130.497L185.542 129.982C188.014 142.741 184.677 157.249 181.144 172.609C177.214 189.7 173.149 207.372 176.485 224.588L177.852 231.642L176.04 232.157Z" fill="#FFBE55"/>
<path d="M174.035 129.525C176.551 91.4272 153.087 58.0733 121.628 55.0271C90.1697 51.981 62.6283 80.3961 60.113 118.494C57.5977 156.592 81.061 189.946 112.52 192.992C143.978 196.038 171.52 167.623 174.035 129.525Z" fill="url(#paint1_linear_1391_355472)"/>
<path d="M123.27 180.101C111.127 180.101 100.102 170.008 97.2107 155.086C93.8395 137.683 102.787 120.205 117.156 116.121C131.523 112.037 145.959 122.872 149.331 140.275C152.703 157.677 143.755 175.157 129.386 179.24C127.338 179.822 125.287 180.101 123.27 180.101ZM123.272 117.513C121.393 117.513 119.487 117.773 117.581 118.314C104.21 122.114 95.8843 138.38 99.0219 154.572C102.159 170.764 115.592 180.847 128.961 177.049C142.332 173.249 150.658 156.984 147.52 140.791C144.83 126.906 134.571 117.513 123.272 117.513Z" fill="white"/>
<path d="M118.78 64.3183L138.476 165.974C139.851 173.071 145.716 177.474 151.576 175.809L208.727 159.568C213.41 158.237 216.801 153.346 217.12 147.533C217.618 138.458 217.032 129.139 215.225 119.812C205.881 71.5865 167.465 40.7873 127.697 48.256C121.434 49.4332 117.332 56.8447 118.78 64.3183Z" fill="url(#paint2_linear_1391_355472)"/>
<path d="M190.489 248.988L136.481 264.335C135.133 264.718 133.752 263.875 133.205 262.334L128.414 248.85C127.711 246.873 128.654 244.608 130.385 244.115L188.522 227.595C190.252 227.103 191.929 228.625 192.026 230.774L192.688 245.431C192.764 247.106 191.837 248.605 190.489 248.988Z" fill="url(#paint3_linear_1391_355472)"/>
<path d="M186.572 259.661L143.906 271.786C142.53 272.177 141.125 271.29 140.601 269.701L136.74 257.99C136.092 256.025 137.039 253.823 138.74 253.34L184.425 240.358C186.126 239.875 187.783 241.337 187.924 243.446L188.767 256.014C188.881 257.72 187.948 259.27 186.572 259.661Z" fill="url(#paint4_linear_1391_355472)"/>
<path d="M182.351 269.591L151.341 278.402C149.933 278.803 148.5 277.865 148.005 276.218L144.947 266.046C144.361 264.099 145.313 261.969 146.978 261.495L180.048 252.099C181.714 251.625 183.348 253.02 183.539 255.08L184.537 265.837C184.698 267.579 183.76 269.191 182.351 269.591Z" fill="url(#paint5_linear_1391_355472)"/>
<path d="M165.622 135.645C162.485 119.453 149.054 109.371 135.683 113.168L135.258 110.976C149.635 106.893 164.062 117.73 167.433 135.13L165.622 135.645Z" fill="#FFBE55"/>
<path opacity="0.2" d="M132.087 58.8809L104.566 70.2879L104.16 73.0404L106.514 74.9974L106.063 77.9921L108.064 80.4723L108.044 83.1483L135.238 71.8768L136.041 69.1699L133.63 66.7333L133.874 63.5313L131.78 61.8019L132.087 58.8809Z" fill="white"/>
<path d="M159.427 169.82C154.503 169.821 149.663 168.163 145.374 164.943C139.297 160.38 135.051 153.226 133.418 144.796C130.047 127.394 138.995 109.915 153.363 105.831C160.323 103.851 167.505 105.277 173.582 109.838C179.659 114.4 183.904 121.555 185.538 129.985C187.171 138.415 185.996 147.11 182.229 154.47C178.462 161.829 172.554 166.971 165.593 168.949C163.546 169.532 161.479 169.82 159.427 169.82ZM159.524 107.216C157.615 107.216 155.692 107.483 153.787 108.025C140.416 111.824 132.091 128.089 135.228 144.282C136.747 152.127 140.699 158.785 146.353 163.03C152.008 167.275 158.687 168.6 165.167 166.759C171.645 164.918 177.143 160.133 180.647 153.285C184.152 146.437 185.246 138.345 183.726 130.502C182.207 122.657 178.255 115.999 172.601 111.754C168.61 108.757 164.106 107.216 159.524 107.216Z" fill="#FFBE55"/>
<path d="M150.558 148.95L168.08 220.821L100.745 244.897L80.8633 163.351L123.39 148.145L150.558 148.95Z" fill="#E86B31"/>
<path opacity="0.8" d="M150.558 148.95L168.08 220.821L100.745 244.897L80.8633 163.351L123.39 148.145L150.558 148.95Z" fill="white"/>
<path d="M150.562 148.95L135.49 161.287L123.395 148.145L150.562 148.95Z" fill="#E86B31"/>
<path d="M102.442 165.361C102.783 166.773 103.243 168.116 103.836 169.373C104.44 170.623 105.165 171.794 106.007 172.896C107.681 175.106 109.723 177.101 111.715 179.242C113.719 181.37 115.686 183.633 117.498 186.068C118.407 187.281 119.276 188.54 120.111 189.829C120.95 191.115 121.727 192.325 122.564 193.557C125.849 198.472 129.456 203.125 132.695 208.334C134.294 210.95 135.832 213.682 137.082 216.633C138.351 219.569 139.332 222.702 139.994 225.909C140.16 226.716 139.755 227.533 139.09 227.734C138.455 227.926 137.813 227.49 137.61 226.75L137.607 226.738C136.007 220.865 133.375 215.577 130.169 210.668C126.984 205.739 123.469 200.947 120.183 195.868C119.359 194.62 118.547 193.282 117.753 192.059C116.964 190.832 116.144 189.635 115.284 188.481C113.57 186.164 111.714 184.012 109.759 181.921C107.818 179.815 105.737 177.79 103.843 175.285C102.898 174.039 102.03 172.643 101.308 171.131C100.595 169.613 100.044 167.985 99.6507 166.329C99.4291 165.396 99.8739 164.421 100.645 164.153C101.415 163.885 102.22 164.423 102.442 165.357V165.361Z" fill="#FFBE55"/>
<path d="M166.825 289.398C164.486 289.398 162.187 288.611 160.15 287.081C157.263 284.914 155.246 281.515 154.47 277.511C153.694 273.507 154.253 269.376 156.042 265.881C157.831 262.385 160.638 259.943 163.944 259.003C170.767 257.062 177.625 262.211 179.227 270.476C180.003 274.48 179.445 278.611 177.655 282.106C175.867 285.602 173.06 288.044 169.754 288.984C168.782 289.261 167.8 289.398 166.825 289.398ZM166.87 260.842C166.038 260.842 165.2 260.959 164.37 261.195C161.547 261.997 159.151 264.082 157.623 267.067C156.095 270.052 155.619 273.577 156.281 276.997C157.647 284.054 163.507 288.445 169.329 286.792C172.151 285.99 174.547 283.905 176.075 280.92C177.603 277.935 178.079 274.41 177.417 270.991C176.755 267.572 175.034 264.67 172.568 262.821C170.829 261.515 168.867 260.842 166.87 260.842Z" fill="#E86B31"/>
<path d="M217.997 135.111L220.341 134.836C221.222 134.732 222.09 135.152 222.672 135.961L225.389 139.742C226.475 141.254 226.889 143.31 226.5 145.258L226.259 146.464C222.397 147.242 217.75 144.636 217.75 144.636L216.357 144.072C215.117 143.568 214.458 142.056 214.845 140.598L215.733 137.242C216.04 136.083 216.941 135.234 217.997 135.111Z" fill="#B55B52"/>
<path d="M279.423 48.827C280.191 43.0959 276.977 37.6958 272.245 36.7657C267.512 35.8355 263.053 39.7276 262.285 45.4587C261.517 51.1899 264.731 56.59 269.463 57.5201C274.196 58.4502 278.655 54.5582 279.423 48.827Z" fill="white"/>
<path d="M270.849 58.7831C265.549 58.7831 261.238 53.5621 261.238 47.1445C261.238 40.7269 265.549 35.5059 270.849 35.5059C276.148 35.5059 280.459 40.7269 280.459 47.1445C280.459 53.5621 276.149 58.7831 270.849 58.7831ZM270.849 37.7574C266.575 37.7574 263.098 41.969 263.098 47.1445C263.098 52.32 266.576 56.5315 270.849 56.5315C275.122 56.5315 278.6 52.321 278.6 47.1445C278.6 41.969 275.122 37.7574 270.849 37.7574Z" fill="#E86B31"/>
<path d="M250.226 64.9967C252.918 64.9967 255.1 62.3535 255.1 59.093C255.1 55.8326 252.918 53.1895 250.226 53.1895C247.534 53.1895 245.352 55.8326 245.352 59.093C245.352 62.3535 247.534 64.9967 250.226 64.9967Z" fill="white"/>
<path d="M250.222 66.1215C247.022 66.1215 244.418 62.9676 244.418 59.092C244.418 55.2163 247.022 52.0625 250.222 52.0625C253.422 52.0625 256.026 55.2163 256.026 59.092C256.025 62.9676 253.422 66.1215 250.222 66.1215ZM250.222 54.3143C248.047 54.3143 246.277 56.4575 246.277 59.092C246.277 61.7265 248.047 63.8697 250.222 63.8697C252.397 63.8697 254.167 61.7265 254.167 59.092C254.166 56.4575 252.396 54.3143 250.222 54.3143Z" fill="#E86B31"/>
<path d="M343.507 57.3035C341.143 45.0797 332.09 35.9746 321.275 35.9746C312.022 35.9746 304.061 42.6412 300.471 52.222C299.811 52.0699 299.132 51.9827 298.435 51.9827C292.459 51.9827 287.615 57.85 287.615 65.0862C287.615 66.5055 287.807 67.8697 288.152 69.1495C284.668 73.2089 282.496 78.9086 282.496 85.2263C282.496 97.549 290.745 107.539 300.92 107.539C304.346 107.539 307.551 106.402 310.299 104.431C313.365 107.19 317.162 108.823 321.275 108.823C326.952 108.823 332.027 105.712 335.406 100.824C336.558 101.097 337.747 101.243 338.964 101.243C349.139 101.243 357.388 91.2535 357.388 78.9309C357.388 68.5071 351.485 59.7547 343.507 57.3035Z" fill="white"/>
<path d="M321.279 109.948C317.296 109.948 313.494 108.504 310.244 105.766C307.397 107.664 304.188 108.663 300.924 108.663C290.252 108.663 281.57 98.1485 281.57 85.2252C281.57 79.0285 283.531 73.231 287.105 68.8228C286.829 67.5982 286.689 66.3435 286.689 65.085C286.689 57.2384 291.96 50.8548 298.439 50.8548C298.928 50.8548 299.428 50.8954 299.932 50.9749C303.912 41.149 312.214 34.8477 321.28 34.8477C332.188 34.8477 341.567 43.6699 344.283 56.3878C352.578 59.2458 358.323 68.4188 358.323 78.9297C358.323 91.8539 349.641 102.368 338.97 102.368C337.904 102.368 336.83 102.259 335.77 102.045C332.088 107.076 326.839 109.948 321.279 109.948ZM310.302 103.303C310.497 103.303 310.692 103.377 310.856 103.525C313.889 106.253 317.493 107.695 321.278 107.695C326.468 107.695 331.359 104.926 334.696 100.099C334.914 99.7839 335.251 99.6366 335.588 99.716C336.704 99.9805 337.84 100.115 338.967 100.115C348.614 100.115 356.462 90.6109 356.462 78.9287C356.462 69.221 351.042 60.7766 343.281 58.3933C342.945 58.2896 342.684 57.968 342.604 57.5591C340.274 45.5126 331.504 37.0992 321.278 37.0992C312.702 37.0992 304.867 43.2174 301.32 52.6859C301.142 53.1586 300.726 53.427 300.299 53.3263C299.667 53.1809 299.041 53.1063 298.438 53.1063C292.984 53.1063 288.547 58.4795 288.547 65.0841C288.547 66.3377 288.713 67.5885 289.038 68.7986C289.149 69.2094 289.056 69.6599 288.798 69.9592C285.335 73.9935 283.428 79.4151 283.428 85.2252C283.428 96.9074 291.276 106.412 300.922 106.412C304.058 106.412 307.138 105.391 309.826 103.461C309.974 103.355 310.138 103.303 310.302 103.303Z" fill="#E86B31"/>
<path d="M334.254 66.3085C334.254 70.4202 333.072 74.1909 331.103 77.1575C329.95 78.8898 329.019 80.8071 328.351 82.8417C327.789 84.5565 326.439 85.6997 324.915 85.6997H314.911C313.391 85.6997 312.039 84.5633 311.479 82.8523C310.795 80.7684 309.851 78.8007 308.689 77.0093C306.604 73.8063 305.439 69.6907 305.659 65.237C306.087 56.6356 311.802 49.63 318.901 49.0254C327.277 48.3056 334.254 56.3217 334.254 66.3085Z" fill="white"/>
<path d="M324.918 86.8261H314.915C313.013 86.8261 311.327 85.43 310.618 83.2685C309.971 81.2979 309.077 79.4261 307.961 77.7064C305.656 74.1644 304.51 69.7126 304.735 65.1707C305.192 55.9716 311.256 48.5484 318.84 47.9021C323.115 47.533 327.207 49.275 330.334 52.8035C333.419 56.2835 335.188 61.2052 335.188 66.3081C335.188 70.5002 333.996 74.6033 331.831 77.8634C330.728 79.5201 329.849 81.3347 329.219 83.2579C328.508 85.4251 326.82 86.8261 324.918 86.8261ZM319.959 50.1062C319.631 50.1062 319.301 50.1208 318.97 50.1489C312.314 50.7156 306.991 57.232 306.59 65.3053C306.392 69.295 307.399 73.2033 309.422 76.3132C310.649 78.2044 311.633 80.2651 312.345 82.4373C312.771 83.7355 313.779 84.5745 314.914 84.5745H324.917C326.052 84.5745 327.062 83.7316 327.49 82.4266C328.189 80.2932 329.163 78.2839 330.381 76.4508C332.308 73.5492 333.328 70.042 333.328 66.3081C333.328 61.8282 331.774 57.5062 329.066 54.4505C326.561 51.6263 323.359 50.1062 319.959 50.1062Z" fill="#E86B31"/>
<path d="M324.272 92.0037H315.614C314.99 92.0037 314.484 91.3914 314.484 90.6356V89.8857C314.484 89.1299 314.99 88.5176 315.614 88.5176H324.272C324.896 88.5176 325.402 89.1299 325.402 89.8857V90.6356C325.402 91.3914 324.896 92.0037 324.272 92.0037Z" fill="#E86B31"/>
<path d="M322.68 96.6951H317.216C316.592 96.6951 316.086 96.0828 316.086 95.327V94.5771C316.086 93.8213 316.592 93.209 317.216 93.209H322.68C323.304 93.209 323.81 93.8213 323.81 94.5771V95.327C323.81 96.0828 323.304 96.6951 322.68 96.6951Z" fill="#E86B31"/>
<defs>
<linearGradient id="paint0_linear_1391_355472" x1="199.73" y1="129.071" x2="238.933" y2="129.622" gradientUnits="userSpaceOnUse">
<stop stop-color="#FB8D48"/>
<stop offset="0.2" stop-color="#ED7136"/>
<stop offset="0.3999" stop-color="#C54E47"/>
<stop offset="0.4" stop-color="#C14F49"/>
<stop offset="0.6" stop-color="#9D3863"/>
<stop offset="0.8" stop-color="#5E1F72"/>
</linearGradient>
<linearGradient id="paint1_linear_1391_355472" x1="160.101" y1="64.0789" x2="43.8506" y2="141.703" gradientUnits="userSpaceOnUse">
<stop stop-color="#FFBE55"/>
<stop offset="1" stop-color="#E86B31"/>
</linearGradient>
<linearGradient id="paint2_linear_1391_355472" x1="213.5" y1="155.619" x2="114.062" y2="75.4646" gradientUnits="userSpaceOnUse">
<stop stop-color="#FFBE55"/>
<stop offset="1" stop-color="#E86B31"/>
</linearGradient>
<linearGradient id="paint3_linear_1391_355472" x1="129.302" y1="243.4" x2="192.863" y2="245.554" gradientUnits="userSpaceOnUse">
<stop stop-color="#FB8D48"/>
<stop offset="0.2" stop-color="#ED7136"/>
<stop offset="0.3999" stop-color="#C54E47"/>
<stop offset="0.4" stop-color="#C14F49"/>
<stop offset="0.6" stop-color="#9D3863"/>
<stop offset="0.8" stop-color="#5E1F72"/>
</linearGradient>
<linearGradient id="paint4_linear_1391_355472" x1="137.444" y1="253.876" x2="188.921" y2="255.526" gradientUnits="userSpaceOnUse">
<stop stop-color="#FB8D48"/>
<stop offset="0.2" stop-color="#ED7136"/>
<stop offset="0.3999" stop-color="#C54E47"/>
<stop offset="0.4" stop-color="#C14F49"/>
<stop offset="0.6" stop-color="#9D3863"/>
<stop offset="0.8" stop-color="#5E1F72"/>
</linearGradient>
<linearGradient id="paint5_linear_1391_355472" x1="145.465" y1="263.411" x2="184.671" y2="264.552" gradientUnits="userSpaceOnUse">
<stop stop-color="#FB8D48"/>
<stop offset="0.2" stop-color="#ED7136"/>
<stop offset="0.3999" stop-color="#C54E47"/>
<stop offset="0.4" stop-color="#C14F49"/>
<stop offset="0.6" stop-color="#9D3863"/>
<stop offset="0.8" stop-color="#5E1F72"/>
</linearGradient>
</defs>
</svg>
