<svg width="465" height="382" viewBox="0 0 465 382" fill="none" xmlns="http://www.w3.org/2000/svg">
<path d="M418.405 355.877H387.602V356.136H418.405V355.877Z" fill="#E86B31"/>
<path d="M308.038 358.686H299.953V358.945H308.038V358.686Z" fill="#EBEBEB"/>
<path d="M386.673 346.256H368.824V346.515H386.673V346.256Z" fill="#EBEBEB"/>
<path d="M88.9586 347.996H48.7891V348.255H88.9586V347.996Z" fill="#EBEBEB"/>
<path d="M103.128 347.996H97.2383V348.255H103.128V347.996Z" fill="#EBEBEB"/>
<path d="M209.384 352.371H122.266V352.63H209.384V352.371Z" fill="#EBEBEB"/>
<path d="M220.422 293.002H40.8397C37.913 293.002 35.5312 290.349 35.5312 287.089V5.91292C35.5312 2.65294 37.913 0 40.8397 0H220.422C223.348 0 225.729 2.65294 225.729 5.91292V287.089C225.729 290.349 223.348 293.002 220.422 293.002ZM40.8397 0.26001C38.0404 0.26001 35.7638 2.79589 35.7638 5.91395V287.09C35.7638 290.208 38.0404 292.744 40.8397 292.744H220.422C223.22 292.744 225.497 290.208 225.497 287.09V5.91292C225.497 2.7959 223.22 0.258975 220.422 0.258975L40.8397 0.26001Z" fill="#E86B31"/>
<path d="M421.58 293.002H241.999C239.072 293.002 236.691 290.349 236.691 287.089V5.91292C236.691 2.65294 239.073 0 241.999 0H421.58C424.508 0 426.889 2.65294 426.889 5.91292V287.089C426.889 290.349 424.508 293.002 421.58 293.002ZM241.999 0.26001C239.201 0.26001 236.924 2.79589 236.924 5.91395V287.09C236.924 290.208 239.201 292.744 241.999 292.744H421.58C424.379 292.744 426.656 290.208 426.656 287.09V5.91292C426.656 2.7959 424.379 0.258975 421.58 0.258975L241.999 0.26001Z" fill="#E86B31"/>
<path d="M465 339.201H0V339.46H465V339.201Z" fill="#E86B31"/>
<path d="M79.8389 130.328V110.154H78.4439V130.328C77.5465 130.657 76.8945 131.587 76.8945 132.697V139.085C76.8945 140.468 77.9008 141.589 79.1414 141.589C80.383 141.589 81.3892 140.468 81.3892 139.085V132.697C81.3892 131.587 80.7373 130.657 79.8389 130.328Z" fill="#E0E0E0"/>
<path d="M86.646 110.154H83.8672V337.284H86.646V110.154Z" fill="#EBEBEB"/>
<path d="M103.387 338.218H67.1172C67.1172 336.131 68.6359 334.439 70.5098 334.439H99.9936C101.868 334.439 103.387 336.131 103.387 338.218Z" fill="#E0E0E0"/>
<path d="M83.8672 126.217L86.646 125.199V110.154H83.8672V126.217Z" fill="#E0E0E0"/>
<path d="M101.903 63.0352H68.6089L58.3789 112.24H112.133L101.903 63.0352Z" fill="#E86B31"/>
<path d="M247.995 76.8983V68.0642C247.018 68.0642 247.016 66.3726 247.995 66.3726C251.018 66.3726 254.043 66.3498 257.068 66.3301V78.591C254.043 78.591 251.019 78.591 247.995 78.591C247.018 78.59 247.017 76.8983 247.995 76.8983Z" fill="#FFBE55"/>
<path d="M255.04 68.0625H247.992V76.8842H255.04V68.0625Z" fill="#F5F5F5"/>
<path d="M253.566 77.7475H277.998C279.678 77.7475 281.04 75.3908 281.04 72.4841C281.04 69.5774 279.678 67.2207 277.998 67.2207H253.566V77.7475Z" fill="#FAFAFA"/>
<path d="M253.569 66.3721C261.568 66.3721 269.58 66.2116 277.577 66.3721C283.056 66.4819 283.35 78.1793 277.977 78.5895C274.231 78.8755 270.378 78.5895 266.626 78.5895C262.273 78.5895 257.922 78.5895 253.569 78.5895C252.592 78.5895 252.591 76.8979 253.569 76.8979C261.151 76.8979 268.732 76.8979 276.313 76.8979C278.068 76.8979 279.323 76.8762 280.001 74.5703C280.588 72.5751 280.403 68.504 278.001 68.0638C277.743 68.0161 277.438 68.0638 277.178 68.0638C273.045 68.0638 268.912 68.0638 264.778 68.0638C261.041 68.0638 257.305 68.0638 253.569 68.0638C252.592 68.0638 252.591 66.3721 253.569 66.3721Z" fill="#FFBE55"/>
<path d="M247.914 64.9667V57.1156C247.045 57.1156 247.044 55.6125 247.914 55.6125C250.6 55.6125 253.288 55.5918 255.976 55.5742V66.4698C253.288 66.4698 250.6 66.4698 247.914 66.4698C247.046 66.4698 247.044 64.9667 247.914 64.9667Z" fill="#E86B31"/>
<path d="M254.173 57.1172H247.91V64.9569H254.173V57.1172Z" fill="#F5F5F5"/>
<path d="M252.863 65.7175H274.576C276.069 65.7175 277.279 63.6239 277.279 61.0404C277.279 58.4568 276.069 56.3633 274.576 56.3633H252.863V65.7175Z" fill="#FAFAFA"/>
<path d="M252.867 55.6104C259.976 55.6104 267.096 55.4675 274.203 55.6104C279.071 55.7088 279.334 66.103 274.558 66.4677C271.23 66.7225 267.805 66.4677 264.47 66.4677C260.602 66.4677 256.736 66.4677 252.868 66.4677C251.999 66.4677 251.998 64.9646 252.868 64.9646C259.606 64.9646 266.342 64.9646 273.08 64.9646C274.64 64.9646 275.755 64.9449 276.358 62.8959C276.879 61.1235 276.715 57.5051 274.58 57.1135C274.351 57.071 274.08 57.1135 273.849 57.1135C270.176 57.1135 266.502 57.1135 262.83 57.1135C259.51 57.1135 256.189 57.1135 252.869 57.1135C251.998 57.1135 251.996 55.6104 252.867 55.6104Z" fill="#E86B31"/>
<path d="M247.995 88.9042V80.07C247.018 80.07 247.016 78.3784 247.995 78.3784C251.018 78.3784 254.043 78.3556 257.068 78.3359V90.5968C254.043 90.5968 251.019 90.5968 247.995 90.5968C247.018 90.5958 247.017 88.9042 247.995 88.9042Z" fill="#E86B31"/>
<path d="M255.04 80.0684H247.992V88.8901H255.04V80.0684Z" fill="#F5F5F5"/>
<path d="M253.566 89.7484H277.998C279.678 89.7484 281.04 87.3918 281.04 84.485C281.04 81.5783 279.678 79.2227 277.998 79.2227H253.566V89.7484Z" fill="#FAFAFA"/>
<path d="M253.569 78.3741C261.568 78.3741 269.58 78.2135 277.577 78.3741C283.056 78.4839 283.35 90.1813 277.977 90.5915C274.231 90.8774 270.378 90.5915 266.626 90.5915C262.273 90.5915 257.922 90.5915 253.569 90.5915C252.592 90.5915 252.591 88.8999 253.569 88.8999C261.151 88.8999 268.732 88.8999 276.313 88.8999C278.068 88.8999 279.323 88.8781 280.001 86.5722C280.588 84.5771 280.403 80.506 278.001 80.0657C277.743 80.0181 277.438 80.0657 277.178 80.0657C273.045 80.0657 268.912 80.0657 264.778 80.0657C261.041 80.0657 257.305 80.0657 253.569 80.0657C252.592 80.0657 252.591 78.3741 253.569 78.3741Z" fill="#E86B31"/>
<path d="M308.016 89.2285H309.721H359.072V96.5264H309.721H308.016H143.449V89.2285H308.016Z" fill="#F5F5F5"/>
<path d="M346.879 114.269V96.5254H354.843L346.879 114.269Z" fill="#E0E0E0"/>
<path d="M350.861 114.269L358.826 96.5254H354.843L346.879 114.269H350.861Z" fill="#F5F5F5"/>
<path d="M155.391 114.269V96.5254H147.426L155.391 114.269Z" fill="#E0E0E0"/>
<path d="M151.414 114.269L143.449 96.5254H147.431L155.397 114.269H151.414Z" fill="#F5F5F5"/>
<path d="M295.188 71.4556C295.188 82.115 302.946 90.7565 312.515 90.7565C322.085 90.7565 329.843 82.1161 329.843 71.4556V70.7833C329.843 60.1239 322.085 51.4824 312.515 51.4824C302.946 51.4824 295.188 60.1239 295.188 70.7833V71.4556Z" fill="#FFBE55"/>
<path d="M295.188 68.6822C295.188 79.3416 302.946 87.9831 312.515 87.9831C322.085 87.9831 329.843 79.3416 329.843 68.6822V68.0099C329.843 57.3505 322.085 48.709 312.515 48.709C302.946 48.709 295.188 57.3505 295.188 68.0099V68.6822Z" fill="#E86B31"/>
<path d="M298.98 68.0122C298.98 76.3398 305.041 83.0907 312.518 83.0907C319.994 83.0907 326.055 76.3398 326.055 68.0122C326.055 59.6846 319.994 52.9336 312.518 52.9336C305.041 52.9336 298.98 59.6846 298.98 68.0122Z" fill="#FFDAC9"/>
<path d="M312.518 55.3141C305.402 55.3141 299.58 61.4331 299.034 69.2024C299.007 68.8088 298.98 68.4141 298.98 68.0122C298.98 59.6846 305.041 52.9336 312.518 52.9336C319.994 52.9336 326.055 59.6846 326.055 68.0122C326.055 68.4141 326.029 68.8088 326.001 69.2024C325.455 61.4321 319.633 55.3141 312.518 55.3141Z" fill="#FFBE55"/>
<path d="M303.963 68.0015C304.369 68.0015 308.74 68.0015 311.081 68.0015C311.081 65.3911 311.081 60.5151 311.081 60.0738C311.081 59.1923 311.722 58.4785 312.513 58.4785C313.303 58.4785 313.945 59.1933 313.945 60.0738C313.945 60.6705 313.945 69.0002 313.945 69.5968C313.945 70.4774 313.303 71.1921 312.513 71.1921C311.988 71.1921 304.487 71.1921 303.963 71.1921C303.173 71.1921 302.531 70.4774 302.531 69.5968C302.531 68.7153 303.173 68.0015 303.963 68.0015Z" fill="#E0E0E0"/>
<path d="M303.967 69.6066C303.177 69.6066 302.535 68.8918 302.535 68.0113C302.535 67.1298 303.176 66.416 303.967 66.416C304.503 66.416 311.981 66.416 312.518 66.416C313.308 66.416 313.95 67.1298 313.95 68.0113C313.95 68.8918 313.308 69.6066 312.518 69.6066C311.992 69.6066 304.492 69.6066 303.967 69.6066Z" fill="#E86B31"/>
<path d="M311.078 58.4859C311.078 57.6044 311.72 56.8906 312.51 56.8906C313.301 56.8906 313.943 57.6054 313.943 58.4859C313.943 59.0826 313.943 67.4123 313.943 68.0089C313.943 68.8895 313.301 69.6042 312.51 69.6042C311.719 69.6042 311.078 68.8905 311.078 68.0089C311.078 67.4257 311.078 59.0702 311.078 58.4859Z" fill="#FFBE55"/>
<path d="M203.631 89.4805H214.074V41.1609H203.631V89.4805Z" fill="#E0E0E0"/>
<path d="M208.858 82.7421C210.632 82.7421 212.071 81.1397 212.071 79.163C212.071 77.1864 210.632 75.584 208.858 75.584C207.083 75.584 205.645 77.1864 205.645 79.163C205.645 81.1397 207.083 82.7421 208.858 82.7421Z" fill="#E86B31"/>
<path opacity="0.6" d="M205.644 69.0977H212.07V45.8334H205.644V69.0977Z" fill="#E86B31"/>
<path d="M195.792 89.4785H204.227V50.452H195.792V89.4785Z" fill="#E6E6E6"/>
<path d="M197.414 81.1451C197.414 82.7414 198.576 84.0363 200.009 84.0363C201.442 84.0363 202.604 82.7425 202.604 81.1451C202.604 79.5477 201.443 78.2539 200.009 78.2539C198.575 78.2539 197.414 79.5488 197.414 81.1451Z" fill="#E86B31"/>
<path opacity="0.6" d="M197.411 73.0156H202.602V54.2254H197.411V73.0156Z" fill="#E86B31"/>
<path opacity="0.6" d="M197.411 56.875H202.602V54.2252H197.411V56.875Z" fill="#FAFAFA"/>
<path d="M220.823 89.4805H231.266V41.1609H220.823V89.4805Z" fill="#EBEBEB"/>
<path d="M226.041 82.7421C227.816 82.7421 229.254 81.1397 229.254 79.163C229.254 77.1864 227.816 75.584 226.041 75.584C224.267 75.584 222.828 77.1864 222.828 79.163C222.828 81.1397 224.267 82.7421 226.041 82.7421Z" fill="#E0E0E0"/>
<path opacity="0.6" d="M222.828 69.0977H229.254V45.8334H222.828V69.0977Z" fill="#FAFAFA"/>
<path d="M186.096 89.4805H196.539V41.1609H186.096V89.4805Z" fill="#E0E0E0"/>
<path d="M191.319 82.7421C193.093 82.7421 194.532 81.1397 194.532 79.163C194.532 77.1864 193.093 75.584 191.319 75.584C189.544 75.584 188.105 77.1864 188.105 79.163C188.105 81.1397 189.544 82.7421 191.319 82.7421Z" fill="#E86B31"/>
<path opacity="0.6" d="M188.105 69.0977H194.531V45.8334H188.105V69.0977Z" fill="#E86B31"/>
<path d="M171.204 88.7493L181.59 89.9648L186.123 41.911L175.738 40.6955L171.204 88.7493Z" fill="#EBEBEB"/>
<path d="M174.159 78.713C173.973 80.6791 175.253 82.4402 177.018 82.6463C178.783 82.8535 180.364 81.4271 180.55 79.4609C180.735 77.4948 179.455 75.7338 177.69 75.5276C175.925 75.3215 174.344 76.7479 174.159 78.713Z" fill="#E0E0E0"/>
<path opacity="0.6" d="M175.109 68.711L181.5 69.459L183.682 46.3237L177.292 45.5757L175.109 68.711Z" fill="#E86B31"/>
<path d="M213.331 89.4785H221.766V50.452H213.331V89.4785Z" fill="#E6E6E6"/>
<path d="M214.957 81.1451C214.957 82.7414 216.119 84.0363 217.553 84.0363C218.986 84.0363 220.148 82.7425 220.148 81.1451C220.148 79.5477 218.987 78.2539 217.553 78.2539C216.119 78.2539 214.957 79.5488 214.957 81.1451Z" fill="#E86B31"/>
<path opacity="0.6" d="M214.95 73.0156H220.141V54.2254H214.95V73.0156Z" fill="#E86B31"/>
<path opacity="0.6" d="M214.95 56.875H220.141V54.2252H214.95V56.875Z" fill="#FAFAFA"/>
<path opacity="0.2" d="M228.016 381.998C327.602 381.998 408.333 376.747 408.333 370.269C408.333 363.791 327.602 358.539 228.016 358.539C128.43 358.539 47.6992 363.791 47.6992 370.269C47.6992 376.747 128.43 381.998 228.016 381.998Z" fill="#F5F5F5"/>
<path d="M231.967 227.749H214.539L222.909 198.229H240.337L231.967 227.749Z" fill="#E86B31"/>
<path opacity="0.2" d="M220.465 206.847H237.893L240.336 198.229H222.908L220.465 206.847Z" fill="black"/>
<path d="M245.764 225.873H212.41V230.362H245.764V225.873Z" fill="#E86B31"/>
<path opacity="0.5" d="M245.764 225.873H212.41V230.362H245.764V225.873Z" fill="white"/>
<path opacity="0.6" d="M229.087 225.873H212.41V230.362H229.087V225.873Z" fill="white"/>
<path d="M374.987 191.818L368.913 114.498L273.854 123.834H178.066L81.5397 114.498L79.6797 116.57L85.7526 193.889L182.276 203.225H278.069L373.127 193.889L374.987 191.818Z" fill="#E86B31"/>
<path opacity="0.2" d="M374.983 191.818L368.909 114.498L273.85 123.834H178.062L81.5352 114.498L87.6081 191.818L184.132 201.153H279.925L374.983 191.818Z" fill="white"/>
<path opacity="0.8" d="M366.395 117.892L276.867 126.621L282.455 197.725L371.983 188.996L366.395 117.892Z" fill="white"/>
<path opacity="0.5" d="M293.674 133.821C293.13 133.874 292.65 133.422 292.602 132.812C292.553 132.201 292.956 131.663 293.5 131.609L316.015 129.399C316.559 129.345 317.039 129.798 317.088 130.408C317.136 131.019 316.733 131.558 316.189 131.611L293.674 133.821Z" fill="#263238"/>
<g opacity="0.5">
<path opacity="0.5" d="M293.674 133.821C293.13 133.874 292.65 133.422 292.602 132.812C292.553 132.201 292.956 131.663 293.5 131.609L316.015 129.399C316.559 129.345 317.039 129.798 317.088 130.408C317.136 131.019 316.733 131.558 316.189 131.611L293.674 133.821Z" fill="white"/>
</g>
<path opacity="0.5" d="M330.303 130.229C329.759 130.283 329.279 129.831 329.231 129.22C329.182 128.609 329.585 128.071 330.129 128.018L352.644 125.807C353.188 125.753 353.668 126.206 353.716 126.816C353.765 127.427 353.362 127.966 352.818 128.019L330.303 130.229Z" fill="#263238"/>
<g opacity="0.5">
<path opacity="0.5" d="M330.303 130.229C329.759 130.283 329.279 129.831 329.231 129.22C329.182 128.609 329.585 128.071 330.129 128.018L352.644 125.807C353.188 125.753 353.668 126.206 353.716 126.816C353.765 127.427 353.362 127.966 352.818 128.019L330.303 130.229Z" fill="white"/>
</g>
<path d="M317.574 147.314C318.13 154.389 313.471 160.626 307.167 161.246C300.864 161.865 295.304 156.631 294.748 149.556C294.192 142.48 298.852 136.243 305.155 135.624C311.457 135.005 317.018 140.239 317.574 147.314Z" fill="#E86B31"/>
<g opacity="0.9">
<path d="M301.203 155.078L299.902 155.205C299.567 155.239 299.27 154.959 299.24 154.582L298.702 147.728C298.672 147.351 298.92 147.019 299.257 146.986L300.558 146.858C300.894 146.825 301.19 147.105 301.22 147.482L301.759 154.335C301.788 154.712 301.54 155.045 301.203 155.078Z" fill="white"/>
<path d="M302.908 146.352C303.746 145.424 305.846 142.818 305.835 140.008C305.831 138.63 307.537 138.045 308.158 139.237C308.623 140.129 308.732 141.841 307.893 145.036L311.108 144.72C311.968 144.636 312.79 145.131 313.202 145.981C313.443 146.478 313.521 147.054 313.425 147.608L312.486 153.017C312.277 154.221 311.301 155.061 310.21 154.976L304.06 154.493C303.55 154.453 303.142 154.003 303.097 153.432L302.614 147.273C302.586 146.93 302.69 146.594 302.908 146.352Z" fill="white"/>
</g>
<path opacity="0.9" d="M354.203 143.722C353.647 136.647 348.087 131.414 341.784 132.032C335.48 132.652 330.821 138.889 331.377 145.964C331.933 153.039 337.493 158.272 343.796 157.654C350.1 157.035 354.759 150.797 354.203 143.722Z" fill="white"/>
<path d="M336.867 139.264L335.565 139.392C335.23 139.425 334.98 139.757 335.01 140.134L335.549 146.988C335.578 147.365 335.875 147.645 336.211 147.612L337.512 147.484C337.849 147.451 338.097 147.118 338.067 146.741L337.529 139.888C337.499 139.511 337.202 139.232 336.867 139.264Z" fill="#E86B31"/>
<path d="M339.906 147.527C340.876 148.278 343.35 150.435 343.778 153.203C343.988 154.561 345.76 154.804 346.185 153.511C346.503 152.541 346.345 150.834 345.021 147.853L348.236 147.537C349.096 147.452 349.828 146.804 350.1 145.886C350.26 145.351 350.248 144.769 350.067 144.241L348.299 139.098C347.905 137.954 346.813 137.316 345.752 137.614L339.771 139.288C339.276 139.427 338.944 139.95 338.988 140.521L339.472 146.679C339.498 147.021 339.653 147.333 339.906 147.527Z" fill="#E86B31"/>
<path d="M303.185 180.73L296.395 181.396L297.087 190.146L303.877 189.479L303.185 180.73Z" fill="#E86B31"/>
<path opacity="0.9" d="M310.126 181.976L303.336 182.643L303.877 189.484L310.668 188.817L310.126 181.976Z" fill="white"/>
<path opacity="0.9" d="M323.001 171.747L316.211 172.414L317.456 188.144L324.246 187.477L323.001 171.747Z" fill="white"/>
<path opacity="0.9" d="M336.431 168.542L329.641 169.209L331.033 186.81L337.824 186.144L336.431 168.542Z" fill="white"/>
<path opacity="0.9" d="M350.329 171.134L343.539 171.801L344.622 185.483L351.412 184.817L350.329 171.134Z" fill="white"/>
<path d="M316.325 173.831L309.535 174.498L310.668 188.814L317.458 188.147L316.325 173.831Z" fill="#E86B31"/>
<path d="M329.497 167.335L322.707 168.002L324.249 187.485L331.039 186.818L329.497 167.335Z" fill="#E86B31"/>
<path d="M343.372 169.747L336.582 170.414L337.827 186.144L344.617 185.477L343.372 169.747Z" fill="#E86B31"/>
<path d="M356.271 159.704L349.48 160.371L351.414 184.809L358.205 184.142L356.271 159.704Z" fill="#E86B31"/>
<path opacity="0.8" d="M84.5977 117.879L90.1823 188.983L181.085 197.774L175.501 126.671L84.5977 117.879Z" fill="white"/>
<path d="M149.517 150.799L100.732 146.08C98.6768 145.881 96.8661 143.879 96.6876 141.607L96.0728 133.777C95.8943 131.505 97.4158 129.825 99.4711 130.024L148.256 134.742C150.311 134.941 152.122 136.944 152.3 139.215L152.914 147.046C153.094 149.316 151.572 150.998 149.517 150.799Z" fill="white"/>
<path d="M108.795 138.894C109.009 141.611 107.189 143.622 104.73 143.384C102.272 143.146 100.106 140.75 99.8919 138.032C99.679 135.315 101.498 133.304 103.957 133.543C106.416 133.781 108.582 136.177 108.795 138.894Z" fill="#E86B31"/>
<path d="M114.499 136.682C113.965 136.63 113.496 136.11 113.449 135.52C113.403 134.93 113.798 134.493 114.332 134.545L144.231 137.436C144.765 137.488 145.236 138.008 145.281 138.598C145.328 139.188 144.932 139.624 144.398 139.572L114.499 136.682Z" fill="#263238"/>
<path d="M115.101 144.385C114.567 144.334 114.097 143.814 114.051 143.223C114.004 142.633 114.399 142.197 114.933 142.248L132.446 143.942C132.98 143.994 133.449 144.514 133.496 145.104C133.542 145.695 133.147 146.131 132.613 146.079L115.101 144.385Z" fill="#263238"/>
<path d="M114.8 140.535C114.266 140.483 113.796 139.963 113.75 139.373C113.703 138.783 114.099 138.347 114.632 138.399L139.993 140.852C140.527 140.904 140.998 141.424 141.043 142.013C141.09 142.603 140.695 143.04 140.161 142.988L114.8 140.535Z" fill="#263238"/>
<g opacity="0.5">
<path d="M114.499 136.682C113.965 136.63 113.496 136.11 113.449 135.52C113.403 134.93 113.798 134.493 114.332 134.545L144.231 137.436C144.765 137.488 145.236 138.008 145.281 138.598C145.328 139.188 144.932 139.624 144.398 139.572L114.499 136.682Z" fill="white"/>
<path d="M115.101 144.385C114.567 144.334 114.097 143.814 114.051 143.223C114.004 142.633 114.399 142.197 114.933 142.248L132.446 143.942C132.98 143.994 133.449 144.514 133.496 145.104C133.542 145.695 133.147 146.131 132.613 146.079L115.101 144.385Z" fill="white"/>
<path d="M114.8 140.535C114.266 140.483 113.796 139.963 113.75 139.373C113.703 138.783 114.099 138.347 114.632 138.399L139.993 140.852C140.527 140.904 140.998 141.424 141.043 142.013C141.09 142.603 140.695 143.04 140.161 142.988L114.8 140.535Z" fill="white"/>
</g>
<path d="M152.065 127.317L146.362 126.833C145.578 126.766 145.004 127.416 145.081 128.284L145.548 133.569C145.624 134.435 146.319 135.192 147.102 135.261L148.753 135.407L149.562 136.697C149.836 137.134 150.387 137.177 150.583 136.776L151.163 135.589L152.805 135.734C153.591 135.804 154.167 135.153 154.09 134.283L153.624 129.008C153.547 128.14 152.849 127.383 152.065 127.317Z" fill="#E86B31"/>
<g opacity="0.9">
<path d="M147.68 131.61C147.189 131.074 146.95 130.518 146.912 130.036C146.848 129.215 147.3 128.716 148.052 128.788C148.752 128.856 149.019 129.238 149.47 129.796C149.839 129.317 150.05 128.981 150.75 129.049C151.502 129.122 152.04 129.717 152.104 130.539C152.143 131.021 151.988 131.54 151.574 131.987L149.795 133.942L147.68 131.61Z" fill="white"/>
</g>
<path d="M162.849 170.912L114.064 166.194C112.009 165.995 110.198 163.992 110.02 161.721L109.405 153.89C109.226 151.618 110.748 149.938 112.803 150.137L161.588 154.856C163.643 155.054 165.454 157.057 165.632 159.329L166.246 167.159C166.425 169.43 164.904 171.111 162.849 170.912Z" fill="white"/>
<path d="M122.131 159.009C122.344 161.726 120.525 163.737 118.066 163.499C115.607 163.261 113.442 160.866 113.228 158.147C113.015 155.43 114.834 153.42 117.293 153.658C119.751 153.896 121.917 156.292 122.131 159.009Z" fill="#E86B31"/>
<path d="M127.823 156.797C127.289 156.746 126.819 156.226 126.773 155.635C126.727 155.045 127.122 154.609 127.656 154.66L157.555 157.552C158.089 157.603 158.56 158.123 158.605 158.714C158.652 159.304 158.257 159.74 157.723 159.689L127.823 156.797Z" fill="#263238"/>
<path d="M128.425 164.501C127.891 164.449 127.42 163.929 127.375 163.338C127.328 162.748 127.724 162.312 128.257 162.364L145.769 164.057C146.303 164.109 146.774 164.629 146.819 165.22C146.866 165.809 146.471 166.246 145.937 166.194L128.425 164.501Z" fill="#263238"/>
<path d="M128.124 160.651C127.59 160.599 127.121 160.079 127.074 159.489C127.028 158.898 127.423 158.462 127.957 158.514L153.318 160.967C153.852 161.019 154.321 161.539 154.368 162.128C154.414 162.719 154.019 163.155 153.485 163.103L128.124 160.651Z" fill="#263238"/>
<g opacity="0.5">
<path d="M127.823 156.797C127.289 156.746 126.819 156.226 126.773 155.635C126.727 155.045 127.122 154.609 127.656 154.66L157.555 157.552C158.089 157.603 158.56 158.123 158.605 158.714C158.652 159.304 158.257 159.74 157.723 159.689L127.823 156.797Z" fill="white"/>
<path d="M128.425 164.501C127.891 164.449 127.42 163.929 127.375 163.338C127.328 162.748 127.724 162.312 128.257 162.364L145.769 164.057C146.303 164.109 146.774 164.629 146.819 165.22C146.866 165.809 146.471 166.246 145.937 166.194L128.425 164.501Z" fill="white"/>
<path d="M128.124 160.651C127.59 160.599 127.121 160.079 127.074 159.489C127.028 158.898 127.423 158.462 127.957 158.514L153.318 160.967C153.852 161.019 154.321 161.539 154.368 162.128C154.414 162.719 154.019 163.155 153.485 163.103L128.124 160.651Z" fill="white"/>
</g>
<path d="M165.394 147.428L159.69 146.944C158.906 146.878 158.332 147.527 158.409 148.395L158.876 153.681C158.952 154.547 159.647 155.304 160.43 155.372L162.081 155.518L162.89 156.808C163.164 157.245 163.715 157.289 163.911 156.888L164.491 155.701L166.133 155.846C166.919 155.915 167.495 155.264 167.418 154.394L166.952 149.119C166.875 148.251 166.178 147.494 165.394 147.428Z" fill="#E86B31"/>
<g opacity="0.9">
<path d="M161.009 151.719C160.518 151.185 160.279 150.628 160.24 150.146C160.176 149.324 160.628 148.825 161.38 148.898C162.08 148.965 162.347 149.347 162.798 149.906C163.167 149.426 163.378 149.09 164.079 149.159C164.83 149.231 165.368 149.827 165.433 150.648C165.471 151.129 165.316 151.649 164.903 152.095L163.123 154.05L161.009 151.719Z" fill="white"/>
</g>
<path d="M156.474 190.399L107.689 185.682C105.634 185.483 103.823 183.481 103.645 181.209L103.03 173.378C102.851 171.107 104.373 169.426 106.428 169.625L155.213 174.343C157.268 174.542 159.079 176.544 159.257 178.816L159.871 186.646C160.051 188.918 158.529 190.598 156.474 190.399Z" fill="white"/>
<path d="M115.752 178.495C115.966 181.212 114.146 183.222 111.687 182.985C109.228 182.747 107.062 180.352 106.849 177.634C106.636 174.917 108.455 172.906 110.914 173.144C113.373 173.381 115.539 175.777 115.752 178.495Z" fill="#E86B31"/>
<path d="M121.452 176.275C120.918 176.223 120.448 175.703 120.402 175.114C120.356 174.523 120.751 174.087 121.285 174.139L151.184 177.03C151.718 177.082 152.188 177.602 152.234 178.191C152.281 178.782 151.885 179.218 151.352 179.166L121.452 176.275Z" fill="#263238"/>
<path d="M122.061 183.98C121.528 183.928 121.058 183.408 121.012 182.819C120.965 182.228 121.36 181.792 121.894 181.844L145.966 184.172C146.5 184.223 146.97 184.744 147.016 185.333C147.063 185.923 146.667 186.36 146.134 186.308L122.061 183.98Z" fill="#263238"/>
<path d="M121.753 180.128C121.219 180.077 120.749 179.557 120.703 178.967C120.656 178.377 121.052 177.941 121.586 177.992L143.198 180.083C143.732 180.135 144.201 180.655 144.248 181.244C144.294 181.835 143.899 182.271 143.365 182.219L121.753 180.128Z" fill="#263238"/>
<g opacity="0.5">
<path d="M121.452 176.275C120.918 176.223 120.448 175.703 120.402 175.114C120.356 174.523 120.751 174.087 121.285 174.139L151.184 177.03C151.718 177.082 152.188 177.602 152.234 178.191C152.281 178.782 151.885 179.218 151.352 179.166L121.452 176.275Z" fill="white"/>
<path d="M122.061 183.98C121.528 183.928 121.058 183.408 121.012 182.819C120.965 182.228 121.36 181.792 121.894 181.844L145.966 184.172C146.5 184.223 146.97 184.744 147.016 185.333C147.063 185.923 146.667 186.36 146.134 186.308L122.061 183.98Z" fill="white"/>
<path d="M121.753 180.128C121.219 180.077 120.749 179.557 120.703 178.967C120.656 178.377 121.052 177.941 121.586 177.992L143.198 180.083C143.732 180.135 144.201 180.655 144.248 181.244C144.294 181.835 143.899 182.271 143.365 182.219L121.753 180.128Z" fill="white"/>
</g>
<path d="M159.187 169.004L153.483 168.52C152.699 168.454 152.125 169.103 152.202 169.972L152.669 175.257C152.745 176.123 153.44 176.88 154.223 176.948L155.874 177.094L156.683 178.384C156.957 178.821 157.508 178.865 157.704 178.464L158.284 177.277L159.926 177.422C160.712 177.491 161.288 176.841 161.211 175.97L160.745 170.696C160.668 169.829 159.971 169.07 159.187 169.004Z" fill="#E86B31"/>
<path opacity="0.9" d="M154.834 174.933C154.602 174.911 154.396 174.684 154.376 174.427L154.236 172.648C154.216 172.39 154.389 172.201 154.621 172.222C154.854 172.245 155.059 172.472 155.08 172.729L155.219 174.508C155.239 174.766 155.067 174.955 154.834 174.933Z" fill="white"/>
<path opacity="0.9" d="M155.624 172.229C155.905 171.981 156.609 171.269 156.607 170.357C156.606 169.909 157.178 169.828 157.385 170.255C157.54 170.575 157.577 171.138 157.294 172.122L158.371 172.227C158.658 172.255 158.934 172.468 159.071 172.77C159.151 172.948 159.178 173.139 159.146 173.313L158.829 175.01C158.758 175.388 158.43 175.597 158.066 175.5L156.007 174.948C155.836 174.902 155.7 174.729 155.685 174.541L155.525 172.509C155.515 172.395 155.55 172.293 155.624 172.229Z" fill="white"/>
<path opacity="0.8" d="M181.098 126.939L186.682 198.044H276.895L271.31 126.939H181.098Z" fill="white"/>
<g opacity="0.2">
<path d="M183.88 197.711C183.495 197.711 183.155 197.363 183.121 196.934L181.362 174.546C181.329 174.118 181.613 173.77 181.998 173.77C182.383 173.77 182.723 174.118 182.757 174.546L184.516 196.934C184.55 197.363 184.265 197.711 183.88 197.711Z" fill="black"/>
</g>
<g opacity="0.2">
<path d="M181.784 171.179C181.399 171.179 181.06 170.831 181.025 170.402L178.53 138.634C178.497 138.205 178.781 137.857 179.166 137.857C179.551 137.857 179.891 138.205 179.925 138.634L182.42 170.402C182.455 170.831 182.17 171.179 181.784 171.179Z" fill="black"/>
</g>
<g opacity="0.2">
<path d="M178.981 135.445C178.596 135.445 178.256 135.097 178.222 134.668L177.702 128.05C177.668 127.621 177.953 127.273 178.338 127.273C178.723 127.273 179.062 127.621 179.097 128.05L179.617 134.668C179.651 135.097 179.366 135.445 178.981 135.445Z" fill="black"/>
</g>
<g opacity="0.2">
<path d="M279.656 197.713C279.271 197.713 278.931 197.365 278.897 196.936L276.339 164.361C276.305 163.932 276.59 163.584 276.975 163.584C277.36 163.584 277.699 163.932 277.734 164.361L280.292 196.936C280.326 197.365 280.041 197.713 279.656 197.713Z" fill="black"/>
</g>
<g opacity="0.2">
<path d="M276.797 161.342C276.412 161.342 276.073 160.994 276.039 160.565L274.046 135.185C274.012 134.756 274.297 134.408 274.682 134.408C275.067 134.408 275.406 134.756 275.441 135.185L277.434 160.565C277.467 160.995 277.183 161.342 276.797 161.342Z" fill="black"/>
</g>
<g opacity="0.2">
<path d="M274.441 131.359C274.056 131.359 273.717 131.011 273.682 130.582L273.483 128.05C273.45 127.621 273.734 127.273 274.119 127.273C274.504 127.273 274.844 127.621 274.878 128.05L275.077 130.582C275.111 131.011 274.826 131.359 274.441 131.359Z" fill="black"/>
</g>
<path d="M260.789 158.242C260.742 157.651 261.134 157.174 261.664 157.174C262.194 157.174 262.661 157.652 262.707 158.242L263.81 172.292C263.857 172.882 263.465 173.36 262.935 173.36C262.406 173.36 261.938 172.881 261.893 172.292L260.789 158.242Z" fill="#E86B31"/>
<path d="M187.883 132.919C187.353 132.919 186.886 132.441 186.84 131.851C186.793 131.261 187.186 130.783 187.715 130.783H209.628C210.158 130.783 210.625 131.262 210.671 131.851C210.717 132.442 210.326 132.919 209.796 132.919H187.883Z" fill="#263238"/>
<path d="M188.484 140.622C187.955 140.622 187.487 140.144 187.441 139.554C187.395 138.964 187.786 138.486 188.316 138.486H206.51C207.039 138.486 207.507 138.965 207.552 139.554C207.599 140.145 207.207 140.622 206.677 140.622H188.484Z" fill="#263238"/>
<path d="M188.184 136.773C187.654 136.773 187.187 136.294 187.14 135.705C187.094 135.114 187.486 134.637 188.016 134.637H202.489C203.019 134.637 203.486 135.115 203.533 135.705C203.579 136.295 203.187 136.773 202.658 136.773H188.184Z" fill="#263238"/>
<g opacity="0.5">
<path d="M187.883 132.919C187.353 132.919 186.886 132.441 186.84 131.851C186.793 131.261 187.186 130.783 187.715 130.783H209.628C210.158 130.783 210.625 131.262 210.671 131.851C210.717 132.442 210.326 132.919 209.796 132.919H187.883Z" fill="white"/>
<path d="M188.484 140.622C187.955 140.622 187.487 140.144 187.441 139.554C187.395 138.964 187.786 138.486 188.316 138.486H206.51C207.039 138.486 207.507 138.965 207.552 139.554C207.599 140.145 207.207 140.622 206.677 140.622H188.484Z" fill="white"/>
<path d="M188.184 136.773C187.654 136.773 187.187 136.294 187.14 135.705C187.094 135.114 187.486 134.637 188.016 134.637H202.489C203.019 134.637 203.486 135.115 203.533 135.705C203.579 136.295 203.187 136.773 202.658 136.773H188.184Z" fill="white"/>
</g>
<path d="M266.027 149.49C266.267 152.542 264.24 155.018 261.498 155.018C258.756 155.018 256.34 152.543 256.101 149.49C255.861 146.437 257.889 143.961 260.63 143.961C263.371 143.962 265.787 146.437 266.027 149.49Z" fill="#E86B31"/>
<path d="M258.62 152.128C258.318 152.128 258.051 151.855 258.025 151.518L257.842 149.19C257.816 148.854 258.039 148.58 258.341 148.58C258.644 148.58 258.91 148.854 258.937 149.19L259.12 151.518C259.147 151.856 258.923 152.128 258.62 152.128Z" fill="white"/>
<path d="M259.647 148.464C260.011 148.101 260.925 147.074 260.922 145.871C260.92 145.281 261.662 145.102 261.932 145.638C262.133 146.04 262.181 146.777 261.815 148.11H263.213C263.587 148.11 263.944 148.356 264.123 148.738C264.227 148.961 264.261 149.211 264.219 149.445L263.809 151.722C263.718 152.228 263.293 152.547 262.819 152.465L260.144 151.999C259.923 151.961 259.745 151.751 259.726 151.504L259.517 148.846C259.506 148.698 259.552 148.558 259.647 148.464Z" fill="white"/>
<path d="M268.512 181.046C268.272 177.993 265.856 175.518 263.115 175.518C260.374 175.518 258.346 177.992 258.586 181.046C258.826 184.099 261.242 186.575 263.982 186.575C266.723 186.575 268.752 184.099 268.512 181.046Z" fill="#E86B31"/>
<path d="M260.693 178.408C260.391 178.408 260.167 178.682 260.194 179.018L260.377 181.346C260.404 181.683 260.67 181.956 260.972 181.956C261.274 181.956 261.498 181.683 261.471 181.346L261.288 179.018C261.262 178.682 260.995 178.408 260.693 178.408Z" fill="white"/>
<path d="M262.293 182.075C262.715 182.438 263.79 183.465 263.976 184.668C264.067 185.258 264.837 185.437 265.022 184.901C265.161 184.499 265.092 183.762 264.517 182.429H265.915C266.289 182.429 266.607 182.183 266.726 181.801C266.796 181.578 266.79 181.328 266.712 181.095L265.945 178.818C265.773 178.312 265.299 177.993 264.838 178.076L262.237 178.541C262.021 178.579 261.877 178.789 261.896 179.036L262.105 181.693C262.117 181.841 262.184 181.981 262.293 182.075Z" fill="white"/>
<path d="M248.417 185.959C257.795 175.046 256.73 156.959 246.038 145.559C235.346 134.159 219.076 133.763 209.698 144.675C200.321 155.588 201.386 173.675 212.078 185.075C222.77 196.475 239.04 196.871 248.417 185.959Z" fill="#E86B31"/>
<path opacity="0.6" d="M245.601 145.109C240.553 139.938 233.888 136.74 226.805 136.74C212.637 136.74 202.157 149.534 203.396 165.313H229.049L245.601 145.109Z" fill="white"/>
<path opacity="0.2" d="M209.328 145.107L229.054 165.312L226.81 136.738C219.726 136.738 213.564 139.937 209.328 145.107Z" fill="black"/>
<path d="M209.328 145.107L229.054 165.312L226.81 136.738C219.726 136.738 213.564 139.937 209.328 145.107Z" fill="#E86B31"/>
<path opacity="0.3" d="M209.328 145.107L229.054 165.312L226.81 136.738C219.726 136.738 213.564 139.937 209.328 145.107Z" fill="black"/>
<path opacity="0.3" d="M231.296 193.886C245.464 193.886 255.944 181.092 254.704 165.312H229.052L212.5 185.517C217.548 190.688 224.212 193.886 231.296 193.886Z" fill="white"/>
<path d="M248.084 189.006C248.386 192.842 245.838 195.952 242.395 195.952C238.951 195.952 235.915 192.842 235.614 189.006C235.313 185.17 237.86 182.061 241.304 182.061C244.747 182.061 247.782 185.17 248.084 189.006Z" fill="#263238"/>
<path d="M239.682 190.16C239.113 189.587 238.836 188.959 238.792 188.397C238.717 187.438 239.241 186.799 240.111 186.799C240.922 186.799 241.233 187.217 241.754 187.823C242.182 187.217 242.426 186.799 243.237 186.799C244.107 186.799 244.731 187.438 244.807 188.397C244.85 188.959 244.673 189.587 244.193 190.16L242.134 192.662L239.682 190.16Z" fill="#E86B31"/>
<path d="M212.901 154.198C213.202 158.034 210.655 161.143 207.211 161.143C203.767 161.143 200.732 158.034 200.43 154.198C200.129 150.362 202.676 147.252 206.12 147.252C209.564 147.252 212.599 150.362 212.901 154.198Z" fill="#263238"/>
<path d="M210.598 154.201C210.787 156.616 209.183 158.575 207.013 158.575C204.845 158.575 202.932 156.616 202.742 154.201C202.552 151.785 204.156 149.826 206.326 149.826C208.496 149.826 210.408 151.785 210.598 154.201Z" fill="#E86B31"/>
<path opacity="0.5" d="M210.598 154.201C210.787 156.616 209.183 158.575 207.013 158.575C204.845 158.575 202.932 156.616 202.742 154.201C202.552 151.785 204.156 149.826 206.326 149.826C208.496 149.826 210.408 151.785 210.598 154.201Z" fill="white"/>
<path d="M208.106 155.13C207.371 155.951 206.24 155.953 205.375 155.13C205.03 154.803 204.593 155.333 204.939 155.662C206.1 156.765 207.638 156.765 208.626 155.662C208.92 155.333 208.4 154.803 208.106 155.13Z" fill="#E86B31"/>
<path d="M205.61 152.776C205.647 153.251 205.529 153.638 205.345 153.638C205.161 153.638 204.982 153.252 204.944 152.776C204.907 152.299 205.026 151.914 205.209 151.914C205.394 151.914 205.573 152.299 205.61 152.776Z" fill="#E86B31"/>
<path d="M208.149 152.776C208.186 153.251 208.068 153.638 207.884 153.638C207.7 153.638 207.521 153.252 207.483 152.776C207.446 152.299 207.565 151.914 207.748 151.914C207.933 151.914 208.112 152.299 208.149 152.776Z" fill="#E86B31"/>
<path d="M250.979 147.881C251.28 151.717 248.733 154.827 245.289 154.827C241.845 154.827 238.81 151.717 238.509 147.881C238.207 144.045 240.755 140.936 244.198 140.936C247.642 140.936 250.678 144.045 250.979 147.881Z" fill="#263238"/>
<path d="M248.671 147.884C248.861 150.3 247.256 152.259 245.087 152.259C242.918 152.259 241.005 150.3 240.816 147.884C240.626 145.469 242.231 143.51 244.4 143.51C246.568 143.51 248.481 145.469 248.671 147.884Z" fill="#E86B31"/>
<path opacity="0.5" d="M248.671 147.884C248.861 150.3 247.256 152.259 245.087 152.259C242.918 152.259 241.005 150.3 240.816 147.884C240.626 145.469 242.231 143.51 244.4 143.51C246.568 143.51 248.481 145.469 248.671 147.884Z" fill="white"/>
<path d="M243.552 150.066C244.287 149.245 245.419 149.243 246.284 150.066C246.629 150.393 247.066 149.863 246.719 149.534C245.558 148.431 244.02 148.431 243.032 149.534C242.739 149.863 243.258 150.393 243.552 150.066Z" fill="#E86B31"/>
<path d="M243.696 146.46C243.733 146.936 243.614 147.321 243.431 147.321C243.247 147.321 243.067 146.936 243.03 146.46C242.993 145.984 243.112 145.598 243.295 145.598C243.479 145.598 243.659 145.983 243.696 146.46Z" fill="#E86B31"/>
<path d="M246.243 146.46C246.28 146.936 246.161 147.321 245.978 147.321C245.794 147.321 245.614 146.936 245.577 146.46C245.54 145.984 245.658 145.598 245.842 145.598C246.026 145.598 246.206 145.983 246.243 146.46Z" fill="#E86B31"/>
<path d="M213.424 175.518C213.726 179.354 211.178 182.464 207.735 182.464C204.291 182.464 201.255 179.354 200.954 175.518C200.653 171.682 203.2 168.572 206.644 168.572C210.086 168.573 213.123 171.682 213.424 175.518Z" fill="#263238"/>
<path d="M211.12 175.525C211.31 177.941 209.705 179.9 207.536 179.9C205.367 179.9 203.454 177.941 203.265 175.525C203.076 173.109 204.68 171.15 206.849 171.15C209.018 171.15 210.93 173.109 211.12 175.525Z" fill="#E86B31"/>
<path opacity="0.5" d="M211.12 175.525C211.31 177.941 209.705 179.9 207.536 179.9C205.367 179.9 203.454 177.941 203.265 175.525C203.076 173.109 204.68 171.15 206.849 171.15C209.018 171.15 210.93 173.109 211.12 175.525Z" fill="white"/>
<path d="M205.347 176.907C206.518 178.106 208.262 178.106 209.244 176.907L209.187 176.176H205.289L205.347 176.907Z" fill="#E86B31"/>
<path d="M206.675 174.21C206.104 173.706 205.455 173.706 204.964 174.21C204.735 174.445 205.125 174.843 205.354 174.608C205.645 174.31 206.011 174.31 206.348 174.608C206.613 174.842 206.942 174.445 206.675 174.21Z" fill="#E86B31"/>
<path d="M209.218 174.21C208.647 173.706 207.998 173.706 207.507 174.21C207.278 174.445 207.668 174.843 207.897 174.608C208.188 174.31 208.554 174.31 208.891 174.608C209.156 174.842 209.485 174.445 209.218 174.21Z" fill="#E86B31"/>
<path d="M277.955 225.143H249.113V230.365H306.797V228.218L277.955 225.143Z" fill="#E86B31"/>
<path opacity="0.6" d="M277.955 225.143H249.113V230.365H306.797V228.218L277.955 225.143Z" fill="white"/>
<path opacity="0.6" d="M277.955 230.365H249.113V225.143L277.955 228.218V230.365Z" fill="white"/>
<g opacity="0.5">
<path d="M370.359 168.399L366.391 117.881L361.021 118.408L338.016 192.32L363.699 189.797L370.359 168.399Z" fill="white"/>
</g>
<g opacity="0.5">
<path d="M248.226 198.046L270.357 126.941H245.46L223.328 198.046H248.226Z" fill="white"/>
</g>
<path opacity="0.5" d="M158.166 195.557L176.328 137.206L175.5 126.669L155.317 124.717L133.996 193.219L158.166 195.557Z" fill="white"/>
<path d="M323.418 240.575H141.313C140.428 240.575 139.711 239.777 139.711 238.79V234.387H325.019V238.79C325.019 239.777 324.302 240.575 323.418 240.575Z" fill="#E86B31"/>
<path opacity="0.2" d="M323.418 240.575H141.313C140.428 240.575 139.711 239.777 139.711 238.79V234.387H325.019V238.79C325.019 239.777 324.302 240.575 323.418 240.575Z" fill="black"/>
<path opacity="0.3" d="M223.597 240.575H141.313C140.428 240.575 139.711 239.777 139.711 238.79V234.387H223.597V240.575Z" fill="white"/>
<path d="M328.796 235.543H135.941C134.897 235.543 134.051 234.6 134.051 233.438V232.468C134.051 231.306 134.897 230.363 135.941 230.363H328.796C329.84 230.363 330.686 231.306 330.686 232.468V233.438C330.686 234.6 329.84 235.543 328.796 235.543Z" fill="#E86B31"/>
<path opacity="0.4" d="M223.6 235.543H135.941C134.897 235.543 134.051 234.6 134.051 233.438V232.468C134.051 231.306 134.897 230.363 135.941 230.363H223.6V235.543Z" fill="white"/>
<path d="M213.82 365.111H149.5C145.645 365.111 142.508 361.617 142.508 357.321V248.372C142.508 244.077 145.645 240.584 149.5 240.584H213.82C217.676 240.584 220.814 244.078 220.814 248.372V357.321C220.814 361.615 217.677 365.111 213.82 365.111ZM149.5 244.728C147.696 244.728 146.228 246.362 146.228 248.372V357.321C146.228 359.33 147.696 360.967 149.5 360.967H213.82C215.625 360.967 217.094 359.331 217.094 357.321V248.372C217.094 246.362 215.625 244.728 213.82 244.728H149.5Z" fill="#263238"/>
<g opacity="0.4">
<path opacity="0.2" d="M213.82 365.111H149.5C145.645 365.111 142.508 361.617 142.508 357.321V248.372C142.508 244.077 145.645 240.584 149.5 240.584H213.82C217.676 240.584 220.814 244.078 220.814 248.372V357.321C220.814 361.615 217.677 365.111 213.82 365.111ZM149.5 244.728C147.696 244.728 146.228 246.362 146.228 248.372V357.321C146.228 359.33 147.696 360.967 149.5 360.967H213.82C215.625 360.967 217.094 359.331 217.094 357.321V248.372C217.094 246.362 215.625 244.728 213.82 244.728H149.5Z" fill="white"/>
</g>
<path opacity="0.2" d="M213.819 240.584H149.499C145.883 240.584 142.898 243.66 142.543 247.586H146.309C146.633 245.954 147.939 244.728 149.499 244.728H213.819C215.381 244.728 216.686 245.953 217.011 247.586H220.776C220.421 243.659 217.437 240.584 213.819 240.584Z" fill="black"/>
<path d="M313.933 365.111H249.614C245.758 365.111 242.621 361.617 242.621 357.321V248.372C242.621 244.077 245.758 240.584 249.614 240.584H313.933C317.789 240.584 320.927 244.078 320.927 248.372V357.321C320.927 361.615 317.79 365.111 313.933 365.111ZM249.614 244.728C247.81 244.728 246.341 246.362 246.341 248.372V357.321C246.341 359.33 247.81 360.967 249.614 360.967H313.933C315.739 360.967 317.207 359.331 317.207 357.321V248.372C317.207 246.362 315.739 244.728 313.933 244.728H249.614Z" fill="#263238"/>
<path opacity="0.1" d="M313.933 365.111H249.614C245.758 365.111 242.621 361.617 242.621 357.321V248.372C242.621 244.077 245.758 240.584 249.614 240.584H313.933C317.789 240.584 320.927 244.078 320.927 248.372V357.321C320.927 361.615 317.79 365.111 313.933 365.111ZM249.614 244.728C247.81 244.728 246.341 246.362 246.341 248.372V357.321C246.341 359.33 247.81 360.967 249.614 360.967H313.933C315.739 360.967 317.207 359.331 317.207 357.321V248.372C317.207 246.362 315.739 244.728 313.933 244.728H249.614Z" fill="white"/>
<path opacity="0.2" d="M313.936 240.584H249.617C246 240.584 243.015 243.66 242.66 247.586H246.426C246.75 245.954 248.055 244.728 249.617 244.728H313.936C315.498 244.728 316.803 245.953 317.128 247.586H320.894C320.538 243.659 317.554 240.584 313.936 240.584Z" fill="black"/>
<path d="M198.29 266.18H126.357C122.03 266.18 118.523 270.086 118.523 274.905V356.786C118.523 361.605 122.03 365.511 126.357 365.511H198.29C202.616 365.511 206.123 361.605 206.123 356.786V274.905C206.123 270.086 202.616 266.18 198.29 266.18Z" fill="#E86B31"/>
<path opacity="0.4" d="M198.29 266.18H126.357C122.03 266.18 118.523 270.086 118.523 274.905V356.786C118.523 361.605 122.03 365.511 126.357 365.511H198.29C202.616 365.511 206.123 361.605 206.123 356.786V274.905C206.123 270.086 202.616 266.18 198.29 266.18Z" fill="white"/>
<path opacity="0.1" d="M118.523 356.719V356.788C118.523 361.607 122.03 365.514 126.357 365.514H198.29C202.616 365.514 206.123 361.607 206.123 356.788V356.719H118.523Z" fill="black"/>
<path d="M198.291 365.511H178.349C174.023 365.511 170.516 361.605 170.516 356.786V274.905C170.516 270.086 174.023 266.18 178.349 266.18H198.291C202.617 266.18 206.124 270.086 206.124 274.905V356.786C206.124 361.605 202.617 365.511 198.291 365.511Z" fill="#E86B31"/>
<path opacity="0.3" d="M198.294 360.848C200.305 360.848 201.942 359.025 201.942 356.784V274.904C201.942 272.663 200.305 270.84 198.294 270.84H178.352C176.34 270.84 174.703 272.663 174.703 274.904V356.784C174.703 359.025 176.34 360.848 178.352 360.848H198.294Z" fill="white"/>
<path opacity="0.7" d="M199.246 277.322H177.391V283.797H199.246V277.322Z" fill="white"/>
<path opacity="0.7" d="M199.246 285.092H177.391V291.566H199.246V285.092Z" fill="white"/>
<path d="M188.322 320.919C190.836 320.919 192.874 318.649 192.874 315.848C192.874 313.048 190.836 310.777 188.322 310.777C185.808 310.777 183.77 313.048 183.77 315.848C183.77 318.649 185.808 320.919 188.322 320.919Z" fill="#E86B31"/>
<g opacity="0.9">
<path d="M189.388 314.841C190.261 315.895 189.674 317.681 188.33 317.687C186.983 317.693 186.405 315.889 187.272 314.841C187.706 314.317 187.003 313.53 186.567 314.057C185.12 315.805 186.092 318.798 188.329 318.798C190.569 318.798 191.539 315.805 190.092 314.057C189.657 313.531 188.953 314.317 189.388 314.841Z" fill="white"/>
<path d="M187.832 312.891C187.832 313.733 187.832 314.577 187.832 315.419C187.832 316.132 188.828 316.134 188.828 315.419C188.828 314.577 188.828 313.733 188.828 312.891C188.828 312.177 187.832 312.176 187.832 312.891Z" fill="white"/>
</g>
<path d="M179.704 332.395C180.474 332.395 181.099 331.699 181.099 330.841C181.099 329.983 180.474 329.287 179.704 329.287C178.933 329.287 178.309 329.983 178.309 330.841C178.309 331.699 178.933 332.395 179.704 332.395Z" fill="#E86B31"/>
<path d="M185.45 332.395C186.22 332.395 186.845 331.699 186.845 330.841C186.845 329.983 186.22 329.287 185.45 329.287C184.679 329.287 184.055 329.983 184.055 330.841C184.055 331.699 184.679 332.395 185.45 332.395Z" fill="#E86B31"/>
<path d="M191.2 332.395C191.97 332.395 192.595 331.699 192.595 330.841C192.595 329.983 191.97 329.287 191.2 329.287C190.429 329.287 189.805 329.983 189.805 330.841C189.805 331.699 190.429 332.395 191.2 332.395Z" fill="#E86B31"/>
<path d="M196.946 332.395C197.716 332.395 198.341 331.699 198.341 330.841C198.341 329.983 197.716 329.287 196.946 329.287C196.175 329.287 195.551 329.983 195.551 330.841C195.551 331.699 196.175 332.395 196.946 332.395Z" fill="#E86B31"/>
<path d="M182.579 337.92C183.349 337.92 183.974 337.225 183.974 336.366C183.974 335.508 183.349 334.812 182.579 334.812C181.808 334.812 181.184 335.508 181.184 336.366C181.184 337.225 181.808 337.92 182.579 337.92Z" fill="#E86B31"/>
<path d="M188.321 337.92C189.091 337.92 189.716 337.225 189.716 336.366C189.716 335.508 189.091 334.812 188.321 334.812C187.55 334.812 186.926 335.508 186.926 336.366C186.926 337.225 187.55 337.92 188.321 337.92Z" fill="#E86B31"/>
<path d="M194.067 337.92C194.837 337.92 195.462 337.225 195.462 336.366C195.462 335.508 194.837 334.812 194.067 334.812C193.296 334.812 192.672 335.508 192.672 336.366C192.672 337.225 193.296 337.92 194.067 337.92Z" fill="#E86B31"/>
<path d="M179.704 344.037C180.474 344.037 181.099 343.342 181.099 342.484C181.099 341.625 180.474 340.93 179.704 340.93C178.933 340.93 178.309 341.625 178.309 342.484C178.309 343.342 178.933 344.037 179.704 344.037Z" fill="#E86B31"/>
<path d="M185.45 344.037C186.22 344.037 186.845 343.342 186.845 342.484C186.845 341.625 186.22 340.93 185.45 340.93C184.679 340.93 184.055 341.625 184.055 342.484C184.055 343.342 184.679 344.037 185.45 344.037Z" fill="#E86B31"/>
<path d="M191.2 344.037C191.97 344.037 192.595 343.342 192.595 342.484C192.595 341.625 191.97 340.93 191.2 340.93C190.429 340.93 189.805 341.625 189.805 342.484C189.805 343.342 190.429 344.037 191.2 344.037Z" fill="#E86B31"/>
<path d="M196.946 344.037C197.716 344.037 198.341 343.342 198.341 342.484C198.341 341.625 197.716 340.93 196.946 340.93C196.175 340.93 195.551 341.625 195.551 342.484C195.551 343.342 196.175 344.037 196.946 344.037Z" fill="#E86B31"/>
<path d="M182.579 349.565C183.349 349.565 183.974 348.869 183.974 348.011C183.974 347.153 183.349 346.457 182.579 346.457C181.808 346.457 181.184 347.153 181.184 348.011C181.184 348.869 181.808 349.565 182.579 349.565Z" fill="#E86B31"/>
<path d="M188.321 349.565C189.091 349.565 189.716 348.869 189.716 348.011C189.716 347.153 189.091 346.457 188.321 346.457C187.55 346.457 186.926 347.153 186.926 348.011C186.926 348.869 187.55 349.565 188.321 349.565Z" fill="#E86B31"/>
<path d="M194.067 349.565C194.837 349.565 195.462 348.869 195.462 348.011C195.462 347.153 194.837 346.457 194.067 346.457C193.296 346.457 192.672 347.153 192.672 348.011C192.672 348.869 193.296 349.565 194.067 349.565Z" fill="#E86B31"/>
<path d="M179.704 355.686C180.474 355.686 181.099 354.99 181.099 354.132C181.099 353.274 180.474 352.578 179.704 352.578C178.933 352.578 178.309 353.274 178.309 354.132C178.309 354.99 178.933 355.686 179.704 355.686Z" fill="#E86B31"/>
<path d="M185.45 355.686C186.22 355.686 186.845 354.99 186.845 354.132C186.845 353.274 186.22 352.578 185.45 352.578C184.679 352.578 184.055 353.274 184.055 354.132C184.055 354.99 184.679 355.686 185.45 355.686Z" fill="#E86B31"/>
<path d="M191.2 355.686C191.97 355.686 192.595 354.99 192.595 354.132C192.595 353.274 191.97 352.578 191.2 352.578C190.429 352.578 189.805 353.274 189.805 354.132C189.805 354.99 190.429 355.686 191.2 355.686Z" fill="#E86B31"/>
<path d="M196.946 355.686C197.716 355.686 198.341 354.99 198.341 354.132C198.341 353.274 197.716 352.578 196.946 352.578C196.175 352.578 195.551 353.274 195.551 354.132C195.551 354.99 196.175 355.686 196.946 355.686Z" fill="#E86B31"/>
<path d="M307.013 220.315L301.395 217.494L293.52 221.153V225.52C293.52 225.52 305.746 225.065 305.743 225.087C305.743 225.087 319.534 230.201 324.627 229.415C329.721 228.628 345.94 203.45 345.94 203.45L337.791 195.504L322.277 220.131L307.013 220.315Z" fill="#E4897B"/>
<path opacity="0.3" d="M307.013 220.313L301.395 217.492L293.52 221.151V225.518C293.52 225.518 305.746 225.064 305.743 225.085C305.743 225.085 306.088 225.214 306.688 225.425L310.634 220.269L307.013 220.313Z" fill="#8B373A"/>
<path d="M332.305 202.661C332.305 202.661 337.946 191.488 341.551 187.947C343.739 185.798 346.789 185.128 348.848 184.935C350.142 184.813 351.25 185.956 351.26 187.403C351.289 191.819 350.256 201.427 342.099 211.316L332.305 202.661Z" fill="#263238"/>
<path d="M332.309 200.559C332.309 200.559 339.178 204.158 343.2 211.24L341.007 213.128C341.007 213.128 336.533 206.843 330.938 203.234L332.309 200.559Z" fill="#E86B31"/>
<path d="M318.53 160.219L315.746 165.092C315.746 165.092 317.197 166.284 319.227 165.473L318.53 160.219Z" fill="#EB827E"/>
<path d="M318.055 163.304C316.346 163.304 314.957 161.648 314.957 159.613C314.957 157.578 316.347 155.922 318.055 155.922C319.763 155.922 321.153 157.577 321.153 159.613C321.153 161.648 319.763 163.304 318.055 163.304ZM318.055 156.7C316.731 156.7 315.655 158.007 315.655 159.614C315.655 161.22 316.731 162.528 318.055 162.528C319.378 162.528 320.455 161.22 320.455 159.614C320.455 158.007 319.378 156.7 318.055 156.7Z" fill="#E86B31"/>
<path d="M316.848 159.542C316.842 160.171 317.129 160.687 317.499 160.692C317.869 160.697 318.198 160.166 318.189 159.555C318.179 158.944 317.908 158.411 317.537 158.412C317.166 158.412 316.86 158.915 316.848 159.542Z" fill="#1A2E35"/>
<path d="M338.633 155.614C338.881 163.972 339.149 167.511 335.745 172.174C330.355 177.124 321.337 177.706 318.853 169.591C316.614 162.291 316.584 149.878 323.61 145.753C328.619 142.815 334.817 144.955 337.456 150.535C338.196 152.103 338.599 153.842 338.633 155.614Z" fill="#E4897B"/>
<path opacity="0.2" d="M328.094 175.733L328.04 175.324C327.92 174.418 327.116 173.834 326.324 174.077L323.273 175.008C324.74 175.693 326.397 175.913 328.094 175.733Z" fill="#8B373A"/>
<path d="M318.883 156.694C318.785 156.707 318.686 156.664 318.621 156.581C318.156 155.929 317.437 155.566 316.69 155.608C316.53 155.63 316.383 155.504 316.361 155.326C316.344 155.146 316.458 154.982 316.619 154.957C317.564 154.883 318.481 155.329 319.073 156.153C319.179 156.292 319.164 156.5 319.041 156.618L319.04 156.619C318.994 156.658 318.94 156.685 318.883 156.694Z" fill="#1A2E35"/>
<path d="M327.82 173.622L329.465 186.037L338.773 183.891L335.791 171.184L327.82 173.622Z" fill="#E4897B"/>
<path d="M318.493 148.837C321.66 155.554 323.854 149.41 323.273 154.825C322.691 160.238 324.438 161.993 324.438 161.993L330.814 172.585C331.151 173.146 331.799 173.33 332.353 173.06C334.007 172.252 335.081 172.429 335.67 172.696C336.084 172.884 336.549 172.829 336.884 172.498C338.323 171.079 341.74 167.012 342.789 159.554C344.846 144.939 334.763 142.711 334.763 142.711C329.161 141.414 330.597 134.8 327.267 134.801C324.728 134.802 325.475 139.456 325.475 139.456C325.475 139.456 322.756 137.187 321.18 137.96C319.143 138.958 320.949 143.613 320.949 143.613C320.949 143.613 315.389 142.251 318.493 148.837Z" fill="#472E03"/>
<path d="M325.049 158.059H315.746L316.194 157.023H325.049V158.059Z" fill="#E86B31"/>
<path d="M323.137 159.339C322.867 161.021 323.21 162.753 324.091 164.153C325.271 166 327.151 165.176 327.901 163.204C328.582 161.418 328.774 158.32 327.066 157.166C325.358 156.011 323.487 157.286 323.137 159.339Z" fill="#E4897B"/>
<path d="M325.301 181.494C325.301 181.494 331.277 175.202 337.546 175.711C341.808 176.056 343.126 182.012 343.126 182.012L325.301 181.494Z" fill="#263238"/>
<path opacity="0.2" d="M325.301 181.494C325.301 181.494 331.277 175.202 337.546 175.711C341.808 176.056 343.126 182.012 343.126 182.012L325.301 181.494Z" fill="white"/>
<path d="M329.343 257.633L316.246 186.408C315.722 183.556 317.452 180.937 320.022 180.699C328.237 179.935 344.802 179.198 350.341 184.861C363.252 198.064 364.276 258.669 364.276 258.669L329.343 257.633Z" fill="url(#paint0_linear_1391_357546)"/>
<path opacity="0.5" d="M319.96 185.295C319.96 185.295 317.876 186.184 316.488 187.725L320.797 211.155C324.645 201.552 324.38 185.295 324.38 185.295H319.96Z" fill="black"/>
<path d="M280.908 219.424L275.351 216.329L267.562 220.343V225.134C267.562 225.134 279.655 224.636 279.653 224.66C279.653 224.66 293.293 230.272 298.33 229.408C303.368 228.545 319.41 200.92 319.41 200.92L311.35 192.201L296.005 219.221L280.908 219.424Z" fill="#E4897B"/>
<path d="M305.926 200.058C305.926 200.058 311.506 187.8 315.07 183.915C318.635 180.031 324.515 180.553 324.515 180.553C324.515 180.553 326.607 194.768 315.613 209.554L305.926 200.058Z" fill="#E86B31"/>
<path d="M305.93 197.75C305.93 197.75 312.724 201.7 316.702 209.469L314.533 211.541C314.533 211.541 310.108 204.646 304.574 200.686L305.93 197.75Z" fill="#263238"/>
<path opacity="0.2" d="M305.93 197.75C305.93 197.75 312.724 201.7 316.702 209.469L314.533 211.541C314.533 211.541 310.108 204.646 304.574 200.686L305.93 197.75Z" fill="white"/>
<path d="M325.57 335.393L328.757 352.592L335.044 351.556L333.533 334.811L325.57 335.393Z" fill="#E4897B"/>
<path opacity="0.2" d="M334.529 345.843L333.533 334.811L325.57 335.393L327.562 346.144L334.529 345.843Z" fill="black"/>
<path d="M362.881 257.121C362.881 257.121 366.074 275.767 355.146 275.767C344.219 275.767 329.685 279.746 329.685 279.746C329.685 279.746 333.87 284.174 334.8 340.599L325.732 341.029C325.732 341.029 310.671 277.343 313.642 270.344C317.827 260.488 339.497 257.121 339.497 257.121H362.881Z" fill="#455A64"/>
<path d="M323.809 338.009L336.137 337.664L335.743 343.362L325.4 343.855L323.809 338.009Z" fill="#E86B31"/>
<path opacity="0.5" d="M323.809 338.009L336.137 337.664L335.743 343.362L325.4 343.855L323.809 338.009Z" fill="white"/>
<path d="M325.923 353.676C325.109 353.784 324.25 353.731 323.938 353.377C323.774 353.168 323.747 352.867 323.869 352.624C323.957 352.409 324.117 352.241 324.314 352.155C325.371 351.673 327.813 352.822 327.919 352.873C327.98 352.902 328.018 352.969 328.013 353.043C328.009 353.115 327.965 353.177 327.904 353.201C327.257 353.424 326.594 353.582 325.923 353.676ZM324.729 352.396C324.628 352.408 324.53 352.436 324.437 352.479C324.31 352.52 324.208 352.625 324.159 352.761C324.066 352.992 324.119 353.09 324.169 353.143C324.524 353.577 326.177 353.368 327.377 353.037C326.537 352.639 325.639 352.422 324.729 352.396Z" fill="#E86B31"/>
<path d="M327.884 353.202C327.864 353.211 327.841 353.212 327.819 353.204C326.994 352.922 325.251 351.55 325.302 350.711C325.296 350.511 325.404 350.252 325.826 350.148C326.134 350.069 326.458 350.134 326.722 350.327C327.638 350.98 328.025 352.923 328.044 353.013C328.055 353.075 328.034 353.139 327.991 353.179C327.958 353.202 327.921 353.209 327.884 353.202ZM325.965 350.462L325.875 350.465C325.599 350.528 325.594 350.656 325.587 350.702C325.6 351.202 326.766 352.302 327.635 352.727C327.469 351.911 327.081 351.17 326.525 350.608C326.359 350.485 326.161 350.434 325.965 350.462Z" fill="#E86B31"/>
<path d="M328.464 352.089L335.612 351.134C335.882 351.097 336.138 351.274 336.228 351.559L338.218 357.864C338.399 358.421 338.138 359.036 337.638 359.237C337.574 359.263 337.507 359.281 337.44 359.291C334.858 359.586 332.55 359.735 329.342 360.169C325.557 360.676 326.572 361.052 322.128 361.717C319.451 362.115 318.594 358.786 319.713 358.467C324.838 357.041 325.191 355.219 326.975 352.876C327.367 352.418 327.897 352.138 328.464 352.089Z" fill="#E86B31"/>
<path d="M307.184 340.002L313.112 356.037L318.886 354.753L314.915 337.596L307.184 340.002Z" fill="#E4897B"/>
<path opacity="0.2" d="M317.564 349.041L314.915 337.596L307.184 340.002L311.038 350.426L317.564 349.041Z" fill="black"/>
<path d="M362.883 257.117C362.883 257.117 369.634 276.566 347.318 275.763C338.771 275.456 301.756 285.086 301.756 285.086C301.756 285.086 308.431 288.971 316.801 341.025L307.327 343.421C307.327 343.421 280.469 284.316 283.44 277.317C287.625 267.461 331.667 257.117 331.667 257.117H362.883Z" fill="#455A64"/>
<path d="M306.164 342.754L317.401 340.078L318.564 345.258L307.792 348.02L306.164 342.754Z" fill="#E86B31"/>
<path opacity="0.5" d="M306.164 342.754L317.401 340.078L318.564 345.258L307.792 348.02L306.164 342.754Z" fill="white"/>
<path d="M309.54 356.765C308.726 356.874 307.867 356.82 307.555 356.467C307.391 356.257 307.364 355.956 307.486 355.714C307.575 355.498 307.734 355.33 307.931 355.244C308.988 354.764 311.43 355.911 311.537 355.962C311.597 355.991 311.635 356.059 311.632 356.132C311.627 356.205 311.583 356.267 311.522 356.291C310.875 356.512 310.211 356.672 309.54 356.765ZM308.346 355.485C308.245 355.496 308.147 355.524 308.054 355.568C307.927 355.609 307.825 355.714 307.776 355.85C307.684 356.08 307.736 356.179 307.786 356.233C308.141 356.667 309.794 356.457 310.994 356.127C310.156 355.728 309.257 355.511 308.346 355.485Z" fill="#E86B31"/>
<path d="M311.494 356.292C311.473 356.301 311.45 356.302 311.429 356.294C310.604 356.012 308.86 354.64 308.911 353.801C308.906 353.601 309.014 353.343 309.436 353.238C309.744 353.159 310.067 353.224 310.331 353.417C311.247 354.068 311.634 356.013 311.653 356.103C311.664 356.165 311.644 356.228 311.6 356.269C311.568 356.292 311.53 356.3 311.494 356.292ZM309.574 353.553L309.484 353.556C309.208 353.619 309.203 353.747 309.197 353.793C309.21 354.293 310.375 355.392 311.245 355.818C311.078 355.002 310.69 354.261 310.134 353.699C309.97 353.575 309.771 353.524 309.574 353.553Z" fill="#E86B31"/>
<path d="M312.082 355.18L319.23 354.223C319.499 354.187 319.755 354.364 319.845 354.649L321.836 360.954C322.016 361.512 321.756 362.126 321.255 362.327C321.191 362.353 321.124 362.371 321.057 362.381C318.475 362.675 316.167 362.825 312.96 363.259C309.175 363.766 310.189 364.142 305.746 364.807C303.068 365.205 302.212 361.876 303.33 361.557C308.456 360.131 308.808 358.309 310.592 355.966C310.984 355.51 311.515 355.23 312.082 355.18Z" fill="#E86B31"/>
<path d="M383.313 345.139C377.629 344.098 369.198 342.625 365.444 342.316C364.62 342.249 363.585 342.198 362.448 342.164V309.686H355.308V342.164C354.17 342.198 353.136 342.248 352.312 342.316C348.557 342.624 340.127 344.098 334.443 345.139C331.168 345.739 328.77 348.892 328.77 352.588V354.229H335.694L336.624 351.921C336.624 351.921 349.64 349.41 354.026 349.05C356.445 348.851 361.312 348.851 363.733 349.05C368.119 349.409 381.133 351.921 381.133 351.921L382.063 354.229H388.988V352.588C388.987 348.892 386.589 345.739 383.313 345.139Z" fill="#263238"/>
<path opacity="0.1" d="M383.313 345.139C377.629 344.098 369.198 342.625 365.444 342.316C364.62 342.249 363.585 342.198 362.448 342.164V309.686H355.308V342.164C354.17 342.198 353.136 342.248 352.312 342.316C348.557 342.624 340.127 344.098 334.443 345.139C331.168 345.739 328.77 348.892 328.77 352.588V354.229H335.694L336.624 351.921C336.624 351.921 349.64 349.41 354.026 349.05C356.445 348.851 361.312 348.851 363.733 349.05C368.119 349.409 381.133 351.921 381.133 351.921L382.063 354.229H388.988V352.588C388.987 348.892 386.589 345.739 383.313 345.139Z" fill="white"/>
<path d="M361.299 314.348H356.469C354.638 314.348 353.152 312.694 353.152 310.654V283.201H364.616V310.654C364.616 312.693 363.13 314.348 361.299 314.348Z" fill="#263238"/>
<path opacity="0.2" d="M364.616 283.201H353.152V290.781H364.616V283.201Z" fill="black"/>
<path d="M386.09 365.109C388.786 365.109 390.972 362.674 390.972 359.671C390.972 356.667 388.786 354.232 386.09 354.232C383.393 354.232 381.207 356.667 381.207 359.671C381.207 362.674 383.393 365.109 386.09 365.109Z" fill="#263238"/>
<path d="M331.675 365.109C334.372 365.109 336.558 362.674 336.558 359.671C336.558 356.667 334.372 354.232 331.675 354.232C328.979 354.232 326.793 356.667 326.793 359.671C326.793 362.674 328.979 365.109 331.675 365.109Z" fill="#263238"/>
<path d="M397.64 276.729C390.8 274.787 383.773 273.718 376.726 273.521C369.463 273.318 342.28 273.491 335.824 273.488C327.967 273.485 320.108 274.563 312.484 276.729C307.692 278.09 309.169 285.794 313.498 285.883C313.88 285.891 396.056 285.864 396.357 285.879C400.885 286.108 402.537 278.12 397.64 276.729Z" fill="#494949"/>
<path d="M314.709 285.717C328.513 281.797 343.135 281.797 356.939 285.717C362.161 287.201 364.388 278.211 359.164 276.727C343.917 272.396 327.732 272.396 312.485 276.727C307.269 278.209 309.478 287.203 314.709 285.717Z" fill="#E86B31"/>
<g opacity="0.4">
<path d="M314.709 285.717C328.513 281.797 343.135 281.797 356.939 285.717C362.161 287.201 364.388 278.211 359.164 276.727C343.917 272.396 327.732 272.396 312.485 276.727C307.269 278.209 309.478 287.203 314.709 285.717Z" fill="black"/>
</g>
<path d="M375.659 210.021C374.795 210.003 373.926 210.434 373.348 211.505C362.276 232.012 358.343 256.665 362.163 280.185C362.402 281.659 363.309 282.346 364.314 282.422C365.99 282.55 395.824 282.432 396.907 282.43C398.534 282.426 400.322 280.886 399.939 278.533C396.39 256.676 400.298 233.652 410.562 214.641C411.837 212.279 409.956 210.062 408.055 210.021C407.19 210.003 377.561 210.062 375.659 210.021Z" fill="#494949"/>
<path d="M367.536 278.533C363.986 256.677 367.895 233.653 378.158 214.642C380.014 211.206 375.191 208.078 373.34 211.506C362.268 232.013 358.336 256.666 362.155 280.186C362.794 284.116 368.172 282.45 367.536 278.533Z" fill="#E86B31"/>
<g opacity="0.4">
<path d="M367.536 278.533C363.986 256.677 367.895 233.653 378.158 214.642C380.014 211.206 375.191 208.078 373.34 211.506C362.268 232.013 358.336 256.666 362.155 280.186C362.794 284.116 368.172 282.45 367.536 278.533Z" fill="black"/>
</g>
<path d="M331 251.508C340.583 261.272 350.167 271.035 359.749 280.797C361.734 282.818 364.701 279.532 362.709 277.501C353.126 267.738 343.542 257.974 333.959 248.211C331.975 246.19 329.007 249.478 331 251.508Z" fill="#263238"/>
<g opacity="0.5">
<path d="M331 251.508C340.583 261.272 350.167 271.035 359.749 280.797C361.734 282.818 364.701 279.532 362.709 277.501C353.126 267.738 343.542 257.974 333.959 248.211C331.975 246.19 329.007 249.478 331 251.508Z" fill="white"/>
</g>
<path opacity="0.2" d="M333.959 248.211C331.975 246.19 329.008 249.477 331 251.507C332.833 253.375 334.667 255.243 336.5 257.111H342.694C339.782 254.144 336.87 251.177 333.959 248.211Z" fill="black"/>
<path d="M316.019 252.967C330.718 252.967 340.767 252.967 355.466 252.967C359.057 252.967 359.062 246.752 355.466 246.752C340.767 246.752 330.718 246.752 316.019 246.752C312.429 246.752 312.423 252.967 316.019 252.967Z" fill="#E86B31"/>
<g opacity="0.3">
<path d="M316.019 252.967C330.718 252.967 340.767 252.967 355.466 252.967C359.057 252.967 359.062 246.752 355.466 246.752C340.767 246.752 330.718 246.752 316.019 246.752C312.429 246.752 312.423 252.967 316.019 252.967Z" fill="white"/>
</g>
<defs>
<linearGradient id="paint0_linear_1391_357546" x1="334.5" y1="160.002" x2="366.525" y2="237.585" gradientUnits="userSpaceOnUse">
<stop stop-color="#FB8D48"/>
<stop offset="0.2" stop-color="#ED7136"/>
<stop offset="0.3999" stop-color="#C54E47"/>
<stop offset="0.4" stop-color="#C14F49"/>
<stop offset="0.6" stop-color="#9D3863"/>
<stop offset="0.8" stop-color="#5E1F72"/>
</linearGradient>
</defs>
</svg>
