<svg width="465" height="383" viewBox="0 0 465 383" fill="none" xmlns="http://www.w3.org/2000/svg">
<path d="M465 336.477H0V336.733H465V336.477Z" fill="#E86B31"/>
<path d="M107.258 346.238H84.125V346.495H107.258V346.238Z" fill="#E86B31"/>
<path d="M167.243 343.455H141.668V343.711H167.243V343.455Z" fill="#EBEBEB"/>
<path d="M98.3686 355.758H44.3281V356.014H98.3686V355.758Z" fill="#EBEBEB"/>
<path d="M418.413 354.037H398.328V354.293H418.413V354.037Z" fill="#E86B31"/>
<path d="M225.729 345.436H199.754V345.692H225.729V345.436Z" fill="#EBEBEB"/>
<path d="M344.928 349.707H279.621V349.963H344.928V349.707Z" fill="#E86B31"/>
<path d="M220.426 290.752H40.8436C37.9169 290.752 35.5352 288.126 35.5352 284.9V6.62724C35.5352 3.40093 37.9169 0.775391 40.8436 0.775391H220.426C223.351 0.775391 225.733 3.40093 225.733 6.62724V284.9C225.733 288.126 223.351 290.752 220.426 290.752ZM40.8436 1.03272C38.0443 1.03272 35.7677 3.54241 35.7677 6.62827V284.901C35.7677 287.987 38.0443 290.496 40.8436 290.496H220.426C223.224 290.496 225.501 287.987 225.501 284.901V6.62724C225.501 3.54241 223.224 1.03169 220.426 1.03169L40.8436 1.03272Z" fill="#E86B31"/>
<path d="M421.58 290.752H241.999C239.072 290.752 236.691 288.126 236.691 284.9V6.62724C236.691 3.40093 239.073 0.775391 241.999 0.775391H421.58C424.508 0.775391 426.888 3.40093 426.888 6.62724V284.9C426.889 288.126 424.508 290.752 421.58 290.752ZM241.999 1.03272C239.201 1.03272 236.924 3.54241 236.924 6.62827V284.901C236.924 287.987 239.201 290.496 241.999 290.496H421.58C424.379 290.496 426.656 287.987 426.656 284.901V6.62724C426.656 3.54241 424.379 1.03169 421.58 1.03169L241.999 1.03272Z" fill="#E86B31"/>
<path d="M197.152 30.0469H55.4805V224.569H197.152V30.0469Z" fill="#E6E6E6"/>
<path d="M200.29 30.0469H56.9453V224.569H200.29V30.0469Z" fill="#F5F5F5"/>
<path d="M57.4428 27.3933H199.054C199.736 27.3933 200.294 26.7782 200.294 26.0268C200.294 25.2753 199.736 24.6602 199.054 24.6602H57.4428C56.7611 24.6602 56.2031 25.2753 56.2031 26.0268C56.2031 26.7782 56.7611 27.3933 57.4428 27.3933Z" fill="#E6E6E6"/>
<path d="M197.152 224.568H55.4805V227.277H197.152V224.568Z" fill="#E6E6E6"/>
<path d="M214.649 224.568H78.1758V227.277H214.649V224.568Z" fill="#F5F5F5"/>
<path opacity="0.5" d="M195.895 218.274L195.895 36.3418L61.3431 36.3418L61.3431 218.274L195.895 218.274Z" fill="#FFBE55"/>
<path d="M108.078 218.274L118.454 36.3418H137.121L126.745 218.274H108.078Z" fill="white"/>
<path d="M132.023 218.274L142.399 36.3418H151.061L140.685 218.274H132.023Z" fill="white"/>
<path d="M195.895 157.954L195.895 35.4922H195.337L195.337 157.954H195.895Z" fill="#E6E6E6"/>
<path d="M167.252 257.254H150.82V336.474H167.252V257.254Z" fill="#E6E6E6"/>
<path d="M160.134 336.475H167.249V323.33H159.961L160.134 336.475Z" fill="#F5F5F5"/>
<path d="M72.522 257.254H56.0898V336.474H72.522V257.254Z" fill="#613D03"/>
<path d="M167.244 257.254H66.3086V331.95H167.244V257.254Z" fill="#F5F5F5"/>
<path d="M73.425 336.475H66.3086V323.33H73.597L73.425 336.475Z" fill="#F5F5F5"/>
<path d="M161.724 263.539H71.8281V291.089H161.724V263.539Z" fill="#613D03"/>
<path d="M116.783 282.032C112.759 282.032 109.484 278.422 109.484 273.986C109.484 269.55 112.759 265.939 116.783 265.939C120.808 265.939 124.083 269.549 124.083 273.986C124.083 278.423 120.809 282.032 116.783 282.032ZM116.783 266.788C113.184 266.788 110.254 270.017 110.254 273.986C110.254 277.955 113.183 281.183 116.783 281.183C120.383 281.183 123.313 277.955 123.313 273.986C123.313 270.018 120.384 266.788 116.783 266.788Z" fill="white"/>
<path d="M161.724 297.742H71.8281V325.293H161.724V297.742Z" fill="#613D03"/>
<path d="M116.78 316.236C112.755 316.236 109.48 312.626 109.48 308.189C109.48 303.752 112.755 300.143 116.78 300.143C120.805 300.143 124.08 303.752 124.08 308.189C124.08 312.626 120.806 316.236 116.78 316.236ZM116.78 300.992C113.18 300.992 110.251 304.222 110.251 308.189C110.251 312.158 113.179 315.387 116.78 315.387C120.381 315.387 123.31 312.159 123.31 308.189C123.31 304.222 120.381 300.992 116.78 300.992Z" fill="white"/>
<path d="M277.21 336.469H333.285V244.845H277.21V336.469Z" fill="#613D03"/>
<path d="M406.985 244.848H333.285V336.471H406.985V244.848Z" fill="#8F5903"/>
<path opacity="0.7" d="M277.209 246.533L406.984 246.533V237.043L277.209 237.043V246.533Z" fill="#E6E6E6"/>
<path d="M274.382 244.848H333.285V236.075H274.382V244.848Z" fill="#613D03"/>
<path d="M409.813 236.074H333.285V244.847H409.813V236.074Z" fill="#8F5903"/>
<path d="M209.939 336.473H255.814V279.918H209.939V336.473Z" fill="#613D03"/>
<path d="M316.108 279.914H255.814V336.468H316.108V279.914Z" fill="#8F5903"/>
<path opacity="0.7" d="M209.935 281.297H316.104V273.533H209.935V281.297Z" fill="#E6E6E6"/>
<path d="M207.624 279.918H255.812V272.742H207.624V279.918Z" fill="#503303"/>
<path d="M318.42 272.742H255.812V279.919H318.42V272.742Z" fill="#8F5903"/>
<path d="M383.735 44.6211H290.211V204.115H383.735V44.6211Z" fill="#E6E6E6"/>
<path d="M391.732 44.6211H291.566V204.115H391.732V44.6211Z" fill="#F5F5F5"/>
<path opacity="0.4" d="M297.953 191.535V57.2013C297.953 54.1421 300.203 51.6621 302.978 51.6621H380.32C383.096 51.6621 385.345 54.1421 385.345 57.2013V191.536C385.345 194.596 383.096 197.076 380.32 197.076H302.978C300.203 197.075 297.953 194.595 297.953 191.535Z" fill="#FFBE55"/>
<path opacity="0.5" d="M360.3 109.561L355.066 103.791L322.979 139.163L328.213 144.932L360.3 109.561Z" fill="#E86B31"/>
<path d="M347.117 95.0157L341.883 89.2461L309.796 124.618L315.03 130.387L347.117 95.0157Z" fill="#F5F5F5"/>
<path opacity="0.5" d="M373.499 124.109L368.266 118.34L336.179 153.712L341.412 159.481L373.499 124.109Z" fill="#E86B31"/>
<path opacity="0.3" d="M232.504 382.777C332.09 382.777 412.821 377.58 412.821 371.169C412.821 364.758 332.09 359.561 232.504 359.561C132.918 359.561 52.1875 364.758 52.1875 371.169C52.1875 377.58 132.918 382.777 232.504 382.777Z" fill="#F5F5F5"/>
<path d="M234.037 298.618L235.093 294.65H183.934L164.652 367.064H173.983L183.255 332.242H195.602L204.874 367.064H215.811L225.083 332.242H237.43L246.702 367.064H252.261L234.037 298.618ZM183.993 329.472L189.428 309.058L194.864 329.472H183.993ZM208.457 359.64L201.161 332.242H215.752L208.457 359.64ZM216.49 329.472H200.424L192.208 298.618L192.527 297.419H225.024L216.49 329.472ZM225.82 329.472L231.256 309.058L236.692 329.472H225.82Z" fill="#E86B31"/>
<path opacity="0.2" d="M234.037 298.618L235.093 294.65H183.934L164.652 367.064H173.983L183.255 332.242H195.602L204.874 367.064H215.811L225.083 332.242H237.43L246.702 367.064H252.261L234.037 298.618ZM183.993 329.472L189.428 309.058L194.864 329.472H183.993ZM208.457 359.64L201.161 332.242H215.752L208.457 359.64ZM216.49 329.472H200.424L192.208 298.618L192.527 297.419H225.024L216.49 329.472ZM225.82 329.472L231.256 309.058L236.692 329.472H225.82Z" fill="black"/>
<path d="M237.009 294.65H189.621L208.903 367.064H214.462L205.19 332.242H241.458L250.73 367.064H256.29L237.009 294.65ZM204.454 329.472L195.919 297.419H232.187L240.722 329.472H204.454Z" fill="#E86B31"/>
<path opacity="0.4" d="M237.009 294.65H189.621L208.903 367.064H214.462L205.19 332.242H241.458L250.73 367.064H256.29M204.454 329.472L195.919 297.419H232.187L240.722 329.472H204.454Z" fill="white"/>
<path d="M236.031 34.5695C236.031 34.5695 238.088 29.1872 249.284 30.4687C257.429 31.4017 262.377 41.0621 261.758 54.7311C261.137 68.4002 256.062 74.293 256.062 74.293L229.367 58.9888C229.367 58.9888 227.549 36.3636 236.031 34.5695Z" fill="#263238"/>
<path d="M260.086 49.0059V70.1947C264.271 51.1147 260.086 49.0059 260.086 49.0059Z" fill="#263238"/>
<path d="M258.728 40.457L263.08 61.0953C262.109 37.9893 257.581 36.9221 258.728 40.457Z" fill="#263238"/>
<path d="M258.032 92.2559C258.707 94.2468 259.428 96.3823 260.194 98.4163C260.944 100.475 261.715 102.52 262.545 104.52C263.387 106.513 264.251 108.475 265.177 110.36C265.647 111.298 266.127 112.212 266.626 113.096C266.865 113.56 267.14 113.947 267.394 114.379L267.741 114.939C267.787 115.016 267.84 115.093 267.91 115.171C268.172 115.48 268.667 115.825 269.335 116.096C270.001 116.367 270.819 116.55 271.68 116.664C273.42 116.898 275.346 116.85 277.287 116.689C279.237 116.535 281.219 116.232 283.198 115.838C285.177 115.484 287.194 115.001 289.12 114.517L290.379 118.386C286.419 120.354 282.399 121.814 278.07 122.804C275.904 123.274 273.67 123.594 271.263 123.535C270.057 123.487 268.805 123.352 267.481 122.97C266.166 122.587 264.734 121.941 263.439 120.726C263.117 120.427 262.809 120.091 262.525 119.728C262.358 119.523 262.293 119.423 262.2 119.296L261.931 118.922C261.583 118.422 261.194 117.927 260.882 117.418L259.907 115.896L259.012 114.349C257.853 112.279 256.796 110.18 255.846 108.045C254.899 105.911 253.996 103.766 253.172 101.591C252.366 99.3902 251.59 97.2558 250.902 94.9245L258.032 92.2559Z" fill="#E4897B"/>
<path d="M288.621 119.174L293.228 120.492L294.019 113.545C294.019 113.545 289.309 113.483 287.059 115.769L288.621 119.174Z" fill="#E4897B"/>
<path d="M299.023 120.89L298.37 115.762L294.02 113.545L293.23 120.492L299.023 120.89Z" fill="#E4897B"/>
<path opacity="0.5" d="M299.023 120.895L298.369 115.767L296.387 114.756L294.02 120.55L299.023 120.895Z" fill="#8B373A"/>
<path d="M245.098 86.6597C245.383 89.3294 247.144 94.4625 248.574 98.3019C249.616 101.072 250.471 103.16 250.471 103.16L251.861 102.585L263.372 97.7924C262.785 90.9072 261.687 83.3822 255.107 79.5879C250.972 77.2002 244.594 81.8925 245.098 86.6597Z" fill="#E86B31"/>
<path opacity="0.3" d="M248.578 98.3018C249.621 101.072 250.475 103.16 250.475 103.16L251.866 102.585C251.788 99.8755 251.479 95.5942 250.249 93.5879C249.386 94.9145 248.871 96.5835 248.578 98.3018Z" fill="black"/>
<path d="M205.227 286.439L212.683 287.218L214.687 268.248L207.23 267.469L205.227 286.439Z" fill="#E4897B"/>
<path d="M143.84 264.198L149.841 269.187L161.793 255.292L155.791 250.303L143.84 264.198Z" fill="#E4897B"/>
<path d="M151.026 268.499L146.717 260.48C146.56 260.187 146.254 260.075 145.98 260.208L139.884 263.175C139.252 263.482 139.006 264.43 139.378 265.095C140.923 267.861 141.792 269.109 143.687 272.634C144.853 274.804 147.15 279.798 148.76 282.794C150.334 285.724 153.073 284.138 152.64 282.726C150.696 276.397 150.894 272.812 151.28 269.96C151.349 269.446 151.256 268.925 151.026 268.499Z" fill="#263238"/>
<path d="M213.641 284.75H204.762C204.44 284.75 204.154 284.997 204.076 285.345L202.343 293.089C202.163 293.893 202.718 294.631 203.465 294.638C206.595 294.669 208.078 294.395 211.982 294.395C214.384 294.395 220.599 294.653 223.917 294.653C227.161 294.653 227.747 291.038 226.397 290.711C220.34 289.242 216.819 287.217 214.912 285.285C214.568 284.938 214.114 284.75 213.641 284.75Z" fill="#263238"/>
<path opacity="0.2" d="M214.691 268.25L213.659 278.028H206.117L207.23 267.471L214.691 268.25Z" fill="black"/>
<path opacity="0.2" d="M155.792 250.309L161.795 255.299L155.632 262.459L149.629 257.469L155.792 250.309Z" fill="black"/>
<path d="M209.715 113.699C215.179 116.075 226.787 121.119 238.012 126.002C259.625 83.4071 256.884 80.8605 256.884 80.8605C256.884 80.8605 252.414 77.5839 247.739 74.7851C247.033 74.3607 246.317 73.9455 245.609 73.5538C241.557 71.3046 237.603 69.7739 232.762 67.9583C232.118 67.7133 231.472 67.4908 230.826 67.2673C225.303 65.4117 220.162 64.4941 220.162 64.4941C219.492 70.5633 218.86 75.6934 218.214 80.1449C217.379 85.9506 216.54 90.5835 215.65 94.5787C213.977 102.007 212.12 107.233 209.715 113.699Z" fill="url(#paint0_linear_1391_358197)"/>
<path opacity="0.3" d="M215.645 94.5799C218.574 90.3971 221.615 80.4536 221.085 76.5938L218.209 80.1461C217.373 85.9518 216.535 90.5857 215.645 94.5799Z" fill="black"/>
<path d="M251.265 75.6641C250.086 68.7132 230.973 63.5605 230.973 63.5605L241.816 84.2645L243.524 85.0283C243.524 85.0283 252.048 80.2847 251.265 75.6641Z" fill="#E86B31"/>
<path opacity="0.3" d="M251.265 75.6641C250.086 68.7132 230.973 63.5605 230.973 63.5605L241.816 84.2645L243.524 85.0283C243.524 85.0283 252.048 80.2847 251.265 75.6641Z" fill="black"/>
<path d="M237.968 59.0196C236.878 62.9646 235.196 66.8245 232.755 67.9573C232.755 67.9573 231.447 78.2473 240.018 88.0236C249.717 81.5412 245.605 73.5467 245.605 73.5467C241.398 70.3163 242.427 66.8757 245.538 61.7395L242.383 58.5767C241.339 56.4699 238.595 56.7519 237.968 59.0196Z" fill="#E4897B"/>
<path d="M230.439 67.1435L230.969 63.5625C230.969 63.5625 235.386 66.1829 237.22 70.4262C239.054 74.6695 236.23 82.6661 236.23 82.6661L229.367 75.4364L230.439 67.1435Z" fill="#E86B31"/>
<path opacity="0.5" d="M242.378 58.5742C241.393 56.5874 238.886 56.7258 238.086 58.6685C238.945 62.0937 240.32 65.1499 242.911 67.6011C243.218 65.888 244.177 63.9698 245.53 61.737L242.378 58.5742Z" fill="#8B373A"/>
<path d="M234.938 44.854C235.145 53.1161 235.075 56.6141 238.66 61.0696C244.052 67.7713 253.048 65.9003 255.043 57.7889C256.84 50.4885 256.2 38.2035 249.107 34.482C242.12 30.8169 234.731 36.5909 234.938 44.854Z" fill="#E4897B"/>
<path d="M235.656 37.6433C241.224 44.1441 251.856 40.2063 251.856 40.2063L257.419 43.9329L254.463 36.533L247.917 32.3184C247.917 32.3184 232.801 34.3114 235.656 37.6433Z" fill="#263238"/>
<path d="M236.261 35.082C236.261 35.082 238.896 37.4738 240.756 42.5998C242.616 47.7258 235.191 51.6513 235.191 51.6513C235.191 51.6513 229.132 44.6502 236.261 35.082Z" fill="#263238"/>
<path d="M233.047 52.4081C233.351 54.0935 234.319 55.4806 235.376 56.2649C236.966 57.4439 238.309 56.0291 238.327 54.0238C238.343 52.2184 237.534 49.4309 235.716 49.0546C233.927 48.6845 232.699 50.4807 233.047 52.4081Z" fill="#E4897B"/>
<path d="M238.01 126.004C238.01 126.004 232.994 167.648 229.331 199.671C226.42 225.128 215.79 274.197 215.79 274.197L204.898 273.008C204.898 273.008 209.454 217.332 213.621 199.462C211.045 162.709 204.306 127.123 215.307 115.938L238.01 126.004Z" fill="#455A64"/>
<path d="M203.121 270.078L217.48 270.559L216.695 275.964L203.265 275.739L203.121 270.078Z" fill="#E86B31"/>
<path opacity="0.3" d="M220.141 147.521L209.26 137.535C208.879 150.381 210.785 166.989 212.394 184.643C217.891 171.961 221.714 158.336 220.141 147.521Z" fill="black"/>
<path d="M231.807 123.414C231.807 123.414 211.64 169.748 203.573 200.643C193.488 225.081 159.613 260.085 159.613 260.085L151.902 252.489C151.902 252.489 178.967 202.446 188.179 193.956C192.589 158.173 196.033 123.811 209.72 113.699L231.807 123.414Z" fill="#455A64"/>
<path d="M159.242 262.831L149.223 253.68L151.826 248.738L162.805 259.373L159.242 262.831Z" fill="#E86B31"/>
<path d="M209.902 111.668L207.698 113.932C207.527 114.107 207.687 114.432 208.014 114.573L237.691 127.482C237.946 127.593 238.203 127.545 238.278 127.374L239.46 124.667C239.542 124.479 239.375 124.218 239.096 124.096L210.44 111.631C210.229 111.541 210.011 111.555 209.902 111.668Z" fill="#E86B31"/>
<path opacity="0.2" d="M209.902 111.668L207.698 113.932C207.527 114.107 207.687 114.432 208.014 114.573L237.691 127.482C237.946 127.593 238.203 127.545 238.278 127.374L239.46 124.667C239.542 124.479 239.375 124.218 239.096 124.096L210.44 111.631C210.229 111.541 210.011 111.555 209.902 111.668Z" fill="white"/>
<path d="M212.576 116.907L211.808 116.573C211.656 116.507 211.567 116.368 211.614 116.266L213.178 112.759C213.224 112.657 213.387 112.627 213.539 112.694L214.306 113.028C214.459 113.095 214.547 113.233 214.501 113.336L212.936 116.842C212.891 116.944 212.728 116.974 212.576 116.907Z" fill="#263238"/>
<path d="M235.435 126.848L234.667 126.514C234.515 126.447 234.427 126.309 234.473 126.206L236.037 122.701C236.083 122.598 236.246 122.569 236.398 122.635L237.165 122.969C237.318 123.036 237.406 123.174 237.36 123.277L235.795 126.782C235.75 126.885 235.587 126.914 235.435 126.848Z" fill="#263238"/>
<path d="M224.001 121.878L223.234 121.544C223.082 121.477 222.993 121.339 223.04 121.236L224.604 117.73C224.65 117.628 224.812 117.598 224.965 117.665L225.732 117.999C225.885 118.065 225.973 118.204 225.926 118.306L224.362 121.812C224.318 121.915 224.155 121.945 224.001 121.878Z" fill="#263238"/>
<path d="M245.684 47.8649C245.665 48.5354 245.965 49.0982 246.357 49.1228C246.748 49.1474 247.081 48.6225 247.101 47.9521C247.12 47.2816 246.82 46.7187 246.429 46.6941C246.038 46.6705 245.705 47.1955 245.684 47.8649Z" fill="#263238"/>
<path d="M252.446 48.281C252.427 48.9515 252.727 49.5143 253.119 49.5389C253.509 49.5625 253.842 49.0386 253.863 48.3681C253.882 47.6976 253.582 47.1348 253.19 47.1102C252.799 47.0856 252.466 47.6105 252.446 48.281Z" fill="#263238"/>
<path d="M253.02 47.135L254.47 46.7598C254.47 46.7598 253.696 47.9716 253.02 47.135Z" fill="#263238"/>
<g filter="url(#filter0_i_1391_358197)">
<path d="M250.298 51.0672C250.298 51.0672 250.486 54.1538 251.177 55.8317C250.199 56.3888 249.018 55.62 249.018 55.62L250.298 51.0672Z" fill="#ED847E"/>
</g>
<path d="M248.701 60.5275C248.765 60.5019 248.811 60.4342 248.814 60.3533C248.817 60.2446 248.741 60.1513 248.644 60.1451C246.026 59.9832 244.854 57.8518 244.842 57.8302C244.791 57.7359 244.68 57.7052 244.6 57.7585C244.517 57.8128 244.491 57.9328 244.541 58.0271C244.592 58.1224 245.816 60.3645 248.631 60.5388C248.657 60.5409 248.68 60.5357 248.701 60.5275Z" fill="#263238"/>
<path d="M245.099 45.2519C245.155 45.2293 245.205 45.1904 245.246 45.136C246.232 43.7941 247.522 43.9581 247.535 43.9601C247.726 43.9878 247.9 43.834 247.921 43.6177C247.941 43.4014 247.801 43.2046 247.607 43.1769C247.539 43.1677 245.924 42.9606 244.699 44.6255C244.577 44.7916 244.601 45.0407 244.751 45.1812C244.852 45.2765 244.985 45.298 245.099 45.2519Z" fill="#263238"/>
<path d="M256.719 45.1266C256.733 45.1081 256.745 45.0886 256.756 45.0661C256.851 44.8785 256.792 44.6365 256.622 44.5258C254.928 43.4145 253.481 44.2018 253.419 44.2357C253.247 44.332 253.18 44.5689 253.271 44.7637C253.36 44.9584 253.572 45.0384 253.744 44.9431C253.798 44.9133 254.93 44.3197 256.278 45.2045C256.428 45.3029 256.613 45.266 256.719 45.1266Z" fill="#263238"/>
<path d="M152.184 272.793C152.221 272.811 152.259 272.826 152.297 272.839C152.618 272.944 152.936 272.854 153.241 272.569C153.471 272.355 153.498 272.11 153.48 271.943C153.365 270.883 150.965 269.57 150.692 269.424C150.627 269.389 150.554 269.402 150.501 269.454C150.449 269.507 150.428 269.59 150.45 269.665C150.741 270.679 151.344 272.391 152.184 272.793ZM150.92 269.996C151.867 270.552 153.072 271.433 153.132 271.992C153.139 272.062 153.134 272.157 153.018 272.263C152.805 272.462 152.601 272.526 152.394 272.458C151.909 272.3 151.37 271.39 150.92 269.996Z" fill="#E86B31"/>
<path d="M150.706 269.872C151.531 270.267 153.341 270.528 153.92 269.923C154.039 269.798 154.213 269.52 154.03 269.066C153.915 268.777 153.72 268.583 153.446 268.488C152.422 268.132 150.601 269.379 150.525 269.433C150.472 269.47 150.44 269.535 150.441 269.606C150.442 269.677 150.477 269.741 150.532 269.775C150.583 269.808 150.641 269.841 150.706 269.872ZM153.412 268.896C153.55 268.962 153.649 269.072 153.712 269.231C153.805 269.462 153.746 269.567 153.683 269.633C153.303 270.03 151.847 269.928 151.003 269.581C151.629 269.202 152.734 268.656 153.344 268.868C153.367 268.876 153.39 268.885 153.412 268.896Z" fill="#E86B31"/>
<path d="M217.616 286.368C218.302 286.368 218.938 286.251 219.338 285.911C219.611 285.678 219.755 285.362 219.765 284.971C219.772 284.679 219.64 284.52 219.529 284.438C218.707 283.838 215.723 285.351 215.133 285.661C215.065 285.696 215.027 285.775 215.037 285.858C215.047 285.941 215.105 286.009 215.179 286.028C215.827 286.186 216.76 286.368 217.616 286.368ZM218.987 284.679C219.14 284.679 219.26 284.705 219.338 284.762C219.375 284.79 219.413 284.833 219.411 284.948C219.403 285.224 219.307 285.437 219.117 285.599C218.607 286.034 217.381 286.091 215.784 285.767C216.861 285.244 218.275 284.679 218.987 284.679Z" fill="#E86B31"/>
<path d="M215.217 286.036C215.24 286.036 215.263 286.031 215.284 286.021C216.275 285.569 218.25 283.783 218.113 282.86C218.083 282.658 217.951 282.403 217.493 282.343C215.72 282.112 215.066 285.646 215.039 285.796C215.026 285.866 215.05 285.941 215.102 285.988C215.134 286.019 215.176 286.036 215.217 286.036ZM217.341 282.723C217.38 282.723 217.42 282.726 217.461 282.731C217.648 282.756 217.75 282.817 217.764 282.912C217.843 283.447 216.482 284.859 215.477 285.477C215.688 284.623 216.278 282.723 217.341 282.723Z" fill="#E86B31"/>
<path d="M246.258 46.719L247.709 46.3438C247.709 46.3438 246.934 47.5555 246.258 46.719Z" fill="#263238"/>
<path d="M220.171 77.9215C217.172 80.9848 214.139 84.1855 211.235 87.3851C209.784 88.9936 208.38 90.6381 207.037 92.2897C205.699 93.929 204.407 95.6349 203.424 97.2568C202.939 98.0226 202.532 98.9248 202.473 99.1667C202.456 99.2046 202.468 99.1759 202.455 99.1759C202.463 99.1401 202.447 99.0406 202.448 99.1524C202.441 99.2805 202.438 99.4087 202.449 99.5378C202.464 99.7983 202.516 100.067 202.599 100.362C202.921 101.553 204.046 103.004 205.445 104.257C208.277 106.799 212.075 108.832 215.746 110.506L214.842 114.495C213.681 114.31 212.636 114.064 211.548 113.773C210.469 113.489 209.396 113.159 208.338 112.752C206.223 111.939 204.09 111.005 202.047 109.582C201.026 108.871 200.003 108.066 199.056 107.036C198.11 106.012 197.2 104.771 196.539 103.213C196.208 102.438 195.959 101.583 195.809 100.693C195.732 100.249 195.686 99.7952 195.666 99.342C195.648 99.1626 195.657 98.773 195.676 98.447C195.705 98.16 195.738 97.8401 195.789 97.5961C195.983 96.5535 196.266 95.7887 196.55 95.0864C196.839 94.3893 197.144 93.7721 197.456 93.1836C198.714 90.8554 200.092 88.9352 201.493 87.0376C202.903 85.1594 204.374 83.393 205.858 81.6542C208.834 78.1696 211.893 74.9176 215.156 71.7344L220.171 77.9215Z" fill="#E4897B"/>
<path d="M212.812 113.72L216.514 119.083L220.239 113.44C220.239 113.44 216.746 109.957 213.687 110.026L212.812 113.72Z" fill="#E4897B"/>
<path d="M219.574 122.597L222.164 118.277L220.236 113.441L216.512 119.084L219.574 122.597Z" fill="#E4897B"/>
<path d="M220.156 64.4927C216.434 64.0273 208.695 73.7544 208.695 73.7544L215.643 87.2789C215.643 87.2789 225.935 79.2485 225.556 74.1143C225.222 69.5685 224.898 65.0863 220.156 64.4927Z" fill="#E86B31"/>
<path d="M305.791 191.886L303.559 196.145L304.363 196.657L306.596 192.398L305.791 191.886Z" fill="#E86B31"/>
<path d="M316.145 172.088L308.059 187.514L308.863 188.026L316.949 172.6L316.145 172.088Z" fill="#E86B31"/>
<path d="M342.252 73.9746L277.573 106.4H302.615L216.93 269.885H262.213L347.9 106.4H372.942L342.252 73.9746Z" fill="url(#paint1_linear_1391_358197)"/>
<path d="M262.211 269.884H216.935L186.129 211.102H231.406L262.211 269.884Z" fill="#E86B31"/>
<path opacity="0.3" d="M262.211 269.884H216.935L186.129 211.102H231.406L262.211 269.884Z" fill="black"/>
<path d="M231.407 211.1H186.123L100.438 374.585H145.721L231.407 211.1Z" fill="url(#paint2_linear_1391_358197)"/>
<defs>
<filter id="filter0_i_1391_358197" x="249.018" y="51.0664" width="2.16016" height="8.96875" filterUnits="userSpaceOnUse" color-interpolation-filters="sRGB">
<feFlood flood-opacity="0" result="BackgroundImageFix"/>
<feBlend mode="normal" in="SourceGraphic" in2="BackgroundImageFix" result="shape"/>
<feColorMatrix in="SourceAlpha" type="matrix" values="0 0 0 0 0 0 0 0 0 0 0 0 0 0 0 0 0 0 127 0" result="hardAlpha"/>
<feOffset dy="4"/>
<feGaussianBlur stdDeviation="2"/>
<feComposite in2="hardAlpha" operator="arithmetic" k2="-1" k3="1"/>
<feColorMatrix type="matrix" values="0 0 0 0 0 0 0 0 0 0 0 0 0 0 0 0 0 0 0.25 0"/>
<feBlend mode="normal" in2="shape" result="effect1_innerShadow_1391_358197"/>
</filter>
<linearGradient id="paint0_linear_1391_358197" x1="246.5" y1="67.502" x2="235.123" y2="119.751" gradientUnits="userSpaceOnUse">
<stop stop-color="#FB8D48"/>
<stop offset="0.2" stop-color="#ED7136"/>
<stop offset="0.3999" stop-color="#C54E47"/>
<stop offset="0.4" stop-color="#C14F49"/>
<stop offset="0.6" stop-color="#9D3863"/>
<stop offset="0.8" stop-color="#5E1F72"/>
</linearGradient>
<linearGradient id="paint1_linear_1391_358197" x1="219.643" y1="158.325" x2="373.493" y2="160.701" gradientUnits="userSpaceOnUse">
<stop stop-color="#FB8D48"/>
<stop offset="0.2" stop-color="#ED7136"/>
<stop offset="0.3999" stop-color="#C54E47"/>
<stop offset="0.4" stop-color="#C14F49"/>
<stop offset="0.6" stop-color="#9D3863"/>
<stop offset="0.8" stop-color="#5E1F72"/>
</linearGradient>
<linearGradient id="paint2_linear_1391_358197" x1="102.715" y1="281.489" x2="231.869" y2="283.496" gradientUnits="userSpaceOnUse">
<stop stop-color="#FB8D48"/>
<stop offset="0.2" stop-color="#ED7136"/>
<stop offset="0.3999" stop-color="#C54E47"/>
<stop offset="0.4" stop-color="#C14F49"/>
<stop offset="0.6" stop-color="#9D3863"/>
<stop offset="0.8" stop-color="#5E1F72"/>
</linearGradient>
</defs>
</svg>
