<svg width="505" height="505" viewBox="0 0 505 505" fill="none" xmlns="http://www.w3.org/2000/svg">
<path d="M505 386.223H0V386.475H505V386.223Z" fill="#EBEBEB"/>
<path d="M454.402 402.479H420.949V402.731H454.402V402.479Z" fill="#EBEBEB"/>
<path d="M334.534 405.221H325.754V405.473H334.534V405.221Z" fill="#EBEBEB"/>
<path d="M419.935 393.1H400.551V393.352H419.935V393.1Z" fill="#EBEBEB"/>
<path d="M96.6093 394.797H52.9844V395.049H96.6093V394.797Z" fill="#EBEBEB"/>
<path d="M111.998 394.797H105.602V395.049H111.998V394.797Z" fill="#EBEBEB"/>
<path d="M227.398 399.062H132.785V399.315H227.398V399.062Z" fill="#EBEBEB"/>
<path d="M239.385 341.179H44.3549C41.1765 341.179 38.5898 338.592 38.5898 335.414V61.267C38.5898 58.0886 41.1765 55.502 44.3549 55.502H239.385C242.562 55.502 245.149 58.0886 245.149 61.267V335.414C245.149 338.592 242.562 341.179 239.385 341.179ZM44.3549 55.7555C41.3148 55.7555 38.8423 58.2279 38.8423 61.268V335.415C38.8423 338.455 41.3148 340.927 44.3549 340.927H239.385C242.424 340.927 244.896 338.455 244.896 335.415V61.267C244.896 58.2279 242.424 55.7545 239.385 55.7545L44.3549 55.7555Z" fill="#EBEBEB"/>
<path d="M457.844 341.179H262.815C259.636 341.179 257.051 338.592 257.051 335.414V61.267C257.051 58.0886 259.637 55.502 262.815 55.502H457.844C461.023 55.502 463.609 58.0886 463.609 61.267V335.414C463.61 338.592 461.023 341.179 457.844 341.179ZM262.815 55.7555C259.776 55.7555 257.303 58.2279 257.303 61.268V335.415C257.303 338.455 259.776 340.927 262.815 340.927H457.844C460.884 340.927 463.356 338.455 463.356 335.415V61.267C463.356 58.2279 460.884 55.7545 457.844 55.7545L262.815 55.7555Z" fill="#EBEBEB"/>
<path d="M387.934 196.781C387.934 193.848 390.312 191.469 393.245 191.469C393.775 191.469 394.288 191.549 394.77 191.695C394.693 191.162 394.651 190.618 394.651 190.063C394.651 183.852 399.687 178.816 405.898 178.816C406.606 178.816 407.298 178.885 407.97 179.01C409.698 176.181 412.806 174.285 416.364 174.285C421.749 174.285 426.119 178.613 426.198 183.979C426.253 183.978 426.308 183.971 426.362 183.971C431.366 183.971 435.423 188.027 435.423 193.032C435.423 198.035 431.367 202.092 426.362 202.092H393.088L393.095 202.085C390.231 202.006 387.934 199.664 387.934 196.781Z" fill="#E86B31" fill-opacity="0.5"/>
<path d="M90.3477 172.792C90.3477 169.859 92.7262 167.48 95.6593 167.48C96.1895 167.48 96.7016 167.56 97.1844 167.705C97.1066 167.173 97.0652 166.629 97.0652 166.075C97.0652 159.864 102.101 154.828 108.313 154.828C109.021 154.828 109.712 154.896 110.384 155.022C112.113 152.193 115.22 150.297 118.779 150.297C124.164 150.297 128.534 154.625 128.614 159.991C128.668 159.99 128.722 159.983 128.777 159.983C133.781 159.983 137.838 164.039 137.838 169.043C137.838 174.047 133.782 178.104 128.777 178.104H95.5027L95.5098 178.096C92.6464 178.015 90.3477 175.675 90.3477 172.792Z" fill="#E86B31" fill-opacity="0.5"/>
<path d="M226.937 95.9261H207.57C207.622 95.4615 207.653 94.9918 207.653 94.5131C207.653 87.4724 201.945 81.7659 194.905 81.7659C194.748 81.7659 194.596 81.784 194.441 81.7891C192.843 77.5026 188.726 74.4434 183.882 74.4434C177.653 74.4434 172.604 79.4924 172.604 85.721C172.604 85.7301 172.605 85.7382 172.605 85.7463C167.082 86.0038 162.657 90.4105 162.371 95.9251H161.859C158.742 95.9251 156.191 98.4753 156.191 101.592C156.191 104.709 158.742 107.259 161.859 107.259H226.937C230.054 107.259 232.604 104.709 232.604 101.592C232.605 98.4763 230.055 95.9261 226.937 95.9261Z" fill="#E86B31" fill-opacity="0.5"/>
<path d="M370.383 104.018C367.357 99.1907 362.004 95.9688 355.886 95.9688C349.666 95.9688 344.238 99.2977 341.241 104.261C340.454 104.041 339.628 103.914 338.771 103.914C333.708 103.914 329.603 108.019 329.603 113.083C329.603 113.087 329.604 113.091 329.604 113.095H324.77C322.252 113.095 320.191 115.156 320.191 117.674C320.191 120.192 322.252 122.252 324.77 122.252H341.451C344.488 127.023 349.811 130.198 355.886 130.198C360.676 130.198 365.001 128.224 368.108 125.053C368.397 125.076 368.687 125.097 368.982 125.097C374.83 125.097 379.572 120.355 379.572 114.506C379.572 109.133 375.569 104.706 370.383 104.018Z" fill="#E86B31" fill-opacity="0.5"/>
<path d="M268.485 168.77C265.459 163.943 260.106 160.721 253.987 160.721C247.768 160.721 242.339 164.05 239.342 169.013C238.556 168.793 237.729 168.666 236.873 168.666C231.81 168.666 227.704 172.771 227.704 177.835C227.704 177.839 227.705 177.843 227.705 177.847H222.871C220.353 177.847 218.293 179.908 218.293 182.426C218.293 184.944 220.353 187.004 222.871 187.004H239.552C242.59 191.775 247.912 194.95 253.987 194.95C258.778 194.95 263.103 192.976 266.209 189.805C266.498 189.828 266.788 189.849 267.083 189.849C272.932 189.849 277.674 185.107 277.674 179.258C277.674 173.885 273.67 169.457 268.485 168.77Z" fill="#F0F0F0"/>
<path d="M57.0039 386.072V337.797H61.1318V314.797H67.1655V234.823H75.8879V224.504L94.5113 215.819V205.414H97.0908V234.823H100.703V314.797H104.314V272.746H114.117V251.076H116.853V314.797H124.299V290.546H129.201V284.355H140.551V263.201H146.768V248.238H154.409V226.439H157.135V248.238H164.777V263.201H170.994V284.355H182.344V290.546H187.246V314.797H193.059V284.355H204.41V218.828H208.022V211.605H232.272V218.828H237.431V266.296H258.071V270.94H265.809V274.552H258.071V293.126H279.74V231.211H284.384V218.054H294.446V171.359H297.283V218.054H304.506V231.211H346.855V226.881H349.434V256.29H353.046V256.806H355.216V286.216H358.827V294.213H366.461V272.543H369.197V324.139H372.242V302.468H374.978V336.264H376.642V312.014H381.544V305.823H392.895V284.668H399.111V269.705H406.752V247.906H409.479V269.705H417.12V284.668H423.336V305.823H434.687V312.014H439.589V335.748H440.469V336.264H442.896V386.072H57.0039Z" fill="#E6E6E6" fill-opacity="0.4"/>
<path d="M247.926 237.46L249.626 239.564L88.2969 368.068L95.1689 376.575L96.1112 377.743L257.441 249.239L259.139 251.342L262.161 237.432L247.926 237.46Z" fill="#EEA07B"/>
<path d="M64.5508 377.055C64.5508 374.122 66.9293 371.744 69.8624 371.744C70.3926 371.744 70.9047 371.823 71.3875 371.969C71.3097 371.437 71.2683 370.892 71.2683 370.339C71.2683 364.127 76.3042 359.091 82.5157 359.091C83.2237 359.091 83.9155 359.16 84.5872 359.285C86.3163 356.455 89.4231 354.561 92.9823 354.561C98.3676 354.561 102.737 358.888 102.817 364.255C102.871 364.254 102.925 364.246 102.98 364.246C107.985 364.246 112.041 368.303 112.041 373.307C112.041 378.311 107.985 382.368 102.98 382.368H69.7058L69.7129 382.36C66.8485 382.28 64.5508 379.939 64.5508 377.055Z" fill="#EEA07B"/>
<path opacity="0.8" d="M64.5508 377.055C64.5508 374.122 66.9293 371.744 69.8624 371.744C70.3926 371.744 70.9047 371.823 71.3875 371.969C71.3097 371.437 71.2683 370.892 71.2683 370.339C71.2683 364.127 76.3042 359.091 82.5157 359.091C83.2237 359.091 83.9155 359.16 84.5872 359.285C86.3163 356.455 89.4231 354.561 92.9823 354.561C98.3676 354.561 102.737 358.888 102.817 364.255C102.871 364.254 102.925 364.246 102.98 364.246C107.985 364.246 112.041 368.303 112.041 373.307C112.041 378.311 107.985 382.368 102.98 382.368H69.7058L69.7129 382.36C66.8485 382.28 64.5508 379.939 64.5508 377.055Z" fill="white"/>
<path d="M402.737 318.867L406.766 323.856L331.777 384.431L348.07 404.601L350.306 407.37L425.294 346.795L429.324 351.783L436.489 318.801L402.737 318.867Z" fill="#EEA07B"/>
<path d="M362.196 382.251C359.17 377.423 353.817 374.201 347.698 374.201C341.479 374.201 336.049 377.53 333.053 382.493C332.267 382.273 331.44 382.147 330.584 382.147C325.521 382.147 321.415 386.251 321.415 391.316C321.415 391.32 321.416 391.324 321.416 391.328H316.582C314.064 391.328 312.004 393.388 312.004 395.906C312.004 398.424 314.064 400.484 316.582 400.484H333.263C336.3 405.256 341.623 408.43 347.698 408.43C352.489 408.43 356.814 406.457 359.92 403.285C360.209 403.308 360.499 403.33 360.794 403.33C366.643 403.33 371.385 398.588 371.385 392.739C371.385 387.366 367.381 382.939 362.196 382.251Z" fill="#EEA07B"/>
<path opacity="0.8" d="M362.196 382.251C359.17 377.423 353.817 374.201 347.698 374.201C341.479 374.201 336.049 377.53 333.053 382.493C332.267 382.273 331.44 382.147 330.584 382.147C325.521 382.147 321.415 386.251 321.415 391.316C321.415 391.32 321.416 391.324 321.416 391.328H316.582C314.064 391.328 312.004 393.388 312.004 395.906C312.004 398.424 314.064 400.484 316.582 400.484H333.263C336.3 405.256 341.623 408.43 347.698 408.43C352.489 408.43 356.814 406.457 359.92 403.285C360.209 403.308 360.499 403.33 360.794 403.33C366.643 403.33 371.385 398.588 371.385 392.739C371.385 387.366 367.381 382.939 362.196 382.251Z" fill="white"/>
<path d="M249.615 177.306L248.158 175.772C247.766 175.359 247.192 175.175 246.633 175.282L244.454 175.7C243.742 175.836 243.2 176.417 243.112 177.136L241.996 186.266L245.376 187.561C249.489 185.772 249.276 180.337 249.276 180.337L249.868 179.255C250.215 178.62 250.113 177.832 249.615 177.306Z" fill="#E4897B"/>
<path d="M208.842 204.666C208.842 204.666 212.077 204.862 213.975 204.815C215.888 204.789 217.792 204.755 219.664 204.648C221.528 204.528 223.381 204.397 225.081 204.162C225.923 204.044 226.741 203.892 227.385 203.716C227.687 203.63 227.979 203.538 228.114 203.483C228.331 203.383 228.09 203.559 228.213 203.49C228.529 203.221 229.142 202.491 229.678 201.814C230.232 201.111 230.789 200.353 231.341 199.582C232.449 198.037 233.548 196.431 234.646 194.816L241.244 185.027L246.399 187.773C245.641 189.658 244.819 191.475 243.996 193.314C243.143 195.133 242.275 196.947 241.379 198.761C240.469 200.568 239.524 202.364 238.496 204.162C237.976 205.061 237.442 205.961 236.854 206.88C236.242 207.818 235.68 208.695 234.616 209.854C234.043 210.491 232.994 211.264 232.317 211.597C231.572 212.004 230.932 212.258 230.297 212.497C229.057 212.945 227.934 213.228 226.828 213.475C224.625 213.966 222.527 214.258 220.438 214.458C216.253 214.873 212.237 215.028 208.043 214.934L208.842 204.666Z" fill="url(#paint0_linear_1391_348748)"/>
<path opacity="0.1" d="M217.769 214.692C214.527 214.924 211.336 215.005 208.043 214.935L208.205 212.814L208.992 210.955C208.992 210.955 214.285 210.884 217.769 214.692Z" fill="black"/>
<path d="M154.823 385.85C154.823 385.85 145.68 379.56 146.24 375.334C146.296 374.919 146.052 374.552 145.613 374.486L137.862 373.313C137.501 373.259 137.114 373.423 136.9 373.724L132.32 380.142L134.378 380.886L135.482 380.111L136.001 381.473C147.166 385.512 152.035 387.139 154.496 387.242C155.176 386.372 154.823 385.85 154.823 385.85Z" fill="black"/>
<path d="M206.315 267.041C206.315 267.041 205.85 268.253 205.032 270.354C204.154 272.626 202.861 275.939 201.305 279.878C200.265 282.504 199.114 285.413 197.871 288.473C192.165 302.653 184.792 320.197 179.914 329.055C170.571 346.003 146.23 378.191 146.23 378.191L136.504 374.636C136.504 374.636 154.017 341.488 162.855 324.692C165.551 319.571 168.652 312.036 171.723 303.815C173.187 299.906 174.641 295.836 176.045 291.806C176.682 289.988 177.308 288.17 177.914 286.382C179.52 281.656 181.025 277.1 182.348 273.04C182.509 272.535 182.671 272.03 182.833 271.545C183.368 269.879 183.873 268.303 184.327 266.849C186.226 260.87 187.408 256.931 187.448 256.779C187.458 256.779 187.458 256.779 187.458 256.779L196.134 261.506L206.315 267.041Z" fill="#455A64"/>
<path opacity="0.3" d="M205.034 270.352C204.155 272.625 202.862 275.938 201.307 279.877C200.267 282.503 199.115 285.411 197.873 288.472C189.934 290.068 181.854 291.148 176.047 291.805C176.683 289.987 177.309 288.169 177.915 286.381C179.521 281.654 181.026 277.099 182.349 273.039C182.511 272.534 182.672 272.029 182.834 271.544C183.369 269.878 183.874 268.302 184.329 266.848C190.167 267.646 197.974 268.837 205.034 270.352Z" fill="black"/>
<path d="M175.234 210.042C175.234 210.05 175.241 210.057 175.241 210.064C176.641 214.763 177.462 220.223 177.921 225.606C178.274 229.794 178.409 233.917 178.427 237.616C178.441 241.343 178.329 244.642 178.208 247.168C178.045 250.412 177.853 252.411 177.853 252.411L208.54 253.987C217.748 220.618 208.844 204.663 208.844 204.663C208.844 204.663 205.02 204.277 200.616 204.474C200.048 204.491 199.471 204.536 198.881 204.581C195.127 204.894 189.148 206.081 185.156 206.983C184.332 207.164 183.506 207.378 182.699 207.596C178.69 208.69 175.234 210.042 175.234 210.042Z" fill="url(#paint1_linear_1391_348748)"/>
<path d="M227.518 333.845C227.518 333.845 218.751 327.039 219.554 322.853C219.633 322.442 219.412 322.062 218.977 321.97L211.307 320.354C210.949 320.278 210.554 320.421 210.323 320.709L205.383 326.852L207.394 327.714L208.541 327.005L208.981 328.394C219.897 333.069 224.663 334.972 227.115 335.217C227.839 334.386 227.518 333.845 227.518 333.845Z" fill="black"/>
<path d="M192.528 280.06C192.989 280.085 193.245 280.086 193.245 280.086L230.034 285.434L209.092 320.175L219.578 324.166C219.578 324.166 257.497 283.282 249.026 273.96C242.059 266.293 207.922 261.629 207.922 261.629L209.042 253.627L177.466 247.41C163.968 276.958 188.01 279.784 192.528 280.06Z" fill="#455A64"/>
<path d="M177.091 250.55L176.422 250.421L177.034 248.293L177.63 248.408L177.091 250.55Z" fill="#263238"/>
<path d="M201.926 255.356L188.445 252.748L188.972 250.607L202.396 253.211L201.926 255.356Z" fill="#263238"/>
<path d="M203.443 253.414L209.142 254.519L208.762 256.679L202.992 255.562L203.443 253.414Z" fill="#263238"/>
<path d="M178.669 248.609L187.938 250.407L187.391 252.543L178.152 250.756L178.669 248.609Z" fill="#263238"/>
<path d="M198.188 252.817L197.884 254.12C197.836 254.327 197.634 254.461 197.424 254.423L194.049 253.824C193.821 253.784 193.674 253.558 193.731 253.333L194.069 251.981C194.121 251.775 194.325 251.645 194.534 251.685L197.874 252.332C198.097 252.377 198.241 252.596 198.188 252.817Z" stroke="white" stroke-width="0.5891" stroke-miterlimit="10"/>
<path d="M195.39 252.925L194.359 252.744" stroke="white" stroke-width="0.5891" stroke-miterlimit="10" stroke-linecap="round" stroke-linejoin="round"/>
<path d="M188.335 193.061L196.351 199.704C195.567 202.957 196.927 205.955 198.507 206.511C198.507 206.511 199.678 209.299 197.424 209.769C192.856 210.721 187.645 206.297 187.645 206.297C190.06 203.699 189.187 197.212 188.335 193.061Z" fill="#E4897B"/>
<path opacity="0.2" d="M191.602 195.771L196.346 199.7C196.158 200.47 196.013 201.25 195.964 202.006C194.185 201.782 191.727 199.877 191.524 198.023C191.422 197.097 191.454 196.206 191.602 195.771Z" fill="black"/>
<path d="M195.411 179.933C197.35 181.142 199.978 184.788 196.719 185.664C193.459 186.54 192.077 177.856 195.411 179.933Z" fill="#263238"/>
<path d="M185.398 192.389C188.79 196.861 190.548 199.655 194.487 200.455C200.412 201.66 204.721 195.625 202.728 190.215C200.934 185.343 195.69 178.848 189.91 180.08C184.214 181.296 182.007 187.917 185.398 192.389Z" fill="#E4897B"/>
<path d="M186.402 187.521L182.328 182.768C182.328 182.768 176.947 186.727 179.39 189.124C177.778 192.914 184.18 198.204 189.775 197.118C190.423 193.699 185.439 187.86 185.439 187.86C185.747 187.767 186.071 187.649 186.402 187.521Z" fill="#472E03"/>
<path d="M186.186 197.475C187.358 198.427 188.86 198.743 190.091 198.586C191.942 198.351 192.157 196.505 191.047 195.125C190.048 193.881 187.881 192.506 186.308 193.437C184.76 194.356 184.846 196.386 186.186 197.475Z" fill="#E4897B"/>
<path d="M193.306 188.906C193.558 189.285 193.964 189.457 194.211 189.29C194.458 189.122 194.453 188.677 194.201 188.298C193.948 187.918 193.542 187.746 193.296 187.914C193.048 188.082 193.053 188.525 193.306 188.906Z" fill="#263238"/>
<path d="M197.58 186.001C197.832 186.381 198.238 186.553 198.485 186.385C198.732 186.218 198.727 185.773 198.475 185.393C198.222 185.014 197.816 184.842 197.57 185.01C197.322 185.177 197.326 185.622 197.58 186.001Z" fill="#263238"/>
<g filter="url(#filter0_i_1391_348748)">
<path d="M196.348 187.113C196.348 187.113 198.633 188.624 200.27 189C200.006 190.042 198.678 190.527 198.678 190.527L196.348 187.113Z" fill="#E4897B"/>
</g>
<path d="M195.161 193.103C194.994 193.193 194.827 193.298 194.657 193.422C194.598 193.465 194.583 193.55 194.627 193.61C194.67 193.67 194.755 193.682 194.813 193.64C196.437 192.459 198.004 193.045 198.019 193.051C198.088 193.078 198.166 193.042 198.192 192.973C198.218 192.904 198.185 192.826 198.116 192.799C198.054 192.774 196.701 192.269 195.161 193.103Z" fill="#263238"/>
<path d="M190.382 187.658C190.475 187.663 190.569 187.618 190.623 187.534C191.273 186.523 192.261 186.497 192.271 186.497C192.419 186.495 192.538 186.373 192.538 186.226C192.537 186.078 192.416 185.959 192.269 185.961C192.216 185.961 190.978 185.992 190.172 187.248C190.091 187.373 190.128 187.539 190.252 187.618C190.292 187.643 190.337 187.656 190.382 187.658Z" fill="#263238"/>
<path d="M197.632 182.552C197.647 182.504 197.649 182.45 197.634 182.397C197.593 182.253 197.445 182.17 197.304 182.209C195.877 182.604 195.508 183.782 195.485 183.832C195.441 183.973 195.52 184.125 195.661 184.17C195.802 184.215 195.951 184.138 195.996 183.998C196.009 183.948 196.305 183.045 197.45 182.728C197.54 182.703 197.606 182.634 197.632 182.552Z" fill="#263238"/>
<path d="M185.437 187.859C185.437 187.859 196.101 183.379 196.754 178.264C197.407 173.15 192.902 175.245 192.902 175.245C192.902 175.245 194.987 175.103 194.783 176.622C194.783 176.622 191.182 174.165 187.75 176.277C187.75 176.277 189.354 176.245 190.198 177.435C190.198 177.435 186.939 178.071 183.282 180.782C179.625 183.493 173.057 193.198 185.437 187.859Z" fill="#472E03"/>
<path opacity="0.3" d="M207.92 261.629L190.539 259.633C190.539 259.633 197.42 258.503 208.302 258.902L207.92 261.629Z" fill="black"/>
<path opacity="0.1" d="M178.086 227.732C178.025 227.025 177.975 226.318 177.914 225.611C177.874 225.055 177.823 224.489 177.773 223.934C177.621 222.52 177.46 221.106 177.258 219.712C177.207 219.328 177.147 218.945 177.086 218.571C177.551 218.197 178.066 217.854 178.611 217.551C178.611 217.551 179.601 222.651 178.086 227.732Z" fill="black"/>
<path d="M149.121 252.545L146.102 259.633L152.641 261.25C152.641 261.25 155.449 256.592 152.708 253.04L149.121 252.545Z" fill="#E4897B"/>
<path d="M146.572 265.097L151.735 265.135L152.641 261.25L146.102 259.633L146.572 265.097Z" fill="#E4897B"/>
<path d="M178.53 214.948C178.98 219.393 177.463 221.2 177.463 221.2C177.463 221.2 173.158 223.904 171.29 225.29C169.703 226.487 168.146 227.702 166.671 228.919C165.942 229.531 165.238 230.15 164.592 230.763C163.954 231.369 163.356 232.001 162.978 232.489C162.81 232.684 162.64 233.001 162.459 233.284C162.275 233.581 162.083 234.026 161.884 234.385C161.489 235.2 161.098 236.062 160.726 236.967C159.979 238.771 159.273 240.652 158.602 242.561C157.203 246.358 155.9 250.272 154.559 254.122L148.594 252.704C149.201 248.513 150.02 244.429 150.965 240.292C151.464 238.234 152.017 236.174 152.651 234.078C152.966 233.033 153.325 231.967 153.729 230.874C153.97 230.3 154.164 229.782 154.466 229.167C154.784 228.543 155.077 227.933 155.515 227.288C156.323 226.08 157.116 225.169 157.914 224.29C158.712 223.422 159.513 222.621 160.32 221.848C161.926 220.306 163.574 218.901 165.244 217.548C168.587 214.831 171.944 212.348 175.541 209.949C175.541 209.949 178.123 210.925 178.53 214.948Z" fill="url(#paint2_linear_1391_348748)"/>
<path d="M192.089 208.989L194.335 212.517C194.335 212.517 186.505 222.007 171.519 225.138L170.52 228.188L173.706 229.023C173.706 229.023 189.891 224.834 196.349 212.694L199.685 208.978L195.753 207.658L192.089 208.989Z" fill="#EEA07B"/>
<path d="M184.832 206.864L188.481 203.672L195.752 207.659L196.592 203.299L200.431 205.508L201.53 211.147L196.173 208.829L191.379 213.104L184.832 206.864Z" fill="url(#paint3_linear_1391_348748)"/>
<path d="M285.01 143.693C285.01 143.693 278.218 152.118 271.326 151.418C264.434 150.719 260.911 153.516 260.911 153.516L260.238 156.878L263.934 156.379C263.934 156.379 263.934 153.715 271.126 154.015C278.318 154.315 283.712 148.131 285.809 145.329L285.01 143.693Z" fill="#EEA07B"/>
<path d="M333.798 129.692L333.654 129.03C333.582 128.767 333.621 128.733 333.372 128.078C332.978 127.054 332.313 126.211 331.726 125.682C330.51 124.596 329.509 124.212 328.637 123.867C326.908 123.255 325.532 123.063 324.169 122.896C322.82 122.742 321.541 122.676 320.282 122.642C317.768 122.57 315.345 122.695 312.943 122.845C308.126 123.164 303.494 123.732 298.73 124.555L300.464 134.506C304.819 133.812 309.36 133.177 313.754 132.721C315.958 132.497 318.155 132.36 320.263 132.292C321.313 132.265 322.347 132.269 323.3 132.327C323.969 132.367 324.632 132.442 325.129 132.528C325.16 132.871 325.173 133.245 325.161 133.643C325.098 135.36 324.667 137.37 324.08 139.373C322.895 143.396 321.035 147.574 319.11 151.478L323.903 154.675C326.965 150.802 329.485 146.779 331.572 142.152C332.569 139.818 333.45 137.356 333.85 134.466C334.043 133.018 334.112 131.439 333.798 129.692Z" fill="url(#paint4_linear_1391_348748)"/>
<path opacity="0.1" d="M320.031 132.297C317.991 132.367 315.88 132.509 313.749 132.721C309.486 133.165 305.103 133.771 300.871 134.448C302.416 130.651 304.002 126.812 304.002 126.812C304.002 126.812 311.072 127.489 320.031 132.297Z" fill="black"/>
<path opacity="0.1" d="M332.082 140.923C331.92 141.337 331.748 141.751 331.577 142.155C329.486 146.781 326.961 150.8 323.901 154.669L319.113 151.477C321.032 147.568 322.891 143.397 324.082 139.367C324.486 137.983 324.82 136.59 325.002 135.297C327.335 136.862 329.718 138.721 332.082 140.923Z" fill="black"/>
<path d="M267.535 131.692C267.81 132.041 267.849 132.471 267.62 132.65C267.392 132.831 266.983 132.694 266.707 132.344C266.432 131.995 266.393 131.566 266.622 131.386C266.85 131.206 267.259 131.342 267.535 131.692Z" fill="#263238"/>
<path d="M267.883 132.445C267.883 132.445 268.68 135.087 268.574 136.75C269.647 136.839 270.489 135.745 270.489 135.745L267.883 132.445Z" fill="#DE5753"/>
<path d="M267.281 128.743C267.321 128.695 267.346 128.631 267.342 128.562C267.336 128.418 267.214 128.307 267.07 128.313C265.626 128.376 265.001 129.408 264.974 129.453C264.9 129.577 264.942 129.738 265.066 129.811C265.19 129.883 265.351 129.841 265.424 129.72C265.444 129.685 265.941 128.886 267.093 128.835C267.169 128.832 267.235 128.797 267.281 128.743Z" fill="#263238"/>
<path d="M277.594 126.289C280.931 128.694 287.321 132.5 290.947 131.057C290.947 131.057 294.206 133.77 291.075 140.585C287.632 148.078 285.71 142.456 285.71 142.456C286.613 137.918 283.531 136.628 280.353 136.032L277.594 126.289Z" fill="#E4897B"/>
<path d="M278.594 121.753C281.719 126.25 283.776 128.723 283.348 132.635C282.706 138.52 275.861 140.737 271.456 137.265C267.49 134.139 263.047 127.31 265.897 122.288C268.704 117.34 275.469 117.256 278.594 121.753Z" fill="#E4897B"/>
<path d="M283.616 129.174C283.148 131.722 274.571 135.209 270.678 129.714C270.678 129.714 265.794 129.675 262.856 126.731C259.918 123.786 260.548 120.593 263.181 118.856C265.502 117.325 271.501 106.045 278.489 114.095C286.074 113.785 284.201 125.993 283.616 129.174Z" fill="#472E03"/>
<path d="M269.125 117.641C269.125 117.641 264.62 117.423 262.024 119.488C259.427 121.552 260.159 127.885 261.158 129.081C262.157 130.275 263.223 130.275 263.223 130.275C263.223 130.275 261.691 129.482 261.691 128.313C261.691 128.313 262.357 129.876 265.42 130.275C265.42 130.275 264.547 129.578 264.684 128.695C264.684 128.695 266.344 130.843 270.178 128.695C274.009 126.547 269.125 117.641 269.125 117.641Z" fill="#472E03"/>
<path d="M272.956 128.768C273.784 129.939 274.107 131.406 274.032 132.593C273.921 134.379 272.426 134.52 271.251 133.393C270.193 132.379 268.976 130.228 269.667 128.738C270.35 127.271 272.009 127.428 272.956 128.768Z" fill="#E4897B"/>
<path d="M281.925 143.696C281.925 143.696 281.085 133.527 287.725 127.816L295.631 128.541C295.631 128.541 291.075 139.66 281.925 143.696Z" fill="url(#paint5_linear_1391_348748)"/>
<path d="M304.714 166.566C304.714 166.566 292.757 154.826 279.539 146.608C279.539 146.608 288.345 125.937 299.493 124.092C299.493 124.092 328.312 132.795 336.674 156.38L304.714 166.566Z" fill="url(#paint6_linear_1391_348748)"/>
<path d="M306.236 238.181L301.075 240.37L295.492 228.641L300.651 226.451L306.236 238.181Z" fill="#E4897B"/>
<path d="M336.677 156.379L333.633 188.665C331.96 189.903 329.295 190.865 326.078 191.616C319.778 193.082 311.373 193.748 304.114 194.137C295.962 194.581 289.266 194.666 288.661 195.135C287.243 196.238 305.194 233.313 305.194 233.313L296.626 234.38C296.626 234.38 274.109 203.498 271.194 192.769C270.121 188.809 269.039 183.849 276.311 179.214C282.712 175.134 306.55 172.071 306.55 172.071L304.716 166.564L336.677 156.379Z" fill="#455A64"/>
<path opacity="0.2" d="M326.08 191.616C319.781 193.083 311.376 193.748 304.117 194.137C303.134 182.223 309.129 170.791 309.129 170.791L317.655 168.604L326.08 191.616Z" fill="black"/>
<path d="M381.367 233.426L382.28 238.956L369.564 241.62L368.652 236.09L381.367 233.426Z" fill="#E4897B"/>
<path d="M382.55 239.16C382.512 239.119 382.454 239.106 382.402 239.127C382.351 239.148 382.318 239.199 382.32 239.254C382.323 239.35 382.4 241.604 383.105 242.264C383.25 242.4 383.413 242.465 383.59 242.459C383.906 242.449 384.036 242.294 384.09 242.164C384.242 241.797 383.963 241.153 383.586 240.54C383.233 239.971 382.798 239.426 382.55 239.16ZM382.608 239.629C383.28 240.439 384.016 241.65 383.844 242.062C383.822 242.116 383.771 242.188 383.581 242.195C383.476 242.198 383.379 242.157 383.286 242.07C383.228 242.016 383.175 241.947 383.125 241.867C382.782 241.31 382.654 240.212 382.608 239.629Z" fill="#EEA07B"/>
<path d="M382.508 239.128C382.464 239.109 382.414 239.115 382.376 239.144C382.325 239.183 381.119 240.103 380.995 241.017C380.957 241.296 381.021 241.546 381.187 241.764C381.41 242.055 381.622 242.047 381.762 241.99C382.355 241.744 382.685 239.968 382.589 239.233C382.585 239.213 382.579 239.196 382.57 239.18C382.555 239.158 382.534 239.139 382.508 239.128ZM381.257 241.054C381.339 240.454 382.004 239.809 382.341 239.517C382.35 240.322 382.016 241.597 381.66 241.744C381.631 241.757 381.543 241.793 381.398 241.602C381.382 241.581 381.366 241.559 381.352 241.536C381.264 241.393 381.233 241.234 381.257 241.054Z" fill="#EEA07B"/>
<path d="M381.591 239.082L378.381 233.87C378.261 233.675 378.292 233.423 378.457 233.263L382.118 229.708C382.498 229.339 383.12 229.417 383.39 229.872C384.516 231.772 386.079 234.556 387.534 236.918C389.236 239.682 390.856 241.975 392.852 245.215C394.059 247.174 392.412 248.937 391.728 248.227C388.613 244.997 386.647 242.003 382.672 240.002C382.239 239.785 381.846 239.494 381.591 239.082Z" fill="black"/>
<path d="M336.678 156.379C336.678 156.379 346.944 182.772 329.623 193.014C329.623 193.014 329.403 223.511 333.781 227.085C339.109 231.434 378.129 233.647 378.129 233.647L377.79 243.337C377.79 243.337 336.016 246.756 323.369 242.219C308.559 236.905 305.262 167.023 305.262 167.023L336.678 156.379Z" fill="#455A64"/>
<path opacity="0.2" d="M324.809 172.582L331.044 170.695C331.044 170.695 331.902 176.06 331.89 178.932L328.998 181.415L326.262 180.544C326.262 180.544 325.515 174.809 324.809 172.582Z" fill="black"/>
<path d="M306.772 166.586L307.579 169.151L305.273 169.866L304.461 167.323L306.772 166.586Z" fill="#263238"/>
<path d="M317.415 163.172L318.284 165.833L308.734 168.794L307.891 166.224L317.415 163.172Z" fill="#263238"/>
<path d="M329.3 159.365L330.167 162.15L319.492 165.457L318.645 162.78L329.3 159.365Z" fill="#263238"/>
<path d="M337.982 159.721L331.408 161.759L331.401 161.76L330.52 158.971L337.045 156.879L337.982 159.721Z" fill="#263238"/>
<path d="M299.494 238.731C299.548 238.719 299.589 238.674 299.596 238.62C299.604 238.565 299.577 238.512 299.529 238.484C299.445 238.439 297.46 237.369 296.533 237.645C296.343 237.702 296.204 237.81 296.12 237.965C295.969 238.243 296.038 238.435 296.123 238.546C296.363 238.863 297.06 238.946 297.779 238.929C298.45 238.914 299.139 238.811 299.494 238.731ZM299.059 238.545C298.021 238.717 296.605 238.742 296.335 238.386C296.3 238.34 296.264 238.259 296.354 238.092C296.405 237.999 296.488 237.937 296.61 237.901C296.687 237.878 296.772 237.866 296.865 237.864C297.52 237.848 298.533 238.29 299.059 238.545Z" fill="#EEA07B"/>
<path d="M299.546 238.708C299.583 238.68 299.604 238.634 299.598 238.587C299.59 238.524 299.403 237.018 298.676 236.449C298.454 236.275 298.207 236.205 297.935 236.239C297.572 236.284 297.471 236.472 297.449 236.622C297.361 237.258 298.73 238.438 299.414 238.726C299.431 238.733 299.45 238.737 299.468 238.736C299.496 238.735 299.523 238.726 299.546 238.708ZM298.513 236.658C298.991 237.031 299.211 237.93 299.294 238.368C298.594 237.97 297.661 237.039 297.714 236.657C297.718 236.626 297.731 236.532 297.97 236.502C297.996 236.498 298.023 236.496 298.049 236.495C298.216 236.492 298.369 236.545 298.513 236.658Z" fill="#EEA07B"/>
<path d="M300.044 237.939L306.163 237.795C306.392 237.79 306.594 237.944 306.649 238.167L307.874 243.121C308.001 243.634 307.621 244.133 307.091 244.137C304.883 244.152 301.691 244.097 298.916 244.163C295.672 244.24 292.875 244.483 289.071 244.573C286.771 244.628 286.077 242.317 287.035 242.084C291.396 241.021 294.972 240.833 298.704 238.408C299.111 238.145 299.562 237.951 300.044 237.939Z" fill="black"/>
<path opacity="0.1" d="M291.277 154.911C289.793 153.75 288.237 152.568 286.621 151.397L287.247 149.508C287.247 149.508 289.934 151.77 291.277 154.911Z" fill="black"/>
<path d="M245.103 176L242.901 176.525C242.351 176.657 241.934 177.105 241.844 177.663L241.346 180.73C241.241 181.377 241.6 182.011 242.209 182.254L243.819 182.896C243.819 182.896 248.467 186.25 252.397 184.084L250.699 179.589L247.376 176.582C246.761 176.025 245.91 175.808 245.103 176Z" fill="#E4897B"/>
<path d="M285.211 147.423C288.035 149.118 288.282 152.613 288.282 152.613C288.282 152.613 286.063 158.633 284.775 161.629C283.9 163.662 282.992 165.702 281.936 167.731C280.844 169.777 279.794 171.783 278.012 173.999L277.664 174.418L277.25 174.864C277.001 175.145 276.631 175.479 276.272 175.789C276.119 175.932 275.839 176.128 275.604 176.293C275.375 176.451 275.056 176.663 274.963 176.698L274.108 177.141C272.996 177.702 271.955 178.139 270.91 178.569C268.834 179.42 266.78 180.159 264.719 180.867C260.586 182.25 256.475 183.513 252.254 184.577L250.25 179.175C254.036 177.235 257.896 175.398 261.663 173.504C263.55 172.569 265.428 171.628 267.232 170.678C268.121 170.199 269.007 169.708 269.771 169.243L270.315 168.9C270.461 168.816 270.349 168.855 270.339 168.861C270.317 168.864 270.269 168.923 270.303 168.873C270.334 168.819 270.367 168.802 270.459 168.669L270.58 168.518L270.726 168.305C271.543 167.117 272.469 165.3 273.268 163.518C274.069 161.695 274.87 159.815 275.607 157.887C277.074 154.047 278.483 150.042 279.795 146.163C279.793 146.164 282.214 145.625 285.211 147.423Z" fill="url(#paint7_linear_1391_348748)"/>
<path d="M100.496 415.428H271.068L361.339 342.509L365.297 347.41H387.531L410.181 243.146L387.938 243.191L387.948 243.146L281.252 243.359L293.99 259.127L100.496 415.428Z" fill="#984017"/>
<path d="M100.496 415.428H248.835L352.56 331.642L365.297 347.41L387.948 243.146L281.252 243.359L293.99 259.127L100.496 415.428Z" fill="url(#paint8_linear_1391_348748)"/>
<path d="M97.025 409.411H219.497C219.439 408.892 219.405 408.366 219.405 407.833C219.405 399.969 225.78 393.595 233.643 393.595C233.817 393.595 233.987 393.615 234.161 393.621C235.945 388.833 240.545 385.416 245.954 385.416C252.911 385.416 258.551 391.056 258.551 398.013C258.551 398.023 258.55 398.032 258.55 398.041C264.718 398.329 269.66 403.251 269.981 409.411H270.554C274.036 409.411 276.885 412.259 276.885 415.741C276.885 419.223 274.037 422.071 270.554 422.071H97.025C93.5435 422.071 90.6953 419.223 90.6953 415.741C90.6953 412.259 93.5435 409.411 97.025 409.411Z" fill="#EEA07B"/>
<defs>
<filter id="filter0_i_1391_348748" x="196.348" y="187.113" width="3.92188" height="7.41406" filterUnits="userSpaceOnUse" color-interpolation-filters="sRGB">
<feFlood flood-opacity="0" result="BackgroundImageFix"/>
<feBlend mode="normal" in="SourceGraphic" in2="BackgroundImageFix" result="shape"/>
<feColorMatrix in="SourceAlpha" type="matrix" values="0 0 0 0 0 0 0 0 0 0 0 0 0 0 0 0 0 0 127 0" result="hardAlpha"/>
<feOffset dy="4"/>
<feGaussianBlur stdDeviation="2"/>
<feComposite in2="hardAlpha" operator="arithmetic" k2="-1" k3="1"/>
<feColorMatrix type="matrix" values="0 0 0 0 0 0 0 0 0 0 0 0 0 0 0 0 0 0 0.25 0"/>
<feBlend mode="normal" in2="shape" result="effect1_innerShadow_1391_348748"/>
</filter>
<linearGradient id="paint0_linear_1391_348748" x1="208.71" y1="197.915" x2="246.52" y2="198.855" gradientUnits="userSpaceOnUse">
<stop offset="0.2" stop-color="#5E1F72"/>
<stop offset="0.4" stop-color="#9D3863"/>
<stop offset="0.6" stop-color="#C14F49"/>
<stop offset="0.6001" stop-color="#C54E47"/>
<stop offset="0.8" stop-color="#ED7136"/>
<stop offset="1" stop-color="#FB8D48"/>
</linearGradient>
<linearGradient id="paint1_linear_1391_348748" x1="187.611" y1="253.335" x2="188.321" y2="204.895" gradientUnits="userSpaceOnUse">
<stop stop-color="#FB8D48"/>
<stop offset="0.2" stop-color="#ED7136"/>
<stop offset="0.3999" stop-color="#C54E47"/>
<stop offset="0.4" stop-color="#C14F49"/>
<stop offset="0.6" stop-color="#9D3863"/>
<stop offset="0.8" stop-color="#5E1F72"/>
</linearGradient>
<linearGradient id="paint2_linear_1391_348748" x1="149.116" y1="228.968" x2="178.721" y2="229.358" gradientUnits="userSpaceOnUse">
<stop stop-color="#FB8D48"/>
<stop offset="0.2" stop-color="#ED7136"/>
<stop offset="0.3999" stop-color="#C54E47"/>
<stop offset="0.4" stop-color="#C14F49"/>
<stop offset="0.6" stop-color="#9D3863"/>
<stop offset="0.8" stop-color="#5E1F72"/>
</linearGradient>
<linearGradient id="paint3_linear_1391_348748" x1="193.181" y1="203.299" x2="193.181" y2="213.104" gradientUnits="userSpaceOnUse">
<stop stop-color="#EEA07B"/>
<stop offset="1" stop-color="#9C5A76"/>
</linearGradient>
<linearGradient id="paint4_linear_1391_348748" x1="299.344" y1="136.422" x2="334.131" y2="137.164" gradientUnits="userSpaceOnUse">
<stop offset="0.2" stop-color="#5E1F72"/>
<stop offset="0.4" stop-color="#9D3863"/>
<stop offset="0.6" stop-color="#C14F49"/>
<stop offset="0.6001" stop-color="#C54E47"/>
<stop offset="0.8" stop-color="#ED7136"/>
<stop offset="1" stop-color="#FB8D48"/>
</linearGradient>
<linearGradient id="paint5_linear_1391_348748" x1="288.761" y1="127.816" x2="288.761" y2="143.696" gradientUnits="userSpaceOnUse">
<stop stop-color="#EEA07B"/>
<stop offset="1" stop-color="#9C5A76"/>
</linearGradient>
<linearGradient id="paint6_linear_1391_348748" x1="280.533" y1="142.379" x2="336.851" y2="143.849" gradientUnits="userSpaceOnUse">
<stop offset="0.2" stop-color="#5E1F72"/>
<stop offset="0.4" stop-color="#9D3863"/>
<stop offset="0.6" stop-color="#C14F49"/>
<stop offset="0.6001" stop-color="#C54E47"/>
<stop offset="0.8" stop-color="#ED7136"/>
<stop offset="1" stop-color="#FB8D48"/>
</linearGradient>
<linearGradient id="paint7_linear_1391_348748" x1="250.911" y1="162.66" x2="288.411" y2="163.378" gradientUnits="userSpaceOnUse">
<stop stop-color="#FB8D48"/>
<stop offset="0.2" stop-color="#ED7136"/>
<stop offset="0.3999" stop-color="#C54E47"/>
<stop offset="0.4" stop-color="#C14F49"/>
<stop offset="0.6" stop-color="#9D3863"/>
<stop offset="0.8" stop-color="#5E1F72"/>
</linearGradient>
<linearGradient id="paint8_linear_1391_348748" x1="105.495" y1="317.323" x2="388.736" y2="326.488" gradientUnits="userSpaceOnUse">
<stop stop-color="#FB8D48"/>
<stop offset="0.2" stop-color="#ED7136"/>
<stop offset="0.3999" stop-color="#C54E47"/>
<stop offset="0.4" stop-color="#C14F49"/>
<stop offset="0.6" stop-color="#9D3863"/>
<stop offset="0.8" stop-color="#5E1F72"/>
</linearGradient>
</defs>
</svg>
