<svg width="315" height="327" viewBox="0 0 315 327" fill="none" xmlns="http://www.w3.org/2000/svg">
<path d="M254.376 -0.00195312H61.1719V178.091H254.376V-0.00195312Z" fill="#E86B31"/>
<path opacity="0.8" d="M251.785 20.2324H63.7578V171.721H251.785V20.2324Z" fill="#E7F3FF"/>
<path d="M71.0154 9.70691C71.0154 11.2613 70.1194 12.5212 69.0133 12.5212C67.9083 12.5212 67.0117 11.2613 67.0117 9.70691C67.0117 8.15251 67.9078 6.89258 69.0133 6.89258C70.1188 6.89258 71.0154 8.15251 71.0154 9.70691Z" fill="#CDF3FF"/>
<path d="M78.3201 9.70691C78.3201 11.2613 77.4241 12.5212 76.3186 12.5212C75.213 12.5212 74.3164 11.2613 74.3164 9.70691C74.3164 8.15251 75.2125 6.89258 76.3186 6.89258C77.4241 6.89258 78.3201 8.15251 78.3201 9.70691Z" fill="#CDF3FF"/>
<path d="M85.6209 9.70691C85.6209 11.2613 84.7248 12.5212 83.6188 12.5212C82.5138 12.5212 81.6172 11.2613 81.6172 9.70691C81.6172 8.15251 82.5133 6.89258 83.6188 6.89258C84.7248 6.89258 85.6209 8.15251 85.6209 9.70691Z" fill="#CDF3FF"/>
<path d="M153.52 41.1484H104.695V46.3022H153.52V41.1484Z" fill="#FFBE55"/>
<path d="M123.142 70.9648H74.3164V76.1178H123.142V70.9648Z" fill="#FFBE55"/>
<path d="M153.517 52.7461H74.3164V55.323H153.517V52.7461Z" fill="#FFBE55"/>
<path d="M153.517 56.6074H74.3164V61.7612H153.517V56.6074Z" fill="#FFBE55"/>
<path d="M135.977 70.9648H126.551V76.1178H135.977V70.9648Z" fill="#FFBE55"/>
<path d="M85.6182 136.113H80.1406V161.65H85.6182V136.113Z" fill="#FFBE55"/>
<path d="M98.0161 87.4258H92.5391V161.648H98.0161V87.4258Z" fill="#FFBE55"/>
<path d="M110.411 119.883H104.934V161.649H110.411V119.883Z" fill="#FFBE55"/>
<path d="M122.805 139.359H117.328V161.65H122.805V139.359Z" fill="#FFBE55"/>
<path d="M135.207 103.652H129.73V161.647H135.207V103.652Z" fill="#FFBE55"/>
<path d="M147.599 119.883H142.121V161.649H147.599V119.883Z" fill="#FFBE55"/>
<path d="M159.997 136.113H154.52V161.65H159.997V136.113Z" fill="#FFBE55"/>
<path d="M203.786 57.832C187.497 57.832 174.293 76.3982 174.293 99.3003C174.293 122.202 187.497 140.769 203.786 140.769C220.074 140.769 233.279 122.202 233.279 99.3003C233.279 76.3982 220.074 57.832 203.786 57.832ZM203.786 120.693C195.382 120.693 188.572 111.115 188.572 99.3011C188.572 87.4868 195.382 77.9089 203.786 77.9089C212.188 77.9089 219.001 87.4868 219.001 99.3011C219.001 111.115 212.188 120.693 203.786 120.693Z" fill="white"/>
<path d="M217.988 91.695C218.628 94.0625 218.995 96.6191 218.995 99.303C218.995 108.897 214.504 117.015 208.316 119.728L214.933 137.694C225.691 131.51 233.274 116.655 233.274 99.303C233.274 92.758 232.192 86.5709 230.271 81.0664L217.988 91.695Z" fill="#FFBE55"/>
<path d="M203.789 77.9081C209.612 77.9081 214.666 82.5127 217.224 89.2693L229.395 78.7369C224.312 66.2508 214.753 57.832 203.789 57.832C191.53 57.832 181.022 68.3473 176.57 83.311L189.659 91.4002C191.895 83.4993 197.372 77.9081 203.789 77.9081Z" fill="#FFBE55"/>
<path d="M203.786 120.692C195.382 120.692 188.572 111.114 188.572 99.2999C188.572 97.437 188.757 95.6396 189.076 93.9173L175.905 85.7773C174.865 90.0164 174.293 94.5625 174.293 99.2991C174.293 122.202 187.497 140.767 203.786 140.767C207.067 140.767 210.219 140.003 213.169 138.612L206.441 120.345C205.577 120.56 204.693 120.692 203.786 120.692Z" fill="#E86B31"/>
<path d="M178.774 292.379L177.898 308.352L173 314.91L185.442 313.572L186.196 290.287L178.774 292.379Z" fill="#E4897B"/>
<path d="M179.9 183.606C179.9 183.606 178.45 221.84 178.376 247.967C178.303 274.093 176.84 306.823 176.84 306.823C176.84 306.823 180.137 309.635 186.006 305.092C186.006 305.092 191.254 264.817 191.706 244.329C192.158 223.841 196.728 203.183 198.533 177.305L179.9 183.606Z" fill="#455A64"/>
<path d="M174.459 311.113C174.459 311.113 175.202 306.456 176.314 307.439C177.425 308.42 177.408 311.839 177.408 311.839C177.408 311.839 181.469 313.473 186.197 311.769C186.197 311.769 185.843 317.407 185.27 318.619C184.696 319.835 165.328 321.094 164.427 320.837C163.528 320.582 164.213 318.367 174.459 311.113Z" fill="#160E3F"/>
<path d="M185.624 318.487C185.572 318.216 185.373 318.049 185.176 318.12C181.705 319.4 174.836 319.935 169.926 320.142C169.82 317.542 168.46 315.252 168.46 315.252C163.981 318.062 163.928 320.584 163.928 320.584C163.876 320.787 163.92 321.003 164.026 321.141C164.061 321.184 164.102 321.22 164.149 321.245C164.541 321.443 179.809 321.167 185.363 319.116C185.558 319.047 185.675 318.763 185.624 318.487Z" fill="#E7F3FF"/>
<path d="M169.867 314.587C170.494 314.744 171.204 315.813 171.284 316.701C171.342 317.356 172.075 317.314 172.016 316.651C171.895 315.313 170.988 313.819 170.021 313.58C169.557 313.463 169.401 314.471 169.867 314.587Z" fill="#E7F3FF"/>
<path d="M171.451 313.202C172.158 313.752 172.716 314.681 172.924 315.79C173.045 316.433 173.746 316.121 173.624 315.481C173.365 314.113 172.656 312.962 171.783 312.282C171.371 311.961 171.038 312.88 171.451 313.202Z" fill="#E7F3FF"/>
<path d="M173.2 311.964C173.937 312.441 174.666 313.131 174.819 314.328C174.902 314.981 175.6 314.662 175.519 314.019C175.334 312.57 174.43 311.626 173.533 311.044C173.105 310.767 172.77 311.684 173.2 311.964Z" fill="#E7F3FF"/>
<path d="M190.166 289.477L192.417 310.08L187.09 316.625L200.277 316.103L199.869 291.324L190.166 289.477Z" fill="#E4897B"/>
<path d="M189.1 311.843C189.1 311.843 189.843 307.186 190.955 308.17C192.066 309.149 192.049 312.568 192.049 312.568C192.049 312.568 196.109 314.202 200.838 312.498C200.838 312.498 200.484 318.137 199.911 319.348C199.337 320.564 179.969 321.823 179.068 321.567C178.168 321.313 178.853 319.097 189.1 311.843Z" fill="#1C145F"/>
<path d="M200.265 319.217C200.212 318.945 200.014 318.78 199.817 318.849C196.346 320.131 189.477 320.666 184.567 320.871C184.46 318.271 183.1 315.982 183.1 315.982C178.622 318.791 178.568 321.314 178.568 321.314C178.517 321.517 178.561 321.732 178.667 321.87C178.703 321.913 178.743 321.95 178.789 321.974C179.182 322.172 194.45 321.895 200.003 319.845C200.199 319.775 200.315 319.491 200.265 319.217Z" fill="#E7F3FF"/>
<path d="M184.508 315.317C185.134 315.474 185.844 316.545 185.924 317.431C185.982 318.088 186.714 318.045 186.656 317.381C186.535 316.043 185.628 314.55 184.661 314.31C184.198 314.194 184.042 315.201 184.508 315.317Z" fill="#E7F3FF"/>
<path d="M186.092 313.934C186.799 314.485 187.357 315.416 187.565 316.522C187.685 317.166 188.386 316.853 188.265 316.213C188.005 314.845 187.296 313.694 186.424 313.014C186.012 312.694 185.678 313.612 186.092 313.934Z" fill="#E7F3FF"/>
<path d="M187.841 312.694C188.578 313.172 189.306 313.861 189.459 315.059C189.543 315.712 190.24 315.395 190.159 314.75C189.974 313.3 189.07 312.356 188.173 311.773C187.745 311.499 187.41 312.416 187.841 312.694Z" fill="#E7F3FF"/>
<path d="M186.614 180.448C186.614 180.448 183.654 218.492 184.326 244.988C184.987 271.094 190.014 306.916 190.014 306.916C190.014 306.916 194.704 311.237 200.782 307.362C200.782 307.362 198.777 263.064 200.254 242.685C201.102 230.984 212.721 204.104 209.336 176.566L186.614 180.448Z" fill="#455A64"/>
<path d="M203.234 182.496C203.214 182.496 203.192 182.492 203.171 182.485C203.03 182.435 202.946 182.236 202.98 182.038L203.299 180.255C203.334 180.058 203.473 179.937 203.617 179.988C203.758 180.038 203.842 180.238 203.806 180.436L203.489 182.217C203.458 182.384 203.352 182.496 203.234 182.496Z" fill="#160E3F"/>
<path d="M195.341 299.71C195.21 299.71 195.097 299.571 195.081 299.384C194.995 298.305 194.9 297.104 194.801 295.801C194.785 295.598 194.889 295.419 195.033 295.397C195.174 295.379 195.306 295.52 195.321 295.723C195.421 297.023 195.515 298.222 195.602 299.299C195.619 299.502 195.515 299.685 195.372 299.708C195.361 299.71 195.352 299.71 195.341 299.71ZM194.742 291.832C194.61 291.832 194.496 291.69 194.483 291.501C194.401 290.35 194.317 289.153 194.234 287.915C194.221 287.712 194.326 287.534 194.471 287.514C194.613 287.501 194.742 287.644 194.756 287.847C194.839 289.082 194.922 290.278 195.004 291.427C195.018 291.629 194.913 291.81 194.769 291.83C194.76 291.832 194.751 291.832 194.742 291.832ZM194.217 283.947C194.084 283.947 193.969 283.801 193.957 283.611C193.885 282.434 193.814 281.235 193.745 280.019C193.733 279.816 193.841 279.64 193.985 279.624C194.129 279.61 194.255 279.758 194.267 279.961C194.336 281.174 194.407 282.372 194.479 283.547C194.491 283.75 194.385 283.928 194.241 283.945C194.233 283.947 194.225 283.947 194.217 283.947ZM193.775 276.051C193.639 276.051 193.524 275.902 193.514 275.707C193.455 274.515 193.398 273.314 193.345 272.113C193.336 271.908 193.446 271.735 193.59 271.722C193.745 271.704 193.859 271.864 193.868 272.067C193.921 273.266 193.976 274.465 194.036 275.655C194.046 275.858 193.938 276.035 193.793 276.049C193.788 276.051 193.781 276.051 193.775 276.051ZM193.436 268.142C193.298 268.142 193.182 267.99 193.175 267.792C193.133 266.585 193.095 265.383 193.064 264.192C193.059 263.988 193.172 263.817 193.316 263.81C193.482 263.809 193.583 263.963 193.588 264.166C193.619 265.353 193.656 266.552 193.698 267.757C193.705 267.96 193.593 268.132 193.449 268.142C193.444 268.142 193.44 268.142 193.436 268.142ZM193.238 260.227C193.096 260.227 192.979 260.067 192.976 259.866C192.959 258.643 192.95 257.437 192.949 256.259C192.949 256.056 193.066 255.892 193.211 255.892C193.356 255.892 193.473 256.056 193.473 256.259C193.474 257.433 193.483 258.632 193.5 259.853C193.503 260.056 193.388 260.224 193.243 260.227C193.241 260.227 193.239 260.227 193.238 260.227ZM193.253 252.312C193.25 252.312 193.247 252.312 193.245 252.312C193.1 252.305 192.986 252.136 192.99 251.934C193.018 250.648 193.058 249.433 193.11 248.326C193.12 248.123 193.249 247.967 193.389 247.982C193.533 247.996 193.643 248.171 193.633 248.374C193.581 249.472 193.541 250.678 193.514 251.955C193.51 252.154 193.394 252.312 193.253 252.312ZM193.67 244.419C193.659 244.419 193.647 244.419 193.635 244.416C193.492 244.39 193.391 244.204 193.41 244.003C193.514 242.918 193.64 241.716 193.789 240.43C193.811 240.23 193.943 240.091 194.089 240.126C194.231 240.158 194.328 240.346 194.305 240.547C194.158 241.828 194.032 243.024 193.93 244.101C193.912 244.285 193.799 244.419 193.67 244.419ZM194.568 236.597C194.552 236.597 194.536 236.596 194.521 236.593C194.378 236.554 194.284 236.364 194.31 236.164C194.457 235.019 194.616 233.836 194.782 232.618C194.81 232.418 194.949 232.29 195.089 232.327C195.231 232.367 195.324 232.559 195.297 232.759C195.13 233.974 194.972 235.154 194.825 236.295C194.802 236.474 194.691 236.597 194.568 236.597ZM195.637 228.817C195.62 228.817 195.602 228.816 195.585 228.81C195.442 228.77 195.351 228.575 195.38 228.376C195.547 227.217 195.721 226.039 195.899 224.846C195.93 224.647 196.07 224.517 196.209 224.562C196.351 224.603 196.441 224.799 196.412 224.997C196.234 226.188 196.061 227.365 195.894 228.523C195.869 228.696 195.759 228.817 195.637 228.817ZM196.796 221.064C196.778 221.064 196.759 221.061 196.74 221.055C196.599 221.012 196.509 220.817 196.54 220.618C196.72 219.448 196.902 218.273 197.087 217.097C197.118 216.899 197.256 216.774 197.398 216.817C197.54 216.861 197.629 217.058 197.598 217.256C197.413 218.433 197.231 219.606 197.051 220.773C197.026 220.945 196.917 221.064 196.796 221.064ZM198.013 213.326C197.995 213.326 197.976 213.323 197.956 213.316C197.816 213.272 197.727 213.075 197.759 212.877C197.948 211.699 198.137 210.525 198.326 209.363C198.358 209.165 198.497 209.04 198.64 209.086C198.781 209.132 198.868 209.33 198.837 209.526C198.647 210.689 198.457 211.86 198.269 213.038C198.242 213.21 198.134 213.326 198.013 213.326ZM199.272 205.602C199.253 205.602 199.233 205.599 199.213 205.593C199.072 205.547 198.985 205.348 199.017 205.151C199.213 203.961 199.41 202.791 199.602 201.643C199.635 201.447 199.774 201.317 199.917 201.369C200.058 201.415 200.145 201.613 200.111 201.811C199.919 202.958 199.724 204.13 199.527 205.318C199.499 205.487 199.391 205.602 199.272 205.602ZM200.566 197.89C200.546 197.89 200.526 197.887 200.505 197.879C200.364 197.832 200.278 197.634 200.311 197.436C200.517 196.227 200.716 195.056 200.909 193.933C200.944 193.735 201.085 193.618 201.225 193.661C201.366 193.711 201.452 193.908 201.418 194.105C201.226 195.228 201.026 196.398 200.821 197.608C200.792 197.775 200.684 197.89 200.566 197.89ZM201.889 190.185C201.869 190.185 201.848 190.182 201.827 190.174C201.687 190.125 201.601 189.928 201.635 189.731C201.856 188.458 202.061 187.285 202.246 186.23C202.281 186.033 202.419 185.91 202.563 185.96C202.703 186.009 202.789 186.208 202.754 186.406C202.569 187.461 202.364 188.634 202.143 189.905C202.114 190.073 202.007 190.185 201.889 190.185Z" fill="#E86B31"/>
<path d="M195.852 305.738C195.723 305.738 195.61 305.602 195.593 305.418C195.593 305.418 195.533 304.767 195.432 303.59C195.414 303.389 195.516 303.206 195.659 303.182C195.801 303.151 195.934 303.3 195.95 303.502C196.052 304.674 196.112 305.322 196.112 305.323C196.13 305.525 196.028 305.709 195.885 305.735C195.874 305.737 195.863 305.738 195.852 305.738Z" fill="#160E3F"/>
<path d="M190.563 106.249L189.935 89.5856L185.823 90.5659L184.568 83.1164L181.5 82.4306L186.031 66.1586L197.674 63.8066L197.255 85.0278L200.462 98.7995L190.563 106.249Z" fill="#E4897B"/>
<path d="M189.938 89.5877L190.15 95.2156L194.678 88.5098L189.938 89.5877Z" fill="#8B373A"/>
<path d="M181.5 82.4323L184.568 83.1182L185.327 82.0254L181.5 82.4323Z" fill="#EF7E82"/>
<path d="M189.36 82.2587C189.35 83.4468 189.238 84.6091 188.764 85.6191C188.264 86.6853 187.336 87.0852 186.487 87.2672C186.27 87.3141 186.363 87.7734 186.576 87.7281C187.471 87.5359 188.402 87.0946 188.967 86.0323C189.549 84.9356 189.689 83.596 189.7 82.2587C189.702 81.9502 189.362 81.9502 189.36 82.2587Z" fill="#8B373A"/>
<path d="M186.956 71.6577C187.293 71.6171 187.779 71.7569 187.906 72.2646C187.978 72.5537 188.307 72.4295 188.233 72.1381C188.054 71.421 187.461 71.118 186.956 71.1797C186.739 71.207 186.738 71.6843 186.956 71.6577Z" fill="#11003D"/>
<path d="M185.756 76.0876C185.699 76.7812 185.797 77.6615 186.404 77.7021C186.933 77.7373 187.402 77.0147 187.642 76.4359C187.77 76.1274 187.43 75.8493 187.303 76.1571C187.121 76.5961 186.851 77.0179 186.486 77.1405C186.075 77.2787 186.122 76.4195 186.149 76.0876C186.177 75.7345 185.784 75.7384 185.756 76.0876Z" fill="#11003D"/>
<path d="M196.46 57.4437C196.46 57.4437 196.553 54.3732 193.638 54.613C190.721 54.8543 188.365 57.9249 185.624 56.5399C182.882 55.155 180.056 54.2513 179.199 59.9729C178.343 65.6938 184.963 72.68 194.674 68.6448C194.674 68.6448 193.047 78.1571 195.738 80.2966C198.431 82.4361 203.056 73.8845 203.527 66.7178C203.999 59.5519 198.773 55.5167 196.46 57.4437Z" fill="#472E03"/>
<path d="M184.77 57.9138C186.239 58.9441 187.624 59.5018 189.274 59.2042C191.339 58.8324 192.997 56.2719 195.119 57.4592C195.432 57.635 195.568 56.9226 195.258 56.7492C193.882 55.979 192.839 56.4875 191.559 57.36C189.299 58.9004 187.263 58.8402 185.033 57.278C184.733 57.0671 184.468 57.7022 184.77 57.9138Z" fill="#33138C"/>
<path d="M187.734 63.4441C189.162 63.6659 190.611 63.612 191.959 62.852C193.329 62.0795 194.323 60.579 195.843 60.2861C196.176 60.222 196.033 59.5128 195.703 59.5768C194.687 59.7729 193.874 60.4236 193.016 61.1844C191.753 62.3045 190.554 62.7934 189.053 62.8341C186.102 62.9153 183.483 61.1289 181.923 57.6147C181.745 57.2132 181.292 57.5819 181.471 57.9857C182.905 61.2172 185.026 63.0239 187.734 63.4441Z" fill="#33138C"/>
<path d="M195.35 63.7545C193.334 65.5964 191.697 67.2672 189.189 67.4086C186.696 67.5484 184.368 65.9479 182.412 63.9178C182.14 63.6358 181.879 64.2748 182.148 64.5536C184.125 66.6048 186.295 67.9663 188.77 68.142C191.514 68.3358 193.427 66.3892 195.613 64.3896C195.896 64.1318 195.634 63.4944 195.35 63.7545Z" fill="#33138C"/>
<path d="M196.814 63.4797C196.696 63.0399 196.19 63.2305 196.309 63.6757C197.504 68.1382 193.758 73.7192 196.26 77.7287C196.483 78.0864 196.852 77.5631 196.63 77.2077C195.337 75.1354 196.139 71.9079 196.612 69.5575C197.023 67.511 197.364 65.5348 196.814 63.4797Z" fill="#33138C"/>
<path d="M199.161 65.4515C199.146 63.0535 198.594 61.1999 197.07 60.0235C196.774 59.7947 196.509 60.4305 196.805 60.6594C199.169 62.4832 198.793 66.7387 198.363 69.9491C198.068 72.1518 197.468 74.0429 198.589 75.9675C198.802 76.3354 199.171 75.8113 198.959 75.4465C198.009 73.8164 198.57 71.9393 198.868 70.1444C199.121 68.622 199.171 67.0066 199.161 65.4515Z" fill="#33138C"/>
<path d="M202.445 64.9436C202.011 61.5622 200.593 59.5641 198.345 58.4315C198.027 58.2714 197.891 58.9822 198.206 59.1416C200.722 60.4101 202.049 63.0635 201.986 66.8683C201.938 69.7803 200.349 72.1923 199.714 74.8739C199.607 75.3254 200.113 75.5175 200.219 75.0699C201.038 71.6104 202.945 68.8476 202.445 64.9436Z" fill="#33138C"/>
<path d="M201.09 79.4893C201.09 82.3825 199.422 84.7274 197.365 84.7274C195.308 84.7274 193.641 82.3825 193.641 79.4893C193.641 76.5961 195.308 74.252 197.365 74.252C199.422 74.252 201.09 76.5961 201.09 79.4893Z" fill="#E4897B"/>
<path d="M198.777 76.8378C197.516 76.6027 196.408 76.9354 195.651 78.4586C194.787 80.1958 194.969 82.2399 195.959 83.7498C196.108 83.9763 196.347 83.6381 196.2 83.4116C196.13 83.3054 196.066 83.1968 196.007 83.0874C196.683 82.7867 197.103 81.89 196.982 80.8753C196.855 79.8146 196.164 79.6318 195.557 79.8779C195.673 79.3147 195.885 78.7632 196.186 78.2516C196.821 77.176 197.876 77.1479 198.777 77.3158C198.994 77.3557 198.992 76.8776 198.777 76.8378ZM196.655 81.0019C196.781 81.8127 196.337 82.4907 195.811 82.6735C195.512 81.958 195.406 81.187 195.477 80.4239C195.963 80.1169 196.518 80.1333 196.655 81.0019Z" fill="#8B373A"/>
<path d="M188.025 110.056C184.874 128.375 177.873 183.767 178.942 196.207C178.942 196.207 192.773 200.859 207.609 179.999C208.905 178.176 211.684 193.014 211.684 193.014C211.684 193.014 211.109 123.133 204.46 104.217C198.937 88.5024 189.935 98.9537 188.025 110.056Z" fill="url(#paint0_linear_1391_357965)"/>
<path d="M204.457 104.217C198.934 88.502 189.933 98.954 188.023 110.056C187.706 111.895 187.351 114.111 186.969 116.616C191.261 129.778 195.245 143.181 198.481 156.827C200.648 166.103 202.216 175.588 203.488 185.198C204.845 183.671 206.222 181.947 207.606 180C208.903 178.176 211.681 193.014 211.681 193.014C211.681 193.014 211.107 123.133 204.457 104.217Z" fill="url(#paint1_linear_1391_357965)"/>
<path d="M202.041 105.447C201.922 105.447 201.815 105.333 201.786 105.164C201.589 103.995 201.475 103.394 201.474 103.391C201.436 103.194 201.52 102.993 201.659 102.94C201.8 102.888 201.943 103.005 201.98 103.2C201.98 103.2 202.095 103.808 202.295 104.995C202.329 105.192 202.241 105.391 202.1 105.437C202.08 105.444 202.061 105.447 202.041 105.447Z" fill="#E86B31"/>
<path d="M207.605 171.389C207.465 171.389 207.349 171.233 207.344 171.034C207.311 169.761 207.276 168.504 207.238 167.262C207.232 167.059 207.344 166.887 207.489 166.878C207.63 166.853 207.755 167.028 207.761 167.23C207.8 168.474 207.835 169.733 207.867 171.009C207.872 171.212 207.759 171.382 207.614 171.389C207.611 171.389 207.609 171.389 207.605 171.389ZM207.344 163.085C207.206 163.085 207.09 162.933 207.083 162.736C207.034 161.462 206.982 160.206 206.928 158.967C206.919 158.765 207.029 158.59 207.173 158.578C207.33 158.57 207.441 158.72 207.451 158.922C207.505 160.162 207.557 161.421 207.605 162.697C207.613 162.9 207.502 163.074 207.358 163.085C207.353 163.085 207.349 163.085 207.344 163.085ZM206.972 154.789C206.836 154.789 206.722 154.642 206.711 154.447C206.646 153.171 206.577 151.916 206.506 150.684C206.494 150.481 206.601 150.303 206.745 150.287C206.897 150.274 207.015 150.421 207.027 150.624C207.099 151.86 207.169 153.117 207.234 154.395C207.244 154.598 207.136 154.774 206.991 154.788C206.985 154.789 206.979 154.789 206.972 154.789ZM206.487 146.505C206.354 146.505 206.24 146.361 206.226 146.17C206.143 144.893 206.056 143.64 205.968 142.413C205.953 142.211 206.058 142.031 206.201 142.009C206.341 141.991 206.473 142.136 206.489 142.338C206.578 143.567 206.664 144.822 206.749 146.102C206.761 146.305 206.656 146.484 206.511 146.503C206.503 146.505 206.495 146.505 206.487 146.505ZM205.884 138.237C205.753 138.237 205.639 138.098 205.624 137.91C205.52 136.628 205.415 135.378 205.309 134.162C205.291 133.96 205.393 133.776 205.536 133.752C205.683 133.722 205.81 133.87 205.828 134.072C205.934 135.291 206.04 136.542 206.144 137.827C206.16 138.03 206.057 138.212 205.913 138.234C205.904 138.236 205.894 138.237 205.884 138.237ZM205.153 129.988C205.024 129.988 204.912 129.854 204.894 129.669C204.769 128.38 204.644 127.133 204.518 125.933C204.497 125.731 204.596 125.544 204.739 125.515C204.88 125.485 205.015 125.624 205.036 125.826C205.162 127.03 205.288 128.278 205.413 129.57C205.432 129.772 205.331 129.958 205.189 129.985C205.177 129.987 205.165 129.988 205.153 129.988ZM204.286 121.765C204.16 121.765 204.049 121.637 204.029 121.456C203.878 120.148 203.73 118.907 203.585 117.733C203.56 117.533 203.655 117.343 203.798 117.308C203.941 117.273 204.076 117.408 204.1 117.608C204.246 118.784 204.394 120.028 204.545 121.339C204.569 121.54 204.471 121.729 204.329 121.761C204.314 121.764 204.3 121.765 204.286 121.765ZM203.264 113.578C203.141 113.578 203.032 113.455 203.007 113.279C202.82 111.909 202.644 110.674 202.482 109.579C202.453 109.38 202.544 109.186 202.685 109.144C202.828 109.104 202.965 109.23 202.995 109.429C203.158 110.528 203.334 111.766 203.522 113.14C203.549 113.34 203.456 113.533 203.314 113.572C203.298 113.576 203.28 113.578 203.264 113.578Z" fill="#E86B31"/>
<path d="M207.73 177.764C207.588 177.764 207.471 177.603 207.468 177.403C207.459 176.787 207.449 176.174 207.438 175.565C207.434 175.362 207.548 175.192 207.693 175.188C207.849 175.202 207.958 175.343 207.961 175.546C207.973 176.157 207.982 176.771 207.991 177.388C207.995 177.591 207.88 177.76 207.735 177.764C207.734 177.764 207.732 177.764 207.73 177.764Z" fill="#E86B31"/>
<path d="M188.026 115.385C187.837 116.32 187.409 116.967 187.069 116.832C186.73 116.697 186.607 115.829 186.795 114.895C186.984 113.961 187.412 113.312 187.752 113.448C188.092 113.583 188.214 114.45 188.026 115.385Z" fill="#E86B31"/>
<path d="M185.652 130.699C185.548 131.66 185.182 132.379 184.833 132.305C184.484 132.231 184.284 131.392 184.386 130.431C184.489 129.471 184.856 128.752 185.205 128.825C185.554 128.9 185.754 129.739 185.652 130.699Z" fill="#E86B31"/>
<path d="M184.661 146.954C184.591 147.921 184.249 148.664 183.899 148.615C183.547 148.565 183.319 147.741 183.387 146.776C183.457 145.809 183.799 145.066 184.15 145.116C184.501 145.165 184.729 145.989 184.661 146.954Z" fill="#E86B31"/>
<path d="M182.555 167.99C182.519 168.961 182.205 169.728 181.853 169.702C181.5 169.677 181.243 168.87 181.276 167.9C181.313 166.929 181.626 166.162 181.979 166.188C182.332 166.214 182.589 167.021 182.555 167.99Z" fill="#E86B31"/>
<path d="M181.02 190.484C180.985 191.454 180.67 192.22 180.317 192.194C179.965 192.17 179.707 191.364 179.741 190.392C179.777 189.422 180.092 188.656 180.444 188.682C180.797 188.707 181.055 189.513 181.02 190.484Z" fill="#E86B31"/>
<path d="M188.24 99.8276L187.41 111.09L202.058 98.1967L199.513 92.9219L188.24 99.8276Z" fill="#FFBE55"/>
<path d="M162.644 131.271L156.182 128.669C156.182 128.669 150.218 129.575 148.448 127.117C146.675 124.662 143.614 115.155 144.26 115.16C144.905 115.166 148.205 122.663 149.718 122.617C151.23 122.571 153.774 120.704 155.025 121.41C156.273 122.115 157.614 124.647 157.614 124.647L163.709 126.165L162.644 131.271Z" fill="#E4897B"/>
<path d="M198.801 105.033C192.127 108.704 181.51 130.076 179.418 130.768C177.325 131.458 163.161 125.273 158.989 124.15L157.812 129.591C157.812 129.591 174.55 149.738 184.108 148.755C196.315 147.498 213.952 96.6964 198.801 105.033Z" fill="#E86B31"/>
<path d="M47.3495 292.429L39.8526 304.083V314.847L34.125 300.074L43.0202 285.303L47.3495 292.429Z" fill="#E4897B"/>
<path d="M40.8378 307.829C40.8378 307.829 43.0305 305.272 42.0845 304.478C41.1389 303.685 39.3273 305.008 39.3273 305.008C39.3273 305.008 36.9097 301.361 36.0108 295.742C36.0108 295.742 33.1493 298.264 32.7226 299.331C32.296 300.396 39.0151 321.235 39.4934 322.085C39.974 322.933 40.8917 321.366 40.8378 307.829Z" fill="#160E3F"/>
<path d="M32.6571 298.904C32.8199 298.856 32.9854 299 33.0226 299.235C33.6654 303.371 36.002 310.796 37.7647 316.036C39.1874 315.155 40.9245 315.712 40.9245 315.712C41.1395 321.491 39.8174 322.511 39.8174 322.511C39.7296 322.642 39.5974 322.679 39.4846 322.618C39.4474 322.598 39.4129 322.569 39.3824 322.531C39.1279 322.194 33.4493 306.038 32.421 299.419C32.3854 299.186 32.4899 298.955 32.6571 298.904Z" fill="#E7F3FF"/>
<path d="M40.7422 313.978C40.42 313.378 39.5789 313.042 39.0772 313.295C38.7073 313.484 38.4495 312.698 38.8234 312.509C39.5817 312.122 40.7227 312.506 41.2188 313.433C41.4577 313.875 40.9833 314.424 40.7422 313.978Z" fill="#E7F3FF"/>
<path d="M40.8743 311.784C40.311 311.252 39.6043 311.02 38.9366 311.223C38.5483 311.341 38.4477 310.487 38.8338 310.37C39.6582 310.119 40.5421 310.428 41.2359 311.084C41.5654 311.398 41.2037 312.095 40.8743 311.784Z" fill="#E7F3FF"/>
<path d="M40.8657 309.475C40.3312 308.883 39.6852 308.38 38.9913 308.675C38.6124 308.838 38.5141 307.981 38.888 307.823C39.7296 307.465 40.5751 308.054 41.2268 308.777C41.5384 309.12 41.1779 309.823 40.8657 309.475Z" fill="#E7F3FF"/>
<path d="M37.3214 216.229C37.3214 216.229 74.4876 215.972 78.1836 224.286C81.879 232.601 75.7554 253.385 67.8357 266.302C59.9166 279.217 44.68 301.493 44.68 301.493C44.68 301.493 40.5846 299.053 37.5186 290.943C37.5186 290.943 58.5438 249.08 54.954 248.189C51.3641 247.298 20.9548 259.473 16.8366 248.932C12.7185 238.39 14.9362 225.178 14.9362 225.178L37.3214 216.229Z" fill="#455A64"/>
<path d="M105.178 293.32L113.447 314.254L106.584 314.848L98.0664 295.748L105.178 293.32Z" fill="#E4897B"/>
<path d="M113.583 309.13C113.583 309.13 112.64 305.349 111.782 306.322C110.924 307.293 111.176 310.14 111.176 310.14C111.176 310.14 107.905 312.06 103.844 311.292C103.844 311.292 104.532 315.942 105.094 316.873C105.656 317.808 121.889 316.193 122.622 315.856C123.354 315.519 122.629 313.766 113.583 309.13Z" fill="#1C145F"/>
<path d="M104.788 316.812C104.813 316.579 104.966 316.412 105.136 316.444C108.118 317.034 113.882 316.535 117.989 316.033C117.896 313.85 118.87 311.754 118.87 311.754C122.799 313.479 123.02 315.576 123.02 315.576C123.076 315.737 123.055 315.924 122.976 316.052C122.95 316.095 122.918 316.13 122.882 316.155C122.568 316.375 109.822 318.245 105.049 317.301C104.882 317.268 104.765 317.048 104.788 316.812Z" fill="#E7F3FF"/>
<path d="M117.647 311.396C117.136 311.614 116.618 312.603 116.614 313.354C116.611 313.909 115.997 313.974 116 313.414C116.007 312.28 116.659 310.911 117.449 310.577C117.827 310.418 118.027 311.236 117.647 311.396Z" fill="#E7F3FF"/>
<path d="M116.231 310.459C115.679 311.015 115.279 311.867 115.182 312.818C115.127 313.372 114.521 313.208 114.578 312.658C114.698 311.482 115.211 310.425 115.89 309.739C116.211 309.413 116.552 310.133 116.231 310.459Z" fill="#E7F3FF"/>
<path d="M114.688 309.666C114.108 310.166 113.549 310.841 113.504 311.86C113.48 312.417 112.876 312.247 112.899 311.699C112.952 310.465 113.641 309.555 114.347 308.947C114.685 308.656 115.028 309.374 114.688 309.666Z" fill="#E7F3FF"/>
<path d="M38.2694 217.014C38.2694 217.014 77.0201 219.241 80.3989 226.516C83.7776 233.79 111.05 302.307 111.05 302.307C111.05 302.307 106.68 309.202 100.345 307.717C100.345 307.717 74.1686 253.684 68.7838 248.339C63.399 242.994 23.5328 259.747 18.068 251.836C12.6038 243.924 13.8282 222.893 13.8282 222.893L38.2694 217.014Z" fill="#455A64"/>
<path d="M104.503 303.552C104.408 303.552 104.315 303.484 104.263 303.36L102.841 299.974C102.763 299.789 102.807 299.549 102.939 299.439C103.072 299.33 103.241 299.391 103.32 299.577L104.742 302.963C104.819 303.149 104.776 303.388 104.643 303.498C104.6 303.535 104.551 303.552 104.503 303.552ZM101.378 296.117C101.283 296.117 101.191 296.048 101.139 295.926L99.7191 292.551C99.6414 292.365 99.6853 292.126 99.8169 292.015C99.9491 291.906 100.119 291.968 100.197 292.153L101.616 295.527C101.695 295.713 101.651 295.953 101.519 296.063C101.475 296.099 101.426 296.117 101.378 296.117ZM98.2564 288.695C98.1614 288.695 98.0692 288.626 98.017 288.504L96.5982 285.132C96.5198 284.947 96.5637 284.707 96.6954 284.596C96.8287 284.488 96.9982 284.549 97.0759 284.734L98.4948 288.105C98.5731 288.291 98.5292 288.531 98.397 288.64C98.3531 288.677 98.3042 288.695 98.2564 288.695ZM95.1349 281.279C95.0399 281.279 94.9477 281.21 94.8954 281.088L93.4755 277.717C93.3972 277.532 93.4405 277.292 93.5727 277.182C93.7061 277.071 93.8755 277.134 93.9533 277.319L95.3732 280.689C95.4515 280.874 95.4076 281.114 95.276 281.224C95.2315 281.262 95.1827 281.279 95.1349 281.279ZM92.0106 273.866C91.9156 273.866 91.8233 273.798 91.7711 273.675L90.3506 270.307C90.2723 270.122 90.3156 269.882 90.4479 269.772C90.5795 269.66 90.7495 269.723 90.8289 269.908L92.2494 273.277C92.3278 273.462 92.2844 273.702 92.1522 273.811C92.1072 273.849 92.0589 273.866 92.0106 273.866ZM88.8851 266.46C88.7901 266.46 88.6979 266.392 88.6457 266.268L87.2235 262.903C87.1452 262.717 87.1885 262.477 87.3202 262.368C87.4519 262.257 87.6224 262.318 87.7007 262.504L89.1235 265.87C89.2018 266.055 89.1585 266.295 89.0262 266.405C88.9824 266.442 88.9335 266.46 88.8851 266.46ZM85.7547 259.055C85.6603 259.055 85.5681 258.987 85.5158 258.864L84.0903 255.499C84.012 255.313 84.0553 255.074 84.187 254.963C84.3192 254.853 84.4892 254.914 84.5681 255.099L85.993 258.464C86.0714 258.65 86.028 258.889 85.8964 259C85.8514 259.038 85.803 259.055 85.7547 259.055ZM82.6171 251.651C82.5226 251.651 82.4304 251.583 82.3782 251.461L80.9477 248.098C80.8688 247.912 80.9121 247.673 81.0432 247.562C81.1749 247.449 81.3454 247.512 81.4243 247.697L82.8548 251.06C82.9337 251.245 82.8904 251.485 82.7587 251.597C82.7148 251.633 82.6659 251.651 82.6171 251.651ZM79.465 244.254C79.3711 244.254 79.2789 244.187 79.2266 244.065C78.69 242.813 78.2061 241.685 77.785 240.709C77.705 240.525 77.7473 240.284 77.8784 240.172C78.0095 240.061 78.1806 240.12 78.2594 240.303C78.6811 241.28 79.1655 242.407 79.7022 243.662C79.7816 243.847 79.7388 244.087 79.6077 244.198C79.5633 244.237 79.5139 244.254 79.465 244.254ZM27.5459 239.209C27.5304 239.209 27.5137 239.207 27.4982 239.202C26.4499 238.945 25.6193 238.216 25.0288 237.036C24.9405 236.859 24.971 236.616 25.0966 236.492C25.2227 236.368 25.3949 236.411 25.4838 236.586C25.9866 237.592 26.6965 238.213 27.5943 238.434C27.7454 238.47 27.8465 238.673 27.8204 238.885C27.7959 239.075 27.6782 239.209 27.5459 239.209ZM30.8741 239.066C30.7308 239.066 30.6091 238.912 30.5975 238.708C30.5853 238.493 30.6991 238.304 30.8514 238.287C31.6385 238.196 32.5718 238.085 33.624 237.959C33.7757 237.942 33.9112 238.1 33.924 238.315C33.9368 238.529 33.8235 238.719 33.6707 238.737C32.618 238.863 31.6836 238.974 30.8964 239.065C30.8891 239.066 30.8814 239.066 30.8741 239.066ZM36.9739 238.341C36.8311 238.341 36.7095 238.188 36.6972 237.984C36.6845 237.77 36.7978 237.58 36.9506 237.562L39.7227 237.234C39.8766 237.218 40.0099 237.376 40.0227 237.59C40.0354 237.805 39.9221 237.994 39.7693 238.012L36.9983 238.34C36.9894 238.341 36.9817 238.341 36.9739 238.341ZM43.0725 237.631C42.9292 237.631 42.8075 237.477 42.7959 237.272C42.7837 237.057 42.8975 236.868 43.0503 236.852C43.9569 236.75 44.8836 236.647 45.8241 236.545C45.9724 236.513 46.1107 236.689 46.1224 236.904C46.1341 237.119 46.0196 237.307 45.8669 237.323C44.9275 237.424 44.0014 237.528 43.0953 237.629C43.087 237.631 43.0798 237.631 43.0725 237.631ZM49.1712 236.971C49.0267 236.971 48.9051 236.815 48.8945 236.609C48.8829 236.394 48.9984 236.207 49.1512 236.191C50.0723 236.097 50.9989 236.004 51.9255 235.915C52.0738 235.898 52.2111 236.062 52.2222 236.278C52.2327 236.493 52.1172 236.679 51.9644 236.694C51.0383 236.784 50.1122 236.876 49.1923 236.971C49.1845 236.971 49.1778 236.971 49.1712 236.971ZM76.2479 236.89C76.169 236.89 76.0907 236.843 76.0357 236.752C75.9062 236.538 75.4146 236.139 73.5796 235.884C73.4269 235.863 73.3152 235.672 73.3308 235.457C73.3458 235.242 73.4852 235.097 73.6346 235.106C75.7251 235.397 76.2479 235.897 76.4595 236.247C76.559 236.411 76.5445 236.657 76.4273 236.797C76.3751 236.86 76.3118 236.89 76.2479 236.89ZM55.2748 236.388C55.1293 236.388 55.0071 236.229 54.9982 236.022C54.9887 235.807 55.1048 235.621 55.2582 235.608C56.1926 235.526 57.1209 235.449 58.0364 235.377C58.1891 235.358 58.3203 235.53 58.3291 235.746C58.338 235.961 58.2208 236.145 58.0675 236.157C57.1531 236.229 56.2259 236.305 55.2932 236.387C55.2865 236.388 55.2804 236.388 55.2748 236.388ZM61.384 235.92C61.2362 235.92 61.1135 235.757 61.1068 235.547C61.1001 235.332 61.2185 235.148 61.3718 235.139C62.324 235.078 63.2539 235.026 64.1539 234.984C64.3106 234.991 64.4361 235.145 64.4411 235.361C64.4467 235.576 64.3261 235.757 64.1734 235.765C63.2751 235.808 62.3473 235.859 61.3974 235.919C61.3924 235.92 61.3885 235.92 61.384 235.92ZM70.2787 235.653C70.2775 235.653 70.2759 235.653 70.2742 235.653C69.4176 235.634 68.4893 235.635 67.5038 235.651C67.5027 235.651 67.5016 235.651 67.5004 235.651C67.3488 235.651 67.2243 235.48 67.2227 235.265C67.221 235.051 67.3438 234.873 67.4971 234.87C68.4893 234.853 69.4215 234.852 70.2842 234.872C70.4375 234.876 70.5598 235.053 70.5575 235.269C70.5536 235.483 70.4298 235.653 70.2787 235.653ZM24.2961 232.771C24.1516 232.771 24.0294 232.614 24.0194 232.408C24 232.018 23.9922 231.64 23.9922 231.282C23.9922 229.672 24.1494 228.464 24.1561 228.413C24.1838 228.201 24.3261 228.059 24.4799 228.101C24.6305 228.14 24.7305 228.344 24.7022 228.556C24.7005 228.568 24.5477 229.749 24.5477 231.282C24.5477 231.624 24.5549 231.983 24.5733 232.354C24.5844 232.568 24.4688 232.756 24.3161 232.771C24.3088 232.771 24.3022 232.771 24.2961 232.771Z" fill="#E86B31"/>
<path d="M29.0039 160.255L28.1295 142.594L32.551 142.877L33.1865 134.802L36.353 133.522L30.0822 117.212L17.6055 116.855L20.0015 139.127L17.8927 154.214L29.0039 160.255Z" fill="#E4897B"/>
<path d="M28.1305 142.592L28.4255 148.557L23.0391 142.32L28.1305 142.592Z" fill="#8B373A"/>
<path d="M36.3556 133.521L33.189 134.802L32.2891 133.79L36.3556 133.521Z" fill="#8B373A"/>
<path d="M30.0765 129.107C30.1581 130.047 30.5048 130.762 30.8498 130.703C31.1947 130.643 31.407 129.832 31.3247 128.892C31.2425 127.951 30.8964 127.237 30.5514 127.296C30.2065 127.355 29.9937 128.166 30.0765 129.107Z" fill="#11003D"/>
<path d="M28.0667 134.767C28.1867 136.016 28.4123 137.22 29.0039 138.197C29.6289 139.229 30.6444 139.482 31.5543 139.518C31.786 139.528 31.7321 140.03 31.5016 140.02C30.5411 139.98 29.5205 139.686 28.8289 138.67C28.115 137.62 27.8445 136.236 27.7089 134.829C27.6778 134.505 28.035 134.443 28.0667 134.767Z" fill="#8B373A"/>
<path d="M29.6144 123.168C29.2561 123.185 28.7573 123.422 28.6695 123.98C28.62 124.298 28.2634 124.226 28.3134 123.906C28.4356 123.118 29.0334 122.691 29.57 122.664C29.8005 122.653 29.8472 123.156 29.6144 123.168Z" fill="#11003D"/>
<path d="M31.1809 106.209C29.2305 105.951 27.345 107.108 25.5856 108.086C24.1957 104.375 22.053 102.172 18.9725 103.509C15.8293 104.758 14.9549 108.21 15.4021 112.453C12.445 111.845 9.61459 112.031 8.48964 116.457C7.48912 120.175 7.688 125.924 10.0829 128.481C11.1545 129.715 12.6017 129.889 13.9222 129.972C12.9833 132.717 12.3606 136.344 15.2555 136.954C17.5209 137.477 19.5292 135.171 19.9653 132.162C20.1519 131.012 20.1503 129.862 20.0853 128.712C22.3407 127.733 22.9007 124.722 22.2741 122.035C24.3901 122.561 27.3922 122.364 27.2405 119.137C30.0715 119.569 35.1686 120.701 36.0407 115.391C36.7257 111.144 34.2014 106.554 31.1809 106.209Z" fill="#472E03"/>
<path d="M32.7709 109.225C32.7431 108.726 32.187 108.723 32.2154 109.225C32.3309 111.28 32.0126 112.961 30.6565 113.998C28.8711 115.364 26.4761 115.181 24.6184 114.318C24.4468 114.238 24.2651 114.45 24.2668 114.694C24.2923 118.508 21.3241 119.892 19.0937 118.836C18.7531 118.674 18.6081 119.428 18.9459 119.589C21.4286 120.766 24.5723 119.128 24.8007 115.202C26.8311 116.033 28.9877 115.895 30.9365 114.673C32.4987 113.694 32.8942 111.421 32.7709 109.225Z" fill="#764901"/>
<path d="M17.7049 113.884C19.2498 114.472 21.0131 113.659 21.9514 111.771C22.908 109.845 22.7669 107.619 22.2742 105.477C22.1647 104.999 21.6281 105.203 21.7386 105.684C22.1197 107.34 22.3197 109.049 21.7831 110.687C21.1198 112.711 19.3182 113.689 17.8527 113.131C17.506 112.999 17.3594 113.753 17.7049 113.884Z" fill="#764901"/>
<path d="M15.5656 116.221C13.6934 116.834 11.9157 118.046 11.7052 121.002C11.5107 123.728 12.9457 125.868 14.7223 126.269C13.7462 128.366 13.8773 131.881 15.2178 133.518C15.4867 133.847 15.8817 133.297 15.6106 132.966C14.3701 131.45 14.3206 127.884 15.4417 126.227C15.6095 125.978 15.49 125.567 15.245 125.56C13.1918 125.501 11.9163 122.967 12.3552 120.179C12.6768 118.138 14.4684 117.382 15.7134 116.974C16.0622 116.86 15.9145 116.106 15.5656 116.221Z" fill="#764901"/>
<path d="M19.5458 126.447C17.6114 125.78 17.6375 123.374 18.4714 121.314C18.6491 120.875 18.1692 120.482 17.9919 120.919C17.0298 123.297 17.1236 126.053 18.9986 127.028C17.9097 128.989 17.7719 131.462 18.0764 133.901C18.138 134.397 18.6736 134.186 18.6119 133.694C18.3186 131.345 18.4569 128.91 19.668 127.099C19.8069 126.892 19.7552 126.519 19.5458 126.447Z" fill="#764901"/>
<path d="M15.4558 133.991C15.7219 137.037 17.6946 139.203 19.8612 138.828C22.0272 138.454 23.5677 135.681 23.3016 132.634C23.0349 129.587 21.0622 127.421 18.8962 127.796C16.7296 128.171 15.1891 130.945 15.4558 133.991Z" fill="#E4897B"/>
<path d="M17.6871 131.28C18.6204 130.94 19.7337 130.776 20.5015 131.794C20.8665 132.277 21.1398 132.819 21.3137 133.392C20.6526 133.243 19.9415 133.562 19.9059 134.702C19.8715 135.794 20.3965 136.661 21.1365 136.854C21.0837 136.981 21.027 137.107 20.9637 137.231C20.8287 137.496 21.112 137.809 21.2476 137.542C22.1509 135.772 22.1547 133.586 21.0842 131.914C20.1465 130.448 18.9499 130.299 17.6427 130.777C17.421 130.858 17.4627 131.362 17.6871 131.28ZM21.4487 133.951C21.5942 134.744 21.5531 135.575 21.3048 136.383C20.7348 136.285 20.2037 135.652 20.2632 134.775C20.3265 133.836 20.9098 133.717 21.4487 133.951Z" fill="#8B373A"/>
<path d="M31.8064 161.127C35.0057 171.598 40.2049 217.153 40.2049 217.153C40.2049 217.153 31.0353 233.477 13.2188 233.477C13.2188 233.477 9.44505 195.923 11.0289 174.544C12.6127 153.165 24.9966 138.843 31.8064 161.127Z" fill="url(#paint2_linear_1391_357965)"/>
<path d="M62.4027 199.707L69.5436 199.74C69.5436 199.74 75.455 196.39 77.7704 198.181C80.087 199.972 85.1713 208.45 84.5102 208.707C83.8502 208.962 78.9343 202.64 77.3966 203.301C75.86 203.964 73.6434 206.905 72.2196 206.691C70.7974 206.479 68.9069 204.433 68.9069 204.433L62.3633 205.36L62.4027 199.707Z" fill="#E4897B"/>
<path d="M26.5238 156.726C33.0019 164.284 39.2305 193.629 41.3827 195.487C43.5342 197.344 60.9541 197.797 65.9017 198.712L65.785 205.39C65.785 205.39 41.831 219.17 31.4292 213.111C18.1458 205.372 11.8161 139.565 26.5238 156.726Z" fill="#E86B31"/>
<path d="M98.6114 210.169C98.6114 209.07 97.977 208.178 97.1953 208.178H63.4317C62.65 208.178 62.0156 209.07 62.0156 210.169C62.0156 211.269 62.65 212.161 63.4317 212.161H97.1953C97.977 212.161 98.6114 211.269 98.6114 210.169Z" fill="#6975EB"/>
<path d="M96.7613 212.096C97.508 212.426 98.3024 211.843 98.5368 210.794L108.654 165.502C108.889 164.453 108.474 163.336 107.728 163.006C106.981 162.677 106.186 163.26 105.952 164.309L95.8347 209.601C95.6008 210.65 96.0164 211.767 96.7613 212.096Z" fill="#6975EB"/>
<path d="M97.0972 211.535C97.6341 211.535 98.0694 210.923 98.0694 210.168C98.0694 209.413 97.6341 208.801 97.0972 208.801C96.5603 208.801 96.125 209.413 96.125 210.168C96.125 210.923 96.5603 211.535 97.0972 211.535Z" fill="#F1F8FF"/>
<path d="M21.1915 258.859H18.9727V319.003H21.1915V258.859Z" fill="#494949"/>
<path d="M22.6493 258.859H17.5156V272.675H22.6493V258.859Z" fill="#F1F8FF"/>
<path d="M36.1005 249.946C36.1005 249.946 36.0844 249.95 36.0533 249.96C36.0322 249.961 36.0005 249.963 35.9589 249.965C35.8544 249.982 35.6961 250.012 35.4856 250.063C35.0611 250.153 34.4234 250.278 33.6234 250.421C32.8246 250.57 31.854 250.706 30.7708 250.818C29.6852 250.918 28.4831 250.974 27.2198 250.903C25.9593 250.834 24.6377 250.674 23.3333 250.281C22.6766 250.12 22.0289 249.87 21.3872 249.589C21.0639 249.463 20.7506 249.289 20.4289 249.143C20.1201 248.95 19.7984 248.799 19.4929 248.588C18.2479 247.823 17.0596 246.803 15.9002 245.569C15.8497 245.513 16.2902 246.016 16.0952 245.792L16.0775 245.771L16.0425 245.729L15.9719 245.645L15.8302 245.476L15.6886 245.307L15.6225 245.227L15.6303 245.223C15.6403 245.219 15.6464 245.221 15.6497 245.227C15.6514 245.229 15.6525 245.234 15.6519 245.239C15.6558 245.252 15.6197 245.184 15.6053 245.16C15.4514 244.919 15.2719 244.588 15.0869 244.225C14.7181 243.478 14.3364 242.525 13.9664 241.542C13.2404 239.537 12.5959 237.262 12.0576 234.961C11.7937 233.806 11.5371 232.642 11.3138 231.479C11.1038 230.308 10.9021 229.146 10.7238 227.992C10.3832 225.683 10.1199 223.421 9.96048 221.264C9.78882 219.108 9.70605 217.056 9.70327 215.168C9.69994 213.282 9.73827 211.538 9.84993 210.011C9.88993 209.238 9.9677 208.533 10.0171 207.861C10.0899 207.199 10.1566 206.59 10.2166 206.04C10.3682 204.953 10.476 204.07 10.5927 203.495C10.686 202.899 10.736 202.581 10.736 202.581L10.7893 202.246C11.0899 200.333 10.2305 198.438 8.86997 198.016C7.85223 197.7 6.84172 198.298 6.27118 199.419C6.27118 199.419 6.1073 199.741 5.8012 200.344C5.49177 200.951 5.0829 201.869 4.58236 203.077C4.35959 203.691 4.09572 204.37 3.83906 205.129C3.60851 205.893 3.31353 206.715 3.0852 207.622C2.57189 209.426 2.13469 211.515 1.75248 213.829C1.5686 214.989 1.41416 216.201 1.27194 217.464C1.15472 218.725 1.04751 220.036 0.978064 221.385C0.853069 224.082 0.846957 226.936 1.01862 229.873C1.17306 232.814 1.51415 235.833 2.02969 238.884C2.28857 240.409 2.60467 241.941 2.9591 243.481C3.3363 245.018 3.75018 246.552 4.26238 248.101C4.77014 249.656 5.339 251.202 6.09786 252.78C6.48229 253.575 6.89616 254.374 7.39503 255.191C7.46169 255.301 7.49947 255.374 7.59058 255.511L7.85223 255.9C8.02834 256.156 8.20833 256.409 8.39055 256.656L8.52721 256.84L8.60165 256.933L8.74164 257.104L8.88108 257.276L8.95108 257.362L8.98608 257.405L9.2344 257.691C11.2104 259.848 13.4626 261.504 15.7402 262.613C16.3052 262.909 16.8891 263.092 17.4546 263.324C18.0285 263.503 18.5951 263.697 19.1584 263.828C20.2884 264.081 21.3956 264.226 22.4605 264.258C24.5971 264.313 26.5548 263.942 28.2831 263.374C30.0125 262.797 31.5202 262.046 32.794 261.229C34.0717 260.431 35.12 259.577 35.9583 258.828C36.7961 258.074 37.4155 257.392 37.8394 256.908C38.0532 256.669 38.216 256.469 38.3271 256.328C38.3932 256.25 38.4432 256.19 38.4766 256.151C38.4999 256.119 38.5116 256.101 38.5116 256.101C39.5276 254.671 39.526 252.354 38.5088 250.925C37.8671 250.024 36.9744 249.692 36.1478 249.93L36.1005 249.946Z" fill="#494949"/>
<path d="M32.3432 320.48C32.3432 316.815 26.8529 313.844 20.0798 313.844C13.3067 313.844 7.81641 316.815 7.81641 320.48H32.3432Z" fill="white"/>
<path opacity="0.1" d="M14.5935 253.455C2.21898 244.669 5.04998 208.178 9.1887 198.166C10.3575 198.768 11.0636 200.493 10.7881 202.249L10.7347 202.584C10.7347 202.584 10.6848 202.901 10.5914 203.497C10.4748 204.072 10.3675 204.955 10.2153 206.043C10.1553 206.593 10.0881 207.201 10.0159 207.863C9.96644 208.536 9.88867 209.241 9.84867 210.013C9.73756 211.54 9.69868 213.284 9.70201 215.171C9.70479 217.059 9.78756 219.111 9.95922 221.267C10.1187 223.423 10.382 225.685 10.7225 227.995C10.9003 229.149 11.1025 230.311 11.3125 231.481C11.5358 232.645 11.7925 233.808 12.0564 234.963C12.5947 237.264 13.2391 239.539 13.9652 241.544C14.3352 242.528 14.7168 243.48 15.0857 244.227C15.2707 244.59 15.4496 244.922 15.604 245.162C15.6151 245.179 15.6334 245.213 15.6423 245.229C15.6384 245.226 15.6357 245.222 15.629 245.225L15.6212 245.229L15.6873 245.309L15.829 245.479L15.9534 245.627C15.9356 245.607 15.9173 245.591 15.899 245.572C15.8484 245.516 16.289 246.019 16.094 245.796L16.0762 245.775L16.0412 245.732L15.9706 245.648L15.9534 245.628C17.0956 246.836 18.2656 247.839 19.4916 248.592C19.7972 248.803 20.1188 248.954 20.4277 249.147C20.7488 249.294 21.0621 249.467 21.386 249.593C22.0276 249.873 22.6754 250.125 23.332 250.285C24.6364 250.678 25.958 250.838 27.2185 250.907C28.4813 250.978 29.684 250.922 30.7695 250.822C31.8528 250.71 32.8228 250.575 33.6222 250.425C34.4216 250.282 35.0599 250.157 35.4843 250.067C35.6949 250.016 35.8532 249.986 35.9576 249.969C35.9993 249.967 36.031 249.965 36.0521 249.964C36.0832 249.954 36.0993 249.95 36.0993 249.95L36.1476 249.935C36.9742 249.697 37.867 250.029 38.5086 250.93C38.7492 251.267 38.9275 251.657 39.0542 252.07C34.5416 255.503 24.8981 260.772 14.5935 253.455Z" fill="#74A1D8"/>
<path d="M224.445 210.167C224.445 209.068 225.08 208.176 225.861 208.176H259.625C260.407 208.176 261.041 209.068 261.041 210.167C261.041 211.267 260.407 212.159 259.625 212.159H225.861C225.08 212.159 224.445 211.267 224.445 210.167Z" fill="#E86B31"/>
<path d="M226.298 212.095C225.552 212.424 224.757 211.841 224.523 210.792L214.405 165.5C214.171 164.451 214.586 163.334 215.332 163.004C216.079 162.675 216.874 163.258 217.107 164.307L227.225 209.599C227.459 210.648 227.044 211.765 226.298 212.095Z" fill="#E86B31"/>
<path d="M225.96 211.535C226.497 211.535 226.933 210.923 226.933 210.168C226.933 209.413 226.497 208.801 225.96 208.801C225.424 208.801 224.988 209.413 224.988 210.168C224.988 210.923 225.424 211.535 225.96 211.535Z" fill="#F1F8FF"/>
<path d="M220.485 292.988L212.797 312.453L219.178 313.006L227.099 295.246L220.485 292.988Z" fill="#E4897B"/>
<path d="M212.674 307.687C212.674 307.687 213.552 304.173 214.349 305.076C215.147 305.979 214.912 308.626 214.912 308.626C214.912 308.626 217.955 310.411 221.73 309.697C221.73 309.697 221.091 314.022 220.567 314.888C220.045 315.756 204.951 314.256 204.269 313.942C203.588 313.629 204.263 311.998 212.674 307.687Z" fill="#160E3F"/>
<path d="M220.853 314.827C220.831 314.612 220.688 314.455 220.53 314.485C217.757 315.034 212.398 314.57 208.579 314.103C208.665 312.074 207.759 310.125 207.759 310.125C204.105 311.729 203.901 313.678 203.901 313.678C203.848 313.828 203.868 314.002 203.942 314.121C203.966 314.16 203.995 314.194 204.029 314.217C204.32 314.422 216.173 316.16 220.61 315.281C220.766 315.252 220.875 315.048 220.853 314.827Z" fill="#E7F3FF"/>
<path d="M208.897 309.792C209.372 309.995 209.853 310.915 209.857 311.612C209.861 312.128 210.431 312.189 210.428 311.669C210.421 310.613 209.815 309.342 209.081 309.031C208.729 308.882 208.543 309.643 208.897 309.792Z" fill="#E7F3FF"/>
<path d="M210.214 308.92C210.727 309.437 211.099 310.229 211.19 311.114C211.241 311.628 211.804 311.477 211.752 310.965C211.64 309.872 211.163 308.89 210.532 308.251C210.232 307.948 209.914 308.617 210.214 308.92Z" fill="#E7F3FF"/>
<path d="M211.65 308.183C212.19 308.648 212.71 309.275 212.751 310.223C212.773 310.74 213.335 310.583 213.313 310.074C213.263 308.926 212.624 308.08 211.967 307.514C211.653 307.245 211.334 307.912 211.65 308.183Z" fill="#E7F3FF"/>
<path d="M282.698 222.033C282.698 222.033 246.666 224.104 243.524 230.868C240.383 237.632 219.176 293.958 219.176 293.958C219.176 293.958 220.943 299.477 226.834 298.097C226.834 298.097 252.294 255.119 257.301 250.15C262.308 245.18 296.589 260.628 301.67 253.271C306.751 245.915 303.807 228.384 303.807 228.384L282.698 222.033Z" fill="#455A64"/>
<path d="M274.254 292.159L281.225 302.995V313.004L286.551 299.269L278.28 285.533L274.254 292.159Z" fill="#E4897B"/>
<path d="M280.306 306.474C280.306 306.474 278.266 304.096 279.146 303.358C280.026 302.622 281.709 303.852 281.709 303.852C281.709 303.852 283.958 300.461 284.794 295.236C284.794 295.236 287.454 297.581 287.851 298.572C288.248 299.563 282.001 318.94 281.556 319.73C281.109 320.518 280.256 319.062 280.306 306.474Z" fill="#1D1970"/>
<path d="M287.912 298.18C287.761 298.136 287.607 298.269 287.573 298.488C286.975 302.335 284.803 309.239 283.163 314.11C281.84 313.292 280.225 313.809 280.225 313.809C280.026 319.183 281.255 320.132 281.255 320.132C281.336 320.253 281.459 320.287 281.564 320.231C281.599 320.212 281.631 320.185 281.659 320.15C281.896 319.837 287.176 304.813 288.132 298.66C288.165 298.443 288.069 298.229 287.912 298.18Z" fill="#E7F3FF"/>
<path d="M280.398 312.198C280.698 311.639 281.48 311.328 281.946 311.563C282.29 311.738 282.53 311.007 282.183 310.83C281.478 310.471 280.416 310.828 279.955 311.689C279.733 312.102 280.174 312.613 280.398 312.198Z" fill="#E7F3FF"/>
<path d="M280.273 310.158C280.797 309.662 281.454 309.446 282.075 309.637C282.436 309.747 282.529 308.952 282.171 308.843C281.403 308.609 280.582 308.896 279.937 309.508C279.631 309.798 279.968 310.447 280.273 310.158Z" fill="#E7F3FF"/>
<path d="M280.283 308.007C280.78 307.458 281.381 306.989 282.026 307.264C282.378 307.415 282.47 306.619 282.122 306.472C281.34 306.138 280.553 306.686 279.947 307.359C279.657 307.678 279.993 308.331 280.283 308.007Z" fill="#E7F3FF"/>
<path d="M283.58 221.304C283.58 221.304 249.021 221.064 245.585 228.795C242.149 236.526 247.843 255.854 255.206 267.863C262.57 279.873 274.253 293.953 274.253 293.953C274.253 293.953 277.313 294.229 280.545 287.602C280.545 287.602 263.846 251.85 267.184 251.021C270.522 250.193 298.798 261.513 302.627 251.711C306.456 241.91 304.394 229.625 304.394 229.625L283.58 221.304Z" fill="#455A64"/>
<path d="M297.721 232.992H297.719C297.561 232.99 297.434 232.809 297.435 232.586C297.442 231.433 297.381 230.635 297.381 230.626C297.363 230.405 297.477 230.208 297.634 230.184C297.782 230.162 297.932 230.319 297.949 230.539C297.952 230.574 298.013 231.39 298.007 232.592C298.006 232.814 297.878 232.992 297.721 232.992Z" fill="#E86B31"/>
<path d="M273.381 285.821C273.304 285.821 273.228 285.777 273.171 285.692C272.494 284.667 271.839 283.662 271.207 282.675C271.101 282.509 271.11 282.256 271.228 282.107C271.345 281.957 271.526 281.971 271.631 282.136C272.262 283.12 272.915 284.122 273.59 285.144C273.697 285.307 273.692 285.561 273.576 285.713C273.521 285.785 273.451 285.821 273.381 285.821ZM269.114 279.131C269.034 279.131 268.954 279.083 268.898 278.991C268.245 277.924 267.619 276.882 267.021 275.862C266.92 275.691 266.938 275.437 267.059 275.296C267.18 275.154 267.362 275.179 267.462 275.35C268.058 276.364 268.68 277.403 269.331 278.466C269.434 278.634 269.42 278.888 269.3 279.033C269.247 279.098 269.181 279.131 269.114 279.131ZM265.061 272.186C264.976 272.186 264.892 272.133 264.836 272.031C264.224 270.926 263.632 269.827 263.078 268.766C262.985 268.587 263.013 268.335 263.14 268.203C263.266 268.072 263.445 268.11 263.54 268.289C264.091 269.345 264.679 270.437 265.287 271.537C265.384 271.712 265.362 271.965 265.237 272.101C265.184 272.159 265.123 272.186 265.061 272.186ZM261.298 264.927C261.207 264.927 261.117 264.866 261.062 264.75C260.502 263.586 259.969 262.429 259.475 261.312C259.392 261.123 259.434 260.875 259.567 260.759C259.701 260.642 259.877 260.699 259.961 260.888C260.451 261.997 260.981 263.145 261.535 264.299C261.624 264.484 261.59 264.735 261.458 264.858C261.41 264.906 261.354 264.927 261.298 264.927ZM257.965 257.269C257.863 257.269 257.765 257.193 257.713 257.059C257.234 255.817 256.791 254.585 256.395 253.395C256.328 253.194 256.39 252.955 256.533 252.86C256.675 252.766 256.846 252.852 256.913 253.054C257.304 254.229 257.743 255.447 258.216 256.675C258.292 256.87 258.24 257.113 258.101 257.219C258.058 257.253 258.011 257.269 257.965 257.269ZM255.322 249.103C255.204 249.103 255.094 249 255.053 248.836C254.71 247.483 254.425 246.154 254.207 244.888C254.171 244.672 254.265 244.455 254.419 244.402C254.574 244.355 254.727 244.484 254.764 244.7C254.977 245.939 255.255 247.239 255.591 248.565C255.644 248.774 255.566 249.005 255.418 249.079C255.386 249.095 255.354 249.103 255.322 249.103ZM292.487 242.472C292.477 242.472 292.469 242.471 292.46 242.471C291.797 242.387 290.846 242.219 289.555 241.959C289.398 241.928 289.29 241.723 289.312 241.504C289.335 241.283 289.482 241.133 289.636 241.162C290.918 241.422 291.858 241.587 292.512 241.669C292.668 241.689 292.784 241.884 292.771 242.106C292.757 242.314 292.632 242.472 292.487 242.472ZM295.762 241.285C295.682 241.285 295.602 241.238 295.545 241.145C295.442 240.976 295.455 240.722 295.575 240.578C296.186 239.841 296.655 238.742 296.972 237.311C297.018 237.1 297.177 236.979 297.33 237.047C297.48 237.112 297.565 237.337 297.518 237.55C297.17 239.127 296.642 240.35 295.949 241.187C295.894 241.253 295.828 241.285 295.762 241.285ZM286.14 241.229C286.125 241.229 286.111 241.227 286.096 241.224L283.22 240.588C283.064 240.554 282.957 240.348 282.982 240.128C283.007 239.909 283.156 239.759 283.309 239.794L286.184 240.43C286.34 240.465 286.446 240.669 286.422 240.89C286.401 241.087 286.279 241.229 286.14 241.229ZM253.943 240.364C253.794 240.364 253.668 240.201 253.657 239.99C253.615 239.124 253.609 238.397 253.609 237.8L253.611 237.067C253.61 236.711 253.73 236.212 254.305 235.86C254.45 235.773 254.618 235.864 254.681 236.068C254.744 236.271 254.678 236.508 254.534 236.597C254.3 236.74 254.183 236.898 254.183 237.067L254.181 237.8C254.181 238.384 254.187 239.093 254.228 239.935C254.239 240.156 254.12 240.348 253.963 240.364C253.955 240.364 253.949 240.364 253.943 240.364ZM279.816 239.826C279.801 239.826 279.786 239.824 279.771 239.821C278.83 239.613 277.868 239.402 276.896 239.191C276.741 239.158 276.633 238.952 276.657 238.733C276.681 238.514 276.825 238.364 276.983 238.396C277.956 238.606 278.917 238.817 279.86 239.026C280.016 239.06 280.123 239.266 280.098 239.486C280.076 239.684 279.954 239.826 279.816 239.826ZM273.486 238.463C273.472 238.463 273.457 238.462 273.444 238.46C272.481 238.26 271.518 238.065 270.565 237.878C270.409 237.847 270.299 237.643 270.321 237.424C270.344 237.204 270.491 237.057 270.644 237.081C271.598 237.268 272.562 237.463 273.527 237.663C273.683 237.696 273.792 237.9 273.769 238.12C273.747 238.319 273.625 238.463 273.486 238.463ZM267.144 237.235C267.132 237.235 267.119 237.234 267.108 237.231C266.117 237.056 265.151 236.897 264.223 236.756C264.066 236.733 263.952 236.533 263.969 236.313C263.986 236.093 264.128 235.937 264.284 235.957C265.216 236.098 266.185 236.259 267.179 236.434C267.335 236.462 267.447 236.662 267.427 236.883C267.409 237.086 267.285 237.235 267.144 237.235ZM260.775 236.305C260.767 236.305 260.761 236.305 260.754 236.305C259.66 236.19 258.688 236.126 257.864 236.113C257.706 236.109 257.58 235.928 257.581 235.706C257.583 235.486 257.711 235.309 257.868 235.309C257.869 235.309 257.87 235.309 257.871 235.309C258.707 235.323 259.691 235.388 260.796 235.502C260.953 235.519 261.071 235.711 261.061 235.933C261.049 236.144 260.923 236.305 260.775 236.305Z" fill="#E86B31"/>
<path d="M276.77 290.813C276.696 290.813 276.621 290.773 276.566 290.692C276.229 290.207 275.896 289.726 275.568 289.247C275.459 289.088 275.462 288.834 275.576 288.678C275.69 288.526 275.87 288.528 275.981 288.689C276.308 289.166 276.639 289.646 276.975 290.13C277.086 290.288 277.084 290.544 276.971 290.698C276.914 290.774 276.842 290.813 276.77 290.813Z" fill="#E86B31"/>
<path d="M279.781 222.235C283.224 235.515 293.017 245.65 302.623 251.577C302.775 251.248 302.917 250.906 303.049 250.555C303.436 249.411 303.754 248.244 304.006 247.072C305.275 240.47 304.364 232.328 303.969 229.453L293.621 225.317L282.701 222.031C282.701 222.033 281.605 222.096 279.781 222.235Z" fill="#E86B31"/>
<path d="M262.359 203.555L255.676 203.354C255.676 203.354 250.198 200.027 248.002 201.63C245.804 203.23 240.907 210.997 241.522 211.26C242.135 211.521 246.839 205.763 248.268 206.431C249.695 207.1 251.722 209.926 253.057 209.773C254.391 209.62 256.194 207.767 256.194 207.767L262.303 208.845L262.359 203.555Z" fill="#E4897B"/>
<path d="M288.7 170.08C285.725 179.816 280.891 222.175 280.891 222.175C280.891 222.175 289.417 237.354 305.983 237.354C305.983 237.354 309.492 202.434 308.019 182.556C306.547 162.677 295.031 149.36 288.7 170.08Z" fill="#E86B31"/>
<path d="M308.018 182.556C306.546 162.677 295.03 149.359 288.699 170.08C286.206 178.238 282.408 209.297 281.242 219.151C285.174 220.305 289.345 221.034 293.149 219.292C298.912 216.874 304.05 212.314 308.123 206.164C308.443 197.866 308.521 189.336 308.018 182.556Z" fill="url(#paint3_linear_1391_357965)"/>
<path d="M295.33 165.09C289.185 171.906 282.918 198.984 280.888 200.64C278.857 202.297 262.658 202.159 258.043 202.849V209.061C258.043 209.061 280.085 222.64 289.853 217.344C302.326 210.58 309.282 149.61 295.33 165.09Z" fill="#E86B31"/>
<path d="M290.309 166.437L289.665 149.35L285.448 150.356L284.161 142.716L281.016 142.013L285.662 125.329L297.6 122.916L296.424 149.249L298.338 159.852L290.309 166.437Z" fill="#E4897B"/>
<path d="M289.664 149.355L289.881 155.125L294.526 148.25L289.664 149.355Z" fill="#8B373A"/>
<path d="M281.016 142.017L284.161 142.72L284.939 141.6L281.016 142.017Z" fill="#EF7E82"/>
<path d="M286.665 136.735C286.665 137.651 286.394 138.394 286.058 138.394C285.721 138.394 285.449 137.651 285.449 136.735C285.449 135.82 285.721 135.076 286.058 135.076C286.394 135.077 286.665 135.82 286.665 136.735Z" fill="#11003D"/>
<path d="M289.069 141.833C289.058 143.051 288.944 144.243 288.458 145.278C287.945 146.372 286.992 146.782 286.122 146.97C285.901 147.017 285.996 147.489 286.214 147.441C287.133 147.244 288.088 146.792 288.665 145.703C289.261 144.577 289.406 143.205 289.417 141.833C289.42 141.517 289.072 141.517 289.069 141.833Z" fill="#8B373A"/>
<path d="M286.613 130.965C286.958 130.922 287.456 131.066 287.587 131.587C287.661 131.883 287.998 131.756 287.922 131.457C287.739 130.722 287.131 130.412 286.613 130.475C286.39 130.501 286.389 130.992 286.613 130.965Z" fill="#11003D"/>
<path d="M282.623 122.917C283.272 124.726 289.032 131.472 294.956 131.412C294.956 131.412 297.652 135.943 296.925 141.318C296.198 146.693 292.695 150.922 297.282 155.634C301.868 160.345 312.881 157.427 314.587 148.246C316.294 139.065 312.428 130.341 308.142 124.77C307.584 124.044 307.968 117.096 302.858 113.585C293.247 106.981 280.33 116.523 282.623 122.917Z" fill="#472E03"/>
<path d="M292.153 126.326C288.726 125.32 287.344 121.277 286.288 117.026C286.167 116.54 285.614 116.749 285.736 117.239C286.521 120.402 287.426 123.51 289.385 125.58C291.888 128.222 295.47 126.87 297.821 130.006C300.589 133.698 299.089 139.823 298.061 144.096C297.155 147.855 296.307 151.044 298.206 154.432C298.433 154.839 298.836 154.266 298.61 153.864C296.381 149.886 298.564 144.947 299.42 140.733C300.177 137.002 300.231 133.204 298.549 129.963C297.103 127.179 294.34 126.968 292.153 126.326Z" fill="#33138C"/>
<path d="M303.883 140.745C304.605 137.115 304.965 133.536 303.761 130.023C302.655 126.793 300.21 124.839 298.086 123.151C295.135 120.805 292.713 118.179 290.808 114.173C290.605 113.745 290.109 114.147 290.315 114.579C291.902 117.919 293.879 120.601 296.328 122.674C299.123 125.041 302.32 126.942 303.602 131.512C305.694 138.965 299.02 148.244 304.772 153.973C305.073 154.274 305.358 153.576 305.06 153.279C301.871 150.102 302.984 145.272 303.883 140.745Z" fill="#33138C"/>
<path d="M310.745 139.748C310.592 136.285 309.548 133.068 308.336 130.107C305.713 123.7 301.849 118.472 298.454 112.9C298.214 112.506 297.811 113.078 298.05 113.469C301.535 119.189 305.394 124.53 308.084 131.104C309.518 134.606 310.411 138.476 310.154 142.549C309.961 145.592 308.421 149.088 309.446 152.043C309.608 152.509 310.101 152.1 309.94 151.636C309.235 149.605 310.113 146.956 310.445 144.901C310.719 143.194 310.821 141.495 310.745 139.748Z" fill="#33138C"/>
<path d="M301.101 139C301.101 141.966 299.39 144.371 297.281 144.371C295.171 144.371 293.461 141.966 293.461 139C293.461 136.034 295.171 133.629 297.281 133.629C299.39 133.629 301.101 136.034 301.101 139Z" fill="#E4897B"/>
<path d="M298.726 136.281C297.433 136.04 296.297 136.381 295.521 137.943C294.634 139.725 294.821 141.821 295.836 143.369C295.988 143.601 296.235 143.254 296.082 143.022C296.01 142.914 295.945 142.802 295.885 142.69C296.579 142.381 297.009 141.463 296.885 140.421C296.755 139.334 296.046 139.146 295.425 139.399C295.543 138.821 295.76 138.255 296.069 137.731C296.721 136.628 297.802 136.6 298.726 136.771C298.948 136.812 298.945 136.321 298.726 136.281ZM296.549 140.55C296.679 141.382 296.223 142.077 295.684 142.265C295.378 141.531 295.268 140.741 295.342 139.957C295.839 139.643 296.409 139.661 296.549 140.55Z" fill="#8B373A"/>
<path d="M296.59 258.855H294.371V318.999H296.59V258.855Z" fill="#494949"/>
<path d="M298.048 258.855H292.914V272.671H298.048V258.855Z" fill="#F1F8FF"/>
<path d="M279.459 249.942C279.459 249.942 279.475 249.946 279.506 249.956C279.527 249.957 279.559 249.959 279.601 249.961C279.705 249.978 279.863 250.008 280.074 250.059C280.498 250.149 281.136 250.274 281.936 250.417C282.735 250.566 283.705 250.702 284.789 250.814C285.874 250.914 287.076 250.97 288.34 250.899C289.6 250.83 290.922 250.67 292.226 250.277C292.883 250.117 293.531 249.866 294.172 249.585C294.496 249.459 294.809 249.285 295.13 249.139C295.439 248.946 295.761 248.795 296.067 248.584C297.312 247.819 298.5 246.799 299.659 245.565C299.71 245.509 299.269 246.012 299.464 245.788L299.481 245.767L299.516 245.725L299.587 245.641L299.729 245.472L299.87 245.303L299.936 245.223L299.929 245.219C299.919 245.215 299.913 245.217 299.909 245.223C299.908 245.225 299.906 245.23 299.907 245.235C299.903 245.248 299.939 245.18 299.954 245.156C300.108 244.915 300.287 244.584 300.472 244.221C300.841 243.474 301.222 242.521 301.592 241.538C302.319 239.533 302.963 237.258 303.501 234.957C303.765 233.802 304.021 232.638 304.245 231.475C304.455 230.305 304.656 229.142 304.834 227.989C305.175 225.679 305.438 223.417 305.597 221.26C305.769 219.104 305.852 217.052 305.855 215.164C305.858 213.278 305.82 211.534 305.708 210.007C305.668 209.234 305.59 208.53 305.541 207.857C305.468 207.195 305.401 206.586 305.341 206.036C305.19 204.949 305.082 204.066 304.965 203.491C304.872 202.895 304.822 202.578 304.822 202.578L304.768 202.242C304.468 200.329 305.327 198.435 306.688 198.012C307.706 197.696 308.716 198.294 309.287 199.415C309.287 199.415 309.45 199.737 309.757 200.34C310.066 200.947 310.475 201.865 310.975 203.074C311.198 203.687 311.462 204.366 311.719 205.125C311.949 205.889 312.244 206.711 312.473 207.618C312.986 209.422 313.423 211.511 313.805 213.825C313.989 214.985 314.144 216.197 314.286 217.46C314.403 218.721 314.51 220.032 314.58 221.381C314.705 224.078 314.711 226.932 314.539 229.869C314.385 232.81 314.044 235.829 313.528 238.88C313.269 240.405 312.953 241.937 312.599 243.477C312.221 245.014 311.808 246.548 311.295 248.097C310.788 249.652 310.219 251.198 309.46 252.776C309.075 253.571 308.662 254.37 308.163 255.188C308.096 255.297 308.058 255.37 307.967 255.507L307.706 255.896C307.529 256.152 307.349 256.405 307.167 256.652L307.031 256.836L306.956 256.929L306.816 257.1L306.677 257.272L306.607 257.358L306.572 257.401L306.323 257.687C304.347 259.845 302.095 261.5 299.818 262.609C299.253 262.905 298.669 263.088 298.103 263.32C297.529 263.499 296.963 263.693 296.399 263.824C295.269 264.077 294.162 264.222 293.097 264.254C290.961 264.309 289.003 263.938 287.275 263.37C285.545 262.793 284.038 262.043 282.764 261.226C281.486 260.427 280.438 259.573 279.599 258.824C278.762 258.07 278.142 257.388 277.718 256.904C277.505 256.665 277.342 256.465 277.231 256.324C277.165 256.246 277.115 256.187 277.081 256.147C277.058 256.115 277.046 256.098 277.046 256.098C276.03 254.667 276.032 252.35 277.049 250.921C277.691 250.021 278.583 249.689 279.41 249.926L279.459 249.942Z" fill="#494949"/>
<path d="M283.215 320.476C283.215 316.811 288.705 313.84 295.478 313.84C302.251 313.84 307.742 316.811 307.742 320.476H283.215Z" fill="white"/>
<path opacity="0.1" d="M300.964 253.451C313.339 244.665 310.508 208.174 306.369 198.162C305.2 198.764 304.494 200.489 304.769 202.245L304.823 202.58C304.823 202.58 304.873 202.897 304.966 203.493C305.083 204.068 305.19 204.951 305.342 206.039C305.402 206.589 305.469 207.197 305.542 207.86C305.591 208.532 305.669 209.237 305.709 210.009C305.82 211.536 305.859 213.28 305.856 215.167C305.853 217.055 305.77 219.107 305.598 221.263C305.439 223.419 305.176 225.681 304.835 227.991C304.657 229.145 304.455 230.307 304.246 231.477C304.022 232.641 303.766 233.804 303.502 234.959C302.963 237.26 302.319 239.535 301.593 241.54C301.223 242.524 300.842 243.477 300.473 244.223C300.288 244.587 300.109 244.918 299.955 245.158C299.944 245.175 299.925 245.209 299.916 245.225C299.92 245.222 299.923 245.218 299.93 245.222L299.937 245.225L299.871 245.305L299.73 245.475L299.605 245.623C299.623 245.604 299.641 245.587 299.66 245.568C299.71 245.512 299.27 246.015 299.464 245.792L299.482 245.771L299.517 245.729L299.587 245.644L299.605 245.624C298.462 246.832 297.293 247.835 296.066 248.588C295.761 248.799 295.439 248.951 295.13 249.143C294.809 249.29 294.495 249.463 294.172 249.59C293.53 249.869 292.883 250.121 292.226 250.281C290.922 250.674 289.6 250.834 288.34 250.903C287.077 250.974 285.874 250.918 284.789 250.818C283.705 250.707 282.735 250.571 281.936 250.421C281.137 250.278 280.498 250.153 280.074 250.063C279.863 250.012 279.705 249.982 279.6 249.965C279.559 249.963 279.527 249.961 279.506 249.96C279.475 249.95 279.459 249.946 279.459 249.946L279.41 249.931C278.584 249.693 277.691 250.025 277.049 250.926C276.809 251.263 276.631 251.653 276.504 252.066C281.016 255.499 290.66 260.768 300.964 253.451Z" fill="#74A1D8"/>
<path d="M103.165 215.484H97.8359V326.774H103.165V215.484Z" fill="#494949"/>
<path d="M258.004 215.484H252.676V326.774H258.004V215.484Z" fill="#494949"/>
<path d="M285.623 217.514H70.2305V223.984H285.623V217.514Z" fill="#F1F8FF"/>
<path d="M290.948 215.483C290.948 217.31 289.895 218.789 288.597 218.789H67.25C65.9517 218.789 64.8984 217.309 64.8984 215.483C64.8984 213.657 65.9517 212.178 67.25 212.178H288.597C289.895 212.178 290.948 213.657 290.948 215.483Z" fill="#7D4D00"/>
<defs>
<linearGradient id="paint0_linear_1391_357965" x1="179.403" y1="139.464" x2="211.806" y2="139.67" gradientUnits="userSpaceOnUse">
<stop stop-color="#FB8D48"/>
<stop offset="0.2" stop-color="#ED7136"/>
<stop offset="0.3999" stop-color="#C54E47"/>
<stop offset="0.4" stop-color="#C14F49"/>
<stop offset="0.6" stop-color="#9D3863"/>
<stop offset="0.8" stop-color="#5E1F72"/>
</linearGradient>
<linearGradient id="paint1_linear_1391_357965" x1="187.399" y1="137.899" x2="211.774" y2="138.02" gradientUnits="userSpaceOnUse">
<stop stop-color="#FB8D48"/>
<stop offset="0.2" stop-color="#ED7136"/>
<stop offset="0.3999" stop-color="#C54E47"/>
<stop offset="0.4" stop-color="#C14F49"/>
<stop offset="0.6" stop-color="#9D3863"/>
<stop offset="0.8" stop-color="#5E1F72"/>
</linearGradient>
<linearGradient id="paint2_linear_1391_357965" x1="11.1548" y1="185.891" x2="40.315" y2="186.092" gradientUnits="userSpaceOnUse">
<stop stop-color="#FB8D48"/>
<stop offset="0.2" stop-color="#ED7136"/>
<stop offset="0.3999" stop-color="#C54E47"/>
<stop offset="0.4" stop-color="#C14F49"/>
<stop offset="0.6" stop-color="#9D3863"/>
<stop offset="0.8" stop-color="#5E1F72"/>
</linearGradient>
<linearGradient id="paint3_linear_1391_357965" x1="281.714" y1="185.778" x2="308.479" y2="186.01" gradientUnits="userSpaceOnUse">
<stop stop-color="#FB8D48"/>
<stop offset="0.2" stop-color="#ED7136"/>
<stop offset="0.3999" stop-color="#C54E47"/>
<stop offset="0.4" stop-color="#C14F49"/>
<stop offset="0.6" stop-color="#9D3863"/>
<stop offset="0.8" stop-color="#5E1F72"/>
</linearGradient>
</defs>
</svg>
