<svg width="407" height="439" viewBox="0 0 407 439" fill="none" xmlns="http://www.w3.org/2000/svg">
<path d="M191.721 99.0304L181.378 97.1071C181.948 90.1433 181.537 83.2786 180.25 76.6603L189.944 73.2315C192.593 72.2944 193.997 69.3227 193.085 66.5875L190.651 59.2912C189.734 56.5391 186.828 55.0463 184.157 55.9634L174.603 59.2426C171.642 52.8574 167.799 46.8801 163.187 41.4936L169.754 33.8956C171.639 31.7156 171.398 28.3357 169.214 26.3379L163.375 20.9964C161.167 18.9772 157.824 19.108 155.911 21.2975L149.349 28.8061C143.513 24.6266 137.005 21.1804 129.933 18.6592L131.813 8.64702C132.367 5.6933 130.408 2.73181 127.427 2.03019L119.449 0.152388C116.43 -0.558305 113.52 1.28451 112.96 4.27062L111.059 14.393C103.428 13.6084 95.8679 13.9375 88.5681 15.2728L84.9145 5.11331C83.8409 2.12785 80.5306 0.426914 77.5143 1.3216L69.4469 3.71428C66.3961 4.61916 64.8102 7.79817 65.9114 10.8078L69.7193 21.2149C62.8193 24.3778 56.4058 28.511 50.6958 33.4907L41.6981 25.9053C39.1472 23.7546 35.3275 23.9042 33.1701 26.2493L27.4138 32.5066C25.2422 34.8674 25.5818 38.5238 28.1688 40.6634L37.5033 48.3833C33.3661 54.4929 30.0765 61.257 27.8279 68.5531L15.3288 66.2287C11.9649 65.6031 8.75128 67.6386 8.16206 70.777L6.59523 79.1231C6.00601 82.2614 8.27009 85.285 11.6407 85.8745L24.4976 88.123C24.2136 95.6075 25.0512 102.941 26.8825 109.946L14.3546 114.246C11.16 115.343 9.51461 118.641 10.6867 121.605L13.7933 129.461C14.9577 132.406 18.4728 133.879 21.6377 132.759L34.3357 128.268C37.895 134.539 42.3239 140.293 47.4858 145.359L38.7815 155.318C36.6594 157.746 36.9869 161.271 39.5092 163.181L46.1791 168.232C48.6729 170.121 52.3839 169.687 54.4715 167.272L63.1305 157.254C69.1677 160.748 75.7382 163.48 82.7269 165.309L80.3731 177.847C79.8123 180.833 81.8622 183.571 84.9416 183.96L93.0787 184.99C96.1191 185.375 99.0257 183.291 99.5802 180.338L101.909 167.935C109.003 168.051 115.927 167.222 122.538 165.567L126.694 176.926C127.687 179.641 130.763 180.93 133.56 179.813L140.956 176.86C143.723 175.755 145.175 172.681 144.206 169.986L140.195 158.832C146.257 155.646 151.864 151.695 156.865 147.101L165.679 154.39C167.842 156.18 171.099 155.799 172.957 153.547L177.88 147.578C179.726 145.341 179.494 142.074 177.358 140.273L168.857 133.107C172.568 127.548 175.578 121.454 177.745 114.924L188.388 116.785C191.132 117.265 193.778 115.368 194.307 112.55L195.714 105.054C196.243 102.236 194.459 99.5396 191.721 99.0304ZM96.4268 145.017C65.6178 140.408 44.4715 111.856 50.1908 81.3922C55.91 50.9284 86.0335 31.6624 116.49 38.1507C145.911 44.4185 164.683 72.5422 159.311 101.157C153.939 129.772 126.189 149.469 96.4268 145.017Z" fill="url(#paint0_linear_1551_309069)"/>
<path d="M160.129 19.5781L168.605 21.257L167.429 27.5211L160.129 19.5781Z" fill="#97A6B7"/>
<path d="M186.822 55.8691L195.223 57.8002L192.217 62.1433L186.822 55.8691Z" fill="#97A6B7"/>
<path d="M192.438 99.2559L200.86 101.538L197.288 105.161L192.438 99.2559Z" fill="#97A6B7"/>
<path d="M167.199 155.245L175.272 157.987L177.559 151.406L167.199 155.245Z" fill="#97A6B7"/>
<path d="M129.719 179.849L136.914 182.602L138.539 177.211L129.719 179.849Z" fill="#97A6B7"/>
<path d="M89.998 186.062L83.5332 183.621L90.8944 176.152L89.998 186.062Z" fill="#97A6B7"/>
<path d="M55.1166 172.062L47.6309 168.991L55.0078 162.84L55.1166 172.062Z" fill="#97A6B7"/>
<path d="M9.40625 85.0527L16.6486 87.5516L17.2004 81.3457L9.40625 85.0527Z" fill="#97A6B7"/>
<path d="M17.0312 132.664L24.0886 135.216L25.5869 130.502L17.0312 132.664Z" fill="#97A6B7"/>
<path d="M199.951 101.271L189.522 99.3314C190.097 92.3108 189.682 85.3901 188.385 78.7178L198.159 75.2614C200.83 74.3167 202.246 71.3208 201.326 68.5633L198.872 61.2074C197.947 58.433 195.017 56.9278 192.323 57.8523L182.691 61.1582C179.705 54.7208 175.83 48.6946 171.18 43.264L177.801 35.6043C179.701 33.4066 179.458 29.9992 177.256 27.9851L171.368 22.6C169.142 20.5643 165.772 20.6961 163.842 22.9035L157.226 30.4732C151.341 26.2595 144.78 22.7849 137.649 20.2433L139.544 10.1494C140.103 7.17156 138.127 4.18609 135.122 3.47864L127.078 1.58529C124.033 0.868768 121.1 2.72648 120.535 5.73704L118.619 15.9417C110.924 15.1505 103.301 15.4822 95.9413 16.8281L92.2571 6.58573C91.1746 3.57581 87.837 1.86111 84.7957 2.76292L76.6616 5.17487C73.5856 6.08688 71.9865 9.29198 73.0971 12.3262L76.9367 22.8183C69.9796 26.0069 63.5133 30.1735 57.7561 35.1937L48.6838 27.5462C46.1116 25.378 42.2602 25.5286 40.0852 27.8928L34.2814 34.2009C32.0918 36.5808 32.4344 40.267 35.0428 42.4242L44.4548 50.2074C40.2836 56.3666 36.9667 63.1859 34.6997 70.5413L22.0971 68.1977C18.7052 67.567 15.465 69.6188 14.8709 72.7827L13.2913 81.1969C12.6972 84.3608 14.9801 87.4091 18.3787 88.0035L31.3422 90.2707C31.0561 97.816 31.9007 105.209 33.7475 112.272L21.1159 116.607C17.8949 117.712 16.236 121.037 17.4178 124.025L20.5503 131.946C21.7244 134.914 25.2686 136.399 28.4596 135.271L41.2626 130.743C44.8517 137.065 49.3172 142.866 54.522 147.974L45.7458 158.014C43.6062 160.462 43.9365 164.015 46.4796 165.941L53.2048 171.034C55.7194 172.938 59.4611 172.5 61.5658 170.065L70.2963 159.966C76.3836 163.489 83.0086 166.243 90.0553 168.087L87.682 180.728C87.1169 183.738 89.1837 186.498 92.2887 186.891L100.493 187.929C103.559 188.317 106.49 186.217 107.049 183.239L109.396 170.736C116.549 170.853 123.53 170.017 130.196 168.349L134.387 179.801C135.388 182.537 138.49 183.836 141.31 182.711L148.767 179.734C151.557 178.62 153.021 175.521 152.044 172.804L147.999 161.559C154.112 158.347 159.765 154.365 164.807 149.733L173.694 157.082C175.876 158.886 179.16 158.502 181.032 156.232L185.997 150.215C187.858 147.959 187.623 144.665 185.47 142.85L176.899 135.625C180.64 130.021 183.675 123.877 185.86 117.294L196.591 119.171C199.358 119.654 202.026 117.742 202.559 114.901L203.978 107.344C204.511 104.503 202.712 101.784 199.951 101.271ZM103.869 147.63C72.8047 142.983 51.4825 114.197 57.2484 83.4849C63.0142 52.773 93.3868 33.3506 124.095 39.8926C153.761 46.2122 172.689 74.5658 167.273 103.414C161.857 132.262 133.878 152.119 103.869 147.63Z" fill="url(#paint1_linear_1551_309069)"/>
<path d="M264.568 386.643C258.523 384.638 254.004 379.507 252.73 373.2L243.93 329.648L168.656 332.321L159.392 377.693C158.095 384.047 163.288 390.422 169.27 392.762L200.763 405.084C206.62 407.376 212.917 408.289 219.175 407.753L285.731 402.06C287.676 401.893 289.237 400.364 289.463 398.402C289.69 396.44 291.053 394.236 289.198 393.621L264.568 386.643Z" fill="#97A6B7"/>
<path d="M265.313 383.993C259.273 382.013 254.759 376.946 253.486 370.719L244.695 327.715L171.256 330.357L162.001 375.158C160.705 381.432 164.134 387.724 170.11 390.035L201.571 402.202C207.423 404.465 213.713 405.366 219.964 404.838L286.453 399.216C288.397 399.051 289.956 397.541 290.182 395.604C290.409 393.666 289.239 391.838 287.386 391.23L265.313 383.993Z" fill="url(#paint2_linear_1551_309069)"/>
<path d="M14.841 358.596C6.67805 359.083 0 353.787 0 346.789V94.5536C0 87.5554 6.67805 82.151 14.841 82.5047L393.982 108.752C399.974 109.012 403.19 104.174 403.19 110.126V324.65C403.19 330.602 398.338 335.734 392.345 336.091L14.841 358.596Z" fill="#97A6B7"/>
<path d="M18.2297 358.596C10.0667 359.083 3.38867 353.787 3.38867 346.789V94.5536C3.38867 87.5554 10.0667 82.151 18.2297 82.5047L395.733 98.8615C401.726 99.1213 406.579 104.174 406.579 110.126V324.65C406.579 330.602 401.726 335.734 395.733 336.091L18.2297 358.596Z" fill="url(#paint3_linear_1551_309069)"/>
<path opacity="0.3" d="M395.266 99.0474L17.7625 83.5176C13.8702 88.2025 10.3223 91.0859 10.3223 94.8229V290.995V346.41C10.3223 350.147 13.8704 352.972 18.2343 352.722L395.738 331.044C398.95 330.859 401.547 328.122 401.547 324.928V275.889V109.933C401.547 106.74 398.95 104.044 395.266 99.0474Z" fill="#D8DEE8"/>
<path d="M392.928 312.886L22.3209 331.18C18.4311 331.372 15.2695 328.8 15.2695 325.436V98.121C15.2695 94.7566 18.4311 92.1466 22.3209 92.2909L392.928 106.047C395.836 106.155 398.189 108.593 398.189 111.492V307.376C398.189 310.276 395.836 312.742 392.928 312.886Z" fill="#263238"/>
<path opacity="0.6" d="M114.775 116.301L30.1367 113.812V105.742L114.775 108.48V116.301Z" fill="white"/>
<path opacity="0.36" d="M154.632 115.238L135.08 114.646V109.133L154.632 109.765V115.238Z" fill="white"/>
<path opacity="0.36" d="M154.632 122.837L135.08 122.302V116.789L154.632 117.365V122.837Z" fill="white"/>
<path d="M252.067 125.508L176.213 123.431V118.004L252.067 120.238V125.508Z" fill="url(#paint4_linear_1551_309069)"/>
<path d="M264.508 133.135L189.408 131.297V125.896L264.508 127.891V133.135Z" fill="url(#paint5_linear_1551_309069)"/>
<path d="M264.508 140.416L189.408 138.795V133.395L264.508 135.172V140.416Z" fill="url(#paint6_linear_1551_309069)"/>
<path opacity="0.6" d="M264.508 147.709L189.408 146.304V140.904L264.508 142.465V147.709Z" fill="white"/>
<path opacity="0.36" d="M154.632 130.447L135.08 129.968V124.455L154.632 124.974V130.447Z" fill="white"/>
<path opacity="0.36" d="M154.632 138.047L135.08 137.625V132.111L154.632 132.574V138.047Z" fill="white"/>
<path opacity="0.36" d="M154.632 145.652L135.08 145.287V139.773L154.632 140.18V145.652Z" fill="white"/>
<path opacity="0.36" d="M154.632 153.256L135.08 152.947V147.434L154.632 147.783V153.256Z" fill="white"/>
<path opacity="0.6" d="M207.025 154.084L158.898 153.323V147.859L207.025 148.72V154.084Z" fill="white"/>
<path opacity="0.36" d="M154.632 160.859L135.08 160.607V155.094L154.632 155.387V160.859Z" fill="white"/>
<path opacity="0.36" d="M154.632 168.463L135.08 168.267V162.754L154.632 162.99V168.463Z" fill="white"/>
<path opacity="0.36" d="M154.632 176.065L135.08 175.925V170.412L154.632 170.592V176.065Z" fill="white"/>
<path d="M229.572 161.826L176.213 161.137V155.709L229.572 156.509V161.826Z" fill="url(#paint7_linear_1551_309069)"/>
<path opacity="0.6" d="M257.295 169.489L189.408 168.808V163.408L257.295 164.23V169.489Z" fill="white"/>
<path d="M257.295 176.799L189.408 176.314V170.914L257.295 171.54V176.799Z" fill="url(#paint8_linear_1551_309069)"/>
<path opacity="0.36" d="M154.632 183.668L135.08 183.585V178.072L154.632 178.196V183.668Z" fill="white"/>
<path opacity="0.36" d="M154.632 191.272L135.08 191.246V185.732L154.632 185.799V191.272Z" fill="white"/>
<path opacity="0.36" d="M154.632 198.876L135.08 198.906V193.393L154.632 193.403V198.876Z" fill="white"/>
<path opacity="0.36" d="M154.632 206.482L135.08 206.569V201.056L154.632 201.01V206.482Z" fill="white"/>
<path opacity="0.36" d="M154.632 214.082L135.08 214.225V208.712L154.632 208.609V214.082Z" fill="white"/>
<path opacity="0.36" d="M154.632 221.685L135.08 221.885V216.372L154.632 216.213V221.685Z" fill="white"/>
<path opacity="0.36" d="M154.632 229.293L135.08 229.549V224.036L154.632 223.82V229.293Z" fill="white"/>
<path opacity="0.36" d="M154.632 236.894L135.08 237.207V231.694L154.632 231.422V236.894Z" fill="white"/>
<path opacity="0.36" d="M154.632 244.496L135.08 244.865V239.352L154.632 239.023V244.496Z" fill="white"/>
<path opacity="0.36" d="M154.632 252.101L135.08 252.527V247.014L154.632 246.629V252.101Z" fill="white"/>
<path opacity="0.36" d="M154.632 259.707L135.08 260.189V254.676L154.632 254.234V259.707Z" fill="white"/>
<path opacity="0.36" d="M154.632 267.308L135.08 267.847V262.334L154.632 261.836V267.308Z" fill="white"/>
<path opacity="0.36" d="M154.632 274.914L135.08 275.509V269.996L154.632 269.441V274.914Z" fill="white"/>
<path opacity="0.36" d="M154.632 282.516L135.08 283.167V277.654L154.632 277.043V282.516Z" fill="white"/>
<path opacity="0.36" d="M154.632 290.121L135.08 290.829V285.316L154.632 284.648V290.121Z" fill="white"/>
<path opacity="0.36" d="M154.632 297.725L135.08 298.49V292.976L154.632 292.252V297.725Z" fill="white"/>
<path opacity="0.36" d="M154.632 305.326L135.08 306.148V300.634L154.632 299.854V305.326Z" fill="white"/>
<path opacity="0.36" d="M154.632 312.932L135.08 313.81V308.296L154.632 307.459V312.932Z" fill="white"/>
<path d="M212.091 116.974L158.768 115.36V109.896L212.091 111.621V116.974Z" fill="url(#paint9_linear_1551_309069)"/>
<path opacity="0.6" d="M252.067 271.946L176.213 274.255V268.828L252.067 266.676V271.946Z" fill="white"/>
<path d="M264.508 278.855L189.408 281.359V275.959L264.508 273.611V278.855Z" fill="url(#paint10_linear_1551_309069)"/>
<path d="M264.508 286.138L189.408 288.86V283.459L264.508 280.895V286.138Z" fill="url(#paint11_linear_1551_309069)"/>
<path d="M296.87 292.157L223.715 295.019V289.69L296.87 286.98V292.157Z" fill="url(#paint12_linear_1551_309069)"/>
<path d="M296.87 299.352L223.715 302.426V297.097L296.87 294.176V299.352Z" fill="url(#paint13_linear_1551_309069)"/>
<path opacity="0.6" d="M296.87 306.542L223.715 309.827V304.498L296.87 301.365V306.542Z" fill="white"/>
<path d="M212.091 265.722L158.768 267.192V261.728L212.091 260.369V265.722Z" fill="url(#paint14_linear_1551_309069)"/>
<path d="M252.067 191.405L176.213 191.303V185.875L252.067 186.135V191.405Z" fill="url(#paint15_linear_1551_309069)"/>
<path opacity="0.6" d="M264.508 198.704L189.408 198.82V193.42L264.508 193.461V198.704Z" fill="white"/>
<path d="M264.508 205.994L189.408 206.327V200.927L264.508 200.75V205.994Z" fill="url(#paint16_linear_1551_309069)"/>
<path d="M264.508 213.277L189.408 213.827V208.427L264.508 208.033V213.277Z" fill="url(#paint17_linear_1551_309069)"/>
<path d="M207.025 221.155L158.898 221.646V216.182L207.025 215.791V221.155Z" fill="url(#paint18_linear_1551_309069)"/>
<path opacity="0.6" d="M229.572 228.307L176.213 229.006V223.578L229.572 222.99V228.307Z" fill="white"/>
<path d="M257.295 235.251L189.408 236.337V230.937L257.295 229.992V235.251Z" fill="url(#paint19_linear_1551_309069)"/>
<path d="M257.295 242.558L189.408 243.84V238.44L257.295 237.299V242.558Z" fill="url(#paint20_linear_1551_309069)"/>
<path d="M272.343 249.54L205.273 251.001V245.634L272.343 244.312V249.54Z" fill="url(#paint21_linear_1551_309069)"/>
<path opacity="0.5" d="M272.343 256.8L205.273 258.455V253.087L272.343 251.572V256.8Z" fill="url(#paint22_linear_1551_309069)"/>
<path d="M212.091 183.915L158.768 183.689V178.225L212.091 178.562V183.915Z" fill="url(#paint23_linear_1551_309069)"/>
<path d="M114.775 128.518L66.3301 127.315V119.352L114.775 120.696V128.518Z" fill="white"/>
<path opacity="0.6" d="M53.8008 127.006L62.9251 127.233V119.259L53.8008 119.006V127.006Z" fill="white"/>
<path opacity="0.6" d="M114.775 139.764L66.3301 138.764V130.801L114.775 131.942V139.764Z" fill="white"/>
<path opacity="0.6" d="M53.8008 138.508L62.9251 138.696V130.723L53.8008 130.508V138.508Z" fill="white"/>
<path opacity="0.6" d="M114.775 151.007L66.3301 150.212V142.248L114.775 143.185V151.007Z" fill="white"/>
<path opacity="0.6" d="M53.8008 150.004L62.9251 150.154V142.18L53.8008 142.004V150.004Z" fill="white"/>
<path d="M114.775 230.82L30.1367 231.961V223.891L114.775 222.998V230.82Z" fill="white"/>
<path opacity="0.6" d="M114.775 243.039L66.3301 243.913V235.95L114.775 235.217V243.039Z" fill="white"/>
<path opacity="0.6" d="M53.8008 244.14L62.9251 243.976V236.002L53.8008 236.14V244.14Z" fill="white"/>
<path opacity="0.6" d="M114.775 254.285L66.3301 255.364V247.4L114.775 246.463V254.285Z" fill="white"/>
<path opacity="0.6" d="M53.8008 255.642L62.9251 255.438V247.465L53.8008 247.641V255.642Z" fill="white"/>
<path opacity="0.6" d="M114.775 265.527L66.3301 266.81V258.846L114.775 257.705V265.527Z" fill="white"/>
<path opacity="0.6" d="M53.8008 267.145L62.9251 266.903V258.93L53.8008 259.145V267.145Z" fill="white"/>
<path d="M114.775 162.327L30.1367 161.296V153.227L114.775 154.505V162.327Z" fill="white"/>
<path opacity="0.6" d="M114.775 174.548L66.3301 174.181V166.217L114.775 166.727V174.548Z" fill="white"/>
<path opacity="0.6" d="M53.8008 174.084L62.9251 174.154V166.18L53.8008 166.084V174.084Z" fill="white"/>
<path opacity="0.6" d="M114.775 185.792L66.3301 185.628V177.664L114.775 177.97V185.792Z" fill="white"/>
<path opacity="0.6" d="M53.8008 185.586L62.9251 185.617V177.644L53.8008 177.586V185.586Z" fill="white"/>
<path opacity="0.6" d="M114.775 208.425L66.3301 208.672V200.708L114.775 200.604V208.425Z" fill="white"/>
<path opacity="0.6" d="M53.8008 208.739L62.9251 208.692V200.719L53.8008 200.739V208.739Z" fill="white"/>
<path opacity="0.6" d="M114.775 219.668L66.3301 220.118V212.155L114.775 211.846V219.668Z" fill="white"/>
<path opacity="0.6" d="M53.8008 220.236L62.9251 220.151V212.178L53.8008 212.236V220.236Z" fill="white"/>
<path opacity="0.6" d="M114.775 197.035L66.3301 197.075V189.111L114.775 189.213V197.035Z" fill="white"/>
<path opacity="0.6" d="M53.8008 197.086L62.9251 197.079V189.105L53.8008 189.086V197.086Z" fill="white"/>
<path d="M114.775 276.765L30.1367 279.363V271.293L114.775 268.943V276.765Z" fill="white"/>
<path opacity="0.6" d="M114.775 288.988L66.3301 290.696V282.733L114.775 281.166V288.988Z" fill="white"/>
<path opacity="0.6" d="M53.8008 291.137L62.9251 290.815V282.842L53.8008 283.137V291.137Z" fill="white"/>
<path opacity="0.6" d="M114.775 300.232L66.3301 302.145V294.181L114.775 292.41V300.232Z" fill="white"/>
<path opacity="0.6" d="M53.8008 302.637L62.9251 302.276V294.303L53.8008 294.636V302.637Z" fill="white"/>
<path opacity="0.6" d="M114.775 311.474L66.3301 313.591V305.627L114.775 303.652V311.474Z" fill="white"/>
<path opacity="0.6" d="M53.8008 314.14L62.9251 313.741V305.768L53.8008 306.14V314.14Z" fill="white"/>
<path opacity="0.6" d="M125.061 311.069L123.197 311.15V108.752L125.061 108.812V311.069Z" fill="white"/>
<path d="M367.793 12.6472L289.073 6.69472C281.617 6.13093 275.533 12.1621 275.533 20.1696V44.7105C275.533 52.7179 281.617 59.5116 289.073 59.8822L367.793 63.7949C374.64 64.1352 380.155 58.2467 380.155 50.6447V27.3463C380.155 19.7446 374.64 13.165 367.793 12.6472Z" fill="url(#paint24_linear_1551_309069)"/>
<path d="M356.181 98.7224L301.478 96.9818C297.682 96.861 294.594 100.083 294.594 104.18V131.57C294.594 135.667 297.682 139.022 301.478 139.064L356.181 139.677C359.764 139.717 362.659 136.539 362.659 132.579V106.099C362.659 102.139 359.764 98.8365 356.181 98.7224Z" fill="url(#paint25_linear_1551_309069)"/>
<path d="M330.438 93.9875L327.969 93.9041V65.1152L330.438 65.2339V93.9875Z" fill="#898989"/>
<path d="M356.181 176.666L301.478 177.073C297.682 177.101 294.594 180.445 294.594 184.541V211.932C294.594 216.028 297.682 219.262 301.478 219.155L356.181 217.62C359.764 217.52 362.659 214.228 362.659 210.268V183.788C362.659 179.828 359.764 176.639 356.181 176.666Z" fill="url(#paint26_linear_1551_309069)"/>
<path d="M369.869 12.7448L291.211 6.79626C283.761 6.23279 277.682 12.2617 277.682 20.2661V44.7971C277.682 52.8015 283.761 59.5923 291.211 59.9627L369.869 63.8726C376.71 64.2128 382.221 58.3264 382.221 50.7274V27.4381C382.221 19.8391 376.71 13.2621 369.869 12.7448Z" fill="url(#paint27_linear_1551_309069)"/>
<path d="M358.267 98.7856L303.608 97.0463C299.814 96.9256 296.729 100.147 296.729 104.241V131.621C296.729 135.716 299.814 139.07 303.608 139.112L358.267 139.724C361.847 139.764 364.739 136.587 364.739 132.629V106.159C364.739 102.201 361.847 98.8994 358.267 98.7856Z" fill="url(#paint28_linear_1551_309069)"/>
<path d="M358.267 176.697L303.608 177.104C299.814 177.132 296.729 180.475 296.729 184.569V211.949C296.729 216.044 299.814 219.277 303.608 219.17L358.267 217.636C361.847 217.535 364.739 214.245 364.739 210.287V183.817C364.739 179.858 361.847 176.671 358.267 176.697Z" fill="url(#paint29_linear_1551_309069)"/>
<path d="M330.438 172.934L327.969 172.947V144.158L330.438 144.18V172.934Z" fill="#898989"/>
<path d="M291.247 251.27L291.594 251.062C285.622 250.506 276.593 248.511 271.3 247.248C271.116 247.276 270.907 247.262 270.723 247.289C265.268 248.082 259.073 248.455 252.437 248.072C245.8 247.719 238.722 246.458 231.611 244.306C230.717 244.074 229.836 243.715 228.949 243.426C228.508 243.271 228.057 243.118 227.613 242.959L226.948 242.735C226.722 242.652 226.505 242.557 226.283 242.472C225.405 242.118 224.522 241.767 223.633 241.414L222.968 241.151L222.314 240.846C221.876 240.648 221.439 240.449 221.006 240.248C219.237 239.49 217.535 238.549 215.807 237.672C214.948 237.213 214.103 236.698 213.258 236.213C212.838 235.974 212.408 235.73 211.987 235.48C211.574 235.214 211.154 234.946 210.744 234.684C204.091 230.477 197.953 225.218 192.704 219.198C192.06 218.438 191.417 217.678 190.768 216.91C190.144 216.133 189.556 215.317 188.951 214.534L188.044 213.343L187.208 212.103L186.362 210.868C186.086 210.456 185.791 210.06 185.542 209.625C185.028 208.776 184.51 207.93 183.993 207.077C183.869 206.868 183.72 206.65 183.617 206.447L183.306 205.86L182.686 204.685L182.067 203.522C182.011 203.419 181.97 203.35 181.9 203.214L181.293 202.002L180.474 200.387L179.866 199.175L179.762 198.972L179.725 198.899C179.73 198.897 179.484 198.496 179.902 199.165L178.771 196.438C178.59 195.986 178.379 195.546 178.223 195.078L177.736 193.701L177.243 192.326L176.998 191.641C176.915 191.413 176.856 191.177 176.784 190.949C176.508 190.023 176.227 189.1 175.957 188.175C175.802 187.72 175.707 187.245 175.59 186.784L175.258 185.39L174.908 184.007L174.643 182.608C174.472 181.672 174.266 180.756 174.126 179.832C173.997 178.906 173.865 177.976 173.743 177.052C172.844 169.655 173.059 162.393 174.22 155.628L174.42 154.364L174.693 153.115C174.871 152.289 175.017 151.458 175.223 150.65C175.228 150.618 175.244 150.585 175.248 150.553C175.677 148.963 176.037 147.396 176.561 145.885C176.676 145.497 176.799 145.111 176.925 144.729L177.099 144.153L177.315 143.587C177.588 142.84 177.867 142.095 178.138 141.354C178.206 141.172 178.264 140.984 178.337 140.799L178.571 140.263C178.725 139.9 178.882 139.541 179.03 139.187C179.348 138.477 179.603 137.758 179.962 137.077C182.57 131.576 185.591 126.765 188.835 122.782C192.064 118.791 195.405 115.571 198.523 113.003C198.919 112.689 199.306 112.38 199.69 112.074C200.074 111.78 200.428 111.455 200.822 111.196C201.591 110.648 202.321 110.122 203.016 109.618C203.737 109.127 204.454 108.698 205.109 108.265C205.44 108.049 205.757 107.83 206.072 107.636C206.405 107.454 206.727 107.273 207.034 107.095C207.652 106.737 208.235 106.4 208.779 106.086C208.928 105.991 209.022 105.971 209.132 105.917C209.239 105.87 209.347 105.823 209.45 105.779C209.652 105.682 209.641 105.724 209.826 105.637C209.981 105.562 210.061 105.538 210.069 105.551L227.181 134.147L236.049 105.242L256.054 38.4104L158.037 18.6016L176.215 48.9792C176.241 49.0226 175.749 49.3823 175.369 49.6743C174.557 50.3193 173.772 50.96 172.809 51.7254C172.334 52.1156 171.889 52.4761 171.378 52.8941C171.13 53.1013 170.893 53.2965 170.633 53.5115C170.374 53.7195 170.093 53.9406 169.879 54.1451C168.955 54.9872 167.98 55.8715 166.939 56.8132C166.428 57.2901 165.901 57.7705 165.362 58.27C164.829 58.7783 164.302 59.3176 163.758 59.8673C162.674 60.9643 161.519 62.0915 160.373 63.3205C159.25 64.5704 158.087 65.8685 156.874 67.2138C156.259 67.8825 155.699 68.6128 155.1 69.3371C154.517 70.0578 153.917 70.8003 153.307 71.555C148.528 77.6183 143.712 84.8715 139.512 93.2317C135.297 101.577 131.809 111.08 129.424 121.309C129.091 122.577 128.877 123.885 128.609 125.183C128.486 125.835 128.356 126.485 128.229 127.14L128.043 128.13L127.89 129.118C127.698 130.442 127.502 131.781 127.303 133.115L127.161 134.121L127.061 135.136C126.993 135.82 126.926 136.497 126.862 137.179C126.551 139.884 126.463 142.644 126.328 145.416C126.283 146.799 126.302 148.192 126.297 149.593C126.297 150.283 126.302 150.983 126.299 151.687C126.329 152.388 126.36 153.09 126.39 153.791C126.818 165.016 128.893 176.458 132.593 187.412C133.079 188.767 133.566 190.134 134.055 191.493C134.557 192.844 135.142 194.176 135.688 195.513L136.529 197.51L137.457 199.474L138.386 201.431C138.699 202.082 138.996 202.736 139.346 203.37C140.028 204.638 140.621 205.964 141.305 207.236C141.474 207.548 141.544 207.931 141.729 208.239L142.285 209.169L143.494 210.953L144.66 212.763C145.029 213.379 145.481 213.947 145.878 214.541L148.296 218.079C148.808 218.906 148.489 218.353 148.621 218.563L148.691 218.651L148.83 218.834L149.11 219.185L149.669 219.9L150.78 221.324L151.339 222.04L151.615 222.394L151.964 222.828L153.415 224.603L154.875 226.372L155.604 227.245C155.846 227.531 156.084 227.772 156.327 228.04C157.289 229.075 158.255 230.107 159.212 231.145C159.683 231.666 160.201 232.147 160.701 232.638L162.214 234.11L163.718 235.57L165.288 236.961C166.338 237.878 167.369 238.812 168.437 239.69C169.522 240.557 170.602 241.415 171.682 242.273C180.433 248.971 189.893 254.2 199.445 257.848C200.039 258.082 200.635 258.309 201.227 258.539C201.826 258.752 202.425 258.955 203.028 259.154C204.226 259.558 205.4 259.982 206.597 260.346C209.008 261.033 211.356 261.752 213.74 262.266C214.332 262.407 214.923 262.537 215.511 262.681L216.386 262.883L217.271 263.05C218.452 263.269 219.624 263.482 220.782 263.692L221.654 263.848L222.531 263.972C223.111 264.044 223.692 264.127 224.267 264.202C225.423 264.348 226.557 264.548 227.702 264.618C233.839 265.223 239.745 265.311 245.314 264.976C248.022 264.818 250.651 264.549 253.187 264.182C260.949 263.094 267.85 261.248 273.736 259.165C274.466 258.887 275.189 258.626 275.898 258.361C276.599 258.094 277.301 257.857 277.967 257.559C279.303 256.983 280.588 256.439 281.822 255.907C283.047 255.351 284.191 254.76 285.296 254.229C285.84 253.957 286.38 253.705 286.902 253.433C287.407 253.154 287.956 252.968 288.447 252.703C289.409 252.163 290.408 251.772 291.247 251.27Z" fill="url(#paint30_linear_1551_309069)"/>
<path d="M291.245 251.268L291.593 251.06C285.62 250.504 276.591 248.509 271.299 247.246C271.115 247.273 270.906 247.259 270.722 247.287C265.267 248.08 259.071 248.452 252.435 248.07C245.799 247.716 238.721 246.456 231.61 244.304C230.716 244.072 229.834 243.713 228.947 243.424C228.507 243.269 228.055 243.116 227.612 242.956L226.947 242.733C226.721 242.65 226.504 242.555 226.282 242.469C225.404 242.116 224.521 241.764 223.631 241.412L222.967 241.149L222.312 240.844C221.875 240.646 221.438 240.447 221.005 240.246C219.235 239.488 217.534 238.547 215.805 237.67C214.946 237.211 214.101 236.696 213.256 236.21C212.836 235.972 212.407 235.728 211.986 235.478C211.573 235.212 211.153 234.944 210.743 234.682C204.089 230.475 197.951 225.216 192.702 219.195C192.059 218.436 191.416 217.676 190.767 216.908C190.143 216.131 189.555 215.315 188.95 214.532L188.043 213.341L187.206 212.101L186.361 210.866C186.085 210.453 185.789 210.058 185.54 209.623C185.027 208.774 184.508 207.928 183.992 207.074C183.867 206.866 183.719 206.648 183.615 206.445L183.305 205.857L182.685 204.683L182.065 203.519C182.01 203.417 181.968 203.348 181.899 203.212L181.292 202L180.472 200.384L179.865 199.172L179.761 198.969L179.724 198.897C179.728 198.894 179.482 198.493 179.901 199.163L178.77 196.435C178.588 195.984 178.378 195.543 178.222 195.076L177.734 193.699L177.242 192.324L176.997 191.639C176.914 191.411 176.855 191.175 176.783 190.946C176.506 190.02 176.226 189.097 175.956 188.173C175.801 187.717 175.706 187.243 175.589 186.782L175.256 185.388L174.906 184.005L174.642 182.605C174.471 181.67 174.265 180.754 174.125 179.829C173.996 178.904 173.864 177.974 173.741 177.05C172.843 169.653 173.058 162.391 174.219 155.626L174.418 154.362L174.691 153.113C174.869 152.287 175.015 151.456 175.222 150.648C175.227 150.616 175.242 150.583 175.246 150.551C167.033 172.899 169.152 199.873 183.194 223.339C197.583 247.383 221.13 262.135 245.312 264.973C248.02 264.816 250.649 264.546 253.185 264.179C260.947 263.092 267.848 261.245 273.734 259.162C274.464 258.885 275.187 258.623 275.896 258.358C276.598 258.092 277.299 257.855 277.965 257.557C279.302 256.981 280.586 256.436 281.82 255.905C283.045 255.349 284.189 254.758 285.294 254.227C285.838 253.954 286.378 253.702 286.9 253.431C287.406 253.152 287.954 252.965 288.445 252.701C289.408 252.161 290.407 251.77 291.245 251.268Z" fill="url(#paint31_linear_1551_309069)"/>
<path d="M269.081 240.761C268.727 240.858 268.428 241.094 268.253 241.416C268.077 241.737 268.04 242.116 268.15 242.466L275.839 266.943C276.059 267.643 276.798 268.039 277.503 267.833L295.36 262.625C296.071 262.417 296.482 261.675 296.279 260.962L289.356 236.603C289.154 235.892 288.417 235.476 287.704 235.671L269.081 240.761Z" fill="#F4F7FA"/>
<path d="M270.504 241.951C270.189 242.038 269.923 242.248 269.766 242.535C269.61 242.822 269.577 243.16 269.674 243.471L276.531 265.3C276.727 265.924 277.387 266.277 278.015 266.093L293.94 261.449C294.574 261.264 294.94 260.601 294.76 259.966L288.586 238.243C288.405 237.609 287.748 237.238 287.112 237.412L270.504 241.951Z" fill="url(#paint32_linear_1551_309069)"/>
<path opacity="0.75" d="M272.883 243.17C272.64 243.236 272.435 243.398 272.313 243.618C272.192 243.838 272.164 244.098 272.238 244.339L274.408 251.458C274.554 251.938 275.054 252.216 275.539 252.086L288.247 248.677C288.487 248.613 288.691 248.455 288.814 248.239C288.938 248.023 288.969 247.767 288.902 247.528L286.886 240.302C286.748 239.809 286.238 239.519 285.744 239.654L272.883 243.17Z" fill="#F4F7FA"/>
<path opacity="0.75" d="M276.112 254.529C275.861 254.597 275.649 254.764 275.524 254.991C275.398 255.219 275.37 255.487 275.446 255.735L277.685 263.081C277.836 263.576 278.352 263.863 278.852 263.729L291.965 260.211C292.213 260.145 292.423 259.982 292.551 259.76C292.678 259.537 292.71 259.273 292.641 259.026L290.561 251.57C290.418 251.061 289.892 250.762 289.382 250.901L276.112 254.529Z" fill="#F4F7FA"/>
<path d="M372.994 253.324C373.999 253.704 389.322 259.798 392.471 275.79C392.726 277.082 395.187 290.822 385.869 300.528C375.421 311.413 355.301 311.143 347.315 302.044C345.453 299.922 344.47 297.57 343.92 295.594L346.024 290.004C348.592 286.904 352.087 286.17 353.954 285.71C358.557 284.576 362.032 286.626 364.668 284.406C366.126 283.178 366.416 281.411 366.675 279.832C367.556 274.454 364.521 271.144 364.3 267.828C364.135 265.349 363.267 259.917 366.503 256.374C368.552 254.131 371.39 253.521 372.994 253.324Z" fill="url(#paint33_linear_1551_309069)"/>
<path d="M378.965 431.555C379.144 430.57 382.323 429.679 383.898 430.998C384.679 431.652 385.218 432.98 384.766 433.579C384.601 433.797 385.275 434.181 384.629 434.188C382.487 434.213 378.787 432.533 378.965 431.555Z" fill="url(#paint34_linear_1551_309069)"/>
<path d="M382.297 431.913L385.567 431.451C384.052 429.627 384.333 423.818 384.333 423.818L380.855 424.595C380.855 424.595 381.252 426.189 381.926 428.541C382.157 429.346 382.259 430.606 382.297 431.913Z" fill="#FA8072"/>
<path d="M382.01 431.504C382.01 431.504 385.946 430.597 386.372 431.378C386.798 432.159 387.129 434.249 384.631 434.182C382.133 434.115 381.788 432.166 382.01 431.504Z" fill="url(#paint35_linear_1551_309069)"/>
<path d="M334.1 435.247C334.415 434.297 337.688 433.86 339.062 435.386C339.744 436.144 340.092 437.533 339.56 438.063C339.366 438.256 339.98 438.731 339.34 438.648C337.215 438.373 333.787 436.191 334.1 435.247Z" fill="url(#paint36_linear_1551_309069)"/>
<path d="M277.499 268.618L274.51 267.186C274.046 266.815 273.336 266.157 272.797 265.147C271.911 263.485 271.925 261.687 271.937 261.685C271.944 261.684 271.801 259.266 272.827 258.857C272.961 258.803 273.116 258.786 273.295 258.815L274.358 261.614C274.358 261.614 274.529 262.832 276.449 264.096C278.353 265.755 279.12 267.27 279.12 267.27L277.499 268.618Z" fill="#FA8072"/>
<path d="M337.349 436.064H340.651C339.407 434.046 340.497 428.334 340.497 428.334L336.945 428.616C336.945 428.616 337.115 430.25 337.453 432.673C337.569 433.502 337.494 434.764 337.349 436.064Z" fill="#FA8072"/>
<path d="M328.793 311.185C327.263 316.236 325.079 324.39 323.672 334.62C319.661 363.798 328.187 364.729 326.594 397.062C326.086 407.383 335.536 431.182 336.369 431.707C336.772 431.746 337.209 431.773 337.676 431.758C338.498 431.734 339.656 431.608 341.004 431.204C342.501 430.946 347.898 416.328 346.647 407.637C345.761 401.485 346.018 394.884 346.531 381.68C346.615 379.541 352.088 340.058 352.088 340.058C353.753 354.672 355.668 367.09 357.328 376.718C362.662 407.649 380.003 426.371 380.907 426.671C381.086 426.743 382.713 427.334 384.044 426.458C384.636 426.067 384.837 425.564 384.837 425.564C385.301 425.201 384.7 394.682 379.411 371.714C371.734 338.376 375.077 330.576 372.644 315.685C370.54 302.801 328.793 311.185 328.793 311.185Z" fill="url(#paint37_linear_1551_309069)"/>
<path d="M359.801 250.721C354.704 250.571 344.831 248.906 338.378 254.713C338.266 254.813 337.744 255.385 337.093 256.147C336.489 256.856 334.416 259.334 332.537 262.685C331.176 265.112 329.948 267.941 328.708 272.157C326.522 279.593 325.895 285.924 325.685 288.683C324.506 304.196 325.675 311.353 326.737 316.22C331.345 318.587 343.22 322.823 357.37 320.719C363.832 319.757 369.003 317.607 372.642 315.688C368.971 304.571 371.851 298.623 373.21 293.14C375.148 285.322 375.179 285.913 376.774 279.702C379.407 269.455 379.839 258.984 378.03 256.841C373.153 251.064 364.365 250.855 359.801 250.721Z" fill="url(#paint38_linear_1551_309069)"/>
<path d="M378.035 256.842C375.297 253.598 371.326 252.11 367.562 251.404C369.327 259.28 365.318 268.925 359.879 274.045C354.804 278.821 350.135 275.649 346.771 279.632C343.993 282.92 343.902 288.266 345.304 291.932C347.2 296.89 351.288 297.372 351.076 300.17C350.794 303.88 343.336 306.641 337.85 307.157C332.121 307.696 327.552 305.88 325.287 304.786C325.516 310.035 326.146 313.489 326.742 316.221C331.351 318.588 343.226 322.824 357.375 320.719C363.837 319.758 369.008 317.608 372.647 315.688C368.976 304.572 371.856 298.623 373.215 293.14C375.153 285.322 375.184 285.913 376.779 279.703C379.412 269.455 379.844 258.984 378.035 256.842Z" fill="url(#paint39_linear_1551_309069)"/>
<path d="M337.116 435.624C337.116 435.624 341.141 435.277 341.453 436.11C341.765 436.943 341.8 439.059 339.336 438.643C336.873 438.227 336.803 436.249 337.116 435.624Z" fill="url(#paint40_linear_1551_309069)"/>
<path d="M346.311 252.58C340.736 248.952 326.158 260.317 321.745 263.452C304.631 275.605 306.682 283.187 298.91 279.402C293.655 276.844 292.941 269.13 283.959 266.228C282.372 265.715 281.006 265.508 280.126 265.413C280.114 265.419 277.16 266.99 277.147 266.994C276.098 267.334 275.049 267.673 274.169 268.576C273.305 270.369 272.513 272.554 272.115 275.101C272.2 276.005 272.378 277.505 272.785 279.316C273.122 280.815 277.068 297.218 290.784 302.27C293.303 303.198 295.397 303.464 296.453 303.593C300.96 304.139 305.045 303.471 312.029 301.064C323.858 296.988 332.89 293.165 340.875 283.819C341.255 283.374 341.562 282.937 341.869 282.467C347.808 273.36 351.693 256.081 346.311 252.58Z" fill="url(#paint41_linear_1551_309069)"/>
<path d="M345.455 244.876C343.876 242.206 344.579 239.157 344.738 238.498C345.402 235.739 345.649 235.321 346.161 234.737L346.885 233.971C346.885 233.971 346.93 233.938 346.977 233.905C347.481 233.558 349.361 232.996 349.767 232.975C351.063 232.91 353.701 237.559 355.212 244.723C355.335 244.979 355.456 245.237 355.577 245.499C356.326 247.124 356.969 248.722 357.52 250.281C366.282 251.022 367.498 252.05 367.537 252.643C367.619 253.893 362.627 255.337 358.872 255.886C350.685 257.085 342.268 254.926 342.307 253.399C342.324 252.734 343.951 251.868 350.892 250.959C350.73 249.811 350.567 248.662 350.405 247.513C349.841 247.389 346.618 246.842 345.455 244.876Z" fill="#FA8072"/>
<path d="M343.812 232.64C344.403 234.827 346.057 236.89 346.683 237.125C346.763 237.156 347.226 237.356 347.706 237.78C347.772 237.838 347.835 237.909 347.9 238.005C348.747 239.257 346.987 241.465 347.575 241.97C348.001 242.336 349.332 241.339 349.612 241.679C349.877 241.998 348.839 243.083 349.145 243.468C349.376 243.759 350.058 243.255 350.673 243.631C350.979 243.818 350.962 244.036 351.421 244.736C351.68 245.132 352.008 245.554 352.234 245.777C353.333 246.86 355.6 246.759 355.876 246.134C355.952 245.96 355.821 245.866 355.81 245.354C355.81 245.354 355.8 244.879 355.973 244.281C356.22 243.427 357.149 242.615 358.021 241.55C359.637 239.578 359.853 238.206 359.905 237.748C359.924 237.585 359.93 237.464 359.935 237.376C360.025 235.624 359.395 233.254 358.282 231.99C356.416 229.873 353.984 231.762 351.096 229.942C347.763 227.841 348.288 223.616 346.771 223.569C345.099 223.517 342.72 228.597 343.812 232.64Z" fill="#472E05"/>
<path d="M348.222 241.241C348.562 240.361 349.69 240.802 349.949 241.754C350.209 242.707 349.549 243.945 348.603 243.995C347.656 244.046 347.765 242.426 348.222 241.241Z" fill="#FA8072"/>
<path d="M348.228 239.533L347.415 241.484C347.415 241.484 346.591 243.839 345.529 242.947C344.855 242.381 344.712 242.322 344.601 242.296C344.591 242.294 344.465 241.829 344.456 241.418C344.252 241.982 343.969 242.941 343.969 244.053C343.969 245.133 343.969 246.289 344.814 247.174C344.863 247.225 345.784 248.162 347.025 248.117C347.025 248.117 347.513 248.099 349.366 247.239C349.366 247.239 346.83 246.264 346.7 245.906C346.347 244.934 347.584 244.027 348.066 241.711C348.251 240.818 348.256 240.052 348.228 239.533Z" fill="#472E05"/>
<defs>
<linearGradient id="paint0_linear_1551_309069" x1="101.155" y1="0" x2="101.155" y2="185.036" gradientUnits="userSpaceOnUse">
<stop stop-color="#B64A18"/>
<stop offset="1" stop-color="#FFBE55"/>
</linearGradient>
<linearGradient id="paint1_linear_1551_309069" x1="16.5168" y1="81.749" x2="204.717" y2="85.4833" gradientUnits="userSpaceOnUse">
<stop stop-color="#FB8D48"/>
<stop offset="0.2" stop-color="#ED7136"/>
<stop offset="0.3999" stop-color="#C54E47"/>
<stop offset="0.4" stop-color="#C14F49"/>
<stop offset="0.6" stop-color="#9D3863"/>
<stop offset="0.8" stop-color="#5E1F72"/>
</linearGradient>
<linearGradient id="paint2_linear_1551_309069" x1="226.41" y1="399.246" x2="222.257" y2="279.616" gradientUnits="userSpaceOnUse">
<stop stop-color="#D8DEE8"/>
<stop offset="0.9964" stop-color="#97A6B7"/>
</linearGradient>
<linearGradient id="paint3_linear_1551_309069" x1="153.237" y1="314.461" x2="-7.93129" y2="640.952" gradientUnits="userSpaceOnUse">
<stop stop-color="#D8DEE8"/>
<stop offset="0.9964" stop-color="#97A6B7"/>
</linearGradient>
<linearGradient id="paint4_linear_1551_309069" x1="214.14" y1="118.004" x2="214.14" y2="125.508" gradientUnits="userSpaceOnUse">
<stop offset="0.113541" stop-color="#FFBE55"/>
<stop offset="1" stop-color="#E86B31"/>
</linearGradient>
<linearGradient id="paint5_linear_1551_309069" x1="190.714" y1="129.013" x2="261.909" y2="143.337" gradientUnits="userSpaceOnUse">
<stop stop-color="#FB8D48"/>
<stop offset="0.2" stop-color="#ED7136"/>
<stop offset="0.3999" stop-color="#C54E47"/>
<stop offset="0.4" stop-color="#C14F49"/>
<stop offset="0.6" stop-color="#9D3863"/>
<stop offset="0.8" stop-color="#5E1F72"/>
</linearGradient>
<linearGradient id="paint6_linear_1551_309069" x1="190.714" y1="136.418" x2="261.735" y2="151.148" gradientUnits="userSpaceOnUse">
<stop stop-color="#FB8D48"/>
<stop offset="0.2" stop-color="#ED7136"/>
<stop offset="0.3999" stop-color="#C54E47"/>
<stop offset="0.4" stop-color="#C14F49"/>
<stop offset="0.6" stop-color="#9D3863"/>
<stop offset="0.8" stop-color="#5E1F72"/>
</linearGradient>
<linearGradient id="paint7_linear_1551_309069" x1="177.141" y1="158.343" x2="228.309" y2="166.998" gradientUnits="userSpaceOnUse">
<stop stop-color="#FB8D48"/>
<stop offset="0.2" stop-color="#ED7136"/>
<stop offset="0.3999" stop-color="#C54E47"/>
<stop offset="0.4" stop-color="#C14F49"/>
<stop offset="0.6" stop-color="#9D3863"/>
<stop offset="0.8" stop-color="#5E1F72"/>
</linearGradient>
<linearGradient id="paint8_linear_1551_309069" x1="223.352" y1="170.914" x2="223.352" y2="176.799" gradientUnits="userSpaceOnUse">
<stop offset="0.113541" stop-color="#FFBE55"/>
<stop offset="1" stop-color="#E86B31"/>
</linearGradient>
<linearGradient id="paint9_linear_1551_309069" x1="159.695" y1="112.944" x2="211.193" y2="120.468" gradientUnits="userSpaceOnUse">
<stop stop-color="#FB8D48"/>
<stop offset="0.2" stop-color="#ED7136"/>
<stop offset="0.3999" stop-color="#C54E47"/>
<stop offset="0.4" stop-color="#C14F49"/>
<stop offset="0.6" stop-color="#9D3863"/>
<stop offset="0.8" stop-color="#5E1F72"/>
</linearGradient>
<linearGradient id="paint10_linear_1551_309069" x1="190.714" y1="276.947" x2="262.263" y2="290.396" gradientUnits="userSpaceOnUse">
<stop stop-color="#FB8D48"/>
<stop offset="0.2" stop-color="#ED7136"/>
<stop offset="0.3999" stop-color="#C54E47"/>
<stop offset="0.4" stop-color="#C14F49"/>
<stop offset="0.6" stop-color="#9D3863"/>
<stop offset="0.8" stop-color="#5E1F72"/>
</linearGradient>
<linearGradient id="paint11_linear_1551_309069" x1="190.714" y1="284.324" x2="262.394" y2="297.43" gradientUnits="userSpaceOnUse">
<stop stop-color="#FB8D48"/>
<stop offset="0.2" stop-color="#ED7136"/>
<stop offset="0.3999" stop-color="#C54E47"/>
<stop offset="0.4" stop-color="#C14F49"/>
<stop offset="0.6" stop-color="#9D3863"/>
<stop offset="0.8" stop-color="#5E1F72"/>
</linearGradient>
<linearGradient id="paint12_linear_1551_309069" x1="224.987" y1="290.442" x2="294.966" y2="302.791" gradientUnits="userSpaceOnUse">
<stop stop-color="#FB8D48"/>
<stop offset="0.2" stop-color="#ED7136"/>
<stop offset="0.3999" stop-color="#C54E47"/>
<stop offset="0.4" stop-color="#C14F49"/>
<stop offset="0.6" stop-color="#9D3863"/>
<stop offset="0.8" stop-color="#5E1F72"/>
</linearGradient>
<linearGradient id="paint13_linear_1551_309069" x1="260.292" y1="294.176" x2="260.292" y2="302.426" gradientUnits="userSpaceOnUse">
<stop offset="0.113541" stop-color="#FFBE55"/>
<stop offset="1" stop-color="#E86B31"/>
</linearGradient>
<linearGradient id="paint14_linear_1551_309069" x1="159.695" y1="263.307" x2="211.111" y2="271.099" gradientUnits="userSpaceOnUse">
<stop stop-color="#FB8D48"/>
<stop offset="0.2" stop-color="#ED7136"/>
<stop offset="0.3999" stop-color="#C54E47"/>
<stop offset="0.4" stop-color="#C14F49"/>
<stop offset="0.6" stop-color="#9D3863"/>
<stop offset="0.8" stop-color="#5E1F72"/>
</linearGradient>
<linearGradient id="paint15_linear_1551_309069" x1="177.532" y1="188.256" x2="247.409" y2="206.842" gradientUnits="userSpaceOnUse">
<stop stop-color="#FB8D48"/>
<stop offset="0.2" stop-color="#ED7136"/>
<stop offset="0.3999" stop-color="#C54E47"/>
<stop offset="0.4" stop-color="#C14F49"/>
<stop offset="0.6" stop-color="#9D3863"/>
<stop offset="0.8" stop-color="#5E1F72"/>
</linearGradient>
<linearGradient id="paint16_linear_1551_309069" x1="190.714" y1="203.151" x2="260.062" y2="221.261" gradientUnits="userSpaceOnUse">
<stop stop-color="#FB8D48"/>
<stop offset="0.2" stop-color="#ED7136"/>
<stop offset="0.3999" stop-color="#C54E47"/>
<stop offset="0.4" stop-color="#C14F49"/>
<stop offset="0.6" stop-color="#9D3863"/>
<stop offset="0.8" stop-color="#5E1F72"/>
</linearGradient>
<linearGradient id="paint17_linear_1551_309069" x1="190.714" y1="210.528" x2="260.389" y2="228.041" gradientUnits="userSpaceOnUse">
<stop stop-color="#FB8D48"/>
<stop offset="0.2" stop-color="#ED7136"/>
<stop offset="0.3999" stop-color="#C54E47"/>
<stop offset="0.4" stop-color="#C14F49"/>
<stop offset="0.6" stop-color="#9D3863"/>
<stop offset="0.8" stop-color="#5E1F72"/>
</linearGradient>
<linearGradient id="paint18_linear_1551_309069" x1="159.735" y1="218.312" x2="206.03" y2="225.691" gradientUnits="userSpaceOnUse">
<stop stop-color="#FB8D48"/>
<stop offset="0.2" stop-color="#ED7136"/>
<stop offset="0.3999" stop-color="#C54E47"/>
<stop offset="0.4" stop-color="#C14F49"/>
<stop offset="0.6" stop-color="#9D3863"/>
<stop offset="0.8" stop-color="#5E1F72"/>
</linearGradient>
<linearGradient id="paint19_linear_1551_309069" x1="223.352" y1="229.992" x2="223.352" y2="236.337" gradientUnits="userSpaceOnUse">
<stop offset="0.113541" stop-color="#FFBE55"/>
<stop offset="1" stop-color="#E86B31"/>
</linearGradient>
<linearGradient id="paint20_linear_1551_309069" x1="190.589" y1="240.115" x2="254.944" y2="253.067" gradientUnits="userSpaceOnUse">
<stop stop-color="#FB8D48"/>
<stop offset="0.2" stop-color="#ED7136"/>
<stop offset="0.3999" stop-color="#C54E47"/>
<stop offset="0.4" stop-color="#C14F49"/>
<stop offset="0.6" stop-color="#9D3863"/>
<stop offset="0.8" stop-color="#5E1F72"/>
</linearGradient>
<linearGradient id="paint21_linear_1551_309069" x1="206.44" y1="247.192" x2="270.186" y2="259.588" gradientUnits="userSpaceOnUse">
<stop stop-color="#FB8D48"/>
<stop offset="0.2" stop-color="#ED7136"/>
<stop offset="0.3999" stop-color="#C54E47"/>
<stop offset="0.4" stop-color="#C14F49"/>
<stop offset="0.6" stop-color="#9D3863"/>
<stop offset="0.8" stop-color="#5E1F72"/>
</linearGradient>
<linearGradient id="paint22_linear_1551_309069" x1="205.273" y1="255.013" x2="272.343" y2="255.013" gradientUnits="userSpaceOnUse">
<stop stop-color="#FF9085"/>
<stop offset="1" stop-color="#FB6FBB"/>
</linearGradient>
<linearGradient id="paint23_linear_1551_309069" x1="185.43" y1="178.225" x2="185.43" y2="183.915" gradientUnits="userSpaceOnUse">
<stop offset="0.113541" stop-color="#FFBE55"/>
<stop offset="1" stop-color="#E86B31"/>
</linearGradient>
<linearGradient id="paint24_linear_1551_309069" x1="318.206" y1="-11.2814" x2="349.57" y2="142.688" gradientUnits="userSpaceOnUse">
<stop stop-color="#AB316D"/>
<stop offset="1" stop-color="#792D3D"/>
</linearGradient>
<linearGradient id="paint25_linear_1551_309069" x1="343.732" y1="247.676" x2="325.091" y2="88.6786" gradientUnits="userSpaceOnUse">
<stop stop-color="#AB316D"/>
<stop offset="1" stop-color="#792D3D"/>
</linearGradient>
<linearGradient id="paint26_linear_1551_309069" x1="315.37" y1="142.626" x2="346.538" y2="272.49" gradientUnits="userSpaceOnUse">
<stop stop-color="#AB316D"/>
<stop offset="1" stop-color="#792D3D"/>
</linearGradient>
<linearGradient id="paint27_linear_1551_309069" x1="279.5" y1="31.3561" x2="382.485" y2="35.0107" gradientUnits="userSpaceOnUse">
<stop stop-color="#FB8D48"/>
<stop offset="0.2" stop-color="#ED7136"/>
<stop offset="0.3999" stop-color="#C54E47"/>
<stop offset="0.4" stop-color="#C14F49"/>
<stop offset="0.6" stop-color="#9D3863"/>
<stop offset="0.8" stop-color="#5E1F72"/>
</linearGradient>
<linearGradient id="paint28_linear_1551_309069" x1="297.911" y1="115.42" x2="364.932" y2="117.491" gradientUnits="userSpaceOnUse">
<stop stop-color="#FB8D48"/>
<stop offset="0.2" stop-color="#ED7136"/>
<stop offset="0.3999" stop-color="#C54E47"/>
<stop offset="0.4" stop-color="#C14F49"/>
<stop offset="0.6" stop-color="#9D3863"/>
<stop offset="0.8" stop-color="#5E1F72"/>
</linearGradient>
<linearGradient id="paint29_linear_1551_309069" x1="297.911" y1="194.985" x2="364.931" y2="197.066" gradientUnits="userSpaceOnUse">
<stop stop-color="#FB8D48"/>
<stop offset="0.2" stop-color="#ED7136"/>
<stop offset="0.3999" stop-color="#C54E47"/>
<stop offset="0.4" stop-color="#C14F49"/>
<stop offset="0.6" stop-color="#9D3863"/>
<stop offset="0.8" stop-color="#5E1F72"/>
</linearGradient>
<linearGradient id="paint30_linear_1551_309069" x1="208.945" y1="18.6016" x2="208.945" y2="265.169" gradientUnits="userSpaceOnUse">
<stop offset="0.113541" stop-color="#FFBE55"/>
<stop offset="1" stop-color="#E86B31"/>
</linearGradient>
<linearGradient id="paint31_linear_1551_309069" x1="172.552" y1="199.816" x2="291.999" y2="202.268" gradientUnits="userSpaceOnUse">
<stop stop-color="#FB8D48"/>
<stop offset="0.2" stop-color="#ED7136"/>
<stop offset="0.3999" stop-color="#C54E47"/>
<stop offset="0.4" stop-color="#C14F49"/>
<stop offset="0.6" stop-color="#9D3863"/>
<stop offset="0.8" stop-color="#5E1F72"/>
</linearGradient>
<linearGradient id="paint32_linear_1551_309069" x1="264.712" y1="222.755" x2="303.691" y2="286.113" gradientUnits="userSpaceOnUse">
<stop stop-color="#FF9085"/>
<stop offset="1" stop-color="#FB6FBB"/>
</linearGradient>
<linearGradient id="paint33_linear_1551_309069" x1="377.371" y1="323.657" x2="369.342" y2="264.766" gradientUnits="userSpaceOnUse">
<stop stop-color="#FB8D48"/>
<stop offset="0.2" stop-color="#ED7136"/>
<stop offset="0.3999" stop-color="#C54E47"/>
<stop offset="0.4" stop-color="#C14F49"/>
<stop offset="0.6" stop-color="#9D3863"/>
<stop offset="0.8" stop-color="#5E1F72"/>
</linearGradient>
<linearGradient id="paint34_linear_1551_309069" x1="377.199" y1="428.713" x2="384.2" y2="433.366" gradientUnits="userSpaceOnUse">
<stop stop-color="#444B8C"/>
<stop offset="0.9964" stop-color="#26264F"/>
</linearGradient>
<linearGradient id="paint35_linear_1551_309069" x1="377.727" y1="427.916" x2="384.728" y2="432.568" gradientUnits="userSpaceOnUse">
<stop stop-color="#444B8C"/>
<stop offset="0.9964" stop-color="#26264F"/>
</linearGradient>
<linearGradient id="paint36_linear_1551_309069" x1="332.75" y1="432.186" x2="339.03" y2="437.773" gradientUnits="userSpaceOnUse">
<stop stop-color="#444B8C"/>
<stop offset="0.9964" stop-color="#26264F"/>
</linearGradient>
<linearGradient id="paint37_linear_1551_309069" x1="338.286" y1="442.8" x2="379.238" y2="277.453" gradientUnits="userSpaceOnUse">
<stop stop-color="#444B8C"/>
<stop offset="0.9964" stop-color="#26264F"/>
</linearGradient>
<linearGradient id="paint38_linear_1551_309069" x1="348.238" y1="324.112" x2="345.805" y2="276.909" gradientUnits="userSpaceOnUse">
<stop stop-color="#FB8D48"/>
<stop offset="0.2" stop-color="#ED7136"/>
<stop offset="0.3999" stop-color="#C54E47"/>
<stop offset="0.4" stop-color="#C14F49"/>
<stop offset="0.6" stop-color="#9D3863"/>
<stop offset="0.8" stop-color="#5E1F72"/>
</linearGradient>
<linearGradient id="paint39_linear_1551_309069" x1="347.329" y1="347.328" x2="342.182" y2="271.182" gradientUnits="userSpaceOnUse">
<stop stop-color="#FB8D48"/>
<stop offset="0.2" stop-color="#ED7136"/>
<stop offset="0.3999" stop-color="#C54E47"/>
<stop offset="0.4" stop-color="#C14F49"/>
<stop offset="0.6" stop-color="#9D3863"/>
<stop offset="0.8" stop-color="#5E1F72"/>
</linearGradient>
<linearGradient id="paint40_linear_1551_309069" x1="333.378" y1="431.472" x2="339.658" y2="437.059" gradientUnits="userSpaceOnUse">
<stop stop-color="#444B8C"/>
<stop offset="0.9964" stop-color="#26264F"/>
</linearGradient>
<linearGradient id="paint41_linear_1551_309069" x1="238.074" y1="280.411" x2="344.091" y2="245.183" gradientUnits="userSpaceOnUse">
<stop stop-color="#FB8D48"/>
<stop offset="0.2" stop-color="#ED7136"/>
<stop offset="0.298621" stop-color="#C14F49"/>
<stop offset="0.6" stop-color="#9D3863"/>
<stop offset="0.8" stop-color="#5E1F72"/>
</linearGradient>
</defs>
</svg>
