<svg width="437" height="325" viewBox="0 0 437 325" fill="none" xmlns="http://www.w3.org/2000/svg">
<path d="M436.111 285.607H0V285.825H436.111V285.607Z" fill="#E86B31"/>
<path d="M392.419 299.645H363.529V299.863H392.419V299.645Z" fill="#E86B31"/>
<path d="M288.897 302.012H281.314V302.23H288.897V302.012Z" fill="#EBEBEB"/>
<path d="M362.648 291.545H345.908V291.763H362.648V291.545Z" fill="#EBEBEB"/>
<path d="M83.4298 293.01H45.7559V293.228H83.4298V293.01Z" fill="#EBEBEB"/>
<path d="M96.7191 293.01H91.1953V293.228H96.7191V293.01Z" fill="#EBEBEB"/>
<path d="M196.38 296.693H114.674V296.911H196.38V296.693Z" fill="#EBEBEB"/>
<path d="M206.728 246.706H38.3029C35.558 246.706 33.3242 244.473 33.3242 241.728V4.97865C33.3242 2.23376 35.558 0 38.3029 0H206.728C209.472 0 211.706 2.23376 211.706 4.97865V241.728C211.706 244.473 209.472 246.706 206.728 246.706ZM38.3029 0.218927C35.6775 0.218927 33.5423 2.35413 33.5423 4.97952V241.729C33.5423 244.354 35.6775 246.489 38.3029 246.489H206.728C209.353 246.489 211.488 244.354 211.488 241.729V4.97865C211.488 2.35413 209.353 0.218056 206.728 0.218056L38.3029 0.218927Z" fill="#E86B31"/>
<path d="M395.387 246.706H226.962C224.217 246.706 221.984 244.473 221.984 241.728V4.97865C221.984 2.23376 224.218 0 226.962 0H395.387C398.132 0 400.365 2.23376 400.365 4.97865V241.728C400.366 244.473 398.132 246.706 395.387 246.706ZM226.962 0.218927C224.338 0.218927 222.202 2.35413 222.202 4.97952V241.729C222.202 244.354 224.338 246.489 226.962 246.489H395.387C398.012 246.489 400.147 244.354 400.147 241.729V4.97865C400.147 2.35413 398.012 0.218056 395.387 0.218056L226.962 0.218927Z" fill="#E86B31"/>
<path d="M206.752 110.037V125.358L214.641 126.102C215.706 131.237 217.741 136.012 220.524 140.253L215.457 146.374L226.291 157.208L232.412 152.139C236.653 154.923 241.428 156.959 246.564 158.023L247.307 165.913H262.628L263.371 158.023C268.507 156.958 273.282 154.923 277.523 152.139L283.644 157.208L294.478 146.374L289.411 140.253C292.194 136.011 294.229 131.237 295.294 126.102L303.183 125.358V110.037L295.294 109.293C294.229 104.157 292.194 99.382 289.411 95.1413L294.478 89.02L283.644 78.1861L277.523 83.2529C273.282 80.4705 268.507 78.4347 263.371 77.3697L262.628 69.4805H247.307L246.564 77.3697C241.428 78.4347 236.653 80.4705 232.412 83.2529L226.291 78.1861L215.457 89.02L220.524 95.1404C217.741 99.3811 215.705 104.157 214.641 109.293L206.752 110.037ZM254.968 96.9555C266.423 96.9555 275.709 106.242 275.709 117.697C275.709 129.152 266.422 138.438 254.968 138.438C243.513 138.438 234.226 129.152 234.226 117.697C234.226 106.242 243.513 96.9555 254.968 96.9555Z" fill="#E86B31"/>
<path d="M180.867 178.598L185.264 182.239L193.049 174.454L189.408 170.057C191.407 167.01 192.87 163.578 193.635 159.888L199.304 159.355V148.347L193.635 147.812C192.87 144.122 191.407 140.692 189.408 137.645L193.049 133.247L185.264 125.463L180.867 129.103C177.819 127.104 174.388 125.642 170.698 124.876L170.164 119.207L159.156 119.209L158.623 124.876C154.933 125.641 151.502 127.104 148.455 129.103L144.057 125.463L136.272 133.247L139.914 137.645C137.914 140.691 136.451 144.122 135.686 147.812L130.02 148.347V159.355L135.686 159.889C136.452 163.579 137.914 167.01 139.914 170.058L136.272 174.455L144.057 182.24L148.455 178.598C151.502 180.598 154.933 182.06 158.623 182.826L159.156 188.494H170.164L170.698 182.825C174.389 182.06 177.819 180.598 180.867 178.598ZM149.758 153.851C149.758 145.621 156.43 138.949 164.661 138.949C172.89 138.949 179.563 145.621 179.563 153.851C179.563 162.081 172.89 168.754 164.661 168.754C156.43 168.754 149.758 162.081 149.758 153.851Z" fill="#FFBE55"/>
<path d="M229.79 253.162C234.184 252.251 238.268 250.509 241.897 248.128L247.133 252.463L256.401 243.196L252.065 237.958C254.445 234.332 256.187 230.247 257.098 225.853L263.846 225.218V212.113L257.098 211.477C256.187 207.083 254.445 202.999 252.065 199.371L256.401 194.134L247.133 184.868L241.897 189.202C238.268 186.822 234.184 185.08 229.79 184.168L229.155 177.42H216.048L215.412 184.168C211.019 185.08 206.935 186.822 203.307 189.202L198.071 184.868L188.804 194.134L193.138 199.371C190.757 202.999 189.016 207.083 188.106 211.477L181.357 212.113V225.219L188.106 225.854C189.017 230.248 190.758 234.332 193.138 237.96L188.804 243.196L198.071 252.463L203.307 248.128C206.934 250.509 211.019 252.251 215.412 253.162L216.048 259.91H229.155L229.79 253.162ZM204.859 218.665C204.859 208.867 212.803 200.923 222.602 200.923C232.402 200.923 240.345 208.867 240.345 218.665C240.345 228.464 232.402 236.407 222.602 236.407C212.803 236.407 204.859 228.464 204.859 218.665Z" fill="#FAFAFA"/>
<path d="M123.391 94.5713L83.2656 89.0879L77.7822 129.213L117.908 134.697L123.391 94.5713Z" fill="#F5F5F5"/>
<path d="M88.9961 101.391L115.121 104.962" stroke="#E0E0E0" stroke-width="3" stroke-miterlimit="10"/>
<path d="M87.8809 109.531L114.006 113.103" stroke="#E0E0E0" stroke-width="3" stroke-miterlimit="10"/>
<path d="M86.7344 117.943L102.119 120.047" stroke="#E0E0E0" stroke-width="3" stroke-miterlimit="10"/>
<path d="M348.045 49.9519L307.547 50.0977L307.693 90.5958L348.191 90.45L348.045 49.9519Z" fill="#F0F0F0"/>
<path d="M314.936 61.4916L341.303 61.3965" stroke="#E0E0E0" stroke-width="3" stroke-miterlimit="10"/>
<path d="M314.973 69.7036L341.34 69.6094" stroke="#E0E0E0" stroke-width="3" stroke-miterlimit="10"/>
<path d="M315 78.1964L330.527 78.1406" stroke="#E0E0E0" stroke-width="3" stroke-miterlimit="10"/>
<path d="M372.36 148.757L332.182 153.848L337.272 194.026L377.45 188.935L372.36 148.757Z" fill="#F5F5F5"/>
<path d="M340.904 164.236L367.063 160.922" stroke="#E0E0E0" stroke-width="3" stroke-miterlimit="10"/>
<path d="M341.936 172.381L368.093 169.066" stroke="#E0E0E0" stroke-width="3" stroke-miterlimit="10"/>
<path d="M343.002 180.809L358.406 178.857" stroke="#E0E0E0" stroke-width="3" stroke-miterlimit="10"/>
<path d="M156.957 213.948L116.459 214.094L116.605 254.592L157.103 254.446L156.957 213.948Z" fill="#F0F0F0"/>
<path d="M123.844 225.481L150.211 225.387" stroke="#E0E0E0" stroke-width="3" stroke-miterlimit="10"/>
<path d="M123.875 233.696L150.242 233.602" stroke="#E0E0E0" stroke-width="3" stroke-miterlimit="10"/>
<path d="M123.912 242.186L139.439 242.131" stroke="#E0E0E0" stroke-width="3" stroke-miterlimit="10"/>
<path d="M335.82 233.755L295.322 233.9L295.468 274.399L335.966 274.253L335.82 233.755Z" fill="#F0F0F0"/>
<path d="M302.707 245.291L329.074 245.197" stroke="#E0E0E0" stroke-width="3" stroke-miterlimit="10"/>
<path d="M302.738 253.506L329.106 253.412" stroke="#E0E0E0" stroke-width="3" stroke-miterlimit="10"/>
<path d="M302.766 261.998L318.294 261.943" stroke="#E0E0E0" stroke-width="3" stroke-miterlimit="10"/>
<path d="M165.124 47.3411L125.59 56.1211L134.37 95.6554L173.904 86.8754L165.124 47.3411Z" fill="#F0F0F0"/>
<path d="M135.25 65.6697L160.991 59.9531" stroke="#E0E0E0" stroke-width="3" stroke-miterlimit="10"/>
<path d="M137.029 73.6853L162.77 67.9688" stroke="#E0E0E0" stroke-width="3" stroke-miterlimit="10"/>
<path d="M138.865 81.9742L154.024 78.6074" stroke="#E0E0E0" stroke-width="3" stroke-miterlimit="10"/>
<path d="M86.5536 93.4554H85.8279L84.8301 88.8379H87.5514L86.5536 93.4554Z" fill="#E0E0E0"/>
<path d="M86.191 92.3157C88.2262 92.3157 89.8761 91.0169 89.8761 89.4147C89.8761 87.8125 88.2262 86.5137 86.191 86.5137C84.1558 86.5137 82.5059 87.8125 82.5059 89.4147C82.5059 91.0169 84.1558 92.3157 86.191 92.3157Z" fill="#E6E6E6"/>
<path d="M160.557 53.0961H159.832L158.834 48.4785H161.555L160.557 53.0961Z" fill="#E0E0E0"/>
<path d="M327.202 54.2621H326.476L325.479 49.6445H328.2L327.202 54.2621Z" fill="#E0E0E0"/>
<path d="M326.839 53.1223C328.875 53.1223 330.525 51.8235 330.525 50.2213C330.525 48.6191 328.875 47.3203 326.839 47.3203C324.804 47.3203 323.154 48.6191 323.154 50.2213C323.154 51.8235 324.804 53.1223 326.839 53.1223Z" fill="#E6E6E6"/>
<path d="M368.607 154.559H367.882L366.885 149.941H369.605L368.607 154.559Z" fill="#E0E0E0"/>
<path d="M368.246 153.419C370.281 153.419 371.931 152.12 371.931 150.518C371.931 148.916 370.281 147.617 368.246 147.617C366.21 147.617 364.561 148.916 364.561 150.518C364.561 152.12 366.21 153.419 368.246 153.419Z" fill="#E6E6E6"/>
<path d="M316.253 238.389H315.527L314.529 233.771H317.251L316.253 238.389Z" fill="#E0E0E0"/>
<path d="M315.89 237.249C317.925 237.249 319.575 235.95 319.575 234.348C319.575 232.746 317.925 231.447 315.89 231.447C313.855 231.447 312.205 232.746 312.205 234.348C312.205 235.95 313.855 237.249 315.89 237.249Z" fill="#E6E6E6"/>
<path d="M135.611 217.629H134.886L133.889 213.012H136.609L135.611 217.629Z" fill="#E0E0E0"/>
<path d="M135.25 216.49C137.285 216.49 138.935 215.191 138.935 213.589C138.935 211.986 137.285 210.688 135.25 210.688C133.214 210.688 131.564 211.986 131.564 213.589C131.564 215.191 133.214 216.49 135.25 216.49Z" fill="#E6E6E6"/>
<path d="M218.056 324.998C311.455 324.998 387.17 320.577 387.17 315.122C387.17 309.668 311.455 305.246 218.056 305.246C124.656 305.246 48.9414 309.668 48.9414 315.122C48.9414 320.577 124.656 324.998 218.056 324.998Z" fill="#F5F5F5"/>
<path d="M125.305 169.114C125.305 163.37 129.086 158.695 133.733 158.695C138.38 158.695 142.16 163.369 142.16 169.114C142.16 174.859 138.379 179.533 133.733 179.533C129.086 179.534 125.305 174.859 125.305 169.114ZM127.049 169.114C127.049 173.897 130.048 177.788 133.733 177.788C137.418 177.788 140.416 173.897 140.416 169.114C140.416 164.332 137.418 160.44 133.733 160.44C130.048 160.441 127.049 164.332 127.049 169.114Z" fill="#263238"/>
<path d="M108.727 169.114C108.727 163.37 112.508 158.695 117.155 158.695C121.802 158.695 125.582 163.369 125.582 169.114C125.582 174.859 121.801 179.533 117.155 179.533C112.508 179.534 108.727 174.859 108.727 169.114ZM110.471 169.114C110.471 173.897 113.47 177.788 117.155 177.788C120.84 177.788 123.838 173.897 123.838 169.114C123.838 164.332 120.84 160.44 117.155 160.44C113.47 160.44 110.471 164.332 110.471 169.114Z" fill="#263238"/>
<path d="M92.1426 169.114C92.1426 163.37 95.9228 158.695 100.571 158.695C105.218 158.695 108.998 163.369 108.998 169.114C108.998 174.859 105.217 179.533 100.571 179.533C95.9228 179.534 92.1426 174.859 92.1426 169.114ZM93.887 169.114C93.887 173.897 96.8857 177.788 100.571 177.788C104.256 177.788 107.254 173.897 107.254 169.114C107.254 164.332 104.256 160.44 100.571 160.44C96.8849 160.441 93.887 164.332 93.887 169.114Z" fill="#263238"/>
<path d="M75.5703 169.114C75.5703 163.37 79.3514 158.695 83.9986 158.695C88.6458 158.695 92.426 163.369 92.426 169.114C92.426 174.859 88.6458 179.533 83.9986 179.533C79.3514 179.534 75.5703 174.859 75.5703 169.114ZM77.3148 169.114C77.3148 173.897 80.3135 177.788 83.9986 177.788C87.6837 177.788 90.6816 173.897 90.6816 169.114C90.6816 164.332 87.6837 160.44 83.9986 160.44C80.3135 160.441 77.3148 164.332 77.3148 169.114Z" fill="#263238"/>
<path d="M141.893 169.114C141.893 163.37 145.673 158.695 150.321 158.695C154.968 158.695 158.748 163.369 158.748 169.114C158.748 174.859 154.967 179.533 150.321 179.533C145.674 179.534 141.893 174.859 141.893 169.114ZM143.637 169.114C143.637 173.897 146.636 177.788 150.321 177.788C154.006 177.788 157.004 173.897 157.004 169.114C157.004 164.332 154.006 160.44 150.321 160.44C146.636 160.44 143.637 164.332 143.637 169.114Z" fill="#263238"/>
<path d="M64.5893 312.986H168.457L168.457 169.315H64.5893L64.5893 312.986Z" fill="#263238"/>
<path opacity="0.7" d="M64.5893 312.986H168.457L168.457 169.315H64.5893L64.5893 312.986Z" fill="white"/>
<path opacity="0.6" d="M73.9561 312.986H168.457L168.457 169.315H73.9561L73.9561 312.986Z" fill="white"/>
<path opacity="0.2" d="M67.7101 312.987L67.274 178.719L66.8379 312.987H67.7101Z" fill="black"/>
<path opacity="0.2" d="M72.0539 312.986L71.6178 187.082L71.1816 312.986H72.0539Z" fill="black"/>
<path opacity="0.2" d="M69.0117 169.424L69.4478 270.365L69.8839 169.424H69.0117Z" fill="black"/>
<path d="M152.83 176.146C152.83 177.783 153.925 179.111 155.276 179.111C156.627 179.111 157.722 177.783 157.722 176.146C157.722 174.509 156.627 173.182 155.276 173.182C153.925 173.182 152.83 174.509 152.83 176.146Z" fill="#263238"/>
<path d="M155.425 177.024C155.67 177.024 155.913 176.921 156.086 176.722C157.778 174.761 158.748 171.988 158.748 169.114C158.748 163.37 154.967 158.695 150.321 158.695C146.896 158.695 143.838 161.218 142.532 165.121C142.379 165.577 142.625 166.072 143.082 166.225C143.539 166.377 144.034 166.132 144.186 165.675C145.251 162.495 147.659 160.44 150.321 160.44C154.006 160.44 157.004 164.331 157.004 169.114C157.004 171.576 156.187 173.933 154.765 175.582C154.451 175.947 154.491 176.498 154.856 176.813C155.021 176.954 155.223 177.024 155.425 177.024Z" fill="#263238"/>
<g opacity="0.4">
<path d="M155.425 177.024C155.67 177.024 155.913 176.921 156.086 176.722C157.778 174.761 158.748 171.988 158.748 169.114C158.748 163.37 154.967 158.695 150.321 158.695C146.896 158.695 143.838 161.218 142.532 165.121C142.379 165.577 142.625 166.072 143.082 166.225C143.539 166.377 144.034 166.132 144.186 165.675C145.251 162.495 147.659 160.44 150.321 160.44C154.006 160.44 157.004 164.331 157.004 169.114C157.004 171.576 156.187 173.933 154.765 175.582C154.451 175.947 154.491 176.498 154.856 176.813C155.021 176.954 155.223 177.024 155.425 177.024Z" fill="white"/>
</g>
<path d="M136.246 176.146C136.246 177.783 137.342 179.111 138.692 179.111C140.043 179.111 141.138 177.783 141.138 176.146C141.138 174.509 140.042 173.182 138.692 173.182C137.342 173.182 136.246 174.509 136.246 176.146Z" fill="#263238"/>
<path d="M138.843 177.024C139.088 177.024 139.331 176.921 139.504 176.722C141.195 174.761 142.166 171.988 142.166 169.114C142.166 163.37 138.385 158.695 133.739 158.695C130.314 158.695 127.256 161.218 125.95 165.121C125.797 165.577 126.043 166.072 126.5 166.225C126.957 166.377 127.452 166.132 127.604 165.675C128.669 162.495 131.076 160.44 133.739 160.44C137.424 160.44 140.421 164.331 140.421 169.114C140.421 171.576 139.605 173.933 138.183 175.582C137.869 175.947 137.909 176.498 138.274 176.813C138.438 176.954 138.64 177.024 138.843 177.024Z" fill="#263238"/>
<g opacity="0.4">
<path d="M138.843 177.024C139.088 177.024 139.331 176.921 139.504 176.722C141.195 174.761 142.166 171.988 142.166 169.114C142.166 163.37 138.385 158.695 133.739 158.695C130.314 158.695 127.256 161.218 125.95 165.121C125.797 165.577 126.043 166.072 126.5 166.225C126.957 166.377 127.452 166.132 127.604 165.675C128.669 162.495 131.076 160.44 133.739 160.44C137.424 160.44 140.421 164.331 140.421 169.114C140.421 171.576 139.605 173.933 138.183 175.582C137.869 175.947 137.909 176.498 138.274 176.813C138.438 176.954 138.64 177.024 138.843 177.024Z" fill="white"/>
</g>
<path d="M119.66 176.146C119.66 177.783 120.755 179.111 122.106 179.111C123.457 179.111 124.552 177.783 124.552 176.146C124.552 174.509 123.457 173.182 122.106 173.182C120.755 173.182 119.66 174.509 119.66 176.146Z" fill="#263238"/>
<path d="M122.263 177.024C122.508 177.024 122.751 176.921 122.924 176.722C124.615 174.761 125.586 171.988 125.586 169.114C125.586 163.37 121.805 158.695 117.158 158.695C113.734 158.695 110.676 161.218 109.369 165.121C109.217 165.577 109.463 166.072 109.92 166.225C110.377 166.377 110.871 166.132 111.024 165.675C112.089 162.495 114.497 160.44 117.158 160.44C120.844 160.44 123.841 164.331 123.841 169.114C123.841 171.576 123.025 173.933 121.603 175.582C121.289 175.947 121.329 176.498 121.694 176.813C121.858 176.954 122.06 177.024 122.263 177.024Z" fill="#263238"/>
<g opacity="0.4">
<path d="M122.263 177.024C122.508 177.024 122.751 176.921 122.924 176.722C124.615 174.761 125.586 171.988 125.586 169.114C125.586 163.37 121.805 158.695 117.158 158.695C113.734 158.695 110.676 161.218 109.369 165.121C109.217 165.577 109.463 166.072 109.92 166.225C110.377 166.377 110.871 166.132 111.024 165.675C112.089 162.495 114.497 160.44 117.158 160.44C120.844 160.44 123.841 164.331 123.841 169.114C123.841 171.576 123.025 173.933 121.603 175.582C121.289 175.947 121.329 176.498 121.694 176.813C121.858 176.954 122.06 177.024 122.263 177.024Z" fill="white"/>
</g>
<path d="M103.086 176.146C103.086 177.783 104.181 179.111 105.532 179.111C106.883 179.111 107.977 177.783 107.977 176.146C107.977 174.509 106.882 173.182 105.532 173.182C104.181 173.182 103.086 174.509 103.086 176.146Z" fill="#263238"/>
<path d="M105.679 177.024C105.924 177.024 106.167 176.921 106.34 176.722C108.032 174.761 109.002 171.988 109.002 169.114C109.002 163.37 105.221 158.695 100.574 158.695C97.1501 158.695 94.0921 161.218 92.7855 165.121C92.6328 165.577 92.8788 166.072 93.3359 166.225C93.7929 166.377 94.2875 166.132 94.4401 165.675C95.5051 162.495 97.9124 160.44 100.574 160.44C104.26 160.44 107.257 164.331 107.257 169.114C107.257 171.576 106.441 173.933 105.019 175.582C104.705 175.947 104.745 176.498 105.11 176.813C105.274 176.954 105.476 177.024 105.679 177.024Z" fill="#263238"/>
<g opacity="0.4">
<path d="M105.679 177.024C105.924 177.024 106.167 176.921 106.34 176.722C108.032 174.761 109.002 171.988 109.002 169.114C109.002 163.37 105.221 158.695 100.574 158.695C97.1501 158.695 94.0921 161.218 92.7855 165.121C92.6328 165.577 92.8788 166.072 93.3359 166.225C93.7929 166.377 94.2875 166.132 94.4401 165.675C95.5051 162.495 97.9124 160.44 100.574 160.44C104.26 160.44 107.257 164.331 107.257 169.114C107.257 171.576 106.441 173.933 105.019 175.582C104.705 175.947 104.745 176.498 105.11 176.813C105.274 176.954 105.476 177.024 105.679 177.024Z" fill="white"/>
</g>
<path d="M86.5039 176.146C86.5039 177.783 87.5994 179.111 88.9496 179.111C90.3007 179.111 91.3953 177.783 91.3953 176.146C91.3953 174.509 90.2998 173.182 88.9496 173.182C87.5985 173.182 86.5039 174.509 86.5039 176.146Z" fill="#263238"/>
<path d="M89.1045 177.024C89.3496 177.024 89.5929 176.921 89.7656 176.722C91.4568 174.761 92.4276 171.988 92.4276 169.114C92.4276 163.37 88.6474 158.695 84.0002 158.695C80.5759 158.695 77.5179 161.218 76.2113 165.121C76.0586 165.577 76.3046 166.072 76.7616 166.225C77.2187 166.377 77.7132 166.132 77.8659 165.675C78.9309 162.495 81.3382 160.44 84.0002 160.44C87.6854 160.44 90.6832 164.331 90.6832 169.114C90.6832 171.576 89.8668 173.933 88.4451 175.582C88.1311 175.947 88.1712 176.498 88.5358 176.813C88.6998 176.954 88.9021 177.024 89.1045 177.024Z" fill="#263238"/>
<g opacity="0.4">
<path d="M89.1045 177.024C89.3496 177.024 89.5929 176.921 89.7656 176.722C91.4568 174.761 92.4276 171.988 92.4276 169.114C92.4276 163.37 88.6474 158.695 84.0002 158.695C80.5759 158.695 77.5179 161.218 76.2113 165.121C76.0586 165.577 76.3046 166.072 76.7616 166.225C77.2187 166.377 77.7132 166.132 77.8659 165.675C78.9309 162.495 81.3382 160.44 84.0002 160.44C87.6854 160.44 90.6832 164.331 90.6832 169.114C90.6832 171.576 89.8668 173.933 88.4451 175.582C88.1311 175.947 88.1712 176.498 88.5358 176.813C88.6998 176.954 88.9021 177.024 89.1045 177.024Z" fill="white"/>
</g>
<path d="M101.255 235.414H93.9453V247.877H101.255V235.414Z" fill="#E86B31"/>
<path d="M113.093 226.34H105.783V247.873H113.093V226.34Z" fill="#E86B31"/>
<path d="M124.941 229.746H117.631V247.878H124.941V229.746Z" fill="#E86B31"/>
<path d="M136.775 220.672H129.465V247.874H136.775V220.672Z" fill="#E86B31"/>
<path d="M148.618 211.604H141.309V247.876H148.618V211.604Z" fill="#E86B31"/>
<path opacity="0.5" d="M101.255 235.414H93.9453V247.877H101.255V235.414Z" fill="white"/>
<path opacity="0.5" d="M113.093 226.34H105.783V247.873H113.093V226.34Z" fill="white"/>
<path opacity="0.5" d="M124.941 229.746H117.631V247.878H124.941V229.746Z" fill="white"/>
<path opacity="0.5" d="M136.775 220.672H129.465V247.874H136.775V220.672Z" fill="white"/>
<path opacity="0.5" d="M148.618 211.604H141.309V247.876H148.618V211.604Z" fill="white"/>
<path d="M158.366 246.148H83.9043V249.599H158.366V246.148Z" fill="#263238"/>
<path d="M86.2383 236.965L109.434 218.506L121.275 225.379L153.877 197.588" stroke="#FFBE55" stroke-width="2.9675" stroke-miterlimit="10"/>
<path d="M155.783 195.984L150.932 196.736L154.35 200.386L155.783 195.984Z" fill="#FFBE55"/>
<g opacity="0.3">
<path d="M126.126 260.813H83.9875C83.506 260.813 83.1152 260.423 83.1152 259.941C83.1152 259.458 83.506 259.068 83.9875 259.068H126.126C126.608 259.068 126.998 259.458 126.998 259.941C126.998 260.423 126.608 260.813 126.126 260.813Z" fill="black"/>
</g>
<g opacity="0.3">
<path d="M158.669 268.608H90.0011C89.5197 268.608 89.1289 268.218 89.1289 267.736C89.1289 267.253 89.5197 266.863 90.0011 266.863H158.669C159.151 266.863 159.542 267.253 159.542 267.736C159.542 268.218 159.151 268.608 158.669 268.608Z" fill="black"/>
<path d="M158.766 272.979H83.9875C83.506 272.979 83.1152 272.589 83.1152 272.107C83.1152 271.624 83.506 271.234 83.9875 271.234H158.765C159.246 271.234 159.637 271.624 159.637 272.107C159.638 272.589 159.247 272.979 158.766 272.979Z" fill="black"/>
<path d="M158.866 277.352H84.089C83.6076 277.352 83.2168 276.962 83.2168 276.48C83.2168 275.997 83.6076 275.607 84.089 275.607H158.866C159.348 275.607 159.739 275.997 159.739 276.48C159.739 276.962 159.348 277.352 158.866 277.352Z" fill="black"/>
<path d="M146.741 281.721H84.1808C83.6993 281.721 83.3086 281.331 83.3086 280.849C83.3086 280.366 83.6993 279.977 84.1808 279.977H146.74C147.222 279.977 147.612 280.366 147.612 280.849C147.613 281.33 147.222 281.721 146.741 281.721Z" fill="black"/>
</g>
<g opacity="0.3">
<path d="M158.669 289.551H90.0011C89.5197 289.551 89.1289 289.161 89.1289 288.679C89.1289 288.197 89.5197 287.807 90.0011 287.807H158.669C159.151 287.807 159.542 288.197 159.542 288.679C159.542 289.16 159.151 289.551 158.669 289.551Z" fill="black"/>
<path d="M158.766 293.922H83.9875C83.506 293.922 83.1152 293.532 83.1152 293.05C83.1152 292.568 83.506 292.178 83.9875 292.178H158.765C159.246 292.178 159.637 292.568 159.637 293.05C159.638 293.532 159.247 293.922 158.766 293.922Z" fill="black"/>
<path d="M158.866 298.295H84.089C83.6076 298.295 83.2168 297.905 83.2168 297.423C83.2168 296.941 83.6076 296.551 84.089 296.551H158.866C159.348 296.551 159.739 296.941 159.739 297.423C159.739 297.905 159.348 298.295 158.866 298.295Z" fill="black"/>
<path d="M146.741 302.664H84.1808C83.6993 302.664 83.3086 302.274 83.3086 301.792C83.3086 301.31 83.6993 300.92 84.1808 300.92H146.74C147.222 300.92 147.612 301.31 147.612 301.792C147.613 302.274 147.222 302.664 146.741 302.664Z" fill="black"/>
</g>
<g opacity="0.3">
<path d="M126.126 188.373H83.9875C83.506 188.373 83.1152 187.983 83.1152 187.501C83.1152 187.019 83.506 186.629 83.9875 186.629H126.126C126.608 186.629 126.998 187.019 126.998 187.501C126.998 187.983 126.608 188.373 126.126 188.373Z" fill="black"/>
</g>
<path d="M357.998 272.922H257.839C256.172 272.922 254.82 271.571 254.82 269.903V104.445C254.82 102.778 256.171 101.426 257.839 101.426H357.997C359.664 101.426 361.016 102.777 361.016 104.445V269.903C361.016 271.571 359.665 272.922 357.998 272.922Z" fill="url(#paint0_linear_1391_355623)"/>
<path d="M336.56 106.788H279.281V101.17C279.281 100.859 279.533 100.607 279.844 100.607H335.998C336.309 100.607 336.561 100.859 336.561 101.17L336.56 106.788Z" fill="#263238"/>
<path opacity="0.9" d="M356.817 106.787H259.02V267.545H356.817V106.787Z" fill="white"/>
<path d="M327.103 114.186H309.897L309.701 113.584C309.45 112.812 308.739 112.294 307.931 112.294C307.124 112.294 306.413 112.812 306.162 113.584L305.965 114.186H288.759C287.369 114.186 286.238 113.06 286.238 111.674V105.342C286.238 103.957 287.369 102.83 288.759 102.83H327.102C328.487 102.83 329.614 103.957 329.614 105.342V111.674C329.615 113.059 328.488 114.186 327.103 114.186ZM311.103 112.441H327.103C327.526 112.441 327.87 112.097 327.87 111.674V105.341C327.87 104.918 327.526 104.574 327.103 104.574H288.76C288.325 104.574 287.984 104.911 287.984 105.341V111.674C287.984 112.104 288.325 112.441 288.76 112.441H304.76C305.381 111.288 306.587 110.548 307.931 110.548C309.275 110.548 310.481 111.288 311.103 112.441Z" fill="#263238"/>
<g opacity="0.5">
<path d="M327.103 114.186H309.897L309.701 113.584C309.45 112.812 308.739 112.294 307.931 112.294C307.124 112.294 306.413 112.812 306.162 113.584L305.965 114.186H288.759C287.369 114.186 286.238 113.06 286.238 111.674V105.342C286.238 103.957 287.369 102.83 288.759 102.83H327.102C328.487 102.83 329.614 103.957 329.614 105.342V111.674C329.615 113.059 328.488 114.186 327.103 114.186ZM311.103 112.441H327.103C327.526 112.441 327.87 112.097 327.87 111.674V105.341C327.87 104.918 327.526 104.574 327.103 104.574H288.76C288.325 104.574 287.984 104.911 287.984 105.341V111.674C287.984 112.104 288.325 112.441 288.76 112.441H304.76C305.381 111.288 306.587 110.548 307.931 110.548C309.275 110.548 310.481 111.288 311.103 112.441Z" fill="white"/>
</g>
<path d="M324.393 105.614H291.441C290.965 105.614 290.578 105.228 290.578 104.752V102.681C290.578 102.205 290.965 101.818 291.441 101.818H324.393C324.87 101.818 325.256 102.205 325.256 102.681V104.752C325.256 105.228 324.87 105.614 324.393 105.614Z" fill="#263238"/>
<path opacity="0.2" d="M324.393 105.614H291.441C290.965 105.614 290.578 105.228 290.578 104.752V102.681C290.578 102.205 290.965 101.818 291.441 101.818H324.393C324.87 101.818 325.256 102.205 325.256 102.681V104.752C325.256 105.228 324.87 105.614 324.393 105.614Z" fill="white"/>
<path d="M349.187 241.511C351.543 231.536 345.366 221.54 335.39 219.184C325.415 216.829 315.419 223.006 313.064 232.981C310.708 242.956 316.885 252.952 326.861 255.308C336.836 257.663 346.832 251.486 349.187 241.511Z" fill="#FFBE55"/>
<path opacity="0.3" d="M331.124 237.215H349.683C349.683 247.397 341.305 255.775 331.124 255.775C320.942 255.775 312.564 247.397 312.564 237.215C312.564 227.034 320.942 218.656 331.124 218.656C331.146 218.656 331.168 218.656 331.191 218.656L331.124 237.215Z" fill="white"/>
<path opacity="0.3" d="M331.124 237.215L341.138 252.84C338.149 254.756 334.674 255.775 331.124 255.775C320.942 255.775 312.564 247.397 312.564 237.215C312.564 227.034 320.942 218.656 331.124 218.656C331.145 218.656 331.166 218.656 331.188 218.656L331.124 237.215Z" fill="white"/>
<path opacity="0.3" d="M331.124 237.215L315.477 247.196C313.575 244.215 312.564 240.751 312.564 237.215C312.564 227.034 320.942 218.656 331.124 218.656C331.145 218.656 331.166 218.656 331.188 218.656L331.124 237.215Z" fill="white"/>
<g opacity="0.5">
<path d="M266.072 135.578V179.385H349.769V135.578H266.072ZM349.115 142.42H334.627V136.232H349.115V142.42ZM302.842 142.42H287.93V136.232H302.842V142.42ZM303.496 136.232H318.407V142.42H303.496V136.232ZM302.842 143.074V178.73H287.93V143.074H302.842ZM303.496 143.074H318.407V178.73H303.496V143.074ZM319.062 143.074H333.973V178.73H319.062V143.074ZM319.062 142.42V136.232H333.973V142.42H319.062ZM287.276 136.232V142.42H266.726V136.232H287.276ZM266.726 143.074H287.276V178.73H266.726V143.074ZM334.627 178.73V143.074H349.115V178.73H334.627Z" fill="black"/>
<path d="M292.683 149.196H298.721C299.203 149.196 299.593 148.805 299.593 148.323C299.593 147.842 299.203 147.451 298.721 147.451H292.683C292.201 147.451 291.811 147.842 291.811 148.323C291.811 148.806 292.2 149.196 292.683 149.196Z" fill="black"/>
<path d="M307.915 157.108H314.469C314.951 157.108 315.341 156.718 315.341 156.236C315.341 155.753 314.951 155.363 314.469 155.363H307.915C307.434 155.363 307.043 155.753 307.043 156.236C307.043 156.717 307.434 157.108 307.915 157.108Z" fill="black"/>
<path d="M314.759 171.193H307.915C307.434 171.193 307.043 171.583 307.043 172.066C307.043 172.548 307.434 172.938 307.915 172.938H314.759C315.24 172.938 315.631 172.548 315.631 172.066C315.631 171.583 315.24 171.193 314.759 171.193Z" fill="black"/>
<path d="M329.932 163.277H322.7C322.219 163.277 321.828 163.667 321.828 164.15C321.828 164.632 322.219 165.022 322.7 165.022H329.932C330.413 165.022 330.804 164.632 330.804 164.15C330.804 163.667 330.413 163.277 329.932 163.277Z" fill="black"/>
<path d="M345.537 147.451H338.218C337.736 147.451 337.346 147.842 337.346 148.323C337.346 148.805 337.736 149.196 338.218 149.196H345.537C346.018 149.196 346.409 148.805 346.409 148.323C346.409 147.842 346.018 147.451 345.537 147.451Z" fill="black"/>
<path d="M344.602 171.193H338.218C337.736 171.193 337.346 171.583 337.346 172.066C337.346 172.548 337.736 172.938 338.218 172.938H344.602C345.083 172.938 345.474 172.548 345.474 172.066C345.474 171.583 345.084 171.193 344.602 171.193Z" fill="black"/>
<path d="M292.683 165.022H297.859C298.34 165.022 298.731 164.632 298.731 164.15C298.731 163.667 298.34 163.277 297.859 163.277H292.683C292.201 163.277 291.811 163.667 291.811 164.15C291.811 164.631 292.2 165.022 292.683 165.022Z" fill="black"/>
<path d="M298.721 171.193H292.683C292.201 171.193 291.811 171.583 291.811 172.066C291.811 172.548 292.201 172.938 292.683 172.938H298.721C299.203 172.938 299.593 172.548 299.593 172.066C299.593 171.583 299.204 171.193 298.721 171.193Z" fill="black"/>
<path d="M269.872 149.196H283.674C284.156 149.196 284.546 148.805 284.546 148.323C284.546 147.842 284.156 147.451 283.674 147.451H269.872C269.391 147.451 269 147.842 269 148.323C269 148.806 269.391 149.196 269.872 149.196Z" fill="black"/>
<path d="M269.872 157.108H279.062C279.543 157.108 279.934 156.718 279.934 156.236C279.934 155.753 279.543 155.363 279.062 155.363H269.872C269.391 155.363 269 155.753 269 156.236C269 156.717 269.391 157.108 269.872 157.108Z" fill="black"/>
<path d="M283.674 163.277H269.872C269.391 163.277 269 163.667 269 164.15C269 164.632 269.391 165.022 269.872 165.022H283.674C284.156 165.022 284.546 164.632 284.546 164.15C284.546 163.667 284.157 163.277 283.674 163.277Z" fill="black"/>
<path d="M276.773 171.193H269.872C269.391 171.193 269 171.583 269 172.066C269 172.548 269.391 172.938 269.872 172.938H276.773C277.255 172.938 277.645 172.548 277.645 172.066C277.645 171.583 277.256 171.193 276.773 171.193Z" fill="black"/>
</g>
<g opacity="0.5">
<path d="M299.601 126.391H266.944C266.463 126.391 266.072 126 266.072 125.519C266.072 125.037 266.463 124.646 266.944 124.646H299.601C300.083 124.646 300.474 125.037 300.474 125.519C300.474 126.001 300.083 126.391 299.601 126.391Z" fill="black"/>
</g>
<g opacity="0.5">
<path d="M288.148 131.289H266.944C266.463 131.289 266.072 130.899 266.072 130.417C266.072 129.936 266.463 129.545 266.944 129.545H288.148C288.63 129.545 289.02 129.936 289.02 130.417C289.02 130.899 288.63 131.289 288.148 131.289Z" fill="black"/>
</g>
<g opacity="0.5">
<path d="M309.082 186.946H266.944C266.463 186.946 266.072 186.556 266.072 186.073C266.072 185.591 266.463 185.201 266.944 185.201H309.082C309.564 185.201 309.955 185.591 309.955 186.073C309.955 186.556 309.565 186.946 309.082 186.946Z" fill="black"/>
</g>
<path d="M271.282 221.525H266.076V226.731H271.282V221.525Z" fill="#E86B31"/>
<g opacity="0.5">
<path d="M300.904 225.002H275.064C274.582 225.002 274.191 224.612 274.191 224.13C274.191 223.648 274.582 223.258 275.064 223.258H300.904C301.386 223.258 301.776 223.648 301.776 224.13C301.776 224.612 301.386 225.002 300.904 225.002Z" fill="black"/>
</g>
<path d="M271.282 230.248H266.076V235.453H271.282V230.248Z" fill="#E86B31"/>
<g opacity="0.5">
<path d="M300.904 233.723H275.064C274.582 233.723 274.191 233.333 274.191 232.851C274.191 232.368 274.582 231.979 275.064 231.979H300.904C301.386 231.979 301.776 232.368 301.776 232.851C301.776 233.332 301.386 233.723 300.904 233.723Z" fill="black"/>
</g>
<path d="M271.282 238.977H266.076V244.182H271.282V238.977Z" fill="#E86B31"/>
<g opacity="0.5">
<path d="M300.904 242.451H275.064C274.582 242.451 274.191 242.062 274.191 241.579C274.191 241.097 274.582 240.707 275.064 240.707H300.904C301.386 240.707 301.776 241.097 301.776 241.579C301.776 242.062 301.386 242.451 300.904 242.451Z" fill="black"/>
</g>
<path d="M271.282 247.709H266.076V252.914H271.282V247.709Z" fill="#E86B31"/>
<g opacity="0.5">
<path d="M300.904 251.184H275.064C274.582 251.184 274.191 250.794 274.191 250.312C274.191 249.829 274.582 249.439 275.064 249.439H300.904C301.386 249.439 301.776 249.829 301.776 250.312C301.776 250.794 301.386 251.184 300.904 251.184Z" fill="black"/>
</g>
<g opacity="0.5">
<path d="M348.613 194.746H272.962C272.481 194.746 272.09 194.357 272.09 193.874C272.09 193.392 272.481 193.002 272.962 193.002H348.613C349.094 193.002 349.485 193.392 349.485 193.874C349.485 194.357 349.094 194.746 348.613 194.746Z" fill="black"/>
<path d="M348.708 199.116H266.948C266.467 199.116 266.076 198.726 266.076 198.243C266.076 197.761 266.467 197.371 266.948 197.371H348.708C349.189 197.371 349.58 197.761 349.58 198.243C349.58 198.725 349.189 199.116 348.708 199.116Z" fill="black"/>
<path d="M348.809 203.489H267.05C266.568 203.489 266.178 203.099 266.178 202.616C266.178 202.134 266.568 201.744 267.05 201.744H348.809C349.291 201.744 349.682 202.134 349.682 202.616C349.682 203.099 349.292 203.489 348.809 203.489Z" fill="black"/>
<path d="M336.673 207.858H267.132C266.651 207.858 266.26 207.468 266.26 206.986C266.26 206.503 266.651 206.113 267.132 206.113H336.673C337.155 206.113 337.546 206.503 337.546 206.986C337.546 207.468 337.155 207.858 336.673 207.858Z" fill="black"/>
</g>
<path opacity="0.3" d="M271.28 230.248H266.074V235.453H271.28V230.248Z" fill="white"/>
<path opacity="0.5" d="M271.28 238.979H266.074V244.184H271.28V238.979Z" fill="white"/>
<path opacity="0.7" d="M271.28 247.705H266.074V252.91H271.28V247.705Z" fill="white"/>
<path d="M355.358 295.073C355.358 295.073 351.215 286.033 355.948 277.121C360.682 268.21 362.055 266.11 359.037 264.285C356.019 262.459 354.635 271.414 354.635 271.414C354.635 271.414 352.091 265.253 354.191 258.806C356.292 252.359 357.609 241.858 354.74 240.732C351.871 239.606 354.192 253.832 351.704 258.681C351.704 258.681 349.613 253.283 349.27 248.104C348.926 242.926 349.463 234.657 347.198 232.536C344.933 230.415 343.481 231.883 345.707 243.311C347.933 254.738 347.917 264.028 347.917 264.028C347.917 264.028 343 249.038 339.7 248.6C336.401 248.163 336.405 253.017 339.229 257.228C342.054 261.438 347.501 268.982 348.394 272.863C348.394 272.863 342.997 261.582 338.143 265.039C333.288 268.497 342.368 275.311 346.415 277.773C350.462 280.235 353.272 295.669 353.272 295.669L355.358 295.073Z" fill="#E86B31"/>
<path opacity="0.2" d="M355.358 295.073C355.358 295.073 351.215 286.033 355.948 277.121C360.682 268.21 362.055 266.11 359.037 264.285C356.019 262.459 354.635 271.414 354.635 271.414C354.635 271.414 352.091 265.253 354.191 258.806C356.292 252.359 357.609 241.858 354.74 240.732C351.871 239.606 354.192 253.832 351.704 258.681C351.704 258.681 349.613 253.283 349.27 248.104C348.926 242.926 349.463 234.657 347.198 232.536C344.933 230.415 343.481 231.883 345.707 243.311C347.933 254.738 347.917 264.028 347.917 264.028C347.917 264.028 343 249.038 339.7 248.6C336.401 248.163 336.405 253.017 339.229 257.228C342.054 261.438 347.501 268.982 348.394 272.863C348.394 272.863 342.997 261.582 338.143 265.039C333.288 268.497 342.368 275.311 346.415 277.773C350.462 280.235 353.272 295.669 353.272 295.669L355.358 295.073Z" fill="black"/>
<path d="M352.092 298.782C352.092 298.782 356.126 289.681 351.286 280.841C346.446 272.001 345.049 269.922 348.044 268.051C351.04 266.18 352.532 275.114 352.532 275.114C352.532 275.114 355.001 268.916 352.824 262.501C350.646 256.085 349.204 245.605 352.058 244.436C354.913 243.267 352.763 257.526 355.31 262.338C355.31 262.338 357.335 256.91 357.617 251.726C357.899 246.543 357.262 238.283 359.502 236.128C361.742 233.974 363.21 235.419 361.122 246.879C359.033 258.339 359.161 267.627 359.161 267.627C359.161 267.627 363.897 252.565 367.191 252.078C370.486 251.592 370.54 256.446 367.766 260.699C364.993 264.951 359.636 272.575 358.789 276.469C358.789 276.469 364.05 265.108 368.945 268.494C373.841 271.879 364.843 278.827 360.827 281.349C356.809 283.872 354.185 299.346 354.185 299.346L352.092 298.782Z" fill="#E86B31"/>
<path d="M370.696 292.293H337.367L340.065 316.142H367.999L370.696 292.293Z" fill="#263238"/>
<path d="M169.441 87.7598H194.498C198.759 87.7598 202.214 91.2146 202.214 95.4755V117.283C202.214 121.544 198.759 124.998 194.498 124.998H187.182L189.824 134.502L181.992 124.998H169.44C165.179 124.998 161.725 121.544 161.725 117.283V95.4755C161.725 91.2138 165.18 87.7598 169.441 87.7598Z" fill="#E86B31"/>
<path opacity="0.7" d="M169.441 87.7598H194.498C198.759 87.7598 202.214 91.2146 202.214 95.4755V117.283C202.214 121.544 198.759 124.998 194.498 124.998H187.182L189.824 134.502L181.992 124.998H169.44C165.179 124.998 161.725 121.544 161.725 117.283V95.4755C161.725 91.2138 165.18 87.7598 169.441 87.7598Z" fill="white"/>
<path opacity="0.7" d="M178.183 111.128C182.495 111.128 185.991 107.632 185.991 103.32C185.991 99.0075 182.495 95.5117 178.183 95.5117C173.871 95.5117 170.375 99.0075 170.375 103.32C170.375 107.632 173.871 111.128 178.183 111.128Z" fill="white"/>
<path d="M178.183 111.128C182.495 111.128 185.991 107.632 185.991 103.32C185.991 99.0075 182.495 95.5117 178.183 95.5117C173.871 95.5117 170.375 99.0075 170.375 103.32C170.375 107.632 173.871 111.128 178.183 111.128Z" stroke="#E86B31" stroke-width="2.5967" stroke-miterlimit="10"/>
<path d="M183.699 108.842L192.601 117.744" stroke="#E86B31" stroke-width="2.5967" stroke-miterlimit="10"/>
<path d="M186.758 111.896L193.558 118.695" stroke="#E86B31" stroke-width="3.895" stroke-miterlimit="10" stroke-linecap="round" stroke-linejoin="round"/>
<path d="M179.396 99.7917C179.396 100.744 178.623 101.517 177.671 101.517C176.718 101.517 175.945 100.744 175.945 99.7917C175.945 98.8392 176.718 98.0664 177.671 98.0664C178.624 98.0664 179.396 98.8383 179.396 99.7917Z" fill="white"/>
<path d="M181.983 101.064C181.983 101.54 181.597 101.926 181.12 101.926C180.644 101.926 180.258 101.54 180.258 101.064C180.258 100.588 180.644 100.201 181.12 100.201C181.598 100.201 181.983 100.588 181.983 101.064Z" fill="white"/>
<path d="M251.872 248.148H121.965V269.056H251.872V248.148Z" fill="#E86B31"/>
<path opacity="0.8" d="M251.872 248.148H121.965V269.056H251.872V248.148Z" fill="white"/>
<path opacity="0.2" d="M251.873 253.673V251.971L162.928 252.685L251.873 253.673Z" fill="black"/>
<path opacity="0.2" d="M251.871 261.005V259.691L211.941 261.119L251.871 261.005Z" fill="black"/>
<path opacity="0.2" d="M251.87 265.899V264.203L187.49 265.184L251.87 265.899Z" fill="black"/>
<path opacity="0.2" d="M151.006 248.148L149.123 263.735L151.345 261.363C152.372 265.755 155.433 269.056 155.433 269.056C155.433 269.056 157.498 266.489 158.711 263.059L219.379 262.362L159.281 261.049C159.461 260.21 159.576 259.343 159.576 258.467C159.576 257.725 159.494 256.998 159.362 256.292L248.386 256.067L159.156 255.369C158.832 254.125 158.352 252.975 157.845 251.979C159.097 250.853 160.743 250.194 162.495 250.194H251.871V248.149L151.006 248.148Z" fill="black"/>
<path d="M153.015 258.479C153.018 261.088 154.074 263.448 155.786 265.159C157.5 266.873 159.864 267.93 162.477 267.93H253.374C253.759 267.93 254.071 268.242 254.071 268.627V269.375C254.071 269.76 253.759 270.072 253.374 270.072H119.105C115.906 270.072 112.999 268.772 110.899 266.673C108.781 264.554 107.477 261.621 107.5 258.38C107.547 251.955 112.979 246.861 119.404 246.861H253.374C253.759 246.861 254.071 247.174 254.071 247.558V248.307C254.071 248.691 253.759 249.004 253.374 249.004H162.756C157.543 249.004 153.009 253.266 153.015 258.479Z" fill="#E86B31"/>
<path d="M153.015 258.479C153.018 261.088 154.075 263.448 155.786 265.159C157.5 266.873 159.864 267.93 162.478 267.93H253.374C253.759 267.93 254.071 268.242 254.071 268.627V269.375C254.071 269.76 253.759 270.072 253.374 270.072H161.957C158.757 270.072 155.85 268.772 153.751 266.673C151.632 264.554 150.328 261.621 150.352 258.38C150.399 251.955 155.83 246.861 162.255 246.861H253.374C253.759 246.861 254.071 247.174 254.071 247.558V248.307C254.071 248.691 253.759 249.004 253.374 249.004H162.757C157.543 249.004 153.009 253.266 153.015 258.479Z" fill="#E86B31"/>
<path d="M170.137 252.85V261.232L173.17 258.197L176.111 261.137V252.85H170.137Z" fill="#263238"/>
<path opacity="0.6" d="M153.015 258.479C153.018 261.088 154.075 263.448 155.786 265.159C157.5 266.873 159.864 267.93 162.478 267.93H253.374C253.759 267.93 254.071 268.242 254.071 268.627V269.375C254.071 269.76 253.759 270.072 253.374 270.072H161.957C158.757 270.072 155.85 268.772 153.751 266.673C151.632 264.554 150.328 261.621 150.352 258.38C150.399 251.955 155.83 246.861 162.255 246.861H253.374C253.759 246.861 254.071 247.174 254.071 247.558V248.307C254.071 248.691 253.759 249.004 253.374 249.004H162.757C157.543 249.004 153.009 253.266 153.015 258.479Z" fill="white"/>
<path d="M258.153 294.219H128.246V315.126H258.153V294.219Z" fill="#E86B31"/>
<path opacity="0.7" d="M258.153 294.219H128.246V315.126H258.153V294.219Z" fill="white"/>
<path opacity="0.2" d="M258.15 299.744V298.041L169.205 298.755L258.15 299.744Z" fill="black"/>
<path opacity="0.2" d="M258.153 307.075V305.762L218.225 307.19L258.153 307.075Z" fill="black"/>
<path opacity="0.2" d="M258.146 311.97V310.275L193.768 311.256L258.146 311.97Z" fill="black"/>
<path opacity="0.2" d="M157.284 294.219L155.4 309.805L157.622 307.433C158.649 311.825 161.71 315.126 161.71 315.126C161.71 315.126 163.775 312.558 164.989 309.129L225.656 308.432L165.558 307.119C165.738 306.279 165.853 305.413 165.853 304.536C165.853 303.794 165.771 303.067 165.639 302.362L254.664 302.137L165.434 301.438C165.109 300.194 164.629 299.045 164.123 298.049C165.374 296.923 167.02 296.263 168.772 296.263H258.147V294.219H157.284Z" fill="black"/>
<path d="M159.289 304.548C159.293 307.156 160.349 309.516 162.06 311.227C163.774 312.941 166.139 313.998 168.752 313.998H259.649C260.034 313.998 260.346 314.31 260.346 314.695V315.443C260.346 315.828 260.034 316.14 259.649 316.14H118.238C115.039 316.14 112.132 314.841 110.032 312.741C107.914 310.623 106.61 307.689 106.633 304.448C106.68 298.023 112.112 292.93 118.536 292.93H259.65C260.034 292.93 260.347 293.242 260.347 293.627V294.375C260.347 294.76 260.034 295.072 259.65 295.072H169.03C163.818 295.073 159.282 299.334 159.289 304.548Z" fill="#263238"/>
<path d="M159.289 304.548C159.293 307.156 160.349 309.516 162.06 311.227C163.774 312.941 166.139 313.998 168.752 313.998H259.649C260.034 313.998 260.346 314.31 260.346 314.695V315.443C260.346 315.828 260.034 316.14 259.649 316.14H118.238C115.039 316.14 112.132 314.841 110.032 312.741C107.914 310.623 106.61 307.689 106.633 304.448C106.68 298.023 112.112 292.93 118.536 292.93H259.65C260.034 292.93 260.347 293.242 260.347 293.627V294.375C260.347 294.76 260.034 295.072 259.65 295.072H169.03C163.818 295.073 159.282 299.334 159.289 304.548Z" fill="#FFBE55"/>
<path d="M159.293 304.548C159.296 307.156 160.353 309.516 162.064 311.227C163.778 312.941 166.143 313.998 168.756 313.998H259.653C260.037 313.998 260.35 314.31 260.35 314.695V315.443C260.35 315.828 260.037 316.14 259.653 316.14H168.234C165.035 316.14 162.128 314.841 160.028 312.741C157.91 310.623 156.606 307.689 156.629 304.448C156.676 298.023 162.108 292.93 168.532 292.93H259.653C260.037 292.93 260.35 293.242 260.35 293.627V294.375C260.35 294.76 260.037 295.072 259.653 295.072H169.034C163.822 295.073 159.286 299.334 159.293 304.548Z" fill="#263238"/>
<path d="M169.203 301.891V310.273L172.238 307.238L175.178 310.178V301.891H169.203Z" fill="#E86B31"/>
<path d="M159.293 304.548C159.296 307.156 160.353 309.516 162.064 311.227C163.778 312.941 166.143 313.998 168.756 313.998H259.653C260.037 313.998 260.35 314.31 260.35 314.695V315.443C260.35 315.828 260.037 316.14 259.653 316.14H168.234C165.035 316.14 162.128 314.841 160.028 312.741C157.91 310.623 156.606 307.689 156.629 304.448C156.676 298.023 162.108 292.93 168.532 292.93H259.653C260.037 292.93 260.35 293.242 260.35 293.627V294.375C260.35 294.76 260.037 295.072 259.653 295.072H169.034C163.822 295.073 159.286 299.334 159.293 304.548Z" fill="#6C4403"/>
<path d="M116.553 292.062H164.686V271.186H116.553V292.062Z" fill="#E86B31"/>
<path opacity="0.8" d="M116.553 292.062H164.686V271.186H116.553V292.062Z" fill="white"/>
<path opacity="0.2" d="M160.822 273.23H116.551V271.188H160.775L160.822 273.23Z" fill="black"/>
<path opacity="0.2" d="M160.827 275.01L120.887 275.862L160.827 276.713V275.01Z" fill="black"/>
<path opacity="0.2" d="M160.82 282.729L118.525 283.443L160.82 284.043V282.729Z" fill="black"/>
<path opacity="0.2" d="M160.828 287.244L118.91 288.092L160.828 288.94V287.244Z" fill="black"/>
<path opacity="0.2" d="M116.555 277.986L157.106 279.211L116.555 280.059V277.986Z" fill="black"/>
<path d="M223.973 281.516C223.97 284.125 222.914 286.485 221.202 288.196C219.488 289.91 217.124 290.967 214.511 290.967H114.33C113.945 290.967 113.633 291.279 113.633 291.664V292.412C113.633 292.797 113.945 293.109 114.33 293.109H215.032C218.231 293.109 221.139 291.81 223.238 289.71C225.357 287.591 226.661 284.658 226.637 281.417C226.59 274.992 221.159 269.898 214.734 269.898H114.33C113.945 269.898 113.633 270.211 113.633 270.595V271.344C113.633 271.728 113.945 272.041 114.33 272.041H214.232C219.446 272.041 223.98 276.304 223.973 281.516Z" fill="#263238"/>
<path opacity="0.4" d="M223.973 281.516C223.97 284.125 222.914 286.485 221.202 288.196C219.488 289.91 217.124 290.967 214.511 290.967H114.33C113.945 290.967 113.633 291.279 113.633 291.664V292.412C113.633 292.797 113.945 293.109 114.33 293.109H215.032C218.231 293.109 221.139 291.81 223.238 289.71C225.357 287.591 226.661 284.658 226.637 281.417C226.59 274.992 221.159 269.898 214.734 269.898H114.33C113.945 269.898 113.633 270.211 113.633 270.595V271.344C113.633 271.728 113.945 272.041 114.33 272.041H214.232C219.446 272.041 223.98 276.304 223.973 281.516Z" fill="white"/>
<path d="M260.51 281.641C260.51 287.414 255.829 292.095 250.056 292.095H160.824V271.188H250.056C255.829 271.188 260.51 275.868 260.51 281.641Z" fill="#E86B31"/>
<path opacity="0.7" d="M160.82 271.188V292.099H250.057C252.264 292.099 254.307 291.413 255.992 290.249C258.72 288.363 260.506 285.207 260.506 281.643C260.506 275.865 255.828 271.188 250.057 271.188H160.82Z" fill="white"/>
<path opacity="0.2" d="M160.824 276.713V275.01L249.769 275.724L160.824 276.713Z" fill="black"/>
<path opacity="0.2" d="M160.824 284.043V282.729L200.754 284.157L160.824 284.043Z" fill="black"/>
<path opacity="0.2" d="M160.824 288.938V287.242L225.204 288.223L160.824 288.938Z" fill="black"/>
<path opacity="0.2" d="M250.202 273.229C251.952 273.229 253.594 273.893 254.851 275.015C254.344 276.014 253.866 277.165 253.537 278.407L164.307 279.106L253.329 279.328C253.2 280.035 253.115 280.763 253.115 281.506C253.115 282.384 253.229 283.248 253.415 284.084L193.316 285.398L253.978 286.098C254.556 287.74 255.335 289.19 255.992 290.247C258.72 288.361 260.506 285.205 260.506 281.641C260.506 275.863 255.828 271.186 250.057 271.186H160.82V273.228L250.202 273.229Z" fill="black"/>
<path d="M259.684 281.516C259.68 284.125 258.624 286.485 256.912 288.196C255.199 289.91 252.835 290.967 250.221 290.967H159.324C158.939 290.967 158.627 291.279 158.627 291.664V292.412C158.627 292.797 158.939 293.109 159.324 293.109H250.742C253.942 293.109 256.849 291.81 258.948 289.71C261.067 287.591 262.371 284.658 262.347 281.417C262.3 274.992 256.869 269.898 250.444 269.898H159.324C158.939 269.898 158.627 270.211 158.627 270.595V271.344C158.627 271.728 158.939 272.041 159.324 272.041H249.942C255.155 272.041 259.69 276.304 259.684 281.516Z" fill="#263238"/>
<path d="M273.342 161.047L271.159 161.088C270.339 161.104 269.576 161.515 269.112 162.193L266.944 165.357C266.077 166.623 265.877 168.229 266.407 169.668L266.735 170.56C270.359 170.739 274.407 168.263 274.407 168.263L275.64 167.685C276.737 167.17 277.211 165.95 276.728 164.883L275.614 162.426C275.229 161.578 274.326 161.029 273.342 161.047Z" fill="#E4897B"/>
<path d="M231.967 164.93L234.06 166.611C234.785 167.183 235.527 167.741 236.274 168.289C237.766 169.391 239.289 170.442 240.822 171.456C242.363 172.464 243.931 173.386 245.509 174.257C247.097 175.101 248.696 175.848 250.307 176.487L249.477 176.312C249.438 176.36 249.942 176.357 250.527 176.197C251.125 176.043 251.825 175.777 252.536 175.442C253.965 174.763 255.469 173.905 256.939 172.952C258.422 172.009 259.895 170.985 261.364 169.932C262.841 168.9 264.308 167.772 265.736 166.709L265.79 166.669C266.771 165.94 268.156 166.143 268.886 167.123C269.488 167.932 269.452 169.018 268.872 169.783C267.681 171.349 266.435 172.759 265.135 174.189C263.825 175.597 262.445 176.952 260.977 178.261C259.49 179.55 257.938 180.815 256.121 181.942C255.208 182.505 254.227 183.041 253.074 183.504C251.914 183.948 250.569 184.379 248.67 184.275C248.474 184.264 248.284 184.231 248.104 184.179L247.841 184.1C245.738 183.478 243.704 182.735 241.774 181.846C239.848 180.959 237.978 179.989 236.192 178.917C234.4 177.855 232.672 176.71 230.997 175.499C230.165 174.887 229.341 174.264 228.528 173.62C227.696 172.972 226.948 172.339 226.083 171.561C224.262 169.926 224.113 167.125 225.748 165.305C227.326 163.55 229.987 163.348 231.807 164.804L231.967 164.93Z" fill="#E4897B"/>
<path d="M220.253 158.729C218.213 164.413 221.501 170.072 229.408 176.722C233.349 176.142 238.654 168.07 238.654 168.07C238.654 168.07 227.533 156.943 220.253 158.729Z" fill="#E86B31"/>
<path d="M227.058 123.4C227.058 123.4 219.268 115.428 209.12 125.433C198.973 135.439 196.99 168.582 196.99 168.582L223.485 173.731C223.485 173.731 226.913 169.794 228.674 158.448C230.435 147.102 231.369 136.253 233.604 133.72C235.839 131.187 227.058 123.4 227.058 123.4Z" fill="#472E05"/>
<path d="M249.817 291.255L244.078 288.967L246.32 280.6L248.388 272.926L255.644 274.532L252.563 283.387L249.817 291.255Z" fill="#E4897B"/>
<path opacity="0.2" d="M252.487 283.563L246.252 280.755L248.352 273.004L255.623 274.57L252.487 283.563Z" fill="black"/>
<path d="M206.387 215.881C206.387 215.881 254.345 209.415 267.687 217.926C281.03 226.437 255.204 278.285 255.204 278.285L247.128 276.5C247.128 276.5 253.181 235.404 252.728 233.682C252.275 231.959 229.688 243.176 198.77 244.238L206.387 215.881Z" fill="#263238"/>
<path opacity="0.2" d="M206.387 215.881C206.387 215.881 254.345 209.415 267.687 217.926C281.03 226.437 255.204 278.285 255.204 278.285L247.128 276.5C247.128 276.5 253.181 235.404 252.728 233.682C252.275 231.959 229.688 243.176 198.77 244.238L206.387 215.881Z" fill="#455A64"/>
<path d="M246.681 273.92L256.846 277.215L255.024 281.85L245.686 278.674L246.681 273.92Z" fill="#263238"/>
<path d="M251.838 290.225C251.838 290.225 253.834 287.626 255.084 288.805C256.523 290.163 251.838 290.225 251.838 290.225ZM251.838 290.225C251.838 290.225 255.758 290.362 255.67 291.702C255.536 293.732 251.838 290.225 251.838 290.225Z" stroke="#577AFA" stroke-width="0.4831" stroke-miterlimit="10" stroke-linecap="round" stroke-linejoin="round"/>
<path d="M243.006 285.397C243.232 284.753 251.026 287.848 251.026 287.848C251.026 287.848 254.303 294.421 258.695 297.086C263.088 299.753 259.502 301.741 254.186 300.013C248.87 298.286 244.813 296.966 241.036 295.738C237.258 294.51 240.665 292.06 243.006 285.397Z" fill="#2E353A"/>
<path opacity="0.4" d="M246.681 273.92L256.846 277.215L255.024 281.85L245.686 278.674L246.681 273.92Z" fill="white"/>
<path d="M274.848 307.853L268.902 309.527L265.592 301.522L262.568 294.173L269.305 291.035L272.244 299.938L274.848 307.853Z" fill="#E4897B"/>
<path d="M266.263 305.323C266.296 304.642 274.65 305.384 274.65 305.384C274.65 305.384 279.666 310.748 284.636 312.049C289.607 313.35 286.737 316.281 281.149 316.141C275.56 316.001 271.296 315.895 267.326 315.797C263.355 315.697 265.921 312.377 266.263 305.323Z" fill="#2E353A"/>
<path d="M275.648 306.289C275.648 306.289 276.819 303.229 278.355 304.002C280.121 304.894 275.648 306.289 275.648 306.289ZM275.648 306.289C275.648 306.289 279.443 305.302 279.743 306.612C280.194 308.595 275.648 306.289 275.648 306.289Z" stroke="#577AFA" stroke-width="0.4831" stroke-miterlimit="10" stroke-linecap="round" stroke-linejoin="round"/>
<path opacity="0.2" d="M272.289 300.118L265.633 301.682L262.586 294.251L269.31 291.072L272.289 300.118Z" fill="black"/>
<path d="M219.992 222.082C219.992 222.082 219.302 212.592 218.982 210.656C218.654 208.601 218.22 206.198 217.809 204.973C215.699 198.643 187.5 206.085 187.5 206.085L186.7 210.422C186.7 210.422 173.976 234.413 182.478 243.056C185.063 245.684 190.129 246.866 195.305 246.824C195.305 246.824 211.118 247.589 240.523 246.219C240.523 246.219 238.347 263.347 262.588 296.911L270.696 294.316C270.696 294.316 254.665 233.388 253.32 232.302C241.593 222.829 219.992 222.082 219.992 222.082Z" fill="#455A64"/>
<path d="M261.123 296.53L271.196 292.965L272.568 297.752L263.224 300.909L261.123 296.53Z" fill="#263238"/>
<path d="M229.479 163.269C229.479 163.269 228.467 165.747 227.054 170.073C226.714 171.085 226.365 172.201 225.999 173.405C225.519 174.983 225.005 176.719 224.49 178.603C224.115 179.964 223.74 181.385 223.373 182.886C222.998 184.403 222.615 186.008 222.24 187.657C222.205 187.849 222.152 188.049 222.117 188.241C220.696 194.643 219.448 200.836 218.663 208.73L187.682 206.026C187.682 206.026 187.577 196.458 188.738 185.668C189.366 179.833 190.36 173.649 191.939 168.416C193.168 164.334 194.756 160.827 196.797 158.533C196.797 158.533 213.596 153.021 229.479 163.269Z" fill="url(#paint1_linear_1391_355623)"/>
<path d="M213.672 154.083C204.351 151.106 200.732 158.407 200.732 158.407L205.689 157.92L215.769 170.568L221.673 162.923L225.388 164.916C225.388 164.916 221.769 156.67 213.672 154.083Z" fill="#E86B31"/>
<path opacity="0.6" d="M213.672 154.083C204.351 151.106 200.732 158.407 200.732 158.407L205.689 157.92L215.769 170.568L221.673 162.923L225.388 164.916C225.388 164.916 221.769 156.67 213.672 154.083Z" fill="white"/>
<path d="M215.513 169.923L206.967 157.127C211.002 155.297 213.671 147.59 214.247 143.244L220.289 152.369C218.318 155.3 217.002 158.65 221.519 161.175C221.519 161.175 215.512 169.895 215.513 169.923Z" fill="#E4897B"/>
<path opacity="0.2" d="M216.713 146.965L220.29 152.363C219.821 153.056 219.393 153.773 219.075 154.498C217.291 153.698 215.392 151.03 215.835 149.145C216.056 148.206 216.405 147.343 216.713 146.965Z" fill="black"/>
<path d="M187.171 207.051L196.859 207.688L196.51 210.423L186.221 209.681L187.171 207.051Z" fill="black"/>
<path d="M219.408 212.058L197.68 210.498L198.029 207.764L219.054 209.145L219.408 212.058Z" fill="black"/>
<path d="M208.087 208.855L208.014 210.639C207.998 211.052 208.313 211.403 208.725 211.431L211.384 211.609C211.802 211.637 212.164 211.322 212.196 210.904L212.329 209.095C212.361 208.669 212.037 208.301 211.611 208.277L208.892 208.124C208.466 208.101 208.104 208.429 208.087 208.855Z" stroke="white" stroke-miterlimit="10"/>
<path opacity="0.5" d="M261.123 296.53L271.196 292.965L272.568 297.752L263.224 300.909L261.123 296.53Z" fill="white"/>
<path d="M235.438 140.656C235.438 140.656 234.524 138.846 232.799 138.697" stroke="#263238" stroke-width="0.554" stroke-miterlimit="10" stroke-linecap="round" stroke-linejoin="round"/>
<path d="M232.525 144.672C232.525 144.672 232.685 146.782 233.245 148.225C233.245 148.225 232.294 148.872 231.191 148.211L232.525 144.672Z" fill="#E4897B"/>
<path d="M234.446 143.369C234.223 143.913 233.748 144.234 233.385 144.086C233.022 143.937 232.909 143.376 233.131 142.831C233.354 142.287 233.829 141.966 234.192 142.114C234.555 142.263 234.668 142.824 234.446 143.369Z" fill="#263238"/>
<path d="M234.027 142.078L235.401 142.098C235.401 142.098 234.403 142.854 234.027 142.078Z" fill="#263238"/>
<path d="M214.372 148.063C214.409 148.155 214.447 148.246 214.505 148.317C214.592 148.49 214.688 148.653 214.784 148.826C215.35 149.843 216.057 150.853 217.02 151.639C219.997 154.111 222.565 154.898 224.857 154.263C224.968 154.236 225.079 154.198 225.191 154.161C225.2 154.171 225.2 154.171 225.2 154.171C228.613 152.883 231.31 148.909 233.578 143.62C234.632 141.2 235.33 138.99 235.478 137.069C235.479 137.049 235.51 136.989 235.51 136.969C235.512 136.889 235.535 136.79 235.537 136.71C235.685 133.995 234.799 131.747 232.54 129.844C231.754 129.182 230.807 128.557 229.678 127.977C219.729 122.834 209.588 138.485 214.372 148.063Z" fill="#E4897B"/>
<path d="M235.519 137.006C235.519 137.006 232.536 144.297 224.373 143.96C224.373 143.96 217.849 149.807 213.596 147.793C207.798 145.048 206.856 134.354 213.023 127.053C221.02 117.586 237.768 124.928 235.519 137.006Z" fill="#472E05"/>
<path d="M228.752 143.641C229.3 142.546 229.347 140.266 227.521 139.658C225.631 139.029 222.469 142.877 226.306 146.025C226.856 146.477 227.606 145.927 228.752 143.641Z" fill="#E4897B"/>
<path d="M227.067 123.397C227.067 123.397 234.61 125.076 236.953 129.63C239.689 134.948 239.689 139.023 232.033 141.491C232.033 141.491 222.634 132.188 218.512 131.078C214.389 129.968 211.17 129.71 211.17 129.71C214.122 121.896 224.095 119.998 227.067 123.397Z" fill="#472E05"/>
<path d="M224.363 143.96C219.618 153.436 209.18 169.547 198.062 158.18C198.062 158.18 202.055 145.331 210.126 140.021C218.199 134.712 224.363 143.96 224.363 143.96Z" fill="#472E05"/>
<path d="M222.639 159.775C226.701 162.768 221.505 172.648 226.627 174.847C226.627 174.847 225.015 172.874 226.086 170.185C227.157 167.497 231.511 160.402 229.78 150.787L222.639 159.775Z" fill="#472E05"/>
<path opacity="0.2" d="M201.635 180.619C201.635 180.619 195.006 185.111 188.734 185.669C189.362 179.834 190.357 173.65 191.935 168.417C192.956 167.911 193.863 167.632 194.561 167.649C199.218 167.736 200.919 172.106 200.919 172.106C200.919 172.106 201.748 176.485 201.635 180.619Z" fill="black"/>
<path d="M225.829 211.707L224.433 210.029C223.908 209.398 223.111 209.06 222.292 209.12L218.466 209.405C216.937 209.52 215.557 210.367 214.765 211.68L214.273 212.493C216.398 215.434 220.861 217.048 220.861 217.048L222.082 217.649C223.17 218.183 224.418 217.791 224.949 216.747L226.171 214.342C226.594 213.512 226.458 212.463 225.829 211.707Z" fill="#E4897B"/>
<path d="M198.974 171.61L198.969 174.294C198.976 175.217 199.004 176.145 199.044 177.071C199.115 178.924 199.248 180.77 199.413 182.602C199.589 184.433 199.85 186.234 200.156 188.01C200.49 189.778 200.905 191.493 201.413 193.149L201.031 192.393C201.335 192.934 201.915 193.686 202.497 194.411C203.091 195.145 203.737 195.891 204.406 196.631C205.751 198.108 207.142 199.606 208.572 201.078L212.879 205.525L217.197 210.007C218.044 210.886 218.018 212.286 217.139 213.133C216.39 213.854 215.261 213.941 214.419 213.407C212.616 212.264 210.904 211.054 209.171 209.838C207.454 208.606 205.767 207.333 204.095 206.022C202.436 204.695 200.779 203.35 199.167 201.89C198.36 201.16 197.556 200.406 196.752 199.596C195.942 198.772 195.163 197.935 194.312 196.74C194.197 196.578 194.103 196.408 194.031 196.233L193.929 195.982C193.101 193.952 192.409 191.9 191.897 189.838C191.386 187.78 190.975 185.714 190.697 183.65C190.405 181.587 190.22 179.523 190.119 177.459C190.077 176.426 190.048 175.394 190.043 174.357C190.028 173.302 190.055 172.323 190.122 171.16C190.261 168.718 192.354 166.85 194.797 166.99C197.153 167.124 198.974 169.077 198.975 171.407L198.974 171.61Z" fill="#E4897B"/>
<path d="M196.498 158.59C190.786 160.549 188.423 166.652 188.172 176.981C191.088 179.694 200.705 178.792 200.705 178.792C200.705 178.792 202.441 163.156 196.498 158.59Z" fill="#E86B31"/>
<path d="M258.059 219.738V222.493C258.059 223.199 257.227 223.489 256.529 223.489H201.482C200.774 223.489 199.924 223.199 199.924 222.493V219.738H258.059Z" fill="#263238"/>
<path opacity="0.4" d="M258.059 219.738V222.493C258.059 223.199 257.227 223.489 256.529 223.489H201.482C200.774 223.489 199.924 223.199 199.924 222.493V219.738H258.059Z" fill="white"/>
<path opacity="0.2" d="M258.054 219.738V222.493C258.054 223.199 257.221 223.489 256.524 223.489H220.217C219.511 223.489 218.672 223.199 218.672 222.493V219.738H258.054Z" fill="black"/>
<path d="M267.268 191.136L260.715 220.859C260.502 221.838 259.548 222.549 258.586 222.549H222.79C221.837 222.549 221.225 221.66 221.445 220.68L227.991 191.184C228.212 190.214 229.157 189.73 230.118 189.73H265.915C266.876 189.73 267.48 190.165 267.268 191.136Z" fill="#263238"/>
<path opacity="0.4" d="M267.27 191.136L260.717 220.859C260.504 221.838 259.551 222.549 258.589 222.549H224.009C223.048 222.549 222.444 221.66 222.656 220.68L229.21 191.184C229.422 190.214 230.375 189.73 231.337 189.73H265.917C266.878 189.73 267.483 190.165 267.27 191.136Z" fill="white"/>
<path opacity="0.2" d="M249.62 206.241V206.25C249.62 208.795 246.892 210.862 244.892 210.862C242.892 210.862 241.706 208.794 242.276 206.25C242.846 203.755 244.837 201.722 246.794 201.645C246.223 204.189 247.445 206.25 249.437 206.25C249.479 206.251 249.62 206.251 249.62 206.241Z" fill="black"/>
<defs>
<linearGradient id="paint0_linear_1391_355623" x1="256.667" y1="175.264" x2="361.401" y2="176.522" gradientUnits="userSpaceOnUse">
<stop stop-color="#FB8D48"/>
<stop offset="0.2" stop-color="#ED7136"/>
<stop offset="0.3999" stop-color="#C54E47"/>
<stop offset="0.4" stop-color="#C14F49"/>
<stop offset="0.6" stop-color="#9D3863"/>
<stop offset="0.8" stop-color="#5E1F72"/>
</linearGradient>
<linearGradient id="paint1_linear_1391_355623" x1="188.407" y1="179.303" x2="229.627" y2="179.949" gradientUnits="userSpaceOnUse">
<stop stop-color="#FB8D48"/>
<stop offset="0.2" stop-color="#ED7136"/>
<stop offset="0.3999" stop-color="#C54E47"/>
<stop offset="0.4" stop-color="#C14F49"/>
<stop offset="0.6" stop-color="#9D3863"/>
<stop offset="0.8" stop-color="#5E1F72"/>
</linearGradient>
</defs>
</svg>
