<svg width="508" height="508" viewBox="0 0 508 508" fill="none" xmlns="http://www.w3.org/2000/svg">
<path d="M486.833 500.945H24.9296C21.8252 500.945 19.2852 498.405 19.2852 495.301V473.193C19.2852 470.089 21.8252 467.549 24.9296 467.549H486.833C489.938 467.549 492.478 470.089 492.478 473.193V495.301C492.478 498.405 489.938 500.945 486.833 500.945Z" fill="#8B5A09"/>
<path d="M455.229 428.266C458.569 419.752 461.956 410.298 458.804 401.737C458.052 399.668 456.876 397.457 457.581 395.34C458.522 392.471 462.285 391.483 463.508 388.755C464.919 385.745 462.708 382.264 463.273 379.018C463.837 375.726 467.083 373.562 470.234 372.386C473.386 371.21 476.819 370.458 479.359 368.294C484.204 364.061 483.64 356.488 482.558 350.091C481.476 343.741 480.676 336.215 485.333 331.746C476.772 333.392 468.023 335.086 460.592 339.601C453.16 344.117 447.233 352.113 447.656 360.815C447.892 365.189 449.585 369.846 447.609 373.703C445.446 377.889 439.66 379.536 438.202 384.004C436.509 389.131 441.542 393.835 443.517 398.868C445.399 403.619 444.505 408.934 444.928 413.967C445.352 419.047 447.986 424.785 453.019 425.538L455.229 428.266Z" fill="url(#paint0_linear_1391_355332)"/>
<path d="M451.796 417.12C451.702 392.378 456.5 340.59 485.051 331.936" stroke="white" stroke-width="0.579027" stroke-miterlimit="10" stroke-linecap="round"/>
<path d="M435.333 426.197C430.253 416.696 424.985 406.113 427.478 395.623C428.09 393.083 429.124 390.355 428.042 387.956C426.584 384.758 422.022 384.052 420.187 381.042C418.165 377.749 420.234 373.328 419.105 369.612C417.977 365.802 413.884 363.779 410.074 362.791C406.264 361.851 402.125 361.474 398.832 359.217C392.577 354.936 392.2 345.952 392.577 338.379C392.953 330.806 392.859 321.869 386.791 317.307C397.045 318.059 407.534 318.859 416.848 323.139C426.161 327.42 434.251 335.98 434.91 346.234C435.239 351.361 433.875 357.053 436.744 361.333C439.849 365.943 446.857 367.072 449.209 372.105C451.89 377.89 446.669 384.052 445.023 390.214C443.518 396 445.258 402.114 445.446 408.088C445.634 414.062 443.33 421.164 437.544 422.764L435.333 426.197Z" fill="url(#paint1_linear_1391_355332)"/>
<path d="M437.827 412.652C434.534 383.63 421.834 323.658 387.168 317.496" stroke="white" stroke-width="0.579027" stroke-miterlimit="10" stroke-linecap="round"/>
<path d="M467.46 481.937H422.775C419.67 481.937 417.13 479.397 417.13 476.292L413.367 411.851C413.367 408.747 415.907 406.207 419.012 406.207H471.223C474.327 406.207 476.867 408.747 476.867 411.851L473.104 476.292C473.104 479.397 470.564 481.937 467.46 481.937Z" fill="url(#paint2_linear_1391_355332)"/>
<path d="M61.4043 278.414L90.2377 274.042L109.841 403.327L81.0076 407.699L61.4043 278.414Z" fill="#EEA07B"/>
<path d="M75.8125 276.24L90.2292 274.054L109.833 403.339L95.4158 405.525L75.8125 276.24Z" fill="#EEA07B"/>
<path d="M90.2634 274.178L61.4297 278.552L68.203 261.196L72.0601 251.412L78.6452 259.644L90.2634 274.178Z" fill="#FFEBC2"/>
<path d="M78.6453 259.644L68.2031 261.196L72.0602 251.412L78.6453 259.644Z" fill="#0E538C"/>
<path d="M113.414 244.443L142.46 247.044L130.798 377.284L101.751 374.683L113.414 244.443Z" fill="#EEA07B"/>
<path d="M127.965 245.754L142.488 247.054L130.825 377.294L116.302 375.994L127.965 245.754Z" fill="#EEA07B"/>
<path d="M142.475 247.181L113.406 244.594L124.131 229.354L130.198 220.746L134.62 230.295L142.475 247.181Z" fill="#FFEBC2"/>
<path d="M134.62 230.295L124.131 229.354L130.199 220.746L134.62 230.295Z" fill="#0E538C"/>
<path d="M161.571 483.541H46.9892L31.9844 306.211H170.744L161.571 483.541Z" fill="url(#paint3_linear_1391_355332)"/>
<path opacity="0.5" d="M101.365 483.541H161.573L170.745 306.211H101.365V483.541Z" fill="url(#paint4_linear_1391_355332)"/>
<path d="M126.529 433.494H417.689V473.523H126.529V433.494Z" fill="#FFEFD6"/>
<path d="M127.754 433.493V473.521H433.212V476.531C433.212 480.247 429.967 483.258 425.968 483.258H129.071C119.616 483.258 111.949 476.202 111.949 467.453V440.689C111.949 431.94 119.616 424.885 129.071 424.885H425.968C429.967 424.885 433.212 427.895 433.212 431.611V433.54H127.754V433.493Z" fill="url(#paint5_linear_1391_355332)"/>
<path d="M126.529 451.32H417.689V473.475H126.529V451.32Z" fill="#FFEFD6"/>
<path d="M164.158 384.764H400.754V419.571H164.158V384.764Z" fill="#FFEEE6"/>
<path d="M164.159 384.764V419.571H409.692V422.206C409.692 425.451 407.058 428.038 403.86 428.038H165.194C157.621 428.038 151.459 421.876 151.459 414.303V391.02C151.459 383.447 157.621 377.285 165.194 377.285H403.86C407.058 377.285 409.692 379.919 409.692 383.118V384.811H164.159V384.764Z" fill="#EEA07B"/>
<path d="M266.418 266.278C263.172 261.997 262.89 256.118 265.947 251.649C268.393 248.074 270.04 243.653 269.851 240.407C269.475 234.575 265.853 229.212 260.914 226.014C254.423 221.781 245.768 221.169 238.76 224.462C231.751 227.754 226.671 234.81 225.778 242.477C225.119 247.98 226.389 254.001 223.567 258.799C221.497 262.232 217.687 264.255 213.924 265.619C210.114 266.936 206.116 267.83 202.635 269.852C199.155 271.875 196.191 275.356 196.238 279.401C196.285 282.458 198.026 285.281 198.214 288.291C198.496 292.713 195.392 296.617 192.099 299.533C188.76 302.449 184.95 304.989 182.692 308.799C178.976 315.102 180.716 323.616 185.42 329.26C190.124 334.905 197.179 338.056 204.235 339.891C223.52 344.971 243.84 341.678 263.737 341.349C269.898 341.255 276.201 341.443 282.175 339.891C288.149 338.338 293.981 334.764 296.474 329.119C299.014 323.475 297.744 316.607 294.358 311.48C290.971 306.353 285.656 302.637 280.058 300.003C276.013 298.075 271.686 296.57 268.393 293.559C265.101 290.549 263.172 285.422 265.383 281.518C266.23 280.012 267.641 278.837 268.44 277.331C270.04 274.415 269.381 270.699 267.594 267.877C267.264 267.407 266.888 266.889 266.418 266.278Z" fill="#472E05"/>
<path d="M164.158 400.285H400.754V419.57H164.158V400.285Z" fill="#FFEEE6"/>
<path d="M270.934 350.896L300.097 371.593L335.845 445.441H329.26L289.278 380.059C289.278 380.059 275.637 380.53 270.934 376.296C266.23 372.063 239.184 353.719 239.184 353.719L270.934 350.896Z" fill="#455A64"/>
<path d="M219.334 344.969C214.019 359.362 217.782 379.588 235.656 380.529C253.53 381.469 259.175 380.529 259.175 380.529L293.982 451.084H301.978L274.697 372.062L241.536 353.718L219.334 344.969Z" fill="#455A64"/>
<path d="M246.475 262.938C251.178 269.052 262.467 285.986 266.7 304.8C270.934 323.615 282.693 350.897 282.693 350.897H269.052L255.882 306.212L243.652 264.349L246.475 262.938Z" fill="url(#paint6_linear_1391_355332)"/>
<path d="M260.962 237.96C261.668 249.484 256.635 257.386 249.438 257.763C242.242 258.139 237.538 247.697 239.702 237.96C244.735 229.305 251.602 228.6 251.602 228.6H255.929L260.962 237.96Z" fill="#E4897B"/>
<path d="M256.164 231.092C254.847 235.137 251.931 238.617 248.168 240.593C244.405 242.569 239.889 243.039 235.797 241.816L246.051 227.188H254.847L263.267 233.867L261.997 241.534C258.704 239.041 256.164 231.092 256.164 231.092Z" fill="#472E05"/>
<path d="M247.273 256.398C245.767 262.231 246.238 268.346 246.238 269.286C244.827 271.168 238.242 270.698 237.301 264.112C238.712 255.646 241.534 246.238 241.534 246.238L243.886 251.412L247.273 256.398Z" fill="#E4897B"/>
<path d="M238.242 259.127C232.362 261.055 212.607 269.992 211.666 271.874C213.077 277.048 220.133 353.718 220.133 353.718H252.118C252.118 353.718 247.885 311.385 250.236 308.563C252.588 305.741 260.114 295.863 259.173 294.452C258.233 293.041 246.285 262.702 246.285 262.702L238.242 259.127Z" fill="url(#paint7_linear_1391_355332)"/>
<path d="M211.667 271.875C207.057 275.403 187.678 307.153 193.793 324.086C199.908 341.019 219.899 350.991 219.899 350.991V341.678C219.899 341.678 203.671 328.79 204.612 319.382C205.552 309.975 216.841 290.69 216.841 290.69L211.667 271.875Z" fill="url(#paint8_linear_1391_355332)"/>
<path d="M287.442 359.127H218.204C216.04 359.127 214.253 357.34 214.253 355.176L212.371 310.867C212.371 308.703 214.158 306.916 216.322 306.916H288.383C290.547 306.916 292.334 308.703 292.334 310.867L291.393 355.176C291.393 357.34 289.606 359.127 287.442 359.127Z" fill="url(#paint9_linear_1391_355332)"/>
<path d="M300.849 451.086C305.506 452.12 311.809 457.248 314.819 459.882C315.43 460.399 315.054 461.434 314.207 461.434C309.363 461.34 298.403 460.822 295.863 458.659C292.57 455.836 293.511 451.133 293.511 451.133H300.849V451.086ZM335.75 445.253C339.89 446.382 345.346 451.18 348.074 453.767C348.686 454.331 348.215 455.319 347.416 455.272C342.853 454.943 333.069 454.049 330.859 451.932C327.942 449.204 329.024 444.924 329.024 444.924L335.75 445.253Z" fill="#1A87D8"/>
<path d="M252.589 340.078C256.485 340.078 259.644 336.919 259.644 333.022C259.644 329.126 256.485 325.967 252.589 325.967C248.692 325.967 245.533 329.126 245.533 333.022C245.533 336.919 248.692 340.078 252.589 340.078Z" fill="url(#paint10_linear_1391_355332)"/>
<path d="M190.499 433.21L181.562 428.036L172.625 433.21V400.284H190.499V433.21ZM329.07 238.242C329.07 239.136 328.741 239.935 328.176 240.594C328.741 241.205 329.07 242.052 329.07 242.946V245.862C329.07 246.473 328.882 247.085 328.6 247.602C328.882 248.12 329.07 248.731 329.07 249.343V252.259C329.07 254.187 327.518 255.74 325.589 255.74H295.298C293.369 255.74 291.817 254.187 291.817 252.259V249.296C291.817 248.684 292.005 248.073 292.287 247.555C292.005 247.038 291.817 246.426 291.817 245.815V242.899C291.817 242.005 292.146 241.205 292.711 240.547C292.146 239.935 291.817 239.089 291.817 238.195V235.278C291.817 233.35 293.369 231.798 295.298 231.798H325.589C327.518 231.798 329.07 233.35 329.07 235.278V238.242ZM353.247 172.296C353.247 189.276 343.369 203.905 329.07 210.866V226.671C329.07 227.847 328.082 228.834 326.906 228.834H293.981C292.805 228.834 291.817 227.847 291.817 226.671V210.866C277.518 203.952 267.64 189.276 267.64 172.296C267.64 148.636 286.784 129.492 310.444 129.492C334.103 129.492 353.247 148.683 353.247 172.296Z" fill="#E86B31"/>
<path opacity="0.23" d="M325.027 240.83H296.334M325.027 247.415H296.334" stroke="#7F7F7F" stroke-width="1.54407" stroke-miterlimit="10" stroke-linecap="round"/>
<path d="M317.782 177.566C317.264 177.095 316.512 176.86 315.712 176.954C314.724 177.048 313.783 177.613 313.172 178.412C312.655 179.118 312.372 179.964 312.231 180.764C311.808 180.529 311.338 180.294 310.914 180.011L310.773 179.917H310.162L310.021 180.011C309.55 180.294 309.127 180.529 308.703 180.764C308.562 179.964 308.28 179.118 307.763 178.412C307.198 177.613 306.211 177.048 305.223 176.954C304.423 176.86 303.718 177.095 303.153 177.566C302.448 178.224 302.212 179.165 302.448 180.153C302.824 181.47 303.906 182.551 305.176 182.787C305.975 182.928 306.728 182.881 307.528 182.693C308.703 197.98 309.174 213.455 308.845 228.742H310.256C310.585 213.408 310.115 197.886 308.939 182.598C308.939 182.457 308.939 182.316 308.892 182.175C309.456 181.94 309.973 181.658 310.491 181.328C311.008 181.611 311.526 181.94 312.09 182.175C312.09 182.316 312.09 182.457 312.043 182.598C310.867 197.886 310.397 213.408 310.726 228.742H312.137C311.808 213.455 312.278 197.933 313.454 182.693C314.207 182.881 315.006 182.975 315.806 182.787C317.029 182.551 318.158 181.47 318.534 180.153C318.722 179.165 318.487 178.224 317.782 177.566ZM305.411 181.47C304.705 181.328 304 180.623 303.765 179.823C303.671 179.494 303.624 178.977 304.047 178.647C304.282 178.412 304.611 178.365 304.846 178.365H305.035C305.599 178.412 306.211 178.741 306.587 179.259C307.01 179.823 307.245 180.529 307.339 181.328C306.681 181.517 306.069 181.564 305.411 181.47ZM317.123 179.823C316.888 180.623 316.229 181.328 315.477 181.47C314.865 181.611 314.207 181.517 313.595 181.328C313.736 180.529 313.925 179.823 314.348 179.259C314.677 178.788 315.289 178.459 315.9 178.365C316.182 178.318 316.559 178.365 316.888 178.647C317.217 178.977 317.17 179.494 317.123 179.823Z" fill="white"/>
<path d="M299.156 137.348C288.808 141.111 271.875 154.751 273.286 176.859" stroke="white" stroke-width="3.08815" stroke-miterlimit="10" stroke-linecap="round"/>
<path d="M242.477 214.018C249.101 214.018 254.471 208.648 254.471 202.024C254.471 195.399 249.101 190.029 242.477 190.029C235.853 190.029 230.482 195.399 230.482 202.024C230.482 208.648 235.853 214.018 242.477 214.018Z" fill="#E86B31"/>
<path d="M370.888 167.922C373.875 167.922 376.297 165.5 376.297 162.513C376.297 159.525 373.875 157.104 370.888 157.104C367.9 157.104 365.479 159.525 365.479 162.513C365.479 165.5 367.9 167.922 370.888 167.922Z" fill="#E86B31"/>
<path d="M353.25 256.353C358.185 256.353 362.187 252.351 362.187 247.416C362.187 242.48 358.185 238.479 353.25 238.479C348.314 238.479 344.312 242.48 344.312 247.416C344.312 252.351 348.314 256.353 353.25 256.353Z" fill="#E86B31"/>
<path d="M267.64 131.704C272.576 131.704 276.577 127.703 276.577 122.767C276.577 117.831 272.576 113.83 267.64 113.83C262.704 113.83 258.703 117.831 258.703 122.767C258.703 127.703 262.704 131.704 267.64 131.704Z" fill="#E86B31"/>
<path opacity="0.14" d="M190.499 433.211L181.562 428.037L172.625 433.211V400.285H190.499V433.211Z" fill="white"/>
<defs>
<linearGradient id="paint0_linear_1391_355332" x1="461.596" y1="331.746" x2="461.596" y2="428.266" gradientUnits="userSpaceOnUse">
<stop stop-color="#EEA07B"/>
<stop offset="1" stop-color="#9C5A76"/>
</linearGradient>
<linearGradient id="paint1_linear_1391_355332" x1="418.376" y1="317.307" x2="418.376" y2="426.197" gradientUnits="userSpaceOnUse">
<stop stop-color="#EEA07B"/>
<stop offset="1" stop-color="#9C5A76"/>
</linearGradient>
<linearGradient id="paint2_linear_1391_355332" x1="445.117" y1="406.207" x2="445.117" y2="481.937" gradientUnits="userSpaceOnUse">
<stop stop-color="#EEA07B"/>
<stop offset="1" stop-color="#9C5A76"/>
</linearGradient>
<linearGradient id="paint3_linear_1391_355332" x1="76.5" y1="550.5" x2="79.5" y2="306" gradientUnits="userSpaceOnUse">
<stop stop-color="#EEA07B"/>
<stop offset="1" stop-color="#9C5A76"/>
</linearGradient>
<linearGradient id="paint4_linear_1391_355332" x1="145.5" y1="515.5" x2="141.5" y2="298" gradientUnits="userSpaceOnUse">
<stop stop-color="#EEA07B"/>
<stop offset="1" stop-color="#9C5A76"/>
</linearGradient>
<linearGradient id="paint5_linear_1391_355332" x1="272.581" y1="424.885" x2="272.581" y2="483.258" gradientUnits="userSpaceOnUse">
<stop stop-color="#EEA07B"/>
<stop offset="1" stop-color="#9C5A76"/>
</linearGradient>
<linearGradient id="paint6_linear_1391_355332" x1="279" y1="335.5" x2="228.997" y2="287.279" gradientUnits="userSpaceOnUse">
<stop stop-color="#FB8D48"/>
<stop offset="0.2" stop-color="#ED7136"/>
<stop offset="0.3999" stop-color="#C54E47"/>
<stop offset="0.4" stop-color="#C14F49"/>
<stop offset="0.6" stop-color="#9D3863"/>
<stop offset="0.8" stop-color="#5E1F72"/>
</linearGradient>
<linearGradient id="paint7_linear_1391_355332" x1="238.5" y1="358" x2="196.779" y2="268.442" gradientUnits="userSpaceOnUse">
<stop stop-color="#FB8D48"/>
<stop offset="0.2" stop-color="#ED7136"/>
<stop offset="0.3999" stop-color="#C54E47"/>
<stop offset="0.4" stop-color="#C14F49"/>
<stop offset="0.6" stop-color="#9D3863"/>
<stop offset="0.8" stop-color="#5E1F72"/>
</linearGradient>
<linearGradient id="paint8_linear_1391_355332" x1="223.5" y1="355.5" x2="174.808" y2="287.006" gradientUnits="userSpaceOnUse">
<stop stop-color="#FB8D48"/>
<stop offset="0.2" stop-color="#ED7136"/>
<stop offset="0.3999" stop-color="#C54E47"/>
<stop offset="0.4" stop-color="#C14F49"/>
<stop offset="0.6" stop-color="#9D3863"/>
<stop offset="0.8" stop-color="#5E1F72"/>
</linearGradient>
<linearGradient id="paint9_linear_1391_355332" x1="252.353" y1="306.916" x2="252.353" y2="359.127" gradientUnits="userSpaceOnUse">
<stop stop-color="#EEA07B"/>
<stop offset="1" stop-color="#9C5A76"/>
</linearGradient>
<linearGradient id="paint10_linear_1391_355332" x1="252.589" y1="325.967" x2="252.589" y2="340.078" gradientUnits="userSpaceOnUse">
<stop stop-color="#EEA07B"/>
<stop offset="1" stop-color="#9C5A76"/>
</linearGradient>
</defs>
</svg>
