<svg width="676" height="449" viewBox="0 0 676 449" fill="none" xmlns="http://www.w3.org/2000/svg">
<path d="M58.8653 332.635C48.5372 306.901 43.1676 280.386 42.2789 254.361C41.3901 228.328 44.9821 202.786 52.5726 178.831C46.7891 177.721 41.0055 176.613 35.222 175.504C29.4384 174.394 23.6548 173.286 17.8713 172.176C15.3134 201.158 17.7981 229.832 24.8032 256.956C31.8095 284.088 43.3362 309.67 58.8653 332.635Z" fill="url(#paint0_linear_1391_349815)"/>
<path d="M55.2011 115.613C44.9864 123.83 35.2473 133.082 26.16 143.323C17.0727 153.563 8.63513 164.792 1.02318 176.938C12.0239 178.72 23.0245 180.503 34.0252 182.286C45.0259 184.069 56.0266 185.851 67.0273 187.634C63.1205 176.907 60.0638 165.462 58.033 153.416C56.0033 141.369 55.0005 128.721 55.2011 115.613Z" fill="url(#paint1_linear_1391_349815)"/>
<path d="M343.97 313.282C360.74 313.282 374.335 305.468 374.335 295.829C374.335 286.189 360.74 278.375 343.97 278.375C327.2 278.375 313.605 286.189 313.605 295.829C313.605 305.468 327.2 313.282 343.97 313.282Z" fill="#E0E0E0" fill-opacity="0.1"/>
<path d="M457.196 359.935C483.705 359.935 505.194 347.583 505.194 332.346C505.194 317.11 483.705 304.758 457.196 304.758C430.688 304.758 409.199 317.11 409.199 332.346C409.199 347.583 430.688 359.935 457.196 359.935Z" fill="#E0E0E0" fill-opacity="0.1"/>
<path d="M221.677 362.923C248.185 362.923 269.674 350.571 269.674 335.334C269.674 320.098 248.185 307.746 221.677 307.746C195.169 307.746 173.68 320.098 173.68 335.334C173.68 350.571 195.169 362.923 221.677 362.923Z" fill="#E0E0E0" fill-opacity="0.1"/>
<path d="M528.85 312.748L519.784 309.055C519.784 309.055 517.83 296.006 517.824 285.512C517.817 270.766 527.044 252.738 538.755 255.754C550.466 258.769 535.457 275.263 533.017 288.01C530.576 300.758 528.85 312.748 528.85 312.748Z" fill="#E86B31"/>
<path opacity="0.3" d="M528.85 312.748L519.784 309.055C519.784 309.055 517.83 296.006 517.824 285.512C517.817 270.766 527.044 252.738 538.755 255.754C550.466 258.769 535.457 275.263 533.017 288.01C530.576 300.758 528.85 312.748 528.85 312.748Z" fill="black"/>
<path d="M524.488 311.638C524.493 311.638 524.496 311.637 524.501 311.637C524.71 311.61 524.858 311.418 524.83 311.209C520.507 278.868 535.114 260.95 535.261 260.774C535.396 260.611 535.374 260.372 535.212 260.237C535.048 260.102 534.806 260.124 534.673 260.285C534.522 260.465 519.704 278.641 524.07 311.31C524.098 311.514 524.283 311.658 524.488 311.638Z" fill="white"/>
<path d="M533.528 314.902L528.795 312.767C528.795 312.767 526.361 302.577 529.428 290.845C532.467 279.224 542.585 272.055 547.687 273.241C553.915 274.689 554.522 280.428 552.703 284.42C550.559 289.125 535.532 301.973 533.528 314.902Z" fill="#E86B31"/>
<path opacity="0.1" d="M533.528 314.902L528.795 312.767C528.795 312.767 526.361 302.577 529.428 290.845C532.467 279.224 542.585 272.055 547.687 273.241C553.915 274.689 554.522 280.428 552.703 284.42C550.559 289.125 535.532 301.973 533.528 314.902Z" fill="black"/>
<path d="M531.069 314.155H531.071C531.281 314.134 531.435 313.947 531.413 313.737C529.29 293.228 547.265 277.46 547.447 277.302C547.606 277.165 547.624 276.924 547.485 276.765C547.348 276.606 547.107 276.587 546.944 276.727C546.76 276.886 528.487 292.917 530.651 313.815C530.673 314.024 530.86 314.176 531.069 314.155Z" fill="white"/>
<path d="M168.984 304.486L175.2 300.95C175.2 300.95 178.181 284.592 175.952 270.53C172.816 250.761 159.296 243.941 154.386 245.906C149.475 247.871 148.321 253.728 157.189 265.151C162.422 271.891 169.151 286.138 168.984 304.486Z" fill="#E86B31"/>
<g opacity="0.15">
<path d="M168.984 304.486L175.2 300.95C175.2 300.95 178.181 284.592 175.952 270.53C172.816 250.761 159.296 243.941 154.386 245.906C149.475 247.871 148.321 253.728 157.189 265.151C162.422 271.891 169.151 286.138 168.984 304.486Z" fill="black"/>
</g>
<path d="M171.235 296.633C171.215 296.633 171.195 296.632 171.174 296.629C170.932 296.595 170.762 296.373 170.796 296.132C173.365 277.623 165.889 257.344 157.489 249.172C157.314 249.003 157.31 248.722 157.482 248.548C157.653 248.376 157.934 248.37 158.109 248.541C166.662 256.863 174.282 277.471 171.674 296.252C171.643 296.474 171.453 296.633 171.235 296.633Z" fill="white"/>
<path d="M151.736 314.406C150.754 314.968 148.73 313.74 147.954 313.222C146.626 312.336 145.551 311.079 144.837 309.66C144.005 308.006 143.796 306.236 144.057 304.407C144.192 303.459 144.458 302.535 144.724 301.614C144.985 300.711 145.245 299.807 145.507 298.903C145.765 298.012 146.025 297.089 145.907 296.169C145.668 294.315 144.015 293.016 142.512 291.895C140.851 290.656 139.12 289.021 139.129 286.788C139.136 285.066 140.032 283.467 141.104 282.115C142.177 280.764 143.449 279.569 144.417 278.142C145.115 277.115 145.659 275.909 145.546 274.674C145.475 273.908 145.156 273.185 144.787 272.508C143.995 271.055 142.951 269.723 142.405 268.161C141.859 266.6 141.937 264.658 143.161 263.54C144.166 262.623 145.659 262.495 147.019 262.585C148.277 262.667 149.506 263.233 150.607 263.842C154.166 265.813 156.197 270.009 159.975 271.526C161.432 272.111 163.028 272.239 164.546 272.639C166.065 273.038 167.613 273.811 168.317 275.209C169.703 277.966 167.13 281.364 168.105 284.29C168.967 286.88 171.495 287.871 172.915 290.205C173.536 291.226 173.679 292.406 173.579 293.596C173.409 295.609 173.114 297.087 172.143 299.325C171.341 301.175 168.984 304.487 168.984 304.487C168.925 304.545 151.887 314.32 151.736 314.406Z" fill="#E86B31"/>
<path d="M161.828 309.053C161.822 309.053 161.815 309.053 161.815 309.053C161.565 309.042 161.375 308.836 161.384 308.593C162.117 291.075 153.825 271.734 147.796 266.115C147.618 265.949 147.609 265.669 147.776 265.491C147.943 265.313 148.223 265.305 148.403 265.47C154.553 271.202 163.012 290.864 162.271 308.629C162.261 308.868 162.064 309.053 161.828 309.053Z" fill="white"/>
<path d="M159.193 288.357C159.15 288.357 159.105 288.35 159.062 288.337C153.409 286.597 146.363 286.29 146.292 286.288C146.047 286.277 145.858 286.071 145.868 285.828C145.878 285.584 146.063 285.392 146.329 285.405C146.402 285.408 153.559 285.719 159.324 287.494C159.558 287.565 159.69 287.812 159.617 288.045C159.557 288.234 159.382 288.357 159.193 288.357Z" fill="white"/>
<path d="M480.916 326.657L472.513 325.695L470.336 308.83L480.612 311.864L480.916 326.657Z" fill="#B16668"/>
<path d="M462.502 340.413C462.243 340.654 462.308 342.051 462.647 342.457C463.513 343.501 465.879 344.722 469.054 344.949C472.087 345.165 474.795 344.757 476.576 343.632C478.357 342.506 479.219 341.265 479.387 339.544C479.555 337.824 479.363 336.164 480.186 334.841C480.946 333.618 482.159 332.24 482.422 331.577C482.997 330.135 482.443 328.074 482.443 328.074L462.502 340.413Z" fill="#263238"/>
<path d="M470.806 325.395C470.785 326.064 470.666 326.673 470.456 327.311C470.017 328.645 469.349 329.901 468.598 331.095C468.212 331.71 467.804 332.315 467.333 332.871C466.416 333.958 465.277 334.851 464.305 335.893C463.334 336.936 462.509 338.2 462.433 339.6C462.304 341.968 466.097 342.774 468.085 343.126C470.207 343.502 472.473 343.389 474.545 342.802C476.85 342.15 478.514 340.372 478.896 338.082C479.006 337.425 478.966 336.752 479.044 336.091C479.222 334.581 480.007 333.202 480.894 331.947C481.408 331.219 481.968 330.508 482.314 329.692C482.934 328.226 482.437 326.576 482.041 325.116C481.698 323.855 481.281 322.406 480.835 322.525C480.829 323.179 480.867 323.268 480.395 323.712C479.799 324.272 479.774 325.115 479.143 325.611C479.438 324.843 479.457 324.516 479.585 323.926C479.624 323.749 479.575 323.392 479.451 323.256C479.284 323.075 478.999 322.962 478.72 322.868C477.785 322.552 476.814 322.333 475.831 322.213C474.934 322.103 472.691 321.994 471.801 322.192C471.528 322.253 471.261 322.384 471.092 322.601C470.914 322.83 470.882 323.032 470.839 323.41C470.796 323.789 470.826 324.767 470.806 325.395Z" fill="black"/>
<path d="M468.275 331.591C469.161 330.93 472.357 330.922 473.442 331.037C474.801 331.183 475.902 331.657 476.527 332.115C476.804 332.318 477.192 332.283 477.435 332.043C477.728 331.755 477.701 331.281 477.368 331.036C476.706 330.552 475.508 329.869 473.897 329.756C471.226 329.569 469.231 330.024 469.231 330.024C469.231 330.024 468.013 330.806 468.275 331.591Z" fill="#F5F5F5"/>
<path d="M466.238 334.018C467.352 333.363 470.746 333.457 471.832 333.573C473.191 333.717 474.207 334.25 474.832 334.709C475.109 334.912 475.496 334.877 475.74 334.637C476.033 334.349 476.006 333.874 475.673 333.63C475.011 333.145 472.526 332.36 470.916 332.248C468.245 332.061 467.549 332.604 467.549 332.604C467.549 332.604 466.422 333.038 466.238 334.018Z" fill="#F5F5F5"/>
<path d="M474.963 327.212C473.118 327.023 471.125 327.229 470.395 327.493C469.924 327.755 469.615 328.496 469.917 328.683C470.511 328.355 472.792 328.218 474.104 328.276C474.984 328.315 476.093 328.67 476.992 329.067C477.22 329.167 477.491 329.309 477.727 329.439C478.047 329.615 478.453 329.491 478.606 329.167C478.736 328.893 478.639 328.567 478.375 328.408C477.731 328.019 476.455 327.366 474.963 327.212Z" fill="#F5F5F5"/>
<path d="M449.574 318.989L441.582 316.766V300.686L451.496 301.114L449.574 318.989Z" fill="#B16668"/>
<path d="M424.702 327.597C424.453 328.117 424.525 329.089 424.821 329.706C425.117 330.323 428.353 332.14 432.718 331.847C437.083 331.554 440.081 329.803 441.745 328.706C443.409 327.608 445.142 327.404 447.304 327.28C449.465 327.157 452.304 326.084 452.778 325.078C453.253 324.071 452.707 322.338 452.707 322.338L424.702 327.597Z" fill="#263238"/>
<path d="M442.318 314.035C442.204 314.01 442.089 313.987 441.973 313.964C441.782 313.926 441.586 313.888 441.397 313.933C441.183 313.984 441.007 314.134 440.858 314.295C440.389 314.803 440.105 315.449 439.743 316.038C438.828 317.524 436.907 318.755 434.809 319.877C433.383 320.64 431.986 321.232 430.514 321.891C429.012 322.564 427.018 322.974 425.843 323.764C424.13 324.913 423.909 327.801 425.86 328.941C427.543 329.926 431.974 330.992 436.619 329.681C439.15 328.968 441.96 326.275 445.281 326.017C447.394 325.852 451.389 325.262 452.749 323.664C453.251 322.955 452.58 320.71 452.029 318.772C451.427 316.656 450.855 313.354 450.151 313.541C450.122 313.957 450.057 314.048 449.783 314.331C449.522 314.6 449.171 314.77 448.888 315.012C448.366 315.455 448.045 316.083 447.72 316.686C447.579 316.946 447.413 317.223 447.12 317.333C446.764 317.466 446.498 317.242 446.186 317.1C445.794 316.921 445.337 316.888 444.924 317.01C444.965 316.591 445.039 316.176 445.147 315.768C445.181 315.637 445.22 315.497 445.177 315.367C445.135 315.236 445.02 315.144 444.907 315.065C444.093 314.495 443.252 314.236 442.318 314.035Z" fill="black"/>
<path d="M436.781 318.734C436.781 318.734 437.084 317.926 438.341 317.694C439.302 317.516 441 318.221 442.055 319.086C442.487 319.44 442.431 320.114 441.942 320.383C441.65 320.543 441.293 320.502 441.041 320.283C440.35 319.685 438.798 318.595 436.781 318.734Z" fill="#F5F5F5"/>
<path d="M433.805 320.394C433.805 320.394 434.426 319.428 435.653 319.446C435.653 319.446 438.163 319.517 439.716 320.96C440.112 321.327 440.085 321.954 439.611 322.213C439.329 322.368 438.984 322.326 438.744 322.113C438.044 321.49 436.641 320.183 433.805 320.394Z" fill="#F5F5F5"/>
<path d="M430.512 321.892C430.512 321.892 431.204 321.017 432.431 321.035C432.431 321.035 434.77 321.123 436.323 322.564C436.719 322.932 436.692 323.558 436.218 323.817C435.935 323.972 435.591 323.931 435.351 323.717C434.651 323.095 433.349 321.681 430.512 321.892Z" fill="#F5F5F5"/>
<path d="M479.078 214.055C479.627 230.643 479.666 266.562 479.666 266.562C479.842 268.626 480.02 272.295 480.175 279.728C480.4 290.507 480.917 317.109 480.917 317.109C480.917 317.109 475.751 319.524 471.014 317.558C471.014 317.558 464.411 280.149 463.059 269.479C461.879 260.168 459.615 238.326 459.615 238.326L456.49 266.054C456.49 266.054 456.525 273.194 456.068 279.575C455.716 284.511 450.905 309.953 450.905 309.953C450.905 309.953 446.512 311.372 441.352 309.638C441.352 309.638 440.913 270.582 440.826 266.053C440.726 260.891 442.061 205.166 442.061 205.166L479.078 214.055Z" fill="#455A64"/>
<path d="M459.617 238.326L458.431 228.926C458.431 228.926 453.468 227.925 447.691 224.025C447.691 224.025 449.98 227.079 456.692 230.309L458.207 238.838L456.492 266.054L459.617 238.326Z" fill="#37474F"/>
<path d="M441.625 167.509C439.189 170.691 426.653 187.807 426.653 187.807L415.083 178.88C412.345 176.767 411.573 174 409.875 172.094C408.176 170.189 406.325 169.721 404.423 168.121C402.522 166.521 401.786 165.31 401.137 166.672C400.489 168.034 402.588 170.419 402.953 171C403.318 171.58 405.479 172.944 402.607 172.828C399.734 172.712 394.223 169.411 392.887 168.81C391.55 168.209 391.519 169.853 392.142 170.931C392.765 172.009 392.465 175.011 393.198 176.944C393.93 178.875 395.242 180.054 397.883 181.362C400.343 182.58 406.336 183.345 408.284 184.569C412.555 188.926 420.62 197.075 422.658 198.58C425.466 200.653 428.18 202.566 432.472 198.458C436.764 194.349 449.207 178.203 449.207 178.203L451.78 162.862C447.547 162.671 444.561 163.676 441.625 167.509Z" fill="#B16668"/>
<path d="M426.652 187.808C428.241 188.974 429.892 191.597 430.049 192.772C430.049 192.772 430.24 189.638 427.332 186.879L426.652 187.808Z" fill="#9A4A4D"/>
<path d="M452.758 162.452C452.758 162.452 446.809 162.373 444.189 164.199C441.569 166.026 439.635 168.664 435.384 174.845C431.658 180.263 429.859 182.817 429.859 182.817C429.859 182.817 432.974 188.07 439.974 190.506L451.086 176.801L452.758 162.452Z" fill="url(#paint2_linear_1391_349815)"/>
<path d="M464.279 162.159C467.656 162.485 472.382 162.524 475.733 162.862C478.056 163.813 482.524 167.691 482.191 170.459C480.949 180.794 478.43 197.739 478.43 197.739L479.259 215.683C474.615 220.296 452.873 222.099 441.676 214.716C441.676 214.716 442.038 182.46 442.807 177.021C444.189 167.243 445.398 163.615 450.466 162.749C455.533 161.883 464.279 162.159 464.279 162.159Z" fill="url(#paint3_linear_1391_349815)"/>
<path d="M483.389 167.769C485.825 170.951 498.361 188.066 498.361 188.066L509.931 179.139C512.67 177.026 513.442 174.26 515.139 172.354C516.838 170.449 518.69 169.981 520.591 168.38C522.493 166.781 523.229 165.57 523.877 166.932C524.526 168.294 522.427 170.678 522.061 171.259C521.696 171.84 519.535 173.204 522.408 173.088C525.281 172.972 530.791 169.671 532.128 169.07C533.465 168.468 533.495 170.113 532.873 171.19C532.25 172.268 532.55 175.271 531.817 177.203C531.084 179.136 529.773 180.314 527.132 181.621C524.671 182.84 518.678 183.605 516.731 184.829C512.46 189.185 504.394 197.335 502.355 198.84C499.548 200.913 496.833 202.826 492.542 198.718C488.25 194.609 478.434 181.835 478.434 181.835L473.234 163.122C477.467 162.931 480.453 163.935 483.389 167.769Z" fill="#B16668"/>
<path d="M498.36 188.066C496.772 189.232 495.12 191.855 494.963 193.029C494.963 193.029 494.773 189.896 497.679 187.137L498.36 188.066Z" fill="#9A4A4D"/>
<path d="M472.66 162.635C472.66 162.635 478.008 162.306 480.822 164.456C483.36 166.395 485.377 168.921 489.628 175.102C493.354 180.52 495.152 183.075 495.152 183.075C495.152 183.075 492.038 188.327 485.037 190.763L477.489 181.453C473.526 176.478 469.619 168.906 472.66 162.635Z" fill="url(#paint4_linear_1391_349815)"/>
<path d="M465.117 137.845C465.168 143.598 460.523 148.304 454.744 148.354C448.965 148.405 444.238 143.781 444.188 138.027C444.137 132.274 448.782 127.568 454.561 127.518C460.34 127.468 465.067 132.091 465.117 137.845Z" fill="#472E03"/>
<path d="M472.806 145.186C472.806 145.186 471.18 153.132 470.511 154.441C469.843 155.751 468.441 156.133 468.441 156.133L468.511 150.552L472.806 145.186Z" fill="#263238"/>
<path d="M470.581 133.843C470.581 133.843 472.404 133.515 473.84 134.952C475.248 136.361 474.508 140.815 472.808 145.186L469.617 145.58L470.581 133.843Z" fill="#472E03"/>
<path d="M468.657 145.59C469.301 145.965 470.204 144.732 470.986 143.903C471.769 143.073 474.337 141.926 475.648 144.613C476.983 147.351 474.568 151.006 472.544 151.658C469.055 152.781 468.51 150.552 468.51 150.552L468.366 163.502C464.065 169.092 451.99 168.729 456.969 162.885L456.946 159.062C456.946 159.062 453.781 159.568 452.232 159.344C449.656 158.97 448.02 156.963 447.214 154.198C445.922 149.756 445.414 146.165 446.401 137.397C447.482 127.787 458.696 127.589 464.785 131.331C470.875 135.073 468.657 145.59 468.657 145.59Z" fill="#B16668"/>
<path d="M468.669 146.663C468.991 146.666 470.198 144.631 470.989 143.902C472.085 142.892 470.581 133.842 470.581 133.842C470.581 133.842 471.925 131.268 469.777 128.956C468.249 127.311 466.12 125.305 459.26 126.172C454.37 126.791 449.054 128.358 444.732 126.29C444.11 128.962 444.658 131.932 447.352 134.016C447.352 134.016 448.919 135.003 453.022 135.464C457.125 135.924 463.503 135.277 464.374 135.15C465.561 134.978 465.824 136.123 466.493 139.25C467.079 141.995 467.586 146.651 468.669 146.663Z" fill="#472E03"/>
<path d="M470.579 134.546L474.433 132.443C473.874 131.343 472.558 130.923 471.493 131.503C470.428 132.084 470.019 133.446 470.579 134.546Z" fill="#472E03"/>
<path d="M456.945 159.061C456.945 159.061 462.678 157.86 464.676 156.779C466.014 156.056 467.11 154.814 467.427 154.021C467.427 154.021 467.067 155.721 465.879 157.26C464.426 159.141 456.958 160.582 456.958 160.582L456.945 159.061Z" fill="#9A4A4D"/>
<path d="M456.481 144.676C456.487 145.333 457.006 145.861 457.642 145.853C458.278 145.846 458.789 145.307 458.782 144.65C458.777 143.993 458.257 143.466 457.622 143.473C456.985 143.48 456.474 144.019 456.481 144.676Z" fill="#263238"/>
<path d="M459.899 140.734L457.338 139.576C457.032 140.306 457.356 141.158 458.063 141.477C458.771 141.797 459.592 141.464 459.899 140.734Z" fill="#263238"/>
<path d="M448.939 139.322L446.711 141.066C447.175 141.702 448.05 141.827 448.666 141.345C449.281 140.863 449.403 139.958 448.939 139.322Z" fill="#263238"/>
<path d="M447.598 144.4C447.603 145.03 448.102 145.535 448.711 145.529C449.32 145.522 449.809 145.005 449.804 144.375C449.799 143.745 449.3 143.24 448.691 143.246C448.082 143.253 447.592 143.771 447.598 144.4Z" fill="#263238"/>
<path d="M453.567 143.471L452.923 150.342L449.359 148.978L453.567 143.471Z" fill="#9A4A4D"/>
<path d="M455.531 152.922C455.531 153.53 456.026 154.021 456.634 154.021C457.243 154.021 457.738 153.529 457.738 152.922C457.738 152.315 457.243 151.824 456.634 151.824C456.025 151.824 455.531 152.316 455.531 152.922Z" fill="#9A4A4D"/>
<path d="M483.693 79.7633C485.435 80.1468 487.076 80.761 488.618 81.6042C490.159 82.4475 491.466 83.4802 492.534 84.7023C493.604 85.9236 494.373 87.3119 494.843 88.8682C495.313 90.4217 495.348 92.1037 494.945 93.9104C494.618 95.3859 494.101 96.617 493.397 97.6021C492.69 98.5881 491.88 99.4349 490.966 100.142C490.051 100.849 489.086 101.469 488.075 102C487.062 102.531 486.103 103.036 485.202 103.513C484.298 103.991 483.481 104.519 482.752 105.091C482.021 105.666 481.512 106.347 481.22 107.133C481.055 107.523 480.81 107.836 480.486 108.074C480.161 108.313 479.794 108.385 479.388 108.296L475.164 107.364C474.756 107.275 474.427 107.048 474.179 106.684C473.93 106.319 473.868 105.939 473.995 105.541C474.39 104.119 474.975 102.923 475.755 101.953C476.535 100.984 477.4 100.149 478.352 99.4493C479.305 98.7498 480.294 98.1463 481.321 97.638C482.346 97.1289 483.302 96.6332 484.187 96.1509C485.07 95.6696 485.826 95.1578 486.45 94.619C487.076 94.0802 487.475 93.4228 487.647 92.6478C487.958 91.247 487.623 89.9637 486.638 88.7981C485.653 87.6334 484.179 86.8342 482.215 86.4014C479.067 85.7063 476.402 86.7651 474.224 89.5731C473.949 89.9386 473.686 90.199 473.439 90.3571C473.189 90.516 472.823 90.5411 472.341 90.4343L467.84 89.442C467.507 89.3683 467.244 89.1941 467.053 88.9203C466.861 88.6464 466.807 88.3249 466.889 87.9549C467.212 86.6726 467.904 85.4423 468.963 84.2632C470.021 83.0841 471.312 82.0928 472.831 81.2855C474.352 80.4808 476.052 79.916 477.93 79.5954C479.809 79.2748 481.729 79.3305 483.693 79.7633ZM478.927 111.678C479.333 111.767 479.653 111.993 479.882 112.354C480.114 112.714 480.183 113.096 480.093 113.502L479.01 118.37C478.919 118.777 478.693 119.095 478.331 119.323C477.97 119.554 477.585 119.624 477.179 119.533L472.4 118.48C471.991 118.388 471.672 118.165 471.441 117.804C471.209 117.443 471.14 117.062 471.23 116.655L472.313 111.786C472.403 111.381 472.63 111.063 472.992 110.832C473.354 110.603 473.738 110.533 474.147 110.623L478.927 111.678Z" fill="#E86B31"/>
<path d="M497.873 125.551C499.087 125.353 500.297 125.327 501.503 125.476C502.708 125.623 503.811 125.952 504.811 126.462C505.81 126.974 506.661 127.668 507.362 128.545C508.064 129.422 508.518 130.492 508.725 131.752C508.893 132.782 508.878 133.704 508.68 134.515C508.481 135.327 508.18 136.076 507.775 136.763C507.37 137.45 506.912 138.092 506.399 138.691C505.887 139.29 505.403 139.857 504.947 140.394C504.491 140.931 504.103 141.477 503.783 142.031C503.461 142.584 503.31 143.151 503.325 143.729C503.32 144.022 503.242 144.284 503.096 144.519C502.948 144.755 502.733 144.896 502.449 144.942L499.502 145.421C499.217 145.468 498.948 145.406 498.694 145.235C498.441 145.065 498.304 144.837 498.284 144.549C498.171 143.537 498.239 142.621 498.491 141.8C498.739 140.98 499.08 140.224 499.512 139.534C499.942 138.843 500.422 138.204 500.948 137.616C501.476 137.028 501.961 136.467 502.404 135.931C502.847 135.398 503.2 134.878 503.462 134.373C503.724 133.867 503.811 133.345 503.723 132.803C503.562 131.827 503.017 131.09 502.085 130.592C501.154 130.097 500.003 129.96 498.633 130.183C496.436 130.54 495 131.898 494.324 134.254C494.241 134.557 494.141 134.791 494.021 134.956C493.902 135.121 493.675 135.231 493.339 135.285L490.199 135.797C489.966 135.835 489.753 135.791 489.559 135.663C489.365 135.536 489.249 135.344 489.205 135.086C489.083 134.182 489.21 133.216 489.587 132.19C489.961 131.164 490.534 130.199 491.301 129.296C492.068 128.39 493.014 127.598 494.134 126.912C495.257 126.227 496.502 125.774 497.873 125.551ZM503.022 147.225C503.306 147.179 503.569 147.242 503.81 147.414C504.05 147.587 504.194 147.815 504.241 148.096L504.798 151.495C504.845 151.778 504.782 152.039 504.609 152.279C504.436 152.52 504.207 152.661 503.922 152.707L500.588 153.25C500.304 153.297 500.041 153.235 499.8 153.062C499.558 152.89 499.416 152.663 499.369 152.379L498.812 148.981C498.766 148.699 498.828 148.437 499.001 148.197C499.174 147.958 499.402 147.814 499.687 147.768L503.022 147.225Z" fill="#E86B31"/>
<g opacity="0.2">
<path d="M497.873 125.551C499.087 125.353 500.297 125.327 501.503 125.476C502.708 125.623 503.811 125.952 504.811 126.462C505.81 126.974 506.661 127.668 507.362 128.545C508.064 129.422 508.518 130.492 508.725 131.752C508.893 132.782 508.878 133.704 508.68 134.515C508.481 135.327 508.18 136.076 507.775 136.763C507.37 137.45 506.912 138.092 506.399 138.691C505.887 139.29 505.403 139.857 504.947 140.394C504.491 140.931 504.103 141.477 503.783 142.031C503.461 142.584 503.31 143.151 503.325 143.729C503.32 144.022 503.242 144.284 503.096 144.519C502.948 144.755 502.733 144.896 502.449 144.942L499.502 145.421C499.217 145.468 498.948 145.406 498.694 145.235C498.441 145.065 498.304 144.837 498.284 144.549C498.171 143.537 498.239 142.621 498.491 141.8C498.739 140.98 499.08 140.224 499.512 139.534C499.942 138.843 500.422 138.204 500.948 137.616C501.476 137.028 501.961 136.467 502.404 135.931C502.847 135.398 503.2 134.878 503.462 134.373C503.724 133.867 503.811 133.345 503.723 132.803C503.562 131.827 503.017 131.09 502.085 130.592C501.154 130.097 500.003 129.96 498.633 130.183C496.436 130.54 495 131.898 494.324 134.254C494.241 134.557 494.141 134.791 494.021 134.956C493.902 135.121 493.675 135.231 493.339 135.285L490.199 135.797C489.966 135.835 489.753 135.791 489.559 135.663C489.365 135.536 489.249 135.344 489.205 135.086C489.083 134.182 489.21 133.216 489.587 132.19C489.961 131.164 490.534 130.199 491.301 129.296C492.068 128.39 493.014 127.598 494.134 126.912C495.257 126.227 496.502 125.774 497.873 125.551ZM503.022 147.225C503.306 147.179 503.569 147.242 503.81 147.414C504.05 147.587 504.194 147.815 504.241 148.096L504.798 151.495C504.845 151.778 504.782 152.039 504.609 152.279C504.436 152.52 504.207 152.661 503.922 152.707L500.588 153.25C500.304 153.297 500.041 153.235 499.8 153.062C499.558 152.89 499.416 152.663 499.369 152.379L498.812 148.981C498.766 148.699 498.828 148.437 499.001 148.197C499.174 147.958 499.402 147.814 499.687 147.768L503.022 147.225Z" fill="black"/>
</g>
<path d="M528.626 135.182C528.905 135.379 529.072 135.65 529.132 135.994C529.19 136.339 529.12 136.65 528.923 136.928L526.549 140.251C526.351 140.529 526.08 140.696 525.733 140.754C525.387 140.813 525.075 140.743 524.796 140.546L521.533 138.237C521.254 138.039 521.087 137.77 521.028 137.425C520.969 137.079 521.039 136.769 521.238 136.492L523.611 133.168C523.808 132.89 524.079 132.723 524.427 132.665C524.773 132.606 525.084 132.675 525.363 132.873L528.626 135.182ZM542.43 112.652C543.618 113.491 544.659 114.475 545.551 115.599C546.442 116.724 547.097 117.915 547.51 119.175C547.925 120.436 548.059 121.724 547.917 123.045C547.773 124.366 547.262 125.643 546.381 126.878C545.662 127.886 544.878 128.649 544.033 129.167C543.187 129.687 542.305 130.068 541.389 130.31C540.473 130.553 539.548 130.714 538.617 130.794C537.683 130.872 536.801 130.95 535.967 131.023C535.135 131.097 534.35 131.234 533.618 131.436C532.883 131.636 532.281 131.988 531.81 132.489C531.561 132.73 531.277 132.888 530.956 132.965C530.635 133.041 530.336 132.98 530.057 132.783L527.174 130.742C526.895 130.545 526.72 130.271 526.649 129.917C526.577 129.563 526.652 129.257 526.876 128.997C527.629 128.051 528.453 127.336 529.35 126.852C530.248 126.37 531.166 126.015 532.108 125.79C533.047 125.565 533.986 125.423 534.924 125.367C535.859 125.308 536.738 125.238 537.558 125.156C538.378 125.073 539.11 124.928 539.755 124.72C540.397 124.512 540.908 124.144 541.286 123.615C541.969 122.657 542.126 121.585 541.757 120.394C541.388 119.205 540.534 118.135 539.194 117.187C537.042 115.665 534.696 115.616 532.156 117.04C531.832 117.228 531.55 117.343 531.314 117.383C531.075 117.422 530.792 117.326 530.463 117.093L527.389 114.918C527.162 114.757 527.019 114.542 526.963 114.275C526.906 114.007 526.968 113.748 527.147 113.497C527.801 112.633 528.716 111.924 529.891 111.372C531.067 110.82 532.356 110.481 533.759 110.356C535.162 110.231 536.622 110.344 538.14 110.699C539.659 111.05 541.089 111.702 542.43 112.652Z" fill="#E86B31"/>
<g opacity="0.6">
<path d="M528.626 135.182C528.905 135.379 529.072 135.65 529.132 135.994C529.19 136.339 529.12 136.65 528.923 136.928L526.549 140.251C526.351 140.529 526.08 140.696 525.733 140.754C525.387 140.813 525.075 140.743 524.796 140.546L521.533 138.237C521.254 138.039 521.087 137.77 521.028 137.425C520.969 137.079 521.039 136.769 521.238 136.492L523.611 133.168C523.808 132.89 524.079 132.723 524.427 132.665C524.773 132.606 525.084 132.675 525.363 132.873L528.626 135.182ZM542.43 112.652C543.618 113.491 544.659 114.475 545.551 115.599C546.442 116.724 547.097 117.915 547.51 119.175C547.925 120.436 548.059 121.724 547.917 123.045C547.773 124.366 547.262 125.643 546.381 126.878C545.662 127.886 544.878 128.649 544.033 129.167C543.187 129.687 542.305 130.068 541.389 130.31C540.473 130.553 539.548 130.714 538.617 130.794C537.683 130.872 536.801 130.95 535.967 131.023C535.135 131.097 534.35 131.234 533.618 131.436C532.883 131.636 532.281 131.988 531.81 132.489C531.561 132.73 531.277 132.888 530.956 132.965C530.635 133.041 530.336 132.98 530.057 132.783L527.174 130.742C526.895 130.545 526.72 130.271 526.649 129.917C526.577 129.563 526.652 129.257 526.876 128.997C527.629 128.051 528.453 127.336 529.35 126.852C530.248 126.37 531.166 126.015 532.108 125.79C533.047 125.565 533.986 125.423 534.924 125.367C535.859 125.308 536.738 125.238 537.558 125.156C538.378 125.073 539.11 124.928 539.755 124.72C540.397 124.512 540.908 124.144 541.286 123.615C541.969 122.657 542.126 121.585 541.757 120.394C541.388 119.205 540.534 118.135 539.194 117.187C537.042 115.665 534.696 115.616 532.156 117.04C531.832 117.228 531.55 117.343 531.314 117.383C531.075 117.422 530.792 117.326 530.463 117.093L527.389 114.918C527.162 114.757 527.019 114.542 526.963 114.275C526.906 114.007 526.968 113.748 527.147 113.497C527.801 112.633 528.716 111.924 529.891 111.372C531.067 110.82 532.356 110.481 533.759 110.356C535.162 110.231 536.622 110.344 538.14 110.699C539.659 111.05 541.089 111.702 542.43 112.652Z" fill="white"/>
</g>
<path d="M237.966 312.974C237.869 310.3 239.824 283.949 239.824 283.949L226.945 293.246C229.588 308.95 230.152 312.653 230.198 315.223C230.178 315.282 230.125 315.501 230.128 315.881C230.139 318.933 233.598 320.578 236.296 322.612C237.363 323.415 240.462 325.787 243.593 327.354C245.553 328.335 249.533 328.424 250.027 327.168C246.743 324.673 241.969 320.937 239.358 318.087C238.111 316.726 238.062 315.649 237.966 312.974Z" fill="#FFA8A7"/>
<path d="M255.623 330.452C255.792 330.452 255.989 332.121 255.075 332.907C254.019 333.813 250.977 335.372 246.884 334.845C242.79 334.317 240.574 333.163 238.936 331.798C237.298 330.433 235.003 328.507 233.151 328.101C231.431 327.723 229.563 326.947 229.012 326.418C228.462 325.889 228.539 323.535 228.539 323.535L255.623 330.452Z" fill="#263238"/>
<path d="M230.172 314.477C230.172 314.477 229.658 314.483 229.552 315.027C229.426 315.675 229.289 317.561 229.019 318.626C228.643 320.105 228.391 323.138 228.617 324.344C228.842 325.55 231.645 326.388 233.438 327.067C235.268 327.762 237.385 329.192 239.243 330.718C241.166 332.297 245.212 333.94 247.881 333.921C251.038 333.899 254.591 332.881 255.406 331.424C256.414 329.62 255.624 328.576 250.944 326.416C250.058 326.008 246.945 324.173 245.885 323.509C243.015 321.71 240.173 319.206 238.852 316.024C238.698 315.652 238.537 315.24 238.18 315.05C237.906 314.905 237.576 314.926 237.269 314.969C236.489 315.077 235.727 315.307 235.017 315.645C234.389 315.943 233.498 316.29 233.511 317.091C233.515 317.369 233.597 317.641 233.688 317.905C233.744 318.069 233.788 318.286 233.644 318.383C233.509 318.474 233.329 318.37 233.207 318.262C232.717 317.824 232.358 317.264 231.945 316.754C231.724 316.481 231.483 316.219 231.204 316.002C230.951 315.807 230.628 315.709 230.403 315.485C230.117 315.202 230.185 314.853 230.172 314.477Z" fill="black"/>
<path d="M239.241 330.718C238.425 330.048 237.558 329.4 236.688 328.821V328.816C236.688 328.816 242.192 332.148 244.416 330.636C245.849 329.662 245.167 328.478 245.133 328.1C245.099 327.722 248.633 326.102 250.024 325.938C250.412 326.151 250.737 326.323 250.941 326.417C255.621 328.577 256.412 329.621 255.403 331.424C254.589 332.882 252.014 334.018 247.934 334.018C245.267 334.018 241.164 332.297 239.241 330.718Z" fill="black"/>
<path d="M244.748 326.996C247.659 328.156 246.417 328.696 245.602 328.812C244.787 328.928 239.888 326.08 236.9 323.726C233.784 321.271 231.819 318.588 230.661 317.686C230.23 317.35 229.766 316.937 229.352 316.551C229.428 315.913 229.49 315.332 229.549 315.027C229.655 314.482 230.169 314.477 230.169 314.477C230.182 314.852 230.114 315.202 230.399 315.484C230.623 315.707 230.947 315.805 231.201 316.001C231.479 316.218 231.72 316.48 231.941 316.753C232.353 317.263 232.712 317.823 233.203 318.261C235.745 321.472 241.838 325.838 244.748 326.996Z" fill="#263238"/>
<path d="M245.394 328.387C245.33 328.387 245.265 328.367 245.211 328.323C245.088 328.223 245.07 328.041 245.171 327.919C245.993 326.918 248.361 325.592 250.503 325.826C250.661 325.843 250.776 325.985 250.758 326.142C250.741 326.299 250.615 326.409 250.44 326.396C248.441 326.183 246.267 327.489 245.616 328.283C245.56 328.351 245.478 328.387 245.394 328.387Z" fill="#F5F5F5"/>
<path d="M242.858 326.831C242.794 326.831 242.729 326.811 242.676 326.767C242.552 326.667 242.535 326.485 242.635 326.363C243.456 325.363 245.824 324.038 247.967 324.271C248.126 324.288 248.24 324.43 248.222 324.587C248.205 324.744 248.067 324.858 247.905 324.841C245.904 324.63 243.731 325.933 243.08 326.727C243.024 326.795 242.942 326.831 242.858 326.831Z" fill="#F5F5F5"/>
<path d="M240.315 325.358C240.251 325.358 240.186 325.337 240.133 325.293C240.009 325.193 239.992 325.012 240.092 324.89C240.914 323.888 243.283 322.56 245.424 322.797C245.583 322.814 245.697 322.956 245.679 323.113C245.662 323.271 245.527 323.385 245.362 323.368C243.361 323.154 241.188 324.46 240.537 325.253C240.482 325.322 240.399 325.358 240.315 325.358Z" fill="#F5F5F5"/>
<path d="M237.964 323.675C237.9 323.675 237.835 323.655 237.781 323.611C237.658 323.511 237.641 323.33 237.741 323.208C238.562 322.206 240.939 320.881 243.072 321.115C243.231 321.132 243.346 321.274 243.328 321.431C243.311 321.588 243.174 321.702 243.01 321.685C241.012 321.473 238.837 322.777 238.185 323.571C238.13 323.639 238.047 323.675 237.964 323.675Z" fill="#F5F5F5"/>
<path d="M235.659 321.992C235.597 321.992 235.533 321.972 235.48 321.93C235.355 321.832 235.335 321.651 235.433 321.528C236.563 320.108 239.115 319.173 241.256 319.407C241.415 319.423 241.529 319.566 241.511 319.723C241.494 319.88 241.357 319.99 241.194 319.977C239.266 319.769 236.887 320.626 235.883 321.884C235.828 321.955 235.744 321.992 235.659 321.992Z" fill="#F5F5F5"/>
<path d="M213.698 295.934L200.703 295.699C200.896 304.335 202.274 313.922 202.5 322.025C202.542 323.551 202.461 333.878 203.039 337.016C203.908 341.732 209.529 341.095 209.828 338.272C210.126 335.451 209.466 323.394 209.484 322.151C209.434 316.954 211.881 308.181 213.164 298.852C213.226 298.395 213.639 296.381 213.698 295.934Z" fill="#FFA8A7"/>
<path d="M211.946 340.238C212.063 343.009 211.818 344.878 210.999 346.593C210.18 348.307 208.379 348.999 206.455 348.714C204.531 348.428 202.001 347.404 201.224 345.081C200.446 342.758 200.39 341.119 200.558 338.521L211.946 340.238Z" fill="#263238"/>
<path d="M202.466 321.034C201.699 321.172 201.844 324.894 201.773 328.642C201.696 332.66 200.672 334.421 200.573 337.718C200.462 341.486 200.825 343.128 202.361 345.245C203.897 347.363 208.753 349.105 210.711 345.655C212.308 342.844 212.09 339.924 211.545 336.228C210.982 332.407 210.556 329.722 210.419 326.793C210.288 323.994 210.209 321.276 209.506 321.033C209.496 321.447 209.498 321.971 209.483 322.378C209.473 322.691 209.547 324.206 209.116 324.264C209.04 323.912 209.014 323.581 209.002 323.216C208.991 322.899 208.93 322.558 208.7 322.339C208.468 322.118 208.123 322.074 207.803 322.043C207.027 321.97 206.248 321.912 205.469 321.92C205.081 321.924 204.692 321.945 204.306 321.988C203.993 322.023 203.627 322.086 203.341 322.225C203.166 322.31 203.01 322.457 202.96 322.644C202.924 322.783 202.948 322.93 202.963 323.073C202.989 323.329 202.982 323.59 202.943 323.846C202.926 323.958 202.864 324.1 202.75 324.085C202.658 324.072 202.611 323.964 202.601 323.873C202.552 323.425 202.577 323.092 202.545 322.568C202.531 322.325 202.537 321.993 202.515 321.75C202.496 321.513 202.474 321.274 202.466 321.034Z" fill="black"/>
<path d="M200.641 336.644C200.62 337.188 200.523 340.785 201.559 341.328C202.68 341.915 202.976 339.066 202.976 339.066C202.976 339.066 205.367 338.067 209.114 339.272C208.988 339.866 209.734 341.711 210.679 341.211C211.617 340.715 211.591 336.602 211.591 336.549C212.1 340.094 212.262 342.927 210.711 345.657C208.753 349.106 203.896 347.364 202.361 345.247C200.825 343.129 200.462 341.488 200.573 337.72C200.584 337.342 200.609 336.986 200.641 336.644Z" fill="black"/>
<path d="M203.284 339.276C203.404 340.622 202.025 340.302 201.775 338.41C201.525 336.517 202.114 331.908 201.774 328.643C201.845 324.895 201.7 321.173 202.467 321.035C202.468 321.081 202.474 321.127 202.476 321.173L202.565 323.064C202.57 323.339 202.571 323.584 202.603 323.874C202.861 326.618 203.008 331.956 203.023 334.486C203.04 337.016 203.164 337.93 203.284 339.276Z" fill="#263238"/>
<path d="M208.695 339.275C208.815 337.929 208.939 337.016 208.955 334.486C208.971 331.974 209.115 326.699 209.37 323.938C209.512 323.46 209.476 322.606 209.484 322.38C209.498 322 209.497 321.521 209.505 321.122C209.508 321.094 209.509 321.065 209.511 321.037C210.019 321.221 210.199 322.706 210.31 324.575C210.322 325.661 210.285 327.008 210.204 328.643C209.864 331.908 210.46 336.543 210.21 338.436C209.961 340.327 208.575 340.621 208.695 339.275Z" fill="#263238"/>
<path d="M209.201 339.373C209.165 339.373 209.129 339.365 209.093 339.353C209.065 339.34 206.114 338.194 203.077 339.334C202.927 339.389 202.761 339.314 202.706 339.167C202.65 339.019 202.725 338.854 202.875 338.798C206.125 337.578 209.179 338.769 209.309 338.82C209.456 338.879 209.528 339.046 209.469 339.193C209.423 339.304 209.314 339.373 209.201 339.373Z" fill="#F5F5F5"/>
<path d="M209.55 336.389C209.518 336.389 209.485 336.384 209.453 336.372C209.42 336.36 206.117 335.204 202.717 336.354C202.566 336.403 202.403 336.325 202.351 336.175C202.3 336.025 202.381 335.861 202.532 335.811C206.128 334.597 209.505 335.782 209.649 335.832C209.798 335.886 209.876 336.05 209.822 336.199C209.779 336.316 209.668 336.389 209.55 336.389Z" fill="#F5F5F5"/>
<path d="M202.624 333.565C202.515 333.565 202.41 333.503 202.361 333.398C202.297 333.254 202.36 333.083 202.504 333.018C205.851 331.502 209.452 332.913 209.605 332.974C209.752 333.033 209.824 333.2 209.764 333.347C209.705 333.494 209.534 333.562 209.39 333.506C209.356 333.493 205.858 332.126 202.744 333.54C202.705 333.557 202.665 333.565 202.624 333.565Z" fill="#F5F5F5"/>
<path d="M202.561 330.933C202.454 330.933 202.351 330.873 202.302 330.769C202.233 330.626 202.294 330.455 202.437 330.387C206.111 328.646 209.533 330.24 209.676 330.308C209.82 330.376 209.881 330.548 209.812 330.69C209.743 330.833 209.567 330.895 209.427 330.825C209.396 330.809 206.104 329.285 202.684 330.904C202.645 330.924 202.603 330.933 202.561 330.933Z" fill="#F5F5F5"/>
<path d="M202.499 327.972C202.393 327.972 202.291 327.913 202.241 327.812C202.171 327.671 202.228 327.498 202.372 327.428C205.809 325.739 209.515 327.353 209.671 327.424C209.816 327.487 209.88 327.658 209.815 327.803C209.751 327.947 209.58 328.014 209.434 327.946C209.398 327.93 205.818 326.373 202.627 327.942C202.585 327.962 202.542 327.972 202.499 327.972Z" fill="#F5F5F5"/>
<path d="M204.975 211.885C200.393 224.521 201.203 232.449 201.986 245.688C202.706 257.832 203.854 268.523 203.854 268.523C203.67 270.679 200.661 274.884 200.272 284.406C199.908 293.309 201.194 304.474 201.194 304.474C201.194 304.474 207.201 306.655 212.262 304.479C212.262 304.479 217.453 281.686 218.866 270.541C220.098 260.815 222.239 248.388 222.239 248.388L226.775 270.488C226.775 270.488 225.433 274.574 225.433 279.644C225.433 284.838 227.864 299.3 227.864 299.3C227.864 299.3 234.58 301.467 238.842 297.706C238.842 297.706 240.524 276.897 241.119 269C241.915 258.426 240.757 229.43 238.211 214.584L204.975 211.885Z" fill="#455A64"/>
<path d="M222.238 248.39L224.114 231.755C224.114 231.755 232.513 230.637 236.319 227.076C236.319 227.076 233.459 232.292 226.421 233.304L223.71 248.784L226.775 270.491L222.238 248.39Z" fill="#37474F"/>
<path d="M243.003 199.595C238.925 195.415 231.546 185.951 231.546 185.951L227.374 171.564C227.273 171.604 229.502 171.611 230.173 171.571C234.681 171.871 236.01 172.252 238.815 175.309C241.041 177.736 249.538 189.289 252.491 193.174L260.329 183.234C262.207 180.404 261.902 177.241 262.877 174.932C263.852 172.623 265.428 171.604 266.689 169.516C267.95 167.428 268.251 166.069 269.288 167.133C270.324 168.196 269.129 171.078 268.973 171.733C268.818 172.388 267.239 174.339 269.877 173.326C272.514 172.313 276.594 167.505 277.647 166.523C278.701 165.543 279.252 167.063 279.015 168.263C278.778 169.462 279.911 172.178 279.5 174.167C279.064 176.277 278.751 177.241 276.708 179.291C274.804 181.2 270.145 183.54 268.323 186.044C266.501 188.547 262.612 196.335 260.235 201.027C257.214 206.992 254.641 208.957 251.244 206.948C247.847 204.939 244.514 201.145 243.003 199.595Z" fill="#FFA8A7"/>
<path d="M228.701 171.428C231.544 171.26 233.931 171.643 235.498 172.347C237.946 173.449 239.608 175.8 241.995 178.992C244.384 182.183 248.65 187.748 248.65 187.748C248.65 187.748 247.496 192.588 239.884 196.934L227.453 184.195L228.701 171.428Z" fill="url(#paint5_linear_1391_349815)"/>
<path d="M252.491 193.172C250.585 194.992 249.78 197.253 249.645 198.409C249.645 198.409 248.765 195.531 251.815 192.283L252.491 193.172Z" fill="#F28F8F"/>
<path d="M237.703 196.934C243.246 192.396 241.422 186.478 239.397 182.494C235.348 174.525 231.137 171.392 229.381 171.422L218.349 171.525C213.078 172.241 208.999 171.883 207.724 172.184C204.483 172.949 204.412 175.606 204.284 179.044C204.144 182.812 202.206 182.173 203.195 188.405C203.195 188.405 205.647 193.392 206.241 195.545C206.834 197.699 208.51 201.136 207.621 204.62C207.277 205.967 206.359 207.28 204.972 210.999C203.675 214.477 202.617 217.841 201.508 223.806C201.508 223.806 204.726 223.06 208.39 219.183C208.39 219.183 213.394 225.857 225.435 225.18C237.926 224.478 239.023 218.003 239.023 218.003L237.118 206.311C237.405 201.607 237.483 199.904 237.703 196.934Z" fill="url(#paint6_linear_1391_349815)"/>
<path opacity="0.1" d="M230.497 195.745C230.497 195.745 225.966 199.375 220.69 197.616C215.414 195.856 214.569 191.307 214.569 191.307C214.569 191.307 214.118 197.284 220.767 199.203C227.183 201.054 230.497 195.745 230.497 195.745Z" fill="black"/>
<path d="M198.921 166.289C197.284 165.103 188.492 176.829 192.64 179.805C196.788 182.78 201.138 174.398 200.25 170.485C199.363 166.571 198.921 166.289 198.921 166.289Z" fill="#37474F"/>
<path d="M190.934 160.468C193.133 157.432 194.629 155.142 196.639 152.539C197.781 151.061 198.508 150.008 199.605 148.492C200.359 147.448 200.797 146.572 201.648 146.238C202.606 145.862 203.523 145.135 204.132 144.476C204.566 144.005 204.92 143.466 205.293 142.946C206.55 141.197 208.06 139.629 209.762 138.304C211.551 136.912 213.547 135.841 215.384 134.513C216.48 133.721 217.647 132.416 216.276 131.24C215.867 130.889 215.351 130.685 214.821 130.579C211.531 129.924 208.69 131.099 205.498 131.97C204.111 132.349 202.748 132.817 201.44 133.414C200.805 133.705 200.173 134.018 199.651 134.479C198.837 135.197 198.36 136.208 197.839 137.159C196.442 139.713 193.495 141.997 191.428 144.001C189.002 146.353 186.836 148.509 184.068 151.105C181.577 153.443 179.138 155.6 176.86 158.144C174.975 160.249 175.703 161.858 175.987 162.414C177.608 165.592 179.381 166.71 181.509 168.659C182.214 169.304 182.923 169.943 183.633 170.581C186.395 173.06 189.16 175.378 192.027 177.736C195.09 180.255 196.354 181.478 199.089 183.913C200.706 185.353 202.007 187.064 203.336 189.422C208.074 190.205 212.727 182.989 208.665 174.557C208.007 173.19 206.979 172.033 205.733 171.161C200.739 167.668 190.934 160.468 190.934 160.468Z" fill="#FFA8A7"/>
<path d="M190.934 160.467C190.934 160.467 188.848 163.347 185.23 164.523C185.23 164.523 188.257 165.236 192.316 161.479L190.934 160.467Z" fill="#F28F8F"/>
<path d="M208.108 172.112C206.996 171.343 204.3 169.72 198.918 166.287C198.918 166.287 199.749 168.024 198.436 172.374C197.123 176.724 194.37 179.487 192.637 179.803C192.637 179.803 195.649 182.172 198.428 184.848C201.206 187.524 203.49 189.425 205.097 192.528C205.097 192.528 209.067 191.512 209.964 184.819C210.595 180.115 210.218 174.603 208.108 172.112Z" fill="url(#paint7_linear_1391_349815)"/>
<path d="M238.237 150.535C239.838 147.359 239.57 142.942 237.507 140.023C234.087 135.185 228.32 132.799 221.955 132.91L219.978 132.945C211.386 133.095 203.573 140.436 203.416 148.706L203.41 148.704C203.41 154.527 203.434 159.906 206.626 163.87C209.598 167.561 214.221 168.778 218.132 169.369C225.599 170.498 233.985 169.635 237.374 164.578C237.374 164.578 232.915 165.447 233.436 160.819C233.518 160.084 232.814 159.277 231.578 158.44C232.504 156.969 233.436 155.475 234.619 154.267C235.902 152.96 237.371 152.252 238.237 150.535Z" fill="#472E03"/>
<path d="M236.007 154.787C235.962 163.45 233.177 165.639 231.773 166.278C230.37 166.918 227.632 166.591 224.975 166.2L225.066 171.397C225.066 171.397 228.18 174.536 227.993 176.92C227.8 179.31 223.234 179.654 219.758 177.383C217.221 175.727 215.397 173.815 214.599 172.907C214.309 172.576 214.148 172.158 214.14 171.718L213.925 159.49C213.925 159.49 212.5 161.047 209.899 159.339C207.305 157.637 207.024 154.381 208.561 152.508C209.656 151.179 212.497 151.038 213.898 153.049C214.69 154.53 214.622 155.567 215.669 155.393C216.678 155.225 216.797 154.055 216.869 153.225C216.941 152.394 216.909 152.119 216.971 151.029C219.544 150.477 222.206 146.914 222.505 144.311C224.34 145.107 226.269 145.695 228.102 145.569C230.982 145.37 232.469 144.796 233.884 142.727C234.202 143.127 234.53 143.806 234.685 144.264C235.151 145.64 235.393 146.508 235.577 147.664C235.953 150.015 236.022 152.411 236.007 154.787Z" fill="#FFA8A7"/>
<path d="M224.973 166.199C222.169 165.883 216.385 164.337 215.449 162.088C215.449 162.088 215.773 163.506 217.518 164.943C219.262 166.379 225.003 167.932 225.003 167.932L224.973 166.199Z" fill="#F28F8F"/>
<path d="M227.796 161.533C227.807 162.161 227.305 162.679 226.674 162.69C226.043 162.701 225.523 162.201 225.512 161.573C225.501 160.945 226.003 160.427 226.634 160.416C227.264 160.405 227.784 160.906 227.796 161.533Z" fill="#B16668"/>
<path d="M226.334 153.004C226.381 153.69 225.881 154.28 225.218 154.323C224.555 154.366 223.98 153.845 223.933 153.159C223.886 152.473 224.386 151.883 225.049 151.84C225.712 151.798 226.288 152.319 226.334 153.004Z" fill="#263238"/>
<path d="M234.463 152.489C234.505 153.112 234.052 153.649 233.448 153.688C232.785 153.731 232.327 153.315 232.28 152.63C232.238 152.006 232.692 151.469 233.295 151.43C233.897 151.391 234.421 151.865 234.463 152.489Z" fill="#263238"/>
<path d="M228.844 151.365L229.715 158.601L233.439 157.063L228.844 151.365Z" fill="#F28F8F"/>
<path d="M221.98 149.876L224.147 147.826C224.71 148.453 224.682 149.42 224.084 149.987C223.486 150.553 222.543 150.503 221.98 149.876Z" fill="#263238"/>
<path d="M232.81 147.166L235.212 148.975C234.731 149.66 233.804 149.81 233.14 149.31C232.477 148.81 232.329 147.85 232.81 147.166Z" fill="#263238"/>
<path d="M198.227 81.3857C199.98 81.0561 201.732 80.9771 203.482 81.1486C205.232 81.3192 206.842 81.7566 208.308 82.4624C209.774 83.1664 211.03 84.1407 212.077 85.3872C213.124 86.6318 213.82 88.1638 214.165 89.9822C214.446 91.4666 214.459 92.8011 214.2 93.9828C213.94 95.1664 213.531 96.262 212.969 97.2704C212.408 98.2789 211.766 99.2271 211.046 100.111C210.326 100.997 209.644 101.837 209.004 102.627C208.362 103.421 207.819 104.226 207.376 105.039C206.931 105.853 206.732 106.68 206.775 107.517C206.776 107.94 206.675 108.323 206.471 108.668C206.267 109.015 205.959 109.225 205.55 109.303L201.298 110.101C200.887 110.179 200.496 110.099 200.123 109.86C199.751 109.623 199.544 109.298 199.504 108.882C199.303 107.421 199.369 106.091 199.702 104.894C200.036 103.698 200.501 102.592 201.1 101.575C201.699 100.559 202.371 99.6169 203.113 98.7467C203.855 97.8766 204.538 97.0468 205.161 96.2566C205.782 95.4681 206.275 94.7021 206.636 93.9622C206.998 93.2213 207.105 92.4607 206.957 91.6813C206.689 90.2714 205.873 89.2225 204.507 88.5374C203.141 87.8531 201.47 87.6959 199.494 88.0668C196.324 88.6622 194.294 90.6782 193.401 94.1139C193.291 94.5576 193.153 94.8997 192.988 95.1421C192.821 95.3864 192.495 95.5525 192.01 95.6432L187.48 96.4945C187.145 96.5574 186.833 96.4999 186.55 96.323C186.266 96.1461 186.088 95.8713 186.018 95.5004C185.808 94.1948 185.958 92.7921 186.465 91.2933C186.971 89.7955 187.767 88.3775 188.844 87.0404C189.923 85.7042 191.263 84.5188 192.863 83.4888C194.464 82.4579 196.251 81.7566 198.227 81.3857ZM206.462 112.592C206.872 112.515 207.254 112.597 207.608 112.838C207.963 113.079 208.179 113.403 208.257 113.812L209.186 118.711C209.263 119.121 209.181 119.501 208.939 119.853C208.698 120.207 208.373 120.422 207.962 120.498L203.153 121.402C202.742 121.479 202.359 121.398 202.005 121.156C201.649 120.916 201.434 120.592 201.356 120.183L200.427 115.282C200.35 114.875 200.433 114.494 200.673 114.14C200.917 113.788 201.242 113.573 201.653 113.495L206.462 112.592Z" fill="#E86B31"/>
<path d="M244.066 101.616C245.14 102.213 246.105 102.942 246.957 103.804C247.808 104.665 248.467 105.604 248.931 106.623C249.394 107.643 249.627 108.713 249.629 109.834C249.631 110.956 249.318 112.074 248.694 113.189C248.183 114.1 247.595 114.814 246.933 115.326C246.271 115.839 245.567 116.24 244.821 116.527C244.076 116.814 243.315 117.034 242.54 117.186C241.765 117.337 241.032 117.482 240.34 117.62C239.647 117.759 239.002 117.946 238.405 118.181C237.808 118.416 237.335 118.766 236.986 119.229C236.799 119.454 236.575 119.612 236.313 119.706C236.051 119.799 235.794 119.775 235.543 119.637L232.935 118.189C232.683 118.049 232.511 117.834 232.418 117.543C232.326 117.254 232.362 116.99 232.525 116.752C233.069 115.889 233.694 115.214 234.403 114.727C235.11 114.239 235.849 113.858 236.618 113.583C237.387 113.308 238.161 113.104 238.942 112.969C239.721 112.836 240.452 112.696 241.134 112.551C241.813 112.407 242.413 112.219 242.935 111.985C243.455 111.751 243.85 111.396 244.119 110.918C244.604 110.054 244.636 109.138 244.217 108.172C243.797 107.207 242.981 106.389 241.769 105.715C239.824 104.636 237.852 104.81 235.851 106.237C235.597 106.423 235.372 106.545 235.176 106.6C234.979 106.657 234.733 106.601 234.436 106.436L231.657 104.893C231.451 104.778 231.312 104.611 231.239 104.392C231.166 104.172 231.195 103.949 231.322 103.721C231.791 102.937 232.494 102.26 233.43 101.689C234.364 101.117 235.414 100.715 236.579 100.482C237.746 100.248 238.981 100.212 240.287 100.369C241.595 100.527 242.854 100.943 244.066 101.616ZM234.566 121.781C234.817 121.921 234.984 122.133 235.066 122.416C235.146 122.701 235.115 122.968 234.977 123.217L233.292 126.225C233.152 126.475 232.939 126.641 232.654 126.721C232.368 126.802 232.101 126.772 231.849 126.633L228.899 124.994C228.647 124.855 228.48 124.643 228.4 124.36C228.319 124.075 228.349 123.808 228.489 123.558L230.174 120.55C230.314 120.302 230.527 120.135 230.812 120.054C231.097 119.974 231.366 120.003 231.617 120.142L234.566 121.781Z" fill="#E86B31"/>
<g opacity="0.2">
<path d="M244.066 101.616C245.14 102.213 246.105 102.942 246.957 103.804C247.808 104.665 248.467 105.604 248.931 106.623C249.394 107.643 249.627 108.713 249.629 109.834C249.631 110.956 249.318 112.074 248.694 113.189C248.183 114.1 247.595 114.814 246.933 115.326C246.271 115.839 245.567 116.24 244.821 116.527C244.076 116.814 243.315 117.034 242.54 117.186C241.765 117.337 241.032 117.482 240.34 117.62C239.647 117.759 239.002 117.946 238.405 118.181C237.808 118.416 237.335 118.766 236.986 119.229C236.799 119.454 236.575 119.612 236.313 119.706C236.051 119.799 235.794 119.775 235.543 119.637L232.935 118.189C232.683 118.049 232.511 117.834 232.418 117.543C232.326 117.254 232.362 116.99 232.525 116.752C233.069 115.889 233.694 115.214 234.403 114.727C235.11 114.239 235.849 113.858 236.618 113.583C237.387 113.308 238.161 113.104 238.942 112.969C239.721 112.836 240.452 112.696 241.134 112.551C241.813 112.407 242.413 112.219 242.935 111.985C243.455 111.751 243.85 111.396 244.119 110.918C244.604 110.054 244.636 109.138 244.217 108.172C243.797 107.207 242.981 106.389 241.769 105.715C239.824 104.636 237.852 104.81 235.851 106.237C235.597 106.423 235.372 106.545 235.176 106.6C234.979 106.657 234.733 106.601 234.436 106.436L231.657 104.893C231.451 104.778 231.312 104.611 231.239 104.392C231.166 104.172 231.195 103.949 231.322 103.721C231.791 102.937 232.494 102.26 233.43 101.689C234.364 101.117 235.414 100.715 236.579 100.482C237.746 100.248 238.981 100.212 240.287 100.369C241.595 100.527 242.854 100.943 244.066 101.616ZM234.566 121.781C234.817 121.921 234.984 122.133 235.066 122.416C235.146 122.701 235.115 122.968 234.977 123.217L233.292 126.225C233.152 126.475 232.939 126.641 232.654 126.721C232.368 126.802 232.101 126.772 231.849 126.633L228.899 124.994C228.647 124.855 228.48 124.643 228.4 124.36C228.319 124.075 228.349 123.808 228.489 123.558L230.174 120.55C230.314 120.302 230.527 120.135 230.812 120.054C231.097 119.974 231.366 120.003 231.617 120.142L234.566 121.781Z" fill="black"/>
</g>
<path d="M180.532 134.586C180.784 134.356 181.084 134.248 181.435 134.26C181.786 134.276 182.077 134.407 182.309 134.656L185.087 137.653C185.32 137.904 185.428 138.203 185.414 138.552C185.4 138.901 185.268 139.191 185.017 139.422L182.074 142.125C181.823 142.357 181.523 142.464 181.172 142.45C180.821 142.437 180.53 142.305 180.298 142.054L177.518 139.057C177.287 138.808 177.177 138.51 177.193 138.159C177.206 137.81 177.338 137.521 177.591 137.289L180.532 134.586ZM161.228 116.5C162.298 115.515 163.48 114.704 164.768 114.066C166.057 113.429 167.363 113.037 168.686 112.894C170.01 112.75 171.305 112.883 172.574 113.295C173.843 113.706 174.993 114.468 176.025 115.581C176.867 116.489 177.456 117.409 177.792 118.34C178.129 119.272 178.321 120.208 178.371 121.15C178.421 122.093 178.389 123.027 178.276 123.951C178.161 124.878 178.054 125.754 177.955 126.58C177.856 127.407 177.83 128.199 177.877 128.954C177.923 129.711 178.144 130.37 178.539 130.932C178.724 131.225 178.821 131.534 178.83 131.863C178.839 132.191 178.717 132.47 178.467 132.701L175.867 135.09C175.616 135.321 175.309 135.435 174.948 135.431C174.585 135.428 174.3 135.292 174.091 135.02C173.315 134.092 172.782 133.142 172.493 132.168C172.203 131.195 172.043 130.227 172.015 129.263C171.988 128.301 172.042 127.357 172.179 126.432C172.314 125.509 172.426 124.639 172.513 123.822C172.601 123.006 172.609 122.264 172.537 121.592C172.465 120.923 172.207 120.349 171.765 119.873C170.965 119.01 169.943 118.637 168.697 118.751C167.451 118.866 166.225 119.477 165.016 120.587C163.077 122.37 162.546 124.646 163.423 127.413C163.541 127.769 163.595 128.066 163.585 128.305C163.575 128.546 163.423 128.801 163.126 129.074L160.354 131.621C160.15 131.81 159.91 131.904 159.635 131.904C159.36 131.904 159.119 131.79 158.908 131.564C158.194 130.748 157.686 129.712 157.385 128.453C157.085 127.194 157.016 125.869 157.182 124.475C157.348 123.083 157.76 121.684 158.421 120.278C159.083 118.87 160.019 117.611 161.228 116.5Z" fill="#E86B31"/>
<g opacity="0.6">
<path d="M180.532 134.586C180.784 134.356 181.084 134.248 181.435 134.26C181.786 134.276 182.077 134.407 182.309 134.656L185.087 137.653C185.32 137.904 185.428 138.203 185.414 138.552C185.4 138.901 185.268 139.191 185.017 139.422L182.074 142.125C181.823 142.357 181.523 142.464 181.172 142.45C180.821 142.437 180.53 142.305 180.298 142.054L177.518 139.057C177.287 138.808 177.177 138.51 177.193 138.159C177.206 137.81 177.338 137.521 177.591 137.289L180.532 134.586ZM161.228 116.5C162.298 115.515 163.48 114.704 164.768 114.066C166.057 113.429 167.363 113.037 168.686 112.894C170.01 112.75 171.305 112.883 172.574 113.295C173.843 113.706 174.993 114.468 176.025 115.581C176.867 116.489 177.456 117.409 177.792 118.34C178.129 119.272 178.321 120.208 178.371 121.15C178.421 122.093 178.389 123.027 178.276 123.951C178.161 124.878 178.054 125.754 177.955 126.58C177.856 127.407 177.83 128.199 177.877 128.954C177.923 129.711 178.144 130.37 178.539 130.932C178.724 131.225 178.821 131.534 178.83 131.863C178.839 132.191 178.717 132.47 178.467 132.701L175.867 135.09C175.616 135.321 175.309 135.435 174.948 135.431C174.585 135.428 174.3 135.292 174.091 135.02C173.315 134.092 172.782 133.142 172.493 132.168C172.203 131.195 172.043 130.227 172.015 129.263C171.988 128.301 172.042 127.357 172.179 126.432C172.314 125.509 172.426 124.639 172.513 123.822C172.601 123.006 172.609 122.264 172.537 121.592C172.465 120.923 172.207 120.349 171.765 119.873C170.965 119.01 169.943 118.637 168.697 118.751C167.451 118.866 166.225 119.477 165.016 120.587C163.077 122.37 162.546 124.646 163.423 127.413C163.541 127.769 163.595 128.066 163.585 128.305C163.575 128.546 163.423 128.801 163.126 129.074L160.354 131.621C160.15 131.81 159.91 131.904 159.635 131.904C159.36 131.904 159.119 131.79 158.908 131.564C158.194 130.748 157.686 129.712 157.385 128.453C157.085 127.194 157.016 125.869 157.182 124.475C157.348 123.083 157.76 121.684 158.421 120.278C159.083 118.87 160.019 117.611 161.228 116.5Z" fill="white"/>
</g>
<path d="M364.209 197.245C361.634 195.779 350.814 189.553 347.134 187.435C346.401 187.013 345.945 186.751 345.901 186.726C344.094 185.692 342.086 185.398 339.888 185.8C338.325 186.087 336.669 186.714 334.908 187.726C334.653 187.873 334.408 188.045 334.158 188.202C330.003 190.815 326.43 194.932 323.455 200.591C320.299 206.595 318.723 212.569 318.723 218.515C318.723 224.464 320.316 228.637 323.502 231.034C323.831 231.281 324.167 231.502 324.51 231.696C327.493 233.382 342.472 242.019 342.806 242.209C342.83 242.223 342.857 242.231 342.882 242.245C342.523 242.045 342.169 241.821 341.826 241.562C338.64 239.166 337.047 234.992 337.047 229.043C337.047 223.097 338.623 217.124 341.78 211.119C344.935 205.119 348.752 200.83 353.232 198.254C357.499 195.802 361.183 195.485 364.287 197.295C364.259 197.279 364.235 197.26 364.209 197.245Z" fill="#E86B31"/>
<path opacity="0.4" d="M364.286 197.297C361.183 195.483 357.494 195.798 353.227 198.249C349.06 200.647 345.461 204.535 342.449 209.896L324.129 199.363C326.961 194.325 330.308 190.616 334.159 188.201C334.403 188.048 334.655 187.868 334.908 187.725C336.667 186.71 338.326 186.081 339.887 185.803C342.088 185.399 344.09 185.695 345.903 186.728C345.948 186.746 346.399 187.015 347.13 187.437C350.81 189.548 361.634 195.78 364.205 197.243C364.233 197.261 364.26 197.279 364.286 197.297Z" fill="black"/>
<path opacity="0.3" d="M342.883 242.243C342.856 242.234 342.829 242.225 342.802 242.207C342.468 242.018 327.495 233.38 324.51 231.691C324.167 231.503 323.833 231.278 323.499 231.036C320.315 228.638 318.719 224.462 318.719 218.518C318.719 212.564 320.297 206.592 323.454 200.594C323.671 200.171 323.896 199.758 324.131 199.363L342.45 209.897C342.225 210.292 341.999 210.705 341.783 211.118C338.626 217.126 337.047 223.097 337.047 229.042C337.047 234.996 338.635 239.163 341.828 241.56C342.172 241.821 342.523 242.045 342.883 242.243Z" fill="black"/>
<path d="M356.212 43.1456C365.109 38.0315 372.682 35.8574 378.929 36.6216C381.569 36.9449 383.982 37.7459 386.176 39.0121C386.117 38.978 386.059 38.9376 385.998 38.9043C383.853 37.6974 370.919 30.2746 367.966 28.5432C365.742 27.2393 363.289 26.423 360.605 26.0944C354.358 25.3302 346.786 27.5042 337.888 32.6183C324.068 40.5621 312.93 52.2289 304.475 67.6206C296.018 83.0123 291.853 98.7372 291.979 114.794L310.303 125.322C310.175 109.265 314.341 93.5414 322.798 78.1487C331.254 62.7561 342.393 51.0893 356.212 43.1456Z" fill="#E86B31"/>
<path opacity="0.2" d="M386 38.9086C383.854 37.7142 381.499 36.942 378.929 36.6187C372.687 35.8554 365.11 38.0285 356.216 43.1471C342.398 51.0855 331.258 62.7595 322.797 78.1512C322.445 78.7888 322.103 79.4353 321.769 80.0729L303.449 69.5394C303.783 68.9018 304.126 68.2552 304.477 67.6176C312.929 52.2259 324.069 40.5609 337.888 32.6136C346.79 27.504 354.358 25.3308 360.609 26.0941C363.288 26.4264 365.741 27.2346 367.969 28.5457C370.919 30.2788 383.854 37.6963 386 38.9086Z" fill="black"/>
<path opacity="0.3" d="M321.767 80.0726C314.001 94.8537 310.185 109.931 310.303 125.323L291.983 114.789C291.866 99.3976 295.672 84.3201 303.448 69.5391L321.767 80.0726Z" fill="black"/>
<path d="M368.657 72.9947C365.334 71.2373 360.893 71.9297 355.339 75.0646C355.152 78.3459 354.482 81.5553 353.315 84.6884C351.927 88.4196 347.887 96.1011 341.2 107.736C334.257 119.768 329.241 131.258 326.15 142.207C323.058 153.157 321.512 164.244 321.512 175.468L321.606 181.068L334.108 188.251L339.931 191.596L339.836 185.996C339.836 185.947 339.839 185.898 339.839 185.849C339.852 174.675 341.395 163.637 344.474 152.735C347.565 141.786 352.582 130.296 359.524 118.264C366.211 106.629 370.251 98.9478 371.639 95.2166C373.027 91.4881 373.722 87.6545 373.722 83.7168C373.721 78.3575 372.033 74.7826 368.657 72.9947Z" fill="#E86B31"/>
<path opacity="0.3" d="M369.845 99.2824C367.779 103.566 364.334 109.888 359.526 118.266C352.581 130.299 347.565 141.785 344.472 152.74C341.396 163.642 339.853 174.678 339.835 185.85V185.993L339.934 191.597L334.108 188.256L321.606 181.072L321.516 175.469C321.516 164.244 323.058 153.162 326.152 142.207C329.246 131.26 334.261 119.766 341.197 107.733C346.014 99.3632 349.46 93.0413 351.534 88.7578L369.845 99.2824Z" fill="black"/>
<path opacity="0.4" d="M373.72 83.7191C373.72 87.6523 373.026 91.4868 371.637 95.2135C371.249 96.2642 370.645 97.6201 369.842 99.2814L351.531 88.7569C352.334 87.0956 352.929 85.7396 353.317 84.6889C354.481 81.5549 355.148 78.3491 355.338 75.0624C360.894 71.9284 365.332 71.2369 368.66 72.997C372.033 74.784 373.72 78.358 373.72 83.7191Z" fill="black"/>
<path d="M335.104 111.066L310.304 125.321C310.176 109.264 314.342 93.5397 322.799 78.147C331.254 62.7562 342.393 51.0885 356.212 43.1457C365.11 38.0316 372.682 35.8575 378.93 36.6217C385.177 37.3868 390.178 40.7956 393.933 46.8454C397.687 52.898 399.565 60.4448 399.565 69.4912C399.565 74.4347 398.965 79.6368 397.766 85.1002C396.567 90.5646 394.674 96.5533 392.086 103.066C390.572 106.869 386.943 113.896 381.201 124.149C375.711 133.923 372.27 140.571 370.883 144.089C369.495 147.61 368.327 151.903 367.38 156.97C366.434 162.037 365.833 168.665 365.582 176.851L339.93 191.595L339.835 185.995C339.835 174.771 341.381 163.684 344.473 152.734C347.564 141.785 352.581 130.295 359.523 118.262C366.21 106.628 370.251 98.9465 371.639 95.2153C373.026 91.4868 373.721 87.6533 373.721 83.7155C373.721 78.3554 372.033 74.7813 368.658 72.9934C365.281 71.2082 360.754 71.9445 355.074 75.2097C349.268 78.5475 344.504 83.5566 340.782 90.2377C337.06 96.9224 335.166 103.865 335.104 111.066Z" fill="url(#paint8_linear_1391_349815)"/>
<path d="M353.183 198.304C357.789 195.657 361.717 195.493 364.968 197.812C368.217 200.134 369.842 204.267 369.842 210.213C369.842 216.162 368.233 222.176 365.015 228.254C361.797 234.333 357.915 238.68 353.372 241.291C348.828 243.903 344.963 244.008 341.776 241.612C338.589 239.215 336.996 235.041 336.996 229.093C336.996 223.146 338.573 217.174 341.729 211.169C344.886 205.168 348.702 200.879 353.183 198.304Z" fill="url(#paint9_linear_1391_349815)"/>
<path d="M627.253 332.635C635.806 306.901 640.253 280.386 640.989 254.361C641.725 228.328 638.75 202.786 632.464 178.831C637.254 177.721 642.043 176.613 646.833 175.504C651.622 174.394 656.412 173.286 661.201 172.176C663.319 201.158 661.262 229.832 655.461 256.956C649.659 284.088 640.113 309.67 627.253 332.635Z" fill="url(#paint10_linear_1391_349815)"/>
<path d="M630.291 115.615C638.75 123.832 646.816 133.084 654.341 143.325C661.866 153.565 668.854 164.794 675.157 176.94C666.047 178.722 656.938 180.505 647.828 182.288C638.718 184.071 629.608 185.853 620.498 187.636C623.733 176.909 626.264 165.464 627.946 153.417C629.627 141.371 630.458 128.723 630.291 115.615Z" fill="url(#paint11_linear_1391_349815)"/>
<defs>
<linearGradient id="paint0_linear_1391_349815" x1="47.5012" y1="355.626" x2="140.416" y2="235.808" gradientUnits="userSpaceOnUse">
<stop offset="0.634" stop-color="#FB8D48"/>
<stop offset="0.9995" stop-color="#C54E47"/>
<stop offset="0.9996" stop-color="#ED7136"/>
<stop offset="0.9997" stop-color="#D45B41"/>
<stop offset="0.9998" stop-color="#C14F49"/>
<stop offset="0.9999" stop-color="#9D3863"/>
<stop offset="1" stop-color="#5E1F72"/>
</linearGradient>
<linearGradient id="paint1_linear_1391_349815" x1="47.7085" y1="198.179" x2="64.3514" y2="114.659" gradientUnits="userSpaceOnUse">
<stop stop-color="#FB8D48"/>
<stop offset="0.2" stop-color="#ED7136"/>
<stop offset="0.3999" stop-color="#C54E47"/>
<stop offset="0.4" stop-color="#C14F49"/>
<stop offset="0.6" stop-color="#9D3863"/>
<stop offset="0.8" stop-color="#5E1F72"/>
</linearGradient>
<linearGradient id="paint2_linear_1391_349815" x1="441.5" y1="157.488" x2="440.991" y2="210.603" gradientUnits="userSpaceOnUse">
<stop stop-color="#FB8D48"/>
<stop offset="0.2" stop-color="#ED7136"/>
<stop offset="0.3999" stop-color="#C54E47"/>
<stop offset="0.4" stop-color="#C14F49"/>
<stop offset="0.6" stop-color="#9D3863"/>
<stop offset="0.8" stop-color="#5E1F72"/>
</linearGradient>
<linearGradient id="paint3_linear_1391_349815" x1="461.5" y1="153.488" x2="467.901" y2="211.283" gradientUnits="userSpaceOnUse">
<stop stop-color="#FB8D48"/>
<stop offset="0.2" stop-color="#ED7136"/>
<stop offset="0.3999" stop-color="#C54E47"/>
<stop offset="0.4" stop-color="#C14F49"/>
<stop offset="0.6" stop-color="#9D3863"/>
<stop offset="0.8" stop-color="#5E1F72"/>
</linearGradient>
<linearGradient id="paint4_linear_1391_349815" x1="483" y1="152.488" x2="485.749" y2="208.386" gradientUnits="userSpaceOnUse">
<stop stop-color="#FB8D48"/>
<stop offset="0.2" stop-color="#ED7136"/>
<stop offset="0.3999" stop-color="#C54E47"/>
<stop offset="0.4" stop-color="#C14F49"/>
<stop offset="0.6" stop-color="#9D3863"/>
<stop offset="0.8" stop-color="#5E1F72"/>
</linearGradient>
<linearGradient id="paint5_linear_1391_349815" x1="236" y1="165.988" x2="237.615" y2="207.131" gradientUnits="userSpaceOnUse">
<stop stop-color="#FB8D48"/>
<stop offset="0.2" stop-color="#ED7136"/>
<stop offset="0.3999" stop-color="#C54E47"/>
<stop offset="0.4" stop-color="#C14F49"/>
<stop offset="0.6" stop-color="#9D3863"/>
<stop offset="0.8" stop-color="#5E1F72"/>
</linearGradient>
<linearGradient id="paint6_linear_1391_349815" x1="228" y1="159.988" x2="231.973" y2="219.488" gradientUnits="userSpaceOnUse">
<stop stop-color="#FB8D48"/>
<stop offset="0.2" stop-color="#ED7136"/>
<stop offset="0.3999" stop-color="#C54E47"/>
<stop offset="0.4" stop-color="#C14F49"/>
<stop offset="0.6" stop-color="#9D3863"/>
<stop offset="0.8" stop-color="#5E1F72"/>
</linearGradient>
<linearGradient id="paint7_linear_1391_349815" x1="204.5" y1="166.488" x2="206.541" y2="212.915" gradientUnits="userSpaceOnUse">
<stop stop-color="#FB8D48"/>
<stop offset="0.2" stop-color="#ED7136"/>
<stop offset="0.3999" stop-color="#C54E47"/>
<stop offset="0.4" stop-color="#C14F49"/>
<stop offset="0.6" stop-color="#9D3863"/>
<stop offset="0.8" stop-color="#5E1F72"/>
</linearGradient>
<linearGradient id="paint8_linear_1391_349815" x1="311.853" y1="103.261" x2="399.89" y2="104.244" gradientUnits="userSpaceOnUse">
<stop stop-color="#FB8D48"/>
<stop offset="0.2" stop-color="#ED7136"/>
<stop offset="0.3999" stop-color="#C54E47"/>
<stop offset="0.4" stop-color="#C14F49"/>
<stop offset="0.6" stop-color="#9D3863"/>
<stop offset="0.8" stop-color="#5E1F72"/>
</linearGradient>
<linearGradient id="paint9_linear_1391_349815" x1="337.567" y1="216.486" x2="369.96" y2="216.924" gradientUnits="userSpaceOnUse">
<stop stop-color="#FB8D48"/>
<stop offset="0.2" stop-color="#ED7136"/>
<stop offset="0.3999" stop-color="#C54E47"/>
<stop offset="0.4" stop-color="#C14F49"/>
<stop offset="0.6" stop-color="#9D3863"/>
<stop offset="0.8" stop-color="#5E1F72"/>
</linearGradient>
<linearGradient id="paint10_linear_1391_349815" x1="640.718" y1="376.763" x2="527.246" y2="266.029" gradientUnits="userSpaceOnUse">
<stop stop-color="#FB8D48"/>
<stop offset="0.2" stop-color="#ED7136"/>
<stop offset="0.3999" stop-color="#C54E47"/>
<stop offset="0.4" stop-color="#C14F49"/>
<stop offset="0.6" stop-color="#9D3863"/>
<stop offset="0.8" stop-color="#5E1F72"/>
</linearGradient>
<linearGradient id="paint11_linear_1391_349815" x1="643.579" y1="207.761" x2="618.117" y2="111.673" gradientUnits="userSpaceOnUse">
<stop stop-color="#FB8D48"/>
<stop offset="0.2" stop-color="#ED7136"/>
<stop offset="0.3999" stop-color="#C54E47"/>
<stop offset="0.4" stop-color="#C14F49"/>
<stop offset="0.6" stop-color="#9D3863"/>
<stop offset="0.8" stop-color="#5E1F72"/>
</linearGradient>
</defs>
</svg>
