<svg width="44" height="44" viewBox="0 0 44 44" fill="none" xmlns="http://www.w3.org/2000/svg">
<path d="M3.6875 43.5629H8.32348C8.41251 43.5661 8.50128 43.5515 8.58456 43.5199C8.66785 43.4883 8.74397 43.4403 8.80846 43.3788C8.87295 43.3174 8.92449 43.2437 8.96007 43.162C8.99565 43.0803 9.01454 42.9923 9.01562 42.9033V41.1567H35.8281V42.9033C35.8292 42.9923 35.8481 43.0803 35.8837 43.162C35.9193 43.2437 35.9708 43.3174 36.0353 43.3788C36.0998 43.4403 36.1759 43.4883 36.2592 43.5199C36.3425 43.5515 36.4312 43.5661 36.5203 43.5629H41.1562C41.245 43.566 41.3335 43.5513 41.4165 43.5196C41.4995 43.4879 41.5753 43.4399 41.6394 43.3784C41.7035 43.3169 41.7546 43.2431 41.7897 43.1615C41.8248 43.0799 41.8432 42.9921 41.8438 42.9033V37.9796C41.8439 37.797 41.7716 37.6218 41.6427 37.4924C41.5138 37.363 41.3389 37.2901 41.1562 37.2895H39.5234V9.27387H41.1562C41.3389 9.2733 41.5138 9.20033 41.6427 9.07096C41.7716 8.9416 41.8439 8.7664 41.8438 8.58379V3.66009C41.8432 3.57125 41.8248 3.48344 41.7897 3.40183C41.7546 3.32023 41.7035 3.24649 41.6394 3.18498C41.5753 3.12348 41.4995 3.07546 41.4165 3.04376C41.3335 3.01206 41.245 2.99732 41.1562 3.00043H36.5203C36.4312 2.99724 36.3425 3.01188 36.2592 3.04349C36.1759 3.0751 36.0998 3.12305 36.0353 3.18451C35.9708 3.24597 35.9193 3.3197 35.8837 3.40138C35.8481 3.48305 35.8292 3.57101 35.8281 3.66009V5.40668H9.01562V3.66009C9.01454 3.57101 8.99565 3.48305 8.96007 3.40138C8.92449 3.3197 8.87295 3.24597 8.80846 3.18451C8.74397 3.12305 8.66785 3.0751 8.58456 3.04349C8.50128 3.01188 8.41251 2.99724 8.32348 3.00043H3.6875C3.59872 2.99732 3.51022 3.01206 3.42723 3.04376C3.34425 3.07546 3.26846 3.12348 3.20436 3.18498C3.14026 3.24649 3.08915 3.32023 3.05405 3.40183C3.01894 3.48344 3.00057 3.57125 3 3.66009V8.58379C2.99989 8.7664 3.0722 8.9416 3.20108 9.07096C3.32996 9.20033 3.50489 9.2733 3.6875 9.27387H5.32031V37.2895H3.6875C3.50489 37.2901 3.32996 37.363 3.20108 37.4924C3.0722 37.6218 2.99989 37.797 3 37.9796V42.9033C3.00057 42.9921 3.01894 43.0799 3.05405 43.1615C3.08915 43.2431 3.14026 43.3169 3.20436 43.3784C3.26846 43.4399 3.34425 43.4879 3.42723 43.5196C3.51022 43.5513 3.59872 43.566 3.6875 43.5629ZM40.4688 42.1879H37.2031V38.6645H40.4688V42.1879ZM37.2031 4.37543H40.4688V7.89887H37.2031V4.37543ZM4.375 4.37543H7.64062V7.89887H4.375V4.37543ZM6.69531 9.27387H8.32348C8.50657 9.27346 8.68207 9.20069 8.81173 9.07142C8.94138 8.94215 9.01467 8.76687 9.01562 8.58379V6.78168H35.8281V8.58379C35.8291 8.76687 35.9024 8.94215 36.032 9.07142C36.1617 9.20069 36.3372 9.27346 36.5203 9.27387H38.1484V37.2895H36.5203C36.3372 37.2899 36.1617 37.3627 36.032 37.4919C35.9024 37.6212 35.8291 37.7965 35.8281 37.9796V39.7817H9.01562V37.9796C9.01467 37.7965 8.94138 37.6212 8.81173 37.4919C8.68207 37.3627 8.50657 37.2899 8.32348 37.2895H6.69531V9.27387ZM4.375 38.6645H7.64062V42.1879H4.375V38.6645Z" fill="#E86B31"/>
<path d="M16.2585 32.0659H15.4927C15.3103 32.0659 15.1355 32.1383 15.0065 32.2673C14.8776 32.3962 14.8052 32.5711 14.8052 32.7534C14.8052 32.9358 14.8776 33.1106 15.0065 33.2396C15.1355 33.3685 15.3103 33.4409 15.4927 33.4409H16.639L17.8267 37.7416C17.8664 37.8874 17.9526 38.0162 18.0722 38.1086C18.1918 38.201 18.3382 38.2518 18.4893 38.2534H27.1808C27.3341 38.2518 27.4826 38.1995 27.603 38.1047C27.7235 38.0098 27.8091 37.8778 27.8467 37.7292L28.947 33.4409H29.9061C30.0884 33.4409 30.2633 33.3685 30.3922 33.2396C30.5212 33.1106 30.5936 32.9358 30.5936 32.7534C30.5936 32.5711 30.5212 32.3962 30.3922 32.2673C30.2633 32.1383 30.0884 32.0659 29.9061 32.0659H29.3L31.3775 23.9888C31.4201 23.8245 31.3993 23.6501 31.3193 23.5004L23.307 8.36513C23.2484 8.25473 23.1608 8.16241 23.0537 8.09807C22.9465 8.03374 22.8239 7.99983 22.6989 8C22.5739 8.00017 22.4513 8.0344 22.3443 8.09903C22.2374 8.16365 22.15 8.25621 22.0917 8.36676L14.0798 23.5046C13.9978 23.6566 13.9781 23.8346 14.0248 24.0009L16.2585 32.0659ZM26.6477 36.8784H19.0127L18.0657 33.4409H27.5274L26.6477 36.8784ZM22.6994 20.7293C22.9394 20.7293 23.1741 20.8005 23.3737 20.9339C23.5733 21.0672 23.7289 21.2568 23.8208 21.4786C23.9126 21.7004 23.9367 21.9444 23.8898 22.1799C23.843 22.4153 23.7274 22.6316 23.5577 22.8014C23.3879 22.9711 23.1716 23.0867 22.9362 23.1335C22.7007 23.1804 22.4567 23.1563 22.2349 23.0645C22.0131 22.9726 21.8235 22.817 21.6902 22.6174C21.5568 22.4178 21.4856 22.1831 21.4856 21.9431C21.486 21.6213 21.614 21.3128 21.8415 21.0852C22.0691 20.8577 22.3776 20.7297 22.6994 20.7293ZM22.0119 11.4574V19.4477C21.4079 19.6141 20.8847 19.9939 20.5394 20.5166C20.194 21.0393 20.05 21.6696 20.1339 22.2904C20.2179 22.9113 20.5241 23.4806 20.9959 23.8929C21.4676 24.3051 22.0729 24.5323 22.6994 24.5323C23.3259 24.5323 23.9311 24.3051 24.4029 23.8929C24.8746 23.4806 25.1809 22.9113 25.2648 22.2904C25.3488 21.6696 25.2047 21.0393 24.8594 20.5166C24.5141 19.9939 23.9909 19.6141 23.3869 19.4477V11.4574L29.9796 23.9043L27.8803 32.0659H17.6852L15.4226 23.8978L22.0119 11.4574Z" fill="#E86B31"/>
</svg>
