<svg xmlns="http://www.w3.org/2000/svg" width="398" height="260" fill="none" viewBox="0 0 398 260">
  <path fill="#D8DCE5" d="M24.61 236.148s-25.689-31.381-16.823-73.213c9.478-44.718 70.887-50.832 101.222-93.97 30.334-43.141 81.095-59.752 133.871-51.9 64.855 9.649 72.451 89.304 95.828 110.194 23.378 20.889 63.128 74.566 16.888 108.89l-330.986-.001Z"/>
  <path fill="#A6AAAD" d="M354.133 236.632H25.701c-.442 0-.856-.192-1.114-.519l-.357-.449h332.01l-.723.527a2.356 2.356 0 0 1-1.383.441Z"/>
  <path fill="#F0F0F0" d="M174.222 23.4H5.331C2.387 23.4 0 25.57 0 28.243v225.891c0 2.673 2.387 4.842 5.33 4.842h168.891c2.943 0 5.33-2.169 5.33-4.842V28.243c.001-2.675-2.386-4.843-5.329-4.843Z"/>
  <path fill="#fff" d="M108.699 63.576H9.289v131.289h99.41V63.576Z"/>
  <path fill="url(#a)" d="M174.222 23.4H5.331C2.387 23.4 0 25.57 0 28.243v27.862h179.551V28.243c.001-2.675-2.386-4.843-5.329-4.843Z"/>
  <path fill="#EEA07B" d="M24.725 95.041V81.898h-4.72v-3.65h14.343v3.65h-4.72v13.143h-4.903Z"/>
  <path fill="#455A64" d="M98.216 76.51H39.531v2.713h58.685V76.51Zm-19.152 5.57H39.531v2.714h39.533V82.08Zm19.152 5.844H39.531v2.713h58.685v-2.713Zm.001 5.863H19.766v2.714h78.45v-2.714ZM86.689 99.56H19.766v2.714h66.923v-2.713Zm6.305 5.774H19.766v2.714h73.228v-2.714Zm5.223 41.387H19.766v2.713h78.45v-2.713Zm-11.528 5.773H19.766v2.714h66.923v-2.714Zm6.305 5.774H19.766v2.713h73.228v-2.713Zm-6.305 11.3H19.766v2.714h66.923v-2.714Zm6.305 5.774H19.766v2.713h73.228v-2.713Z"/>
  <path fill="#FB8D48" d="M98.22 112.061H19.867v30.148H98.22v-30.148Zm74.215-48.485h-57.33V76.51h57.33V63.576Zm0 96.356h-57.33v12.934h57.33v-12.934Z"/>
  <path fill="url(#b)" d="M172.436 200.273H9.289v12.935h163.147v-12.935Z"/>
  <path fill="#AFAFAF" d="M172.435 79.297h-57.33v76.88h57.33v-76.88Zm-9.491 169.169H18.781c-5.242 0-9.492-3.86-9.492-8.622v-26.637h163.147v26.638c0 4.761-4.25 8.621-9.492 8.621Z"/>
  <path fill="#fff" d="M14.585 47.309v-9.213h5.064c.935 0 1.646.219 2.132.658.486.438.73 1.068.73 1.888 0 .477-.09.877-.272 1.202-.172.324-.4.581-.687.772.391.153.701.377.93.673.239.286.358.715.358 1.287 0 .868-.267 1.54-.801 2.017-.535.477-1.293.716-2.275.716h-5.179Zm2.59-5.537h1.745c.658 0 .987-.295.987-.887 0-.295-.081-.52-.243-.672-.153-.153-.425-.23-.816-.23h-1.673v1.79Zm0 3.663h1.86c.362 0 .629-.077.8-.23.172-.152.258-.405.258-.758 0-.295-.086-.52-.258-.672-.171-.153-.457-.229-.858-.229h-1.802v1.889Zm6.673 1.874v-9.213h2.69v7.153h4.148v2.06h-6.838Zm11.839.143c-1.526 0-2.694-.372-3.505-1.116-.801-.744-1.202-1.946-1.202-3.605 0-1.145.181-2.065.544-2.761.362-.706.891-1.216 1.588-1.531.705-.324 1.564-.486 2.575-.486 1.01 0 1.864.162 2.56.486.706.315 1.24.825 1.603 1.53.362.697.543 1.617.543 2.762 0 1.66-.405 2.86-1.216 3.605-.81.744-1.974 1.116-3.49 1.116Zm0-2.29c.686 0 1.182-.19 1.488-.572.314-.39.472-1.01.472-1.86 0-.905-.158-1.544-.472-1.916-.306-.382-.802-.573-1.488-.573-.687 0-1.188.191-1.502.573-.306.372-.458 1.01-.458 1.917 0 .849.152 1.468.458 1.86.314.38.815.572 1.502.572Zm10.458 2.29c-1.64 0-2.89-.4-3.749-1.202-.858-.81-1.287-1.965-1.287-3.462 0-1.545.443-2.737 1.33-3.577.887-.839 2.184-1.258 3.892-1.258.572 0 1.087.033 1.545.1.467.066.906.166 1.316.3v2.303a5.549 5.549 0 0 0-1.302-.329 10.823 10.823 0 0 0-1.373-.086c-.888 0-1.555.2-2.003.601-.44.4-.658 1.05-.658 1.946 0 .84.19 1.445.572 1.817.39.372.963.558 1.717.558.247 0 .481-.015.7-.043.22-.038.425-.086.616-.143v-1.345H45.63v-1.66h4.077v4.636c-.353.219-.825.415-1.417.586-.581.172-1.297.258-2.145.258Z"/>
  <path fill="#DD8762" d="M381.827 110.76v-2.61c1.291-.251 3.717-.848 3.406-1.752-.423-1.224-3.377-.9-3.377-.9s3.871-.398 3.323-1.857c-.386-1.027-2.267-1.232-3.352-1.264v-.332c2.627-.415 3.427-1.867 2.969-2.905-.457-1.037-2.969-.83-2.969-.83s-3.198 11.827-3.198 12.139c0 .312 1.827 4.254 3.198 4.046 1.37-.207 4.226-1.867 3.091-3.32-1.135-1.453-3.091-.415-3.091-.415Z"/>
  <path fill="#455A64" d="M365.074 123.979c-.007.335.289.61.658.61h14.908c.828 0 1.505-.6 1.524-1.353l.337-33.63c.007-.665-.356-1.287-.966-1.656a.706.706 0 0 0-.432-.097l-14.685 1.383c-.331.03-.583.28-.59.583l-.754 34.16Z"/>
  <path fill="#D9D9D9" d="M379.042 91.032v30.374c0 .341-.305.618-.68.618l-10.494-.123c-.376 0-.68-.277-.68-.618l.34-29.513c0-.316.261-.58.606-.614l10.154-.738c.402-.04.754.246.754.614Z"/>
  <path fill="#263238" d="M381.539 87.95a.71.71 0 0 0-.433-.097l-.14.014-.423 36.723h.1c.829 0 1.506-.6 1.525-1.353l.337-33.63c.006-.666-.358-1.288-.966-1.657Zm-13.191 2.169c0 .263-.188.477-.42.477-.233 0-.42-.214-.42-.477s.187-.476.42-.476c.231 0 .42.214.42.476Zm1.837.156c-.205 0-.38-.143-.398-.333-.019-.2.146-.375.365-.391l5.875-.443c.237-.014.413.133.431.333.019.2-.146.374-.365.39l-5.875.443-.033.001Z"/>
  <path fill="#E4897B" d="M368.335 124.585c1.79-3.157 1.214-6.308 1.275-7.896.064-1.657 3.37-5.263 3.799-8.675.43-3.412-1.824-4.874-3.112-2.632-1.288 2.242-4.722 5.946-4.722 5.946v-10.139s-1.037 1.061-1.895 1.646c-.858.585-4.782 3.936-4.671 8.882.11 4.947-1.052 14.718-2.018 17.35-.966 2.633-2.682 4.484-2.682 4.484l9.577 4.289s4.159-1.754 5.724-3.021c1.566-1.267 2.297-6.433 2.297-6.433l1.557-3.801h-5.129Z"/>
  <path fill="#DD8762" d="M373.46 124.586h-5.128l4.308 2.003.82-2.003Zm-10.36-7.651c-.163-1.052.068-2.103.471-3.08.418-.97 1.063-1.898 2.004-2.527-.436.978-.876 1.858-1.26 2.789-.403.921-.755 1.853-1.215 2.818Z"/>
  <path fill="#DD8762" d="M369.644 118.369c.58 1.753.307 3.673-.349 5.396-.368.854-.792 1.694-1.382 2.438-.551.764-1.248 1.43-1.991 2.028.507-.783 1.014-1.537 1.456-2.32.46-.773.828-1.579 1.165-2.392.333-.816.576-1.658.77-2.514.177-.859.321-1.732.331-2.636Z"/>
  <path fill="url(#c)" d="m367.928 138.421-11.97-5.897c-.799-.394-1.796-.171-2.304.514l-17.02 22.954c-1.459 2.064-2.13 2.33-4.388.985l-17.517-8.099c-10.667-4.491-17.795-8.902-28.189-8.899l-12.498.004s-.559-.017-1.562-.001c-20.44.345-38.335 12.572-44.616 30.246l-22.048 62.047h19.019l23.177-60.145-.627 60.145h55.086v-65.011l14.262 5.696c8.98 4.255 23.198 9.365 30.943-2.965.336-.536.669-1.072 1.039-1.589l19.847-27.702c.565-.784.272-1.836-.634-2.283Z"/>
  <path fill="#CD6F60" d="M257.613 122.373v20.888h.033c.351 7.966 7.552 14.332 16.408 14.332 8.856 0 16.057-6.366 16.408-14.332h.033v-20.888h-32.882Z"/>
  <path fill="#472E03" d="M235.341 99.38s-6.864-6.713-6.864-24.594c0-17.88 16.935-30.018 32.492-31.172 15.558-1.153 18.098-6.633 21.59-4.037 3.493 2.596-6.785 8.363-6.785 8.363s29.327-10.093 32.82-6.633c3.493 3.46-11.43 8.363-11.43 8.363s17.871 4.14 21.046 12.793c3.174 8.652-5.171 8.94-5.171 8.94s5.891 13.82-1.497 32.59c-8.043 20.432-58.839 22.692-59.792 22.115-.952-.575-16.409-26.728-16.409-26.728Z"/>
  <path fill="#E4897B" d="M307.807 95.15c-.028 0-.055.002-.082.004-.057.93-.102 1.506-.102 1.506l-1.33 9.71c-.192 1.405-2.265 1.768-2.996.519-1.803-3.074-3.497-8.636-.973-17.328-1.431-2.101-2.489-4.41-3.093-6.85l-.365-1.474c-7.2 1.694-7.54.028-12.332-1.946-.036-.014-.08.023-.05.047 1.79 1.46 6.633 5.866 3.172 8.303-3.818 2.688-16.195-6.425-18.612-7.953-.097-.06-.221.026-.181.126.564 1.377 2.31 6.153-.226 6.964-3.891 1.246-11.005-8.523-13.027-11.444-.108-.155-.369-.062-.333.118.391 1.928.943 6.272-1.732 7.335-2.504.996-5.234-3.762-6.556-6.478-.213-.44-.912-.33-.975.147-.539 4.125-2.177 8.086-3.881 11.284 3.332 9.745 1.529 15.865-.397 19.148-.732 1.25-2.803.886-2.995-.519l-1.331-9.71s-.045-.575-.101-1.502c-6.789.083-12.266 5.101-12.266 11.287 0 6.238 5.567 11.296 12.435 11.296.154 0 .302-.016.453-.021 2.801 14.597 16.806 26.666 33.676 26.666 16.873 0 30.881-12.071 33.68-26.669.174.007.345.025.521.025 6.868 0 12.435-5.058 12.435-11.296-.001-6.238-5.568-11.295-12.436-11.295Z"/>
  <path fill="#DD8762" d="M236.516 99.723c-1.636.606-3.072 1.573-4.057 2.798-1.01 1.22-1.42 2.742-1.422 4.256-.032 1.528.401 3.043 1.349 4.284.964 1.23 2.447 2.157 4.13 2.644-1.762-.14-3.544-.896-4.744-2.209-1.212-1.308-1.755-3.055-1.732-4.72.013-1.667.549-3.429 1.812-4.694 1.208-1.287 2.918-2.09 4.664-2.36Zm73.738 13.984c1.636-.607 3.072-1.574 4.058-2.799 1.009-1.219 1.42-2.742 1.422-4.255.032-1.528-.402-3.044-1.35-4.285-.964-1.229-2.447-2.156-4.13-2.643 1.762.14 3.545.895 4.745 2.209 1.212 1.307 1.754 3.054 1.733 4.72-.013 1.666-.549 3.428-1.813 4.694-1.209 1.288-2.919 2.09-4.665 2.359Z"/>
  <path fill="#945F09" d="M272.659 80.764c1.713 1.043 3.416 2.086 5.188 3.02 1.752.958 3.544 1.852 5.38 2.595.92.364 1.858.678 2.794.898.93.215 1.895.296 2.65.095.356-.125.671-.273.887-.536.221-.278.387-.568.404-.909.079-.682-.236-1.506-.678-2.263-.879-1.546-2.188-2.972-3.539-4.327-1.344-1.374-2.82-2.654-4.295-3.937-2.988-2.532-6.08-4.99-9.231-7.404 3.518 1.957 6.891 4.134 10.061 6.556a55.543 55.543 0 0 1 4.574 3.848c1.432 1.382 2.812 2.837 3.853 4.602.482.888.936 1.895.806 3.087-.052.596-.363 1.18-.763 1.635-.418.485-1.045.8-1.657.964-1.248.276-2.395.079-3.437-.187-1.048-.275-2.023-.666-2.959-1.103-3.736-1.758-7.006-4.097-10.038-6.634Z"/>
  <path fill="#945F09" d="M286.215 78.79c1.331.738 2.681 1.324 4.072 1.734 1.392.394 2.809.66 4.239.634.357.04.713-.025 1.07-.031a6.373 6.373 0 0 0 1.067-.11c.355-.054.715-.093 1.071-.156.348-.096.701-.179 1.059-.257a6.772 6.772 0 0 0 1.056-.302l1.062-.335c.703-.25 1.383-.557 2.136-.791-.548.498-1.134.978-1.76 1.417-.674.361-1.311.823-2.064 1.075-1.442.654-3.087.908-4.715.941a11.365 11.365 0 0 1-4.701-1.042c-1.432-.655-2.71-1.594-3.592-2.778Zm-20.863-6.53c1.177.837 2.188 1.824 3.106 2.877a21.002 21.002 0 0 1 2.425 3.392c.661 1.218 1.235 2.505 1.458 3.898.12.69.141 1.41 0 2.113-.151.697-.475 1.387-1.033 1.851.51-1.285.223-2.524-.183-3.713-.431-1.188-1.016-2.348-1.666-3.488-1.28-2.3-2.779-4.518-4.107-6.93Zm20.437-23.84c1.274-.157 2.563-.143 3.85-.134 1.283.063 2.568.165 3.845.328a42.01 42.01 0 0 1 7.512 1.665c2.426.8 4.813 1.727 7.017 2.949 1.126.568 2.178 1.25 3.24 1.906 1.038.688 2.015 1.452 2.987 2.205-2.189-1.216-4.333-2.455-6.62-3.455-2.255-1.048-4.595-1.928-6.975-2.69-2.375-.787-4.829-1.357-7.302-1.848-2.479-.471-4.997-.802-7.554-.926Zm27.25 22.984c-1.813.688-3.813.879-5.77.901-1.969.018-3.924-.23-5.842-.595a34.042 34.042 0 0 1-5.567-1.654c-.9-.34-1.76-.766-2.625-1.163a37.66 37.66 0 0 1-2.469-1.415c.952.217 1.862.498 2.777.76l2.742.752c.924.21 1.815.508 2.741.689.909.234 1.826.436 2.749.613a60.59 60.59 0 0 0 5.561.885c1.876.185 3.764.322 5.703.227Zm-60.313 10.494c-1.169-.813-2.091-1.898-2.872-3.028-.79-1.135-1.402-2.358-1.934-3.602-.526-1.248-.915-2.536-1.223-3.836-.148-.651-.251-1.31-.362-1.965-.054-.666-.143-1.323-.163-1.989.467 1.262.899 2.515 1.33 3.76.464 1.238.886 2.481 1.415 3.687a41.07 41.07 0 0 0 1.663 3.58c.639 1.158 1.281 2.325 2.146 3.393Z"/>
  <path fill="#455A64" d="M333.79 260H210.622c-3.948 0-7.263-2.7-7.692-6.265l-6.836-56.75c-.501-4.159 3.085-7.794 7.692-7.794h136.839c4.606 0 8.193 3.634 7.692 7.794l-6.836 56.75c-.428 3.565-3.743 6.265-7.691 6.265Z"/>
  <path fill="#263238" d="M348.04 194.23c-.94-2.886-3.871-5.039-7.415-5.039H203.786c-3.544 0-6.476 2.154-7.415 5.039H348.04Z"/>
  <path fill="#E0E0E0" d="M278.922 227.806c0 3.371-3.009 6.103-6.719 6.103-3.71 0-6.719-2.733-6.719-6.103 0-3.37 3.009-6.103 6.719-6.103 3.71 0 6.719 2.733 6.719 6.103Z"/>
  <path fill="#FB8D48" d="M262.324 0h-68.871v35.496h68.871V0Z"/>
  <path fill="#fff" d="M231.983 25.842c5.226-2.057 7.626-7.574 5.361-12.321-2.265-4.747-8.339-6.928-13.565-4.87-5.226 2.058-7.626 7.574-5.361 12.322 2.266 4.747 8.339 6.927 13.565 4.87Z"/>
  <path fill="#EEA07B" d="M226.035 15.24v4.371c0 .764.965 1.196 1.632.731l3.197-2.227c.535-.373.528-1.109-.015-1.473l-3.197-2.144c-.669-.448-1.617-.015-1.617.742Z"/>
  <path fill="url(#d)" d="M255.546 31.217h-57.34c-.437 0-.792-.321-.792-.72 0-.396.355-.718.792-.718h57.34c.437 0 .791.322.791.719 0 .397-.354.72-.791.72Z"/>
  <path fill="#F0F0F0" d="M255.543 29.78h-39.965v1.437h39.965c.437 0 .791-.321.791-.718 0-.398-.354-.72-.791-.72Z"/>
  <path fill="url(#e)" d="M215.496 29.78h-17.29c-.437 0-.792.32-.792.718 0 .397.355.718.792.718h17.29V29.78Z"/>
  <path fill="url(#f)" d="M217.577 30.499c0 .99-.883 1.791-1.972 1.791s-1.972-.803-1.972-1.791c0-.99.883-1.792 1.972-1.792s1.972.802 1.972 1.792Z"/>
  <path fill="#8CB0FF" d="M216.543 30.498c0 .471-.422.853-.94.853-.519 0-.939-.383-.939-.853 0-.472.421-.854.939-.854s.94.383.94.854Z"/>
  <path fill="#FB8D48" d="M313.531 218.322v20.368c0 1.76 1.572 3.188 3.51 3.188h40.783c.77 0 1.519.23 2.131.655l8.957 6.221c2.31 1.603 5.641.107 5.641-2.533v-27.898c0-1.761-1.571-3.188-3.509-3.188h-54.003c-1.938 0-3.51 1.426-3.51 3.187Z"/>
  <path fill="#F0F0F0" d="M334.692 231.031c1.291 0 2.337-.951 2.337-2.123 0-1.172-1.046-2.123-2.337-2.123-1.29 0-2.337.951-2.337 2.123 0 1.172 1.047 2.123 2.337 2.123Zm12.486-2.123c0 1.173-1.046 2.123-2.337 2.123-1.291 0-2.337-.95-2.337-2.123 0-1.173 1.047-2.123 2.337-2.123 1.291 0 2.337.95 2.337 2.123Zm10.16 0c0 1.173-1.047 2.123-2.337 2.123-1.291 0-2.337-.95-2.337-2.123 0-1.173 1.046-2.123 2.337-2.123 1.29 0 2.337.95 2.337 2.123Z"/>
  <path fill="#FB8D48" d="M398.003 57.72v21.144c0 1.547-1.38 2.8-3.082 2.8h-46.243c-.677 0-1.334.202-1.872.575l-9.758 6.777c-2.028 1.408-4.954.095-4.954-2.224V57.72c0-1.547 1.379-2.8 3.082-2.8h59.745c1.701 0 3.082 1.255 3.082 2.8Z"/>
  <path fill="#fff" d="M350.095 68.192c0 3.037-2.71 5.499-6.053 5.499-3.344 0-6.054-2.462-6.054-5.499 0-3.037 2.71-5.499 6.054-5.499 3.343 0 6.053 2.462 6.053 5.5Zm4.385-1.757.998-2.673h1.612l-.793 2.673h-1.817Zm2.265 0 .999-2.673h1.612l-.793 2.673h-1.818Zm27.954 6.725.999-2.674h1.612l-.793 2.673h-1.818Zm2.265 0 .998-2.674h1.612l-.794 2.673h-1.816Zm4.765-8.482h-31.252v1.267h31.252v-1.267Zm-1.743 3.078H354.48v1.267h35.506v-1.267Zm-6.24 3.08H354.48v1.268h29.266v-1.268Z"/>
  <path fill="url(#g)" d="M205.33 106.16h-76.342v39.347h76.342V106.16Z"/>
  <path fill="#fff" fill-opacity=".5" d="m132.59 141.81 19.426-23.685c2.112-2.575 6.351-2.594 8.493-.039l14.257 17.013 7.856-6.71c2.305-1.969 5.98-1.685 7.885.61l10.637 12.81H132.59v.001Z"/>
  <path fill="#fff" d="M181.04 119.537c0 2.836-2.532 5.136-5.655 5.136-3.122 0-5.655-2.3-5.655-5.136 0-2.837 2.533-5.137 5.655-5.137 3.124 0 5.655 2.299 5.655 5.137Z"/>
  <defs>
    <linearGradient id="a" x1="3.123" x2="178.243" y1="37.481" y2="56.126" gradientUnits="userSpaceOnUse">
      <stop stop-color="#FB8D48"/>
      <stop offset=".2" stop-color="#ED7136"/>
      <stop offset=".4" stop-color="#C54E47"/>
      <stop offset=".4" stop-color="#C14F49"/>
      <stop offset=".6" stop-color="#9D3863"/>
      <stop offset=".8" stop-color="#5E1F72"/>
    </linearGradient>
    <linearGradient id="b" x1="12.126" x2="163.966" y1="205.842" y2="242.983" gradientUnits="userSpaceOnUse">
      <stop stop-color="#FB8D48"/>
      <stop offset=".2" stop-color="#ED7136"/>
      <stop offset=".4" stop-color="#C54E47"/>
      <stop offset=".4" stop-color="#C14F49"/>
      <stop offset=".6" stop-color="#9D3863"/>
      <stop offset=".8" stop-color="#5E1F72"/>
    </linearGradient>
    <linearGradient id="c" x1="277" x2="275.269" y1="225.5" y2="150.155" gradientUnits="userSpaceOnUse">
      <stop stop-color="#FB8D48"/>
      <stop offset=".2" stop-color="#ED7136"/>
      <stop offset=".4" stop-color="#C54E47"/>
      <stop offset=".4" stop-color="#C14F49"/>
      <stop offset=".6" stop-color="#9D3863"/>
      <stop offset=".8" stop-color="#5E1F72"/>
    </linearGradient>
    <linearGradient id="d" x1="198.439" x2="234.067" y1="30.398" y2="58.707" gradientUnits="userSpaceOnUse">
      <stop stop-color="#FB8D48"/>
      <stop offset=".2" stop-color="#ED7136"/>
      <stop offset=".4" stop-color="#C54E47"/>
      <stop offset=".4" stop-color="#C14F49"/>
      <stop offset=".6" stop-color="#9D3863"/>
      <stop offset=".8" stop-color="#5E1F72"/>
    </linearGradient>
    <linearGradient id="e" x1="197.729" x2="214.562" y1="30.398" y2="34.505" gradientUnits="userSpaceOnUse">
      <stop stop-color="#FB8D48"/>
      <stop offset=".2" stop-color="#ED7136"/>
      <stop offset=".4" stop-color="#C54E47"/>
      <stop offset=".4" stop-color="#C14F49"/>
      <stop offset=".6" stop-color="#9D3863"/>
      <stop offset=".8" stop-color="#5E1F72"/>
    </linearGradient>
    <linearGradient id="f" x1="213.701" x2="217.591" y1="30.25" y2="30.333" gradientUnits="userSpaceOnUse">
      <stop stop-color="#FB8D48"/>
      <stop offset=".2" stop-color="#ED7136"/>
      <stop offset=".4" stop-color="#C54E47"/>
      <stop offset=".4" stop-color="#C14F49"/>
      <stop offset=".6" stop-color="#9D3863"/>
      <stop offset=".8" stop-color="#5E1F72"/>
    </linearGradient>
    <linearGradient id="g" x1="130.316" x2="205.511" y1="123.101" y2="125.93" gradientUnits="userSpaceOnUse">
      <stop stop-color="#FB8D48"/>
      <stop offset=".2" stop-color="#ED7136"/>
      <stop offset=".4" stop-color="#C54E47"/>
      <stop offset=".4" stop-color="#C14F49"/>
      <stop offset=".6" stop-color="#9D3863"/>
      <stop offset=".8" stop-color="#5E1F72"/>
    </linearGradient>
  </defs>
</svg>
