<svg xmlns="http://www.w3.org/2000/svg" width="332" height="332" fill="none" viewBox="0 0 332 332">
  <path fill="#E0E0E0" d="m210.379 125.873.168.579c.229.793.8 1.412 1.528 1.659l.751.255c.222.076.223.418.001.495l-.722.248c-.724.249-1.291.867-1.519 1.655l-.17.587c-.069.237-.377.243-.452.006l-.203-.638c-.243-.762-.805-1.354-1.513-1.592l-.801-.27c-.223-.075-.224-.419-.001-.494l.772-.264c.704-.24 1.261-.83 1.503-1.589l.205-.644c.076-.236.383-.232.453.007Z"/>
  <path fill="#E0E0E0" fill-opacity=".1" d="m97.642 61.74-1.675-.41a4.787 4.787 0 0 0-2.265-.003l-1.979.48a4.792 4.792 0 0 1-2.484-.062l-1.25-.37a4.786 4.786 0 0 0-3.047.112l-.196.074a4.787 4.787 0 0 1-2.951.14l-1.563-.427a4.786 4.786 0 0 0-2.596.021l-1.21.352a4.781 4.781 0 0 1-3.123-.155l-.622-.25a4.787 4.787 0 0 0-3.6.01l-.283.116a1.314 1.314 0 0 1-1.812-1.216V40.559c0-8.881 7.2-16.08 16.08-16.08 8.881 0 16.08 7.2 16.08 16.08v20a1.214 1.214 0 0 1-1.504 1.181Z"/>
  <path fill="#fff" d="M75.62 41.99a2.266 2.266 0 1 0 0-4.53 2.266 2.266 0 0 0 0 4.53Zm14.563 0a2.266 2.266 0 1 0 0-4.53 2.266 2.266 0 0 0 0 4.53Zm-8.915-1.877a2.266 2.266 0 1 0 4.53 0h-4.53Z"/>
  <path fill="#E0E0E0" d="m78.536 78.538.451 1.56c.618 2.13 2.153 3.796 4.111 4.46l2.02.685c.599.203.6 1.125.003 1.33l-1.941.668c-1.947.67-3.472 2.331-4.086 4.453l-.457 1.576c-.186.64-1.013.653-1.215.019l-.547-1.717c-.653-2.05-2.164-3.64-4.067-4.282l-2.156-.725c-.6-.202-.601-1.127-.002-1.331l2.075-.709c1.893-.646 3.393-2.231 4.044-4.273l.552-1.733c.202-.634 1.03-.621 1.215.02Zm-39.723-28.94.262.903c.357 1.233 1.246 2.198 2.38 2.582l1.169.396c.346.118.347.652.001.77l-1.124.387c-1.127.388-2.01 1.35-2.365 2.578l-.265.912a.362.362 0 0 1-.703.01l-.316-.993c-.379-1.187-1.253-2.107-2.355-2.478l-1.248-.42c-.347-.117-.348-.652 0-.77l1.2-.411c1.096-.374 1.965-1.292 2.342-2.474l.319-1.004a.362.362 0 0 1 .703.012Z"/>
  <path fill="#E0E0E0" fill-opacity=".1" d="m305.295 139.364.262.903c.357 1.233 1.246 2.197 2.38 2.582l1.169.396c.346.118.347.651.002.771l-1.125.386c-1.126.388-2.009 1.35-2.365 2.578l-.264.912c-.108.371-.586.378-.703.011l-.317-.994c-.378-1.188-1.252-2.108-2.355-2.479l-1.247-.42c-.347-.117-.349-.652-.002-.771l1.202-.41c1.096-.374 1.964-1.292 2.341-2.474l.319-1.003a.362.362 0 0 1 .703.012Z"/>
  <path fill="#E0E0E0" d="m121.804 39.416.188.646c.255.881.89 1.57 1.7 1.845l.836.284c.248.084.248.465.001.55l-.803.277c-.806.276-1.436.964-1.691 1.842l-.189.652a.259.259 0 0 1-.503.008l-.226-.71c-.27-.849-.895-1.507-1.683-1.772l-.892-.3c-.248-.084-.249-.466-.001-.551l.86-.293c.782-.268 1.403-.924 1.673-1.769l.228-.717a.258.258 0 0 1 .502.008ZM38.687 89.77l.174.603c.239.823.832 1.466 1.588 1.723l.78.265c.231.078.232.434 0 .514l-.749.258c-.752.259-1.341.9-1.578 1.72l-.177.609a.242.242 0 0 1-.47.007l-.21-.663c-.253-.793-.836-1.407-1.571-1.654l-.833-.28c-.232-.078-.233-.436 0-.515l.801-.273c.731-.25 1.311-.862 1.562-1.651l.213-.67a.241.241 0 0 1 .47.007Zm220.567 119.175.109.376c.149.514.519.915.991 1.075l.487.166c.144.049.145.271 0 .32l-.468.161c-.469.161-.836.562-.984 1.073l-.111.38a.15.15 0 0 1-.292.004l-.132-.413a1.577 1.577 0 0 0-.98-1.032l-.519-.175c-.145-.048-.145-.271-.001-.32l.5-.171c.456-.156.817-.538.974-1.03l.133-.418a.15.15 0 0 1 .293.004Z"/>
  <path fill="url(#a)" d="m279.971 147.69-1.273-.312a3.642 3.642 0 0 0-1.721-.002l-1.502.364a3.639 3.639 0 0 1-1.887-.047l-.949-.281a3.638 3.638 0 0 0-2.316.085l-.148.057a3.635 3.635 0 0 1-2.242.106l-1.187-.324a3.63 3.63 0 0 0-1.972.016l-.919.267a3.636 3.636 0 0 1-2.372-.118l-.472-.19a3.64 3.64 0 0 0-2.735.008l-.215.088a.998.998 0 0 1-1.375-.924v-14.882c0-6.746 5.468-12.214 12.214-12.214 6.745 0 12.214 5.468 12.214 12.214v15.192a.924.924 0 0 1-1.143.897Z"/>
  <path fill="#fff" d="M264.962 130.965a1.722 1.722 0 1 1-3.443-.001 1.722 1.722 0 0 1 3.443.001Zm9.343 1.721a1.72 1.72 0 1 0 .001-3.44 1.72 1.72 0 0 0-.001 3.44Zm-6.774-1.426a1.721 1.721 0 1 0 3.442 0h-3.442Z"/>
  <path fill="#E0E0E0" fill-opacity=".1" d="m303.495 109.209-.867-.212a2.475 2.475 0 0 0-1.173-.002l-1.024.248a2.468 2.468 0 0 1-1.285-.032l-.647-.191a2.47 2.47 0 0 0-1.577.058l-.102.038a2.47 2.47 0 0 1-1.527.072l-.809-.22a2.484 2.484 0 0 0-1.344.011l-.625.182a2.478 2.478 0 0 1-1.617-.08l-.322-.13a2.481 2.481 0 0 0-1.863.006l-.147.059a.68.68 0 0 1-.937-.629v-10.14a8.323 8.323 0 0 1 16.645 0v10.351a.63.63 0 0 1-.779.611Z"/>
  <path fill="#fff" d="M292.096 98.986a1.173 1.173 0 1 0 0-2.346 1.173 1.173 0 0 0 0 2.346Zm7.54 0a1.173 1.173 0 1 0-.001-2.345 1.173 1.173 0 0 0 .001 2.345Zm-4.616-.972a1.173 1.173 0 0 0 2.345 0h-2.345Z"/>
  <path fill="#E0E0E0" d="m261.118 91.809.109.375c.148.514.518.915.99 1.076l.487.165c.144.049.145.27.001.32l-.468.162c-.47.161-.837.562-.985 1.073l-.11.38a.15.15 0 0 1-.293.004l-.132-.413a1.576 1.576 0 0 0-.98-1.032l-.519-.175c-.145-.048-.145-.271-.001-.32l.5-.171c.457-.156.818-.538.974-1.03l.133-.418a.151.151 0 0 1 .294.004Z"/>
  <path fill="#E0E0E0" fill-opacity=".1" d="m289.225 173.845.306 1.055c.417 1.443 1.456 2.57 2.782 3.02l1.367.464c.405.137.406.761.002.9l-1.314.452c-1.318.454-2.35 1.578-2.766 3.014l-.309 1.067c-.126.433-.685.442-.822.013l-.37-1.162c-.442-1.389-1.465-2.464-2.753-2.899l-1.459-.491c-.406-.137-.407-.762-.002-.901l1.405-.48c1.282-.438 2.296-1.511 2.737-2.892l.374-1.173c.136-.428.696-.42.822.013Z"/>
  <path fill="#E0E0E0" d="m294.424 34.84.306 1.054c.417 1.443 1.457 2.57 2.782 3.02l1.367.464c.405.137.407.76.002.9l-1.314.452c-1.317.454-2.35 1.578-2.765 3.014l-.31 1.067a.423.423 0 0 1-.822.013l-.37-1.162c-.442-1.389-1.465-2.464-2.753-2.898l-1.459-.492c-.406-.137-.407-.762-.002-.9l1.406-.48c1.281-.438 2.296-1.51 2.737-2.893l.373-1.172c.136-.43.696-.42.822.012ZM28.891 254.856a21.066 21.066 0 0 0-9.021-3.105c-1.475-.152-3.085-.108-4.268.785-.25.189-.496.469-.44.779.042.227.234.393.417.533 3.672 2.8 9.224 3.153 13.312 1.008Zm-.232-.257c-2.043-1.594-4.097-3.199-5.827-5.127-1.73-1.928-3.136-4.218-3.653-6.756-.157-.77-.206-1.649.289-2.261 4.644 3.628 8.293 8.319 9.19 14.144Z"/>
  <path fill="#E0E0E0" d="M28.843 254.821c-.35-2.541-.476-5.153.108-7.651.583-2.498 1.942-4.888 4.075-6.313.802 1.876.457 4.038-.108 5.998a29.153 29.153 0 0 1-4.04 8.508m4.515 7.614c-2.764.336-5.171 1.792-7.235 3.662a13.688 13.688 0 0 0-4.139 7.104c2.712-.168 5.012-2.08 6.68-4.223 1.668-2.144 2.824-4.496 4.656-6.502m1.03 1.263c-2.227-5.484-1.42-12.092 2.06-16.879 1.575 5.601.997 11.928-2.06 16.879Zm6.015 7.165a12.99 12.99 0 0 0-7.237 1.696 12.997 12.997 0 0 0-5.101 5.406c-.153.306-.288.694-.083.968.178.238.522.259.818.24 2.432-.157 4.586-1.62 6.364-3.286 1.779-1.666 3.328-3.59 5.292-5.031m-.244-.383a22.97 22.97 0 0 1-.23-12.835c.453-1.652 1.212-3.392 2.74-4.167.13-.066.282-.125.419-.074.13.049.205.182.265.307.544 1.136.702 2.425.646 3.683-.056 1.257-.317 2.496-.577 3.727-.482 2.279-.737 4.727-1.987 6.692-.297.466-.558.97-.794 1.47s-.239.676-.456 1.073m15.901 2.495c-1.18-4.488.072-9.929 2.9-13.608.209-.271.484-.561.825-.53.52.049.656.743.633 1.265a24.59 24.59 0 0 1-4.358 12.873Zm1.432.983c5.453 1.418 11.708.039 16.243-3.304a13.15 13.15 0 0 0-8.793-1.079c-2.937.671-5.622 1.987-7.45 4.383Zm1.212-2.986c3.053-4.979 8.907-8.228 14.74-8.524-.671 2.373-2.62 4.217-4.82 5.331-2.2 1.114-4.656 1.6-7.077 2.07-.941.182-2.233.383-2.844 1.123Zm-2.343-14.501c.827-2.833 1.658-5.691 1.885-8.633.227-2.942-.193-6.014-1.72-8.54-2.852 5.52-3.141 11.969-.251 17.469m9.69-5.152c3.336-6.063 10.141-10.906 17.028-11.585-2.657 6.615-9.902 11.727-17.028 11.585Zm-2.1 1.189c4.975.758 9.213 3.935 13.863 5.861.994.412 2.067.741 3.134.601 1.067-.14 2.12-.856 2.359-1.905.199-.872-.198-1.796-.823-2.435-.626-.638-1.452-1.037-2.276-1.381-5.064-2.108-10.494-2.16-15.828-.882"/>
  <path fill="#E0E0E0" d="M61.06 256.744c1.127.322 1.512.905 2.404 1.665a25.92 25.92 0 0 0 10.511 5.4c.402.1.929.14 1.128-.223.174-.317-.047-.7-.272-.983-1.616-2.022-3.92-3.405-6.347-4.308-2.426-.904-4.528-1.992-7.423-1.759m-3.246-20.865c4.044 3.776 9.743 5.715 15.252 5.189.25-.024.523-.063.694-.249.384-.417-.077-1.062-.524-1.411-4.484-3.496-9.916-4.946-15.422-3.529Z"/>
  <path fill="#E0E0E0" d="M61.664 234.261c5.347-4.009 12.68-5.219 19.032-3.14-2.397 2.362-5.723 3.633-9.07 3.981-3.347.349-6.698-.022-9.962-.841Zm-1.529-9.683c-.44-4.476-.154-8.009-.465-12.506-.025-.359-.102-.791-.438-.921-.468-.18-.858.395-1.012.873-1.332 4.145-.604 8.899 1.909 12.456"/>
  <path fill="#E0E0E0" d="M59.81 225.072c3.034-1.876 5.31-4.326 7.415-7.206 1.464-2.004 2.699-4.404 2.366-6.863-2.057-.041-4.011 1.093-5.348 2.656-1.338 1.562-2.133 3.516-2.727 5.485-.593 1.968-1.009 3.992-1.706 5.928Zm7.287-2.022a59.786 59.786 0 0 0 18.246-10.759c-2.18-.878-4.675-.352-6.854.528-4.979 2.009-9.046 5.401-11.487 10.183m-5.142 4.516c3.368.369 6.789.608 10.13.049 3.285-.549 6.39-1.851 9.459-3.142.254-.107.53-.236.642-.488.121-.275-.007-.609-.23-.81-.222-.201-.518-.297-.807-.378-3.336-.933-6.938-.496-10.221.611-3.283 1.108-5.975 2.423-8.974 4.158Zm-19.23 8.305c-2.299-4.639-2.15-10.052-.164-14.833 1.398 2.13 1.568 4.841 1.313 7.375-.256 2.534-1.027 5.142-1.077 7.689m-9.252-4.863c-5.739-.11-11.478 2.335-15.374 6.548 2.864.45 5.813-.288 8.418-1.56 2.605-1.272 4.92-3.056 7.213-4.828m-6.431-2.219c-2.807-.228-5.508-.575-8.207.251-2.698.827-5.154 2.705-6.254 5.304 2.625.296 5.287-.363 7.693-1.453 2.407-1.09 4.594-2.6 6.768-4.102Zm9.138.093c-2.525-1.655-5.118-3.339-8.057-4.025-2.94-.685-6.348-.179-8.398 2.037 2.38 1.397 5.268 1.562 8.027 1.56 2.76-.002 6.142-.034 8.744.887"/>
  <path fill="#E0E0E0" d="M36.43 229.356c-4.316-4.239-5.953-11.854-4.216-17.649 3.393 5.155 4.913 11.516 4.217 17.649ZM48.3 217.35c.815-1.892 1.388-3.879 2.118-5.805.73-1.927 1.638-3.823 3.018-5.352 1.38-1.53 3.289-2.669 5.347-2.771-1.288 5.832-5.162 11.044-10.377 13.958m-2.256 2.468c-1.346-1.855-2.903-4.372-4.73-5.756-1.828-1.384-4.206-2.222-6.436-1.691 2.268 4.054 6.553 6.911 11.167 7.447Zm.43-2.347c-.883-2.244-1.772-4.512-2.13-6.897-.357-2.385-.139-4.932 1.08-7.012 2.37 4.479 3.133 9.287 1.17 13.959m1.62-13.958c1.342-4.441 5.409-7.71 9.798-9.21.553-.189 1.14-.347 1.718-.258.578.09 1.145.485 1.266 1.057.16.755-.464 1.432-1.05 1.934a33.348 33.348 0 0 1-11.732 6.477Zm.048-3.631c.17-2.863.35-5.768 1.28-8.48.931-2.713 2.726-5.258 5.337-6.445.444 2.892-.832 5.768-2.37 8.257-1.54 2.488-3.394 4.837-4.318 7.613m0 1.024c-1.11-3.236-1.223-7.346-3.161-10.165-1.355-1.971-3.524-3.314-4.692-5.401-.775 1.95-.538 4.196.273 6.131.81 1.935 2.15 3.601 3.585 5.132 1.434 1.531 2.662 2.683 3.995 4.303Z"/>
  <path fill="#E0E0E0" d="M48.321 297.233c-.086 0-.16-21.588-.166-48.212-.006-26.633.059-48.216.145-48.216s.16 21.583.167 48.216c.006 26.624-.06 48.212-.146 48.212Z"/>
  <path fill="#E0E0E0" d="M67.186 232.566c.006.021-.284.128-.812.305l-2.233.754a130.35 130.35 0 0 0-7.279 2.721c-2.78 1.193-5.403 2.162-6.896 3.455-.746.639-1.174 1.329-1.386 1.833-.215.507-.252.817-.28.812-.011-.002-.008-.079.008-.227.025-.145.063-.362.16-.628.181-.533.597-1.271 1.352-1.955.75-.684 1.795-1.299 2.992-1.858a90.58 90.58 0 0 1 3.932-1.72 90.247 90.247 0 0 1 7.328-2.643 59.762 59.762 0 0 1 2.267-.66c.54-.141.84-.209.847-.189Z"/>
  <path fill="#E0E0E0" d="M73.368 217.38c.007.008-.072.091-.228.243l-.692.65-2.586 2.35-8.608 7.663c-3.36 2.991-6.264 5.849-8.276 8a95.924 95.924 0 0 0-2.343 2.587l-.625.714c-.145.162-.225.244-.234.237-.009-.007.056-.102.185-.276.13-.173.32-.432.58-.752a57.25 57.25 0 0 1 2.274-2.658c1.976-2.196 4.864-5.087 8.23-8.084 3.372-2.984 6.44-5.664 8.67-7.597l2.651-2.275.732-.607c.17-.136.263-.203.27-.195Z"/>
  <path fill="#E0E0E0" d="M57.63 231.323c-.088-.039.614-1.66 1.314-3.709.706-2.049 1.038-3.779 1.127-3.764.082.008-.117 1.789-.831 3.864a25.069 25.069 0 0 1-1.046 2.594c-.305.647-.525 1.032-.563 1.015Zm-9.288 13.069c-.017.013-.2-.202-.518-.601l-1.326-1.7a585.267 585.267 0 0 0-4.38-5.604 565.286 565.286 0 0 0-4.464-5.539c-.542-.67-.997-1.233-1.355-1.678-.317-.399-.484-.626-.468-.64.017-.014.215.186.56.561.346.375.835.927 1.432 1.615a171.233 171.233 0 0 1 4.54 5.487 169.062 169.062 0 0 1 4.312 5.666c.535.737.962 1.339 1.248 1.761.286.42.437.659.42.672Z"/>
  <path fill="#E0E0E0" d="M44.202 239.081c-.052.055-1.155-1.254-1.733-3.244-.427-1.402-.446-2.685-.394-3.271l.139.011c-.062.251-.107.382-.132.378-.025-.004-.026-.143-.005-.4l.138.011c.05.582.139 1.82.553 3.182.558 1.928 1.517 3.28 1.434 3.333Zm-5.339-6.715c-.04.043-.395-.405-1.21-.703-.808-.313-2.024-.381-3.359-.267-1.336.098-2.53.336-3.382.546-.854.211-1.376.377-1.392.334-.014-.037.483-.278 1.332-.547a15.526 15.526 0 0 1 3.419-.645c1.35-.117 2.63-.012 3.465.374.847.376 1.155.901 1.127.908Zm-1.267-1.628c-.024.049-.704-.282-1.854-.675a19.106 19.106 0 0 0-4.624-.952 19.16 19.16 0 0 0-4.717.239c-1.195.214-1.918.438-1.934.387-.007-.021.168-.094.491-.209a11.45 11.45 0 0 1 1.4-.393c1.197-.275 2.904-.475 4.784-.335 1.877.146 3.535.603 4.676 1.056.572.225 1.024.433 1.324.601.302.163.463.262.454.281Zm10.704-6.886c-.084.021-.69-2.081-1.353-4.696-.663-2.615-1.132-4.752-1.049-4.773.084-.021.689 2.081 1.352 4.696.663 2.615 1.132 4.752 1.05 4.773Z"/>
  <path fill="#E0E0E0" d="M48.387 223.852c-.093.03-.482-1.375-1.499-2.812-.989-1.467-2.252-2.203-2.205-2.275.017-.033.364.095.851.439.488.339 1.09.914 1.61 1.657 1.055 1.495 1.318 2.985 1.243 2.991Zm-.067 61.872c-.034.005-.097-.519-.34-1.436-.24-.917-.694-2.217-1.443-3.737-1.492-3.048-4.206-6.913-7.654-10.784-1.71-1.952-3.367-3.794-4.774-5.558-1.41-1.76-2.568-3.438-3.414-4.923-.848-1.483-1.4-2.756-1.723-3.653a14.774 14.774 0 0 1-.338-1.046c-.069-.241-.1-.369-.09-.372.029-.009.185.494.541 1.374.355.88.935 2.128 1.8 3.586.864 1.459 2.033 3.112 3.447 4.855 1.413 1.745 3.073 3.577 4.785 5.532 3.458 3.881 6.165 7.795 7.618 10.892.73 1.547 1.156 2.871 1.362 3.804.1.468.167.832.191 1.083.032.25.043.381.032.383Z"/>
  <path fill="#E0E0E0" d="M65.368 266.467c.01.023-.316.188-.893.501-.573.322-1.385.818-2.317 1.532-.932.713-1.973 1.65-3.043 2.776-1.069 1.128-2.169 2.439-3.291 3.843-2.245 2.818-4.346 5.31-5.603 7.3a29.71 29.71 0 0 0-1.407 2.403c-.306.583-.47.91-.492.9-.01-.005.019-.092.083-.254.067-.16.157-.401.3-.699.273-.603.71-1.458 1.33-2.467 1.22-2.038 3.304-4.565 5.545-7.378 1.126-1.407 2.24-2.72 3.328-3.846 1.09-1.125 2.16-2.056 3.118-2.754a16.31 16.31 0 0 1 2.394-1.463c.296-.149.537-.24.697-.309.16-.066.247-.095.251-.085Z"/>
  <path fill="#E0E0E0" d="M65.704 272.714c.004.046-.722.134-1.889.275-1.163.15-2.782.344-4.479.881-1.69.551-3.094 1.39-4.01 2.105-.924.714-1.36 1.305-1.403 1.271-.015-.011.076-.172.28-.435.202-.265.533-.618.984-1.007.9-.776 2.319-1.665 4.054-2.23 1.737-.55 3.379-.71 4.552-.805 1.178-.085 1.907-.095 1.91-.055Z"/>
  <path fill="#E0E0E0" d="M54.473 276.562c-.099-.056.752-1.356 1.413-3.104.62-1.765.764-3.312.875-3.294.041.005.039.392-.03 1.013a10.892 10.892 0 0 1-.552 2.388c-.33.905-.763 1.662-1.095 2.189-.337.526-.576.83-.611.808Zm16.417-26.865c.005.01-.1.065-.302.161l-.887.403c-.389.166-.86.378-1.392.658-.534.275-1.156.559-1.804.949l-1.03.585c-.358.205-.711.45-1.087.685-.76.461-1.52 1.028-2.333 1.607a43.902 43.902 0 0 0-4.868 4.282 43.871 43.871 0 0 0-4.114 5.014c-.551.831-1.092 1.611-1.527 2.386-.222.384-.454.746-.647 1.11l-.55 1.049c-.368.662-.63 1.293-.886 1.836-.263.541-.457 1.02-.61 1.413l-.373.901c-.088.205-.14.311-.15.307-.01-.003.021-.116.09-.328l.32-.924c.136-.402.316-.89.563-1.44.243-.551.492-1.194.849-1.865l.536-1.066c.188-.369.416-.736.635-1.125.428-.786.964-1.576 1.514-2.418a41.915 41.915 0 0 1 4.126-5.067 41.867 41.867 0 0 1 4.922-4.296c.823-.577 1.594-1.14 2.365-1.595.382-.233.74-.473 1.103-.674l1.046-.572c.66-.379 1.292-.651 1.835-.912a16.35 16.35 0 0 1 1.42-.613l.912-.349c.209-.077.32-.112.325-.102Z"/>
  <path fill="#E0E0E0" d="M57.398 258.738c-.028-.004.122-.528.741-1.105.604-.575 1.706-1.108 2.99-1.146 1.278-.034 2.387.324 3.145.614.761.299 1.204.542 1.19.577-.019.044-.493-.127-1.262-.369-.767-.235-1.852-.544-3.063-.511-1.208.037-2.25.503-2.856 1.002-.618.499-.836.968-.886.938Zm-2.014 2.084c-.086-.048.675-1.163.848-2.761.2-1.596-.285-2.857-.19-2.883.034-.014.204.28.35.804.148.523.246 1.284.15 2.115a5.655 5.655 0 0 1-.632 2.023c-.264.478-.496.724-.526.702ZM33.41 288.818c.466 8.251 2.952 16.641 6.775 25.123h16.628c3.647-8.398 5.961-16.775 6.373-25.123H33.41Z"/>
  <path fill="#FAFAFA" d="M60.489 302.166c0 .086-5.475.156-12.228.156-6.754 0-12.228-.07-12.228-.156 0-.087 5.474-.156 12.228-.156 6.753 0 12.228.069 12.228.156Zm-.371 2.986c0 .086-5.133.156-11.463.156-6.331 0-11.464-.07-11.464-.156s5.132-.156 11.464-.156c6.33 0 11.463.07 11.463.156Zm-19.661-10.92c.086 0 .156 1.716.156 3.83 0 2.116-.07 3.831-.156 3.831-.087 0-.156-1.714-.156-3.831 0-2.114.07-3.83.156-3.83Z"/>
  <path fill="#FAFAFA" d="M49.365 294.232c.086 0 .156 1.777.156 3.966 0 2.192-.07 3.967-.156 3.967s-.156-1.775-.156-3.967c0-2.189.07-3.966.156-3.966Zm8.363-.064c.087 0 .156 1.811.156 4.046 0 2.235-.07 4.045-.156 4.045s-.156-1.81-.156-4.045.07-4.046.156-4.046Z"/>
  <path fill="#FAFAFA" d="M62.662 294.234c0 .086-6.422.156-14.341.156-7.922 0-14.343-.07-14.343-.156s6.42-.156 14.343-.156c7.92 0 14.341.071 14.341.156Z"/>
  <path fill="#263238" d="M319.616 313.673c0 .095-68.782.172-153.61.172-84.857 0-153.625-.077-153.625-.172 0-.096 68.768-.173 153.625-.173 84.828 0 153.61.077 153.61.173ZM240.077 60.798c.068.068-3.125 3.362-7.129 7.358-4.006 3.996-7.307 7.18-7.375 7.113-.067-.068 3.124-3.361 7.13-7.358 4.005-3.996 7.306-7.18 7.374-7.113Zm-32.068 5.337c-.096 0-.173-4.184-.173-9.345 0-5.161.077-9.345.173-9.345.095 0 .172 4.184.172 9.345 0 5.16-.077 9.345-.172 9.345Zm-23.622 25.37c0 .095-2.531.175-5.653.179-3.123.003-5.653-.071-5.654-.167 0-.095 2.531-.175 5.653-.179 3.122-.004 5.653.071 5.654.167Z"/>
  <path fill="#263238" d="M208.008 48.352a.956.956 0 1 0 0-1.911.956.956 0 0 0 0 1.911Zm31.647 14.112a.956.956 0 1 0-.001-1.911.956.956 0 0 0 .001 1.91Zm-43.683 55.822a.956.956 0 1 1-1.912-.002.956.956 0 0 1 1.912.002ZM172.77 61.507c.058-.076 4.155 2.943 9.149 6.742 4.997 3.801 8.999 6.943 8.941 7.019-.058.076-4.153-2.942-9.15-6.743-4.994-3.8-8.998-6.941-8.94-7.018Z"/>
  <path fill="#263238" d="M171.967 61.717a.955.955 0 1 0 1.91.002.955.955 0 0 0-1.91-.002Zm2.146 30.512a.956.956 0 1 1-1.353-1.35.956.956 0 0 1 1.353 1.35Zm25.175 13.537c.045.015-.149.719-.495 1.845a168.005 168.005 0 0 1-1.421 4.379 98.889 98.889 0 0 1-1.561 4.334c-.429 1.1-.753 1.757-.796 1.739-.045-.019.197-.704.567-1.823l1.463-4.361a194.68 194.68 0 0 1 1.517-4.346c.405-1.106.681-1.782.726-1.767Z"/>
  <path fill="#2E2C29" d="M223.363 90.332c2.103-9.008-3.496-18.016-12.505-20.119-9.008-2.103-18.016 3.496-20.119 12.504-2.103 9.01 3.496 18.017 12.504 20.12 9.009 2.103 18.017-3.496 20.12-12.505Z"/>
  <path fill="url(#b)" d="m226.64 94.013-.425-9.168c-.224-4.826-4.076-8.62-8.752-8.62h-20.822c-4.676 0-8.528 3.794-8.752 8.62l-.425 9.168s-.412 6.178 5.155 6.178c0 0 2.577.639 4.536-2.237l3.505-4.687 6.392-.106 6.392.106 3.505 4.687c1.959 2.876 4.536 2.237 4.536 2.237 5.567 0 5.155-6.178 5.155-6.178Z"/>
  <path fill="url(#c)" d="M195.566 81.301v1.543c0 .175.087.339.233.436l1.293.95 1.33-.982c.123-.1.195-.25.195-.409v-1.546a.527.527 0 0 0-.528-.525l-1.999.007a.527.527 0 0 0-.524.526Z"/>
  <path fill="url(#d)" d="M198.617 89.41v-1.544a.525.525 0 0 0-.233-.436l-1.292-.95-1.33.983a.524.524 0 0 0-.196.408v1.546c0 .29.237.526.528.526l1.999-.008a.526.526 0 0 0 .524-.526Z"/>
  <path fill="url(#e)" d="M192.819 86.959h1.542a.527.527 0 0 0 .437-.233l.949-1.293-.982-1.33a.522.522 0 0 0-.408-.195h-1.546a.526.526 0 0 0-.526.528l.008 1.999c.001.29.237.524.526.524Z"/>
  <path fill="url(#f)" d="M201.103 83.908h-1.543a.528.528 0 0 0-.436.232l-.95 1.293.982 1.33c.099.123.25.195.408.195h1.546a.526.526 0 0 0 .526-.528l-.008-1.999a.524.524 0 0 0-.525-.523Z"/>
  <path fill="url(#g)" d="M215.48 81.301v1.543c0 .175.087.339.232.436l1.293.95 1.33-.982c.124-.1.195-.25.195-.409v-1.546a.526.526 0 0 0-.528-.525l-1.998.007a.526.526 0 0 0-.524.526Z"/>
  <path fill="url(#h)" d="M218.53 89.41v-1.544a.526.526 0 0 0-.232-.436l-1.292-.95-1.33.983a.524.524 0 0 0-.196.408v1.546c0 .29.237.526.528.526l1.999-.008a.525.525 0 0 0 .523-.526Z"/>
  <path fill="url(#i)" d="M212.734 86.959h1.543a.529.529 0 0 0 .437-.233l.949-1.293-.982-1.33a.522.522 0 0 0-.408-.195h-1.546a.527.527 0 0 0-.526.528l.008 1.999c.001.29.236.524.525.524Z"/>
  <path fill="url(#j)" d="M221.017 83.908h-1.543a.53.53 0 0 0-.437.232l-.949 1.293.982 1.33c.1.123.25.195.408.195h1.546a.526.526 0 0 0 .526-.528l-.008-1.999a.525.525 0 0 0-.525-.523Z"/>
  <path fill="#fff" d="M217.482 26.283a9.365 9.365 0 0 1-8.452 10.2 9.366 9.366 0 0 1-10.199-8.453 9.366 9.366 0 0 1 8.452-10.2c5.15-.481 9.717 3.302 10.199 8.453Z"/>
  <path fill="url(#k)" d="M207.283 17.832a9.366 9.366 0 0 0-8.452 10.2s6.58-.321 7.909-3.108c1.329-2.787.543-7.092.543-7.092Z" opacity=".1"/>
  <path fill="url(#l)" d="M215.084 26.357a7.12 7.12 0 1 1-14.18 1.328 7.12 7.12 0 0 1 14.18-1.328Z"/>
  <path fill="url(#m)" d="M215.084 26.357a7.12 7.12 0 1 1-14.18 1.328 7.12 7.12 0 0 1 14.18-1.328Z" opacity=".2"/>
  <path fill="url(#n)" d="M215.315 26.634a7.026 7.026 0 1 1-13.988 1.308 7.026 7.026 0 0 1 13.988-1.308Z"/>
  <path fill="url(#o)" d="M215.315 26.634a7.026 7.026 0 1 1-13.988 1.308 7.026 7.026 0 0 1 13.988-1.308Z" opacity=".2"/>
  <path fill="url(#p)" d="m208.539 26.659-.167-1.79h.008c.314.006.644.06.974.158.279.113.472.24.472.24l.019-.059.216-.67.05-.154-.35-.305-.147.084c-.41-.16-.87-.271-1.331-.253l-.093-.985-.329-.218.023.247-.42.04.094 1.001c-1.371.262-1.953 1.113-1.868 2.017.115 1.233 1.2 1.453 2.207 1.6l.166 1.774c-.68 0-1.369-.194-1.837-.508l-.314.933c.498.355 1.367.56 2.241.532l.069.743-.345.039.368.202.727-.068-.093-.993c1.378-.272 1.97-1.115 1.886-2.02-.118-1.23-1.219-1.44-2.226-1.587Zm-.744-.119c-.529-.102-.929-.261-.968-.687-.037-.39.199-.734.82-.89l.148 1.577Zm.992 2.76-.147-1.569c.546.101.955.269.996.703.035.381-.211.708-.849.867Z"/>
  <path fill="url(#q)" d="m208.539 26.659-.167-1.79h.008c.314.006.644.06.974.158.279.113.472.24.472.24l.019-.059.216-.67.05-.154-.35-.305-.147.084c-.41-.16-.87-.271-1.331-.253l-.093-.985-.329-.218.023.247-.42.04.094 1.001c-1.371.262-1.953 1.113-1.868 2.017.115 1.233 1.2 1.453 2.207 1.6l.166 1.774c-.68 0-1.369-.194-1.837-.508l-.314.933c.498.355 1.367.56 2.241.532l.069.743-.345.039.368.202.727-.068-.093-.993c1.378-.272 1.97-1.115 1.886-2.02-.118-1.23-1.219-1.44-2.226-1.587Zm-.744-.119c-.529-.102-.929-.261-.968-.687-.037-.39.199-.734.82-.89l.148 1.577Zm.992 2.76-.147-1.569c.546.101.955.269.996.703.035.381-.211.708-.849.867Z" opacity=".3"/>
  <path fill="#2E2C29" d="m208.557 30.053.093.993-.727.069-.093-.984c-.874.027-1.743-.177-2.241-.533l.315-.933c.467.314 1.157.509 1.837.508l-.166-1.774c-1.007-.147-2.092-.367-2.208-1.6-.085-.904.498-1.755 1.869-2.018l-.094-1.002.727-.068.093.984c.659-.026 1.342.107 1.85.372l-.279.93a3.688 3.688 0 0 0-1.482-.345l.168 1.792c1.007.147 2.109.357 2.225 1.59.083.904-.508 1.747-1.887 2.019Zm-1.083-3.727-.148-1.579c-.62.157-.856.501-.82.892.04.425.44.584.968.687Zm1.842 1.893c-.041-.434-.451-.601-.996-.702l.146 1.57c.638-.159.885-.486.85-.867Z"/>
  <path fill="url(#r)" d="M206.04 26.481c-.003.006-.106-.046-.225-.185a1.128 1.128 0 0 1-.263-.652c-.015-.283.084-.53.186-.678.102-.151.198-.216.202-.21.009.009-.073.085-.16.236a1.177 1.177 0 0 0-.158.648c.015.264.127.487.231.625.105.14.194.207.187.216Z"/>
  <path fill="url(#s)" d="M207.372 23.616c-.019.002-.047-.127-.062-.288-.015-.16-.012-.293.007-.295.02-.002.048.128.063.288.014.162.011.294-.008.295Z"/>
  <path fill="url(#t)" d="M207.956 19.69c0 .004-.081.008-.228.012-.074 0-.164.002-.268.011-.104.008-.223.011-.353.029-.131.014-.274.03-.425.057-.153.022-.313.059-.483.095-.336.08-.702.19-1.074.338-.371.15-.711.324-1.011.498-.147.092-.289.175-.414.266a5.58 5.58 0 0 0-.347.252c-.106.077-.194.157-.275.223a3.702 3.702 0 0 0-.201.177 1.46 1.46 0 0 1-.174.15 1.523 1.523 0 0 1 .155-.17 2.87 2.87 0 0 1 .194-.185c.078-.07.165-.152.27-.233a4.99 4.99 0 0 1 .345-.26c.125-.094.267-.18.414-.274a7.53 7.53 0 0 1 1.017-.508 7.58 7.58 0 0 1 1.087-.336c.171-.035.334-.07.488-.09.153-.024.297-.038.429-.048.132-.015.251-.015.356-.019.105-.005.195-.003.269 0 .148.004.229.01.229.014Z"/>
  <path fill="url(#u)" d="M196.607 43.54c-.218.212-.533.345-.943.395v.61h-.545v-.594a2.978 2.978 0 0 1-.768-.141 1.954 1.954 0 0 1-.589-.295l.3-.665a2.185 2.185 0 0 0 1.056.387v-.91a4.054 4.054 0 0 1-.653-.207 1.157 1.157 0 0 1-.448-.336c-.12-.147-.18-.342-.18-.585 0-.302.11-.56.33-.777.22-.217.537-.348.951-.395v-.605h.545v.594c.447.037.816.148 1.107.332l-.273.67a2.174 2.174 0 0 0-.834-.283v.927c.255.058.47.125.646.199.177.074.325.185.445.332.12.147.18.341.18.58 0 .299-.109.554-.327.767Zm-1.788-2.161c.07.058.17.107.3.147v-.774a.59.59 0 0 0-.305.155.352.352 0 0 0-.098.249c0 .09.034.164.103.223Zm1.14 1.694a.317.317 0 0 0 .098-.234.284.284 0 0 0-.101-.224.88.88 0 0 0-.291-.152v.752a.587.587 0 0 0 .294-.142Z"/>
  <path fill="url(#v)" d="M200.313 40.076v3.816h-.882v-3.107h-.763v-.709h1.645Z"/>
  <path fill="url(#w)" d="M201.86 43.022a.508.508 0 0 1 .148.378c0 .073-.01.146-.028.218a2.266 2.266 0 0 1-.12.327l-.311.785h-.539l.239-.866a.45.45 0 0 1-.215-.178.524.524 0 0 1-.079-.286.502.502 0 0 1 .529-.523c.153 0 .278.048.376.145Z"/>
  <path fill="url(#x)" d="M203.126 43.721a1.567 1.567 0 0 1-.581-.678c-.139-.296-.209-.65-.209-1.06 0-.41.07-.764.209-1.06a1.57 1.57 0 0 1 .581-.679c.247-.156.529-.234.844-.234.317 0 .598.078.845.234.247.156.441.383.581.679.14.296.209.65.209 1.06 0 .41-.069.764-.209 1.06-.14.296-.334.523-.581.678a1.547 1.547 0 0 1-.845.235c-.316 0-.597-.078-.844-.235Zm1.392-.812c.133-.2.199-.509.199-.926 0-.418-.066-.727-.199-.927a.626.626 0 0 0-.548-.3c-.229 0-.409.1-.542.3-.133.2-.199.509-.199.927 0 .417.066.727.199.926.133.2.314.3.542.3.233 0 .415-.1.548-.3Z"/>
  <path fill="url(#y)" d="M208.853 43.171v.72h-2.883v-.572l1.472-1.39c.156-.149.261-.277.316-.385a.702.702 0 0 0 .081-.318.424.424 0 0 0-.154-.352c-.104-.082-.256-.123-.456-.123-.167 0-.317.032-.453.095a.875.875 0 0 0-.338.287l-.643-.415c.149-.22.354-.395.616-.52a2.05 2.05 0 0 1 .899-.188c.284 0 .532.046.744.139.212.092.378.223.496.392s.177.368.177.597c0 .207-.043.401-.13.583-.088.182-.256.389-.507.621l-.877.83h1.64Z"/>
  <path fill="url(#z)" d="M211.768 42.002c.179.195.267.435.267.723 0 .222-.058.426-.174.613a1.216 1.216 0 0 1-.532.45c-.237.112-.53.168-.874.168a3.03 3.03 0 0 1-.793-.106 2.039 2.039 0 0 1-.662-.303l.343-.676c.146.11.314.193.505.254.19.06.386.09.586.09.221 0 .396-.043.523-.128a.41.41 0 0 0 .19-.362c0-.313-.237-.469-.713-.469h-.403v-.583l.785-.888h-1.624v-.709h2.67v.572l-.861.981c.334.055.59.179.767.373Z"/>
  <path fill="url(#A)" d="M213.327 43.022a.507.507 0 0 1 .147.378.902.902 0 0 1-.027.218 2.396 2.396 0 0 1-.12.327l-.311.785h-.54l.24-.866a.446.446 0 0 1-.215-.178.516.516 0 0 1-.079-.286.502.502 0 0 1 .528-.523c.154 0 .279.048.377.145Z"/>
  <path fill="url(#B)" d="M216.468 40.497c.301.325.452.793.452 1.404 0 .432-.08.803-.242 1.112-.161.309-.39.543-.684.703-.294.16-.634.24-1.019.24-.204 0-.398-.023-.583-.069a1.57 1.57 0 0 1-.474-.193l.326-.648c.186.127.424.19.714.19.323 0 .58-.094.769-.285.189-.19.291-.467.305-.826-.229.229-.545.343-.948.343-.244 0-.466-.05-.666-.147a1.126 1.126 0 0 1-.648-1.041 1.19 1.19 0 0 1 .711-1.115c.219-.103.464-.155.733-.155.534 0 .953.162 1.254.487Zm-.717 1.15a.523.523 0 0 0 .183-.411.523.523 0 0 0-.178-.409c-.118-.105-.281-.158-.487-.158a.682.682 0 0 0-.461.153.518.518 0 0 0-.177.414c0 .175.059.314.177.417a.69.69 0 0 0 .471.156.688.688 0 0 0 .472-.162Z"/>
  <path fill="url(#C)" d="M220.389 42.255a.95.95 0 0 1 .15.529.989.989 0 0 1-.202.619 1.285 1.285 0 0 1-.567.409 2.284 2.284 0 0 1-.845.145c-.32 0-.6-.049-.842-.145a1.275 1.275 0 0 1-.562-.41 1.004 1.004 0 0 1-.199-.618c0-.2.05-.376.15-.529.1-.152.243-.276.429-.37a.924.924 0 0 1-.327-.33.9.9 0 0 1-.115-.456c0-.22.062-.414.185-.577a1.18 1.18 0 0 1 .518-.379c.221-.089.476-.133.762-.133.291 0 .548.044.772.133.223.09.397.215.52.379a.935.935 0 0 1 .185.577.903.903 0 0 1-.114.456.915.915 0 0 1-.333.33c.19.094.334.218.435.37Zm-.938.903a.482.482 0 0 0 .194-.401c0-.168-.065-.3-.194-.398-.129-.098-.304-.147-.526-.147-.218 0-.39.049-.517.147a.477.477 0 0 0-.191.398c0 .17.064.305.191.403.127.098.299.147.517.147.222 0 .397-.05.526-.15Zm-.953-2.371a.424.424 0 0 0-.161.352c0 .145.052.26.157.343.106.084.249.125.43.125a.704.704 0 0 0 .437-.125.409.409 0 0 0 .163-.343.422.422 0 0 0-.163-.352.693.693 0 0 0-.437-.129.664.664 0 0 0-.426.129Z"/>
  <path fill="url(#D)" d="M223.928 40.076v.572l-1.417 3.243h-.959l1.368-3.095h-1.264v.621h-.785v-1.34h3.057Z"/>
  <path fill="url(#E)" d="M200.801 143.794c0 .095-6.185.172-13.814.172-7.631 0-13.815-.077-13.815-.172 0-.096 6.184-.173 13.815-.173 7.628 0 13.814.078 13.814.173Z"/>
  <path fill="url(#F)" d="M188.359 126.869h-11.125a1.963 1.963 0 0 0-1.963 1.962v7.345c0 1.084.879 1.963 1.963 1.963h8.346l2.498 2.22-.226-2.22h.207a1.963 1.963 0 0 0 1.962-1.963v-7.646c0-.917-.744-1.661-1.662-1.661Z"/>
  <path fill="url(#G)" d="M180.276 132.45a1.162 1.162 0 1 1-2.323 0 1.162 1.162 0 0 1 2.323 0Z"/>
  <path fill="url(#H)" d="M183.7 132.45a1.162 1.162 0 1 1-2.323 0 1.162 1.162 0 0 1 2.323 0Z"/>
  <path fill="url(#I)" d="M187.34 132.45a1.161 1.161 0 1 1-2.323.001 1.161 1.161 0 0 1 2.323-.001Z"/>
  <path fill="url(#J)" d="M196.854 122.203h-10.628a2.06 2.06 0 0 0-2.06 2.061v1.618c0 .054.044.098.098.098h4.734a2.06 2.06 0 0 1 2.06 2.06v5.334c0 .055.044.099.099.099h3.28a.1.1 0 0 1 .066.024l2.281 2.028c.067.06.172.006.163-.084l-.19-1.86a.098.098 0 0 1 .098-.108 2.06 2.06 0 0 0 2.06-2.061v-7.148a2.06 2.06 0 0 0-2.061-2.061Z"/>
  <path fill="url(#K)" d="M157.274 92.605c1.204-.505 2.06-1.747 2.067-3.21.008-1.916-1.443-3.477-3.24-3.485-1.797-.008-3.26 1.539-3.268 3.456-.006 1.476.857 2.733 2.074 3.24-5.008.754-4.78 6.196-4.78 6.196l11.841.055s.27-5.502-4.694-6.252Z"/>
  <path fill="url(#L)" d="M165.87 93.23c1.083-.454 1.854-1.572 1.86-2.888.007-1.724-1.299-3.128-2.915-3.135-1.617-.007-2.933 1.385-2.941 3.109-.005 1.329.771 2.459 1.866 2.915-1.024.154-1.489.45-2.201.78 1.908 1.577 1.685 4.561 1.677 4.812l6.876.032s.244-4.95-4.222-5.625Z"/>
  <path fill="url(#M)" d="M157.699 107.361c.199.099.357.237.474.417.116.18.174.389.174.624a1.189 1.189 0 0 1-.711 1.115c-.22.104-.464.156-.733.156-.534 0-.952-.164-1.254-.491-.301-.327-.452-.794-.452-1.401 0-.432.082-.803.245-1.112.164-.308.392-.543.684-.703.293-.16.632-.239 1.017-.239.203 0 .399.022.585.068.188.045.346.11.477.193l-.327.649c-.189-.127-.427-.191-.714-.191-.323 0-.58.095-.768.284-.189.189-.291.463-.306.823.225-.226.54-.338.943-.338.243-.001.465.048.666.146Zm-.385 1.499a.52.52 0 0 0 .177-.414.525.525 0 0 0-.177-.417.686.686 0 0 0-.471-.156.696.696 0 0 0-.474.161.52.52 0 0 0-.186.412c0 .167.06.303.18.409.12.105.284.158.491.158a.678.678 0 0 0 .46-.153Z"/>
  <path fill="url(#N)" d="M159.46 109.436a1.564 1.564 0 0 1-.58-.678c-.14-.296-.21-.65-.21-1.061 0-.41.07-.763.21-1.059.139-.297.333-.523.58-.679a1.55 1.55 0 0 1 .845-.234c.316 0 .597.078.844.234.247.156.441.382.581.679.14.296.209.649.209 1.059 0 .411-.069.765-.209 1.061-.14.296-.334.522-.581.678a1.547 1.547 0 0 1-.844.235c-.316 0-.598-.078-.845-.235Zm1.392-.812c.133-.2.2-.508.2-.926 0-.418-.067-.726-.2-.926a.622.622 0 0 0-.547-.3.618.618 0 0 0-.543.3c-.133.2-.198.508-.198.926 0 .418.066.727.198.926.133.2.314.3.543.3a.62.62 0 0 0 .547-.3Z"/>
  <path fill="url(#O)" d="M162.567 107.563c-.177-.19-.264-.445-.264-.765s.087-.575.264-.766a.889.889 0 0 1 .684-.286c.279 0 .507.096.681.286.175.191.262.446.262.766 0 .319-.087.575-.262.765a.875.875 0 0 1-.681.287.89.89 0 0 1-.684-.287Zm.975-.313c.071-.102.107-.252.107-.452s-.036-.351-.107-.453a.334.334 0 0 0-.291-.152.337.337 0 0 0-.289.155c-.072.104-.109.253-.109.45 0 .196.037.346.109.449a.336.336 0 0 0 .289.156.335.335 0 0 0 .291-.153Zm1.982-1.461h.649l-2.605 3.816h-.649l2.605-3.816Zm-.172 3.731a.862.862 0 0 1-.335-.368 1.23 1.23 0 0 1-.12-.556c0-.211.04-.396.12-.556a.868.868 0 0 1 .335-.368.938.938 0 0 1 .488-.128c.279 0 .508.096.684.286.176.192.264.447.264.766s-.088.575-.264.766a.893.893 0 0 1-.684.286.94.94 0 0 1-.488-.128Zm.779-.474c.071-.104.107-.254.107-.45 0-.197-.036-.346-.107-.45a.335.335 0 0 0-.291-.155.338.338 0 0 0-.289.153c-.072.101-.109.252-.109.452s.037.351.109.452a.338.338 0 0 0 .289.153.335.335 0 0 0 .291-.155Z"/>
  <path fill="url(#P)" d="M174.393 103.188c0 .096-6.185.173-13.814.173-7.631 0-13.815-.078-13.815-.173 0-.095 6.184-.172 13.815-.172 7.628 0 13.814.077 13.814.172Z"/>
  <path fill="url(#Q)" d="m160.128 36.12 1.394 2.824c.137.278.402.47.708.515l3.116.452a.94.94 0 0 1 .521 1.604l-2.255 2.198a.942.942 0 0 0-.27.832l.533 3.103a.94.94 0 0 1-1.365.992l-2.787-1.466a.94.94 0 0 0-.875 0l-2.788 1.466a.94.94 0 0 1-1.364-.992l.532-3.103a.942.942 0 0 0-.27-.832l-2.255-2.198a.94.94 0 0 1 .521-1.604l3.116-.452a.941.941 0 0 0 .708-.515l1.394-2.824a.94.94 0 0 1 1.686 0Z"/>
  <path fill="url(#R)" d="M157.051 58.468a.95.95 0 0 1 .15.529.995.995 0 0 1-.202.619 1.286 1.286 0 0 1-.567.409 2.288 2.288 0 0 1-.845.145c-.32 0-.6-.049-.842-.145a1.26 1.26 0 0 1-.561-.41.999.999 0 0 1-.2-.618c0-.2.05-.376.15-.529.1-.152.243-.276.428-.37a.94.94 0 0 1-.327-.33.9.9 0 0 1-.114-.456c0-.221.062-.414.185-.577a1.19 1.19 0 0 1 .518-.379c.222-.089.476-.133.763-.133.291 0 .548.044.771.133.224.09.397.215.521.379a.935.935 0 0 1 .185.577c0 .17-.038.323-.114.456a.928.928 0 0 1-.332.33c.188.094.333.218.433.37Zm-.937.903a.482.482 0 0 0 .194-.401c0-.167-.065-.3-.194-.398-.129-.098-.304-.148-.526-.148-.219 0-.39.05-.518.148a.477.477 0 0 0-.191.398c0 .17.064.305.191.403.127.098.299.147.518.147.221 0 .397-.05.526-.15Zm-.954-2.372a.424.424 0 0 0-.161.352c0 .146.052.26.158.344a.679.679 0 0 0 .43.125.701.701 0 0 0 .436-.125.408.408 0 0 0 .163-.343.422.422 0 0 0-.163-.352.69.69 0 0 0-.436-.129.666.666 0 0 0-.427.128Z"/>
  <path fill="url(#S)" d="M158.394 59.934a1.573 1.573 0 0 1-.581-.678c-.14-.296-.209-.65-.209-1.06 0-.411.069-.764.209-1.06a1.57 1.57 0 0 1 .581-.679c.247-.156.528-.234.844-.234.316 0 .598.078.845.234.247.156.441.383.58.679.14.296.21.649.21 1.06 0 .41-.07.764-.21 1.06a1.57 1.57 0 0 1-.58.678 1.549 1.549 0 0 1-.845.235c-.316 0-.597-.078-.844-.235Zm1.392-.812c.133-.2.199-.508.199-.927 0-.417-.066-.726-.199-.926a.625.625 0 0 0-.548-.3c-.229 0-.409.1-.542.3-.133.2-.199.509-.199.926 0 .418.067.727.199.927.133.2.313.3.542.3.233 0 .415-.1.548-.3Z"/>
  <path fill="url(#T)" d="M161.505 58.062c-.177-.191-.265-.446-.265-.766s.088-.575.265-.766a.886.886 0 0 1 .683-.286c.28 0 .507.096.682.286.174.19.261.447.261.766 0 .32-.087.575-.261.766a.88.88 0 0 1-.682.286.885.885 0 0 1-.683-.286Zm.975-.314c.071-.101.106-.252.106-.452s-.035-.35-.106-.453a.336.336 0 0 0-.292-.152.335.335 0 0 0-.288.155c-.073.104-.109.253-.109.45 0 .196.036.346.109.45a.335.335 0 0 0 .288.155.337.337 0 0 0 .292-.153Zm1.981-1.46h.649l-2.605 3.815h-.649l2.605-3.816Zm-.172 3.73a.86.86 0 0 1-.334-.368 1.215 1.215 0 0 1-.121-.556c0-.21.04-.396.121-.556a.863.863 0 0 1 .334-.368.934.934 0 0 1 .488-.128.89.89 0 0 1 .684.286c.176.192.265.447.265.766 0 .32-.089.575-.265.766a.889.889 0 0 1-.684.286.935.935 0 0 1-.488-.128Zm.78-.474c.071-.103.106-.253.106-.45 0-.195-.035-.345-.106-.449a.335.335 0 0 0-.292-.155.337.337 0 0 0-.288.152c-.073.102-.109.253-.109.453s.036.35.109.452a.337.337 0 0 0 .288.153.337.337 0 0 0 .292-.156Z"/>
  <path fill="url(#U)" d="M173.203 53.69c0 .096-6.185.173-13.814.173-7.631 0-13.815-.078-13.815-.173 0-.095 6.184-.172 13.815-.172 7.629 0 13.814.077 13.814.172Z"/>
  <path fill="url(#V)" d="M251.725 49.965h-6.1v11.71h6.1v-11.71Z"/>
  <path fill="url(#W)" d="M260.957 46.027h-6.1v15.651h6.1v-15.65Z"/>
  <path fill="url(#X)" d="M270.023 42.746h-6.099v18.93h6.099v-18.93Z"/>
  <path fill="url(#Y)" d="M255.487 69.943v.573l-1.417 3.243h-.96l1.369-3.096h-1.264v.622h-.785v-1.341h3.057Z"/>
  <path fill="url(#Z)" d="M256.56 73.589a1.567 1.567 0 0 1-.581-.679c-.14-.296-.209-.65-.209-1.06 0-.41.069-.764.209-1.06a1.57 1.57 0 0 1 .581-.679c.247-.156.528-.234.844-.234.317 0 .598.078.845.234.247.156.441.383.58.679.14.296.21.65.21 1.06 0 .41-.07.764-.21 1.06a1.565 1.565 0 0 1-.58.679 1.549 1.549 0 0 1-.845.234 1.54 1.54 0 0 1-.844-.234Zm1.392-.812c.133-.2.199-.509.199-.927 0-.418-.066-.727-.199-.927a.625.625 0 0 0-.548-.3c-.229 0-.409.1-.542.3-.132.2-.199.509-.199.927 0 .417.067.727.199.927.133.2.314.3.542.3.233 0 .415-.1.548-.3Z"/>
  <path fill="url(#aa)" d="M259.671 71.716c-.177-.19-.265-.446-.265-.766s.089-.575.265-.765a.883.883 0 0 1 .683-.287.88.88 0 0 1 .681.287c.175.19.262.446.262.765 0 .32-.087.575-.262.766a.879.879 0 0 1-.681.286.885.885 0 0 1-.683-.286Zm.975-.314c.07-.101.106-.252.106-.452s-.036-.35-.106-.453a.336.336 0 0 0-.292-.152.337.337 0 0 0-.288.156c-.073.103-.109.253-.109.45 0 .195.036.345.109.449a.336.336 0 0 0 .288.155.337.337 0 0 0 .292-.153Zm1.981-1.46h.649l-2.605 3.815h-.649l2.605-3.815Zm-.172 3.73a.86.86 0 0 1-.335-.368c-.08-.16-.12-.345-.12-.556 0-.21.04-.395.12-.555a.865.865 0 0 1 .335-.368.934.934 0 0 1 .488-.129.89.89 0 0 1 .684.287c.176.191.263.446.263.765 0 .32-.087.575-.263.766a.89.89 0 0 1-.684.286.934.934 0 0 1-.488-.128Zm.78-.474c.07-.103.106-.253.106-.449s-.036-.346-.106-.45a.336.336 0 0 0-.292-.155.338.338 0 0 0-.289.153c-.073.101-.109.252-.109.452s.036.35.109.452a.338.338 0 0 0 .289.153.34.34 0 0 0 .292-.156Z"/>
  <path fill="url(#ab)" d="M268.895 65.598c0 .096-4.92.173-10.988.173-6.07 0-10.989-.078-10.989-.173 0-.095 4.919-.172 10.989-.172 6.068 0 10.988.077 10.988.172Z"/>
  <path fill="url(#ac)" d="M264.741 36.758c.012.014-.207.222-.614.587l-1.738 1.527a667.224 667.224 0 0 1-5.8 4.96l-.345.292-.088.075-.085-.079-2.58-2.397.161.004-3.788 3.125-1.1.88c-.258.2-.401.303-.41.293-.009-.011.117-.134.36-.355l1.054-.932 3.728-3.197.081-.07.08.074 2.591 2.383-.173-.004.345-.291a654.84 654.84 0 0 1 5.849-4.902l1.792-1.463c.427-.34.668-.523.68-.51Z"/>
  <path fill="url(#ad)" d="M264.744 41.072c-.035 0-.067-.489-.09-1.285-.024-.796-.039-1.9-.041-3.13l.131.13h-.222a126.4 126.4 0 0 1-3.281-.038c-.839-.024-1.358-.057-1.358-.093s.519-.069 1.358-.092c.84-.024 2-.039 3.281-.039h.353v.131a116.81 116.81 0 0 1-.041 3.131c-.024.797-.055 1.285-.09 1.285Z"/>
  <path fill="#263238" d="M292.772 244.117v69.557h-99.281s-2.58-51.222 12.554-69.557h86.727Z"/>
  <path fill="#455A64" d="M220.009 313.674a.713.713 0 0 1-.011-.185l.005-.543.053-2.083c.06-1.81.129-4.429.273-7.664.393-6.46.976-15.399 2.47-25.174 1.492-9.771 3.614-18.513 5.909-24.582 1.097-3.051 2.271-5.411 3.156-6.992.438-.794.838-1.376 1.11-1.769.143-.191.252-.337.33-.431.081-.092.124-.138.129-.134a.747.747 0 0 1-.101.156l-.3.451c-.251.403-.63.993-1.047 1.794a50.23 50.23 0 0 0-3.042 7.012c-2.229 6.069-4.307 14.794-5.796 24.549-1.491 9.758-2.113 18.684-2.569 25.136l-.385 7.654-.119 2.081-.039.541a.785.785 0 0 1-.026.183Z"/>
  <path fill="#E0E0E0" d="M286.55 250.301v59.32h-61.179s2.943-49.253 11.772-59.32h49.407Z"/>
  <path fill="#455A64" d="M199.201 271.392c0-.097 3.999-.175 8.932-.175s8.932.078 8.932.175c0 .097-3.999.175-8.932.175s-8.932-.078-8.932-.175Zm2.434-3.768c0-.096 3.591-.175 8.02-.175 4.43 0 8.02.079 8.02.175 0 .097-3.59.176-8.02.176-4.429 0-8.02-.079-8.02-.176Z"/>
  <path fill="#FF725E" d="M196.77 294.236a.64.64 0 0 1-.012-.172l.001-.506c-.01-.446.043-1.101.14-1.942.252-1.651.786-4.152 2.618-6.618.444-.621 1.02-1.186 1.657-1.725.671-.493 1.409-.986 2.282-1.249.861-.267 1.812-.41 2.776-.28.96.129 1.911.478 2.778 1.013 1.724 1.097 3.071 2.859 3.935 4.87.894 2.011 1.308 4.287 1.333 6.608-.025 2.32-.438 4.598-1.332 6.609-.864 2.011-2.212 3.774-3.936 4.87a7.14 7.14 0 0 1-2.778 1.014c-.964.13-1.915-.013-2.777-.281-.873-.263-1.612-.755-2.282-1.249-.637-.539-1.212-1.104-1.657-1.725-1.832-2.467-2.366-4.967-2.617-6.618-.097-.841-.15-1.496-.14-1.941l-.001-.506a.632.632 0 0 1 .012-.172c.007 0 .014.058.024.172l.035.503c.013.444.087 1.093.205 1.924.289 1.631.86 4.095 2.678 6.487.441.603 1.008 1.147 1.629 1.665.654.47 1.368.941 2.205 1.184.826.249 1.731.381 2.647.251a6.843 6.843 0 0 0 2.646-.981c1.647-1.057 2.954-2.768 3.792-4.734.868-1.964 1.272-4.196 1.296-6.472-.024-2.275-.428-4.507-1.296-6.471-.839-1.965-2.146-3.675-3.793-4.734a6.837 6.837 0 0 0-2.646-.981c-.916-.129-1.821.002-2.646.251-.838.244-1.552.714-2.205 1.184-.621.518-1.188 1.062-1.629 1.664-1.818 2.393-2.39 4.856-2.679 6.487-.118.831-.192 1.481-.205 1.924l-.035.504a.636.636 0 0 1-.023.173Z"/>
  <path fill="#455A64" d="M94.445 182.922c-2.42-11.347-4.608-27.31-8.448-33.061-3.12-4.674-10.731-9.589-12.693-18.215a125.528 125.528 0 0 0-2.909-10.679 4.7 4.7 0 0 0-4.472-3.254H43.677a4.186 4.186 0 0 0-4.18 4.453c.33 5.136.667 13.26-.32 16.355-1.471 4.612-3.863 13.09-2.943 17.124.363 1.591 6.25 19.107 9.606 29.392a79.382 79.382 0 0 1 3.344 15.094l3.668 30.3 53.024-1.164s-9.617-37.839-11.43-46.345ZM55.063 145.22c-.324.246-.777-.013-1.094-.267-2.36-1.882-4.346-4.344-5.478-7.142-.69-1.703-.83-3.57-.962-5.403-.136-1.872-.27-3.771.092-5.612.362-1.842 1.286-3.652 2.859-4.677.655-.427 1.521-.702 2.21-.332.765.411.967 1.394 1.087 2.253l1.111 12.834c.122 2.432.334 5.276.41 7.537.01.292-.002.632-.235.809Zm12.248-7.909c-.693 2.937-2.283 5.673-4.328 7.892-.275.299-.684.624-1.04.43-.258-.139-.321-.474-.356-.764-.269-2.246-.491-5.089-.74-7.512l-.855-12.853c-.012-.867.039-1.87.732-2.392.625-.471 1.523-.331 2.236-.008 1.71.774 2.898 2.422 3.536 4.188.638 1.765.794 3.662.945 5.533.147 1.831.293 3.698-.13 5.486Z"/>
  <path fill="#263238" d="M97.209 182.922c-2.42-11.347-4.608-27.31-8.448-33.061-3.121-4.674-10.732-9.589-12.693-18.215a125.263 125.263 0 0 0-2.91-10.679 4.7 4.7 0 0 0-4.472-3.254H46.441a4.186 4.186 0 0 0-4.18 4.453c.33 5.136.667 13.26-.32 16.355-1.472 4.612-3.863 13.09-2.943 17.124.363 1.591 6.25 19.107 9.606 29.392a79.436 79.436 0 0 1 3.343 15.094l3.668 30.3 53.025-1.164s-9.617-37.839-11.431-46.345ZM57.826 145.22c-.323.246-.776-.013-1.093-.267-2.36-1.882-4.347-4.344-5.478-7.142-.69-1.703-.83-3.57-.962-5.403-.136-1.872-.27-3.771.092-5.612.362-1.842 1.286-3.652 2.858-4.677.656-.427 1.522-.702 2.21-.332.765.411.968 1.394 1.088 2.253l1.11 12.834c.122 2.432.335 5.276.41 7.537.01.292 0 .632-.235.809Zm12.25-7.909c-.694 2.937-2.284 5.673-4.33 7.892-.274.299-.683.624-1.04.43-.257-.139-.32-.474-.355-.764-.27-2.246-.492-5.089-.741-7.512l-.854-12.853c-.012-.867.038-1.87.732-2.392.625-.471 1.522-.331 2.235-.008 1.71.774 2.899 2.422 3.537 4.188.638 1.765.794 3.662.945 5.533.147 1.831.293 3.698-.13 5.486Z"/>
  <path fill="#455A64" d="M91.896 168.769c0 .097-10.721.175-23.945.175-13.227 0-23.947-.078-23.947-.175 0-.097 10.72-.175 23.947-.175 13.224 0 23.945.078 23.945.175Z"/>
  <path fill="#455A64" d="M68.777 117.855s.113-.007.334-.005c.22.012.55.039.966.154.81.215 2.078.82 2.894 2.286 1.248 3.029 2.335 7.638 3.814 13.241.462 1.37 1.118 2.742 1.918 4.103.819 1.352 1.806 2.672 2.905 3.975 1.1 1.303 2.32 2.58 3.582 3.895 1.254 1.321 2.573 2.672 3.693 4.265 1.102 1.619 1.814 3.491 2.464 5.399.644 1.915 1.186 3.906 1.674 5.944.991 4.074 1.8 8.336 2.635 12.696.833 4.363 1.627 8.622 2.596 12.692l2.787 11.746 4.811 19.869 3.245 13.395.868 3.645c.093.406.166.722.217.95.048.215.063.327.063.327s-.039-.106-.097-.318l-.251-.942-.932-3.629-3.354-13.368-4.884-19.852-2.807-11.744c-.976-4.076-1.775-8.344-2.607-12.704-.836-4.359-1.64-8.619-2.624-12.682-.484-2.033-1.022-4.015-1.657-5.918-.642-1.894-1.347-3.749-2.414-5.322-1.092-1.561-2.4-2.912-3.649-4.235-1.257-1.318-2.48-2.604-3.582-3.921-1.101-1.315-2.093-2.652-2.915-4.022-.802-1.381-1.46-2.773-1.921-4.164-.443-1.4-.72-2.76-1.027-4.031a132.074 132.074 0 0 0-1.799-6.679c-.303-.939-.503-1.836-.872-2.544a4.678 4.678 0 0 0-2.793-2.283c-.82-.244-1.285-.187-1.28-.219Z"/>
  <path fill="#E0E0E0" d="M115.349 247.764h-5.109v56.249h5.109v-56.249Z"/>
  <path fill="#E0E0E0" d="M117.477 259.316h-9.579v40.51h9.579v-40.51Zm-58.859-20.638s31.009 9.921 53.4 9.921 48.216-9.921 48.216-9.921H57.214"/>
  <path fill="#263238" d="M52.414 225.047v10.243a4.084 4.084 0 0 0 4.084 4.084h101.795a4.083 4.083 0 0 0 4.083-4.084v-4.903a4.083 4.083 0 0 0-4.035-4.083l-105.927-1.257Zm11.439 75.912s20.407-19.37 49.316-18.944c28.909.425 48.559 18.944 48.559 18.944l-2.834 3.193s-23.051-13.197-47.426-12.133c-24.374 1.065-45.158 12.133-45.158 12.133l-2.457-3.193Z"/>
  <path fill="#455A64" d="M69.86 303.57c4.912 6.449-2.378 13.739-8.827 8.827-4.91-6.449 2.378-13.738 8.827-8.827Zm48.84 4.074a6.025 6.025 0 1 1-12.05 0 6.025 6.025 0 0 1 12.05 0Zm50.589 0a6.024 6.024 0 1 1-12.049 0 6.025 6.025 0 0 1 12.049 0Z"/>
  <path fill="#263238" d="m94.096 194.732.664 2.88h61.015a2.461 2.461 0 0 0 1.024-4.701c-3.875-1.772-14.539-5.629-33.577-5.406-26.991.316-29.126 4.565-29.126 4.565v2.662Z"/>
  <path fill="#263238" d="M137.63 195.238c-.116.933-10.205 35.196-10.205 35.196h-10.431l10.074-35.196h10.562Z"/>
  <path fill="#455A64" d="M156.819 197.609c0 .097-13.725.175-30.652.175-16.933 0-30.655-.078-30.655-.175 0-.097 13.722-.175 30.655-.175 16.927 0 30.652.078 30.652.175Z"/>
  <path fill="#263238" d="M158.342 239.371c.002.005-.078.038-.237.098l-.708.254-2.734.945c-2.371.833-5.839 1.932-10.158 3.171-2.172.578-4.535 1.274-7.122 1.823-1.291.279-2.613.636-4.001.878l-4.273.782c-5.871.933-12.411 1.504-19.274 1.353-1.717-.041-3.413-.061-5.079-.221l-2.481-.186-1.226-.092-1.21-.145-4.728-.579-4.505-.745c-1.47-.221-2.887-.527-4.267-.808l-4.011-.829c-2.57-.619-4.97-1.163-7.147-1.721l-5.858-1.567c-1.72-.475-3.19-.925-4.396-1.274l-2.772-.827-.719-.223c-.161-.053-.243-.082-.24-.088.001-.006.086.012.251.053l.728.19 2.79.763 4.41 1.217 5.867 1.515c2.178.542 4.58 1.072 7.148 1.677l4.009.81c1.378.275 2.794.577 4.261.793l4.498.732 4.717.569 1.207.142 1.223.09 2.474.184c1.66.158 3.352.176 5.062.217 6.842.151 13.358-.408 19.216-1.321l4.265-.765c1.385-.236 2.706-.587 3.997-.859 2.584-.536 4.947-1.217 7.12-1.779 4.323-1.207 7.799-2.269 10.182-3.062l2.754-.882.719-.221c.162-.046.246-.068.248-.062Zm-40.868 19.947c0 .097-2.144.175-4.789.175-2.645 0-4.789-.078-4.789-.175 0-.097 2.145-.175 4.789-.175 2.645 0 4.789.078 4.789.175Z"/>
  <path fill="#455A64" d="M138.744 104.347a7.491 7.491 0 1 0-14.586-3.423 7.491 7.491 0 0 0 14.586 3.423Z"/>
  <path fill="#263238" d="M117.104 74.209c.173-2.965 2.214-3.174 3.723-2.686 2.003-1.2 4.831-.774 6.394.963 1.476-.632 3.277-.43 4.577.51 1.301.943 2.053 2.592 1.912 4.191 1.626-.044 3.221 1.042 3.775 2.57.554 1.53.026 3.386-1.25 4.393 1.659.79 2.537 2.92 1.919 4.65-.62 1.73-2.65 2.819-4.434 2.377l-16.978-13.798c-.979-1.247.27-1.587.362-3.17Z"/>
  <path fill="#FFBF9D" d="M134.198 91.766c.414-8.282-5.602-15.494-13.825-16.572l-.817-.107c-8.878-.641-14.382 6.54-14.777 15.432l-2.572 29.506-.475 5.603 19.796 6.743 1.316-11.651s8.643-.206 9.858-8.66c.586-4.083 1.111-12.59 1.496-20.294Z"/>
  <path fill="#FF9A6C" d="M122.918 120.719s-5.45-.384-10.67-4.703c0 0 1.811 6.436 10.36 6.782l.31-2.079Z"/>
  <path fill="#263238" d="M131.458 99.063c-.061.642-.655 1.119-1.326 1.067-.67-.051-1.165-.612-1.103-1.253.061-.642.654-1.12 1.324-1.069.672.052 1.166.614 1.105 1.255Zm.421-2.941c-.171.138-.998-.66-2.3-.827-1.298-.186-2.341.358-2.461.18-.06-.08.13-.344.586-.593.449-.247 1.185-.45 1.996-.34.81.111 1.453.499 1.805.855.359.361.457.664.374.725Zm-11.942 1.48c-.061.641-.655 1.119-1.326 1.067-.67-.051-1.165-.612-1.104-1.254.061-.641.655-1.12 1.325-1.067.671.05 1.166.612 1.105 1.254Zm-.495-3.302c-.171.14-1-.66-2.301-.826-1.297-.186-2.34.358-2.46.18-.06-.08.128-.344.585-.592.449-.248 1.186-.45 1.996-.34.81.11 1.452.499 1.804.855.359.36.458.663.376.724Zm3.021 10.203c.003-.075.831-.109 2.163-.104.337.01.66-.015.746-.235.109-.23.018-.606-.092-1.014-.208-.845-.423-1.73-.651-2.659-.893-3.782-1.491-6.873-1.339-6.909.153-.034 1 3.003 1.892 6.784l.608 2.669c.076.394.236.851.001 1.327-.122.236-.39.385-.61.414-.222.037-.409.017-.575.005-1.329-.103-2.148-.204-2.143-.278Zm-3.945.392c.213.016.03 1.429 1.108 2.59 1.075 1.164 2.602 1.203 2.587 1.402.008.091-.371.23-1.009.164a3.555 3.555 0 0 1-2.17-1.09c-.656-.712-.866-1.574-.838-2.16.023-.597.226-.927.322-.906Zm1.435-14.314c-.2.317-1.281-.133-2.645-.289-1.361-.187-2.536-.022-2.632-.376-.04-.169.228-.447.743-.672.512-.225 1.273-.37 2.091-.267.816.104 1.506.43 1.929.775.429.344.603.678.514.829Zm12.095 1.926c-.245.287-1.132-.066-2.218-.133-1.083-.105-2.015.103-2.212-.219-.086-.155.074-.447.489-.709.41-.262 1.083-.46 1.828-.4.745.06 1.379.36 1.742.684.369.324.48.637.371.777Z"/>
  <path fill="#263238" d="M133.889 87.773s-1.537-5.597-3.932-7.17c-2.899-1.904-4.678 1.32-7.52.108-2.842-1.212-5.609-3.037-8.923-1.151-3.628 2.063-2.311 4.017-3.007 7.748-2.825 15.124-6.172 19.068-6.022 11.788.016-.797-2.083-1.709-1.971-5.072.146-4.362.666-9.612 2.028-12.543 1.148-2.47 2.851-4.057 5.742-5.674 4.564-2.552 10.284-1.87 14.111-.97 3.827.898 10.718 6.341 9.494 12.936Z"/>
  <path fill="#FFBF9D" d="M105.062 98.936c.118-1.314-.873-2.494-2.192-2.54-1.599-.057-3.474.61-3.798 3.886-.574 5.814 5.381 5.191 5.407 5.025.019-.112.364-3.936.583-6.37Z"/>
  <path fill="#FF9A6C" d="M103.424 102.992c-.024-.021-.108.061-.288.123-.174.06-.466.084-.758-.059-.592-.286-1.012-1.312-.937-2.363a3.347 3.347 0 0 1 .427-1.422c.219-.408.523-.677.838-.702a.52.52 0 0 1 .571.337c.061.17.013.283.043.295.014.016.134-.085.111-.33a.646.646 0 0 0-.192-.386.767.767 0 0 0-.545-.203c-.452-.014-.896.359-1.147.796-.276.437-.469.99-.511 1.586-.079 1.175.413 2.331 1.229 2.657.398.147.751.057.941-.062.193-.128.237-.254.218-.267Z"/>
  <path fill="#263238" d="M106.641 87.733c.684.611 1.409 1.245 2.303 1.453.894.209 1.999-.176 2.269-1.053.121-.394.084-.874.39-1.151.365-.33.933-.138 1.411-.022 1.66.399 3.54-.565 4.184-2.147.344.7 1.35.803 2.055.469.704-.334 1.213-.964 1.797-1.48.585-.515 1.367-.942 2.118-.733.42.117.787.424 1.223.442.769.032 1.257-.81 1.47-1.55.214-.738.419-1.607 1.117-1.933.647-.302 1.391.02 2.078.215.686.195 1.611.15 1.88-.512.141-.347.037-.744-.121-1.084-.715-1.538-2.598-2.426-4.24-2-.315-1.988-1.909-3.71-3.866-4.181-1.956-.47-4.159.343-5.341 1.97a5.292 5.292 0 0 0-4.455-1.813 5.292 5.292 0 0 0-4.037 2.613c-1.36-.555-3.036-.22-4.079.813-1.043 1.034-1.392 2.708-.849 4.072-1.119.458-2.145 1.375-2.324 2.571-.179 1.195.832 2.543 2.03 2.38-.59.871-.375 2.187.46 2.827.835.64 2.162.504 2.85-.293"/>
  <path fill="#455A64" d="M103.23 85.002c-.018-.017-.17.473.215 1.16.192.328.548.689 1.07.844.51.156 1.166.112 1.713-.263l-.241-.069c.221.536.533 1.093.966 1.596.28.32.6.604.969.794.36.201.79.272 1.152.262.744.015 1.436-.295 1.796-.74.37-.432.526-.858.627-1.143.097-.289.125-.454.106-.462-.025-.008-.095.144-.227.412-.134.264-.323.662-.68 1.031-.657.758-2.501.948-3.49-.375a5.88 5.88 0 0 1-.924-1.498l-.08-.183-.16.115a1.771 1.771 0 0 1-1.454.261 1.72 1.72 0 0 1-.976-.69c-.394-.587-.328-1.06-.382-1.052Z"/>
  <path fill="#263238" d="m155.484 279.1-5.894 17.737s16.05 11.947 15.28 15.331l-34.802-10.192 8.049-28.013 17.367 5.137Z"/>
  <path fill="#000" d="m155.484 279.1-5.894 17.737s16.05 11.947 15.28 15.331l-34.802-10.192 8.049-28.013 17.367 5.137Z" opacity=".3"/>
  <path fill="#E0E0E0" d="M139.274 292.185c-.728-.013-1.414.608-1.457 1.334-.044.726.582 1.431 1.309 1.456.727.026 1.575-.694 1.536-1.421-.038-.726-.818-1.513-1.53-1.364"/>
  <path fill="#fff" d="m130.068 301.991.922-2.792 33.023 10.815s1.352 1.128.857 2.168l-34.802-10.191Z" opacity=".6"/>
  <path fill="#E0E0E0" d="M150.182 296.83c-.056.169-.928-.003-1.924.298-1.004.276-1.651.885-1.788.773-.146-.079.404-1.021 1.617-1.365 1.209-.354 2.177.149 2.095.294Zm3.24 2.596c-.01.176-.83.25-1.618.799-.804.527-1.177 1.261-1.344 1.204-.167-.02.006-1.05.999-1.714.985-.674 2.006-.452 1.963-.289Zm.794 4.965c-.165-.009-.153-.927.556-1.73.703-.808 1.612-.941 1.643-.778.055.168-.607.516-1.18 1.184-.587.655-.845 1.357-1.019 1.324Zm-3.126-11.743c-.117.135-.828-.328-1.808-.544-.975-.236-1.817-.132-1.863-.304-.062-.152.852-.567 2.002-.296 1.153.261 1.791 1.036 1.669 1.144Z"/>
  <path fill="#263238" d="m161.036 283.69-.734 18.677s18.737 7.018 18.937 10.483l-36.263-.123-.05-29.147 18.11.11Z"/>
  <path fill="#E0E0E0" d="M149.088 300.761c-.703.19-1.19.977-1.03 1.687.161.71.957 1.212 1.663 1.035.705-.177 1.32-1.104 1.081-1.791-.24-.688-1.207-1.227-1.85-.886"/>
  <path fill="#fff" d="m142.951 312.719.11-2.938 34.727 1.217s1.612.708 1.426 1.844l-36.263-.123Z" opacity=".6"/>
  <path fill="#fff" d="M160.886 302.185c-.007.177-.892.254-1.765.821-.888.544-1.34 1.309-1.503 1.238-.163-.035.105-1.093 1.174-1.759 1.063-.677 2.133-.462 2.094-.3Zm3.788 1.583c.04.171-.728.47-1.332 1.217-.626.729-.78 1.538-.957 1.53-.167.027-.285-1.01.483-1.925.76-.921 1.803-.991 1.806-.822Zm2.146 4.574c-.161.038-.404-.848.054-1.816.451-.972 1.287-1.352 1.362-1.204.099.146-.44.664-.804 1.465-.383.792-.436 1.538-.612 1.555Zm-6.249-10.431c-.075.162-.887-.085-1.887-.021-1.003.045-1.782.378-1.874.226-.102-.129.661-.782 1.841-.841 1.179-.069 2.007.498 1.92.636Z"/>
  <path fill="#455A64" d="M116.99 190.862s42.517 9.86 47.912 17.382c4.561 6.359-8.304 76.605-8.304 76.605l-23.403-1.667 3.136-61.658-48.696-15.479 7.357-18.699 21.998 3.516Z"/>
  <path fill="#455A64" d="M120.695 197.524s44.431 10.797 48.923 18.468c2.097 3.581.722 15.333-.061 20.882-.527 3.737-8.384 56.041-8.384 56.041h-19.207l.42-59.076-46.166-9.307s-24.781 1.888-25.745-8.682l10.341-14.017 24.415-12.067 15.464 7.758Z"/>
  <path fill="#263238" d="M117.309 196.166s.22.052.645.168l1.885.525 7.246 2.027c3.146.882 6.996 1.956 11.445 3.28 4.444 1.339 9.493 2.918 14.961 4.989a146.619 146.619 0 0 1 8.482 3.495l2.204.998c.737.356 1.459.757 2.164 1.203.705.445 1.389.946 2.019 1.521.627.577 1.216 1.231 1.618 2.02 1.5 6.809.591 14.25-.519 21.858-.486 3.832-1.11 7.741-1.698 11.741l-1.83 12.236a1777702.192 1777702.192 0 0 0-4.598 30.712l-.02.139h-.142l-19.207-.003h-.162l.002-.162.456-59.075.1.123-32.796-6.668-8.955-1.839-2.332-.488c-.525-.113-.793-.179-.793-.179s.273.043.8.143l2.339.453 8.967 1.774 32.819 6.56.101.02-.001.103-.384 59.076-.161-.162 19.207-.003-.162.14.746-4.979a203528.032 203528.032 0 0 1 5.695-37.965c.592-3.999 1.218-7.907 1.709-11.737l.765-5.666c.28-1.862.414-3.703.486-5.53a72.364 72.364 0 0 0-.006-5.394 57.763 57.763 0 0 0-.164-2.629c-.093-.868-.103-1.744-.506-2.477-.378-.746-.945-1.381-1.555-1.944a14.002 14.002 0 0 0-1.98-1.497 21.568 21.568 0 0 0-2.135-1.191l-2.194-1a146.988 146.988 0 0 0-8.462-3.51c-5.454-2.083-10.495-3.675-14.931-5.03-4.442-1.34-8.287-2.432-11.427-3.333l-7.229-2.085-1.876-.557a21.852 21.852 0 0 1-.636-.201Z"/>
  <path fill="url(#ae)" d="M123.486 129.354s5.536 2.251 8.692 9.916c2.217 5.384 14.535 22.387 14.535 22.387l32.762 7.274 1.119 10.45-52.399-.432-7.283-23.188 2.574-26.407Z"/>
  <path fill="url(#af)" d="m122.182 126.457 5.059 5.515-10.475 53.77 4.47 6.151-50.764 23.956s-3.872-21.91-1.928-36.715c1.928-14.686 6.945-31.3 12.491-44.191 2.306-5.359 9.192-10.55 14.57-12.807l7.395-2.042 18.795 10.479.387-4.116Z"/>
  <path fill="url(#ag)" d="M125.503 133.014c.011.002-.005.165-.047.475l-.2 1.353c-.179 1.174-.46 2.87-.832 4.961-.739 4.183-1.855 9.944-3.179 16.287a997.16 997.16 0 0 1-3.532 16.216l-1.132 4.9-.324 1.329c-.078.303-.125.461-.135.458-.011-.003.013-.165.07-.473l.264-1.342 1.03-4.922 3.438-16.233a1015.422 1015.422 0 0 0 3.272-16.263l.935-4.94.26-1.343c.063-.305.101-.465.112-.463Z"/>
  <path fill="url(#ah)" d="M81.037 204.977c-.007-.009.093-.111.293-.299l.881-.81c.383-.353.858-.776 1.429-1.245.568-.472 1.203-1.025 1.943-1.588 1.454-1.161 3.247-2.465 5.293-3.832a87.5 87.5 0 0 1 6.883-4.083 87.374 87.374 0 0 1 7.257-3.377c2.283-.917 4.372-1.661 6.151-2.206.883-.294 1.698-.505 2.408-.708a33.327 33.327 0 0 1 1.834-.476l1.166-.27c.268-.059.409-.084.412-.073.003.012-.133.058-.396.137l-1.15.33c-.5.135-1.112.306-1.815.529-.704.219-1.512.445-2.388.752-1.765.572-3.838 1.336-6.107 2.264a94.015 94.015 0 0 0-7.22 3.388 93.814 93.814 0 0 0-6.869 4.045c-2.047 1.349-3.849 2.628-5.317 3.762-.747.55-1.39 1.089-1.97 1.546-.58.455-1.066.863-1.46 1.2l-.921.763c-.214.173-.33.26-.337.251Z"/>
  <path fill="url(#ai)" d="M106.275 186.426c.043.079-4.739 2.767-10.68 6.002-5.943 3.236-10.794 5.794-10.837 5.715-.043-.08 4.738-2.767 10.68-6.003 5.942-3.235 10.794-5.794 10.837-5.714Z"/>
  <path fill="url(#aj)" d="M88.994 147.582c3.052 13.19 12.381 25.011 24.805 30.391-8.261-8.733-17.24-19.753-24.805-30.391Z" opacity=".3"/>
  <path fill="url(#ak)" d="M124.724 137.537c1.204 5.585.31 12.56-2.492 17.539l-.699-1.449c.989-4.194 2.407-11.642 3.191-16.09Z" opacity=".3"/>
  <path fill="#FFBF9D" d="M178.844 169.444c.282-.423 3.953-4.659 4.941-4.659.989 0 2.119 1.13 2.119 1.13s1.27-.565 2.118-.283c.847.283 4.8 3.672 4.8 4.943v2.118s.142.706 0 1.694c-.141.989-2.541 2.683-2.541 2.683h-13.548s-2.59-1.746-2.265-3.389c.323-1.644 4.376-4.237 4.376-4.237Z"/>
  <path fill="#FF9A6C" d="M185.903 165.914c.012-.02.313.153.846.48l2.24 1.413c.232.159.487.286.74.506.243.218.438.51.547.846.119.346.096.703.123 1.044l.057 1.078.232 4.803.035.77.006.134-.13.032-.829.205-.021.006h-.021a1.764 1.764 0 0 1-1.062-.399 2.94 2.94 0 0 1-.685-.822c-.347-.598-.554-1.224-.711-1.822a16.352 16.352 0 0 1-.466-3.257l.073.102-2.368-.935c-.555-.226-.856-.361-.849-.382.008-.02.324.075.892.265l2.404.839.069.024.006.077c.069.926.208 2.024.521 3.191.16.58.369 1.185.697 1.738.318.545.829 1.05 1.483 1.055l-.042.005.829-.207-.124.166-.035-.77-.206-4.804-.043-1.079c-.021-.356.002-.692-.094-.975a1.7 1.7 0 0 0-.46-.742c-.203-.187-.472-.337-.696-.498l-2.183-1.5c-.511-.36-.788-.569-.775-.587Zm-9.171 10.674c-.001-.025.323-.067.907-.122l2.47-.198.016-.001.022.005c.802.186 1.749.371 2.79.504.52.066 1.066.117 1.627.13.545.013 1.163-.019 1.49-.424.18-.217.233-.524.235-.829.006-.309-.045-.616-.054-.954-.01-.237-.175-.495-.37-.693a2.824 2.824 0 0 0-.671-.504c-.985-.553-2.033-.566-2.905-.514-.898.023-1.636-.336-1.921-.769-.295-.423-.268-.731-.252-.725.027-.009.049.281.353.646.293.372.963.663 1.817.617.845-.081 1.99-.103 3.055.481.263.144.523.318.749.549.219.229.441.511.467.91.008.29.064.619.058.959-.002.336-.055.721-.304 1.029-.219.279-.548.419-.852.485-.309.069-.617.063-.903.057a15.157 15.157 0 0 1-1.66-.147 24.38 24.38 0 0 1-2.812-.568l.039.004-2.476.089c-.587.012-.913.007-.915-.017Z"/>
  <path fill="#FF9A6C" d="M190.538 176.522c-.073-.048.486-1.104 1.09-2.457.609-1.352 1.162-2.431 1.25-2.39.075.036-.338 1.166-.952 2.526-.61 1.366-1.309 2.374-1.388 2.321Z"/>
  <path fill="url(#al)" d="M88.287 146.62s23.883 32.512 27.618 32.512h34.894v-13.22l-26.389-6.224s-12.995-26.89-15.868-30.338c-2.873-3.448-10.563-8.079-16.31-2.908-5.746 5.173-3.945 20.178-3.945 20.178Z"/>
  <path fill="#FFBF9D" d="m150.775 167.192 5.716-.458s.125-2.122 1.373-2.871c1.248-.749 1.123-2.371 1.871-2.246.749.125 1.249-.006 1.249-.006l4.742-3.987 3.993-2.621 3.12-.624s1.872.499 0 2.246l-1.996 1.124-1.747 1.747 3.992-1.96a1.358 1.358 0 0 1 1.179-.01c.917.434 2.616 1.271 3.065 1.72.624.624 0 1.248 0 1.248l1.747 1.498s.375 1.996-1.622 1.497l-1.622-.375-2.122 2.122s7.239-1.497 7.738-1.248c.499.249 1.123 1.372 0 2.371-1.123.998-5.491.749-6.489 1.747-.998.998-7.599 7.026-9.222 7.4-1.622.375-14.939 3.627-14.939 3.627l-.026-11.941Z"/>
  <path fill="url(#am)" d="M179.081 161.99c-.03.025-.38-.261-.982-.696a36.423 36.423 0 0 0-1.059-.752c-.2-.139-.415-.278-.639-.413-.222-.125-.47-.291-.669-.275-.487.031-.963.368-1.395.579-.43.233-.811.454-1.13.641-.638.377-1.029.62-1.057.581-.025-.035.319-.345.931-.776.306-.215.68-.459 1.107-.709.215-.126.438-.252.681-.379.243-.124.522-.252.851-.265a.72.72 0 0 1 .26.03c.083.026.149.057.219.088.131.066.253.137.369.209.231.145.446.293.646.441.4.293.746.574 1.029.818.569.484.877.843.838.878Z"/>
  <path fill="url(#an)" d="M161.552 161.133c.057.076-.54.589-1.229 1.256-.688.672-1.261 1.222-1.331 1.156-.062-.057.398-.702 1.103-1.392.711-.687 1.407-1.09 1.457-1.02Z"/>
  <path fill="url(#ao)" d="M108.541 129.352s.558.644 1.382 2.012c.826 1.365 1.988 3.399 3.388 6.04 2.812 5.275 6.685 12.917 11.222 22.226l-.092-.074 26.395 6.201.124.029v.127l.003 13.219v.164h-1.747l-29.657-.012-3.374-.004c-.141-.002-.267.01-.438-.019a1.633 1.633 0 0 1-.428-.143c-.267-.121-.499-.28-.73-.437a14.306 14.306 0 0 1-1.27-1.047c-1.599-1.47-3.005-3.032-4.351-4.549-2.677-3.048-5.053-5.986-7.203-8.68a529.582 529.582 0 0 1-9.949-12.946 5357.842 5357.842 0 0 1-2.633-3.573l-.674-.937a6.82 6.82 0 0 1-.22-.327s.088.101.246.307l.7.918 2.683 3.535c2.337 3.065 5.718 7.501 10.028 12.879 2.16 2.683 4.545 5.61 7.225 8.644 1.347 1.51 2.756 3.065 4.341 4.515.397.359.809.711 1.247 1.023.221.15.445.302.682.408.246.122.447.149.745.135l3.374-.004 29.656-.012h1.584l-.164.164.003-13.219.124.156-26.384-6.248-.063-.015-.028-.059c-4.509-9.319-8.345-16.977-11.115-22.271a148.512 148.512 0 0 0-3.32-6.071c-.414-.68-.718-1.209-.965-1.536-.235-.338-.347-.519-.347-.519Z"/>
  <path fill="url(#ap)" d="M105.072 127.229c-.022.056-.817-.267-2.155-.57a17.253 17.253 0 0 0-2.376-.36 18.57 18.57 0 0 0-2.938.021c-1.04.103-2.017.298-2.891.529-.87.246-1.641.52-2.268.798-1.257.548-1.977 1.014-2.01.963-.012-.019.159-.148.481-.365.318-.224.807-.504 1.433-.809.623-.31 1.399-.611 2.281-.877.887-.252 1.883-.46 2.943-.565a16.99 16.99 0 0 1 2.996.004c.917.097 1.735.248 2.406.436.671.182 1.204.366 1.559.526.356.154.548.248.539.269Z"/>
  <path fill="url(#aq)" d="M119.612 165.703c-.077-.03.54-1.528 1.779-3.073 1.23-1.553 2.552-2.487 2.599-2.42.063.077-1.141 1.105-2.343 2.625-1.212 1.51-1.947 2.913-2.035 2.868Z"/>
  <path fill="url(#ar)" d="M118.809 161.65c-.055-.063.87-.85 2.264-1.343 1.389-.502 2.604-.481 2.602-.398.008.098-1.154.222-2.492.707-1.342.473-2.318 1.115-2.374 1.034Z"/>
  <path fill="#455A64" d="m103.206 93.892-.022.611h2.157c1.886-18.98 12.071-20.226 11.848-20.39-.043-.837.121-1.524.839-2.248-14.304 1.703-14.933 21.72-14.822 22.027Z"/>
  <path fill="#455A64" d="M102.508 107.616a7.491 7.491 0 1 0 0-14.982 7.491 7.491 0 0 0 0 14.982Z"/>
  <path fill="#263238" d="M106.606 99.919c-.036.002-.026-.338-.184-.91a3.78 3.78 0 0 0-1.387-2.005c-.818-.63-2.16-.98-3.456-.495-1.285.445-2.394 1.813-2.38 3.41-.015 1.596 1.094 2.965 2.38 3.409 1.297.485 2.639.135 3.456-.494a3.786 3.786 0 0 0 1.387-2.006c.158-.572.148-.911.184-.91.012 0 .019.084.022.244.006.16-.011.399-.075.698a3.775 3.775 0 0 1-1.37 2.168c-.851.697-2.294 1.11-3.712.6a3.89 3.89 0 0 1-1.843-1.369 3.961 3.961 0 0 1-.775-2.34c.008-.86.285-1.695.775-2.34a3.882 3.882 0 0 1 1.843-1.37c1.418-.51 2.861-.096 3.712.6a3.772 3.772 0 0 1 1.37 2.168c.065.3.083.538.076.698-.004.16-.011.244-.023.244ZM59.824 194.73l.664 2.88h61.016a2.461 2.461 0 0 0 1.024-4.701c-3.875-1.771-14.54-5.629-33.577-5.406-26.992.316-29.127 4.565-29.127 4.565v2.662Z"/>
  <path fill="#263238" d="M103.36 195.236c-.116.933-10.205 35.196-10.205 35.196h-10.43l10.074-35.196h10.561Z"/>
  <path fill="#455A64" d="M122.553 197.607c0 .097-13.725.175-30.652.175-16.933 0-30.655-.078-30.655-.175 0-.097 13.722-.175 30.655-.175 16.927 0 30.652.078 30.652.175Z"/>
  <path fill="#E0E0E0" d="M237.092 135.549c-.071.364 11.579 43.127 11.579 43.127l-18.6.057-.087 1.949h22.323l-12.672-49.602-2.543 4.469Z"/>
  <path fill="#263238" d="M237.093 135.55s.044-.101.148-.293l.469-.858 1.871-3.351.077-.138.04.154 12.774 49.576.054.211h-.218l-15.59.004-6.731-.001h-.18l.008-.18.087-1.948.007-.163.163-.001 18.6-.046-.154.202-8.348-31.057-2.327-8.907-.587-2.376a9.048 9.048 0 0 1-.163-.828l3.265 12.06 8.469 31.024.055.201-.209.001-18.599.069.17-.164-.086 1.948-.172-.18 6.731-.001 15.591.004-.164.211-12.57-49.628.117.016-1.921 3.313-.499.844a5.256 5.256 0 0 1-.178.282Z"/>
  <path fill="#E0E0E0" d="m248.994 85.388-24.047 77.057 4.524 1.412 24.047-77.058-4.524-1.411Z"/>
  <path fill="#263238" d="M224.951 162.453s.031-.128.108-.385l.345-1.148 1.359-4.435 5.066-16.406c4.325-13.921 10.318-33.209 17.008-54.735l.051-.164.165.051 4.52 1.41.004.002.165.052-.052.165c-11.246 36.033-20.833 66.587-24.162 77.022l-.016.052-.052-.017-3.415-1.098-.828-.273a7.875 7.875 0 0 1-.266-.093s.1.024.29.079l.848.251 3.403 1.03-.069.035c3.198-10.476 12.691-41.059 23.937-77.091l.114.216-.004-.001-4.52-1.411.217-.114-17.108 54.57-5.177 16.415-1.417 4.458-.375 1.162c-.087.262-.139.401-.139.401Z"/>
  <path fill="#E0E0E0" d="M209.924 177.066h-47.863v3.545h47.863v-3.545Z"/>
  <path fill="#263238" d="M209.924 180.614a2.085 2.085 0 0 1-.011-.236l-.015-.679-.036-2.629.062.062c-7.295.065-25.983.111-47.861.111h-.002c.077-.077-.174.172.172-.173v1.803l-.001 1.741-.173-.173c13.355.029 25.291.055 33.911.072l10.198.052 2.774.024.726.012c.166.005.252.009.256.013.004.004-.074.008-.231.012-.175.004-.407.007-.704.012l-2.735.024-10.157.052-34.038.072h-.172v-3.716l.173-.173h.002c21.877 0 40.566.045 47.862.111h.063l-.001.062-.035 2.665-.015.665a1.31 1.31 0 0 1-.012.214Z"/>
  <path fill="#263238" d="M193.405 180.786c-.096 0-.173-.798-.173-1.782 0-.985.078-1.783.173-1.783.095 0 .173.798.173 1.783 0 .984-.077 1.782-.173 1.782Z"/>
  <path fill="#455A64" d="M96.753 188.74h-7.415v124.876h7.415V188.74Z"/>
  <path fill="#263238" d="M96.757 313.616s-.007-.224-.012-.649l-.012-1.882-.025-7.226-.052-26.615-.073-88.504.175.174h-7.416l.175-.174c-.055 58.369-.103 107.873-.12 124.876l-.055-.055 5.57.032 1.382.013c.306.003.463.01.463.01s-.143.007-.444.011l-1.368.012-5.604.032h-.055v-.055l-.12-124.876v-.174h7.767v.174l-.073 88.632-.053 26.574-.024 7.186-.012 1.859c-.005.417-.014.625-.014.625Z"/>
  <path fill="#455A64" d="M239.062 186.266h-7.416v127.355h7.416V186.266Z"/>
  <path fill="#263238" d="M239.058 313.621s-.008-.228-.012-.662l-.012-1.92-.024-7.369-.053-27.143-.073-90.262.176.177h-7.417l.176-.177-.12 127.355-.056-.055 5.571.032 1.381.013c.306.004.463.011.463.011s-.143.007-.444.011l-1.368.013-5.604.032h-.056v-.056l-.119-127.356v-.177h7.767v.177l-.073 90.391-.053 27.103-.024 7.328-.012 1.896c-.005.426-.014.638-.014.638Z"/>
  <path fill="#455A64" d="M269.535 180.613H36.015v7.782h233.52v-7.782Z"/>
  <path fill="#263238" d="m269.534 188.394-.042-7.781.042.042-233.508.131h-.012l.173-.173v7.782l-.173-.173 165.365.071 49.875.053 13.546.024 3.525.012c.795.004 1.209.012 1.209.012s-.397.008-1.185.012l-3.502.012-13.506.025-49.834.052-165.493.071h-.172v-8.127h.184l233.508.132h.042v.042c-.012 2.668-.019 4.616-.024 5.901-.008 1.278-.018 1.88-.018 1.88Z"/>
  <path fill="#263238" d="M150.483 188.17c-.095 0-.172-1.692-.172-3.778 0-2.087.077-3.779.172-3.779.096 0 .173 1.691.173 3.779 0 2.086-.078 3.778-.173 3.778Z"/>
  <defs>
    <linearGradient id="a" x1="257.11" x2="281.2" y1="131.638" y2="132.039" gradientUnits="userSpaceOnUse">
      <stop stop-color="#FB8D48"/>
      <stop offset=".2" stop-color="#ED7136"/>
      <stop offset=".4" stop-color="#C54E47"/>
      <stop offset=".4" stop-color="#C14F49"/>
      <stop offset=".6" stop-color="#9D3863"/>
      <stop offset=".8" stop-color="#5E1F72"/>
    </linearGradient>
    <linearGradient id="b" x1="188.139" x2="226.756" y1="86.57" y2="87.791" gradientUnits="userSpaceOnUse">
      <stop stop-color="#FB8D48"/>
      <stop offset=".2" stop-color="#ED7136"/>
      <stop offset=".4" stop-color="#C54E47"/>
      <stop offset=".4" stop-color="#C14F49"/>
      <stop offset=".6" stop-color="#9D3863"/>
      <stop offset=".8" stop-color="#5E1F72"/>
    </linearGradient>
    <linearGradient id="c" x1="195.619" x2="198.627" y1="82.258" y2="82.31" gradientUnits="userSpaceOnUse">
      <stop stop-color="#FB8D48"/>
      <stop offset=".2" stop-color="#ED7136"/>
      <stop offset=".4" stop-color="#C54E47"/>
      <stop offset=".4" stop-color="#C14F49"/>
      <stop offset=".6" stop-color="#9D3863"/>
      <stop offset=".8" stop-color="#5E1F72"/>
    </linearGradient>
    <linearGradient id="d" x1="195.619" x2="198.627" y1="87.971" y2="88.022" gradientUnits="userSpaceOnUse">
      <stop stop-color="#FB8D48"/>
      <stop offset=".2" stop-color="#ED7136"/>
      <stop offset=".4" stop-color="#C54E47"/>
      <stop offset=".4" stop-color="#C14F49"/>
      <stop offset=".6" stop-color="#9D3863"/>
      <stop offset=".8" stop-color="#5E1F72"/>
    </linearGradient>
    <linearGradient id="e" x1="192.345" x2="195.759" y1="85.222" y2="85.297" gradientUnits="userSpaceOnUse">
      <stop stop-color="#FB8D48"/>
      <stop offset=".2" stop-color="#ED7136"/>
      <stop offset=".4" stop-color="#C54E47"/>
      <stop offset=".4" stop-color="#C14F49"/>
      <stop offset=".6" stop-color="#9D3863"/>
      <stop offset=".8" stop-color="#5E1F72"/>
    </linearGradient>
    <linearGradient id="f" x1="198.234" x2="201.647" y1="85.221" y2="85.296" gradientUnits="userSpaceOnUse">
      <stop stop-color="#FB8D48"/>
      <stop offset=".2" stop-color="#ED7136"/>
      <stop offset=".4" stop-color="#C54E47"/>
      <stop offset=".4" stop-color="#C14F49"/>
      <stop offset=".6" stop-color="#9D3863"/>
      <stop offset=".8" stop-color="#5E1F72"/>
    </linearGradient>
    <linearGradient id="g" x1="215.534" x2="218.541" y1="82.258" y2="82.31" gradientUnits="userSpaceOnUse">
      <stop stop-color="#FB8D48"/>
      <stop offset=".2" stop-color="#ED7136"/>
      <stop offset=".4" stop-color="#C54E47"/>
      <stop offset=".4" stop-color="#C14F49"/>
      <stop offset=".6" stop-color="#9D3863"/>
      <stop offset=".8" stop-color="#5E1F72"/>
    </linearGradient>
    <linearGradient id="h" x1="215.534" x2="218.541" y1="87.971" y2="88.022" gradientUnits="userSpaceOnUse">
      <stop stop-color="#FB8D48"/>
      <stop offset=".2" stop-color="#ED7136"/>
      <stop offset=".4" stop-color="#C54E47"/>
      <stop offset=".4" stop-color="#C14F49"/>
      <stop offset=".6" stop-color="#9D3863"/>
      <stop offset=".8" stop-color="#5E1F72"/>
    </linearGradient>
    <linearGradient id="i" x1="212.261" x2="215.675" y1="85.222" y2="85.297" gradientUnits="userSpaceOnUse">
      <stop stop-color="#FB8D48"/>
      <stop offset=".2" stop-color="#ED7136"/>
      <stop offset=".4" stop-color="#C54E47"/>
      <stop offset=".4" stop-color="#C14F49"/>
      <stop offset=".6" stop-color="#9D3863"/>
      <stop offset=".8" stop-color="#5E1F72"/>
    </linearGradient>
    <linearGradient id="j" x1="218.148" x2="221.561" y1="85.221" y2="85.296" gradientUnits="userSpaceOnUse">
      <stop stop-color="#FB8D48"/>
      <stop offset=".2" stop-color="#ED7136"/>
      <stop offset=".4" stop-color="#C54E47"/>
      <stop offset=".4" stop-color="#C14F49"/>
      <stop offset=".6" stop-color="#9D3863"/>
      <stop offset=".8" stop-color="#5E1F72"/>
    </linearGradient>
    <linearGradient id="k" x1="198.941" x2="207.544" y1="22.224" y2="22.366" gradientUnits="userSpaceOnUse">
      <stop stop-color="#FB8D48"/>
      <stop offset=".2" stop-color="#ED7136"/>
      <stop offset=".4" stop-color="#C54E47"/>
      <stop offset=".4" stop-color="#C14F49"/>
      <stop offset=".6" stop-color="#9D3863"/>
      <stop offset=".8" stop-color="#5E1F72"/>
    </linearGradient>
    <linearGradient id="l" x1="201.121" x2="215.163" y1="26.032" y2="26.305" gradientUnits="userSpaceOnUse">
      <stop stop-color="#FB8D48"/>
      <stop offset=".2" stop-color="#ED7136"/>
      <stop offset=".4" stop-color="#C54E47"/>
      <stop offset=".4" stop-color="#C14F49"/>
      <stop offset=".6" stop-color="#9D3863"/>
      <stop offset=".8" stop-color="#5E1F72"/>
    </linearGradient>
    <linearGradient id="m" x1="201.121" x2="215.163" y1="26.032" y2="26.305" gradientUnits="userSpaceOnUse">
      <stop stop-color="#FB8D48"/>
      <stop offset=".2" stop-color="#ED7136"/>
      <stop offset=".4" stop-color="#C54E47"/>
      <stop offset=".4" stop-color="#C14F49"/>
      <stop offset=".6" stop-color="#9D3863"/>
      <stop offset=".8" stop-color="#5E1F72"/>
    </linearGradient>
    <linearGradient id="n" x1="201.539" x2="215.394" y1="26.313" y2="26.582" gradientUnits="userSpaceOnUse">
      <stop stop-color="#FB8D48"/>
      <stop offset=".2" stop-color="#ED7136"/>
      <stop offset=".4" stop-color="#C54E47"/>
      <stop offset=".4" stop-color="#C14F49"/>
      <stop offset=".6" stop-color="#9D3863"/>
      <stop offset=".8" stop-color="#5E1F72"/>
    </linearGradient>
    <linearGradient id="o" x1="201.539" x2="215.394" y1="26.313" y2="26.582" gradientUnits="userSpaceOnUse">
      <stop stop-color="#FB8D48"/>
      <stop offset=".2" stop-color="#ED7136"/>
      <stop offset=".4" stop-color="#C54E47"/>
      <stop offset=".4" stop-color="#C14F49"/>
      <stop offset=".6" stop-color="#9D3863"/>
      <stop offset=".8" stop-color="#5E1F72"/>
    </linearGradient>
    <linearGradient id="p" x1="205.77" x2="210.791" y1="26.418" y2="26.476" gradientUnits="userSpaceOnUse">
      <stop stop-color="#FB8D48"/>
      <stop offset=".2" stop-color="#ED7136"/>
      <stop offset=".4" stop-color="#C54E47"/>
      <stop offset=".4" stop-color="#C14F49"/>
      <stop offset=".6" stop-color="#9D3863"/>
      <stop offset=".8" stop-color="#5E1F72"/>
    </linearGradient>
    <linearGradient id="q" x1="205.77" x2="210.791" y1="26.418" y2="26.476" gradientUnits="userSpaceOnUse">
      <stop stop-color="#FB8D48"/>
      <stop offset=".2" stop-color="#ED7136"/>
      <stop offset=".4" stop-color="#C54E47"/>
      <stop offset=".4" stop-color="#C14F49"/>
      <stop offset=".6" stop-color="#9D3863"/>
      <stop offset=".8" stop-color="#5E1F72"/>
    </linearGradient>
    <linearGradient id="r" x1="205.559" x2="206.042" y1="25.499" y2="25.502" gradientUnits="userSpaceOnUse">
      <stop stop-color="#FB8D48"/>
      <stop offset=".2" stop-color="#ED7136"/>
      <stop offset=".4" stop-color="#C54E47"/>
      <stop offset=".4" stop-color="#C14F49"/>
      <stop offset=".6" stop-color="#9D3863"/>
      <stop offset=".8" stop-color="#5E1F72"/>
    </linearGradient>
    <linearGradient id="s" x1="207.302" x2="207.389" y1="23.284" y2="23.285" gradientUnits="userSpaceOnUse">
      <stop stop-color="#FB8D48"/>
      <stop offset=".2" stop-color="#ED7136"/>
      <stop offset=".4" stop-color="#C54E47"/>
      <stop offset=".4" stop-color="#C14F49"/>
      <stop offset=".6" stop-color="#9D3863"/>
      <stop offset=".8" stop-color="#5E1F72"/>
    </linearGradient>
    <linearGradient id="t" x1="202.794" x2="207.964" y1="20.587" y2="20.835" gradientUnits="userSpaceOnUse">
      <stop stop-color="#FB8D48"/>
      <stop offset=".2" stop-color="#ED7136"/>
      <stop offset=".4" stop-color="#C54E47"/>
      <stop offset=".4" stop-color="#C14F49"/>
      <stop offset=".6" stop-color="#9D3863"/>
      <stop offset=".8" stop-color="#5E1F72"/>
    </linearGradient>
    <linearGradient id="u" x1="193.817" x2="196.945" y1="41.628" y2="41.665" gradientUnits="userSpaceOnUse">
      <stop stop-color="#FB8D48"/>
      <stop offset=".2" stop-color="#ED7136"/>
      <stop offset=".4" stop-color="#C54E47"/>
      <stop offset=".4" stop-color="#C14F49"/>
      <stop offset=".6" stop-color="#9D3863"/>
      <stop offset=".8" stop-color="#5E1F72"/>
    </linearGradient>
    <linearGradient id="v" x1="198.697" x2="200.319" y1="41.719" y2="41.733" gradientUnits="userSpaceOnUse">
      <stop stop-color="#FB8D48"/>
      <stop offset=".2" stop-color="#ED7136"/>
      <stop offset=".4" stop-color="#C54E47"/>
      <stop offset=".4" stop-color="#C14F49"/>
      <stop offset=".6" stop-color="#9D3863"/>
      <stop offset=".8" stop-color="#5E1F72"/>
    </linearGradient>
    <linearGradient id="w" x1="200.973" x2="202.011" y1="43.675" y2="43.686" gradientUnits="userSpaceOnUse">
      <stop stop-color="#FB8D48"/>
      <stop offset=".2" stop-color="#ED7136"/>
      <stop offset=".4" stop-color="#C54E47"/>
      <stop offset=".4" stop-color="#C14F49"/>
      <stop offset=".6" stop-color="#9D3863"/>
      <stop offset=".8" stop-color="#5E1F72"/>
    </linearGradient>
    <linearGradient id="x" x1="202.393" x2="205.617" y1="41.709" y2="41.761" gradientUnits="userSpaceOnUse">
      <stop stop-color="#FB8D48"/>
      <stop offset=".2" stop-color="#ED7136"/>
      <stop offset=".4" stop-color="#C54E47"/>
      <stop offset=".4" stop-color="#C14F49"/>
      <stop offset=".6" stop-color="#9D3863"/>
      <stop offset=".8" stop-color="#5E1F72"/>
    </linearGradient>
    <linearGradient id="y" x1="205.848" x2="208.864" y1="41.681" y2="41.727" gradientUnits="userSpaceOnUse">
      <stop stop-color="#FB8D48"/>
      <stop offset=".2" stop-color="#ED7136"/>
      <stop offset=".4" stop-color="#C54E47"/>
      <stop offset=".4" stop-color="#C14F49"/>
      <stop offset=".6" stop-color="#9D3863"/>
      <stop offset=".8" stop-color="#5E1F72"/>
    </linearGradient>
    <linearGradient id="z" x1="209.053" x2="212.046" y1="41.747" y2="41.792" gradientUnits="userSpaceOnUse">
      <stop stop-color="#FB8D48"/>
      <stop offset=".2" stop-color="#ED7136"/>
      <stop offset=".4" stop-color="#C54E47"/>
      <stop offset=".4" stop-color="#C14F49"/>
      <stop offset=".6" stop-color="#9D3863"/>
      <stop offset=".8" stop-color="#5E1F72"/>
    </linearGradient>
    <linearGradient id="A" x1="212.44" x2="213.478" y1="43.675" y2="43.686" gradientUnits="userSpaceOnUse">
      <stop stop-color="#FB8D48"/>
      <stop offset=".2" stop-color="#ED7136"/>
      <stop offset=".4" stop-color="#C54E47"/>
      <stop offset=".4" stop-color="#C14F49"/>
      <stop offset=".6" stop-color="#9D3863"/>
      <stop offset=".8" stop-color="#5E1F72"/>
    </linearGradient>
    <linearGradient id="B" x1="213.824" x2="216.931" y1="41.709" y2="41.757" gradientUnits="userSpaceOnUse">
      <stop stop-color="#FB8D48"/>
      <stop offset=".2" stop-color="#ED7136"/>
      <stop offset=".4" stop-color="#C54E47"/>
      <stop offset=".4" stop-color="#C14F49"/>
      <stop offset=".6" stop-color="#9D3863"/>
      <stop offset=".8" stop-color="#5E1F72"/>
    </linearGradient>
    <linearGradient id="C" x1="217.378" x2="220.55" y1="41.709" y2="41.759" gradientUnits="userSpaceOnUse">
      <stop stop-color="#FB8D48"/>
      <stop offset=".2" stop-color="#ED7136"/>
      <stop offset=".4" stop-color="#C54E47"/>
      <stop offset=".4" stop-color="#C14F49"/>
      <stop offset=".6" stop-color="#9D3863"/>
      <stop offset=".8" stop-color="#5E1F72"/>
    </linearGradient>
    <linearGradient id="D" x1="220.924" x2="223.939" y1="41.719" y2="41.766" gradientUnits="userSpaceOnUse">
      <stop stop-color="#FB8D48"/>
      <stop offset=".2" stop-color="#ED7136"/>
      <stop offset=".4" stop-color="#C54E47"/>
      <stop offset=".4" stop-color="#C14F49"/>
      <stop offset=".6" stop-color="#9D3863"/>
      <stop offset=".8" stop-color="#5E1F72"/>
    </linearGradient>
    <linearGradient id="E" x1="173.652" x2="181.649" y1="143.77" y2="156.179" gradientUnits="userSpaceOnUse">
      <stop stop-color="#FB8D48"/>
      <stop offset=".2" stop-color="#ED7136"/>
      <stop offset=".4" stop-color="#C54E47"/>
      <stop offset=".4" stop-color="#C14F49"/>
      <stop offset=".6" stop-color="#9D3863"/>
      <stop offset=".8" stop-color="#5E1F72"/>
    </linearGradient>
    <linearGradient id="F" x1="175.528" x2="190.07" y1="132.677" y2="132.986" gradientUnits="userSpaceOnUse">
      <stop stop-color="#FB8D48"/>
      <stop offset=".2" stop-color="#ED7136"/>
      <stop offset=".4" stop-color="#C54E47"/>
      <stop offset=".4" stop-color="#C14F49"/>
      <stop offset=".6" stop-color="#9D3863"/>
      <stop offset=".8" stop-color="#5E1F72"/>
    </linearGradient>
    <linearGradient id="G" x1="177.994" x2="180.284" y1="132.289" y2="132.334" gradientUnits="userSpaceOnUse">
      <stop stop-color="#FB8D48"/>
      <stop offset=".2" stop-color="#ED7136"/>
      <stop offset=".4" stop-color="#C54E47"/>
      <stop offset=".4" stop-color="#C14F49"/>
      <stop offset=".6" stop-color="#9D3863"/>
      <stop offset=".8" stop-color="#5E1F72"/>
    </linearGradient>
    <linearGradient id="H" x1="181.417" x2="183.708" y1="132.289" y2="132.334" gradientUnits="userSpaceOnUse">
      <stop stop-color="#FB8D48"/>
      <stop offset=".2" stop-color="#ED7136"/>
      <stop offset=".4" stop-color="#C54E47"/>
      <stop offset=".4" stop-color="#C14F49"/>
      <stop offset=".6" stop-color="#9D3863"/>
      <stop offset=".8" stop-color="#5E1F72"/>
    </linearGradient>
    <linearGradient id="I" x1="185.058" x2="187.348" y1="132.289" y2="132.334" gradientUnits="userSpaceOnUse">
      <stop stop-color="#FB8D48"/>
      <stop offset=".2" stop-color="#ED7136"/>
      <stop offset=".4" stop-color="#C54E47"/>
      <stop offset=".4" stop-color="#C14F49"/>
      <stop offset=".6" stop-color="#9D3863"/>
      <stop offset=".8" stop-color="#5E1F72"/>
    </linearGradient>
    <linearGradient id="J" x1="184.423" x2="198.964" y1="127.95" y2="128.261" gradientUnits="userSpaceOnUse">
      <stop stop-color="#FB8D48"/>
      <stop offset=".2" stop-color="#ED7136"/>
      <stop offset=".4" stop-color="#C54E47"/>
      <stop offset=".4" stop-color="#C14F49"/>
      <stop offset=".6" stop-color="#9D3863"/>
      <stop offset=".8" stop-color="#5E1F72"/>
    </linearGradient>
    <linearGradient id="K" x1="150.331" x2="162.011" y1="91.484" y2="91.692" gradientUnits="userSpaceOnUse">
      <stop stop-color="#FB8D48"/>
      <stop offset=".2" stop-color="#ED7136"/>
      <stop offset=".4" stop-color="#C54E47"/>
      <stop offset=".4" stop-color="#C14F49"/>
      <stop offset=".6" stop-color="#9D3863"/>
      <stop offset=".8" stop-color="#5E1F72"/>
    </linearGradient>
    <linearGradient id="L" x1="161.688" x2="170.125" y1="92.222" y2="92.342" gradientUnits="userSpaceOnUse">
      <stop stop-color="#FB8D48"/>
      <stop offset=".2" stop-color="#ED7136"/>
      <stop offset=".4" stop-color="#C54E47"/>
      <stop offset=".4" stop-color="#C14F49"/>
      <stop offset=".6" stop-color="#9D3863"/>
      <stop offset=".8" stop-color="#5E1F72"/>
    </linearGradient>
    <linearGradient id="M" x1="155.252" x2="158.358" y1="107.426" y2="107.474" gradientUnits="userSpaceOnUse">
      <stop stop-color="#FB8D48"/>
      <stop offset=".2" stop-color="#ED7136"/>
      <stop offset=".4" stop-color="#C54E47"/>
      <stop offset=".4" stop-color="#C14F49"/>
      <stop offset=".6" stop-color="#9D3863"/>
      <stop offset=".8" stop-color="#5E1F72"/>
    </linearGradient>
    <linearGradient id="N" x1="158.727" x2="161.951" y1="107.424" y2="107.475" gradientUnits="userSpaceOnUse">
      <stop stop-color="#FB8D48"/>
      <stop offset=".2" stop-color="#ED7136"/>
      <stop offset=".4" stop-color="#C54E47"/>
      <stop offset=".4" stop-color="#C14F49"/>
      <stop offset=".6" stop-color="#9D3863"/>
      <stop offset=".8" stop-color="#5E1F72"/>
    </linearGradient>
    <linearGradient id="O" x1="162.381" x2="166.803" y1="107.426" y2="107.525" gradientUnits="userSpaceOnUse">
      <stop stop-color="#FB8D48"/>
      <stop offset=".2" stop-color="#ED7136"/>
      <stop offset=".4" stop-color="#C54E47"/>
      <stop offset=".4" stop-color="#C14F49"/>
      <stop offset=".6" stop-color="#9D3863"/>
      <stop offset=".8" stop-color="#5E1F72"/>
    </linearGradient>
    <linearGradient id="P" x1="147.244" x2="155.241" y1="103.164" y2="115.573" gradientUnits="userSpaceOnUse">
      <stop stop-color="#FB8D48"/>
      <stop offset=".2" stop-color="#ED7136"/>
      <stop offset=".4" stop-color="#C54E47"/>
      <stop offset=".4" stop-color="#C14F49"/>
      <stop offset=".6" stop-color="#9D3863"/>
      <stop offset=".8" stop-color="#5E1F72"/>
    </linearGradient>
    <linearGradient id="Q" x1="152.657" x2="166.198" y1="41.259" y2="41.533" gradientUnits="userSpaceOnUse">
      <stop stop-color="#FB8D48"/>
      <stop offset=".2" stop-color="#ED7136"/>
      <stop offset=".4" stop-color="#C54E47"/>
      <stop offset=".4" stop-color="#C14F49"/>
      <stop offset=".6" stop-color="#9D3863"/>
      <stop offset=".8" stop-color="#5E1F72"/>
    </linearGradient>
    <linearGradient id="R" x1="154.04" x2="157.212" y1="57.922" y2="57.972" gradientUnits="userSpaceOnUse">
      <stop stop-color="#FB8D48"/>
      <stop offset=".2" stop-color="#ED7136"/>
      <stop offset=".4" stop-color="#C54E47"/>
      <stop offset=".4" stop-color="#C14F49"/>
      <stop offset=".6" stop-color="#9D3863"/>
      <stop offset=".8" stop-color="#5E1F72"/>
    </linearGradient>
    <linearGradient id="S" x1="157.66" x2="160.885" y1="57.922" y2="57.974" gradientUnits="userSpaceOnUse">
      <stop stop-color="#FB8D48"/>
      <stop offset=".2" stop-color="#ED7136"/>
      <stop offset=".4" stop-color="#C54E47"/>
      <stop offset=".4" stop-color="#C14F49"/>
      <stop offset=".6" stop-color="#9D3863"/>
      <stop offset=".8" stop-color="#5E1F72"/>
    </linearGradient>
    <linearGradient id="T" x1="161.318" x2="165.74" y1="57.924" y2="58.023" gradientUnits="userSpaceOnUse">
      <stop stop-color="#FB8D48"/>
      <stop offset=".2" stop-color="#ED7136"/>
      <stop offset=".4" stop-color="#C54E47"/>
      <stop offset=".4" stop-color="#C14F49"/>
      <stop offset=".6" stop-color="#9D3863"/>
      <stop offset=".8" stop-color="#5E1F72"/>
    </linearGradient>
    <linearGradient id="U" x1="146.055" x2="154.052" y1="53.666" y2="66.075" gradientUnits="userSpaceOnUse">
      <stop stop-color="#FB8D48"/>
      <stop offset=".2" stop-color="#ED7136"/>
      <stop offset=".4" stop-color="#C54E47"/>
      <stop offset=".4" stop-color="#C14F49"/>
      <stop offset=".6" stop-color="#9D3863"/>
      <stop offset=".8" stop-color="#5E1F72"/>
    </linearGradient>
    <linearGradient id="V" x1="245.731" x2="251.747" y1="55.007" y2="55.068" gradientUnits="userSpaceOnUse">
      <stop stop-color="#FB8D48"/>
      <stop offset=".2" stop-color="#ED7136"/>
      <stop offset=".4" stop-color="#C54E47"/>
      <stop offset=".4" stop-color="#C14F49"/>
      <stop offset=".6" stop-color="#9D3863"/>
      <stop offset=".8" stop-color="#5E1F72"/>
    </linearGradient>
    <linearGradient id="W" x1="254.964" x2="260.98" y1="52.766" y2="52.812" gradientUnits="userSpaceOnUse">
      <stop stop-color="#FB8D48"/>
      <stop offset=".2" stop-color="#ED7136"/>
      <stop offset=".4" stop-color="#C54E47"/>
      <stop offset=".4" stop-color="#C14F49"/>
      <stop offset=".6" stop-color="#9D3863"/>
      <stop offset=".8" stop-color="#5E1F72"/>
    </linearGradient>
    <linearGradient id="X" x1="264.03" x2="270.046" y1="50.897" y2="50.934" gradientUnits="userSpaceOnUse">
      <stop stop-color="#FB8D48"/>
      <stop offset=".2" stop-color="#ED7136"/>
      <stop offset=".4" stop-color="#C54E47"/>
      <stop offset=".4" stop-color="#C14F49"/>
      <stop offset=".6" stop-color="#9D3863"/>
      <stop offset=".8" stop-color="#5E1F72"/>
    </linearGradient>
    <linearGradient id="Y" x1="252.483" x2="255.498" y1="71.586" y2="71.633" gradientUnits="userSpaceOnUse">
      <stop stop-color="#FB8D48"/>
      <stop offset=".2" stop-color="#ED7136"/>
      <stop offset=".4" stop-color="#C54E47"/>
      <stop offset=".4" stop-color="#C14F49"/>
      <stop offset=".6" stop-color="#9D3863"/>
      <stop offset=".8" stop-color="#5E1F72"/>
    </linearGradient>
    <linearGradient id="Z" x1="255.826" x2="259.051" y1="71.576" y2="71.628" gradientUnits="userSpaceOnUse">
      <stop stop-color="#FB8D48"/>
      <stop offset=".2" stop-color="#ED7136"/>
      <stop offset=".4" stop-color="#C54E47"/>
      <stop offset=".4" stop-color="#C14F49"/>
      <stop offset=".6" stop-color="#9D3863"/>
      <stop offset=".8" stop-color="#5E1F72"/>
    </linearGradient>
    <linearGradient id="aa" x1="259.484" x2="263.905" y1="71.578" y2="71.677" gradientUnits="userSpaceOnUse">
      <stop stop-color="#FB8D48"/>
      <stop offset=".2" stop-color="#ED7136"/>
      <stop offset=".4" stop-color="#C54E47"/>
      <stop offset=".4" stop-color="#C14F49"/>
      <stop offset=".6" stop-color="#9D3863"/>
      <stop offset=".8" stop-color="#5E1F72"/>
    </linearGradient>
    <linearGradient id="ab" x1="247.3" x2="255.891" y1="65.574" y2="76.177" gradientUnits="userSpaceOnUse">
      <stop stop-color="#FB8D48"/>
      <stop offset=".2" stop-color="#ED7136"/>
      <stop offset=".4" stop-color="#C54E47"/>
      <stop offset=".4" stop-color="#C14F49"/>
      <stop offset=".6" stop-color="#9D3863"/>
      <stop offset=".8" stop-color="#5E1F72"/>
    </linearGradient>
    <linearGradient id="ac" x1="248.639" x2="264.785" y1="40.748" y2="41.302" gradientUnits="userSpaceOnUse">
      <stop stop-color="#FB8D48"/>
      <stop offset=".2" stop-color="#ED7136"/>
      <stop offset=".4" stop-color="#C54E47"/>
      <stop offset=".4" stop-color="#C14F49"/>
      <stop offset=".6" stop-color="#9D3863"/>
      <stop offset=".8" stop-color="#5E1F72"/>
    </linearGradient>
    <linearGradient id="ad" x1="259.97" x2="264.891" y1="38.483" y2="38.588" gradientUnits="userSpaceOnUse">
      <stop stop-color="#FB8D48"/>
      <stop offset=".2" stop-color="#ED7136"/>
      <stop offset=".4" stop-color="#C54E47"/>
      <stop offset=".4" stop-color="#C14F49"/>
      <stop offset=".6" stop-color="#9D3863"/>
      <stop offset=".8" stop-color="#5E1F72"/>
    </linearGradient>
    <linearGradient id="ae" x1="181" x2="122.85" y1="194" y2="154.268" gradientUnits="userSpaceOnUse">
      <stop stop-color="#FB8D48"/>
      <stop offset=".2" stop-color="#ED7136"/>
      <stop offset=".4" stop-color="#C54E47"/>
      <stop offset=".4" stop-color="#C14F49"/>
      <stop offset=".6" stop-color="#9D3863"/>
      <stop offset=".8" stop-color="#5E1F72"/>
    </linearGradient>
    <linearGradient id="af" x1="96" x2="68.731" y1="217" y2="137.863" gradientUnits="userSpaceOnUse">
      <stop stop-color="#FB8D48"/>
      <stop offset=".2" stop-color="#ED7136"/>
      <stop offset=".4" stop-color="#C54E47"/>
      <stop offset=".4" stop-color="#C14F49"/>
      <stop offset=".6" stop-color="#9D3863"/>
      <stop offset=".8" stop-color="#5E1F72"/>
    </linearGradient>
    <linearGradient id="ag" x1="116.282" x2="125.542" y1="152.81" y2="152.847" gradientUnits="userSpaceOnUse">
      <stop stop-color="#FB8D48"/>
      <stop offset=".2" stop-color="#ED7136"/>
      <stop offset=".4" stop-color="#C54E47"/>
      <stop offset=".4" stop-color="#C14F49"/>
      <stop offset=".6" stop-color="#9D3863"/>
      <stop offset=".8" stop-color="#5E1F72"/>
    </linearGradient>
    <linearGradient id="ah" x1="81.662" x2="117.075" y1="194.175" y2="195.477" gradientUnits="userSpaceOnUse">
      <stop stop-color="#FB8D48"/>
      <stop offset=".2" stop-color="#ED7136"/>
      <stop offset=".4" stop-color="#C54E47"/>
      <stop offset=".4" stop-color="#C14F49"/>
      <stop offset=".6" stop-color="#9D3863"/>
      <stop offset=".8" stop-color="#5E1F72"/>
    </linearGradient>
    <linearGradient id="ai" x1="85.132" x2="106.33" y1="191.47" y2="192.225" gradientUnits="userSpaceOnUse">
      <stop stop-color="#FB8D48"/>
      <stop offset=".2" stop-color="#ED7136"/>
      <stop offset=".4" stop-color="#C54E47"/>
      <stop offset=".4" stop-color="#C14F49"/>
      <stop offset=".6" stop-color="#9D3863"/>
      <stop offset=".8" stop-color="#5E1F72"/>
    </linearGradient>
    <linearGradient id="aj" x1="89.425" x2="113.887" y1="160.667" y2="161.054" gradientUnits="userSpaceOnUse">
      <stop stop-color="#FB8D48"/>
      <stop offset=".2" stop-color="#ED7136"/>
      <stop offset=".4" stop-color="#C54E47"/>
      <stop offset=".4" stop-color="#C14F49"/>
      <stop offset=".6" stop-color="#9D3863"/>
      <stop offset=".8" stop-color="#5E1F72"/>
    </linearGradient>
    <linearGradient id="ak" x1="121.598" x2="125.261" y1="145.089" y2="145.104" gradientUnits="userSpaceOnUse">
      <stop stop-color="#FB8D48"/>
      <stop offset=".2" stop-color="#ED7136"/>
      <stop offset=".4" stop-color="#C54E47"/>
      <stop offset=".4" stop-color="#C14F49"/>
      <stop offset=".6" stop-color="#9D3863"/>
      <stop offset=".8" stop-color="#5E1F72"/>
    </linearGradient>
    <linearGradient id="al" x1="140.5" x2="83.32" y1="211" y2="140.115" gradientUnits="userSpaceOnUse">
      <stop stop-color="#FB8D48"/>
      <stop offset=".2" stop-color="#ED7136"/>
      <stop offset=".4" stop-color="#C54E47"/>
      <stop offset=".4" stop-color="#C14F49"/>
      <stop offset=".6" stop-color="#9D3863"/>
      <stop offset=".8" stop-color="#5E1F72"/>
    </linearGradient>
    <linearGradient id="am" x1="172.269" x2="179.09" y1="160.586" y2="160.958" gradientUnits="userSpaceOnUse">
      <stop stop-color="#FB8D48"/>
      <stop offset=".2" stop-color="#ED7136"/>
      <stop offset=".4" stop-color="#C54E47"/>
      <stop offset=".4" stop-color="#C14F49"/>
      <stop offset=".6" stop-color="#9D3863"/>
      <stop offset=".8" stop-color="#5E1F72"/>
    </linearGradient>
    <linearGradient id="an" x1="159.031" x2="161.565" y1="162.169" y2="162.221" gradientUnits="userSpaceOnUse">
      <stop stop-color="#FB8D48"/>
      <stop offset=".2" stop-color="#ED7136"/>
      <stop offset=".4" stop-color="#C54E47"/>
      <stop offset=".4" stop-color="#C14F49"/>
      <stop offset=".6" stop-color="#9D3863"/>
      <stop offset=".8" stop-color="#5E1F72"/>
    </linearGradient>
    <linearGradient id="ao" x1="89.379" x2="151.163" y1="150.856" y2="152.359" gradientUnits="userSpaceOnUse">
      <stop stop-color="#FB8D48"/>
      <stop offset=".2" stop-color="#ED7136"/>
      <stop offset=".4" stop-color="#C54E47"/>
      <stop offset=".4" stop-color="#C14F49"/>
      <stop offset=".6" stop-color="#9D3863"/>
      <stop offset=".8" stop-color="#5E1F72"/>
    </linearGradient>
    <linearGradient id="ap" x1="90.688" x2="104.968" y1="127.085" y2="128.596" gradientUnits="userSpaceOnUse">
      <stop stop-color="#FB8D48"/>
      <stop offset=".2" stop-color="#ED7136"/>
      <stop offset=".4" stop-color="#C54E47"/>
      <stop offset=".4" stop-color="#C14F49"/>
      <stop offset=".6" stop-color="#9D3863"/>
      <stop offset=".8" stop-color="#5E1F72"/>
    </linearGradient>
    <linearGradient id="aq" x1="119.682" x2="124.007" y1="162.574" y2="162.641" gradientUnits="userSpaceOnUse">
      <stop stop-color="#FB8D48"/>
      <stop offset=".2" stop-color="#ED7136"/>
      <stop offset=".4" stop-color="#C54E47"/>
      <stop offset=".4" stop-color="#C14F49"/>
      <stop offset=".6" stop-color="#9D3863"/>
      <stop offset=".8" stop-color="#5E1F72"/>
    </linearGradient>
    <linearGradient id="ar" x1="118.891" x2="123.68" y1="160.636" y2="160.888" gradientUnits="userSpaceOnUse">
      <stop stop-color="#FB8D48"/>
      <stop offset=".2" stop-color="#ED7136"/>
      <stop offset=".4" stop-color="#C54E47"/>
      <stop offset=".4" stop-color="#C14F49"/>
      <stop offset=".6" stop-color="#9D3863"/>
      <stop offset=".8" stop-color="#5E1F72"/>
    </linearGradient>
  </defs>
</svg>
