<svg xmlns="http://www.w3.org/2000/svg" width="663" height="562" fill="none" viewBox="0 0 663 562">
  <path fill="url(#a)" d="M34.462 371.748c-17.798.361-32.256-11.432-32.115-26.293l2.673-283.1c.14-14.86 14.817-26.291 32.604-25.487L602.397 62.39c13.981.632 25.192 11.77 25.069 24.832l-2.35 248.844c-.123 13.062-11.542 23.919-25.532 24.203L34.462 371.748Z"/>
  <path fill="url(#b)" d="M602.322 70.113 37.54 45.55c-11.654-.507-21.218 7.217-21.312 17.254L13.56 345.287c-.094 10.037 9.321 17.997 20.982 17.78l565.114-10.52c9.187-.171 16.675-7.491 16.758-16.35l2.355-249.322c.083-8.859-7.265-16.362-16.447-16.762Z"/>
  <path fill="url(#c)" d="M602.172 70.111 37.39 45.548c-11.655-.507-21.218 7.217-21.313 17.254L13.41 345.285c-.095 10.038 9.32 17.997 20.982 17.78l565.113-10.52c9.187-.171 16.675-7.49 16.759-16.349l2.354-249.323c.084-8.859-7.265-16.362-16.446-16.762Z"/>
  <mask id="d" width="606" height="319" x="13" y="45" maskUnits="userSpaceOnUse" style="mask-type:luminance">
    <path fill="#fff" d="M602.17 70.106 37.388 45.542c-11.655-.507-21.218 7.217-21.313 17.255l-2.667 282.482c-.095 10.038 9.32 17.997 20.982 17.78l565.113-10.52c9.187-.171 16.675-7.49 16.759-16.349l2.354-249.322c.084-8.86-7.265-16.363-16.446-16.762Z"/>
  </mask>
  <g mask="url(#d)">
    <path fill="url(#e)" d="m-122.729 447.343-1.764-1.003 391.53-398.575 1.533.997-391.299 398.581Z"/>
    <path fill="url(#f)" d="m70.803 412.915-1.882-.693L293.335 44.801l1.714.745L70.803 412.915Z"/>
    <path fill="url(#g)" d="m253.709 394.67-1.945-.232L319.665 44.03l1.859.331-67.815 350.309Z"/>
    <path fill="url(#h)" d="m424.407 391.451-78.46-346.07 1.833-.176 78.449 345.952-1.822.294Z"/>
    <path fill="url(#i)" d="M587.188 401.908 372.041 48.731l1.643-.596 215.052 353.07-1.548.703Z"/>
    <path fill="url(#j)" d="M740.396 424.725 397.742 54.01l1.431-.856L741.671 423.79l-1.275.936Z"/>
    <path fill="url(#k)" d="m704.409 139.112-768.045-20.839.009-1.638 767.977 21.042.059 1.435Z"/>
    <path fill="url(#l)" d="M701.935 79.77-63.24 50.57l.01-1.625 765.105 29.4.06 1.425Z"/>
    <path fill="url(#m)" d="m707.596 215.541-771.744-9.965.01-1.656 771.673 10.172.061 1.449Z"/>
    <path fill="url(#n)" d="m710.809 292.693-775.478 1.133.01-1.674 775.407-.921.061 1.462Z"/>
    <path fill="url(#o)" d="m714.058 370.588-779.25 12.458.01-1.692 779.178-12.243.062 1.477Z"/>
    <path fill="url(#p)" d="m622.878 310.695-151.89.712-36.503-29.058-80.959-.035-40.617-.018-84.473-.037-38.546 30.465-177.054.83-6.574 63.241 308.202-4.621 40.829-.613 274.905-4.121-7.32-56.745Z"/>
    <path fill="url(#q)" d="m622.881 310.694-151.855.712-36.495-29.058-80.94-.035-40.608-.018-84.453-.037-38.536 30.465-177.011.83-6.573 63.24 308.129-4.621 40.819-.612 274.842-4.121-7.319-56.745Z" opacity=".5"/>
    <path fill="url(#r)" d="M289.482 316.623c.152 9.618-9.278 17.505-21.106 17.605-11.877.101-21.645-7.681-21.772-17.37-.128-9.678 9.412-17.539 21.264-17.569 11.804-.029 21.462 7.727 21.614 17.334Z"/>
    <path fill="url(#s)" d="M427.348 315.866c.228 9.388-8.69 17.084-19.959 17.18-11.315.096-20.688-7.5-20.893-16.956-.206-9.446 8.815-17.118 20.108-17.146 11.247-.028 20.517 7.544 20.744 16.922Z"/>
    <path fill="url(#t)" d="M316.187 320.286c.044 2.466-2.355 4.483-5.361 4.503-3.008.021-5.482-1.965-5.524-4.436-.041-2.47 2.365-4.485 5.371-4.501 3.004-.016 5.471 1.969 5.514 4.434Z"/>
    <path fill="url(#u)" d="M341.958 320.127c.046 2.455-2.328 4.463-5.306 4.483-2.981.021-5.437-1.957-5.482-4.417-.046-2.459 2.336-4.464 5.315-4.48 2.977-.016 5.426 1.96 5.473 4.414Z"/>
    <path fill="url(#v)" d="M367.495 319.97c.051 2.444-2.299 4.443-5.251 4.463-2.955.02-5.392-1.948-5.441-4.397-.049-2.448 2.308-4.445 5.261-4.461 2.951-.015 5.381 1.952 5.431 4.395Z"/>
    <path fill="url(#w)" d="M369.673 307.802c.02.968-1.028 1.758-2.197 1.763l-60.501.26c-1.195.005-2.288-.786-2.305-1.765l-.006-.394c-.017-.98.991-1.776 2.185-1.781l60.52-.219c1.169-.004 2.276.778 2.296 1.746l.008.39Z"/>
    <path fill="url(#x)" d="M203.254 333.173c.044 4.222-4.167 7.687-9.414 7.737l-138.322 1.317c-5.507.052-9.982-3.422-9.986-7.758-.004-4.334 4.46-7.876 9.963-7.914l138.192-.956c5.243-.037 9.522 3.354 9.567 7.574Z"/>
    <path fill="url(#y)" d="M502.197 325.461c.054 1.843-1.648 3.355-3.821 3.372l-.495.001c-2.175.017-4.252-1.467-4.305-3.314l-.005-.191c-.052-1.846 1.947-3.351 4.121-3.365l.349-.004c2.171-.014 4.098 1.467 4.151 3.31l.005.191Z"/>
    <path fill="url(#z)" d="M521.359 325.336c.055 1.838-1.814 3.339-3.972 3.355l-.431.004c-2.16.017-4.164-1.46-4.219-3.3l-.005-.19c-.055-1.84 1.778-3.346 3.937-3.36l.452-.001c2.157-.014 4.178 1.465 4.233 3.302l.005.19Z"/>
    <path fill="url(#A)" d="M539.558 325.347c.057 1.831-1.657 3.167-3.801 3.147l-.099-.001c-2.146-.02-3.709-1.256-3.765-3.09l-.005-.269c-.056-1.834 1.545-3.368 3.69-3.383l.107-.021c2.143-.015 3.81 1.527 3.867 3.358l.006.259Z"/>
    <path fill="url(#B)" d="m563.183 344.215-4.796.048-.731-22.684 4.79-.03.737 22.666Z"/>
    <path fill="url(#C)" d="m572.772 344.079-3.837.057-.744-22.64 3.832-.038.749 22.621Z"/>
    <path fill="url(#D)" d="m583.33 343.98-4.797.048-.756-22.598 4.79-.029.763 22.579Z"/>
    <path fill="url(#E)" d="m593.879 343.87-4.798.048-.769-22.554 4.791-.03.776 22.536Z"/>
    <path fill="url(#F)" d="m603.475 343.759-3.838.058-.782-22.512 3.832-.04.788 22.494Z"/>
    <path fill="url(#G)" d="M122.462 109.365c.087 15.347-15.749 27.376-35.49 26.836-19.87-.544-36.092-13.599-36.111-29.129-.02-15.5 16.115-27.452 35.918-26.726 19.672.722 35.596 13.7 35.683 29.019Z" opacity=".5"/>
    <path fill="url(#H)" d="m123.846 188.573-79.967-1.488-.016-19.452 63.567 1.39 16.416 19.55Z"/>
    <path fill="url(#I)" d="m124.063 226.301-80.153-.988-.015-19.543 63.714.992 16.454 19.539Z"/>
  </g>
  <path fill="url(#J)" d="M520.41 120.415c4.224.039 7.674-2.781 7.708-6.3.033-3.518-3.364-6.403-7.588-6.443-4.223-.04-7.674 2.78-7.707 6.299-.034 3.519 3.363 6.404 7.587 6.444Z" opacity=".7"/>
  <path fill="url(#K)" d="M33.451 263.532c4.224.04 7.675-2.781 7.708-6.299.033-3.519-3.364-6.404-7.588-6.444-4.223-.04-7.674 2.78-7.707 6.299-.034 3.519 3.363 6.404 7.587 6.444Z" opacity=".7"/>
  <path fill="url(#L)" d="M544.196 103.567c2.493.023 4.529-1.641 4.549-3.718.02-2.076-1.985-3.779-4.478-3.803-2.492-.023-4.529 1.641-4.549 3.718-.019 2.077 1.986 3.779 4.478 3.803Z" opacity=".7"/>
  <path fill="url(#M)" d="M593.122 227.206c2.493.023 4.529-1.641 4.549-3.718.019-2.077-1.985-3.779-4.478-3.803-2.493-.023-4.529 1.641-4.549 3.718-.019 2.076 1.985 3.779 4.478 3.803Z" opacity=".7"/>
  <path fill="url(#N)" d="M179.776 88.668c2.493.024 4.53-1.64 4.549-3.717.02-2.077-1.985-3.78-4.478-3.803-2.492-.023-4.529 1.641-4.549 3.718-.019 2.076 1.986 3.779 4.478 3.802Z" opacity=".7"/>
  <path fill="url(#O)" d="M143.001 236.754c2.493.024 4.529-1.641 4.549-3.717.019-2.077-1.985-3.779-4.478-3.803-2.493-.024-4.529 1.641-4.549 3.718-.02 2.076 1.985 3.779 4.478 3.802Z" opacity=".7"/>
  <path fill="url(#P)" d="M110.306 270.368c3.345.032 6.077-2.201 6.104-4.988.026-2.786-2.664-5.071-6.009-5.102-3.344-.032-6.077 2.202-6.103 4.988-.026 2.786 2.664 5.071 6.008 5.102Z" opacity=".7"/>
  <path fill="#EEA07B" d="M41.481 371.809c-17.798.361-32.255-11.433-32.115-26.293l2.673-283.1c.14-14.86 14.817-26.292 32.604-25.488l564.773 25.523c13.982.632 25.193 11.77 25.07 24.832l-2.35 248.843c-.123 13.062-11.542 23.919-25.533 24.203l-565.122 11.48Z"/>
  <path fill="#EEA07B" d="M609.342 70.174 44.56 45.61c-11.655-.507-21.218 7.217-21.313 17.254L20.58 345.347c-.095 10.038 9.32 17.997 20.982 17.78l565.113-10.52c9.187-.171 16.675-7.49 16.759-16.349l2.354-249.322c.084-8.859-7.264-16.363-16.446-16.762Z"/>
  <mask id="Q" width="606" height="319" x="20" y="45" maskUnits="userSpaceOnUse" style="mask-type:luminance">
    <path fill="#fff" d="M609.193 70.172 44.411 45.609c-11.654-.507-21.218 7.217-21.312 17.254L20.43 345.346c-.094 10.037 9.321 17.997 20.982 17.78l565.114-10.52c9.187-.171 16.675-7.491 16.758-16.35l2.355-249.322c.083-8.859-7.265-16.363-16.447-16.762Z"/>
  </mask>
  <g mask="url(#Q)">
    <path fill="#fff" d="m-115.706 447.407-1.764-1.003L274.06 47.829l1.533.998-391.299 398.58Zm193.533-34.423-1.882-.694L300.358 44.87l1.715.744-224.246 367.37Zm182.906-18.253-1.946-.232L326.688 44.09l1.859.332-67.814 350.309Zm170.685-3.211L352.959 45.45l1.833-.177 78.449 345.952-1.823.295Zm162.785 10.454L379.057 48.798l1.643-.597 215.052 353.07-1.549.703Zm153.208 22.817L404.757 54.076l1.431-.855 342.498 370.634-1.275.936Z"/>
    <path fill="#fff" d="m711.431 139.178-768.046-20.839.01-1.638 767.976 21.042.06 1.435Zm-2.475-59.341-765.175-29.2.01-1.625 765.106 29.4.059 1.425Zm5.661 135.768-771.744-9.965.01-1.656 771.674 10.173.06 1.448Zm3.215 77.157-775.478 1.132.01-1.674 775.407-.921.061 1.463Zm3.247 77.888L-58.17 383.108l.01-1.692 779.178-12.242.061 1.476Z"/>
    <path fill="url(#R)" stroke="url(#S)" stroke-width="19.178" d="m472.075 318.974 2.641 2.103 3.377-.016 143.383-.672 4.861 37.689-264.102 3.961-40.819.612-297.33 4.458 4.566-43.941 168.408-.79 3.308-.015 2.594-2.051 35.92-28.397 81.118.035 40.608.018 77.592.034 33.875 26.972Z" opacity=".5"/>
    <path fill="url(#T)" d="M296.499 316.689c.153 9.619-9.277 17.505-21.105 17.605-11.877.101-21.645-7.68-21.773-17.37-.128-9.678 9.413-17.539 21.265-17.569 11.804-.029 21.461 7.727 21.613 17.334Z"/>
    <path fill="url(#U)" d="M434.368 315.932c.228 9.389-8.69 17.085-19.96 17.181-11.314.096-20.687-7.5-20.893-16.957-.205-9.445 8.815-17.117 20.108-17.146 11.248-.028 20.517 7.544 20.745 16.922Z"/>
    <path fill="url(#V)" d="M323.207 320.352c.043 2.467-2.356 4.483-5.361 4.504-3.008.021-5.483-1.966-5.524-4.437-.042-2.47 2.364-4.484 5.371-4.501 3.003-.016 5.471 1.969 5.514 4.434Z"/>
    <path fill="url(#W)" d="M348.973 320.194c.047 2.455-2.327 4.462-5.305 4.483-2.982.02-5.438-1.957-5.483-4.417-.045-2.459 2.336-4.465 5.316-4.481 2.977-.016 5.426 1.96 5.472 4.415Z"/>
    <path fill="url(#X)" d="M374.511 320.037c.05 2.444-2.3 4.442-5.252 4.463-2.955.02-5.392-1.949-5.441-4.398-.048-2.448 2.308-4.444 5.262-4.46 2.95-.016 5.381 1.951 5.431 4.395Z"/>
    <path fill="url(#Y)" d="M376.689 307.868c.02.969-1.028 1.758-2.197 1.763l-60.501.26c-1.195.005-2.289-.785-2.305-1.765l-.007-.394c-.016-.979.992-1.776 2.186-1.78l60.52-.219c1.169-.005 2.276.778 2.296 1.746l.008.389Z"/>
    <path fill="url(#Z)" d="M210.271 333.239c.045 4.223-4.166 7.687-9.414 7.737l-138.321 1.317c-5.507.053-9.982-3.421-9.986-7.757-.004-4.334 4.46-7.877 9.962-7.915l138.193-.956c5.242-.036 9.522 3.354 9.566 7.574Z"/>
    <path fill="url(#aa)" d="M509.217 325.527c.053 1.844-1.649 3.355-3.822 3.373h-.495c-2.175.017-4.252-1.467-4.304-3.313l-.005-.191c-.053-1.846 1.946-3.352 4.12-3.366l.349-.003c2.172-.014 4.099 1.466 4.152 3.31l.005.19Z"/>
    <path fill="url(#ab)" d="M528.375 325.403c.055 1.837-1.815 3.338-3.973 3.355l-.431.003c-2.16.017-4.164-1.459-4.218-3.299l-.006-.191c-.054-1.84 1.778-3.346 3.938-3.36h.451c2.158-.014 4.178 1.464 4.233 3.301l.006.191Z"/>
    <path fill="url(#ac)" d="M546.573 325.414c.057 1.831-1.656 3.166-3.801 3.146l-.099-.001c-2.146-.02-3.708-1.255-3.764-3.089l-.005-.27c-.057-1.833 1.545-3.368 3.689-3.382l.108-.022c2.143-.014 3.81 1.527 3.867 3.358l.005.26Z"/>
    <path fill="url(#ad)" d="m570.203 344.281-4.797.049-.731-22.685 4.79-.029.738 22.665Z"/>
    <path fill="url(#ae)" d="m579.792 344.146-3.837.057-.745-22.64 3.832-.039.75 22.622Z"/>
    <path fill="url(#af)" d="m590.342 344.046-4.797.048-.757-22.597 4.791-.03.763 22.579Z"/>
    <path fill="url(#ag)" d="m600.898 343.937-4.797.047-.77-22.554 4.792-.029.775 22.536Z"/>
    <path fill="url(#ah)" d="m610.495 343.825-3.838.059-.783-22.513 3.833-.04.788 22.494Z"/>
    <path fill="url(#ai)" d="M130.868 188.642 50.9 187.153l-.015-19.452 63.566 1.39 16.417 19.551Z"/>
  </g>
  <path fill="#fff" d="M527.43 120.477c4.223.04 7.674-2.78 7.707-6.299.033-3.519-3.364-6.404-7.587-6.444-4.224-.04-7.675 2.781-7.708 6.299-.033 3.519 3.364 6.404 7.588 6.444ZM40.469 263.596c4.223.04 7.674-2.78 7.707-6.299.033-3.519-3.364-6.404-7.587-6.444-4.224-.039-7.675 2.781-7.708 6.3-.033 3.518 3.364 6.403 7.588 6.443ZM551.22 103.627c2.492.024 4.529-1.64 4.548-3.717.02-2.077-1.985-3.78-4.477-3.803-2.493-.023-4.53 1.64-4.549 3.718-.02 2.076 1.985 3.779 4.478 3.802Zm53.425 120.523c.419-2.046-1.234-3.993-3.691-4.349-2.457-.356-4.789 1.014-5.208 3.061-.418 2.046 1.234 3.993 3.692 4.349 2.457.356 4.789-1.014 5.207-3.061ZM191.217 85.906c.592-2.016-.891-4.055-3.312-4.556-2.422-.5-4.864.729-5.456 2.745-.592 2.015.891 4.055 3.312 4.555s4.864-.729 5.456-2.744ZM150.02 236.815c2.493.023 4.53-1.641 4.549-3.718.02-2.076-1.985-3.779-4.478-3.802-2.492-.024-4.529 1.64-4.548 3.717-.02 2.077 1.985 3.779 4.477 3.803Zm-32.696 33.614c3.344.032 6.077-2.202 6.103-4.988.027-2.787-2.663-5.071-6.008-5.103-3.344-.031-6.077 2.202-6.103 4.989-.027 2.786 2.663 5.07 6.008 5.102Z" opacity=".7"/>
  <path fill="url(#aj)" d="M151.552 442.549a3.502 3.502 0 0 0-.154.169c-6.633 7.103-9.157 15.796-7.867 24.098 1.268 8.171 6.228 15.964 14.618 21.478 4.8 3.155 10.203 5.22 15.795 6.251 0 .006.004.003.004.003 11.347 2.096 23.441-.103 32.723-6.254a36.534 36.534 0 0 0 6.366-5.335c2.527-2.674 4.468-5.577 5.842-8.6 2.255-4.972 2.975-10.274 2.219-15.437-1.202-8.26-6.191-16.149-14.659-21.715-8.431-5.541-18.736-7.743-28.614-6.819-6.67.618-13.14 2.66-18.701 6.056a36.715 36.715 0 0 0-7.572 6.105Z"/>
  <path fill="url(#ak)" d="M151.553 442.55a4.073 4.073 0 0 0-.154.17c.644.76 1.464 1.586 2.469 2.484 10.219 9.112 20.962 8.995 28.107 22.526 6.09 11.533 15.215 21.296 24.697 20.566a36.571 36.571 0 0 0 6.366-5.335c2.527-2.674 4.468-5.578 5.842-8.6-5.887.344-16.822-.074-21.877-7.063-7.108-9.823-7.176-16.311-22.713-22.84-10.009-4.209-13.947-5.892-15.166-8.013a36.768 36.768 0 0 0-7.571 6.105Z"/>
  <path fill="url(#al)" d="M143.529 466.814c1.268 8.171 6.228 15.964 14.618 21.479 4.8 3.154 10.203 5.22 15.795 6.251a13.461 13.461 0 0 1-2.725-2.785c-7.108-9.823-7.175-16.311-22.713-22.84-1.864-.783-3.515-1.476-4.975-2.105Z"/>
  <path fill="url(#am)" d="M177.826 430.388c1.759 2.294 5.032 4.638 10.464 6.519 14.191 4.91 17.285 15.225 28.088 20.669 1.824.917 3.385 1.319 4.72 1.346-1.202-8.26-6.191-16.149-14.659-21.715-8.431-5.541-18.736-7.742-28.613-6.819Z"/>
  <path fill="url(#an)" d="M123.943 422.874c-5.646 5.974 2.697 19.861 19.63 35.087 7.047 6.337 15.578 12.905 25.205 19.232 9.559 6.282 19.142 11.631 28.117 15.852 21.798 10.24 40.032 13.805 45.698 7.811 2.002-2.119 2.248-5.226.978-9.036-2.431-7.29-10.412-17.146-22.263-27.519-.01.319-.03.643-.058.961 9.906 9.73 14.443 18.288 10.754 22.191-3.142 3.324-11.608 2.607-22.477-1.24-9.229-3.25-20.189-8.758-31.104-15.932-13.038-8.569-23.303-17.745-28.967-25.294-4.66-6.232-6.194-11.359-3.57-14.134 3.174-3.358 11.774-2.586 22.806 1.357a36.82 36.82 0 0 1 2.65-.716c-22.542-10.867-41.582-14.773-47.399-8.62Z"/>
  <path fill="url(#ao)" d="M123.943 422.874c-5.646 5.974 2.697 19.861 19.63 35.087 7.047 6.337 15.578 12.905 25.205 19.232 9.559 6.282 19.142 11.631 28.117 15.852 21.798 10.24 40.032 13.804 45.698 7.811 2.002-2.119 2.248-5.226.978-9.036-1.724 2.373-4.254 4.122-7.918 3.365-9.177-1.891-9.779-3.876-17.461-.157-7.681 3.719-25.307-6.971-31.236-13.352-5.929-6.382-10.673-12.26-23.407-15.66-12.734-3.4-25.909-13.716-24.403-21.284 1.505-7.569-2.402-13.98-7.475-17.049-5.073-3.069 4-7.044 11.729-3.621 7.729 3.423 15.352 2.62 19.701 4.115 1.866.641 4.77 2.074 7.481 3.503.254-.065.505-.127.759-.186-22.541-10.867-41.581-14.773-47.398-8.62Z" opacity=".2"/>
  <path fill="url(#ap)" d="M76.199 437.195c7.264.069 13.198-4.781 13.256-10.833.057-6.052-5.785-11.013-13.049-11.082-7.264-.068-13.198 4.782-13.256 10.834-.057 6.051 5.785 11.013 13.049 11.081Z"/>
  <path fill="url(#aq)" d="M301.293 24.709c7.263.068 13.198-4.782 13.255-10.833.057-6.052-5.785-11.013-13.048-11.082-7.264-.068-13.199 4.782-13.256 10.833-.057 6.052 5.785 11.013 13.049 11.082Z"/>
  <path fill="url(#ar)" d="M578.748 184.58c7.629.072 13.862-5.022 13.922-11.378.06-6.355-6.076-11.566-13.705-11.638-7.628-.072-13.861 5.022-13.921 11.378-.06 6.355 6.075 11.566 13.704 11.638Z"/>
  <path fill="url(#as)" d="m312.098 155.849 58.956 18.893c2.712.87 4.167 2.923 3.5 4.699l-19.68 52.44c-.864 2.301-3.978 3.396-7.098 2.374l-34.441-.192c-2.833-.017-5.535-.9-7.622-2.488l-25.535-19.462c-3.073-1.007-4.483-3.565-3.227-5.717l28.624-49.088c.97-1.663 3.846-2.317 6.523-1.459Z"/>
  <path fill="url(#at)" d="m315.481 159.443 52.02 17.375 6.616-58.608c.296-2.642-1.436-5.242-4.315-6.549a.163.163 0 0 1-.065-.066l.038-.086-4.541-1.486-.04.086c-3.162-.704-6.711.238-8.588 2.388l-41.125 46.946Z"/>
  <path fill="url(#au)" d="m315.481 159.443 26.142 8.732c11.144-15.34 10.964-40.154 20.57-45.51 4.435-2.474 6.604-7.046 7.609-11.004a.163.163 0 0 1-.065-.066l.038-.086-4.541-1.486-.04.086c-3.162-.704-6.711.238-8.588 2.388l-41.125 46.946Z" opacity=".3"/>
  <path fill="url(#av)" d="m316.418 162.265-97.93-31.436-12.423 14.117s37.566 39.707 73.286 47.438c35.406 7.663 36.478-18.871 37.067-30.119Z"/>
  <path fill="url(#aw)" d="m220.198 128.885-12.138 13.793s37.456 39.271 72.929 46.962c9.548 2.07 16.651 1.712 21.882-.353 13.719-5.4 14.324-21.128 14.717-29.165l-97.39-31.237Z"/>
  <path fill="url(#ax)" d="m217.044 132.467-8.987 10.211s37.456 39.272 72.929 46.963c9.548 2.07 16.717 1.594 21.945-.469l7.648-19.159s-12.477-7.814-27.041-2.353c-15.208 5.702-31.748-3.546-44.96-18.917-6.68-7.772-13.565-13.757-21.534-16.276Z" opacity=".3"/>
  <path fill="url(#ay)" d="M216.478 123.524c-.85.938-.331 2.091 1.163 2.57 1.494.479 3.386.099 4.221-.845l17.954-20.297c.734-.83.195-1.859-1.199-2.301-1.395-.443-3.127-.135-3.874.69l-18.265 20.183Z"/>
  <path fill="url(#az)" d="M198.114 133.8c-14.434 15.503-22.519 30.67-17.047 32.87.064.025.127.05.194.071 5.861 1.912 22.718-10.616 36.471-26.623 12.614-14.683 18.008-27.028 12.97-28.632-.057-.018-.118-.032-.175-.051l-.004-.001a3.09 3.09 0 0 0-.679-.109c-5.605-.469-19.002 8.804-31.73 22.475Z"/>
  <path fill="url(#aA)" d="M201.78 131.299c-.67.723-.441 1.665.606 2.002l13.298 4.28c1.05.338 2.491-.069 3.126-.804.633-.733.369-1.677-.673-2.012l-13.195-4.241c-1.04-.335-2.495.055-3.162.775Z"/>
  <path fill="url(#aB)" d="M198.06 133.78c-14.435 15.502-22.18 30.781-17.113 32.848l49.478-55.228.102.032c-.205-.065-.475-.091-.705-.117-5.606-.47-19.031 8.795-31.762 22.465Z" opacity=".3"/>
  <path fill="url(#aC)" d="m367.67 178.717 101.009 32.425-2.258 17.886s-62.384 7.899-95.83-6.948c-32.675-14.505-11.713-34.695-2.921-43.363Z"/>
  <path fill="url(#aD)" d="m468.988 208.686-2.206 17.469s-61.93 7.668-95.16-7.043c-8.863-3.924-13.851-8.228-16.055-12.729-5.778-11.759 6.682-23.731 12.987-29.911l100.434 32.214Z"/>
  <path fill="url(#aE)" d="m468.417 213.215-1.633 12.937s-61.931 7.668-95.161-7.044c-8.862-3.923-13.802-8.352-16.006-12.85l10.036-18.511s15.795 1.257 22.258 13.594c6.78 12.939 27.035 15.539 50.071 11.655 11.714-1.976 22.08-2.507 30.435.219Z" opacity=".3"/>
  <path fill="url(#aF)" d="M474.52 179.468c.128-1.049 1.419-1.518 2.885-1.053 1.467.466 2.565 1.693 2.451 2.748l-2.777 25.826c-.129 1.203-1.514 1.773-3.092 1.267-1.577-.505-2.736-1.89-2.591-3.087l3.124-25.701Z"/>
  <path fill="url(#aG)" d="M482.232 225.288c-1.846 20.199-8.412 36.43-14.588 34.844a3.938 3.938 0 0 1-.212-.061c-6.219-2.029-8.769-21.378-5.944-41.463 2.585-18.38 8.821-30.809 14.121-29.121.06.02.119.044.179.063l.004.001c.212.068.419.183.625.309 4.794 2.879 7.438 17.661 5.815 35.428Z"/>
  <path fill="url(#aH)" d="M481.473 221.255c-.088.939-1.07 1.517-2.181 1.16l-14.058-4.525c-1.108-.356-1.888-1.5-1.761-2.424.126-.92 1.132-1.478 2.23-1.125l13.944 4.482c1.101.354 1.914 1.498 1.826 2.432Z"/>
  <path fill="url(#aI)" d="M482.248 225.292c-1.845 20.2-8.115 36.527-14.571 34.849l8.139-70.583-.022-.007c.216.069.428.198.631.311 4.794 2.879 7.445 17.663 5.823 35.43Z" opacity=".3"/>
  <path fill="url(#aJ)" d="M323.112 206.879c4.631 1.507 10.306-1.581 16.671-8.959 5.444-6.31 10.626-14.923 14.586-24.075 3.782-8.74 6.022-16.994 6.429-23.385.443-6.967-1.312-11.034-5.201-12.268-3.887-1.232-8.519.804-13.907 6.187-4.937 4.932-10.05 12.245-14.429 20.766-4.586 8.921-7.837 18.127-9.017 25.797-1.381 8.976.242 14.431 4.868 15.937Z"/>
  <path fill="url(#aK)" d="M329.306 165.801c-9.494 18.699-12.298 37.086-5.374 39.338 6.934 2.256 19.991-12.845 28.375-31.956 7.632-17.395 8.573-31.902 2.706-33.764-5.859-1.859-17.063 9.358-25.707 26.382Z"/>
  <path fill="url(#aL)" d="m314.823 153.795 58.585 18.756c2.695.863 4.148 2.895 3.497 4.648l-19.222 51.75c-.843 2.27-3.923 3.344-7.02 2.331l-34.122-.245c-2.806-.022-5.488-.897-7.565-2.467l-25.423-19.242c-3.051-.998-4.465-3.525-3.236-5.648l28.046-48.449c.951-1.643 3.799-2.286 6.46-1.434Z"/>
  <path fill="url(#aM)" d="M275.735 203.582c-5.724 9.702-9.939 19.379-12.154 27.431-.081.293-.16.583-.234.87.283 1.525 3.512 3.693 8.064 5.304.247.087.495.173.748.257 5.366 1.774 10.39 2.089 11.688.81l.073-.081c6.124-6.855 12.413-16.06 17.639-26.152 9.546-18.437 12.451-33.97 8.014-38.198a4.097 4.097 0 0 0-1.607-.959c-6.549-2.111-20.545 10.911-32.231 30.718Z"/>
  <path fill="url(#aN)" d="M263.459 231.18c-.123.212-.158.45-.113.704.298 1.607 3.871 3.928 8.811 5.561 5.367 1.774 10.391 2.089 11.688.81.024-.025.048-.051.074-.081.051-.059.097-.126.133-.195.836-1.586-3.081-4.375-8.735-6.24-5.438-1.793-10.555-2.095-11.737-.725a.979.979 0 0 0-.121.166Z"/>
  <path fill="url(#aO)" d="M275.735 203.586c-5.724 9.702-9.939 19.379-12.154 27.431-.081.293-.16.583-.234.869.283 1.526 3.512 3.694 8.064 5.305a25.034 25.034 0 0 0-.606-2.443c-3.719-12.211 17.922-36.504 31.187-49.166 5.378-5.132 7.214-9.006 7.581-11.756a4.106 4.106 0 0 0-1.607-.958c-6.549-2.111-20.545 10.911-32.231 30.718Z" opacity=".3"/>
  <path fill="url(#aP)" d="m277.062 234.795-6.231-1.91c-3.313-1.016-7.199-.27-9.849 1.907l-2.544 2.088c-.943.774-.69 2.019.488 2.381l21.053 6.468c1.181.363 2.483-.406 2.494-1.468l.028-2.864c.03-2.985-2.122-5.585-5.439-6.602Z"/>
  <path fill="url(#aQ)" d="M282.018 245.53c-.952 1.943-7.234 1.839-14.019-.247-6.779-2.084-11.411-5.332-10.359-7.242 1.044-1.894 7.294-1.757 13.973.293 6.685 2.052 11.349 5.268 10.405 7.196Z"/>
  <path fill="url(#aR)" d="M279.088 244.63c-.731 1.473-5.503 1.391-10.65-.191-5.143-1.581-8.666-4.047-7.877-5.5.785-1.444 5.538-1.342 10.624.219 5.089 1.562 8.631 4.009 7.903 5.472Z"/>
  <path fill="url(#aS)" d="M334.565 222.803c-4.387 10.214-7.31 20.387-8.485 28.839-.043.308-.085.612-.122.913.461 1.594 3.868 3.828 8.494 5.465.251.088.503.176.759.26 5.439 1.798 10.366 2.072 11.473.719l.061-.086c5.122-7.243 10.117-16.947 13.968-27.565 7.031-19.388 7.957-35.659 3.127-40.03a4.52 4.52 0 0 0-1.679-.984c-6.624-2.136-18.644 11.628-27.596 32.469Z"/>
  <path fill="url(#aT)" d="M325.984 251.82c-.095.224-.1.473-.025.738.485 1.68 4.246 4.07 9.252 5.725 5.44 1.798 10.367 2.072 11.473.719l.062-.086a.955.955 0 0 0 .106-.206c.619-1.669-3.532-4.546-9.262-6.436-5.51-1.817-10.526-2.077-11.51-.629a.869.869 0 0 0-.096.175Z"/>
  <path fill="url(#aU)" d="M334.565 222.803c-4.387 10.214-7.31 20.387-8.485 28.839-.043.308-.085.612-.122.913.461 1.594 3.868 3.828 8.494 5.465-.257-.86-.552-1.71-.888-2.552-5.106-12.741 12.986-38.395 24.341-51.779 4.602-5.424 5.915-9.493 5.935-12.371a4.52 4.52 0 0 0-1.679-.984c-6.624-2.136-18.644 11.628-27.596 32.469Z" opacity=".3"/>
  <path fill="url(#aV)" d="m339.664 255.452-6.296-1.931c-3.348-1.027-7.038-.202-9.353 2.106l-2.221 2.214c-.824.821-.427 2.121.764 2.487l21.278 6.54c1.194.367 2.368-.453 2.248-1.565l-.322-2.999c-.335-3.126-2.746-5.824-6.098-6.852Z"/>
  <path fill="url(#aW)" d="M345.793 266.638c-.689 2.046-6.815 2.007-13.673-.102-6.853-2.108-11.756-5.458-10.965-7.469.786-1.994 6.885-1.92 13.635.152 6.756 2.074 11.687 5.39 11.003 7.419Z"/>
  <path fill="url(#aX)" d="M342.831 265.728c-.532 1.55-5.186 1.517-10.388-.083-5.199-1.598-8.928-4.141-8.337-5.671.589-1.521 5.227-1.467 10.367.111 5.142 1.579 8.887 4.102 8.358 5.643Z"/>
  <path fill="url(#aY)" d="M314.078 161.879c-.697 1.259.209 2.76 2.03 3.345l49.901 16.035c1.84.591 3.75-.012 4.262-1.339l.079-.204c.508-1.317-.556-2.851-2.374-3.434l-49.287-15.808c-1.798-.577-3.813-.037-4.504 1.212l-.107.193Z"/>
  <path fill="url(#aZ)" d="M339.635 262.23s4.837 14.014 2.301 22.034c-.905-2.218-2.175-3.065-2.175-3.065s-19.053 34.2-25.92 39.636c2.922-32.8 8.265-46.641 8.265-46.641l-8.26 4.327s7.69-17.482 16.22-19.44c0 0 7.471 1.728 9.569 3.149Z"/>
  <path fill="url(#ba)" d="M275.638 240.915s4.837 14.014 2.302 22.034c-.906-2.218-2.176-3.065-2.176-3.065s-19.053 34.2-25.92 39.637c2.923-32.801 8.265-46.642 8.265-46.642l-8.259 4.327s7.69-17.482 16.22-19.439c0 0 7.471 1.727 9.568 3.148Z"/>
  <path fill="url(#bb)" d="m582.687 543.06-139.499-33-39.514 6.421-.05 5.341 128.542 38.343 50.521-17.105Z"/>
  <path fill="url(#bc)" d="M557.401 528.63c11.89 4.458 27.99 10.586 49.773 10.247 13.87-.217 21.446-.335 26.442-4.232 16.638-12.978-11.689-56.304-69.024-142.425-18.335-27.542-30.404-44.137-54.859-52.105-27.765-9.047-54.621-1.476-64.484 1.304-6.959 1.962-63.485 18.743-74.424 63.249-8.939 36.37 16.16 76.629 62.654 95.908l8.404-9.696c-4.217-5.769-12.302-18.617-12.373-35.963-.075-18.591 9.063-40.507 16.514-40.17 11.877.537-2.652 56.612 37.802 87.119 6.548 4.938 2.474.11 73.575 26.764Z"/>
  <path fill="url(#bd)" d="M391.591 431.749c2.701-14.861 11.103-61.073 45.661-72.075 27.097-8.626 53.644 9.69 66.507-1.408 5.205-4.491 5.698-11.665 4.527-18.596.482.147.963.288 1.445.445 24.455 7.968 36.524 24.564 54.859 52.106 57.334 86.121 85.662 129.446 69.024 142.425-4.996 3.896-12.573 4.014-26.442 4.231-21.783.339-37.883-5.789-49.773-10.246-71.101-26.655-67.027-21.827-73.575-26.765-40.454-30.506-25.925-86.581-37.802-87.119-7.452-.337-16.589 21.58-16.514 40.17.071 17.346 8.156 30.195 12.373 35.963l-8.404 9.697c-17.237-7.148-31.526-17.184-42.237-28.832-1.896-11.82-2.313-25.342.351-39.996Z"/>
  <path fill="url(#be)" d="m584.827 523.536-9.338-3.317s52.806-43.691-44.608-134.721c0 0-47.916-52.125-23.877-47.413 31.142 6.105 82.041 19.012 128.611 72.987 46.571 53.974 19.128 100.564-50.788 112.464Z"/>
  <path fill="#F5D1B7" d="M584.829 523.535s-5.136-5.502-17.446-6.323c-12.311-.821-31.972 5.813-35.887 10.66-3.916 4.848-.252 7.869 4.727 7.701 4.98-.168 11.878-5.805 21.178-6.94 9.301-1.134 27.769 10.556 27.428-5.098Z"/>
  <path fill="url(#bf)" d="M457.514 340.738c2.927-1.875 3.565-5.339 1.45-7.873l-6.227-7.461 6.664-10.054 22.978 14.634c6.1 3.884 13.238 6.477 20.798 7.554l3.831.546s-22.36 9.854-33.807 12.987c-11.447 3.134-24.943-4.403-24.943-4.403l9.256-5.93Z"/>
  <path fill="url(#bg)" d="m431.294 295.223-1.498-.268c-6.167-1.105-12.594 3.617-14.355 10.546l-.099.389c-1.761 6.93 1.811 13.443 7.978 14.548l1.498.268c3.111.557 7.083-4.695 8.871-11.732 1.788-7.037.716-13.193-2.395-13.751Z"/>
  <path fill="url(#bh)" d="M437.203 309.608c-1.957 7.702-7.148 13.3-11.744 12.477-4.596-.823-6.856-7.757-4.899-15.459 1.958-7.702 7.391-13.257 11.987-12.433 4.596.823 6.613 7.712 4.656 15.415Z"/>
  <path fill="url(#bi)" d="m425.22 322.041 1.755.314 7.088-27.892-1.755-.315-7.088 27.893Z"/>
  <path fill="url(#bj)" d="M438.837 309.898c-1.957 7.702-7.269 13.279-11.865 12.455-4.595-.823-6.734-7.734-4.777-15.437 1.957-7.702 7.27-13.278 11.865-12.455 4.596.823 6.735 7.735 4.777 15.437Z"/>
  <path fill="url(#bk)" d="M435.046 309.217c-1.064 4.188-3.953 7.22-6.452 6.773-2.498-.448-3.662-4.206-2.597-8.394 1.064-4.188 3.952-7.22 6.451-6.772 2.499.448 3.662 4.205 2.598 8.393Z" opacity=".6"/>
  <path fill="#26264F" d="M465.393 325.262s23.349-13.747 18.164-19.762c-5.184-6.014-12.666-4.921-15.188-6.982-2.523-2.06-13.891-13.755-28.649-10.792-14.758 2.962-20.095-9.985-23.098-.218-3.003 9.766-8.038 27.016 12.952 27.586 20.989.571 35.819 10.168 35.819 10.168Z"/>
  <path fill="#F5D1B7" d="M462.709 327.255s-7.344 8.673-22.071 7.309c-13.159-1.219-15.212-23.173-6.848-27.454 2.792-1.429 8.403-1.834 12.977-.692 2.704.676 3.624 1.545 8.067 2.586 4.102.962 5.257.675 6.499 1.498 1.554 1.031 2.704 3.444.163 9.74 2.507-1.779 5.526-2.373 7.675-1.531.343.134 1.253.63 1.769 1.344 1.865 2.586-1.205 5.651-8.231 7.2Z"/>
  <path fill="url(#bl)" d="m471.215 301.683-1.204 4.909-1.907-.327 1.203-4.91c.704-2.867.447-5.698-.566-8.2a13.295 13.295 0 0 0-3.015-4.503c-1.849-1.828-4.271-3.178-7.093-3.806l-.076-.019-9.369-2.098c-4.423-.988-9.048-.249-13.022 2.105a17.88 17.88 0 0 0-3.056 2.273 10.99 10.99 0 0 0-.838.819c-.545-.105-1.482-.286-2.125-.42a16.912 16.912 0 0 1 1.742-1.784c.98-.91 2.08-1.727 3.287-2.434.285-.161.56-.322.846-.474 3.894-2.055 8.279-2.787 12.542-2.092.392.058.784.134 1.165.22l5.458 1.225 3.988.893c3.801.854 6.949 2.849 9.118 5.534a14.62 14.62 0 0 1 2.225 3.686c1.195 2.859 1.503 6.108.697 9.403Z"/>
  <path fill="url(#bm)" d="M433.969 287.408a3.174 3.174 0 0 0 2.334-.503c3.633-2.463 8.13-3.335 12.337-2.393l9.447 2.117c3.299.739 6.074 2.627 7.813 5.317.822 1.272 2.623 1.628 4.023.794 1.4-.833 1.868-2.54 1.046-3.812-2.505-3.875-6.501-6.595-11.253-7.659l-9.446-2.116c-5.889-1.32-12.178-.099-17.258 3.346-1.346.912-1.699 2.638-.79 3.855.427.573 1.058.93 1.747 1.054Z"/>
  <path fill="url(#bn)" d="M439.392 282.63c7.516-.676 8.005-2.447 11.711-1.924 6.929.976 8.149 7.582 15.039 7.974 1.615.092 3.077-.184 4.272-.553.192.262.377.529.554.803.822 1.272.354 2.979-1.046 3.813-1.4.833-3.201.478-4.023-.794-1.739-2.691-4.514-4.579-7.813-5.318l-9.447-2.116c-4.207-.942-8.704-.07-12.337 2.393a3.173 3.173 0 0 1-2.334.502 2.763 2.763 0 0 1-1.747-1.054c-.824-1.103-.611-2.624.438-3.578 1.925.088 4.199.08 6.733-.148Z" opacity=".3"/>
  <path fill="url(#bo)" d="M458.146 313.116c-1.978 7.787.184 14.775 4.83 15.607 4.647.833 10.017-4.805 11.996-12.592 1.979-7.788-.183-14.775-4.83-15.607-4.646-.833-10.017 4.805-11.996 12.592Z"/>
  <path fill="url(#bp)" d="M459.799 313.413c-1.979 7.787.183 14.775 4.83 15.607 4.646.833 10.017-4.805 11.996-12.592 1.978-7.787-.184-14.775-4.83-15.608-4.647-.832-10.017 4.806-11.996 12.593Z"/>
  <path fill="url(#bq)" d="m473.416 302.386 1.514.271c6.235 1.117 9.847 7.702 8.066 14.708l-.1.393c-1.78 7.006-8.278 11.78-14.513 10.663l-1.515-.271c-3.145-.564-4.229-6.788-2.421-13.903 1.808-7.114 5.823-12.425 8.969-11.861Z"/>
  <path fill="url(#br)" d="M471.872 315.368c-1.304 5.135.128 9.744 3.2 10.294 3.072.551 6.62-3.166 7.925-8.301 1.305-5.135-.127-9.745-3.199-10.295-3.072-.55-6.621 3.167-7.926 8.302Z"/>
  <path fill="url(#bs)" d="m527.517 548.49-11.671-143.297c-.185-2.267-2.493-4.402-5.572-5.154L287.86 345.731c-1.992-.487-5.822-.065-7.348.706-1.526.771-3.248.585-3.187 2.046l8.068 132.4c.134 2.202 2.287 4.31 5.253 5.142l232.056 65.161 4.815-2.696Z"/>
  <path fill="url(#bt)" d="m522.7 551.186-12.132-144.5c-.19-2.265-2.496-4.394-5.571-5.145L282.573 347.23c-1.991-.486-4.032-.321-5.559.45-1.527.77-2.376 2.066-2.316 3.527l5.474 131.064c.094 2.253 2.314 4.421 5.365 5.24L522.7 551.186Z"/>
  <path fill="url(#bu)" d="M522.703 551.184 285.54 487.509c-3.052-.819-5.271-2.987-5.365-5.24l-1.652-39.527c70.221 38.185 158.948 53.512 241.452 75.96l2.728 32.482Z" opacity=".3"/>
  <path fill="url(#bv)" d="m404.36 554.464 8.393 4.443s40.178-14.415 42.584-15.28c.382-.137 2.044-1.829.024-2.551-10.694-3.822-51.55-13.025-51.55-13.025l-21.387 8.231 21.936 18.182Z"/>
  <path fill="url(#bw)" d="m404.383 551.912 8.393 4.444s40.178-14.415 42.584-15.28c2.406-.865-51.526-15.576-51.526-15.576l-21.386 8.23 21.935 18.182Z"/>
  <path fill="url(#bx)" d="M363.789 440.981s-21.094 90.044-23.272 95.054c-2.01 4.625 55.175 20.226 68.857 23.211 1.137.248 2.84-.152 3.376-.338 3.904.333-13.264-109.083-13.264-109.083l-1.329-.234-34.368-8.61Z"/>
  <path fill="url(#by)" d="M363.792 440.982s-24.647 90.306-26.825 95.316c-2.178 5.009 66.204 21.928 72.233 22.873 3.903.332-11.04-109.58-11.04-109.58l-34.368-8.609Z"/>
  <defs>
    <linearGradient id="a" x1="96.622" x2="275.718" y1="-385.351" y2="333.308" gradientUnits="userSpaceOnUse">
      <stop stop-color="#444B8C"/>
      <stop offset=".996" stop-color="#26264F"/>
    </linearGradient>
    <linearGradient id="b" x1="263.081" x2="435.556" y1="69.748" y2="761.842" gradientUnits="userSpaceOnUse">
      <stop stop-color="#444B8C"/>
      <stop offset=".996" stop-color="#26264F"/>
    </linearGradient>
    <linearGradient id="c" x1="14.743" x2="617.457" y1="204.104" y2="209.795" gradientUnits="userSpaceOnUse">
      <stop stop-color="#444B8C"/>
      <stop offset=".996" stop-color="#26264F"/>
    </linearGradient>
    <linearGradient id="e" x1="-122.599" x2="266.675" y1="245.715" y2="249.39" gradientUnits="userSpaceOnUse">
      <stop stop-color="#444B8C"/>
      <stop offset=".996" stop-color="#26264F"/>
    </linearGradient>
    <linearGradient id="f" x1="70.662" x2="293.308" y1="227.806" y2="229.909" gradientUnits="userSpaceOnUse">
      <stop stop-color="#444B8C"/>
      <stop offset=".996" stop-color="#26264F"/>
    </linearGradient>
    <linearGradient id="g" x1="253.42" x2="319.869" y1="219.036" y2="219.663" gradientUnits="userSpaceOnUse">
      <stop stop-color="#444B8C"/>
      <stop offset=".996" stop-color="#26264F"/>
    </linearGradient>
    <linearGradient id="h" x1="344.318" x2="427.857" y1="217.934" y2="218.722" gradientUnits="userSpaceOnUse">
      <stop stop-color="#444B8C"/>
      <stop offset=".996" stop-color="#26264F"/>
    </linearGradient>
    <linearGradient id="i" x1="370.386" x2="590.39" y1="223.982" y2="226.059" gradientUnits="userSpaceOnUse">
      <stop stop-color="#444B8C"/>
      <stop offset=".996" stop-color="#26264F"/>
    </linearGradient>
    <linearGradient id="j" x1="396.011" x2="743.401" y1="237.299" y2="240.579" gradientUnits="userSpaceOnUse">
      <stop stop-color="#444B8C"/>
      <stop offset=".996" stop-color="#26264F"/>
    </linearGradient>
    <linearGradient id="k" x1="-63.699" x2="704.481" y1="124.247" y2="131.5" gradientUnits="userSpaceOnUse">
      <stop stop-color="#444B8C"/>
      <stop offset=".996" stop-color="#26264F"/>
    </linearGradient>
    <linearGradient id="l" x1="-63.342" x2="702.046" y1="60.745" y2="67.972" gradientUnits="userSpaceOnUse">
      <stop stop-color="#444B8C"/>
      <stop offset=".996" stop-color="#26264F"/>
    </linearGradient>
    <linearGradient id="m" x1="-64.159" x2="707.616" y1="206.087" y2="213.374" gradientUnits="userSpaceOnUse">
      <stop stop-color="#444B8C"/>
      <stop offset=".996" stop-color="#26264F"/>
    </linearGradient>
    <linearGradient id="n" x1="-64.629" x2="710.776" y1="288.868" y2="296.19" gradientUnits="userSpaceOnUse">
      <stop stop-color="#444B8C"/>
      <stop offset=".996" stop-color="#26264F"/>
    </linearGradient>
    <linearGradient id="o" x1="-65.097" x2="713.971" y1="372.401" y2="379.757" gradientUnits="userSpaceOnUse">
      <stop stop-color="#444B8C"/>
      <stop offset=".996" stop-color="#26264F"/>
    </linearGradient>
    <linearGradient id="p" x1="6.726" x2="630.519" y1="327.555" y2="333.445" gradientUnits="userSpaceOnUse">
      <stop stop-color="#444B8C"/>
      <stop offset=".996" stop-color="#26264F"/>
    </linearGradient>
    <linearGradient id="q" x1="537.008" x2="291.46" y1="-370.162" y2="782.03" gradientUnits="userSpaceOnUse">
      <stop stop-color="#444B8C"/>
      <stop offset=".996" stop-color="#26264F"/>
    </linearGradient>
    <linearGradient id="r" x1="307.645" x2="262.783" y1="186.111" y2="396.616" gradientUnits="userSpaceOnUse">
      <stop stop-color="#444B8C"/>
      <stop offset=".996" stop-color="#26264F"/>
    </linearGradient>
    <linearGradient id="s" x1="445.448" x2="401.805" y1="188.896" y2="393.683" gradientUnits="userSpaceOnUse">
      <stop stop-color="#444B8C"/>
      <stop offset=".996" stop-color="#26264F"/>
    </linearGradient>
    <linearGradient id="t" x1="320.867" x2="309.401" y1="286.928" y2="340.731" gradientUnits="userSpaceOnUse">
      <stop stop-color="#444B8C"/>
      <stop offset=".996" stop-color="#26264F"/>
    </linearGradient>
    <linearGradient id="u" x1="346.634" x2="335.226" y1="286.939" y2="340.468" gradientUnits="userSpaceOnUse">
      <stop stop-color="#444B8C"/>
      <stop offset=".996" stop-color="#26264F"/>
    </linearGradient>
    <linearGradient id="v" x1="372.169" x2="360.819" y1="286.95" y2="340.208" gradientUnits="userSpaceOnUse">
      <stop stop-color="#444B8C"/>
      <stop offset=".996" stop-color="#26264F"/>
    </linearGradient>
    <linearGradient id="w" x1="355.994" x2="334.663" y1="245.623" y2="345.716" gradientUnits="userSpaceOnUse">
      <stop stop-color="#444B8C"/>
      <stop offset=".996" stop-color="#26264F"/>
    </linearGradient>
    <linearGradient id="x" x1="175.608" x2="117.581" y1="164.89" y2="437.172" gradientUnits="userSpaceOnUse">
      <stop stop-color="#444B8C"/>
      <stop offset=".996" stop-color="#26264F"/>
    </linearGradient>
    <linearGradient id="y" x1="505.732" x2="496.857" y1="299.538" y2="341.184" gradientUnits="userSpaceOnUse">
      <stop stop-color="#444B8C"/>
      <stop offset=".996" stop-color="#26264F"/>
    </linearGradient>
    <linearGradient id="z" x1="524.853" x2="516.007" y1="299.51" y2="341.018" gradientUnits="userSpaceOnUse">
      <stop stop-color="#444B8C"/>
      <stop offset=".996" stop-color="#26264F"/>
    </linearGradient>
    <linearGradient id="A" x1="543.413" x2="534.731" y1="299.848" y2="340.583" gradientUnits="userSpaceOnUse">
      <stop stop-color="#444B8C"/>
      <stop offset=".996" stop-color="#26264F"/>
    </linearGradient>
    <linearGradient id="B" x1="586.299" x2="556.98" y1="247.522" y2="385.096" gradientUnits="userSpaceOnUse">
      <stop stop-color="#444B8C"/>
      <stop offset=".996" stop-color="#26264F"/>
    </linearGradient>
    <linearGradient id="C" x1="596.094" x2="567.077" y1="248.293" y2="384.449" gradientUnits="userSpaceOnUse">
      <stop stop-color="#444B8C"/>
      <stop offset=".996" stop-color="#26264F"/>
    </linearGradient>
    <linearGradient id="D" x1="606.331" x2="577.127" y1="247.664" y2="384.7" gradientUnits="userSpaceOnUse">
      <stop stop-color="#444B8C"/>
      <stop offset=".996" stop-color="#26264F"/>
    </linearGradient>
    <linearGradient id="E" x1="616.823" x2="587.676" y1="247.742" y2="384.51" gradientUnits="userSpaceOnUse">
      <stop stop-color="#444B8C"/>
      <stop offset=".996" stop-color="#26264F"/>
    </linearGradient>
    <linearGradient id="F" x1="626.631" x2="597.779" y1="248.519" y2="383.898" gradientUnits="userSpaceOnUse">
      <stop stop-color="#444B8C"/>
      <stop offset=".996" stop-color="#26264F"/>
    </linearGradient>
    <linearGradient id="G" x1="149.571" x2="78.306" y1="-99.275" y2="235.124" gradientUnits="userSpaceOnUse">
      <stop stop-color="#444B8C"/>
      <stop offset=".996" stop-color="#26264F"/>
    </linearGradient>
    <linearGradient id="H" x1="118.063" x2="78.764" y1="65.251" y2="249.652" gradientUnits="userSpaceOnUse">
      <stop stop-color="#444B8C"/>
      <stop offset=".996" stop-color="#26264F"/>
    </linearGradient>
    <linearGradient id="I" x1="118.743" x2="78.797" y1="101.349" y2="288.79" gradientUnits="userSpaceOnUse">
      <stop stop-color="#444B8C"/>
      <stop offset=".996" stop-color="#26264F"/>
    </linearGradient>
    <linearGradient id="J" x1="512.823" x2="528.118" y1="113.971" y2="114.115" gradientUnits="userSpaceOnUse">
      <stop stop-color="#444B8C"/>
      <stop offset=".996" stop-color="#26264F"/>
    </linearGradient>
    <linearGradient id="K" x1="25.864" x2="41.159" y1="257.088" y2="257.233" gradientUnits="userSpaceOnUse">
      <stop stop-color="#444B8C"/>
      <stop offset=".996" stop-color="#26264F"/>
    </linearGradient>
    <linearGradient id="L" x1="539.718" x2="548.745" y1="99.764" y2="99.849" gradientUnits="userSpaceOnUse">
      <stop stop-color="#444B8C"/>
      <stop offset=".996" stop-color="#26264F"/>
    </linearGradient>
    <linearGradient id="M" x1="588.644" x2="597.671" y1="223.403" y2="223.488" gradientUnits="userSpaceOnUse">
      <stop stop-color="#444B8C"/>
      <stop offset=".996" stop-color="#26264F"/>
    </linearGradient>
    <linearGradient id="N" x1="175.298" x2="184.325" y1="84.866" y2="84.951" gradientUnits="userSpaceOnUse">
      <stop stop-color="#444B8C"/>
      <stop offset=".996" stop-color="#26264F"/>
    </linearGradient>
    <linearGradient id="O" x1="138.523" x2="147.55" y1="232.952" y2="233.037" gradientUnits="userSpaceOnUse">
      <stop stop-color="#444B8C"/>
      <stop offset=".996" stop-color="#26264F"/>
    </linearGradient>
    <linearGradient id="P" x1="104.298" x2="116.41" y1="265.266" y2="265.38" gradientUnits="userSpaceOnUse">
      <stop stop-color="#444B8C"/>
      <stop offset=".996" stop-color="#26264F"/>
    </linearGradient>
    <linearGradient id="R" x1="544.03" x2="298.481" y1="-370.096" y2="782.096" gradientUnits="userSpaceOnUse">
      <stop stop-color="#FFDAB8"/>
      <stop offset=".996" stop-color="#FFDAB8"/>
    </linearGradient>
    <linearGradient id="S" x1="24.807" x2="630.116" y1="320.884" y2="401.028" gradientUnits="userSpaceOnUse">
      <stop stop-color="#FB8D48"/>
      <stop offset=".2" stop-color="#ED7136"/>
      <stop offset=".4" stop-color="#C54E47"/>
      <stop offset=".4" stop-color="#C14F49"/>
      <stop offset=".6" stop-color="#9D3863"/>
      <stop offset=".8" stop-color="#5E1F72"/>
    </linearGradient>
    <linearGradient id="T" x1="254.389" x2="296.652" y1="314.204" y2="315.609" gradientUnits="userSpaceOnUse">
      <stop stop-color="#FB8D48"/>
      <stop offset=".2" stop-color="#ED7136"/>
      <stop offset=".4" stop-color="#C54E47"/>
      <stop offset=".4" stop-color="#C14F49"/>
      <stop offset=".6" stop-color="#9D3863"/>
      <stop offset=".8" stop-color="#5E1F72"/>
    </linearGradient>
    <linearGradient id="U" x1="394.244" x2="434.519" y1="313.508" y2="314.824" gradientUnits="userSpaceOnUse">
      <stop stop-color="#FB8D48"/>
      <stop offset=".2" stop-color="#ED7136"/>
      <stop offset=".4" stop-color="#C54E47"/>
      <stop offset=".4" stop-color="#C14F49"/>
      <stop offset=".6" stop-color="#9D3863"/>
      <stop offset=".8" stop-color="#5E1F72"/>
    </linearGradient>
    <linearGradient id="V" x1="312.516" x2="323.246" y1="319.717" y2="320.072" gradientUnits="userSpaceOnUse">
      <stop stop-color="#FB8D48"/>
      <stop offset=".2" stop-color="#ED7136"/>
      <stop offset=".4" stop-color="#C54E47"/>
      <stop offset=".4" stop-color="#C14F49"/>
      <stop offset=".6" stop-color="#9D3863"/>
      <stop offset=".8" stop-color="#5E1F72"/>
    </linearGradient>
    <linearGradient id="W" x1="338.378" x2="349.012" y1="319.561" y2="319.911" gradientUnits="userSpaceOnUse">
      <stop stop-color="#FB8D48"/>
      <stop offset=".2" stop-color="#ED7136"/>
      <stop offset=".4" stop-color="#C54E47"/>
      <stop offset=".4" stop-color="#C14F49"/>
      <stop offset=".6" stop-color="#9D3863"/>
      <stop offset=".8" stop-color="#5E1F72"/>
    </linearGradient>
    <linearGradient id="X" x1="364.009" x2="374.55" y1="319.407" y2="319.753" gradientUnits="userSpaceOnUse">
      <stop stop-color="#FB8D48"/>
      <stop offset=".2" stop-color="#ED7136"/>
      <stop offset=".4" stop-color="#C54E47"/>
      <stop offset=".4" stop-color="#C14F49"/>
      <stop offset=".6" stop-color="#9D3863"/>
      <stop offset=".8" stop-color="#5E1F72"/>
    </linearGradient>
    <linearGradient id="Y" x1="312.814" x2="372.531" y1="307.187" y2="323.712" gradientUnits="userSpaceOnUse">
      <stop stop-color="#FB8D48"/>
      <stop offset=".2" stop-color="#ED7136"/>
      <stop offset=".4" stop-color="#C54E47"/>
      <stop offset=".4" stop-color="#C14F49"/>
      <stop offset=".6" stop-color="#9D3863"/>
      <stop offset=".8" stop-color="#5E1F72"/>
    </linearGradient>
    <linearGradient id="Z" x1="55.316" x2="206.227" y1="332.014" y2="359.214" gradientUnits="userSpaceOnUse">
      <stop stop-color="#FB8D48"/>
      <stop offset=".2" stop-color="#ED7136"/>
      <stop offset=".4" stop-color="#C54E47"/>
      <stop offset=".4" stop-color="#C14F49"/>
      <stop offset=".6" stop-color="#9D3863"/>
      <stop offset=".8" stop-color="#5E1F72"/>
    </linearGradient>
    <linearGradient id="aa" x1="500.743" x2="509.249" y1="324.946" y2="325.234" gradientUnits="userSpaceOnUse">
      <stop stop-color="#FB8D48"/>
      <stop offset=".2" stop-color="#ED7136"/>
      <stop offset=".4" stop-color="#C54E47"/>
      <stop offset=".4" stop-color="#C14F49"/>
      <stop offset=".6" stop-color="#9D3863"/>
      <stop offset=".8" stop-color="#5E1F72"/>
    </linearGradient>
    <linearGradient id="ab" x1="519.9" x2="528.407" y1="324.821" y2="325.109" gradientUnits="userSpaceOnUse">
      <stop stop-color="#FB8D48"/>
      <stop offset=".2" stop-color="#ED7136"/>
      <stop offset=".4" stop-color="#C54E47"/>
      <stop offset=".4" stop-color="#C14F49"/>
      <stop offset=".6" stop-color="#9D3863"/>
      <stop offset=".8" stop-color="#5E1F72"/>
    </linearGradient>
    <linearGradient id="ac" x1="539.04" x2="546.606" y1="324.673" y2="324.911" gradientUnits="userSpaceOnUse">
      <stop stop-color="#FB8D48"/>
      <stop offset=".2" stop-color="#ED7136"/>
      <stop offset=".4" stop-color="#C54E47"/>
      <stop offset=".4" stop-color="#C14F49"/>
      <stop offset=".6" stop-color="#9D3863"/>
      <stop offset=".8" stop-color="#5E1F72"/>
    </linearGradient>
    <linearGradient id="ad" x1="564.683" x2="570.346" y1="331.367" y2="331.448" gradientUnits="userSpaceOnUse">
      <stop stop-color="#FB8D48"/>
      <stop offset=".2" stop-color="#ED7136"/>
      <stop offset=".4" stop-color="#C54E47"/>
      <stop offset=".4" stop-color="#C14F49"/>
      <stop offset=".6" stop-color="#9D3863"/>
      <stop offset=".8" stop-color="#5E1F72"/>
    </linearGradient>
    <linearGradient id="ae" x1="575.202" x2="579.931" y1="331.265" y2="331.329" gradientUnits="userSpaceOnUse">
      <stop stop-color="#FB8D48"/>
      <stop offset=".2" stop-color="#ED7136"/>
      <stop offset=".4" stop-color="#C54E47"/>
      <stop offset=".4" stop-color="#C14F49"/>
      <stop offset=".6" stop-color="#9D3863"/>
      <stop offset=".8" stop-color="#5E1F72"/>
    </linearGradient>
    <linearGradient id="af" x1="584.797" x2="590.484" y1="331.181" y2="331.262" gradientUnits="userSpaceOnUse">
      <stop stop-color="#FB8D48"/>
      <stop offset=".2" stop-color="#ED7136"/>
      <stop offset=".4" stop-color="#C54E47"/>
      <stop offset=".4" stop-color="#C14F49"/>
      <stop offset=".6" stop-color="#9D3863"/>
      <stop offset=".8" stop-color="#5E1F72"/>
    </linearGradient>
    <linearGradient id="ag" x1="595.341" x2="601.04" y1="331.095" y2="331.178" gradientUnits="userSpaceOnUse">
      <stop stop-color="#FB8D48"/>
      <stop offset=".2" stop-color="#ED7136"/>
      <stop offset=".4" stop-color="#C54E47"/>
      <stop offset=".4" stop-color="#C14F49"/>
      <stop offset=".6" stop-color="#9D3863"/>
      <stop offset=".8" stop-color="#5E1F72"/>
    </linearGradient>
    <linearGradient id="ah" x1="605.867" x2="610.633" y1="331.017" y2="331.082" gradientUnits="userSpaceOnUse">
      <stop stop-color="#FB8D48"/>
      <stop offset=".2" stop-color="#ED7136"/>
      <stop offset=".4" stop-color="#C54E47"/>
      <stop offset=".4" stop-color="#C14F49"/>
      <stop offset=".6" stop-color="#9D3863"/>
      <stop offset=".8" stop-color="#5E1F72"/>
    </linearGradient>
    <linearGradient id="ai" x1="52.197" x2="130.755" y1="176.404" y2="183.202" gradientUnits="userSpaceOnUse">
      <stop stop-color="#FB8D48"/>
      <stop offset=".2" stop-color="#ED7136"/>
      <stop offset=".4" stop-color="#C54E47"/>
      <stop offset=".4" stop-color="#C14F49"/>
      <stop offset=".6" stop-color="#9D3863"/>
      <stop offset=".8" stop-color="#5E1F72"/>
    </linearGradient>
    <linearGradient id="aj" x1="144.609" x2="221.665" y1="457.872" y2="460.394" gradientUnits="userSpaceOnUse">
      <stop stop-color="#FB8D48"/>
      <stop offset=".2" stop-color="#ED7136"/>
      <stop offset=".4" stop-color="#C54E47"/>
      <stop offset=".4" stop-color="#C14F49"/>
      <stop offset=".6" stop-color="#9D3863"/>
      <stop offset=".8" stop-color="#5E1F72"/>
    </linearGradient>
    <linearGradient id="ak" x1="152.429" x2="219.22" y1="458.534" y2="460.872" gradientUnits="userSpaceOnUse">
      <stop stop-color="#FB8D48"/>
      <stop offset=".2" stop-color="#ED7136"/>
      <stop offset=".4" stop-color="#C54E47"/>
      <stop offset=".4" stop-color="#C14F49"/>
      <stop offset=".6" stop-color="#9D3863"/>
      <stop offset=".8" stop-color="#5E1F72"/>
    </linearGradient>
    <linearGradient id="al" x1="143.951" x2="174.184" y1="478.634" y2="479.575" gradientUnits="userSpaceOnUse">
      <stop stop-color="#FB8D48"/>
      <stop offset=".2" stop-color="#ED7136"/>
      <stop offset=".4" stop-color="#C54E47"/>
      <stop offset=".4" stop-color="#C14F49"/>
      <stop offset=".6" stop-color="#9D3863"/>
      <stop offset=".8" stop-color="#5E1F72"/>
    </linearGradient>
    <linearGradient id="am" x1="178.47" x2="221.365" y1="442.363" y2="444.045" gradientUnits="userSpaceOnUse">
      <stop stop-color="#FB8D48"/>
      <stop offset=".2" stop-color="#ED7136"/>
      <stop offset=".4" stop-color="#C54E47"/>
      <stop offset=".4" stop-color="#C14F49"/>
      <stop offset=".6" stop-color="#9D3863"/>
      <stop offset=".8" stop-color="#5E1F72"/>
    </linearGradient>
    <linearGradient id="an" x1="250.344" x2="118.716" y1="474.184" y2="439.87" gradientUnits="userSpaceOnUse">
      <stop stop-color="#311944"/>
      <stop offset="1" stop-color="#893976"/>
    </linearGradient>
    <linearGradient id="ao" x1="241.916" x2="140.327" y1="501.572" y2="405.542" gradientUnits="userSpaceOnUse">
      <stop stop-color="#311944"/>
      <stop offset="1" stop-color="#893976"/>
    </linearGradient>
    <linearGradient id="ap" x1="63.622" x2="89.548" y1="424.596" y2="425.445" gradientUnits="userSpaceOnUse">
      <stop stop-color="#FB8D48"/>
      <stop offset=".2" stop-color="#ED7136"/>
      <stop offset=".4" stop-color="#C54E47"/>
      <stop offset=".4" stop-color="#C14F49"/>
      <stop offset=".6" stop-color="#9D3863"/>
      <stop offset=".8" stop-color="#5E1F72"/>
    </linearGradient>
    <linearGradient id="aq" x1="288.716" x2="314.642" y1="12.11" y2="12.958" gradientUnits="userSpaceOnUse">
      <stop stop-color="#FB8D48"/>
      <stop offset=".2" stop-color="#ED7136"/>
      <stop offset=".4" stop-color="#C54E47"/>
      <stop offset=".4" stop-color="#C14F49"/>
      <stop offset=".6" stop-color="#9D3863"/>
      <stop offset=".8" stop-color="#5E1F72"/>
    </linearGradient>
    <linearGradient id="ar" x1="565.539" x2="592.768" y1="171.348" y2="172.239" gradientUnits="userSpaceOnUse">
      <stop stop-color="#FB8D48"/>
      <stop offset=".2" stop-color="#ED7136"/>
      <stop offset=".4" stop-color="#C54E47"/>
      <stop offset=".4" stop-color="#C14F49"/>
      <stop offset=".6" stop-color="#9D3863"/>
      <stop offset=".8" stop-color="#5E1F72"/>
    </linearGradient>
    <linearGradient id="as" x1="314.951" x2="330.667" y1="154.366" y2="238.396" gradientUnits="userSpaceOnUse">
      <stop stop-color="#444B8C"/>
      <stop offset=".996" stop-color="#26264F"/>
    </linearGradient>
    <linearGradient id="at" x1="316.695" x2="374.144" y1="138.244" y2="139.757" gradientUnits="userSpaceOnUse">
      <stop stop-color="#FB8D48"/>
      <stop offset=".2" stop-color="#ED7136"/>
      <stop offset=".4" stop-color="#C54E47"/>
      <stop offset=".4" stop-color="#C14F49"/>
      <stop offset=".6" stop-color="#9D3863"/>
      <stop offset=".8" stop-color="#5E1F72"/>
    </linearGradient>
    <linearGradient id="au" x1="316.652" x2="369.758" y1="134.627" y2="136.077" gradientUnits="userSpaceOnUse">
      <stop stop-color="#FB8D48"/>
      <stop offset=".2" stop-color="#ED7136"/>
      <stop offset=".4" stop-color="#C54E47"/>
      <stop offset=".4" stop-color="#C14F49"/>
      <stop offset=".6" stop-color="#9D3863"/>
      <stop offset=".8" stop-color="#5E1F72"/>
    </linearGradient>
    <linearGradient id="av" x1="253.237" x2="267.167" y1="124.33" y2="198.808" gradientUnits="userSpaceOnUse">
      <stop stop-color="#444B8C"/>
      <stop offset=".996" stop-color="#26264F"/>
    </linearGradient>
    <linearGradient id="aw" x1="209.849" x2="317.873" y1="155.249" y2="160.009" gradientUnits="userSpaceOnUse">
      <stop stop-color="#FB8D48"/>
      <stop offset=".2" stop-color="#ED7136"/>
      <stop offset=".4" stop-color="#C54E47"/>
      <stop offset=".4" stop-color="#C14F49"/>
      <stop offset=".6" stop-color="#9D3863"/>
      <stop offset=".8" stop-color="#5E1F72"/>
    </linearGradient>
    <linearGradient id="ax" x1="209.707" x2="310.924" y1="157.284" y2="161.731" gradientUnits="userSpaceOnUse">
      <stop stop-color="#FB8D48"/>
      <stop offset=".2" stop-color="#ED7136"/>
      <stop offset=".4" stop-color="#C54E47"/>
      <stop offset=".4" stop-color="#C14F49"/>
      <stop offset=".6" stop-color="#9D3863"/>
      <stop offset=".8" stop-color="#5E1F72"/>
    </linearGradient>
    <linearGradient id="ay" x1="225.44" x2="229.165" y1="104.577" y2="124.491" gradientUnits="userSpaceOnUse">
      <stop stop-color="#AA80F9"/>
      <stop offset=".996" stop-color="#6165D7"/>
    </linearGradient>
    <linearGradient id="az" x1="180.533" x2="232.55" y1="134.987" y2="136.428" gradientUnits="userSpaceOnUse">
      <stop stop-color="#FB8D48"/>
      <stop offset=".2" stop-color="#ED7136"/>
      <stop offset=".4" stop-color="#C54E47"/>
      <stop offset=".4" stop-color="#C14F49"/>
      <stop offset=".6" stop-color="#9D3863"/>
      <stop offset=".8" stop-color="#5E1F72"/>
    </linearGradient>
    <linearGradient id="aA" x1="209.011" x2="210.77" y1="129.426" y2="138.832" gradientUnits="userSpaceOnUse">
      <stop offset=".004" stop-color="#EBEFF2"/>
      <stop offset="1" stop-color="#fff"/>
    </linearGradient>
    <linearGradient id="aB" x1="180.546" x2="230.469" y1="134.856" y2="136.206" gradientUnits="userSpaceOnUse">
      <stop stop-color="#FB8D48"/>
      <stop offset=".2" stop-color="#ED7136"/>
      <stop offset=".4" stop-color="#C54E47"/>
      <stop offset=".4" stop-color="#C14F49"/>
      <stop offset=".6" stop-color="#9D3863"/>
      <stop offset=".8" stop-color="#5E1F72"/>
    </linearGradient>
    <linearGradient id="aC" x1="450.221" x2="377.991" y1="186.606" y2="240.946" gradientUnits="userSpaceOnUse">
      <stop stop-color="#444B8C"/>
      <stop offset=".996" stop-color="#26264F"/>
    </linearGradient>
    <linearGradient id="aD" x1="356.093" x2="469.247" y1="198.36" y2="204.368" gradientUnits="userSpaceOnUse">
      <stop stop-color="#FB8D48"/>
      <stop offset=".2" stop-color="#ED7136"/>
      <stop offset=".4" stop-color="#C54E47"/>
      <stop offset=".4" stop-color="#C14F49"/>
      <stop offset=".6" stop-color="#9D3863"/>
      <stop offset=".8" stop-color="#5E1F72"/>
    </linearGradient>
    <linearGradient id="aE" x1="357.594" x2="468.519" y1="204.809" y2="211.96" gradientUnits="userSpaceOnUse">
      <stop stop-color="#FB8D48"/>
      <stop offset=".2" stop-color="#ED7136"/>
      <stop offset=".4" stop-color="#C54E47"/>
      <stop offset=".4" stop-color="#C14F49"/>
      <stop offset=".6" stop-color="#9D3863"/>
      <stop offset=".8" stop-color="#5E1F72"/>
    </linearGradient>
    <linearGradient id="aF" x1="485.693" x2="467.931" y1="188.149" y2="201.511" gradientUnits="userSpaceOnUse">
      <stop stop-color="#AA80F9"/>
      <stop offset=".996" stop-color="#6165D7"/>
    </linearGradient>
    <linearGradient id="aG" x1="460.863" x2="482.75" y1="219.758" y2="220.097" gradientUnits="userSpaceOnUse">
      <stop stop-color="#FB8D48"/>
      <stop offset=".2" stop-color="#ED7136"/>
      <stop offset=".4" stop-color="#C54E47"/>
      <stop offset=".4" stop-color="#C14F49"/>
      <stop offset=".6" stop-color="#9D3863"/>
      <stop offset=".8" stop-color="#5E1F72"/>
    </linearGradient>
    <linearGradient id="aH" x1="477.828" x2="468.306" y1="215.598" y2="222.762" gradientUnits="userSpaceOnUse">
      <stop offset=".004" stop-color="#EBEFF2"/>
      <stop offset="1" stop-color="#fff"/>
    </linearGradient>
    <linearGradient id="aI" x1="468.31" x2="482.737" y1="219.954" y2="220.148" gradientUnits="userSpaceOnUse">
      <stop stop-color="#FB8D48"/>
      <stop offset=".2" stop-color="#ED7136"/>
      <stop offset=".4" stop-color="#C54E47"/>
      <stop offset=".4" stop-color="#C14F49"/>
      <stop offset=".6" stop-color="#9D3863"/>
      <stop offset=".8" stop-color="#5E1F72"/>
    </linearGradient>
    <linearGradient id="aJ" x1="390.697" x2="353.465" y1="-59.341" y2="178.441" gradientUnits="userSpaceOnUse">
      <stop offset=".004" stop-color="#EBEFF2"/>
      <stop offset="1" stop-color="#fff"/>
    </linearGradient>
    <linearGradient id="aK" x1="388.575" x2="352.987" y1="-49.36" y2="177.927" gradientUnits="userSpaceOnUse">
      <stop stop-color="#444B8C"/>
      <stop offset=".996" stop-color="#26264F"/>
    </linearGradient>
    <linearGradient id="aL" x1="281.736" x2="377.242" y1="186.652" y2="189.86" gradientUnits="userSpaceOnUse">
      <stop stop-color="#FB8D48"/>
      <stop offset=".2" stop-color="#ED7136"/>
      <stop offset=".4" stop-color="#C54E47"/>
      <stop offset=".4" stop-color="#C14F49"/>
      <stop offset=".6" stop-color="#9D3863"/>
      <stop offset=".8" stop-color="#5E1F72"/>
    </linearGradient>
    <linearGradient id="aM" x1="264.47" x2="311.574" y1="200.935" y2="202.034" gradientUnits="userSpaceOnUse">
      <stop stop-color="#FB8D48"/>
      <stop offset=".2" stop-color="#ED7136"/>
      <stop offset=".4" stop-color="#C54E47"/>
      <stop offset=".4" stop-color="#C14F49"/>
      <stop offset=".6" stop-color="#9D3863"/>
      <stop offset=".8" stop-color="#5E1F72"/>
    </linearGradient>
    <linearGradient id="aN" x1="263.67" x2="284.223" y1="233.894" y2="235.041" gradientUnits="userSpaceOnUse">
      <stop stop-color="#FB8D48"/>
      <stop offset=".2" stop-color="#ED7136"/>
      <stop offset=".4" stop-color="#C54E47"/>
      <stop offset=".4" stop-color="#C14F49"/>
      <stop offset=".6" stop-color="#9D3863"/>
      <stop offset=".8" stop-color="#5E1F72"/>
    </linearGradient>
    <linearGradient id="aO" x1="264.441" x2="309.478" y1="200.181" y2="201.221" gradientUnits="userSpaceOnUse">
      <stop stop-color="#FB8D48"/>
      <stop offset=".2" stop-color="#ED7136"/>
      <stop offset=".4" stop-color="#C54E47"/>
      <stop offset=".4" stop-color="#C14F49"/>
      <stop offset=".6" stop-color="#9D3863"/>
      <stop offset=".8" stop-color="#5E1F72"/>
    </linearGradient>
    <linearGradient id="aP" x1="259.467" x2="282.318" y1="234.258" y2="244.87" gradientUnits="userSpaceOnUse">
      <stop stop-color="#AA80F9"/>
      <stop offset=".996" stop-color="#6165D7"/>
    </linearGradient>
    <linearGradient id="aQ" x1="273.467" x2="262.726" y1="238.133" y2="253.701" gradientUnits="userSpaceOnUse">
      <stop stop-color="#AA80F9"/>
      <stop offset=".996" stop-color="#6165D7"/>
    </linearGradient>
    <linearGradient id="aR" x1="272.592" x2="264.429" y1="239.004" y2="250.836" gradientUnits="userSpaceOnUse">
      <stop stop-color="#444B8C"/>
      <stop offset=".996" stop-color="#26264F"/>
    </linearGradient>
    <linearGradient id="aS" x1="326.97" x2="366.83" y1="219.892" y2="220.715" gradientUnits="userSpaceOnUse">
      <stop stop-color="#FB8D48"/>
      <stop offset=".2" stop-color="#ED7136"/>
      <stop offset=".4" stop-color="#C54E47"/>
      <stop offset=".4" stop-color="#C14F49"/>
      <stop offset=".6" stop-color="#9D3863"/>
      <stop offset=".8" stop-color="#5E1F72"/>
    </linearGradient>
    <linearGradient id="aT" x1="326.252" x2="346.975" y1="254.561" y2="255.697" gradientUnits="userSpaceOnUse">
      <stop stop-color="#FB8D48"/>
      <stop offset=".2" stop-color="#ED7136"/>
      <stop offset=".4" stop-color="#C54E47"/>
      <stop offset=".4" stop-color="#C14F49"/>
      <stop offset=".6" stop-color="#9D3863"/>
      <stop offset=".8" stop-color="#5E1F72"/>
    </linearGradient>
    <linearGradient id="aU" x1="326.922" x2="363.707" y1="219.14" y2="219.878" gradientUnits="userSpaceOnUse">
      <stop stop-color="#FB8D48"/>
      <stop offset=".2" stop-color="#ED7136"/>
      <stop offset=".4" stop-color="#C54E47"/>
      <stop offset=".4" stop-color="#C14F49"/>
      <stop offset=".6" stop-color="#9D3863"/>
      <stop offset=".8" stop-color="#5E1F72"/>
    </linearGradient>
    <linearGradient id="aV" x1="322.903" x2="346.005" y1="255.224" y2="265.953" gradientUnits="userSpaceOnUse">
      <stop stop-color="#AA80F9"/>
      <stop offset=".996" stop-color="#6165D7"/>
    </linearGradient>
    <linearGradient id="aW" x1="337.08" x2="326.444" y1="259.238" y2="274.653" gradientUnits="userSpaceOnUse">
      <stop stop-color="#AA80F9"/>
      <stop offset=".996" stop-color="#6165D7"/>
    </linearGradient>
    <linearGradient id="aX" x1="336.211" x2="328.128" y1="260.099" y2="271.814" gradientUnits="userSpaceOnUse">
      <stop stop-color="#444B8C"/>
      <stop offset=".996" stop-color="#26264F"/>
    </linearGradient>
    <linearGradient id="aY" x1="338.155" x2="343.72" y1="156.242" y2="185.996" gradientUnits="userSpaceOnUse">
      <stop offset=".004" stop-color="#EBEFF2"/>
      <stop offset="1" stop-color="#fff"/>
    </linearGradient>
    <linearGradient id="aZ" x1="310.401" x2="325.753" y1="282.479" y2="294.686" gradientUnits="userSpaceOnUse">
      <stop stop-color="#FF9085"/>
      <stop offset="1" stop-color="#FB6FBB"/>
    </linearGradient>
    <linearGradient id="ba" x1="246.404" x2="261.756" y1="261.164" y2="273.371" gradientUnits="userSpaceOnUse">
      <stop stop-color="#FF9085"/>
      <stop offset="1" stop-color="#FB6FBB"/>
    </linearGradient>
    <linearGradient id="bb" x1="582.753" x2="403.506" y1="536.01" y2="534.318" gradientUnits="userSpaceOnUse">
      <stop stop-color="#444B8C"/>
      <stop offset=".996" stop-color="#26264F"/>
    </linearGradient>
    <linearGradient id="bc" x1="373.712" x2="640.055" y1="421.722" y2="431.153" gradientUnits="userSpaceOnUse">
      <stop stop-color="#FB8D48"/>
      <stop offset=".2" stop-color="#ED7136"/>
      <stop offset=".4" stop-color="#C54E47"/>
      <stop offset=".4" stop-color="#C14F49"/>
      <stop offset=".6" stop-color="#9D3863"/>
      <stop offset=".8" stop-color="#5E1F72"/>
    </linearGradient>
    <linearGradient id="bd" x1="394.307" x2="639.996" y1="423.976" y2="432.288" gradientUnits="userSpaceOnUse">
      <stop stop-color="#FB8D48"/>
      <stop offset=".2" stop-color="#ED7136"/>
      <stop offset=".4" stop-color="#C54E47"/>
      <stop offset=".4" stop-color="#C14F49"/>
      <stop offset=".6" stop-color="#9D3863"/>
      <stop offset=".8" stop-color="#5E1F72"/>
    </linearGradient>
    <linearGradient id="be" x1="502.312" x2="659.634" y1="417.414" y2="421.532" gradientUnits="userSpaceOnUse">
      <stop stop-color="#FB8D48"/>
      <stop offset=".2" stop-color="#ED7136"/>
      <stop offset=".4" stop-color="#C54E47"/>
      <stop offset=".4" stop-color="#C14F49"/>
      <stop offset=".6" stop-color="#9D3863"/>
      <stop offset=".8" stop-color="#5E1F72"/>
    </linearGradient>
    <linearGradient id="bf" x1="449.427" x2="507.218" y1="330.933" y2="333.285" gradientUnits="userSpaceOnUse">
      <stop stop-color="#FB8D48"/>
      <stop offset=".2" stop-color="#ED7136"/>
      <stop offset=".4" stop-color="#C54E47"/>
      <stop offset=".4" stop-color="#C14F49"/>
      <stop offset=".6" stop-color="#9D3863"/>
      <stop offset=".8" stop-color="#5E1F72"/>
    </linearGradient>
    <linearGradient id="bg" x1="421.059" x2="424.803" y1="298.639" y2="309.265" gradientUnits="userSpaceOnUse">
      <stop stop-color="#AA80F9"/>
      <stop offset=".996" stop-color="#6165D7"/>
    </linearGradient>
    <linearGradient id="bh" x1="430.993" x2="425.336" y1="314.993" y2="287.363" gradientUnits="userSpaceOnUse">
      <stop stop-color="#AA80F9"/>
      <stop offset=".996" stop-color="#6165D7"/>
    </linearGradient>
    <linearGradient id="bi" x1="423.093" x2="421.349" y1="302.984" y2="300.964" gradientUnits="userSpaceOnUse">
      <stop stop-color="#444B8C"/>
      <stop offset=".996" stop-color="#3E4177"/>
    </linearGradient>
    <linearGradient id="bj" x1="422.543" x2="426.683" y1="296.004" y2="305.325" gradientUnits="userSpaceOnUse">
      <stop stop-color="#AA80F9"/>
      <stop offset=".996" stop-color="#6165D7"/>
    </linearGradient>
    <linearGradient id="bk" x1="425.804" x2="435.464" y1="307.301" y2="307.512" gradientUnits="userSpaceOnUse">
      <stop stop-color="#FB8D48"/>
      <stop offset=".2" stop-color="#ED7136"/>
      <stop offset=".4" stop-color="#C54E47"/>
      <stop offset=".4" stop-color="#C14F49"/>
      <stop offset=".6" stop-color="#9D3863"/>
      <stop offset=".8" stop-color="#5E1F72"/>
    </linearGradient>
    <linearGradient id="bl" x1="449.338" x2="455.983" y1="298.291" y2="282.331" gradientUnits="userSpaceOnUse">
      <stop stop-color="#AA80F9"/>
      <stop offset=".996" stop-color="#6165D7"/>
    </linearGradient>
    <linearGradient id="bm" x1="450.596" x2="451.38" y1="276.021" y2="285.672" gradientUnits="userSpaceOnUse">
      <stop stop-color="#AA80F9"/>
      <stop offset=".996" stop-color="#6165D7"/>
    </linearGradient>
    <linearGradient id="bn" x1="450.592" x2="451.378" y1="275.978" y2="285.652" gradientUnits="userSpaceOnUse">
      <stop stop-color="#AA80F9"/>
      <stop offset=".996" stop-color="#6165D7"/>
    </linearGradient>
    <linearGradient id="bo" x1="474.972" x2="458.448" y1="316.131" y2="311.931" gradientUnits="userSpaceOnUse">
      <stop stop-color="#AA80F9"/>
      <stop offset=".996" stop-color="#6165D7"/>
    </linearGradient>
    <linearGradient id="bp" x1="472.714" x2="482.594" y1="318.327" y2="329.091" gradientUnits="userSpaceOnUse">
      <stop stop-color="#AA80F9"/>
      <stop offset=".996" stop-color="#6165D7"/>
    </linearGradient>
    <linearGradient id="bq" x1="482.946" x2="464.778" y1="317.562" y2="312.944" gradientUnits="userSpaceOnUse">
      <stop stop-color="#AA80F9"/>
      <stop offset=".996" stop-color="#6165D7"/>
    </linearGradient>
    <linearGradient id="br" x1="482.997" x2="472.072" y1="317.361" y2="314.584" gradientUnits="userSpaceOnUse">
      <stop stop-color="#AA80F9"/>
      <stop offset=".996" stop-color="#6165D7"/>
    </linearGradient>
    <linearGradient id="bs" x1="276.391" x2="528.452" y1="447.147" y2="449.527" gradientUnits="userSpaceOnUse">
      <stop stop-color="#444B8C"/>
      <stop offset=".996" stop-color="#26264F"/>
    </linearGradient>
    <linearGradient id="bt" x1="450.6" x2="349.335" y1="386.073" y2="566.71" gradientUnits="userSpaceOnUse">
      <stop stop-color="#444B8C"/>
      <stop offset=".996" stop-color="#26264F"/>
    </linearGradient>
    <linearGradient id="bu" x1="278.023" x2="523.204" y1="495.806" y2="498.121" gradientUnits="userSpaceOnUse">
      <stop stop-color="#444B8C"/>
      <stop offset=".996" stop-color="#26264F"/>
    </linearGradient>
    <linearGradient id="bv" x1="382.359" x2="456.326" y1="543.234" y2="543.933" gradientUnits="userSpaceOnUse">
      <stop stop-color="#444B8C"/>
      <stop offset=".996" stop-color="#26264F"/>
    </linearGradient>
    <linearGradient id="bw" x1="444.447" x2="384.042" y1="524.936" y2="567.578" gradientUnits="userSpaceOnUse">
      <stop stop-color="#444B8C"/>
      <stop offset=".996" stop-color="#26264F"/>
    </linearGradient>
    <linearGradient id="bx" x1="340.811" x2="413.853" y1="499.717" y2="500.407" gradientUnits="userSpaceOnUse">
      <stop stop-color="#444B8C"/>
      <stop offset=".996" stop-color="#26264F"/>
    </linearGradient>
    <linearGradient id="by" x1="399.602" x2="363.751" y1="456.102" y2="628.712" gradientUnits="userSpaceOnUse">
      <stop stop-color="#444B8C"/>
      <stop offset=".996" stop-color="#26264F"/>
    </linearGradient>
  </defs>
</svg>
