<svg xmlns="http://www.w3.org/2000/svg" width="434" height="269" fill="none" viewBox="0 0 434 269">
  <path fill="#E86B31" d="M336.494 92.214c-3.689-3.409-5.533-8.276-5.533-14.6V53.462h10.735v23.78c0 7.723 3.446 11.583 10.337 11.583 3.357 0 5.919-.934 7.687-2.803 1.766-1.869 2.65-4.795 2.65-8.78v-23.78h10.602v24.15c0 6.325-1.845 11.192-5.533 14.6-3.689 3.41-8.846 5.114-15.472 5.114-6.627 0-11.784-1.704-15.473-5.113Zm47.08-38.751h10.735v43.125h-10.735V53.463ZM47.188 237.089c-3.533-3.265-5.3-7.926-5.3-13.984v-23.13H52.17v22.776c0 7.396 3.3 11.093 9.9 11.093 3.216 0 5.67-.894 7.363-2.685 1.692-1.789 2.539-4.592 2.539-8.408v-22.776h10.154v23.13c0 6.058-1.767 10.719-5.3 13.984-3.532 3.266-8.472 4.897-14.818 4.897-6.347.001-11.288-1.631-14.82-4.897Zm72.448 4.19-10.726-14.338-10.535 14.338H86.57l16.438-21.006-15.612-20.298h11.677l10.218 13.394 10.028-13.394h11.106l-15.486 19.944 16.565 21.359h-11.868v.001Z"/>
  <path fill="#F5F5F5" d="M95.21 156.754a20.365 20.365 0 0 1 4.778-1.931l.985-4.398 7.991-.13 1.15 4.362c1.675.384 3.308.974 4.85 1.774l4.039-2.462 5.75 5.162-2.503 3.839a17.565 17.565 0 0 1 2.077 4.444l4.729.915.141 7.429-4.692 1.07a17.479 17.479 0 0 1-1.908 4.508l2.647 3.755-5.551 5.346-4.129-2.327a20.366 20.366 0 0 1-4.779 1.93l-.984 4.398-7.992.13-1.15-4.363a20.45 20.45 0 0 1-4.849-1.773l-4.039 2.461-5.75-5.162 2.503-3.838a17.577 17.577 0 0 1-2.076-4.444l-4.73-.915-.14-7.43 4.692-1.069a17.493 17.493 0 0 1 1.908-4.508l-2.648-3.755 5.552-5.346 4.128 2.328Zm4.26 9.898c-3.29 3.167-3.194 8.213.213 11.271 3.406 3.058 8.835 2.97 12.124-.198 3.289-3.167 3.193-8.214-.213-11.272-3.407-3.057-8.835-2.968-12.124.199Z"/>
  <path fill="#EBEBEB" d="M136.773 179.37a9.658 9.658 0 0 1 2.261-.914l.466-2.082 3.782-.062.545 2.065a9.673 9.673 0 0 1 2.295.84l1.911-1.165 2.722 2.443-1.185 1.817c.433.665.76 1.373.983 2.103l2.238.433.067 3.516-2.221.506a8.256 8.256 0 0 1-.903 2.134l1.253 1.777-2.627 2.53-1.954-1.101a9.68 9.68 0 0 1-2.262.913l-.466 2.082-3.782.062-.545-2.065a9.673 9.673 0 0 1-2.295-.84l-1.911 1.165-2.722-2.443 1.185-1.817a8.358 8.358 0 0 1-.983-2.103l-2.238-.433-.067-3.516 2.221-.506a8.256 8.256 0 0 1 .903-2.134l-1.253-1.777 2.627-2.53 1.955 1.102Zm2.017 4.684c-1.557 1.499-1.512 3.888.1 5.335 1.613 1.447 4.182 1.405 5.738-.093 1.557-1.499 1.512-3.888-.1-5.335-1.613-1.448-4.182-1.406-5.738.093Z"/>
  <path fill="#E0E0E0" d="M60.839 176.019a7.675 7.675 0 0 1 1.807-.73l.372-1.663 3.023-.05.435 1.65c.633.145 1.25.368 1.834.671l1.527-.931 2.175 1.952-.947 1.451c.346.532.607 1.097.785 1.681l1.789.346.053 2.81-1.774.404a6.604 6.604 0 0 1-.722 1.705l1.002 1.42-2.1 2.022-1.561-.88a7.728 7.728 0 0 1-1.807.73l-.372 1.663-3.023.049-.435-1.65a7.71 7.71 0 0 1-1.834-.671l-1.527.931-2.175-1.952.947-1.451a6.655 6.655 0 0 1-.785-1.68l-1.79-.346-.052-2.81 1.774-.404a6.6 6.6 0 0 1 .721-1.705l-1-1.42 2.099-2.022 1.56.88Zm1.611 3.743c-1.243 1.198-1.207 3.106.081 4.262 1.288 1.157 3.341 1.123 4.585-.075 1.243-1.197 1.207-3.106-.08-4.262-1.29-1.157-3.342-1.123-4.586.075Z"/>
  <path fill="#F5F5F5" d="M261.09 21.593a20.38 20.38 0 0 1 4.778-1.93l.985-4.398 7.991-.13 1.15 4.362a20.45 20.45 0 0 1 4.849 1.774l4.039-2.462 5.75 5.162-2.503 3.838a17.573 17.573 0 0 1 2.076 4.444l4.73.915.14 7.43-4.691 1.07a17.477 17.477 0 0 1-1.908 4.507l2.647 3.756-5.551 5.346-4.129-2.328a20.367 20.367 0 0 1-4.779 1.93l-.984 4.398-7.992.13-1.15-4.362a20.477 20.477 0 0 1-4.849-1.774l-4.039 2.461-5.75-5.161 2.503-3.839a17.598 17.598 0 0 1-2.077-4.443l-4.729-.915-.14-7.43 4.692-1.07a17.499 17.499 0 0 1 1.908-4.507l-2.648-3.755 5.551-5.346 4.13 2.328Zm4.26 9.898c-3.289 3.168-3.194 8.214.213 11.272s8.834 2.969 12.124-.199c3.288-3.167 3.193-8.214-.213-11.271-3.407-3.058-8.835-2.97-12.124.198Zm39.201 8.178a9.876 9.876 0 0 1 2.312-.935l.477-2.128 3.868-.063.556 2.111a9.892 9.892 0 0 1 2.347.858l1.954-1.19 2.783 2.497-1.212 1.858c.443.68.778 1.404 1.006 2.15l2.288.443.068 3.596-2.271.517a8.432 8.432 0 0 1-.923 2.182l1.281 1.817-2.686 2.588-1.998-1.127a9.883 9.883 0 0 1-2.313.934l-.477 2.129-3.867.063-.557-2.111a9.922 9.922 0 0 1-2.346-.858l-1.955 1.19-2.783-2.497 1.212-1.858a8.498 8.498 0 0 1-1.005-2.15l-2.289-.443-.068-3.595 2.271-.518a8.432 8.432 0 0 1 .923-2.182l-1.281-1.817 2.686-2.587 1.999 1.126Zm2.062 4.79c-1.592 1.533-1.546 3.975.103 5.455 1.648 1.48 4.276 1.437 5.867-.096 1.592-1.533 1.546-3.975-.103-5.455s-4.275-1.437-5.867.096Z"/>
  <path fill="#455A64" d="M248.225 251.895h-77.92c-13.22 0-23.938-9.964-23.938-22.255V44.521c0-12.291 10.718-22.255 23.938-22.255h77.92c13.22 0 23.938 9.964 23.938 22.255V229.64c0 12.291-10.717 22.255-23.938 22.255Z"/>
  <path fill="#fff" d="M246.216 244.641h-74.749c-10.682 0-19.342-8.051-19.342-17.983V45.77c0-9.932 8.66-17.983 19.342-17.983h74.749c10.682 0 19.342 8.051 19.342 17.983v180.888c0 9.932-8.66 17.983-19.342 17.983Z"/>
  <path fill="#fff" d="m272.164 232.577-12.422-29.522c-.329-.783.291-1.627 1.194-1.627h11.227v31.149h.001Z" opacity=".3"/>
  <path fill="#E86B31" d="M250.038 83.457c-.006-.048.808.02 2.259-.35a8.858 8.858 0 0 0 2.489-1.1 8.226 8.226 0 0 0 2.512-2.57 7.107 7.107 0 0 0 .829-1.925c.113-.35.157-.723.218-1.1.025-.383.056-.766.047-1.175l-.013-2.54c-.017-.875.024-1.807-.054-2.725-.203-1.844-1.186-3.761-2.924-5.119a8.318 8.318 0 0 0-3.049-1.51c-1.149-.326-2.375-.314-3.667-.3l-80.186.081c-1.891.01-3.754.625-5.2 1.727-1.44 1.106-2.448 2.659-2.83 4.332-.187.84-.175 1.69-.174 2.582l-.001 2.629c.012.88-.045 1.733.141 2.549.167.82.473 1.611.903 2.337.871 1.446 2.251 2.6 3.85 3.258a9.244 9.244 0 0 0 2.515.614c.851.06 1.767.03 2.649.039l10.421.01 36.05.06 24.303.09 6.608.052 1.719.028.438.014a.53.53 0 0 1 .147.012c0 .004-.05.01-.148.014l-.438.015-1.719.028-6.607.052-24.304.09c-10.263.016-22.482.037-36.05.06l-10.42.01c-.894-.008-1.765.025-2.704-.039a9.864 9.864 0 0 1-2.696-.653c-1.716-.702-3.193-1.937-4.13-3.487a8.052 8.052 0 0 1-.972-2.504l-.107-.665-.038-.673c-.015-.444-.004-.873-.008-1.311l-.001-2.63c-.002-.865-.017-1.791.185-2.694.409-1.798 1.491-3.465 3.035-4.652 1.55-1.183 3.554-1.844 5.582-1.854l80.186.083c.645.008 1.267-.015 1.914.03a9.13 9.13 0 0 1 1.865.304 8.699 8.699 0 0 1 3.184 1.6c1.809 1.431 2.818 3.44 3.012 5.36.073.973.022 1.873.031 2.758l-.012 2.539c.038 1.642-.435 3.152-1.177 4.308a8.381 8.381 0 0 1-2.615 2.598 8.794 8.794 0 0 1-2.557 1.073c-.185.042-.359.08-.522.118-.164.03-.32.043-.462.063-.285.04-.526.065-.721.06l-.439.007a.613.613 0 0 1-.147-.008Zm-11.13-38.371c.001.025-.19.027-.507.115a2.15 2.15 0 0 0-1.107.727 1.778 1.778 0 0 0-.263 1.772c.248.656 1.002 1.218 1.877 1.21.876.008 1.629-.553 1.878-1.21.27-.661.082-1.35-.263-1.772a2.15 2.15 0 0 0-1.107-.727c-.317-.088-.508-.09-.508-.115-.001-.013.191-.05.535.01.337.057.845.246 1.248.712.404.45.648 1.22.355 1.98-.266.754-1.129 1.412-2.138 1.402-1.01.01-1.872-.648-2.139-1.402a1.958 1.958 0 0 1 .355-1.98 2.165 2.165 0 0 1 1.248-.713c.345-.059.538-.022.536-.009Zm6.121 0c.001.025-.19.027-.507.115a2.15 2.15 0 0 0-1.107.727 1.778 1.778 0 0 0-.263 1.772c.249.656 1.002 1.218 1.877 1.21.876.008 1.629-.553 1.878-1.21.27-.661.082-1.35-.263-1.772a2.15 2.15 0 0 0-1.107-.727c-.317-.088-.508-.09-.508-.115-.001-.013.191-.05.536.01.336.057.844.246 1.247.712.404.45.648 1.22.355 1.98-.266.754-1.129 1.412-2.138 1.402-1.01.01-1.872-.648-2.139-1.402a1.958 1.958 0 0 1 .355-1.98 2.168 2.168 0 0 1 1.248-.713c.345-.059.538-.022.536-.009Zm6.121 0c.001.025-.19.027-.507.115a2.15 2.15 0 0 0-1.107.727 1.776 1.776 0 0 0-.263 1.772c.248.656 1.001 1.218 1.877 1.21.876.008 1.629-.553 1.878-1.21.27-.661.081-1.35-.264-1.772a2.142 2.142 0 0 0-1.107-.727c-.317-.088-.508-.09-.507-.115-.001-.013.191-.05.536.01.336.057.844.246 1.247.712.404.45.648 1.22.356 1.98-.267.754-1.129 1.412-2.139 1.402-1.009.01-1.872-.648-2.138-1.402a1.956 1.956 0 0 1 .354-1.98 2.168 2.168 0 0 1 1.248-.713c.344-.059.537-.022.536-.009Zm-84.622-.953-2.576 2.465c-.253.242-.305.717 0 .952l2.576 1.978c.301.231.728.274 1.023 0 .257-.239.303-.719 0-.951l-2.576-1.979v.952l2.576-2.466a.65.65 0 0 0 0-.951c-.274-.255-.75-.261-1.023 0Z"/>
  <path fill="#E86B31" d="M173.287 72.926a1.814 1.814 0 0 1-1.256 1.677c-.772.259-1.646.037-2.164-.557a1.699 1.699 0 0 1-.15-2.038c.404-.629 1.212-.976 1.99-.842.914.159 1.567.902 1.58 1.76.006.433.729.434.723 0-.015-1.029-.695-1.94-1.73-2.306-1.026-.362-2.249-.057-2.944.732-.702.797-.817 1.94-.244 2.831.572.89 1.687 1.339 2.776 1.157 1.241-.208 2.125-1.261 2.142-2.414.006-.433-.717-.433-.723 0Z"/>
  <path fill="#E86B31" d="m172.661 74.716.863.887.124.128c.127.13.383.129.511 0a.327.327 0 0 0 0-.476l-.862-.887-.124-.128c-.127-.13-.384-.13-.512 0a.327.327 0 0 0 0 .476Zm-1.424 26.898c-.007-.064.552-.015 1.43-.349a4.348 4.348 0 0 0 1.408-.869 3.77 3.77 0 0 0 1.086-1.78 3.574 3.574 0 0 0-.207-2.433c-.379-.815-1.119-1.56-2.104-1.954a4.256 4.256 0 0 0-1.593-.307l-1.83.006-3.85.006c-1.231.002-2.404.548-3.12 1.397-.729.843-1 1.941-.824 2.921.165.985.763 1.834 1.521 2.372.378.272.796.472 1.218.604.428.127.852.176 1.269.188 1.729.025 3.128.055 4.095.089.967.033 1.501.07 1.501.109 0 .038-.534.075-1.501.109-.967.033-2.366.063-4.095.089a5.322 5.322 0 0 1-1.407-.171 4.74 4.74 0 0 1-1.381-.646c-.866-.588-1.563-1.537-1.769-2.658-.216-1.11.078-2.375.91-3.348.813-.978 2.166-1.616 3.582-1.616l3.85.006 1.832.008a4.81 4.81 0 0 1 1.815.37c1.117.463 1.936 1.321 2.341 2.246.399.932.415 1.91.157 2.717a4.04 4.04 0 0 1-1.264 1.903c-.53.446-1.09.706-1.561.847-.472.148-.86.175-1.117.182-.258-.007-.392-.02-.392-.038Zm82.77 0c-.007-.064.552-.015 1.429-.349.434-.164.94-.436 1.409-.869a3.761 3.761 0 0 0 1.085-1.78 3.58 3.58 0 0 0-.206-2.433c-.38-.815-1.119-1.56-2.104-1.954a4.262 4.262 0 0 0-1.594-.307l-1.829.006-3.85.006c-1.231.002-2.404.548-3.12 1.397-.729.843-1 1.941-.824 2.921.165.985.763 1.834 1.521 2.372a4.29 4.29 0 0 0 1.218.604c.428.127.852.176 1.269.188 1.729.025 3.128.055 4.095.089.966.033 1.501.07 1.501.109 0 .038-.535.075-1.502.109-.967.033-2.365.063-4.094.089a5.33 5.33 0 0 1-1.408-.171 4.753 4.753 0 0 1-1.381-.646c-.865-.588-1.563-1.537-1.768-2.658-.217-1.11.078-2.375.909-3.348.813-.978 2.166-1.616 3.582-1.616l3.85.006 1.832.008a4.825 4.825 0 0 1 1.815.37c1.117.463 1.936 1.321 2.341 2.246.399.932.415 1.91.158 2.717a4.05 4.05 0 0 1-1.265 1.903 4.394 4.394 0 0 1-1.56.847c-.473.148-.86.175-1.117.182-.259-.007-.392-.02-.392-.038Zm-45.295-.001c-.002-.033.26-.023.733-.12a4.477 4.477 0 0 0 1.87-.842c.689-.532 1.369-1.44 1.488-2.63a3.733 3.733 0 0 0-.315-1.845 3.914 3.914 0 0 0-1.407-1.613 4.276 4.276 0 0 0-2.321-.692l-2.831.013-6.252.026-14.325.022c-1.188-.003-2.331.515-3.068 1.34a3.538 3.538 0 0 0-.862 2.958c.172 1.026.826 1.95 1.727 2.498.448.276.951.464 1.467.555.261.047.518.062.785.068l.831.003 11.7.06 7.887.089 2.145.053c.49.018.748.037.748.057 0 .019-.258.038-.748.056l-2.145.053-7.887.089-11.7.06-.831.002a5.705 5.705 0 0 1-.888-.072 4.764 4.764 0 0 1-1.682-.626c-1.033-.622-1.789-1.677-1.992-2.856-.214-1.172.134-2.453.984-3.402.843-.95 2.164-1.549 3.529-1.544l14.325.022 6.252.026 2.836.018a4.718 4.718 0 0 1 2.565.803 4.256 4.256 0 0 1 1.513 1.798 4 4 0 0 1 .295 2.014c-.163 1.285-.927 2.233-1.677 2.768a4.365 4.365 0 0 1-1.995.783 2.957 2.957 0 0 1-.563.028c-.127-.004-.191-.011-.191-.02Zm26.846 0c-.001-.025.197-.036.56-.096.36-.058.898-.184 1.49-.518.587-.33 1.241-.878 1.648-1.703a3.584 3.584 0 0 0 .12-2.959c-.409-1.046-1.44-2.025-2.819-2.332-.341-.086-.695-.108-1.065-.113l-1.175.006-2.453.012-10.922.022c-.901.009-1.787.287-2.472.801-.684.51-1.187 1.215-1.387 1.985a3.471 3.471 0 0 0 .151 2.286c.298.712.835 1.309 1.483 1.721a4.57 4.57 0 0 0 1.044.469c.367.099.742.161 1.116.168l2.309.017 4.153.034c2.54.026 4.594.056 6.014.09.71.016 1.261.034 1.635.052.374.019.57.038.57.058 0 .019-.196.038-.57.056-.374.018-.925.036-1.635.053-1.42.033-3.475.063-6.014.088l-4.153.035-2.318.011a5.197 5.197 0 0 1-1.267-.178 5.16 5.16 0 0 1-1.193-.522c-.743-.462-1.361-1.14-1.709-1.952a3.973 3.973 0 0 1-.188-2.62c.228-.885.8-1.7 1.587-2.286.785-.593 1.809-.917 2.844-.925l10.922.022 2.453.012 1.175.007c.4.01.81.04 1.189.142 1.547.368 2.67 1.481 3.095 2.647a3.873 3.873 0 0 1-.217 3.232 4.204 4.204 0 0 1-1.835 1.755 4.13 4.13 0 0 1-1.59.44c-.378.024-.577-.004-.576-.017Zm-63.938 14.799a.946.946 0 0 1-.183.015l-.545.016c-.476.031-1.196.06-2.083.336a7.12 7.12 0 0 0-2.864 1.705 6.217 6.217 0 0 0-1.851 3.893l.067 28.079.01 4.551.004 2.353c.01.797-.037 1.597.108 2.363.26 1.548 1.124 3.043 2.46 4.104 1.32 1.073 3.085 1.7 4.906 1.697l23.944-.026 54.866-.022c2.352.043 4.668-.998 6.039-2.738.693-.856 1.179-1.858 1.367-2.911.191-1.036.098-2.161.121-3.262l.005-13.015a47705.173 47705.173 0 0 1 .012-18.652c-.003-.499.009-1.007-.007-1.495a6.44 6.44 0 0 0-.191-1.424 6.64 6.64 0 0 0-1.288-2.562c-1.216-1.517-3.104-2.513-5.078-2.708-.49-.04-.987-.052-1.504-.047l-1.524-.001-3.018-.003-11.624-.014-20.863-.035-30.21-.089-8.213-.053-2.136-.028-.545-.014a.884.884 0 0 1-.182-.013.87.87 0 0 1 .184-.015l.544-.014 2.136-.028 8.213-.053 30.21-.089 20.863-.034 11.624-.014 3.018-.003 1.525-.002a16.97 16.97 0 0 1 1.564.047c2.119.205 4.152 1.271 5.461 2.899a7.159 7.159 0 0 1 1.391 2.754c.128.5.193 1.015.208 1.531.017.51.005 1.003.009 1.507l.005 6.09.007 12.562.005 13.015.001 1.655c.004.543-.018 1.143-.13 1.704-.203 1.139-.728 2.224-1.478 3.15-1.475 1.88-4.001 3.01-6.519 2.961l-54.866-.022-23.944-.026c-1.938 0-3.824-.677-5.224-1.823-1.417-1.133-2.331-2.728-2.602-4.374-.084-.41-.089-.829-.106-1.236l.002-1.196.005-2.352.01-4.552c.04-11.862.03-21.447.125-28.096a6.384 6.384 0 0 1 1.955-3.991 7.226 7.226 0 0 1 2.956-1.698c.909-.262 1.641-.273 2.12-.285l.545.012a.984.984 0 0 1 .183.016Z"/>
  <path fill="#E86B31" d="M166.446 119.749c.079-.136 19.621 9.593 43.642 21.727 24.029 12.138 43.438 22.085 43.358 22.221-.079.136-19.616-9.59-43.646-21.729-24.021-12.134-43.434-22.082-43.354-22.219Z"/>
  <path fill="#E86B31" d="M254.274 121.23c.074.139-19.714 9.427-44.192 20.744-24.487 11.32-44.391 20.382-44.465 20.244-.074-.139 19.71-9.426 44.197-20.746 24.478-11.316 44.386-20.381 44.46-20.242Zm-64.679 62.228c-.001-.029.207-.026.581-.109.369-.082.92-.266 1.446-.722.519-.444.995-1.207.967-2.146-.01-.921-.621-1.993-1.775-2.463a3.294 3.294 0 0 0-.912-.223c-.312-.02-.683-.007-1.041-.007l-2.258.017-4.983.025-11.416.023c-.92-.001-1.808.428-2.325 1.109a2.533 2.533 0 0 0-.42 2.335c.254.77.889 1.407 1.665 1.696.392.149.789.204 1.225.201l1.332.005 9.323.06c2.654.026 4.802.056 6.286.089.741.017 1.318.035 1.708.053.392.019.597.038.597.057 0 .019-.205.038-.596.056-.391.019-.967.036-1.709.053-1.484.034-3.632.064-6.285.089l-9.324.06-1.332.005a3.913 3.913 0 0 1-1.441-.231c-.934-.343-1.703-1.102-2.012-2.032a3.048 3.048 0 0 1 .497-2.821c.622-.823 1.7-1.347 2.813-1.344l11.416.022 4.982.026 2.258.016c.366.006.705-.004 1.087.026a3.72 3.72 0 0 1 1.043.275c1.308.564 1.958 1.796 1.935 2.819-.004 1.045-.566 1.861-1.149 2.313a3.21 3.21 0 0 1-1.579.67 2.292 2.292 0 0 1-.451.019c-.101-.004-.153-.011-.153-.021Zm13.557 45.122c-.004-.039.554-.003 1.554-.238.975-.236 2.464-.838 3.622-2.31a5.633 5.633 0 0 0 1.169-2.753c.076-.537.054-1.117.05-1.726l-.012-1.886-.044-8.857-.037-10.734-.004-1.459c-.003-.489.007-.993-.032-1.462-.08-.956-.45-1.897-1.026-2.723-1.175-1.65-3.32-2.726-5.602-2.606l-30.363.022a7.415 7.415 0 0 0-1.892.271 6.766 6.766 0 0 0-1.702.787c-1.034.682-1.848 1.647-2.269 2.743-.488 1.087-.378 2.276-.394 3.489l-.003 3.572-.017 13.616-.003 6.334c.039 1.982 1.235 3.818 2.935 4.79a6.576 6.576 0 0 0 2.758.879c.474.032.972.032 1.465.032l1.459.004 5.54.018 16.719.089 4.545.053 1.182.028c.265.008.402.017.402.027 0 .01-.137.02-.403.029l-1.182.028-4.545.052-16.719.09a19427.57 19427.57 0 0 1-6.999.022c-.49.004-.984.008-1.509-.025a7.11 7.11 0 0 1-2.98-.932c-1.839-1.04-3.147-3.02-3.199-5.171l-.023-6.347a41830.988 41830.988 0 0 1-.02-17.189c.007-.607-.019-1.189.017-1.823a5.565 5.565 0 0 1 .41-1.858c.462-1.202 1.352-2.261 2.485-3.007a7.404 7.404 0 0 1 1.867-.864 8.037 8.037 0 0 1 2.074-.298l30.363.022a9.144 9.144 0 0 1 1.786.143c.584.129 1.155.301 1.679.561a6.748 6.748 0 0 1 2.579 2.147c.622.897 1.016 1.919 1.099 2.954.039.525.024 1.011.025 1.503l-.004 1.459-.037 10.734-.045 8.857-.012 1.886c-.004.602.01 1.192-.078 1.761a5.82 5.82 0 0 1-1.265 2.847 6.617 6.617 0 0 1-3.781 2.291c-.511.106-.912.14-1.179.138-.268.003-.404 0-.404-.01Z"/>
  <path fill="#E86B31" d="M212.211 213.209c-.032.028-.576-.482-1.564-1.394-.994-.906-2.42-2.236-4.334-3.701-.922-.746-2.136-1.311-3.545-1.524-.696-.104-1.448-.135-2.174-.021a6.282 6.282 0 0 0-2.127.788c-1.363.782-2.47 2.006-3.455 3.377l-1.509 2.122c-.529.711-1.08 1.451-1.829 2.072-.727.618-1.741 1.086-2.779.981-1.042-.078-1.891-.659-2.55-1.241-1.316-1.195-2.253-2.587-3.605-3.344a4.115 4.115 0 0 0-1.04-.414 3.71 3.71 0 0 0-1.096-.075 5.168 5.168 0 0 0-2.033.619c-1.217.664-2.068 1.674-2.79 2.597l-3.374 4.501c-.403.529-.72.937-.941 1.211-.221.273-.345.411-.362.4-.018-.01.073-.17.261-.463.188-.294.474-.722.847-1.269a270.195 270.195 0 0 1 3.22-4.608c.713-.951 1.567-2.022 2.885-2.769a5.652 5.652 0 0 1 2.241-.71 4.228 4.228 0 0 1 1.265.074c.418.099.827.253 1.201.462 1.513.843 2.474 2.276 3.728 3.39.625.547 1.358 1.025 2.192 1.082.84.082 1.661-.284 2.329-.844.677-.558 1.211-1.267 1.734-1.968l1.516-2.116c1.006-1.388 2.182-2.682 3.652-3.508a6.79 6.79 0 0 1 2.33-.834c.818-.118 1.602-.071 2.348.049 1.489.241 2.795.882 3.733 1.677 1.902 1.522 3.284 2.899 4.23 3.853.47.481.824.862 1.06 1.125.235.266.35.41.335.423ZM193.59 202.25c-.055.002-.058-.356-.248-.951a4.008 4.008 0 0 0-1.582-2.074 4.265 4.265 0 0 0-1.728-.679c-.666-.097-1.414-.071-2.121.186a3.981 3.981 0 0 0-1.858 1.314 3.598 3.598 0 0 0-.775 2.204c.009.808.284 1.592.775 2.204a3.979 3.979 0 0 0 1.858 1.314c.707.257 1.455.284 2.121.187a4.263 4.263 0 0 0 1.728-.68 4.005 4.005 0 0 0 1.582-2.074c.19-.595.193-.952.248-.951.028-.002.108.359-.021 1.004-.127.632-.537 1.582-1.551 2.336a4.591 4.591 0 0 1-1.893.822c-.745.131-1.591.119-2.403-.158a4.505 4.505 0 0 1-2.145-1.475 4.072 4.072 0 0 1-.901-2.529 4.073 4.073 0 0 1 .902-2.529 4.498 4.498 0 0 1 2.144-1.474c.813-.278 1.659-.289 2.403-.158.75.135 1.392.453 1.894.821 1.013.754 1.424 1.704 1.551 2.336.127.646.047 1.007.02 1.004Zm60.711 19.555c-.055.002-.058-.356-.248-.951a4.012 4.012 0 0 0-1.582-2.074 4.271 4.271 0 0 0-1.728-.679c-.666-.097-1.414-.071-2.121.187a3.977 3.977 0 0 0-1.858 1.313 3.6 3.6 0 0 0-.775 2.204 3.6 3.6 0 0 0 .775 2.205 3.986 3.986 0 0 0 1.858 1.314c.707.257 1.455.284 2.121.187a4.278 4.278 0 0 0 1.728-.68 4.005 4.005 0 0 0 1.582-2.074c.19-.595.193-.953.248-.952.027-.002.108.359-.021 1.004-.127.632-.537 1.582-1.551 2.336a4.59 4.59 0 0 1-1.894.822c-.744.131-1.59.119-2.402-.158a4.498 4.498 0 0 1-2.145-1.475 4.073 4.073 0 0 1-.901-2.53 4.07 4.07 0 0 1 .902-2.528 4.498 4.498 0 0 1 2.144-1.474c.813-.278 1.658-.29 2.403-.158.75.135 1.392.453 1.894.821 1.013.754 1.424 1.704 1.551 2.336.127.646.047 1.007.02 1.004Zm-12.07 0c-.055.002-.058-.356-.248-.951a4.015 4.015 0 0 0-1.583-2.074 4.266 4.266 0 0 0-1.727-.679c-.666-.097-1.414-.071-2.121.187a3.972 3.972 0 0 0-1.858 1.313 3.588 3.588 0 0 0-.775 2.204c.008.809.283 1.592.775 2.205a3.986 3.986 0 0 0 1.858 1.314c.707.257 1.455.284 2.121.187a4.278 4.278 0 0 0 1.728-.68 4.01 4.01 0 0 0 1.582-2.074c.19-.595.193-.953.248-.952.027-.002.107.359-.021 1.004-.127.632-.538 1.582-1.551 2.336a4.595 4.595 0 0 1-1.894.822c-.744.131-1.59.119-2.402-.158a4.498 4.498 0 0 1-2.145-1.475 4.08 4.08 0 0 1-.902-2.53 4.077 4.077 0 0 1 .903-2.528 4.493 4.493 0 0 1 2.144-1.474c.813-.278 1.659-.29 2.403-.158.75.135 1.393.453 1.894.821 1.013.754 1.423 1.704 1.551 2.336.127.646.048 1.007.02 1.004Zm-13.426 0c-.055.002-.058-.356-.248-.951a4.012 4.012 0 0 0-1.582-2.074 4.277 4.277 0 0 0-1.728-.679c-.666-.097-1.414-.071-2.122.187a3.982 3.982 0 0 0-1.858 1.313 3.6 3.6 0 0 0-.775 2.204 3.6 3.6 0 0 0 .775 2.205 3.99 3.99 0 0 0 1.858 1.314c.708.257 1.456.284 2.122.187a4.283 4.283 0 0 0 1.728-.68 4.007 4.007 0 0 0 1.581-2.074c.191-.595.195-.953.249-.952.027-.002.108.359-.021 1.004-.127.632-.537 1.582-1.551 2.336a4.59 4.59 0 0 1-1.894.822c-.744.131-1.59.119-2.402-.158a4.498 4.498 0 0 1-2.145-1.475 4.073 4.073 0 0 1-.901-2.53 4.07 4.07 0 0 1 .902-2.528 4.493 4.493 0 0 1 2.144-1.474c.813-.278 1.659-.29 2.403-.158.75.135 1.392.453 1.894.821 1.013.754 1.423 1.704 1.551 2.336.128.646.048 1.007.02 1.004Zm23.631-17.557c-.004-.031.293-.005.772-.204a2.02 2.02 0 0 0 .734-.554c.225-.276.401-.664.395-1.113a1.705 1.705 0 0 0-.646-1.298 1.881 1.881 0 0 0-.787-.382 2.133 2.133 0 0 0-.469-.051l-.533.005-4.915.042c-7.283.05-17.345.082-28.457.082-.593-.001-1.17.299-1.468.769a1.5 1.5 0 0 0-.066 1.547c.257.483.787.817 1.353.871.604.018 1.31.006 1.951.011 2.62.006 5.148.012 7.556.016l12.794.061 8.625.089 2.345.053c.535.018.816.036.816.056 0 .019-.281.038-.818.056l-2.344.053-8.625.089-12.794.06-7.556.017c-.669-.005-1.286.013-2.012-.01-.764-.069-1.479-.519-1.827-1.17a2.023 2.023 0 0 1 .087-2.089c.401-.634 1.182-1.042 1.983-1.039 11.112 0 21.174.031 28.457.082l4.914.041.533.005c.188.008.374.025.548.073.351.086.659.253.901.464.494.42.703.999.689 1.497a1.887 1.887 0 0 1-.49 1.216c-.265.291-.57.46-.826.554a2.112 2.112 0 0 1-.609.118c-.14-.001-.211-.008-.211-.017Zm0 7.776c-.004-.031.293-.005.772-.204a2.02 2.02 0 0 0 .734-.554c.225-.276.401-.664.395-1.113a1.705 1.705 0 0 0-.646-1.298 1.881 1.881 0 0 0-.787-.382 2.074 2.074 0 0 0-.469-.051l-.533.005-4.915.042c-7.283.05-17.345.081-28.457.081-.593-.001-1.17.299-1.468.77a1.5 1.5 0 0 0-.066 1.547c.257.483.787.817 1.353.871.604.018 1.31.006 1.951.011 2.62.006 5.148.012 7.556.016l12.794.061 8.625.089 2.345.053c.535.017.816.036.816.056 0 .019-.281.038-.818.056l-2.344.053-8.625.089-12.794.06-7.556.016c-.669-.004-1.286.013-2.012-.009-.764-.07-1.479-.52-1.827-1.17a2.023 2.023 0 0 1 .087-2.089c.401-.635 1.182-1.043 1.983-1.04 11.112 0 21.174.031 28.457.083l4.914.041.533.006c.188.007.374.024.548.072.351.086.659.253.901.464.494.42.703 1 .689 1.498a1.884 1.884 0 0 1-.49 1.215c-.265.291-.57.461-.826.555a2.112 2.112 0 0 1-.609.118c-.14-.002-.211-.009-.211-.018Zm-.481-31.488c0 .155-10.365.28-23.146.28-12.787 0-23.149-.125-23.149-.28 0-.154 10.362-.28 23.149-.28 12.782 0 23.146.126 23.146.28Z"/>
  <path fill="#263238" d="M295.723 184.115s-.002-.297.009-.876l.022-1.079c.006-.43.015-.928.069-1.491.125-2.256.509-5.589 1.598-9.766.585-2.077 1.298-4.379 2.362-6.8 1.044-2.426 2.332-5.014 4.03-7.629 3.353-5.236 8.173-10.719 14.752-15.399 3.275-2.345 7.001-4.451 11.109-6.193 4.105-1.739 8.594-3.137 13.382-3.944 4.779-.825 9.84-1.153 15.009-.783 2.588.141 5.191.53 7.803 1.008a65.9 65.9 0 0 1 7.786 2.059c10.276 3.451 20.042 9.905 27.081 18.863 1.781 2.218 3.341 4.615 4.749 7.104.335.631.714 1.244 1.015 1.893l.941 1.935c.563 1.319 1.144 2.637 1.608 4.001.955 2.714 1.746 5.509 2.219 8.375.486 2.863.741 5.777.762 8.713a54.424 54.424 0 0 1-.76 8.716c-.474 2.867-1.262 5.663-2.218 8.379-.464 1.364-1.045 2.683-1.607 4.001-.627 1.294-1.238 2.589-1.956 3.829-1.407 2.491-2.968 4.888-4.75 7.107-7.038 8.961-16.807 15.417-27.084 18.868a65.479 65.479 0 0 1-7.787 2.059c-2.613.479-5.215.868-7.804 1.009-5.17.37-10.23.042-15.01-.784-4.788-.807-9.276-2.206-13.382-3.945-4.108-1.741-7.834-3.848-11.109-6.194-6.578-4.68-11.398-10.163-14.751-15.399-1.697-2.615-2.985-5.203-4.028-7.628-1.064-2.422-1.777-4.723-2.361-6.8-1.09-4.177-1.473-7.509-1.598-9.764-.054-.564-.062-1.062-.069-1.491l-.022-1.079c-.012-.579-.01-.875-.01-.875s.018.296.039.875l.037 1.078c.012.429.025.926.084 1.488.145 2.252.546 5.578 1.651 9.742.592 2.07 1.311 4.364 2.381 6.777 1.048 2.416 2.341 4.993 4.04 7.597 3.357 5.214 8.172 10.669 14.735 15.322 3.267 2.332 6.982 4.426 11.076 6.155 4.092 1.727 8.563 3.115 13.332 3.914 4.76.817 9.799 1.139 14.946.766 2.576-.142 5.166-.531 7.767-1.01a65.433 65.433 0 0 0 7.748-2.055c10.225-3.441 19.942-9.87 26.941-18.788 1.773-2.208 3.324-4.594 4.724-7.072.714-1.234 1.322-2.522 1.945-3.809.559-1.313 1.136-2.625 1.598-3.982.949-2.701 1.734-5.483 2.205-8.335.482-2.849.735-5.75.756-8.671a54.298 54.298 0 0 0-.758-8.668c-.471-2.852-1.257-5.632-2.207-8.332-.461-1.357-1.039-2.668-1.598-3.981l-.936-1.925c-.299-.645-.676-1.255-1.009-1.883-1.4-2.476-2.952-4.861-4.724-7.069-6.999-8.914-16.713-15.342-26.937-18.783a65.463 65.463 0 0 0-7.747-2.054c-2.6-.478-5.19-.868-7.766-1.01-5.146-.373-10.184-.052-14.944.766-4.768.798-9.239 2.185-13.331 3.912-4.094 1.729-7.809 3.822-11.076 6.154-6.563 4.653-11.379 10.108-14.737 15.321-1.7 2.604-2.992 5.182-4.04 7.599-1.07 2.412-1.79 4.706-2.382 6.777-1.105 4.164-1.507 7.49-1.652 9.743-.059.562-.072 1.06-.084 1.489l-.037 1.078c-.022.577-.04.874-.04.874Z"/>
  <path fill="#E4897B" d="m329.737 192.924-2.944.118-10.599 21.392-16.764 7.769.798 8.024s20.64-3.54 25.785-6.218c5.144-2.679 11.706-20.077 11.706-20.077.033.124-6.973-11.008-6.973-11.008"/>
  <path fill="#E4897B" d="m300.405 212.48-2.149-2.101a2.572 2.572 0 0 0-1.39-.358l-6.809.192c-1.284.117-2.442.77-3.15 1.773l-2.475 3.918s-1.665 2.68-1.452 3.332c.32.983 1.436.783 1.436.783s.235 1.238.682 1.49c.745.42 1.654.099 1.654.099a1.42 1.42 0 0 0 1.341.754c.113-.007.231-.026.353-.06.809-.228 1.173-1.683 1.173-1.683l3.452-.595s4.958 3.082 6.705 5.101c1.748 2.019 6.324.476 6.324.476l1.713-7.612-7.408-5.509Z"/>
  <path fill="#FF9A6C" d="M295.387 213.389c.005.045-.549.144-1.489.231-.939.097-2.267.133-3.763.312l.162-.11a13.005 13.005 0 0 1-.884 1.516 17.349 17.349 0 0 1-3.273 3.6c-.976.802-1.68 1.174-1.709 1.134-.038-.05.595-.499 1.501-1.34.901-.84 2.085-2.073 3.117-3.606.333-.495.628-.991.872-1.465l.051-.099.111-.012c1.537-.162 2.861-.145 3.799-.175.939-.019 1.499-.033 1.505.014Z"/>
  <path fill="#FF9A6C" d="M295.544 216.409c.011.041-.458.205-1.283.318-.821.112-2.01.146-3.331-.108l.242-.128a9.936 9.936 0 0 1-.497 1.148 9.798 9.798 0 0 1-2.559 3.126c-.827.656-1.436.93-1.462.891-.038-.053.505-.408 1.256-1.099a11.301 11.301 0 0 0 2.378-3.09c.191-.371.349-.742.487-1.101l.064-.165.179.037c2.549.529 4.515.054 4.526.171Z"/>
  <path fill="#E4897B" d="m304.188 217.97-6.072-2.624c-.841-.364-1.717-.735-2.644-.731-.998.005-1.928.441-2.813.868l-3.268 1.573c-.177.085-.37.187-.433.363-.082.231.098.468.282.641 1.632 1.537 4.565 1.648 6.326.24.524 1.326 1.067 2.681 2.048 3.76.981 1.078 2.507 1.84 4.001 1.585"/>
  <path fill="#FF9A6C" d="M301.614 223.646c.002.01-.053.026-.163.05a2.652 2.652 0 0 1-.495.052 4.125 4.125 0 0 1-1.828-.413c-.731-.337-1.525-.947-2.152-1.824-.642-.87-1.119-1.968-1.591-3.149l.304.073c-.896.733-2.202 1.124-3.536 1.028a5.426 5.426 0 0 1-1.971-.513 4.751 4.751 0 0 1-.876-.563c-.131-.114-.272-.217-.392-.373-.114-.145-.238-.36-.173-.615.055-.21.227-.343.362-.422.145-.083.269-.135.396-.198l.758-.364 1.481-.709c.972-.448 1.891-.972 2.927-1.187 1.049-.236 2.073.068 2.881.406.822.348 1.561.688 2.249.991l3.232 1.467c.759.355 1.173.562 1.16.587-.013.025-.45-.135-1.231-.446l-3.29-1.352-2.261-.944c-.805-.319-1.719-.571-2.655-.35-.937.199-1.845.716-2.819 1.174l-1.479.715-.756.365c-.258.122-.527.241-.539.362-.052.147.182.406.432.593.239.204.514.365.791.512.569.275 1.191.43 1.805.477 1.23.096 2.432-.254 3.255-.911l.21-.168.093.242c.454 1.185.9 2.261 1.495 3.11.582.856 1.311 1.449 1.995 1.799 1.401.713 2.397.427 2.381.498Z"/>
  <path fill="#472E05" d="M385.949 145.827c.376-4.371 1.435-8.684 1.574-13.067.139-4.382-.767-9.014-3.818-12.357-3.052-3.343-8.661-4.899-12.684-2.611l-1.06 3.673c.28 16.963-1.177 34.091-.898 51.053.037 2.229 1.825 4.357 2.764 6.407.939 2.05 2.994 3.823 5.391 3.837 3.137.019 5.401-2.795 6.574-5.5 4.252-9.802 1.25-20.899 2.157-31.435Z"/>
  <path fill="#E86B31" d="M376.287 122.433c-.605-1.124-1.227-2.266-2.172-3.166-.944-.899-2.277-1.534-3.619-1.384-.632.071-1.291.361-1.541.905s.144 1.316.78 1.308l.126.115a138.413 138.413 0 0 0 4.052 3.669c.346.301.706.608 1.149.766.444.158.996.132 1.335-.177.559-.512.241-1.384-.11-2.036Z"/>
  <path fill="#472E05" d="M378.633 126.893c-4.3-5.625-10.373-9.089-17.769-9.67-4.172-.328-5.959.37-9.023.935-3.063.564-5.887 1.893-7.854 4.148-2.337 2.678-4.357 5.715-5.01 9.11-.67 3.487-.633 6.943-.121 9.82.621 3.495 2.777 8.914 4.8 11.916l6.358 1.129c5.315.505 10.703 1.008 15.976.205 5.272-.802 10.503-3.08 13.591-7.133 4.29-5.631 3.352-14.837-.948-20.46Z"/>
  <path fill="#E4897B" d="m370.056 126.292-12.511-5.563-3.386.151c-7.56-.452-13.339 6.968-13.803 12.657-.517 6.32-.88 14.054-.139 18.783 1.489 9.508 10.035 10.831 10.035 10.831s-.541 4.983-.835 8.126l19.782-.079 4.022-41.482c.061-1.732-1.314-3.22-3.165-3.424Z"/>
  <path fill="#A05837" d="M355.496 151.081c-.033-.498-.297-.954-.652-1.278a2.325 2.325 0 0 0-2.65-.309c-.844.467-1.383 1.498-1.303 2.493a2.688 2.688 0 0 0 1.835 1.151c.119.017.238.029.358.033.582.023 1.187-.122 1.659-.492.474-.37.795-.983.753-1.598Z"/>
  <path fill="#263238" d="M342.486 142.178c-.034.643.524 1.199 1.245 1.243.719.045 1.331-.438 1.365-1.081.033-.642-.525-1.199-1.244-1.243-.722-.045-1.333.44-1.366 1.081Zm-.056-5.334c.161.161 1.162-.509 2.57-.489 1.408.002 2.432.687 2.587.529.076-.07-.086-.358-.531-.668-.439-.309-1.191-.613-2.069-.62-.877-.006-1.619.285-2.047.587-.438.304-.589.59-.51.661Zm8.27 10.802c.007-.074-.866-.225-2.282-.411-.359-.039-.699-.109-.757-.338-.081-.243.074-.602.254-.989l1.1-2.534c1.527-3.607 2.638-6.576 2.482-6.631-.157-.056-1.523 2.823-3.05 6.43l-1.055 2.549c-.142.378-.381.807-.205 1.31.094.251.356.435.585.496.23.069.432.075.61.086 1.426.09 2.312.106 2.318.032Z"/>
  <path fill="#A05837" d="M350.236 163.141s6.86.495 13.716-3.225c0 0-3.733 6.533-13.936 5.523l.22-2.298Z"/>
  <path fill="#263238" d="M354.835 148.602c-.229-.015-.252 1.406-1.575 2.399-1.32.997-2.948.817-2.962 1.016-.023.089.359.28 1.047.306a4 4 0 0 0 2.472-.768c.807-.609 1.162-1.43 1.222-2.013.066-.593-.1-.947-.204-.94Zm-11.593-16.297c.232.323 1.314.122 2.572.235 1.263.074 2.299.433 2.58.149.125-.14-.008-.453-.44-.78-.426-.325-1.166-.631-2.032-.696-.867-.063-1.647.128-2.12.387-.48.26-.661.549-.56.705Zm13.616 10.225c-.01.644-.604 1.166-1.327 1.168-.721.002-1.299-.515-1.289-1.159.011-.643.606-1.166 1.326-1.168.723-.003 1.301.517 1.29 1.159Zm4.599-4.994c-.171.151-1.124-.576-2.532-.639-1.404-.082-2.474.543-2.617.376-.071-.075.11-.353.575-.636.459-.282 1.23-.541 2.106-.497.877.045 1.598.38 2.004.707.416.328.547.622.464.689Zm-.538-4.231c-.293.284-1.362-.075-2.666-.15-1.302-.114-2.421.086-2.659-.237-.104-.156.087-.445.585-.704.491-.257 1.299-.45 2.195-.385.895.066 1.658.371 2.095.697.446.327.58.64.45.779Z"/>
  <path fill="#E4897B" d="M370.313 145.495c.011-.707.913-2.362 1.665-2.462 2.009-.266 5.62-.073 5.588 4.66-.045 6.47-7.022 5.094-7.034 4.909-.008-.145-.259-4.667-.219-7.107Z"/>
  <path fill="#E4897B" d="M372.467 150.249c.031-.021.121.079.325.168.2.086.543.146.907.022.737-.246 1.363-1.328 1.405-2.494a3.497 3.497 0 0 0-.328-1.616c-.21-.475-.537-.807-.907-.87-.367-.081-.631.123-.717.304-.095.181-.051.31-.088.32-.02.017-.149-.109-.091-.375a.71.71 0 0 1 .277-.404.97.97 0 0 1 .672-.161c.536.038 1.016.5 1.259 1.011.273.513.433 1.145.408 1.806-.053 1.304-.779 2.519-1.787 2.784-.49.115-.898-.024-1.108-.178-.215-.161-.25-.306-.227-.317Z"/>
  <path fill="#472E05" d="m372.26 143.069-1.885 1.587c-7.11-7.246-20.734-25.127-19.978-24.065 0 0 5.355-1.663 10.944-.411 5.588 1.252 16.121 4.56 15.504 10.749-.618 6.19-4.585 12.14-4.585 12.14Z"/>
  <path fill="#455A64" d="M382.436 142.28c.012-.003-.016-.132-.079-.379a6.252 6.252 0 0 0-.398-1.045c-.42-.88-1.258-2.086-2.676-3.213-1.392-1.154-3.368-2.15-5.641-2.976-2.267-.849-4.84-1.558-7.331-2.744-2.51-1.149-4.72-2.565-6.587-3.998a34.385 34.385 0 0 1-4.546-4.233 35.3 35.3 0 0 1-2.569-3.26l-.63-.932c-.147-.213-.228-.322-.239-.316-.011.005.05.125.176.349.13.222.311.555.575.967a29.764 29.764 0 0 0 2.492 3.34 32.776 32.776 0 0 0 4.53 4.319c1.874 1.46 4.102 2.899 6.639 4.06 2.523 1.201 5.116 1.905 7.37 2.732 2.265.806 4.211 1.76 5.599 2.87 1.411 1.084 2.261 2.243 2.713 3.09.448.854.564 1.379.602 1.369Z"/>
  <path fill="#455A64" d="M380.344 143.169s.109-.523-.166-1.425c-.259-.894-.993-2.133-2.382-3.198-1.374-1.096-3.395-1.848-5.629-2.473-2.246-.612-4.677-1.366-7.032-2.574-2.353-1.199-4.44-2.604-6.139-4.081a29.957 29.957 0 0 1-4.099-4.291c-1.048-1.319-1.729-2.489-2.22-3.284l-.522-.94c-.122-.213-.193-.324-.204-.319-.012.005.036.124.139.347l.463.97c.456.817 1.108 2.013 2.138 3.361a28.697 28.697 0 0 0 4.082 4.379c1.705 1.506 3.811 2.935 6.192 4.149 2.379 1.221 4.864 1.982 7.106 2.574 2.233.608 4.213 1.322 5.566 2.363 1.372 1.014 2.116 2.195 2.409 3.054.309.868.251 1.393.298 1.388Z"/>
  <path fill="#472E05" d="M371.234 153.964c-.003-.044.596-.078 1.64-.262 1.039-.201 2.526-.69 4.026-1.772 1.515-1.063 2.919-2.778 3.977-4.898 1.053-2.121 1.779-4.647 2.045-7.338a17.736 17.736 0 0 0-.049-3.929 18.077 18.077 0 0 0-.894-3.565 18.382 18.382 0 0 0-3.212-5.424c-2.388-2.786-4.46-3.979-4.376-4.064.009-.012.137.061.37.21.23.154.586.363 1.002.683.85.617 2.024 1.592 3.257 2.982a18.137 18.137 0 0 1 3.357 5.484c.42 1.129.751 2.351.941 3.641.172 1.293.192 2.648.061 4.021-.272 2.739-1.021 5.307-2.12 7.467-1.102 2.157-2.574 3.904-4.162 4.97-1.573 1.086-3.122 1.542-4.189 1.695-.531.102-.959.078-1.24.104-.285.011-.434.01-.434-.005Z"/>
  <path fill="#E4897B" d="m349.806 169.29 19.292-1.936 3.53 2.988-13.772 7.527-6.075 2.925-6.001-1.694-1.901-3.325 4.927-6.485Z"/>
  <path fill="url(#a)" d="M323.801 191.128s6.047-10.789 7.544-13.147c2.552-4.017 7.314-6.295 7.314-6.295l11.145-2.397s-1.157 5.192 5.779 5.551c8.821.456 14.3-7.408 14.3-7.408s10.065.962 12.845 2.048c2.778 1.085 10.641 4.143 11.795 13.862l2.693 15.867-21.264 1.506.294 21.122.106 12.048c-9.495 3.675-23.665 5.776-36.949 2.464-.802-.2-.387-8.782-2.241-17.565l-3.502-7.905c-1.402-3.165-2.273-6.518-2.48-9.935-.136-2.249-.069-3.951-.069-3.951s-5.455-1.742-7.31-5.865Z"/>
  <path fill="#E4897B" d="m340.556 229.263 35.649-9.949-.252-18.6 18.155-1.286s-1.448 9.638-1.661 14.58c-.305 7.108-3.983 17.041-6.442 19.15-2.46 2.109-46.396 4.401-46.396 4.401l.947-8.296Z"/>
  <path fill="#E4897B" d="M320.338 235.112c.294.452.85.721 1.411.635.112-.017.227-.047.346-.092.782-.297.58-1.81.58-1.81l3.794-.86s5.247 2.636 7.19 4.494c1.943 1.858 6.345-.077 6.345-.077l.938-7.729-7.569-5.437s.464.323-.116-.755c-.58-1.077-2.768-.496-2.768-.496-.392-.525-1.86-.618-1.86-.618l-6.149 1.112c-1.267.229-2.354.979-2.957 2.04l-2.302 4.05s-1.154 2.88-.877 3.51c.418.951 1.509.654 1.509.654s.457 1.806.978 1.832c.522.027 1.507-.453 1.507-.453Z"/>
  <path fill="#FF9A6C" d="M333.085 228.693c-.002.06-.833.049-2.153.198-1.317.155-3.129.503-4.99 1.246a18.55 18.55 0 0 0-2.524 1.225c-.717.447-1.473.825-1.67 1.351a.664.664 0 0 0 .125.682c.146.176.335.285.498.334.337.101.54 0 .551.035.016.007-.18.172-.589.104a1.19 1.19 0 0 1-.631-.342.88.88 0 0 1-.222-.892c.107-.346.393-.628.705-.866.321-.23.657-.466 1.035-.692a16.732 16.732 0 0 1 2.567-1.279 17.303 17.303 0 0 1 5.118-1.166c1.35-.084 2.183.021 2.18.062Z"/>
  <path fill="#FF9A6C" d="M333.829 232.338c.002.11-2.531.194-5.619.586-3.09.382-5.556.925-5.585.819-.013-.047.589-.243 1.585-.481a38 38 0 0 1 3.948-.703 38.36 38.36 0 0 1 4.006-.294c1.028-.016 1.664.026 1.665.073Zm-13.469 2.625c-.021-.002-.066-.212-.129-.609a12.456 12.456 0 0 1-.144-1.688c-.004-.36.004-.756.075-1.183a3.41 3.41 0 0 1 .505-1.301c.494-.827 1.203-1.698 2.14-2.38.935-.676 1.878-1.257 2.852-1.609.966-.349 1.886-.485 2.648-.571.765-.081 1.384-.11 1.813-.125.428-.015.665-.011.668.014.007.059-.939.157-2.442.369-.746.118-1.636.278-2.551.629-.907.345-1.834.927-2.737 1.579-.904.662-1.568 1.461-2.074 2.265-.539.771-.581 1.613-.616 2.315-.034 1.407.078 2.291-.008 2.295Z"/>
  <path fill="#FF9A6C" d="M328.451 223.856c.005.055-.922.145-2.391.41-1.411.306-3.687.568-4.835 2.491-1.271 1.765-2.338 3.423-2.755 4.75-.449 1.32-.325 2.202-.407 2.201-.021.002-.076-.213-.087-.609a5.386 5.386 0 0 1 .224-1.664c.363-1.394 1.418-3.111 2.696-4.886.326-.447.685-.874 1.112-1.221.424-.353.934-.577 1.406-.742.958-.327 1.851-.467 2.598-.578 1.498-.201 2.436-.198 2.439-.152Z"/>
  <path fill="#FF9A6C" d="M332.2 236.348c-.008.009-.142-.072-.391-.235l-1.103-.701a44.159 44.159 0 0 0-4.295-2.318l.089.01-3.788.883.119-.16c.033.291.039.577.001.878-.04.296-.114.616-.364.891a.973.973 0 0 1-.491.253 1.44 1.44 0 0 1-.538.069 1.636 1.636 0 0 1-1.181-.622l-.04-.055-.02-.027-.01-.014-.001-.002.232.06-.004.002-.008.004-.118.055a6.691 6.691 0 0 1-.483.199 4.44 4.44 0 0 1-.516.16 2.06 2.06 0 0 1-.283.049.695.695 0 0 1-.361-.038c-.228-.128-.32-.291-.416-.445a3.665 3.665 0 0 1-.231-.477 8.028 8.028 0 0 1-.331-.993l.236.128c-.492.117-1.088.048-1.47-.351-.171-.185-.319-.419-.324-.7-.008-.25.034-.474.079-.701.196-.896.506-1.763.846-2.645l.004-.01.006-.011 1.227-2.161.779-1.369c.26-.439.485-.929.868-1.334a4.104 4.104 0 0 1 1.321-.961c.494-.242 1.059-.334 1.556-.419l5.798-1.033.025-.004.021.002c.364.03.706.085 1.046.177.332.098.684.208.94.515l-.221-.047c.636-.298 1.397-.355 2.002-.039.607.312.921.863 1.107 1.389l-.053-.072 5.214 3.725 1.407 1.03c.318.239.482.37.474.381-.009.011-.19-.099-.525-.318l-1.454-.972-5.293-3.627-.036-.025-.017-.048c-.17-.463-.475-.965-.975-1.205-.488-.257-1.154-.2-1.686.053l-.131.063-.089-.11c-.149-.183-.456-.306-.76-.385a5.511 5.511 0 0 0-.975-.158l.046-.002-5.791 1.062c-.52.091-1.005.171-1.457.392-.452.21-.862.507-1.194.872-.338.355-.55.814-.818 1.27l-.779 1.37-1.229 2.16.011-.021c-.335.862-.646 1.732-.834 2.584a2.748 2.748 0 0 0-.075.618c-.007.165.097.336.224.477.247.276.704.337 1.078.252l.191-.043.045.171c.086.323.187.647.311.95.117.288.286.636.466.743a.381.381 0 0 0 .157.005c.075-.006.155-.022.233-.04a4.13 4.13 0 0 0 .473-.143c.155-.057.309-.119.459-.186l.111-.05.007-.004.002-.001c-.207-.055.286.073.235.061l.001.001.008.011.015.022.03.044a1.268 1.268 0 0 0 .918.494c.142.012.282-.009.421-.052a.65.65 0 0 0 .339-.162c.337-.381.337-1.018.297-1.522l-.011-.132.13-.029 3.801-.836.048-.01.041.02a37.682 37.682 0 0 1 4.259 2.426c.474.318.832.575 1.067.756.238.18.356.279.349.288Z"/>
  <path fill="#455A64" d="m279.163 237.399-11.957-29.196c-.45-1.098.423-2.275 1.687-2.275h38.397c.7 0 1.337.377 1.635.967l11.499 27.847 24.12.381c.997 0 1.805.751 1.805 1.678 0 .927-.808 1.679-1.805 1.679H280.85c-.749 0-1.42-.43-1.687-1.081Z"/>
  <path fill="#fff" d="M295.418 222.203c0 1.294-1.128 2.343-2.52 2.343-1.391 0-2.519-1.049-2.519-2.343 0-1.293 1.128-2.342 2.519-2.342 1.392 0 2.52 1.049 2.52 2.342Z"/>
  <path fill="#263238" d="M336.618 179.211c.061.032-.517 1.038-1.327 2.713a46.245 46.245 0 0 0-2.631 6.731 45.594 45.594 0 0 0-1.497 7.026c-.238 1.823-.304 2.961-.374 2.959-.03-.001-.044-.286-.043-.803-.003-.517.033-1.264.115-2.185.16-1.842.571-4.381 1.386-7.104.819-2.721 1.881-5.091 2.769-6.744.444-.827.828-1.484 1.119-1.925.287-.443.458-.681.483-.668Zm60.6 20c.001.012-.15.033-.44.063l-1.277.117-4.766.371-16.297 1.142-.21.014-.013-.195-.429-6.321c-.231-3.804-.429-7.429-.492-10.734-.185-3.321.69-6.354 2.091-8.51 1.386-2.189 3.226-3.462 4.568-4.083.684-.299 1.231-.499 1.619-.584.381-.1.583-.147.587-.133.02.054-.808.21-2.128.855-1.298.654-3.062 1.93-4.383 4.087-1.337 2.135-2.161 5.077-1.958 8.361.085 3.294.293 6.917.525 10.718l.417 6.318-.223-.181 16.308-1.002 4.774-.257 1.282-.052c.291-.007.444-.006.445.006Zm-39.977 12.919c-.012.026-.264-.062-.712-.243a6.018 6.018 0 0 1-.797-.371c-.3-.163-.656-.33-1.007-.575-.734-.447-1.537-1.077-2.347-1.851a15.838 15.838 0 0 1-2.249-2.816 15.135 15.135 0 0 1-1.454-3.238c-.301-1.043-.473-2.007-.511-2.822-.047-.406-.019-.776-.016-1.099-.003-.323.028-.6.064-.826.062-.451.11-.697.14-.693.085.007-.055 1.004.115 2.595.076.795.275 1.731.588 2.743a16.13 16.13 0 0 0 1.447 3.143 16.818 16.818 0 0 0 2.165 2.763c.775.768 1.538 1.405 2.234 1.873 1.384.947 2.377 1.346 2.34 1.417Z"/>
  <path fill="#fff" d="M287.653 169.38h38.737c3.75 0 6.79-2.827 6.79-6.313V82.17c0-3.487-3.04-6.313-6.79-6.313h-38.737c-3.75 0-6.79 2.827-6.79 6.313v80.897c0 3.486 3.04 6.313 6.79 6.313Z" opacity=".3"/>
  <path fill="#F5F5F5" d="M289.403 67.014h31.372c5.745 0 10.402 4.33 10.402 9.671v29.042c0 7.755-6.761 14.041-15.103 14.041h-21.971c-8.341 0-15.103-6.286-15.103-14.041V76.685c0-5.341 4.658-9.671 10.403-9.671Z" opacity=".3"/>
  <path fill="#E0E0E0" d="M322.319 92.69h-36.117c-2.225 0-4.03-1.678-4.03-3.748v-2.013c0-2.07 1.804-3.747 4.03-3.747h36.117c2.225 0 4.03 1.677 4.03 3.747v2.013c-.001 2.07-1.805 3.747-4.03 3.747Z"/>
  <path fill="#EEA07B" d="M318.927 74.99c.545 0 .987.41.987.914 0 .505-.442.914-.987.914-.544 0-.986-.41-.986-.914s.441-.914.986-.914Zm2.821 0c.544 0 .986.41.986.914 0 .505-.442.914-.986.914-.545 0-.986-.41-.986-.914s.441-.914.986-.914Zm2.824 1.828c.545 0 .986-.409.986-.914 0-.504-.441-.914-.986-.914-.545 0-.986.41-.986.914 0 .505.441.914.986.914Zm-39.048-2.286-1.188 1.137c-.127.121-.153.358 0 .476l1.188.912c.145.112.37.143.511 0 .122-.124.156-.356 0-.476l-1.188-.912v.476l1.188-1.138c.132-.126.145-.351 0-.475-.142-.122-.37-.135-.511 0Zm1.454 13.298a.787.787 0 0 1-.542.73.887.887 0 0 1-.949-.246.74.74 0 0 1-.062-.883.867.867 0 0 1 .861-.367c.401.069.687.391.692.767.005.26.439.26.434 0-.007-.497-.335-.933-.835-1.109-.489-.172-1.075-.026-1.406.35a1.127 1.127 0 0 0-.121 1.362c.276.43.813.642 1.338.555.593-.1 1.016-.607 1.024-1.158.004-.26-.43-.26-.434 0Z"/>
  <path fill="#EEA07B" d="m286.706 88.69.397.41.058.058a.228.228 0 0 0 .306 0 .195.195 0 0 0 0-.285l-.397-.41-.057-.058a.228.228 0 0 0-.307 0 .196.196 0 0 0 0 .285Z"/>
  <path fill="#E86B31" d="M286.87 101.064h-2.61c-1.091 0-1.975-.822-1.975-1.836 0-1.013.884-1.835 1.975-1.835h2.61c1.091 0 1.975.822 1.975 1.835 0 1.014-.884 1.836-1.975 1.836Z"/>
  <path fill="#E0E0E0" d="M325.046 101.064h-2.611c-1.09 0-1.974-.822-1.974-1.836 0-1.013.884-1.835 1.974-1.835h2.611c1.09 0 1.975.822 1.975 1.835 0 1.014-.885 1.836-1.975 1.836Z"/>
  <path fill="#EBEBEB" d="M304.155 101.064h-10.774c-1.091 0-1.975-.822-1.975-1.836 0-1.013.884-1.835 1.975-1.835h10.774c1.09 0 1.974.822 1.974 1.835 0 1.014-.884 1.836-1.974 1.836Z"/>
  <path fill="#EEA07B" d="M316.536 101.064h-6.741c-1.09 0-1.975-.822-1.975-1.836 0-1.013.885-1.835 1.975-1.835h6.741c1.09 0 1.975.822 1.975 1.835 0 1.014-.884 1.836-1.975 1.836Z"/>
  <path fill="#E86B31" d="M295.958 138.901h-8.944c-.806 0-1.459-.607-1.459-1.357 0-.749.653-1.356 1.459-1.356h8.944c.806 0 1.459.607 1.459 1.356 0 .75-.653 1.357-1.459 1.357Zm28.855 17.594c0 1.02-.889 1.847-1.987 1.847-1.097 0-1.986-.827-1.986-1.847s.889-1.847 1.986-1.847c1.098 0 1.987.827 1.987 1.847Zm-5.707 0c0 1.02-.889 1.847-1.987 1.847-1.097 0-1.986-.827-1.986-1.847s.889-1.847 1.986-1.847c1.098.001 1.987.827 1.987 1.847Zm-6.129 0c0 1.02-.889 1.847-1.987 1.847-1.097 0-1.986-.827-1.986-1.847s.889-1.847 1.986-1.847c1.098.001 1.987.827 1.987 1.847Z"/>
  <path fill="#EEA07B" d="M324.941 148.397h-15.639c-.514 0-.931-.387-.931-.865s.417-.866.931-.866h15.639c.514 0 .931.387.931.866 0 .478-.417.865-.931.865Zm0 3.588h-15.639c-.514 0-.931-.387-.931-.865s.417-.866.931-.866h15.639c.514 0 .931.387.931.866 0 .478-.417.865-.931.865Z"/>
  <path fill="#fff" d="M321.877 130.741h-33.963c-2.095 0-3.793-1.58-3.793-3.527V109.88c0-1.947 1.698-3.526 3.793-3.526h33.963c2.095 0 3.794 1.579 3.794 3.526v17.334c0 1.947-1.699 3.527-3.794 3.527Z"/>
  <path fill="#EEA07B" d="M302.767 116.357c1.532 0 2.775-1.155 2.775-2.58s-1.243-2.58-2.775-2.58c-1.533 0-2.775 1.155-2.775 2.58s1.242 2.58 2.775 2.58Z"/>
  <path fill="#E86B31" d="M325.671 127.601v-8.659c-1.063-1.176-2.184-2.287-3.442-3.216-2.056-1.518-4.544-2.528-7.036-2.278-3.221.324-5.979 2.696-7.869 5.485-.927 1.369-1.884 2.997-3.448 3.282-1.203.219-2.389-.457-3.347-1.259-.959-.802-1.827-1.766-2.944-2.289-2.238-1.048-4.834-.07-7.015 1.109a41.683 41.683 0 0 0-6.449 4.319v3.505c0 1.734 1.323 3.139 2.954 3.139h35.642c1.632.001 2.954-1.404 2.954-3.138Z"/>
  <path fill="#263238" d="M321.876 130.739c-.006-.031.468.036 1.274-.238a3.874 3.874 0 0 0 1.32-.776 3.42 3.42 0 0 0 1.036-1.709c.094-.365.109-.757.098-1.181a3150.436 3150.436 0 0 1-.018-4.33l-.023-7.325-.01-4.26c-.017-.743.074-1.504-.227-2.202-.266-.703-.809-1.326-1.513-1.733a3.72 3.72 0 0 0-1.157-.436c-.413-.085-.837-.079-1.286-.078a75576.746 75576.746 0 0 1-8.341.009l-25.112.012c-1.074-.005-2.12.461-2.798 1.215-.34.377-.585.823-.72 1.293-.145.471-.129.961-.128 1.471a361325.001 361325.001 0 0 1-.009 14.494l-.001 1.37c.006.453-.021.913.036 1.335.119.859.609 1.651 1.314 2.181.703.544 1.607.791 2.501.764l5.32.007 9.549.017 13.827.045 3.759.026.977.014c.22.006.332.015.332.015s-.112.01-.333.015l-.977.014-3.759.026-13.827.045-9.549.017-5.32.007c-.93.032-1.922-.232-2.673-.814-.758-.568-1.287-1.419-1.417-2.342-.063-.469-.034-.916-.041-1.37l-.002-1.37-.002-2.788-.004-5.749-.002-5.957c-.001-.495-.019-1.032.138-1.543.146-.51.411-.993.779-1.401.733-.816 1.868-1.321 3.029-1.316l25.112.011a98665.614 98665.614 0 0 1 8.341.009c.437 0 .899-.005 1.341.086.442.085.859.253 1.235.471.751.436 1.327 1.102 1.608 1.853.141.374.231.765.231 1.155l.002 1.124-.01 4.26-.023 7.325a4951.905 4951.905 0 0 1-.018 4.33c.006.417-.013.832-.115 1.206a3.49 3.49 0 0 1-1.088 1.743 3.887 3.887 0 0 1-1.362.77 3.88 3.88 0 0 1-.96.184c-.221.004-.334-.001-.334-.001Z"/>
  <path fill="#fff" d="M299.309 159.952h-10.301c-2.738 0-4.957-2.064-4.957-4.609v-7.853c0-2.546 2.22-4.609 4.957-4.609h10.301c2.738 0 4.958 2.064 4.958 4.609v7.853c0 2.545-2.22 4.609-4.958 4.609Z"/>
  <path fill="#E86B31" d="M296.836 147.808c0 1.02-.889 1.847-1.986 1.847s-1.987-.827-1.987-1.847.89-1.847 1.987-1.847 1.986.827 1.986 1.847Zm-7.683 12.144h10.013c2.817 0 5.101-2.124 5.101-4.743v-5.734a6.716 6.716 0 0 0-2.282-.338c-1.259.03-2.379.58-3.2 1.238-.821.658-1.419 1.432-2.176 2.125-.5.459-1.15.91-1.98.961-1.951.119-2.763-1.879-4.639-2.269-.886-.184-1.867.042-2.597.434-.731.392-1.26.93-1.776 1.46a2404.7 2404.7 0 0 0-1.566 1.607v.515c0 2.62 2.284 4.744 5.102 4.744Z"/>
  <path fill="#263238" d="M299.354 159.951c-.001-.017.242-.012.691-.079a5.028 5.028 0 0 0 1.842-.644 4.61 4.61 0 0 0 1.955-2.196c.49-1.053.283-2.391.318-3.831l-.019-4.728c-.012-.851.063-1.732-.305-2.557-.317-.83-.944-1.58-1.76-2.112a5.112 5.112 0 0 0-2.896-.79l-3.292.003-6.924.002c-1.152.003-2.277.402-3.121 1.087a4.32 4.32 0 0 0-1.578 2.631c-.094.492-.064 1.006-.069 1.519-.001.511-.001 1.016-.003 1.516l-.005 2.935v2.789c.018.884.33 1.723.83 2.408a4.745 4.745 0 0 0 1.947 1.529c.751.344 1.555.425 2.325.418l7.363.045 2.001.026.521.014c.119.006.179.011.179.015 0 .005-.06.01-.178.015l-.521.014-2.001.026-7.363.045c-.774.014-1.638-.066-2.422-.42a4.978 4.978 0 0 1-2.056-1.594 4.473 4.473 0 0 1-.889-2.533l-.012-2.795-.006-2.935-.002-1.516c.005-.505-.029-1.029.069-1.564a4.586 4.586 0 0 1 1.673-2.797c.897-.729 2.094-1.155 3.318-1.157a273150.592 273150.592 0 0 1 10.216.006c1.099-.026 2.191.282 3.054.846.862.567 1.519 1.362 1.85 2.239.384.876.3 1.809.307 2.642l-.019 4.728-.01 2.061a4.498 4.498 0 0 1-.364 1.827 4.72 4.72 0 0 1-2.051 2.232 4.906 4.906 0 0 1-1.895.607c-.456.05-.698.023-.698.023Z"/>
  <path fill="#263238" d="M287.083 167.028s-.266-.002-.788-.022c-.514-.061-1.298-.136-2.246-.496a8.056 8.056 0 0 1-3.068-1.984c-1.012-1.013-1.846-2.507-2.067-4.306-.076-.904-.034-1.846-.049-2.842a17905.965 17905.965 0 0 1-.018-10.227l-.023-17.301-.032-45.035-.003-6.434c.012-1.089-.031-2.17.028-3.281a8.25 8.25 0 0 1 .9-3.23c1.039-2.036 2.973-3.691 5.305-4.466 1.159-.4 2.421-.541 3.653-.529h3.703l15.13-.002h13.61c.651-.005 1.32 0 1.984.07 2.662.291 5.12 1.699 6.619 3.72a8.278 8.278 0 0 1 1.508 3.362c.249 1.209.145 2.418.167 3.602l-.002 14.07-.009 26.599-.013 24.069-.009 10.908-.005 5.142c-.007.832.027 1.68-.157 2.499a7.63 7.63 0 0 1-.914 2.301c-.419.713-.985 1.334-1.605 1.872a7.842 7.842 0 0 1-2.085 1.302 8.256 8.256 0 0 1-2.346.646c-.804.109-1.599.08-2.371.081l-8.773-.011-14.05-.023-8.879-.027-2.309-.014c-.519-.003-.786-.013-.786-.013s.267-.009.786-.014l2.309-.014 8.879-.026 14.05-.024 8.773-.011c.777-.003 1.566.024 2.343-.085a8.05 8.05 0 0 0 2.287-.635 7.63 7.63 0 0 0 2.031-1.273c.603-.527 1.154-1.132 1.56-1.828a7.486 7.486 0 0 0 .886-2.243c.177-.794.142-1.619.147-2.46l-.004-5.141-.009-10.908-.014-24.069-.009-26.6-.002-14.07c-.022-1.191.078-2.394-.163-3.55a8.01 8.01 0 0 0-1.46-3.254c-1.452-1.957-3.831-3.32-6.408-3.602-.641-.067-1.289-.073-1.947-.069h-13.611l-15.129-.002h-3.704c-1.223-.013-2.424.122-3.553.51-2.26.75-4.137 2.354-5.144 4.325a7.999 7.999 0 0 0-.875 3.132c-.059 1.08-.017 2.183-.031 3.265 0 2.17-.002 4.315-.003 6.434l-.032 45.035-.023 17.302-.012 7.097-.006 3.129c.01.993-.036 1.946.034 2.831.21 1.774 1.024 3.253 2.018 4.26a8.032 8.032 0 0 0 3.024 1.988c1.902.687 3.028.511 3.012.57Z"/>
  <path fill="#263238" d="M304.896 191.636c-.083 0-.15-5.509-.15-12.304 0-6.796.068-12.305.15-12.305.083 0 .151 5.508.151 12.305 0 6.795-.067 12.304-.151 12.304Z"/>
  <path fill="#EEA07B" d="M307.075 66.166c0 1.445-1.26 2.615-2.813 2.615-1.554 0-2.813-1.17-2.813-2.615 0-1.444 1.259-2.615 2.813-2.615 1.553 0 2.813 1.171 2.813 2.615Z"/>
  <path fill="#263238" d="M305.09 193.686c1.554 0 2.813-1.171 2.813-2.616 0-1.444-1.259-2.615-2.813-2.615-1.553 0-2.813 1.171-2.813 2.615 0 1.445 1.26 2.616 2.813 2.616Z"/>
  <path fill="#EEA07B" d="M272.164 55.425c0-.01.149-.02.434-.028l1.244-.026 4.575-.045 15.092-.04 4.302.002c.695 0 1.377.002 2.046.003a4.737 4.737 0 0 1 1.959.4c1.198.523 2.045 1.512 2.367 2.555.176.517.197 1.062.183 1.545l-.01 1.41-.048 4.252-.029 1.156c-.009.265-.019.404-.03.404-.01 0-.02-.14-.03-.404l-.028-1.156-.048-4.253-.01-1.41c.008-.493-.018-.983-.19-1.476-.313-.982-1.119-1.905-2.246-2.39-1.118-.538-2.501-.32-3.886-.362l-4.303.002-15.092-.04c-1.907-.02-3.462-.034-4.575-.045l-1.244-.026c-.284-.009-.433-.018-.433-.028Z"/>
  <path fill="#fff" d="m390.802 155.433 1.55-4.342c-1.559-2.17-2.512-4.755-2.622-7.553-.318-8.05 6.443-14.815 15.101-15.11 8.658-.295 15.934 5.991 16.252 14.04.318 8.049-6.444 14.814-15.102 15.109-3.615.124-6.986-.903-9.714-2.725l.006.007-5.471.574Z"/>
  <path fill="#263238" d="M390.803 155.434s.126-.018.364-.045l1.051-.12 4.05-.454-.031.074-.006-.006a.042.042 0 0 1 .006-.064.051.051 0 0 1 .06-.002 16.383 16.383 0 0 0 7.208 2.594c.772.086 1.581.125 2.417.095.832-.067 1.698-.108 2.566-.297a16.24 16.24 0 0 0 5.209-1.939 15.214 15.214 0 0 0 4.457-3.953 14.05 14.05 0 0 0 2.568-5.684c.882-4.193-.447-9.052-3.918-12.484-1.767-1.738-3.932-3.087-6.283-3.814a16.982 16.982 0 0 0-7.132-.689 16.103 16.103 0 0 0-6.346 2.146 15.254 15.254 0 0 0-4.498 4.044 14.022 14.022 0 0 0-2.307 4.826l-.145.608a3.6 3.6 0 0 0-.112.602l-.15 1.187c-.006.782-.055 1.539.029 2.263.275 2.908 1.427 5.195 2.533 6.747a.043.043 0 0 1 .005.038l-1.176 3.207-.308.833a9.5 9.5 0 0 1-.111.287s.028-.09.091-.274l.284-.828 1.131-3.253.005.038a13.926 13.926 0 0 1-2.6-6.784c-.088-.73-.042-1.494-.039-2.284l.145-1.199c.017-.205.06-.407.111-.61l.143-.614a14.127 14.127 0 0 1 2.317-4.888 15.405 15.405 0 0 1 4.543-4.103 16.277 16.277 0 0 1 6.427-2.185 17.206 17.206 0 0 1 7.231.692c2.384.736 4.582 2.104 6.374 3.867.232.204.427.44.626.67l.596.691.522.736c.176.243.35.487.486.75l.438.772c.153.254.245.533.371.797.113.269.245.53.34.803l.263.824c.666 2.198.764 4.488.323 6.616a14.213 14.213 0 0 1-2.612 5.756 15.366 15.366 0 0 1-4.523 3.992 16.406 16.406 0 0 1-5.275 1.946c-.879.188-1.754.227-2.595.29a16.5 16.5 0 0 1-2.44-.106 16.362 16.362 0 0 1-7.247-2.656l.067-.066.006.007c.017.019.014.047-.006.064a.049.049 0 0 1-.026.01l-4.093.401c-.453.043-.798.075-1.039.099-.232.022-.345.029-.345.029Z"/>
  <path fill="#E86B31" d="m398.16 143.394 2.191-2.253 4.648 3.469 6.904-7.372 2.258 2.045-9.267 9.479-6.734-5.368Z"/>
  <path fill="#472E05" d="M132.786 59.29c1.858.976 4.467.432 5.699-1.189 1.231-1.62.911-4.089-.699-5.391 1.742-.678 2.91-2.456 2.766-4.206-.144-1.75-1.59-3.342-3.423-3.765.655-1.623.327-3.556-.834-4.912-1.161-1.356-3.113-2.086-4.961-1.857-1.207-2.258-4.237-3.519-6.852-2.851-1.537-.943-3.73-.834-5.15.256-1.419 1.09-1.949 3.072-1.244 4.653"/>
  <path fill="#E4897B" d="m121.943 38.46.88.348c8.863 3.501 13.349 12.742 10.306 21.236-2.828 7.9-6.062 16.595-7.99 20.671-3.991 8.44-13.722 6.154-13.722 6.154l-3.887 10.499-21.858-9.389 14.938-37.746c3.21-9.132 11.602-15.008 21.333-11.773Z"/>
  <path fill="#6F4439" d="M111.498 86.887s-5.977-1.977-10.471-7.979c0 0 .15 7.245 9.606 10.079l.865-2.1Z"/>
  <path fill="#263238" d="M126.062 67.885c-.268.65-1.08.974-1.815.726-.733-.247-1.112-.974-.845-1.623.269-.65 1.081-.975 1.815-.727.734.247 1.113.975.845 1.624Zm3.21-4.465c-.234.094-.91-.976-2.315-1.526-1.394-.569-2.73-.304-2.808-.524-.043-.1.252-.32.839-.447.579-.128 1.466-.124 2.338.224.871.35 1.47.94 1.752 1.412.291.478.306.822.194.86Zm-15.659-.836c-.268.65-1.081.974-1.816.726-.733-.248-1.112-.973-.844-1.623.268-.65 1.082-.975 1.815-.727.735.247 1.113.975.845 1.624Zm1.761-4.367c-.234.094-.912-.976-2.315-1.526-1.393-.569-2.73-.305-2.809-.525-.042-.1.251-.32.84-.446.579-.128 1.465-.124 2.338.224.871.35 1.469.938 1.752 1.411.289.478.306.822.194.862Zm.67 11.681c.027-.076.963.128 2.452.518.374.108.743.175.907-.028.194-.208.209-.626.213-1.082l.099-2.953c.179-4.191.471-7.58.652-7.572.182.009.184 3.412.004 7.603-.052 1.03-.101 2.012-.151 2.95-.037.433 0 .954-.411 1.381-.21.211-.556.288-.811.255-.26-.026-.463-.102-.644-.162-1.454-.49-2.339-.834-2.31-.91Zm2.84-16.218c-.336.258-1.375-.576-2.834-1.205-1.444-.66-2.809-.893-2.788-1.29.017-.187.415-.38 1.069-.434.65-.055 1.548.058 2.419.444.87.387 1.517.96 1.864 1.457.351.5.424.902.27 1.028Zm12.913 4.39c-.43.179-1.448-.586-2.833-1.15-1.367-.602-2.662-.817-2.791-1.234-.05-.197.271-.42.914-.498.635-.079 1.588.028 2.534.43.946.4 1.652.997 1.998 1.491.352.499.374.868.178.96Z"/>
  <path fill="#472E05" d="M134.029 55.806s.022-6.265-2.167-8.594c-2.65-2.819-5.643.018-8.445-2.064-2.802-2.082-5.328-4.781-9.622-3.78-4.7 1.096-3.836 3.51-5.776 7.188-7.867 14.911-12.838 18.044-10.405 10.517.266-.825-1.799-2.38-.626-5.846 1.521-4.493 3.737-9.803 6.173-12.457 2.053-2.236 4.451-3.394 8.188-4.239 5.9-1.334 12.085 1.032 16.087 3.074 4 2.042 10.016 9.697 6.593 16.2Z"/>
  <path fill="#E4897B" d="M98.304 59.07c.54-1.333-.2-2.846-1.66-3.277-1.771-.521-4.076-.371-5.458 2.943-2.452 5.88 4.403 6.956 4.484 6.79.055-.11 1.632-3.987 2.634-6.456Z"/>
  <path fill="#6F4439" d="M95.215 62.82c-.02-.028-.14.032-.36.044a1.236 1.236 0 0 1-.83-.281c-.573-.469-.724-1.658-.312-2.729.207-.54.54-1.007.92-1.355.372-.361.797-.553 1.156-.488.365.049.525.322.533.515.017.196-.073.298-.044.32.012.022.177-.05.228-.31a.659.659 0 0 0-.095-.458c-.104-.17-.303-.309-.547-.37-.5-.144-1.113.115-1.53.497a3.725 3.725 0 0 0-1.066 1.501c-.454 1.2-.264 2.544.548 3.119.4.268.823.277 1.072.208.257-.075.345-.194.327-.213Z"/>
  <path fill="#472E05" d="M103.562 47.88c.575.834 1.189 1.703 2.124 2.178.935.475 2.291.395 2.866-.44.259-.374.367-.884.795-1.084.511-.238 1.086.128 1.586.385 1.732.896 4.703-.13 5.915-1.588.167.827 1.092 1.422 1.984 1.28.893-.144 1.257-.282 2.072-.65.814-.366 1.822-.584 2.597-.15.433.244.748.67 1.23.815.85.256 1.658-.478 2.128-1.185.469-.707.969-1.552 1.851-1.688.817-.127 1.55.422 2.257.824.707.401 1.756.621 2.262.012.266-.32.273-.764.202-1.163-.322-1.806-2.151-3.275-4.12-3.306.266-2.158-.981-4.412-3.024-5.466-2.042-1.055-4.759-.848-6.588.503-.81-1.633-2.513-2.857-4.418-3.175-1.904-.317-3.958.28-5.329 1.55-1.349-.971-3.328-1.11-4.817-.336-1.488.774-2.399 2.413-2.216 3.99-1.394.152-2.828.809-3.4 2-.572 1.192.14 2.885 1.53 3.062-.931.735-1.101 2.166-.366 3.073.736.907 2.262 1.15 3.279.52"/>
  <path fill="#455A64" d="M128.993 44.01c.005.002-.012.037-.05.105-.041.066-.093.17-.181.294a4.12 4.12 0 0 1-.964.939 5.033 5.033 0 0 1-2.011.824c-.841.157-1.878.119-2.865-.331l.164-.087c-.033.572-.358 1.147-.857 1.552-.489.42-1.096.723-1.72 1.005-.313.13-.615.31-1.002.39a2.552 2.552 0 0 1-1.145-.05c-.742-.194-1.443-.71-1.702-1.462l.261.03c-.686 1.09-1.919 1.965-3.361 2.226-.775.164-1.62.118-2.334-.185-.719-.292-1.3-.754-1.831-1.21l.198-.002c-.665.588-1.461 1-2.295 1.207-.822.211-1.762.153-2.425-.308-1.34-.872-1.797-2.396-1.504-3.547l.114.118a3.692 3.692 0 0 1-2.278-.554 3.641 3.641 0 0 1-1.212-1.211c-.24-.4-.33-.75-.373-.984-.03-.238-.03-.363-.021-.363.042-.01.005.523.493 1.294.248.374.63.803 1.203 1.136a3.542 3.542 0 0 0 2.164.49l.145-.014-.032.132c-.259 1.078.196 2.512 1.445 3.306.605.412 1.433.458 2.211.259a5.21 5.21 0 0 0 2.165-1.151l.098-.088.1.085c.523.447 1.087.888 1.752 1.155.662.277 1.42.321 2.158.167 1.363-.248 2.519-1.066 3.174-2.095l.164-.26.097.29c.215.642.838 1.116 1.504 1.291.334.09.685.115 1.012.051.317-.06.626-.233.943-.364.62-.275 1.208-.565 1.668-.953.471-.377.758-.881.798-1.396l.012-.159.153.072c.924.436 1.915.49 2.729.353a5.014 5.014 0 0 0 1.968-.755c.969-.652 1.232-1.274 1.27-1.243Z"/>
  <path fill="#263238" d="M113.698 74.237c.065-.23-1.607-.538-2.513-2.085-.91-1.545-.372-3.168-.603-3.223-.1-.04-.403.31-.571 1.005-.171.682-.145 1.727.409 2.674.556.944 1.453 1.47 2.128 1.649.688.186 1.138.089 1.15-.02Z"/>
  <path fill="url(#b)" d="m79.828 78 9.34 1.142c.773 6.278 11.621 14.666 21.041 10.602l15.629 12.601c-.418.377-9.325 18.438-18.727 35.03-2.551 4.501-5.514 8.61-7.558 12.412l-1.004 12.487c-15.925 3.402-33.73 1.003-46.19-5.815-5.717-3.202-11.042-6.903-15.527-11.472L54.08 90.712s-.423-9.38 9.275-11.823c5.126-1.292 8.311-1.194 10.855-1.181.971.006 4.106.149 5.618.293Z"/>
  <path fill="#CF5642" fill-opacity=".99" d="M114.464 97.59s11.724.836 14.399 9.654c2.676 8.818-.294 42.124-.294 42.124l16.783 6.687-2.658 11.609s-16.558 1.518-27.259-.969c-10.7-2.487-4.376-52.373-4.376-52.373l3.405-16.732Z"/>
  <path fill="#263238" d="M123.488 112.99c.008.007-.075.143-.238.392l-.704 1.103-2.598 4.06-8.603 13.379-8.654 13.355-2.649 4.031c-.306.456-.55.819-.733 1.089-.17.248-.264.375-.273.37-.01-.004.068-.142.221-.398l.684-1.116 2.567-4.078 8.579-13.396c3.367-5.22 6.436-9.936 8.678-13.337a317.882 317.882 0 0 1 2.681-4.015c.324-.471.571-.837.754-1.079.182-.243.281-.366.288-.36Z"/>
  <path fill="#E86D38" d="M51.286 86.603s-29.398 37.016-23.607 45.518c9.464 13.893 51.84 6.557 51.84 6.557l-.953-18.455-23.637.25 13.206-22.439 8.07-20.228c-10.166-.582-17.987.09-24.92 8.797Z"/>
  <path fill="#263238" d="M62.63 107.16c.02.009-.064.203-.23.548-.168.343-.416.838-.737 1.443-.637 1.212-1.55 2.87-2.608 4.679a126.581 126.581 0 0 1-2.799 4.583 46.574 46.574 0 0 1-.903 1.359c-.22.317-.352.487-.37.476-.018-.01.08-.198.27-.531l.818-1.403 2.72-4.618c1.03-1.78 1.96-3.389 2.683-4.635l.82-1.402c.2-.33.318-.507.337-.499Z"/>
  <path fill="url(#c)" d="m61.356 105.951 80.767 76.629 19.864-16.738L79.52 89.228c-4.911-4.563-12.842-4.647-17.863-.188-5.151 4.574-5.287 12.181-.301 16.911Z"/>
  <path fill="#F5F5F5" d="m161.988 165.844 4.572 19.522c.425 1.814-1.388 3.393-3.307 2.878l-21.128-5.662 19.863-16.738Z"/>
  <path fill="#E86B31" d="m166.081 183.332.571 2.477c.385 1.67-1.313 3.104-3.064 2.588l-2.4-.708 4.893-4.357Z"/>
  <path fill="#5F3B00" d="M61.656 89.04c4.72-4.191 12.013-4.366 16.95-.58l-18.043 16.661c-.015-.018-.033-.034-.048-.051l-.063-.074c-4.042-4.749-3.614-11.677 1.204-15.955Z"/>
  <path fill="#263238" d="M61.699 89.004s-.186.196-.559.568l-.313.312c-.109.122-.216.263-.34.412l-.395.487c-.142.173-.256.382-.398.592-.568.835-1.123 1.966-1.478 3.375a11.548 11.548 0 0 0-.141 4.954c.355 1.843 1.232 3.837 2.786 5.607.791.87 1.73 1.698 2.66 2.592l2.923 2.765 13.717 12.985 35.688 33.817 21.067 19.975a2606.382 2606.382 0 0 0 4.135 3.918c.464.419.995.775 1.568 1.059.576.293 1.184.477 1.833.64l1.923.515 3.869 1.037a16721.218 16721.218 0 0 1 11.773 3.155l.992.265c.336.1.64.155.971.161a2.595 2.595 0 0 0 1.752-.689c.461-.428.74-1.029.727-1.633.008-.301-.081-.6-.152-.919l-.219-.937-.875-3.737-1.732-7.397-.857-3.659-.425-1.819a4.57 4.57 0 0 0-.709-1.67c-.336-.512-.824-.915-1.292-1.356l-1.399-1.3-2.781-2.584-21.282-19.785-36.025-33.511L84.879 94.32c-2.04-1.89-3.917-3.674-5.682-5.271l-.674-.57-.715-.493a5.925 5.925 0 0 0-.727-.443c-.249-.133-.484-.283-.735-.397-.508-.218-.99-.46-1.5-.608-.252-.08-.496-.176-.746-.239l-.743-.177c-1.967-.446-3.804-.365-5.326-.098-.378.084-.749.141-1.092.239l-.98.296c-.602.244-1.162.44-1.617.7-.232.122-.454.23-.655.342l-.539.346-.46.294-.352.275c-.417.325-.637.488-.637.488s.206-.177.618-.512l.348-.281.457-.301.538-.353c.2-.114.422-.225.654-.35.455-.264 1.016-.466 1.619-.716l.985-.304c.344-.1.716-.16 1.097-.247 1.53-.278 3.382-.368 5.37.074l.75.176c.253.062.498.159.753.238.516.148 1.004.39 1.518.609.255.114.493.264.745.398.25.135.503.273.736.445l.725.496.684.573c1.777 1.597 3.656 3.372 5.703 5.258l13.863 12.85 36.07 33.469 21.296 19.772 2.781 2.583 1.4 1.3c.457.431.972.856 1.333 1.403.368.533.621 1.143.749 1.759l.426 1.819.858 3.659 1.733 7.398.875 3.736.22.938c.067.306.166.633.158.977.014.679-.299 1.354-.814 1.832a2.914 2.914 0 0 1-1.966.772 3.895 3.895 0 0 1-1.055-.172l-.992-.266-3.951-1.058a65108.346 65108.346 0 0 0-13.614-3.651c-.636-.158-1.299-.359-1.891-.661a7.235 7.235 0 0 1-1.634-1.105l-1.389-1.314-2.751-2.61-21.054-19.987-35.642-33.859-13.685-13.013-2.914-2.773c-.928-.899-1.859-1.722-2.66-2.609-1.564-1.795-2.441-3.813-2.79-5.673-.34-1.87-.198-3.58.17-4.992.366-1.416.933-2.551 1.512-3.385.145-.21.262-.418.407-.591l.402-.484c.126-.149.236-.29.346-.41l.32-.308c.382-.368.583-.55.583-.55Z"/>
  <path fill="#E4897B" d="M138.822 151.393c.269-.662.789-1.209 1.336-1.701s1.567-1.423 2.031-1.984l3.565-3.079c2.385-.643 3.437 1.568 2.776 2.695.69-.223.957-.515 1.669-.364.713.152 1.376.59 1.651 1.219.276.63.085 1.44-.518 1.822 1.12-.102 2.276.516 2.744 1.467.282.573.302 1.241.098 1.839a2.56 2.56 0 0 1-.474.824c-.074.089-.153.204-.258.263a.467.467 0 0 1-.168.05c-.27.042-.542.039-.813.097a4.45 4.45 0 0 0-.302.077 5.278 5.278 0 0 0-1.277.578c-.182.111-.353.271-.551.356-.134.057-.286.051-.426.086-.895.221-1.65.854-2.35 1.385-.79.599-1.655 1.201-2.669 1.299-1.014.098-2.176-.525-2.224-1.471-.427.454-1.251.457-1.762.086-.512-.372-.721-1.025-.642-1.624.079-.599.408-1.147.81-1.62-.576.463-1.551.278-2.022-.278-.471-.557-.494-1.359-.224-2.022Z"/>
  <path fill="#E4897B" d="M155.776 155.748c.399.452.712 1.03.595 1.604-.139.681-.953 1.378-1.578 1.756-.659-.551-.959-.865-1.619-1.415-.139-.115-.195-.255-.373-.306-.471-.135-1.194.455-1.662.599-.812.249-1.753-.292-2.004-1.051-.251-.759.112-1.622.765-2.134.654-.512 1.545-.706 2.398-.67 1.333.056 2.629.659 3.478 1.617Z"/>
  <path fill="#985146" d="M151.526 149.85c-.106-.116-2.176 1.358-4.622 3.289-2.447 1.933-4.346 3.593-4.24 3.709.106.116 2.175-1.356 4.622-3.289 2.447-1.932 4.345-3.593 4.24-3.709Zm-2.87-2.643c-.089-.119-2.103 1.065-4.264 2.901-2.168 1.832-3.622 3.586-3.502 3.679.128.105 1.761-1.466 3.9-3.272 2.132-1.812 3.966-3.179 3.866-3.308Zm-2.801-2.584c-.102-.123-1.71.94-3.423 2.518-1.711 1.573-3 2.921-2.895 3.027.117.116 1.606-1.068 3.308-2.634 1.699-1.565 3.109-2.793 3.01-2.911Zm8.836 10.43c.059-.036-.124-.401-.708-.691-.567-.294-1.534-.404-2.461-.124-.93.288-1.627.662-2.145 1.061-.53.46-.378.966-.297.922.08-.004.106-.354.561-.621a12.313 12.313 0 0 1 2.052-.835c.825-.245 1.599-.206 2.127-.044.529.154.805.389.871.332Z"/>
  <path fill="#E4897B" d="m78.61 121.064 7.883-.079s3.64-4.118 6.066-5.622c2.426-1.504 2.83-4.512 4.448-4.323 1.617.188 2.83 2.811 1.617 4.319s-2.022 2.448-2.022 2.448 7.911-3.96 10.768-3.858c2.473.088 1.768 1.41 1.768 1.41s2.324-.479 4.346.837c2.022 1.316.507 2.739.507 2.739s2.82-.057 3.426 1.823c.607 1.88.01 2.312.01 2.312s3.235.564 2.022 3.196-11.516 5.639-17.586 6.203c-6.07.564-22.344 2.871-22.344 2.871l-.91-14.276Z"/>
  <path fill="#E86D38" d="M34.947 137.543c14.698 2.509 29.447 3.37 44.573.889l-.91-17.367-23.68-.838-9.521 1.94"/>
  <path fill="#263238" d="M45.408 122.168a.862.862 0 0 1 .161-.045l.48-.109 1.863-.403 6.998-1.466.01-.002h.013l23.683.789.131.005.007.122.738 13.965.177 3.401.007.124-.13.021c-12.41 2.032-23.745 1.599-31.748.794a157.578 157.578 0 0 1-9.437-1.219c-1.106-.169-1.957-.331-2.536-.43a266.7 266.7 0 0 1-.656-.121 1.414 1.414 0 0 1-.222-.05 1.47 1.47 0 0 1 .227.023l.66.095 2.545.38c2.212.325 5.428.757 9.44 1.132 7.998.755 19.304 1.153 31.675-.878l-.124.144-.179-3.402-.724-13.965.138.126-23.68-.887.023-.002-7.016 1.39-1.873.359-.484.088a1.14 1.14 0 0 1-.167.021Z"/>
  <path fill="#fff" d="m79.21 65.263-5.956-2.066c-3.087 1.768-6.72 2.79-10.613 2.79-11.191 0-20.264-8.435-20.264-18.84 0-10.406 9.072-18.84 20.264-18.84s20.265 8.434 20.265 18.84c0 4.345-1.587 8.343-4.244 11.53l.01-.007.537 6.593Z"/>
  <path fill="#263238" d="M79.21 65.264s-.02-.152-.046-.438l-.118-1.266-.438-4.884.102.042-.01.007a.067.067 0 0 1-.088-.01.056.056 0 0 1 0-.073c1.606-1.951 3.319-4.815 3.944-8.527.156-.923.248-1.892.246-2.896-.053-1.002-.069-2.043-.29-3.095a17.837 17.837 0 0 0-2.445-6.343c-1.282-2.054-3.06-3.978-5.278-5.537a20.959 20.959 0 0 0-7.77-3.352c-5.782-1.256-12.592.108-17.52 4.111-2.497 2.038-4.474 4.574-5.595 7.361a17.836 17.836 0 0 0-1.295 8.527c.256 2.812 1.254 5.454 2.68 7.718a19.433 19.433 0 0 0 5.402 5.591 20.834 20.834 0 0 0 6.592 2.997l.836.202c.276.072.551.134.832.164l1.64.235c1.087.045 2.135.14 3.144.073a21.284 21.284 0 0 0 9.489-2.72.065.065 0 0 1 .052-.005l4.398 1.563 1.142.41c.257.092.394.145.394.145s-.124-.037-.377-.122l-1.136-.38-4.463-1.512.052-.005c-2.208 1.28-5.454 2.586-9.543 2.8-1.017.072-2.076-.02-3.173-.06l-1.658-.231a5.892 5.892 0 0 1-.841-.163l-.847-.2a21.03 21.03 0 0 1-6.676-3.012 19.64 19.64 0 0 1-5.483-5.648c-1.45-2.29-2.465-4.967-2.729-7.816a18.05 18.05 0 0 1 1.305-8.646c1.135-2.827 3.138-5.4 5.67-7.466.295-.27.631-.492.96-.72l.988-.683 1.047-.591a8.63 8.63 0 0 1 1.064-.548l1.093-.49c.36-.172.752-.269 1.124-.407.378-.122.748-.269 1.131-.37l1.157-.276c3.083-.695 6.268-.704 9.203-.075a21.2 21.2 0 0 1 7.867 3.409c2.244 1.582 4.04 3.534 5.33 5.616a17.98 17.98 0 0 1 2.451 6.424c.22 1.064.233 2.116.28 3.127a17.273 17.273 0 0 1-.262 2.924c-.65 3.744-2.398 6.621-4.032 8.571l-.088-.082.01-.007a.067.067 0 0 1 .088.01c.007.01.012.021.013.032l.363 4.931.088 1.252c.018.279.023.414.023.414Z"/>
  <path fill="#FFBE55" d="M58.252 40.155a8.775 8.775 0 0 1 2.061-.833l.425-1.897 3.448-.056.496 1.882a8.84 8.84 0 0 1 2.091.765l1.743-1.062 2.48 2.227-1.08 1.656c.395.606.694 1.251.897 1.917l2.04.395.06 3.205-2.023.462a7.532 7.532 0 0 1-.823 1.944l1.141 1.62-2.394 2.306-1.781-1.004a8.784 8.784 0 0 1-2.062.833l-.425 1.897-3.447.056-.496-1.882a8.865 8.865 0 0 1-2.092-.765l-1.742 1.062-2.48-2.227L55.367 51a7.57 7.57 0 0 1-.896-1.917l-2.04-.395-.06-3.205 2.023-.462a7.552 7.552 0 0 1 .823-1.944l-1.142-1.62 2.395-2.306 1.781 1.004Zm1.838 4.27c-1.419 1.366-1.378 3.543.092 4.862 1.47 1.32 3.811 1.28 5.23-.086 1.419-1.366 1.378-3.543-.092-4.862s-3.811-1.28-5.23.086Z"/>
  <defs>
    <linearGradient id="a" x1="360.203" x2="352.806" y1="233.604" y2="177.568" gradientUnits="userSpaceOnUse">
      <stop stop-color="#FB8D48"/>
      <stop offset=".2" stop-color="#ED7136"/>
      <stop offset=".4" stop-color="#C54E47"/>
      <stop offset=".4" stop-color="#C14F49"/>
      <stop offset=".6" stop-color="#9D3863"/>
      <stop offset=".8" stop-color="#5E1F72"/>
    </linearGradient>
    <linearGradient id="b" x1="91.329" x2="90.515" y1="77.256" y2="164.171" gradientUnits="userSpaceOnUse">
      <stop stop-color="#FB8D48"/>
      <stop stop-color="#ED7136"/>
      <stop offset=".4" stop-color="#C54E47"/>
      <stop offset=".4" stop-color="#C14F49"/>
      <stop offset=".6" stop-color="#9D3863"/>
      <stop offset=".8" stop-color="#5E1F72"/>
    </linearGradient>
    <linearGradient id="c" x1="59.517" x2="162.335" y1="127.441" y2="129.588" gradientUnits="userSpaceOnUse">
      <stop stop-color="#FB8D48"/>
      <stop offset=".2" stop-color="#ED7136"/>
      <stop offset=".4" stop-color="#C54E47"/>
      <stop offset=".4" stop-color="#C14F49"/>
      <stop offset=".6" stop-color="#9D3863"/>
      <stop offset=".8" stop-color="#5E1F72"/>
    </linearGradient>
  </defs>
</svg>
