<svg xmlns="http://www.w3.org/2000/svg" width="400" height="293" fill="none" viewBox="0 0 400 293">
  <g clip-path="url(#a)">
    <path fill="#fff" fill-opacity=".04" d="M26.264 288.247s-28.925-68.18 7.663-119.697c36.587-51.518 14.272-97.199 78.518-142.667 82.572-58.445 162.214-.78 185.963 38.32 23.748 39.099 104.417 19.142 80.978 130.38-18.183 86.294-4.618 90.086-4.618 90.086l-348.495 3.578h-.009Z"/>
    <path fill="#EEA07B" d="M3.77 284.467H400v3.773a3.775 3.775 0 0 1-3.769 3.774H3.769A3.761 3.761 0 0 1 0 288.249c0-2.09 1.69-3.782 3.77-3.782Z"/>
    <path fill="#EEA07B" d="M0 284.467h148.579v3.773a3.775 3.775 0 0 1-3.77 3.774H3.769A3.761 3.761 0 0 1 0 288.249v-3.782Zm203.436-143.961c-16.803 32.331-35.694 45.503-35.694 45.503l16.307 26.069 28.474-29.63-9.096-41.942h.009Z"/>
    <path fill="url(#b)" d="m245.104 132.791-41.675 7.715c-2.637 78.925-3.628 143.951-3.628 143.951h74.794s2.167-120.858-9.866-147.228l-19.634-4.438h.009Z"/>
    <path stroke="url(#c)" stroke-miterlimit="10" stroke-width="4" d="m240.273 173.004 20.298-1.719"/>
    <path fill="url(#d)" d="M230.947 156.043s12.883 88.03 1.673 123.648l-1.673-123.648Z"/>
    <path stroke="#EEA07B" stroke-miterlimit="10" d="M217.461 200.139s12.449 5.013 28.58 5.545c16.139.531 6.096 9.123-17.821 7.494"/>
    <path fill="#E9A394" d="m220.664 129.575 10.282 27.354 14.157-24.138-9.326-15.271-15.113 12.055Z"/>
    <path fill="#EEA07B" d="m230.947 156.929 19.201-5.306-5.044-18.832-14.157 24.138Zm-7.999-21.279-10.415 11.657 18.413 9.62-7.998-21.277Z"/>
    <path fill="#E9A394" d="M184.05 212.068s6.088-12.702-6.981-29.063c-7.246-9.071-10.582-24.732-10.582-24.732l-10.883 1.657 9.971 52.138h18.484-.009Z"/>
    <path fill="#E9A394" d="m153.383 141.932-4.46 4.057 5.955 5.261-18.652-.319-.398 6.414 19.776 2.595 10.883-1.665-13.104-16.343Z"/>
    <path fill="#E9A394" d="m156.64 151.916-17.9-7.396-1.15 3.188 14.936 6.281 4.114-2.073Zm55.876-55.763-9.078 23.261 6.945 2.144 2.133 13.101 22.173-5.085 3.203-35.564-25.376 2.143Z"/>
    <path fill="#E37A82" d="M227.317 101.679h-16.962l1.85-5.014 15.112-.938v5.952Z"/>
    <path fill="#472E05" d="M236.175 112.292s-10.821-2.241-10.821-13.446c0 0-16.051 2.188-21.59-6.537-6.565-10.328 3.469-22.207 11.751-19.789 0 0-5.221 5.182 2.707 5.785 5.654.433 15.98-7.096 19.67.185 0 0 28.455 6.511 7.211 33.05l-8.937.744.009.008Z"/>
    <path stroke="#472E05" stroke-miterlimit="10" stroke-width="2" d="M225.354 97.96s-21.457 4.146-25.943-11.25c-2.619-9.008 6.389-14.128 6.389-14.128"/>
    <path stroke="#16005C" stroke-miterlimit="10" stroke-width=".5" d="M216.276 118.671c4.471 0 8.096-3.629 8.096-8.105 0-4.476-3.625-8.105-8.096-8.105-4.472 0-8.096 3.629-8.096 8.105 0 4.476 3.624 8.105 8.096 8.105Zm7.663-10.728 11.538.629"/>
    <path fill="#E9A394" d="M250.145 114.34c0 5.023-6.725 9.088-11.733 9.088-5.008 0-6.424-4.074-6.424-9.088 0-5.013 4.07-9.088 9.079-9.088 5.008 0 9.078 4.075 9.078 9.088Zm42.907 88.74v41.925H272.17l-1.734-36.46 22.616-5.465Z"/>
    <path fill="#EEA07B" d="m201.809 193.598.876-29.213-13.529 42.376 12.653-13.163Z"/>
    <path fill="#E37A82" d="m221.744 132.358 12.945-2.782-10.618 9.071-2.327-6.289Z"/>
    <path fill="#16005C" d="M214.082 114.332c.855 0 1.548-1.448 1.548-3.234 0-1.785-.693-3.233-1.548-3.233-.856 0-1.549 1.448-1.549 3.233 0 1.786.693 3.234 1.549 3.234Zm4.211-11.108c0-4.34-3.451-1.417-3.451-1.417l3.451 1.417Z"/>
    <path fill="#fff" d="m214.842 122.426 4.937-1.311s2.115 18.319-4.937 1.311Z"/>
    <path fill="url(#e)" d="M108.541 204.521s33.278-5.155 33.933 52.944c.106 9.425 6.105 27 6.105 27h-30.163l-9.875-79.944Z"/>
    <path fill="url(#f)" d="m73.74 199.365-20.111 4.757 6.14 80.342h78.263s-2.628-63.565-32.137-82.636l-32.145-2.463h-.01Z"/>
    <path fill="url(#g)" d="M53.63 204.124c-20.732 4.731-15.883 20.666-11.875 53.379-10.343 8.415-.425 12.197-.425 12.197-11.36 12.056 2.814 14.766 2.814 14.766h37.844s-7.618-85.081-28.367-80.342h.008Z"/>
    <path stroke="#EEA07B" stroke-miterlimit="10" d="m79.74 265.907-9.078-41.739"/>
    <path fill="#E9A394" d="M44.145 284.465s6.388-14.686 26.588-22.074c16.741-6.121 41.242 9.77 56.921-5.332l2.902 16.998-48.559 10.399H44.145v.009Zm66.572-126.474 14.971 22.818-9.6 3.428-1.664 18.549-28.871-10.045 2.716-37.718 22.448 2.968Z"/>
    <path fill="#E37A82" d="M88.499 181.959 73.74 199.365l18.935 23.225 8.53-27.123-12.706-13.508Zm4.936-10.779 21.121-7.335-3.84-5.855-20.864 2.17 3.583 11.02Z"/>
    <path fill="#472E05" d="M91.613 179.17s6.397 12.817 1.947-11.888c0 0 6.07.683 10.821-7.334 0 0-1.478 13.066 12.467 0 13.945-13.065-3.778-23.288-25.439-19.443-18.767 3.33-37.551 13.951-10.104 49.941l10.308-11.276Z"/>
    <path fill="#E9A394" d="M88.198 184.264c-1.443 1.931-3.92 3.685-6.486 4.066-5.15.753-10.175-3.313-10.919-8.468-.743-5.156 1.85-7.831 7-8.575 2.892-.425 6.237.434 8.75 2.188.761.948 1.663 10.798 1.663 10.798l-.008-.009Z"/>
    <path fill="#16005C" d="M108.56 177.15c.769-.209 1.005-1.806.528-3.567-.478-1.761-1.488-3.019-2.257-2.811-.768.209-1.005 1.806-.527 3.567.477 1.761 1.487 3.02 2.256 2.811Zm-5.852-7.67s-.752-4.234 3.177-2.197l-3.177 2.197Z"/>
    <path stroke="#C4C6C5" stroke-miterlimit="10" d="M104.381 188.33s2.238 4.172 6.654 1.346"/>
    <path fill="#1E262A" d="M80.457 274.914h74.298a4.035 4.035 0 0 1 4.035 4.039v1.471a4.035 4.035 0 0 1-4.035 4.039H84.492a4.035 4.035 0 0 1-4.035-4.039v-5.51Z"/>
    <path fill="#1E262A" d="M215.091 219.668h-86.429a5.109 5.109 0 0 0-5.061 4.464l-6.963 54.574c-.39 3.056 1.99 5.758 5.061 5.758h86.429a5.109 5.109 0 0 0 5.061-4.464l6.963-54.574c.39-3.056-1.99-5.758-5.061-5.758Z"/>
    <path fill="#263238" d="M219.277 219.668h-86.429a5.109 5.109 0 0 0-5.061 4.464l-6.964 54.574c-.389 3.056 1.991 5.758 5.061 5.758h86.429a5.109 5.109 0 0 0 5.061-4.464l6.964-54.574c.389-3.056-1.991-5.758-5.061-5.758Z"/>
    <path fill="#EEA07B" d="M178.156 257.916c3.598-3.418 4.022-8.818.948-12.062-3.075-3.243-8.484-3.102-12.082.316-3.598 3.419-4.022 8.819-.947 12.062 3.074 3.244 8.483 3.102 12.081-.316Z"/>
    <path stroke="#0A2D7D" stroke-miterlimit="10" d="M217.391 284.004H109.814"/>
    <path fill="#472E05" d="m264.931 210.972 35.712.682-8.096-43.732-18.989 2.152s-8.556 12.641-1.796 22.464c7.618 11.09-7.609 11.498-6.831 18.442v-.008Z"/>
    <path fill="#EEA07B" d="M280.68 205.684s-16.245 15.962-24.819 76.116h18.086l6.733-76.116Z"/>
    <path fill="url(#h)" d="m323.631 201.236-7.07 80.563h-52.532l6.539-30.772s-19.997-10.444 10.122-45.344l7.486-3.853 32.526-2.463 2.929 1.869Z"/>
    <path stroke="#EEA07B" stroke-miterlimit="10" d="M280.681 241.746s-3.15 5.403-.124 9.735l-4.459 30.33m-2.75-30.641 30.42.903m5.997 14.262-3.212-38.745"/>
    <path fill="url(#i)" d="M323.629 201.238s2.903 3.65 6.256 12.127c4.76 12.011 10.441 33.722 10.069 68.436h-23.403l7.069-80.563h.009Z"/>
    <path fill="#E9A394" d="M339.955 284.46s-11.688-26.769-41.1-19.107c-32.11 8.362-44.037 6.803-44.037 6.803l-2.433 12.304h87.57Z"/>
    <path fill="#EEA07B" d="m309.348 259.727-10.432 2.338 23.704 22.402h22.342s-9.627-23.376-35.605-24.732l-.009-.008Z"/>
    <path stroke="#EEA07B" stroke-miterlimit="10" d="m309.994 266.672 4.973-1.524"/>
    <path fill="#E9A394" d="m254.826 272.154-15.263-3.162-10.936 15.466h23.757l2.442-12.304Z"/>
    <path fill="#EEA07B" d="m280.682 241.744 28.358-28.39-5.273-2.489 19.864-9.628-9.123-5.811H293.29l-12.608 15.776 3.486.868-3.486 2.445v27.229Z"/>
    <path fill="#E9A394" d="m300.51 205.081 9.256-6.413-9.999-22.375-15.493 9.744 4.362 18.566-7.954 37.141 19.828-36.663Z"/>
    <path fill="#E37A82" d="m285.521 191.334 10.875-5.678-9.707 10.639-1.168-4.961Z"/>
    <path fill="#E9A394" d="m265.647 158.932-4.743 26.352h7.123l7.999 11.011 20.368-10.639-14.245-31.773-16.502 5.049Z"/>
    <path fill="#E37A82" d="m264.497 165.326-.477 2.888 18.793-2.56-.292-3.605-18.024 3.277Z"/>
    <path fill="#472E05" d="M317.579 156.931c-4.707-12.764-10.45-17.681-10.45-17.681-11.529-11.462-31.225 1.258-31.225 1.258-25.244-6.121-14.997 25.263-14.997 25.263l20.563-2.524c2.875 17.264 13.157 8.521 13.157 8.521l4.796 8.654s-4.84 4.279.203 11.622c4.15 6.041-5.795 8.105-3.221 14.536l39.738-8.247c0-26.175-10.061-18.327-18.555-41.393l-.009-.009Z"/>
    <path stroke="#472E05" stroke-miterlimit="10" stroke-width="2" d="M338.743 197.573s3.176-11.914-14.122-25.423"/>
    <path fill="#E9A394" d="M295.21 181.538c4.73 0 8.565-3.839 8.565-8.575 0-4.735-3.835-8.574-8.565-8.574-4.731 0-8.565 3.839-8.565 8.574 0 4.736 3.834 8.575 8.565 8.575Z"/>
    <path fill="#fff" d="m273.348 184.32 5.309-1.302s1.867 15.156-5.309 1.302Z"/>
    <path stroke="#0A2D7D" stroke-miterlimit="10" stroke-width=".5" d="M268.922 175.366s1.69-10.311 5.388 0"/>
    <path fill="#16005C" d="M270.23 167.526s2.053-3.49 4.495 0h-4.495Z"/>
    <path fill="#EEA07B" d="M190.37 74.666c-3.079-8.575-12.759-12.862-21.245-9.204-7.299 3.154-11.175 11.445-8.91 19.08a15.834 15.834 0 0 0 7.707 9.496c3.309 1.78 6.141 4.314 8.22 7.441l.602.903 11.892-4.278-.115-1.072c-.39-3.8.274-7.6 1.672-11.152a15.843 15.843 0 0 0 .177-11.205v-.01Z"/>
    <path fill="#EEA07B" d="M190.37 74.666c-3.079-8.575-12.759-12.862-21.245-9.204-7.299 3.154-11.175 11.445-8.91 19.08a15.834 15.834 0 0 0 7.707 9.496c3.309 1.78 6.141 4.314 8.22 7.441l.602.903 11.892-4.278-.115-1.072c-.39-3.8.274-7.6 1.672-11.152a15.843 15.843 0 0 0 .177-11.205v-.01Z"/>
    <path stroke="#fff" stroke-miterlimit="10" d="m179.469 98.866-9.477-13.385s.177-2.71 3.15-2.276c2.973.434 4.752 5.129 2.628 4.367-2.124-.762-2.876-6.28 1.141-7.122 4.018-.842 5.362 8.291 3.142 6.528-2.221-1.762-1.752-7.573 2.548-7.626l2.522 19.301"/>
    <path fill="#EEA07B" d="m184.41 96.251-5.579 2.009a4.094 4.094 0 0 0-2.463 5.235l1.177 3.276a4.086 4.086 0 0 0 5.23 2.466l5.578-2.008a4.093 4.093 0 0 0 2.463-5.236l-1.176-3.276a4.087 4.087 0 0 0-5.23-2.466Z"/>
    <path fill="#EEA07B" d="m189.685 93.262-16.81 6.052 2.952 8.219 16.811-6.052-2.953-8.219Z"/>
    <path stroke="#EEA07B" stroke-miterlimit="10" d="m175.035 60.103-1.681-9.628m-10.44 15.359-8.025-7.857m-.346 22.129-9.158.655m42.861-15.387 4.123-7.653"/>
    <path fill="#EEA07B" d="M317.289 136.103h56.832c1.973 0 3.867-1.603 4.23-3.579l5.875-32.438c.354-1.975-.956-3.578-2.929-3.578h-56.832c-1.973 0-3.867 1.603-4.229 3.578l-5.876 32.438c-.353 1.976.956 3.579 2.929 3.579Z"/>
    <path fill="#fff" d="M362.869 118.824c1.66-1.518 1.98-3.873.714-5.26-1.265-1.387-3.637-1.281-5.297.237-1.659 1.517-1.979 3.872-.713 5.259 1.265 1.387 3.637 1.281 5.296-.236Zm-11.285-.002c1.66-1.518 1.979-3.873.714-5.26-1.266-1.387-3.637-1.281-5.297.237-1.659 1.518-1.979 3.872-.713 5.259 1.265 1.387 3.637 1.281 5.296-.236Zm-11.291-.004c1.66-1.518 1.979-3.873.714-5.26-1.266-1.387-3.637-1.281-5.297.237-1.659 1.518-1.979 3.872-.713 5.259 1.265 1.387 3.637 1.281 5.296-.236Z"/>
    <path fill="#EEA07B" d="m347.878 133.968-19.749 11.755 3.539-12.676 16.21.921Zm-213.669-2.678H77.377c-1.973 0-3.866-1.603-4.23-3.578l-5.874-32.438c-.354-1.975.955-3.579 2.928-3.579h56.832c1.973 0 3.867 1.604 4.23 3.579l5.875 32.438c.354 1.975-.956 3.578-2.929 3.578Z"/>
    <path fill="#fff" d="M93.929 114.233c1.265-1.387.946-3.742-.714-5.26-1.66-1.517-4.031-1.623-5.297-.236-1.265 1.387-.946 3.741.714 5.259 1.66 1.518 4.031 1.624 5.297.237Zm11.279.002c1.266-1.387.946-3.742-.714-5.26-1.659-1.517-4.031-1.623-5.296-.236-1.266 1.387-.946 3.741.713 5.259 1.66 1.518 4.032 1.624 5.297.237Zm11.297 0c1.266-1.387.946-3.742-.714-5.26-1.659-1.517-4.031-1.623-5.296-.236-1.266 1.387-.946 3.741.713 5.259 1.66 1.518 4.031 1.624 5.297.237Z"/>
    <path fill="#EEA07B" d="m113.939 129.164 3.115 11.339 12.609-12.136-15.724.797Z"/>
  </g>
  <defs>
    <linearGradient id="b" x1="201.104" x2="275.022" y1="198.092" y2="198.8" gradientUnits="userSpaceOnUse">
      <stop stop-color="#FB8D48"/>
      <stop offset=".2" stop-color="#ED7136"/>
      <stop offset=".4" stop-color="#C54E47"/>
      <stop offset=".4" stop-color="#C14F49"/>
      <stop offset=".6" stop-color="#9D3863"/>
      <stop offset=".8" stop-color="#5E1F72"/>
    </linearGradient>
    <linearGradient id="c" x1="240.626" x2="259.65" y1="172.025" y2="176.382" gradientUnits="userSpaceOnUse">
      <stop stop-color="#FB8D48"/>
      <stop offset=".2" stop-color="#ED7136"/>
      <stop offset=".4" stop-color="#C54E47"/>
      <stop offset=".4" stop-color="#C14F49"/>
      <stop offset=".6" stop-color="#9D3863"/>
      <stop offset=".8" stop-color="#5E1F72"/>
    </linearGradient>
    <linearGradient id="d" x1="231.056" x2="237.226" y1="209.28" y2="209.286" gradientUnits="userSpaceOnUse">
      <stop stop-color="#FB8D48"/>
      <stop offset=".2" stop-color="#ED7136"/>
      <stop offset=".4" stop-color="#C54E47"/>
      <stop offset=".4" stop-color="#C14F49"/>
      <stop offset=".6" stop-color="#9D3863"/>
      <stop offset=".8" stop-color="#5E1F72"/>
    </linearGradient>
    <linearGradient id="e" x1="109.237" x2="148.726" y1="238.875" y2="239.258" gradientUnits="userSpaceOnUse">
      <stop stop-color="#FB8D48"/>
      <stop offset=".2" stop-color="#ED7136"/>
      <stop offset=".4" stop-color="#C54E47"/>
      <stop offset=".4" stop-color="#C14F49"/>
      <stop offset=".6" stop-color="#9D3863"/>
      <stop offset=".8" stop-color="#5E1F72"/>
    </linearGradient>
    <linearGradient id="f" x1="55.097" x2="138.319" y1="236.005" y2="237.605" gradientUnits="userSpaceOnUse">
      <stop stop-color="#FB8D48"/>
      <stop offset=".2" stop-color="#ED7136"/>
      <stop offset=".4" stop-color="#C54E47"/>
      <stop offset=".4" stop-color="#C14F49"/>
      <stop offset=".6" stop-color="#9D3863"/>
      <stop offset=".8" stop-color="#5E1F72"/>
    </linearGradient>
    <linearGradient id="g" x1="37.704" x2="82.153" y1="238.607" y2="239.09" gradientUnits="userSpaceOnUse">
      <stop stop-color="#FB8D48"/>
      <stop offset=".2" stop-color="#ED7136"/>
      <stop offset=".4" stop-color="#C54E47"/>
      <stop offset=".4" stop-color="#C14F49"/>
      <stop offset=".6" stop-color="#9D3863"/>
      <stop offset=".8" stop-color="#5E1F72"/>
    </linearGradient>
    <linearGradient id="h" x1="265.066" x2="323.844" y1="234.859" y2="235.683" gradientUnits="userSpaceOnUse">
      <stop stop-color="#FB8D48"/>
      <stop offset=".2" stop-color="#ED7136"/>
      <stop offset=".4" stop-color="#C54E47"/>
      <stop offset=".4" stop-color="#C14F49"/>
      <stop offset=".6" stop-color="#9D3863"/>
      <stop offset=".8" stop-color="#5E1F72"/>
    </linearGradient>
    <linearGradient id="i" x1="316.958" x2="340.059" y1="235.925" y2="236.055" gradientUnits="userSpaceOnUse">
      <stop stop-color="#FB8D48"/>
      <stop offset=".2" stop-color="#ED7136"/>
      <stop offset=".4" stop-color="#C54E47"/>
      <stop offset=".4" stop-color="#C14F49"/>
      <stop offset=".6" stop-color="#9D3863"/>
      <stop offset=".8" stop-color="#5E1F72"/>
    </linearGradient>
    <clipPath id="a">
      <path fill="#fff" d="M0 .988h400v291.025H0z"/>
    </clipPath>
  </defs>
</svg>
