<svg xmlns="http://www.w3.org/2000/svg" width="550" height="551" fill="none" viewBox="0 0 550 551">
  <path fill="url(#a)" d="m272.928 189.805-39.927 60.579s-68.609 5.511-83.866-30.286c-4.046-9.503-2.086-39.767.444-64.68 1.969-19.353 4.277-35.47 4.365-36.156.009-.009.009-.02.009-.02h11.182l.744 7.744 10.903 65.571 96.146-2.752Z"/>
  <path fill="#61120A" d="M152.249 134.078c1.028-.246 2.051-.603 2.669-1.513.561-.827.88-1.787 1.472-2.599 2.143-2.947 5.704-4.487 9.29-5.037l-.547-5.683H153.95s0 .009-.009.02c-.052.405-.878 6.201-1.953 14.865.088-.018.176-.033.261-.053Z" opacity=".3"/>
  <path fill="url(#b)" d="M171.585 76.872h.007c.412-.042.764-.25 1.001-.548.26-.326.381-.761.288-1.203a1.494 1.494 0 0 1-.02-.106c-.002-.004-.002-.01-.002-.011-.011-.05-.019-.1-.028-.149l-.014-.084a1.821 1.821 0 0 1-.026-.192c-.607-4.72 4.182-7.004 6.468-3.247.064.104.125.214.185.328.403.768.708 1.752.865 2.975-.082 8.533-7.003 13.776-13.911 21.66-1.27 1.523-1.236 2.978-.66 4.001a3.154 3.154 0 0 0 .282.418c.026.033.055.065.083.098.11.128.231.243.359.348.158.13.327.242.501.33.172.09.35.156.528.2a2.42 2.42 0 0 0 .231.042c.064.007.128.013.19.013l.035-.094.079-.216h-.004a2.991 2.991 0 0 1-.207-.079c.07.028.138.053.207.075l.002.002.264-.713h.002a.627.627 0 0 0-.255-.746c-.827-.528-1.224-1.61.475-3.016 8.864-8.107 14.474-16.705 13.778-22.519-.426-9.487-13.694-10.195-10.703 2.433Zm1.648-6.666.003-.004c.087-.088.178-.185.279-.291 1.104-1.151 2.779-1.434 4.303-.734-1.524-.698-3.197-.416-4.299.736-.108.112-.207.214-.297.31l-.713.742.724-.759Zm-5.922 30.879Z"/>
  <path fill="#E86B31" d="M180.919 74.632c.178 4.713-2.671 10.141-8.47 16.13l-5.787 6.038-.017.024c-1.045 1.522-.62 2.712-.273 3.287.376.624 1.065.943 1.707 1.153l-.059.167-.002.002-.077.216-.033.094a1.773 1.773 0 0 1-.192-.015l-.042-.005a2.362 2.362 0 0 1-.717-.237 2.926 2.926 0 0 1-.86-.678l-.083-.097a1.986 1.986 0 0 1-.078-.103 2.615 2.615 0 0 1-.204-.315c-.585-1.03-.627-2.497.649-4.025 6.908-7.883 13.827-13.126 13.91-21.657-.156-1.212-.459-2.189-.853-2.953a5.913 5.913 0 0 0-.185-.328c-2.281-3.784-7.082-1.487-6.468 3.246.004.043.011.085.016.127l.01.066c.003.027.009.055.014.084a2.583 2.583 0 0 0 .03.16c.005.035.014.07.02.106.093.444-.028.878-.288 1.203-.629-2.569-.414-4.728.629-6.1l.011-.016.003-.004a4.71 4.71 0 0 1 .268-.311c1.135-1.187 2.877-1.449 4.435-.672 1.776.888 2.865 2.859 2.986 5.413Z"/>
  <path fill="url(#c)" d="M147.097 98.254c-8.352-6.332-16.184-10.078-17.983-18.418-.09-1.23.011-2.255.25-3.089a5.57 5.57 0 0 1 .115-.36c1.485-4.139 6.635-2.865 6.991 1.88.003.042.005.086.009.128l.003.066a3.77 3.77 0 0 1 .008.235v.013c.002.035 0 .071.002.108-.002.453.203.856.524 1.122.293.246.684.378 1.098.334a16.71 16.71 0 0 0-.07-2.19c-1.05-10.349-12.303-6.849-10.904 1.96.487 5.834 7.713 13.13 18.025 19.289 1.945 1.036 1.773 2.174 1.071 2.858a.63.63 0 0 0-.097.783l.001-.002.402.646c.002 0 .002-.002.002-.002a5.62 5.62 0 0 0 0 .002l-.004.001.128.204.046.075c.061-.015.123-.031.185-.051.015-.006.028-.009.039-.015a2.357 2.357 0 0 0 .654-.378c.153-.121.296-.264.424-.423.104-.127.2-.266.282-.413l.061-.111.057-.116a2.46 2.46 0 0 0 .135-.35c.356-1.117.097-2.55-1.454-3.786Zm-11.94-24.18c.535.37.823.569.863.598l-.848-.583-.352-.244c-1.352-.933-3.11-.841-4.479.235a4.545 4.545 0 0 0 .002-.002c1.371-1.076 3.129-1.168 4.478-.235l.332.23.004.001Z"/>
  <path fill="#E86B31" d="M148.549 102.039a2.95 2.95 0 0 1-.193.466l-.06.112a2.994 2.994 0 0 1-.706.836c-.15.123-.311.223-.476.302-.059.028-.12.052-.178.075l-.039.015a1.606 1.606 0 0 1-.185.053l-.046-.077-.124-.207v-.002l-.092-.152c.587-.337 1.197-.786 1.439-1.474.225-.632.401-1.886-.93-3.166l-.02-.02-6.884-4.752c-6.886-4.7-10.769-9.444-11.541-14.097-.392-2.524.275-4.675 1.834-5.9 1.369-1.076 3.129-1.167 4.478-.234.112.079.221.161.327.251l.003.004a.21.21 0 0 1 .015.014c1.296 1.135 1.942 3.207 1.843 5.85a1.448 1.448 0 0 1-.525-1.121c0-.037 0-.074-.002-.109v-.012c0-.052.001-.101-.003-.15 0-.03-.002-.058-.004-.085l-.004-.066a1.078 1.078 0 0 0-.009-.128c-.352-4.762-5.516-6.045-6.99-1.88a8.49 8.49 0 0 0-.116.36c-.232.828-.332 1.846-.242 3.065 1.797 8.34 9.631 12.085 17.982 18.418 1.562 1.237 1.813 2.684 1.448 3.811Z"/>
  <path fill="url(#d)" d="m172.959 63.844.064.636a1.315 1.315 0 0 1-1.138 1.44l-.039.005c2.133 32.633-10.374 37.924-11.638 39.981-1.265 2.059-1.433 5.444.932 9.174 1.496 2.362 5.481 3.181 8.211 3.467a3.418 3.418 0 0 1 3.045 3.053l-26.081 2.649a3.419 3.419 0 0 1 2.369-3.603c2.616-.826 6.356-2.432 7.346-5.047 1.566-4.132.721-7.412-.931-9.174-1.239-1.32-9.038-3.151-14.747-17.651-1.903-4.833-3.575-11.075-4.694-19.173a1.316 1.316 0 0 1-1.444-1.177l-.065-.636a1.318 1.318 0 0 1 1.179-1.445l36.188-3.676a1.316 1.316 0 0 1 1.443 1.177Z"/>
  <path fill="#E86B31" d="M160.205 105.905c-1.265 2.059-1.434 5.443.931 9.174 1.496 2.362 5.482 3.181 8.212 3.467a3.418 3.418 0 0 1 3.045 3.053l-5.736.583c-.822-.822-2.023-1.803-3.762-2.833-4.63-2.744-5.343-15.347-5.343-15.347s11.385-9.905 11.391-33.128l-28.974-2.163 31.83-3.234.084.443-.038.006c2.13 32.631-10.375 37.922-11.64 39.979Zm-17.571-40.353-4.073.413.284 2.809 4.073-.413-.284-2.81Z"/>
  <path fill="#E86B31" d="M140.055 69.55s1.531 24.847 10.833 32.621c0 0-3.896-7.63-6.485-33.109l-4.348.488Z"/>
  <path fill="#E9A394" d="M155.765 109.397c2.954-.28 6.716-.825 6.551-1.793-.2-1.17-3.852-1.478-6.998-1.525.821-1.883.898-2.358.181-2.549-.792-.21-2.022-.045-3.153 1.049a56.433 56.433 0 0 0-1.59 1.582c-1.534.845-1.563 8.982 1.04 10.828.541.383 1.309.425 2.037.543.944.152.865-.241 2.928-.31 3.534-.119 4.356-.765 4.35-1.483-.007-.813-4.317-.924-5.995-.976.099-.003.202-.007.304-.013l.142.022-.076-.025c2.791-.114 6.597-.402 6.599-1.843.001-.887-4.182-.828-6.214-.74 2.928-.396 6.14-.82 6.384-1.661.315-1.093-2.865-1.317-6.49-1.106Z"/>
  <path fill="#E86B31" d="M81.473 219.423c1.872-2.849 4.129-5.599 7.005-7.482 2.877-1.883 6.168-3.166 9.524-3.885 6.401-1.371 14.627-.475 17.489 6.365.566 1.353.874 2.789 1.156 4.223.217 1.1.376 2.343.996 3.305.605.944 1.67 1.161 2.728 1.085 1.945-.139 3.92-.817 5.63-1.728 1.881-1.001 3.586-2.391 4.882-4.087 1.227-1.604 1.993-3.498 2.472-5.452.372-1.52.414-3.102.83-4.611.455-1.656 1.513-2.979 2.871-4.002 2.488-1.874 5.579-2.503 8.606-2.923 3.406-.473 6.86-.639 10.237-1.318 2.765-.555 5.792-1.512 7.299-4.09 1.505-2.57 1.446-5.493.13-8.123-1.406-2.811-3.803-5.075-6.254-6.978-2.425-1.881-5.063-3.5-7.795-4.893-3.498-1.784-7.258-2.963-10.916-4.371a200.516 200.516 0 0 1-7.412-3.01c-2.279-.985-4.567-1.969-6.677-3.287-3.219-2.012-5.947-4.653-8.195-7.702-1.655-2.246-3.085-4.644-4.482-7.059a210.17 210.17 0 0 0-33.974 76.626c1.26-2.233 2.468-4.5 3.85-6.603Z" opacity=".1"/>
  <path fill="#E9A394" d="M427.816 144.237s3.663-5.587 3.467-6.657c-.333-1.819-1.164-.88.508-7.381 1.155-4.496-1.217-6.916.18-7.737 2.748-1.619 4.147 6.31 4.147 6.31s4.094-14.796 6.594-13.687c1.348.597-1.798 11.691-1.798 11.691s1.965-1.857 2.986-.95c1.505 1.337.16 3.432.16 3.432s1.377-.594 2.176.701c.913 1.479-.517 2.772-.517 2.772s1.074-.464 1.718.073c.643.539 1.494 1.87-1.751 5.021-2.642 2.565-7.865 2.802-11.182 11.037l-6.688-4.625Z"/>
  <path fill="url(#e)" d="m428.505 141.504-43.598 64.135-89.491-15.832c-.458 5.366.451 46.282 22.717 46.81 15.842 1.368 73.702 6.182 85.362-2.064 29.905-21.153 33.042-88.803 33.042-88.803l-8.032-4.246Z"/>
  <path fill="#E86B31" d="M364.921 466.628a203.407 203.407 0 0 1-18.666 6.76 166.13 166.13 0 0 1-5.223 1.549 210.444 210.444 0 0 1-44.311 7.447 185.7 185.7 0 0 1-4.969.233c-2.18.088-4.381.132-6.583.143-8.476-44.246-15.921-85.052-20.702-111.551h94.046c4.627 25.327 6.386 59.074 6.408 95.419Z"/>
  <path fill="#E86B31" d="M301.922 371.207c-1.261 24.198-4.061 64.97-10.168 111.406-2.18.088-4.381.132-6.583.143-.431.011-.875.011-1.306.011-.751 0-1.516 0-2.267-.022-1.218 0-2.424-.022-3.63-.055-.11 0-.222-.011-.332-.011a211.038 211.038 0 0 1-51.04-7.768 204.668 204.668 0 0 1-17.725-5.854c-.343-.132-.686-.254-1.017-.397 1.283-37.276 4.337-71.874 10.233-97.455h83.835v.002Z"/>
  <path fill="url(#f)" d="M270.977 190.152c-20.765-2.607-86.394 80.886-86.394 80.886l-45.434-59.891-15.145 11.702s37.141 121.845 66.774 121.845c29.634 0 56.793-45.433 56.793-45.433s52.965-105.401 23.406-109.109Z"/>
  <path fill="#61120A" d="M228.308 310.474c.402-13.62 3.159-27.126 6.932-40.185 1.923-6.656 4.16-13.176 6.822-19.574 2.667-6.415 5.551-12.782 7.511-19.459-.886.361-1.771.722-2.649 1.102-5.814 2.51-11.488 5.377-16.871 8.719-5.597 3.476-11.003 7.511-15.372 12.476-3.923 4.459-7.018 9.803-7.588 15.809-.493 5.188.035 10.448.247 15.638.228 5.517.33 11.16-.957 16.566-1.179 4.95-3.819 9.425-8.34 11.979-3.017 1.703-6.411 2.426-9.859 2.341-2.125-.051-4.239-.346-6.323-.744-1.834-.348-3.596-.73-5.28-1.558-3.376-1.663-6.256-4.136-9.482-6.045-2.51-1.485-5.383-2.491-8.311-1.791a7.53 7.53 0 0 0-1.958.783c10.819 21.235 22.906 38.164 33.95 38.164 14.118 0 27.674-10.314 37.999-21.114-.469-4.349-.599-8.738-.471-13.107Z"/>
  <path fill="url(#g)" d="M213.495 384.62c-13.434-46.088 21.945-196.739 74.821-197.872 55.001-1.179 108.102 168.826 74.217 207.165-23.034 26.065-92.245 11.359-149.038-9.293Z"/>
  <path fill="#61120A" d="M238.693 249.231s20.884.574 27.015-.383c0 0-8.623 5.749-27.015.383Z"/>
  <path fill="#E86B31" d="M241.76 370.7s20.883.575 27.014-.384c0-.001-8.622 5.746-27.014.384Zm76.635 0s20.881.575 27.012-.384c0-.001-8.62 5.746-27.012.384Z"/>
  <path fill="#472E05" d="M312.137 126.071c-.983-6.884-7.7-7.255-7.7-7.255l-25.67 3.478-12.01-3.478s-6.716.369-7.7 7.255c-.983 6.884-.558 29.363 13.735 37.389.271.152 25.359.141 25.61 0 14.292-8.026 14.718-30.505 13.735-37.389Z"/>
  <path fill="#E9A394" d="M268.552 127.482c4.355-7.652 1.276-6.202 20.163-6.477 18.887-.275 19.736 18.786 18.072 29.936-1.573 10.538-6.434 17.624-12.146 21.823l3.045 14.463s-2.383 6.512-12.326 6.103c-10.627-.436-11.315-5.977-11.315-5.977s3.538-9.256 3.373-12.485c-12.114-7.174-14.402-37.658-8.866-47.386Z"/>
  <path fill="#61120A" d="M299.349 157.587c.187 1.377-1.349 2.721-3.43 3.003-2.083.282-3.922-.603-4.109-1.98-.187-1.377 1.35-2.721 3.431-3.003 2.082-.282 3.921.605 4.108 1.98Zm-23.461-.621c.187 1.377-1.349 2.721-3.43 3.003-2.081.284-3.922-.603-4.109-1.98-.187-1.377 1.35-2.721 3.431-3.003 2.082-.282 3.921.605 4.108 1.98Z" opacity=".45"/>
  <path fill="#603D52" d="M277.291 139.994a.582.582 0 0 1-.493-.306c-.088-.167-2.209-3.935-7.779-1.678a.58.58 0 0 1-.753-.319.576.576 0 0 1 .319-.753c6.567-2.662 9.21 2.159 9.236 2.207a.58.58 0 0 1-.53.849Zm11.229.46a.578.578 0 0 1-.513-.808c.022-.052 2.286-5.038 9.847-3.161a.58.58 0 1 1-.279 1.124c-6.573-1.63-8.432 2.332-8.509 2.5a.573.573 0 0 1-.546.345Zm-5.362 16.352a2.197 2.197 0 0 1-.586-.102c-1.216-.396-1.691-1.795-1.711-1.854a.58.58 0 0 1 .075-.513c2.171-3.111 1.766-7.445 1.762-7.488a.578.578 0 1 1 1.151-.117c.021.189.439 4.565-1.782 8.001.156.308.455.74.869.872.389.125.869-.016 1.429-.416a.58.58 0 1 1 .672.943c-.656.465-1.285.693-1.879.674Z"/>
  <path fill="#FCFAF7" d="M277.549 164.701s6.506 3.203 14.014 0c1.578 3.128-10.443 10.245-14.014 0Z"/>
  <path fill="#603D52" d="M275.845 147.14c-.068 1.793-1.098 3.229-2.332 3.183-1.256-.046-2.197-1.524-2.129-3.34.044-1.793 1.098-3.229 2.332-3.183.18 0 .36.046.537.134a2.109 2.109 0 0 0-.157.762c-.044.919.449 1.682 1.076 1.682a.874.874 0 0 0 .583-.224 4.7 4.7 0 0 1 .09.986Zm20.106.631c-.068 1.815-1.121 3.25-2.354 3.204-1.232-.044-2.175-1.547-2.131-3.34.068-1.793 1.121-3.229 2.354-3.183.044 0 .112 0 .158.022-.046.18-.09.382-.09.583-.044.919.449 1.681 1.076 1.681a.871.871 0 0 0 .583-.223.874.874 0 0 0 .202-.202c.136.425.226.941.202 1.458Z"/>
  <path fill="#E9A394" d="M267.428 148.246s-2.942-5.046-4.834-1.472c-1.892 3.573 2.304 10.743 5.038 10.743 2.731.002-.204-9.271-.204-9.271Zm37.731 0s2.942-5.046 4.834-1.472c1.892 3.573-2.304 10.743-5.038 10.743-2.733.002.204-9.271.204-9.271Z"/>
  <path fill="#472E05" d="M292.512 106.69a1551.45 1551.45 0 0 0 8.737 7.568c.272.082.543.163.823.218 2.695.528 6.153.053 7.451 2.966.55 1.232.458 2.497.106 3.79l.008.004s-.009.012-.011.018c-.642 2.343-2.14 4.779-2.307 7.306.065-.965 3.102 3.072 3.273 3.969.517 2.697 1.239 6.842-1.124 8.006-1.375.677-2.341 4.316-4.017 8.631.611-5.479 1.612-8.07-2.09-13.423-2.737 1.71-6.528-.4-7.403-3.925-5.201 2-11.929 2.92-20.289.902-4.631.918-10.342.68-12.786-4.182-.709-1.412-1.005-2.961-1.025-4.562-1.487-2.348-2.642-5.313-3.124-9.075-2.112-16.42 17.358-22.52 33.778-8.211Z"/>
  <path fill="#fff" d="M271.168 127.777s14.069 4.695 27.436-.4c0 0-15.974 8.061-27.436.4Z" opacity=".25"/>
  <path fill="#fff" d="M281.922 126.341s9.066 3.025 17.681-.257c0 0-10.295 5.194-17.681.257Zm-19.281-18.064c-.638-3.559 3.112-8.371 12.178-7.792 9.065.58 22.537 12.832 22.537 12.832s-9.51-7.676-17.989-7.563c-8.477.118-15.765 7.88-16.726 2.523Z" opacity=".25"/>
  <path fill="#EA967D" d="M281.773 146.065a7.185 7.185 0 0 0-.227-.642 11.242 11.242 0 0 0-.378-.83 9.069 9.069 0 0 0-.464-.737 7.822 7.822 0 0 0-3.598-2.853 7.654 7.654 0 0 0-2.872-.548 7.914 7.914 0 0 0-4.071 1.133 8.026 8.026 0 0 0-1.691 1.388 7.596 7.596 0 0 0-1.549 2.446 6.958 6.958 0 0 0-.425 1.54 7.61 7.61 0 0 0-.009 2.673 7.772 7.772 0 0 0 2.2 4.24 7.837 7.837 0 0 0 4.477 2.22 7.753 7.753 0 0 0 3.806-.416c2.984-1.115 5.12-3.995 5.12-7.368a7.995 7.995 0 0 0-.319-2.246Zm-5.318 8.983a6.897 6.897 0 0 1-3.269.275 6.137 6.137 0 0 1-1.852-.548c-.027-.009-.057-.018-.075-.027a6.859 6.859 0 0 1-2.787-2.314 6.856 6.856 0 0 1-1.237-2.994 6.308 6.308 0 0 1-.095-1.124c0-.161.009-.32.029-.473a7.03 7.03 0 0 1 3.192-5.478 7.079 7.079 0 0 1 3.003-1.096 6.56 6.56 0 0 1 .869-.057 7.085 7.085 0 0 1 6.79 5.055c.198.651.303 1.342.303 2.049a7.014 7.014 0 0 1-1.577 4.45 7.017 7.017 0 0 1-3.294 2.282Zm24.748-8.633c-.03-.113-.066-.236-.096-.35a7.185 7.185 0 0 0-.227-.642 7.851 7.851 0 0 0-.953-1.738 7.798 7.798 0 0 0-2.107-1.974 7.743 7.743 0 0 0-1.417-.737 8.043 8.043 0 0 0-2.834-.519 7.837 7.837 0 0 0-5.79 2.55l-.028.03a7.694 7.694 0 0 0-1.492 2.39 7.896 7.896 0 0 0-.434 4.213 7.864 7.864 0 0 0 7.745 6.536c1.645 0 3.174-.5 4.43-1.369a7.86 7.86 0 0 0 3.428-6.49 7.82 7.82 0 0 0-.225-1.9Zm-3.222 7.453a7.046 7.046 0 0 1-4.411 1.54 6.98 6.98 0 0 1-2.909-.633c-.009-.009-.018-.009-.028-.009a7.044 7.044 0 0 1-4.06-5.328 7.019 7.019 0 0 1 .518-4.015 7.1 7.1 0 0 1 6.479-4.213c1.606 0 3.08.53 4.261 1.436a6.88 6.88 0 0 1 2.22 2.777c.123.274.228.549.312.842.198.651.302 1.342.302 2.05a7.038 7.038 0 0 1-1.54 4.411 6.508 6.508 0 0 1-1.144 1.142Z" opacity=".55"/>
  <path fill="#fff" d="m307.129 143.63-6.043.054a7.962 7.962 0 0 0-2.473-2.767 7.776 7.776 0 0 0-4.459-1.388 7.871 7.871 0 0 0-6.789 3.898h-5.758a7.876 7.876 0 0 0-10.87-2.765 8.053 8.053 0 0 0-2.853 3.023v.002l-2.429.114v2.726l1.569-.114v.002c-.018.075-.018.141-.027.217-.028.245-.039.5-.039.755 0 .785.114 1.531.321 2.248a7.865 7.865 0 0 0 2.087 3.4 7.852 7.852 0 0 0 2.682 1.711c.018.009.047.018.075.027a7.968 7.968 0 0 0 2.693.473 8.17 8.17 0 0 0 2.314-.339 7.907 7.907 0 0 0 3.41-2.145 7.79 7.79 0 0 0 2.02-6.697c-.038-.216-.075-.434-.132-.642a7.4 7.4 0 0 0-.264-.828h4.637a7.833 7.833 0 0 0-.51 2.794c0 .784.114 1.531.321 2.247a7.922 7.922 0 0 0 4.809 5.13c.009 0 .018 0 .027.009a7.946 7.946 0 0 0 2.702.473 7.86 7.86 0 0 0 4.619-1.492 8.481 8.481 0 0 0 1.142-1.03 7.791 7.791 0 0 0 2.031-6.311v-.002h4.792l.395-2.783Zm-30.516 10.615a6.614 6.614 0 0 1-2.616.18 7.04 7.04 0 0 1-4.912-2.862 6.893 6.893 0 0 1-1.058-2.125 6.692 6.692 0 0 1-.293-1.908c-.009-.048-.009-.095-.009-.141 0-.68.095-1.342.284-1.966a6.693 6.693 0 0 1 1.256-2.445 6.907 6.907 0 0 1 1.663-1.531 6.958 6.958 0 0 1 3.23-1.124c.218-.027.434-.038.662-.038a6.86 6.86 0 0 1 3.08.718 7.038 7.038 0 0 1 3.731 4.42c.084.274.15.558.188.842.066.368.096.737.096 1.124a7.089 7.089 0 0 1-5.302 6.856Zm22.141-1.453a7.055 7.055 0 0 1-4.6 1.69 7.087 7.087 0 0 1-7.093-7.093c0-.68.095-1.342.284-1.966a7.074 7.074 0 0 1 1.199-2.39l.028-.03a7.076 7.076 0 0 1 5.582-2.72c1.096 0 2.125.245 3.042.689.509.237.991.539 1.426.897a6.992 6.992 0 0 1 2.343 3.551c.084.273.15.557.189.841.066.369.095.737.095 1.124a7.08 7.08 0 0 1-2.495 5.407Z"/>
  <path fill="#61120A" d="M277.668 175.184s6.902 3.703 14.982-.504c0 0-5.386 15.15-14.982.504Z" opacity=".39"/>
  <path fill="#fff" d="m274.652 185.147 10.406 8.908 11.723-11.02 3.558 3.67-3.85 119.365-25.335-116.932 3.498-3.991Z"/>
  <path fill="#E86B31" d="m282.567 192.777 7.726-.959 3.322 2.811-1.916 5.812 12.454 69.355-7.92 36.785-17.626-39.084 5.876-67.311-2.874-3.449.958-3.96Z"/>
  <path fill="#E86B31" d="M297.882 234.873c-1.109 3.183-2.338 6.318-3.551 9.378-3.315 8.365-7.073 16.544-10.577 24.828a315.92 315.92 0 0 1-2.178 5.007l14.656 32.498 7.918-36.786-6.268-34.925Z" opacity=".1"/>
  <path fill="#61120A" d="M299.682 186.137c-6.193 5.619-2.68 120.444-2.68 120.444l17.754-37.042-7.663-29.121 6.897-18.775c0 .002-7.473-33.145-14.308-35.506Z"/>
  <path fill="#61120A" d="M271.264 189.072c11.495 9.006 25.865 118.402 25.865 118.402l-24.906-34.868 1.149-34.102-9.962-17.627s4.404-31.229 7.854-31.805Z"/>
  <path fill="#61120A" d="m297.057 306.051 1.167 92.722s4.105-31.37 2.736-52.4c-1.368-21.03-3.903-40.322-3.903-40.322Zm-7.209-5.665a3.065 3.065 0 1 1-6.129 0 3.063 3.063 0 1 1 6.129 0Zm0 32.379a3.064 3.064 0 1 1-6.129.001 3.064 3.064 0 0 1 6.129-.001Zm1.406 34.037a3.067 3.067 0 0 1-6.133 0 3.066 3.066 0 0 1 3.067-3.064 3.063 3.063 0 0 1 3.066 3.064Z"/>
  <path fill="#E86B31" d="m130.115 200.88-6.085 8.054 2 3.674-6.985 8.269s-6.367.1-5.417 4.497c.949 4.396 9.986 7.23 9.986 7.23s22.719-27.289 21.932-29.63c-.786-2.339-15.431-2.094-15.431-2.094Z"/>
  <path fill="url(#h)" d="M126.324 213.641s.539 1.026-.376 1.873-1.621.503-1.621.503-.103.557-.715 1.666-1.613.614-1.613.614-.554.572-.625.884c-.07.312-.046 1.787-.855 1.74-.808-.048-1.199-.358-1.199-.358l2.935-3.492 2.684-3.155 1.385-.275Z"/>
  <path fill="#fff" d="m133.005 201.015-6.453 8.49 2.123 3.876-7.41 8.718s-6.758.104-5.748 4.741c1.01 4.636 10.598 7.628 10.598 7.628s9.536-20.057 23.266-31.24c-.835-2.468-16.376-2.213-16.376-2.213Z"/>
  <path fill="url(#i)" d="M130.133 224.145a45.85 45.85 0 0 1 3.074-5.291c1.157-1.731 2.382-3.414 3.537-5.145.429-.643.871-1.281 1.228-1.969.359-.691.667-1.461.651-2.253-.031-1.435-1.19-2.288-2.361-2.876-1.225-.615-2.538-.998-3.797-1.526-.655-.275-1.331-.489-2-.728l2.541-3.342s15.541-.255 16.375 2.213c-10.929 8.901-19.199 23.423-22.119 28.98a36.974 36.974 0 0 1 2.871-8.063Z"/>
  <path fill="#E86B31" d="M124.332 215.464c.438.323 1.175.07 1.645-.568.471-.638.496-1.416.056-1.74-.438-.323-1.175-.07-1.644.568-.469.638-.495 1.417-.057 1.74Zm-2.269 2.465c.438.324 1.175.069 1.646-.569.471-.638.495-1.417.057-1.739-.438-.323-1.175-.07-1.647.568-.469.638-.495 1.417-.056 1.74Zm-2.27 2.464c.438.324 1.175.069 1.646-.569.47-.638.495-1.417.057-1.74-.438-.324-1.175-.069-1.646.569-.469.636-.495 1.415-.057 1.74Z"/>
  <path fill="url(#j)" d="m144.751 204.105-4.863.054s-15.263 23.358-19.615 24.064c-4.353.708 1.892 6.026 4.031 4.501 2.138-1.526 12.06-24.22 20.447-28.619Z"/>
  <path fill="url(#k)" d="m126.552 209.504-2.521-.576s3.036-.887 4.397-3.122c1.36-2.235 2.845-4.285 2.845-4.285l.871.67-5.592 7.313Z"/>
  <path fill="#fff" d="M125.606 213.296c-.15-.304-.889.054-1.115.769-.225.715-.167 1.503.288 1.303.457-.2-.139-.656.143-1.133.284-.477.812-.68.684-.939Zm-2.534 2.638c-.126-.257-.753.045-.944.652-.19.607-.143 1.274.244 1.106.387-.169-.119-.556.121-.961.24-.405.689-.576.579-.797Zm-2.18 2.468c-.127-.256-.754.046-.945.653-.192.607-.143 1.274.244 1.105.387-.168-.119-.555.121-.96.24-.405.69-.578.58-.798Z" opacity=".26"/>
  <path fill="#E86B31" d="M157.48 194.325c-.882 3.984-.073 7.55 1.804 7.966 1.877.416 4.116-2.477 4.998-6.459.881-3.984.073-7.55-1.804-7.966-1.88-.416-4.116 2.475-4.998 6.459Z"/>
  <path fill="#E86B31" d="M157.48 194.325c-.882 3.984-.073 7.55 1.804 7.966 1.877.416 4.116-2.477 4.998-6.459.881-3.984.073-7.55-1.804-7.966-1.88-.416-4.116 2.475-4.998 6.459Z"/>
  <path fill="#E86B31" d="M153.936 193.541c-1.336 6.037-.667 11.321 1.494 11.799 2.162.479 4.996-4.029 6.333-10.067 1.336-6.037.669-11.319-1.493-11.799-2.161-.477-4.997 4.03-6.334 10.067Z"/>
  <path fill="#E86B31" d="M153.936 193.541c-1.336 6.037-.667 11.321 1.494 11.799 2.162.479 4.996-4.029 6.333-10.067 1.336-6.037.669-11.319-1.493-11.799-2.161-.477-4.997 4.03-6.334 10.067Z"/>
  <path fill="#fff" d="M150.776 192.842c-1.706 7.711-1.338 14.349.824 14.828 2.161.478 5.296-5.385 7.003-13.096 1.707-7.711 1.338-14.349-.821-14.828-2.164-.478-5.299 5.385-7.006 13.096Z"/>
  <path fill="#E86B31" d="m157.779 179.745-29.241-6.472-6.181 27.924 29.242 6.472s9.609-15.213 6.18-27.924Z"/>
  <path fill="#E86B31" d="M121.534 186.369c-1.707 7.711-1.338 14.349.823 14.828 2.162.478 5.297-5.385 7.004-13.096 1.707-7.711 1.338-14.349-.823-14.828-2.16-.478-5.297 5.385-7.004 13.096Z"/>
  <path fill="#E86B31" d="M121.534 186.369c-1.707 7.711-1.338 14.349.823 14.828 2.162.478 5.297-5.385 7.004-13.096 1.707-7.711 1.338-14.349-.823-14.828-2.16-.478-5.297 5.385-7.004 13.096Z"/>
  <path fill="#fff" d="M91.224 147.42c15.369 16.297 36.643 26.717 36.643 26.717l-.021.103c1.495.653 1.489 6.584-.047 13.515-1.579 7.128-4.175 12.617-5.799 12.258a.688.688 0 0 1-.216-.092c-3.099.101-24.84 1.069-44.118 8.747-20.81 8.291-26.271 7.68-26.271 7.68l9.056-40.92 1.137-5.137 9.056-40.92c.004.002 5.213 1.753 20.58 18.049Z"/>
  <path fill="#E86B31" d="M101.102 197.885c3.688-.143 7.414.262 11.08-.281 3.412-.504 6.905-1.61 9.446-4.041 2.493-2.385 4.022-5.597 5.348-8.73.405-.957.782-1.903 1.035-2.915.255-1.01.413-2.04.538-3.073.099-.817.181-1.637.275-2.454.35 2.449.012 6.675-1.025 11.361-1.579 7.128-4.175 12.617-5.799 12.257a.71.71 0 0 1-.216-.091c-3.099.101-24.84 1.069-44.118 8.747-20.81 8.29-26.271 7.679-26.271 7.679s30.103-17.699 49.707-18.459Z" opacity=".25"/>
  <path fill="url(#l)" d="m79.537 149.439.317 11.677s14.027 10.29 39.052 14.586c0-.002-28.616-12.415-39.369-26.263Z"/>
  <path fill="#E86B31" d="m68.129 203.479 5.216-10.452s17.059-3.408 41.558 3.258c0-.002-31.182-.823-46.774 7.194Z" opacity=".25"/>
  <path fill="#E86B31" d="M44.628 169.208c-5.313 24.006-2.102 45.131 7.172 47.185 9.275 2.053 21.102-15.745 26.415-39.751 5.313-24.005 2.103-45.131-7.172-47.184-9.275-2.052-21.102 15.745-26.415 39.75Z"/>
  <path fill="#E86B31" d="M46.47 169.614c-5.033 22.745-2.599 42.625 5.44 44.406 8.038 1.778 18.636-15.217 23.67-37.961 5.035-22.745 2.6-42.627-5.439-44.406-8.037-1.78-18.634 15.217-23.67 37.961Z"/>
  <path fill="url(#m)" d="M53.377 148.574a138.87 138.87 0 0 0-1.35 5.509c-1.066 4.8-1.772 9.657-2.278 14.546-.367 3.546-.61 7.115-.486 10.679.12 3.412.572 6.866 1.753 10.084 1.122 3.054 2.946 5.837 5.522 7.859 2.865 2.251 6.46 3.474 10.04 4.055-4.723 8.692-10.106 13.725-14.664 12.715-8.039-1.781-10.474-21.659-5.44-44.406 1.744-7.885 4.159-15.081 6.903-21.041Z"/>
  <path fill="#fff" d="m59.3 166.096-2.743 12.391 16.953 5.601a118.06 118.06 0 0 0 2.071-8.026 116.768 116.768 0 0 0 1.505-8.133L59.3 166.096Z"/>
  <path fill="#fff" d="m59.3 166.096-2.743 12.391 16.953 5.601a118.06 118.06 0 0 0 2.071-8.026 116.768 116.768 0 0 0 1.505-8.133L59.3 166.096Z"/>
  <path fill="#fff" d="m59.3 166.096-2.743 12.391 16.953 5.601a118.06 118.06 0 0 0 2.071-8.026 116.768 116.768 0 0 0 1.505-8.133L59.3 166.096Z"/>
  <path fill="#E86B31" d="M54.525 171.535c-.757 3.421.15 6.532 2.03 6.948 1.879.416 4.014-2.02 4.772-5.441.757-3.421-.153-6.532-2.03-6.948-1.88-.418-4.015 2.02-4.772 5.441Z"/>
  <path fill="#E86B31" d="M55.663 171.787c-.586 2.651-.05 5.023 1.201 5.3 1.25.277 2.74-1.648 3.326-4.297.587-2.651.05-5.024-1.201-5.301-1.25-.276-2.739 1.649-3.326 4.298Z"/>
  <path fill="#E9A394" d="M117.924 206.183s.986-.566 3.362-1.785c2.376-1.221 4.463-1.817 5.643-1.084 1.181.734-.44 3.445-3.329 5.607-2.89 2.161-5.515-.67-5.676-2.738Z"/>
  <path fill="#E9A394" d="M117.923 206.186s18.513 4.504 18.066 8.046c-.209 1.656-6.589.684-11.524-.317 5.991 1.445 11.049 3.377 9.993 4.998-.812 1.246-6.239.35-11.189-.45 3.344.858 10.166 2.826 9.728 4.267-.744 2.445-7.618.793-12.234-.422 2.699.911 9.643 3.219 9.257 4.543-.343 1.171-1.999 1.815-7.798.264-3.384-.906-3.45-.227-4.907-.942-1.126-.55-2.353-.996-3.04-1.887-3.32-4.283.739-17.486 3.648-18.1Z"/>
  <path fill="#fff" d="M129.495 226.918c.075-.643-1.735-1.602-1.958-1.549 0 0-.497 1.588-.459 1.896.037.31 2.343.297 2.417-.347Zm3.021-4.043c.075-.643-1.734-1.602-1.96-1.549 0 0-.497 1.588-.458 1.896.04.31 2.345.295 2.418-.347Zm1.516-4.539c.075-.643-1.735-1.602-1.958-1.549 0 0-.497 1.588-.459 1.896.037.312 2.342.297 2.417-.347Zm1.383-4.488c.075-.643-1.735-1.602-1.958-1.547 0 0-.497 1.588-.459 1.896.039.308 2.343.295 2.417-.349Z" opacity=".2"/>
  <path fill="#E86B31" d="m121.478 222.542-5.548-2.686s-1.793 1.54-.7 3.931c0 0-2.613-2.252-.587-8.984s3.052-7.373 3.052-7.373-.617 2.097.464 3.699c.24.358 6.221 2.736 5.838 2.629-.384-.106-5.986-1.382-5.986-1.382l-.836 2.856 5.348 2.908-5.75-1.802-.614 2.464 5.319 3.74Z" opacity=".1"/>
  <path fill="url(#n)" d="m154.565 181.743-22.361-4.708c-.392 1.177-.706 3.609 1.177 3.923 18.83 3.138 14.907 23.93 20.007 16.084 4.08-6.276 2.484-12.815 1.177-15.299Z"/>
  <path fill="#E86B31" d="M359.993 411.97c12.452 20.174 9.543 25.369 6.443 34.934-3.038 9.35 17.448 16.227 5.459 35.126l4.466 1.058s31.125 1.689 31.119-14.283c0-15.97-26.68-3.579-24.531-14.419 2.141-10.843 20.225-20.642 15.664-28.023-4.554-7.386-12.399 11.563-20.33 4.215-7.924-7.352 10.594-17.237 10.464-27.355-.123-10.117-9.036-.877-21.719.324-11.682 1.109 1.577-25.567-7.85-24.502-3.533 6.781-7.563 19.351.815 32.925Z"/>
  <path fill="#E86B31" d="M342.811 430.384c.833 10.708 24.587 22.214 12.801 27.619-11.79 5.405-5.52 18.869-5.52 18.869l21.802 5.159c11.99-18.9-8.498-25.777-5.46-35.127 3.102-9.566 6.011-14.76-6.442-34.934-8.379-13.574-4.349-26.145-.816-32.925-.812.092-1.791.39-2.961.926-14.848 6.785-3.889 29.76-1.789 35.092 2.099 5.331-12.441 4.62-11.615 15.321Zm46.695-11.629c1.294 3.251-1.236 8.183-2.219 9.902.105 1.537.206 4.331-.207 6.25a25.62 25.62 0 0 1 5.111-3.384 24.733 24.733 0 0 0 4.498-2.866c1.136-1.529 2.201-2.722 3.672-3.784a20.222 20.222 0 0 0 3.866-9.654c-1.573-2.011-2.541-3.687-3.091-6.675-.618-3.364 6.058-5.328 7.066-1.626.922 3.389-2.647 8.167-3.26 8.952a21.077 21.077 0 0 1-2.891 7.94c.308-.169.62-.336.964-.502 3.451-1.661 7.541 4.97 3.841 7.15-3.085 1.818-8.527-.054-10.25-.726a25.873 25.873 0 0 1-4.059 2.502c-5.742 2.864-9.586 7.647-12.094 12.106 1.125-.332 2.607-.321 3.793-.264 2.57-1.727 4.55-2.734 8.116-3.091 3.81-.382 5.388 7.247 1.166 8.031-3.489.649-7.905-2.891-9.339-4.143-1.445-.066-3.447-.073-4.281.587-.022.018-.051.018-.077.031-2.677 5.152-3.579 9.59-3.595 9.674a.399.399 0 1 1-.783-.152c.026-.135 2.261-11.212 10.292-18.916.011-.013.015-.029.028-.042.834-.851.898-4.481.728-7.2-2.213-2.202-3.603-3.956-4.65-7.401-1.111-3.661 6.067-6.688 7.655-2.699Zm21.715 18.993c.758 3.155-2.218 7.346-3.347 8.795-.108 1.424-.387 4.002-1.02 5.707a23.752 23.752 0 0 1 5.141-2.429 23.455 23.455 0 0 0 2.869-1.165c-1.51-2.077-2.444-3.844-2.909-6.895-.536-3.509 6.453-5.337 7.383-1.465.495 2.068-.609 4.573-1.748 6.465.862-.768 1.737-1.412 2.787-1.962a18.716 18.716 0 0 0 4.827-8.349c-1.177-2.055-1.844-3.72-1.952-6.536-.123-3.17 6.266-4.086 6.701-.555.397 3.232-3.513 7.144-4.179 7.784a19.557 19.557 0 0 1-3.705 6.904c.305-.113.614-.227.952-.333 3.386-1.067 6.262 5.56 2.577 7.071-3.072 1.259-7.819-1.179-9.311-2.024a24.081 24.081 0 0 1-4.057 1.76c-.394.13-.781.273-1.161.422 1.15-.259 2.395-.367 3.931-.301 3.547.154 3.986 7.366.005 7.526-3.199.13-6.675-3.493-7.918-4.921 0 0-2.345.46-7.562 6.782 1.076-.154 2.434.051 3.516.26 2.589-1.245 4.539-1.907 7.858-1.762 3.547.154 3.985 7.366.007 7.526-3.287.132-6.873-3.702-8.023-5.042-1.318-.253-3.153-.524-4.007-.027-.024.013-.05.011-.075.018-3.141 4.374-4.554 8.327-4.582 8.404a.37.37 0 0 1-.554.187.37.37 0 0 1-.146-.431c.042-.121 3.56-9.991 11.953-15.997.011-.011.018-.026.031-.035.878-.671 1.419-3.993 1.623-6.51-1.738-2.316-2.781-4.109-3.286-7.411-.537-3.507 6.452-5.335 7.381-1.461Zm-115.034 46.423c-.287.431-45.851 0-45.851 0s-7.922-9.643 5.412-16.676c7.54-3.976-5.606-11.31-1.503-19.074 4.103-7.766 12.536 2.198 16.085-4.688 3.55-6.886 11.022-22.418 14.099-12.747 3.076 9.671-11.87 15.679-2.052 22.858 9.817 7.179 21.978 10.842 9.964 13.481-12.017 2.632 10.292 7.203 3.846 16.846Z"/>
  <path fill="#E86B31" d="M234.706 414.036c12.452 20.174 9.543 25.37 6.443 34.934-3.038 9.35 17.449 16.227 5.459 35.127l4.466 1.058s31.125 1.688 31.119-14.284c0-15.97-26.68-3.579-24.532-14.419 2.142-10.842 20.226-20.642 15.664-28.023-4.554-7.386-12.398 11.563-20.329 4.215-7.924-7.351 10.594-17.237 10.464-27.355-.123-10.116-9.036-.876-21.719.325-11.682 1.109 1.576-25.568-7.851-24.503-3.532 6.78-7.562 19.351.816 32.925Z"/>
  <path fill="#E86B31" d="M217.524 432.448c.833 10.709 24.587 22.215 12.801 27.621-11.791 5.405-5.521 18.869-5.521 18.869l21.802 5.159c11.99-18.9-8.497-25.777-5.459-35.127 3.102-9.566 6.011-14.76-6.443-34.934-8.378-13.574-4.348-26.145-.815-32.925-.813.092-1.792.391-2.961.926-14.848 6.785-3.889 29.761-1.79 35.092 2.1 5.329-12.441 4.618-11.614 15.319Z"/>
  <path fill="#E86B31" d="M244.601 428.046c1.295 3.251-1.235 8.183-2.218 9.902.103 1.537.205 4.33-.207 6.25a25.62 25.62 0 0 1 5.111-3.384 24.723 24.723 0 0 0 4.497-2.866c1.137-1.529 2.202-2.722 3.672-3.786a20.225 20.225 0 0 0 3.867-9.654c-1.573-2.011-2.541-3.687-3.091-6.675-.618-3.364 6.057-5.328 7.066-1.626.922 3.39-2.648 8.167-3.26 8.952a21.077 21.077 0 0 1-2.891 7.94c.308-.169.619-.336.964-.502 3.45-1.661 7.541 4.97 3.841 7.15-3.086 1.818-8.527-.054-10.25-.726a25.966 25.966 0 0 1-4.059 2.502c-5.742 2.864-9.589 7.647-12.095 12.106 1.126-.332 2.607-.321 3.793-.264 2.571-1.727 4.551-2.734 8.117-3.091 3.809-.382 5.388 7.247 1.166 8.031-3.489.649-7.906-2.891-9.339-4.143-1.445-.066-3.447-.073-4.281.587-.022.018-.052.018-.077.031-2.677 5.152-3.579 9.59-3.595 9.674a.4.4 0 0 1-.561.287.398.398 0 0 1-.222-.437c.025-.135 2.26-11.213 10.292-18.916.011-.013.015-.03.028-.042.834-.851.898-4.481.727-7.2-2.212-2.202-3.602-3.956-4.649-7.401-1.113-3.661 6.067-6.688 7.654-2.699Zm47.581 19.407c.757 3.155-2.219 7.346-3.348 8.795-.108 1.424-.385 4.002-1.019 5.707a23.814 23.814 0 0 1 5.14-2.429 23.533 23.533 0 0 0 2.868-1.164c-1.511-2.078-2.444-3.845-2.91-6.896-.535-3.509 6.454-5.336 7.383-1.464.495 2.068-.609 4.572-1.747 6.464.862-.768 1.736-1.412 2.787-1.962a18.716 18.716 0 0 0 4.827-8.349c-1.177-2.055-1.845-3.72-1.953-6.536-.123-3.169 6.267-4.086 6.701-.555.398 3.232-3.513 7.146-4.178 7.786a19.534 19.534 0 0 1-3.707 6.904c.304-.113.614-.227.951-.333 3.387-1.067 6.263 5.56 2.578 7.071-3.073 1.259-7.819-1.179-9.311-2.024a24.057 24.057 0 0 1-4.058 1.76c-.394.13-.781.273-1.16.422 1.149-.259 2.394-.367 3.931-.301 3.547.154 3.985 7.366.005 7.526-3.199.13-6.675-3.493-7.918-4.921 0 0-2.345.46-7.563 6.78 1.077-.154 2.435.051 3.517.26 2.588-1.245 4.539-1.907 7.857-1.762 3.548.154 3.986 7.367.008 7.526-3.287.132-6.873-3.701-8.023-5.042-1.318-.251-3.153-.524-4.008-.027-.023.015-.049.011-.075.018-3.14 4.375-4.554 8.327-4.581 8.404a.37.37 0 0 1-.701-.244c.043-.121 3.561-9.991 11.954-15.997.011-.011.018-.026.031-.035.878-.671 1.417-3.993 1.622-6.51-1.738-2.316-2.781-4.109-3.285-7.411-.533-3.507 6.455-5.335 7.385-1.461Z"/>
  <path fill="#691109" d="M170.9 486.236c-.287.43-45.851 0-45.851 0s-7.922-9.644 5.412-16.676c7.54-3.977-5.607-11.31-1.504-19.074 4.103-7.766 12.537 2.198 16.086-4.688 3.549-6.886 11.022-22.418 14.098-12.747 3.077 9.67-11.869 15.678-2.051 22.858 9.817 7.179 21.978 10.842 9.964 13.48-12.017 2.635 10.292 7.203 3.846 16.847Z"/>
  <path fill="#fff" d="M326.686 218.426a2.068 2.068 0 0 0-2.057 2.073l.713 172.854a2.069 2.069 0 0 0 2.074 2.057l124.085-.511a2.068 2.068 0 0 0 2.057-2.074l-.713-172.854a2.07 2.07 0 0 0-2.074-2.057l-124.085.512Z"/>
  <path fill="#E86B31" d="m351.099 289.955-7.453.031a1.971 1.971 0 1 1-.016-3.943l7.452-.031a1.969 1.969 0 0 1 1.978 1.963 1.968 1.968 0 0 1-1.961 1.98Zm39.001 9.281-46.415.191a1.972 1.972 0 1 1-.016-3.943l46.414-.191a1.971 1.971 0 1 1 .017 3.943Zm-17.222 19.683 17.301-.071a1.971 1.971 0 1 1 .016 3.943l-17.301.072a1.971 1.971 0 0 1-1.978-1.964 1.969 1.969 0 0 1 1.962-1.98Zm-29.112.121 16.935-.069a1.971 1.971 0 1 1 .016 3.943l-16.934.07a1.973 1.973 0 0 1-.017-3.944Zm-.039-9.441 46.415-.191a1.973 1.973 0 0 1 .016 3.944l-46.414.19a1.97 1.97 0 1 1-.017-3.943Zm0 31.295 46.415-.191a1.972 1.972 0 0 1 .016 3.944l-46.414.19a1.97 1.97 0 1 1-.017-3.943Zm0 19.787 46.415-.191a1.973 1.973 0 0 1 .016 3.944l-46.414.19a1.97 1.97 0 1 1-.017-3.943Zm17.417-22.997-17.301.071a1.971 1.971 0 1 1-.016-3.943l17.301-.072a1.971 1.971 0 0 1 1.978 1.964 1.968 1.968 0 0 1-1.962 1.98Zm0 34.381-17.301.071a1.97 1.97 0 1 1-.016-3.943l17.301-.072a1.97 1.97 0 0 1 1.978 1.964 1.969 1.969 0 0 1-1.962 1.98Zm-.298-142.924c3.385 0 5.125 1.518 5.125 4.176v.522h-3.289v-.689c0-1.186-.633-1.637-1.74-1.637-1.108 0-1.74.451-1.74 1.637 0 3.417 6.802 4.057 6.802 8.804 0 2.658-1.771 4.176-5.189 4.176-3.415 0-5.188-1.518-5.188-4.176v-1.021h3.291v1.186c0 1.186.696 1.613 1.804 1.613 1.107 0 1.802-.427 1.802-1.613 0-3.418-6.802-4.057-6.802-8.804-.002-2.655 1.738-4.174 5.124-4.174Zm20.782 16.801h-3.511l-.601-3.014h-4.272l-.601 3.014h-3.196l3.544-16.612h5.093l3.544 16.612Zm-7.94-5.267h3.353l-1.676-8.401-1.677 8.401Zm11.927-11.345h3.48v14.238h5.725v2.372h-9.207v-16.61h.002Zm16.576 7.001h4.777v2.373h-4.777v4.864h6.011v2.372h-9.491v-16.612h9.491v2.372h-6.011v4.631Zm15.216-7.19c3.384 0 5.124 1.518 5.124 4.176v.522h-3.289v-.689c0-1.186-.632-1.637-1.74-1.637-1.107 0-1.74.451-1.74 1.637 0 3.417 6.802 4.057 6.802 8.804 0 2.658-1.771 4.176-5.188 4.176-3.416 0-5.188-1.518-5.188-4.176v-1.021h3.29v1.186c0 1.186.697 1.613 1.804 1.613 1.108 0 1.802-.427 1.802-1.613 0-3.418-6.801-4.057-6.801-8.804-.002-2.655 1.738-4.174 5.124-4.174Zm-62.681 37.524c-.191-.428-.317-.688-.317-2.041v-2.611c0-1.541-.697-2.112-2.277-2.112h-1.203v6.764h-3.48v-16.612h5.253c3.606 0 5.157 1.257 5.157 3.82v1.306c0 1.708-.728 2.823-2.277 3.369 1.74.547 2.31 1.804 2.31 3.537v2.563c0 .807.031 1.401.379 2.017h-3.545Zm-3.797-14.238v5.102h1.36c1.296 0 2.088-.427 2.088-1.756v-1.637c0-1.187-.537-1.709-1.771-1.709h-1.677Zm15.09 4.627h4.777v2.374h-4.777v4.864h6.011v2.373h-9.491v-16.612h9.491v2.372h-6.011v4.629Zm20.846-2.895v2.16c0 2.658-1.708 4.105-5.188 4.105h-1.645v6.241h-3.479v-16.612h5.126c3.478.002 5.186 1.448 5.186 4.106Zm-6.834-1.732v5.625h1.644c1.107 0 1.709-.38 1.709-1.566v-2.492c0-1.186-.602-1.565-1.709-1.565h-1.644v-.002Zm10.692 1.611c0-2.659 1.866-4.177 5.283-4.177 3.416 0 5.284 1.518 5.284 4.177v8.636c0 2.659-1.866 4.177-5.284 4.177-3.417 0-5.283-1.518-5.283-4.177v-8.636Zm3.479 8.803c0 1.186.697 1.637 1.804 1.637 1.108 0 1.803-.451 1.803-1.637v-8.97c0-1.186-.697-1.637-1.803-1.637-1.107 0-1.804.451-1.804 1.637v8.97Zm18.981 3.824c-.191-.428-.317-.688-.317-2.041v-2.611c0-1.541-.697-2.112-2.277-2.112h-1.203v6.764h-3.48v-16.612h5.253c3.606 0 5.157 1.257 5.157 3.82v1.306c0 1.708-.728 2.823-2.277 3.369 1.74.547 2.31 1.804 2.31 3.537v2.563c0 .807.031 1.401.379 2.017h-3.545Zm-3.797-14.238v5.102h1.36c1.296 0 2.088-.427 2.088-1.756v-1.637c0-1.187-.537-1.709-1.771-1.709h-1.677Zm10.596-2.374h10.757v2.372h-3.638v14.238h-3.479v-14.238h-3.638v-2.372h-.002Zm19.073 47.541c-.251 7.387-6.446 13.171-13.831 12.918-7.386-.253-13.17-6.446-12.917-13.832.253-7.387 6.446-13.171 13.832-12.918 7.385.253 13.167 6.446 12.916 13.832Z"/>
  <path fill="#fff" d="M437.875 297.554c-.231 6.734-5.876 12.009-12.612 11.778-6.736-.231-12.008-5.876-11.777-12.612.231-6.734 5.876-12.008 12.611-11.777 6.734.231 12.009 5.876 11.778 12.611Z"/>
  <path fill="#fff" d="M417.665 291.312c.662-1.062 1.177-2.127 2.151-2.961.953-.818 2.077-1.355 3.258-1.764 1.736-.601 3.547-.878 5.32-1.322a12.12 12.12 0 0 0-2.297-.322c-5.306-.182-9.922 3.06-11.761 7.733 1.201.284 2.552-.118 3.329-1.364Z"/>
  <path fill="#E86B31" d="M433.225 289.251c-.612.755.059 2.319.332 3.089.365 1.028.869 2.015 1.155 3.071.726 2.676 1.03 6.068-.906 8.318-.614.713-1.435 1.164-2.117 1.798-.589.548-1.089 1.181-1.714 1.694-1.282 1.049-2.86 1.48-4.499 1.283-1.606-.192-4.338-1.4-6.353-1.089a12.119 12.119 0 0 0 6.14 1.918c6.734.231 12.38-5.043 12.611-11.777a12.167 12.167 0 0 0-3.344-8.811c-.502-.031-.973.095-1.305.506Z" opacity=".1"/>
  <path fill="#E86B31" d="M429.695 301.519c-.672.638-1.628 1.029-2.867 1.173l-.062 1.819-1.966-.068.059-1.752a10.34 10.34 0 0 1-2.31-.497c-.724-.25-1.322-.547-1.789-.889l1.146-2.354a6.952 6.952 0 0 0 1.756.88 6.771 6.771 0 0 0 1.987.379c1.245.042 1.878-.247 1.9-.871.011-.328-.158-.575-.508-.746-.35-.17-.915-.357-1.694-.559-.856-.215-1.57-.44-2.142-.671a3.635 3.635 0 0 1-1.455-1.074c-.398-.484-.585-1.124-.558-1.922.033-.938.398-1.732 1.099-2.381.7-.647 1.69-1.027 2.973-1.137l.063-1.8 1.965.066-.061 1.769a9.418 9.418 0 0 1 1.782.389 6.547 6.547 0 0 1 1.511.691l-1.082 2.374c-1.072-.627-2.121-.959-3.147-.994-.644-.022-1.117.059-1.419.239-.301.181-.457.423-.468.729-.011.306.156.541.501.706.344.165.9.343 1.67.534.867.214 1.584.438 2.15.671a3.752 3.752 0 0 1 1.456 1.065c.405.478.592 1.116.566 1.914-.031.907-.383 1.679-1.056 2.317Zm9.36 27.706c-.251 7.387-6.446 13.171-13.831 12.918-7.386-.253-13.17-6.446-12.917-13.833.253-7.386 6.446-13.17 13.832-12.917 7.385.253 13.167 6.448 12.916 13.832Z"/>
  <path fill="#fff" d="M437.875 329.183c-.231 6.736-5.876 12.009-12.612 11.778-6.736-.231-12.008-5.876-11.777-12.612.231-6.734 5.876-12.008 12.611-11.777 6.734.231 12.009 5.877 11.778 12.611Z"/>
  <path fill="#fff" d="M417.665 322.945c.662-1.062 1.177-2.127 2.151-2.961.953-.818 2.077-1.355 3.258-1.764 1.736-.601 3.547-.878 5.32-1.322a11.962 11.962 0 0 0-2.297-.322c-5.306-.182-9.922 3.059-11.761 7.733 1.201.286 2.552-.116 3.329-1.364Z"/>
  <path fill="#E86B31" d="M433.225 320.881c-.612.756.059 2.319.332 3.089.365 1.029.869 2.015 1.155 3.071.726 2.677 1.03 6.069-.906 8.318-.614.713-1.435 1.164-2.117 1.798-.589.549-1.089 1.181-1.714 1.695-1.282 1.048-2.86 1.479-4.499 1.283-1.606-.193-4.338-1.401-6.353-1.089a12.127 12.127 0 0 0 6.14 1.917c6.734.231 12.38-5.043 12.611-11.777a12.167 12.167 0 0 0-3.344-8.811c-.502-.029-.973.096-1.305.506Z" opacity=".1"/>
  <path fill="#E86B31" d="M429.695 333.15c-.672.638-1.628 1.028-2.867 1.173l-.062 1.817-1.966-.068.059-1.752a10.34 10.34 0 0 1-2.31-.497c-.724-.25-1.322-.547-1.789-.889l1.146-2.354a6.952 6.952 0 0 0 1.756.88 6.771 6.771 0 0 0 1.987.379c1.245.042 1.878-.247 1.9-.871.011-.328-.158-.575-.508-.746-.35-.17-.915-.357-1.694-.559-.856-.215-1.57-.44-2.142-.671a3.635 3.635 0 0 1-1.455-1.074c-.398-.484-.585-1.124-.558-1.922.033-.938.398-1.732 1.099-2.381.7-.649 1.69-1.027 2.973-1.137l.063-1.8 1.965.066-.061 1.769a9.418 9.418 0 0 1 1.782.389 6.547 6.547 0 0 1 1.511.691l-1.082 2.374c-1.072-.627-2.121-.959-3.147-.994-.644-.02-1.117.059-1.419.239-.301.181-.457.423-.468.729-.011.306.156.541.501.706.344.165.9.343 1.67.534.867.214 1.584.438 2.15.671a3.752 3.752 0 0 1 1.456 1.065c.405.478.592 1.116.566 1.914-.031.907-.383 1.681-1.056 2.319Zm9.36 27.708c-.251 7.387-6.446 13.171-13.831 12.918-7.386-.253-13.17-6.446-12.917-13.833.253-7.386 6.446-13.17 13.832-12.917 7.385.253 13.167 6.446 12.916 13.832Z"/>
  <path fill="#fff" d="M437.875 360.816c-.231 6.734-5.876 12.008-12.612 11.777-6.736-.229-12.008-5.875-11.777-12.611.231-6.734 5.876-12.008 12.611-11.777 6.734.229 12.009 5.875 11.778 12.611Z"/>
  <path fill="#fff" d="M417.665 354.575c.662-1.061 1.177-2.126 2.151-2.96.953-.818 2.077-1.355 3.258-1.764 1.736-.601 3.547-.878 5.32-1.322a12.203 12.203 0 0 0-2.297-.323c-5.306-.181-9.922 3.06-11.761 7.733 1.201.285 2.552-.117 3.329-1.364Z"/>
  <path fill="#E86B31" d="M433.225 352.514c-.612.756.059 2.32.332 3.09.365 1.028.869 2.014 1.155 3.07.726 2.677 1.03 6.069-.906 8.318-.614.713-1.435 1.164-2.117 1.799-.589.548-1.089 1.18-1.714 1.694-1.282 1.048-2.86 1.479-4.499 1.283-1.606-.192-4.338-1.401-6.353-1.089a12.119 12.119 0 0 0 6.14 1.918c6.734.231 12.38-5.044 12.611-11.778a12.169 12.169 0 0 0-3.344-8.811c-.502-.031-.973.094-1.305.506Z" opacity=".1"/>
  <path fill="#E86B31" d="M429.695 364.781c-.672.638-1.628 1.028-2.867 1.173l-.062 1.817-1.966-.068.059-1.752a10.34 10.34 0 0 1-2.31-.497c-.724-.25-1.322-.547-1.789-.889l1.146-2.354a6.952 6.952 0 0 0 1.756.88 6.771 6.771 0 0 0 1.987.379c1.245.042 1.878-.247 1.9-.869.011-.328-.158-.576-.508-.746-.35-.171-.915-.358-1.694-.559-.856-.215-1.57-.44-2.142-.671a3.637 3.637 0 0 1-1.455-1.075c-.398-.484-.585-1.123-.558-1.921.033-.939.398-1.732 1.099-2.381.7-.649 1.69-1.027 2.973-1.137l.063-1.8 1.965.066-.061 1.769a9.495 9.495 0 0 1 1.782.388 6.59 6.59 0 0 1 1.511.692l-1.082 2.374c-1.072-.627-2.121-.959-3.147-.994-.644-.022-1.117.059-1.419.238-.301.182-.457.424-.468.73-.011.306.156.541.501.706.344.165.9.343 1.67.533.867.215 1.584.439 2.15.671a3.765 3.765 0 0 1 1.456 1.066c.405.478.592 1.116.566 1.914-.031.907-.383 1.679-1.056 2.317Z"/>
  <path fill="#E9A394" d="M384.268 209.062s-1.225.858-4.008 3c-2.781 2.141-9.425 2.352-9.214 4.167.211 1.815 8.679 4.614 12.868 2.387 4.189-2.228 2.723-8.206.354-9.554Z"/>
  <path fill="#E9A394" d="M384.267 209.062s-5.005 24.537-.542 25.988c2.086.678 4.501-7.453 6.074-13.884-1.636 7.933-2.169 15.031.35 14.681 1.938-.269 3.908-7.223 5.729-13.559-.851 4.457-2.33 13.671-.37 13.957 3.323.482 5.208-8.615 6.347-14.786-.428 3.718-1.57 13.272.221 13.55 1.584.248 3.277-1.36 4.679-9.126.818-4.532 1.661-4.23 1.628-6.364-.026-1.646.132-3.355-.541-4.671-3.241-6.34-21.215-8.904-23.575-5.786Z"/>
  <path fill="#fff" d="M402.449 234.43c-.807-.271-.935-2.959-.744-3.196 0 0 2.165.297 2.511.517.345.217-.96 2.95-1.767 2.679Zm-6.498 1.332c-.807-.272-.935-2.959-.744-3.198 0 0 2.165.299 2.511.517.345.219-.96 2.952-1.767 2.681Zm-6.243-.738c-.807-.272-.935-2.961-.747-3.196 0 0 2.166.297 2.512.517.347.216-.961 2.95-1.765 2.679Zm-6.114-.87c-.807-.271-.935-2.959-.745-3.195 0 0 2.165.297 2.512.517.345.216-.963 2.95-1.767 2.678Z" opacity=".2"/>
  <path fill="#E86B31" d="m401.731 222.445-.089-8.1s2.834-1.27 5.065 1.366c0 0-1.215-4.365-10.355-5.727-9.141-1.361-10.477-.497-10.477-.497s2.84.44 4.14 2.622c.291.487-.231 8.928-.141 8.413.089-.515 1.706-7.893 1.706-7.893l3.865.605.464 7.986 1.074-7.846 3.273.649 1.475 8.422Z" opacity=".1"/>
  <path fill="#E86B31" d="M371.455 93.764v.603c0 1.736-.707 2.844-2.282 3.4 1.897.553 2.636 1.83 2.636 3.614v1.374c0 2.603-1.831 4.002-5.37 4.002h-5.562V89.883h5.337c3.666 0 5.241 1.278 5.241 3.881Zm-7.042-1.47v4.458h1.383c1.318 0 2.123-.434 2.123-1.783v-.941c0-1.205-.547-1.736-1.801-1.736h-1.705v.002Zm0 6.87v5.182h2.026c1.19 0 1.834-.411 1.834-1.663v-1.47c0-1.568-.675-2.05-2.283-2.05h-1.577Zm19.323 7.593c-.193-.435-.321-.699-.321-2.074v-2.651c0-1.567-.708-2.147-2.316-2.147h-1.221v6.872h-3.536V89.883h5.337c3.664 0 5.239 1.278 5.239 3.881v1.326c0 1.736-.739 2.869-2.313 3.422 1.767.556 2.346 1.832 2.346 3.592v2.603c0 .82.033 1.423.387 2.05h-3.602Zm-3.86-14.463v5.183h1.383c1.318 0 2.123-.435 2.123-1.784V94.03c0-1.205-.547-1.736-1.801-1.736h-1.705Zm23.245 14.463h-3.57l-.61-3.062h-4.34l-.61 3.062h-3.247l3.601-16.874h5.175l3.601 16.874Zm-8.07-5.352h3.408l-1.705-8.534-1.703 8.534Zm15.268-6.869v12.221h-3.182V89.883h4.436l3.634 10.102V89.882h3.152v16.874h-3.634l-4.406-12.221Zm12.988-4.653h5.593c3.537 0 5.273 1.47 5.273 4.17v8.535c0 2.7-1.736 4.171-5.273 4.171h-5.593V89.883Zm3.534 2.41v12.055h1.993c1.126 0 1.8-.435 1.8-1.639v-8.775c0-1.206-.674-1.638-1.8-1.638h-1.993v-.002Zm11.993-2.41h3.536v16.874h-3.536V89.883Zm11.669 4.653v12.221h-3.183V89.883h4.437l3.634 10.102V89.882h3.151v16.874h-3.633l-4.406-12.221Zm18.292 2.819h4.952v5.351c0 2.701-1.801 4.242-5.273 4.242-3.472 0-5.273-1.543-5.273-4.242v-8.774c0-2.7 1.801-4.243 5.273-4.243 3.472 0 5.273 1.542 5.273 4.243v1.639h-3.344v-1.808c0-1.206-.708-1.663-1.834-1.663-1.125 0-1.833.459-1.833 1.663v9.112c0 1.204.708 1.639 1.833 1.639 1.126 0 1.834-.435 1.834-1.639v-3.11h-1.608v-2.41Z"/>
  <path fill="#E86B31" fill-rule="evenodd" d="M437.703 84.482c.057.294.106.58.156.858a2.446 2.446 0 0 0 2.409 2.065 2.38 2.38 0 0 0 1.584-.596 2.42 2.42 0 0 0 .825-1.485c.04-.246.081-.499.13-.76a12.02 12.02 0 0 1-2.359.22 12.26 12.26 0 0 1-2.745-.302Z" clip-rule="evenodd"/>
  <path fill="url(#o)" fill-rule="evenodd" d="M439.424 64.713c-3.289.36-5.934 3.052-6.251 6.341a7.074 7.074 0 0 0 1.983 5.649c1.102 2.09 1.967 3.68 2.473 6.185.849.204 1.804.32 2.816.32.858 0 1.674-.083 2.424-.23.482-2.53 1.315-4.152 2.416-6.275a7.081 7.081 0 0 0 2.024-4.956 7.084 7.084 0 0 0-7.885-7.034Z" clip-rule="evenodd"/>
  <path fill="#E86B31" d="M440.538 57.291h-1.007v4.532h1.007v-4.532Zm-10.197 13.721h-4.532v1.006h4.532v-1.006Zm23.921 0h-4.532v1.006h4.532v-1.006ZM430.323 61.1l-.712.712 3.205 3.205.712-.712-3.205-3.204Zm16.918 16.917-.712.712 3.205 3.204.712-.712-3.205-3.204Zm-14.419.003-3.205 3.205.712.711 3.204-3.204-.711-.712Zm16.914-16.916-3.205 3.205.712.711 3.205-3.204-.712-.712Z"/>
  <path fill="url(#p)" d="M231.628 407.928h-82.517v82.516h82.517v-82.516Z"/>
  <path fill="#fff" d="M152.092 438.86c3.408-2.917 2.455-7.777 2.748-11.737.264-3.568 1.253-7.018 4.045-9.442 7.383-6.413 17.845-3.362 26.403-1.863 4.256.747 9.367 1.548 13.386-.537 2.451-1.27 4.621-4.75 3.796-7.353h-53.359v31.997c.948.101 1.945-.178 2.981-1.065Z" opacity=".67"/>
  <path fill="#E86B31" d="M228.643 421.135c-1.248 1.283-1.507 3.63-1.685 5.314-.834 7.865.563 15.967.6 23.861.022 4.356-.283 8.971-2.448 12.856-2.368 4.247-6.613 6.431-11.15 7.672-1.788.49-3.92.75-4.84 2.574-1.036 2.052-.561 4.648-.862 6.862-.673 4.956-5.008 6.947-9.641 6.166-4.97-.838-9.479-3.737-13.459-6.679-1.424-1.052-2.977-2.101-4.647-2.717-1.986-.735-2.858-.391-2.987 1.839-.062 1.058-1.058 2.026-2.178 1.657-4.171-1.371-7.916-3.705-12.01-5.258-4.442-1.687-8.466-1.758-12.883.004-.447.179-.894.324-1.344.454v14.702h82.517v-69.064c-.746-1.085-1.973-1.283-2.983-.243Z" opacity=".1"/>
  <path fill="#E86B31" d="M203.885 490.35v-21.956l-2.43 1.858-1.428-1.858-2.429-.856-2.535 3.001-1.465-4-4.287 13.288-1.714-12.146-1.571 2.429-2-3.571s-.678 16.953-1.157 23.813c7.005.341 14.01-.394 21.016-.002Z" opacity=".35"/>
  <path fill="#691109" d="m149.111 407.927 20.433-6.144h73.729l-11.645 6.144h-82.517Zm94.163-6.144v77.444l-11.645 11.216v-82.516l11.645-6.144Z"/>
  <path fill="#E86B31" d="M242.512 421.477c-1.594 3.094-1.128 7.137-1.61 10.508-.576 4.03-1.206 7.935-.469 11.988.544 2.994 1.587 6.105 1.309 9.182-.151 1.65-.499 4.061-2.134 4.942-2.107 1.137-3.83-1.129-4.664-2.781-2.769-5.492-2.272-12.166-2.228-18.111.029-3.821.341-7.674.127-11.493a13.122 13.122 0 0 0-1.214-4.866v69.595l11.643-11.216v-58.823c-.264.351-.553.673-.76 1.075Z" opacity=".15"/>
  <path fill="#fff" d="M163.509 485.301h-9.181v-6.811h9.181v6.811Zm-8.55-.629h7.92v-5.549h-7.92v5.549Z"/>
  <path fill="#fff" d="M159.826 484.135h-2.154v-2.155h2.154v2.155Zm-1.523-.629h.894v-.895h-.894v.895Zm3.787.629h-2.154v-2.155h2.154v2.155Zm-1.524-.629h.895v-.895h-.895v.895Zm13.473 1.795h-9.18v-6.811h9.18v6.811Zm-8.551-.629h7.92v-5.549h-7.92v5.549Z"/>
  <path fill="#fff" d="M170.355 484.135h-2.154v-2.155h2.154v2.155Zm-1.523-.629h.893v-.895h-.893v.895Zm3.787.629h-2.154v-2.155h2.154v2.155Zm-1.523-.629h.894v-.895h-.894v.895Z"/>
  <path fill="#E86B31" d="M181.547 407.927v24.719l2.429-1.857 1.428 1.857 2.429.858 2.536-3.001 1.465 4 4.286-13.288 1.714 12.146 1.571-2.429 2.001 3.573s1.001-25.005 1.428-26.576l5.573-3.001-5.716.715-.143-.715h-12.181l-8.82 2.999Zm14.074-4.716 2.072-1.428h15.075l-2.858 1.929-.429-.644-3.073.215-.429-.999-6.856 1.428-.572-1.359-2.93.858Zm34.65 2.43 5.836-.077.301 12.271.969-1.573.371.5.882-1.052.826.623 1.174-1.109v-11.908l-5.858.396.492.358-.921.214 1.504.444-5.576.913Zm10.359 76.132-.356-9.214-1.216 2.357-.19 2.087-.952-.802-.539 2.855-.97-1.571-.251 8.695 4.474-4.407Zm-75.559-78.644h6.902l-1.608.583.536.297s-1.876.535-1.715.535c.162 0 1.286.352 1.126.31-.161-.042-2.653.072-2.653.072v.315l-8.143-.444 5.555-1.668Z" opacity=".35"/>
  <path fill="#fff" d="M172.911 442.064c3.069 0 4.648 1.377 4.648 3.788v.473h-2.983v-.623c0-1.076-.574-1.485-1.578-1.485-1.005 0-1.579.409-1.579 1.485 0 3.098 6.167 3.679 6.167 7.982 0 2.411-1.606 3.788-4.704 3.788s-4.704-1.377-4.704-3.788v-.926h2.983v1.076c0 1.077.63 1.463 1.635 1.463s1.635-.386 1.635-1.463c0-3.098-6.167-3.679-6.167-7.982 0-2.411 1.577-3.788 4.647-3.788Zm18.848 15.235h-3.185l-.544-2.734h-3.874l-.544 2.734h-2.897l3.212-15.063h4.618l3.214 15.063Zm-7.201-4.778h3.041l-1.52-7.617-1.521 7.617Zm10.813-10.285h3.155v12.912h5.192v2.153h-8.349v-15.065h.002Zm15.032 6.349h4.332v2.153h-4.332v4.411h5.451v2.152h-8.608v-15.063h8.608v2.153h-5.451v4.194Z"/>
  <path fill="#501E19" d="m278.477 492.423 13.779-9.249-.242-29.385-13.592 8.047.055 30.587Z"/>
  <path fill="#86331B" d="m278.422 461.835 13.658-8.046-34.991-6.014-17.081 8.37 38.414 5.69Z"/>
  <path fill="url(#q)" d="m240.008 456.146.053 30.588 38.416 5.69-.055-30.587-38.414-5.691Z"/>
  <path fill="#501E19" d="m271.608 458.745 10.443-5.68-.048-26.354-10.442 5.681.047 26.353Z"/>
  <path fill="#86331B" d="m271.56 432.392 10.443-5.681-34.885-4.902-10.442 5.679 34.884 4.904Z"/>
  <path fill="url(#r)" d="m236.676 427.486.049 26.354 34.883 4.903-.048-26.353-34.884-4.904Z"/>
  <path fill="#501E19" d="m249.736 431.374-10.443-5.682.049-26.352 10.443 5.68-.049 26.354Z"/>
  <path fill="#86331B" d="m249.786 405.018-10.442-5.68 34.883-4.902 10.442 5.679-34.883 4.903Z"/>
  <path fill="url(#s)" d="m284.669 400.115-.048 26.354-34.885 4.903.05-26.354 34.883-4.903Z"/>
  <path fill="#501E19" d="m274.022 405.19 9.528-5.682-.046-26.354-9.527 5.682.045 26.354Z"/>
  <path fill="#86331B" d="m273.977 378.838 9.528-5.682-31.827-4.902-9.528 5.681 31.827 4.903Z"/>
  <path fill="url(#t)" d="m242.15 373.936.046 26.354 31.827 4.902-.046-26.354-31.827-4.902Z"/>
  <path fill="#501E19" d="m248.655 376.741-9.458-5.234.044-24.284 9.46 5.234-.046 24.284Z"/>
  <path fill="#86331B" d="m248.7 352.457-9.46-5.235 31.596-4.517 9.458 5.234-31.594 4.518Z"/>
  <path fill="url(#u)" d="m280.296 347.939-.044 24.285-31.596 4.517.046-24.284 31.594-4.518Z"/>
  <path fill="#fff" d="M270.745 361.889c.455.522.68 1.202.68 2.044 0 1.228-.493 2.257-1.483 3.084-.988.826-2.418 1.391-4.286 1.692l-7.572 1.219v-14.023l7.172-1.155c1.789-.288 3.151-.178 4.086.333.935.51 1.403 1.326 1.403 2.45 0 .667-.163 1.29-.491 1.872a4.34 4.34 0 0 1-1.394 1.475c.803.153 1.43.488 1.885 1.009Zm-8.736-3.751v2.704l2.724-.438c1.335-.215 2.004-.778 2.004-1.685 0-.895-.667-1.234-2.004-1.019l-2.724.438Zm5.41 6c0-.948-.695-1.311-2.082-1.087l-3.326.535v2.846l3.326-.536c1.387-.223 2.082-.81 2.082-1.758Zm-9.564 29.202-1.872-.308v3.795l-3.337-.618v-14.023l5.455.59c1.118.121 2.101.447 2.942.979a5.555 5.555 0 0 1 1.976 2.127c.47.885.704 1.888.704 3.006 0 1.076-.22 1.984-.658 2.717a3.714 3.714 0 0 1-1.859 1.575l2.78 5.128-3.88-.719-2.251-4.249Zm1.661-6.606c-.367-.42-.911-.676-1.626-.766l-1.907-.239v4.182l1.907.283c.715.106 1.258.003 1.626-.31.369-.316.554-.812.554-1.494 0-.682-.185-1.234-.554-1.656Zm10.299 33.037-5.407.891-1.005 2.89-3.69.608 5.645-14.954 3.562-.587 5.663 13.09-3.764.62-1.004-2.558Zm-1.058-2.75-1.645-4.216-1.644 4.757 3.289-.541Zm-8.217 19.858v14.691l-3.421-.461-6.485-8.701v7.829l-4.072-.548v-14.691l3.422.46 6.484 8.701v-7.828l4.072.548Zm-6.37 28.976 6.631 1.088c1.536.251 2.899.762 4.087 1.532 1.188.77 2.11 1.736 2.764 2.899.655 1.162.981 2.451.981 3.866 0 1.416-.328 2.598-.981 3.546-.654.948-1.576 1.611-2.764 1.991-1.188.379-2.551.444-4.087.191l-6.631-1.088v-14.025Zm6.472 11.919c1.202.198 2.167.015 2.894-.546.728-.563 1.091-1.445 1.091-2.646 0-1.203-.365-2.204-1.091-3.005-.727-.799-1.692-1.3-2.894-1.496l-2.505-.41v7.692l2.505.411Z"/>
  <path fill="#51150F" d="m394.54 425.824 8.575-3.051-56.632-5.298-58.19 5.298 10.549 9.242 58.546 14.349 37.152-20.54Z"/>
  <path fill="#691109" d="m288.293 422.773 56.936 8.249v63.695l-56.936-10.628v-61.316Z"/>
  <path fill="#E86B31" d="M332.756 453.649c-1.495 2.508-5.125 4.758-5.29 7.869-.188 3.516 1.885 6.675.824 10.265-2.098 7.096-12.045 5.307-17.424 4.645-1.687-.207-3.392-.249-4.958.512-1.813.882-2.968 2.53-4.429 3.852-2.413 2.185-5.379 3.721-8.573 4.156l52.322 9.766v-48.501c-.919-1.397-10.525 4.162-12.472 7.436Z" opacity=".1"/>
  <path fill="#E86B31" d="m322.134 427.676-11.347-1.645c1.472.323 2.935.68 4.402 1.001a28.25 28.25 0 0 0 6.945.644Z" opacity=".15"/>
  <path fill="#fff" d="M291.397 435.324c1.111.391 2.458.842 2.907-.577.27-.849.22-1.808.319-2.686.173-1.536.747-2.776 1.762-3.958 2.057-2.396 5.233-3.071 8.263-2.961l-16.355-2.371v11.67c1.056.135 2.088.526 3.104.883Z" opacity=".67"/>
  <path fill="#E86B31" d="m379.453 420.594-16.771-1.707-52.996 6.521.181 12.501 6.954 1.685 1.133-2.108.852 2.84 5.317 1.477-.656-13.365 55.986-7.844Zm-58.289 69.421-.564-9.676-3.386-.447-.666 1.232-.488-1.63-8.915-1.949-.413 9.871 14.432 2.599Z" opacity=".35"/>
  <path fill="url(#v)" d="M403.114 422.773v60.629l-57.885 11.315v-63.695l57.885-8.249Z"/>
  <path fill="url(#w)" d="M371.436 427.287c3.15 2.446 6.651 3.064 10.615 2.591 3.733-.446 7.212-1.63 10.853-.032 2.891 1.271 5.005 3.814 6.311 6.635 2.9 6.265 2.99 14.152-1.643 19.553-2.283 2.662-5.491 4.853-6.694 8.279-1.202 3.428.189 7.08-.229 10.589-.482 4.036-3.608 6.203-7.199 7.488-4.376 1.564-8.789.997-13.206-.013-2.038-.466-4.761-1.615-6.862-1.089-1.188.297-1.881 1.597-2.772 2.352-2.367 2.011-5.733 2.635-8.431.9-5.579-3.584-5.702-11.909-3.555-17.374.728-1.856 1.701-3.702 1.994-5.695.191-1.288.01-2.566-.311-3.82a20.553 20.553 0 0 1-.919-1.802c-1.043-2.312-1.855-4.716-2.829-7.057-.22-.526-.447-1.078-.691-1.632-.198-.324-.432-.625-.641-.942v48.501l57.887-11.317v-60.629l-31.678 4.514Z"/>
  <path fill="#fff" d="m356.936 487.926-6.577 1.115v-5.879l6.577-1.115v5.879Zm-6.126.493 5.675-.962v-4.79l-5.675.962v4.79Z"/>
  <path fill="#fff" d="m354.298 487.367-1.544.262v-1.859l1.544-.262v1.859Zm-1.091-.36.64-.108v-.772l-.64.109v.771Zm2.712.082-1.544.263v-1.859l1.544-.263v1.859Zm-1.091-.357.64-.108v-.772l-.64.108v.772Zm9.652-.087-6.576 1.115v-5.88l6.576-1.114v5.879Zm-6.125.495 5.674-.962v-4.793l-5.674.963v4.792Z"/>
  <path fill="#fff" d="m361.843 486.09-1.542.262v-1.859l1.542-.261v1.858Zm-1.091-.36.64-.108v-.772l-.64.108v.772Zm2.714.082-1.544.262v-1.859l1.544-.262v1.859Zm-1.091-.359.64-.108v-.772l-.64.108v.772Zm-3.499-30.068c.368.138.654.376.856.715.2.34.301.759.301 1.262 0 .502-.101.957-.301 1.36-.2.403-.486.737-.856 1.001a3.15 3.15 0 0 1-1.307.523l-.968.163v1.747l-1.57.266v-6.686l2.538-.431c.5-.083.936-.057 1.307.08Zm-.675 3.009c.163-.196.246-.451.246-.763 0-.311-.083-.541-.246-.684-.165-.144-.407-.188-.73-.133l-.872.148v1.958l.872-.148c.323-.055.567-.182.73-.378Zm6.032 1.17-2.345.398-.436 1.373-1.6.272 2.449-7.101 1.545-.262 2.457 6.27-1.632.277-.438-1.227Zm-.46-1.316-.713-2.018-.713 2.26 1.426-.242Zm4.093 1.687a2.384 2.384 0 0 1-1.089-1.052c-.264-.484-.396-1.06-.396-1.729s.132-1.289.396-1.863a3.883 3.883 0 0 1 1.089-1.421 3.34 3.34 0 0 1 1.566-.709c.507-.086.964-.055 1.371.091a2.17 2.17 0 0 1 1.014.765l-.998 1.258c-.359-.462-.795-.649-1.307-.561-.3.051-.57.176-.805.376a1.97 1.97 0 0 0-.546.764 2.692 2.692 0 0 0-.194 1.03c0 .376.064.699.194.966.13.268.312.462.546.582.235.119.503.154.805.102.512-.086.948-.421 1.307-1.004l.998.92a3.53 3.53 0 0 1-1.014 1.107 3.33 3.33 0 0 1-1.371.558c-.582.097-1.104.038-1.566-.18Zm6.789-3.265-.587.854v1.672l-1.554.264v-6.686l1.554-.264v2.779l2.149-3.142 1.727-.293-2.266 3.344 2.385 3.32-1.822.308-1.586-2.156Z"/>
  <path fill="#fff" d="m381.93 456.564-2.346.398-.437 1.373-1.6.272 2.449-7.101 1.546-.262 2.456 6.268-1.633.277-.435-1.225Zm-.458-1.316-.713-2.018-.713 2.26 1.426-.242Zm6.608-1.911 1.388-.234v2.77a4.287 4.287 0 0 1-1.094.816 4.179 4.179 0 0 1-1.236.429c-.581.099-1.104.038-1.569-.178a2.374 2.374 0 0 1-1.093-1.052c-.264-.484-.396-1.06-.396-1.729s.132-1.289.396-1.863a3.827 3.827 0 0 1 1.102-1.423 3.45 3.45 0 0 1 1.593-.715c.517-.088.983-.062 1.395.079.413.141.756.385 1.031.734l-1 1.257c-.374-.432-.823-.605-1.347-.517a1.747 1.747 0 0 0-1.15.715c-.289.396-.436.884-.436 1.463 0 .371.066.688.198.955.132.268.317.462.554.585.238.123.509.158.816.105.3-.052.584-.173.848-.363v-1.834Zm6.84.864v1.461l-4.455.755v-6.686l4.35-.737v1.461l-2.797.473v1.126l2.464-.418v1.413l-2.464.418v1.223l2.902-.489Z"/>
  <path fill="#E86B31" d="M231.324 129.428c-.218 6.378-5.564 11.37-11.942 11.152-6.377-.218-11.371-5.564-11.152-11.942.218-6.377 5.564-11.371 11.942-11.153 6.378.219 11.37 5.565 11.152 11.943Z"/>
  <path fill="#fff" d="M230.304 129.395c-.198 5.815-5.072 10.367-10.888 10.167-5.815-.198-10.367-5.073-10.167-10.888.198-5.815 5.072-10.367 10.888-10.168 5.815.198 10.367 5.073 10.167 10.889Z"/>
  <path fill="#fff" d="M212.859 124.006c.572-.916 1.017-1.837 1.855-2.555.823-.706 1.795-1.17 2.812-1.524 1.5-.519 3.062-.757 4.593-1.142-.642-.147-1.3-.255-1.984-.279-4.579-.156-8.567 2.642-10.155 6.677 1.042.246 2.208-.101 2.879-1.177Z" opacity=".49"/>
  <path fill="#E86B31" d="M226.293 122.221c-.528.653.051 2.002.286 2.668.315.889.749 1.74.997 2.651.627 2.312.889 5.239-.781 7.181-.53.616-1.239 1.005-1.828 1.553-.508.473-.94 1.019-1.479 1.461-1.106.906-2.47 1.278-3.883 1.109-1.386-.165-3.746-1.208-5.484-.94a10.472 10.472 0 0 0 5.3 1.655c5.816.198 10.689-4.354 10.888-10.168a10.493 10.493 0 0 0-2.887-7.606c-.436-.026-.843.082-1.129.436Z" opacity=".15"/>
  <path fill="#E86B31" d="M223.244 132.818c-.581.552-1.406.889-2.477 1.012l-.053 1.569-1.696-.059.051-1.512a8.88 8.88 0 0 1-1.994-.429c-.625-.214-1.141-.471-1.546-.768l.99-2.033a5.89 5.89 0 0 0 1.518.759c.578.199 1.15.308 1.716.328 1.075.036 1.621-.215 1.639-.752.009-.282-.135-.497-.438-.645-.302-.147-.79-.308-1.463-.482a14.272 14.272 0 0 1-1.848-.58 3.12 3.12 0 0 1-1.256-.927c-.344-.418-.504-.97-.482-1.659a2.832 2.832 0 0 1 .948-2.056c.605-.559 1.459-.885 2.567-.98l.053-1.555 1.696.057-.054 1.527a8.233 8.233 0 0 1 1.539.335c.491.16.924.358 1.303.596l-.933 2.05c-.926-.543-1.83-.827-2.717-.858-.556-.018-.964.051-1.225.207-.26.156-.394.367-.403.631-.009.264.136.467.433.608.297.143.777.295 1.441.46.749.186 1.367.38 1.855.58.488.2.907.508 1.256.92.348.413.511.964.487 1.652-.023.786-.326 1.454-.907 2.004ZM159.131 357.11c1.173 6.272-2.959 12.309-9.231 13.482-6.272 1.174-12.309-2.959-13.482-9.232-1.173-6.272 2.959-12.309 9.233-13.481 6.27-1.175 12.307 2.959 13.48 9.231Z"/>
  <path fill="#fff" d="M158.127 357.296c1.071 5.718-2.698 11.222-8.416 12.292-5.719 1.071-11.222-2.698-12.293-8.416-1.071-5.719 2.699-11.222 8.417-12.293 5.72-1.071 11.224 2.699 12.292 8.417Z"/>
  <path fill="#fff" d="M139.927 355.833c.359-1.02.594-2.013 1.256-2.899.651-.869 1.496-1.533 2.414-2.097 1.352-.833 2.825-1.406 4.235-2.114a10.419 10.419 0 0 0-1.996.159c-4.505.844-7.788 4.441-8.461 8.725 1.069.015 2.132-.575 2.552-1.774Z" opacity=".49"/>
  <path fill="#E86B31" d="M152.651 351.173c-.374.752.486 1.943.86 2.541.501.799 1.109 1.534 1.549 2.37 1.113 2.12 2.008 4.921.798 7.18-.383.717-.992 1.25-1.447 1.914-.392.572-.696 1.199-1.127 1.749-.882 1.123-2.132 1.783-3.549 1.926-1.39.14-3.918-.364-5.557.274 1.714.625 3.61.823 5.533.464 5.718-1.071 9.487-6.575 8.417-12.293a10.5 10.5 0 0 0-4.474-6.798c-.427.072-.799.264-1.003.673Z" opacity=".15"/>
  <path fill="#E86B31" d="M151.98 362.174c-.447.664-1.179 1.174-2.196 1.528l.288 1.543-1.669.312-.278-1.489a8.835 8.835 0 0 1-2.041.015c-.656-.073-1.215-.213-1.676-.414l.525-2.2a6.026 6.026 0 0 0 1.646.412c.609.068 1.19.051 1.745-.053 1.056-.198 1.537-.561 1.438-1.089-.051-.279-.242-.457-.569-.534-.326-.078-.837-.128-1.532-.152a13.816 13.816 0 0 1-1.931-.165 3.127 3.127 0 0 1-1.428-.632c-.427-.332-.704-.838-.83-1.515-.149-.797.011-1.534.478-2.212.468-.679 1.232-1.183 2.294-1.517l-.286-1.529 1.668-.313.281 1.503a8.203 8.203 0 0 1 1.574-.007 5.69 5.69 0 0 1 1.403.299l-.466 2.203c-1.021-.328-1.967-.408-2.838-.247-.546.103-.929.258-1.149.467-.22.209-.307.444-.257.703.048.26.233.427.555.5.321.075.824.119 1.507.136.772.018 1.418.073 1.938.163.521.09.996.299 1.427.625.43.328.709.829.836 1.507.141.77-.01 1.489-.457 2.152Zm318.495-144.497a.482.482 0 0 0-.261.627 14.166 14.166 0 0 1 1.086 5.469c0 7.865-6.399 14.263-14.265 14.263-7.865 0-14.266-6.398-14.266-14.263s6.399-14.265 14.266-14.265c3.4 0 6.693 1.217 9.273 3.424a.482.482 0 0 0 .792-.401.475.475 0 0 0-.167-.328 15.225 15.225 0 0 0-9.898-3.656c-8.395 0-15.224 6.829-15.224 15.224s6.829 15.224 15.224 15.224c8.394 0 15.224-6.829 15.224-15.224a15.12 15.12 0 0 0-1.161-5.837.477.477 0 0 0-.623-.257Z"/>
  <path fill="#E86B31" d="M473.196 210.202a.48.48 0 0 0-.678.059l-15.756 18.716a.432.432 0 0 1-.312.156.423.423 0 0 1-.333-.125l-9.744-9.539a.481.481 0 0 0-.816.349.47.47 0 0 0 .145.337l9.744 9.539c.26.253.616.4.979.4l.066-.002c.388-.019.753-.2 1.004-.497l15.758-18.718a.481.481 0 0 0-.057-.675Z"/>
  <defs>
    <linearGradient id="a" x1="263.23" x2="154.406" y1="227.246" y2="184.429" gradientUnits="userSpaceOnUse">
      <stop stop-color="#FB8D48"/>
      <stop offset=".2" stop-color="#ED7136"/>
      <stop offset=".4" stop-color="#C54E47"/>
      <stop offset=".4" stop-color="#C14F49"/>
      <stop offset=".6" stop-color="#9D3863"/>
      <stop offset=".8" stop-color="#5E1F72"/>
    </linearGradient>
    <linearGradient id="b" x1="165.651" x2="182.408" y1="82.159" y2="82.319" gradientUnits="userSpaceOnUse">
      <stop stop-color="#FB8D48"/>
      <stop offset=".2" stop-color="#ED7136"/>
      <stop offset=".4" stop-color="#C54E47"/>
      <stop offset=".4" stop-color="#C14F49"/>
      <stop offset=".6" stop-color="#9D3863"/>
      <stop offset=".8" stop-color="#5E1F72"/>
    </linearGradient>
    <linearGradient id="c" x1="127.396" x2="148.77" y1="85.583" y2="85.863" gradientUnits="userSpaceOnUse">
      <stop stop-color="#FB8D48"/>
      <stop offset=".2" stop-color="#ED7136"/>
      <stop offset=".4" stop-color="#C54E47"/>
      <stop offset=".4" stop-color="#C14F49"/>
      <stop offset=".6" stop-color="#9D3863"/>
      <stop offset=".8" stop-color="#5E1F72"/>
    </linearGradient>
    <linearGradient id="d" x1="134.819" x2="173.171" y1="89.178" y2="89.647" gradientUnits="userSpaceOnUse">
      <stop stop-color="#FB8D48"/>
      <stop offset=".2" stop-color="#ED7136"/>
      <stop offset=".4" stop-color="#C54E47"/>
      <stop offset=".4" stop-color="#C14F49"/>
      <stop offset=".6" stop-color="#9D3863"/>
      <stop offset=".8" stop-color="#5E1F72"/>
    </linearGradient>
    <linearGradient id="e" x1="297.795" x2="436.96" y1="183.593" y2="187.491" gradientUnits="userSpaceOnUse">
      <stop stop-color="#FB8D48"/>
      <stop offset=".2" stop-color="#ED7136"/>
      <stop offset=".4" stop-color="#C54E47"/>
      <stop offset=".4" stop-color="#C14F49"/>
      <stop offset=".6" stop-color="#9D3863"/>
      <stop offset=".8" stop-color="#5E1F72"/>
    </linearGradient>
    <linearGradient id="f" x1="269.506" x2="126.795" y1="241.762" y2="257.849" gradientUnits="userSpaceOnUse">
      <stop stop-color="#FB8D48"/>
      <stop offset=".2" stop-color="#ED7136"/>
      <stop offset=".4" stop-color="#C54E47"/>
      <stop offset=".4" stop-color="#C14F49"/>
      <stop offset=".6" stop-color="#9D3863"/>
      <stop offset=".8" stop-color="#5E1F72"/>
    </linearGradient>
    <linearGradient id="g" x1="286.768" x2="354.816" y1="186.448" y2="380.22" gradientUnits="userSpaceOnUse">
      <stop stop-color="#FB8D48"/>
      <stop offset=".2" stop-color="#ED7136"/>
      <stop offset=".4" stop-color="#C54E47"/>
      <stop offset=".4" stop-color="#C14F49"/>
      <stop offset=".6" stop-color="#9D3863"/>
      <stop offset=".8" stop-color="#5E1F72"/>
    </linearGradient>
    <linearGradient id="h" x1="126.357" x2="119.485" y1="217.379" y2="217.073" gradientUnits="userSpaceOnUse">
      <stop stop-color="#6C696A" stop-opacity=".134"/>
      <stop offset="1" stop-color="#231F20" stop-opacity=".2"/>
    </linearGradient>
    <linearGradient id="i" x1="148.761" x2="115.873" y1="217.318" y2="215.854" gradientUnits="userSpaceOnUse">
      <stop stop-color="#fff" stop-opacity="0"/>
      <stop offset=".5" stop-color="#231F20" stop-opacity=".2"/>
    </linearGradient>
    <linearGradient id="j" x1="145.363" x2="119.047" y1="201.019" y2="234.053" gradientUnits="userSpaceOnUse">
      <stop stop-color="#fff" stop-opacity="0"/>
      <stop offset=".5" stop-color="#231F20" stop-opacity=".2"/>
      <stop offset="1" stop-color="#D2D1D1" stop-opacity="0"/>
    </linearGradient>
    <linearGradient id="k" x1="131.868" x2="124.488" y1="200.942" y2="210.206" gradientUnits="userSpaceOnUse">
      <stop stop-color="#fff" stop-opacity="0"/>
      <stop offset=".5" stop-color="#231F20" stop-opacity=".2"/>
    </linearGradient>
    <linearGradient id="l" x1="82.498" x2="119.285" y1="157.136" y2="173.203" gradientUnits="userSpaceOnUse">
      <stop stop-color="#fff" stop-opacity=".2"/>
      <stop offset="1" stop-color="#fff" stop-opacity="0"/>
    </linearGradient>
    <linearGradient id="m" x1="61.675" x2="39.023" y1="174.981" y2="195.754" gradientUnits="userSpaceOnUse">
      <stop stop-color="#fff" stop-opacity=".5"/>
      <stop offset="1" stop-color="#fff" stop-opacity="0"/>
    </linearGradient>
    <linearGradient id="n" x1="150.801" x2="146.187" y1="185.799" y2="199.317" gradientUnits="userSpaceOnUse">
      <stop stop-color="#fff" stop-opacity=".5"/>
      <stop offset="1" stop-color="#fff" stop-opacity="0"/>
    </linearGradient>
    <linearGradient id="o" x1="433.385" x2="447.36" y1="72.65" y2="72.857" gradientUnits="userSpaceOnUse">
      <stop stop-color="#FB8D48"/>
      <stop offset=".2" stop-color="#ED7136"/>
      <stop offset=".4" stop-color="#C54E47"/>
      <stop offset=".4" stop-color="#C14F49"/>
      <stop offset=".6" stop-color="#9D3863"/>
      <stop offset=".8" stop-color="#5E1F72"/>
    </linearGradient>
    <linearGradient id="p" x1="150.546" x2="231.908" y1="443.456" y2="445.033" gradientUnits="userSpaceOnUse">
      <stop stop-color="#FB8D48"/>
      <stop offset=".2" stop-color="#ED7136"/>
      <stop offset=".4" stop-color="#C54E47"/>
      <stop offset=".4" stop-color="#C14F49"/>
      <stop offset=".6" stop-color="#9D3863"/>
      <stop offset=".8" stop-color="#5E1F72"/>
    </linearGradient>
    <linearGradient id="q" x1="240.677" x2="278.606" y1="471.766" y2="472.546" gradientUnits="userSpaceOnUse">
      <stop stop-color="#FB8D48"/>
      <stop offset=".2" stop-color="#ED7136"/>
      <stop offset=".4" stop-color="#C54E47"/>
      <stop offset=".4" stop-color="#C14F49"/>
      <stop offset=".6" stop-color="#9D3863"/>
      <stop offset=".8" stop-color="#5E1F72"/>
    </linearGradient>
    <linearGradient id="r" x1="237.283" x2="271.724" y1="440.944" y2="441.69" gradientUnits="userSpaceOnUse">
      <stop stop-color="#FB8D48"/>
      <stop offset=".2" stop-color="#ED7136"/>
      <stop offset=".4" stop-color="#C54E47"/>
      <stop offset=".4" stop-color="#C14F49"/>
      <stop offset=".6" stop-color="#9D3863"/>
      <stop offset=".8" stop-color="#5E1F72"/>
    </linearGradient>
    <linearGradient id="s" x1="250.344" x2="284.784" y1="413.573" y2="414.319" gradientUnits="userSpaceOnUse">
      <stop stop-color="#FB8D48"/>
      <stop offset=".2" stop-color="#ED7136"/>
      <stop offset=".4" stop-color="#C54E47"/>
      <stop offset=".4" stop-color="#C14F49"/>
      <stop offset=".6" stop-color="#9D3863"/>
      <stop offset=".8" stop-color="#5E1F72"/>
    </linearGradient>
    <linearGradient id="t" x1="242.705" x2="274.131" y1="387.393" y2="388.015" gradientUnits="userSpaceOnUse">
      <stop stop-color="#FB8D48"/>
      <stop offset=".2" stop-color="#ED7136"/>
      <stop offset=".4" stop-color="#C54E47"/>
      <stop offset=".4" stop-color="#C14F49"/>
      <stop offset=".6" stop-color="#9D3863"/>
      <stop offset=".8" stop-color="#5E1F72"/>
    </linearGradient>
    <linearGradient id="u" x1="249.207" x2="280.401" y1="360.34" y2="361.005" gradientUnits="userSpaceOnUse">
      <stop stop-color="#FB8D48"/>
      <stop offset=".2" stop-color="#ED7136"/>
      <stop offset=".4" stop-color="#C54E47"/>
      <stop offset=".4" stop-color="#C14F49"/>
      <stop offset=".6" stop-color="#9D3863"/>
      <stop offset=".8" stop-color="#5E1F72"/>
    </linearGradient>
    <linearGradient id="v" x1="346.235" x2="403.319" y1="453.749" y2="454.64" gradientUnits="userSpaceOnUse">
      <stop stop-color="#FB8D48"/>
      <stop offset=".2" stop-color="#ED7136"/>
      <stop offset=".4" stop-color="#C54E47"/>
      <stop offset=".4" stop-color="#C14F49"/>
      <stop offset=".6" stop-color="#9D3863"/>
      <stop offset=".8" stop-color="#5E1F72"/>
    </linearGradient>
    <linearGradient id="w" x1="346.233" x2="403.318" y1="453.75" y2="454.641" gradientUnits="userSpaceOnUse">
      <stop stop-color="#FB8D48"/>
      <stop offset=".2" stop-color="#ED7136"/>
      <stop offset=".4" stop-color="#C54E47"/>
      <stop offset=".4" stop-color="#C14F49"/>
      <stop offset=".6" stop-color="#9D3863"/>
      <stop offset=".8" stop-color="#5E1F72"/>
    </linearGradient>
  </defs>
</svg>
