<svg xmlns="http://www.w3.org/2000/svg" width="569" height="569" fill="none" viewBox="0 0 569 569">
  <g clip-path="url(#a)">
    <path fill="url(#b)" stroke="#fff" stroke-linecap="round" stroke-linejoin="round" stroke-width=".732" d="M451.636 367.591c1.666-12.014 14.106-5.761 21.265-3.34 5.411 1.69 11.317-1.233 11.728-7.149.539-5.641-.699-11.592 1.509-16.993 4.305-12.61 21.4-10.3 22.251 2.916-2.134 13.265 10.816 13.945 11.614 4.939-.345-10.858 11.931-15.62 18.555-6.961 5.874 7.298 4.84 21.971-4.695 25.277-2.739.867-5.694.498-8.561.681-15.301 2.082-3.42 12.205-5.482 20.266-1.154 3.116-4.931 4.61-8.227 4.187-7.358-.33-14.749-12.931-21.742-5.672-1.566 2.332-.621 5.444-.81 8.246-.357 5.273-5.007 9.461-10.072 10.971-10.233 3.034-21.216-2.45-31.48.336-4.905 1.336-9.955 4.537-14.668 2.632-7.879-2.793-8.633-22.076-4.79-28.017 2.615-4.049 7.484-5.91 12.027-7.522 4.199-1.489 7.38-3.308 11.578-4.797Z"/>
    <path fill="#2E2C29" stroke="#fff" stroke-linecap="round" stroke-linejoin="round" stroke-width=".732" d="M426.445 380.636c4.032.52 8.106 1.041 12.152.642 4.045-.398 8.12-1.804 11.017-4.656 2.897-2.852 4.386-7.314 3.034-11.148-1.323-3.751-5.127-6.74-4.835-10.707.303-4.125 4.936-6.518 9.051-6.935 4.115-.417 8.449.278 12.272-1.302 3.729-1.542 6.44-5.297 6.729-9.322.29-4.025-1.856-8.129-5.326-10.188-1.873-1.112-4.031-1.639-6.003-2.564-1.972-.925-3.876-2.432-4.368-4.554-.877-3.779 2.885-6.821 4.894-10.14 2.999-4.955 1.879-11.875-2.22-15.967-4.099-4.091-10.681-5.269-16.127-3.301-5.447 1.968-9.644 6.809-11.313 12.355-1.272 4.229-1.177 8.757-2.23 13.046-2.519 10.26-12.199 18.323-22.745 18.945-4.471.264-9.311-.602-13.168 1.676-4.876 2.88-5.95 9.734-4.287 15.147a21.78 21.78 0 0 0 10.626 12.765c3.941 2.054 6.54 5.93 10.69 7.522 3.208 1.231 6.726 1.964 9.367 4.163 1.428 1.189 2.178 2.768 2.79 4.523Z"/>
    <path fill="#2E2C29" d="M457.101 330.167s-7.983 5.904-15.655 4.14l15.655-4.14Z"/>
    <path stroke="#fff" stroke-linecap="round" stroke-linejoin="round" stroke-width=".732" d="M457.101 330.167s-7.983 5.904-15.655 4.14"/>
    <path stroke="#2E2C29" stroke-linecap="round" stroke-linejoin="round" stroke-width="4.003" d="M435.389 394.092s48.913-11.941 70.275-32.899"/>
    <path stroke="#2E2C29" stroke-linecap="round" stroke-linejoin="round" stroke-width="4.003" d="M499.489 351.145s3.053 11.315-2.88 17.412m10.376 5.147s-4.585 3.45-17.86-.444m-14.776-1.397s1.336 7.2-3.169 10.188m1.46 9.858s-10.978-.409-11.927-5.735"/>
    <path fill="#2E2C29" d="M449.227 297.846s-1.912 24.356-7.782 36.461c-5.871 12.106-22.086 25.39-21.128 31.845"/>
    <path stroke="#fff" stroke-linecap="round" stroke-linejoin="round" stroke-width=".732" d="M449.227 297.846s-1.912 24.356-7.782 36.461c-5.871 12.106-22.086 25.39-21.128 31.845"/>
    <path fill="#2E2C29" d="M440.786 355.088c.077.523-4.153 7.214-16.6 2.464l16.6-2.464Z"/>
    <path stroke="#fff" stroke-linecap="round" stroke-linejoin="round" stroke-width=".732" d="M440.786 355.088c.077.523-4.153 7.214-16.6 2.464"/>
    <path fill="#2E2C29" d="M423.014 338.662s-.381 11.927 3.963 15.326l-3.963-15.326Z"/>
    <path stroke="#fff" stroke-linecap="round" stroke-linejoin="round" stroke-width=".732" d="M423.014 338.662s-.381 11.927 3.963 15.326"/>
    <path fill="#2E2C29" d="M453.651 301.291s-.489 4.507-5.482 5.973l5.482-5.973Z"/>
    <path stroke="#fff" stroke-linecap="round" stroke-linejoin="round" stroke-width=".732" d="M453.651 301.291s-.489 4.507-5.482 5.973"/>
    <path fill="#2E2C29" stroke="#fff" stroke-linecap="round" stroke-linejoin="round" stroke-width=".732" d="M163.32 485.59c44.058-3.615 79.015-15.805 78.077-27.227-.937-11.423-37.413-17.752-81.471-14.137-44.058 3.615-79.014 15.805-78.077 27.228.938 11.422 37.413 17.751 81.471 14.136Zm-96.407-45.019 381.03-31.263c.574-.994 6.604-11.832 1.399-22.708-4.613-9.637-16.077-15.189-27.883-12.935 1.399-21.612-5.368-42.564-19.765-50.934-21.27-12.365-62.072 1.059-80.932 42.886.004-26.459-18.962-45.563-42.47-53.783-31.249-8.309-45.449 16.852-52.049 23.843-9.604-8.968-24.619-19.928-45.177-24.927-23.729-5.77-64.893-6.041-78.621 18.05-4.872 8.549-5.042 17.98-4.082 25.344-22.475-5.267-45.396 6.441-53.973 26.9-9.187 21.915.42 48.295 22.523 59.527Z"/>
    <path fill="#2E2C29" stroke="#fff" stroke-linecap="round" stroke-linejoin="round" stroke-width=".732" d="m281.016 275.848-25.922 2.127 4.431 54.004 25.922-2.127-4.431-54.004Z"/>
    <path fill="url(#c)" stroke="#fff" stroke-linecap="round" stroke-linejoin="round" stroke-width=".732" d="m288.471 324.29-32.833 2.694-91.267 50.741 28.364-2.327 80.54-34.88 85.148 21.285 28.365-2.327-98.317-35.186Z"/>
    <path fill="#2E2C29" stroke="#fff" stroke-linecap="round" stroke-linejoin="round" stroke-width=".732" d="m415.988 357.08-306.744 25.168 4.011 48.879 306.743-25.168-4.01-48.879Z"/>
    <path stroke="#fff" stroke-linecap="round" stroke-linejoin="round" stroke-width=".732" d="m355.592 367.998 3.077 37.501"/>
    <path fill="url(#d)" stroke="#fff" stroke-linecap="round" stroke-linejoin="round" stroke-width=".732" d="m419.999 405.957-306.743 25.168.46 5.605 306.743-25.169-.46-5.604Z"/>
    <path stroke="#fff" stroke-linecap="round" stroke-linejoin="round" stroke-width=".732" d="m209.34 379.998 3.077 37.501m-54.896-33.251 3.077 37.501M49.402 442.01l417.632-34.267"/>
    <path fill="#2E2C29" stroke="#fff" stroke-linecap="round" stroke-linejoin="round" stroke-width=".732" d="m393.66 83.69-284.381 23.333a6.884 6.884 0 0 0-6.298 7.424l13.959 170.132a6.885 6.885 0 0 0 7.425 6.298l284.38-23.333a6.885 6.885 0 0 0 6.298-7.425L401.084 89.988a6.884 6.884 0 0 0-7.424-6.299Z"/>
    <path fill="#2E2C29" stroke="#fff" stroke-linecap="round" stroke-linejoin="round" stroke-width=".732" d="m394.072 104.692 11.656 142.057a13.246 13.246 0 0 1-12.118 14.285l-48.245 3.958-13.822-168.457 48.245-3.958a13.246 13.246 0 0 1 14.284 12.115Z"/>
    <path fill="#2E2C29" stroke="#fff" stroke-linecap="round" stroke-linejoin="round" stroke-width=".732" d="m334.364 130.886-220.335 18.079 6.358 77.483 220.335-18.079-6.358-77.483Z"/>
    <path stroke="#fff" stroke-dasharray="16.01 16.01" stroke-linecap="round" stroke-linejoin="round" stroke-width=".732" d="m327.666 136.384-205.912 16.895 5.482 66.82 205.913-16.896-5.483-66.819Z"/>
    <path fill="#2E2C29" stroke="#fff" stroke-linecap="round" stroke-linejoin="round" stroke-width=".732" d="m331.544 96.535 2.818 34.349-220.335 18.079-1.735-21.151a13.247 13.247 0 0 1 7.147-12.863 13.27 13.27 0 0 1 4.968-1.419l207.137-16.995Zm9.176 111.834 4.646 56.625-207.137 16.995a13.25 13.25 0 0 1-9.651-3.101 13.235 13.235 0 0 1-4.63-9.017l-3.563-43.424 220.335-18.078Zm28.297-43.887c6.097-.5 10.635-5.849 10.135-11.946-.501-6.098-5.849-10.636-11.947-10.135-6.098.5-10.635 5.849-10.135 11.946.5 6.098 5.849 10.636 11.947 10.135Zm-75.176 23.426c6.098-.5 10.635-5.849 10.135-11.947-.5-6.097-5.849-10.635-11.947-10.134-6.098.5-10.635 5.849-10.135 11.946.501 6.098 5.849 10.636 11.947 10.135Z"/>
    <path fill="#2E2C29" stroke="#fff" stroke-linecap="round" stroke-linejoin="round" stroke-width=".732" d="M246.38 132.736c6.098-.5 10.635-5.849 10.135-11.946-.5-6.098-5.849-10.636-11.947-10.135-6.098.5-10.635 5.849-10.135 11.946.501 6.098 5.849 10.636 11.947 10.135Zm40.344 121.235c6.097-.501 10.635-5.849 10.135-11.947-.501-6.098-5.849-10.635-11.947-10.135-6.098.5-10.635 5.849-10.135 11.947.5 6.097 5.849 10.635 11.947 10.135Z"/>
    <path fill="#fff" d="m243.342 125.802-.052-.638.75-.859c1.81-2.029 2.615-3.094 2.532-4.254-.064-.78-.502-1.47-1.649-1.376a2.63 2.63 0 0 0-1.578.784l-.391-.706a3.387 3.387 0 0 1 2.111-.959c1.655-.135 2.446.942 2.536 2.042.116 1.418-.818 2.649-2.309 4.343l-.568.617.002.024 3.451-.283.071.863-4.906.402Zm47.694 53.887a3.493 3.493 0 0 0 1.742.345c1.336-.11 1.68-.995 1.615-1.632-.1-1.075-1.107-1.457-2.112-1.374l-.579.047-.064-.78.579-.047c.757-.063 1.682-.531 1.608-1.441-.051-.615-.485-1.127-1.443-1.048a2.83 2.83 0 0 0-1.495.634l-.334-.734a3.666 3.666 0 0 1 1.961-.756c1.513-.124 2.273.718 2.349 1.652.065.792-.352 1.504-1.27 1.925l.002.023c.961.112 1.788.758 1.876 1.834.101 1.229-.768 2.384-2.613 2.535a3.929 3.929 0 0 1-2.04-.356l.218-.827Zm77.116-29.143-.024.002-1.277.831-.266-.776 1.605-1.036.887-.072.63 7.683-1.004.083-.551-6.715Zm-81.262 96.165-.172-2.092-3.57.293-.056-.686 3.025-5.187 1.124-.092.392 4.776 1.075-.089.067.816-1.076.088.172 2.093-.981.08Zm-.239-2.908-.21-2.565a21.18 21.18 0 0 1-.064-1.209l-.035.003c-.2.469-.362.815-.545 1.187l-1.666 2.767.002.024 2.518-.207Z"/>
    <path stroke="#fff" stroke-dasharray="16.01 16.01" stroke-linecap="round" stroke-linejoin="round" stroke-width=".732" d="m334.204 216.07-205.913 16.895 3.515 42.837 205.912-16.895-3.514-42.837Z"/>
    <path fill="#fff" stroke="#fff" stroke-linecap="round" stroke-linejoin="round" stroke-width=".732" d="M187.604 181.672s-2.426-.769 1.591-3.191c4.016-2.423 9.287 4.231 9.331 6.725.043 2.493-6.736 7.238-6.736 7.238l-4.186-10.772Z"/>
    <path fill="#E9A394" d="M199.316 166.568s-4.203-3.118-6.003 2.426c-1.801 5.545-4.311 12.496-4.311 12.496s3.927 5.179 6.128 4.515c10.1-5.521 4.186-19.437 4.186-19.437Z"/>
    <path fill="#2E2C29" stroke="#fff" stroke-linecap="round" stroke-linejoin="round" stroke-width=".732" d="m198.789 145.265 56.23.219-3.801 42.034-54.567-3.416 2.138-38.837Z"/>
    <path fill="#2E2C29" stroke="#fff" stroke-linecap="round" stroke-linejoin="round" stroke-width=".732" d="m228.314 163.906 13.654-9.094 1.248 1.468-15.102 9.817s-.568-.96.2-2.191Z"/>
    <path fill="url(#e)" d="M149.963 179.074s-33.789 38.776-24.07 55.618c6.097 9.528 21.192-2.343 21.192-2.343l2.878-53.275Z"/>
    <path fill="#E9A394" d="m187.386 449.729.315-2.637s-13.336-.561-14.949.399c0 0-.556 1.449-1.201 3.585 4.936 1.224 10.726.211 15.835-1.347Z"/>
    <path fill="#12191C" d="M198.534 451.516c-4.913.001-11.406.372-11.406.372l.258-2.162c-5.109 1.559-10.899 2.571-15.835 1.347-1.679 5.565-3.955 15.801 1.463 17.277 7.497 2.043 25.439-5.067 31.011-9.794 1.77-1.997-.577-7.04-5.491-7.04Z"/>
    <path fill="#E9A394" d="m128.494 452.316.566-4.107s-11.299-2.95-13.131-2.541a54.118 54.118 0 0 0-3.252 5.136c4.76 3.189 10.423 3.064 15.817 1.512Z"/>
    <path fill="#12191C" d="M139.169 457.535c-4.668-1.532-10.954-3.204-10.954-3.204l.278-2.016c-5.393 1.553-11.057 1.678-15.816-1.511-2.69 4.826-5.473 11.693-1.447 14.349 6.487 4.279 24.192 3.536 30.96.784 2.304-1.347 1.647-6.87-3.021-8.402Z"/>
    <path fill="#455A64" d="M204.201 258.469s-50.739.055-59.198 7.394c-8.459 7.339-20.945 43.642-8.448 92.877-14.257 29.441-22.692 88.609-22.692 88.609s11.146 5.287 15.508 3.479c5.693-10.132 31.869-65.117 40.32-121.145 7.765-34.949 13.445-51.121 13.445-51.121"/>
    <path fill="#455A64" d="M173.533 257.242c.48-.039 36.626.001 37.61 1.8.984 1.799 6.07 52.005 2.169 83.979-3.9 31.974-22.36 105.415-22.36 105.415s-17.911 3.564-20.773.093c-.213-10.453 6.273-78.643 11.54-89.062-2.96-10.55-19.84-42.458-15.325-66.986"/>
    <path fill="#E9A394" stroke="#fff" stroke-linecap="round" stroke-linejoin="round" stroke-width=".732" d="M145.126 268.498s5.76 2.806 19.528 1.906c13.769-.901 31.091-5.907 37.215-6.562 6.124-.655 9.761-2.334 9.761-2.334l-.399-4.871-66.453 7.618-1.046 2.898 1.394 1.345Z"/>
    <path fill="url(#f)" d="M159.699 174.046s-10.437-2.043-19.141 17.035c-8.704 19.079-1.411 71.157 4.444 74.784 5.855 3.627 27.656 2.805 35.568.585 7.913-2.219 23.255-3.72 28.086-5.204 4.832-1.484 5.197-13.233 3.73-23.744-1.466-10.512-4.709-50.995-31.17-61.838-13.453-4.937-21.517-1.618-21.517-1.618Z"/>
    <path fill="url(#g)" d="M169.512 196.439s10.766 46.312 45.556 33.957c29.936-10.632 18.794-56.112 18.794-56.112s-.146-.793-2.386-.609c-2.24.184-8.511-1.638-8.222 1.883.289 3.52.37 24.078-8.581 26.954-8.952 2.875-14.23-9.73-15.941-11.925"/>
    <path fill="#E9A394" d="M231.99 175.04s5.047-8.186 3.634-10.688c-1.414-2.502-7.397-4.749-8.861-4.911-1.463-.162-5.514 3.473-5.785 4.582-.272 1.11.781 4.608 1.49 5.395.709.788 2.383 5 2.419 5.44.036.44 7.103.182 7.103.182Z"/>
    <path fill="#E9A394" d="M227.24 163.308s-2.387 2.813-.645 4.402c1.741 1.589-.841 3.009-.841 3.009"/>
    <path stroke="#B95D4F" stroke-linecap="round" stroke-linejoin="round" stroke-width=".366" d="M227.24 163.308s-2.387 2.813-.645 4.402c1.741 1.589-.841 3.009-.841 3.009"/>
    <path fill="#2E2C29" stroke="#fff" stroke-linecap="round" stroke-linejoin="round" stroke-width=".732" d="m221.476 167.248-3.089 2.023-1.639 1.625 2.56-.21 3.158-1.266-.99-2.172Z"/>
    <path fill="#E9A394" d="M164.123 164.631s5.296.25 8.419-1.939c6.354-5.998-8.756-26.707-8.756-26.707s-21.997 13.645-21.977 13.885c.02.24 6.141 14.961 6.467 15.015.327.053 4.525 1.159 4.525 1.159s1.453 5.921.587 10.1c2.557 2.69 13.043 2.877 18.355-1.103 1.508-1.252.348-2.133.348-2.133s-3.102-6.835-3.53-8.652"/>
    <path fill="#B95D4F" d="M168.967 165.514s-4.297.153-5.231-.772c4.986-.237 4.842-.254 4.842-.254l.389 1.026Z"/>
    <path fill="#472E05" d="M155.22 152.314s-8.085-6.263-8.341 1.41c-.257 7.672 5.627 4.773 7.774 4.436 0 0 1.422 3.588.505 6.161-.916 2.572-7.437 8.503-10.787 5.959-3.35-2.544-10.032-13.303-10.027-19.127.006-5.825 2.012-10.822 5.829-13.391 3.816-2.568 18.261-7.136 19.221-12.128.424-2.693 3.775-1.115 5.571 2.12 1.795 3.236 4.614 4.212 2.337 6.896-2.276 2.684-12.075 6.951-13.249 7.37.7 5.58 4.534 10.099 3.987 10.305-.547.206-1.988 1.29-2.82-.011Z"/>
    <path fill="#E9A394" d="M195.574 171.002s3.923-.344 3.772 2.75c-.151 3.093-3.199 4.229-3.199 4.229"/>
    <path fill="#2E2C29" stroke="#fff" stroke-linecap="round" stroke-linejoin="round" stroke-width=".732" d="M50.44 284.111c.022.274.056.541.094.807a12.35 12.35 0 1 1 8.65-12.559 11.086 11.086 0 0 0-8.744 11.752Z"/>
    <path fill="url(#h)" stroke="#fff" stroke-linecap="round" stroke-linejoin="round" stroke-width=".732" d="M72.542 282.299a11.09 11.09 0 0 1-22.008 2.62 12.357 12.357 0 0 0 8.65-12.559 11.088 11.088 0 0 1 13.358 9.939Z"/>
    <path fill="#2E2C29" stroke="#fff" stroke-linecap="round" stroke-linejoin="round" stroke-width=".732" d="M373.729 216.858c6.68-.548 11.65-6.407 11.102-13.086-.548-6.68-6.407-11.65-13.086-11.102-6.68.548-11.65 6.407-11.102 13.086.548 6.68 6.407 11.65 13.086 11.102Z"/>
    <path fill="#2E2C29" stroke="#fff" stroke-linecap="round" stroke-linejoin="round" stroke-width=".732" d="m379.676 209.628-12.992 1.066s-.244-1.493.508-1.919c.753-.425.746-7.871 2.9-8.956l.858-.433a1.422 1.422 0 0 1-.066-1.161 1.457 1.457 0 0 1 .887-.863 1.45 1.45 0 0 1 1.853 1.804l.917.288c2.3.719 3.508 8.067 4.319 8.363.812.298.816 1.811.816 1.811Z"/>
    <path fill="#fff" stroke="#fff" stroke-linecap="round" stroke-linejoin="round" stroke-width=".732" d="M375.258 209.991a2.085 2.085 0 0 1-4.158.341l4.158-.341Z"/>
    <path fill="#2E2C29" stroke="#fff" stroke-linecap="round" stroke-linejoin="round" stroke-width=".732" d="m365.936 381.107-2.122.174.821 10 2.121-.174-.82-10Zm-148.537 12.188-2.122.174.821 10 2.121-.174-.82-10Zm-53.623 4.398-2.122.174.821 10 2.121-.174-.82-10Z"/>
    <path fill="url(#i)" stroke="#fff" stroke-linecap="round" stroke-linejoin="round" stroke-width=".732" d="m382.513 106.518-38.183 3.132.756 9.213 38.182-3.133-.755-9.212Z"/>
    <path fill="url(#j)" stroke="#fff" stroke-linecap="round" stroke-linejoin="round" stroke-width=".732" d="m393.878 245.023-38.183 3.133.756 9.212 38.183-3.132-.756-9.213Z"/>
    <path fill="url(#k)" stroke="#fff" stroke-linecap="round" stroke-linejoin="round" stroke-width=".732" d="m392.29 225.689-38.183 3.133.756 9.212 38.183-3.132-.756-9.213Z"/>
    <path fill="#2E2C29" stroke="#fff" stroke-linecap="round" stroke-linejoin="round" stroke-width=".732" d="m468.737 254.688-5.28-1.036a1.735 1.735 0 0 0-1.546.461l-3.847 3.762a1.742 1.742 0 0 1-1.788.396 1.729 1.729 0 0 1-1.146-1.427l-.646-5.342a1.729 1.729 0 0 0-.917-1.328l-4.766-2.497a1.729 1.729 0 0 1-.929-1.577 1.73 1.73 0 0 1 1.003-1.531l4.881-2.265a1.731 1.731 0 0 0 .98-1.283l.901-5.305a1.73 1.73 0 0 1 2.979-.889l3.663 3.942a1.728 1.728 0 0 0 1.522.535l5.324-.782a1.736 1.736 0 0 1 1.679.73 1.737 1.737 0 0 1 .088 1.829l-2.617 4.701a1.737 1.737 0 0 0-.039 1.613l2.389 4.822a1.73 1.73 0 0 1-.176 1.822 1.737 1.737 0 0 1-1.712.649ZM97.38 201.281l-27.62 2.266 2.266 27.62 27.62-2.266-2.266-27.62Z"/>
    <path stroke="#fff" stroke-linecap="round" stroke-linejoin="round" stroke-width=".732" d="m83.955 207.131 1.492 18.182m-9.803-8.346 17.89-1.468"/>
    <path fill="#2E2C29" stroke="#fff" stroke-linecap="round" stroke-linejoin="round" stroke-width=".732" d="M453.974 147.691c9.741-.799 16.991-9.345 16.192-19.087-.8-9.742-9.345-16.991-19.087-16.192-9.742.799-16.992 9.345-16.192 19.087.799 9.742 9.345 16.991 19.087 16.192Z"/>
    <path fill="url(#l)" stroke="#fff" stroke-linecap="round" stroke-linejoin="round" stroke-width=".732" d="m462.247 127.3-1.724.142.881 10.744-5.532.454-.438-5.339a2.424 2.424 0 0 0-1.669-2.106 2.423 2.423 0 0 0-2.584.739 2.419 2.419 0 0 0-.564 1.762l.438 5.339-5.534.454-.882-10.744-2.152.177 8.932-10.303 10.828 8.681Z"/>
  </g>
  <defs>
    <linearGradient id="b" x1="425.923" x2="543.453" y1="368.667" y2="362.82" gradientUnits="userSpaceOnUse">
      <stop stop-color="#FB8D48"/>
      <stop offset=".2" stop-color="#ED7136"/>
      <stop offset=".4" stop-color="#C54E47"/>
      <stop offset=".4" stop-color="#C14F49"/>
      <stop offset=".6" stop-color="#9D3863"/>
      <stop offset=".8" stop-color="#5E1F72"/>
    </linearGradient>
    <linearGradient id="c" x1="166.232" x2="385.219" y1="352.942" y2="356.926" gradientUnits="userSpaceOnUse">
      <stop stop-color="#FB8D48"/>
      <stop offset=".2" stop-color="#ED7136"/>
      <stop offset=".4" stop-color="#C54E47"/>
      <stop offset=".4" stop-color="#C14F49"/>
      <stop offset=".6" stop-color="#9D3863"/>
      <stop offset=".8" stop-color="#5E1F72"/>
    </linearGradient>
    <linearGradient id="d" x1="118.789" x2="273.473" y1="433.1" y2="572.441" gradientUnits="userSpaceOnUse">
      <stop stop-color="#FB8D48"/>
      <stop offset=".2" stop-color="#ED7136"/>
      <stop offset=".4" stop-color="#C54E47"/>
      <stop offset=".4" stop-color="#C14F49"/>
      <stop offset=".6" stop-color="#9D3863"/>
      <stop offset=".8" stop-color="#5E1F72"/>
    </linearGradient>
    <linearGradient id="e" x1="127" x2="128.591" y1="231.15" y2="204.558" gradientUnits="userSpaceOnUse">
      <stop stop-color="#FB8D48"/>
      <stop offset=".2" stop-color="#ED7136"/>
      <stop offset=".4" stop-color="#C54E47"/>
      <stop offset=".4" stop-color="#C14F49"/>
      <stop offset=".6" stop-color="#9D3863"/>
      <stop offset=".8" stop-color="#5E1F72"/>
    </linearGradient>
    <linearGradient id="f" x1="180.691" x2="185.597" y1="185.276" y2="258.782" gradientUnits="userSpaceOnUse">
      <stop offset=".143" stop-color="#5E1F72"/>
      <stop offset=".502" stop-color="#9D3863"/>
      <stop offset=".723" stop-color="#C14F49"/>
      <stop offset=".897" stop-color="#ED7136"/>
      <stop offset="1" stop-color="#FB8D48"/>
    </linearGradient>
    <linearGradient id="g" x1="189" x2="237.878" y1="199.15" y2="191.492" gradientUnits="userSpaceOnUse">
      <stop offset=".139" stop-color="#5E1F72"/>
      <stop offset=".422" stop-color="#9D3863"/>
      <stop offset=".6" stop-color="#C14F49"/>
      <stop offset=".664" stop-color="#C54E47"/>
      <stop offset=".8" stop-color="#ED7136"/>
      <stop offset="1" stop-color="#FB8D48"/>
    </linearGradient>
    <linearGradient id="h" x1="50.725" x2="72.525" y1="282.544" y2="281.179" gradientUnits="userSpaceOnUse">
      <stop stop-color="#FB8D48"/>
      <stop offset=".2" stop-color="#ED7136"/>
      <stop offset=".4" stop-color="#C54E47"/>
      <stop offset=".4" stop-color="#C14F49"/>
      <stop offset=".6" stop-color="#9D3863"/>
      <stop offset=".8" stop-color="#5E1F72"/>
    </linearGradient>
    <linearGradient id="i" x1="345.32" x2="382.987" y1="113.562" y2="113.5" gradientUnits="userSpaceOnUse">
      <stop stop-color="#FB8D48"/>
      <stop offset=".2" stop-color="#ED7136"/>
      <stop offset=".4" stop-color="#C54E47"/>
      <stop offset=".4" stop-color="#C14F49"/>
      <stop offset=".6" stop-color="#9D3863"/>
      <stop offset=".8" stop-color="#5E1F72"/>
    </linearGradient>
    <linearGradient id="j" x1="356.685" x2="394.352" y1="252.068" y2="252.005" gradientUnits="userSpaceOnUse">
      <stop stop-color="#FB8D48"/>
      <stop offset=".2" stop-color="#ED7136"/>
      <stop offset=".4" stop-color="#C54E47"/>
      <stop offset=".4" stop-color="#C14F49"/>
      <stop offset=".6" stop-color="#9D3863"/>
      <stop offset=".8" stop-color="#5E1F72"/>
    </linearGradient>
    <linearGradient id="k" x1="355.097" x2="392.764" y1="232.734" y2="232.671" gradientUnits="userSpaceOnUse">
      <stop stop-color="#FB8D48"/>
      <stop offset=".2" stop-color="#ED7136"/>
      <stop offset=".4" stop-color="#C54E47"/>
      <stop offset=".4" stop-color="#C14F49"/>
      <stop offset=".6" stop-color="#9D3863"/>
      <stop offset=".8" stop-color="#5E1F72"/>
    </linearGradient>
    <linearGradient id="l" x1="442.766" x2="462.28" y1="128.106" y2="126.876" gradientUnits="userSpaceOnUse">
      <stop stop-color="#FB8D48"/>
      <stop offset=".2" stop-color="#ED7136"/>
      <stop offset=".4" stop-color="#C54E47"/>
      <stop offset=".4" stop-color="#C14F49"/>
      <stop offset=".6" stop-color="#9D3863"/>
      <stop offset=".8" stop-color="#5E1F72"/>
    </linearGradient>
    <clipPath id="a">
      <path fill="#fff" d="M0 43.23 524.994.15l43.079 524.994-524.994 43.08z"/>
    </clipPath>
  </defs>
</svg>
