<svg xmlns="http://www.w3.org/2000/svg" width="505" height="505" fill="none" viewBox="0 0 505 505">
  <path fill="#EBEBEB" d="M505 386.223H0v.252h505v-.252Zm-50.598 16.256h-33.453v.252h33.453v-.252Zm-119.868 2.742h-8.78v.252h8.78v-.252Zm85.401-12.121h-19.384v.252h19.384v-.252ZM96.61 394.797H52.983v.252H96.61v-.252Zm15.388 0h-6.396v.252h6.396v-.252Zm115.4 4.265h-94.613v.253h94.613v-.253Zm11.987-57.883H44.355a5.772 5.772 0 0 1-5.765-5.765V61.267a5.772 5.772 0 0 1 5.765-5.765h195.03a5.772 5.772 0 0 1 5.764 5.765v274.147a5.772 5.772 0 0 1-5.764 5.765ZM44.355 55.756a5.518 5.518 0 0 0-5.513 5.512v274.147a5.518 5.518 0 0 0 5.513 5.512h195.03a5.517 5.517 0 0 0 5.511-5.512V61.267a5.518 5.518 0 0 0-5.511-5.513l-195.03.002Zm413.489 285.423H262.815a5.771 5.771 0 0 1-5.764-5.765V61.267a5.771 5.771 0 0 1 5.764-5.765h195.029a5.772 5.772 0 0 1 5.765 5.765v274.147a5.771 5.771 0 0 1-5.765 5.765ZM262.815 55.756a5.518 5.518 0 0 0-5.512 5.512v274.147a5.518 5.518 0 0 0 5.512 5.512h195.029a5.517 5.517 0 0 0 5.512-5.512V61.267a5.518 5.518 0 0 0-5.512-5.513l-195.029.002Z"/>
  <path fill="#E86B31" fill-opacity=".5" d="M387.934 196.781a5.312 5.312 0 0 1 5.311-5.312c.53 0 1.043.08 1.525.226a11.399 11.399 0 0 1-.119-1.632c0-6.211 5.036-11.247 11.247-11.247.708 0 1.4.069 2.072.194 1.728-2.829 4.836-4.725 8.394-4.725 5.385 0 9.755 4.328 9.834 9.694.055-.001.11-.008.164-.008a9.06 9.06 0 1 1 0 18.121h-33.274l.007-.007a5.306 5.306 0 0 1-5.161-5.304ZM90.348 172.792a5.313 5.313 0 0 1 6.836-5.087 11.257 11.257 0 0 1-.119-1.63c0-6.211 5.036-11.247 11.248-11.247.708 0 1.399.068 2.071.194 1.729-2.829 4.836-4.725 8.395-4.725 5.385 0 9.755 4.328 9.835 9.694.054-.001.108-.008.163-.008a9.06 9.06 0 1 1 0 18.121H95.503l.007-.008a5.309 5.309 0 0 1-5.162-5.304Zm136.589-76.866H207.57c.052-.465.083-.934.083-1.413 0-7.04-5.708-12.747-12.748-12.747-.157 0-.309.018-.464.023-1.598-4.286-5.715-7.346-10.559-7.346-6.229 0-11.278 5.05-11.278 11.278l.001.025a10.75 10.75 0 0 0-10.234 10.18h-.512c-3.117 0-5.668 2.55-5.668 5.666 0 3.117 2.551 5.667 5.668 5.667h65.078c3.117 0 5.667-2.55 5.667-5.667.001-3.116-2.549-5.666-5.667-5.666Zm143.446 8.092c-3.026-4.827-8.379-8.05-14.497-8.05-6.22 0-11.648 3.33-14.645 8.293a9.153 9.153 0 0 0-2.47-.347 9.169 9.169 0 0 0-9.168 9.169l.001.012h-4.834a4.593 4.593 0 0 0-4.579 4.579 4.592 4.592 0 0 0 4.579 4.578h16.681c3.037 4.771 8.36 7.946 14.435 7.946 4.79 0 9.115-1.974 12.222-5.145.289.023.579.044.874.044 5.848 0 10.59-4.742 10.59-10.591 0-5.373-4.003-9.8-9.189-10.488Z"/>
  <path fill="#F0F0F0" d="M268.485 168.77c-3.026-4.827-8.379-8.049-14.498-8.049-6.219 0-11.648 3.329-14.645 8.292a9.146 9.146 0 0 0-2.469-.347 9.17 9.17 0 0 0-9.169 9.169l.001.012h-4.834a4.592 4.592 0 0 0-4.578 4.579 4.591 4.591 0 0 0 4.578 4.578h16.681c3.038 4.771 8.36 7.946 14.435 7.946 4.791 0 9.116-1.974 12.222-5.145.289.023.579.044.874.044 5.849 0 10.591-4.742 10.591-10.591 0-5.373-4.004-9.801-9.189-10.488Z"/>
  <path fill="#E6E6E6" fill-opacity=".4" d="M57.004 386.072v-48.275h4.128v-23h6.033v-79.974h8.723v-10.319l18.623-8.685v-10.405h2.58v29.409h3.612v79.974h3.611v-42.051h9.803v-21.67h2.736v63.721h7.446v-24.251h4.902v-6.191h11.35v-21.154h6.217v-14.963h7.641v-21.799h2.726v21.799h7.642v14.963h6.217v21.154h11.35v6.191h4.902v24.251h5.813v-30.442h11.351v-65.527h3.612v-7.223h24.25v7.223h5.159v47.468h20.64v4.644h7.738v3.612h-7.738v18.574h21.669v-61.915h4.644v-13.157h10.062v-46.695h2.837v46.695h7.223v13.157h42.349v-4.33h2.579v29.409h3.612v.516h2.17v29.41h3.611v7.997h7.634v-21.67h2.736v51.596h3.045v-21.671h2.736v33.796h1.664v-24.25h4.902v-6.191h11.351v-21.155h6.216v-14.963h7.641v-21.799h2.727v21.799h7.641v14.963h6.216v21.155h11.351v6.191h4.902v23.734h.88v.516h2.427v49.808H57.004Z"/>
  <path fill="#EEA07B" d="m247.926 237.46 1.7 2.104-161.33 128.504 6.873 8.507.942 1.168 161.33-128.504 1.698 2.103 3.022-13.91-14.235.028Z"/>
  <path fill="#EEA07B" d="M64.55 377.055a5.312 5.312 0 0 1 6.838-5.086 11.267 11.267 0 0 1-.12-1.63c0-6.212 5.036-11.248 11.248-11.248.708 0 1.4.069 2.071.194 1.73-2.83 4.836-4.724 8.395-4.724 5.386 0 9.755 4.327 9.835 9.694.054-.001.108-.009.163-.009a9.06 9.06 0 0 1 9.061 9.061 9.06 9.06 0 0 1-9.061 9.061H69.706l.007-.008a5.308 5.308 0 0 1-5.162-5.305Z"/>
  <path fill="#fff" d="M64.55 377.055a5.312 5.312 0 0 1 6.838-5.086 11.267 11.267 0 0 1-.12-1.63c0-6.212 5.036-11.248 11.248-11.248.708 0 1.4.069 2.071.194 1.73-2.83 4.836-4.724 8.395-4.724 5.386 0 9.755 4.327 9.835 9.694.054-.001.108-.009.163-.009a9.06 9.06 0 0 1 9.061 9.061 9.06 9.06 0 0 1-9.061 9.061H69.706l.007-.008a5.308 5.308 0 0 1-5.162-5.305Z" opacity=".8"/>
  <path fill="#EEA07B" d="m402.737 318.867 4.029 4.989-74.989 60.575 16.293 20.17 2.236 2.769 74.988-60.575 4.03 4.988 7.165-32.982-33.752.066Z"/>
  <path fill="#EEA07B" d="M362.196 382.251c-3.026-4.828-8.379-8.05-14.498-8.05-6.219 0-11.649 3.329-14.645 8.292a9.145 9.145 0 0 0-2.469-.346 9.169 9.169 0 0 0-9.169 9.169l.001.012h-4.834a4.591 4.591 0 0 0-4.578 4.578 4.591 4.591 0 0 0 4.578 4.578h16.681c3.037 4.772 8.36 7.946 14.435 7.946 4.791 0 9.116-1.973 12.222-5.145.289.023.579.045.874.045 5.849 0 10.591-4.742 10.591-10.591 0-5.373-4.004-9.8-9.189-10.488Z"/>
  <path fill="#fff" d="M362.196 382.251c-3.026-4.828-8.379-8.05-14.498-8.05-6.219 0-11.649 3.329-14.645 8.292a9.145 9.145 0 0 0-2.469-.346 9.169 9.169 0 0 0-9.169 9.169l.001.012h-4.834a4.591 4.591 0 0 0-4.578 4.578 4.591 4.591 0 0 0 4.578 4.578h16.681c3.037 4.772 8.36 7.946 14.435 7.946 4.791 0 9.116-1.973 12.222-5.145.289.023.579.045.874.045 5.849 0 10.591-4.742 10.591-10.591 0-5.373-4.004-9.8-9.189-10.488Z" opacity=".8"/>
  <path fill="#E4897B" d="m249.615 177.306-1.457-1.534a1.668 1.668 0 0 0-1.525-.49l-2.179.418a1.668 1.668 0 0 0-1.342 1.436l-1.116 9.13 3.38 1.295c4.113-1.789 3.9-7.224 3.9-7.224l.592-1.082a1.67 1.67 0 0 0-.253-1.949Z"/>
  <path fill="url(#a)" d="M208.842 204.666s3.235.196 5.133.149c1.913-.026 3.817-.06 5.689-.167 1.864-.12 3.717-.251 5.417-.486.842-.118 1.66-.27 2.304-.446.302-.086.594-.178.729-.233.217-.1-.024.076.099.007.316-.269.929-.999 1.465-1.676a61.145 61.145 0 0 0 1.663-2.232 233.076 233.076 0 0 0 3.305-4.766l6.598-9.789 5.155 2.746c-.758 1.885-1.58 3.702-2.403 5.541a297.456 297.456 0 0 1-2.617 5.447 115.344 115.344 0 0 1-2.883 5.401 70.226 70.226 0 0 1-1.642 2.718c-.612.938-1.174 1.815-2.238 2.974-.573.637-1.622 1.41-2.299 1.743-.745.407-1.385.661-2.02.9-1.24.448-2.363.731-3.469.978-2.203.491-4.301.783-6.39.983-4.185.415-8.201.57-12.395.476l.799-10.268Z"/>
  <path fill="#000" d="M217.769 214.692c-3.242.232-6.433.313-9.726.243l.162-2.121.787-1.859s5.293-.071 8.777 3.737Z" opacity=".1"/>
  <path fill="#000" d="M154.823 385.85s-9.143-6.29-8.583-10.516c.056-.415-.188-.782-.627-.848l-7.751-1.173a1.021 1.021 0 0 0-.962.411l-4.58 6.418 2.058.744 1.104-.775.519 1.362c11.165 4.039 16.034 5.666 18.495 5.769.68-.87.327-1.392.327-1.392Z"/>
  <path fill="#455A64" d="M206.315 267.041s-.465 1.212-1.283 3.313c-.878 2.272-2.171 5.585-3.727 9.524-1.04 2.626-2.191 5.535-3.434 8.595-5.706 14.18-13.079 31.724-17.957 40.582-9.343 16.948-33.684 49.136-33.684 49.136l-9.726-3.555s17.513-33.148 26.351-49.944c2.696-5.121 5.797-12.656 8.868-20.877a557.312 557.312 0 0 0 4.322-12.009 561.585 561.585 0 0 0 1.869-5.424c1.606-4.726 3.111-9.282 4.434-13.342.161-.505.323-1.01.485-1.495.535-1.666 1.04-3.242 1.494-4.696 1.899-5.979 3.081-9.918 3.121-10.07h.01l8.676 4.727 10.181 5.535Z"/>
  <path fill="#000" d="M205.034 270.352c-.879 2.273-2.172 5.586-3.727 9.525-1.04 2.626-2.192 5.534-3.434 8.595-7.939 1.596-16.019 2.676-21.826 3.333a589.88 589.88 0 0 0 1.868-5.424c1.606-4.727 3.111-9.282 4.434-13.342.162-.505.323-1.01.485-1.495.535-1.666 1.04-3.242 1.495-4.696 5.838.798 13.645 1.989 20.705 3.504Z" opacity=".3"/>
  <path fill="url(#b)" d="M175.234 210.042c0 .008.007.015.007.022 1.4 4.699 2.221 10.159 2.68 15.542.353 4.188.488 8.311.506 12.01.014 3.727-.098 7.026-.219 9.552-.163 3.244-.355 5.243-.355 5.243l30.687 1.576c9.208-33.369.304-49.324.304-49.324s-3.824-.386-8.228-.189c-.568.017-1.145.062-1.735.107-3.754.313-9.733 1.5-13.725 2.402-.824.181-1.65.395-2.457.613-4.009 1.094-7.465 2.446-7.465 2.446Z"/>
  <path fill="#000" d="M227.518 333.845s-8.767-6.806-7.964-10.992c.079-.411-.142-.791-.577-.883l-7.67-1.616a1.018 1.018 0 0 0-.984.355l-4.94 6.143 2.011.862 1.147-.709.44 1.389c10.916 4.675 15.682 6.578 18.134 6.823.724-.831.403-1.372.403-1.372Z"/>
  <path fill="#455A64" d="M192.528 280.06c.461.025.717.026.717.026l36.789 5.348-20.942 34.741 10.486 3.991s37.919-40.884 29.448-50.206c-6.967-7.667-41.104-12.331-41.104-12.331l1.12-8.002-31.576-6.217c-13.498 29.548 10.544 32.374 15.062 32.65Z"/>
  <path fill="#263238" d="m177.091 250.55-.669-.129.612-2.128.596.115-.539 2.142Zm24.835 4.806-13.481-2.608.527-2.141 13.424 2.604-.47 2.145Zm1.517-1.942 5.699 1.105-.38 2.16-5.77-1.117.451-2.148Zm-24.774-4.805 9.269 1.798-.547 2.136-9.239-1.787.517-2.147Z"/>
  <path stroke="#fff" stroke-miterlimit="10" stroke-width=".589" d="m198.188 252.817-.304 1.303a.4.4 0 0 1-.46.303l-3.375-.599a.4.4 0 0 1-.318-.491l.338-1.352a.402.402 0 0 1 .465-.296l3.34.647a.401.401 0 0 1 .314.485Z"/>
  <path stroke="#fff" stroke-linecap="round" stroke-linejoin="round" stroke-miterlimit="10" stroke-width=".589" d="m195.39 252.925-1.031-.181"/>
  <path fill="#E4897B" d="m188.335 193.061 8.016 6.643c-.784 3.253.576 6.251 2.156 6.807 0 0 1.171 2.788-1.083 3.258-4.568.952-9.779-3.472-9.779-3.472 2.415-2.598 1.542-9.085.69-13.236Z"/>
  <path fill="#000" d="m191.602 195.771 4.744 3.929c-.188.77-.333 1.55-.382 2.306-1.779-.224-4.237-2.129-4.44-3.983-.102-.926-.07-1.817.078-2.252Z" opacity=".2"/>
  <path fill="#263238" d="M195.411 179.933c1.939 1.209 4.567 4.855 1.308 5.731-3.26.876-4.642-7.808-1.308-5.731Z"/>
  <path fill="#E4897B" d="M185.398 192.389c3.392 4.472 5.15 7.266 9.089 8.066 5.925 1.205 10.234-4.83 8.241-10.24-1.794-4.872-7.038-11.367-12.818-10.135-5.696 1.216-7.903 7.837-4.512 12.309Z"/>
  <path fill="#472E03" d="m186.402 187.521-4.074-4.753s-5.381 3.959-2.938 6.356c-1.612 3.79 4.79 9.08 10.385 7.994.648-3.419-4.336-9.258-4.336-9.258.308-.093.632-.211.963-.339Z"/>
  <path fill="#E4897B" d="M186.186 197.475c1.172.952 2.674 1.268 3.905 1.111 1.851-.235 2.066-2.081.956-3.461-.999-1.244-3.166-2.619-4.739-1.688-1.548.919-1.462 2.949-.122 4.038Z"/>
  <path fill="#263238" d="M193.306 188.906c.252.379.658.551.905.384.247-.168.242-.613-.01-.992-.253-.38-.659-.552-.905-.384-.248.168-.243.611.01.992Zm4.274-2.905c.252.38.658.552.905.384.247-.167.242-.612-.01-.992-.253-.379-.659-.551-.905-.383-.248.167-.244.612.01.991Z"/>
  <g filter="url(#c)">
    <path fill="#E4897B" d="M196.348 187.113s2.285 1.511 3.922 1.887c-.264 1.042-1.592 1.527-1.592 1.527l-2.33-3.414Z"/>
  </g>
  <path fill="#263238" d="M195.161 193.103c-.167.09-.334.195-.504.319a.134.134 0 0 0 .156.218c1.624-1.181 3.191-.595 3.206-.589a.135.135 0 0 0 .097-.252c-.062-.025-1.415-.53-2.955.304Zm-4.779-5.445a.27.27 0 0 0 .241-.124c.65-1.011 1.638-1.037 1.648-1.037a.272.272 0 0 0 .267-.271.266.266 0 0 0-.269-.265c-.053 0-1.291.031-2.097 1.287a.267.267 0 0 0 .08.37c.04.025.085.038.13.04Zm7.25-5.106a.272.272 0 0 0-.328-.343c-1.427.395-1.796 1.573-1.819 1.623a.271.271 0 0 0 .176.338.266.266 0 0 0 .335-.172c.013-.05.309-.953 1.454-1.27a.266.266 0 0 0 .182-.176Z"/>
  <path fill="#472E03" d="M185.437 187.859s10.664-4.48 11.317-9.595c.653-5.114-3.852-3.019-3.852-3.019s2.085-.142 1.881 1.377c0 0-3.601-2.457-7.033-.345 0 0 1.604-.032 2.448 1.158 0 0-3.259.636-6.916 3.347-3.657 2.711-10.225 12.416 2.155 7.077Z"/>
  <path fill="#000" d="m207.92 261.629-17.381-1.996s6.881-1.13 17.763-.731l-.382 2.727Z" opacity=".3"/>
  <path fill="#000" d="M178.086 227.732c-.061-.707-.111-1.414-.172-2.121-.04-.556-.091-1.122-.141-1.677a115.854 115.854 0 0 0-.515-4.222 39.005 39.005 0 0 0-.172-1.141c.465-.374.98-.717 1.525-1.02 0 0 .99 5.1-.525 10.181Z" opacity=".1"/>
  <path fill="#E4897B" d="m149.121 252.545-3.019 7.088 6.539 1.617s2.808-4.658.067-8.21l-3.587-.495Z"/>
  <path fill="#E4897B" d="m146.572 265.097 5.163.038.906-3.885-6.539-1.617.47 5.464Z"/>
  <path fill="url(#d)" d="M178.53 214.948c.45 4.445-1.067 6.252-1.067 6.252s-4.305 2.704-6.173 4.09a135.443 135.443 0 0 0-4.619 3.629 46.11 46.11 0 0 0-2.079 1.844c-.638.606-1.236 1.238-1.614 1.726-.168.195-.338.512-.519.795-.184.297-.376.742-.575 1.101a46.162 46.162 0 0 0-1.158 2.582 110.19 110.19 0 0 0-2.124 5.594c-1.399 3.797-2.702 7.711-4.043 11.561l-5.965-1.418c.607-4.191 1.426-8.275 2.371-12.412a114.847 114.847 0 0 1 1.686-6.214 55.167 55.167 0 0 1 1.078-3.204c.241-.574.435-1.092.737-1.707.318-.624.611-1.234 1.049-1.879.808-1.208 1.601-2.119 2.399-2.998a53.604 53.604 0 0 1 2.406-2.442c1.606-1.542 3.254-2.947 4.924-4.3 3.343-2.717 6.7-5.2 10.297-7.599 0 0 2.582.976 2.989 4.999Z"/>
  <path fill="#EEA07B" d="m192.089 208.989 2.246 3.528s-7.83 9.49-22.816 12.621l-.999 3.05 3.186.835s16.185-4.189 22.643-16.329l3.336-3.716-3.932-1.32-3.664 1.331Z"/>
  <path fill="url(#e)" d="m184.832 206.864 3.649-3.192 7.271 3.987.84-4.36 3.839 2.209 1.099 5.639-5.357-2.318-4.794 4.275-6.547-6.24Z"/>
  <path fill="#EEA07B" d="M285.01 143.693s-6.792 8.425-13.684 7.725c-6.892-.699-10.415 2.098-10.415 2.098l-.673 3.362 3.696-.499s0-2.664 7.192-2.364c7.192.3 12.586-5.884 14.683-8.686l-.799-1.636Z"/>
  <path fill="url(#f)" d="m333.798 129.692-.144-.662c-.072-.263-.033-.297-.282-.952a6.456 6.456 0 0 0-1.646-2.396c-1.216-1.086-2.217-1.47-3.089-1.815-1.729-.612-3.105-.804-4.468-.971a44.42 44.42 0 0 0-3.887-.254c-2.514-.072-4.937.053-7.339.203-4.817.319-9.449.887-14.213 1.71l1.734 9.951c4.355-.694 8.896-1.329 13.29-1.785a94.984 94.984 0 0 1 6.509-.429 35.704 35.704 0 0 1 3.037.035c.669.04 1.332.115 1.829.201.031.343.044.717.032 1.115-.063 1.717-.494 3.727-1.081 5.73-1.185 4.023-3.045 8.201-4.97 12.105l4.793 3.197c3.062-3.873 5.582-7.896 7.669-12.523.997-2.334 1.878-4.796 2.278-7.686.193-1.448.262-3.027-.052-4.774Z"/>
  <path fill="#000" d="M320.031 132.297a97.5 97.5 0 0 0-6.282.424c-4.263.444-8.646 1.05-12.878 1.727 1.545-3.797 3.131-7.636 3.131-7.636s7.07.677 16.029 5.485Zm12.051 8.626c-.162.414-.334.828-.505 1.232-2.091 4.626-4.616 8.645-7.676 12.514l-4.788-3.192c1.919-3.909 3.778-8.08 4.969-12.11.404-1.384.738-2.777.92-4.07a56.879 56.879 0 0 1 7.08 5.626Z" opacity=".1"/>
  <path fill="#263238" d="M267.535 131.692c.275.349.314.779.085.958-.228.181-.637.044-.913-.306-.275-.349-.314-.778-.085-.958.228-.18.637-.044.913.306Z"/>
  <path fill="#DE5753" d="M267.883 132.445s.797 2.642.691 4.305c1.073.089 1.915-1.005 1.915-1.005l-2.606-3.3Z"/>
  <path fill="#263238" d="M267.281 128.743a.26.26 0 0 0-.211-.43c-1.444.063-2.069 1.095-2.096 1.14a.261.261 0 0 0 .45.267c.02-.035.517-.834 1.669-.885a.259.259 0 0 0 .188-.092Z"/>
  <path fill="#E4897B" d="M277.594 126.289c3.337 2.405 9.727 6.211 13.353 4.768 0 0 3.259 2.713.128 9.528-3.443 7.493-5.365 1.871-5.365 1.871.903-4.538-2.179-5.828-5.357-6.424l-2.759-9.743Z"/>
  <path fill="#E4897B" d="M278.594 121.753c3.125 4.497 5.182 6.97 4.754 10.882-.642 5.885-7.487 8.102-11.892 4.63-3.966-3.126-8.409-9.955-5.559-14.977 2.807-4.948 9.572-5.032 12.697-.535Z"/>
  <path fill="#472E03" d="M283.616 129.174c-.468 2.548-9.045 6.035-12.938.54 0 0-4.884-.039-7.822-2.983-2.938-2.945-2.308-6.138.325-7.875 2.321-1.531 8.32-12.811 15.308-4.761 7.585-.31 5.712 11.898 5.127 15.079Z"/>
  <path fill="#472E03" d="M269.125 117.641s-4.505-.218-7.101 1.847c-2.597 2.064-1.865 8.397-.866 9.593.999 1.194 2.065 1.194 2.065 1.194s-1.532-.793-1.532-1.962c0 0 .666 1.563 3.729 1.962 0 0-.873-.697-.736-1.58 0 0 1.66 2.148 5.494 0 3.831-2.148-1.053-11.054-1.053-11.054Z"/>
  <path fill="#E4897B" d="M272.956 128.768c.828 1.171 1.151 2.638 1.076 3.825-.111 1.786-1.606 1.927-2.781.8-1.058-1.014-2.275-3.165-1.584-4.655.683-1.467 2.342-1.31 3.289.03Z"/>
  <path fill="url(#g)" d="M281.925 143.696s-.84-10.169 5.8-15.88l7.906.725s-4.556 11.119-13.706 15.155Z"/>
  <path fill="url(#h)" d="M304.714 166.566s-11.957-11.74-25.175-19.958c0 0 8.806-20.671 19.954-22.516 0 0 28.819 8.703 37.181 32.288l-31.96 10.186Z"/>
  <path fill="#E4897B" d="m306.236 238.181-5.161 2.189-5.583-11.729 5.159-2.19 5.585 11.73Z"/>
  <path fill="#455A64" d="m336.677 156.379-3.044 32.286c-1.673 1.238-4.338 2.2-7.555 2.951-6.3 1.466-14.705 2.132-21.964 2.521-8.152.444-14.848.529-15.453.998-1.418 1.103 16.533 38.178 16.533 38.178l-8.568 1.067s-22.517-30.882-25.432-41.611c-1.073-3.96-2.155-8.92 5.117-13.555 6.401-4.08 30.239-7.143 30.239-7.143l-1.834-5.507 31.961-10.185Z"/>
  <path fill="#000" d="M326.08 191.616c-6.299 1.467-14.704 2.132-21.963 2.521-.983-11.914 5.012-23.346 5.012-23.346l8.526-2.187 8.425 23.012Z" opacity=".2"/>
  <path fill="#E4897B" d="m381.367 233.426.913 5.53-12.716 2.664-.912-5.53 12.715-2.664Z"/>
  <path fill="#EEA07B" d="M382.55 239.16a.133.133 0 0 0-.23.094c.003.096.08 2.35.785 3.01a.66.66 0 0 0 .485.195c.316-.01.446-.165.5-.295.152-.367-.127-1.011-.504-1.624a9.975 9.975 0 0 0-1.036-1.38Zm.058.469c.672.81 1.408 2.021 1.236 2.433-.022.054-.073.126-.263.133a.406.406 0 0 1-.295-.125 1 1 0 0 1-.161-.203c-.343-.557-.471-1.655-.517-2.238Z"/>
  <path fill="#EEA07B" d="M382.508 239.128a.13.13 0 0 0-.132.016c-.051.039-1.257.959-1.381 1.873a.972.972 0 0 0 .192.747c.223.291.435.283.575.226.593-.246.923-2.022.827-2.757a.175.175 0 0 0-.019-.053.144.144 0 0 0-.062-.052Zm-1.251 1.926c.082-.6.747-1.245 1.084-1.537.009.805-.325 2.08-.681 2.227-.029.013-.117.049-.262-.142a.709.709 0 0 1-.141-.548Z"/>
  <path fill="#000" d="m381.591 239.082-3.21-5.212a.488.488 0 0 1 .076-.607l3.661-3.555a.815.815 0 0 1 1.272.164c1.126 1.9 2.689 4.684 4.144 7.046 1.702 2.764 3.322 5.057 5.318 8.297 1.207 1.959-.44 3.722-1.124 3.012-3.115-3.23-5.081-6.224-9.056-8.225-.433-.217-.826-.508-1.081-.92Z"/>
  <path fill="#455A64" d="M336.678 156.379s10.266 26.393-7.055 36.635c0 0-.22 30.497 4.158 34.071 5.328 4.349 44.348 6.562 44.348 6.562l-.339 9.69s-41.774 3.419-54.421-1.118c-14.81-5.314-18.107-75.196-18.107-75.196l31.416-10.644Z"/>
  <path fill="#000" d="m324.809 172.582 6.235-1.887s.858 5.365.846 8.237l-2.892 2.483-2.736-.871s-.747-5.735-1.453-7.962Z" opacity=".2"/>
  <path fill="#263238" d="m306.772 166.586.807 2.565-2.306.715-.812-2.543 2.311-.737Zm10.643-3.414.869 2.661-9.55 2.961-.843-2.57 9.524-3.052Zm11.885-3.807.867 2.785-10.675 3.307-.847-2.677 10.655-3.415Zm8.682.356-6.574 2.038-.007.001-.881-2.789 6.525-2.092.937 2.842Z"/>
  <path fill="#EEA07B" d="M299.494 238.731a.132.132 0 0 0 .102-.111.135.135 0 0 0-.067-.136c-.084-.045-2.069-1.115-2.996-.839a.665.665 0 0 0-.413.32c-.151.278-.082.47.003.581.24.317.937.4 1.656.383a9.7 9.7 0 0 0 1.715-.198Zm-.435-.186c-1.038.172-2.454.197-2.724-.159-.035-.046-.071-.127.019-.294a.401.401 0 0 1 .256-.191.962.962 0 0 1 .255-.037c.655-.016 1.668.426 2.194.681Z"/>
  <path fill="#EEA07B" d="M299.546 238.708a.132.132 0 0 0 .052-.121c-.008-.063-.195-1.569-.922-2.138a.965.965 0 0 0-.741-.21c-.363.045-.464.233-.486.383-.088.636 1.281 1.816 1.965 2.104a.133.133 0 0 0 .132-.018Zm-1.033-2.05c.478.373.698 1.272.781 1.71-.7-.398-1.633-1.329-1.58-1.711.004-.031.017-.125.256-.155a.71.71 0 0 1 .543.156Z"/>
  <path fill="#000" d="m300.044 237.939 6.119-.144a.49.49 0 0 1 .486.372l1.225 4.954a.816.816 0 0 1-.783 1.016c-2.208.015-5.4-.04-8.175.026-3.244.077-6.041.32-9.845.41-2.3.055-2.994-2.256-2.036-2.489 4.361-1.063 7.937-1.251 11.669-3.676.407-.263.858-.457 1.34-.469Z"/>
  <path fill="#000" d="M291.277 154.911a158.532 158.532 0 0 0-4.656-3.514l.626-1.889s2.687 2.262 4.03 5.403Z" opacity=".1"/>
  <path fill="#E4897B" d="m245.103 176-2.202.525a1.4 1.4 0 0 0-1.057 1.138l-.498 3.067a1.4 1.4 0 0 0 .863 1.524l1.61.642s4.648 3.354 8.578 1.188l-1.698-4.495-3.323-3.007a2.518 2.518 0 0 0-2.273-.582Z"/>
  <path fill="url(#i)" d="M285.211 147.423c2.824 1.695 3.071 5.19 3.071 5.19s-2.219 6.02-3.507 9.016c-.875 2.033-1.783 4.073-2.839 6.102-1.092 2.046-2.142 4.052-3.924 6.268l-.348.419-.414.446c-.249.281-.619.615-.978.925-.153.143-.433.339-.668.504-.229.158-.548.37-.641.405l-.855.443c-1.112.561-2.153.998-3.198 1.428-2.076.851-4.13 1.59-6.191 2.298-4.133 1.383-8.244 2.646-12.465 3.71l-2.004-5.402c3.786-1.94 7.646-3.777 11.413-5.671a255.217 255.217 0 0 0 5.569-2.826 57.45 57.45 0 0 0 2.539-1.435l.544-.343c.146-.084.034-.045.024-.039-.022.003-.07.062-.036.012.031-.054.064-.071.156-.204l.121-.151.146-.213c.817-1.188 1.743-3.005 2.542-4.787a124.71 124.71 0 0 0 2.339-5.631c1.467-3.84 2.876-7.845 4.188-11.724-.002.001 2.419-.538 5.416 1.26Z"/>
  <path fill="#984017" d="M100.496 415.428h170.572l90.271-72.919 3.958 4.901h22.234l22.65-104.264-22.243.045.01-.045-106.696.213 12.738 15.768-193.494 156.301Z"/>
  <path fill="url(#j)" d="M100.496 415.428h148.339l103.725-83.786 12.737 15.768 22.651-104.264-106.696.213 12.738 15.768-193.494 156.301Z"/>
  <path fill="#EEA07B" d="M97.025 409.411h122.472a14.195 14.195 0 0 1-.092-1.578c0-7.864 6.375-14.238 14.238-14.238.174 0 .344.02.518.026 1.784-4.788 6.384-8.205 11.793-8.205 6.957 0 12.597 5.64 12.597 12.597l-.001.028a12.01 12.01 0 0 1 11.431 11.37h.573c3.482 0 6.331 2.848 6.331 6.33s-2.848 6.33-6.331 6.33H97.025c-3.482 0-6.33-2.848-6.33-6.33s2.849-6.33 6.33-6.33Z"/>
  <defs>
    <linearGradient id="a" x1="208.71" x2="246.52" y1="197.915" y2="198.855" gradientUnits="userSpaceOnUse">
      <stop offset=".2" stop-color="#5E1F72"/>
      <stop offset=".4" stop-color="#9D3863"/>
      <stop offset=".6" stop-color="#C14F49"/>
      <stop offset=".6" stop-color="#C54E47"/>
      <stop offset=".8" stop-color="#ED7136"/>
      <stop offset="1" stop-color="#FB8D48"/>
    </linearGradient>
    <linearGradient id="b" x1="187.611" x2="188.321" y1="253.335" y2="204.895" gradientUnits="userSpaceOnUse">
      <stop stop-color="#FB8D48"/>
      <stop offset=".2" stop-color="#ED7136"/>
      <stop offset=".4" stop-color="#C54E47"/>
      <stop offset=".4" stop-color="#C14F49"/>
      <stop offset=".6" stop-color="#9D3863"/>
      <stop offset=".8" stop-color="#5E1F72"/>
    </linearGradient>
    <linearGradient id="d" x1="149.116" x2="178.721" y1="228.968" y2="229.358" gradientUnits="userSpaceOnUse">
      <stop stop-color="#FB8D48"/>
      <stop offset=".2" stop-color="#ED7136"/>
      <stop offset=".4" stop-color="#C54E47"/>
      <stop offset=".4" stop-color="#C14F49"/>
      <stop offset=".6" stop-color="#9D3863"/>
      <stop offset=".8" stop-color="#5E1F72"/>
    </linearGradient>
    <linearGradient id="e" x1="193.181" x2="193.181" y1="203.299" y2="213.104" gradientUnits="userSpaceOnUse">
      <stop stop-color="#EEA07B"/>
      <stop offset="1" stop-color="#9C5A76"/>
    </linearGradient>
    <linearGradient id="f" x1="299.344" x2="334.131" y1="136.422" y2="137.164" gradientUnits="userSpaceOnUse">
      <stop offset=".2" stop-color="#5E1F72"/>
      <stop offset=".4" stop-color="#9D3863"/>
      <stop offset=".6" stop-color="#C14F49"/>
      <stop offset=".6" stop-color="#C54E47"/>
      <stop offset=".8" stop-color="#ED7136"/>
      <stop offset="1" stop-color="#FB8D48"/>
    </linearGradient>
    <linearGradient id="g" x1="288.761" x2="288.761" y1="127.816" y2="143.696" gradientUnits="userSpaceOnUse">
      <stop stop-color="#EEA07B"/>
      <stop offset="1" stop-color="#9C5A76"/>
    </linearGradient>
    <linearGradient id="h" x1="280.533" x2="336.851" y1="142.379" y2="143.849" gradientUnits="userSpaceOnUse">
      <stop offset=".2" stop-color="#5E1F72"/>
      <stop offset=".4" stop-color="#9D3863"/>
      <stop offset=".6" stop-color="#C14F49"/>
      <stop offset=".6" stop-color="#C54E47"/>
      <stop offset=".8" stop-color="#ED7136"/>
      <stop offset="1" stop-color="#FB8D48"/>
    </linearGradient>
    <linearGradient id="i" x1="250.911" x2="288.411" y1="162.66" y2="163.378" gradientUnits="userSpaceOnUse">
      <stop stop-color="#FB8D48"/>
      <stop offset=".2" stop-color="#ED7136"/>
      <stop offset=".4" stop-color="#C54E47"/>
      <stop offset=".4" stop-color="#C14F49"/>
      <stop offset=".6" stop-color="#9D3863"/>
      <stop offset=".8" stop-color="#5E1F72"/>
    </linearGradient>
    <linearGradient id="j" x1="105.495" x2="388.736" y1="317.323" y2="326.488" gradientUnits="userSpaceOnUse">
      <stop stop-color="#FB8D48"/>
      <stop offset=".2" stop-color="#ED7136"/>
      <stop offset=".4" stop-color="#C54E47"/>
      <stop offset=".4" stop-color="#C14F49"/>
      <stop offset=".6" stop-color="#9D3863"/>
      <stop offset=".8" stop-color="#5E1F72"/>
    </linearGradient>
    <filter id="c" width="3.922" height="7.414" x="196.348" y="187.113" color-interpolation-filters="sRGB" filterUnits="userSpaceOnUse">
      <feFlood flood-opacity="0" result="BackgroundImageFix"/>
      <feBlend in="SourceGraphic" in2="BackgroundImageFix" result="shape"/>
      <feColorMatrix in="SourceAlpha" result="hardAlpha" values="0 0 0 0 0 0 0 0 0 0 0 0 0 0 0 0 0 0 127 0"/>
      <feOffset dy="4"/>
      <feGaussianBlur stdDeviation="2"/>
      <feComposite in2="hardAlpha" k2="-1" k3="1" operator="arithmetic"/>
      <feColorMatrix values="0 0 0 0 0 0 0 0 0 0 0 0 0 0 0 0 0 0 0.25 0"/>
      <feBlend in2="shape" result="effect1_innerShadow_1391_348748"/>
    </filter>
  </defs>
</svg>
