<svg xmlns="http://www.w3.org/2000/svg" width="505" height="300" fill="none" viewBox="0 0 505 300">
  <g clip-path="url(#a)">
    <path fill="url(#b)" fill-opacity=".12" d="M505 140.039v159.96H0V124.617h19.174v31.148h31.168v-39.086H74.94v16.444h12.788l11.076-11.421H111.4V83.809h35.228v56.23h36v13.549h13.957v-20.452h53.204v22.629h20.348v-31.148h31.039v46.482h1.81v-62.617h27.345v16.135h23.205v31.148h31.155v-39.086h24.599v16.444h12.801l11.076-11.421h12.593V83.809h35.217v56.23H505Z"/>
    <path fill="#BBD070" d="M128.082 89.164s32.532-14.424 45.096 5.125-5.037 18.333-5.037 18.333-.977 9.038-17.595-12.352c-7.831-10.082-22.464-11.105-22.464-11.105v-.001Z"/>
    <path fill="#97A43C" d="M122.406 33.436s28.877-9.241 47.891 28.551c19.013 37.792 36.106 40.779 36.106 40.779s-65.314 12.092-83.997-69.33Z"/>
    <path fill="#48753A" d="M194.397 104.947c-2.529 12.564-30.403-11.664-33.148-33.39-2.744-21.727 2.722-37.67-2.819-51.606 0 0 48.421 23.126 35.968 84.996h-.001Z"/>
    <path fill="#EBEBEB" d="M201.934 42.008a10.87 10.87 0 0 0-3.262.494c-1.334-3.341-4.652-5.709-8.533-5.709-4.315 0-7.933 2.925-8.904 6.862a6.626 6.626 0 0 0-2.408-.45c-3.592 0-6.503 2.855-6.503 6.377h38.773c0-4.183-4.102-7.575-9.162-7.575l-.001.001Zm-57.45 25.198a8.22 8.22 0 0 0-2.486.377c-1.019-2.548-3.548-4.352-6.508-4.352-3.29 0-6.049 2.23-6.789 5.232a5.063 5.063 0 0 0-1.836-.344c-2.739 0-4.959 2.177-4.959 4.864h29.564c0-3.19-3.128-5.776-6.986-5.776v-.001Z"/>
    <path fill="url(#c)" d="M227.638 82.324h-32.371c-2.035 0-3.685 1.702-3.685 3.802v.858c0 2.1 1.65 3.802 3.685 3.802h32.371c2.035 0 3.685-1.702 3.685-3.802v-.858c0-2.1-1.65-3.802-3.685-3.802Z"/>
    <path fill="url(#d)" d="M267.14 85.467h32.373c2.034 0 3.685 1.704 3.685 3.802v.86c0 2.098-1.651 3.801-3.685 3.801h-32.371c-2.034 0-3.685-1.703-3.685-3.802v-.86c0-2.097 1.651-3.8 3.683-3.8v-.001Z"/>
    <path fill="url(#e)" d="m371.126 176.08-20.691 9.705-20.68 9.7-27.081 12.706-57.378 26.917-63.601-49.968-21.63-16.994-17.356-13.63-17.631-13.853c15.92-52.88 63.725-91.284 120.22-91.284 68.491 0 124.207 56.439 125.831 126.702l-.003-.001Z"/>
    <path fill="#fff" d="M350.622 179.24c0 2.199-.064 4.382-.189 6.542l-20.68 9.7-27.081 12.706-57.378 26.917-63.601-49.968-21.63-16.994-17.356-13.63c10.847-48.103 52.661-83.95 102.588-83.95 58.172 0 105.33 48.66 105.33 108.678l-.003-.001Z"/>
    <path fill="url(#f)" d="M331.192 179.242c0 5.547-.497 10.98-1.44 16.243l-27.08 12.705-57.379 26.917-63.601-49.968-21.63-16.994c5.289-43.716 41.431-77.536 85.231-77.536 47.443 0 85.901 39.684 85.901 88.635l-.002-.002Z"/>
    <path fill="#fff" d="M309.157 179.241c0 10.385-2.332 20.211-6.482 28.948l-57.378 26.917-63.601-49.968a66.504 66.504 0 0 1-.258-5.897c0-36.393 28.592-65.887 63.859-65.887s63.86 29.494 63.86 65.887Z"/>
    <path fill="url(#g)" d="M266.153 200.758c11.519-11.885 11.519-31.154 0-43.039-11.519-11.885-30.195-11.885-41.714 0-11.519 11.885-11.519 31.154 0 43.039 11.519 11.884 30.195 11.884 41.714 0Z"/>
    <path fill="url(#h)" d="M218.509 13.735h-25.015c-.723 0-1.31-.606-1.31-1.352 0-.746.587-1.352 1.31-1.352h25.015c.723 0 1.31.604 1.31 1.352 0 .746-.587 1.352-1.31 1.352Z"/>
    <path fill="url(#i)" d="M214.847 19.76h-21.353c-.723 0-1.31-.605-1.31-1.351 0-.747.587-1.352 1.31-1.352h21.353c.723 0 1.31.605 1.31 1.352 0 .746-.587 1.352-1.31 1.352Z"/>
    <path fill="url(#j)" d="M229.411 25.79h-35.917c-.723 0-1.31-.606-1.31-1.352 0-.746.587-1.352 1.31-1.352h35.917c.723 0 1.31.606 1.31 1.352 0 .746-.586 1.352-1.31 1.352Z"/>
    <path fill="url(#k)" d="M354.146 192.666h16.202c.685 0 1.24.573 1.24 1.279v2.581c0 .705-.555 1.28-1.24 1.28h-16.202c-.685 0-1.24-.573-1.24-1.28v-2.581c0-.706.555-1.279 1.24-1.279Z"/>
    <path fill="url(#l)" d="M354.146 202.287h16.202c.685 0 1.24.573 1.24 1.28v2.58c0 .706-.555 1.28-1.24 1.28h-16.202c-.685 0-1.24-.573-1.24-1.28v-2.58c0-.707.555-1.28 1.24-1.28Z"/>
    <path fill="url(#m)" d="M354.144 211.91h16.2c.685 0 1.24.573 1.24 1.28v2.58c0 .707-.555 1.28-1.24 1.28h-16.202c-.685 0-1.24-.573-1.24-1.28v-2.58c0-.707.555-1.28 1.24-1.28h.002Z"/>
    <path fill="url(#n)" d="M326.933 64.16h24.757c1.94 0 3.515 1.625 3.515 3.627v25.542c0 2.002-1.575 3.627-3.515 3.627h-24.757c-1.94 0-3.515-1.625-3.515-3.627V67.787c0-2.002 1.575-3.627 3.515-3.627Z" opacity=".18"/>
    <path fill="url(#o)" d="M349.984 76.622c-1.697-4.895-6.233-7.902-11.012-7.755a11.022 11.022 0 0 0-3.479.681c-3.481 1.284-5.978 4.146-7.003 7.527a11.985 11.985 0 0 0 .428 8.152 11.68 11.68 0 0 0 1.757 2.911c2.967 3.599 7.889 5.118 12.454 3.434 5.895-2.175 8.963-8.869 6.856-14.95h-.001Zm-7.812 12.194c-3.423 1.264-7.113.123-9.338-2.574a8.716 8.716 0 0 1-1.316-2.184 8.997 8.997 0 0 1-.32-6.112c.769-2.534 2.641-4.678 5.251-5.642a8.274 8.274 0 0 1 2.607-.511c3.582-.112 6.983 2.142 8.257 5.813 1.581 4.56-.721 9.578-5.141 11.209v.001Z"/>
    <path fill="#15456E" d="m331.2 77.946-2.708-.873c1.026-3.38 3.521-6.24 7.003-7.526a11.028 11.028 0 0 1 3.479-.682l.084 2.927a8.232 8.232 0 0 0-2.607.51c-2.61.963-4.482 3.109-5.251 5.644Z"/>
    <path fill="#1B5C91" d="m331.522 84.06-2.601 1.167a12.014 12.014 0 0 1-.428-8.153l2.708.873a8.997 8.997 0 0 0 .32 6.111l.001.002Z"/>
    <path fill="#2273B5" d="M330.671 88.139a11.683 11.683 0 0 1-1.757-2.911l2.601-1.167c.339.809.787 1.54 1.316 2.183l-2.162 1.896.002-.001Z"/>
    <path fill="url(#p)" d="M144.156 117.342h21.156v19.153l-3.229-3.333h-17.927v-15.82Z"/>
    <path fill="url(#q)" d="M218.902 85.33c-5.794-2.83-12.494-1.326-16.662 3.243a14.921 14.921 0 0 0-2.535 3.84 15.276 15.276 0 0 0 .261 13.267c1.402 2.767 3.658 5.102 6.604 6.539a13.975 13.975 0 0 0 5.005 1.385c5.804.484 11.554-2.717 14.192-8.467 3.405-7.425.33-16.293-6.865-19.806v-.002Zm3.604 18.214c-1.977 4.313-6.289 6.711-10.641 6.348a10.52 10.52 0 0 1-3.752-1.038 10.923 10.923 0 0 1-4.951-4.903 11.45 11.45 0 0 1-.197-9.947 11.15 11.15 0 0 1 1.9-2.879c3.126-3.425 8.148-4.553 12.492-2.432 5.396 2.634 7.701 9.282 5.149 14.849v.002Z"/>
    <path fill="#FFAD5B" d="m203.162 103.952-3.196 1.727a15.275 15.275 0 0 1-.261-13.267 14.817 14.817 0 0 1 2.535-3.84l2.627 2.553a11.206 11.206 0 0 0-1.901 2.879 11.451 11.451 0 0 0 .197 9.946l-.001.002Z"/>
    <path fill="#FFAD5B" d="m208.777 109.153-1.321 3.464a14.5 14.5 0 0 1-.887-.397c-2.947-1.439-5.202-3.774-6.604-6.539l3.195-1.728a10.928 10.928 0 0 0 5.617 5.2Z"/>
    <path fill="url(#r)" d="M290.554 160.303h-15.12v2.764h15.12v-2.764Z"/>
    <path fill="url(#s)" d="M290.554 155.506h-15.12v2.764h15.12v-2.764Z"/>
    <path fill="url(#t)" d="M290.554 150.709h-15.12v2.764h15.12v-2.764Z"/>
    <path fill="#D8E7FF" d="M197.096 125.205h-7.393v2.056h7.393v-2.056Zm0 4.109h-7.393v2.056h7.393v-2.056Zm0-8.22h-7.393v2.055h7.393v-2.055Z"/>
    <path fill="url(#u)" d="m152.628 169.992-.37.502 60.296 47.375.371-.502-60.297-47.375Z"/>
    <path fill="url(#v)" d="m300.461 215.123-44.945 21.094.253.574 44.945-21.094-.253-.574Z"/>
    <path fill="url(#w)" d="m372.024 159.168 5.244-14.939-31.209 4.5-6.75 15.156 32.715-4.717Z"/>
    <path fill="url(#x)" d="m350.367 180.857-8.972-12.812 31.224-4.502 10.477 12.701-32.729 4.613Z"/>
    <path fill="url(#y)" d="m265.215 179.031 107.403-15.488-.593-4.375-107.452 15.495c-1.152.188-1.95 1.295-1.786 2.491.162 1.194 1.223 2.027 2.379 1.882v.003l.028-.003h.01c.005 0 .008-.002.011-.003v-.002Z"/>
    <path fill="#E4897B" d="M278.103 175.966s-1.534-.293-2.312-1.107c-.777-.814-2.862-1.404-3.532-1.385-.67.019-5.596-.087-6.012.183-.416.27-.065.882.426.877.493-.005 5.046.36 5.046.36s-5.055-.112-5.396.2c-.341.312-.338.961.352 1.186 0 0-.518 1.072.72 1.165l2.469.194s-1.308.137-.472.692c.445.295 3.272.167 3.829.328.556.16 3.974.073 3.974.073l.906-2.762.002-.004Z"/>
    <path fill="#D4EBFE" d="M284.41 272.398c0 5.036 15.107 9.117 33.741 9.117s33.741-4.081 33.741-9.117c0-5.036-15.107-9.117-33.741-9.117s-33.741 4.081-33.741 9.117Z"/>
    <path fill="#7AC6FF" d="M318.15 278.72c17.509 0 31.702-3.835 31.702-8.566 0-4.731-14.193-8.566-31.702-8.566-17.508 0-31.701 3.835-31.701 8.566 0 4.731 14.193 8.566 31.701 8.566Z"/>
    <path fill="url(#z)" d="M328.622 164.949s.922 13.327-1.603 14.922c-1.581.999-7.885 4.37-7.699 5.001.187.633 3.56 5.623 3.56 5.623s12.108-8.227 12.5-10.821c.382-2.533-.597-19.513-2.26-20.295-1.246-.586-1.905-.101-3.476 1.102-2.204 1.69-1.021 4.467-1.021 4.467l-.001.001Z"/>
    <path fill="#424773" d="M330.029 261.936s.376 2.696.423 3.101c.048.406 4.188-.238 4.188-.238l.335-3.21s-4.429-.034-4.948.347h.002Z"/>
    <path fill="#292C47" d="M330.413 264.697s-1.312 1.625-2.581 2.333c-1.269.708-3.263.989-4.014 1.723-.541.528-1.974 2.808 3.298 2.76 5.271-.045 7.814.322 8.378-.552.564-.874-.817-6.447-.817-6.447s-1.249.463-4.262.183h-.002Z"/>
    <path fill="#424773" d="M309.301 261.936s.376 2.696.423 3.101c.048.406 4.19-.238 4.19-.238l.335-3.21s-4.43-.034-4.948.347Z"/>
    <path fill="#292C47" d="M309.681 264.697s-1.312 1.625-2.581 2.333c-1.269.708-5.94 1.29-6.691 2.022-.541.53-1.443 2.66 5.974 2.461 5.269-.142 7.813.322 8.377-.552.565-.874-.816-6.447-.816-6.447s-1.176.495-4.263.183Z"/>
    <path fill="#455A64" d="M328.546 192.646s3.891 6.38 3.601 12.146c-.291 5.766.347 11.927.931 17.95.651 6.715 2.428 20.691 2.524 24.283.096 3.592-.127 17.109-.127 17.109l-6.75-.052s-2.396-27.306-3.557-30.143c-1.16-2.836-5.928-23.351-6.122-25.619-.194-2.269 9.5-15.674 9.5-15.674Z"/>
    <path fill="#455A64" d="M308.058 193.511s-1.536 15.676-1.925 19.205c-.387 3.529-.122 18.822-.315 21.029-.194 2.206 1.294 25.536 1.661 29.98l7.419-.049s.512-18.872.512-28.042c0-9.171 2.28-19.845 4.893-25.895 2.613-6.05 8.594-6.193 10.2-17.418 0 0-20.271-2.369-22.445 1.191v-.001Z"/>
    <path fill="#E4897B" d="M322.499 138.473s-5.122-2.273-7.721 1.704c-2.6 3.977-2.756 12.191-.173 13.332 2.582 1.14 6.558.812 8.026-1.683 1.468-2.496 2.857-6.142 2.917-8.622.058-2.48-1.711-3.945-3.047-4.729l-.002-.002Z"/>
    <path fill="#E4897B" d="M315.6 152.708s.062 3.362-.298 4.08c-.359.716 6.768.735 6.768.735s.784-4.42 1.882-7.714c1.096-3.294-8.35 2.901-8.35 2.901l-.002-.002Z"/>
    <path fill="#472E03" d="M323.828 149.964s-.703.71-2.694.284c-1.99-.426-4.305-3.302-5.13-3.645-.822-.344-.807-.852-.807-.852l-.561.763-.891.013s.928-2.422-.25-3.488c-1.176-1.067 1.647-7.907 7.97-5.265 0 0 4.873 1.654 4.556 4.544-.316 2.89-1.02 6.256-2.193 7.645v.001Z"/>
    <path fill="#E2D2CA" d="M314.877 156.701s.022-1.369.623-1.5 6.641-.73 7.379-.431v1.595s-1.423.904-8.004.336h.002Z"/>
    <path fill="#EEA886" d="M315.38 144.703c.137-.481 1.4-1.81 1.788-.298.388 1.511-.858 3.453-1.492 3.25-.635-.204-.64-1.733-.296-2.952Z"/>
    <path fill="#472E03" d="M323.96 139.031s6.845.562-.089 10.519l.089-10.519Z"/>
    <path fill="url(#A)" d="M306.056 158.599c4.298-.779 8.821-1.898 8.821-1.898l8.005-.336s7.345 1.669 10.238 3.017c.274.127.275 6.761 1.029 8.501l-2.399 5.22s-1.385 10.343-1.673 14.941c-.131 2.111 2.858 19.799 2.858 19.799s-3.203.973-8.667 1.595c-5.463.621-19.111-.224-19.197-.89-.087-.666 2.644-24.787 2.765-26.036.185-1.917-.537-10.777-.537-10.777-1.029 1.427-6.98 6.778-9.885 8.478-2.066 1.209-7.136.47-8.628.314-3.231-.34-12.159-.998-12.333-1.326-.139-.198.513-3.555.887-3.684.327-.112 11.851-.701 14.741-.546 1.173.063 4.998-4.346 4.998-4.346s6.606-10.925 8.977-12.024v-.002Z"/>
    <path fill="url(#B)" d="M349.852 230.781v39.372c0 4.731-14.194 8.566-31.702 8.566-17.507 0-31.701-3.835-31.701-8.566v-39.372h63.403Z"/>
    <path fill="#252840" d="M264.583 96.008s-1.307 1.181-2.48 2.997c-1.173 1.816-4.287 1.912-4.42 4.39-.133 2.479 4.234 2.556 6.527 1.748 2.294-.807 2.639-3.227 4.026-3.833 1.387-.606 2.107-1.095 2-2.276-.107-1.182-.873-3.1-.873-3.1s-.861.284-1.369.34c-.506.059-2.211.08-3.411-.268v.002Z"/>
    <path fill="url(#C)" d="M280.304 28.857s-.879 5.392-1.587 8.955c-.287 1.445-.547 2.588-.708 2.948-.203.453-1.853 2.281-3.871 4.425-3.543 3.763-8.223 8.502-8.223 8.502l-1.829-3.583s4.157-5.03 6.975-8.383c1.305-1.552 2.323-2.747 2.509-2.919.589-.544 1.273-5.903 2.234-10.317.962-4.416 2.889-6.856 2.889-6.856l1.613 7.231-.002-.003Z"/>
    <path fill="#E4897B" d="M274.138 45.185c-3.543 3.763-8.223 8.502-8.223 8.502l-1.829-3.583s4.157-5.03 6.975-8.383c.864.437 2.45 1.48 3.077 3.466v-.002Z"/>
    <path fill="#252840" d="M296.854 94.531s1.203 1.373 1.914 2.204c.711.833 3.436 2.32 3.452 4.791.015 2.68-2.011 2.445-3.814 2.348-1.803-.098-3.267-1.384-4.027-2.9-.759-1.518-2.779-1.915-2.921-3.14-.142-1.224.936-3.426.936-3.426l4.459.123h.001Z"/>
    <path fill="#5F8CC9" d="m292.631 92.129-.233 2.28s3.763 1.692 4.459.124l-.162-2.032-4.064-.374v.002Zm-27.84 2.228-.205 1.652s2.274.828 4.78-.074l.05-1.469-4.625-.109Z"/>
    <path fill="url(#D)" d="M297.064 52.956c.132.48-24.084 0-24.084 0s6.699-5.03 7.133-6.375c.435-1.344-1.704-9.407-1.984-12.03-.224-2.1-.783-11.491.558-12.927 1.402-1.5 6.451-3.071 6.451-3.071l7.359.282s1.214.262 2.082.678c.869.417 5.834 2.242 6.641 4.801.806 2.56-4.954 10.789-4.954 10.789l-.029.977a691.19 691.19 0 0 0-.086 3.37 252.178 252.178 0 0 0-.072 5.013c0 3.262.855 8.014.987 8.493h-.002Z"/>
    <path fill="#455A64" d="M297.07 52.956s3.293 4.991 3.341 8.399c.045 3.407-1.221 12.855-1.314 14.726-.093 1.873-1.798 17.47-1.798 17.47s-1.318 1.264-5.272-.32l-.966-16.375c-.094-1.584-.094-8.879-.977-9.934-.884-1.055-6.233-4.367-6.931-4.991-.698-.625-12.853 2.369-14.127 2.71-3.298.882-1.795 6.802-1.066 9.457 1.22 4.441 2.288 20.477 2.288 20.477s-2.349 1.034-6.285.16c0 0-7.726-28.957-7.974-31.836-.247-2.879-.37-7.627 18.67-11.237l22.408 1.294h.003Z"/>
    <path fill="#E4897B" d="M287.158 2.055s-6.388-1.488-4.93 6.809c1.459 8.294 2.996 8.948 6.85 7.23 3.855-1.717 3.509-7.032 3.704-9.638.194-2.606-3.586-4.311-5.624-4.401Z"/>
    <path fill="#E4897B" d="M285.47 20.683s2.829 3.095 7.301.282c0 0-1-6.707-.474-9.973.526-3.267-5.834 5.063-5.834 5.063.084.045.139.356.151.8.011.376-.009.848-.067 1.33-.132 1.086-.459 2.233-1.078 2.501l.001-.003Z"/>
    <path fill="#E4897B" d="M290.586 7.762c.084-.732 1.487-1 1.6.098.113 1.098-.638 3.022-1.17 2.833-.532-.19-.546-1.921-.43-2.931Z"/>
    <path fill="#472E03" d="M292.475 10.713s-.166-2.614-1.091-2.694c-.925-.082-1.067.971-1.067.971l-.934.182s.295-2.29-.628-2.692c-.924-.4-5.987 1.261-6.728.589-.742-.672-.393-5.32.948-5.955 1.341-.636 5.046-2.06 7.76-.166 0 0 2.116-.25 2.429 1.513.314 1.762-.113 6.943-.688 8.252h-.001Z"/>
    <path fill="#A77860" d="M286.547 18.184c4.613-1.467 4.96-4.333 4.966-4.377-1.52 2.693-4.899 3.05-4.899 3.05.011.375-.009.846-.067 1.329v-.002Z"/>
    <path fill="#E4897B" d="M294.657 19.55s-3.378 6.94-8.836 6.492c-5.459-.448-.93-7.423-.682-7.487.272-.071 5.597-1.44 9.518.995Z"/>
    <path fill="url(#E)" d="M270.211 52.605s16.723 2.126 26.854.352l-19.359-2.496s-.114.51-7.495 2.144Z"/>
    <path fill="#E4897B" d="m282.719 49.676-1.246.651s.284 2.042.966 2.66l1.398-.367s-.291-2.24-1.118-2.944Z"/>
    <path fill="url(#F)" d="M302.072 45.493c-.249.298-3.536 1.661-7.25 3.138-5.073 2.018-10.797 3.925-10.797 3.925l-1.302-2.88s5.993-3.36 10.044-5.718c1.913-1.114 3.393-2.002 3.601-2.208.651-.64.819-1.666.341-3.455-.479-1.79-1.581-10.015-1.705-10.975-.124-.96.31-3.52 2.636-3.648 2.325-.128 3.509.55 3.509.55s.584.25 1.018 6.073c.434 5.823.497 14.495-.093 15.198h-.002Z"/>
    <path fill="#B08439" d="M296.239 36.078a598.79 598.79 0 0 0-.085 3.37c-2.271-5.74-.959-10.322-.936-10.4-.246 1.56 1.003 6.955 1.021 7.03Zm-17.524 1.733c-.288 1.445-.548 2.589-.708 2.949-.776-3.872-.078-8.828-.078-8.828.105 2.368.786 5.88.786 5.88Z"/>
    <path fill="#E4897B" d="M294.822 48.631c-5.073 2.018-10.982 3.987-10.982 3.987l-1.117-2.944s5.993-3.36 10.044-5.717c0 0 1.472.74 2.056 4.673l-.001.001Z"/>
    <path fill="#5E5853" d="m282.359 52.787-23.769-.36 12.001 6.287 11.768-5.927Z"/>
    <path fill="#91887F" d="m270.591 58.716 11.768-4.703V52.79l-12.699 4.727.931 1.2Z"/>
    <path fill="#E4897B" d="M281.746 50.369s-1.485-.239-2.511-.485c-.794-.19-2.769.073-3.272.598-.503.526-2.103 4.19-2.405 4.413-.303.224.154.741.686.48 0 0 .488 1.604 1.691 1.004 1.204-.6 2.022-1.91 2.652-2.14.63-.23 4.301-1.395 4.301-1.395s-.197-2.863-1.144-2.474l.002-.001Z"/>
    <path fill="#E4897B" d="M276.324 50.244s-.954.475-1.203.688c-.249.211-1.259.99-1.503 1.175-.245.183.368.705 2.173-.1 1.804-.807.532-1.761.532-1.761l.001-.002Z"/>
    <path fill="#6E6760" d="m270.592 58.716-7.07-19.917-22.792.383 6.739 18.354 23.123 1.18Z"/>
    <path fill="#807066" d="M256.231 47.609c.696 1.434.485 2.997-.469 3.49-.955.492-2.292-.272-2.988-1.706-.696-1.434-.486-2.998.469-3.49.954-.492 2.292.272 2.988 1.706Z"/>
    <path fill="#D4EBFE" d="M185.034 287.216c18.635 0 33.741-4.082 33.741-9.117 0-5.035-15.106-9.117-33.741-9.117-18.635 0-33.741 4.082-33.741 9.117 0 5.035 15.106 9.117 33.741 9.117Z"/>
    <path fill="#7AC6FF" d="M185.033 284.42c17.508 0 31.702-3.836 31.702-8.567s-14.194-8.566-31.702-8.566c-17.508 0-31.701 3.835-31.701 8.566 0 4.731 14.193 8.567 31.701 8.567Z"/>
    <path fill="#E4897B" d="M151.44 172.172s-1.102-1.056-.883-1.846c.186-.672-.094-1.426-.164-1.735-.095-.415-.132-1.758-.431-1.684-.506.126-.39 2.27-.451 2.726-.063.456-1.402-1.072-1.861-1.153-.459-.08-2.788 2.354-1.749 3.292 1.038.939 2.467 1.321 2.619 1.524.151.202.861.759.861.759l2.061-1.885-.002.002Z"/>
    <path fill="#E4897B" d="M147.941 168.641s-3.362-2.659-3.729-2.643c-.369.016-.497.213-.193.475s3.176 2.664 3.176 2.664-4.491-2.456-4.795-2.511c-.179-.032-.312.319-.162.475.15.156 4.33 2.868 4.33 2.868s-4.197-2.286-4.465-2.253c-.234.028-.402.428-.102.62.3.191 4.079 2.54 4.079 2.54s-3.156-1.466-3.367-1.3c-.128.101-.31.323.516.675.825.352 2.622 1.475 2.622 1.475l2.089-3.085h.001Z"/>
    <path fill="#472E03" d="M174.79 140.107s-8.041-.69-7.82 8.037c.22 8.727 1.561 10.042-.005 16.208-1.566 6.167 7.839-3.502 7.839-3.502l-.014-20.743Z"/>
    <path fill="#363A5E" d="M199.289 270.727s2.986 4.327 2.576 5.013c-.41.687-3.549.784-5.462 0-1.911-.784-1.957-5.856-2.821-8.036-.362-.912.413-3.604 1.502-3.8 1.089-.196 2.274.379 2.274.379s-1.13 3.069 1.931 6.444Z"/>
    <path fill="#EEA886" d="M197.375 264.248s.629 1.843.858 3.604c.191 1.459 2.127 4.557 2.037 4.95-.092.391-2.549.746-3.549-.263-1.002-1.012-1.645-3.949-1.866-5.708-.204-1.638-.464-2.445-.464-2.445s2.03-1.215 2.986-.138h-.002Z"/>
    <path fill="#363A5E" d="M173.294 270.8s2.878 4.256 2.47 4.942c-.41.686-3.549.784-5.462 0-1.911-.784-1.957-5.856-2.821-8.036-.363-.912.413-3.605 1.501-3.8 1.089-.196 2.367.419 2.367.419s-1.114 3.1 1.945 6.475Z"/>
    <path fill="#EEA886" d="M171.35 264.327s.227 2.008.591 3.43c.364 1.421 2.321 4.655 2.23 5.046-.092.392-2.549.747-3.551-.263-1.001-1.011-1.775-3.936-1.865-5.708-.092-1.771.228-2.926.228-2.926s1.411-.658 2.367.419v.002Z"/>
    <path fill="#455A64" d="M185.736 193.868s2.563 12.833 3.152 16.064c.588 3.231 2.235 18.881 2.413 21.54.175 2.662 2.674 12.687 2.556 13.637-.118.95 4.055 19.787 4.055 19.787s-2.957.33-4.136-.179c-.806-.348-7.278-17.338-7.278-22.088 0-6.567-3.555-15.143-4.07-16.639-5.074-14.715-6.003-18.206-6.71-19.095 0 0-.107 1.201-.348 3.195-.277 2.294-1.488 18.671-2.017 20.824-.529 2.153-.118 9.44-.413 13.114-.295 3.674-.839 20.436-.839 20.436s-2.656.118-3.828-.601c-.392-.241-1.746-18.011-1.805-22.383-.058-4.371-.121-10.4-.236-12.29-1.09-18.116-3.769-20.703.451-33.524 7.902-24.004 19.055-1.801 19.055-1.801l-.002.003Z"/>
    <path fill="#363A5E" d="M193.5 267.326v4.531h.546v-3.501l-.546-1.03Zm-26.098-.002v4.531h.546v-3.501l-.546-1.03Z"/>
    <path fill="#E4897B" d="M178.138 163.328s-.707-1.715-1.233-3.638a17.953 17.953 0 0 1-.324-1.459c-.187-1.06-.239-2.075 0-2.797.78-2.376-4.89-.731-4.89-.731s1.1 6.287 0 8.407c-1.098 2.12 6.448.219 6.448.219l-.001-.001Z"/>
    <path fill="#EDDAD3" d="M167.541 197.888s11.824 3.004 17.81-.359c0 0-2.042-8.835-1.084-12.307.957-3.472 5.951-15.571 5.951-15.571s-3.621-5.401-6.384-6.387c-2.763-.988-6.324-1.6-6.324-1.6l-5.179.461s-4.44.284-3.809 1.099c3.731 4.818-.983 34.663-.983 34.663l.002.001Z"/>
    <path fill="#CFBEB8" d="M166.41 177.806s.233.507.872 2.504c.65-5.608.31-8.527.31-8.527-.07 2.998-1.182 6.023-1.182 6.023Z"/>
    <path fill="#E4897B" d="m172.043 161.939 6.096 5.127-.628-5.4s-3.555-.792-5.468.274v-.001Z"/>
    <path fill="url(#G)" d="M168.023 183.54c.838 3.588-3.402 14.814-3.402 14.814l7.157 2.5c.886.309 1.829-.267 1.993-1.215.807-4.669 2.899-17.192 3.136-22.743.293-6.898-4.573-15.035-4.573-15.035-8.652 1.532-6.28 15.035-6.28 15.035s.313.85.734 2.18c.105.334.217.699.333 1.087.297.998.615 2.156.901 3.377h.001Z"/>
    <path fill="url(#H)" d="m178.123 161.959-.107-.295s4.431.696 6.682 1.855c2.252 1.16 6.562 7.155 6.562 7.155l-5.637 7.679c-.006 5.902 1.989 19.748 1.989 19.748l-3.917 1.653c-.61.258-1.282-.198-1.291-.878a6107.52 6107.52 0 0 0-.35-21.569c-.118-5.903-4.199-15.447-4.199-15.447.091.031.181.064.27.099h-.002Z"/>
    <path fill="#E4897B" d="M186.154 189.632s-4.251.171-4.913 0c-.66-.17-5.072-2.144-5.338-4.093-.264-1.95 10.249 1.747 10.249 1.747v2.346h.002Z"/>
    <path fill="#707070" d="m172.965 183.539 17.252-2.082-7.794 6.542-9.458-4.46Z"/>
    <path fill="#A1A1A1" d="m182.423 187.999-9.458-3.327v-1.133l9.776 3.236-.318 1.224Z"/>
    <path fill="#FAE6DE" d="m177.191 160.668 3.277 5.365 1.586 1.032-3.694-5.343-1.169-1.054Z"/>
    <path fill="#D6C5BE" d="m180.468 166.033-2.33 1.032-.627-5.402-.32-.995 3.277 5.365Z"/>
    <path fill="url(#I)" d="M185.637 187.123s.177 2.266 0 2.742c0 0 10.639-1.096 11.631-2.631.992-1.535.957-3.4.957-3.4l-12.587 3.289h-.001Z"/>
    <path fill="#A1A1A1" d="m182.426 188 5.029-19.299 19.129-2.084-5.243 17.764L182.426 188Z"/>
    <path fill="url(#J)" d="M157.63 176.967c-.958-.816-1.523-1.115-2.68-2.142-1.8-1.599-4.099-3.623-4.099-3.623l-2.187 3.312s5.287 4.796 8.098 7.642c0 0 3.556 3.94 4.351 3.592.795-.349 3.63-4.59 5.895-8.666 2.264-4.076 3.278-6.679 3.391-8.454.113-1.775-5.582-2.63-5.582-2.63l-4.46 10.049s-.794 1.437-1.198 1.871c0 0-1.003-.588-1.529-.951Z"/>
    <path fill="#E4897B" d="M174.006 140.99c1.994-.336 6.553.179 7.847 5.579 0 0 .003 1.497-.216 2.697-.218 1.202 1.168 4.506.924 4.706-.245.201-1.307.544-1.307.544s-.756 3.878-2.031 3.996c-1.275.119-6.206-.339-8.989-4.723-2.785-4.384-4.275-11.437 3.772-12.797v-.002Z"/>
    <path fill="#472E03" d="M181.85 146.568s-2.999 2.672-6.177 3.516c-3.177.843-4.859 4.527-4.859 4.527s-5.622-5.787-2.229-11.402c3.393-5.614 13.261-3.111 13.267 3.361l-.002-.002Z"/>
    <path fill="#472E03" d="M175.087 150.278s-3.328 9.006-2.938 11.177c0 0-1.643-.295-4.708.672 0 0 1.482-16.088 7.646-11.849Z"/>
    <path fill="#D6C5BE" d="m176.377 166.195 1.761.871-5.986-6.125 4.225 5.254Z"/>
    <path fill="#FAE6DE" d="m172.151 160.941 4.225 5.254-2.312 2.126-2.494-6.288.581-1.092Z"/>
    <path fill="#A77860" d="M173.312 156.859c.028.046.944 1.515 3.523 2.554-.062-.25-.12-.503-.172-.755a13.93 13.93 0 0 1-.081-.428s-2.135-.538-3.27-1.371Z"/>
    <path fill="#828282" d="M193.901 176.77c-.532 1.033-.523 2.112.02 2.409.543.298 1.414-.299 1.946-1.332.532-1.033.523-2.112-.02-2.409-.542-.298-1.414.298-1.946 1.332Z"/>
    <path fill="url(#K)" d="M171.571 162.033s-5.572-.781-7.196 5.239c0 0 7.085-.787 7.196-5.239Z"/>
    <path fill="url(#L)" d="M216.735 236.482v39.372c0 4.731-14.193 8.566-31.702 8.566s-31.701-3.835-31.701-8.566v-39.372h63.403Z"/>
  </g>
  <defs>
    <linearGradient id="b" x1="252.5" x2="252.5" y1="97.729" y2="285.632" gradientUnits="userSpaceOnUse">
      <stop stop-color="#CEF0FD"/>
      <stop offset="1" stop-color="#E3F7FF"/>
    </linearGradient>
    <linearGradient id="c" x1="191.582" x2="231.323" y1="86.555" y2="86.555" gradientUnits="userSpaceOnUse">
      <stop stop-color="#D5E4FF"/>
      <stop offset="1" stop-color="#EDFFFE"/>
    </linearGradient>
    <linearGradient id="d" x1="263.457" x2="303.198" y1="89.698" y2="89.698" gradientUnits="userSpaceOnUse">
      <stop stop-color="#D5E4FF"/>
      <stop offset="1" stop-color="#EDFFFE"/>
    </linearGradient>
    <linearGradient id="e" x1="129.357" x2="371.896" y1="129.345" y2="135.576" gradientUnits="userSpaceOnUse">
      <stop stop-color="#FB8D48"/>
      <stop offset=".2" stop-color="#ED7136"/>
      <stop offset=".4" stop-color="#C54E47"/>
      <stop offset=".4" stop-color="#C14F49"/>
      <stop offset=".6" stop-color="#9D3863"/>
      <stop offset=".8" stop-color="#5E1F72"/>
    </linearGradient>
    <linearGradient id="f" x1="163.039" x2="331.75" y1="152.824" y2="156.698" gradientUnits="userSpaceOnUse">
      <stop stop-color="#FB8D48"/>
      <stop offset=".2" stop-color="#ED7136"/>
      <stop offset=".4" stop-color="#C54E47"/>
      <stop offset=".4" stop-color="#C14F49"/>
      <stop offset=".6" stop-color="#9D3863"/>
      <stop offset=".8" stop-color="#5E1F72"/>
    </linearGradient>
    <linearGradient id="g" x1="222.268" x2="265.454" y1="197.02" y2="156.756" gradientUnits="userSpaceOnUse">
      <stop stop-color="#FB8D48"/>
      <stop offset=".2" stop-color="#ED7136"/>
      <stop offset=".4" stop-color="#C54E47"/>
      <stop offset=".4" stop-color="#C14F49"/>
      <stop offset=".6" stop-color="#9D3863"/>
      <stop offset=".8" stop-color="#5E1F72"/>
    </linearGradient>
    <linearGradient id="h" x1="192.185" x2="219.819" y1="12.383" y2="12.383" gradientUnits="userSpaceOnUse">
      <stop stop-color="#D5E4FF"/>
      <stop offset="1" stop-color="#EDFFFE"/>
    </linearGradient>
    <linearGradient id="i" x1="192.184" x2="216.156" y1="18.41" y2="18.41" gradientUnits="userSpaceOnUse">
      <stop stop-color="#D5E4FF"/>
      <stop offset="1" stop-color="#EDFFFE"/>
    </linearGradient>
    <linearGradient id="j" x1="192.185" x2="230.721" y1="24.438" y2="24.438" gradientUnits="userSpaceOnUse">
      <stop stop-color="#D5E4FF"/>
      <stop offset="1" stop-color="#EDFFFE"/>
    </linearGradient>
    <linearGradient id="k" x1="352.906" x2="371.586" y1="195.236" y2="195.236" gradientUnits="userSpaceOnUse">
      <stop stop-color="#D5E4FF"/>
      <stop offset="1" stop-color="#EDFFFE"/>
    </linearGradient>
    <linearGradient id="l" x1="352.906" x2="371.586" y1="204.857" y2="204.857" gradientUnits="userSpaceOnUse">
      <stop stop-color="#D5E4FF"/>
      <stop offset="1" stop-color="#EDFFFE"/>
    </linearGradient>
    <linearGradient id="m" x1="352.904" x2="371.584" y1="214.48" y2="214.48" gradientUnits="userSpaceOnUse">
      <stop stop-color="#D5E4FF"/>
      <stop offset="1" stop-color="#EDFFFE"/>
    </linearGradient>
    <linearGradient id="n" x1="339.312" x2="339.312" y1="102.088" y2="56.167" gradientUnits="userSpaceOnUse">
      <stop stop-color="#80C0FF"/>
      <stop offset="1" stop-color="#EDFFFE"/>
    </linearGradient>
    <linearGradient id="o" x1="327.974" x2="350.649" y1="80.559" y2="80.559" gradientUnits="userSpaceOnUse">
      <stop stop-color="#ABC9FF"/>
      <stop offset="1" stop-color="#EDFFFE"/>
    </linearGradient>
    <linearGradient id="p" x1="154.734" x2="154.734" y1="117.342" y2="136.495" gradientUnits="userSpaceOnUse">
      <stop stop-color="#EEA07B"/>
      <stop offset="1" stop-color="#9C5A76"/>
    </linearGradient>
    <linearGradient id="q" x1="198.316" x2="227.155" y1="98.775" y2="98.775" gradientUnits="userSpaceOnUse">
      <stop stop-color="#D5E4FF"/>
      <stop offset="1" stop-color="#EDFFFE"/>
    </linearGradient>
    <linearGradient id="r" x1="275.434" x2="290.554" y1="161.685" y2="161.685" gradientUnits="userSpaceOnUse">
      <stop stop-color="#D5E4FF"/>
      <stop offset="1" stop-color="#EDFFFE"/>
    </linearGradient>
    <linearGradient id="s" x1="275.434" x2="290.554" y1="156.888" y2="156.888" gradientUnits="userSpaceOnUse">
      <stop stop-color="#D5E4FF"/>
      <stop offset="1" stop-color="#EDFFFE"/>
    </linearGradient>
    <linearGradient id="t" x1="275.434" x2="290.554" y1="152.091" y2="152.091" gradientUnits="userSpaceOnUse">
      <stop stop-color="#D5E4FF"/>
      <stop offset="1" stop-color="#EDFFFE"/>
    </linearGradient>
    <linearGradient id="u" x1="178.225" x2="178.605" y1="190.883" y2="190.399" gradientUnits="userSpaceOnUse">
      <stop stop-color="#FB8D48"/>
      <stop offset=".2" stop-color="#ED7136"/>
      <stop offset=".4" stop-color="#C54E47"/>
      <stop offset=".4" stop-color="#C14F49"/>
      <stop offset=".6" stop-color="#9D3863"/>
      <stop offset=".8" stop-color="#5E1F72"/>
    </linearGradient>
    <linearGradient id="v" x1="256.406" x2="278.803" y1="236.097" y2="250.179" gradientUnits="userSpaceOnUse">
      <stop stop-color="#FB8D48"/>
      <stop offset=".2" stop-color="#ED7136"/>
      <stop offset=".4" stop-color="#C54E47"/>
      <stop offset=".4" stop-color="#C14F49"/>
      <stop offset=".6" stop-color="#9D3863"/>
      <stop offset=".8" stop-color="#5E1F72"/>
    </linearGradient>
    <linearGradient id="w" x1="339.969" x2="377.359" y1="152.692" y2="154.092" gradientUnits="userSpaceOnUse">
      <stop stop-color="#FB8D48"/>
      <stop offset=".2" stop-color="#ED7136"/>
      <stop offset=".4" stop-color="#C54E47"/>
      <stop offset=".4" stop-color="#C14F49"/>
      <stop offset=".6" stop-color="#9D3863"/>
      <stop offset=".8" stop-color="#5E1F72"/>
    </linearGradient>
    <linearGradient id="x" x1="342.12" x2="383.163" y1="170.998" y2="172.915" gradientUnits="userSpaceOnUse">
      <stop stop-color="#FB8D48"/>
      <stop offset=".2" stop-color="#ED7136"/>
      <stop offset=".4" stop-color="#C54E47"/>
      <stop offset=".4" stop-color="#C14F49"/>
      <stop offset=".6" stop-color="#9D3863"/>
      <stop offset=".8" stop-color="#5E1F72"/>
    </linearGradient>
    <linearGradient id="y" x1="273.888" x2="353.46" y1="71.479" y2="237.741" gradientUnits="userSpaceOnUse">
      <stop stop-color="#ABC9FF"/>
      <stop offset="1" stop-color="#EDFFFE"/>
    </linearGradient>
    <linearGradient id="z" x1="319.597" x2="335.522" y1="172.635" y2="172.794" gradientUnits="userSpaceOnUse">
      <stop stop-color="#FB8D48"/>
      <stop offset=".2" stop-color="#ED7136"/>
      <stop offset=".4" stop-color="#C54E47"/>
      <stop offset=".4" stop-color="#C14F49"/>
      <stop offset=".6" stop-color="#9D3863"/>
      <stop offset=".8" stop-color="#5E1F72"/>
    </linearGradient>
    <linearGradient id="A" x1="277.437" x2="334.341" y1="179.309" y2="180.504" gradientUnits="userSpaceOnUse">
      <stop stop-color="#FB8D48"/>
      <stop offset=".2" stop-color="#ED7136"/>
      <stop offset=".4" stop-color="#C54E47"/>
      <stop offset=".4" stop-color="#C14F49"/>
      <stop offset=".6" stop-color="#9D3863"/>
      <stop offset=".8" stop-color="#5E1F72"/>
    </linearGradient>
    <linearGradient id="B" x1="287.552" x2="350.05" y1="251.421" y2="253.024" gradientUnits="userSpaceOnUse">
      <stop stop-color="#FB8D48"/>
      <stop offset=".2" stop-color="#ED7136"/>
      <stop offset=".4" stop-color="#C54E47"/>
      <stop offset=".4" stop-color="#C14F49"/>
      <stop offset=".6" stop-color="#9D3863"/>
      <stop offset=".8" stop-color="#5E1F72"/>
    </linearGradient>
    <linearGradient id="C" x1="264.368" x2="280.365" y1="35.432" y2="35.589" gradientUnits="userSpaceOnUse">
      <stop stop-color="#FB8D48"/>
      <stop offset=".2" stop-color="#ED7136"/>
      <stop offset=".4" stop-color="#C54E47"/>
      <stop offset=".4" stop-color="#C14F49"/>
      <stop offset=".6" stop-color="#9D3863"/>
      <stop offset=".8" stop-color="#5E1F72"/>
    </linearGradient>
    <linearGradient id="D" x1="273.473" x2="301.397" y1="33.457" y2="33.9" gradientUnits="userSpaceOnUse">
      <stop stop-color="#FB8D48"/>
      <stop offset=".2" stop-color="#ED7136"/>
      <stop offset=".4" stop-color="#C54E47"/>
      <stop offset=".4" stop-color="#C14F49"/>
      <stop offset=".6" stop-color="#9D3863"/>
      <stop offset=".8" stop-color="#5E1F72"/>
    </linearGradient>
    <linearGradient id="E" x1="270.678" x2="296.484" y1="51.84" y2="56.036" gradientUnits="userSpaceOnUse">
      <stop stop-color="#FB8D48"/>
      <stop offset=".2" stop-color="#ED7136"/>
      <stop offset=".4" stop-color="#C54E47"/>
      <stop offset=".4" stop-color="#C14F49"/>
      <stop offset=".6" stop-color="#9D3863"/>
      <stop offset=".8" stop-color="#5E1F72"/>
    </linearGradient>
    <linearGradient id="F" x1="283.067" x2="302.576" y1="36.099" y2="36.358" gradientUnits="userSpaceOnUse">
      <stop stop-color="#FB8D48"/>
      <stop offset=".2" stop-color="#ED7136"/>
      <stop offset=".4" stop-color="#C54E47"/>
      <stop offset=".4" stop-color="#C14F49"/>
      <stop offset=".6" stop-color="#9D3863"/>
      <stop offset=".8" stop-color="#5E1F72"/>
    </linearGradient>
    <linearGradient id="G" x1="164.835" x2="176.965" y1="178.686" y2="178.76" gradientUnits="userSpaceOnUse">
      <stop stop-color="#FB8D48"/>
      <stop offset=".2" stop-color="#ED7136"/>
      <stop offset=".4" stop-color="#C54E47"/>
      <stop offset=".4" stop-color="#C14F49"/>
      <stop offset=".6" stop-color="#9D3863"/>
      <stop offset=".8" stop-color="#5E1F72"/>
    </linearGradient>
    <linearGradient id="H" x1="178.089" x2="191.31" y1="178.095" y2="178.185" gradientUnits="userSpaceOnUse">
      <stop stop-color="#FB8D48"/>
      <stop offset=".2" stop-color="#ED7136"/>
      <stop offset=".4" stop-color="#C54E47"/>
      <stop offset=".4" stop-color="#C14F49"/>
      <stop offset=".6" stop-color="#9D3863"/>
      <stop offset=".8" stop-color="#5E1F72"/>
    </linearGradient>
    <linearGradient id="I" x1="185.856" x2="198.252" y1="186.431" y2="186.932" gradientUnits="userSpaceOnUse">
      <stop stop-color="#FB8D48"/>
      <stop offset=".2" stop-color="#ED7136"/>
      <stop offset=".4" stop-color="#C54E47"/>
      <stop offset=".4" stop-color="#C14F49"/>
      <stop offset=".6" stop-color="#9D3863"/>
      <stop offset=".8" stop-color="#5E1F72"/>
    </linearGradient>
    <linearGradient id="J" x1="149.042" x2="170.473" y1="174.511" y2="174.968" gradientUnits="userSpaceOnUse">
      <stop stop-color="#FB8D48"/>
      <stop offset=".2" stop-color="#ED7136"/>
      <stop offset=".4" stop-color="#C54E47"/>
      <stop offset=".4" stop-color="#C14F49"/>
      <stop offset=".6" stop-color="#9D3863"/>
      <stop offset=".8" stop-color="#5E1F72"/>
    </linearGradient>
    <linearGradient id="K" x1="164.5" x2="171.593" y1="164.27" y2="164.458" gradientUnits="userSpaceOnUse">
      <stop stop-color="#FB8D48"/>
      <stop offset=".2" stop-color="#ED7136"/>
      <stop offset=".4" stop-color="#C54E47"/>
      <stop offset=".4" stop-color="#C14F49"/>
      <stop offset=".6" stop-color="#9D3863"/>
      <stop offset=".8" stop-color="#5E1F72"/>
    </linearGradient>
    <linearGradient id="L" x1="154.435" x2="216.932" y1="257.122" y2="258.725" gradientUnits="userSpaceOnUse">
      <stop stop-color="#FB8D48"/>
      <stop offset=".2" stop-color="#ED7136"/>
      <stop offset=".4" stop-color="#C54E47"/>
      <stop offset=".4" stop-color="#C14F49"/>
      <stop offset=".6" stop-color="#9D3863"/>
      <stop offset=".8" stop-color="#5E1F72"/>
    </linearGradient>
    <clipPath id="a">
      <path fill="#fff" d="M0 0h505v300H0z"/>
    </clipPath>
  </defs>
</svg>
