<svg xmlns="http://www.w3.org/2000/svg" width="676" height="449" fill="none" viewBox="0 0 676 449">
  <path fill="url(#a)" d="M58.865 332.635c-10.328-25.734-15.697-52.249-16.586-78.274-.889-26.033 2.703-51.575 10.294-75.53l-17.351-3.327-17.35-3.328c-2.559 28.982-.074 57.656 6.931 84.78 7.006 27.132 18.533 52.714 34.062 75.679Z"/>
  <path fill="url(#b)" d="M55.201 115.613c-10.215 8.217-19.954 17.469-29.041 27.71-9.087 10.24-17.525 21.469-25.137 33.615l33.002 5.348 33.002 5.348c-3.907-10.727-6.963-22.172-8.994-34.218-2.03-12.047-3.032-24.695-2.832-37.803Z"/>
  <path fill="#E0E0E0" fill-opacity=".1" d="M343.97 313.282c16.77 0 30.365-7.814 30.365-17.453 0-9.64-13.595-17.454-30.365-17.454-16.77 0-30.365 7.814-30.365 17.454 0 9.639 13.595 17.453 30.365 17.453Zm113.226 46.653c26.509 0 47.998-12.352 47.998-27.589 0-15.236-21.489-27.588-47.998-27.588-26.508 0-47.997 12.352-47.997 27.588 0 15.237 21.489 27.589 47.997 27.589Zm-235.519 2.988c26.508 0 47.997-12.352 47.997-27.589 0-15.236-21.489-27.588-47.997-27.588s-47.997 12.352-47.997 27.588c0 15.237 21.489 27.589 47.997 27.589Z"/>
  <path fill="#E86B31" d="m528.85 312.748-9.066-3.693s-1.954-13.049-1.96-23.543c-.007-14.746 9.22-32.774 20.931-29.758 11.711 3.015-3.298 19.509-5.738 32.256a615.466 615.466 0 0 0-4.167 24.738Z"/>
  <path fill="#000" d="m528.85 312.748-9.066-3.693s-1.954-13.049-1.96-23.543c-.007-14.746 9.22-32.774 20.931-29.758 11.711 3.015-3.298 19.509-5.738 32.256a615.466 615.466 0 0 0-4.167 24.738Z" opacity=".3"/>
  <path fill="#fff" d="m524.488 311.638.013-.001a.381.381 0 0 0 .329-.428c-4.323-32.341 10.284-50.259 10.431-50.435a.38.38 0 0 0-.049-.537.384.384 0 0 0-.539.048c-.151.18-14.969 18.356-10.603 51.025a.383.383 0 0 0 .418.328Z"/>
  <path fill="#E86B31" d="m533.528 314.902-4.733-2.135s-2.434-10.19.633-21.922c3.039-11.621 13.157-18.79 18.259-17.604 6.228 1.448 6.835 7.187 5.016 11.179-2.144 4.705-17.171 17.553-19.175 30.482Z"/>
  <path fill="#000" d="m533.528 314.902-4.733-2.135s-2.434-10.19.633-21.922c3.039-11.621 13.157-18.79 18.259-17.604 6.228 1.448 6.835 7.187 5.016 11.179-2.144 4.705-17.171 17.553-19.175 30.482Z" opacity=".1"/>
  <path fill="#fff" d="M531.069 314.155h.002a.381.381 0 0 0 .342-.418c-2.123-20.509 15.852-36.277 16.034-36.435a.38.38 0 0 0 .038-.537.383.383 0 0 0-.541-.038c-.184.159-18.457 16.19-16.293 37.088a.382.382 0 0 0 .418.34Z"/>
  <path fill="#E86B31" d="m168.984 304.486 6.216-3.536s2.981-16.358.752-30.42c-3.136-19.769-16.656-26.589-21.566-24.624-4.911 1.965-6.065 7.822 2.803 19.245 5.233 6.74 11.962 20.987 11.795 39.335Z"/>
  <path fill="#000" d="m168.984 304.486 6.216-3.536s2.981-16.358.752-30.42c-3.136-19.769-16.656-26.589-21.566-24.624-4.911 1.965-6.065 7.822 2.803 19.245 5.233 6.74 11.962 20.987 11.795 39.335Z" opacity=".15"/>
  <path fill="#fff" d="M171.235 296.633a.441.441 0 0 1-.439-.501c2.569-18.509-4.907-38.788-13.307-46.96a.44.44 0 0 1-.007-.624.446.446 0 0 1 .627-.007c8.553 8.322 16.173 28.93 13.565 47.711a.442.442 0 0 1-.439.381Z"/>
  <path fill="#E86B31" d="M151.736 314.406c-.982.562-3.006-.666-3.782-1.184-1.328-.886-2.403-2.143-3.117-3.562-.832-1.654-1.041-3.424-.78-5.253.135-.948.401-1.872.667-2.793l.783-2.711c.258-.891.518-1.814.4-2.734-.239-1.854-1.892-3.153-3.395-4.274-1.661-1.239-3.392-2.874-3.383-5.107.007-1.722.903-3.321 1.975-4.673 1.073-1.351 2.345-2.546 3.313-3.973.698-1.027 1.242-2.233 1.129-3.468-.071-.766-.39-1.489-.759-2.166-.792-1.453-1.836-2.785-2.382-4.347-.546-1.561-.468-3.503.756-4.621 1.005-.917 2.498-1.045 3.858-.955 1.258.082 2.487.648 3.588 1.257 3.559 1.971 5.59 6.167 9.368 7.684 1.457.585 3.053.713 4.571 1.113 1.519.399 3.067 1.172 3.771 2.57 1.386 2.757-1.187 6.155-.212 9.081.862 2.59 3.39 3.581 4.81 5.915.621 1.021.764 2.201.664 3.391-.17 2.013-.465 3.491-1.436 5.729-.802 1.85-3.159 5.162-3.159 5.162-.059.058-17.097 9.833-17.248 9.919Z"/>
  <path fill="#fff" d="M161.828 309.053h-.013a.446.446 0 0 1-.431-.46c.733-17.518-7.559-36.859-13.588-42.478a.441.441 0 0 1-.02-.624.447.447 0 0 1 .627-.021c6.15 5.732 14.609 25.394 13.868 43.159a.443.443 0 0 1-.443.424Z"/>
  <path fill="#fff" d="M159.193 288.357a.458.458 0 0 1-.131-.02c-5.653-1.74-12.699-2.047-12.77-2.049a.443.443 0 0 1-.424-.46.428.428 0 0 1 .461-.423c.073.003 7.23.314 12.995 2.089a.44.44 0 0 1 .293.551.447.447 0 0 1-.424.312Z"/>
  <path fill="#B16668" d="m480.916 326.657-8.403-.962-2.177-16.865 10.276 3.034.304 14.793Z"/>
  <path fill="#263238" d="M462.502 340.413c-.259.241-.194 1.638.145 2.044.866 1.044 3.232 2.265 6.407 2.492 3.033.216 5.741-.192 7.522-1.317 1.781-1.126 2.643-2.367 2.811-4.088.168-1.72-.024-3.38.799-4.703.76-1.223 1.973-2.601 2.236-3.264.575-1.442.021-3.503.021-3.503l-19.941 12.339Z"/>
  <path fill="#000" d="M470.806 325.395a6.64 6.64 0 0 1-.35 1.916c-.439 1.334-1.107 2.59-1.858 3.784-.386.615-.794 1.22-1.265 1.776-.917 1.087-2.056 1.98-3.028 3.022-.971 1.043-1.796 2.307-1.872 3.707-.129 2.368 3.664 3.174 5.652 3.526 2.122.376 4.388.263 6.46-.324 2.305-.652 3.969-2.43 4.351-4.72.11-.657.07-1.33.148-1.991.178-1.51.963-2.889 1.85-4.144.514-.728 1.074-1.439 1.42-2.255.62-1.466.123-3.116-.273-4.576-.343-1.261-.76-2.71-1.206-2.591-.006.654.032.743-.44 1.187-.596.56-.621 1.403-1.252 1.899.295-.768.314-1.095.442-1.685.039-.177-.01-.534-.134-.67-.167-.181-.452-.294-.731-.388a14.536 14.536 0 0 0-2.889-.655c-.897-.11-3.14-.219-4.03-.021-.273.061-.54.192-.709.409-.178.229-.21.431-.253.809-.043.379-.013 1.357-.033 1.985Z"/>
  <path fill="#F5F5F5" d="M468.275 331.591c.886-.661 4.082-.669 5.167-.554 1.359.146 2.46.62 3.085 1.078a.706.706 0 0 0 .908-.072.659.659 0 0 0-.067-1.007 6.716 6.716 0 0 0-3.471-1.28c-2.671-.187-4.666.268-4.666.268s-1.218.782-.956 1.567Zm-2.037 2.427c1.114-.655 4.508-.561 5.594-.445a6.182 6.182 0 0 1 3 1.136.706.706 0 0 0 .908-.072.659.659 0 0 0-.067-1.007c-.662-.485-3.147-1.27-4.757-1.382-2.671-.187-3.367.356-3.367.356s-1.127.434-1.311 1.414Zm8.725-6.806c-1.845-.189-3.838.017-4.568.281-.471.262-.78 1.003-.478 1.19.594-.328 2.875-.465 4.187-.407.88.039 1.989.394 2.888.791.228.1.499.242.735.372.32.176.726.052.879-.272a.588.588 0 0 0-.231-.759c-.644-.389-1.92-1.042-3.412-1.196Z"/>
  <path fill="#B16668" d="m449.574 318.989-7.992-2.223v-16.08l9.914.428-1.922 17.875Z"/>
  <path fill="#263238" d="M424.702 327.597c-.249.52-.177 1.492.119 2.109s3.532 2.434 7.897 2.141c4.365-.293 7.363-2.044 9.027-3.141 1.664-1.098 3.397-1.302 5.559-1.426 2.161-.123 5-1.196 5.474-2.202.475-1.007-.071-2.74-.071-2.74l-28.005 5.259Z"/>
  <path fill="#000" d="M442.318 314.035a17.508 17.508 0 0 0-.345-.071c-.191-.038-.387-.076-.576-.031-.214.051-.39.201-.539.362-.469.508-.753 1.154-1.115 1.743-.915 1.486-2.836 2.717-4.934 3.839-1.426.763-2.823 1.355-4.295 2.014-1.502.673-3.496 1.083-4.671 1.873-1.713 1.149-1.934 4.037.017 5.177 1.683.985 6.114 2.051 10.759.74 2.531-.713 5.341-3.406 8.662-3.664 2.113-.165 6.108-.755 7.468-2.353.502-.709-.169-2.954-.72-4.892-.602-2.116-1.174-5.418-1.878-5.231-.029.416-.094.507-.368.79-.261.269-.612.439-.895.681-.522.443-.843 1.071-1.168 1.674-.141.26-.307.537-.6.647-.356.133-.622-.091-.934-.233a1.825 1.825 0 0 0-1.262-.09 7.83 7.83 0 0 1 .223-1.242c.034-.131.073-.271.03-.401-.042-.131-.157-.223-.27-.302-.814-.57-1.655-.829-2.589-1.03Z"/>
  <path fill="#F5F5F5" d="M436.781 318.734s.303-.808 1.56-1.04c.961-.178 2.659.527 3.714 1.392a.784.784 0 1 1-1.014 1.197c-.691-.598-2.243-1.688-4.26-1.549Zm-2.976 1.66s.621-.966 1.848-.948c0 0 2.51.071 4.063 1.514.396.367.369.994-.105 1.253a.755.755 0 0 1-.867-.1c-.7-.623-2.103-1.93-4.939-1.719Zm-3.293 1.498s.692-.875 1.919-.857c0 0 2.339.088 3.892 1.529.396.368.369.994-.105 1.253a.753.753 0 0 1-.867-.1c-.7-.622-2.002-2.036-4.839-1.825Z"/>
  <path fill="#455A64" d="M479.078 214.055c.549 16.588.588 52.507.588 52.507.176 2.064.354 5.733.509 13.166.225 10.779.742 37.381.742 37.381s-5.166 2.415-9.903.449c0 0-6.603-37.409-7.955-48.079-1.18-9.311-3.444-31.153-3.444-31.153l-3.125 27.728s.035 7.14-.422 13.521c-.352 4.936-5.163 30.378-5.163 30.378s-4.393 1.419-9.553-.315c0 0-.439-39.056-.526-43.585-.1-5.162 1.235-60.887 1.235-60.887l37.017 8.889Z"/>
  <path fill="#37474F" d="m459.617 238.326-1.186-9.4s-4.963-1.001-10.74-4.901c0 0 2.289 3.054 9.001 6.284l1.515 8.529-1.715 27.216 3.125-27.728Z"/>
  <path fill="#B16668" d="M441.625 167.509c-2.436 3.182-14.972 20.298-14.972 20.298l-11.57-8.927c-2.738-2.113-3.51-4.88-5.208-6.786-1.699-1.905-3.55-2.373-5.452-3.973-1.901-1.6-2.637-2.811-3.286-1.449-.648 1.362 1.451 3.747 1.816 4.328.365.58 2.526 1.944-.346 1.828-2.873-.116-8.384-3.417-9.72-4.018-1.337-.601-1.368 1.043-.745 2.121.623 1.078.323 4.08 1.056 6.013.732 1.931 2.044 3.11 4.685 4.418 2.46 1.218 8.453 1.983 10.401 3.207 4.271 4.357 12.336 12.506 14.374 14.011 2.808 2.073 5.522 3.986 9.814-.122 4.292-4.109 16.735-20.255 16.735-20.255l2.573-15.341c-4.233-.191-7.219.814-10.155 4.647Z"/>
  <path fill="#9A4A4D" d="M426.652 187.808c1.589 1.166 3.24 3.789 3.397 4.964 0 0 .191-3.134-2.717-5.893l-.68.929Z"/>
  <path fill="url(#c)" d="M452.758 162.452s-5.949-.079-8.569 1.747c-2.62 1.827-4.554 4.465-8.805 10.646a977.29 977.29 0 0 1-5.525 7.972s3.115 5.253 10.115 7.689l11.112-13.705 1.672-14.349Z"/>
  <path fill="url(#d)" d="M464.279 162.159c3.377.326 8.103.365 11.454.703 2.323.951 6.791 4.829 6.458 7.597-1.242 10.335-3.761 27.28-3.761 27.28l.829 17.944c-4.644 4.613-26.386 6.416-37.583-.967 0 0 .362-32.256 1.131-37.695 1.382-9.778 2.591-13.406 7.659-14.272 5.067-.866 13.813-.59 13.813-.59Z"/>
  <path fill="#B16668" d="M483.389 167.769c2.436 3.182 14.972 20.297 14.972 20.297l11.57-8.927c2.739-2.113 3.511-4.879 5.208-6.785 1.699-1.905 3.551-2.373 5.452-3.974 1.902-1.599 2.638-2.81 3.286-1.448.649 1.362-1.45 3.746-1.816 4.327-.365.581-2.526 1.945.347 1.829 2.873-.116 8.383-3.417 9.72-4.018 1.337-.602 1.367 1.043.745 2.12-.623 1.078-.323 4.081-1.056 6.013-.733 1.933-2.044 3.111-4.685 4.418-2.461 1.219-8.454 1.984-10.401 3.208-4.271 4.356-12.337 12.506-14.376 14.011-2.807 2.073-5.522 3.986-9.813-.122-4.292-4.109-14.108-16.883-14.108-16.883l-5.2-18.713c4.233-.191 7.219.813 10.155 4.647Z"/>
  <path fill="#9A4A4D" d="M498.36 188.066c-1.588 1.166-3.24 3.789-3.397 4.963 0 0-.19-3.133 2.716-5.892l.681.929Z"/>
  <path fill="url(#e)" d="M472.66 162.635s5.348-.329 8.162 1.821c2.538 1.939 4.555 4.465 8.806 10.646 3.726 5.418 5.524 7.973 5.524 7.973s-3.114 5.252-10.115 7.688l-7.548-9.31c-3.963-4.975-7.87-12.547-4.829-18.818Z"/>
  <path fill="#472E03" d="M465.117 137.845c.051 5.753-4.594 10.459-10.373 10.509-5.779.051-10.506-4.573-10.556-10.327-.051-5.753 4.594-10.459 10.373-10.509 5.779-.05 10.506 4.573 10.556 10.327Z"/>
  <path fill="#263238" d="M472.806 145.186s-1.626 7.946-2.295 9.255c-.668 1.31-2.07 1.692-2.07 1.692l.07-5.581 4.295-5.366Z"/>
  <path fill="#472E03" d="M470.581 133.843s1.823-.328 3.259 1.109c1.408 1.409.668 5.863-1.032 10.234l-3.191.394.964-11.737Z"/>
  <path fill="#B16668" d="M468.657 145.59c.644.375 1.547-.858 2.329-1.687.783-.83 3.351-1.977 4.662.71 1.335 2.738-1.08 6.393-3.104 7.045-3.489 1.123-4.034-1.106-4.034-1.106l-.144 12.95c-4.301 5.59-16.376 5.227-11.397-.617l-.023-3.823s-3.165.506-4.714.282c-2.576-.374-4.212-2.381-5.018-5.146-1.292-4.442-1.8-8.033-.813-16.801 1.081-9.61 12.295-9.808 18.384-6.066 6.09 3.742 3.872 14.259 3.872 14.259Z"/>
  <path fill="#472E03" d="M468.669 146.663c.322.003 1.529-2.032 2.32-2.761 1.096-1.01-.408-10.06-.408-10.06s1.344-2.574-.804-4.886c-1.528-1.645-3.657-3.651-10.517-2.784-4.89.619-10.206 2.186-14.528.118-.622 2.672-.074 5.642 2.62 7.726 0 0 1.567.987 5.67 1.448 4.103.46 10.481-.187 11.352-.314 1.187-.172 1.45.973 2.119 4.1.586 2.745 1.093 7.401 2.176 7.413Z"/>
  <path fill="#472E03" d="m470.579 134.546 3.854-2.103c-.559-1.1-1.875-1.52-2.94-.94-1.065.581-1.474 1.943-.914 3.043Z"/>
  <path fill="#9A4A4D" d="M456.945 159.061s5.733-1.201 7.731-2.282c1.338-.723 2.434-1.965 2.751-2.758 0 0-.36 1.7-1.548 3.239-1.453 1.881-8.921 3.322-8.921 3.322l-.013-1.521Z"/>
  <path fill="#263238" d="M456.481 144.676c.006.657.525 1.185 1.161 1.177.636-.007 1.147-.546 1.14-1.203-.005-.657-.525-1.184-1.16-1.177-.637.007-1.148.546-1.141 1.203Zm3.418-3.942-2.561-1.158c-.306.73.018 1.582.725 1.901.708.32 1.529-.013 1.836-.743Zm-10.96-1.412-2.228 1.744a1.364 1.364 0 0 0 1.955.279 1.479 1.479 0 0 0 .273-2.023Zm-1.341 5.078c.005.63.504 1.135 1.113 1.129.609-.007 1.098-.524 1.093-1.154-.005-.63-.504-1.135-1.113-1.129-.609.007-1.099.525-1.093 1.154Z"/>
  <path fill="#9A4A4D" d="m453.567 143.471-.644 6.871-3.564-1.364 4.208-5.507Zm1.964 9.451c0 .608.495 1.099 1.103 1.099.609 0 1.104-.492 1.104-1.099s-.495-1.098-1.104-1.098a1.1 1.1 0 0 0-1.103 1.098Z"/>
  <path fill="#E86B31" d="M483.693 79.763a18.5 18.5 0 0 1 4.925 1.841c1.541.844 2.848 1.876 3.916 3.098a11.133 11.133 0 0 1 2.309 4.166c.47 1.554.505 3.236.102 5.042-.327 1.476-.844 2.707-1.548 3.692a12.096 12.096 0 0 1-2.431 2.54 19.724 19.724 0 0 1-2.891 1.858 796.572 796.572 0 0 0-2.873 1.513 16.312 16.312 0 0 0-2.45 1.578c-.731.575-1.24 1.256-1.532 2.042a2.21 2.21 0 0 1-.734.941 1.302 1.302 0 0 1-1.098.222l-4.224-.932a1.565 1.565 0 0 1-.985-.68c-.249-.365-.311-.745-.184-1.143.395-1.422.98-2.618 1.76-3.588a13.903 13.903 0 0 1 2.597-2.504 20.02 20.02 0 0 1 2.969-1.811 85.325 85.325 0 0 0 2.866-1.487c.883-.481 1.639-.993 2.263-1.532a3.567 3.567 0 0 0 1.197-1.971c.311-1.401-.024-2.684-1.009-3.85-.985-1.165-2.459-1.964-4.423-2.397-3.148-.695-5.813.364-7.991 3.172-.275.366-.538.626-.785.784-.25.159-.616.184-1.098.077l-4.501-.992a1.258 1.258 0 0 1-.787-.522c-.192-.274-.246-.595-.164-.965.323-1.282 1.015-2.513 2.074-3.692 1.058-1.179 2.349-2.17 3.868-2.978 1.521-.804 3.221-1.369 5.099-1.69 1.879-.32 3.799-.264 5.763.168Zm-4.766 31.915c.406.089.726.315.955.676.232.36.301.742.211 1.148l-1.083 4.868a1.467 1.467 0 0 1-.679.953 1.468 1.468 0 0 1-1.152.21l-4.779-1.053a1.484 1.484 0 0 1-.959-.676 1.46 1.46 0 0 1-.211-1.149l1.083-4.869c.09-.405.317-.723.679-.954a1.485 1.485 0 0 1 1.155-.209l4.78 1.055Zm18.946 13.873a12.737 12.737 0 0 1 3.63-.075 9.844 9.844 0 0 1 3.308.986 7.761 7.761 0 0 1 2.551 2.083c.702.877 1.156 1.947 1.363 3.207.168 1.03.153 1.952-.045 2.763a8.276 8.276 0 0 1-.905 2.248 13.478 13.478 0 0 1-1.376 1.928c-.512.599-.996 1.166-1.452 1.703a11.16 11.16 0 0 0-1.164 1.637c-.322.553-.473 1.12-.458 1.698a1.516 1.516 0 0 1-.229.79.897.897 0 0 1-.647.423l-2.947.479a1.085 1.085 0 0 1-.808-.186.866.866 0 0 1-.41-.686c-.113-1.012-.045-1.928.207-2.749a9.35 9.35 0 0 1 1.021-2.266c.43-.691.91-1.33 1.436-1.918a54.476 54.476 0 0 0 1.456-1.685 8.826 8.826 0 0 0 1.058-1.558 2.47 2.47 0 0 0 .261-1.57c-.161-.976-.706-1.713-1.638-2.211-.931-.495-2.082-.632-3.452-.409-2.197.357-3.633 1.715-4.309 4.071-.083.303-.183.537-.303.702-.119.165-.346.275-.682.329l-3.14.512a.868.868 0 0 1-.64-.134c-.194-.127-.31-.319-.354-.577-.122-.904.005-1.87.382-2.896.374-1.026.947-1.991 1.714-2.894.767-.906 1.713-1.698 2.833-2.384a10.265 10.265 0 0 1 3.739-1.361Zm5.149 21.674c.284-.046.547.017.788.189.24.173.384.401.431.682l.557 3.399a1.01 1.01 0 0 1-.189.784 1.014 1.014 0 0 1-.687.428l-3.334.543a1.019 1.019 0 0 1-.788-.188 1.01 1.01 0 0 1-.431-.683l-.557-3.398a1.015 1.015 0 0 1 .189-.784 1.02 1.02 0 0 1 .686-.429l3.335-.543Z"/>
  <path fill="#000" d="M497.873 125.551a12.737 12.737 0 0 1 3.63-.075 9.844 9.844 0 0 1 3.308.986 7.761 7.761 0 0 1 2.551 2.083c.702.877 1.156 1.947 1.363 3.207.168 1.03.153 1.952-.045 2.763a8.276 8.276 0 0 1-.905 2.248 13.478 13.478 0 0 1-1.376 1.928c-.512.599-.996 1.166-1.452 1.703a11.16 11.16 0 0 0-1.164 1.637c-.322.553-.473 1.12-.458 1.698a1.516 1.516 0 0 1-.229.79.897.897 0 0 1-.647.423l-2.947.479a1.085 1.085 0 0 1-.808-.186.866.866 0 0 1-.41-.686c-.113-1.012-.045-1.928.207-2.749a9.35 9.35 0 0 1 1.021-2.266c.43-.691.91-1.33 1.436-1.918a54.476 54.476 0 0 0 1.456-1.685 8.826 8.826 0 0 0 1.058-1.558 2.47 2.47 0 0 0 .261-1.57c-.161-.976-.706-1.713-1.638-2.211-.931-.495-2.082-.632-3.452-.409-2.197.357-3.633 1.715-4.309 4.071-.083.303-.183.537-.303.702-.119.165-.346.275-.682.329l-3.14.512a.868.868 0 0 1-.64-.134c-.194-.127-.31-.319-.354-.577-.122-.904.005-1.87.382-2.896.374-1.026.947-1.991 1.714-2.894.767-.906 1.713-1.698 2.833-2.384a10.265 10.265 0 0 1 3.739-1.361Zm5.149 21.674c.284-.046.547.017.788.189.24.173.384.401.431.682l.557 3.399a1.01 1.01 0 0 1-.189.784 1.014 1.014 0 0 1-.687.428l-3.334.543a1.019 1.019 0 0 1-.788-.188 1.01 1.01 0 0 1-.431-.683l-.557-3.398a1.015 1.015 0 0 1 .189-.784 1.02 1.02 0 0 1 .686-.429l3.335-.543Z" opacity=".2"/>
  <path fill="#E86B31" d="M528.626 135.182c.279.197.446.468.506.812.058.345-.012.656-.209.934l-2.374 3.323a1.203 1.203 0 0 1-.816.503 1.21 1.21 0 0 1-.937-.208l-3.263-2.309a1.202 1.202 0 0 1-.505-.812 1.192 1.192 0 0 1 .21-.933l2.373-3.324a1.2 1.2 0 0 1 .816-.503c.346-.059.657.01.936.208l3.263 2.309Zm13.804-22.53a15.04 15.04 0 0 1 3.121 2.947c.891 1.125 1.546 2.316 1.959 3.576a9.115 9.115 0 0 1 .407 3.87c-.144 1.321-.655 2.598-1.536 3.833-.719 1.008-1.503 1.771-2.348 2.289a9.826 9.826 0 0 1-2.644 1.143c-.916.243-1.841.404-2.772.484-.934.078-1.816.156-2.65.229-.832.074-1.617.211-2.349.413-.735.2-1.337.552-1.808 1.053a1.82 1.82 0 0 1-.854.476c-.321.076-.62.015-.899-.182l-2.883-2.041a1.275 1.275 0 0 1-.525-.825c-.072-.354.003-.66.227-.92.753-.946 1.577-1.661 2.474-2.145a11.435 11.435 0 0 1 2.758-1.062 16.218 16.218 0 0 1 2.816-.423 72.418 72.418 0 0 0 2.634-.211c.82-.083 1.552-.228 2.197-.436a2.942 2.942 0 0 0 1.531-1.105c.683-.958.84-2.03.471-3.221-.369-1.189-1.223-2.259-2.563-3.207-2.152-1.522-4.498-1.571-7.038-.147-.324.188-.606.303-.842.343-.239.039-.522-.057-.851-.29l-3.074-2.175a1.024 1.024 0 0 1-.426-.643c-.057-.268.005-.527.184-.778.654-.864 1.569-1.573 2.744-2.125 1.176-.552 2.465-.891 3.868-1.016s2.863-.012 4.381.343c1.519.351 2.949 1.003 4.29 1.953Z"/>
  <path fill="#fff" d="M528.626 135.182c.279.197.446.468.506.812.058.345-.012.656-.209.934l-2.374 3.323a1.203 1.203 0 0 1-.816.503 1.21 1.21 0 0 1-.937-.208l-3.263-2.309a1.202 1.202 0 0 1-.505-.812 1.192 1.192 0 0 1 .21-.933l2.373-3.324a1.2 1.2 0 0 1 .816-.503c.346-.059.657.01.936.208l3.263 2.309Zm13.804-22.53a15.04 15.04 0 0 1 3.121 2.947c.891 1.125 1.546 2.316 1.959 3.576a9.115 9.115 0 0 1 .407 3.87c-.144 1.321-.655 2.598-1.536 3.833-.719 1.008-1.503 1.771-2.348 2.289a9.826 9.826 0 0 1-2.644 1.143c-.916.243-1.841.404-2.772.484-.934.078-1.816.156-2.65.229-.832.074-1.617.211-2.349.413-.735.2-1.337.552-1.808 1.053a1.82 1.82 0 0 1-.854.476c-.321.076-.62.015-.899-.182l-2.883-2.041a1.275 1.275 0 0 1-.525-.825c-.072-.354.003-.66.227-.92.753-.946 1.577-1.661 2.474-2.145a11.435 11.435 0 0 1 2.758-1.062 16.218 16.218 0 0 1 2.816-.423 72.418 72.418 0 0 0 2.634-.211c.82-.083 1.552-.228 2.197-.436a2.942 2.942 0 0 0 1.531-1.105c.683-.958.84-2.03.471-3.221-.369-1.189-1.223-2.259-2.563-3.207-2.152-1.522-4.498-1.571-7.038-.147-.324.188-.606.303-.842.343-.239.039-.522-.057-.851-.29l-3.074-2.175a1.024 1.024 0 0 1-.426-.643c-.057-.268.005-.527.184-.778.654-.864 1.569-1.573 2.744-2.125 1.176-.552 2.465-.891 3.868-1.016s2.863-.012 4.381.343c1.519.351 2.949 1.003 4.29 1.953Z" opacity=".6"/>
  <path fill="#FFA8A7" d="M237.966 312.974c-.097-2.674 1.858-29.025 1.858-29.025l-12.879 9.297c2.643 15.704 3.207 19.407 3.253 21.977-.02.059-.073.278-.07.658.011 3.052 3.47 4.697 6.168 6.731 1.067.803 4.166 3.175 7.297 4.742 1.96.981 5.94 1.07 6.434-.186-3.284-2.495-8.058-6.231-10.669-9.081-1.247-1.361-1.296-2.438-1.392-5.113Z"/>
  <path fill="#263238" d="M255.623 330.452c.169 0 .366 1.669-.548 2.455-1.056.906-4.098 2.465-8.191 1.938-4.094-.528-6.31-1.682-7.948-3.047-1.638-1.365-3.933-3.291-5.785-3.697-1.72-.378-3.588-1.154-4.139-1.683-.55-.529-.473-2.883-.473-2.883l27.084 6.917Z"/>
  <path fill="#000" d="M230.172 314.477s-.514.006-.62.55c-.126.648-.263 2.534-.533 3.599-.376 1.479-.628 4.512-.402 5.718.225 1.206 3.028 2.044 4.821 2.723 1.83.695 3.947 2.125 5.805 3.651 1.923 1.579 5.969 3.222 8.638 3.203 3.157-.022 6.71-1.04 7.525-2.497 1.008-1.804.218-2.848-4.462-5.008-.886-.408-3.999-2.243-5.059-2.907-2.87-1.799-5.712-4.303-7.033-7.485-.154-.372-.315-.784-.672-.974-.274-.145-.604-.124-.911-.081a7.71 7.71 0 0 0-2.252.676c-.628.298-1.519.645-1.506 1.446.004.278.086.55.177.814.056.164.1.381-.044.478-.135.091-.315-.013-.437-.121-.49-.438-.849-.998-1.262-1.508a4.624 4.624 0 0 0-.741-.752c-.253-.195-.576-.293-.801-.517-.286-.283-.218-.632-.231-1.008Z"/>
  <path fill="#000" d="M239.241 330.718a32.059 32.059 0 0 0-2.553-1.897v-.005s5.504 3.332 7.728 1.82c1.433-.974.751-2.158.717-2.536-.034-.378 3.5-1.998 4.891-2.162.388.213.713.385.917.479 4.68 2.16 5.471 3.204 4.462 5.007-.814 1.458-3.389 2.594-7.469 2.594-2.667 0-6.77-1.721-8.693-3.3Z"/>
  <path fill="#263238" d="M244.748 326.996c2.911 1.16 1.669 1.7.854 1.816-.815.116-5.714-2.732-8.702-5.086-3.116-2.455-5.081-5.138-6.239-6.04a20.463 20.463 0 0 1-1.309-1.135c.076-.638.138-1.219.197-1.524.106-.545.62-.55.62-.55.013.375-.055.725.23 1.007.224.223.548.321.802.517.278.217.519.479.74.752.412.51.771 1.07 1.262 1.508 2.542 3.211 8.635 7.577 11.545 8.735Z"/>
  <path fill="#F5F5F5" d="M245.394 328.387a.286.286 0 0 1-.223-.468c.822-1.001 3.19-2.327 5.332-2.093a.287.287 0 0 1 .255.316c-.017.157-.143.267-.318.254-1.999-.213-4.173 1.093-4.824 1.887a.286.286 0 0 1-.222.104Zm-2.536-1.556a.286.286 0 0 1-.223-.468c.821-1 3.189-2.325 5.332-2.092a.286.286 0 0 1 .255.316.285.285 0 0 1-.317.254c-2.001-.211-4.174 1.092-4.825 1.886a.286.286 0 0 1-.222.104Zm-2.543-1.473a.284.284 0 0 1-.182-.065.285.285 0 0 1-.041-.403c.822-1.002 3.191-2.33 5.332-2.093a.286.286 0 0 1 .255.316.284.284 0 0 1-.317.255c-2.001-.214-4.174 1.092-4.825 1.885a.283.283 0 0 1-.222.105Zm-2.351-1.683a.286.286 0 0 1-.223-.467c.821-1.002 3.198-2.327 5.331-2.093a.287.287 0 1 1-.062.57c-1.998-.212-4.173 1.092-4.825 1.886a.284.284 0 0 1-.221.104Zm-2.305-1.683a.285.285 0 0 1-.226-.464c1.13-1.42 3.682-2.355 5.823-2.121a.285.285 0 0 1 .255.316.288.288 0 0 1-.317.254c-1.928-.208-4.307.649-5.311 1.907a.282.282 0 0 1-.224.108Z"/>
  <path fill="#FFA8A7" d="m213.698 295.934-12.995-.235c.193 8.636 1.571 18.223 1.797 26.326.042 1.526-.039 11.853.539 14.991.869 4.716 6.49 4.079 6.789 1.256.298-2.821-.362-14.878-.344-16.121-.05-5.197 2.397-13.97 3.68-23.299.062-.457.475-2.471.534-2.918Z"/>
  <path fill="#263238" d="M211.946 340.238c.117 2.771-.128 4.64-.947 6.355-.819 1.714-2.62 2.406-4.544 2.121-1.924-.286-4.454-1.31-5.231-3.633-.778-2.323-.834-3.962-.666-6.56l11.388 1.717Z"/>
  <path fill="#000" d="M202.466 321.034c-.767.138-.622 3.86-.693 7.608-.077 4.018-1.101 5.779-1.2 9.076-.111 3.768.252 5.41 1.788 7.527 1.536 2.118 6.392 3.86 8.35.41 1.597-2.811 1.379-5.731.834-9.427-.563-3.821-.989-6.506-1.126-9.435-.131-2.799-.21-5.517-.913-5.76-.01.414-.008.938-.023 1.345-.01.313.064 1.828-.367 1.886a5.708 5.708 0 0 1-.114-1.048c-.011-.317-.072-.658-.302-.877-.232-.221-.577-.265-.897-.296a22.483 22.483 0 0 0-2.334-.123c-.388.004-.777.025-1.163.068-.313.035-.679.098-.965.237-.175.085-.331.232-.381.419-.036.139-.012.286.003.429a3.08 3.08 0 0 1-.02.773c-.017.112-.079.254-.193.239-.092-.013-.139-.121-.149-.212-.049-.448-.024-.781-.056-1.305-.014-.243-.008-.575-.03-.818-.019-.237-.041-.476-.049-.716Z"/>
  <path fill="#000" d="M200.641 336.644c-.021.544-.118 4.141.918 4.684 1.121.587 1.417-2.262 1.417-2.262s2.391-.999 6.138.206c-.126.594.62 2.439 1.565 1.939.938-.496.912-4.609.912-4.662.509 3.545.671 6.378-.88 9.108-1.958 3.449-6.815 1.707-8.35-.41-1.536-2.118-1.899-3.759-1.788-7.527.011-.378.036-.734.068-1.076Z"/>
  <path fill="#263238" d="M203.284 339.276c.12 1.346-1.259 1.026-1.509-.866-.25-1.893.339-6.502-.001-9.767.071-3.748-.074-7.47.693-7.608.001.046.007.092.009.138l.089 1.891c.005.275.006.52.038.81.258 2.744.405 8.082.42 10.612.017 2.53.141 3.444.261 4.79Zm5.411-.001c.12-1.346.244-2.259.26-4.789.016-2.512.16-7.787.415-10.548.142-.478.106-1.332.114-1.558.014-.38.013-.859.021-1.258.003-.028.004-.057.006-.085.508.184.688 1.669.799 3.538.012 1.086-.025 2.433-.106 4.068-.34 3.265.256 7.9.006 9.793-.249 1.891-1.635 2.185-1.515.839Z"/>
  <path fill="#F5F5F5" d="M209.201 339.373a.343.343 0 0 1-.108-.02c-.028-.013-2.979-1.159-6.016-.019a.29.29 0 0 1-.371-.167.286.286 0 0 1 .169-.369c3.25-1.22 6.304-.029 6.434.022a.287.287 0 0 1 .16.373.293.293 0 0 1-.268.18Zm.349-2.984a.276.276 0 0 1-.097-.017c-.033-.012-3.336-1.168-6.736-.018a.287.287 0 1 1-.185-.543c3.596-1.214 6.973-.029 7.117.021a.287.287 0 0 1-.099.557Zm-6.926-2.824a.29.29 0 0 1-.263-.167.289.289 0 0 1 .143-.38c3.347-1.516 6.948-.105 7.101-.044a.286.286 0 0 1 .159.373.291.291 0 0 1-.374.159c-.034-.013-3.532-1.38-6.646.034a.297.297 0 0 1-.12.025Zm-.063-2.632a.286.286 0 0 1-.259-.164.285.285 0 0 1 .135-.382c3.674-1.741 7.096-.147 7.239-.079.144.068.205.24.136.382a.29.29 0 0 1-.385.135c-.031-.016-3.323-1.54-6.743.079a.268.268 0 0 1-.123.029Zm-.062-2.961a.288.288 0 0 1-.258-.16.286.286 0 0 1 .131-.384c3.437-1.689 7.143-.075 7.299-.004a.285.285 0 0 1 .144.379.285.285 0 0 1-.381.143c-.036-.016-3.616-1.573-6.807-.004a.296.296 0 0 1-.128.03Z"/>
  <path fill="#455A64" d="M204.975 211.885c-4.582 12.636-3.772 20.564-2.989 33.803.72 12.144 1.868 22.835 1.868 22.835-.184 2.156-3.193 6.361-3.582 15.883-.364 8.903.922 20.068.922 20.068s6.007 2.181 11.068.005c0 0 5.191-22.793 6.604-33.938 1.232-9.726 3.373-22.153 3.373-22.153l4.536 22.1s-1.342 4.086-1.342 9.156c0 5.194 2.431 19.656 2.431 19.656s6.716 2.167 10.978-1.594c0 0 1.682-20.809 2.277-28.706.796-10.574-.362-39.57-2.908-54.416l-33.236-2.699Z"/>
  <path fill="#37474F" d="m222.238 248.39 1.876-16.635s8.399-1.118 12.205-4.679c0 0-2.86 5.216-9.898 6.228l-2.711 15.48 3.065 21.707-4.537-22.101Z"/>
  <path fill="#FFA8A7" d="M243.003 199.595c-4.078-4.18-11.457-13.644-11.457-13.644l-4.172-14.387c-.101.04 2.128.047 2.799.007 4.508.3 5.837.681 8.642 3.738 2.226 2.427 10.723 13.98 13.676 17.865l7.838-9.94c1.878-2.83 1.573-5.993 2.548-8.302.975-2.309 2.551-3.328 3.812-5.416 1.261-2.088 1.562-3.447 2.599-2.383 1.036 1.063-.159 3.945-.315 4.6-.155.655-1.734 2.606.904 1.593 2.637-1.013 6.717-5.821 7.77-6.803 1.054-.98 1.605.54 1.368 1.74-.237 1.199.896 3.915.485 5.904-.436 2.11-.749 3.074-2.792 5.124-1.904 1.909-6.563 4.249-8.385 6.753-1.822 2.503-5.711 10.291-8.088 14.983-3.021 5.965-5.594 7.93-8.991 5.921-3.397-2.009-6.73-5.803-8.241-7.353Z"/>
  <path fill="url(#f)" d="M228.701 171.428c2.843-.168 5.23.215 6.797.919 2.448 1.102 4.11 3.453 6.497 6.645 2.389 3.191 6.655 8.756 6.655 8.756s-1.154 4.84-8.766 9.186l-12.431-12.739 1.248-12.767Z"/>
  <path fill="#F28F8F" d="M252.491 193.172c-1.906 1.82-2.711 4.081-2.846 5.237 0 0-.88-2.878 2.17-6.126l.676.889Z"/>
  <path fill="url(#g)" d="M237.703 196.934c5.543-4.538 3.719-10.456 1.694-14.44-4.049-7.969-8.26-11.102-10.016-11.072l-11.032.103c-5.271.716-9.35.358-10.625.659-3.241.765-3.312 3.422-3.44 6.86-.14 3.768-2.078 3.129-1.089 9.361 0 0 2.452 4.987 3.046 7.14.593 2.154 2.269 5.591 1.38 9.075-.344 1.347-1.262 2.66-2.649 6.379-1.297 3.478-2.355 6.842-3.464 12.807 0 0 3.218-.746 6.882-4.623 0 0 5.004 6.674 17.045 5.997 12.491-.702 13.588-7.177 13.588-7.177l-1.905-11.692c.287-4.704.365-6.407.585-9.377Z"/>
  <path fill="#000" d="M230.497 195.745s-4.531 3.63-9.807 1.871c-5.276-1.76-6.121-6.309-6.121-6.309s-.451 5.977 6.198 7.896c6.416 1.851 9.73-3.458 9.73-3.458Z" opacity=".1"/>
  <path fill="#37474F" d="M198.921 166.289c-1.637-1.186-10.429 10.54-6.281 13.516 4.148 2.975 8.498-5.407 7.61-9.32-.887-3.914-1.329-4.196-1.329-4.196Z"/>
  <path fill="#FFA8A7" d="M190.934 160.468c2.199-3.036 3.695-5.326 5.705-7.929 1.142-1.478 1.869-2.531 2.966-4.047.754-1.044 1.192-1.92 2.043-2.254.958-.376 1.875-1.103 2.484-1.762.434-.471.788-1.01 1.161-1.53a22.632 22.632 0 0 1 4.469-4.642c1.789-1.392 3.785-2.463 5.622-3.791 1.096-.792 2.263-2.097.892-3.273-.409-.351-.925-.555-1.455-.661-3.29-.655-6.131.52-9.323 1.391-1.387.379-2.75.847-4.058 1.444-.635.291-1.267.604-1.789 1.065-.814.718-1.291 1.729-1.812 2.68-1.397 2.554-4.344 4.838-6.411 6.842-2.426 2.352-4.592 4.508-7.36 7.104-2.491 2.338-4.93 4.495-7.208 7.039-1.885 2.105-1.157 3.714-.873 4.27 1.621 3.178 3.394 4.296 5.522 6.245a320.08 320.08 0 0 0 2.124 1.922c2.762 2.479 5.527 4.797 8.394 7.155 3.063 2.519 4.327 3.742 7.062 6.177 1.617 1.44 2.918 3.151 4.247 5.509 4.738.783 9.391-6.433 5.329-14.865-.658-1.367-1.686-2.524-2.932-3.396-4.994-3.493-14.799-10.693-14.799-10.693Z"/>
  <path fill="#F28F8F" d="M190.934 160.467s-2.086 2.88-5.704 4.056c0 0 3.027.713 7.086-3.044l-1.382-1.012Z"/>
  <path fill="url(#h)" d="M208.108 172.112c-1.112-.769-3.808-2.392-9.19-5.825 0 0 .831 1.737-.482 6.087s-4.066 7.113-5.799 7.429c0 0 3.012 2.369 5.791 5.045 2.778 2.676 5.062 4.577 6.669 7.68 0 0 3.97-1.016 4.867-7.709.631-4.704.254-10.216-1.856-12.707Z"/>
  <path fill="#472E03" d="M238.237 150.535c1.601-3.176 1.333-7.593-.73-10.512-3.42-4.838-9.187-7.224-15.552-7.113l-1.977.035c-8.592.15-16.405 7.491-16.562 15.761l-.006-.002c0 5.823.024 11.202 3.216 15.166 2.972 3.691 7.595 4.908 11.506 5.499 7.467 1.129 15.853.266 19.242-4.791 0 0-4.459.869-3.938-3.759.082-.735-.622-1.542-1.858-2.379.926-1.471 1.858-2.965 3.041-4.173 1.283-1.307 2.752-2.015 3.618-3.732Z"/>
  <path fill="#FFA8A7" d="M236.007 154.787c-.045 8.663-2.83 10.852-4.234 11.491-1.403.64-4.141.313-6.798-.078l.091 5.197s3.114 3.139 2.927 5.523c-.193 2.39-4.759 2.734-8.235.463a26.115 26.115 0 0 1-5.159-4.476 1.848 1.848 0 0 1-.459-1.189l-.215-12.228s-1.425 1.557-4.026-.151c-2.594-1.702-2.875-4.958-1.338-6.831 1.095-1.329 3.936-1.47 5.337.541.792 1.481.724 2.518 1.771 2.344 1.009-.168 1.128-1.338 1.2-2.168.072-.831.04-1.106.102-2.196 2.573-.552 5.235-4.115 5.534-6.718 1.835.796 3.764 1.384 5.597 1.258 2.88-.199 4.367-.773 5.782-2.842.318.4.646 1.079.801 1.537.466 1.376.708 2.244.892 3.4.376 2.351.445 4.747.43 7.123Z"/>
  <path fill="#F28F8F" d="M224.973 166.199c-2.804-.316-8.588-1.862-9.524-4.111 0 0 .324 1.418 2.069 2.855 1.744 1.436 7.485 2.989 7.485 2.989l-.03-1.733Z"/>
  <path fill="#B16668" d="M227.796 161.533a1.14 1.14 0 0 1-1.122 1.157 1.14 1.14 0 0 1-1.162-1.117 1.14 1.14 0 0 1 1.122-1.157c.63-.011 1.15.49 1.162 1.117Z"/>
  <path fill="#263238" d="M226.334 153.004c.047.686-.453 1.276-1.116 1.319-.663.043-1.238-.478-1.285-1.164-.047-.686.453-1.276 1.116-1.319.663-.042 1.239.479 1.285 1.164Zm8.129-.515c.042.623-.411 1.16-1.015 1.199-.663.043-1.121-.373-1.168-1.058-.042-.624.412-1.161 1.015-1.2.602-.039 1.126.435 1.168 1.059Z"/>
  <path fill="#F28F8F" d="m228.844 151.365.871 7.236 3.724-1.538-4.595-5.698Z"/>
  <path fill="#263238" d="m221.98 149.876 2.167-2.05c.563.627.535 1.594-.063 2.161-.598.566-1.541.516-2.104-.111Zm10.83-2.71 2.402 1.809a1.45 1.45 0 0 1-2.072.335 1.571 1.571 0 0 1-.33-2.144Z"/>
  <path fill="#E86B31" d="M198.227 81.386a18.524 18.524 0 0 1 5.255-.237c1.75.17 3.36.608 4.826 1.313a11.196 11.196 0 0 1 3.769 2.925c1.047 1.245 1.743 2.777 2.088 4.595.281 1.485.294 2.82.035 4a11.995 11.995 0 0 1-1.231 3.288 19.502 19.502 0 0 1-1.923 2.841l-2.042 2.516a16.1 16.1 0 0 0-1.628 2.412c-.445.814-.644 1.641-.601 2.478.001.423-.1.806-.304 1.151a1.298 1.298 0 0 1-.921.635l-4.252.798a1.567 1.567 0 0 1-1.175-.241c-.372-.237-.579-.562-.619-.978-.201-1.461-.135-2.791.198-3.988a13.838 13.838 0 0 1 1.398-3.319 20.018 20.018 0 0 1 2.013-2.828c.742-.87 1.425-1.7 2.048-2.49.621-.789 1.114-1.555 1.475-2.295a3.56 3.56 0 0 0 .321-2.28c-.268-1.41-1.084-2.46-2.45-3.145-1.366-.684-3.037-.841-5.013-.47-3.17.595-5.2 2.611-6.093 6.047-.11.444-.248.786-.413 1.028-.167.244-.493.41-.978.501l-4.53.852a1.261 1.261 0 0 1-.93-.172c-.284-.177-.462-.452-.532-.823-.21-1.305-.06-2.708.447-4.207.506-1.498 1.302-2.916 2.379-4.253 1.079-1.336 2.419-2.521 4.019-3.551 1.601-1.031 3.388-1.732 5.364-2.103Zm8.235 31.206a1.48 1.48 0 0 1 1.146.246c.355.241.571.565.649.974l.929 4.899c.077.41-.005.79-.247 1.142a1.464 1.464 0 0 1-.977.645l-4.809.904a1.48 1.48 0 0 1-1.148-.246 1.464 1.464 0 0 1-.649-.973l-.929-4.901a1.477 1.477 0 0 1 .246-1.142 1.49 1.49 0 0 1 .98-.645l4.809-.903Zm37.604-10.976a12.755 12.755 0 0 1 2.891 2.188c.851.861 1.51 1.8 1.974 2.819.463 1.02.696 2.09.698 3.211.002 1.122-.311 2.24-.935 3.355-.511.911-1.099 1.625-1.761 2.137a8.312 8.312 0 0 1-2.112 1.201 13.64 13.64 0 0 1-2.281.659c-.775.151-1.508.296-2.2.434-.693.139-1.338.326-1.935.561-.597.235-1.07.585-1.419 1.048a1.538 1.538 0 0 1-.673.477.905.905 0 0 1-.77-.069l-2.608-1.448a1.085 1.085 0 0 1-.517-.646.867.867 0 0 1 .107-.791c.544-.863 1.169-1.538 1.878-2.025a9.555 9.555 0 0 1 2.215-1.144 13.94 13.94 0 0 1 2.324-.614c.779-.133 1.51-.273 2.192-.418a8.94 8.94 0 0 0 1.801-.566 2.49 2.49 0 0 0 1.184-1.067c.485-.864.517-1.78.098-2.746-.42-.965-1.236-1.783-2.448-2.457-1.945-1.079-3.917-.905-5.918.522-.254.186-.479.308-.675.363-.197.057-.443.001-.74-.164l-2.779-1.543a.873.873 0 0 1-.418-.501c-.073-.22-.044-.443.083-.671.469-.784 1.172-1.461 2.108-2.032.934-.572 1.984-.974 3.149-1.207 1.167-.234 2.402-.27 3.708-.113 1.308.158 2.567.574 3.779 1.247Zm-9.5 20.165c.251.14.418.352.5.635.08.285.049.552-.089.801l-1.685 3.008c-.14.25-.353.416-.638.496a1.025 1.025 0 0 1-.805-.088l-2.95-1.639a1.01 1.01 0 0 1-.499-.634 1.013 1.013 0 0 1 .089-.802l1.685-3.008c.14-.248.353-.415.638-.496.285-.08.554-.051.805.088l2.949 1.639Z"/>
  <path fill="#000" d="M244.066 101.616a12.755 12.755 0 0 1 2.891 2.188c.851.861 1.51 1.8 1.974 2.819.463 1.02.696 2.09.698 3.211.002 1.122-.311 2.24-.935 3.355-.511.911-1.099 1.625-1.761 2.137a8.312 8.312 0 0 1-2.112 1.201 13.64 13.64 0 0 1-2.281.659c-.775.151-1.508.296-2.2.434-.693.139-1.338.326-1.935.561-.597.235-1.07.585-1.419 1.048a1.538 1.538 0 0 1-.673.477.905.905 0 0 1-.77-.069l-2.608-1.448a1.085 1.085 0 0 1-.517-.646.867.867 0 0 1 .107-.791c.544-.863 1.169-1.538 1.878-2.025a9.555 9.555 0 0 1 2.215-1.144 13.94 13.94 0 0 1 2.324-.614c.779-.133 1.51-.273 2.192-.418a8.94 8.94 0 0 0 1.801-.566 2.49 2.49 0 0 0 1.184-1.067c.485-.864.517-1.78.098-2.746-.42-.965-1.236-1.783-2.448-2.457-1.945-1.079-3.917-.905-5.918.522-.254.186-.479.308-.675.363-.197.057-.443.001-.74-.164l-2.779-1.543a.873.873 0 0 1-.418-.501c-.073-.22-.044-.443.083-.671.469-.784 1.172-1.461 2.108-2.032.934-.572 1.984-.974 3.149-1.207 1.167-.234 2.402-.27 3.708-.113 1.308.158 2.567.574 3.779 1.247Zm-9.5 20.165c.251.14.418.352.5.635.08.285.049.552-.089.801l-1.685 3.008c-.14.25-.353.416-.638.496a1.025 1.025 0 0 1-.805-.088l-2.95-1.639a1.01 1.01 0 0 1-.499-.634 1.013 1.013 0 0 1 .089-.802l1.685-3.008c.14-.248.353-.415.638-.496.285-.08.554-.051.805.088l2.949 1.639Z" opacity=".2"/>
  <path fill="#E86B31" d="M180.532 134.586c.252-.23.552-.338.903-.326.351.016.642.147.874.396l2.778 2.997c.233.251.341.55.327.899a1.202 1.202 0 0 1-.397.87l-2.943 2.703a1.204 1.204 0 0 1-.902.325 1.204 1.204 0 0 1-.874-.396l-2.78-2.997a1.189 1.189 0 0 1-.325-.898c.013-.349.145-.638.398-.87l2.941-2.703ZM161.228 116.5a15.102 15.102 0 0 1 3.54-2.434c1.289-.637 2.595-1.029 3.918-1.172a9.22 9.22 0 0 1 3.888.401c1.269.411 2.419 1.173 3.451 2.286.842.908 1.431 1.828 1.767 2.759.337.932.529 1.868.579 2.81.05.943.018 1.877-.095 2.801-.115.927-.222 1.803-.321 2.629a13.12 13.12 0 0 0-.078 2.374c.046.757.267 1.416.662 1.978.185.293.282.602.291.931.009.328-.113.607-.363.838l-2.6 2.389a1.287 1.287 0 0 1-.919.341c-.363-.003-.648-.139-.857-.411-.776-.928-1.309-1.878-1.598-2.852-.29-.973-.45-1.941-.478-2.905a16.19 16.19 0 0 1 .164-2.831c.135-.923.247-1.793.334-2.61.088-.816.096-1.558.024-2.23a2.92 2.92 0 0 0-.772-1.719c-.8-.863-1.822-1.236-3.068-1.122-1.246.115-2.472.726-3.681 1.836-1.939 1.783-2.47 4.059-1.593 6.826.118.356.172.653.162.892-.01.241-.162.496-.459.769l-2.772 2.547a1.024 1.024 0 0 1-.719.283c-.275 0-.516-.114-.727-.34-.714-.816-1.222-1.852-1.523-3.111-.3-1.259-.369-2.584-.203-3.978.166-1.392.578-2.791 1.239-4.197.662-1.408 1.598-2.667 2.807-3.778Z"/>
  <path fill="#fff" d="M180.532 134.586c.252-.23.552-.338.903-.326.351.016.642.147.874.396l2.778 2.997c.233.251.341.55.327.899a1.202 1.202 0 0 1-.397.87l-2.943 2.703a1.204 1.204 0 0 1-.902.325 1.204 1.204 0 0 1-.874-.396l-2.78-2.997a1.189 1.189 0 0 1-.325-.898c.013-.349.145-.638.398-.87l2.941-2.703ZM161.228 116.5a15.102 15.102 0 0 1 3.54-2.434c1.289-.637 2.595-1.029 3.918-1.172a9.22 9.22 0 0 1 3.888.401c1.269.411 2.419 1.173 3.451 2.286.842.908 1.431 1.828 1.767 2.759.337.932.529 1.868.579 2.81.05.943.018 1.877-.095 2.801-.115.927-.222 1.803-.321 2.629a13.12 13.12 0 0 0-.078 2.374c.046.757.267 1.416.662 1.978.185.293.282.602.291.931.009.328-.113.607-.363.838l-2.6 2.389a1.287 1.287 0 0 1-.919.341c-.363-.003-.648-.139-.857-.411-.776-.928-1.309-1.878-1.598-2.852-.29-.973-.45-1.941-.478-2.905a16.19 16.19 0 0 1 .164-2.831c.135-.923.247-1.793.334-2.61.088-.816.096-1.558.024-2.23a2.92 2.92 0 0 0-.772-1.719c-.8-.863-1.822-1.236-3.068-1.122-1.246.115-2.472.726-3.681 1.836-1.939 1.783-2.47 4.059-1.593 6.826.118.356.172.653.162.892-.01.241-.162.496-.459.769l-2.772 2.547a1.024 1.024 0 0 1-.719.283c-.275 0-.516-.114-.727-.34-.714-.816-1.222-1.852-1.523-3.111-.3-1.259-.369-2.584-.203-3.978.166-1.392.578-2.791 1.239-4.197.662-1.408 1.598-2.667 2.807-3.778Z" opacity=".6"/>
  <path fill="#E86B31" d="M364.209 197.245a8671.483 8671.483 0 0 1-18.308-10.519c-1.807-1.034-3.815-1.328-6.013-.926-1.563.287-3.219.914-4.98 1.926-.255.147-.5.319-.75.476-4.155 2.613-7.728 6.73-10.703 12.389-3.156 6.004-4.732 11.978-4.732 17.924 0 5.949 1.593 10.122 4.779 12.519.329.247.665.468 1.008.662 2.983 1.686 17.962 10.323 18.296 10.513.024.014.051.022.076.036a9.064 9.064 0 0 1-1.056-.683c-3.186-2.396-4.779-6.57-4.779-12.519 0-5.946 1.576-11.919 4.733-17.924 3.155-6 6.972-10.289 11.452-12.865 4.267-2.452 7.951-2.769 11.055-.959-.028-.016-.052-.035-.078-.05Z"/>
  <path fill="#000" d="M364.286 197.297c-3.103-1.814-6.792-1.499-11.059.952-4.167 2.398-7.766 6.286-10.778 11.647l-18.32-10.533c2.832-5.038 6.179-8.747 10.03-11.162.244-.153.496-.333.749-.476 1.759-1.015 3.418-1.644 4.979-1.922 2.201-.404 4.203-.108 6.016.925.045.018.496.287 1.227.709 3.68 2.111 14.504 8.343 17.075 9.806l.081.054Z" opacity=".4"/>
  <path fill="#000" d="M342.883 242.243a.32.32 0 0 1-.081-.036c-.334-.189-15.307-8.827-18.292-10.516a9.64 9.64 0 0 1-1.011-.655c-3.184-2.398-4.78-6.574-4.78-12.518 0-5.954 1.578-11.926 4.735-17.924.217-.423.442-.836.677-1.231l18.319 10.534c-.225.395-.451.808-.667 1.221-3.157 6.008-4.736 11.979-4.736 17.924 0 5.954 1.588 10.121 4.781 12.518a8.56 8.56 0 0 0 1.055.683Z" opacity=".3"/>
  <path fill="#E86B31" d="M356.212 43.146c8.897-5.114 16.47-7.289 22.717-6.524 2.64.323 5.053 1.124 7.247 2.39-.059-.034-.117-.074-.178-.108-2.145-1.207-15.079-8.63-18.032-10.36-2.224-1.305-4.677-2.121-7.361-2.45-6.247-.764-13.819 1.41-22.717 6.524-13.82 7.944-24.958 19.61-33.413 35.003-8.457 15.391-12.622 31.116-12.496 47.173l18.324 10.528c-.128-16.057 4.038-31.78 12.495-47.173 8.456-15.393 19.595-27.06 33.414-35.003Z"/>
  <path fill="#000" d="M386 38.909c-2.146-1.195-4.501-1.967-7.071-2.29-6.242-.764-13.819 1.41-22.713 6.528-13.818 7.939-24.958 19.613-33.419 35.004a99.754 99.754 0 0 0-1.028 1.922l-18.32-10.534c.334-.637.677-1.284 1.028-1.921 8.452-15.392 19.592-27.057 33.411-35.004 8.902-5.11 16.47-7.283 22.721-6.52 2.679.332 5.132 1.14 7.36 2.452 2.95 1.733 15.885 9.15 18.031 10.363Z" opacity=".2"/>
  <path fill="#000" d="M321.767 80.073c-7.766 14.78-11.582 29.858-11.464 45.25l-18.32-10.534c-.117-15.391 3.689-30.469 11.465-45.25l18.319 10.534Z" opacity=".3"/>
  <path fill="#E86B31" d="M368.657 72.995c-3.323-1.758-7.764-1.065-13.318 2.07a32.764 32.764 0 0 1-2.024 9.623c-1.388 3.732-5.428 11.413-12.115 23.048-6.943 12.032-11.959 23.522-15.05 34.471-3.092 10.95-4.638 22.037-4.638 33.261l.094 5.6 12.502 7.183 5.823 3.345-.095-5.6.003-.147c.013-11.174 1.556-22.212 4.635-33.114 3.091-10.949 8.108-22.439 15.05-34.471 6.687-11.635 10.727-19.316 12.115-23.047a32.712 32.712 0 0 0 2.083-11.5c-.001-5.36-1.689-8.934-5.065-10.722Z"/>
  <path fill="#000" d="M369.845 99.282c-2.066 4.284-5.511 10.606-10.319 18.984-6.945 12.033-11.961 23.519-15.054 34.474-3.076 10.902-4.619 21.938-4.637 33.11v.143l.099 5.604-5.826-3.341-12.502-7.184-.09-5.603c0-11.225 1.542-22.307 4.636-33.262 3.094-10.947 8.109-22.441 15.045-34.474 4.817-8.37 8.263-14.692 10.337-18.975l18.311 10.524Z" opacity=".3"/>
  <path fill="#000" d="M373.72 83.72c0 3.932-.694 7.767-2.083 11.493-.388 1.051-.992 2.407-1.795 4.068l-18.311-10.524c.803-1.661 1.398-3.017 1.786-4.068a32.94 32.94 0 0 0 2.021-9.627c5.556-3.134 9.994-3.825 13.322-2.065 3.373 1.787 5.06 5.361 5.06 10.722Z" opacity=".4"/>
  <path fill="url(#i)" d="m335.104 111.066-24.8 14.255c-.128-16.057 4.038-31.781 12.495-47.174 8.455-15.39 19.594-27.059 33.413-35.001 8.898-5.114 16.47-7.288 22.718-6.524 6.247.765 11.248 4.174 15.003 10.223 3.754 6.053 5.632 13.6 5.632 22.646 0 4.944-.6 10.146-1.799 15.61-1.199 5.464-3.092 11.452-5.68 17.965-1.514 3.803-5.143 10.83-10.885 21.083-5.49 9.774-8.931 16.422-10.318 19.94-1.388 3.521-2.556 7.814-3.503 12.881-.946 5.067-1.547 11.695-1.798 19.881l-25.652 14.744-.095-5.6c0-11.224 1.546-22.311 4.638-33.261 3.091-10.949 8.108-22.439 15.05-34.472 6.687-11.634 10.728-19.316 12.116-23.047a32.733 32.733 0 0 0 2.082-11.5c0-5.36-1.688-8.934-5.063-10.722-3.377-1.785-7.904-1.048-13.584 2.217-5.806 3.338-10.57 8.347-14.292 15.028-3.722 6.684-5.616 13.627-5.678 20.828Z"/>
  <path fill="url(#j)" d="M353.183 198.304c4.606-2.647 8.534-2.811 11.785-.492 3.249 2.322 4.874 6.455 4.874 12.401 0 5.949-1.609 11.963-4.827 18.041-3.218 6.079-7.1 10.426-11.643 13.037-4.544 2.612-8.409 2.717-11.596.321-3.187-2.397-4.78-6.571-4.78-12.519 0-5.947 1.577-11.919 4.733-17.924 3.157-6.001 6.973-10.29 11.454-12.865Z"/>
  <path fill="url(#k)" d="M627.253 332.635c8.553-25.734 13-52.249 13.736-78.274.736-26.033-2.239-51.575-8.525-75.53l14.369-3.327 14.368-3.328c2.118 28.982.061 57.656-5.74 84.78-5.802 27.132-15.348 52.714-28.208 75.679Z"/>
  <path fill="url(#l)" d="M630.291 115.615c8.459 8.217 16.525 17.469 24.05 27.71 7.525 10.24 14.513 21.469 20.816 33.615l-27.329 5.348-27.33 5.348c3.235-10.727 5.766-22.172 7.448-34.219 1.681-12.046 2.512-24.694 2.345-37.802Z"/>
  <defs>
    <linearGradient id="a" x1="47.501" x2="140.416" y1="355.626" y2="235.808" gradientUnits="userSpaceOnUse">
      <stop offset=".634" stop-color="#FB8D48"/>
      <stop offset="1" stop-color="#C54E47"/>
      <stop offset="1" stop-color="#ED7136"/>
      <stop offset="1" stop-color="#D45B41"/>
      <stop offset="1" stop-color="#C14F49"/>
      <stop offset="1" stop-color="#9D3863"/>
      <stop offset="1" stop-color="#5E1F72"/>
    </linearGradient>
    <linearGradient id="b" x1="47.709" x2="64.351" y1="198.179" y2="114.659" gradientUnits="userSpaceOnUse">
      <stop stop-color="#FB8D48"/>
      <stop offset=".2" stop-color="#ED7136"/>
      <stop offset=".4" stop-color="#C54E47"/>
      <stop offset=".4" stop-color="#C14F49"/>
      <stop offset=".6" stop-color="#9D3863"/>
      <stop offset=".8" stop-color="#5E1F72"/>
    </linearGradient>
    <linearGradient id="c" x1="441.5" x2="440.991" y1="157.488" y2="210.603" gradientUnits="userSpaceOnUse">
      <stop stop-color="#FB8D48"/>
      <stop offset=".2" stop-color="#ED7136"/>
      <stop offset=".4" stop-color="#C54E47"/>
      <stop offset=".4" stop-color="#C14F49"/>
      <stop offset=".6" stop-color="#9D3863"/>
      <stop offset=".8" stop-color="#5E1F72"/>
    </linearGradient>
    <linearGradient id="d" x1="461.5" x2="467.901" y1="153.488" y2="211.283" gradientUnits="userSpaceOnUse">
      <stop stop-color="#FB8D48"/>
      <stop offset=".2" stop-color="#ED7136"/>
      <stop offset=".4" stop-color="#C54E47"/>
      <stop offset=".4" stop-color="#C14F49"/>
      <stop offset=".6" stop-color="#9D3863"/>
      <stop offset=".8" stop-color="#5E1F72"/>
    </linearGradient>
    <linearGradient id="e" x1="483" x2="485.749" y1="152.488" y2="208.386" gradientUnits="userSpaceOnUse">
      <stop stop-color="#FB8D48"/>
      <stop offset=".2" stop-color="#ED7136"/>
      <stop offset=".4" stop-color="#C54E47"/>
      <stop offset=".4" stop-color="#C14F49"/>
      <stop offset=".6" stop-color="#9D3863"/>
      <stop offset=".8" stop-color="#5E1F72"/>
    </linearGradient>
    <linearGradient id="f" x1="236" x2="237.615" y1="165.988" y2="207.131" gradientUnits="userSpaceOnUse">
      <stop stop-color="#FB8D48"/>
      <stop offset=".2" stop-color="#ED7136"/>
      <stop offset=".4" stop-color="#C54E47"/>
      <stop offset=".4" stop-color="#C14F49"/>
      <stop offset=".6" stop-color="#9D3863"/>
      <stop offset=".8" stop-color="#5E1F72"/>
    </linearGradient>
    <linearGradient id="g" x1="228" x2="231.973" y1="159.988" y2="219.488" gradientUnits="userSpaceOnUse">
      <stop stop-color="#FB8D48"/>
      <stop offset=".2" stop-color="#ED7136"/>
      <stop offset=".4" stop-color="#C54E47"/>
      <stop offset=".4" stop-color="#C14F49"/>
      <stop offset=".6" stop-color="#9D3863"/>
      <stop offset=".8" stop-color="#5E1F72"/>
    </linearGradient>
    <linearGradient id="h" x1="204.5" x2="206.541" y1="166.488" y2="212.915" gradientUnits="userSpaceOnUse">
      <stop stop-color="#FB8D48"/>
      <stop offset=".2" stop-color="#ED7136"/>
      <stop offset=".4" stop-color="#C54E47"/>
      <stop offset=".4" stop-color="#C14F49"/>
      <stop offset=".6" stop-color="#9D3863"/>
      <stop offset=".8" stop-color="#5E1F72"/>
    </linearGradient>
    <linearGradient id="i" x1="311.853" x2="399.89" y1="103.261" y2="104.244" gradientUnits="userSpaceOnUse">
      <stop stop-color="#FB8D48"/>
      <stop offset=".2" stop-color="#ED7136"/>
      <stop offset=".4" stop-color="#C54E47"/>
      <stop offset=".4" stop-color="#C14F49"/>
      <stop offset=".6" stop-color="#9D3863"/>
      <stop offset=".8" stop-color="#5E1F72"/>
    </linearGradient>
    <linearGradient id="j" x1="337.567" x2="369.96" y1="216.486" y2="216.924" gradientUnits="userSpaceOnUse">
      <stop stop-color="#FB8D48"/>
      <stop offset=".2" stop-color="#ED7136"/>
      <stop offset=".4" stop-color="#C54E47"/>
      <stop offset=".4" stop-color="#C14F49"/>
      <stop offset=".6" stop-color="#9D3863"/>
      <stop offset=".8" stop-color="#5E1F72"/>
    </linearGradient>
    <linearGradient id="k" x1="640.718" x2="527.246" y1="376.763" y2="266.029" gradientUnits="userSpaceOnUse">
      <stop stop-color="#FB8D48"/>
      <stop offset=".2" stop-color="#ED7136"/>
      <stop offset=".4" stop-color="#C54E47"/>
      <stop offset=".4" stop-color="#C14F49"/>
      <stop offset=".6" stop-color="#9D3863"/>
      <stop offset=".8" stop-color="#5E1F72"/>
    </linearGradient>
    <linearGradient id="l" x1="643.579" x2="618.117" y1="207.761" y2="111.673" gradientUnits="userSpaceOnUse">
      <stop stop-color="#FB8D48"/>
      <stop offset=".2" stop-color="#ED7136"/>
      <stop offset=".4" stop-color="#C54E47"/>
      <stop offset=".4" stop-color="#C14F49"/>
      <stop offset=".6" stop-color="#9D3863"/>
      <stop offset=".8" stop-color="#5E1F72"/>
    </linearGradient>
  </defs>
</svg>
