<svg xmlns="http://www.w3.org/2000/svg" width="541" height="595" fill="none" viewBox="0 0 541 595">
  <path fill="url(#a)" d="m103.559 176.767-.199-1.27h-1.258c-24.498 0-32.444-7.952-32.51-8.019l-1.06-1.203-1.059 1.203c-.066.067-7.945 8.019-32.51 8.019h-1.258l-.198 1.27c-.067.401-5.231 40.227 34.364 60.675l.662.335.662-.335c39.727-20.448 34.364-60.274 34.364-60.675Zm-5.96 24.658c-4.899 14.3-14.698 25.393-29.133 33.01-14.434-7.617-24.233-18.71-29.133-33.01-3.575-10.492-3.377-19.647-3.112-22.921 20.394-.267 29.465-5.747 32.245-8.019 2.781 2.205 11.853 7.752 32.246 8.019.265 3.341.463 12.429-3.112 22.921Zm44.827-75.845-1.391-3.676c-1.258-.133-2.45-.467-3.642-.868l-2.847 2.673-8.21-5.948 1.589-3.608a16.094 16.094 0 0 1-1.986-3.208l-3.907-.133-1.655-10.091 3.642-1.403c.132-1.27.463-2.472.86-3.675l-2.648-2.874 5.893-8.353 3.575 1.604a15.932 15.932 0 0 1 3.178-2.004l.133-3.943 9.998-1.67 1.39 3.675c1.258.133 2.45.467 3.642.868l2.847-2.673 8.21 5.948-1.589 3.608a16.104 16.104 0 0 1 1.987 3.208l3.906.133 1.656 10.091-3.642 1.403c-.199 1.27-.464 2.472-.861 3.675l2.649 2.874-5.893 8.353-3.576-1.604a15.914 15.914 0 0 1-3.178 2.005l-.132 3.942-9.998 1.671Zm-5.695-7.752.795.334c1.457.602 3.046.936 4.635 1.07l.861.066 1.191 3.141 5.496-.935.132-3.342.795-.334c1.457-.668 2.781-1.537 4.039-2.539l.662-.535 3.046 1.404 3.244-4.544-2.317-2.473.331-.802c.596-1.47.927-3.074 1.059-4.677l.066-.869 3.112-1.203-.927-5.546-3.31-.134-.331-.802c-.662-1.47-1.523-2.806-2.516-4.076l-.53-.668 1.39-3.074-4.502-3.275-2.45 2.272-.794-.334c-1.457-.601-3.046-.935-4.635-1.069l-.861-.067-1.192-3.14-5.495.935-.133 3.341-.794.334c-1.457.669-2.781 1.537-4.039 2.54l-.663.534-3.045-1.403-3.245 4.544 2.318 2.473-.331.802c-.596 1.47-.927 3.073-1.06 4.677l-.066.869-3.112 1.203.927 5.546 3.311.134.331.802c.662 1.47 1.523 2.806 2.516 4.076l.53.668-1.391 3.074 4.502 3.274 2.45-2.272Zm6.886-4.677c-2.251 0-4.502-.735-6.356-2.072-4.966-3.542-6.091-10.491-2.582-15.503 3.509-5.012 10.395-6.148 15.361-2.606 2.384 1.737 3.973 4.277 4.502 7.217.464 2.94-.198 5.88-1.854 8.286a11.2 11.2 0 0 1-7.15 4.544c-.729.067-1.325.134-1.921.134Zm0-19.446a8.114 8.114 0 0 0-6.687 3.475c-1.258 1.804-1.788 4.009-1.39 6.214.397 2.206 1.522 4.077 3.31 5.346 1.788 1.27 3.973 1.804 6.158 1.404 2.185-.401 4.039-1.537 5.297-3.342 1.258-1.804 1.788-4.009 1.39-6.214-.397-2.205-1.523-4.076-3.31-5.346-1.457-1.002-3.112-1.537-4.768-1.537Zm316.23 140.797-3.112-8.219c-3.311-.401-6.621-1.136-9.733-2.272l-6.356 6.014-17.216-12.362 3.576-8.019a44.894 44.894 0 0 1-5.297-8.554l-8.674-.267-3.509-21.049 8.144-3.141c.397-3.341 1.125-6.682 2.251-9.823l-5.959-6.415 12.249-17.374 7.946 3.608a44.418 44.418 0 0 1 8.475-5.346l.265-8.754 20.857-3.541 3.112 8.219c3.31.401 6.621 1.136 9.733 2.272l6.356-6.014 17.215 12.362-3.575 8.019a44.995 44.995 0 0 1 5.297 8.554l8.674.267 3.509 21.049-8.144 3.141c-.397 3.341-1.126 6.682-2.251 9.823l5.959 6.415-12.25 17.374-7.945-3.608a44.418 44.418 0 0 1-8.475 5.346l-.265 8.754-20.857 3.541Zm-13.772-14.768 1.059.401a41.108 41.108 0 0 0 10.992 2.539l1.191.134 2.848 7.484 14.831-2.539.265-8.019 1.059-.468c3.443-1.537 6.688-3.608 9.601-6.081l.861-.735 7.283 3.275 8.74-12.363-5.429-5.88.397-1.069a42.168 42.168 0 0 0 2.516-11.093l.066-1.203 7.416-2.873-2.516-14.969-7.945-.267-.464-1.069c-1.523-3.475-3.575-6.749-6.025-9.69l-.729-.868 3.245-7.351-12.249-8.821-5.827 5.48-1.059-.401a41.155 41.155 0 0 0-10.992-2.539l-1.192-.067-2.847-7.484-14.831 2.539-.265 8.019-1.059.468c-3.444 1.537-6.688 3.608-9.601 6.081l-.861.735-7.283-3.275-8.608 12.363 5.429 5.88-.397 1.069a42.168 42.168 0 0 0-2.516 11.093l-.066 1.203-7.416 2.873 2.516 14.969 7.946.267.463 1.069c1.523 3.475 3.576 6.749 6.025 9.69l.729.868-3.245 7.351 12.25 8.821 5.694-5.547Zm15.626-13.765c-4.833 0-9.667-1.471-13.905-4.478-10.792-7.751-13.308-22.92-5.628-33.812 7.681-10.893 22.711-13.432 33.504-5.68 10.792 7.751 13.308 22.92 5.628 33.812a24.04 24.04 0 0 1-19.599 10.158Zm.066-44.705c-6.356 0-12.646 3.007-16.553 8.62-3.178 4.477-4.37 9.89-3.509 15.302.927 5.413 3.84 10.091 8.276 13.298 9.138 6.549 21.85 4.411 28.339-4.811 3.112-4.477 4.37-9.89 3.51-15.303-.927-5.412-3.841-10.09-8.277-13.297-3.642-2.607-7.747-3.809-11.786-3.809ZM137.46 384.855c-3.179-9.021-6.82-19.178-2.781-29.603 5.429-14.033-6.092-21.25-16.222-27.731-8.74-5.48-16.951-10.692-14.17-19.312 3.046-9.356 2.847-16.573-.596-21.317-2.913-4.01-8.078-6.148-14.963-6.081-5.496.067-10.396-6.749-15.627-13.899-6.157-8.42-12.447-17.107-20.393-15.169-1.39.334-2.516 1.136-3.178 2.405-2.781 5.279 1.589 17.842 6.29 31.207 5.032 14.434 10.793 30.739 7.019 37.688-4.106 7.618 3.31 14.568 11.19 21.985 8.342 7.819 17.81 16.706 15.294 27.866-2.383 10.424-2.913 14.3-1.456 16.572 1.125 1.804 3.443 2.205 6.952 2.873 2.384.468 5.429 1.003 9.137 2.206 15.957 5.011 20.592 15.436 20.658 15.57l.199.467.464-.067c7.68-1.202 12.183-3.408 14.301-6.949.133-.201.199-.401.332-.602 2.251-4.744.066-10.959-2.45-18.109Z"/>
  <path fill="url(#b)" d="M96.672 364.939c2.648 4.143 4.568 7.751 4.37 12.83-.133 4.744-.861 9.422-1.258 14.099a594.635 594.635 0 0 1-.2 2.874c-1.323-1.136-2.581-2.272-3.906-3.408-.596-.067-1.191-.067-1.854-.067a183.979 183.979 0 0 1 5.629 4.878c-.2 3.275-.265 6.549-.265 9.823 0 1.938-.067 4.01.066 5.948-1.722-1.07-3.51-2.139-5.165-3.208-5.164-3.208-9.998-6.215-13.706-7.818-2.847-1.203-6.025-2.272-9.07-3.275-7.946-2.606-16.09-5.279-18.805-10.959-1.39-2.94-1.258-6.482.397-10.758 4.172-11.026.265-12.897-6.29-16.105-4.767-2.339-11.256-5.479-17.745-13.431a460.41 460.41 0 0 0-7.614-9.088c-6.688-7.952-10.396-12.296-9.932-14.835.132-.602.463-1.136 1.126-1.671a6.975 6.975 0 0 1 1.258-.802c2.516-1.403 5.032-.334 7.879.869 3.84 1.604 8.541 3.675 15.096.267 5.165-2.673 10.925-5.145 14.368-3.14 2.384 1.336 3.774 4.811 4.238 10.491.132 1.804.728 3.074 1.721 3.809 1.457 1.069 3.708.935 6.29.401 1.788 2.472 4.106 3.675 6.887 4.677 3.906 1.404 6.82 2.673 9.667 5.881 6.091 6.95 11.984 14.033 16.818 21.718Z"/>
  <path fill="#fff" d="M75.55 375.967c-3.973-2.673-7.416-9.155-10.726-15.437-4.503-8.553-9.204-17.374-15.626-17.173-10.33.267-19.533-12.028-19.665-12.095l-.861.668c.397.535 9.667 12.83 20.526 12.563 5.76-.134 10.329 8.353 14.633 16.639 3.376 6.348 6.886 12.964 11.057 15.837 2.516 1.671 7.15 5.079 12.647 9.422v-1.403c-4.834-4.076-9.138-7.15-11.985-9.021Z"/>
  <path fill="url(#c)" d="M424.488 458.761s5.959-14.969-4.9-36.219c-10.925-21.25-19.731-17.975 6.555-34.347s.132-67.826 22.512-74.375c22.38-6.548 41.78-89.877 58.796-79.253 17.017 10.625-5.694 51.455 6.489 63.75 12.117 12.296 13.772 27.866-11.322 40.495-25.094 12.63 17.811 60.877-16.222 75.578s-24.234 72.37-61.908 44.371Z"/>
  <path fill="#fff" d="M434.883 474.598c-.067-.201-3.708-19.312 7.879-44.037 11.786-25.193 17.414-52.724 15.096-73.707-1.258-11.36 5.959-15.77 12.912-20.047 6.886-4.21 13.97-8.62 13.573-19.779-.331-10.091 3.907-33.746 4.039-34.749l1.523.268c-.066.267-4.37 24.524-4.039 34.414.397 12.095-7.085 16.706-14.302 21.116-6.886 4.21-13.309 8.219-12.183 18.577 2.384 21.183-3.311 49.048-15.229 74.508-11.322 24.257-7.813 42.901-7.747 43.101l-1.522.335Z"/>
  <path fill="url(#d)" d="M525.264 350.438c9.469-4.544 19.533-2.473 14.302 7.083-5.231 9.556-13.044 10.291-11.587 17.842 1.457 7.551 5.297 15.77-7.019 20.582-12.315 4.744-18.075 3.942-25.557 17.908-7.549 13.966-10.131 24.324-23.042 20.983-12.912-3.408-2.185-20.582 4.502-27.799 0 0 9.071-7.751 8.939-21.717-.133-13.967-5.827-23.322 12.05-22.386 17.878.802 20.99-9.422 27.412-12.496Z"/>
  <path fill="#fff" d="M470.305 444.589c.529-1.804 12.977-45.039 23.174-49.716 10.395-4.812 16.023-17.375 18.473-24.391 3.178-9.155 16.752-10.959 17.281-11.026l.199 1.537c-.132 0-13.176 1.737-16.023 9.957-3.046 8.887-8.873 20.515-19.268 25.326-9.535 4.41-22.181 48.313-22.314 48.781l-1.522-.468Zm-327.95-34.815c-20.393-5.145-20.658-16.238-20.923-26.93-.198-8.754-.397-17.04-11.454-22.118-14.633-6.749-14.964-19.245-15.295-30.271-.265-8.22-.464-15.971-6.556-20.181-14.632-10.09-27.014-34.548-27.146-34.815l1.125-.602c.133.268 12.315 24.391 26.75 34.348 6.621 4.544 6.886 12.629 7.085 21.183.33 11.159.662 22.787 14.566 29.135 11.72 5.413 11.985 14.501 12.183 23.254.265 10.692.53 20.849 19.996 25.728l-.331 1.269Z"/>
  <path fill="#EDEDED" d="M114.879 399.888h334.968v-244.04c0-3.475-2.781-6.348-6.29-6.348H121.169c-3.443 0-6.29 2.807-6.29 6.348v244.04Z"/>
  <path fill="#263238" stroke="url(#e)" stroke-miterlimit="10" stroke-width=".5" d="M437.379 354.387H126.711V161.734h310.668v192.653Z"/>
  <path fill="#EDEDED" d="M449.845 363.732H115.01L78.328 501.99H486.46l-36.615-138.258Z"/>
  <path fill="url(#f)" stroke="#fff" stroke-miterlimit="10" stroke-width=".5" d="M127.656 387.993h20.592c.861 0 1.523.668 1.324 1.403l-1.986 9.021c-.133.535-.662.936-1.324.936h-20.923c-.861 0-1.523-.668-1.325-1.47l2.318-9.021c.132-.468.662-.869 1.324-.869Zm29.994 0h15.56l-2.053 11.427h-15.891l2.384-11.427Zm23.307 0h15.56l-1.589 11.427h-15.891l1.92-11.427Zm23.373 0h15.56l-1.192 11.427h-15.891l1.523-11.427Zm23.306 0h15.56l-.728 11.427h-15.891l1.059-11.427Zm23.307 0h15.56l-.265 11.427h-15.891l.596-11.427Zm186.719 0h-23.373l2.516 11.427h23.77l-2.913-11.427Zm-31.12 0h-15.56l2.053 11.427h15.891l-2.384-11.427Zm-23.307 0h-15.56l1.589 11.427h15.891l-1.92-11.427Zm-23.373 0h-15.56l1.192 11.427h15.891l-1.523-11.427Zm-23.306 0h-15.56l.728 11.427h15.891l-1.059-11.427Zm-23.307 0h-15.56l.265 11.427h15.891l-.596-11.427Zm-38.933 0h15.56l.199 11.427h-15.759v-11.427Zm-153.48 19.913h32.444l-1.854 11.761H118.32l2.516-11.761Zm321.858 0h-40.125l2.251 11.761h40.986l-3.112-11.761Zm-48.203 0h-16.023l1.788 11.761h16.42l-2.185-11.761Zm-24.101 0h-16.023l1.324 11.761h16.421l-1.722-11.761Zm-24.101 0h-16.024l.927 11.761h16.355l-1.258-11.761Zm-24.101 0h-16.024l.464 11.761h16.354l-.794-11.761Zm-206.252 20.916h33.239l-2.45 11.694h-33.834l3.045-11.694Zm41.515 0h16.62l-1.92 11.694H155.2l2.251-11.694Zm24.962 0h124.546l.463 11.694H180.56l1.853-11.694Zm132.888 0h16.62l.927 11.694h-16.951l-.596-11.694Zm24.896 0h16.62l1.39 11.694h-16.95l-1.06-11.694Zm24.962 0h16.62l1.787 11.694h-16.884l-1.523-11.694Zm24.896 0h16.619l2.252 11.694h-16.885l-1.986-11.694Zm24.896 0h33.238l3.046 11.694h-33.834l-2.45-11.694Zm-116.799-20.916h-15.957v11.761h16.222l-.265-11.761Zm-24.101 0h-16.089l-.464 11.761h16.421l.132-11.761Zm-24.101 0h-16.09l-.927 11.761h16.421l.596-11.761Zm-24.101 0h-16.09l-1.39 11.761h16.42l1.06-11.761Zm-24.102 0h-16.089l-1.854 11.761h16.421l1.522-11.761Zm-24.101 0h-16.089l-2.252 11.761h16.355l1.986-11.761Zm-49.262-27.063 2.649-10.157h7.548l-2.45 10.157h-7.747Zm17.745-10.157h15.097l-2.053 10.157h-15.427l2.383-10.157Zm22.711 0h15.096l-1.721 10.157h-15.361l1.986-10.157Zm22.645 0h15.096l-1.324 10.157h-15.362l1.59-10.157Zm22.644 0h15.097l-.927 10.157h-15.362l1.192-10.157Zm22.645 0h15.096l-.53 10.157h-15.361l.795-10.157Zm22.644 0h15.097l-.133 10.157h-15.361l.397-10.157Zm22.645 0h15.096l.265 10.157h-15.361v-10.157Zm22.645 0h15.096l.662 10.157h-15.361l-.397-10.157Zm22.644 0h15.163l.993 10.157h-15.361l-.795-10.157Zm22.711 0h15.096l1.457 10.157h-15.361l-1.192-10.157Zm22.644 0h15.097l1.854 10.157h-15.361l-1.59-10.157Zm22.645 0h15.096l2.252 10.157h-15.362l-1.986-10.157Zm22.645 0h15.096l2.649 10.157H420.38l-2.383-10.157Z"/>
  <path fill="#ED7337" d="M475.8 512.75H88.988c-5.893 0-10.66-4.812-10.66-10.759H486.46c0 5.947-4.767 10.759-10.66 10.759Zm-145.932-55.464c-.397-2.406-2.516-4.21-4.899-4.21h-85.083c-2.45 0-4.502 1.804-4.9 4.21l-5.297 32.409c-.529 3.074 1.854 5.881 4.9 5.881h95.61c3.112 0 5.43-2.807 4.9-5.881l-5.231-32.409Z"/>
  <path fill="url(#g)" d="M147.656 178.102h34.629v3.608h-34.629v-3.608Zm44.362 26.929h24.962v3.609h-24.962v-3.609Zm28.869 0h16.553v3.609h-16.553v-3.609Zm-72.833 67.76h16.553v3.608h-16.553v-3.608Zm92.697-67.76h40.058v3.609h-40.058v-3.609Zm-92.697 54.194h25.756v3.609h-25.756v-3.609Zm35.887 26.997h15.692v3.609h-15.692v-3.609Zm-35.887 0h31.119v3.609h-31.119v-3.609Zm0 13.498h17.148v3.609h-17.148v-3.609Zm40.985-121.618h24.565v3.608h-24.565v-3.608Zm0 40.428h24.565v3.608h-24.565v-3.608Zm-12.316 13.431h10.528v3.609h-10.528v-3.609Zm-10.461 13.699h23.571v3.609h-23.571v-3.609Zm27.147 0h32.576v3.609h-32.576v-3.609Zm-45.355-13.565h24.564v3.608h-24.564v-3.608Zm0 13.565h14.566v3.609h-14.566v-3.609Zm44.163-13.565h13.772v3.608h-13.772v-3.608Zm-43.7 81.057h13.772v3.608h-13.772v-3.608Zm-.53-108.121h24.565v3.609h-24.565v-3.609Zm21.718 67.76h24.565v3.608h-24.565v-3.608Zm.331 26.929h24.565v3.609h-24.565v-3.609Zm43.634 0h24.565v3.609H213.67v-3.609Zm-65.683-81.19h35.027v3.608h-35.027v-3.608Zm164.14-40.428h24.565v3.608h-24.565v-3.608Zm-87.532 135.05h24.565v3.608h-24.565v-3.608Zm119.712-135.05h16.42v3.608h-16.42v-3.608Zm55.684 13.498h16.421v3.608h-16.421V191.6Zm-179.766-13.498h31.318v3.608h-31.318v-3.608ZM342.188 191.6h31.318v3.608h-31.318V191.6Zm-38.403 13.431h31.318v3.609h-31.318v-3.609Zm-40.721 13.499h31.319v3.608h-31.319v-3.608Zm75.946-13.499h22.247v3.609H339.01v-3.609Zm-64.359-26.929h31.319v3.608h-31.319v-3.608Zm-35.688 40.428h18.341v3.608h-18.341v-3.608Zm-14.368 54.461h18.341v3.609h-18.341v-3.609Zm32.709-94.889h11.454v3.608h-11.454v-3.608Zm-37.079 40.428h11.455v3.608h-11.455v-3.608Zm160.829-26.93h11.455v3.608h-11.455V191.6Zm-233.398 0H165.6v3.608h-17.944V191.6Zm47.872 67.692h14.169v3.609h-14.169v-3.609ZM170.036 191.6h5.76v3.608h-5.76V191.6Zm118.785 0h47.871v3.608h-47.871V191.6Zm-45.885 108.12h47.871v3.609h-47.871v-3.609ZM180.034 191.6h5.893v3.608h-5.893V191.6Zm88.724 0h15.627v3.608h-15.627V191.6Zm15.693 13.431h15.626v3.609h-15.626v-3.609Zm-80.514 108.121h15.626v3.608h-15.626v-3.608ZM231.349 191.6h33.304v3.608h-33.304V191.6Zm-31.054 81.391h19.466v3.609h-19.466v-3.609Zm-1.192 26.729h9.733v3.609h-9.733v-3.609Zm16.024-108.12h11.454v3.608h-11.454V191.6Zm-38.536 13.431h11.455v3.609h-11.455v-3.609Zm2.251 54.261h11.455v3.609h-11.455v-3.609Zm11.985-67.692h19.996v3.608h-19.996V191.6Z"/>
  <path fill="#000" d="M358.474 218.661s5.826 9.957 8.276 11.561c3.311 2.205 1.258 4.41-.331 4.477-1.589 0-9.667.601-11.455-1.47-1.787-2.072-2.648-8.153-4.303-9.756-1.656-1.604-3.377-7.952.794-9.489 3.642-1.404 7.019 4.677 7.019 4.677Z"/>
  <path fill="#E4897B" d="M355.89 214.322s6.687 11.694 7.813 13.365c1.125 1.737-2.185 1.737-4.238.935-2.052-.802-7.217-9.155-7.945-10.692-.861-1.804-.133-3.875-.133-3.875l4.503.267Z"/>
  <path fill="#000" d="m349.138 220.531 1.589 11.962.794.066-.265-8.62-2.118-3.408Zm-48.468-1.871s5.827 9.957 8.277 11.561c3.31 2.205 1.258 4.41-.331 4.477-1.589 0-9.667.601-11.455-1.47-1.788-2.072-2.649-8.153-4.304-9.757-1.655-1.603-3.443-8.152.795-9.488 3.708-1.203 7.018 4.677 7.018 4.677Z"/>
  <path fill="#E4897B" d="M298.485 214.322s6.29 11.627 7.482 13.365c1.125 1.737-2.185 1.737-4.238.935-2.053-.802-7.217-9.155-7.946-10.692-.86-1.804-.132-3.875-.132-3.875l4.834.267Z"/>
  <path fill="#000" d="m291.402 220.533 1.523 11.962.861.066-.265-8.62-2.119-3.408Z"/>
  <path fill="#E4897B" d="m274.848 127.981 52.705 24.257s5.892 1.938 6.555 8.554c2.052 20.581 17.281 53.191 17.281 53.191 4.9 2.406 4.502.334 4.502.334-3.112-10.023-6.819-51.187-8.21-67.692a969.944 969.944 0 0 0-.53-6.682c0-.535-.595-1.203-1.589-2.005-7.217-5.947-37.012-18.176-37.012-18.176-22.181-.602-33.702 8.219-33.702 8.219Z"/>
  <path fill="#E4897B" d="M264.917 138.404c1.655 14.367 21.982 12.763 21.982 12.763h24.631s-6.489 14.568-9.005 26.796c-2.648 13.031-8.939 36.018-8.939 36.018s.398.802 4.9.334c0 0 19.334-38.891 26.75-48.714 1.589-2.071 6.158-13.565 6.952-20.381.265-2.272.133-4.076-.728-4.811-.861-.735-2.847-2.072-5.43-3.743-7.746-4.944-21.121-12.496-28.603-14.166-9.998-2.272-25.823-6.549-25.823-6.549s-8.343 8.086-6.687 22.453Z"/>
  <path fill="#472E05" d="M281.667 27.613s-3.708-7.083-1.92-14.567c1.788-7.551 8.74-15.036 18.87-11.56 10.131 3.474 18.341 11.36 12.25 20.58-6.092 9.156 5.495 13.366 2.516 17.71-2.98 4.343-1.854 8.953-.596 9.956 1.258 1.002 5.297 4.61 4.833 8.954-.463 4.277-19.665-12.496-19.665-12.496s-10.395-21.316-16.288-18.577Z"/>
  <path fill="#EB4747" d="M312.589 117.962s-1.523 7.485-40.919-1.937c0 0 13.176-4.411 40.919 1.937Z"/>
  <path fill="#fff" d="M271.205 118.094a91.813 91.813 0 0 1-1.854 3.541c14.368.401 28.802.869 43.17 1.27-2.251-7.685-1.522-18.109-1.125-25.994.463-9.69 5.76-16.372 5.231-26.128 2.847.467 3.31.534 6.157 1.002-4.37-12.563-5.826-18.777-19.4-23.589-4.436-1.604-7.283-1.87-12.05-1.47-15.693 1.337-20.394 1.47-28.141 15.837 12.051 1.938 10.065 6.282 13.706 18.444 1.788 5.88 3.642 12.496 2.715 18.71-.927 6.081-8.409 12.83-8.409 18.377Z"/>
  <path fill="#E4897B" d="M296.231 51.202c-6.422-1.203-5.032-4.811-5.032-4.811s.265-2.005.397-4.61c0-.67.067-1.337.067-2.072 0-1.07-.066-2.139-.199-3.208-.53-4.343 11.653-1.737 11.653-1.737s-.728 8.82.994 11.426c1.655 2.673-1.457 6.282-7.88 5.012Z"/>
  <path fill="#E4897B" d="M283.983 46.389s12.978 15.102 17.745 18.577c0 0 5.496-5.012 2.119-18.243 0 0-6.224-3.208-19.864-.334Zm.398-36.353s-6.754 13.098-.067 25.46c6.688 12.363 19.798-5.412 20.593-7.484.86-2.072 5.363-13.9-3.576-17.44-8.939-3.61-15.03-4.077-16.95-.535Z"/>
  <path fill="#66271D" d="M297.36 36.832s-1.192 2.606-5.76 4.945c0-.668.066-1.337.066-2.072 0 0 3.112-.334 5.694-2.873Z"/>
  <path fill="#E4897B" d="M229.359 106.335s-3.179 1.403-4.702.802c-1.522-.669-3.84-.802-4.568-.802-.993 0-4.105-1.136-4.039.133.066 1.203 5.032 2.072 6.025 2.473.993.401-3.046 2.606-3.443 3.608-.397 1.003 4.238 7.551 6.82 5.68 2.582-1.871 3.973-5.613 4.502-5.88.53-.267 1.921-1.27 1.921-1.27l-2.516-4.744Z"/>
  <path fill="#E4897B" d="M219.163 111.941s-7.482 6.282-7.614 7.151c-.133.868.265 1.269.993.668.728-.535 7.416-5.881 7.416-5.881s-7.482 8.955-7.747 9.623c-.133.401.596 1.203.993.935.397-.267 8.409-8.687 8.409-8.687s-7.019 8.353-7.019 9.022c-.066.534.795 1.136 1.391.534.596-.601 7.548-7.952 7.548-7.952s-4.701 6.415-4.37 7.017c.199.334.795 1.069 1.92-.602 1.126-1.67 4.304-5.413 4.304-5.413l-6.224-6.415Z"/>
  <path fill="#455A64" d="M308.948 151.1h-22.049s-20.327 1.671-21.982-12.763c-1.656-14.367 6.687-22.386 6.687-22.386s10.726 2.874 20.129 5.146c4.701-1.003 10.329-1.671 16.95-1.471 0 0 39.727 13.232 38.535 20.248 0 .067-16.619-8.888-38.27 11.226Z"/>
  <path fill="#F2F2F2" d="m294.58 126.246 42.111-.668-21.254 10.892-20.857-10.224Z"/>
  <path fill="#fff" d="M307.691 120.763s-9.469 3.676-21.056.334l-.53-4.343 23.903 1.336-2.317 2.673Z"/>
  <path fill="#D3D3D3" d="m315.437 136.472-20.857-8.152v-2.072l22.512 8.153-1.655 2.071Z"/>
  <path fill="url(#h)" d="M307.491 122.833c-.132 1.537 1.457 2.673 2.914 2.071l2.449-1.069c.729-.334 1.192-1.069 1.06-1.871-.993-6.415-3.178-31.407 0-35.75 1.192-1.604 1.92-3.007 2.317-4.21 2.119 5.48 4.701 12.563 5.761 16.371l19.863 26.73 6.688 1.737c-8.343-20.247-15.03-30.939-15.03-30.939-1.325-3.542-5.032-14.234-8.343-23.722-2.119-6.014-3.973-11.56-5.032-14.501-.53-1.537-1.523-2.807-2.914-3.609-3.112-1.87-8.21-4.81-12.845-7.083h-.066a3.225 3.225 0 0 0-.463-.2c8.872 13.431 5.429 51.587 3.641 76.045 0-.067 0-.067 0 0ZM274.65 47.857c-2.847.468-9.866 7.35-13.574 14.3-4.237 7.952-8.607 16.973-11.852 19.913-5.959 5.48-22.71 24.792-23.505 24.324-.331-.2 4.569 5.747 5.231 6.014.331.134 27.478-23.655 30.126-27.264 2.45-3.408 9.072-17.842 11.058-17.507.132.334 2.582 5.613 4.833 13.297.067.134.067.268.133.401 1.589 5.346 1.457 11.227.596 17.776-.662 4.944-4.304 13.03-6.489 16.973-.265.467-.199 1.403.066 2.071.199.401.397.735.729.869l8.011 3.007 1.854.668c1.324.535 2.781.268 3.84-.534a3.968 3.968 0 0 0 1.656-2.807c1.787-13.766 4.039-27.865 5.826-33.145 7.88-23.254-3.045-40.762-3.045-40.762s-12.978 1.47-15.494 2.406Z"/>
  <path fill="url(#i)" d="m315.434 136.465 12.514-34.481 40.323.669-11.918 31.808-40.919 2.004Z"/>
  <path fill="#F2F0F0" d="M340.861 117.221c-1.258 2.473-.86 5.213.861 6.014 1.722.869 4.039-.467 5.297-2.94 1.258-2.472.861-5.212-.861-6.014-1.721-.869-4.105.468-5.297 2.94Z"/>
  <path fill="#472E05" d="M316.361 52.07c-2.98-4.543-5.099-8.152-5.364-14.634-.198-4.276-1.125-10.09-4.039-12.963 3.046-8.02-.529-10.425-1.986-13.031-1.788-3.274-15.03-11.16-20.261-2.873-5.231 8.219-3.377 16.84-3.377 16.84.53-4.545 5.165-10.693 5.165-10.693.728 4.745 10.461 12.496 14.699 15.637a.51.51 0 0 0-.132.267c-2.384 3.475.595 6.95 1.125 10.625.53 3.676-9.998 13.566 1.722 18.51 11.719 5.012 15.427-3.207 12.448-7.684ZM103.223 441.319s-.264 2.807-13.242 2.807c-12.978 0-31.848-3.408-31.848-3.408l30.126-2.941s11.588-.601 14.964 3.542Z"/>
  <path fill="url(#j)" d="M70.184 442.32c-7.35 0-10.461 3.809-13.374 5.012-2.914 1.203-5.827 3.007-5.827 2.94 1.655-3.274 3.973-3.341 5.165-4.41 1.191-1.07.86-.535-1.722-.735-1.457-.134-4.105 2.606-5.96 4.143-1.654 1.269-2.648 1.403-2.648 1.403s1.92-2.74 4.304-4.945c2.913-2.673 6.555-4.878 7.416-5.279 1.589-.668 6.489-.802 9.932-.334 3.972.534 8.011 2.205 2.715 2.205Z"/>
  <path fill="#472E05" d="m95.546 436.776 13.904-45.24s2.053-6.615 5.43-5.412c4.833 1.804 2.45 7.216 2.052 10.424-.861 6.549-.265 9.422-4.767 25.192-2.781 9.757-5.165 20.983-7.548 27.398-1.656 4.41-4.503-1.938-8.806-3.675-8.078-3.275-.265-8.687-.265-8.687Zm1.06-69.831c2.714 7.885 11.123 11.962 18.87 9.088 7.68-2.873 11.785-11.627 9.071-19.512-2.715-7.886-11.124-11.962-18.871-9.088-7.68 2.873-11.786 11.627-9.07 19.512Z"/>
  <path fill="#472E05" d="M81.374 367.68c4.238 6.415 12.713 8.019 18.871 3.609l-.861-7.552c6.158-4.477 7.68-13.297 3.443-19.712l-2.913-4.344c-4.238-6.415-12.713-8.019-18.87-3.609l-2.782 2.005c-6.158 4.477-7.68 13.298-3.443 19.713l6.555 9.89Z"/>
  <path fill="#E4897B" d="M75.812 346.629a26.25 26.25 0 0 0 2.45 3.074c6.091 6.682 14.235 9.221 19.4 6.482 2.383 3.274 5.098 5.88 7.548 7.885 2.847 2.339 10.131 3.274 10.131 3.274 4.237 4.678-11.654 32.009-12.779 31.875-2.318-.2-5.297-15.303-3.112-20.782.993-2.473 2.582-5.413 2.118-6.749-1.655-4.611-3.972-3.809-3.972-3.809s-3.046 3.608-5.43 3.475c-2.45-.201-6.687-4.077-6.886-4.143a10.646 10.646 0 0 1-1.986-2.206l-6.357-9.622c-1.655-2.673-2.052-5.881-1.125-8.754Z"/>
  <path fill="#F2F0F0" d="M124.414 461.765s-5.165 6.282-6.754 6.95c-2.118.935-8.607-1.069-8.607-1.069s-1.722-28.801-3.708-40.028c-1.987-11.226-4.9-14.166-5.032-17.708-.199-5.68-4.9-7.952-4.105-12.362.794-4.411 2.185-20.181 2.648-18.109 4.039 17.908 9.005 3.007 10.131.668.595-1.27 15.427 81.658 15.427 81.658Z"/>
  <path fill="#472E05" d="M100.908 374.088s-6.29 6.949-5.827 9.689c.397 2.74-2.715 11.293.397 23.188 3.51 13.565 5.364 22.787 6.026 31.674.662 8.888-2.318 17.04-1.126 27.933.927 8.553 2.847 9.021 2.847 9.021s3.774.935 6.423-2.406c2.648-3.274-1.324-32.409-2.649-39.626-1.324-7.284-5.561-24.257-6.687-29.269-1.39-6.148-1.126-12.429-1.06-14.233.332-6.349 1.126-10.291 1.788-12.697.066-.334.397-4.076-.132-3.274Zm10.991 8.152c3.443 10.024 14.169 15.169 23.969 11.494 9.799-3.675 14.964-14.768 11.521-24.792-3.443-10.023-14.17-15.169-23.969-11.493-9.799 3.608-14.964 14.768-11.521 24.791Z"/>
  <path fill="#E4897B" d="m78.197 554.518 3.51 28.266-15.23 7.284-8.409 1.871 14.964-11.694-4.9-25.527 10.065-.2Z"/>
  <path fill="#000" d="m82.698 587.058-3.31.868-2.251-2.071-12.183 6.148-10.793 2.606s-.133-.869.199-1.337c1.324-1.804 8.938-5.747 8.938-5.747s.133 2.607 1.192 2.673c1.06.067 10.395-4.878 12.58-6.214 3.708-2.339 4.437-3.876 4.701-3.675.795.4.927 6.749.927 6.749Z"/>
  <path fill="#E4897B" d="M41.448 515.223 29.33 539.28l-16.685-.802-8.343-2.472 18.473-3.141 10.064-20.582 8.608 2.94Z"/>
  <path fill="#000" d="m28.339 543.557-3.31-.801-1.06-2.941-15.03-.2L0 537.477s1.06-1.203 1.722-1.537c1.986-.869 9.07-1.27 9.07-1.27s-.728 2.071.2 2.606c.926.601 11.255.936 13.771.735 4.37-.334 5.628-1.27 5.76-1.002.464.935-2.184 6.548-2.184 6.548Z"/>
  <path fill="#455A64" d="m129.845 443.256-9.005 4.076.066 12.496-62.04-10.224s-5.894-1.938-9.668 7.885c-5.363 13.9-19.003 57.134-19.003 57.134l8.608 9.423 27.08-48.848s55.487 27.197 73.761 21.316c7.019-2.272 12.382-15.236 11.389-28.333-.795-10.291-2.781-19.713-2.781-19.713l-18.407-5.212Z"/>
  <path fill="#455A64" d="m121.963 496.247-44.429-3.342 3.84 71.635-13.11.468-9.666-83.93s2.582-12.496 11.057-10.625c8.541 1.938 29.067 18.376 52.308 25.794Z"/>
  <path fill="url(#k)" d="M151.89 514.222s-23.307-26.395-29.332-41.297c-7.217-17.841-6.621-40.227-7.945-47.645-2.45-13.632-5.43-40.094-5.96-43.368-.595-3.275 1.457-6.95 1.457-6.95s-1.523-9.89 2.847-8.821c6.29 1.537 12.514 5.012 14.699 6.081 4.106 1.871 12.514 51.722 12.978 54.127 1.721 8.688 8.012 16.573 12.514 24.658 10.594 19.179 13.309 41.832 13.309 41.832s-1.324 16.572-14.567 21.383Z"/>
  <path fill="#E4897B" d="M127.857 445.193s-.199 3.208-15.03 2.472c-14.832-.801-36.55-5.813-36.55-5.813l34.364-1.604s13.177.067 17.216 4.945Z"/>
  <path fill="#E4897B" d="M87.927 443.593c-7.085-.134-10.13 3.541-12.911 4.677-2.781 1.136-5.628 2.807-5.628 2.807 1.589-3.141 3.84-3.208 5.032-4.21 1.126-1.002.86-.468-1.655-.735-1.457-.134-3.973 2.472-5.76 3.943-1.59 1.269-2.583 1.336-2.583 1.336s1.854-2.673 4.171-4.811c2.847-2.54 6.29-4.678 7.151-5.012 1.523-.601 6.224-.668 9.6-.134 3.775.535 7.682 2.272 2.583 2.139Z"/>
  <path fill="#FFE3CA" d="M76.079 441.654s-5.43 1.337-6.357 2.072c-.662.534-3.443 3.541-3.443 3.541s1.987-.334 3.178-1.47c1.192-1.069 6.622-4.143 6.622-4.143Z"/>
  <path fill="url(#l)" d="m115.639 441.821 21.982-11.694s.066 14.167.199 19.579c.132 5.413 2.383 13.031-1.854 14.167-4.238 1.136-6.423.534-2.053 3.141 4.37 2.539 3.377 5.212 1.722 7.417-1.656 2.205 5.562 24.658 3.84 25.928-6.82-8.688-14.169-19.446-17.348-27.264-4.038-10.158-5.628-21.785-6.488-31.274Z"/>
  <path fill="url(#m)" d="m123.087 435.969-.861-45.173s.067-14.099.331-18.243c.265-4.276 7.482.735 7.482.735s10.131 13.833 10.329 47.178c.133 22.319-1.059 33.946-11.256 33.011-9.468-.869-20.261-2.339-20.261-2.339l-4.701-12.362 18.937-2.807Z"/>
  <path fill="#D3D3D3" d="m120.839 459.828-75.68-9.556.198-1.604 75.68 9.556-.198 1.604Z"/>
  <path fill="#D3D3D3" d="M87.664 453.949c-.132 1.27-1.125 2.205-2.185 2.072l-38.8-4.878c-1.06-.134-2.384-1.136-3.31-4.478l-14.965-39.091c.199-1.604 1.457-2.406 2.516-2.005l39.662 6.281c1.059.401 1.787 1.337 2.184 3.074l14.898 39.025Z"/>
  <path fill="#D3D3D3" d="m82.766 455.018.397.067 37.873 4.811c-1.456.601-3.774.802-6.356.468l-31.716-4.01-.397-.066-31.716-4.01c-2.582-.334-4.767-1.136-6.091-2.005l38.006 4.745Z"/>
  <path fill="url(#n)" d="m123.089 435.976-.861-45.173s.663-3.809 1.987-7.217c.331 4.945 2.582 40.562 2.847 45.239.331 5.079 4.436 5.614 5.297 7.284.927 1.604.132 1.938-2.913 1.337-2.98-.669-1.921-.134-1.258 1.47.662 1.67-.994 1.203-6.82-.936-4.238-1.537-12.382 0-16.487.936l18.208-2.94Z"/>
  <path fill="url(#o)" d="M384.761 325.115c-7.283 1.938-20.725 8.754-23.572 20.448-4.237 17.575 4.238 43.302-9.137 68.561-4.304 8.019 73.959 18.844 73.959 18.844l15.097-88.741s-18.871-19.246-22.711-20.582c-8.012-2.673-19.069-2.406-33.636 1.47Z"/>
  <path fill="url(#p)" d="M441.175 344.289c2.714 7.083 9.601 49.249 1.92 59.206-.861 1.136 3.973 2.94 3.112 8.152-.133.869-1.589 5.079-1.589 5.079l-6.224 1.67-13.574-15.837s5.496-8.62 12.713-41.297c2.119-9.623 3.046-18.577 3.642-16.973Z"/>
  <path fill="#E4897B" d="M389.794 394.674s6.555 17.441 22.38 22.119c2.714.801 4.436 3.875 3.112 4.878-1.722 1.269-3.973 1.537-7.946 1.537-8.276 0-19.532-2.673-27.279-10.558-11.521-11.628-15.163-16.974-13.971-22.787 1.059-5.948 23.704 4.811 23.704 4.811Z"/>
  <path fill="url(#q)" d="M363.439 339.68c-3.376 5.746-5.297 14.968-5.23 28.199 0 10.224 8.475 26.997 9.733 32.142.199.869.728 4.544.728 4.544l9.336 9.623 18.738-13.298-5.694-9.155-1.722.201s-1.059-5.079-.794-7.017c.265-1.938-5.165-28.333-7.879-45.239-1.523-9.823-13.905-5.68-17.216 0Z"/>
  <path fill="url(#r)" d="m380.258 391.536 5.496-1.737 2.251-.602c.132 1.604 1.457 2.673 1.457 2.673l-4.304.535-4.966 1.604-5.827 4.209 5.893-6.682Z"/>
  <path fill="#E4897B" d="m410.979 416.726 9.535-2.74s2.715 3.809 2.185 4.745c-.53.935 0 6.548 0 6.548l-4.635 4.144-3.774-1.337s-.265-1.737.993-1.871c1.324-.2-.861-1.136-1.523-1.537-.662-.468-6.157-3.408-2.781-7.952Z"/>
  <path fill="#FF957E" d="M396.281 324.242c-1.059 3.141.53 6.683 3.576 7.752l5.429 2.005c3.046 1.136 6.356-.602 7.416-3.743l4.833-14.433c1.06-3.141-.529-6.683-3.575-7.819L408.53 306c-3.045-1.136-6.356.601-7.415 3.742l-4.834 14.5Z"/>
  <path fill="#E4897B" d="M419.984 336.938c-.529 2.072-2.648 3.342-4.635 2.74l-16.354-4.744c-1.986-.602-3.178-2.74-2.648-4.878l6.687-25.327c.53-2.071 2.648-3.341 4.635-2.739l16.354 4.677c1.987.602 3.178 2.74 2.649 4.878l-6.688 25.393Z"/>
  <path fill="#472E05" d="M428.458 309.002c.133-.133-1.522-2.004-.662-5.68 1.126-4.945-2.516-6.949-5.23-7.016-1.59-.067-6.953 2.539-9.8 3.408-2.847.869-2.582-.267-7.747-1.203-3.443-.668-4.237 1.27-5.429 3.943-1.192 2.739-1.324 13.164-1.324 13.164.463.668 1.191 1.203 1.655.668.463-.534 2.317-8.887 3.84-11.36 1.457-2.472 7.416 1.47 10.66 3.408 3.179 1.938 6.026 2.272 11.124 1.203.596.668 1.126 1.403 1.126 1.737 0 .669-1.457 5.413-1.457 5.413s2.847-1.804 3.642-3.207c.397-.468.529-2.74-.398-4.478Z"/>
  <path fill="#E4897B" d="M401.511 324.775c-.199.668-.861 1.136-1.523.936l-3.51-1.003a1.31 1.31 0 0 1-.86-1.603l1.787-6.75c.199-.668.861-1.136 1.523-.935l3.51 1.002a1.31 1.31 0 0 1 .86 1.604l-1.787 6.749Z"/>
  <path fill="#472E05" d="M399.328 318.363s-2.649 9.957-3.509 13.298c-.795 3.007-1.391 9.957 14.831 14.635 9.601 2.739 11.19-4.745 11.852-7.151.464-1.871-.066-7.952-.795-9.288 0-.067-1.059 4.143-1.059 4.143s-.927-4.611-5.495-5.88c-7.35-2.139-10.263 1.937-13.442.868-2.516-.868-3.244-5.68-2.383-10.625Z"/>
  <path fill="#E4897B" d="m410.384 333.665 5.032 1.47c.662.201 1.391-.2 1.523-.935l.199-.735-7.482-2.139-.199.735c-.132.735.265 1.404.927 1.604Z"/>
  <path fill="#455A64" d="M490.169 434.905c-2.318 6.749-43.104 31.54-56.81 30.07l-41.251 2.072c-35.026-4.477-51.645-61.411-51.645-61.411 1.39-14.3 35.953 6.415 48.269 12.83 19.466 10.157 31.848 10.692 31.848 10.692 13.044 1.403 28.14-9.155 44.627-9.489 18.076-.468 28.67 4.611 24.962 15.236Z"/>
  <path fill="#D3D3D3" d="M400.518 428.088c0-.066 0-.066 0 0v-1.871l70.913-1.336v1.871l-.199.334c-.86 1.604-2.516 1.871-4.37 1.938l-61.71 1.203c-1.854.067-3.509-.201-4.436-1.738l-.198-.401Z"/>
  <path fill="#D3D3D3" d="m417.602 428.023-.199.334c-.265.401-.596.735-.993.936l-10.793.2c-1.787.067-3.376-.133-4.303-1.403l-.199-.267-.066-.067v-.869l16.42-.334.133 1.47Zm9.601-.668 35.423-.668v-1.27l-35.49.735.067 1.203Zm-9.204-1.537 8.542-36.619c.198-.936 1.125-1.738 2.052-1.805l49.792-.935c.927 0 1.456.735 1.258 1.737l-8.542 36.62-53.102 1.002Z"/>
  <path fill="#E4897B" d="M385.885 476.465c4.899.869 8.673-5.078 8.673-5.078l12.713-10.425-2.715-7.083-24.763 11.627s1.126 10.091 6.092 10.959Z"/>
  <path fill="#000" d="M394.493 470.987s0 .601-.927 3.341-2.118 3.675-3.31 4.076c-4.768 1.47-8.144.735-19.533 3.007-11.388 2.272-14.831.535-18.142-4.945-3.311-5.479.132-9.823 5.694-10.224 8.012-.601 12.514.334 16.686-.334 4.37-.668 4.635-1.737 7.217-3.408 2.383-1.537 4.635 7.685 2.383 9.823-2.052 1.871 8.277 2.138 9.932-1.336Z"/>
  <path fill="#fff" d="M392.109 476.268c-4.701 1.47-8.144.735-19.533 3.007-11.388 2.272-14.831.534-18.142-4.945-1.523-2.539-1.589-4.811-.728-6.549-2.516 1.804-3.377 4.945-1.126 8.687 3.311 5.48 6.754 7.217 18.142 4.945 11.389-2.272 14.832-1.537 19.533-3.007.927-.267 1.854-.935 2.648-2.472-.264.133-.529.267-.794.334Z"/>
  <path fill="#E9D6B8" d="M394.494 471.187v-.134c0 .067-.066.134-.133.201.067-.067.133-.067.133-.067Z"/>
  <path fill="#fff" d="M369.928 475.261c-.331.134-.662-.601-.795-1.604-.198-2.071-.662-4.076-1.324-6.147-.331-1.003-.331-1.871.066-2.005.397-.134 1.06.601 1.324 1.604.663 2.004 1.06 4.076 1.258 6.081.133 1.002-.198 1.937-.529 2.071Zm3.509-.668c-.397.067-.728-.602-.861-1.537-.198-1.938-.662-3.876-1.324-5.747-.331-.935-.331-1.737.132-1.804.398-.067 1.06.668 1.391 1.604.596 1.871 1.059 3.809 1.258 5.68.066.935-.199 1.737-.596 1.804Zm3.708-.134c-.397.067-.795-.668-.927-1.67-.331-2.005-.795-3.943-1.523-5.948-.331-1.002-.331-1.804.066-1.804.464 0 1.126.735 1.457 1.738.728 1.937 1.192 3.942 1.457 5.88.132.936-.133 1.737-.53 1.804Z"/>
  <path fill="#455A64" d="M386.746 459.429s87.202-37.488 92.168-37.555c16.817-.134 12.977 17.641 4.436 26.061-10.064 9.89-86.606 27.999-86.606 27.999l-9.998-16.505Z"/>
  <path fill="#E4897B" d="m421.309 465.975-23.836-23.656 10.196-10.491 25.956 28.601-12.316 5.546Z"/>
  <path fill="#455A64" d="M426.206 447.4s-60.584-58.07-64.623-59.807c-13.839-5.881-22.38 10.09-21.917 15.636.663 7.151 62.174 65.287 62.174 65.287l24.366-21.116Z"/>
  <path fill="#000" d="M462.096 467.784c1.391 1.337 1.655 5.413 1.655 5.413s-20.194 8.019-27.279 8.152c-1.854.067-5.165-.735-8.343-1.67-.53-.134-1.788-1.604-2.317-1.738-.993-.267-1.192.669-1.987.401-2.118-.735-3.708-1.336-3.774-1.47-4.304-9.489-2.847-14.166-2.847-14.166s9.27 2.806 7.681.601c-3.377-4.678 6.356-9.422 8.475-6.95 8.74 9.957 24.631 7.485 28.736 11.427Z"/>
  <path fill="#fff" d="M463.222 469.785c-6.224 2.606-19.268 7.885-21.85 8.085-10.66.802-18.076-3.141-23.042-5.479.464 1.336.993 2.873 1.722 4.477.066.133 1.589.735 3.774 1.47.86.267 1.059-.735 1.986-.401.53.134 1.722 1.604 2.317 1.737 3.179.936 6.489 1.671 8.343 1.671 7.085-.134 27.28-8.153 27.28-8.153s0-1.871-.53-3.407Zm-14.236-6.148c.199.401-.596.802-1.721 1.069-2.318.468-4.569 1.203-6.82 2.138-1.126.468-2.119.602-2.251.201-.133-.401.596-1.136 1.721-1.604 2.185-.936 4.503-1.604 6.754-2.072 1.059-.334 2.119-.133 2.317.268Zm-4.568-1.671c.198.401-.596.936-1.722 1.27-2.251.668-4.436 1.604-6.621 2.74-1.059.534-2.053.735-2.185.334-.132-.401.596-1.27 1.655-1.805 2.119-1.069 4.304-2.004 6.555-2.606 1.126-.467 2.185-.334 2.318.067Zm-4.37-1.47c.132.401-.596 1.002-1.656 1.403a40.551 40.551 0 0 0-6.356 3.208c-.993.668-1.92.869-2.053.401-.132-.401.53-1.337 1.59-2.005 2.052-1.27 4.171-2.339 6.29-3.141 1.059-.334 2.052-.267 2.185.134Z"/>
  <defs>
    <linearGradient id="a" x1="50.5" x2="140.449" y1="237.5" y2="361.765" gradientUnits="userSpaceOnUse">
      <stop stop-color="#FB8D48"/>
      <stop offset=".2" stop-color="#ED7136"/>
      <stop offset=".4" stop-color="#C54E47"/>
      <stop offset=".4" stop-color="#C14F49"/>
      <stop offset=".6" stop-color="#9D3863"/>
      <stop offset=".8" stop-color="#5E1F72"/>
    </linearGradient>
    <linearGradient id="b" x1="12.846" x2="101.364" y1="357.998" y2="359.625" gradientUnits="userSpaceOnUse">
      <stop stop-color="#FB8D48"/>
      <stop offset=".2" stop-color="#ED7136"/>
      <stop offset=".4" stop-color="#C54E47"/>
      <stop offset=".4" stop-color="#C14F49"/>
      <stop offset=".6" stop-color="#9D3863"/>
      <stop offset=".8" stop-color="#5E1F72"/>
    </linearGradient>
    <linearGradient id="c" x1="511" x2="526.785" y1="206.5" y2="407.318" gradientUnits="userSpaceOnUse">
      <stop stop-color="#FB8D48"/>
      <stop offset=".2" stop-color="#ED7136"/>
      <stop offset=".4" stop-color="#C54E47"/>
      <stop offset=".4" stop-color="#C14F49"/>
      <stop offset=".6" stop-color="#9D3863"/>
      <stop offset=".8" stop-color="#5E1F72"/>
    </linearGradient>
    <linearGradient id="d" x1="544.5" x2="499.838" y1="331" y2="426.056" gradientUnits="userSpaceOnUse">
      <stop stop-color="#FB8D48"/>
      <stop offset=".2" stop-color="#ED7136"/>
      <stop offset=".4" stop-color="#C54E47"/>
      <stop offset=".4" stop-color="#C14F49"/>
      <stop offset=".6" stop-color="#9D3863"/>
      <stop offset=".8" stop-color="#5E1F72"/>
    </linearGradient>
    <linearGradient id="e" x1="282.045" x2="282.045" y1="354.387" y2="161.734" gradientUnits="userSpaceOnUse">
      <stop stop-color="#EEA07B"/>
      <stop offset="1" stop-color="#9C5A76"/>
    </linearGradient>
    <linearGradient id="f" x1="438.256" x2="417.457" y1="429.398" y2="323.324" gradientUnits="userSpaceOnUse">
      <stop stop-color="#FFBE55"/>
      <stop offset="1" stop-color="#E86B31"/>
    </linearGradient>
    <linearGradient id="g" x1="406.102" x2="319.662" y1="294.683" y2="118.33" gradientUnits="userSpaceOnUse">
      <stop stop-color="#FFBE55"/>
      <stop offset="1" stop-color="#E86B31"/>
    </linearGradient>
    <linearGradient id="h" x1="315" x2="296.064" y1="139" y2="50.921" gradientUnits="userSpaceOnUse">
      <stop stop-color="#FB8D48"/>
      <stop offset=".2" stop-color="#ED7136"/>
      <stop offset=".4" stop-color="#C54E47"/>
      <stop offset=".4" stop-color="#C14F49"/>
      <stop offset=".6" stop-color="#9D3863"/>
      <stop offset=".8" stop-color="#5E1F72"/>
    </linearGradient>
    <linearGradient id="i" x1="341.852" x2="341.852" y1="101.984" y2="136.465" gradientUnits="userSpaceOnUse">
      <stop stop-color="#EEA07B"/>
      <stop offset="1" stop-color="#9C5A76"/>
    </linearGradient>
    <linearGradient id="j" x1="59.269" x2="59.269" y1="439.838" y2="450.673" gradientUnits="userSpaceOnUse">
      <stop stop-color="#EEA07B"/>
      <stop offset="1" stop-color="#9C5A76"/>
    </linearGradient>
    <linearGradient id="k" x1="111.5" x2="153.166" y1="359" y2="431.801" gradientUnits="userSpaceOnUse">
      <stop stop-color="#FB8D48"/>
      <stop offset=".2" stop-color="#ED7136"/>
      <stop offset=".4" stop-color="#C54E47"/>
      <stop offset=".4" stop-color="#C14F49"/>
      <stop offset=".6" stop-color="#9D3863"/>
      <stop offset=".8" stop-color="#5E1F72"/>
    </linearGradient>
    <linearGradient id="l" x1="136" x2="155.282" y1="403" y2="451.053" gradientUnits="userSpaceOnUse">
      <stop stop-color="#FB8D48"/>
      <stop offset=".2" stop-color="#ED7136"/>
      <stop offset=".4" stop-color="#C54E47"/>
      <stop offset=".4" stop-color="#C14F49"/>
      <stop offset=".6" stop-color="#9D3863"/>
      <stop offset=".8" stop-color="#5E1F72"/>
    </linearGradient>
    <linearGradient id="m" x1="130.5" x2="146.368" y1="353.5" y2="436.993" gradientUnits="userSpaceOnUse">
      <stop stop-color="#FB8D48"/>
      <stop offset=".2" stop-color="#ED7136"/>
      <stop offset=".4" stop-color="#C54E47"/>
      <stop offset=".4" stop-color="#C14F49"/>
      <stop offset=".6" stop-color="#9D3863"/>
      <stop offset=".8" stop-color="#5E1F72"/>
    </linearGradient>
    <linearGradient id="n" x1="118.802" x2="118.802" y1="383.586" y2="439.925" gradientUnits="userSpaceOnUse">
      <stop stop-color="#EEA07B"/>
      <stop offset="1" stop-color="#9C5A76"/>
    </linearGradient>
    <linearGradient id="o" x1="353.433" x2="441.423" y1="369.71" y2="371.081" gradientUnits="userSpaceOnUse">
      <stop stop-color="#FB8D48"/>
      <stop offset=".2" stop-color="#ED7136"/>
      <stop offset=".4" stop-color="#C54E47"/>
      <stop offset=".4" stop-color="#C14F49"/>
      <stop offset=".6" stop-color="#9D3863"/>
      <stop offset=".8" stop-color="#5E1F72"/>
    </linearGradient>
    <linearGradient id="p" x1="425.199" x2="446.696" y1="376.09" y2="376.212" gradientUnits="userSpaceOnUse">
      <stop stop-color="#FB8D48"/>
      <stop offset=".2" stop-color="#ED7136"/>
      <stop offset=".4" stop-color="#C54E47"/>
      <stop offset=".4" stop-color="#C14F49"/>
      <stop offset=".6" stop-color="#9D3863"/>
      <stop offset=".8" stop-color="#5E1F72"/>
    </linearGradient>
    <linearGradient id="q" x1="358.877" x2="396.886" y1="368.392" y2="368.745" gradientUnits="userSpaceOnUse">
      <stop stop-color="#FB8D48"/>
      <stop offset=".2" stop-color="#ED7136"/>
      <stop offset=".4" stop-color="#C54E47"/>
      <stop offset=".4" stop-color="#C14F49"/>
      <stop offset=".6" stop-color="#9D3863"/>
      <stop offset=".8" stop-color="#5E1F72"/>
    </linearGradient>
    <linearGradient id="r" x1="381.913" x2="381.913" y1="389.197" y2="398.218" gradientUnits="userSpaceOnUse">
      <stop stop-color="#EEA07B"/>
      <stop offset="1" stop-color="#9C5A76"/>
    </linearGradient>
  </defs>
</svg>
