<svg xmlns="http://www.w3.org/2000/svg" width="595" height="395" fill="none" viewBox="0 0 595 395">
  <path fill="#E86B31" d="M461.05 135.908c-5.049-4.992-7.573-12.121-7.573-21.385V79.15h14.692v34.832c0 11.31 4.716 16.964 14.148 16.964 4.595 0 8.101-1.368 10.52-4.106 2.418-2.737 3.628-7.023 3.628-12.858V79.15h14.511v35.373c0 9.264-2.526 16.393-7.573 21.385-5.049 4.994-12.108 7.49-21.177 7.49-9.069 0-16.128-2.496-21.176-7.49Zm64.436-56.758h14.693v63.165h-14.693V79.15ZM65.085 348.105c-4.836-4.781-7.253-11.61-7.253-20.482v-33.879h14.072v33.36c0 10.833 4.517 16.248 13.55 16.248 4.401 0 7.76-1.31 10.077-3.932 2.315-2.621 3.475-6.727 3.475-12.316v-33.36h13.898v33.879c0 8.873-2.419 15.701-7.253 20.482-4.836 4.783-11.597 7.173-20.283 7.173-8.686.001-15.448-2.389-20.283-7.173Zm99.155 6.137-14.68-21.001-14.42 21.001h-16.156l22.498-30.767-21.368-29.731h15.982l13.985 19.619 13.725-19.619h15.201l-21.195 29.212 22.672 31.285H164.24v.001Z"/>
  <path fill="#F5F5F5" d="M130.809 230.44a26.893 26.893 0 0 1 6.541-2.828l1.347-6.441 10.938-.191 1.574 6.39a26.826 26.826 0 0 1 6.637 2.598l5.528-3.606 7.87 7.561-3.426 5.622a26.606 26.606 0 0 1 2.843 6.509l6.473 1.34.192 10.882-6.422 1.567a26.583 26.583 0 0 1-2.61 6.603l3.623 5.5-7.598 7.83-5.651-3.409a26.87 26.87 0 0 1-6.541 2.828l-1.347 6.441-10.938.191-1.574-6.39a26.882 26.882 0 0 1-6.636-2.598l-5.529 3.605-7.87-7.56 3.427-5.623a26.583 26.583 0 0 1-2.843-6.508l-6.473-1.34-.192-10.882 6.423-1.567a26.606 26.606 0 0 1 2.61-6.603l-3.623-5.5 7.597-7.83 5.65 3.409Zm5.831 14.498a11.633 11.633 0 0 0 .292 16.509c4.662 4.479 12.092 4.349 16.593-.29a11.634 11.634 0 0 0-.292-16.51c-4.662-4.478-12.091-4.348-16.593.291Z"/>
  <path fill="#EBEBEB" d="M187.693 263.566a12.704 12.704 0 0 1 3.095-1.339l.638-3.048 5.176-.091.745 3.024a12.74 12.74 0 0 1 3.141 1.229l2.616-1.706 3.725 3.579-1.621 2.661c.592.974 1.04 2.011 1.345 3.08l3.063.635.091 5.15-3.039.741a12.565 12.565 0 0 1-1.236 3.125l1.715 2.603-3.596 3.706-2.674-1.614a12.728 12.728 0 0 1-3.096 1.339l-.638 3.048-5.176.091-.746-3.024a12.773 12.773 0 0 1-3.141-1.23l-2.616 1.706-3.725-3.578 1.622-2.661a12.64 12.64 0 0 1-1.345-3.08l-3.064-.635-.091-5.15 3.04-.742c.267-1.078.679-2.13 1.236-3.124l-1.715-2.603 3.596-3.706 2.675 1.614Zm2.76 6.861a5.507 5.507 0 0 0 .138 7.814 5.574 5.574 0 0 0 7.853-.137 5.507 5.507 0 0 0-.137-7.814 5.575 5.575 0 0 0-7.854.137Z"/>
  <path fill="#E0E0E0" d="M83.767 258.658a10.142 10.142 0 0 1 2.473-1.07l.51-2.435 4.136-.073.596 2.416c.866.213 1.711.54 2.51.983l2.09-1.364 2.977 2.859-1.296 2.126c.473.779.83 1.607 1.075 2.462l2.448.507.073 4.116-2.428.592a10.033 10.033 0 0 1-.988 2.496l1.37 2.081-2.873 2.961-2.137-1.289a10.15 10.15 0 0 1-2.474 1.069l-.509 2.436-4.136.072-.596-2.416a10.178 10.178 0 0 1-2.51-.983l-2.09 1.363-2.977-2.859 1.296-2.126a10.036 10.036 0 0 1-1.075-2.461l-2.448-.506-.073-4.115 2.428-.593c.214-.862.543-1.703.988-2.496l-1.37-2.08 2.873-2.962 2.137 1.289Zm2.206 5.482a4.4 4.4 0 0 0 .11 6.243 4.454 4.454 0 0 0 6.275-.109 4.401 4.401 0 0 0-.11-6.244 4.454 4.454 0 0 0-6.275.11Z"/>
  <path fill="#F5F5F5" d="M357.846 32.472a26.882 26.882 0 0 1 6.541-2.829l1.347-6.44 10.937-.191 1.574 6.389a26.862 26.862 0 0 1 6.637 2.598l5.528-3.605 7.869 7.56-3.426 5.621a26.607 26.607 0 0 1 2.843 6.51l6.473 1.34.192 10.882-6.421 1.566a26.624 26.624 0 0 1-2.611 6.603l3.623 5.5-7.598 7.83-5.651-3.408a26.852 26.852 0 0 1-6.541 2.827l-1.347 6.441-10.938.191-1.574-6.39a26.867 26.867 0 0 1-6.636-2.598l-5.528 3.605-7.871-7.56 3.427-5.622a26.588 26.588 0 0 1-2.843-6.508l-6.473-1.34-.191-10.883 6.422-1.567a26.643 26.643 0 0 1 2.61-6.601l-3.623-5.5 7.598-7.831 5.651 3.41Zm5.831 14.496a11.634 11.634 0 0 0 .291 16.51c4.663 4.479 12.092 4.349 16.594-.29a11.634 11.634 0 0 0-.292-16.51c-4.662-4.478-12.091-4.348-16.593.29Zm53.652 11.978a13.004 13.004 0 0 1 3.165-1.37l.652-3.117 5.294-.092.761 3.092c1.11.272 2.191.69 3.212 1.257l2.675-1.745 3.809 3.66-1.658 2.72a12.86 12.86 0 0 1 1.375 3.15l3.133.65.092 5.265-3.107.758a12.91 12.91 0 0 1-1.264 3.196l1.754 2.662-3.677 3.79-2.735-1.651a13.012 13.012 0 0 1-3.166 1.369l-.652 3.117-5.293.092-.761-3.092a13.042 13.042 0 0 1-3.212-1.257l-2.675 1.745-3.809-3.659 1.658-2.72a12.855 12.855 0 0 1-1.375-3.15l-3.134-.649-.092-5.266 3.108-.758a12.87 12.87 0 0 1 1.263-3.195l-1.754-2.662 3.678-3.79 2.735 1.65Zm2.822 7.016a5.63 5.63 0 0 0 .141 7.99 5.7 5.7 0 0 0 8.03-.14 5.63 5.63 0 0 0-.141-7.99 5.699 5.699 0 0 0-8.03.14Z"/>
  <path fill="#455A64" d="M340.239 369.79H233.593c-18.094 0-32.763-14.595-32.763-32.597V66.053c0-18.003 14.669-32.598 32.763-32.598h106.646c18.095 0 32.763 14.595 32.763 32.597v271.141c0 18.002-14.668 32.597-32.763 32.597Z"/>
  <path fill="#fff" d="M337.49 359.165H235.184c-14.621 0-26.473-11.792-26.473-26.339V67.882c0-14.547 11.852-26.339 26.473-26.339h102.305c14.621 0 26.473 11.792 26.473 26.339v264.944c.001 14.547-11.852 26.339-26.472 26.339Z"/>
  <path fill="#fff" d="m373.001 341.495-17.002-43.241c-.45-1.146.399-2.383 1.635-2.383H373v45.624h.001Z" opacity=".3"/>
  <path fill="#E86B31" d="M342.719 123.083c-.008-.07 1.106.029 3.092-.512a11.716 11.716 0 0 0 3.406-1.613 11.704 11.704 0 0 0 3.439-3.764c.473-.838.888-1.778 1.135-2.819.153-.513.214-1.058.298-1.61.034-.561.076-1.122.064-1.722l-.018-3.719c-.023-1.282.033-2.647-.074-3.992a11.396 11.396 0 0 0-4.002-7.497 11.108 11.108 0 0 0-4.173-2.212c-1.572-.477-3.25-.46-5.018-.44-28.097.03-66.896.072-109.749.12-2.588.015-5.137.915-7.116 2.528a11.345 11.345 0 0 0-3.873 6.346c-.257 1.229-.24 2.476-.239 3.781l-.001 3.85c.016 1.291-.062 2.539.192 3.735.229 1.201.648 2.36 1.236 3.422a11.336 11.336 0 0 0 5.27 4.772c1.1.474 2.263.771 3.442.899 1.165.087 2.419.046 3.626.058l14.263.014 49.34.088c14.038.055 25.4.099 33.263.131l9.044.077 2.352.041.599.02c.133.004.202.011.202.018 0 .007-.069.014-.202.021l-.6.021-2.352.041-9.044.078-33.263.13-49.34.088-14.263.014c-1.222-.011-2.414.038-3.701-.055a12.775 12.775 0 0 1-3.689-.958 12.128 12.128 0 0 1-5.653-5.106 12.302 12.302 0 0 1-1.33-3.669l-.147-.974-.051-.985c-.021-.651-.006-1.279-.011-1.921l-.001-3.85c-.003-1.268-.023-2.625.253-3.947a12.166 12.166 0 0 1 4.154-6.813c2.121-1.733 4.864-2.702 7.639-2.716l109.748.121c.882.012 1.734-.022 2.619.045a11.77 11.77 0 0 1 2.554.445 11.638 11.638 0 0 1 4.357 2.344c2.475 2.095 3.856 5.039 4.123 7.85.099 1.425.03 2.743.042 4.039l-.017 3.719c.053 2.405-.596 4.616-1.611 6.31a11.88 11.88 0 0 1-3.578 3.806 11.6 11.6 0 0 1-3.501 1.571l-.713.172c-.225.044-.438.064-.633.093a6.164 6.164 0 0 1-.987.089l-.601.009c-.134-.002-.201-.005-.201-.012ZM327.486 66.88c.002.037-.259.04-.693.168a2.926 2.926 0 0 0-1.516 1.065 2.75 2.75 0 0 0-.36 2.596c.34.96 1.371 1.783 2.569 1.773 1.199.011 2.23-.812 2.57-1.773a2.75 2.75 0 0 0-.36-2.596 2.924 2.924 0 0 0-1.515-1.065c-.434-.129-.695-.13-.695-.168-.001-.019.262-.072.733.014.461.085 1.155.36 1.707 1.043.553.659.888 1.788.487 2.901-.365 1.103-1.545 2.067-2.927 2.054-1.382.013-2.562-.95-2.927-2.054-.401-1.113-.066-2.242.486-2.901a2.917 2.917 0 0 1 1.707-1.044c.473-.086.737-.032.734-.013Zm8.377 0c.002.037-.26.04-.694.168a2.928 2.928 0 0 0-1.515 1.065 2.75 2.75 0 0 0-.36 2.596c.341.96 1.371 1.783 2.569 1.773 1.199.011 2.23-.812 2.57-1.773a2.75 2.75 0 0 0-.36-2.596 2.928 2.928 0 0 0-1.515-1.065c-.434-.129-.696-.13-.695-.168-.001-.019.262-.072.733.014.461.085 1.155.36 1.707 1.043.553.659.887 1.788.487 2.901-.365 1.103-1.546 2.067-2.928 2.054-1.381.013-2.561-.95-2.926-2.054-.401-1.113-.067-2.242.486-2.901a2.917 2.917 0 0 1 1.707-1.044c.473-.086.737-.032.734-.013Zm8.376 0c.002.037-.259.04-.693.168a2.924 2.924 0 0 0-1.515 1.065 2.748 2.748 0 0 0-.361 2.596c.341.96 1.371 1.783 2.569 1.773 1.199.011 2.23-.812 2.57-1.773a2.75 2.75 0 0 0-.36-2.596 2.924 2.924 0 0 0-1.515-1.065c-.435-.129-.696-.13-.695-.168-.001-.019.262-.072.734.014.461.085 1.155.36 1.707 1.043.553.659.887 1.788.487 2.901-.365 1.103-1.546 2.067-2.928 2.054-1.381.013-2.561-.95-2.926-2.054-.401-1.113-.067-2.242.485-2.901a2.92 2.92 0 0 1 1.708-1.044c.471-.086.735-.032.733-.013Zm-115.818-1.396-3.526 3.612c-.346.354-.419 1.05 0 1.393l3.526 2.897c.411.34.996.401 1.4 0 .351-.349.414-1.052 0-1.393l-3.526-2.897v1.393l3.526-3.612a1 1 0 0 0 0-1.393c-.376-.372-1.027-.382-1.4 0Z"/>
  <path fill="#E86B31" d="M237.671 107.658c-.015 1.081-.683 2.085-1.719 2.456a2.67 2.67 0 0 1-2.962-.816 2.627 2.627 0 0 1-.205-2.984 2.653 2.653 0 0 1 2.724-1.234 2.654 2.654 0 0 1 2.162 2.578c.009.633.999.635.99 0a3.652 3.652 0 0 0-2.368-3.377c-1.403-.532-3.079-.084-4.029 1.071-.961 1.167-1.118 2.842-.334 4.147.782 1.304 2.309 1.961 3.8 1.694 1.698-.304 2.908-1.847 2.931-3.535.009-.634-.981-.634-.99 0Z"/>
  <path fill="#E86B31" d="m236.819 110.279 1.18 1.3.169.187c.174.191.525.189.7 0a.501.501 0 0 0 0-.697l-1.18-1.3-.169-.187a.501.501 0 0 0-.7 0 .5.5 0 0 0 0 .697Zm-1.952 39.398c-.009-.093.756-.022 1.956-.51a5.895 5.895 0 0 0 1.928-1.274 5.576 5.576 0 0 0 1.486-2.606c.286-1.079.227-2.364-.283-3.565a5.57 5.57 0 0 0-2.88-2.861 5.49 5.49 0 0 0-2.181-.449l-2.504.009-5.269.008c-1.685.003-3.291.802-4.271 2.047a5.459 5.459 0 0 0-1.127 4.278 5.485 5.485 0 0 0 2.082 3.474 5.713 5.713 0 0 0 1.667.885 6.323 6.323 0 0 0 1.737.274c2.365.037 4.28.081 5.604.131 1.324.048 2.055.102 2.055.159 0 .057-.732.111-2.055.16a284.02 284.02 0 0 1-5.604.13 6.755 6.755 0 0 1-1.926-.25 6.272 6.272 0 0 1-1.891-.946 6.153 6.153 0 0 1-2.42-3.893 6.192 6.192 0 0 1 1.245-4.903c1.112-1.434 2.964-2.368 4.902-2.368l5.269.009 2.508.012a6.243 6.243 0 0 1 2.484.541 6.228 6.228 0 0 1 3.204 3.29c.546 1.365.568 2.797.215 3.98a5.953 5.953 0 0 1-3.866 4.029 5.155 5.155 0 0 1-1.529.265c-.353-.009-.536-.028-.536-.056Zm113.281 0c-.009-.093.756-.022 1.957-.51a5.892 5.892 0 0 0 1.927-1.274 5.576 5.576 0 0 0 1.486-2.606c.286-1.079.227-2.364-.283-3.565a5.568 5.568 0 0 0-2.879-2.861 5.49 5.49 0 0 0-2.181-.449l-2.504.009-5.269.008c-1.685.003-3.291.802-4.271 2.047a5.459 5.459 0 0 0-1.127 4.278 5.485 5.485 0 0 0 2.082 3.474 5.713 5.713 0 0 0 1.667.885 6.323 6.323 0 0 0 1.737.274c2.365.037 4.281.081 5.604.131 1.323.048 2.054.102 2.054.159 0 .057-.731.111-2.055.16-1.323.049-3.238.093-5.604.13a6.76 6.76 0 0 1-1.926-.25 6.272 6.272 0 0 1-1.891-.946 6.153 6.153 0 0 1-2.42-3.893 6.192 6.192 0 0 1 1.245-4.903c1.113-1.434 2.964-2.368 4.902-2.368l5.27.009 2.507.012a6.248 6.248 0 0 1 2.485.541 6.23 6.23 0 0 1 3.203 3.29c.547 1.365.568 2.797.216 3.98a5.962 5.962 0 0 1-3.867 4.029 5.154 5.154 0 0 1-1.528.265c-.354-.009-.537-.028-.537-.056Zm-61.994-.001c-.001-.048.357-.033 1.004-.175a5.938 5.938 0 0 0 2.56-1.233 5.736 5.736 0 0 0 2.036-3.851 5.802 5.802 0 0 0-.43-2.704 5.64 5.64 0 0 0-1.926-2.363 5.583 5.583 0 0 0-3.178-1.014l-3.874.02-8.557.038-19.606.032a5.52 5.52 0 0 0-4.198 1.962 5.423 5.423 0 0 0 1.183 7.991 5.499 5.499 0 0 0 2.008.814c.357.068.708.09 1.074.1l1.138.004 16.012.088 10.796.131 2.935.077c.671.027 1.023.054 1.023.083 0 .028-.352.056-1.023.082l-2.935.078-10.796.13-16.012.088-1.138.004a7.28 7.28 0 0 1-1.215-.106 6.248 6.248 0 0 1-2.302-.918 6.21 6.21 0 0 1-2.727-4.182 6.239 6.239 0 0 1 1.347-4.984 6.34 6.34 0 0 1 4.831-2.261l19.606.033 8.556.038 3.882.026a6.176 6.176 0 0 1 3.51 1.176 6.142 6.142 0 0 1 2.07 2.634 6.21 6.21 0 0 1 .404 2.95 6.018 6.018 0 0 1-2.294 4.053 5.746 5.746 0 0 1-2.732 1.148 3.854 3.854 0 0 1-.77.041c-.174-.007-.262-.017-.262-.03Zm36.747 0c-.001-.037.27-.052.766-.14a5.809 5.809 0 0 0 2.04-.759 5.717 5.717 0 0 0 2.255-2.494 5.581 5.581 0 0 0 .164-4.334c-.56-1.532-1.97-2.967-3.858-3.416-.467-.127-.951-.159-1.457-.166l-1.608.01-3.358.017-14.948.032c-1.233.013-2.446.42-3.383 1.173-.937.746-1.625 1.781-1.899 2.907a5.419 5.419 0 0 0 .206 3.349 5.52 5.52 0 0 0 2.03 2.521c.448.297.932.52 1.429.687a5.95 5.95 0 0 0 1.528.245l3.16.026 5.685.05c3.475.037 6.287.081 8.23.131.972.024 1.727.05 2.237.077.512.028.781.055.781.084 0 .028-.269.056-.781.082-.511.027-1.265.052-2.237.078-1.943.048-4.756.093-8.23.13l-5.685.05-3.172.016a6.653 6.653 0 0 1-1.735-.26 6.781 6.781 0 0 1-1.633-.765 6.268 6.268 0 0 1-2.339-2.859 6.203 6.203 0 0 1-.257-3.838c.312-1.296 1.095-2.49 2.172-3.348 1.075-.868 2.476-1.343 3.893-1.355l14.948.033 3.358.017 1.608.01c.547.014 1.108.06 1.627.209 2.117.538 3.654 2.169 4.236 3.876a6.03 6.03 0 0 1-.297 4.734 5.934 5.934 0 0 1-2.511 2.57 5.38 5.38 0 0 1-2.177.646c-.518.034-.789-.007-.788-.026Zm-87.51 21.674c0 .007-.085.014-.251.022l-.745.024c-.652.045-1.638.088-2.852.491a9.637 9.637 0 0 0-3.919 2.498 9.363 9.363 0 0 0-2.535 5.702c.023 9.719.053 23.768.092 41.127l.014 6.666.006 3.446c.014 1.168-.051 2.339.147 3.461a10.004 10.004 0 0 0 3.367 6.012 10.28 10.28 0 0 0 6.715 2.484l32.772-.038 75.093-.032c3.219.064 6.389-1.462 8.264-4.009.95-1.254 1.615-2.723 1.872-4.265.262-1.518.133-3.165.166-4.777l.006-19.063a98827.484 98827.484 0 0 1 .017-27.319c-.004-.731.012-1.476-.01-2.191a10.126 10.126 0 0 0-.261-2.085 10.01 10.01 0 0 0-1.763-3.752c-1.664-2.222-4.249-3.681-6.95-3.966a20.743 20.743 0 0 0-2.058-.069l-2.087-.002-4.13-.005-15.909-.02-28.555-.051c-17.453-.055-31.577-.099-41.347-.131l-11.242-.077-2.923-.041-.745-.02c-.165-.006-.249-.013-.249-.02 0-.007.084-.014.251-.021l.745-.022 2.924-.041 11.24-.077 41.348-.13 28.554-.05 15.909-.021 4.131-.005 2.087-.002c.689-.009 1.412.006 2.14.069 2.901.3 5.683 1.862 7.475 4.246a10.757 10.757 0 0 1 2.188 6.277c.023.746.008 1.468.013 2.206l.006 8.92.011 18.399a1877237.366 1877237.366 0 0 1 .007 21.488c.006.795-.025 1.674-.178 2.495-.278 1.668-.996 3.258-2.022 4.614-2.019 2.754-5.476 4.409-8.923 4.337L268.204 244l-32.772-.038c-2.651 0-5.233-.992-7.149-2.67a10.64 10.64 0 0 1-3.561-6.407c-.116-.6-.122-1.214-.146-1.81l.003-1.751.007-3.446.013-6.667c.056-17.374.042-31.413.171-41.152a9.607 9.607 0 0 1 2.677-5.845 9.731 9.731 0 0 1 4.046-2.487c1.243-.384 2.245-.4 2.902-.418l.745.018c.166.009.25.016.251.023Z"/>
  <path fill="#E86B31" d="M228.309 176.24c.108-.199 26.855 14.05 59.732 31.823 32.888 17.779 59.452 32.348 59.343 32.547-.109.199-26.849-14.047-59.738-31.826-32.876-17.773-59.446-32.344-59.337-32.544Z"/>
  <path fill="#E86B31" d="M348.516 178.409c.101.203-26.982 13.807-60.485 30.382-33.514 16.582-60.756 29.855-60.857 29.651-.101-.202 26.976-13.805 60.49-30.386 33.502-16.575 60.75-29.851 60.852-29.647Zm-88.525 91.144c-.001-.042.284-.038.795-.159a4.362 4.362 0 0 0 1.979-1.058 4.151 4.151 0 0 0 1.324-3.144c-.014-1.348-.851-2.918-2.429-3.606a4.229 4.229 0 0 0-1.249-.327c-.426-.029-.935-.01-1.425-.01l-3.09.024-6.819.038-15.625.032c-1.26-.001-2.475.627-3.183 1.625-.731.982-.913 2.293-.574 3.42a3.964 3.964 0 0 0 2.278 2.484c.537.219 1.081.299 1.676.295l1.824.007 12.76.088c3.632.037 6.572.082 8.603.13a99.05 99.05 0 0 1 2.339.078c.536.027.816.055.816.083 0 .029-.281.056-.816.083-.534.027-1.323.053-2.338.077-2.032.049-4.971.093-8.603.13l-12.761.088-1.823.007c-.633.013-1.342-.081-1.973-.338a4.753 4.753 0 0 1-2.754-2.976c-.417-1.357-.199-2.94.682-4.132.85-1.206 2.326-1.972 3.849-1.969l15.624.033 6.819.038 3.091.023c.5.009.964-.006 1.487.038.506.061.988.202 1.428.403 1.79.826 2.68 2.631 2.649 4.129a4.456 4.456 0 0 1-1.573 3.387c-.81.681-1.627.911-2.161.982a3.046 3.046 0 0 1-.617.029c-.139-.007-.21-.018-.21-.032Zm18.555 66.089c-.005-.057.759-.005 2.127-.348a8.928 8.928 0 0 0 4.957-3.384 8.544 8.544 0 0 0 1.6-4.032c.104-.787.075-1.637.069-2.528l-.016-2.763c-.019-3.821-.039-8.168-.061-12.973a111492.695 111492.695 0 0 1-.057-17.859c-.004-.716.01-1.454-.042-2.142-.11-1.4-.617-2.777-1.405-3.987-1.608-2.417-4.544-3.993-7.667-3.818l-41.557.033a9.544 9.544 0 0 0-2.59.397 9.005 9.005 0 0 0-2.329 1.153c-1.415.998-2.53 2.412-3.106 4.018-.668 1.591-.517 3.333-.539 5.109l-.004 5.232-.024 19.944-.004 9.276c.054 2.904 1.691 5.593 4.017 7.017 1.157.72 2.459 1.173 3.775 1.287a28.19 28.19 0 0 0 2.005.047l1.998.006 7.582.027 22.882.13 6.221.077 1.618.041c.363.012.55.026.55.04 0 .014-.187.028-.551.042l-1.618.041-6.221.077-22.882.131-7.583.027-1.997.006c-.671.005-1.347.011-2.066-.037-1.417-.115-2.826-.595-4.078-1.366-2.517-1.523-4.307-4.423-4.379-7.572l-.031-9.298-.023-19.943-.004-5.233c.01-.889-.026-1.741.023-2.67a8.643 8.643 0 0 1 .561-2.721c.632-1.761 1.851-3.311 3.402-4.405a9.812 9.812 0 0 1 2.555-1.266 10.35 10.35 0 0 1 2.838-.435l41.557.032c.791-.014 1.649.049 2.445.209.799.19 1.581.441 2.297.822 1.448.728 2.654 1.848 3.531 3.144.85 1.314 1.391 2.811 1.503 4.327.054.769.034 1.481.035 2.201l-.006 2.137-.05 15.722-.061 12.973-.017 2.763c-.006.881.013 1.745-.107 2.579a8.828 8.828 0 0 1-1.732 4.17c-1.683 2.204-3.804 3.053-5.175 3.355-.699.155-1.247.205-1.613.202-.367.005-.553 0-.553-.014Z"/>
  <path fill="#E86B31" d="M290.949 313.129c-.045.04-.789-.706-2.141-2.042-1.361-1.327-3.312-3.274-5.931-5.421-1.262-1.093-2.925-1.92-4.852-2.232-.954-.152-1.983-.198-2.976-.03-1.001.175-1.99.579-2.911 1.153-1.865 1.146-3.381 2.938-4.729 4.947l-2.066 3.107c-.724 1.042-1.477 2.126-2.503 3.036-.994.905-2.383 1.59-3.803 1.436-1.427-.114-2.589-.965-3.49-1.818-1.801-1.75-3.084-3.788-4.934-4.897a5.439 5.439 0 0 0-1.424-.606 4.713 4.713 0 0 0-1.5-.11c-1.001.081-1.952.429-2.782.907-1.666.972-2.831 2.451-3.819 3.803l-4.617 6.593a84.422 84.422 0 0 1-1.289 1.773c-.302.4-.472.603-.496.587-.023-.016.101-.249.358-.679.258-.431.649-1.057 1.16-1.859a397.016 397.016 0 0 1 4.407-6.749c.975-1.393 2.144-2.961 3.949-4.056.894-.531 1.932-.933 3.067-1.04a5.452 5.452 0 0 1 1.73.109c.573.145 1.133.37 1.644.676 2.072 1.235 3.386 3.334 5.103 4.965.856.803 1.858 1.501 3 1.586 1.149.12 2.273-.416 3.188-1.237.926-.817 1.657-1.855 2.372-2.882l2.076-3.1c1.377-2.032 2.986-3.928 4.998-5.137.995-.608 2.08-1.042 3.189-1.222 1.119-.173 2.193-.104 3.213.071 2.039.354 3.826 1.292 5.11 2.457 2.603 2.23 4.495 4.246 5.789 5.644a52.29 52.29 0 0 1 1.451 1.647c.322.389.479.601.459.62Zm-25.488-16.052c-.076.002-.08-.522-.34-1.393a5.86 5.86 0 0 0-2.165-3.038 5.632 5.632 0 0 0-2.365-.995c-.911-.142-1.935-.103-2.903.273a5.465 5.465 0 0 0-2.543 1.925c-.673.896-1.049 2.044-1.061 3.227.012 1.185.388 2.332 1.061 3.229a5.476 5.476 0 0 0 2.543 1.925c.968.377 1.992.415 2.903.273a5.638 5.638 0 0 0 2.365-.995 5.86 5.86 0 0 0 2.165-3.038c.26-.871.264-1.395.34-1.393.038-.003.147.525-.029 1.471-.174.925-.736 2.316-2.123 3.421a6.078 6.078 0 0 1-2.592 1.203c-1.018.193-2.176.175-3.288-.231a6.166 6.166 0 0 1-2.935-2.159c-.78-1.022-1.224-2.346-1.234-3.706.011-1.359.454-2.682 1.234-3.703a6.162 6.162 0 0 1 2.936-2.159c1.112-.407 2.27-.424 3.288-.232a6.089 6.089 0 0 1 2.592 1.202c1.387 1.105 1.949 2.497 2.123 3.422.174.946.065 1.475.028 1.471Zm83.091 28.642c-.075.002-.079-.522-.339-1.394a5.859 5.859 0 0 0-2.165-3.037 5.639 5.639 0 0 0-2.365-.996c-.912-.141-1.936-.103-2.903.274a5.474 5.474 0 0 0-2.543 1.924c-.673.897-1.049 2.044-1.061 3.228.012 1.184.388 2.331 1.061 3.229a5.483 5.483 0 0 0 2.543 1.925c.967.377 1.992.416 2.903.274a5.657 5.657 0 0 0 2.365-.996 5.862 5.862 0 0 0 2.165-3.037c.259-.873.264-1.397.339-1.394.038-.004.148.524-.028 1.47-.174.925-.736 2.317-2.123 3.421a6.09 6.09 0 0 1-2.592 1.204c-1.018.192-2.176.175-3.288-.232a6.157 6.157 0 0 1-2.935-2.16c-.78-1.021-1.224-2.345-1.234-3.705.011-1.359.454-2.682 1.234-3.704a6.17 6.17 0 0 1 2.935-2.159c1.112-.406 2.27-.424 3.289-.231a6.083 6.083 0 0 1 2.592 1.202c1.387 1.105 1.948 2.496 2.123 3.422.174.947.065 1.475.027 1.472Zm-16.519 0c-.075.002-.079-.522-.34-1.394a5.853 5.853 0 0 0-2.165-3.037 5.634 5.634 0 0 0-2.364-.996c-.913-.141-1.936-.103-2.904.274a5.47 5.47 0 0 0-2.543 1.924c-.672.897-1.049 2.044-1.06 3.228.011 1.184.388 2.331 1.06 3.229a5.483 5.483 0 0 0 2.543 1.925c.968.377 1.992.416 2.904.274a5.647 5.647 0 0 0 2.364-.996 5.857 5.857 0 0 0 2.165-3.037c.261-.873.265-1.397.34-1.394.037-.004.147.524-.029 1.47-.174.925-.735 2.317-2.122 3.421a6.102 6.102 0 0 1-2.592 1.204c-1.019.192-2.177.175-3.289-.232a6.166 6.166 0 0 1-2.935-2.16c-.779-1.021-1.224-2.345-1.234-3.705.011-1.359.455-2.682 1.235-3.704a6.166 6.166 0 0 1 2.935-2.159c1.112-.406 2.27-.424 3.288-.231a6.075 6.075 0 0 1 2.593 1.202c1.386 1.105 1.948 2.496 2.122 3.422.175.947.066 1.475.028 1.472Zm-18.373 0c-.075.002-.079-.522-.34-1.394a5.853 5.853 0 0 0-2.165-3.037 5.639 5.639 0 0 0-2.365-.996c-.912-.141-1.936-.103-2.904.274a5.48 5.48 0 0 0-2.543 1.924c-.672.897-1.048 2.044-1.06 3.228.012 1.184.388 2.331 1.06 3.229a5.488 5.488 0 0 0 2.543 1.925c.968.377 1.992.416 2.904.274a5.657 5.657 0 0 0 2.365-.996 5.86 5.86 0 0 0 2.164-3.037c.262-.873.266-1.397.341-1.394.037-.004.147.524-.029 1.47-.174.925-.736 2.317-2.122 3.421a6.1 6.1 0 0 1-2.593 1.204c-1.018.192-2.176.175-3.288-.232a6.161 6.161 0 0 1-2.935-2.16c-.779-1.021-1.224-2.345-1.234-3.705.011-1.359.455-2.682 1.235-3.704a6.166 6.166 0 0 1 2.935-2.159c1.112-.406 2.27-.424 3.288-.231a6.071 6.071 0 0 1 2.592 1.202c1.387 1.105 1.949 2.496 2.123 3.422.175.947.066 1.475.028 1.472Zm32.342-25.716c-.006-.045.401-.007 1.056-.299.32-.152.692-.406 1.005-.812a2.64 2.64 0 0 0 .541-1.629 2.57 2.57 0 0 0-.885-1.902 2.49 2.49 0 0 0-1.077-.558 2.618 2.618 0 0 0-.642-.076l-.729.008-6.727.06c-9.968.075-23.739.121-38.948.121a2.36 2.36 0 0 0-2.01 1.127 2.326 2.326 0 0 0-.089 2.265 2.365 2.365 0 0 0 1.851 1.276c.827.027 1.793.01 2.671.017l10.341.023 17.51.089 11.805.13 3.209.078c.733.026 1.118.053 1.118.082 0 .028-.385.056-1.119.082l-3.209.078-11.805.13-17.51.089-10.342.023c-.915-.006-1.759.02-2.754-.013a3.183 3.183 0 0 1-2.5-1.714 3.142 3.142 0 0 1 .118-3.06c.549-.929 1.619-1.527 2.714-1.522 15.209 0 28.981.045 38.949.12l6.726.06.73.008c.256.011.51.036.749.106.48.126.903.371 1.234.68a2.871 2.871 0 0 1 .272 3.974 2.844 2.844 0 0 1-1.131.81c-.354.138-.645.16-.833.175-.193-.003-.289-.012-.289-.026Zm0 11.387c-.006-.045.401-.006 1.056-.299.32-.152.692-.405 1.005-.811.309-.404.549-.972.541-1.63a2.566 2.566 0 0 0-.885-1.901 2.502 2.502 0 0 0-1.077-.559 2.668 2.668 0 0 0-.642-.076c-.239.004-.482.006-.729.008l-6.727.061c-9.968.074-23.739.12-38.948.12a2.36 2.36 0 0 0-2.01 1.127 2.328 2.328 0 0 0-.089 2.266 2.365 2.365 0 0 0 1.851 1.276c.827.026 1.793.009 2.671.016l10.341.024 17.51.088 11.805.131 3.209.077c.733.026 1.118.054 1.118.082 0 .028-.385.056-1.119.083l-3.209.077-11.805.13-17.51.088-10.342.024c-.915-.006-1.759.02-2.754-.013a3.185 3.185 0 0 1-2.5-1.714 3.142 3.142 0 0 1 .118-3.06c.549-.929 1.619-1.527 2.714-1.523 15.209 0 28.981.046 38.949.121l6.726.061.73.008c.256.011.51.035.749.106.48.126.903.371 1.234.68a2.871 2.871 0 0 1 .272 3.974 2.871 2.871 0 0 1-1.131.812c-.354.137-.645.159-.833.174-.193-.004-.289-.014-.289-.028Zm-.662-46.118c0 .227-14.185.41-31.679.41-17.5 0-31.682-.183-31.682-.41 0-.226 14.182-.411 31.682-.411 17.494.001 31.679.185 31.679.411Z"/>
  <path fill="#263238" d="M405.244 270.513s-.003-.434.012-1.283l.03-1.58c.01-.629.021-1.359.095-2.184.172-3.304.697-8.186 2.188-14.304.8-3.042 1.776-6.413 3.233-9.96 1.428-3.553 3.191-7.343 5.515-11.174a80.146 80.146 0 0 1 20.191-22.554c4.483-3.436 9.582-6.521 15.205-9.071 5.618-2.547 11.762-4.595 18.315-5.777 6.541-1.209 13.467-1.689 20.542-1.147 3.542.206 7.104.776 10.68 1.477a85.22 85.22 0 0 1 10.656 3.015c14.064 5.055 27.431 14.509 37.064 27.629 2.439 3.249 4.574 6.758 6.501 10.405.459.924.977 1.822 1.389 2.772l1.288 2.835c.77 1.931 1.565 3.862 2.2 5.859 1.308 3.976 2.39 8.07 3.037 12.268a84.905 84.905 0 0 1 1.043 12.762 85.206 85.206 0 0 1-1.039 12.765c-.649 4.2-1.729 8.295-3.036 12.273-.635 1.997-1.43 3.929-2.2 5.861-.858 1.895-1.694 3.791-2.676 5.608-1.927 3.648-4.063 7.159-6.502 10.409-9.633 13.125-23.003 22.581-37.069 27.636a85.037 85.037 0 0 1-10.658 3.016c-3.576.701-7.138 1.271-10.681 1.477-7.075.542-14.001.061-20.543-1.148-6.554-1.182-12.697-3.23-18.316-5.778-5.623-2.551-10.721-5.636-15.204-9.072a80.153 80.153 0 0 1-20.189-22.555c-2.323-3.831-4.086-7.621-5.513-11.173-1.457-3.547-2.432-6.918-3.232-9.959-1.492-6.118-2.016-10.999-2.187-14.302a28.113 28.113 0 0 1-.095-2.184l-.03-1.58c-.017-.847-.014-1.282-.014-1.282s.026.435.054 1.282l.051 1.579c.016.628.034 1.356.115 2.18.198 3.298.747 8.169 2.259 14.268.811 3.033 1.795 6.392 3.259 9.926 1.435 3.54 3.204 7.314 5.529 11.128a80.08 80.08 0 0 0 20.168 22.442c4.472 3.416 9.556 6.483 15.16 9.015 5.6 2.53 11.719 4.562 18.246 5.732 6.515 1.197 13.411 1.668 20.455 1.122 3.526-.208 7.072-.777 10.631-1.479a85.04 85.04 0 0 0 10.605-3.009c13.995-5.041 27.293-14.458 36.873-27.52 2.426-3.233 4.549-6.728 6.466-10.357.977-1.808 1.808-3.695 2.661-5.58.766-1.923 1.556-3.844 2.187-5.832 1.3-3.956 2.374-8.03 3.019-12.208a85.031 85.031 0 0 0 1.034-12.7 84.708 84.708 0 0 0-1.038-12.697c-.644-4.176-1.72-8.249-3.02-12.204-.631-1.987-1.422-3.907-2.187-5.829l-1.281-2.82c-.409-.945-.925-1.839-1.381-2.758-1.917-3.628-4.04-7.12-6.465-10.354-9.579-13.057-22.875-22.471-36.868-27.511a84.888 84.888 0 0 0-10.603-3.009c-3.558-.7-7.103-1.271-10.629-1.479-7.043-.546-13.939-.076-20.453 1.121-6.527 1.17-12.646 3.201-18.246 5.731-5.604 2.532-10.688 5.598-15.16 9.014a80.07 80.07 0 0 0-20.17 22.44c-2.326 3.814-4.094 7.589-5.529 11.129-1.465 3.534-2.449 6.894-3.26 9.927-1.512 6.1-2.063 10.971-2.261 14.27-.081.824-.099 1.553-.115 2.181l-.051 1.579c-.029.846-.055 1.28-.055 1.28Z"/>
  <path fill="#E4897B" d="m451.801 283.416-4.029.173-14.507 31.332-22.945 11.38 1.093 11.753s28.249-5.185 35.29-9.108c7.041-3.924 16.023-29.406 16.023-29.406.045.181-9.544-16.124-9.544-16.124"/>
  <path fill="#E4897B" d="m411.654 312.059-2.94-3.077a3.343 3.343 0 0 0-1.903-.525l-9.319.282a5.845 5.845 0 0 0-4.312 2.597l-3.388 5.738s-2.278 3.926-1.987 4.88c.438 1.441 1.966 1.147 1.966 1.147s.322 1.814.933 2.183c1.02.615 2.264.145 2.264.145.339.696 1.059 1.159 1.835 1.104.154-.011.317-.038.484-.089 1.106-.333 1.605-2.465 1.605-2.465l4.725-.87s6.785 4.513 9.177 7.471c2.391 2.957 8.655.697 8.655.697l2.345-11.149-10.14-8.069Z"/>
  <path fill="#FF9A6C" d="M404.786 313.391c.007.065-.751.21-2.038.338-1.285.142-3.103.194-5.15.457l.222-.162a19.563 19.563 0 0 1-1.211 2.22 24.82 24.82 0 0 1-4.48 5.273c-1.335 1.175-2.299 1.72-2.338 1.662-.053-.074.815-.732 2.054-1.963 1.233-1.231 2.854-3.036 4.267-5.282.456-.725.859-1.451 1.193-2.146l.07-.145.152-.018c2.103-.236 3.915-.212 5.199-.255 1.286-.028 2.052-.049 2.06.021Z"/>
  <path fill="#FF9A6C" d="M405.001 317.812c.015.06-.626.301-1.756.466-1.123.164-2.75.213-4.558-.159l.332-.187a15.087 15.087 0 0 1-.682 1.681c-.985 2.054-2.374 3.625-3.502 4.579-1.132.962-1.966 1.363-2 1.305-.053-.077.69-.597 1.718-1.609a16.42 16.42 0 0 0 3.255-4.527 16.89 16.89 0 0 0 .667-1.611l.087-.242.245.054c3.489.774 6.179.078 6.194.25Z"/>
  <path fill="#E4897B" d="m416.832 320.1-8.311-3.844c-1.151-.533-2.35-1.076-3.618-1.07-1.367.006-2.639.646-3.851 1.271l-4.472 2.303c-.243.125-.507.274-.593.533-.112.338.134.684.386.937 2.233 2.252 6.248 2.415 8.658.353.717 1.941 1.46 3.927 2.803 5.506 1.343 1.579 3.431 2.696 5.476 2.322"/>
  <path fill="#FF9A6C" d="M413.312 328.412c.002.014-.073.039-.223.073-.15.038-.378.068-.677.076-.594.016-1.5-.097-2.503-.604-1-.493-2.087-1.387-2.946-2.671-.877-1.275-1.531-2.884-2.176-4.613l.415.107c-1.226 1.074-3.013 1.646-4.839 1.506a7.07 7.07 0 0 1-2.698-.751c-.419-.235-.834-.496-1.199-.826-.18-.166-.372-.317-.537-.546-.156-.212-.325-.527-.237-.901.076-.307.312-.502.497-.618.198-.122.368-.198.542-.29l1.036-.532 2.028-1.04c1.33-.656 2.588-1.423 4.006-1.737 1.436-.346 2.838.098 3.943.594 1.125.51 2.137 1.007 3.078 1.451l4.423 2.149c1.039.52 1.606.824 1.588.86-.017.037-.616-.198-1.684-.654l-4.503-1.98-3.095-1.382c-1.102-.467-2.352-.837-3.634-.514-1.282.293-2.525 1.049-3.858 1.721l-2.024 1.047-1.035.534c-.353.179-.721.354-.738.531-.071.215.249.594.592.868.327.299.703.535 1.083.75.778.404 1.629.63 2.469.699 1.684.14 3.33-.373 4.455-1.334l.289-.247.126.354c.622 1.737 1.233 3.313 2.047 4.556.797 1.253 1.794 2.122 2.73 2.635 1.917 1.044 3.28.625 3.259.729Z"/>
  <path fill="#472E05" d="M528.732 214.433c.515-6.402 1.964-12.719 2.154-19.138.19-6.419-1.049-13.203-5.226-18.099-4.177-4.896-11.853-7.175-17.359-3.824l-1.451 5.38c.383 24.845-1.611 49.931-1.229 74.776.05 3.264 2.497 6.381 3.783 9.384 1.285 3.003 4.098 5.599 7.379 5.621 4.293.027 7.392-4.095 8.997-8.056 5.82-14.358 1.712-30.612 2.952-46.044Z"/>
  <path fill="#E86B31" d="M515.51 180.17c-.827-1.646-1.68-3.319-2.972-4.636-1.293-1.318-3.118-2.248-4.954-2.027-.865.104-1.766.528-2.108 1.325-.343.796.196 1.928 1.066 1.915l.174.17a195.205 195.205 0 0 0 5.545 5.373c.474.441.967.891 1.573 1.122.608.231 1.363.194 1.827-.259.765-.75.329-2.028-.151-2.983Z"/>
  <path fill="#472E05" d="M518.72 186.701c-5.886-8.238-14.197-13.313-24.319-14.164-5.711-.48-8.157.542-12.35 1.37-4.193.826-8.057 2.773-10.75 6.076-3.198 3.923-5.964 8.37-6.857 13.342-.917 5.108-.866 10.169-.166 14.385.851 5.118 3.801 13.056 6.57 17.452l8.703 1.653c7.273.74 14.648 1.477 21.864.301 7.216-1.175 14.377-4.511 18.603-10.447 5.872-8.248 4.587-21.731-1.298-29.968Z"/>
  <path fill="#E4897B" d="m506.98 185.823-17.124-8.149-4.634.221c-10.348-.662-18.257 10.207-18.893 18.54-.707 9.255-1.203 20.584-.19 27.51 2.038 13.927 13.734 15.865 13.734 15.865s-.739 7.298-1.142 11.901l27.075-.116 5.505-60.757a4.898 4.898 0 0 0-4.331-5.015Z"/>
  <path fill="#A05837" d="M487.052 222.131c-.045-.729-.407-1.397-.892-1.871-.971-.949-2.472-1.136-3.627-.452-1.155.683-1.893 2.193-1.784 3.651.561.889 1.47 1.525 2.512 1.686.163.025.326.042.49.049.797.033 1.625-.18 2.271-.722.649-.542 1.088-1.44 1.03-2.341Z"/>
  <path fill="#263238" d="M469.244 209.091c-.046.941.718 1.755 1.705 1.82.984.065 1.821-.642 1.867-1.583.046-.941-.717-1.757-1.702-1.822-.988-.065-1.825.645-1.87 1.585Zm-.078-7.813c.22.236 1.59-.746 3.518-.717 1.926.003 3.328 1.007 3.54.776.104-.103-.117-.525-.727-.98-.601-.452-1.63-.897-2.831-.908-1.201-.008-2.217.419-2.803.861-.598.445-.805.863-.697.968Zm11.321 15.824c.01-.109-1.185-.331-3.124-.602-.491-.058-.956-.16-1.035-.496-.112-.355.101-.881.347-1.448l1.505-3.711c2.09-5.284 3.611-9.632 3.397-9.713-.214-.082-2.084 4.135-4.174 9.418-.504 1.304-.986 2.545-1.443 3.734-.195.554-.522 1.181-.281 1.919.128.368.486.637.8.726.314.1.591.109.835.126 1.952.131 3.164.155 3.173.047Z"/>
  <path fill="#A05837" d="M479.85 239.796s9.39.724 18.773-4.724c0 0-5.11 9.57-19.074 8.089l.301-3.365Z"/>
  <path fill="#263238" d="M486.142 218.5c-.313-.022-.344 2.06-2.155 3.515-1.806 1.459-4.034 1.197-4.054 1.487-.031.13.492.411 1.433.449.922.043 2.275-.235 3.383-1.125 1.105-.892 1.59-2.095 1.673-2.948.09-.87-.136-1.388-.28-1.378Zm-15.865-23.87c.318.473 1.799.179 3.521.344 1.728.11 3.146.635 3.531.218.171-.204-.011-.662-.603-1.142-.583-.476-1.595-.924-2.781-1.018-1.186-.093-2.253.187-2.901.566-.657.38-.905.804-.767 1.032Zm18.638 14.976c-.014.943-.828 1.707-1.817 1.71-.987.003-1.777-.755-1.764-1.697.014-.942.829-1.708 1.815-1.711.989-.004 1.78.757 1.766 1.698Zm6.295-7.313c-.233.221-1.539-.845-3.465-.937-1.922-.119-3.386.796-3.582.551-.097-.109.151-.517.787-.931.628-.413 1.684-.793 2.883-.729 1.199.067 2.186.558 2.743 1.036.569.481.748.911.634 1.01Zm-.737-6.196c-.401.416-1.865-.11-3.65-.221-1.781-.166-3.314.127-3.639-.346-.142-.228.119-.652.801-1.031.672-.378 1.778-.659 3.004-.565 1.225.097 2.269.544 2.867 1.021.61.479.795.938.617 1.142Z"/>
  <path fill="#E4897B" d="M507.334 213.948c.016-1.035 1.25-3.46 2.279-3.606 2.749-.39 7.691-.107 7.648 6.825-.061 9.477-9.611 7.462-9.627 7.19-.011-.213-.355-6.836-.3-10.409Z"/>
  <path fill="#E4897B" d="M510.284 220.909c.042-.03.166.117.444.246.274.126.743.215 1.242.033 1.009-.361 1.865-1.945 1.922-3.653a5.408 5.408 0 0 0-.449-2.367c-.286-.695-.734-1.182-1.24-1.274a.847.847 0 0 0-.982.445c-.13.265-.07.455-.12.47-.027.023-.204-.16-.125-.55.041-.189.154-.412.379-.592.23-.184.566-.276.919-.236.735.056 1.391.732 1.725 1.481.373.752.591 1.677.558 2.645-.073 1.909-1.067 3.69-2.447 4.077-.67.17-1.229-.034-1.515-.261-.295-.234-.343-.447-.311-.464Z"/>
  <path fill="#472E05" d="m509.999 210.395-2.579 2.325c-9.732-10.614-28.379-36.804-27.343-35.249 0 0 7.328-2.436 14.977-.602 7.649 1.835 22.064 6.679 21.22 15.745-.845 9.065-6.275 17.781-6.275 17.781Z"/>
  <path fill="#455A64" d="M523.922 209.239c.017-.004-.02-.194-.107-.555a9.633 9.633 0 0 0-.545-1.531c-.575-1.288-1.722-3.055-3.662-4.706-1.906-1.69-4.61-3.148-7.721-4.359-3.103-1.242-6.625-2.282-10.034-4.019-3.435-1.683-6.459-3.757-9.015-5.856a48.43 48.43 0 0 1-6.222-6.2 51.57 51.57 0 0 1-3.516-4.774l-.863-1.366c-.2-.311-.312-.471-.327-.463-.015.008.069.184.241.512.178.325.426.812.787 1.417a43.783 43.783 0 0 0 3.411 4.892 46.376 46.376 0 0 0 6.201 6.326c2.564 2.138 5.613 4.245 9.086 5.946 3.453 1.759 7.002 2.79 10.087 4.001 3.099 1.182 5.763 2.579 7.663 4.204 1.931 1.588 3.094 3.285 3.713 4.526.613 1.251.773 2.02.823 2.005Z"/>
  <path fill="#455A64" d="M521.061 210.541s.149-.766-.228-2.087c-.354-1.31-1.359-3.124-3.26-4.685-1.881-1.605-4.646-2.706-7.705-3.621-3.074-.896-6.4-2.001-9.624-3.77-3.22-1.757-6.076-3.814-8.402-5.978a42.73 42.73 0 0 1-5.61-6.285c-1.435-1.932-2.367-3.646-3.039-4.811l-.714-1.376c-.168-.312-.264-.474-.279-.467-.016.007.05.181.19.508l.634 1.421c.624 1.196 1.517 2.949 2.927 4.923a41.054 41.054 0 0 0 5.585 6.413c2.334 2.206 5.217 4.3 8.476 6.077 3.256 1.789 6.657 2.903 9.725 3.771 3.057.89 5.766 1.935 7.618 3.46 1.878 1.485 2.896 3.215 3.298 4.474.422 1.271.343 2.041.408 2.033Z"/>
  <path fill="#472E05" d="M508.596 226.35c-.005-.064.815-.114 2.244-.384 1.422-.293 3.457-1.01 5.51-2.594 2.074-1.558 3.995-4.07 5.443-7.174 1.442-3.107 2.435-6.807 2.8-10.75.174-1.97.153-3.903-.069-5.754a27.824 27.824 0 0 0-1.223-5.221 27.37 27.37 0 0 0-4.395-7.945c-3.269-4.08-6.105-5.827-5.99-5.952.013-.017.187.089.507.307.314.227.802.532 1.371 1 1.163.905 2.77 2.333 4.458 4.369 1.693 2.026 3.396 4.733 4.594 8.031a27.738 27.738 0 0 1 1.288 5.334c.236 1.893.262 3.878.083 5.889-.371 4.012-1.397 7.774-2.901 10.937-1.508 3.159-3.522 5.718-5.696 7.28-2.153 1.589-4.273 2.258-5.733 2.482-.727.149-1.313.114-1.698.153-.39.016-.593.014-.593-.008Z"/>
  <path fill="#E4897B" d="m479.267 248.8 26.404-2.837 4.831 4.376-18.849 11.025-8.315 4.285-8.213-2.481-2.602-4.87 6.744-9.498Z"/>
  <path fill="url(#a)" d="M443.678 280.786s8.276-15.803 10.325-19.256c3.493-5.885 10.01-9.22 10.01-9.22l15.254-3.511s-1.583 7.604 7.91 8.13c12.072.668 19.572-10.851 19.572-10.851s13.776 1.41 17.58 3c3.803 1.59 14.564 6.069 16.143 20.304l3.686 23.239-29.103 2.207.402 30.937.146 17.647c-12.996 5.382-32.39 8.46-50.571 3.609-1.098-.293-.53-12.863-3.068-25.727l-4.793-11.579c-1.918-4.635-3.111-9.548-3.394-14.552-.186-3.294-.095-5.787-.095-5.787s-7.465-2.552-10.004-8.59Z"/>
  <path fill="#E4897B" d="m466.608 336.643 48.792-14.572-.345-27.244 24.848-1.884s-1.982 14.117-2.273 21.356c-.418 10.41-5.451 24.96-8.818 28.049-3.367 3.089-63.5 6.446-63.5 6.446l1.296-12.151Z"/>
  <path fill="#E4897B" d="M438.934 345.211c.403.662 1.164 1.055 1.931.929a2.24 2.24 0 0 0 .473-.134c1.071-.435.794-2.651.794-2.651l5.193-1.26s7.181 3.861 9.841 6.582c2.66 2.721 8.684-.113 8.684-.113l1.283-11.32-10.358-7.964s.635.473-.159-1.105c-.795-1.578-3.789-.727-3.789-.727-.537-.769-2.546-.905-2.546-.905l-8.416 1.628a5.837 5.837 0 0 0-4.047 2.988l-3.15 5.932s-1.58 4.218-1.201 5.141c.572 1.393 2.066.958 2.066.958s.625 2.645 1.339 2.683c.713.041 2.062-.662 2.062-.662Z"/>
  <path fill="#FF9A6C" d="M456.385 335.808c-.003.089-1.14.073-2.947.291-1.803.227-4.282.736-6.83 1.824a24.817 24.817 0 0 0-3.455 1.795c-.981.654-2.014 1.209-2.285 1.978-.137.377-.034.741.171.999.2.259.459.419.682.49.461.148.739 0 .754.051.022.01-.246.253-.807.152a1.594 1.594 0 0 1-.863-.501 1.349 1.349 0 0 1-.303-1.306c.146-.507.538-.92.964-1.269a19.58 19.58 0 0 1 1.417-1.012 22.375 22.375 0 0 1 10.518-3.582c1.848-.123 2.988.031 2.984.09Z"/>
  <path fill="#FF9A6C" d="M457.398 341.148c.002.16-3.465.283-7.691.858-4.229.559-7.605 1.354-7.644 1.199-.018-.069.805-.356 2.169-.704a48.33 48.33 0 0 1 5.403-1.03 48.85 48.85 0 0 1 5.483-.431c1.407-.023 2.278.037 2.28.108Zm-18.431 3.843c-.028-.003-.09-.311-.176-.892a19.596 19.596 0 0 1-.198-2.473 10.45 10.45 0 0 1 .103-1.732c.087-.628.332-1.3.691-1.906.676-1.211 1.647-2.487 2.93-3.487 1.279-.988 2.569-1.84 3.903-2.355 1.322-.512 2.581-.711 3.624-.837a33.233 33.233 0 0 1 2.48-.183c.586-.022.911-.016.915.021.01.087-1.284.229-3.341.54-1.022.173-2.24.407-3.492.922-1.242.504-2.51 1.357-3.746 2.312-1.238.97-2.147 2.14-2.839 3.317-.738 1.129-.796 2.363-.843 3.392-.046 2.06.107 3.355-.011 3.361Z"/>
  <path fill="#FF9A6C" d="M450.041 328.721c.007.081-1.262.212-3.273.601-1.931.448-5.046.832-6.618 3.648-1.739 2.586-3.199 5.014-3.77 6.958-.614 1.933-.446 3.226-.557 3.224-.03.003-.104-.312-.12-.892-.021-.579.038-1.43.308-2.437.497-2.043 1.941-4.557 3.689-7.158.447-.654.937-1.279 1.522-1.787.581-.517 1.279-.846 1.925-1.087 1.31-.479 2.533-.684 3.556-.847 2.05-.294 3.333-.29 3.338-.223Z"/>
  <path fill="#FF9A6C" d="M455.171 347.02c-.011.013-.194-.105-.535-.344l-1.51-1.027a59.184 59.184 0 0 0-5.879-3.395l.122.014-5.184 1.295.163-.235c.045.427.053.846.002 1.286-.056.433-.156.903-.498 1.304a1.304 1.304 0 0 1-.673.372c-.23.078-.481.121-.736.1a2.165 2.165 0 0 1-1.364-.619 2.266 2.266 0 0 1-.253-.291l-.055-.081-.027-.04-.013-.021-.002-.002.317.088-.005.003-.011.006-.161.08a9.377 9.377 0 0 1-.661.292 5.84 5.84 0 0 1-.706.234c-.124.031-.25.059-.387.072a.908.908 0 0 1-.495-.055c-.313-.188-.438-.428-.569-.652a5.654 5.654 0 0 1-.317-.699 12.599 12.599 0 0 1-.453-1.455l.323.188c-.672.172-1.489.07-2.011-.514-.235-.272-.437-.615-.443-1.025-.011-.367.046-.695.108-1.027.268-1.312.692-2.583 1.157-3.874l.005-.015.009-.016 1.679-3.165 1.066-2.005c.356-.644.664-1.36 1.188-1.955a5.666 5.666 0 0 1 1.808-1.406c.677-.355 1.45-.49 2.131-.615l7.935-1.512.034-.006.028.002c.498.045.967.125 1.433.259.454.144.936.306 1.285.755l-.301-.068c.87-.437 1.911-.521 2.739-.059.831.457 1.261 1.265 1.515 2.036l-.073-.106 7.137 5.456 1.925 1.509c.437.35.661.542.649.557-.012.016-.259-.145-.718-.465-.5-.358-1.162-.832-1.991-1.423l-7.243-5.313-.049-.036-.024-.07c-.232-.679-.65-1.415-1.335-1.766-.667-.377-1.578-.294-2.307.078l-.179.092-.122-.161c-.204-.268-.624-.448-1.04-.564a7.033 7.033 0 0 0-1.334-.231l.062-.004-7.926 1.556c-.711.134-1.375.25-1.994.575a5.14 5.14 0 0 0-1.633 1.276c-.464.52-.753 1.193-1.121 1.861l-1.065 2.006-1.682 3.164.014-.032c-.458 1.264-.883 2.538-1.141 3.786-.061.309-.111.627-.103.905-.009.242.134.493.306.698.338.406.965.494 1.476.37l.261-.064.063.252c.117.472.255.947.425 1.391.16.421.391.931.637 1.088a.505.505 0 0 0 .216.008c.102-.009.211-.033.319-.059.216-.053.433-.127.646-.21.213-.083.424-.174.629-.272l.152-.074.009-.005.004-.002c-.284-.08.39.107.321.089l.001.002.011.016.02.032.042.064c.061.081.125.162.198.232.286.287.67.465 1.058.493.195.017.386-.014.576-.077a.864.864 0 0 0 .465-.237c.46-.558.46-1.49.405-2.23l-.014-.193.178-.041 5.201-1.225.067-.016.056.029a51.042 51.042 0 0 1 5.829 3.554c.649.466 1.138.842 1.461 1.107.325.264.487.409.477.422Z"/>
  <path fill="#455A64" d="m382.582 348.558-16.365-42.762c-.616-1.609.579-3.333 2.309-3.333h52.552c.959 0 1.831.552 2.238 1.416l15.738 40.788 33.012.557a2.465 2.465 0 0 1 2.471 2.459 2.465 2.465 0 0 1-2.471 2.459h-87.175a2.472 2.472 0 0 1-2.309-1.584Z"/>
  <path fill="#fff" d="M404.828 326.303a3.439 3.439 0 0 1-3.448 3.431 3.439 3.439 0 0 1-3.448-3.431 3.439 3.439 0 0 1 3.448-3.43 3.439 3.439 0 0 1 3.448 3.43Z"/>
  <path fill="#263238" d="M461.218 263.331c.084.046-.707 1.52-1.817 3.973a70.97 70.97 0 0 0-3.6 9.859 70.813 70.813 0 0 0-2.049 10.29c-.326 2.671-.416 4.338-.512 4.335-.041-.002-.06-.419-.058-1.177-.005-.757.045-1.851.157-3.2.219-2.698.781-6.416 1.897-10.405 1.121-3.986 2.574-7.457 3.79-9.878.607-1.212 1.133-2.174 1.531-2.819.393-.65.627-.998.661-.978Zm82.94 29.292c.002.017-.205.049-.602.093l-1.747.171-6.523.544-22.305 1.672-.288.021-.018-.286-.588-9.258c-.316-5.571-.587-10.881-.672-15.721-.254-4.865.944-9.307 2.861-12.466 1.898-3.206 4.415-5.07 6.252-5.979.936-.439 1.685-.732 2.216-.857.522-.146.798-.214.803-.194.027.079-1.106.307-2.912 1.253-1.777.957-4.19 2.826-5.999 5.985-1.83 3.128-2.958 7.437-2.68 12.247.116 4.825.402 10.131.719 15.698l.571 9.254-.305-.264 22.319-1.469 6.535-.376 1.754-.076c.399-.011.608-.008.609.008Zm-54.715 18.923c-.016.038-.361-.091-.974-.356a7.885 7.885 0 0 1-1.091-.543c-.41-.239-.897-.484-1.378-.842-1.004-.656-2.104-1.578-3.212-2.712a22.946 22.946 0 0 1-3.079-4.125 22.84 22.84 0 0 1-1.989-4.742c-.412-1.528-.648-2.94-.701-4.134-.064-.594-.026-1.136-.022-1.609a7.81 7.81 0 0 1 .089-1.209c.085-.662.15-1.022.191-1.016.116.01-.075 1.471.157 3.801.104 1.165.377 2.535.806 4.017a24.353 24.353 0 0 0 1.98 4.605 24.383 24.383 0 0 0 2.964 4.046c1.06 1.125 2.104 2.058 3.057 2.743 1.893 1.388 3.252 1.972 3.202 2.076Z"/>
  <path fill="#fff" d="M394.205 248.932h53.018c5.132 0 9.293-4.141 9.293-9.247V121.198c0-5.107-4.161-9.247-9.293-9.247h-53.018c-5.133 0-9.293 4.14-9.293 9.247v118.487c0 5.106 4.16 9.247 9.293 9.247Z" opacity=".3"/>
  <path fill="#F5F5F5" d="M396.6 98.998h42.937c7.863 0 14.237 6.343 14.237 14.166V155.7c0 11.359-9.254 20.567-20.671 20.567h-30.07c-11.416 0-20.672-9.208-20.672-20.567v-42.536c0-7.824 6.375-14.166 14.239-14.166Z" opacity=".3"/>
  <path fill="#E0E0E0" d="M441.647 136.603h-49.432c-3.046 0-5.516-2.457-5.516-5.488v-2.949c0-3.03 2.47-5.488 5.516-5.488h49.432c3.046 0 5.516 2.457 5.516 5.488v2.949c-.001 3.031-2.47 5.488-5.516 5.488Z"/>
  <path fill="#EEA07B" d="M437.008 110.68c.745 0 1.349.599 1.349 1.338 0 .74-.604 1.339-1.349 1.339s-1.35-.599-1.35-1.339a1.343 1.343 0 0 1 1.35-1.338Zm3.861 0c.745 0 1.35.599 1.35 1.338 0 .74-.605 1.339-1.35 1.339a1.344 1.344 0 0 1-1.349-1.339c0-.739.604-1.338 1.349-1.338Zm3.865 2.677c.746 0 1.35-.599 1.35-1.339 0-.739-.604-1.338-1.35-1.338-.745 0-1.349.599-1.349 1.338 0 .74.604 1.339 1.349 1.339Zm-53.445-3.347-1.626 1.666c-.173.177-.209.525 0 .696l1.626 1.337c.2.164.508.209.7 0 .167-.181.213-.522 0-.697l-1.626-1.336v.696c.542-.555 1.085-1.11 1.626-1.666.181-.185.199-.514 0-.696-.194-.178-.506-.197-.7 0Zm1.992 19.479a1.147 1.147 0 0 1-.742 1.067 1.165 1.165 0 0 1-1.3-.359 1.146 1.146 0 0 1-.083-1.294 1.153 1.153 0 0 1 1.178-.537c.549.1.939.573.947 1.123.006.38.6.381.594 0a1.753 1.753 0 0 0-1.143-1.624 1.749 1.749 0 0 0-1.925.512 1.741 1.741 0 0 0-.165 1.995 1.767 1.767 0 0 0 1.831.813c.812-.146 1.391-.889 1.402-1.696.005-.381-.589-.381-.594 0Z"/>
  <path fill="#EEA07B" d="m392.908 130.748.544.6.079.086a.304.304 0 0 0 .21.087c.073 0 .16-.033.21-.087a.302.302 0 0 0 0-.418l-.545-.599a6.688 6.688 0 0 0-.078-.086.302.302 0 0 0-.21-.087.3.3 0 0 0-.21.087.3.3 0 0 0 0 .417Z"/>
  <path fill="#E86B31" d="M393.135 148.87h-3.573a2.697 2.697 0 0 1-2.703-2.689 2.697 2.697 0 0 1 2.703-2.689h3.573a2.696 2.696 0 0 1 2.702 2.689 2.696 2.696 0 0 1-2.702 2.689Z"/>
  <path fill="#E0E0E0" d="M445.381 148.87h-3.573a2.697 2.697 0 0 1-2.703-2.689 2.697 2.697 0 0 1 2.703-2.689h3.573a2.697 2.697 0 0 1 2.703 2.689 2.697 2.697 0 0 1-2.703 2.689Z"/>
  <path fill="#EBEBEB" d="M416.788 148.87h-14.746a2.696 2.696 0 0 1-2.702-2.689 2.696 2.696 0 0 1 2.702-2.689h14.746a2.696 2.696 0 0 1 2.703 2.689 2.697 2.697 0 0 1-2.703 2.689Z"/>
  <path fill="#EEA07B" d="M433.736 148.87h-9.227a2.696 2.696 0 0 1-2.702-2.689 2.696 2.696 0 0 1 2.702-2.689h9.227a2.696 2.696 0 0 1 2.702 2.689 2.695 2.695 0 0 1-2.702 2.689Z"/>
  <path fill="#E86B31" d="M405.569 204.291h-12.241a1.992 1.992 0 0 1-1.998-1.987c0-1.098.894-1.988 1.998-1.988h12.241c1.103 0 1.997.89 1.997 1.988a1.992 1.992 0 0 1-1.997 1.987Zm39.492 25.768a2.712 2.712 0 0 1-2.719 2.705 2.712 2.712 0 0 1-2.719-2.705 2.712 2.712 0 0 1 2.719-2.705 2.712 2.712 0 0 1 2.719 2.705Zm-7.807 0a2.712 2.712 0 0 1-2.719 2.705 2.712 2.712 0 0 1-2.719-2.705 2.712 2.712 0 0 1 2.719-2.705 2.712 2.712 0 0 1 2.719 2.705Zm-8.388 0a2.712 2.712 0 0 1-2.719 2.705 2.712 2.712 0 0 1-2.719-2.705 2.712 2.712 0 0 1 2.719-2.705 2.712 2.712 0 0 1 2.719 2.705Z"/>
  <path fill="#EEA07B" d="M445.238 218.2h-21.405a1.272 1.272 0 0 1-1.274-1.268c0-.7.57-1.268 1.274-1.268h21.405c.703 0 1.274.567 1.274 1.268 0 .7-.571 1.268-1.274 1.268Zm0 5.254h-21.405a1.272 1.272 0 0 1-1.274-1.268c0-.7.57-1.268 1.274-1.268h21.405c.703 0 1.274.567 1.274 1.268 0 .7-.571 1.268-1.274 1.268Z"/>
  <path fill="#fff" d="M441.043 192.336h-46.484c-2.867 0-5.192-2.312-5.192-5.165v-25.388c0-2.853 2.325-5.166 5.192-5.166h46.484c2.867 0 5.191 2.313 5.191 5.166v25.388c0 2.853-2.324 5.165-5.191 5.165Z"/>
  <path fill="#EEA07B" d="M414.887 171.27c2.098 0 3.798-1.692 3.798-3.779 0-2.086-1.7-3.778-3.798-3.778-2.097 0-3.797 1.692-3.797 3.778 0 2.087 1.7 3.779 3.797 3.779Z"/>
  <path fill="#EEA07B" d="M446.235 187.739v-12.683c-1.455-1.723-2.989-3.35-4.711-4.711-2.814-2.223-6.219-3.703-9.63-3.336-4.408.474-8.183 3.948-10.769 8.033-1.27 2.005-2.58 4.39-4.721 4.807-1.645.322-3.269-.67-4.58-1.844-1.312-1.174-2.501-2.586-4.029-3.352-3.064-1.536-6.616-.102-9.601 1.624a56.926 56.926 0 0 0-8.827 6.326v5.134c0 2.539 1.811 4.598 4.043 4.598h48.782c2.233.001 4.043-2.057 4.043-4.596Z"/>
  <path fill="#263238" d="M441.043 192.336c-.009-.047.64.052 1.743-.35a5.196 5.196 0 0 0 1.807-1.137 5.083 5.083 0 0 0 1.418-2.502c.128-.535.148-1.109.134-1.73l-.009-1.941-.016-4.401-.031-10.728-.014-6.24c-.023-1.088.101-2.204-.31-3.226a4.967 4.967 0 0 0-2.072-2.537 4.864 4.864 0 0 0-1.582-.64c-.566-.124-1.147-.116-1.761-.114l-3.698.005-7.719.009-34.369.016a5.045 5.045 0 0 0-3.83 1.781 4.926 4.926 0 0 0-.985 1.894c-.198.689-.177 1.406-.176 2.154a785050.626 785050.626 0 0 1-.008 17.146c0 1.376-.002 2.737-.003 4.083l-.001 2.007c.008.663-.03 1.337.049 1.955a4.963 4.963 0 0 0 1.798 3.195c.963.796 2.199 1.158 3.423 1.118l7.281.011 13.07.025 18.924.065 5.145.039 1.337.02c.301.008.455.023.455.023s-.154.014-.456.021l-1.338.02-5.145.039-18.924.065-13.069.025-7.282.011c-1.272.046-2.629-.34-3.657-1.193a5.34 5.34 0 0 1-1.941-3.43c-.085-.687-.046-1.341-.056-2.007l-.002-2.007-.003-4.082-.005-8.422-.004-8.724c0-.725-.026-1.511.19-2.26.2-.747.562-1.455 1.067-2.052a5.454 5.454 0 0 1 4.145-1.928l34.37.017 7.718.008 3.698.005c.598-.001 1.229-.008 1.834.126a5.247 5.247 0 0 1 1.691.689 5.303 5.303 0 0 1 2.201 2.715c.194.547.316 1.119.316 1.691 0 .554.001 1.103.003 1.647l-.014 6.239a28351 28351 0 0 1-.031 10.729l-.016 4.401-.009 1.94c.008.612-.018 1.22-.157 1.767a5.17 5.17 0 0 1-1.49 2.554 5.231 5.231 0 0 1-1.863 1.127 4.957 4.957 0 0 1-1.315.269c-.302.006-.456 0-.456 0Z"/>
  <path fill="#fff" d="M410.161 235.12h-14.099c-3.747 0-6.785-3.022-6.785-6.75v-11.502c0-3.729 3.038-6.751 6.785-6.751h14.099c3.748 0 6.785 3.023 6.785 6.751v11.502c0 3.728-3.038 6.75-6.785 6.75Z"/>
  <path fill="#E86B31" d="M406.774 217.334a2.712 2.712 0 0 1-2.719 2.705 2.712 2.712 0 0 1-2.719-2.705 2.712 2.712 0 0 1 2.719-2.705 2.714 2.714 0 0 1 2.719 2.705Zm-10.516 17.787h13.704c3.857 0 6.983-3.111 6.983-6.947v-8.398a8.64 8.64 0 0 0-3.123-.496c-1.724.045-3.257.85-4.381 1.814-1.124.963-1.942 2.098-2.978 3.113-.684.671-1.574 1.332-2.709 1.406-2.671.174-3.783-2.751-6.35-3.322-1.213-.27-2.555.062-3.555.635-1 .574-1.723 1.363-2.43 2.138l-2.144 2.354v.755c.001 3.837 3.127 6.948 6.983 6.948Z"/>
  <path fill="#263238" d="M410.22 235.121c-.001-.026.331-.018.946-.116a6.588 6.588 0 0 0 2.522-.944c.999-.6 2.061-1.675 2.675-3.216.671-1.543.387-3.502.435-5.612l-.026-6.924c-.016-1.247.086-2.537-.417-3.745-.435-1.215-1.292-2.314-2.409-3.094a6.667 6.667 0 0 0-3.964-1.158l-4.506.005-9.475.004a6.595 6.595 0 0 0-4.272 1.592 6.418 6.418 0 0 0-2.161 3.852c-.128.722-.086 1.475-.094 2.226l-.003 2.221-.008 4.299v4.085a6.51 6.51 0 0 0 1.136 3.526 6.6 6.6 0 0 0 2.664 2.24c1.029.503 2.129.622 3.184.612l10.076.066 2.74.038.712.021c.163.009.245.015.245.022 0 .007-.082.014-.243.021l-.713.021-2.739.038-10.077.066c-1.06.021-2.242-.096-3.316-.615a6.897 6.897 0 0 1-2.813-2.335 6.85 6.85 0 0 1-1.217-3.71l-.017-4.094-.007-4.299-.003-2.22c.007-.74-.04-1.508.094-2.291a6.813 6.813 0 0 1 2.29-4.097 7.005 7.005 0 0 1 4.542-1.694l9.475.004 4.506.005a7.048 7.048 0 0 1 4.181 1.239c1.179.83 2.078 1.995 2.532 3.279.524 1.284.409 2.649.419 3.87l-.026 6.924-.014 3.02c.004.965-.172 1.885-.498 2.676-.657 1.588-1.77 2.674-2.806 3.268a6.409 6.409 0 0 1-2.594.89c-.624.073-.956.034-.956.034Z"/>
  <path fill="#263238" d="M393.423 245.488s-.364-.004-1.078-.033c-.703-.089-1.776-.2-3.074-.726a10.97 10.97 0 0 1-4.199-2.907c-1.385-1.484-2.527-3.671-2.83-6.306-.103-1.324-.046-2.704-.066-4.163l-.009-4.583-.016-10.396-.031-25.341-.045-65.963-.004-9.423c.018-1.594-.042-3.177.039-4.805.1-1.628.516-3.245 1.232-4.732 1.421-2.981 4.069-5.405 7.261-6.54 1.586-.587 3.313-.793 4.999-.775h5.069l20.707-.004h18.628c.891-.007 1.806.001 2.716.104 3.643.426 7.007 2.487 9.059 5.449a12.556 12.556 0 0 1 2.063 4.923c.341 1.771.199 3.541.23 5.276l-.004 20.608-.011 38.96-.019 35.253-.012 15.977-.007 7.53c-.009 1.219.038 2.462-.214 3.661a11.658 11.658 0 0 1-1.252 3.37c-.574 1.045-1.348 1.954-2.197 2.743a10.644 10.644 0 0 1-2.853 1.906c-1.028.474-2.112.816-3.211.946-1.1.16-2.188.117-3.246.119l-12.006-.015-19.23-.035-12.153-.039-3.16-.02c-.711-.005-1.076-.019-1.076-.019s.365-.014 1.076-.021l3.16-.021 12.153-.038 19.23-.035 12.006-.016c1.065-.005 2.144.035 3.208-.124 1.072-.13 2.128-.465 3.13-.931a10.358 10.358 0 0 0 2.779-1.864c.826-.772 1.579-1.658 2.135-2.678a11.408 11.408 0 0 0 1.213-3.284c.243-1.164.195-2.372.202-3.604l-.007-7.53-.011-15.977c-.007-11.041-.013-22.838-.019-35.253l-.012-38.96c-.001-6.755-.003-13.631-.003-20.608-.031-1.746.107-3.507-.224-5.201a12.138 12.138 0 0 0-1.998-4.766c-1.988-2.867-5.244-4.863-8.77-5.275-.877-.098-1.764-.107-2.666-.1h-8.036l-10.592-.002c-7.01 0-13.919-.002-20.707-.003h-5.069c-1.673-.019-3.318.18-4.864.748-3.092 1.097-5.662 3.447-7.04 6.335a12.34 12.34 0 0 0-1.197 4.587c-.081 1.58-.023 3.197-.042 4.781l-.004 9.424-.045 65.963-.03 25.341-.017 10.395-.009 4.583c.014 1.455-.048 2.851.048 4.147.286 2.598 1.401 4.765 2.761 6.24a10.947 10.947 0 0 0 4.139 2.911c2.604 1.007 4.144.748 4.122.836Z"/>
  <path fill="#263238" d="M417.799 281.532c-.114 0-.205-8.069-.205-18.021 0-9.954.092-18.023.205-18.023.113 0 .206 8.068.206 18.023 0 9.952-.092 18.021-.206 18.021Z"/>
  <path fill="#EEA07B" d="M420.782 97.758c0 2.116-1.724 3.831-3.85 3.831-2.127 0-3.85-1.715-3.85-3.83a3.84 3.84 0 0 1 3.85-3.831c2.126 0 3.85 1.715 3.85 3.83Z"/>
  <path fill="#263238" d="M418.067 284.532c2.126 0 3.85-1.715 3.85-3.83 0-2.116-1.724-3.831-3.85-3.831-2.127 0-3.85 1.715-3.85 3.831 0 2.115 1.723 3.83 3.85 3.83Z"/>
  <path fill="#EEA07B" d="M373.002 82.025c0-.014.204-.028.594-.04l1.702-.04 6.262-.065 20.656-.06c2.017.002 3.986.004 5.888.004l2.801.005a6.12 6.12 0 0 1 2.681.586c1.639.766 2.799 2.214 3.239 3.742.241.758.27 1.555.25 2.263l-.013 2.064-.066 6.23-.039 1.693c-.013.387-.027.59-.041.59-.014 0-.029-.203-.041-.59l-.039-1.694-.066-6.229-.013-2.064c.01-.724-.026-1.44-.26-2.164-.429-1.438-1.533-2.79-3.074-3.5-1.531-.788-3.424-.468-5.32-.53l-5.888.003-20.656-.06-6.262-.065-1.702-.039c-.389-.011-.593-.026-.593-.04Z"/>
  <path fill="#fff" d="m535.379 228.504 2.122-6.359a21.183 21.183 0 0 1-3.59-11.064c-.435-11.79 8.819-21.698 20.669-22.131 11.85-.432 21.809 8.775 22.243 20.565.435 11.789-8.819 21.697-20.669 22.13a21.452 21.452 0 0 1-13.295-3.991l.008.009-7.488.841Z"/>
  <path fill="#263238" d="M535.379 228.507s.172-.026.498-.067l1.438-.176 5.544-.664-.044.108-.008-.009a.068.068 0 0 1 .009-.094.07.07 0 0 1 .083-.002c2.284 1.61 5.612 3.295 9.864 3.799 1.056.126 2.164.183 3.308.139 1.139-.097 2.324-.157 3.513-.435a21.317 21.317 0 0 0 7.128-2.84 21.332 21.332 0 0 0 9.616-14.114c1.206-6.143-.612-13.26-5.363-18.286-2.418-2.545-5.382-4.522-8.599-5.587a21.814 21.814 0 0 0-9.761-1.009c-3.192.387-6.162 1.547-8.686 3.144a21.452 21.452 0 0 0-6.157 5.923 21.2 21.2 0 0 0-3.157 7.068c-.067.299-.133.596-.197.89a5.614 5.614 0 0 0-.155.883l-.204 1.738c-.009 1.146-.076 2.255.039 3.315a21.24 21.24 0 0 0 3.466 9.883.06.06 0 0 1 .007.055l-1.608 4.697-.422 1.221c-.096.274-.152.42-.152.42s.038-.132.124-.402l.39-1.212 1.547-4.765.007.055a21.223 21.223 0 0 1-3.558-9.936c-.121-1.069-.059-2.188-.055-3.346l.199-1.756c.023-.3.082-.596.153-.893l.195-.9a21.398 21.398 0 0 1 3.171-7.159 21.668 21.668 0 0 1 6.219-6.01c2.552-1.622 5.56-2.804 8.795-3.2 3.226-.408 6.649-.1 9.897 1.014 3.263 1.078 6.271 3.082 8.723 5.663.319.3.585.645.858.982l.816 1.012.714 1.078c.241.356.479.713.665 1.099l.599 1.131c.21.371.336.78.508 1.166.154.394.335.777.466 1.177l.359 1.206c.912 3.22 1.046 6.574.443 9.692a21.577 21.577 0 0 1-9.765 14.278 21.563 21.563 0 0 1-7.22 2.849c-1.203.276-2.401.333-3.552.426a21.197 21.197 0 0 1-3.339-.156 21.53 21.53 0 0 1-9.919-3.89l.091-.097.008.01c.024.028.02.07-.008.093a.06.06 0 0 1-.035.015l-5.602.587-1.422.145c-.318.033-.472.044-.472.044Z"/>
  <path fill="#E86B31" d="m545.449 210.872 2.999-3.3 6.362 5.081 9.448-10.798 3.092 2.996-12.684 13.883-9.217-7.862Z"/>
  <path fill="#472E05" d="M182.236 87.686c2.544 1.43 6.116.633 7.801-1.74 1.685-2.374 1.247-5.99-.957-7.897 2.384-.994 3.983-3.597 3.786-6.16-.197-2.564-2.177-4.895-4.685-5.516.897-2.376.448-5.207-1.141-7.193-1.589-1.986-4.261-3.056-6.79-2.72-1.652-3.307-5.8-5.154-9.379-4.176-2.102-1.381-5.105-1.221-7.048.375-1.942 1.596-2.668 4.5-1.703 6.815"/>
  <path fill="#E4897B" d="m167.396 57.176 1.206.51c12.129 5.127 18.269 18.662 14.105 31.103-3.871 11.572-8.297 24.307-10.936 30.277-5.462 12.363-18.78 9.014-18.78 9.014l-5.321 15.377-29.916-13.751 20.445-55.286c4.394-13.376 15.879-21.983 29.197-17.244Z"/>
  <path fill="#6F4439" d="M153.103 128.106s-8.181-2.895-14.332-11.686c0 0 .206 10.611 13.148 14.762l1.184-3.076Z"/>
  <path fill="#263238" d="M173.037 100.274c-.367.951-1.479 1.427-2.484 1.064-1.004-.363-1.523-1.427-1.156-2.378.368-.95 1.479-1.428 2.483-1.065 1.006.362 1.525 1.428 1.157 2.379Zm4.389-6.539c-.32.138-1.246-1.429-3.168-2.235-1.908-.833-3.737-.446-3.844-.767-.058-.148.345-.47 1.148-.655.793-.188 2.007-.182 3.201.328 1.192.513 2.011 1.376 2.398 2.068.397.7.419 1.203.265 1.261Zm-21.43-1.223c-.367.951-1.479 1.427-2.484 1.063-1.004-.362-1.523-1.425-1.156-2.377.367-.951 1.48-1.427 2.484-1.065 1.006.363 1.524 1.428 1.156 2.38Zm2.409-6.398c-.32.138-1.249-1.429-3.168-2.235-1.908-.833-3.736-.446-3.845-.768-.058-.147.344-.47 1.149-.654.793-.188 2.007-.182 3.2.328 1.193.512 2.012 1.375 2.398 2.067.396.7.419 1.204.266 1.262Zm.918 17.111c.037-.113 1.318.186 3.357.758.511.157 1.017.257 1.242-.042.265-.303.285-.916.29-1.584l.136-4.326c.245-6.139.645-11.101.893-11.09.249.013.251 4.998.006 11.136-.073 1.508-.14 2.948-.207 4.322-.052.633-.001 1.396-.563 2.022-.288.309-.761.421-1.111.373-.355-.038-.632-.149-.881-.238-1.99-.718-3.201-1.22-3.162-1.331Zm3.887-23.756c-.46.377-1.881-.843-3.878-1.765-1.976-.966-3.845-1.308-3.816-1.89.023-.273.568-.556 1.464-.634.889-.082 2.118.084 3.31.649 1.191.567 2.077 1.405 2.551 2.135.48.732.581 1.321.369 1.505Zm17.672 6.431c-.589.263-1.981-.858-3.877-1.684-1.872-.882-3.644-1.196-3.82-1.807-.069-.29.37-.616 1.25-.729.869-.116 2.174.041 3.469.628 1.294.588 2.261 1.461 2.734 2.185.483.73.513 1.271.244 1.407Z"/>
  <path fill="#472E05" d="M183.94 82.583s.03-9.176-2.967-12.587c-3.627-4.129-7.722.027-11.557-3.023-3.835-3.05-7.293-7.003-13.17-5.536-6.433 1.605-5.25 5.14-7.905 10.527-10.768 21.841-17.572 26.429-14.241 15.405.364-1.208-2.462-3.486-.856-8.562 2.081-6.582 5.114-14.36 8.448-18.246 2.81-3.276 6.092-4.971 11.207-6.209 8.074-1.953 16.54 1.511 22.016 4.503 5.476 2.99 13.709 14.203 9.025 23.728Z"/>
  <path fill="#E4897B" d="M135.041 87.366c.741-1.952-.274-4.169-2.272-4.8-2.424-.764-5.578-.544-7.47 4.311-3.356 8.612 6.026 10.188 6.137 9.946.076-.163 2.233-5.841 3.605-9.457Z"/>
  <path fill="#6F4439" d="M130.815 92.859c-.028-.042-.192.047-.493.065-.292.017-.75-.07-1.135-.413-.785-.686-.992-2.427-.429-3.996a5.316 5.316 0 0 1 1.259-1.985c.511-.53 1.091-.81 1.583-.714.5.07.718.47.73.754.022.286-.1.436-.06.469.016.03.242-.074.311-.456a1.02 1.02 0 0 0-.13-.67c-.142-.249-.414-.452-.748-.54-.685-.213-1.524.167-2.095.726a5.46 5.46 0 0 0-1.458 2.199c-.621 1.757-.361 3.726.75 4.568.547.393 1.126.406 1.468.304.35-.109.471-.284.447-.311Z"/>
  <path fill="#472E05" d="M142.239 70.974c.787 1.222 1.628 2.495 2.908 3.19 1.279.697 3.134.58 3.922-.642.354-.55.502-1.297 1.088-1.59.699-.347 1.486.188 2.17.565 2.371 1.312 6.437-.19 8.096-2.326.229 1.211 1.495 2.083 2.716 1.873 1.221-.21 1.72-.412 2.835-.95 1.115-.537 2.494-.856 3.554-.22.593.357 1.024.98 1.684 1.193 1.164.375 2.269-.7 2.912-1.736.643-1.035 1.327-2.272 2.534-2.472 1.118-.186 2.122.619 3.089 1.207.967.588 2.403.91 3.096.017.364-.468.373-1.118.277-1.702-.441-2.646-2.945-4.797-5.639-4.843.363-3.161-1.343-6.462-4.138-8.006-2.796-1.546-6.514-1.242-9.018.737-1.109-2.392-3.44-4.185-6.046-4.65-2.607-.465-5.418.41-7.295 2.269-1.845-1.422-4.554-1.624-6.591-.491s-3.285 3.534-3.035 5.843c-1.908.224-3.869 1.185-4.653 2.93-.783 1.746.191 4.226 2.094 4.484-1.274 1.078-1.507 3.173-.5 4.502 1.007 1.328 3.096 1.683 4.488.761"/>
  <path fill="#455A64" d="M177.046 65.307c.007.004-.017.056-.068.154-.056.097-.127.25-.248.431-.246.36-.654.873-1.32 1.375a6.641 6.641 0 0 1-2.751 1.208c-1.152.23-2.572.174-3.922-.486l.225-.127c-.045.839-.49 1.68-1.174 2.274-.668.613-1.499 1.058-2.354 1.472-.428.19-.841.453-1.371.57a3.27 3.27 0 0 1-1.567-.072c-1.015-.284-1.975-1.04-2.33-2.142l.358.044c-.939 1.597-2.626 2.879-4.6 3.26-1.061.241-2.218.173-3.195-.27-.984-.428-1.779-1.105-2.506-1.773l.271-.003c-.91.862-2 1.465-3.141 1.769-1.125.308-2.411.224-3.319-.452-1.835-1.277-2.459-3.51-2.058-5.195l.155.172c-1.231.12-2.327-.282-3.118-.811a5.179 5.179 0 0 1-1.658-1.773 4.45 4.45 0 0 1-.511-1.442c-.04-.348-.04-.53-.029-.53.058-.017.008.764.675 1.894.34.547.863 1.176 1.647 1.664.769.49 1.817.848 2.962.719l.198-.023-.044.194c-.354 1.58.269 3.68 1.979 4.843.827.602 1.961.67 3.026.379a6.991 6.991 0 0 0 2.962-1.686l.135-.13.137.126c.716.655 1.487 1.3 2.398 1.692.906.406 1.943.47 2.953.243 1.865-.362 3.447-1.56 4.344-3.068l.225-.38.133.425c.294.94 1.146 1.633 2.058 1.891.457.132.938.168 1.384.074.434-.087.857-.341 1.291-.533.849-.403 1.654-.828 2.284-1.396.644-.552 1.037-1.29 1.092-2.045l.017-.232.208.105c1.265.638 2.621.718 3.736.517a6.611 6.611 0 0 0 2.693-1.105c1.326-.956 1.686-1.867 1.738-1.821Z"/>
  <path fill="#263238" d="M156.114 109.581c.088-.338-2.2-.789-3.44-3.055-1.246-2.263-.51-4.64-.826-4.721-.137-.059-.551.454-.782 1.473-.233.998-.198 2.529.56 3.916.762 1.383 1.99 2.154 2.913 2.415.941.273 1.557.13 1.575-.028Z"/>
  <path fill="url(#b)" d="m109.759 115.091 12.783 1.671c1.059 9.195 15.906 21.482 28.799 15.529l21.391 18.456c-.573.552-12.763 27.006-25.632 51.308-3.491 6.593-7.546 12.611-10.344 18.18l-1.375 18.291c-21.796 4.981-46.165 1.468-63.217-8.518-7.825-4.69-15.113-10.111-21.252-16.803L74.52 133.71s-.579-13.738 12.694-17.318c7.016-1.892 11.375-1.749 14.857-1.73 1.33.009 5.62.218 7.689.429Z"/>
  <path fill="#CF5642" fill-opacity=".99" d="M157.165 143.785s16.047 1.226 19.708 14.141c3.662 12.915-.403 61.697-.403 61.697l22.97 9.795-3.637 17.004s-22.663 2.223-37.308-1.42c-14.646-3.643-5.99-76.71-5.99-76.71l4.66-24.507Z"/>
  <path fill="#263238" d="M169.515 166.338c.01.01-.103.208-.326.573l-.964 1.616-3.555 5.947-11.775 19.596-11.844 19.56-3.626 5.905-1.003 1.595c-.234.363-.362.549-.374.542-.013-.007.093-.208.302-.584l.937-1.634 3.514-5.972 11.74-19.621a2496.373 2496.373 0 0 1 11.879-19.536 486.225 486.225 0 0 1 3.668-5.88c.445-.689.782-1.225 1.032-1.58.25-.356.384-.536.395-.527Z"/>
  <path fill="#E86D38" d="M70.693 127.69s-40.236 54.217-32.31 66.67c12.953 20.349 70.952 9.605 70.952 9.605l-1.304-27.032-32.352.367 18.074-32.866 11.046-29.628c-13.914-.853-24.618.131-34.106 12.884Z"/>
  <path fill="#263238" d="M86.22 157.801c.026.013-.088.297-.316.802a70.442 70.442 0 0 1-1.007 2.114 185.54 185.54 0 0 1-3.57 6.852 187.636 187.636 0 0 1-3.83 6.713 70.3 70.3 0 0 1-1.237 1.992c-.302.464-.483.712-.507.697-.025-.015.11-.29.369-.779l1.12-2.054 3.722-6.764 3.673-6.79 1.124-2.053c.271-.482.434-.742.46-.73Z"/>
  <path fill="url(#c)" d="m84.474 156.03 110.543 112.236 27.187-24.515-112.869-112.216c-6.722-6.683-17.577-6.805-24.45-.275-7.05 6.7-7.235 17.842-.411 24.77Z"/>
  <path fill="#F5F5F5" d="m222.204 243.752 6.257 28.594c.582 2.657-1.9 4.969-4.527 4.216l-28.916-8.294 27.186-24.516Z"/>
  <path fill="#E86B31" d="m227.809 269.369.782 3.628c.527 2.446-1.798 4.547-4.194 3.79l-3.286-1.037 6.698-6.381Z"/>
  <path fill="#5F3B00" d="M84.886 131.263c6.462-6.141 16.442-6.397 23.2-.851l-24.695 24.402c-.02-.025-.046-.049-.067-.074l-.086-.108c-5.532-6.955-4.945-17.104 1.648-23.369Z"/>
  <path fill="#263238" d="M84.943 131.207s-.254.288-.764.832c-.128.137-.27.29-.43.458-.147.178-.294.386-.463.604l-.541.712c-.195.254-.351.561-.546.867-.777 1.224-1.536 2.881-2.022 4.944a18.074 18.074 0 0 0-.193 7.257 18.076 18.076 0 0 0 3.813 8.212c1.083 1.274 2.368 2.486 3.64 3.796l4 4.05 18.775 19.019 48.845 49.531 28.834 29.258 3.766 3.821 1.893 1.917a9.532 9.532 0 0 0 2.146 1.551c.788.428 1.621.699 2.509.937l2.633.754 5.295 1.519 10.705 3.07 5.407 1.551 1.358.389c.461.146.877.227 1.329.236a3.43 3.43 0 0 0 2.398-1.01c.631-.626 1.013-1.506.995-2.392.012-.44-.11-.879-.208-1.345l-.3-1.374-1.197-5.472-2.371-10.835-1.172-5.36-.583-2.664a6.973 6.973 0 0 0-.969-2.445c-.461-.75-1.128-1.341-1.769-1.987l-1.915-1.904-3.806-3.785-29.129-28.978-49.305-49.083-18.931-18.864c-2.792-2.768-5.362-5.381-7.777-7.72l-.923-.834-.979-.723a8.114 8.114 0 0 0-.995-.649c-.339-.195-.661-.414-1.005-.581-.696-.319-1.356-.674-2.054-.89-.345-.117-.677-.259-1.019-.351l-1.018-.259c-2.692-.653-5.207-.535-7.29-.144-.517.123-1.025.207-1.493.35l-1.343.434c-.823.357-1.59.645-2.212 1.026-.317.178-.622.337-.897.5l-.738.507-.63.431-.48.402c-.573.476-.874.714-.874.714s.282-.258.847-.749l.476-.412.626-.441.736-.517c.274-.167.578-.33.895-.511.623-.389 1.39-.684 2.216-1.05l1.347-.445c.472-.147.982-.235 1.502-.362 2.095-.407 4.63-.539 7.349.108l1.028.258c.346.091.682.233 1.03.349.706.217 1.375.571 2.079.891.348.168.674.388 1.018.584.343.197.689.4 1.008.652l.993.727.935.839c2.432 2.339 5.004 4.939 7.805 7.701l18.974 18.821 49.369 49.021 29.146 28.961c1.263 1.255 2.533 2.516 3.806 3.783l1.916 1.903c.627.632 1.331 1.254 1.825 2.056.504.78.85 1.673 1.025 2.576l.584 2.665 1.173 5.359c.785 3.586 1.577 7.198 2.372 10.835l1.198 5.472.301 1.374c.093.448.227.927.217 1.431.019.994-.41 1.983-1.115 2.683a3.847 3.847 0 0 1-2.69 1.131 4.98 4.98 0 0 1-1.444-.252l-1.358-.389-5.407-1.551-10.705-3.071-5.296-1.519-2.632-.756c-.871-.233-1.779-.527-2.589-.969a9.9 9.9 0 0 1-2.236-1.618l-1.902-1.924-3.764-3.824-28.816-29.275-48.782-49.592c-6.939-7.061-13.217-13.449-18.73-19.061l-3.99-4.061c-1.269-1.317-2.542-2.522-3.639-3.821a18.228 18.228 0 0 1-3.82-8.309 18.15 18.15 0 0 1 .233-7.312c.501-2.074 1.278-3.736 2.07-4.959.199-.305.359-.611.557-.865l.551-.709c.172-.217.322-.423.474-.599l.438-.452c.522-.538.796-.805.796-.805Z"/>
  <path fill="#E4897B" d="M190.503 222.588c.368-.97 1.08-1.771 1.828-2.492.75-.721 2.146-2.083 2.78-2.906l4.88-4.51c3.264-.941 4.703 2.298 3.8 3.948.944-.327 1.309-.754 2.284-.533.975.223 1.883.864 2.259 1.786.377.922.117 2.108-.709 2.668 1.533-.15 3.115.755 3.756 2.149.386.838.414 1.818.133 2.693-.141.44-.361.844-.648 1.208-.102.129-.209.298-.353.385a.64.64 0 0 1-.229.073c-.37.061-.743.056-1.113.142-.14.032-.277.07-.414.113a7.005 7.005 0 0 0-1.748.845c-.248.164-.483.397-.754.522-.183.083-.391.076-.583.127-1.225.323-2.258 1.25-3.217 2.028-1.08.878-2.265 1.759-3.652 1.902-1.388.145-2.978-.768-3.044-2.154-.585.664-1.712.669-2.412.125-.701-.543-.986-1.501-.879-2.378.108-.877.559-1.679 1.109-2.372-.789.678-2.122.407-2.767-.408-.645-.816-.676-1.99-.307-2.961Z"/>
  <path fill="#E4897B" d="M213.709 228.967c.547.661.975 1.508.814 2.349-.19.997-1.304 2.018-2.159 2.571-.903-.806-1.313-1.266-2.216-2.072-.19-.169-.267-.374-.511-.449-.644-.197-1.634.667-2.275.878-1.11.364-2.399-.427-2.743-1.54-.343-1.111.154-2.375 1.048-3.125s2.114-1.034 3.282-.981a6.65 6.65 0 0 1 4.76 2.369Z"/>
  <path fill="#985146" d="M207.89 220.326c-.145-.17-2.978 1.988-6.326 4.818-3.35 2.831-5.947 5.262-5.802 5.432.144.169 2.976-1.987 6.325-4.819 3.35-2.829 5.947-5.261 5.803-5.431Zm-3.929-3.871c-.122-.174-2.878 1.559-5.836 4.249-2.967 2.683-4.957 5.252-4.793 5.389.175.153 2.411-2.148 5.338-4.794 2.917-2.654 5.427-4.656 5.291-4.844Zm-3.834-3.783c-.138-.179-2.34 1.378-4.685 3.688-2.341 2.305-4.105 4.278-3.961 4.433.16.171 2.198-1.564 4.527-3.857 2.325-2.292 4.255-4.091 4.119-4.264Zm12.095 15.276c.081-.053-.169-.587-.969-1.011-.775-.431-2.099-.592-3.368-.182-1.273.421-2.227.969-2.936 1.554-.725.674-.517 1.414-.406 1.349.11-.004.145-.517.768-.908a16.166 16.166 0 0 1 2.807-1.224c1.13-.358 2.189-.302 2.913-.064.723.226 1.1.569 1.191.486Z"/>
  <path fill="#E4897B" d="m108.09 178.166 10.79-.117s4.981-6.031 8.302-8.234c3.321-2.202 3.874-6.608 6.088-6.332 2.214.276 3.874 4.117 2.214 6.327-1.66 2.209-2.768 3.585-2.768 3.585s10.828-5.8 14.738-5.65c3.385.129 2.419 2.065 2.419 2.065s3.181-.701 5.948 1.225c2.768 1.928.694 4.012.694 4.012s3.86-.083 4.69 2.67c.83 2.754.014 3.387.014 3.387s4.427.825 2.767 4.68c-1.66 3.855-15.762 8.26-24.07 9.086-8.307.826-30.582 4.205-30.582 4.205l-1.244-20.909Z"/>
  <path fill="#E86D38" d="M48.33 202.301c20.117 3.674 40.303 4.935 61.005 1.302l-1.245-25.438-32.411-1.227-13.03 2.842"/>
  <path fill="#263238" d="M62.65 179.78a1.263 1.263 0 0 1 .22-.065l.656-.16 2.55-.589 9.578-2.148.015-.004.016.001 32.415 1.156.179.007.009.178 1.011 20.455.243 4.982.008.181-.178.031c-16.984 2.976-32.498 2.341-43.452 1.162a202.148 202.148 0 0 1-12.916-1.784c-1.514-.248-2.678-.486-3.47-.631l-.899-.176c-.202-.042-.304-.067-.303-.074.002-.006.106.005.31.034l.905.139 3.482.557a229.96 229.96 0 0 0 12.92 1.658c10.947 1.105 26.42 1.688 43.352-1.287l-.169.211-.245-4.982-.991-20.455.188.185-32.408-1.299.03-.003-9.602 2.036-2.564.526-.663.128c-.15.025-.226.036-.227.03Z"/>
  <path fill="#fff" d="m108.909 96.434-8.151-3.026a27.706 27.706 0 0 1-14.525 4.087c-15.317 0-27.735-12.355-27.735-27.595 0-15.241 12.417-27.595 27.735-27.595 15.317 0 27.735 12.354 27.735 27.595 0 6.363-2.171 12.22-5.808 16.887l.013-.01.736 9.657Z"/>
  <path fill="#263238" d="M108.91 96.434s-.026-.222-.063-.641l-.161-1.855-.599-7.153.139.062-.012.009a.088.088 0 0 1-.122-.015.086.086 0 0 1 .001-.106c2.197-2.858 4.542-7.053 5.397-12.49a26.77 26.77 0 0 0 .337-4.241c-.073-1.468-.094-2.992-.398-4.533a27.27 27.27 0 0 0-3.346-9.291 27.56 27.56 0 0 0-7.224-8.11 27.76 27.76 0 0 0-10.634-4.91c-7.913-1.84-17.233.158-23.98 6.023-3.416 2.984-6.123 6.698-7.656 10.78a27.79 27.79 0 0 0-1.772 12.49c.35 4.118 1.715 7.988 3.667 11.305a27.697 27.697 0 0 0 7.394 8.189 27.66 27.66 0 0 0 9.021 4.39l1.146.295c.377.105.754.196 1.138.24l2.245.345c1.487.065 2.92.204 4.302.106a27.744 27.744 0 0 0 12.987-3.984.084.084 0 0 1 .072-.007l6.019 2.289 1.563.6c.352.135.539.213.539.213s-.169-.054-.516-.178l-1.554-.558-6.109-2.213.071-.007a27.719 27.719 0 0 1-13.06 4.1c-1.393.105-2.842-.029-4.343-.089l-2.27-.338a7.593 7.593 0 0 1-1.151-.238l-1.159-.294a27.907 27.907 0 0 1-16.641-12.683c-1.984-3.355-3.374-7.275-3.735-11.448a28.124 28.124 0 0 1 1.785-12.664c1.554-4.14 4.296-7.908 7.76-10.935.405-.394.865-.72 1.316-1.055l1.35-1 1.433-.866c.474-.293.948-.581 1.458-.803l1.496-.716c.49-.252 1.028-.395 1.537-.596.518-.18 1.024-.395 1.55-.543l1.582-.404c4.22-1.018 8.579-1.031 12.596-.11a28.085 28.085 0 0 1 10.768 4.992 27.844 27.844 0 0 1 7.294 8.227 27.5 27.5 0 0 1 3.355 9.408c.301 1.559.318 3.1.384 4.582a26.976 26.976 0 0 1-.36 4.282c-.89 5.484-3.282 9.697-5.518 12.554l-.121-.121.013-.01a.087.087 0 0 1 .139.062l.497 7.222.12 1.834c.026.408.033.606.033.606Z"/>
  <path fill="#FFBE55" d="M80.225 59.656a11.576 11.576 0 0 1 2.821-1.22l.581-2.778 4.719-.082.679 2.757c.988.242 1.952.615 2.863 1.12l2.385-1.555 3.395 3.261-1.478 2.426c.54.888.948 1.833 1.226 2.807l2.793.579.083 4.695-2.77.676a11.464 11.464 0 0 1-1.127 2.847l1.563 2.373-3.278 3.378-2.437-1.47c-.893.536-1.843.942-2.822 1.219l-.582 2.778-4.718.082-.678-2.756a11.64 11.64 0 0 1-2.863-1.12l-2.385 1.555-3.395-3.262 1.478-2.425a11.457 11.457 0 0 1-1.227-2.808l-2.792-.578-.083-4.695 2.77-.676c.244-.984.62-1.943 1.126-2.848l-1.562-2.373 3.277-3.378 2.438 1.471Zm2.515 6.254a5.018 5.018 0 0 0 .126 7.122 5.08 5.08 0 0 0 7.158-.125 5.019 5.019 0 0 0-.126-7.122 5.082 5.082 0 0 0-7.158.125Z"/>
  <defs>
    <linearGradient id="a" x1="493.5" x2="481.935" y1="343" y2="261.128" gradientUnits="userSpaceOnUse">
      <stop stop-color="#FB8D48"/>
      <stop offset=".2" stop-color="#ED7136"/>
      <stop offset=".4" stop-color="#C54E47"/>
      <stop offset=".4" stop-color="#C14F49"/>
      <stop offset=".6" stop-color="#9D3863"/>
      <stop offset=".8" stop-color="#5E1F72"/>
    </linearGradient>
    <linearGradient id="b" x1="125.5" x2="124.225" y1="114" y2="241.302" gradientUnits="userSpaceOnUse">
      <stop stop-color="#FB8D48"/>
      <stop stop-color="#ED7136"/>
      <stop offset=".4" stop-color="#C54E47"/>
      <stop offset=".4" stop-color="#C14F49"/>
      <stop offset=".6" stop-color="#9D3863"/>
      <stop offset=".8" stop-color="#5E1F72"/>
    </linearGradient>
    <linearGradient id="c" x1="81.957" x2="222.688" y1="187.505" y2="190.251" gradientUnits="userSpaceOnUse">
      <stop stop-color="#FB8D48"/>
      <stop offset=".2" stop-color="#ED7136"/>
      <stop offset=".4" stop-color="#C54E47"/>
      <stop offset=".4" stop-color="#C14F49"/>
      <stop offset=".6" stop-color="#9D3863"/>
      <stop offset=".8" stop-color="#5E1F72"/>
    </linearGradient>
  </defs>
</svg>
